G04 #@! TF.GenerationSoftware,KiCad,Pcbnew,(7.0.0-0)*
G04 #@! TF.CreationDate,2023-03-28T21:35:28-07:00*
G04 #@! TF.ProjectId,Kit-Trig-Sampler,4b69742d-5472-4696-972d-53616d706c65,rev?*
G04 #@! TF.SameCoordinates,PXb745f8PY7402318*
G04 #@! TF.FileFunction,Legend,Bot*
G04 #@! TF.FilePolarity,Positive*
%FSLAX46Y46*%
G04 Gerber Fmt 4.6, Leading zero omitted, Abs format (unit mm)*
G04 Created by KiCad (PCBNEW (7.0.0-0)) date 2023-03-28 21:35:28*
%MOMM*%
%LPD*%
G01*
G04 APERTURE LIST*
%ADD10C,0.150000*%
%ADD11C,0.152400*%
%ADD12C,0.203200*%
%ADD13C,0.120000*%
%ADD14C,0.127000*%
%ADD15C,0.254000*%
%ADD16C,0.400000*%
%ADD17C,0.508000*%
%ADD18C,1.397000*%
%ADD19C,1.600000*%
%ADD20R,1.600000X1.600000*%
%ADD21O,1.600000X1.600000*%
%ADD22R,1.700000X1.700000*%
%ADD23O,1.700000X1.700000*%
%ADD24R,1.905000X2.000000*%
%ADD25O,1.905000X2.000000*%
%ADD26C,1.930400*%
%ADD27C,1.800000*%
%ADD28C,1.500000*%
%ADD29O,1.397000X1.092200*%
%ADD30O,1.524000X1.524000*%
%ADD31C,2.540000*%
G04 APERTURE END LIST*
D10*
X8441381Y13491420D02*
X8774714Y13967610D01*
X9012809Y13491420D02*
X9012809Y14491420D01*
X9012809Y14491420D02*
X8631857Y14491420D01*
X8631857Y14491420D02*
X8536619Y14443800D01*
X8536619Y14443800D02*
X8489000Y14396181D01*
X8489000Y14396181D02*
X8441381Y14300943D01*
X8441381Y14300943D02*
X8441381Y14158086D01*
X8441381Y14158086D02*
X8489000Y14062848D01*
X8489000Y14062848D02*
X8536619Y14015229D01*
X8536619Y14015229D02*
X8631857Y13967610D01*
X8631857Y13967610D02*
X9012809Y13967610D01*
X8012809Y14015229D02*
X7679476Y14015229D01*
X7536619Y13491420D02*
X8012809Y13491420D01*
X8012809Y13491420D02*
X8012809Y14491420D01*
X8012809Y14491420D02*
X7536619Y14491420D01*
X7250904Y14491420D02*
X6917571Y13491420D01*
X6917571Y13491420D02*
X6584238Y14491420D01*
X6489000Y13396181D02*
X5727095Y13396181D01*
X5631856Y14491420D02*
X5060428Y14491420D01*
X5346142Y13491420D02*
X5346142Y14491420D01*
X4155666Y13491420D02*
X4488999Y13967610D01*
X4727094Y13491420D02*
X4727094Y14491420D01*
X4727094Y14491420D02*
X4346142Y14491420D01*
X4346142Y14491420D02*
X4250904Y14443800D01*
X4250904Y14443800D02*
X4203285Y14396181D01*
X4203285Y14396181D02*
X4155666Y14300943D01*
X4155666Y14300943D02*
X4155666Y14158086D01*
X4155666Y14158086D02*
X4203285Y14062848D01*
X4203285Y14062848D02*
X4250904Y14015229D01*
X4250904Y14015229D02*
X4346142Y13967610D01*
X4346142Y13967610D02*
X4727094Y13967610D01*
X3727094Y13491420D02*
X3727094Y14491420D01*
X2727095Y14443800D02*
X2822333Y14491420D01*
X2822333Y14491420D02*
X2965190Y14491420D01*
X2965190Y14491420D02*
X3108047Y14443800D01*
X3108047Y14443800D02*
X3203285Y14348562D01*
X3203285Y14348562D02*
X3250904Y14253324D01*
X3250904Y14253324D02*
X3298523Y14062848D01*
X3298523Y14062848D02*
X3298523Y13919991D01*
X3298523Y13919991D02*
X3250904Y13729515D01*
X3250904Y13729515D02*
X3203285Y13634277D01*
X3203285Y13634277D02*
X3108047Y13539039D01*
X3108047Y13539039D02*
X2965190Y13491420D01*
X2965190Y13491420D02*
X2869952Y13491420D01*
X2869952Y13491420D02*
X2727095Y13539039D01*
X2727095Y13539039D02*
X2679476Y13586658D01*
X2679476Y13586658D02*
X2679476Y13919991D01*
X2679476Y13919991D02*
X2869952Y13919991D01*
X75446142Y29191420D02*
X75446142Y30191420D01*
X74969952Y29191420D02*
X74969952Y30191420D01*
X74969952Y30191420D02*
X74398524Y29191420D01*
X74398524Y29191420D02*
X74398524Y30191420D01*
X74160429Y29096181D02*
X73398524Y29096181D01*
X72684238Y29191420D02*
X73160428Y29191420D01*
X73160428Y29191420D02*
X73160428Y30191420D01*
X32122333Y14115229D02*
X31789000Y14115229D01*
X31646143Y13591420D02*
X32122333Y13591420D01*
X32122333Y13591420D02*
X32122333Y14591420D01*
X32122333Y14591420D02*
X31646143Y14591420D01*
X31217571Y13591420D02*
X31217571Y14591420D01*
X31217571Y14591420D02*
X30646143Y13591420D01*
X30646143Y13591420D02*
X30646143Y14591420D01*
X30169952Y13591420D02*
X30169952Y14591420D01*
X30169952Y14591420D02*
X29931857Y14591420D01*
X29931857Y14591420D02*
X29789000Y14543800D01*
X29789000Y14543800D02*
X29693762Y14448562D01*
X29693762Y14448562D02*
X29646143Y14353324D01*
X29646143Y14353324D02*
X29598524Y14162848D01*
X29598524Y14162848D02*
X29598524Y14019991D01*
X29598524Y14019991D02*
X29646143Y13829515D01*
X29646143Y13829515D02*
X29693762Y13734277D01*
X29693762Y13734277D02*
X29789000Y13639039D01*
X29789000Y13639039D02*
X29931857Y13591420D01*
X29931857Y13591420D02*
X30169952Y13591420D01*
X29408048Y13496181D02*
X28646143Y13496181D01*
X28217571Y14591420D02*
X28027095Y14591420D01*
X28027095Y14591420D02*
X27931857Y14543800D01*
X27931857Y14543800D02*
X27836619Y14448562D01*
X27836619Y14448562D02*
X27789000Y14258086D01*
X27789000Y14258086D02*
X27789000Y13924753D01*
X27789000Y13924753D02*
X27836619Y13734277D01*
X27836619Y13734277D02*
X27931857Y13639039D01*
X27931857Y13639039D02*
X28027095Y13591420D01*
X28027095Y13591420D02*
X28217571Y13591420D01*
X28217571Y13591420D02*
X28312809Y13639039D01*
X28312809Y13639039D02*
X28408047Y13734277D01*
X28408047Y13734277D02*
X28455666Y13924753D01*
X28455666Y13924753D02*
X28455666Y14258086D01*
X28455666Y14258086D02*
X28408047Y14448562D01*
X28408047Y14448562D02*
X28312809Y14543800D01*
X28312809Y14543800D02*
X28217571Y14591420D01*
X27360428Y14591420D02*
X27360428Y13781896D01*
X27360428Y13781896D02*
X27312809Y13686658D01*
X27312809Y13686658D02*
X27265190Y13639039D01*
X27265190Y13639039D02*
X27169952Y13591420D01*
X27169952Y13591420D02*
X26979476Y13591420D01*
X26979476Y13591420D02*
X26884238Y13639039D01*
X26884238Y13639039D02*
X26836619Y13686658D01*
X26836619Y13686658D02*
X26789000Y13781896D01*
X26789000Y13781896D02*
X26789000Y14591420D01*
X26455666Y14591420D02*
X25884238Y14591420D01*
X26169952Y13591420D02*
X26169952Y14591420D01*
X35107571Y25356182D02*
X35155190Y25213325D01*
X35155190Y25213325D02*
X35202809Y25165706D01*
X35202809Y25165706D02*
X35298047Y25118087D01*
X35298047Y25118087D02*
X35440904Y25118087D01*
X35440904Y25118087D02*
X35536142Y25165706D01*
X35536142Y25165706D02*
X35583761Y25213325D01*
X35583761Y25213325D02*
X35631380Y25308563D01*
X35631380Y25308563D02*
X35631380Y25689515D01*
X35631380Y25689515D02*
X34631380Y25689515D01*
X34631380Y25689515D02*
X34631380Y25356182D01*
X34631380Y25356182D02*
X34679000Y25260944D01*
X34679000Y25260944D02*
X34726619Y25213325D01*
X34726619Y25213325D02*
X34821857Y25165706D01*
X34821857Y25165706D02*
X34917095Y25165706D01*
X34917095Y25165706D02*
X35012333Y25213325D01*
X35012333Y25213325D02*
X35059952Y25260944D01*
X35059952Y25260944D02*
X35107571Y25356182D01*
X35107571Y25356182D02*
X35107571Y25689515D01*
X35345666Y24737134D02*
X35345666Y24260944D01*
X35631380Y24832372D02*
X34631380Y24499039D01*
X34631380Y24499039D02*
X35631380Y24165706D01*
X35631380Y23832372D02*
X34631380Y23832372D01*
X34631380Y23832372D02*
X35631380Y23260944D01*
X35631380Y23260944D02*
X34631380Y23260944D01*
X35631380Y22784753D02*
X34631380Y22784753D01*
X35631380Y22213325D02*
X35059952Y22641896D01*
X34631380Y22213325D02*
X35202809Y22784753D01*
X35726619Y22022848D02*
X35726619Y21260944D01*
X35536142Y20451420D02*
X35583761Y20499039D01*
X35583761Y20499039D02*
X35631380Y20641896D01*
X35631380Y20641896D02*
X35631380Y20737134D01*
X35631380Y20737134D02*
X35583761Y20879991D01*
X35583761Y20879991D02*
X35488523Y20975229D01*
X35488523Y20975229D02*
X35393285Y21022848D01*
X35393285Y21022848D02*
X35202809Y21070467D01*
X35202809Y21070467D02*
X35059952Y21070467D01*
X35059952Y21070467D02*
X34869476Y21022848D01*
X34869476Y21022848D02*
X34774238Y20975229D01*
X34774238Y20975229D02*
X34679000Y20879991D01*
X34679000Y20879991D02*
X34631380Y20737134D01*
X34631380Y20737134D02*
X34631380Y20641896D01*
X34631380Y20641896D02*
X34679000Y20499039D01*
X34679000Y20499039D02*
X34726619Y20451420D01*
X34631380Y20165705D02*
X35631380Y19832372D01*
X35631380Y19832372D02*
X34631380Y19499039D01*
X75789000Y14691420D02*
X75598524Y14691420D01*
X75598524Y14691420D02*
X75503286Y14643800D01*
X75503286Y14643800D02*
X75408048Y14548562D01*
X75408048Y14548562D02*
X75360429Y14358086D01*
X75360429Y14358086D02*
X75360429Y14024753D01*
X75360429Y14024753D02*
X75408048Y13834277D01*
X75408048Y13834277D02*
X75503286Y13739039D01*
X75503286Y13739039D02*
X75598524Y13691420D01*
X75598524Y13691420D02*
X75789000Y13691420D01*
X75789000Y13691420D02*
X75884238Y13739039D01*
X75884238Y13739039D02*
X75979476Y13834277D01*
X75979476Y13834277D02*
X76027095Y14024753D01*
X76027095Y14024753D02*
X76027095Y14358086D01*
X76027095Y14358086D02*
X75979476Y14548562D01*
X75979476Y14548562D02*
X75884238Y14643800D01*
X75884238Y14643800D02*
X75789000Y14691420D01*
X74931857Y14691420D02*
X74931857Y13881896D01*
X74931857Y13881896D02*
X74884238Y13786658D01*
X74884238Y13786658D02*
X74836619Y13739039D01*
X74836619Y13739039D02*
X74741381Y13691420D01*
X74741381Y13691420D02*
X74550905Y13691420D01*
X74550905Y13691420D02*
X74455667Y13739039D01*
X74455667Y13739039D02*
X74408048Y13786658D01*
X74408048Y13786658D02*
X74360429Y13881896D01*
X74360429Y13881896D02*
X74360429Y14691420D01*
X74027095Y14691420D02*
X73455667Y14691420D01*
X73741381Y13691420D02*
X73741381Y14691420D01*
X73360429Y13596181D02*
X72598524Y13596181D01*
X71884238Y13691420D02*
X72360428Y13691420D01*
X72360428Y13691420D02*
X72360428Y14691420D01*
X54120905Y44689039D02*
X53978048Y44641420D01*
X53978048Y44641420D02*
X53739953Y44641420D01*
X53739953Y44641420D02*
X53644715Y44689039D01*
X53644715Y44689039D02*
X53597096Y44736658D01*
X53597096Y44736658D02*
X53549477Y44831896D01*
X53549477Y44831896D02*
X53549477Y44927134D01*
X53549477Y44927134D02*
X53597096Y45022372D01*
X53597096Y45022372D02*
X53644715Y45069991D01*
X53644715Y45069991D02*
X53739953Y45117610D01*
X53739953Y45117610D02*
X53930429Y45165229D01*
X53930429Y45165229D02*
X54025667Y45212848D01*
X54025667Y45212848D02*
X54073286Y45260467D01*
X54073286Y45260467D02*
X54120905Y45355705D01*
X54120905Y45355705D02*
X54120905Y45450943D01*
X54120905Y45450943D02*
X54073286Y45546181D01*
X54073286Y45546181D02*
X54025667Y45593800D01*
X54025667Y45593800D02*
X53930429Y45641420D01*
X53930429Y45641420D02*
X53692334Y45641420D01*
X53692334Y45641420D02*
X53549477Y45593800D01*
X53263762Y45641420D02*
X52692334Y45641420D01*
X52978048Y44641420D02*
X52978048Y45641420D01*
X52406619Y44927134D02*
X51930429Y44927134D01*
X52501857Y44641420D02*
X52168524Y45641420D01*
X52168524Y45641420D02*
X51835191Y44641420D01*
X50930429Y44641420D02*
X51263762Y45117610D01*
X51501857Y44641420D02*
X51501857Y45641420D01*
X51501857Y45641420D02*
X51120905Y45641420D01*
X51120905Y45641420D02*
X51025667Y45593800D01*
X51025667Y45593800D02*
X50978048Y45546181D01*
X50978048Y45546181D02*
X50930429Y45450943D01*
X50930429Y45450943D02*
X50930429Y45308086D01*
X50930429Y45308086D02*
X50978048Y45212848D01*
X50978048Y45212848D02*
X51025667Y45165229D01*
X51025667Y45165229D02*
X51120905Y45117610D01*
X51120905Y45117610D02*
X51501857Y45117610D01*
X50644714Y45641420D02*
X50073286Y45641420D01*
X50359000Y44641420D02*
X50359000Y45641420D01*
X49978048Y44546181D02*
X49216143Y44546181D01*
X48406619Y44736658D02*
X48454238Y44689039D01*
X48454238Y44689039D02*
X48597095Y44641420D01*
X48597095Y44641420D02*
X48692333Y44641420D01*
X48692333Y44641420D02*
X48835190Y44689039D01*
X48835190Y44689039D02*
X48930428Y44784277D01*
X48930428Y44784277D02*
X48978047Y44879515D01*
X48978047Y44879515D02*
X49025666Y45069991D01*
X49025666Y45069991D02*
X49025666Y45212848D01*
X49025666Y45212848D02*
X48978047Y45403324D01*
X48978047Y45403324D02*
X48930428Y45498562D01*
X48930428Y45498562D02*
X48835190Y45593800D01*
X48835190Y45593800D02*
X48692333Y45641420D01*
X48692333Y45641420D02*
X48597095Y45641420D01*
X48597095Y45641420D02*
X48454238Y45593800D01*
X48454238Y45593800D02*
X48406619Y45546181D01*
X48120904Y45641420D02*
X47787571Y44641420D01*
X47787571Y44641420D02*
X47454238Y45641420D01*
X58579476Y14591420D02*
X58389000Y14591420D01*
X58389000Y14591420D02*
X58293762Y14543800D01*
X58293762Y14543800D02*
X58198524Y14448562D01*
X58198524Y14448562D02*
X58150905Y14258086D01*
X58150905Y14258086D02*
X58150905Y13924753D01*
X58150905Y13924753D02*
X58198524Y13734277D01*
X58198524Y13734277D02*
X58293762Y13639039D01*
X58293762Y13639039D02*
X58389000Y13591420D01*
X58389000Y13591420D02*
X58579476Y13591420D01*
X58579476Y13591420D02*
X58674714Y13639039D01*
X58674714Y13639039D02*
X58769952Y13734277D01*
X58769952Y13734277D02*
X58817571Y13924753D01*
X58817571Y13924753D02*
X58817571Y14258086D01*
X58817571Y14258086D02*
X58769952Y14448562D01*
X58769952Y14448562D02*
X58674714Y14543800D01*
X58674714Y14543800D02*
X58579476Y14591420D01*
X57722333Y14591420D02*
X57722333Y13781896D01*
X57722333Y13781896D02*
X57674714Y13686658D01*
X57674714Y13686658D02*
X57627095Y13639039D01*
X57627095Y13639039D02*
X57531857Y13591420D01*
X57531857Y13591420D02*
X57341381Y13591420D01*
X57341381Y13591420D02*
X57246143Y13639039D01*
X57246143Y13639039D02*
X57198524Y13686658D01*
X57198524Y13686658D02*
X57150905Y13781896D01*
X57150905Y13781896D02*
X57150905Y14591420D01*
X56817571Y14591420D02*
X56246143Y14591420D01*
X56531857Y13591420D02*
X56531857Y14591420D01*
X56150905Y13496181D02*
X55389000Y13496181D01*
X54579476Y13591420D02*
X54912809Y14067610D01*
X55150904Y13591420D02*
X55150904Y14591420D01*
X55150904Y14591420D02*
X54769952Y14591420D01*
X54769952Y14591420D02*
X54674714Y14543800D01*
X54674714Y14543800D02*
X54627095Y14496181D01*
X54627095Y14496181D02*
X54579476Y14400943D01*
X54579476Y14400943D02*
X54579476Y14258086D01*
X54579476Y14258086D02*
X54627095Y14162848D01*
X54627095Y14162848D02*
X54674714Y14115229D01*
X54674714Y14115229D02*
X54769952Y14067610D01*
X54769952Y14067610D02*
X55150904Y14067610D01*
X33565191Y44391420D02*
X34041381Y44391420D01*
X34041381Y44391420D02*
X34041381Y45391420D01*
X33231857Y44915229D02*
X32898524Y44915229D01*
X32755667Y44391420D02*
X33231857Y44391420D01*
X33231857Y44391420D02*
X33231857Y45391420D01*
X33231857Y45391420D02*
X32755667Y45391420D01*
X32327095Y44391420D02*
X32327095Y45391420D01*
X32327095Y45391420D02*
X31755667Y44391420D01*
X31755667Y44391420D02*
X31755667Y45391420D01*
X30755667Y45343800D02*
X30850905Y45391420D01*
X30850905Y45391420D02*
X30993762Y45391420D01*
X30993762Y45391420D02*
X31136619Y45343800D01*
X31136619Y45343800D02*
X31231857Y45248562D01*
X31231857Y45248562D02*
X31279476Y45153324D01*
X31279476Y45153324D02*
X31327095Y44962848D01*
X31327095Y44962848D02*
X31327095Y44819991D01*
X31327095Y44819991D02*
X31279476Y44629515D01*
X31279476Y44629515D02*
X31231857Y44534277D01*
X31231857Y44534277D02*
X31136619Y44439039D01*
X31136619Y44439039D02*
X30993762Y44391420D01*
X30993762Y44391420D02*
X30898524Y44391420D01*
X30898524Y44391420D02*
X30755667Y44439039D01*
X30755667Y44439039D02*
X30708048Y44486658D01*
X30708048Y44486658D02*
X30708048Y44819991D01*
X30708048Y44819991D02*
X30898524Y44819991D01*
X30422333Y45391420D02*
X29850905Y45391420D01*
X30136619Y44391420D02*
X30136619Y45391420D01*
X29517571Y44391420D02*
X29517571Y45391420D01*
X29517571Y44915229D02*
X28946143Y44915229D01*
X28946143Y44391420D02*
X28946143Y45391420D01*
X28708048Y44296181D02*
X27946143Y44296181D01*
X27136619Y44486658D02*
X27184238Y44439039D01*
X27184238Y44439039D02*
X27327095Y44391420D01*
X27327095Y44391420D02*
X27422333Y44391420D01*
X27422333Y44391420D02*
X27565190Y44439039D01*
X27565190Y44439039D02*
X27660428Y44534277D01*
X27660428Y44534277D02*
X27708047Y44629515D01*
X27708047Y44629515D02*
X27755666Y44819991D01*
X27755666Y44819991D02*
X27755666Y44962848D01*
X27755666Y44962848D02*
X27708047Y45153324D01*
X27708047Y45153324D02*
X27660428Y45248562D01*
X27660428Y45248562D02*
X27565190Y45343800D01*
X27565190Y45343800D02*
X27422333Y45391420D01*
X27422333Y45391420D02*
X27327095Y45391420D01*
X27327095Y45391420D02*
X27184238Y45343800D01*
X27184238Y45343800D02*
X27136619Y45296181D01*
X26850904Y45391420D02*
X26517571Y44391420D01*
X26517571Y44391420D02*
X26184238Y45391420D01*
X47836618Y29091420D02*
X47836618Y30091420D01*
X47360428Y29091420D02*
X47360428Y30091420D01*
X47360428Y30091420D02*
X46789000Y29091420D01*
X46789000Y29091420D02*
X46789000Y30091420D01*
X46550905Y28996181D02*
X45789000Y28996181D01*
X44979476Y29091420D02*
X45312809Y29567610D01*
X45550904Y29091420D02*
X45550904Y30091420D01*
X45550904Y30091420D02*
X45169952Y30091420D01*
X45169952Y30091420D02*
X45074714Y30043800D01*
X45074714Y30043800D02*
X45027095Y29996181D01*
X45027095Y29996181D02*
X44979476Y29900943D01*
X44979476Y29900943D02*
X44979476Y29758086D01*
X44979476Y29758086D02*
X45027095Y29662848D01*
X45027095Y29662848D02*
X45074714Y29615229D01*
X45074714Y29615229D02*
X45169952Y29567610D01*
X45169952Y29567610D02*
X45550904Y29567610D01*
X17169952Y44139039D02*
X17027095Y44091420D01*
X17027095Y44091420D02*
X16789000Y44091420D01*
X16789000Y44091420D02*
X16693762Y44139039D01*
X16693762Y44139039D02*
X16646143Y44186658D01*
X16646143Y44186658D02*
X16598524Y44281896D01*
X16598524Y44281896D02*
X16598524Y44377134D01*
X16598524Y44377134D02*
X16646143Y44472372D01*
X16646143Y44472372D02*
X16693762Y44519991D01*
X16693762Y44519991D02*
X16789000Y44567610D01*
X16789000Y44567610D02*
X16979476Y44615229D01*
X16979476Y44615229D02*
X17074714Y44662848D01*
X17074714Y44662848D02*
X17122333Y44710467D01*
X17122333Y44710467D02*
X17169952Y44805705D01*
X17169952Y44805705D02*
X17169952Y44900943D01*
X17169952Y44900943D02*
X17122333Y44996181D01*
X17122333Y44996181D02*
X17074714Y45043800D01*
X17074714Y45043800D02*
X16979476Y45091420D01*
X16979476Y45091420D02*
X16741381Y45091420D01*
X16741381Y45091420D02*
X16598524Y45043800D01*
X16217571Y44377134D02*
X15741381Y44377134D01*
X16312809Y44091420D02*
X15979476Y45091420D01*
X15979476Y45091420D02*
X15646143Y44091420D01*
X15312809Y44091420D02*
X15312809Y45091420D01*
X15312809Y45091420D02*
X14979476Y44377134D01*
X14979476Y44377134D02*
X14646143Y45091420D01*
X14646143Y45091420D02*
X14646143Y44091420D01*
X14169952Y44091420D02*
X14169952Y45091420D01*
X14169952Y45091420D02*
X13789000Y45091420D01*
X13789000Y45091420D02*
X13693762Y45043800D01*
X13693762Y45043800D02*
X13646143Y44996181D01*
X13646143Y44996181D02*
X13598524Y44900943D01*
X13598524Y44900943D02*
X13598524Y44758086D01*
X13598524Y44758086D02*
X13646143Y44662848D01*
X13646143Y44662848D02*
X13693762Y44615229D01*
X13693762Y44615229D02*
X13789000Y44567610D01*
X13789000Y44567610D02*
X14169952Y44567610D01*
X13408048Y43996181D02*
X12646143Y43996181D01*
X11836619Y44186658D02*
X11884238Y44139039D01*
X11884238Y44139039D02*
X12027095Y44091420D01*
X12027095Y44091420D02*
X12122333Y44091420D01*
X12122333Y44091420D02*
X12265190Y44139039D01*
X12265190Y44139039D02*
X12360428Y44234277D01*
X12360428Y44234277D02*
X12408047Y44329515D01*
X12408047Y44329515D02*
X12455666Y44519991D01*
X12455666Y44519991D02*
X12455666Y44662848D01*
X12455666Y44662848D02*
X12408047Y44853324D01*
X12408047Y44853324D02*
X12360428Y44948562D01*
X12360428Y44948562D02*
X12265190Y45043800D01*
X12265190Y45043800D02*
X12122333Y45091420D01*
X12122333Y45091420D02*
X12027095Y45091420D01*
X12027095Y45091420D02*
X11884238Y45043800D01*
X11884238Y45043800D02*
X11836619Y44996181D01*
X11550904Y45091420D02*
X11217571Y44091420D01*
X11217571Y44091420D02*
X10884238Y45091420D01*
X11274714Y29291420D02*
X11274714Y30291420D01*
X11274714Y30291420D02*
X10893762Y30291420D01*
X10893762Y30291420D02*
X10798524Y30243800D01*
X10798524Y30243800D02*
X10750905Y30196181D01*
X10750905Y30196181D02*
X10703286Y30100943D01*
X10703286Y30100943D02*
X10703286Y29958086D01*
X10703286Y29958086D02*
X10750905Y29862848D01*
X10750905Y29862848D02*
X10798524Y29815229D01*
X10798524Y29815229D02*
X10893762Y29767610D01*
X10893762Y29767610D02*
X11274714Y29767610D01*
X9798524Y29291420D02*
X10274714Y29291420D01*
X10274714Y29291420D02*
X10274714Y30291420D01*
X9512809Y29577134D02*
X9036619Y29577134D01*
X9608047Y29291420D02*
X9274714Y30291420D01*
X9274714Y30291420D02*
X8941381Y29291420D01*
X8417571Y29767610D02*
X8417571Y29291420D01*
X8750904Y30291420D02*
X8417571Y29767610D01*
X8417571Y29767610D02*
X8084238Y30291420D01*
X7989000Y29196181D02*
X7227095Y29196181D01*
X7131856Y30291420D02*
X6560428Y30291420D01*
X6846142Y29291420D02*
X6846142Y30291420D01*
X5655666Y29291420D02*
X5988999Y29767610D01*
X6227094Y29291420D02*
X6227094Y30291420D01*
X6227094Y30291420D02*
X5846142Y30291420D01*
X5846142Y30291420D02*
X5750904Y30243800D01*
X5750904Y30243800D02*
X5703285Y30196181D01*
X5703285Y30196181D02*
X5655666Y30100943D01*
X5655666Y30100943D02*
X5655666Y29958086D01*
X5655666Y29958086D02*
X5703285Y29862848D01*
X5703285Y29862848D02*
X5750904Y29815229D01*
X5750904Y29815229D02*
X5846142Y29767610D01*
X5846142Y29767610D02*
X6227094Y29767610D01*
X5227094Y29291420D02*
X5227094Y30291420D01*
X4227095Y30243800D02*
X4322333Y30291420D01*
X4322333Y30291420D02*
X4465190Y30291420D01*
X4465190Y30291420D02*
X4608047Y30243800D01*
X4608047Y30243800D02*
X4703285Y30148562D01*
X4703285Y30148562D02*
X4750904Y30053324D01*
X4750904Y30053324D02*
X4798523Y29862848D01*
X4798523Y29862848D02*
X4798523Y29719991D01*
X4798523Y29719991D02*
X4750904Y29529515D01*
X4750904Y29529515D02*
X4703285Y29434277D01*
X4703285Y29434277D02*
X4608047Y29339039D01*
X4608047Y29339039D02*
X4465190Y29291420D01*
X4465190Y29291420D02*
X4369952Y29291420D01*
X4369952Y29291420D02*
X4227095Y29339039D01*
X4227095Y29339039D02*
X4179476Y29386658D01*
X4179476Y29386658D02*
X4179476Y29719991D01*
X4179476Y29719991D02*
X4369952Y29719991D01*
X71155666Y32691420D02*
X71155666Y33691420D01*
X71155666Y33691420D02*
X70774714Y33691420D01*
X70774714Y33691420D02*
X70679476Y33643800D01*
X70679476Y33643800D02*
X70631857Y33596181D01*
X70631857Y33596181D02*
X70584238Y33500943D01*
X70584238Y33500943D02*
X70584238Y33358086D01*
X70584238Y33358086D02*
X70631857Y33262848D01*
X70631857Y33262848D02*
X70679476Y33215229D01*
X70679476Y33215229D02*
X70774714Y33167610D01*
X70774714Y33167610D02*
X71155666Y33167610D01*
X70155666Y32691420D02*
X70155666Y33691420D01*
X69822333Y33691420D02*
X69250905Y33691420D01*
X69536619Y32691420D02*
X69536619Y33691420D01*
X68346143Y32786658D02*
X68393762Y32739039D01*
X68393762Y32739039D02*
X68536619Y32691420D01*
X68536619Y32691420D02*
X68631857Y32691420D01*
X68631857Y32691420D02*
X68774714Y32739039D01*
X68774714Y32739039D02*
X68869952Y32834277D01*
X68869952Y32834277D02*
X68917571Y32929515D01*
X68917571Y32929515D02*
X68965190Y33119991D01*
X68965190Y33119991D02*
X68965190Y33262848D01*
X68965190Y33262848D02*
X68917571Y33453324D01*
X68917571Y33453324D02*
X68869952Y33548562D01*
X68869952Y33548562D02*
X68774714Y33643800D01*
X68774714Y33643800D02*
X68631857Y33691420D01*
X68631857Y33691420D02*
X68536619Y33691420D01*
X68536619Y33691420D02*
X68393762Y33643800D01*
X68393762Y33643800D02*
X68346143Y33596181D01*
X67917571Y32691420D02*
X67917571Y33691420D01*
X67917571Y33215229D02*
X67346143Y33215229D01*
X67346143Y32691420D02*
X67346143Y33691420D01*
X67108048Y32596181D02*
X66346143Y32596181D01*
X65536619Y32786658D02*
X65584238Y32739039D01*
X65584238Y32739039D02*
X65727095Y32691420D01*
X65727095Y32691420D02*
X65822333Y32691420D01*
X65822333Y32691420D02*
X65965190Y32739039D01*
X65965190Y32739039D02*
X66060428Y32834277D01*
X66060428Y32834277D02*
X66108047Y32929515D01*
X66108047Y32929515D02*
X66155666Y33119991D01*
X66155666Y33119991D02*
X66155666Y33262848D01*
X66155666Y33262848D02*
X66108047Y33453324D01*
X66108047Y33453324D02*
X66060428Y33548562D01*
X66060428Y33548562D02*
X65965190Y33643800D01*
X65965190Y33643800D02*
X65822333Y33691420D01*
X65822333Y33691420D02*
X65727095Y33691420D01*
X65727095Y33691420D02*
X65584238Y33643800D01*
X65584238Y33643800D02*
X65536619Y33596181D01*
X65250904Y33691420D02*
X64917571Y32691420D01*
X64917571Y32691420D02*
X64584238Y33691420D01*
D11*
G04 #@! TO.C,J10*
X48657023Y20612858D02*
X48657023Y19751072D01*
X48657023Y19751072D02*
X48714476Y19578715D01*
X48714476Y19578715D02*
X48829380Y19463810D01*
X48829380Y19463810D02*
X49001738Y19406358D01*
X49001738Y19406358D02*
X49116642Y19406358D01*
X47450523Y19406358D02*
X48139952Y19406358D01*
X47795238Y19406358D02*
X47795238Y20612858D01*
X47795238Y20612858D02*
X47910142Y20440501D01*
X47910142Y20440501D02*
X48025047Y20325596D01*
X48025047Y20325596D02*
X48139952Y20268144D01*
X46703642Y20612858D02*
X46588737Y20612858D01*
X46588737Y20612858D02*
X46473833Y20555405D01*
X46473833Y20555405D02*
X46416380Y20497953D01*
X46416380Y20497953D02*
X46358928Y20383048D01*
X46358928Y20383048D02*
X46301475Y20153239D01*
X46301475Y20153239D02*
X46301475Y19865977D01*
X46301475Y19865977D02*
X46358928Y19636167D01*
X46358928Y19636167D02*
X46416380Y19521263D01*
X46416380Y19521263D02*
X46473833Y19463810D01*
X46473833Y19463810D02*
X46588737Y19406358D01*
X46588737Y19406358D02*
X46703642Y19406358D01*
X46703642Y19406358D02*
X46818547Y19463810D01*
X46818547Y19463810D02*
X46875999Y19521263D01*
X46875999Y19521263D02*
X46933452Y19636167D01*
X46933452Y19636167D02*
X46990904Y19865977D01*
X46990904Y19865977D02*
X46990904Y20153239D01*
X46990904Y20153239D02*
X46933452Y20383048D01*
X46933452Y20383048D02*
X46875999Y20497953D01*
X46875999Y20497953D02*
X46818547Y20555405D01*
X46818547Y20555405D02*
X46703642Y20612858D01*
D10*
G04 #@! TO.C,Bank_But1*
X67422333Y106470229D02*
X67279476Y106422610D01*
X67279476Y106422610D02*
X67231857Y106374991D01*
X67231857Y106374991D02*
X67184238Y106279753D01*
X67184238Y106279753D02*
X67184238Y106136896D01*
X67184238Y106136896D02*
X67231857Y106041658D01*
X67231857Y106041658D02*
X67279476Y105994039D01*
X67279476Y105994039D02*
X67374714Y105946420D01*
X67374714Y105946420D02*
X67755666Y105946420D01*
X67755666Y105946420D02*
X67755666Y106946420D01*
X67755666Y106946420D02*
X67422333Y106946420D01*
X67422333Y106946420D02*
X67327095Y106898800D01*
X67327095Y106898800D02*
X67279476Y106851181D01*
X67279476Y106851181D02*
X67231857Y106755943D01*
X67231857Y106755943D02*
X67231857Y106660705D01*
X67231857Y106660705D02*
X67279476Y106565467D01*
X67279476Y106565467D02*
X67327095Y106517848D01*
X67327095Y106517848D02*
X67422333Y106470229D01*
X67422333Y106470229D02*
X67755666Y106470229D01*
X66327095Y105946420D02*
X66327095Y106470229D01*
X66327095Y106470229D02*
X66374714Y106565467D01*
X66374714Y106565467D02*
X66469952Y106613086D01*
X66469952Y106613086D02*
X66660428Y106613086D01*
X66660428Y106613086D02*
X66755666Y106565467D01*
X66327095Y105994039D02*
X66422333Y105946420D01*
X66422333Y105946420D02*
X66660428Y105946420D01*
X66660428Y105946420D02*
X66755666Y105994039D01*
X66755666Y105994039D02*
X66803285Y106089277D01*
X66803285Y106089277D02*
X66803285Y106184515D01*
X66803285Y106184515D02*
X66755666Y106279753D01*
X66755666Y106279753D02*
X66660428Y106327372D01*
X66660428Y106327372D02*
X66422333Y106327372D01*
X66422333Y106327372D02*
X66327095Y106374991D01*
X65850904Y106613086D02*
X65850904Y105946420D01*
X65850904Y106517848D02*
X65803285Y106565467D01*
X65803285Y106565467D02*
X65708047Y106613086D01*
X65708047Y106613086D02*
X65565190Y106613086D01*
X65565190Y106613086D02*
X65469952Y106565467D01*
X65469952Y106565467D02*
X65422333Y106470229D01*
X65422333Y106470229D02*
X65422333Y105946420D01*
X64946142Y105946420D02*
X64946142Y106946420D01*
X64850904Y106327372D02*
X64565190Y105946420D01*
X64565190Y106613086D02*
X64946142Y106232134D01*
X64374714Y105851181D02*
X63612809Y105851181D01*
X63041380Y106470229D02*
X62898523Y106422610D01*
X62898523Y106422610D02*
X62850904Y106374991D01*
X62850904Y106374991D02*
X62803285Y106279753D01*
X62803285Y106279753D02*
X62803285Y106136896D01*
X62803285Y106136896D02*
X62850904Y106041658D01*
X62850904Y106041658D02*
X62898523Y105994039D01*
X62898523Y105994039D02*
X62993761Y105946420D01*
X62993761Y105946420D02*
X63374713Y105946420D01*
X63374713Y105946420D02*
X63374713Y106946420D01*
X63374713Y106946420D02*
X63041380Y106946420D01*
X63041380Y106946420D02*
X62946142Y106898800D01*
X62946142Y106898800D02*
X62898523Y106851181D01*
X62898523Y106851181D02*
X62850904Y106755943D01*
X62850904Y106755943D02*
X62850904Y106660705D01*
X62850904Y106660705D02*
X62898523Y106565467D01*
X62898523Y106565467D02*
X62946142Y106517848D01*
X62946142Y106517848D02*
X63041380Y106470229D01*
X63041380Y106470229D02*
X63374713Y106470229D01*
X61946142Y106613086D02*
X61946142Y105946420D01*
X62374713Y106613086D02*
X62374713Y106089277D01*
X62374713Y106089277D02*
X62327094Y105994039D01*
X62327094Y105994039D02*
X62231856Y105946420D01*
X62231856Y105946420D02*
X62088999Y105946420D01*
X62088999Y105946420D02*
X61993761Y105994039D01*
X61993761Y105994039D02*
X61946142Y106041658D01*
X61612808Y106613086D02*
X61231856Y106613086D01*
X61469951Y106946420D02*
X61469951Y106089277D01*
X61469951Y106089277D02*
X61422332Y105994039D01*
X61422332Y105994039D02*
X61327094Y105946420D01*
X61327094Y105946420D02*
X61231856Y105946420D01*
X60374713Y105946420D02*
X60946141Y105946420D01*
X60660427Y105946420D02*
X60660427Y106946420D01*
X60660427Y106946420D02*
X60755665Y106803562D01*
X60755665Y106803562D02*
X60850903Y106708324D01*
X60850903Y106708324D02*
X60946141Y106660705D01*
G04 #@! TO.C,SD1*
X41113285Y88112850D02*
X40941857Y88055707D01*
X40941857Y88055707D02*
X40656142Y88055707D01*
X40656142Y88055707D02*
X40541857Y88112850D01*
X40541857Y88112850D02*
X40484714Y88169993D01*
X40484714Y88169993D02*
X40427571Y88284279D01*
X40427571Y88284279D02*
X40427571Y88398564D01*
X40427571Y88398564D02*
X40484714Y88512850D01*
X40484714Y88512850D02*
X40541857Y88569993D01*
X40541857Y88569993D02*
X40656142Y88627136D01*
X40656142Y88627136D02*
X40884714Y88684279D01*
X40884714Y88684279D02*
X40998999Y88741422D01*
X40998999Y88741422D02*
X41056142Y88798564D01*
X41056142Y88798564D02*
X41113285Y88912850D01*
X41113285Y88912850D02*
X41113285Y89027136D01*
X41113285Y89027136D02*
X41056142Y89141422D01*
X41056142Y89141422D02*
X40998999Y89198564D01*
X40998999Y89198564D02*
X40884714Y89255707D01*
X40884714Y89255707D02*
X40598999Y89255707D01*
X40598999Y89255707D02*
X40427571Y89198564D01*
X39913285Y88055707D02*
X39913285Y89255707D01*
X39913285Y89255707D02*
X39627571Y89255707D01*
X39627571Y89255707D02*
X39456142Y89198564D01*
X39456142Y89198564D02*
X39341857Y89084279D01*
X39341857Y89084279D02*
X39284714Y88969993D01*
X39284714Y88969993D02*
X39227571Y88741422D01*
X39227571Y88741422D02*
X39227571Y88569993D01*
X39227571Y88569993D02*
X39284714Y88341422D01*
X39284714Y88341422D02*
X39341857Y88227136D01*
X39341857Y88227136D02*
X39456142Y88112850D01*
X39456142Y88112850D02*
X39627571Y88055707D01*
X39627571Y88055707D02*
X39913285Y88055707D01*
X38084714Y88055707D02*
X38770428Y88055707D01*
X38427571Y88055707D02*
X38427571Y89255707D01*
X38427571Y89255707D02*
X38541857Y89084279D01*
X38541857Y89084279D02*
X38656142Y88969993D01*
X38656142Y88969993D02*
X38770428Y88912850D01*
D11*
G04 #@! TO.C,POT_LENGTH1*
X32081641Y50939072D02*
X32081641Y52145572D01*
X32081641Y52145572D02*
X31622022Y52145572D01*
X31622022Y52145572D02*
X31507117Y52088119D01*
X31507117Y52088119D02*
X31449664Y52030667D01*
X31449664Y52030667D02*
X31392212Y51915762D01*
X31392212Y51915762D02*
X31392212Y51743405D01*
X31392212Y51743405D02*
X31449664Y51628500D01*
X31449664Y51628500D02*
X31507117Y51571048D01*
X31507117Y51571048D02*
X31622022Y51513596D01*
X31622022Y51513596D02*
X32081641Y51513596D01*
X30645331Y52145572D02*
X30415522Y52145572D01*
X30415522Y52145572D02*
X30300617Y52088119D01*
X30300617Y52088119D02*
X30185712Y51973215D01*
X30185712Y51973215D02*
X30128260Y51743405D01*
X30128260Y51743405D02*
X30128260Y51341239D01*
X30128260Y51341239D02*
X30185712Y51111429D01*
X30185712Y51111429D02*
X30300617Y50996524D01*
X30300617Y50996524D02*
X30415522Y50939072D01*
X30415522Y50939072D02*
X30645331Y50939072D01*
X30645331Y50939072D02*
X30760236Y50996524D01*
X30760236Y50996524D02*
X30875141Y51111429D01*
X30875141Y51111429D02*
X30932593Y51341239D01*
X30932593Y51341239D02*
X30932593Y51743405D01*
X30932593Y51743405D02*
X30875141Y51973215D01*
X30875141Y51973215D02*
X30760236Y52088119D01*
X30760236Y52088119D02*
X30645331Y52145572D01*
X29783546Y52145572D02*
X29094117Y52145572D01*
X29438831Y50939072D02*
X29438831Y52145572D01*
X28979213Y50824167D02*
X28059974Y50824167D01*
X27198189Y50939072D02*
X27772713Y50939072D01*
X27772713Y50939072D02*
X27772713Y52145572D01*
X26796023Y51571048D02*
X26393856Y51571048D01*
X26221499Y50939072D02*
X26796023Y50939072D01*
X26796023Y50939072D02*
X26796023Y52145572D01*
X26796023Y52145572D02*
X26221499Y52145572D01*
X25704428Y50939072D02*
X25704428Y52145572D01*
X25704428Y52145572D02*
X25014999Y50939072D01*
X25014999Y50939072D02*
X25014999Y52145572D01*
X23808499Y52088119D02*
X23923404Y52145572D01*
X23923404Y52145572D02*
X24095761Y52145572D01*
X24095761Y52145572D02*
X24268118Y52088119D01*
X24268118Y52088119D02*
X24383023Y51973215D01*
X24383023Y51973215D02*
X24440476Y51858310D01*
X24440476Y51858310D02*
X24497928Y51628500D01*
X24497928Y51628500D02*
X24497928Y51456143D01*
X24497928Y51456143D02*
X24440476Y51226334D01*
X24440476Y51226334D02*
X24383023Y51111429D01*
X24383023Y51111429D02*
X24268118Y50996524D01*
X24268118Y50996524D02*
X24095761Y50939072D01*
X24095761Y50939072D02*
X23980857Y50939072D01*
X23980857Y50939072D02*
X23808499Y50996524D01*
X23808499Y50996524D02*
X23751047Y51053977D01*
X23751047Y51053977D02*
X23751047Y51456143D01*
X23751047Y51456143D02*
X23980857Y51456143D01*
X23406333Y52145572D02*
X22716904Y52145572D01*
X23061618Y50939072D02*
X23061618Y52145572D01*
X22314738Y50939072D02*
X22314738Y52145572D01*
X22314738Y51571048D02*
X21625309Y51571048D01*
X21625309Y50939072D02*
X21625309Y52145572D01*
X20418809Y50939072D02*
X21108238Y50939072D01*
X20763524Y50939072D02*
X20763524Y52145572D01*
X20763524Y52145572D02*
X20878428Y51973215D01*
X20878428Y51973215D02*
X20993333Y51858310D01*
X20993333Y51858310D02*
X21108238Y51800858D01*
G04 #@! TO.C,J2*
X27157023Y36412858D02*
X27157023Y35551072D01*
X27157023Y35551072D02*
X27214476Y35378715D01*
X27214476Y35378715D02*
X27329380Y35263810D01*
X27329380Y35263810D02*
X27501738Y35206358D01*
X27501738Y35206358D02*
X27616642Y35206358D01*
X26639952Y36297953D02*
X26582500Y36355405D01*
X26582500Y36355405D02*
X26467595Y36412858D01*
X26467595Y36412858D02*
X26180333Y36412858D01*
X26180333Y36412858D02*
X26065428Y36355405D01*
X26065428Y36355405D02*
X26007976Y36297953D01*
X26007976Y36297953D02*
X25950523Y36183048D01*
X25950523Y36183048D02*
X25950523Y36068144D01*
X25950523Y36068144D02*
X26007976Y35895786D01*
X26007976Y35895786D02*
X26697404Y35206358D01*
X26697404Y35206358D02*
X25950523Y35206358D01*
D10*
G04 #@! TO.C,POT_PITCH1*
X71652428Y70891420D02*
X71652428Y71891420D01*
X71652428Y71891420D02*
X71271476Y71891420D01*
X71271476Y71891420D02*
X71176238Y71843800D01*
X71176238Y71843800D02*
X71128619Y71796181D01*
X71128619Y71796181D02*
X71081000Y71700943D01*
X71081000Y71700943D02*
X71081000Y71558086D01*
X71081000Y71558086D02*
X71128619Y71462848D01*
X71128619Y71462848D02*
X71176238Y71415229D01*
X71176238Y71415229D02*
X71271476Y71367610D01*
X71271476Y71367610D02*
X71652428Y71367610D01*
X70461952Y71891420D02*
X70271476Y71891420D01*
X70271476Y71891420D02*
X70176238Y71843800D01*
X70176238Y71843800D02*
X70081000Y71748562D01*
X70081000Y71748562D02*
X70033381Y71558086D01*
X70033381Y71558086D02*
X70033381Y71224753D01*
X70033381Y71224753D02*
X70081000Y71034277D01*
X70081000Y71034277D02*
X70176238Y70939039D01*
X70176238Y70939039D02*
X70271476Y70891420D01*
X70271476Y70891420D02*
X70461952Y70891420D01*
X70461952Y70891420D02*
X70557190Y70939039D01*
X70557190Y70939039D02*
X70652428Y71034277D01*
X70652428Y71034277D02*
X70700047Y71224753D01*
X70700047Y71224753D02*
X70700047Y71558086D01*
X70700047Y71558086D02*
X70652428Y71748562D01*
X70652428Y71748562D02*
X70557190Y71843800D01*
X70557190Y71843800D02*
X70461952Y71891420D01*
X69747666Y71891420D02*
X69176238Y71891420D01*
X69461952Y70891420D02*
X69461952Y71891420D01*
X69081000Y70796181D02*
X68319095Y70796181D01*
X68080999Y70891420D02*
X68080999Y71891420D01*
X68080999Y71891420D02*
X67700047Y71891420D01*
X67700047Y71891420D02*
X67604809Y71843800D01*
X67604809Y71843800D02*
X67557190Y71796181D01*
X67557190Y71796181D02*
X67509571Y71700943D01*
X67509571Y71700943D02*
X67509571Y71558086D01*
X67509571Y71558086D02*
X67557190Y71462848D01*
X67557190Y71462848D02*
X67604809Y71415229D01*
X67604809Y71415229D02*
X67700047Y71367610D01*
X67700047Y71367610D02*
X68080999Y71367610D01*
X67080999Y70891420D02*
X67080999Y71891420D01*
X66747666Y71891420D02*
X66176238Y71891420D01*
X66461952Y70891420D02*
X66461952Y71891420D01*
X65271476Y70986658D02*
X65319095Y70939039D01*
X65319095Y70939039D02*
X65461952Y70891420D01*
X65461952Y70891420D02*
X65557190Y70891420D01*
X65557190Y70891420D02*
X65700047Y70939039D01*
X65700047Y70939039D02*
X65795285Y71034277D01*
X65795285Y71034277D02*
X65842904Y71129515D01*
X65842904Y71129515D02*
X65890523Y71319991D01*
X65890523Y71319991D02*
X65890523Y71462848D01*
X65890523Y71462848D02*
X65842904Y71653324D01*
X65842904Y71653324D02*
X65795285Y71748562D01*
X65795285Y71748562D02*
X65700047Y71843800D01*
X65700047Y71843800D02*
X65557190Y71891420D01*
X65557190Y71891420D02*
X65461952Y71891420D01*
X65461952Y71891420D02*
X65319095Y71843800D01*
X65319095Y71843800D02*
X65271476Y71796181D01*
X64842904Y70891420D02*
X64842904Y71891420D01*
X64842904Y71415229D02*
X64271476Y71415229D01*
X64271476Y70891420D02*
X64271476Y71891420D01*
X63271476Y70891420D02*
X63842904Y70891420D01*
X63557190Y70891420D02*
X63557190Y71891420D01*
X63557190Y71891420D02*
X63652428Y71748562D01*
X63652428Y71748562D02*
X63747666Y71653324D01*
X63747666Y71653324D02*
X63842904Y71605705D01*
D12*
X68050142Y78790970D02*
X68146904Y78694208D01*
X68146904Y78694208D02*
X68437190Y78597446D01*
X68437190Y78597446D02*
X68630714Y78597446D01*
X68630714Y78597446D02*
X68920999Y78694208D01*
X68920999Y78694208D02*
X69114523Y78887732D01*
X69114523Y78887732D02*
X69211285Y79081256D01*
X69211285Y79081256D02*
X69308047Y79468304D01*
X69308047Y79468304D02*
X69308047Y79758589D01*
X69308047Y79758589D02*
X69211285Y80145637D01*
X69211285Y80145637D02*
X69114523Y80339161D01*
X69114523Y80339161D02*
X68920999Y80532684D01*
X68920999Y80532684D02*
X68630714Y80629446D01*
X68630714Y80629446D02*
X68437190Y80629446D01*
X68437190Y80629446D02*
X68146904Y80532684D01*
X68146904Y80532684D02*
X68050142Y80435923D01*
X67469571Y80629446D02*
X66308428Y80629446D01*
X66888999Y78597446D02*
X66888999Y80629446D01*
X64469952Y78597446D02*
X65147285Y79565065D01*
X65631095Y78597446D02*
X65631095Y80629446D01*
X65631095Y80629446D02*
X64857000Y80629446D01*
X64857000Y80629446D02*
X64663476Y80532684D01*
X64663476Y80532684D02*
X64566714Y80435923D01*
X64566714Y80435923D02*
X64469952Y80242399D01*
X64469952Y80242399D02*
X64469952Y79952113D01*
X64469952Y79952113D02*
X64566714Y79758589D01*
X64566714Y79758589D02*
X64663476Y79661827D01*
X64663476Y79661827D02*
X64857000Y79565065D01*
X64857000Y79565065D02*
X65631095Y79565065D01*
D11*
G04 #@! TO.C,J7*
X25857023Y5312858D02*
X25857023Y4451072D01*
X25857023Y4451072D02*
X25914476Y4278715D01*
X25914476Y4278715D02*
X26029380Y4163810D01*
X26029380Y4163810D02*
X26201738Y4106358D01*
X26201738Y4106358D02*
X26316642Y4106358D01*
X25397404Y5312858D02*
X24593071Y5312858D01*
X24593071Y5312858D02*
X25110142Y4106358D01*
G04 #@! TO.C,J6*
X6157023Y20812858D02*
X6157023Y19951072D01*
X6157023Y19951072D02*
X6214476Y19778715D01*
X6214476Y19778715D02*
X6329380Y19663810D01*
X6329380Y19663810D02*
X6501738Y19606358D01*
X6501738Y19606358D02*
X6616642Y19606358D01*
X5065428Y20812858D02*
X5295238Y20812858D01*
X5295238Y20812858D02*
X5410142Y20755405D01*
X5410142Y20755405D02*
X5467595Y20697953D01*
X5467595Y20697953D02*
X5582500Y20525596D01*
X5582500Y20525596D02*
X5639952Y20295786D01*
X5639952Y20295786D02*
X5639952Y19836167D01*
X5639952Y19836167D02*
X5582500Y19721263D01*
X5582500Y19721263D02*
X5525047Y19663810D01*
X5525047Y19663810D02*
X5410142Y19606358D01*
X5410142Y19606358D02*
X5180333Y19606358D01*
X5180333Y19606358D02*
X5065428Y19663810D01*
X5065428Y19663810D02*
X5007976Y19721263D01*
X5007976Y19721263D02*
X4950523Y19836167D01*
X4950523Y19836167D02*
X4950523Y20123429D01*
X4950523Y20123429D02*
X5007976Y20238334D01*
X5007976Y20238334D02*
X5065428Y20295786D01*
X5065428Y20295786D02*
X5180333Y20353239D01*
X5180333Y20353239D02*
X5410142Y20353239D01*
X5410142Y20353239D02*
X5525047Y20295786D01*
X5525047Y20295786D02*
X5582500Y20238334D01*
X5582500Y20238334D02*
X5639952Y20123429D01*
G04 #@! TO.C,J4*
X62057023Y36812858D02*
X62057023Y35951072D01*
X62057023Y35951072D02*
X62114476Y35778715D01*
X62114476Y35778715D02*
X62229380Y35663810D01*
X62229380Y35663810D02*
X62401738Y35606358D01*
X62401738Y35606358D02*
X62516642Y35606358D01*
X60965428Y36410691D02*
X60965428Y35606358D01*
X61252690Y36870310D02*
X61539952Y36008525D01*
X61539952Y36008525D02*
X60793071Y36008525D01*
D10*
G04 #@! TO.C,REV_BUT1*
X9342333Y105816420D02*
X9675666Y106292610D01*
X9913761Y105816420D02*
X9913761Y106816420D01*
X9913761Y106816420D02*
X9532809Y106816420D01*
X9532809Y106816420D02*
X9437571Y106768800D01*
X9437571Y106768800D02*
X9389952Y106721181D01*
X9389952Y106721181D02*
X9342333Y106625943D01*
X9342333Y106625943D02*
X9342333Y106483086D01*
X9342333Y106483086D02*
X9389952Y106387848D01*
X9389952Y106387848D02*
X9437571Y106340229D01*
X9437571Y106340229D02*
X9532809Y106292610D01*
X9532809Y106292610D02*
X9913761Y106292610D01*
X8913761Y106340229D02*
X8580428Y106340229D01*
X8437571Y105816420D02*
X8913761Y105816420D01*
X8913761Y105816420D02*
X8913761Y106816420D01*
X8913761Y106816420D02*
X8437571Y106816420D01*
X8151856Y106816420D02*
X7818523Y105816420D01*
X7818523Y105816420D02*
X7485190Y106816420D01*
X7389952Y105721181D02*
X6628047Y105721181D01*
X6056618Y106340229D02*
X5913761Y106292610D01*
X5913761Y106292610D02*
X5866142Y106244991D01*
X5866142Y106244991D02*
X5818523Y106149753D01*
X5818523Y106149753D02*
X5818523Y106006896D01*
X5818523Y106006896D02*
X5866142Y105911658D01*
X5866142Y105911658D02*
X5913761Y105864039D01*
X5913761Y105864039D02*
X6008999Y105816420D01*
X6008999Y105816420D02*
X6389951Y105816420D01*
X6389951Y105816420D02*
X6389951Y106816420D01*
X6389951Y106816420D02*
X6056618Y106816420D01*
X6056618Y106816420D02*
X5961380Y106768800D01*
X5961380Y106768800D02*
X5913761Y106721181D01*
X5913761Y106721181D02*
X5866142Y106625943D01*
X5866142Y106625943D02*
X5866142Y106530705D01*
X5866142Y106530705D02*
X5913761Y106435467D01*
X5913761Y106435467D02*
X5961380Y106387848D01*
X5961380Y106387848D02*
X6056618Y106340229D01*
X6056618Y106340229D02*
X6389951Y106340229D01*
X5389951Y106816420D02*
X5389951Y106006896D01*
X5389951Y106006896D02*
X5342332Y105911658D01*
X5342332Y105911658D02*
X5294713Y105864039D01*
X5294713Y105864039D02*
X5199475Y105816420D01*
X5199475Y105816420D02*
X5008999Y105816420D01*
X5008999Y105816420D02*
X4913761Y105864039D01*
X4913761Y105864039D02*
X4866142Y105911658D01*
X4866142Y105911658D02*
X4818523Y106006896D01*
X4818523Y106006896D02*
X4818523Y106816420D01*
X4485189Y106816420D02*
X3913761Y106816420D01*
X4199475Y105816420D02*
X4199475Y106816420D01*
X3056618Y105816420D02*
X3628046Y105816420D01*
X3342332Y105816420D02*
X3342332Y106816420D01*
X3342332Y106816420D02*
X3437570Y106673562D01*
X3437570Y106673562D02*
X3532808Y106578324D01*
X3532808Y106578324D02*
X3628046Y106530705D01*
D11*
G04 #@! TO.C,J5*
X6157023Y5312858D02*
X6157023Y4451072D01*
X6157023Y4451072D02*
X6214476Y4278715D01*
X6214476Y4278715D02*
X6329380Y4163810D01*
X6329380Y4163810D02*
X6501738Y4106358D01*
X6501738Y4106358D02*
X6616642Y4106358D01*
X5007976Y5312858D02*
X5582500Y5312858D01*
X5582500Y5312858D02*
X5639952Y4738334D01*
X5639952Y4738334D02*
X5582500Y4795786D01*
X5582500Y4795786D02*
X5467595Y4853239D01*
X5467595Y4853239D02*
X5180333Y4853239D01*
X5180333Y4853239D02*
X5065428Y4795786D01*
X5065428Y4795786D02*
X5007976Y4738334D01*
X5007976Y4738334D02*
X4950523Y4623429D01*
X4950523Y4623429D02*
X4950523Y4336167D01*
X4950523Y4336167D02*
X5007976Y4221263D01*
X5007976Y4221263D02*
X5065428Y4163810D01*
X5065428Y4163810D02*
X5180333Y4106358D01*
X5180333Y4106358D02*
X5467595Y4106358D01*
X5467595Y4106358D02*
X5582500Y4163810D01*
X5582500Y4163810D02*
X5639952Y4221263D01*
G04 #@! TO.C,J9*
X47657023Y5312858D02*
X47657023Y4451072D01*
X47657023Y4451072D02*
X47714476Y4278715D01*
X47714476Y4278715D02*
X47829380Y4163810D01*
X47829380Y4163810D02*
X48001738Y4106358D01*
X48001738Y4106358D02*
X48116642Y4106358D01*
X47025047Y4106358D02*
X46795238Y4106358D01*
X46795238Y4106358D02*
X46680333Y4163810D01*
X46680333Y4163810D02*
X46622881Y4221263D01*
X46622881Y4221263D02*
X46507976Y4393620D01*
X46507976Y4393620D02*
X46450523Y4623429D01*
X46450523Y4623429D02*
X46450523Y5083048D01*
X46450523Y5083048D02*
X46507976Y5197953D01*
X46507976Y5197953D02*
X46565428Y5255405D01*
X46565428Y5255405D02*
X46680333Y5312858D01*
X46680333Y5312858D02*
X46910142Y5312858D01*
X46910142Y5312858D02*
X47025047Y5255405D01*
X47025047Y5255405D02*
X47082500Y5197953D01*
X47082500Y5197953D02*
X47139952Y5083048D01*
X47139952Y5083048D02*
X47139952Y4795786D01*
X47139952Y4795786D02*
X47082500Y4680882D01*
X47082500Y4680882D02*
X47025047Y4623429D01*
X47025047Y4623429D02*
X46910142Y4565977D01*
X46910142Y4565977D02*
X46680333Y4565977D01*
X46680333Y4565977D02*
X46565428Y4623429D01*
X46565428Y4623429D02*
X46507976Y4680882D01*
X46507976Y4680882D02*
X46450523Y4795786D01*
G04 #@! TO.C,J8*
X67557023Y21012858D02*
X67557023Y20151072D01*
X67557023Y20151072D02*
X67614476Y19978715D01*
X67614476Y19978715D02*
X67729380Y19863810D01*
X67729380Y19863810D02*
X67901738Y19806358D01*
X67901738Y19806358D02*
X68016642Y19806358D01*
X66810142Y20495786D02*
X66925047Y20553239D01*
X66925047Y20553239D02*
X66982500Y20610691D01*
X66982500Y20610691D02*
X67039952Y20725596D01*
X67039952Y20725596D02*
X67039952Y20783048D01*
X67039952Y20783048D02*
X66982500Y20897953D01*
X66982500Y20897953D02*
X66925047Y20955405D01*
X66925047Y20955405D02*
X66810142Y21012858D01*
X66810142Y21012858D02*
X66580333Y21012858D01*
X66580333Y21012858D02*
X66465428Y20955405D01*
X66465428Y20955405D02*
X66407976Y20897953D01*
X66407976Y20897953D02*
X66350523Y20783048D01*
X66350523Y20783048D02*
X66350523Y20725596D01*
X66350523Y20725596D02*
X66407976Y20610691D01*
X66407976Y20610691D02*
X66465428Y20553239D01*
X66465428Y20553239D02*
X66580333Y20495786D01*
X66580333Y20495786D02*
X66810142Y20495786D01*
X66810142Y20495786D02*
X66925047Y20438334D01*
X66925047Y20438334D02*
X66982500Y20380882D01*
X66982500Y20380882D02*
X67039952Y20265977D01*
X67039952Y20265977D02*
X67039952Y20036167D01*
X67039952Y20036167D02*
X66982500Y19921263D01*
X66982500Y19921263D02*
X66925047Y19863810D01*
X66925047Y19863810D02*
X66810142Y19806358D01*
X66810142Y19806358D02*
X66580333Y19806358D01*
X66580333Y19806358D02*
X66465428Y19863810D01*
X66465428Y19863810D02*
X66407976Y19921263D01*
X66407976Y19921263D02*
X66350523Y20036167D01*
X66350523Y20036167D02*
X66350523Y20265977D01*
X66350523Y20265977D02*
X66407976Y20380882D01*
X66407976Y20380882D02*
X66465428Y20438334D01*
X66465428Y20438334D02*
X66580333Y20495786D01*
G04 #@! TO.C,J1*
X45757023Y36612858D02*
X45757023Y35751072D01*
X45757023Y35751072D02*
X45814476Y35578715D01*
X45814476Y35578715D02*
X45929380Y35463810D01*
X45929380Y35463810D02*
X46101738Y35406358D01*
X46101738Y35406358D02*
X46216642Y35406358D01*
X44550523Y35406358D02*
X45239952Y35406358D01*
X44895238Y35406358D02*
X44895238Y36612858D01*
X44895238Y36612858D02*
X45010142Y36440501D01*
X45010142Y36440501D02*
X45125047Y36325596D01*
X45125047Y36325596D02*
X45239952Y36268144D01*
G04 #@! TO.C,J11*
X68357023Y5312858D02*
X68357023Y4451072D01*
X68357023Y4451072D02*
X68414476Y4278715D01*
X68414476Y4278715D02*
X68529380Y4163810D01*
X68529380Y4163810D02*
X68701738Y4106358D01*
X68701738Y4106358D02*
X68816642Y4106358D01*
X67150523Y4106358D02*
X67839952Y4106358D01*
X67495238Y4106358D02*
X67495238Y5312858D01*
X67495238Y5312858D02*
X67610142Y5140501D01*
X67610142Y5140501D02*
X67725047Y5025596D01*
X67725047Y5025596D02*
X67839952Y4968144D01*
X66001475Y4106358D02*
X66690904Y4106358D01*
X66346190Y4106358D02*
X66346190Y5312858D01*
X66346190Y5312858D02*
X66461094Y5140501D01*
X66461094Y5140501D02*
X66575999Y5025596D01*
X66575999Y5025596D02*
X66690904Y4968144D01*
G04 #@! TO.C,J13*
X26657023Y20912858D02*
X26657023Y20051072D01*
X26657023Y20051072D02*
X26714476Y19878715D01*
X26714476Y19878715D02*
X26829380Y19763810D01*
X26829380Y19763810D02*
X27001738Y19706358D01*
X27001738Y19706358D02*
X27116642Y19706358D01*
X25450523Y19706358D02*
X26139952Y19706358D01*
X25795238Y19706358D02*
X25795238Y20912858D01*
X25795238Y20912858D02*
X25910142Y20740501D01*
X25910142Y20740501D02*
X26025047Y20625596D01*
X26025047Y20625596D02*
X26139952Y20568144D01*
X25048356Y20912858D02*
X24301475Y20912858D01*
X24301475Y20912858D02*
X24703642Y20453239D01*
X24703642Y20453239D02*
X24531285Y20453239D01*
X24531285Y20453239D02*
X24416380Y20395786D01*
X24416380Y20395786D02*
X24358928Y20338334D01*
X24358928Y20338334D02*
X24301475Y20223429D01*
X24301475Y20223429D02*
X24301475Y19936167D01*
X24301475Y19936167D02*
X24358928Y19821263D01*
X24358928Y19821263D02*
X24416380Y19763810D01*
X24416380Y19763810D02*
X24531285Y19706358D01*
X24531285Y19706358D02*
X24875999Y19706358D01*
X24875999Y19706358D02*
X24990904Y19763810D01*
X24990904Y19763810D02*
X25048356Y19821263D01*
G04 #@! TO.C,POT_START1*
X56487881Y51094753D02*
X56487881Y52301253D01*
X56487881Y52301253D02*
X56028262Y52301253D01*
X56028262Y52301253D02*
X55913357Y52243800D01*
X55913357Y52243800D02*
X55855904Y52186348D01*
X55855904Y52186348D02*
X55798452Y52071443D01*
X55798452Y52071443D02*
X55798452Y51899086D01*
X55798452Y51899086D02*
X55855904Y51784181D01*
X55855904Y51784181D02*
X55913357Y51726729D01*
X55913357Y51726729D02*
X56028262Y51669277D01*
X56028262Y51669277D02*
X56487881Y51669277D01*
X55051571Y52301253D02*
X54821762Y52301253D01*
X54821762Y52301253D02*
X54706857Y52243800D01*
X54706857Y52243800D02*
X54591952Y52128896D01*
X54591952Y52128896D02*
X54534500Y51899086D01*
X54534500Y51899086D02*
X54534500Y51496920D01*
X54534500Y51496920D02*
X54591952Y51267110D01*
X54591952Y51267110D02*
X54706857Y51152205D01*
X54706857Y51152205D02*
X54821762Y51094753D01*
X54821762Y51094753D02*
X55051571Y51094753D01*
X55051571Y51094753D02*
X55166476Y51152205D01*
X55166476Y51152205D02*
X55281381Y51267110D01*
X55281381Y51267110D02*
X55338833Y51496920D01*
X55338833Y51496920D02*
X55338833Y51899086D01*
X55338833Y51899086D02*
X55281381Y52128896D01*
X55281381Y52128896D02*
X55166476Y52243800D01*
X55166476Y52243800D02*
X55051571Y52301253D01*
X54189786Y52301253D02*
X53500357Y52301253D01*
X53845071Y51094753D02*
X53845071Y52301253D01*
X53385453Y50979848D02*
X52466214Y50979848D01*
X52236405Y51152205D02*
X52064048Y51094753D01*
X52064048Y51094753D02*
X51776786Y51094753D01*
X51776786Y51094753D02*
X51661881Y51152205D01*
X51661881Y51152205D02*
X51604429Y51209658D01*
X51604429Y51209658D02*
X51546976Y51324562D01*
X51546976Y51324562D02*
X51546976Y51439467D01*
X51546976Y51439467D02*
X51604429Y51554372D01*
X51604429Y51554372D02*
X51661881Y51611824D01*
X51661881Y51611824D02*
X51776786Y51669277D01*
X51776786Y51669277D02*
X52006595Y51726729D01*
X52006595Y51726729D02*
X52121500Y51784181D01*
X52121500Y51784181D02*
X52178953Y51841634D01*
X52178953Y51841634D02*
X52236405Y51956539D01*
X52236405Y51956539D02*
X52236405Y52071443D01*
X52236405Y52071443D02*
X52178953Y52186348D01*
X52178953Y52186348D02*
X52121500Y52243800D01*
X52121500Y52243800D02*
X52006595Y52301253D01*
X52006595Y52301253D02*
X51719334Y52301253D01*
X51719334Y52301253D02*
X51546976Y52243800D01*
X51202262Y52301253D02*
X50512833Y52301253D01*
X50857547Y51094753D02*
X50857547Y52301253D01*
X50168119Y51439467D02*
X49593595Y51439467D01*
X50283024Y51094753D02*
X49880857Y52301253D01*
X49880857Y52301253D02*
X49478690Y51094753D01*
X48387095Y51094753D02*
X48789262Y51669277D01*
X49076524Y51094753D02*
X49076524Y52301253D01*
X49076524Y52301253D02*
X48616905Y52301253D01*
X48616905Y52301253D02*
X48502000Y52243800D01*
X48502000Y52243800D02*
X48444547Y52186348D01*
X48444547Y52186348D02*
X48387095Y52071443D01*
X48387095Y52071443D02*
X48387095Y51899086D01*
X48387095Y51899086D02*
X48444547Y51784181D01*
X48444547Y51784181D02*
X48502000Y51726729D01*
X48502000Y51726729D02*
X48616905Y51669277D01*
X48616905Y51669277D02*
X49076524Y51669277D01*
X48042381Y52301253D02*
X47352952Y52301253D01*
X47697666Y51094753D02*
X47697666Y52301253D01*
X46318809Y51094753D02*
X47008238Y51094753D01*
X46663524Y51094753D02*
X46663524Y52301253D01*
X46663524Y52301253D02*
X46778428Y52128896D01*
X46778428Y52128896D02*
X46893333Y52013991D01*
X46893333Y52013991D02*
X47008238Y51956539D01*
D10*
G04 #@! TO.C,PLAY_BUT1*
X40774714Y103976420D02*
X40774714Y104976420D01*
X40774714Y104976420D02*
X40393762Y104976420D01*
X40393762Y104976420D02*
X40298524Y104928800D01*
X40298524Y104928800D02*
X40250905Y104881181D01*
X40250905Y104881181D02*
X40203286Y104785943D01*
X40203286Y104785943D02*
X40203286Y104643086D01*
X40203286Y104643086D02*
X40250905Y104547848D01*
X40250905Y104547848D02*
X40298524Y104500229D01*
X40298524Y104500229D02*
X40393762Y104452610D01*
X40393762Y104452610D02*
X40774714Y104452610D01*
X39298524Y103976420D02*
X39774714Y103976420D01*
X39774714Y103976420D02*
X39774714Y104976420D01*
X39012809Y104262134D02*
X38536619Y104262134D01*
X39108047Y103976420D02*
X38774714Y104976420D01*
X38774714Y104976420D02*
X38441381Y103976420D01*
X37917571Y104452610D02*
X37917571Y103976420D01*
X38250904Y104976420D02*
X37917571Y104452610D01*
X37917571Y104452610D02*
X37584238Y104976420D01*
X37489000Y103881181D02*
X36727095Y103881181D01*
X36155666Y104500229D02*
X36012809Y104452610D01*
X36012809Y104452610D02*
X35965190Y104404991D01*
X35965190Y104404991D02*
X35917571Y104309753D01*
X35917571Y104309753D02*
X35917571Y104166896D01*
X35917571Y104166896D02*
X35965190Y104071658D01*
X35965190Y104071658D02*
X36012809Y104024039D01*
X36012809Y104024039D02*
X36108047Y103976420D01*
X36108047Y103976420D02*
X36488999Y103976420D01*
X36488999Y103976420D02*
X36488999Y104976420D01*
X36488999Y104976420D02*
X36155666Y104976420D01*
X36155666Y104976420D02*
X36060428Y104928800D01*
X36060428Y104928800D02*
X36012809Y104881181D01*
X36012809Y104881181D02*
X35965190Y104785943D01*
X35965190Y104785943D02*
X35965190Y104690705D01*
X35965190Y104690705D02*
X36012809Y104595467D01*
X36012809Y104595467D02*
X36060428Y104547848D01*
X36060428Y104547848D02*
X36155666Y104500229D01*
X36155666Y104500229D02*
X36488999Y104500229D01*
X35488999Y104976420D02*
X35488999Y104166896D01*
X35488999Y104166896D02*
X35441380Y104071658D01*
X35441380Y104071658D02*
X35393761Y104024039D01*
X35393761Y104024039D02*
X35298523Y103976420D01*
X35298523Y103976420D02*
X35108047Y103976420D01*
X35108047Y103976420D02*
X35012809Y104024039D01*
X35012809Y104024039D02*
X34965190Y104071658D01*
X34965190Y104071658D02*
X34917571Y104166896D01*
X34917571Y104166896D02*
X34917571Y104976420D01*
X34584237Y104976420D02*
X34012809Y104976420D01*
X34298523Y103976420D02*
X34298523Y104976420D01*
X33155666Y103976420D02*
X33727094Y103976420D01*
X33441380Y103976420D02*
X33441380Y104976420D01*
X33441380Y104976420D02*
X33536618Y104833562D01*
X33536618Y104833562D02*
X33631856Y104738324D01*
X33631856Y104738324D02*
X33727094Y104690705D01*
D13*
X39643761Y98579564D02*
X39705666Y98617660D01*
X39705666Y98617660D02*
X39798523Y98617660D01*
X39798523Y98617660D02*
X39891380Y98579564D01*
X39891380Y98579564D02*
X39953285Y98503374D01*
X39953285Y98503374D02*
X39984238Y98427184D01*
X39984238Y98427184D02*
X40015190Y98274803D01*
X40015190Y98274803D02*
X40015190Y98160517D01*
X40015190Y98160517D02*
X39984238Y98008136D01*
X39984238Y98008136D02*
X39953285Y97931945D01*
X39953285Y97931945D02*
X39891380Y97855755D01*
X39891380Y97855755D02*
X39798523Y97817660D01*
X39798523Y97817660D02*
X39736619Y97817660D01*
X39736619Y97817660D02*
X39643761Y97855755D01*
X39643761Y97855755D02*
X39612809Y97893850D01*
X39612809Y97893850D02*
X39612809Y98160517D01*
X39612809Y98160517D02*
X39736619Y98160517D01*
X38067571Y101261707D02*
X37974714Y101223612D01*
X37974714Y101223612D02*
X37943761Y101185517D01*
X37943761Y101185517D02*
X37912809Y101109326D01*
X37912809Y101109326D02*
X37912809Y100995041D01*
X37912809Y100995041D02*
X37943761Y100918850D01*
X37943761Y100918850D02*
X37974714Y100880755D01*
X37974714Y100880755D02*
X38036619Y100842660D01*
X38036619Y100842660D02*
X38284238Y100842660D01*
X38284238Y100842660D02*
X38284238Y101642660D01*
X38284238Y101642660D02*
X38067571Y101642660D01*
X38067571Y101642660D02*
X38005666Y101604564D01*
X38005666Y101604564D02*
X37974714Y101566469D01*
X37974714Y101566469D02*
X37943761Y101490279D01*
X37943761Y101490279D02*
X37943761Y101414088D01*
X37943761Y101414088D02*
X37974714Y101337898D01*
X37974714Y101337898D02*
X38005666Y101299803D01*
X38005666Y101299803D02*
X38067571Y101261707D01*
X38067571Y101261707D02*
X38284238Y101261707D01*
X40111619Y101297422D02*
X39616381Y101297422D01*
X39864000Y100992660D02*
X39864000Y101602184D01*
X37912809Y97792660D02*
X38129476Y98173612D01*
X38284238Y97792660D02*
X38284238Y98592660D01*
X38284238Y98592660D02*
X38036619Y98592660D01*
X38036619Y98592660D02*
X37974714Y98554564D01*
X37974714Y98554564D02*
X37943761Y98516469D01*
X37943761Y98516469D02*
X37912809Y98440279D01*
X37912809Y98440279D02*
X37912809Y98325993D01*
X37912809Y98325993D02*
X37943761Y98249803D01*
X37943761Y98249803D02*
X37974714Y98211707D01*
X37974714Y98211707D02*
X38036619Y98173612D01*
X38036619Y98173612D02*
X38284238Y98173612D01*
D11*
G04 #@! TO.C,POT_SAMP1*
X15828262Y70700953D02*
X15828262Y71907453D01*
X15828262Y71907453D02*
X15368643Y71907453D01*
X15368643Y71907453D02*
X15253738Y71850000D01*
X15253738Y71850000D02*
X15196285Y71792548D01*
X15196285Y71792548D02*
X15138833Y71677643D01*
X15138833Y71677643D02*
X15138833Y71505286D01*
X15138833Y71505286D02*
X15196285Y71390381D01*
X15196285Y71390381D02*
X15253738Y71332929D01*
X15253738Y71332929D02*
X15368643Y71275477D01*
X15368643Y71275477D02*
X15828262Y71275477D01*
X14391952Y71907453D02*
X14162143Y71907453D01*
X14162143Y71907453D02*
X14047238Y71850000D01*
X14047238Y71850000D02*
X13932333Y71735096D01*
X13932333Y71735096D02*
X13874881Y71505286D01*
X13874881Y71505286D02*
X13874881Y71103120D01*
X13874881Y71103120D02*
X13932333Y70873310D01*
X13932333Y70873310D02*
X14047238Y70758405D01*
X14047238Y70758405D02*
X14162143Y70700953D01*
X14162143Y70700953D02*
X14391952Y70700953D01*
X14391952Y70700953D02*
X14506857Y70758405D01*
X14506857Y70758405D02*
X14621762Y70873310D01*
X14621762Y70873310D02*
X14679214Y71103120D01*
X14679214Y71103120D02*
X14679214Y71505286D01*
X14679214Y71505286D02*
X14621762Y71735096D01*
X14621762Y71735096D02*
X14506857Y71850000D01*
X14506857Y71850000D02*
X14391952Y71907453D01*
X13530167Y71907453D02*
X12840738Y71907453D01*
X13185452Y70700953D02*
X13185452Y71907453D01*
X12725834Y70586048D02*
X11806595Y70586048D01*
X11576786Y70758405D02*
X11404429Y70700953D01*
X11404429Y70700953D02*
X11117167Y70700953D01*
X11117167Y70700953D02*
X11002262Y70758405D01*
X11002262Y70758405D02*
X10944810Y70815858D01*
X10944810Y70815858D02*
X10887357Y70930762D01*
X10887357Y70930762D02*
X10887357Y71045667D01*
X10887357Y71045667D02*
X10944810Y71160572D01*
X10944810Y71160572D02*
X11002262Y71218024D01*
X11002262Y71218024D02*
X11117167Y71275477D01*
X11117167Y71275477D02*
X11346976Y71332929D01*
X11346976Y71332929D02*
X11461881Y71390381D01*
X11461881Y71390381D02*
X11519334Y71447834D01*
X11519334Y71447834D02*
X11576786Y71562739D01*
X11576786Y71562739D02*
X11576786Y71677643D01*
X11576786Y71677643D02*
X11519334Y71792548D01*
X11519334Y71792548D02*
X11461881Y71850000D01*
X11461881Y71850000D02*
X11346976Y71907453D01*
X11346976Y71907453D02*
X11059715Y71907453D01*
X11059715Y71907453D02*
X10887357Y71850000D01*
X10427738Y71045667D02*
X9853214Y71045667D01*
X10542643Y70700953D02*
X10140476Y71907453D01*
X10140476Y71907453D02*
X9738309Y70700953D01*
X9336143Y70700953D02*
X9336143Y71907453D01*
X9336143Y71907453D02*
X8933976Y71045667D01*
X8933976Y71045667D02*
X8531809Y71907453D01*
X8531809Y71907453D02*
X8531809Y70700953D01*
X7957286Y70700953D02*
X7957286Y71907453D01*
X7957286Y71907453D02*
X7497667Y71907453D01*
X7497667Y71907453D02*
X7382762Y71850000D01*
X7382762Y71850000D02*
X7325309Y71792548D01*
X7325309Y71792548D02*
X7267857Y71677643D01*
X7267857Y71677643D02*
X7267857Y71505286D01*
X7267857Y71505286D02*
X7325309Y71390381D01*
X7325309Y71390381D02*
X7382762Y71332929D01*
X7382762Y71332929D02*
X7497667Y71275477D01*
X7497667Y71275477D02*
X7957286Y71275477D01*
X6118809Y70700953D02*
X6808238Y70700953D01*
X6463524Y70700953D02*
X6463524Y71907453D01*
X6463524Y71907453D02*
X6578428Y71735096D01*
X6578428Y71735096D02*
X6693333Y71620191D01*
X6693333Y71620191D02*
X6808238Y71562739D01*
G04 #@! TO.C,J3*
X9357023Y36412858D02*
X9357023Y35551072D01*
X9357023Y35551072D02*
X9414476Y35378715D01*
X9414476Y35378715D02*
X9529380Y35263810D01*
X9529380Y35263810D02*
X9701738Y35206358D01*
X9701738Y35206358D02*
X9816642Y35206358D01*
X8897404Y36412858D02*
X8150523Y36412858D01*
X8150523Y36412858D02*
X8552690Y35953239D01*
X8552690Y35953239D02*
X8380333Y35953239D01*
X8380333Y35953239D02*
X8265428Y35895786D01*
X8265428Y35895786D02*
X8207976Y35838334D01*
X8207976Y35838334D02*
X8150523Y35723429D01*
X8150523Y35723429D02*
X8150523Y35436167D01*
X8150523Y35436167D02*
X8207976Y35321263D01*
X8207976Y35321263D02*
X8265428Y35263810D01*
X8265428Y35263810D02*
X8380333Y35206358D01*
X8380333Y35206358D02*
X8725047Y35206358D01*
X8725047Y35206358D02*
X8839952Y35263810D01*
X8839952Y35263810D02*
X8897404Y35321263D01*
D13*
G04 #@! TO.C,J10*
X51446000Y23386564D02*
X48446000Y23386564D01*
X49946000Y21886564D02*
X49946000Y24886564D01*
D14*
X51533500Y23386564D02*
G75*
G03*
X51533500Y23386564I-1574800J0D01*
G01*
X52244700Y23386564D02*
G75*
G03*
X52244700Y23386564I-2286000J0D01*
G01*
D15*
X56148200Y18886564D02*
X45640200Y18886564D01*
X45640200Y27886564D01*
X56148200Y27886564D01*
X56148200Y18886564D01*
D11*
G04 #@! TO.C,Bank_But1*
X70189000Y98436564D02*
X70189000Y98636564D01*
X70189000Y103206564D02*
X70189000Y100666564D01*
X70189000Y105436564D02*
X70189000Y105238564D01*
X68189000Y98436564D02*
X70189000Y98436564D01*
X68189000Y105436564D02*
X70189000Y105436564D01*
X65189000Y98436564D02*
X63189000Y98436564D01*
X65189000Y105436564D02*
X63189000Y105436564D01*
X63189000Y98436564D02*
X63189000Y98636564D01*
X63189000Y103206564D02*
X63189000Y100666564D01*
X63189000Y105436564D02*
X63189000Y105238564D01*
D16*
X69766981Y105746564D02*
G75*
G03*
X69766981Y105746564I-283981J0D01*
G01*
D11*
X68978525Y101936564D02*
G75*
G03*
X68978525Y101936564I-2289525J0D01*
G01*
D12*
G04 #@! TO.C,SD1*
X36949000Y75053800D02*
X36949000Y75503800D01*
X38099000Y75053800D02*
X38099000Y75603800D01*
X38929000Y75053800D02*
X38929000Y86453800D01*
X41949000Y75053800D02*
X36949000Y75053800D01*
X41949000Y77153800D02*
X41949000Y75053800D01*
X38099000Y77303800D02*
X38099000Y84203800D01*
X36949000Y77403800D02*
X36949000Y84103800D01*
X38099000Y85903800D02*
X38099000Y86453800D01*
X36949000Y86003800D02*
X36949000Y86453800D01*
X41949000Y86453800D02*
X41949000Y85453800D01*
X41949000Y86453800D02*
X36949000Y86453800D01*
D14*
G04 #@! TO.C,POT_LENGTH1*
X33289000Y56746800D02*
X33289000Y50961906D01*
X32835894Y50508800D02*
X19869106Y50508800D01*
X29027000Y62778800D02*
X23551000Y62778800D01*
D13*
X27789000Y60873800D02*
X24789000Y60873800D01*
X26289000Y59373800D02*
X26289000Y62373800D01*
D14*
X19289000Y51088906D02*
X19289000Y56746800D01*
X32835894Y50508800D02*
G75*
G03*
X33289000Y50961906I-1J453107D01*
G01*
D12*
X29336999Y57825801D02*
G75*
G03*
X23241001Y57825801I-3047999J3047999D01*
G01*
D14*
X19289000Y51088906D02*
G75*
G03*
X19869106Y50508800I580100J-6D01*
G01*
X29689000Y60873800D02*
G75*
G03*
X29689000Y60873800I-3400000J0D01*
G01*
X30289000Y60873800D02*
G75*
G03*
X30289000Y60873800I-4000000J0D01*
G01*
X34417000Y60873800D02*
G75*
G03*
X34417000Y60873800I-8128000J0D01*
G01*
D13*
G04 #@! TO.C,J2*
X31339000Y39186564D02*
X28339000Y39186564D01*
X29839000Y37686564D02*
X29839000Y40686564D01*
D14*
X31426500Y39186564D02*
G75*
G03*
X31426500Y39186564I-1574800J0D01*
G01*
X32137700Y39186564D02*
G75*
G03*
X32137700Y39186564I-2286000J0D01*
G01*
D15*
X36041200Y34686564D02*
X25533200Y34686564D01*
X25533200Y43686564D01*
X36041200Y43686564D01*
X36041200Y34686564D01*
D14*
G04 #@! TO.C,POT_PITCH1*
X73889000Y76334564D02*
X73889000Y70549670D01*
X73435894Y70096564D02*
X60469106Y70096564D01*
X69627000Y82366564D02*
X64151000Y82366564D01*
D13*
X68389000Y80461564D02*
X65389000Y80461564D01*
X66889000Y78961564D02*
X66889000Y81961564D01*
D17*
X66889000Y83761564D02*
X66889000Y81961564D01*
D14*
X59889000Y70676670D02*
X59889000Y76334564D01*
X73435894Y70096564D02*
G75*
G03*
X73889000Y70549670I-1J453107D01*
G01*
X59889000Y70676670D02*
G75*
G03*
X60469106Y70096564I580100J-6D01*
G01*
X70289000Y80461564D02*
G75*
G03*
X70289000Y80461564I-3400000J0D01*
G01*
X70889000Y80461564D02*
G75*
G03*
X70889000Y80461564I-4000000J0D01*
G01*
X75017000Y80461564D02*
G75*
G03*
X75017000Y80461564I-8128000J0D01*
G01*
D13*
G04 #@! TO.C,J7*
X29559000Y7961564D02*
X26559000Y7961564D01*
X28059000Y6461564D02*
X28059000Y9461564D01*
D14*
X29646500Y7961564D02*
G75*
G03*
X29646500Y7961564I-1574800J0D01*
G01*
X30357700Y7961564D02*
G75*
G03*
X30357700Y7961564I-2286000J0D01*
G01*
D15*
X34261200Y3461564D02*
X23753200Y3461564D01*
X23753200Y12461564D01*
X34261200Y12461564D01*
X34261200Y3461564D01*
D13*
G04 #@! TO.C,J6*
X9764000Y23386564D02*
X6764000Y23386564D01*
X8264000Y21886564D02*
X8264000Y24886564D01*
D14*
X9851500Y23386564D02*
G75*
G03*
X9851500Y23386564I-1574800J0D01*
G01*
X10562700Y23386564D02*
G75*
G03*
X10562700Y23386564I-2286000J0D01*
G01*
D15*
X14466200Y18886564D02*
X3958200Y18886564D01*
X3958200Y27886564D01*
X14466200Y27886564D01*
X14466200Y18886564D01*
D13*
G04 #@! TO.C,J4*
X64889000Y39186564D02*
X67889000Y39186564D01*
X66389000Y40686564D02*
X66389000Y37686564D01*
D14*
X67951100Y39186564D02*
G75*
G03*
X67951100Y39186564I-1574800J0D01*
G01*
X68662300Y39186564D02*
G75*
G03*
X68662300Y39186564I-2286000J0D01*
G01*
D15*
X70694800Y34686564D02*
X60186800Y34686564D01*
X60186800Y43686564D01*
X70694800Y43686564D01*
X70694800Y34686564D01*
D11*
G04 #@! TO.C,REV_BUT1*
X14789000Y98436564D02*
X14789000Y98636564D01*
X14789000Y103206564D02*
X14789000Y100666564D01*
X14789000Y105436564D02*
X14789000Y105238564D01*
X12789000Y98436564D02*
X14789000Y98436564D01*
X12789000Y105436564D02*
X14789000Y105436564D01*
X9789000Y98436564D02*
X7789000Y98436564D01*
X9789000Y105436564D02*
X7789000Y105436564D01*
X7789000Y98436564D02*
X7789000Y98636564D01*
X7789000Y103206564D02*
X7789000Y100666564D01*
X7789000Y105436564D02*
X7789000Y105238564D01*
D16*
X14366981Y105746564D02*
G75*
G03*
X14366981Y105746564I-283981J0D01*
G01*
D11*
X13578525Y101936564D02*
G75*
G03*
X13578525Y101936564I-2289525J0D01*
G01*
D13*
G04 #@! TO.C,J5*
X9764000Y7961564D02*
X6764000Y7961564D01*
X8264000Y6461564D02*
X8264000Y9461564D01*
D14*
X9851500Y7961564D02*
G75*
G03*
X9851500Y7961564I-1574800J0D01*
G01*
X10562700Y7961564D02*
G75*
G03*
X10562700Y7961564I-2286000J0D01*
G01*
D15*
X14466200Y3461564D02*
X3958200Y3461564D01*
X3958200Y12461564D01*
X14466200Y12461564D01*
X14466200Y3461564D01*
D13*
G04 #@! TO.C,J9*
X51419000Y7961564D02*
X48419000Y7961564D01*
X49919000Y6461564D02*
X49919000Y9461564D01*
D14*
X51506500Y7961564D02*
G75*
G03*
X51506500Y7961564I-1574800J0D01*
G01*
X52217700Y7961564D02*
G75*
G03*
X52217700Y7961564I-2286000J0D01*
G01*
D15*
X56121200Y3461564D02*
X45613200Y3461564D01*
X45613200Y12461564D01*
X56121200Y12461564D01*
X56121200Y3461564D01*
D13*
G04 #@! TO.C,J8*
X71214000Y23386564D02*
X68214000Y23386564D01*
X69714000Y21886564D02*
X69714000Y24886564D01*
D14*
X71301500Y23386564D02*
G75*
G03*
X71301500Y23386564I-1574800J0D01*
G01*
X72012700Y23386564D02*
G75*
G03*
X72012700Y23386564I-2286000J0D01*
G01*
D15*
X75916200Y18886564D02*
X65408200Y18886564D01*
X65408200Y27886564D01*
X75916200Y27886564D01*
X75916200Y18886564D01*
D13*
G04 #@! TO.C,J1*
X49564000Y39186564D02*
X46564000Y39186564D01*
X48064000Y37686564D02*
X48064000Y40686564D01*
D14*
X49651500Y39186564D02*
G75*
G03*
X49651500Y39186564I-1574800J0D01*
G01*
X50362700Y39186564D02*
G75*
G03*
X50362700Y39186564I-2286000J0D01*
G01*
D15*
X54266200Y34686564D02*
X43758200Y34686564D01*
X43758200Y43686564D01*
X54266200Y43686564D01*
X54266200Y34686564D01*
D13*
G04 #@! TO.C,J11*
X71214000Y7961564D02*
X68214000Y7961564D01*
X69714000Y6461564D02*
X69714000Y9461564D01*
D14*
X71301500Y7961564D02*
G75*
G03*
X71301500Y7961564I-1574800J0D01*
G01*
X72012700Y7961564D02*
G75*
G03*
X72012700Y7961564I-2286000J0D01*
G01*
D15*
X75916200Y3461564D02*
X65408200Y3461564D01*
X65408200Y12461564D01*
X75916200Y12461564D01*
X75916200Y3461564D01*
D13*
G04 #@! TO.C,J13*
X29532000Y23386564D02*
X26532000Y23386564D01*
X28032000Y21886564D02*
X28032000Y24886564D01*
D14*
X29619500Y23386564D02*
G75*
G03*
X29619500Y23386564I-1574800J0D01*
G01*
X30330700Y23386564D02*
G75*
G03*
X30330700Y23386564I-2286000J0D01*
G01*
D15*
X34234200Y18886564D02*
X23726200Y18886564D01*
X23726200Y27886564D01*
X34234200Y27886564D01*
X34234200Y18886564D01*
D14*
G04 #@! TO.C,POT_START1*
X58689000Y56702481D02*
X58689000Y50917587D01*
X58235894Y50464481D02*
X45269106Y50464481D01*
X54427000Y62734481D02*
X48951000Y62734481D01*
D13*
X53189000Y60829481D02*
X50189000Y60829481D01*
X51689000Y59329481D02*
X51689000Y62329481D01*
D14*
X44689000Y51044587D02*
X44689000Y56702481D01*
X58235894Y50464481D02*
G75*
G03*
X58689000Y50917587I-1J453107D01*
G01*
D12*
X54736999Y57781482D02*
G75*
G03*
X48641001Y57781482I-3047999J3047999D01*
G01*
D14*
X44689000Y51044587D02*
G75*
G03*
X45269106Y50464481I580100J-6D01*
G01*
X55089000Y60829481D02*
G75*
G03*
X55089000Y60829481I-3400000J0D01*
G01*
X55689000Y60829481D02*
G75*
G03*
X55689000Y60829481I-4000000J0D01*
G01*
X59817000Y60829481D02*
G75*
G03*
X59817000Y60829481I-8128000J0D01*
G01*
D11*
G04 #@! TO.C,PLAY_BUT1*
X42489000Y96161564D02*
X42489000Y96361564D01*
X42489000Y103161564D02*
X42489000Y102963564D01*
X40489000Y96161564D02*
X42489000Y96161564D01*
X40489000Y103161564D02*
X42489000Y103161564D01*
X37489000Y96161564D02*
X35489000Y96161564D01*
X37489000Y103161564D02*
X35489000Y103161564D01*
X35489000Y96161564D02*
X35489000Y96361564D01*
X35489000Y103161564D02*
X35489000Y102963564D01*
X42250307Y98318672D02*
G75*
G03*
X42227499Y101058563I-3261305J1342892D01*
G01*
X40639194Y96551582D02*
G75*
G03*
X41211499Y96931065I-1650167J3109938D01*
G01*
X41205281Y102399323D02*
G75*
G03*
X40639999Y102773063I-2216232J-2737688D01*
G01*
X38670927Y96162773D02*
G75*
G03*
X39369999Y96169065I318074J3498773D01*
G01*
X39307073Y103160355D02*
G75*
G03*
X38608001Y103154063I-318073J-3498791D01*
G01*
X36772719Y96923805D02*
G75*
G03*
X37338001Y96550066I2216231J2737689D01*
G01*
X37338806Y102771545D02*
G75*
G03*
X36766501Y102392063I1650194J-3109981D01*
G01*
X35727694Y101004456D02*
G75*
G03*
X35750502Y98264565I3261306J-1342892D01*
G01*
D16*
X42066981Y103471564D02*
G75*
G03*
X42066981Y103471564I-283981J0D01*
G01*
D14*
G04 #@! TO.C,POT_SAMP1*
X18089000Y76334564D02*
X18089000Y70549670D01*
X17635894Y70096564D02*
X4669106Y70096564D01*
X13827000Y82366564D02*
X8351000Y82366564D01*
D13*
X12589000Y80461564D02*
X9589000Y80461564D01*
X11089000Y78961564D02*
X11089000Y81961564D01*
D14*
X4089000Y70676670D02*
X4089000Y76334564D01*
X17635894Y70096564D02*
G75*
G03*
X18089000Y70549670I-1J453107D01*
G01*
D12*
X14136999Y77413565D02*
G75*
G03*
X8041001Y77413565I-3047999J3047999D01*
G01*
D14*
X4089000Y70676670D02*
G75*
G03*
X4669106Y70096564I580100J-6D01*
G01*
X14489000Y80461564D02*
G75*
G03*
X14489000Y80461564I-3400000J0D01*
G01*
X15089000Y80461564D02*
G75*
G03*
X15089000Y80461564I-4000000J0D01*
G01*
X19217000Y80461564D02*
G75*
G03*
X19217000Y80461564I-8128000J0D01*
G01*
D13*
G04 #@! TO.C,J3*
X13164000Y39186564D02*
X10164000Y39186564D01*
X11664000Y37686564D02*
X11664000Y40686564D01*
D14*
X13251500Y39186564D02*
G75*
G03*
X13251500Y39186564I-1574800J0D01*
G01*
X13962700Y39186564D02*
G75*
G03*
X13962700Y39186564I-2286000J0D01*
G01*
D15*
X17866200Y34686564D02*
X7358200Y34686564D01*
X7358200Y43686564D01*
X17866200Y43686564D01*
X17866200Y34686564D01*
G04 #@! TD*
%LPC*%
D18*
G04 #@! TO.C,R17*
X35949000Y19623800D03*
X43569000Y19623800D03*
G04 #@! TD*
D19*
G04 #@! TO.C,C7*
X60017200Y11643800D03*
X62608000Y11643800D03*
G04 #@! TD*
G04 #@! TO.C,C17*
X35017200Y93743800D03*
X37608000Y93743800D03*
G04 #@! TD*
D18*
G04 #@! TO.C,R26*
X40299000Y90043800D03*
X32679000Y90043800D03*
G04 #@! TD*
G04 #@! TO.C,R2*
X39089000Y44153800D03*
X39089000Y36533800D03*
G04 #@! TD*
G04 #@! TO.C,R37*
X75759000Y52983800D03*
X75759000Y60603800D03*
G04 #@! TD*
D20*
G04 #@! TO.C,D2*
X52998999Y16043799D03*
D21*
X45378999Y16043799D03*
G04 #@! TD*
D18*
G04 #@! TO.C,R33*
X43979000Y27093800D03*
X36359000Y27093800D03*
G04 #@! TD*
D22*
G04 #@! TO.C,JC1*
X34340977Y30079999D03*
D23*
X34340977Y32619999D03*
X31800977Y30079999D03*
X31800977Y32619999D03*
X29260977Y30079999D03*
X29260977Y32619999D03*
X26720977Y30079999D03*
X26720977Y32619999D03*
X24180977Y30079999D03*
X24180977Y32619999D03*
G04 #@! TD*
D18*
G04 #@! TO.C,R16*
X31489000Y95333800D03*
X31489000Y102953800D03*
G04 #@! TD*
D19*
G04 #@! TO.C,C1*
X58389000Y70472000D03*
X58389000Y73062800D03*
G04 #@! TD*
D20*
G04 #@! TO.C,C4*
X60188999Y17243799D03*
D19*
X62689000Y17243800D03*
G04 #@! TD*
D18*
G04 #@! TO.C,R5*
X41989000Y53253800D03*
X41989000Y45633800D03*
G04 #@! TD*
G04 #@! TO.C,R14*
X3089000Y45963800D03*
X3089000Y38343800D03*
G04 #@! TD*
G04 #@! TO.C,R25*
X71805800Y97104200D03*
X71805800Y89484200D03*
G04 #@! TD*
D19*
G04 #@! TO.C,C15*
X8078200Y52133800D03*
X10669000Y52133800D03*
G04 #@! TD*
D20*
G04 #@! TO.C,C19*
X57263999Y100818799D03*
D19*
X59764000Y100818800D03*
G04 #@! TD*
D20*
G04 #@! TO.C,C20*
X47188999Y98218799D03*
D19*
X49689000Y98218800D03*
G04 #@! TD*
D20*
G04 #@! TO.C,D1*
X26478999Y15343799D03*
D21*
X34098999Y15343799D03*
G04 #@! TD*
D19*
G04 #@! TO.C,C13*
X72289000Y46115600D03*
X72289000Y43524800D03*
G04 #@! TD*
D18*
G04 #@! TO.C,R23*
X54189000Y78253800D03*
X54189000Y70633800D03*
G04 #@! TD*
D19*
G04 #@! TO.C,C9*
X23160800Y42743800D03*
X20570000Y42743800D03*
G04 #@! TD*
D20*
G04 #@! TO.C,U1*
X60788999Y49633799D03*
D21*
X63328999Y49633799D03*
X65868999Y49633799D03*
X68408999Y49633799D03*
X68408999Y57253799D03*
X65868999Y57253799D03*
X63328999Y57253799D03*
X60788999Y57253799D03*
G04 #@! TD*
D18*
G04 #@! TO.C,R30*
X51562000Y72415400D03*
X43942000Y72415400D03*
G04 #@! TD*
G04 #@! TO.C,R21*
X10219000Y95703800D03*
X17839000Y95703800D03*
G04 #@! TD*
G04 #@! TO.C,R20*
X4829000Y29753800D03*
X12449000Y29753800D03*
G04 #@! TD*
D23*
G04 #@! TO.C,J14*
X37818999Y13823799D03*
X40358999Y13823799D03*
X37818999Y11283799D03*
X40358999Y11283799D03*
X37818999Y8743799D03*
X40358999Y8743799D03*
X37818999Y6203799D03*
X40358999Y6203799D03*
X37818999Y3663799D03*
X40358999Y3663799D03*
G04 #@! TD*
D18*
G04 #@! TO.C,R4*
X20289000Y39153800D03*
X20289000Y31533800D03*
G04 #@! TD*
G04 #@! TO.C,R28*
X21589000Y81333800D03*
X21589000Y88953800D03*
G04 #@! TD*
G04 #@! TO.C,R40*
X27079000Y95173800D03*
X27079000Y102793800D03*
G04 #@! TD*
G04 #@! TO.C,R1*
X75639000Y33043800D03*
X75639000Y40663800D03*
G04 #@! TD*
G04 #@! TO.C,R41*
X18149000Y91653800D03*
X10529000Y91653800D03*
G04 #@! TD*
G04 #@! TO.C,R12*
X47099000Y32343800D03*
X39479000Y32343800D03*
G04 #@! TD*
D19*
G04 #@! TO.C,C8*
X19709800Y10943800D03*
X17119000Y10943800D03*
G04 #@! TD*
D18*
G04 #@! TO.C,R27*
X7061200Y96875600D03*
X7061200Y89255600D03*
G04 #@! TD*
D19*
G04 #@! TO.C,C6*
X67774400Y63743800D03*
X72854400Y63743800D03*
G04 #@! TD*
D18*
G04 #@! TO.C,R6*
X38589000Y56553800D03*
X38589000Y48933800D03*
G04 #@! TD*
G04 #@! TO.C,R9*
X75759000Y42963800D03*
X75759000Y50583800D03*
G04 #@! TD*
G04 #@! TO.C,R32*
X24879000Y75143800D03*
X32499000Y75143800D03*
G04 #@! TD*
D19*
G04 #@! TO.C,C2*
X20017200Y71343800D03*
X22608000Y71343800D03*
G04 #@! TD*
D18*
G04 #@! TO.C,R13*
X10329000Y46143800D03*
X17949000Y46143800D03*
G04 #@! TD*
G04 #@! TO.C,R19*
X45089000Y76663800D03*
X45089000Y84283800D03*
G04 #@! TD*
D20*
G04 #@! TO.C,C5*
X17138999Y16443799D03*
D19*
X19639000Y16443800D03*
G04 #@! TD*
G04 #@! TO.C,C14*
X2489000Y60915600D03*
X2489000Y58324800D03*
G04 #@! TD*
D18*
G04 #@! TO.C,R34*
X17189000Y21533800D03*
X17189000Y29153800D03*
G04 #@! TD*
D22*
G04 #@! TO.C,JA1*
X57530999Y91429991D03*
D23*
X54990999Y91429991D03*
X57530999Y88889991D03*
X54990999Y88889991D03*
X57530999Y86349991D03*
X54990999Y86349991D03*
X57530999Y83809991D03*
X54990999Y83809991D03*
X57530999Y81269991D03*
X54990999Y81269991D03*
G04 #@! TD*
D18*
G04 #@! TO.C,R31*
X49649000Y75813800D03*
X49649000Y83433800D03*
G04 #@! TD*
D20*
G04 #@! TO.C,U2*
X5988999Y55333799D03*
D21*
X8528999Y55333799D03*
X11068999Y55333799D03*
X13608999Y55333799D03*
X13608999Y62953799D03*
X11068999Y62953799D03*
X8528999Y62953799D03*
X5988999Y62953799D03*
G04 #@! TD*
D18*
G04 #@! TO.C,R7*
X8919000Y32673800D03*
X16539000Y32673800D03*
G04 #@! TD*
D24*
G04 #@! TO.C,U3*
X51803999Y103526299D03*
D25*
X49263999Y103526299D03*
X46723999Y103526299D03*
G04 #@! TD*
D19*
G04 #@! TO.C,C12*
X60889000Y60872000D03*
X60889000Y63462800D03*
G04 #@! TD*
G04 #@! TO.C,C16*
X23089000Y95543800D03*
X23089000Y98134600D03*
G04 #@! TD*
D18*
G04 #@! TO.C,R11*
X71789000Y56853800D03*
X71789000Y49233800D03*
G04 #@! TD*
G04 #@! TO.C,R10*
X65879000Y60543800D03*
X73499000Y60543800D03*
G04 #@! TD*
G04 #@! TO.C,R15*
X2239000Y36093800D03*
X2239000Y28473800D03*
G04 #@! TD*
D19*
G04 #@! TO.C,C11*
X6883600Y48763800D03*
X1803600Y48763800D03*
G04 #@! TD*
D18*
G04 #@! TO.C,R18*
X51189000Y87553800D03*
X43569000Y87553800D03*
G04 #@! TD*
D22*
G04 #@! TO.C,JB1*
X60341001Y30079999D03*
D23*
X60341001Y32619999D03*
X57801001Y30079999D03*
X57801001Y32619999D03*
X55261001Y30079999D03*
X55261001Y32619999D03*
X52721001Y30079999D03*
X52721001Y32619999D03*
X50181001Y30079999D03*
X50181001Y32619999D03*
G04 #@! TD*
D18*
G04 #@! TO.C,R8*
X59979000Y46043800D03*
X67599000Y46043800D03*
G04 #@! TD*
D19*
G04 #@! TO.C,C3*
X76089000Y67115600D03*
X76089000Y64524800D03*
G04 #@! TD*
D22*
G04 #@! TO.C,JD1*
X29530979Y91429991D03*
D23*
X26990979Y91429991D03*
X29530979Y88889991D03*
X26990979Y88889991D03*
X29530979Y86349991D03*
X26990979Y86349991D03*
X29530979Y83809991D03*
X26990979Y83809991D03*
X29530979Y81269991D03*
X26990979Y81269991D03*
G04 #@! TD*
D18*
G04 #@! TO.C,R3*
X35189000Y54253800D03*
X35189000Y46633800D03*
G04 #@! TD*
D19*
G04 #@! TO.C,C10*
X55717200Y41743800D03*
X58308000Y41743800D03*
G04 #@! TD*
D26*
G04 #@! TO.C,J10*
X55153000Y23386564D03*
X44180200Y23386564D03*
X46593200Y23386564D03*
G04 #@! TD*
D27*
G04 #@! TO.C,Bank_But1*
X69939000Y104186564D03*
X63439000Y104186564D03*
X69939000Y99686564D03*
X63439000Y99686564D03*
D28*
X67589000Y104836564D03*
X65789000Y104836564D03*
X65789000Y99036564D03*
X67589000Y99036564D03*
G04 #@! TD*
D29*
G04 #@! TO.C,SD1*
X40618999Y76904048D03*
X41718819Y78003868D03*
X40618999Y79103942D03*
X41718819Y80203762D03*
X40618999Y81303836D03*
X41718819Y82403656D03*
X40618999Y83503730D03*
X41718819Y84603550D03*
D30*
X37449079Y76461199D03*
X37449079Y85046399D03*
G04 #@! TD*
D31*
G04 #@! TO.C,POT_LENGTH1*
X31289000Y47919800D03*
X26289000Y47919800D03*
X21289000Y47919800D03*
G04 #@! TD*
D26*
G04 #@! TO.C,J2*
X35046000Y39186564D03*
X24073200Y39186564D03*
X26486200Y39186564D03*
G04 #@! TD*
D31*
G04 #@! TO.C,POT_PITCH1*
X71889000Y67507564D03*
X66889000Y67507564D03*
X61889000Y67507564D03*
G04 #@! TD*
D26*
G04 #@! TO.C,J7*
X33266000Y7961564D03*
X22293200Y7961564D03*
X24706200Y7961564D03*
G04 #@! TD*
G04 #@! TO.C,J6*
X13471000Y23386564D03*
X2498200Y23386564D03*
X4911200Y23386564D03*
G04 #@! TD*
G04 #@! TO.C,J4*
X61182000Y39186564D03*
X72154800Y39186564D03*
X69741800Y39186564D03*
G04 #@! TD*
D27*
G04 #@! TO.C,REV_BUT1*
X14539000Y104186564D03*
X8039000Y104186564D03*
X14539000Y99686564D03*
X8039000Y99686564D03*
D28*
X12189000Y104836564D03*
X10389000Y104836564D03*
X10389000Y99036564D03*
X12189000Y99036564D03*
G04 #@! TD*
D26*
G04 #@! TO.C,J5*
X13471000Y7961564D03*
X2498200Y7961564D03*
X4911200Y7961564D03*
G04 #@! TD*
G04 #@! TO.C,J9*
X55126000Y7961564D03*
X44153200Y7961564D03*
X46566200Y7961564D03*
G04 #@! TD*
G04 #@! TO.C,J8*
X74921000Y23386564D03*
X63948200Y23386564D03*
X66361200Y23386564D03*
G04 #@! TD*
G04 #@! TO.C,J1*
X53271000Y39186564D03*
X42298200Y39186564D03*
X44711200Y39186564D03*
G04 #@! TD*
G04 #@! TO.C,J11*
X74921000Y7961564D03*
X63948200Y7961564D03*
X66361200Y7961564D03*
G04 #@! TD*
G04 #@! TO.C,J13*
X33239000Y23386564D03*
X22266200Y23386564D03*
X24679200Y23386564D03*
G04 #@! TD*
D31*
G04 #@! TO.C,POT_START1*
X56689000Y47875481D03*
X51689000Y47875481D03*
X46689000Y47875481D03*
G04 #@! TD*
D27*
G04 #@! TO.C,PLAY_BUT1*
X41985000Y101911564D03*
X35993000Y101911564D03*
X41985000Y97411564D03*
X35993000Y97411564D03*
D28*
X39889000Y102561564D03*
X38089000Y102561564D03*
X38089000Y96761564D03*
X39889000Y96761564D03*
G04 #@! TD*
D31*
G04 #@! TO.C,POT_SAMP1*
X16089000Y67507564D03*
X11089000Y67507564D03*
X6089000Y67507564D03*
G04 #@! TD*
D26*
G04 #@! TO.C,J3*
X16871000Y39186564D03*
X5898200Y39186564D03*
X8311200Y39186564D03*
G04 #@! TD*
M02*
