G04 #@! TF.GenerationSoftware,KiCad,Pcbnew,7.0.1-0*
G04 #@! TF.CreationDate,2023-04-06T10:22:02-07:00*
G04 #@! TF.ProjectId,Sampler-built,53616d70-6c65-4722-9d62-75696c742e6b,rev?*
G04 #@! TF.SameCoordinates,PXb71b00PY73f50f0*
G04 #@! TF.FileFunction,Legend,Top*
G04 #@! TF.FilePolarity,Positive*
%FSLAX46Y46*%
G04 Gerber Fmt 4.6, Leading zero omitted, Abs format (unit mm)*
G04 Created by KiCad (PCBNEW 7.0.1-0) date 2023-04-06 10:22:02*
%MOMM*%
%LPD*%
G01*
G04 APERTURE LIST*
G04 Aperture macros list*
%AMOutline4P*
0 Free polygon, 4 corners , with rotation*
0 The origin of the aperture is its center*
0 number of corners: always 4*
0 $1 to $8 corner X, Y*
0 $9 Rotation angle, in degrees counterclockwise*
0 create outline with 4 corners*
4,1,4,$1,$2,$3,$4,$5,$6,$7,$8,$1,$2,$9*%
G04 Aperture macros list end*
%ADD10C,0.254000*%
%ADD11C,0.150000*%
%ADD12C,0.120000*%
%ADD13C,0.152400*%
%ADD14C,0.120650*%
%ADD15C,0.100000*%
%ADD16C,1.000000*%
%ADD17R,1.000000X1.000000*%
%ADD18R,1.200000X0.900000*%
%ADD19R,1.700000X1.700000*%
%ADD20O,1.700000X1.700000*%
%ADD21R,3.000000X1.600000*%
%ADD22R,1.450000X0.450000*%
%ADD23R,1.000000X1.500000*%
%ADD24R,1.000000X1.800000*%
%ADD25Outline4P,-1.100000X-0.500000X1.100000X-0.500000X0.400000X0.500000X-0.400000X0.500000X180.000000*%
%ADD26R,2.200000X1.840000*%
%ADD27Outline4P,-1.100000X-0.425000X1.100000X-0.425000X0.500000X0.425000X-0.500000X0.425000X0.000000*%
%ADD28C,1.930400*%
%ADD29C,1.800000*%
%ADD30C,1.500000*%
%ADD31O,1.397000X1.092200*%
%ADD32O,1.524000X1.524000*%
%ADD33C,2.540000*%
G04 APERTURE END LIST*
D10*
X31088244Y69922950D02*
X31262113Y69862474D01*
X31262113Y69862474D02*
X31564494Y69862474D01*
X31564494Y69862474D02*
X31693006Y69922950D01*
X31693006Y69922950D02*
X31761042Y69983427D01*
X31761042Y69983427D02*
X31836637Y70104379D01*
X31836637Y70104379D02*
X31851756Y70225331D01*
X31851756Y70225331D02*
X31806399Y70346284D01*
X31806399Y70346284D02*
X31753482Y70406760D01*
X31753482Y70406760D02*
X31640090Y70467236D01*
X31640090Y70467236D02*
X31405744Y70527712D01*
X31405744Y70527712D02*
X31292351Y70588189D01*
X31292351Y70588189D02*
X31239435Y70648665D01*
X31239435Y70648665D02*
X31194078Y70769617D01*
X31194078Y70769617D02*
X31209197Y70890570D01*
X31209197Y70890570D02*
X31284792Y71011522D01*
X31284792Y71011522D02*
X31352828Y71071998D01*
X31352828Y71071998D02*
X31481340Y71132474D01*
X31481340Y71132474D02*
X31783720Y71132474D01*
X31783720Y71132474D02*
X31957590Y71071998D01*
X32328006Y70225331D02*
X32932768Y70225331D01*
X32161696Y69862474D02*
X32743780Y71132474D01*
X32743780Y71132474D02*
X33008363Y69862474D01*
X33424137Y69862474D02*
X33582887Y71132474D01*
X33582887Y71132474D02*
X33892827Y70225331D01*
X33892827Y70225331D02*
X34429554Y71132474D01*
X34429554Y71132474D02*
X34270804Y69862474D01*
X34868006Y69862474D02*
X35026756Y71132474D01*
X35026756Y71132474D02*
X35510565Y71132474D01*
X35510565Y71132474D02*
X35623958Y71071998D01*
X35623958Y71071998D02*
X35676875Y71011522D01*
X35676875Y71011522D02*
X35722232Y70890570D01*
X35722232Y70890570D02*
X35699554Y70709141D01*
X35699554Y70709141D02*
X35623958Y70588189D01*
X35623958Y70588189D02*
X35555923Y70527712D01*
X35555923Y70527712D02*
X35427411Y70467236D01*
X35427411Y70467236D02*
X34943601Y70467236D01*
X36735208Y69862474D02*
X36130446Y69862474D01*
X36130446Y69862474D02*
X36289196Y71132474D01*
X37234137Y70527712D02*
X37657470Y70527712D01*
X37755744Y69862474D02*
X37150982Y69862474D01*
X37150982Y69862474D02*
X37309732Y71132474D01*
X37309732Y71132474D02*
X37914494Y71132474D01*
X39018184Y69862474D02*
X38670446Y70467236D01*
X38292470Y69862474D02*
X38451220Y71132474D01*
X38451220Y71132474D02*
X38935029Y71132474D01*
X38935029Y71132474D02*
X39048422Y71071998D01*
X39048422Y71071998D02*
X39101339Y71011522D01*
X39101339Y71011522D02*
X39146696Y70890570D01*
X39146696Y70890570D02*
X39124018Y70709141D01*
X39124018Y70709141D02*
X39048422Y70588189D01*
X39048422Y70588189D02*
X38980387Y70527712D01*
X38980387Y70527712D02*
X38851875Y70467236D01*
X38851875Y70467236D02*
X38368065Y70467236D01*
X39615386Y70346284D02*
X40583005Y70346284D01*
X41112172Y70709141D02*
X41308720Y69862474D01*
X41308720Y69862474D02*
X41716934Y70709141D01*
X42752589Y69862474D02*
X42026875Y69862474D01*
X42389732Y69862474D02*
X42548482Y71132474D01*
X42548482Y71132474D02*
X42404851Y70951046D01*
X42404851Y70951046D02*
X42268780Y70830093D01*
X42268780Y70830093D02*
X42140268Y70769617D01*
X43304434Y69983427D02*
X43357351Y69922950D01*
X43357351Y69922950D02*
X43289315Y69862474D01*
X43289315Y69862474D02*
X43236398Y69922950D01*
X43236398Y69922950D02*
X43304434Y69983427D01*
X43304434Y69983427D02*
X43289315Y69862474D01*
X44287172Y71132474D02*
X44408124Y71132474D01*
X44408124Y71132474D02*
X44521517Y71071998D01*
X44521517Y71071998D02*
X44574434Y71011522D01*
X44574434Y71011522D02*
X44619791Y70890570D01*
X44619791Y70890570D02*
X44650029Y70648665D01*
X44650029Y70648665D02*
X44612231Y70346284D01*
X44612231Y70346284D02*
X44521517Y70104379D01*
X44521517Y70104379D02*
X44445922Y69983427D01*
X44445922Y69983427D02*
X44377886Y69922950D01*
X44377886Y69922950D02*
X44249374Y69862474D01*
X44249374Y69862474D02*
X44128422Y69862474D01*
X44128422Y69862474D02*
X44015029Y69922950D01*
X44015029Y69922950D02*
X43962112Y69983427D01*
X43962112Y69983427D02*
X43916755Y70104379D01*
X43916755Y70104379D02*
X43886517Y70346284D01*
X43886517Y70346284D02*
X43924315Y70648665D01*
X43924315Y70648665D02*
X44015029Y70890570D01*
X44015029Y70890570D02*
X44090624Y71011522D01*
X44090624Y71011522D02*
X44158660Y71071998D01*
X44158660Y71071998D02*
X44287172Y71132474D01*
D11*
G04 #@! TO.C,C7*
X50861666Y8641393D02*
X50830714Y8602688D01*
X50830714Y8602688D02*
X50737856Y8563984D01*
X50737856Y8563984D02*
X50675952Y8563984D01*
X50675952Y8563984D02*
X50583095Y8602688D01*
X50583095Y8602688D02*
X50521190Y8680098D01*
X50521190Y8680098D02*
X50490237Y8757508D01*
X50490237Y8757508D02*
X50459285Y8912327D01*
X50459285Y8912327D02*
X50459285Y9028441D01*
X50459285Y9028441D02*
X50490237Y9183260D01*
X50490237Y9183260D02*
X50521190Y9260669D01*
X50521190Y9260669D02*
X50583095Y9338079D01*
X50583095Y9338079D02*
X50675952Y9376784D01*
X50675952Y9376784D02*
X50737856Y9376784D01*
X50737856Y9376784D02*
X50830714Y9338079D01*
X50830714Y9338079D02*
X50861666Y9299374D01*
X51078333Y9376784D02*
X51511666Y9376784D01*
X51511666Y9376784D02*
X51233095Y8563984D01*
G04 #@! TO.C,C17*
X30198607Y101642143D02*
X30237312Y101611191D01*
X30237312Y101611191D02*
X30276016Y101518333D01*
X30276016Y101518333D02*
X30276016Y101456429D01*
X30276016Y101456429D02*
X30237312Y101363572D01*
X30237312Y101363572D02*
X30159902Y101301667D01*
X30159902Y101301667D02*
X30082492Y101270714D01*
X30082492Y101270714D02*
X29927673Y101239762D01*
X29927673Y101239762D02*
X29811559Y101239762D01*
X29811559Y101239762D02*
X29656740Y101270714D01*
X29656740Y101270714D02*
X29579331Y101301667D01*
X29579331Y101301667D02*
X29501921Y101363572D01*
X29501921Y101363572D02*
X29463216Y101456429D01*
X29463216Y101456429D02*
X29463216Y101518333D01*
X29463216Y101518333D02*
X29501921Y101611191D01*
X29501921Y101611191D02*
X29540626Y101642143D01*
X30276016Y102261191D02*
X30276016Y101889762D01*
X30276016Y102075476D02*
X29463216Y102075476D01*
X29463216Y102075476D02*
X29579331Y102013572D01*
X29579331Y102013572D02*
X29656740Y101951667D01*
X29656740Y101951667D02*
X29695445Y101889762D01*
X29463216Y102477858D02*
X29463216Y102911191D01*
X29463216Y102911191D02*
X30276016Y102632620D01*
G04 #@! TO.C,R26*
X34826016Y101642143D02*
X34438969Y101425476D01*
X34826016Y101270714D02*
X34013216Y101270714D01*
X34013216Y101270714D02*
X34013216Y101518333D01*
X34013216Y101518333D02*
X34051921Y101580238D01*
X34051921Y101580238D02*
X34090626Y101611191D01*
X34090626Y101611191D02*
X34168035Y101642143D01*
X34168035Y101642143D02*
X34284150Y101642143D01*
X34284150Y101642143D02*
X34361559Y101611191D01*
X34361559Y101611191D02*
X34400264Y101580238D01*
X34400264Y101580238D02*
X34438969Y101518333D01*
X34438969Y101518333D02*
X34438969Y101270714D01*
X34090626Y101889762D02*
X34051921Y101920714D01*
X34051921Y101920714D02*
X34013216Y101982619D01*
X34013216Y101982619D02*
X34013216Y102137381D01*
X34013216Y102137381D02*
X34051921Y102199286D01*
X34051921Y102199286D02*
X34090626Y102230238D01*
X34090626Y102230238D02*
X34168035Y102261191D01*
X34168035Y102261191D02*
X34245445Y102261191D01*
X34245445Y102261191D02*
X34361559Y102230238D01*
X34361559Y102230238D02*
X34826016Y101858810D01*
X34826016Y101858810D02*
X34826016Y102261191D01*
X34013216Y102818334D02*
X34013216Y102694524D01*
X34013216Y102694524D02*
X34051921Y102632620D01*
X34051921Y102632620D02*
X34090626Y102601667D01*
X34090626Y102601667D02*
X34206740Y102539762D01*
X34206740Y102539762D02*
X34361559Y102508810D01*
X34361559Y102508810D02*
X34671197Y102508810D01*
X34671197Y102508810D02*
X34748607Y102539762D01*
X34748607Y102539762D02*
X34787312Y102570715D01*
X34787312Y102570715D02*
X34826016Y102632620D01*
X34826016Y102632620D02*
X34826016Y102756429D01*
X34826016Y102756429D02*
X34787312Y102818334D01*
X34787312Y102818334D02*
X34748607Y102849286D01*
X34748607Y102849286D02*
X34671197Y102880239D01*
X34671197Y102880239D02*
X34477673Y102880239D01*
X34477673Y102880239D02*
X34400264Y102849286D01*
X34400264Y102849286D02*
X34361559Y102818334D01*
X34361559Y102818334D02*
X34322854Y102756429D01*
X34322854Y102756429D02*
X34322854Y102632620D01*
X34322854Y102632620D02*
X34361559Y102570715D01*
X34361559Y102570715D02*
X34400264Y102539762D01*
X34400264Y102539762D02*
X34477673Y102508810D01*
G04 #@! TO.C,R2*
X52036016Y35961667D02*
X51648969Y35745000D01*
X52036016Y35590238D02*
X51223216Y35590238D01*
X51223216Y35590238D02*
X51223216Y35837857D01*
X51223216Y35837857D02*
X51261921Y35899762D01*
X51261921Y35899762D02*
X51300626Y35930715D01*
X51300626Y35930715D02*
X51378035Y35961667D01*
X51378035Y35961667D02*
X51494150Y35961667D01*
X51494150Y35961667D02*
X51571559Y35930715D01*
X51571559Y35930715D02*
X51610264Y35899762D01*
X51610264Y35899762D02*
X51648969Y35837857D01*
X51648969Y35837857D02*
X51648969Y35590238D01*
X51300626Y36209286D02*
X51261921Y36240238D01*
X51261921Y36240238D02*
X51223216Y36302143D01*
X51223216Y36302143D02*
X51223216Y36456905D01*
X51223216Y36456905D02*
X51261921Y36518810D01*
X51261921Y36518810D02*
X51300626Y36549762D01*
X51300626Y36549762D02*
X51378035Y36580715D01*
X51378035Y36580715D02*
X51455445Y36580715D01*
X51455445Y36580715D02*
X51571559Y36549762D01*
X51571559Y36549762D02*
X52036016Y36178334D01*
X52036016Y36178334D02*
X52036016Y36580715D01*
G04 #@! TO.C,R37*
X57602142Y54223984D02*
X57385475Y54611031D01*
X57230713Y54223984D02*
X57230713Y55036784D01*
X57230713Y55036784D02*
X57478332Y55036784D01*
X57478332Y55036784D02*
X57540237Y54998079D01*
X57540237Y54998079D02*
X57571190Y54959374D01*
X57571190Y54959374D02*
X57602142Y54881965D01*
X57602142Y54881965D02*
X57602142Y54765850D01*
X57602142Y54765850D02*
X57571190Y54688441D01*
X57571190Y54688441D02*
X57540237Y54649736D01*
X57540237Y54649736D02*
X57478332Y54611031D01*
X57478332Y54611031D02*
X57230713Y54611031D01*
X57818809Y55036784D02*
X58221190Y55036784D01*
X58221190Y55036784D02*
X58004523Y54727146D01*
X58004523Y54727146D02*
X58097380Y54727146D01*
X58097380Y54727146D02*
X58159285Y54688441D01*
X58159285Y54688441D02*
X58190237Y54649736D01*
X58190237Y54649736D02*
X58221190Y54572327D01*
X58221190Y54572327D02*
X58221190Y54378803D01*
X58221190Y54378803D02*
X58190237Y54301393D01*
X58190237Y54301393D02*
X58159285Y54262688D01*
X58159285Y54262688D02*
X58097380Y54223984D01*
X58097380Y54223984D02*
X57911666Y54223984D01*
X57911666Y54223984D02*
X57849761Y54262688D01*
X57849761Y54262688D02*
X57818809Y54301393D01*
X58437857Y55036784D02*
X58871190Y55036784D01*
X58871190Y55036784D02*
X58592619Y54223984D01*
G04 #@! TO.C,D2*
X33246016Y11590238D02*
X32433216Y11590238D01*
X32433216Y11590238D02*
X32433216Y11745000D01*
X32433216Y11745000D02*
X32471921Y11837857D01*
X32471921Y11837857D02*
X32549331Y11899762D01*
X32549331Y11899762D02*
X32626740Y11930715D01*
X32626740Y11930715D02*
X32781559Y11961667D01*
X32781559Y11961667D02*
X32897673Y11961667D01*
X32897673Y11961667D02*
X33052492Y11930715D01*
X33052492Y11930715D02*
X33129902Y11899762D01*
X33129902Y11899762D02*
X33207312Y11837857D01*
X33207312Y11837857D02*
X33246016Y11745000D01*
X33246016Y11745000D02*
X33246016Y11590238D01*
X32510626Y12209286D02*
X32471921Y12240238D01*
X32471921Y12240238D02*
X32433216Y12302143D01*
X32433216Y12302143D02*
X32433216Y12456905D01*
X32433216Y12456905D02*
X32471921Y12518810D01*
X32471921Y12518810D02*
X32510626Y12549762D01*
X32510626Y12549762D02*
X32588035Y12580715D01*
X32588035Y12580715D02*
X32665445Y12580715D01*
X32665445Y12580715D02*
X32781559Y12549762D01*
X32781559Y12549762D02*
X33246016Y12178334D01*
X33246016Y12178334D02*
X33246016Y12580715D01*
G04 #@! TO.C,R33*
X36376016Y21092143D02*
X35988969Y20875476D01*
X36376016Y20720714D02*
X35563216Y20720714D01*
X35563216Y20720714D02*
X35563216Y20968333D01*
X35563216Y20968333D02*
X35601921Y21030238D01*
X35601921Y21030238D02*
X35640626Y21061191D01*
X35640626Y21061191D02*
X35718035Y21092143D01*
X35718035Y21092143D02*
X35834150Y21092143D01*
X35834150Y21092143D02*
X35911559Y21061191D01*
X35911559Y21061191D02*
X35950264Y21030238D01*
X35950264Y21030238D02*
X35988969Y20968333D01*
X35988969Y20968333D02*
X35988969Y20720714D01*
X35563216Y21308810D02*
X35563216Y21711191D01*
X35563216Y21711191D02*
X35872854Y21494524D01*
X35872854Y21494524D02*
X35872854Y21587381D01*
X35872854Y21587381D02*
X35911559Y21649286D01*
X35911559Y21649286D02*
X35950264Y21680238D01*
X35950264Y21680238D02*
X36027673Y21711191D01*
X36027673Y21711191D02*
X36221197Y21711191D01*
X36221197Y21711191D02*
X36298607Y21680238D01*
X36298607Y21680238D02*
X36337312Y21649286D01*
X36337312Y21649286D02*
X36376016Y21587381D01*
X36376016Y21587381D02*
X36376016Y21401667D01*
X36376016Y21401667D02*
X36337312Y21339762D01*
X36337312Y21339762D02*
X36298607Y21308810D01*
X35563216Y21927858D02*
X35563216Y22330239D01*
X35563216Y22330239D02*
X35872854Y22113572D01*
X35872854Y22113572D02*
X35872854Y22206429D01*
X35872854Y22206429D02*
X35911559Y22268334D01*
X35911559Y22268334D02*
X35950264Y22299286D01*
X35950264Y22299286D02*
X36027673Y22330239D01*
X36027673Y22330239D02*
X36221197Y22330239D01*
X36221197Y22330239D02*
X36298607Y22299286D01*
X36298607Y22299286D02*
X36337312Y22268334D01*
X36337312Y22268334D02*
X36376016Y22206429D01*
X36376016Y22206429D02*
X36376016Y22020715D01*
X36376016Y22020715D02*
X36337312Y21958810D01*
X36337312Y21958810D02*
X36298607Y21927858D01*
D12*
G04 #@! TO.C,JC1*
X28798012Y28074420D02*
X28798012Y27493848D01*
X28798012Y27493848D02*
X28750393Y27377734D01*
X28750393Y27377734D02*
X28655155Y27300324D01*
X28655155Y27300324D02*
X28512298Y27261620D01*
X28512298Y27261620D02*
X28417060Y27261620D01*
X29845631Y27339029D02*
X29798012Y27300324D01*
X29798012Y27300324D02*
X29655155Y27261620D01*
X29655155Y27261620D02*
X29559917Y27261620D01*
X29559917Y27261620D02*
X29417060Y27300324D01*
X29417060Y27300324D02*
X29321822Y27377734D01*
X29321822Y27377734D02*
X29274203Y27455144D01*
X29274203Y27455144D02*
X29226584Y27609963D01*
X29226584Y27609963D02*
X29226584Y27726077D01*
X29226584Y27726077D02*
X29274203Y27880896D01*
X29274203Y27880896D02*
X29321822Y27958305D01*
X29321822Y27958305D02*
X29417060Y28035715D01*
X29417060Y28035715D02*
X29559917Y28074420D01*
X29559917Y28074420D02*
X29655155Y28074420D01*
X29655155Y28074420D02*
X29798012Y28035715D01*
X29798012Y28035715D02*
X29845631Y27997010D01*
X30798012Y27261620D02*
X30226584Y27261620D01*
X30512298Y27261620D02*
X30512298Y28074420D01*
X30512298Y28074420D02*
X30417060Y27958305D01*
X30417060Y27958305D02*
X30321822Y27880896D01*
X30321822Y27880896D02*
X30226584Y27842191D01*
D11*
G04 #@! TO.C,R16*
X70596016Y93672143D02*
X70208969Y93455476D01*
X70596016Y93300714D02*
X69783216Y93300714D01*
X69783216Y93300714D02*
X69783216Y93548333D01*
X69783216Y93548333D02*
X69821921Y93610238D01*
X69821921Y93610238D02*
X69860626Y93641191D01*
X69860626Y93641191D02*
X69938035Y93672143D01*
X69938035Y93672143D02*
X70054150Y93672143D01*
X70054150Y93672143D02*
X70131559Y93641191D01*
X70131559Y93641191D02*
X70170264Y93610238D01*
X70170264Y93610238D02*
X70208969Y93548333D01*
X70208969Y93548333D02*
X70208969Y93300714D01*
X70596016Y94291191D02*
X70596016Y93919762D01*
X70596016Y94105476D02*
X69783216Y94105476D01*
X69783216Y94105476D02*
X69899331Y94043572D01*
X69899331Y94043572D02*
X69976740Y93981667D01*
X69976740Y93981667D02*
X70015445Y93919762D01*
X69783216Y94848334D02*
X69783216Y94724524D01*
X69783216Y94724524D02*
X69821921Y94662620D01*
X69821921Y94662620D02*
X69860626Y94631667D01*
X69860626Y94631667D02*
X69976740Y94569762D01*
X69976740Y94569762D02*
X70131559Y94538810D01*
X70131559Y94538810D02*
X70441197Y94538810D01*
X70441197Y94538810D02*
X70518607Y94569762D01*
X70518607Y94569762D02*
X70557312Y94600715D01*
X70557312Y94600715D02*
X70596016Y94662620D01*
X70596016Y94662620D02*
X70596016Y94786429D01*
X70596016Y94786429D02*
X70557312Y94848334D01*
X70557312Y94848334D02*
X70518607Y94879286D01*
X70518607Y94879286D02*
X70441197Y94910239D01*
X70441197Y94910239D02*
X70247673Y94910239D01*
X70247673Y94910239D02*
X70170264Y94879286D01*
X70170264Y94879286D02*
X70131559Y94848334D01*
X70131559Y94848334D02*
X70092854Y94786429D01*
X70092854Y94786429D02*
X70092854Y94662620D01*
X70092854Y94662620D02*
X70131559Y94600715D01*
X70131559Y94600715D02*
X70170264Y94569762D01*
X70170264Y94569762D02*
X70247673Y94538810D01*
G04 #@! TO.C,C1*
X69361666Y72041393D02*
X69330714Y72002688D01*
X69330714Y72002688D02*
X69237856Y71963984D01*
X69237856Y71963984D02*
X69175952Y71963984D01*
X69175952Y71963984D02*
X69083095Y72002688D01*
X69083095Y72002688D02*
X69021190Y72080098D01*
X69021190Y72080098D02*
X68990237Y72157508D01*
X68990237Y72157508D02*
X68959285Y72312327D01*
X68959285Y72312327D02*
X68959285Y72428441D01*
X68959285Y72428441D02*
X68990237Y72583260D01*
X68990237Y72583260D02*
X69021190Y72660669D01*
X69021190Y72660669D02*
X69083095Y72738079D01*
X69083095Y72738079D02*
X69175952Y72776784D01*
X69175952Y72776784D02*
X69237856Y72776784D01*
X69237856Y72776784D02*
X69330714Y72738079D01*
X69330714Y72738079D02*
X69361666Y72699374D01*
X69980714Y71963984D02*
X69609285Y71963984D01*
X69794999Y71963984D02*
X69794999Y72776784D01*
X69794999Y72776784D02*
X69733095Y72660669D01*
X69733095Y72660669D02*
X69671190Y72583260D01*
X69671190Y72583260D02*
X69609285Y72544555D01*
D13*
G04 #@! TO.C,C4*
X48860667Y17201393D02*
X48812286Y17162688D01*
X48812286Y17162688D02*
X48667143Y17123984D01*
X48667143Y17123984D02*
X48570381Y17123984D01*
X48570381Y17123984D02*
X48425238Y17162688D01*
X48425238Y17162688D02*
X48328476Y17240098D01*
X48328476Y17240098D02*
X48280095Y17317508D01*
X48280095Y17317508D02*
X48231714Y17472327D01*
X48231714Y17472327D02*
X48231714Y17588441D01*
X48231714Y17588441D02*
X48280095Y17743260D01*
X48280095Y17743260D02*
X48328476Y17820669D01*
X48328476Y17820669D02*
X48425238Y17898079D01*
X48425238Y17898079D02*
X48570381Y17936784D01*
X48570381Y17936784D02*
X48667143Y17936784D01*
X48667143Y17936784D02*
X48812286Y17898079D01*
X48812286Y17898079D02*
X48860667Y17859374D01*
X49731524Y17665850D02*
X49731524Y17123984D01*
X49489619Y17975488D02*
X49247714Y17394917D01*
X49247714Y17394917D02*
X49876667Y17394917D01*
D11*
X44699048Y11723622D02*
X45460953Y11723622D01*
X45080000Y11413984D02*
X45080000Y12033260D01*
G04 #@! TO.C,R5*
X48856016Y36021667D02*
X48468969Y35805000D01*
X48856016Y35650238D02*
X48043216Y35650238D01*
X48043216Y35650238D02*
X48043216Y35897857D01*
X48043216Y35897857D02*
X48081921Y35959762D01*
X48081921Y35959762D02*
X48120626Y35990715D01*
X48120626Y35990715D02*
X48198035Y36021667D01*
X48198035Y36021667D02*
X48314150Y36021667D01*
X48314150Y36021667D02*
X48391559Y35990715D01*
X48391559Y35990715D02*
X48430264Y35959762D01*
X48430264Y35959762D02*
X48468969Y35897857D01*
X48468969Y35897857D02*
X48468969Y35650238D01*
X48043216Y36609762D02*
X48043216Y36300238D01*
X48043216Y36300238D02*
X48430264Y36269286D01*
X48430264Y36269286D02*
X48391559Y36300238D01*
X48391559Y36300238D02*
X48352854Y36362143D01*
X48352854Y36362143D02*
X48352854Y36516905D01*
X48352854Y36516905D02*
X48391559Y36578810D01*
X48391559Y36578810D02*
X48430264Y36609762D01*
X48430264Y36609762D02*
X48507673Y36640715D01*
X48507673Y36640715D02*
X48701197Y36640715D01*
X48701197Y36640715D02*
X48778607Y36609762D01*
X48778607Y36609762D02*
X48817312Y36578810D01*
X48817312Y36578810D02*
X48856016Y36516905D01*
X48856016Y36516905D02*
X48856016Y36362143D01*
X48856016Y36362143D02*
X48817312Y36300238D01*
X48817312Y36300238D02*
X48778607Y36269286D01*
G04 #@! TO.C,R14*
X16436016Y10412143D02*
X16048969Y10195476D01*
X16436016Y10040714D02*
X15623216Y10040714D01*
X15623216Y10040714D02*
X15623216Y10288333D01*
X15623216Y10288333D02*
X15661921Y10350238D01*
X15661921Y10350238D02*
X15700626Y10381191D01*
X15700626Y10381191D02*
X15778035Y10412143D01*
X15778035Y10412143D02*
X15894150Y10412143D01*
X15894150Y10412143D02*
X15971559Y10381191D01*
X15971559Y10381191D02*
X16010264Y10350238D01*
X16010264Y10350238D02*
X16048969Y10288333D01*
X16048969Y10288333D02*
X16048969Y10040714D01*
X16436016Y11031191D02*
X16436016Y10659762D01*
X16436016Y10845476D02*
X15623216Y10845476D01*
X15623216Y10845476D02*
X15739331Y10783572D01*
X15739331Y10783572D02*
X15816740Y10721667D01*
X15816740Y10721667D02*
X15855445Y10659762D01*
X15894150Y11588334D02*
X16436016Y11588334D01*
X15584512Y11433572D02*
X16165083Y11278810D01*
X16165083Y11278810D02*
X16165083Y11681191D01*
G04 #@! TO.C,R25*
X60946016Y100992143D02*
X60558969Y100775476D01*
X60946016Y100620714D02*
X60133216Y100620714D01*
X60133216Y100620714D02*
X60133216Y100868333D01*
X60133216Y100868333D02*
X60171921Y100930238D01*
X60171921Y100930238D02*
X60210626Y100961191D01*
X60210626Y100961191D02*
X60288035Y100992143D01*
X60288035Y100992143D02*
X60404150Y100992143D01*
X60404150Y100992143D02*
X60481559Y100961191D01*
X60481559Y100961191D02*
X60520264Y100930238D01*
X60520264Y100930238D02*
X60558969Y100868333D01*
X60558969Y100868333D02*
X60558969Y100620714D01*
X60210626Y101239762D02*
X60171921Y101270714D01*
X60171921Y101270714D02*
X60133216Y101332619D01*
X60133216Y101332619D02*
X60133216Y101487381D01*
X60133216Y101487381D02*
X60171921Y101549286D01*
X60171921Y101549286D02*
X60210626Y101580238D01*
X60210626Y101580238D02*
X60288035Y101611191D01*
X60288035Y101611191D02*
X60365445Y101611191D01*
X60365445Y101611191D02*
X60481559Y101580238D01*
X60481559Y101580238D02*
X60946016Y101208810D01*
X60946016Y101208810D02*
X60946016Y101611191D01*
X60133216Y102199286D02*
X60133216Y101889762D01*
X60133216Y101889762D02*
X60520264Y101858810D01*
X60520264Y101858810D02*
X60481559Y101889762D01*
X60481559Y101889762D02*
X60442854Y101951667D01*
X60442854Y101951667D02*
X60442854Y102106429D01*
X60442854Y102106429D02*
X60481559Y102168334D01*
X60481559Y102168334D02*
X60520264Y102199286D01*
X60520264Y102199286D02*
X60597673Y102230239D01*
X60597673Y102230239D02*
X60791197Y102230239D01*
X60791197Y102230239D02*
X60868607Y102199286D01*
X60868607Y102199286D02*
X60907312Y102168334D01*
X60907312Y102168334D02*
X60946016Y102106429D01*
X60946016Y102106429D02*
X60946016Y101951667D01*
X60946016Y101951667D02*
X60907312Y101889762D01*
X60907312Y101889762D02*
X60868607Y101858810D01*
G04 #@! TO.C,C15*
X11942142Y18791393D02*
X11911190Y18752688D01*
X11911190Y18752688D02*
X11818332Y18713984D01*
X11818332Y18713984D02*
X11756428Y18713984D01*
X11756428Y18713984D02*
X11663571Y18752688D01*
X11663571Y18752688D02*
X11601666Y18830098D01*
X11601666Y18830098D02*
X11570713Y18907508D01*
X11570713Y18907508D02*
X11539761Y19062327D01*
X11539761Y19062327D02*
X11539761Y19178441D01*
X11539761Y19178441D02*
X11570713Y19333260D01*
X11570713Y19333260D02*
X11601666Y19410669D01*
X11601666Y19410669D02*
X11663571Y19488079D01*
X11663571Y19488079D02*
X11756428Y19526784D01*
X11756428Y19526784D02*
X11818332Y19526784D01*
X11818332Y19526784D02*
X11911190Y19488079D01*
X11911190Y19488079D02*
X11942142Y19449374D01*
X12561190Y18713984D02*
X12189761Y18713984D01*
X12375475Y18713984D02*
X12375475Y19526784D01*
X12375475Y19526784D02*
X12313571Y19410669D01*
X12313571Y19410669D02*
X12251666Y19333260D01*
X12251666Y19333260D02*
X12189761Y19294555D01*
X13149285Y19526784D02*
X12839761Y19526784D01*
X12839761Y19526784D02*
X12808809Y19139736D01*
X12808809Y19139736D02*
X12839761Y19178441D01*
X12839761Y19178441D02*
X12901666Y19217146D01*
X12901666Y19217146D02*
X13056428Y19217146D01*
X13056428Y19217146D02*
X13118333Y19178441D01*
X13118333Y19178441D02*
X13149285Y19139736D01*
X13149285Y19139736D02*
X13180238Y19062327D01*
X13180238Y19062327D02*
X13180238Y18868803D01*
X13180238Y18868803D02*
X13149285Y18791393D01*
X13149285Y18791393D02*
X13118333Y18752688D01*
X13118333Y18752688D02*
X13056428Y18713984D01*
X13056428Y18713984D02*
X12901666Y18713984D01*
X12901666Y18713984D02*
X12839761Y18752688D01*
X12839761Y18752688D02*
X12808809Y18791393D01*
G04 #@! TO.C,C19*
X47482142Y74741393D02*
X47451190Y74702688D01*
X47451190Y74702688D02*
X47358332Y74663984D01*
X47358332Y74663984D02*
X47296428Y74663984D01*
X47296428Y74663984D02*
X47203571Y74702688D01*
X47203571Y74702688D02*
X47141666Y74780098D01*
X47141666Y74780098D02*
X47110713Y74857508D01*
X47110713Y74857508D02*
X47079761Y75012327D01*
X47079761Y75012327D02*
X47079761Y75128441D01*
X47079761Y75128441D02*
X47110713Y75283260D01*
X47110713Y75283260D02*
X47141666Y75360669D01*
X47141666Y75360669D02*
X47203571Y75438079D01*
X47203571Y75438079D02*
X47296428Y75476784D01*
X47296428Y75476784D02*
X47358332Y75476784D01*
X47358332Y75476784D02*
X47451190Y75438079D01*
X47451190Y75438079D02*
X47482142Y75399374D01*
X48101190Y74663984D02*
X47729761Y74663984D01*
X47915475Y74663984D02*
X47915475Y75476784D01*
X47915475Y75476784D02*
X47853571Y75360669D01*
X47853571Y75360669D02*
X47791666Y75283260D01*
X47791666Y75283260D02*
X47729761Y75244555D01*
X48410714Y74663984D02*
X48534523Y74663984D01*
X48534523Y74663984D02*
X48596428Y74702688D01*
X48596428Y74702688D02*
X48627380Y74741393D01*
X48627380Y74741393D02*
X48689285Y74857508D01*
X48689285Y74857508D02*
X48720238Y75012327D01*
X48720238Y75012327D02*
X48720238Y75321965D01*
X48720238Y75321965D02*
X48689285Y75399374D01*
X48689285Y75399374D02*
X48658333Y75438079D01*
X48658333Y75438079D02*
X48596428Y75476784D01*
X48596428Y75476784D02*
X48472619Y75476784D01*
X48472619Y75476784D02*
X48410714Y75438079D01*
X48410714Y75438079D02*
X48379761Y75399374D01*
X48379761Y75399374D02*
X48348809Y75321965D01*
X48348809Y75321965D02*
X48348809Y75128441D01*
X48348809Y75128441D02*
X48379761Y75051031D01*
X48379761Y75051031D02*
X48410714Y75012327D01*
X48410714Y75012327D02*
X48472619Y74973622D01*
X48472619Y74973622D02*
X48596428Y74973622D01*
X48596428Y74973622D02*
X48658333Y75012327D01*
X48658333Y75012327D02*
X48689285Y75051031D01*
X48689285Y75051031D02*
X48720238Y75128441D01*
G04 #@! TO.C,C20*
X45008607Y77202143D02*
X45047312Y77171191D01*
X45047312Y77171191D02*
X45086016Y77078333D01*
X45086016Y77078333D02*
X45086016Y77016429D01*
X45086016Y77016429D02*
X45047312Y76923572D01*
X45047312Y76923572D02*
X44969902Y76861667D01*
X44969902Y76861667D02*
X44892492Y76830714D01*
X44892492Y76830714D02*
X44737673Y76799762D01*
X44737673Y76799762D02*
X44621559Y76799762D01*
X44621559Y76799762D02*
X44466740Y76830714D01*
X44466740Y76830714D02*
X44389331Y76861667D01*
X44389331Y76861667D02*
X44311921Y76923572D01*
X44311921Y76923572D02*
X44273216Y77016429D01*
X44273216Y77016429D02*
X44273216Y77078333D01*
X44273216Y77078333D02*
X44311921Y77171191D01*
X44311921Y77171191D02*
X44350626Y77202143D01*
X44350626Y77449762D02*
X44311921Y77480714D01*
X44311921Y77480714D02*
X44273216Y77542619D01*
X44273216Y77542619D02*
X44273216Y77697381D01*
X44273216Y77697381D02*
X44311921Y77759286D01*
X44311921Y77759286D02*
X44350626Y77790238D01*
X44350626Y77790238D02*
X44428035Y77821191D01*
X44428035Y77821191D02*
X44505445Y77821191D01*
X44505445Y77821191D02*
X44621559Y77790238D01*
X44621559Y77790238D02*
X45086016Y77418810D01*
X45086016Y77418810D02*
X45086016Y77821191D01*
X44273216Y78223572D02*
X44273216Y78285477D01*
X44273216Y78285477D02*
X44311921Y78347381D01*
X44311921Y78347381D02*
X44350626Y78378334D01*
X44350626Y78378334D02*
X44428035Y78409286D01*
X44428035Y78409286D02*
X44582854Y78440239D01*
X44582854Y78440239D02*
X44776378Y78440239D01*
X44776378Y78440239D02*
X44931197Y78409286D01*
X44931197Y78409286D02*
X45008607Y78378334D01*
X45008607Y78378334D02*
X45047312Y78347381D01*
X45047312Y78347381D02*
X45086016Y78285477D01*
X45086016Y78285477D02*
X45086016Y78223572D01*
X45086016Y78223572D02*
X45047312Y78161667D01*
X45047312Y78161667D02*
X45008607Y78130715D01*
X45008607Y78130715D02*
X44931197Y78099762D01*
X44931197Y78099762D02*
X44776378Y78068810D01*
X44776378Y78068810D02*
X44582854Y78068810D01*
X44582854Y78068810D02*
X44428035Y78099762D01*
X44428035Y78099762D02*
X44350626Y78130715D01*
X44350626Y78130715D02*
X44311921Y78161667D01*
X44311921Y78161667D02*
X44273216Y78223572D01*
G04 #@! TO.C,D1*
X42786016Y17180238D02*
X41973216Y17180238D01*
X41973216Y17180238D02*
X41973216Y17335000D01*
X41973216Y17335000D02*
X42011921Y17427857D01*
X42011921Y17427857D02*
X42089331Y17489762D01*
X42089331Y17489762D02*
X42166740Y17520715D01*
X42166740Y17520715D02*
X42321559Y17551667D01*
X42321559Y17551667D02*
X42437673Y17551667D01*
X42437673Y17551667D02*
X42592492Y17520715D01*
X42592492Y17520715D02*
X42669902Y17489762D01*
X42669902Y17489762D02*
X42747312Y17427857D01*
X42747312Y17427857D02*
X42786016Y17335000D01*
X42786016Y17335000D02*
X42786016Y17180238D01*
X42786016Y18170715D02*
X42786016Y17799286D01*
X42786016Y17985000D02*
X41973216Y17985000D01*
X41973216Y17985000D02*
X42089331Y17923096D01*
X42089331Y17923096D02*
X42166740Y17861191D01*
X42166740Y17861191D02*
X42205445Y17799286D01*
G04 #@! TO.C,C13*
X67432142Y55801393D02*
X67401190Y55762688D01*
X67401190Y55762688D02*
X67308332Y55723984D01*
X67308332Y55723984D02*
X67246428Y55723984D01*
X67246428Y55723984D02*
X67153571Y55762688D01*
X67153571Y55762688D02*
X67091666Y55840098D01*
X67091666Y55840098D02*
X67060713Y55917508D01*
X67060713Y55917508D02*
X67029761Y56072327D01*
X67029761Y56072327D02*
X67029761Y56188441D01*
X67029761Y56188441D02*
X67060713Y56343260D01*
X67060713Y56343260D02*
X67091666Y56420669D01*
X67091666Y56420669D02*
X67153571Y56498079D01*
X67153571Y56498079D02*
X67246428Y56536784D01*
X67246428Y56536784D02*
X67308332Y56536784D01*
X67308332Y56536784D02*
X67401190Y56498079D01*
X67401190Y56498079D02*
X67432142Y56459374D01*
X68051190Y55723984D02*
X67679761Y55723984D01*
X67865475Y55723984D02*
X67865475Y56536784D01*
X67865475Y56536784D02*
X67803571Y56420669D01*
X67803571Y56420669D02*
X67741666Y56343260D01*
X67741666Y56343260D02*
X67679761Y56304555D01*
X68267857Y56536784D02*
X68670238Y56536784D01*
X68670238Y56536784D02*
X68453571Y56227146D01*
X68453571Y56227146D02*
X68546428Y56227146D01*
X68546428Y56227146D02*
X68608333Y56188441D01*
X68608333Y56188441D02*
X68639285Y56149736D01*
X68639285Y56149736D02*
X68670238Y56072327D01*
X68670238Y56072327D02*
X68670238Y55878803D01*
X68670238Y55878803D02*
X68639285Y55801393D01*
X68639285Y55801393D02*
X68608333Y55762688D01*
X68608333Y55762688D02*
X68546428Y55723984D01*
X68546428Y55723984D02*
X68360714Y55723984D01*
X68360714Y55723984D02*
X68298809Y55762688D01*
X68298809Y55762688D02*
X68267857Y55801393D01*
G04 #@! TO.C,R23*
X44942142Y100233984D02*
X44725475Y100621031D01*
X44570713Y100233984D02*
X44570713Y101046784D01*
X44570713Y101046784D02*
X44818332Y101046784D01*
X44818332Y101046784D02*
X44880237Y101008079D01*
X44880237Y101008079D02*
X44911190Y100969374D01*
X44911190Y100969374D02*
X44942142Y100891965D01*
X44942142Y100891965D02*
X44942142Y100775850D01*
X44942142Y100775850D02*
X44911190Y100698441D01*
X44911190Y100698441D02*
X44880237Y100659736D01*
X44880237Y100659736D02*
X44818332Y100621031D01*
X44818332Y100621031D02*
X44570713Y100621031D01*
X45189761Y100969374D02*
X45220713Y101008079D01*
X45220713Y101008079D02*
X45282618Y101046784D01*
X45282618Y101046784D02*
X45437380Y101046784D01*
X45437380Y101046784D02*
X45499285Y101008079D01*
X45499285Y101008079D02*
X45530237Y100969374D01*
X45530237Y100969374D02*
X45561190Y100891965D01*
X45561190Y100891965D02*
X45561190Y100814555D01*
X45561190Y100814555D02*
X45530237Y100698441D01*
X45530237Y100698441D02*
X45158809Y100233984D01*
X45158809Y100233984D02*
X45561190Y100233984D01*
X45777857Y101046784D02*
X46180238Y101046784D01*
X46180238Y101046784D02*
X45963571Y100737146D01*
X45963571Y100737146D02*
X46056428Y100737146D01*
X46056428Y100737146D02*
X46118333Y100698441D01*
X46118333Y100698441D02*
X46149285Y100659736D01*
X46149285Y100659736D02*
X46180238Y100582327D01*
X46180238Y100582327D02*
X46180238Y100388803D01*
X46180238Y100388803D02*
X46149285Y100311393D01*
X46149285Y100311393D02*
X46118333Y100272688D01*
X46118333Y100272688D02*
X46056428Y100233984D01*
X46056428Y100233984D02*
X45870714Y100233984D01*
X45870714Y100233984D02*
X45808809Y100272688D01*
X45808809Y100272688D02*
X45777857Y100311393D01*
G04 #@! TO.C,C9*
X30341666Y52521393D02*
X30310714Y52482688D01*
X30310714Y52482688D02*
X30217856Y52443984D01*
X30217856Y52443984D02*
X30155952Y52443984D01*
X30155952Y52443984D02*
X30063095Y52482688D01*
X30063095Y52482688D02*
X30001190Y52560098D01*
X30001190Y52560098D02*
X29970237Y52637508D01*
X29970237Y52637508D02*
X29939285Y52792327D01*
X29939285Y52792327D02*
X29939285Y52908441D01*
X29939285Y52908441D02*
X29970237Y53063260D01*
X29970237Y53063260D02*
X30001190Y53140669D01*
X30001190Y53140669D02*
X30063095Y53218079D01*
X30063095Y53218079D02*
X30155952Y53256784D01*
X30155952Y53256784D02*
X30217856Y53256784D01*
X30217856Y53256784D02*
X30310714Y53218079D01*
X30310714Y53218079D02*
X30341666Y53179374D01*
X30651190Y52443984D02*
X30774999Y52443984D01*
X30774999Y52443984D02*
X30836904Y52482688D01*
X30836904Y52482688D02*
X30867856Y52521393D01*
X30867856Y52521393D02*
X30929761Y52637508D01*
X30929761Y52637508D02*
X30960714Y52792327D01*
X30960714Y52792327D02*
X30960714Y53101965D01*
X30960714Y53101965D02*
X30929761Y53179374D01*
X30929761Y53179374D02*
X30898809Y53218079D01*
X30898809Y53218079D02*
X30836904Y53256784D01*
X30836904Y53256784D02*
X30713095Y53256784D01*
X30713095Y53256784D02*
X30651190Y53218079D01*
X30651190Y53218079D02*
X30620237Y53179374D01*
X30620237Y53179374D02*
X30589285Y53101965D01*
X30589285Y53101965D02*
X30589285Y52908441D01*
X30589285Y52908441D02*
X30620237Y52831031D01*
X30620237Y52831031D02*
X30651190Y52792327D01*
X30651190Y52792327D02*
X30713095Y52753622D01*
X30713095Y52753622D02*
X30836904Y52753622D01*
X30836904Y52753622D02*
X30898809Y52792327D01*
X30898809Y52792327D02*
X30929761Y52831031D01*
X30929761Y52831031D02*
X30960714Y52908441D01*
G04 #@! TO.C,R17*
X39080143Y19983984D02*
X38826143Y20371031D01*
X38644714Y19983984D02*
X38644714Y20796784D01*
X38644714Y20796784D02*
X38935000Y20796784D01*
X38935000Y20796784D02*
X39007571Y20758079D01*
X39007571Y20758079D02*
X39043857Y20719374D01*
X39043857Y20719374D02*
X39080143Y20641965D01*
X39080143Y20641965D02*
X39080143Y20525850D01*
X39080143Y20525850D02*
X39043857Y20448441D01*
X39043857Y20448441D02*
X39007571Y20409736D01*
X39007571Y20409736D02*
X38935000Y20371031D01*
X38935000Y20371031D02*
X38644714Y20371031D01*
X39805857Y19983984D02*
X39370428Y19983984D01*
X39588143Y19983984D02*
X39588143Y20796784D01*
X39588143Y20796784D02*
X39515571Y20680669D01*
X39515571Y20680669D02*
X39443000Y20603260D01*
X39443000Y20603260D02*
X39370428Y20564555D01*
X40059857Y20796784D02*
X40567857Y20796784D01*
X40567857Y20796784D02*
X40241285Y19983984D01*
G04 #@! TO.C,U1*
X65638095Y53341784D02*
X65638095Y52683803D01*
X65638095Y52683803D02*
X65685714Y52606393D01*
X65685714Y52606393D02*
X65733333Y52567688D01*
X65733333Y52567688D02*
X65828571Y52528984D01*
X65828571Y52528984D02*
X66019047Y52528984D01*
X66019047Y52528984D02*
X66114285Y52567688D01*
X66114285Y52567688D02*
X66161904Y52606393D01*
X66161904Y52606393D02*
X66209523Y52683803D01*
X66209523Y52683803D02*
X66209523Y53341784D01*
X67209523Y52528984D02*
X66638095Y52528984D01*
X66923809Y52528984D02*
X66923809Y53341784D01*
X66923809Y53341784D02*
X66828571Y53225669D01*
X66828571Y53225669D02*
X66733333Y53148260D01*
X66733333Y53148260D02*
X66638095Y53109555D01*
G04 #@! TO.C,R30*
X18872142Y82863984D02*
X18655475Y83251031D01*
X18500713Y82863984D02*
X18500713Y83676784D01*
X18500713Y83676784D02*
X18748332Y83676784D01*
X18748332Y83676784D02*
X18810237Y83638079D01*
X18810237Y83638079D02*
X18841190Y83599374D01*
X18841190Y83599374D02*
X18872142Y83521965D01*
X18872142Y83521965D02*
X18872142Y83405850D01*
X18872142Y83405850D02*
X18841190Y83328441D01*
X18841190Y83328441D02*
X18810237Y83289736D01*
X18810237Y83289736D02*
X18748332Y83251031D01*
X18748332Y83251031D02*
X18500713Y83251031D01*
X19088809Y83676784D02*
X19491190Y83676784D01*
X19491190Y83676784D02*
X19274523Y83367146D01*
X19274523Y83367146D02*
X19367380Y83367146D01*
X19367380Y83367146D02*
X19429285Y83328441D01*
X19429285Y83328441D02*
X19460237Y83289736D01*
X19460237Y83289736D02*
X19491190Y83212327D01*
X19491190Y83212327D02*
X19491190Y83018803D01*
X19491190Y83018803D02*
X19460237Y82941393D01*
X19460237Y82941393D02*
X19429285Y82902688D01*
X19429285Y82902688D02*
X19367380Y82863984D01*
X19367380Y82863984D02*
X19181666Y82863984D01*
X19181666Y82863984D02*
X19119761Y82902688D01*
X19119761Y82902688D02*
X19088809Y82941393D01*
X19893571Y83676784D02*
X19955476Y83676784D01*
X19955476Y83676784D02*
X20017380Y83638079D01*
X20017380Y83638079D02*
X20048333Y83599374D01*
X20048333Y83599374D02*
X20079285Y83521965D01*
X20079285Y83521965D02*
X20110238Y83367146D01*
X20110238Y83367146D02*
X20110238Y83173622D01*
X20110238Y83173622D02*
X20079285Y83018803D01*
X20079285Y83018803D02*
X20048333Y82941393D01*
X20048333Y82941393D02*
X20017380Y82902688D01*
X20017380Y82902688D02*
X19955476Y82863984D01*
X19955476Y82863984D02*
X19893571Y82863984D01*
X19893571Y82863984D02*
X19831666Y82902688D01*
X19831666Y82902688D02*
X19800714Y82941393D01*
X19800714Y82941393D02*
X19769761Y83018803D01*
X19769761Y83018803D02*
X19738809Y83173622D01*
X19738809Y83173622D02*
X19738809Y83367146D01*
X19738809Y83367146D02*
X19769761Y83521965D01*
X19769761Y83521965D02*
X19800714Y83599374D01*
X19800714Y83599374D02*
X19831666Y83638079D01*
X19831666Y83638079D02*
X19893571Y83676784D01*
G04 #@! TO.C,R21*
X9526016Y95012143D02*
X9138969Y94795476D01*
X9526016Y94640714D02*
X8713216Y94640714D01*
X8713216Y94640714D02*
X8713216Y94888333D01*
X8713216Y94888333D02*
X8751921Y94950238D01*
X8751921Y94950238D02*
X8790626Y94981191D01*
X8790626Y94981191D02*
X8868035Y95012143D01*
X8868035Y95012143D02*
X8984150Y95012143D01*
X8984150Y95012143D02*
X9061559Y94981191D01*
X9061559Y94981191D02*
X9100264Y94950238D01*
X9100264Y94950238D02*
X9138969Y94888333D01*
X9138969Y94888333D02*
X9138969Y94640714D01*
X8790626Y95259762D02*
X8751921Y95290714D01*
X8751921Y95290714D02*
X8713216Y95352619D01*
X8713216Y95352619D02*
X8713216Y95507381D01*
X8713216Y95507381D02*
X8751921Y95569286D01*
X8751921Y95569286D02*
X8790626Y95600238D01*
X8790626Y95600238D02*
X8868035Y95631191D01*
X8868035Y95631191D02*
X8945445Y95631191D01*
X8945445Y95631191D02*
X9061559Y95600238D01*
X9061559Y95600238D02*
X9526016Y95228810D01*
X9526016Y95228810D02*
X9526016Y95631191D01*
X9526016Y96250239D02*
X9526016Y95878810D01*
X9526016Y96064524D02*
X8713216Y96064524D01*
X8713216Y96064524D02*
X8829331Y96002620D01*
X8829331Y96002620D02*
X8906740Y95940715D01*
X8906740Y95940715D02*
X8945445Y95878810D01*
G04 #@! TO.C,R20*
X17610143Y25833984D02*
X17356143Y26221031D01*
X17174714Y25833984D02*
X17174714Y26646784D01*
X17174714Y26646784D02*
X17465000Y26646784D01*
X17465000Y26646784D02*
X17537571Y26608079D01*
X17537571Y26608079D02*
X17573857Y26569374D01*
X17573857Y26569374D02*
X17610143Y26491965D01*
X17610143Y26491965D02*
X17610143Y26375850D01*
X17610143Y26375850D02*
X17573857Y26298441D01*
X17573857Y26298441D02*
X17537571Y26259736D01*
X17537571Y26259736D02*
X17465000Y26221031D01*
X17465000Y26221031D02*
X17174714Y26221031D01*
X17900428Y26569374D02*
X17936714Y26608079D01*
X17936714Y26608079D02*
X18009286Y26646784D01*
X18009286Y26646784D02*
X18190714Y26646784D01*
X18190714Y26646784D02*
X18263286Y26608079D01*
X18263286Y26608079D02*
X18299571Y26569374D01*
X18299571Y26569374D02*
X18335857Y26491965D01*
X18335857Y26491965D02*
X18335857Y26414555D01*
X18335857Y26414555D02*
X18299571Y26298441D01*
X18299571Y26298441D02*
X17864143Y25833984D01*
X17864143Y25833984D02*
X18335857Y25833984D01*
X18807571Y26646784D02*
X18880142Y26646784D01*
X18880142Y26646784D02*
X18952714Y26608079D01*
X18952714Y26608079D02*
X18989000Y26569374D01*
X18989000Y26569374D02*
X19025285Y26491965D01*
X19025285Y26491965D02*
X19061571Y26337146D01*
X19061571Y26337146D02*
X19061571Y26143622D01*
X19061571Y26143622D02*
X19025285Y25988803D01*
X19025285Y25988803D02*
X18989000Y25911393D01*
X18989000Y25911393D02*
X18952714Y25872688D01*
X18952714Y25872688D02*
X18880142Y25833984D01*
X18880142Y25833984D02*
X18807571Y25833984D01*
X18807571Y25833984D02*
X18735000Y25872688D01*
X18735000Y25872688D02*
X18698714Y25911393D01*
X18698714Y25911393D02*
X18662428Y25988803D01*
X18662428Y25988803D02*
X18626142Y26143622D01*
X18626142Y26143622D02*
X18626142Y26337146D01*
X18626142Y26337146D02*
X18662428Y26491965D01*
X18662428Y26491965D02*
X18698714Y26569374D01*
X18698714Y26569374D02*
X18735000Y26608079D01*
X18735000Y26608079D02*
X18807571Y26646784D01*
D14*
G04 #@! TO.C,J14*
X32067923Y1523622D02*
X32687200Y1523622D01*
X33500000Y1213984D02*
X33035543Y1213984D01*
X33267771Y1213984D02*
X33267771Y2026784D01*
X33267771Y2026784D02*
X33190362Y1910669D01*
X33190362Y1910669D02*
X33112952Y1833260D01*
X33112952Y1833260D02*
X33035543Y1794555D01*
X33809638Y1949374D02*
X33848342Y1988079D01*
X33848342Y1988079D02*
X33925752Y2026784D01*
X33925752Y2026784D02*
X34119276Y2026784D01*
X34119276Y2026784D02*
X34196685Y1988079D01*
X34196685Y1988079D02*
X34235390Y1949374D01*
X34235390Y1949374D02*
X34274095Y1871965D01*
X34274095Y1871965D02*
X34274095Y1794555D01*
X34274095Y1794555D02*
X34235390Y1678441D01*
X34235390Y1678441D02*
X33770933Y1213984D01*
X33770933Y1213984D02*
X34274095Y1213984D01*
X34506323Y2026784D02*
X34777256Y1213984D01*
X34777256Y1213984D02*
X35048190Y2026784D01*
D11*
G04 #@! TO.C,R4*
X16686016Y32921667D02*
X16298969Y32705000D01*
X16686016Y32550238D02*
X15873216Y32550238D01*
X15873216Y32550238D02*
X15873216Y32797857D01*
X15873216Y32797857D02*
X15911921Y32859762D01*
X15911921Y32859762D02*
X15950626Y32890715D01*
X15950626Y32890715D02*
X16028035Y32921667D01*
X16028035Y32921667D02*
X16144150Y32921667D01*
X16144150Y32921667D02*
X16221559Y32890715D01*
X16221559Y32890715D02*
X16260264Y32859762D01*
X16260264Y32859762D02*
X16298969Y32797857D01*
X16298969Y32797857D02*
X16298969Y32550238D01*
X16144150Y33478810D02*
X16686016Y33478810D01*
X15834512Y33324048D02*
X16415083Y33169286D01*
X16415083Y33169286D02*
X16415083Y33571667D01*
G04 #@! TO.C,R28*
X18722142Y84773984D02*
X18505475Y85161031D01*
X18350713Y84773984D02*
X18350713Y85586784D01*
X18350713Y85586784D02*
X18598332Y85586784D01*
X18598332Y85586784D02*
X18660237Y85548079D01*
X18660237Y85548079D02*
X18691190Y85509374D01*
X18691190Y85509374D02*
X18722142Y85431965D01*
X18722142Y85431965D02*
X18722142Y85315850D01*
X18722142Y85315850D02*
X18691190Y85238441D01*
X18691190Y85238441D02*
X18660237Y85199736D01*
X18660237Y85199736D02*
X18598332Y85161031D01*
X18598332Y85161031D02*
X18350713Y85161031D01*
X18969761Y85509374D02*
X19000713Y85548079D01*
X19000713Y85548079D02*
X19062618Y85586784D01*
X19062618Y85586784D02*
X19217380Y85586784D01*
X19217380Y85586784D02*
X19279285Y85548079D01*
X19279285Y85548079D02*
X19310237Y85509374D01*
X19310237Y85509374D02*
X19341190Y85431965D01*
X19341190Y85431965D02*
X19341190Y85354555D01*
X19341190Y85354555D02*
X19310237Y85238441D01*
X19310237Y85238441D02*
X18938809Y84773984D01*
X18938809Y84773984D02*
X19341190Y84773984D01*
X19712619Y85238441D02*
X19650714Y85277146D01*
X19650714Y85277146D02*
X19619761Y85315850D01*
X19619761Y85315850D02*
X19588809Y85393260D01*
X19588809Y85393260D02*
X19588809Y85431965D01*
X19588809Y85431965D02*
X19619761Y85509374D01*
X19619761Y85509374D02*
X19650714Y85548079D01*
X19650714Y85548079D02*
X19712619Y85586784D01*
X19712619Y85586784D02*
X19836428Y85586784D01*
X19836428Y85586784D02*
X19898333Y85548079D01*
X19898333Y85548079D02*
X19929285Y85509374D01*
X19929285Y85509374D02*
X19960238Y85431965D01*
X19960238Y85431965D02*
X19960238Y85393260D01*
X19960238Y85393260D02*
X19929285Y85315850D01*
X19929285Y85315850D02*
X19898333Y85277146D01*
X19898333Y85277146D02*
X19836428Y85238441D01*
X19836428Y85238441D02*
X19712619Y85238441D01*
X19712619Y85238441D02*
X19650714Y85199736D01*
X19650714Y85199736D02*
X19619761Y85161031D01*
X19619761Y85161031D02*
X19588809Y85083622D01*
X19588809Y85083622D02*
X19588809Y84928803D01*
X19588809Y84928803D02*
X19619761Y84851393D01*
X19619761Y84851393D02*
X19650714Y84812688D01*
X19650714Y84812688D02*
X19712619Y84773984D01*
X19712619Y84773984D02*
X19836428Y84773984D01*
X19836428Y84773984D02*
X19898333Y84812688D01*
X19898333Y84812688D02*
X19929285Y84851393D01*
X19929285Y84851393D02*
X19960238Y84928803D01*
X19960238Y84928803D02*
X19960238Y85083622D01*
X19960238Y85083622D02*
X19929285Y85161031D01*
X19929285Y85161031D02*
X19898333Y85199736D01*
X19898333Y85199736D02*
X19836428Y85238441D01*
G04 #@! TO.C,R40*
X62752142Y93313984D02*
X62535475Y93701031D01*
X62380713Y93313984D02*
X62380713Y94126784D01*
X62380713Y94126784D02*
X62628332Y94126784D01*
X62628332Y94126784D02*
X62690237Y94088079D01*
X62690237Y94088079D02*
X62721190Y94049374D01*
X62721190Y94049374D02*
X62752142Y93971965D01*
X62752142Y93971965D02*
X62752142Y93855850D01*
X62752142Y93855850D02*
X62721190Y93778441D01*
X62721190Y93778441D02*
X62690237Y93739736D01*
X62690237Y93739736D02*
X62628332Y93701031D01*
X62628332Y93701031D02*
X62380713Y93701031D01*
X63309285Y93855850D02*
X63309285Y93313984D01*
X63154523Y94165488D02*
X62999761Y93584917D01*
X62999761Y93584917D02*
X63402142Y93584917D01*
X63773571Y94126784D02*
X63835476Y94126784D01*
X63835476Y94126784D02*
X63897380Y94088079D01*
X63897380Y94088079D02*
X63928333Y94049374D01*
X63928333Y94049374D02*
X63959285Y93971965D01*
X63959285Y93971965D02*
X63990238Y93817146D01*
X63990238Y93817146D02*
X63990238Y93623622D01*
X63990238Y93623622D02*
X63959285Y93468803D01*
X63959285Y93468803D02*
X63928333Y93391393D01*
X63928333Y93391393D02*
X63897380Y93352688D01*
X63897380Y93352688D02*
X63835476Y93313984D01*
X63835476Y93313984D02*
X63773571Y93313984D01*
X63773571Y93313984D02*
X63711666Y93352688D01*
X63711666Y93352688D02*
X63680714Y93391393D01*
X63680714Y93391393D02*
X63649761Y93468803D01*
X63649761Y93468803D02*
X63618809Y93623622D01*
X63618809Y93623622D02*
X63618809Y93817146D01*
X63618809Y93817146D02*
X63649761Y93971965D01*
X63649761Y93971965D02*
X63680714Y94049374D01*
X63680714Y94049374D02*
X63711666Y94088079D01*
X63711666Y94088079D02*
X63773571Y94126784D01*
G04 #@! TO.C,R1*
X72206016Y49001667D02*
X71818969Y48785000D01*
X72206016Y48630238D02*
X71393216Y48630238D01*
X71393216Y48630238D02*
X71393216Y48877857D01*
X71393216Y48877857D02*
X71431921Y48939762D01*
X71431921Y48939762D02*
X71470626Y48970715D01*
X71470626Y48970715D02*
X71548035Y49001667D01*
X71548035Y49001667D02*
X71664150Y49001667D01*
X71664150Y49001667D02*
X71741559Y48970715D01*
X71741559Y48970715D02*
X71780264Y48939762D01*
X71780264Y48939762D02*
X71818969Y48877857D01*
X71818969Y48877857D02*
X71818969Y48630238D01*
X72206016Y49620715D02*
X72206016Y49249286D01*
X72206016Y49435000D02*
X71393216Y49435000D01*
X71393216Y49435000D02*
X71509331Y49373096D01*
X71509331Y49373096D02*
X71586740Y49311191D01*
X71586740Y49311191D02*
X71625445Y49249286D01*
G04 #@! TO.C,R41*
X9536016Y91602143D02*
X9148969Y91385476D01*
X9536016Y91230714D02*
X8723216Y91230714D01*
X8723216Y91230714D02*
X8723216Y91478333D01*
X8723216Y91478333D02*
X8761921Y91540238D01*
X8761921Y91540238D02*
X8800626Y91571191D01*
X8800626Y91571191D02*
X8878035Y91602143D01*
X8878035Y91602143D02*
X8994150Y91602143D01*
X8994150Y91602143D02*
X9071559Y91571191D01*
X9071559Y91571191D02*
X9110264Y91540238D01*
X9110264Y91540238D02*
X9148969Y91478333D01*
X9148969Y91478333D02*
X9148969Y91230714D01*
X8994150Y92159286D02*
X9536016Y92159286D01*
X8684512Y92004524D02*
X9265083Y91849762D01*
X9265083Y91849762D02*
X9265083Y92252143D01*
X9536016Y92840239D02*
X9536016Y92468810D01*
X9536016Y92654524D02*
X8723216Y92654524D01*
X8723216Y92654524D02*
X8839331Y92592620D01*
X8839331Y92592620D02*
X8916740Y92530715D01*
X8916740Y92530715D02*
X8955445Y92468810D01*
G04 #@! TO.C,R12*
X19252142Y16663984D02*
X19035475Y17051031D01*
X18880713Y16663984D02*
X18880713Y17476784D01*
X18880713Y17476784D02*
X19128332Y17476784D01*
X19128332Y17476784D02*
X19190237Y17438079D01*
X19190237Y17438079D02*
X19221190Y17399374D01*
X19221190Y17399374D02*
X19252142Y17321965D01*
X19252142Y17321965D02*
X19252142Y17205850D01*
X19252142Y17205850D02*
X19221190Y17128441D01*
X19221190Y17128441D02*
X19190237Y17089736D01*
X19190237Y17089736D02*
X19128332Y17051031D01*
X19128332Y17051031D02*
X18880713Y17051031D01*
X19871190Y16663984D02*
X19499761Y16663984D01*
X19685475Y16663984D02*
X19685475Y17476784D01*
X19685475Y17476784D02*
X19623571Y17360669D01*
X19623571Y17360669D02*
X19561666Y17283260D01*
X19561666Y17283260D02*
X19499761Y17244555D01*
X20118809Y17399374D02*
X20149761Y17438079D01*
X20149761Y17438079D02*
X20211666Y17476784D01*
X20211666Y17476784D02*
X20366428Y17476784D01*
X20366428Y17476784D02*
X20428333Y17438079D01*
X20428333Y17438079D02*
X20459285Y17399374D01*
X20459285Y17399374D02*
X20490238Y17321965D01*
X20490238Y17321965D02*
X20490238Y17244555D01*
X20490238Y17244555D02*
X20459285Y17128441D01*
X20459285Y17128441D02*
X20087857Y16663984D01*
X20087857Y16663984D02*
X20490238Y16663984D01*
G04 #@! TO.C,C8*
X30001666Y10301393D02*
X29970714Y10262688D01*
X29970714Y10262688D02*
X29877856Y10223984D01*
X29877856Y10223984D02*
X29815952Y10223984D01*
X29815952Y10223984D02*
X29723095Y10262688D01*
X29723095Y10262688D02*
X29661190Y10340098D01*
X29661190Y10340098D02*
X29630237Y10417508D01*
X29630237Y10417508D02*
X29599285Y10572327D01*
X29599285Y10572327D02*
X29599285Y10688441D01*
X29599285Y10688441D02*
X29630237Y10843260D01*
X29630237Y10843260D02*
X29661190Y10920669D01*
X29661190Y10920669D02*
X29723095Y10998079D01*
X29723095Y10998079D02*
X29815952Y11036784D01*
X29815952Y11036784D02*
X29877856Y11036784D01*
X29877856Y11036784D02*
X29970714Y10998079D01*
X29970714Y10998079D02*
X30001666Y10959374D01*
X30373095Y10688441D02*
X30311190Y10727146D01*
X30311190Y10727146D02*
X30280237Y10765850D01*
X30280237Y10765850D02*
X30249285Y10843260D01*
X30249285Y10843260D02*
X30249285Y10881965D01*
X30249285Y10881965D02*
X30280237Y10959374D01*
X30280237Y10959374D02*
X30311190Y10998079D01*
X30311190Y10998079D02*
X30373095Y11036784D01*
X30373095Y11036784D02*
X30496904Y11036784D01*
X30496904Y11036784D02*
X30558809Y10998079D01*
X30558809Y10998079D02*
X30589761Y10959374D01*
X30589761Y10959374D02*
X30620714Y10881965D01*
X30620714Y10881965D02*
X30620714Y10843260D01*
X30620714Y10843260D02*
X30589761Y10765850D01*
X30589761Y10765850D02*
X30558809Y10727146D01*
X30558809Y10727146D02*
X30496904Y10688441D01*
X30496904Y10688441D02*
X30373095Y10688441D01*
X30373095Y10688441D02*
X30311190Y10649736D01*
X30311190Y10649736D02*
X30280237Y10611031D01*
X30280237Y10611031D02*
X30249285Y10533622D01*
X30249285Y10533622D02*
X30249285Y10378803D01*
X30249285Y10378803D02*
X30280237Y10301393D01*
X30280237Y10301393D02*
X30311190Y10262688D01*
X30311190Y10262688D02*
X30373095Y10223984D01*
X30373095Y10223984D02*
X30496904Y10223984D01*
X30496904Y10223984D02*
X30558809Y10262688D01*
X30558809Y10262688D02*
X30589761Y10301393D01*
X30589761Y10301393D02*
X30620714Y10378803D01*
X30620714Y10378803D02*
X30620714Y10533622D01*
X30620714Y10533622D02*
X30589761Y10611031D01*
X30589761Y10611031D02*
X30558809Y10649736D01*
X30558809Y10649736D02*
X30496904Y10688441D01*
G04 #@! TO.C,R27*
X20856016Y101732143D02*
X20468969Y101515476D01*
X20856016Y101360714D02*
X20043216Y101360714D01*
X20043216Y101360714D02*
X20043216Y101608333D01*
X20043216Y101608333D02*
X20081921Y101670238D01*
X20081921Y101670238D02*
X20120626Y101701191D01*
X20120626Y101701191D02*
X20198035Y101732143D01*
X20198035Y101732143D02*
X20314150Y101732143D01*
X20314150Y101732143D02*
X20391559Y101701191D01*
X20391559Y101701191D02*
X20430264Y101670238D01*
X20430264Y101670238D02*
X20468969Y101608333D01*
X20468969Y101608333D02*
X20468969Y101360714D01*
X20120626Y101979762D02*
X20081921Y102010714D01*
X20081921Y102010714D02*
X20043216Y102072619D01*
X20043216Y102072619D02*
X20043216Y102227381D01*
X20043216Y102227381D02*
X20081921Y102289286D01*
X20081921Y102289286D02*
X20120626Y102320238D01*
X20120626Y102320238D02*
X20198035Y102351191D01*
X20198035Y102351191D02*
X20275445Y102351191D01*
X20275445Y102351191D02*
X20391559Y102320238D01*
X20391559Y102320238D02*
X20856016Y101948810D01*
X20856016Y101948810D02*
X20856016Y102351191D01*
X20043216Y102567858D02*
X20043216Y103001191D01*
X20043216Y103001191D02*
X20856016Y102722620D01*
G04 #@! TO.C,C6*
X62081666Y45431393D02*
X62050714Y45392688D01*
X62050714Y45392688D02*
X61957856Y45353984D01*
X61957856Y45353984D02*
X61895952Y45353984D01*
X61895952Y45353984D02*
X61803095Y45392688D01*
X61803095Y45392688D02*
X61741190Y45470098D01*
X61741190Y45470098D02*
X61710237Y45547508D01*
X61710237Y45547508D02*
X61679285Y45702327D01*
X61679285Y45702327D02*
X61679285Y45818441D01*
X61679285Y45818441D02*
X61710237Y45973260D01*
X61710237Y45973260D02*
X61741190Y46050669D01*
X61741190Y46050669D02*
X61803095Y46128079D01*
X61803095Y46128079D02*
X61895952Y46166784D01*
X61895952Y46166784D02*
X61957856Y46166784D01*
X61957856Y46166784D02*
X62050714Y46128079D01*
X62050714Y46128079D02*
X62081666Y46089374D01*
X62638809Y46166784D02*
X62514999Y46166784D01*
X62514999Y46166784D02*
X62453095Y46128079D01*
X62453095Y46128079D02*
X62422142Y46089374D01*
X62422142Y46089374D02*
X62360237Y45973260D01*
X62360237Y45973260D02*
X62329285Y45818441D01*
X62329285Y45818441D02*
X62329285Y45508803D01*
X62329285Y45508803D02*
X62360237Y45431393D01*
X62360237Y45431393D02*
X62391190Y45392688D01*
X62391190Y45392688D02*
X62453095Y45353984D01*
X62453095Y45353984D02*
X62576904Y45353984D01*
X62576904Y45353984D02*
X62638809Y45392688D01*
X62638809Y45392688D02*
X62669761Y45431393D01*
X62669761Y45431393D02*
X62700714Y45508803D01*
X62700714Y45508803D02*
X62700714Y45702327D01*
X62700714Y45702327D02*
X62669761Y45779736D01*
X62669761Y45779736D02*
X62638809Y45818441D01*
X62638809Y45818441D02*
X62576904Y45857146D01*
X62576904Y45857146D02*
X62453095Y45857146D01*
X62453095Y45857146D02*
X62391190Y45818441D01*
X62391190Y45818441D02*
X62360237Y45779736D01*
X62360237Y45779736D02*
X62329285Y45702327D01*
G04 #@! TO.C,R6*
X28371666Y37953984D02*
X28154999Y38341031D01*
X28000237Y37953984D02*
X28000237Y38766784D01*
X28000237Y38766784D02*
X28247856Y38766784D01*
X28247856Y38766784D02*
X28309761Y38728079D01*
X28309761Y38728079D02*
X28340714Y38689374D01*
X28340714Y38689374D02*
X28371666Y38611965D01*
X28371666Y38611965D02*
X28371666Y38495850D01*
X28371666Y38495850D02*
X28340714Y38418441D01*
X28340714Y38418441D02*
X28309761Y38379736D01*
X28309761Y38379736D02*
X28247856Y38341031D01*
X28247856Y38341031D02*
X28000237Y38341031D01*
X28928809Y38766784D02*
X28804999Y38766784D01*
X28804999Y38766784D02*
X28743095Y38728079D01*
X28743095Y38728079D02*
X28712142Y38689374D01*
X28712142Y38689374D02*
X28650237Y38573260D01*
X28650237Y38573260D02*
X28619285Y38418441D01*
X28619285Y38418441D02*
X28619285Y38108803D01*
X28619285Y38108803D02*
X28650237Y38031393D01*
X28650237Y38031393D02*
X28681190Y37992688D01*
X28681190Y37992688D02*
X28743095Y37953984D01*
X28743095Y37953984D02*
X28866904Y37953984D01*
X28866904Y37953984D02*
X28928809Y37992688D01*
X28928809Y37992688D02*
X28959761Y38031393D01*
X28959761Y38031393D02*
X28990714Y38108803D01*
X28990714Y38108803D02*
X28990714Y38302327D01*
X28990714Y38302327D02*
X28959761Y38379736D01*
X28959761Y38379736D02*
X28928809Y38418441D01*
X28928809Y38418441D02*
X28866904Y38457146D01*
X28866904Y38457146D02*
X28743095Y38457146D01*
X28743095Y38457146D02*
X28681190Y38418441D01*
X28681190Y38418441D02*
X28650237Y38379736D01*
X28650237Y38379736D02*
X28619285Y38302327D01*
G04 #@! TO.C,R9*
X59856016Y49741667D02*
X59468969Y49525000D01*
X59856016Y49370238D02*
X59043216Y49370238D01*
X59043216Y49370238D02*
X59043216Y49617857D01*
X59043216Y49617857D02*
X59081921Y49679762D01*
X59081921Y49679762D02*
X59120626Y49710715D01*
X59120626Y49710715D02*
X59198035Y49741667D01*
X59198035Y49741667D02*
X59314150Y49741667D01*
X59314150Y49741667D02*
X59391559Y49710715D01*
X59391559Y49710715D02*
X59430264Y49679762D01*
X59430264Y49679762D02*
X59468969Y49617857D01*
X59468969Y49617857D02*
X59468969Y49370238D01*
X59856016Y50051191D02*
X59856016Y50175000D01*
X59856016Y50175000D02*
X59817312Y50236905D01*
X59817312Y50236905D02*
X59778607Y50267857D01*
X59778607Y50267857D02*
X59662492Y50329762D01*
X59662492Y50329762D02*
X59507673Y50360715D01*
X59507673Y50360715D02*
X59198035Y50360715D01*
X59198035Y50360715D02*
X59120626Y50329762D01*
X59120626Y50329762D02*
X59081921Y50298810D01*
X59081921Y50298810D02*
X59043216Y50236905D01*
X59043216Y50236905D02*
X59043216Y50113096D01*
X59043216Y50113096D02*
X59081921Y50051191D01*
X59081921Y50051191D02*
X59120626Y50020238D01*
X59120626Y50020238D02*
X59198035Y49989286D01*
X59198035Y49989286D02*
X59391559Y49989286D01*
X59391559Y49989286D02*
X59468969Y50020238D01*
X59468969Y50020238D02*
X59507673Y50051191D01*
X59507673Y50051191D02*
X59546378Y50113096D01*
X59546378Y50113096D02*
X59546378Y50236905D01*
X59546378Y50236905D02*
X59507673Y50298810D01*
X59507673Y50298810D02*
X59468969Y50329762D01*
X59468969Y50329762D02*
X59391559Y50360715D01*
G04 #@! TO.C,R32*
X18982142Y80593984D02*
X18765475Y80981031D01*
X18610713Y80593984D02*
X18610713Y81406784D01*
X18610713Y81406784D02*
X18858332Y81406784D01*
X18858332Y81406784D02*
X18920237Y81368079D01*
X18920237Y81368079D02*
X18951190Y81329374D01*
X18951190Y81329374D02*
X18982142Y81251965D01*
X18982142Y81251965D02*
X18982142Y81135850D01*
X18982142Y81135850D02*
X18951190Y81058441D01*
X18951190Y81058441D02*
X18920237Y81019736D01*
X18920237Y81019736D02*
X18858332Y80981031D01*
X18858332Y80981031D02*
X18610713Y80981031D01*
X19198809Y81406784D02*
X19601190Y81406784D01*
X19601190Y81406784D02*
X19384523Y81097146D01*
X19384523Y81097146D02*
X19477380Y81097146D01*
X19477380Y81097146D02*
X19539285Y81058441D01*
X19539285Y81058441D02*
X19570237Y81019736D01*
X19570237Y81019736D02*
X19601190Y80942327D01*
X19601190Y80942327D02*
X19601190Y80748803D01*
X19601190Y80748803D02*
X19570237Y80671393D01*
X19570237Y80671393D02*
X19539285Y80632688D01*
X19539285Y80632688D02*
X19477380Y80593984D01*
X19477380Y80593984D02*
X19291666Y80593984D01*
X19291666Y80593984D02*
X19229761Y80632688D01*
X19229761Y80632688D02*
X19198809Y80671393D01*
X19848809Y81329374D02*
X19879761Y81368079D01*
X19879761Y81368079D02*
X19941666Y81406784D01*
X19941666Y81406784D02*
X20096428Y81406784D01*
X20096428Y81406784D02*
X20158333Y81368079D01*
X20158333Y81368079D02*
X20189285Y81329374D01*
X20189285Y81329374D02*
X20220238Y81251965D01*
X20220238Y81251965D02*
X20220238Y81174555D01*
X20220238Y81174555D02*
X20189285Y81058441D01*
X20189285Y81058441D02*
X19817857Y80593984D01*
X19817857Y80593984D02*
X20220238Y80593984D01*
G04 #@! TO.C,C2*
X13511666Y72291393D02*
X13480714Y72252688D01*
X13480714Y72252688D02*
X13387856Y72213984D01*
X13387856Y72213984D02*
X13325952Y72213984D01*
X13325952Y72213984D02*
X13233095Y72252688D01*
X13233095Y72252688D02*
X13171190Y72330098D01*
X13171190Y72330098D02*
X13140237Y72407508D01*
X13140237Y72407508D02*
X13109285Y72562327D01*
X13109285Y72562327D02*
X13109285Y72678441D01*
X13109285Y72678441D02*
X13140237Y72833260D01*
X13140237Y72833260D02*
X13171190Y72910669D01*
X13171190Y72910669D02*
X13233095Y72988079D01*
X13233095Y72988079D02*
X13325952Y73026784D01*
X13325952Y73026784D02*
X13387856Y73026784D01*
X13387856Y73026784D02*
X13480714Y72988079D01*
X13480714Y72988079D02*
X13511666Y72949374D01*
X13759285Y72949374D02*
X13790237Y72988079D01*
X13790237Y72988079D02*
X13852142Y73026784D01*
X13852142Y73026784D02*
X14006904Y73026784D01*
X14006904Y73026784D02*
X14068809Y72988079D01*
X14068809Y72988079D02*
X14099761Y72949374D01*
X14099761Y72949374D02*
X14130714Y72871965D01*
X14130714Y72871965D02*
X14130714Y72794555D01*
X14130714Y72794555D02*
X14099761Y72678441D01*
X14099761Y72678441D02*
X13728333Y72213984D01*
X13728333Y72213984D02*
X14130714Y72213984D01*
G04 #@! TO.C,R13*
X12952142Y10103984D02*
X12735475Y10491031D01*
X12580713Y10103984D02*
X12580713Y10916784D01*
X12580713Y10916784D02*
X12828332Y10916784D01*
X12828332Y10916784D02*
X12890237Y10878079D01*
X12890237Y10878079D02*
X12921190Y10839374D01*
X12921190Y10839374D02*
X12952142Y10761965D01*
X12952142Y10761965D02*
X12952142Y10645850D01*
X12952142Y10645850D02*
X12921190Y10568441D01*
X12921190Y10568441D02*
X12890237Y10529736D01*
X12890237Y10529736D02*
X12828332Y10491031D01*
X12828332Y10491031D02*
X12580713Y10491031D01*
X13571190Y10103984D02*
X13199761Y10103984D01*
X13385475Y10103984D02*
X13385475Y10916784D01*
X13385475Y10916784D02*
X13323571Y10800669D01*
X13323571Y10800669D02*
X13261666Y10723260D01*
X13261666Y10723260D02*
X13199761Y10684555D01*
X13787857Y10916784D02*
X14190238Y10916784D01*
X14190238Y10916784D02*
X13973571Y10607146D01*
X13973571Y10607146D02*
X14066428Y10607146D01*
X14066428Y10607146D02*
X14128333Y10568441D01*
X14128333Y10568441D02*
X14159285Y10529736D01*
X14159285Y10529736D02*
X14190238Y10452327D01*
X14190238Y10452327D02*
X14190238Y10258803D01*
X14190238Y10258803D02*
X14159285Y10181393D01*
X14159285Y10181393D02*
X14128333Y10142688D01*
X14128333Y10142688D02*
X14066428Y10103984D01*
X14066428Y10103984D02*
X13880714Y10103984D01*
X13880714Y10103984D02*
X13818809Y10142688D01*
X13818809Y10142688D02*
X13787857Y10181393D01*
G04 #@! TO.C,R19*
X32062142Y95123984D02*
X31845475Y95511031D01*
X31690713Y95123984D02*
X31690713Y95936784D01*
X31690713Y95936784D02*
X31938332Y95936784D01*
X31938332Y95936784D02*
X32000237Y95898079D01*
X32000237Y95898079D02*
X32031190Y95859374D01*
X32031190Y95859374D02*
X32062142Y95781965D01*
X32062142Y95781965D02*
X32062142Y95665850D01*
X32062142Y95665850D02*
X32031190Y95588441D01*
X32031190Y95588441D02*
X32000237Y95549736D01*
X32000237Y95549736D02*
X31938332Y95511031D01*
X31938332Y95511031D02*
X31690713Y95511031D01*
X32681190Y95123984D02*
X32309761Y95123984D01*
X32495475Y95123984D02*
X32495475Y95936784D01*
X32495475Y95936784D02*
X32433571Y95820669D01*
X32433571Y95820669D02*
X32371666Y95743260D01*
X32371666Y95743260D02*
X32309761Y95704555D01*
X32990714Y95123984D02*
X33114523Y95123984D01*
X33114523Y95123984D02*
X33176428Y95162688D01*
X33176428Y95162688D02*
X33207380Y95201393D01*
X33207380Y95201393D02*
X33269285Y95317508D01*
X33269285Y95317508D02*
X33300238Y95472327D01*
X33300238Y95472327D02*
X33300238Y95781965D01*
X33300238Y95781965D02*
X33269285Y95859374D01*
X33269285Y95859374D02*
X33238333Y95898079D01*
X33238333Y95898079D02*
X33176428Y95936784D01*
X33176428Y95936784D02*
X33052619Y95936784D01*
X33052619Y95936784D02*
X32990714Y95898079D01*
X32990714Y95898079D02*
X32959761Y95859374D01*
X32959761Y95859374D02*
X32928809Y95781965D01*
X32928809Y95781965D02*
X32928809Y95588441D01*
X32928809Y95588441D02*
X32959761Y95511031D01*
X32959761Y95511031D02*
X32990714Y95472327D01*
X32990714Y95472327D02*
X33052619Y95433622D01*
X33052619Y95433622D02*
X33176428Y95433622D01*
X33176428Y95433622D02*
X33238333Y95472327D01*
X33238333Y95472327D02*
X33269285Y95511031D01*
X33269285Y95511031D02*
X33300238Y95588441D01*
D13*
G04 #@! TO.C,C5*
X29830667Y18891393D02*
X29782286Y18852688D01*
X29782286Y18852688D02*
X29637143Y18813984D01*
X29637143Y18813984D02*
X29540381Y18813984D01*
X29540381Y18813984D02*
X29395238Y18852688D01*
X29395238Y18852688D02*
X29298476Y18930098D01*
X29298476Y18930098D02*
X29250095Y19007508D01*
X29250095Y19007508D02*
X29201714Y19162327D01*
X29201714Y19162327D02*
X29201714Y19278441D01*
X29201714Y19278441D02*
X29250095Y19433260D01*
X29250095Y19433260D02*
X29298476Y19510669D01*
X29298476Y19510669D02*
X29395238Y19588079D01*
X29395238Y19588079D02*
X29540381Y19626784D01*
X29540381Y19626784D02*
X29637143Y19626784D01*
X29637143Y19626784D02*
X29782286Y19588079D01*
X29782286Y19588079D02*
X29830667Y19549374D01*
X30749905Y19626784D02*
X30266095Y19626784D01*
X30266095Y19626784D02*
X30217714Y19239736D01*
X30217714Y19239736D02*
X30266095Y19278441D01*
X30266095Y19278441D02*
X30362857Y19317146D01*
X30362857Y19317146D02*
X30604762Y19317146D01*
X30604762Y19317146D02*
X30701524Y19278441D01*
X30701524Y19278441D02*
X30749905Y19239736D01*
X30749905Y19239736D02*
X30798286Y19162327D01*
X30798286Y19162327D02*
X30798286Y18968803D01*
X30798286Y18968803D02*
X30749905Y18891393D01*
X30749905Y18891393D02*
X30701524Y18852688D01*
X30701524Y18852688D02*
X30604762Y18813984D01*
X30604762Y18813984D02*
X30362857Y18813984D01*
X30362857Y18813984D02*
X30266095Y18852688D01*
X30266095Y18852688D02*
X30217714Y18891393D01*
D11*
X25899048Y13493622D02*
X26660953Y13493622D01*
X26280000Y13183984D02*
X26280000Y13803260D01*
G04 #@! TO.C,C14*
X7132142Y10871393D02*
X7101190Y10832688D01*
X7101190Y10832688D02*
X7008332Y10793984D01*
X7008332Y10793984D02*
X6946428Y10793984D01*
X6946428Y10793984D02*
X6853571Y10832688D01*
X6853571Y10832688D02*
X6791666Y10910098D01*
X6791666Y10910098D02*
X6760713Y10987508D01*
X6760713Y10987508D02*
X6729761Y11142327D01*
X6729761Y11142327D02*
X6729761Y11258441D01*
X6729761Y11258441D02*
X6760713Y11413260D01*
X6760713Y11413260D02*
X6791666Y11490669D01*
X6791666Y11490669D02*
X6853571Y11568079D01*
X6853571Y11568079D02*
X6946428Y11606784D01*
X6946428Y11606784D02*
X7008332Y11606784D01*
X7008332Y11606784D02*
X7101190Y11568079D01*
X7101190Y11568079D02*
X7132142Y11529374D01*
X7751190Y10793984D02*
X7379761Y10793984D01*
X7565475Y10793984D02*
X7565475Y11606784D01*
X7565475Y11606784D02*
X7503571Y11490669D01*
X7503571Y11490669D02*
X7441666Y11413260D01*
X7441666Y11413260D02*
X7379761Y11374555D01*
X8308333Y11335850D02*
X8308333Y10793984D01*
X8153571Y11645488D02*
X7998809Y11064917D01*
X7998809Y11064917D02*
X8401190Y11064917D01*
G04 #@! TO.C,R34*
X38222142Y23153984D02*
X38005475Y23541031D01*
X37850713Y23153984D02*
X37850713Y23966784D01*
X37850713Y23966784D02*
X38098332Y23966784D01*
X38098332Y23966784D02*
X38160237Y23928079D01*
X38160237Y23928079D02*
X38191190Y23889374D01*
X38191190Y23889374D02*
X38222142Y23811965D01*
X38222142Y23811965D02*
X38222142Y23695850D01*
X38222142Y23695850D02*
X38191190Y23618441D01*
X38191190Y23618441D02*
X38160237Y23579736D01*
X38160237Y23579736D02*
X38098332Y23541031D01*
X38098332Y23541031D02*
X37850713Y23541031D01*
X38438809Y23966784D02*
X38841190Y23966784D01*
X38841190Y23966784D02*
X38624523Y23657146D01*
X38624523Y23657146D02*
X38717380Y23657146D01*
X38717380Y23657146D02*
X38779285Y23618441D01*
X38779285Y23618441D02*
X38810237Y23579736D01*
X38810237Y23579736D02*
X38841190Y23502327D01*
X38841190Y23502327D02*
X38841190Y23308803D01*
X38841190Y23308803D02*
X38810237Y23231393D01*
X38810237Y23231393D02*
X38779285Y23192688D01*
X38779285Y23192688D02*
X38717380Y23153984D01*
X38717380Y23153984D02*
X38531666Y23153984D01*
X38531666Y23153984D02*
X38469761Y23192688D01*
X38469761Y23192688D02*
X38438809Y23231393D01*
X39398333Y23695850D02*
X39398333Y23153984D01*
X39243571Y24005488D02*
X39088809Y23424917D01*
X39088809Y23424917D02*
X39491190Y23424917D01*
D12*
G04 #@! TO.C,JA1*
X57542095Y78965984D02*
X57542095Y78385412D01*
X57542095Y78385412D02*
X57494476Y78269298D01*
X57494476Y78269298D02*
X57399238Y78191888D01*
X57399238Y78191888D02*
X57256381Y78153184D01*
X57256381Y78153184D02*
X57161143Y78153184D01*
X57970667Y78385412D02*
X58446857Y78385412D01*
X57875429Y78153184D02*
X58208762Y78965984D01*
X58208762Y78965984D02*
X58542095Y78153184D01*
X59399238Y78153184D02*
X58827810Y78153184D01*
X59113524Y78153184D02*
X59113524Y78965984D01*
X59113524Y78965984D02*
X59018286Y78849869D01*
X59018286Y78849869D02*
X58923048Y78772460D01*
X58923048Y78772460D02*
X58827810Y78733755D01*
D11*
G04 #@! TO.C,R31*
X19042142Y78293984D02*
X18825475Y78681031D01*
X18670713Y78293984D02*
X18670713Y79106784D01*
X18670713Y79106784D02*
X18918332Y79106784D01*
X18918332Y79106784D02*
X18980237Y79068079D01*
X18980237Y79068079D02*
X19011190Y79029374D01*
X19011190Y79029374D02*
X19042142Y78951965D01*
X19042142Y78951965D02*
X19042142Y78835850D01*
X19042142Y78835850D02*
X19011190Y78758441D01*
X19011190Y78758441D02*
X18980237Y78719736D01*
X18980237Y78719736D02*
X18918332Y78681031D01*
X18918332Y78681031D02*
X18670713Y78681031D01*
X19258809Y79106784D02*
X19661190Y79106784D01*
X19661190Y79106784D02*
X19444523Y78797146D01*
X19444523Y78797146D02*
X19537380Y78797146D01*
X19537380Y78797146D02*
X19599285Y78758441D01*
X19599285Y78758441D02*
X19630237Y78719736D01*
X19630237Y78719736D02*
X19661190Y78642327D01*
X19661190Y78642327D02*
X19661190Y78448803D01*
X19661190Y78448803D02*
X19630237Y78371393D01*
X19630237Y78371393D02*
X19599285Y78332688D01*
X19599285Y78332688D02*
X19537380Y78293984D01*
X19537380Y78293984D02*
X19351666Y78293984D01*
X19351666Y78293984D02*
X19289761Y78332688D01*
X19289761Y78332688D02*
X19258809Y78371393D01*
X20280238Y78293984D02*
X19908809Y78293984D01*
X20094523Y78293984D02*
X20094523Y79106784D01*
X20094523Y79106784D02*
X20032619Y78990669D01*
X20032619Y78990669D02*
X19970714Y78913260D01*
X19970714Y78913260D02*
X19908809Y78874555D01*
G04 #@! TO.C,U2*
X10598095Y16171784D02*
X10598095Y15513803D01*
X10598095Y15513803D02*
X10645714Y15436393D01*
X10645714Y15436393D02*
X10693333Y15397688D01*
X10693333Y15397688D02*
X10788571Y15358984D01*
X10788571Y15358984D02*
X10979047Y15358984D01*
X10979047Y15358984D02*
X11074285Y15397688D01*
X11074285Y15397688D02*
X11121904Y15436393D01*
X11121904Y15436393D02*
X11169523Y15513803D01*
X11169523Y15513803D02*
X11169523Y16171784D01*
X11598095Y16094374D02*
X11645714Y16133079D01*
X11645714Y16133079D02*
X11740952Y16171784D01*
X11740952Y16171784D02*
X11979047Y16171784D01*
X11979047Y16171784D02*
X12074285Y16133079D01*
X12074285Y16133079D02*
X12121904Y16094374D01*
X12121904Y16094374D02*
X12169523Y16016965D01*
X12169523Y16016965D02*
X12169523Y15939555D01*
X12169523Y15939555D02*
X12121904Y15823441D01*
X12121904Y15823441D02*
X11550476Y15358984D01*
X11550476Y15358984D02*
X12169523Y15358984D01*
G04 #@! TO.C,R7*
X19496016Y31081667D02*
X19108969Y30865000D01*
X19496016Y30710238D02*
X18683216Y30710238D01*
X18683216Y30710238D02*
X18683216Y30957857D01*
X18683216Y30957857D02*
X18721921Y31019762D01*
X18721921Y31019762D02*
X18760626Y31050715D01*
X18760626Y31050715D02*
X18838035Y31081667D01*
X18838035Y31081667D02*
X18954150Y31081667D01*
X18954150Y31081667D02*
X19031559Y31050715D01*
X19031559Y31050715D02*
X19070264Y31019762D01*
X19070264Y31019762D02*
X19108969Y30957857D01*
X19108969Y30957857D02*
X19108969Y30710238D01*
X18683216Y31298334D02*
X18683216Y31731667D01*
X18683216Y31731667D02*
X19496016Y31453096D01*
G04 #@! TO.C,U3*
X49513216Y82626191D02*
X50171197Y82626191D01*
X50171197Y82626191D02*
X50248607Y82656429D01*
X50248607Y82656429D02*
X50287312Y82686667D01*
X50287312Y82686667D02*
X50326016Y82747143D01*
X50326016Y82747143D02*
X50326016Y82868096D01*
X50326016Y82868096D02*
X50287312Y82928572D01*
X50287312Y82928572D02*
X50248607Y82958810D01*
X50248607Y82958810D02*
X50171197Y82989048D01*
X50171197Y82989048D02*
X49513216Y82989048D01*
X49513216Y83230953D02*
X49513216Y83624048D01*
X49513216Y83624048D02*
X49822854Y83412381D01*
X49822854Y83412381D02*
X49822854Y83503096D01*
X49822854Y83503096D02*
X49861559Y83563572D01*
X49861559Y83563572D02*
X49900264Y83593810D01*
X49900264Y83593810D02*
X49977673Y83624048D01*
X49977673Y83624048D02*
X50171197Y83624048D01*
X50171197Y83624048D02*
X50248607Y83593810D01*
X50248607Y83593810D02*
X50287312Y83563572D01*
X50287312Y83563572D02*
X50326016Y83503096D01*
X50326016Y83503096D02*
X50326016Y83321667D01*
X50326016Y83321667D02*
X50287312Y83261191D01*
X50287312Y83261191D02*
X50248607Y83230953D01*
G04 #@! TO.C,C12*
X63602142Y55931393D02*
X63571190Y55892688D01*
X63571190Y55892688D02*
X63478332Y55853984D01*
X63478332Y55853984D02*
X63416428Y55853984D01*
X63416428Y55853984D02*
X63323571Y55892688D01*
X63323571Y55892688D02*
X63261666Y55970098D01*
X63261666Y55970098D02*
X63230713Y56047508D01*
X63230713Y56047508D02*
X63199761Y56202327D01*
X63199761Y56202327D02*
X63199761Y56318441D01*
X63199761Y56318441D02*
X63230713Y56473260D01*
X63230713Y56473260D02*
X63261666Y56550669D01*
X63261666Y56550669D02*
X63323571Y56628079D01*
X63323571Y56628079D02*
X63416428Y56666784D01*
X63416428Y56666784D02*
X63478332Y56666784D01*
X63478332Y56666784D02*
X63571190Y56628079D01*
X63571190Y56628079D02*
X63602142Y56589374D01*
X64221190Y55853984D02*
X63849761Y55853984D01*
X64035475Y55853984D02*
X64035475Y56666784D01*
X64035475Y56666784D02*
X63973571Y56550669D01*
X63973571Y56550669D02*
X63911666Y56473260D01*
X63911666Y56473260D02*
X63849761Y56434555D01*
X64468809Y56589374D02*
X64499761Y56628079D01*
X64499761Y56628079D02*
X64561666Y56666784D01*
X64561666Y56666784D02*
X64716428Y56666784D01*
X64716428Y56666784D02*
X64778333Y56628079D01*
X64778333Y56628079D02*
X64809285Y56589374D01*
X64809285Y56589374D02*
X64840238Y56511965D01*
X64840238Y56511965D02*
X64840238Y56434555D01*
X64840238Y56434555D02*
X64809285Y56318441D01*
X64809285Y56318441D02*
X64437857Y55853984D01*
X64437857Y55853984D02*
X64840238Y55853984D01*
G04 #@! TO.C,C16*
X58478607Y99352143D02*
X58517312Y99321191D01*
X58517312Y99321191D02*
X58556016Y99228333D01*
X58556016Y99228333D02*
X58556016Y99166429D01*
X58556016Y99166429D02*
X58517312Y99073572D01*
X58517312Y99073572D02*
X58439902Y99011667D01*
X58439902Y99011667D02*
X58362492Y98980714D01*
X58362492Y98980714D02*
X58207673Y98949762D01*
X58207673Y98949762D02*
X58091559Y98949762D01*
X58091559Y98949762D02*
X57936740Y98980714D01*
X57936740Y98980714D02*
X57859331Y99011667D01*
X57859331Y99011667D02*
X57781921Y99073572D01*
X57781921Y99073572D02*
X57743216Y99166429D01*
X57743216Y99166429D02*
X57743216Y99228333D01*
X57743216Y99228333D02*
X57781921Y99321191D01*
X57781921Y99321191D02*
X57820626Y99352143D01*
X58556016Y99971191D02*
X58556016Y99599762D01*
X58556016Y99785476D02*
X57743216Y99785476D01*
X57743216Y99785476D02*
X57859331Y99723572D01*
X57859331Y99723572D02*
X57936740Y99661667D01*
X57936740Y99661667D02*
X57975445Y99599762D01*
X57743216Y100528334D02*
X57743216Y100404524D01*
X57743216Y100404524D02*
X57781921Y100342620D01*
X57781921Y100342620D02*
X57820626Y100311667D01*
X57820626Y100311667D02*
X57936740Y100249762D01*
X57936740Y100249762D02*
X58091559Y100218810D01*
X58091559Y100218810D02*
X58401197Y100218810D01*
X58401197Y100218810D02*
X58478607Y100249762D01*
X58478607Y100249762D02*
X58517312Y100280715D01*
X58517312Y100280715D02*
X58556016Y100342620D01*
X58556016Y100342620D02*
X58556016Y100466429D01*
X58556016Y100466429D02*
X58517312Y100528334D01*
X58517312Y100528334D02*
X58478607Y100559286D01*
X58478607Y100559286D02*
X58401197Y100590239D01*
X58401197Y100590239D02*
X58207673Y100590239D01*
X58207673Y100590239D02*
X58130264Y100559286D01*
X58130264Y100559286D02*
X58091559Y100528334D01*
X58091559Y100528334D02*
X58052854Y100466429D01*
X58052854Y100466429D02*
X58052854Y100342620D01*
X58052854Y100342620D02*
X58091559Y100280715D01*
X58091559Y100280715D02*
X58130264Y100249762D01*
X58130264Y100249762D02*
X58207673Y100218810D01*
G04 #@! TO.C,R11*
X57692142Y56253984D02*
X57475475Y56641031D01*
X57320713Y56253984D02*
X57320713Y57066784D01*
X57320713Y57066784D02*
X57568332Y57066784D01*
X57568332Y57066784D02*
X57630237Y57028079D01*
X57630237Y57028079D02*
X57661190Y56989374D01*
X57661190Y56989374D02*
X57692142Y56911965D01*
X57692142Y56911965D02*
X57692142Y56795850D01*
X57692142Y56795850D02*
X57661190Y56718441D01*
X57661190Y56718441D02*
X57630237Y56679736D01*
X57630237Y56679736D02*
X57568332Y56641031D01*
X57568332Y56641031D02*
X57320713Y56641031D01*
X58311190Y56253984D02*
X57939761Y56253984D01*
X58125475Y56253984D02*
X58125475Y57066784D01*
X58125475Y57066784D02*
X58063571Y56950669D01*
X58063571Y56950669D02*
X58001666Y56873260D01*
X58001666Y56873260D02*
X57939761Y56834555D01*
X58930238Y56253984D02*
X58558809Y56253984D01*
X58744523Y56253984D02*
X58744523Y57066784D01*
X58744523Y57066784D02*
X58682619Y56950669D01*
X58682619Y56950669D02*
X58620714Y56873260D01*
X58620714Y56873260D02*
X58558809Y56834555D01*
G04 #@! TO.C,R10*
X61682142Y47423984D02*
X61465475Y47811031D01*
X61310713Y47423984D02*
X61310713Y48236784D01*
X61310713Y48236784D02*
X61558332Y48236784D01*
X61558332Y48236784D02*
X61620237Y48198079D01*
X61620237Y48198079D02*
X61651190Y48159374D01*
X61651190Y48159374D02*
X61682142Y48081965D01*
X61682142Y48081965D02*
X61682142Y47965850D01*
X61682142Y47965850D02*
X61651190Y47888441D01*
X61651190Y47888441D02*
X61620237Y47849736D01*
X61620237Y47849736D02*
X61558332Y47811031D01*
X61558332Y47811031D02*
X61310713Y47811031D01*
X62301190Y47423984D02*
X61929761Y47423984D01*
X62115475Y47423984D02*
X62115475Y48236784D01*
X62115475Y48236784D02*
X62053571Y48120669D01*
X62053571Y48120669D02*
X61991666Y48043260D01*
X61991666Y48043260D02*
X61929761Y48004555D01*
X62703571Y48236784D02*
X62765476Y48236784D01*
X62765476Y48236784D02*
X62827380Y48198079D01*
X62827380Y48198079D02*
X62858333Y48159374D01*
X62858333Y48159374D02*
X62889285Y48081965D01*
X62889285Y48081965D02*
X62920238Y47927146D01*
X62920238Y47927146D02*
X62920238Y47733622D01*
X62920238Y47733622D02*
X62889285Y47578803D01*
X62889285Y47578803D02*
X62858333Y47501393D01*
X62858333Y47501393D02*
X62827380Y47462688D01*
X62827380Y47462688D02*
X62765476Y47423984D01*
X62765476Y47423984D02*
X62703571Y47423984D01*
X62703571Y47423984D02*
X62641666Y47462688D01*
X62641666Y47462688D02*
X62610714Y47501393D01*
X62610714Y47501393D02*
X62579761Y47578803D01*
X62579761Y47578803D02*
X62548809Y47733622D01*
X62548809Y47733622D02*
X62548809Y47927146D01*
X62548809Y47927146D02*
X62579761Y48081965D01*
X62579761Y48081965D02*
X62610714Y48159374D01*
X62610714Y48159374D02*
X62641666Y48198079D01*
X62641666Y48198079D02*
X62703571Y48236784D01*
G04 #@! TO.C,R15*
X21262142Y10623984D02*
X21045475Y11011031D01*
X20890713Y10623984D02*
X20890713Y11436784D01*
X20890713Y11436784D02*
X21138332Y11436784D01*
X21138332Y11436784D02*
X21200237Y11398079D01*
X21200237Y11398079D02*
X21231190Y11359374D01*
X21231190Y11359374D02*
X21262142Y11281965D01*
X21262142Y11281965D02*
X21262142Y11165850D01*
X21262142Y11165850D02*
X21231190Y11088441D01*
X21231190Y11088441D02*
X21200237Y11049736D01*
X21200237Y11049736D02*
X21138332Y11011031D01*
X21138332Y11011031D02*
X20890713Y11011031D01*
X21881190Y10623984D02*
X21509761Y10623984D01*
X21695475Y10623984D02*
X21695475Y11436784D01*
X21695475Y11436784D02*
X21633571Y11320669D01*
X21633571Y11320669D02*
X21571666Y11243260D01*
X21571666Y11243260D02*
X21509761Y11204555D01*
X22469285Y11436784D02*
X22159761Y11436784D01*
X22159761Y11436784D02*
X22128809Y11049736D01*
X22128809Y11049736D02*
X22159761Y11088441D01*
X22159761Y11088441D02*
X22221666Y11127146D01*
X22221666Y11127146D02*
X22376428Y11127146D01*
X22376428Y11127146D02*
X22438333Y11088441D01*
X22438333Y11088441D02*
X22469285Y11049736D01*
X22469285Y11049736D02*
X22500238Y10972327D01*
X22500238Y10972327D02*
X22500238Y10778803D01*
X22500238Y10778803D02*
X22469285Y10701393D01*
X22469285Y10701393D02*
X22438333Y10662688D01*
X22438333Y10662688D02*
X22376428Y10623984D01*
X22376428Y10623984D02*
X22221666Y10623984D01*
X22221666Y10623984D02*
X22159761Y10662688D01*
X22159761Y10662688D02*
X22128809Y10701393D01*
G04 #@! TO.C,C11*
X19678607Y14322143D02*
X19717312Y14291191D01*
X19717312Y14291191D02*
X19756016Y14198333D01*
X19756016Y14198333D02*
X19756016Y14136429D01*
X19756016Y14136429D02*
X19717312Y14043572D01*
X19717312Y14043572D02*
X19639902Y13981667D01*
X19639902Y13981667D02*
X19562492Y13950714D01*
X19562492Y13950714D02*
X19407673Y13919762D01*
X19407673Y13919762D02*
X19291559Y13919762D01*
X19291559Y13919762D02*
X19136740Y13950714D01*
X19136740Y13950714D02*
X19059331Y13981667D01*
X19059331Y13981667D02*
X18981921Y14043572D01*
X18981921Y14043572D02*
X18943216Y14136429D01*
X18943216Y14136429D02*
X18943216Y14198333D01*
X18943216Y14198333D02*
X18981921Y14291191D01*
X18981921Y14291191D02*
X19020626Y14322143D01*
X19756016Y14941191D02*
X19756016Y14569762D01*
X19756016Y14755476D02*
X18943216Y14755476D01*
X18943216Y14755476D02*
X19059331Y14693572D01*
X19059331Y14693572D02*
X19136740Y14631667D01*
X19136740Y14631667D02*
X19175445Y14569762D01*
X19756016Y15560239D02*
X19756016Y15188810D01*
X19756016Y15374524D02*
X18943216Y15374524D01*
X18943216Y15374524D02*
X19059331Y15312620D01*
X19059331Y15312620D02*
X19136740Y15250715D01*
X19136740Y15250715D02*
X19175445Y15188810D01*
G04 #@! TO.C,R18*
X40622142Y92283984D02*
X40405475Y92671031D01*
X40250713Y92283984D02*
X40250713Y93096784D01*
X40250713Y93096784D02*
X40498332Y93096784D01*
X40498332Y93096784D02*
X40560237Y93058079D01*
X40560237Y93058079D02*
X40591190Y93019374D01*
X40591190Y93019374D02*
X40622142Y92941965D01*
X40622142Y92941965D02*
X40622142Y92825850D01*
X40622142Y92825850D02*
X40591190Y92748441D01*
X40591190Y92748441D02*
X40560237Y92709736D01*
X40560237Y92709736D02*
X40498332Y92671031D01*
X40498332Y92671031D02*
X40250713Y92671031D01*
X41241190Y92283984D02*
X40869761Y92283984D01*
X41055475Y92283984D02*
X41055475Y93096784D01*
X41055475Y93096784D02*
X40993571Y92980669D01*
X40993571Y92980669D02*
X40931666Y92903260D01*
X40931666Y92903260D02*
X40869761Y92864555D01*
X41612619Y92748441D02*
X41550714Y92787146D01*
X41550714Y92787146D02*
X41519761Y92825850D01*
X41519761Y92825850D02*
X41488809Y92903260D01*
X41488809Y92903260D02*
X41488809Y92941965D01*
X41488809Y92941965D02*
X41519761Y93019374D01*
X41519761Y93019374D02*
X41550714Y93058079D01*
X41550714Y93058079D02*
X41612619Y93096784D01*
X41612619Y93096784D02*
X41736428Y93096784D01*
X41736428Y93096784D02*
X41798333Y93058079D01*
X41798333Y93058079D02*
X41829285Y93019374D01*
X41829285Y93019374D02*
X41860238Y92941965D01*
X41860238Y92941965D02*
X41860238Y92903260D01*
X41860238Y92903260D02*
X41829285Y92825850D01*
X41829285Y92825850D02*
X41798333Y92787146D01*
X41798333Y92787146D02*
X41736428Y92748441D01*
X41736428Y92748441D02*
X41612619Y92748441D01*
X41612619Y92748441D02*
X41550714Y92709736D01*
X41550714Y92709736D02*
X41519761Y92671031D01*
X41519761Y92671031D02*
X41488809Y92593622D01*
X41488809Y92593622D02*
X41488809Y92438803D01*
X41488809Y92438803D02*
X41519761Y92361393D01*
X41519761Y92361393D02*
X41550714Y92322688D01*
X41550714Y92322688D02*
X41612619Y92283984D01*
X41612619Y92283984D02*
X41736428Y92283984D01*
X41736428Y92283984D02*
X41798333Y92322688D01*
X41798333Y92322688D02*
X41829285Y92361393D01*
X41829285Y92361393D02*
X41860238Y92438803D01*
X41860238Y92438803D02*
X41860238Y92593622D01*
X41860238Y92593622D02*
X41829285Y92671031D01*
X41829285Y92671031D02*
X41798333Y92709736D01*
X41798333Y92709736D02*
X41736428Y92748441D01*
D12*
G04 #@! TO.C,JB1*
X59024012Y27947420D02*
X59024012Y27366848D01*
X59024012Y27366848D02*
X58976393Y27250734D01*
X58976393Y27250734D02*
X58881155Y27173324D01*
X58881155Y27173324D02*
X58738298Y27134620D01*
X58738298Y27134620D02*
X58643060Y27134620D01*
X59833536Y27560372D02*
X59976393Y27521667D01*
X59976393Y27521667D02*
X60024012Y27482963D01*
X60024012Y27482963D02*
X60071631Y27405553D01*
X60071631Y27405553D02*
X60071631Y27289439D01*
X60071631Y27289439D02*
X60024012Y27212029D01*
X60024012Y27212029D02*
X59976393Y27173324D01*
X59976393Y27173324D02*
X59881155Y27134620D01*
X59881155Y27134620D02*
X59500203Y27134620D01*
X59500203Y27134620D02*
X59500203Y27947420D01*
X59500203Y27947420D02*
X59833536Y27947420D01*
X59833536Y27947420D02*
X59928774Y27908715D01*
X59928774Y27908715D02*
X59976393Y27870010D01*
X59976393Y27870010D02*
X60024012Y27792601D01*
X60024012Y27792601D02*
X60024012Y27715191D01*
X60024012Y27715191D02*
X59976393Y27637782D01*
X59976393Y27637782D02*
X59928774Y27599077D01*
X59928774Y27599077D02*
X59833536Y27560372D01*
X59833536Y27560372D02*
X59500203Y27560372D01*
X61024012Y27134620D02*
X60452584Y27134620D01*
X60738298Y27134620D02*
X60738298Y27947420D01*
X60738298Y27947420D02*
X60643060Y27831305D01*
X60643060Y27831305D02*
X60547822Y27753896D01*
X60547822Y27753896D02*
X60452584Y27715191D01*
D11*
G04 #@! TO.C,R8*
X67941666Y47473984D02*
X67724999Y47861031D01*
X67570237Y47473984D02*
X67570237Y48286784D01*
X67570237Y48286784D02*
X67817856Y48286784D01*
X67817856Y48286784D02*
X67879761Y48248079D01*
X67879761Y48248079D02*
X67910714Y48209374D01*
X67910714Y48209374D02*
X67941666Y48131965D01*
X67941666Y48131965D02*
X67941666Y48015850D01*
X67941666Y48015850D02*
X67910714Y47938441D01*
X67910714Y47938441D02*
X67879761Y47899736D01*
X67879761Y47899736D02*
X67817856Y47861031D01*
X67817856Y47861031D02*
X67570237Y47861031D01*
X68313095Y47938441D02*
X68251190Y47977146D01*
X68251190Y47977146D02*
X68220237Y48015850D01*
X68220237Y48015850D02*
X68189285Y48093260D01*
X68189285Y48093260D02*
X68189285Y48131965D01*
X68189285Y48131965D02*
X68220237Y48209374D01*
X68220237Y48209374D02*
X68251190Y48248079D01*
X68251190Y48248079D02*
X68313095Y48286784D01*
X68313095Y48286784D02*
X68436904Y48286784D01*
X68436904Y48286784D02*
X68498809Y48248079D01*
X68498809Y48248079D02*
X68529761Y48209374D01*
X68529761Y48209374D02*
X68560714Y48131965D01*
X68560714Y48131965D02*
X68560714Y48093260D01*
X68560714Y48093260D02*
X68529761Y48015850D01*
X68529761Y48015850D02*
X68498809Y47977146D01*
X68498809Y47977146D02*
X68436904Y47938441D01*
X68436904Y47938441D02*
X68313095Y47938441D01*
X68313095Y47938441D02*
X68251190Y47899736D01*
X68251190Y47899736D02*
X68220237Y47861031D01*
X68220237Y47861031D02*
X68189285Y47783622D01*
X68189285Y47783622D02*
X68189285Y47628803D01*
X68189285Y47628803D02*
X68220237Y47551393D01*
X68220237Y47551393D02*
X68251190Y47512688D01*
X68251190Y47512688D02*
X68313095Y47473984D01*
X68313095Y47473984D02*
X68436904Y47473984D01*
X68436904Y47473984D02*
X68498809Y47512688D01*
X68498809Y47512688D02*
X68529761Y47551393D01*
X68529761Y47551393D02*
X68560714Y47628803D01*
X68560714Y47628803D02*
X68560714Y47783622D01*
X68560714Y47783622D02*
X68529761Y47861031D01*
X68529761Y47861031D02*
X68498809Y47899736D01*
X68498809Y47899736D02*
X68436904Y47938441D01*
G04 #@! TO.C,C3*
X62468607Y49871667D02*
X62507312Y49840715D01*
X62507312Y49840715D02*
X62546016Y49747857D01*
X62546016Y49747857D02*
X62546016Y49685953D01*
X62546016Y49685953D02*
X62507312Y49593096D01*
X62507312Y49593096D02*
X62429902Y49531191D01*
X62429902Y49531191D02*
X62352492Y49500238D01*
X62352492Y49500238D02*
X62197673Y49469286D01*
X62197673Y49469286D02*
X62081559Y49469286D01*
X62081559Y49469286D02*
X61926740Y49500238D01*
X61926740Y49500238D02*
X61849331Y49531191D01*
X61849331Y49531191D02*
X61771921Y49593096D01*
X61771921Y49593096D02*
X61733216Y49685953D01*
X61733216Y49685953D02*
X61733216Y49747857D01*
X61733216Y49747857D02*
X61771921Y49840715D01*
X61771921Y49840715D02*
X61810626Y49871667D01*
X61733216Y50088334D02*
X61733216Y50490715D01*
X61733216Y50490715D02*
X62042854Y50274048D01*
X62042854Y50274048D02*
X62042854Y50366905D01*
X62042854Y50366905D02*
X62081559Y50428810D01*
X62081559Y50428810D02*
X62120264Y50459762D01*
X62120264Y50459762D02*
X62197673Y50490715D01*
X62197673Y50490715D02*
X62391197Y50490715D01*
X62391197Y50490715D02*
X62468607Y50459762D01*
X62468607Y50459762D02*
X62507312Y50428810D01*
X62507312Y50428810D02*
X62546016Y50366905D01*
X62546016Y50366905D02*
X62546016Y50181191D01*
X62546016Y50181191D02*
X62507312Y50119286D01*
X62507312Y50119286D02*
X62468607Y50088334D01*
D12*
G04 #@! TO.C,JD1*
X31566666Y80126784D02*
X31566666Y79546212D01*
X31566666Y79546212D02*
X31519047Y79430098D01*
X31519047Y79430098D02*
X31423809Y79352688D01*
X31423809Y79352688D02*
X31280952Y79313984D01*
X31280952Y79313984D02*
X31185714Y79313984D01*
X32042857Y79313984D02*
X32042857Y80126784D01*
X32042857Y80126784D02*
X32280952Y80126784D01*
X32280952Y80126784D02*
X32423809Y80088079D01*
X32423809Y80088079D02*
X32519047Y80010669D01*
X32519047Y80010669D02*
X32566666Y79933260D01*
X32566666Y79933260D02*
X32614285Y79778441D01*
X32614285Y79778441D02*
X32614285Y79662327D01*
X32614285Y79662327D02*
X32566666Y79507508D01*
X32566666Y79507508D02*
X32519047Y79430098D01*
X32519047Y79430098D02*
X32423809Y79352688D01*
X32423809Y79352688D02*
X32280952Y79313984D01*
X32280952Y79313984D02*
X32042857Y79313984D01*
X33566666Y79313984D02*
X32995238Y79313984D01*
X33280952Y79313984D02*
X33280952Y80126784D01*
X33280952Y80126784D02*
X33185714Y80010669D01*
X33185714Y80010669D02*
X33090476Y79933260D01*
X33090476Y79933260D02*
X32995238Y79894555D01*
D11*
G04 #@! TO.C,R3*
X34046016Y36061667D02*
X33658969Y35845000D01*
X34046016Y35690238D02*
X33233216Y35690238D01*
X33233216Y35690238D02*
X33233216Y35937857D01*
X33233216Y35937857D02*
X33271921Y35999762D01*
X33271921Y35999762D02*
X33310626Y36030715D01*
X33310626Y36030715D02*
X33388035Y36061667D01*
X33388035Y36061667D02*
X33504150Y36061667D01*
X33504150Y36061667D02*
X33581559Y36030715D01*
X33581559Y36030715D02*
X33620264Y35999762D01*
X33620264Y35999762D02*
X33658969Y35937857D01*
X33658969Y35937857D02*
X33658969Y35690238D01*
X33233216Y36278334D02*
X33233216Y36680715D01*
X33233216Y36680715D02*
X33542854Y36464048D01*
X33542854Y36464048D02*
X33542854Y36556905D01*
X33542854Y36556905D02*
X33581559Y36618810D01*
X33581559Y36618810D02*
X33620264Y36649762D01*
X33620264Y36649762D02*
X33697673Y36680715D01*
X33697673Y36680715D02*
X33891197Y36680715D01*
X33891197Y36680715D02*
X33968607Y36649762D01*
X33968607Y36649762D02*
X34007312Y36618810D01*
X34007312Y36618810D02*
X34046016Y36556905D01*
X34046016Y36556905D02*
X34046016Y36371191D01*
X34046016Y36371191D02*
X34007312Y36309286D01*
X34007312Y36309286D02*
X33968607Y36278334D01*
G04 #@! TO.C,C10*
X55612142Y45411393D02*
X55581190Y45372688D01*
X55581190Y45372688D02*
X55488332Y45333984D01*
X55488332Y45333984D02*
X55426428Y45333984D01*
X55426428Y45333984D02*
X55333571Y45372688D01*
X55333571Y45372688D02*
X55271666Y45450098D01*
X55271666Y45450098D02*
X55240713Y45527508D01*
X55240713Y45527508D02*
X55209761Y45682327D01*
X55209761Y45682327D02*
X55209761Y45798441D01*
X55209761Y45798441D02*
X55240713Y45953260D01*
X55240713Y45953260D02*
X55271666Y46030669D01*
X55271666Y46030669D02*
X55333571Y46108079D01*
X55333571Y46108079D02*
X55426428Y46146784D01*
X55426428Y46146784D02*
X55488332Y46146784D01*
X55488332Y46146784D02*
X55581190Y46108079D01*
X55581190Y46108079D02*
X55612142Y46069374D01*
X56231190Y45333984D02*
X55859761Y45333984D01*
X56045475Y45333984D02*
X56045475Y46146784D01*
X56045475Y46146784D02*
X55983571Y46030669D01*
X55983571Y46030669D02*
X55921666Y45953260D01*
X55921666Y45953260D02*
X55859761Y45914555D01*
X56633571Y46146784D02*
X56695476Y46146784D01*
X56695476Y46146784D02*
X56757380Y46108079D01*
X56757380Y46108079D02*
X56788333Y46069374D01*
X56788333Y46069374D02*
X56819285Y45991965D01*
X56819285Y45991965D02*
X56850238Y45837146D01*
X56850238Y45837146D02*
X56850238Y45643622D01*
X56850238Y45643622D02*
X56819285Y45488803D01*
X56819285Y45488803D02*
X56788333Y45411393D01*
X56788333Y45411393D02*
X56757380Y45372688D01*
X56757380Y45372688D02*
X56695476Y45333984D01*
X56695476Y45333984D02*
X56633571Y45333984D01*
X56633571Y45333984D02*
X56571666Y45372688D01*
X56571666Y45372688D02*
X56540714Y45411393D01*
X56540714Y45411393D02*
X56509761Y45488803D01*
X56509761Y45488803D02*
X56478809Y45643622D01*
X56478809Y45643622D02*
X56478809Y45837146D01*
X56478809Y45837146D02*
X56509761Y45991965D01*
X56509761Y45991965D02*
X56540714Y46069374D01*
X56540714Y46069374D02*
X56571666Y46108079D01*
X56571666Y46108079D02*
X56633571Y46146784D01*
D12*
G04 #@! TO.C,C7*
X49760000Y10930000D02*
X49760000Y9730000D01*
X50060000Y9730000D02*
X50060000Y10930000D01*
G04 #@! TO.C,C17*
X30600000Y101910000D02*
X31800000Y101910000D01*
X31800000Y102210000D02*
X30600000Y102210000D01*
G04 #@! TO.C,R26*
X33700000Y102910000D02*
X33700000Y101210000D01*
X32300000Y101210000D02*
X32300000Y102910000D01*
G04 #@! TO.C,R2*
X51410000Y39230000D02*
X51410000Y37530000D01*
X50010000Y37530000D02*
X50010000Y39230000D01*
G04 #@! TO.C,R37*
X59760000Y55410000D02*
X61460000Y55410000D01*
X61460000Y54010000D02*
X59760000Y54010000D01*
G04 #@! TO.C,D2*
X33870000Y9820000D02*
X35870000Y9820000D01*
X33870000Y9820000D02*
X33870000Y13720000D01*
X35870000Y9820000D02*
X35870000Y13720000D01*
D15*
X34870000Y11320000D02*
X34870000Y11720000D01*
X34870000Y11720000D02*
X34320000Y11720000D01*
X34870000Y11720000D02*
X35420000Y11720000D01*
X34870000Y11720000D02*
X34470000Y12320000D01*
X34470000Y12320000D02*
X35270000Y12320000D01*
X34870000Y12320000D02*
X34870000Y12820000D01*
X35270000Y12320000D02*
X34870000Y11720000D01*
D12*
G04 #@! TO.C,R33*
X35350000Y23370000D02*
X35350000Y25070000D01*
X36750000Y25070000D02*
X36750000Y23370000D01*
G04 #@! TO.C,JC1*
X35741978Y33956200D02*
X22801978Y33956200D01*
X22801978Y33956200D02*
X22801978Y28636200D01*
X35741978Y28636200D02*
X35741978Y33956200D01*
X22801978Y28636200D02*
X35741978Y28636200D01*
G04 #@! TO.C,R16*
X67900000Y93260000D02*
X67900000Y94960000D01*
X69300000Y94960000D02*
X69300000Y93260000D01*
G04 #@! TO.C,C1*
X69320000Y71640000D02*
X69320000Y70440000D01*
X69620000Y70440000D02*
X69620000Y71640000D01*
G04 #@! TO.C,C4*
X45790000Y16010000D02*
X45790000Y15230000D01*
X45790000Y12250000D02*
X45790000Y13030000D01*
X45790000Y12250000D02*
X46550000Y11480000D01*
X46550000Y16780000D02*
X45790000Y16010000D01*
X46550000Y11480000D02*
X51130000Y11480000D01*
X51130000Y16780000D02*
X46550000Y16780000D01*
X51130000Y16780000D02*
X51130000Y15230000D01*
X51130000Y11480000D02*
X51130000Y13030000D01*
X50594256Y15260242D02*
G75*
G03*
X46310001Y15230000I-2134256J-1130242D01*
G01*
X46325744Y12999758D02*
G75*
G03*
X50609999Y13030000I2134256J1130242D01*
G01*
G04 #@! TO.C,R5*
X49570000Y39200000D02*
X49570000Y37500000D01*
X48170000Y37500000D02*
X48170000Y39200000D01*
G04 #@! TO.C,R14*
X17010000Y14290000D02*
X17010000Y12590000D01*
X15610000Y12590000D02*
X15610000Y14290000D01*
G04 #@! TO.C,R25*
X61190000Y104840000D02*
X61190000Y103140000D01*
X59790000Y103140000D02*
X59790000Y104840000D01*
G04 #@! TO.C,C15*
X13890000Y17140000D02*
X13890000Y18340000D01*
X13590000Y18340000D02*
X13590000Y17140000D01*
G04 #@! TO.C,C19*
X48010000Y76030000D02*
X48010000Y77230000D01*
X47710000Y77230000D02*
X47710000Y76030000D01*
G04 #@! TO.C,C20*
X44930000Y80850000D02*
X43730000Y80850000D01*
X43730000Y80550000D02*
X44930000Y80550000D01*
G04 #@! TO.C,D1*
X44160000Y16700000D02*
X42160000Y16700000D01*
X44160000Y16700000D02*
X44160000Y12800000D01*
X42160000Y16700000D02*
X42160000Y12800000D01*
D15*
X43160000Y15200000D02*
X43160000Y14800000D01*
X43160000Y14800000D02*
X43710000Y14800000D01*
X43160000Y14800000D02*
X42610000Y14800000D01*
X43160000Y14800000D02*
X43560000Y14200000D01*
X43560000Y14200000D02*
X42760000Y14200000D01*
X43160000Y14200000D02*
X43160000Y13700000D01*
X42760000Y14200000D02*
X43160000Y14800000D01*
D12*
G04 #@! TO.C,C13*
X68650000Y54280000D02*
X68650000Y55480000D01*
X68350000Y55480000D02*
X68350000Y54280000D01*
G04 #@! TO.C,R23*
X44510000Y99860000D02*
X46210000Y99860000D01*
X46210000Y98460000D02*
X44510000Y98460000D01*
G04 #@! TO.C,C9*
X28550000Y52210000D02*
X28550000Y51010000D01*
X28850000Y51010000D02*
X28850000Y52210000D01*
G04 #@! TO.C,R17*
X37570000Y22430000D02*
X39270000Y22430000D01*
X39270000Y21030000D02*
X37570000Y21030000D01*
D11*
G04 #@! TO.C,U1*
X68725000Y50505000D02*
X68725000Y50705000D01*
X68725000Y50505000D02*
X64075000Y50505000D01*
X68725000Y50705000D02*
X70075000Y50705000D01*
X68725000Y53755000D02*
X68725000Y53555000D01*
X68725000Y53755000D02*
X64075000Y53755000D01*
X64075000Y50505000D02*
X64075000Y50705000D01*
X64075000Y53755000D02*
X64075000Y53555000D01*
X68230605Y50987000D02*
G75*
G03*
X68230605Y50987000I-179605J0D01*
G01*
D12*
G04 #@! TO.C,R30*
X21080000Y83840000D02*
X22780000Y83840000D01*
X22780000Y82440000D02*
X21080000Y82440000D01*
G04 #@! TO.C,R21*
X9900000Y94580000D02*
X9900000Y96280000D01*
X11300000Y96280000D02*
X11300000Y94580000D01*
G04 #@! TO.C,R20*
X17250000Y25460000D02*
X18950000Y25460000D01*
X18950000Y24060000D02*
X17250000Y24060000D01*
D16*
G04 #@! TO.C,J14*
X36350000Y1340000D02*
X41890000Y1340000D01*
D12*
X36440000Y15160000D02*
X36440000Y2220000D01*
X36440000Y2220000D02*
X41760000Y2220000D01*
X41760000Y15160000D02*
X36440000Y15160000D01*
X41760000Y2220000D02*
X41760000Y15160000D01*
G04 #@! TO.C,R4*
X17580000Y36160000D02*
X17580000Y34460000D01*
X16180000Y34460000D02*
X16180000Y36160000D01*
G04 #@! TO.C,R28*
X21090000Y85670000D02*
X22790000Y85670000D01*
X22790000Y84270000D02*
X21090000Y84270000D01*
G04 #@! TO.C,R40*
X65150000Y94020000D02*
X66850000Y94020000D01*
X66850000Y92620000D02*
X65150000Y92620000D01*
G04 #@! TO.C,R1*
X70520000Y50390000D02*
X70520000Y52090000D01*
X71920000Y52090000D02*
X71920000Y50390000D01*
G04 #@! TO.C,R41*
X9910000Y91170000D02*
X9910000Y92870000D01*
X11310000Y92870000D02*
X11310000Y91170000D01*
G04 #@! TO.C,R12*
X17990000Y15880000D02*
X16290000Y15880000D01*
X16290000Y17280000D02*
X17990000Y17280000D01*
G04 #@! TO.C,C8*
X30260000Y11300000D02*
X30260000Y12500000D01*
X29960000Y12500000D02*
X29960000Y11300000D01*
G04 #@! TO.C,R27*
X19730000Y103000000D02*
X19730000Y101300000D01*
X18330000Y101300000D02*
X18330000Y103000000D01*
G04 #@! TO.C,C6*
X64520000Y46670000D02*
X64520000Y45470000D01*
X64820000Y45470000D02*
X64820000Y46670000D01*
G04 #@! TO.C,R6*
X27630000Y37580000D02*
X29330000Y37580000D01*
X29330000Y36180000D02*
X27630000Y36180000D01*
G04 #@! TO.C,R9*
X59090000Y51360000D02*
X59090000Y53060000D01*
X60490000Y53060000D02*
X60490000Y51360000D01*
G04 #@! TO.C,R32*
X21210000Y81810000D02*
X22910000Y81810000D01*
X22910000Y80410000D02*
X21210000Y80410000D01*
G04 #@! TO.C,C2*
X13470000Y71890000D02*
X13470000Y70690000D01*
X13770000Y70690000D02*
X13770000Y71890000D01*
G04 #@! TO.C,R13*
X12710000Y12800000D02*
X14410000Y12800000D01*
X14410000Y11400000D02*
X12710000Y11400000D01*
G04 #@! TO.C,R19*
X34110000Y95020000D02*
X35810000Y95020000D01*
X35810000Y93620000D02*
X34110000Y93620000D01*
G04 #@! TO.C,C5*
X26990000Y17780000D02*
X26990000Y17000000D01*
X26990000Y14020000D02*
X26990000Y14800000D01*
X26990000Y14020000D02*
X27750000Y13250000D01*
X27750000Y18550000D02*
X26990000Y17780000D01*
X27750000Y13250000D02*
X32330000Y13250000D01*
X32330000Y18550000D02*
X27750000Y18550000D01*
X32330000Y18550000D02*
X32330000Y17000000D01*
X32330000Y13250000D02*
X32330000Y14800000D01*
X31794256Y17030242D02*
G75*
G03*
X27510001Y17000000I-2134256J-1130242D01*
G01*
X27525744Y14769758D02*
G75*
G03*
X31809999Y14800000I2134256J1130242D01*
G01*
G04 #@! TO.C,C14*
X9870000Y12730000D02*
X9870000Y11530000D01*
X10170000Y11530000D02*
X10170000Y12730000D01*
G04 #@! TO.C,R34*
X39490000Y24280000D02*
X37790000Y24280000D01*
X37790000Y25680000D02*
X39490000Y25680000D01*
G04 #@! TO.C,JA1*
X53612000Y92766192D02*
X53612000Y79826192D01*
X53612000Y79826192D02*
X58932000Y79826192D01*
X58932000Y92766192D02*
X53612000Y92766192D01*
X58932000Y79826192D02*
X58932000Y92766192D01*
G04 #@! TO.C,R31*
X21300000Y79660000D02*
X23000000Y79660000D01*
X23000000Y78260000D02*
X21300000Y78260000D01*
D11*
G04 #@! TO.C,U2*
X13685000Y13335000D02*
X13685000Y13535000D01*
X13685000Y13335000D02*
X9035000Y13335000D01*
X13685000Y13535000D02*
X15035000Y13535000D01*
X13685000Y16585000D02*
X13685000Y16385000D01*
X13685000Y16585000D02*
X9035000Y16585000D01*
X9035000Y13335000D02*
X9035000Y13535000D01*
X9035000Y16585000D02*
X9035000Y16385000D01*
X13190605Y13817000D02*
G75*
G03*
X13190605Y13817000I-179605J0D01*
G01*
D12*
G04 #@! TO.C,R7*
X18310000Y32660000D02*
X18310000Y34360000D01*
X19710000Y34360000D02*
X19710000Y32660000D01*
G04 #@! TO.C,U3*
X45510000Y78160000D02*
X45510000Y82160000D01*
X45510000Y82160000D02*
X46710000Y82160000D01*
X49110000Y82160000D02*
X50310000Y82160000D01*
X50310000Y82160000D02*
X50310000Y79460000D01*
G04 #@! TO.C,C12*
X64240000Y54350000D02*
X64240000Y55550000D01*
X63940000Y55550000D02*
X63940000Y54350000D01*
G04 #@! TO.C,C16*
X59340000Y102510000D02*
X58140000Y102510000D01*
X58140000Y102210000D02*
X59340000Y102210000D01*
G04 #@! TO.C,R11*
X61500000Y55680000D02*
X59800000Y55680000D01*
X59800000Y57080000D02*
X61500000Y57080000D01*
G04 #@! TO.C,R10*
X63870000Y48390000D02*
X65570000Y48390000D01*
X65570000Y46990000D02*
X63870000Y46990000D01*
G04 #@! TO.C,R15*
X19640000Y13170000D02*
X21340000Y13170000D01*
X21340000Y11770000D02*
X19640000Y11770000D01*
G04 #@! TO.C,C11*
X18580000Y13530000D02*
X17380000Y13530000D01*
X17380000Y13230000D02*
X18580000Y13230000D01*
G04 #@! TO.C,R18*
X41890000Y93410000D02*
X40190000Y93410000D01*
X40190000Y94810000D02*
X41890000Y94810000D01*
G04 #@! TO.C,JB1*
X61742002Y33956200D02*
X48802002Y33956200D01*
X48802002Y33956200D02*
X48802002Y28636200D01*
X61742002Y28636200D02*
X61742002Y33956200D01*
X48802002Y28636200D02*
X61742002Y28636200D01*
G04 #@! TO.C,R8*
X67380000Y48700000D02*
X65680000Y48700000D01*
X65680000Y50100000D02*
X67380000Y50100000D01*
G04 #@! TO.C,C3*
X60970000Y52120000D02*
X62170000Y52120000D01*
X62170000Y52420000D02*
X60970000Y52420000D01*
G04 #@! TO.C,JD1*
X25611980Y92766192D02*
X25611980Y79826192D01*
X25611980Y79826192D02*
X30931980Y79826192D01*
X30931980Y92766192D02*
X25611980Y92766192D01*
X30931980Y79826192D02*
X30931980Y92766192D01*
G04 #@! TO.C,R3*
X33230000Y39270000D02*
X33230000Y37570000D01*
X31830000Y37570000D02*
X31830000Y39270000D01*
G04 #@! TO.C,C10*
X55880000Y45010000D02*
X55880000Y43810000D01*
X56180000Y43810000D02*
X56180000Y45010000D01*
G04 #@! TD*
%LPC*%
D17*
G04 #@! TO.C,C7*
X49060000Y10330000D03*
X50760000Y10330000D03*
G04 #@! TD*
G04 #@! TO.C,C17*
X31200000Y101210000D03*
X31200000Y102910000D03*
G04 #@! TD*
G04 #@! TO.C,R26*
X33000000Y102910000D03*
X33000000Y101210000D03*
G04 #@! TD*
G04 #@! TO.C,R2*
X50710000Y39230000D03*
X50710000Y37530000D03*
G04 #@! TD*
G04 #@! TO.C,R37*
X59760000Y54710000D03*
X61460000Y54710000D03*
G04 #@! TD*
D18*
G04 #@! TO.C,D2*
X34870000Y10420000D03*
X34870000Y13720000D03*
G04 #@! TD*
D17*
G04 #@! TO.C,R33*
X36050000Y23370000D03*
X36050000Y25070000D03*
G04 #@! TD*
D19*
G04 #@! TO.C,JC1*
X34351978Y30026200D03*
D20*
X34351978Y32566200D03*
X31811978Y30026200D03*
X31811978Y32566200D03*
X29271978Y30026200D03*
X29271978Y32566200D03*
X26731978Y30026200D03*
X26731978Y32566200D03*
X24191978Y30026200D03*
X24191978Y32566200D03*
G04 #@! TD*
D17*
G04 #@! TO.C,R16*
X68600000Y93260000D03*
X68600000Y94960000D03*
G04 #@! TD*
G04 #@! TO.C,C1*
X68620000Y71040000D03*
X70320000Y71040000D03*
G04 #@! TD*
D21*
G04 #@! TO.C,C4*
X46260000Y14130000D03*
X50660000Y14130000D03*
G04 #@! TD*
D17*
G04 #@! TO.C,R5*
X48870000Y39200000D03*
X48870000Y37500000D03*
G04 #@! TD*
G04 #@! TO.C,R14*
X16310000Y14290000D03*
X16310000Y12590000D03*
G04 #@! TD*
G04 #@! TO.C,R25*
X60490000Y104840000D03*
X60490000Y103140000D03*
G04 #@! TD*
G04 #@! TO.C,C15*
X14590000Y17740000D03*
X12890000Y17740000D03*
G04 #@! TD*
G04 #@! TO.C,C19*
X48710000Y76630000D03*
X47010000Y76630000D03*
G04 #@! TD*
G04 #@! TO.C,C20*
X44330000Y81550000D03*
X44330000Y79850000D03*
G04 #@! TD*
D18*
G04 #@! TO.C,D1*
X43160000Y16100000D03*
X43160000Y12800000D03*
G04 #@! TD*
D17*
G04 #@! TO.C,C13*
X69350000Y54880000D03*
X67650000Y54880000D03*
G04 #@! TD*
G04 #@! TO.C,R23*
X44510000Y99160000D03*
X46210000Y99160000D03*
G04 #@! TD*
G04 #@! TO.C,C9*
X27850000Y51610000D03*
X29550000Y51610000D03*
G04 #@! TD*
G04 #@! TO.C,R17*
X37570000Y21730000D03*
X39270000Y21730000D03*
G04 #@! TD*
D22*
G04 #@! TO.C,U1*
X69350000Y51155000D03*
X69350000Y51805000D03*
X69350000Y52455000D03*
X69350000Y53105000D03*
X63450000Y53105000D03*
X63450000Y52455000D03*
X63450000Y51805000D03*
X63450000Y51155000D03*
G04 #@! TD*
D17*
G04 #@! TO.C,R30*
X21080000Y83140000D03*
X22780000Y83140000D03*
G04 #@! TD*
G04 #@! TO.C,R21*
X10600000Y94580000D03*
X10600000Y96280000D03*
G04 #@! TD*
G04 #@! TO.C,R20*
X17250000Y24760000D03*
X18950000Y24760000D03*
G04 #@! TD*
D20*
G04 #@! TO.C,J14*
X37830000Y13770000D03*
X40370000Y13770000D03*
X37830000Y11230000D03*
X40370000Y11230000D03*
X37830000Y8690000D03*
X40370000Y8690000D03*
X37830000Y6150000D03*
X40370000Y6150000D03*
X37830000Y3610000D03*
X40370000Y3610000D03*
G04 #@! TD*
D17*
G04 #@! TO.C,R4*
X16880000Y36160000D03*
X16880000Y34460000D03*
G04 #@! TD*
G04 #@! TO.C,R28*
X21090000Y84970000D03*
X22790000Y84970000D03*
G04 #@! TD*
G04 #@! TO.C,R40*
X65150000Y93320000D03*
X66850000Y93320000D03*
G04 #@! TD*
G04 #@! TO.C,R1*
X71220000Y50390000D03*
X71220000Y52090000D03*
G04 #@! TD*
G04 #@! TO.C,R41*
X10610000Y91170000D03*
X10610000Y92870000D03*
G04 #@! TD*
G04 #@! TO.C,R12*
X17990000Y16580000D03*
X16290000Y16580000D03*
G04 #@! TD*
G04 #@! TO.C,C8*
X30960000Y11900000D03*
X29260000Y11900000D03*
G04 #@! TD*
G04 #@! TO.C,R27*
X19030000Y103000000D03*
X19030000Y101300000D03*
G04 #@! TD*
G04 #@! TO.C,C6*
X63820000Y46070000D03*
X65520000Y46070000D03*
G04 #@! TD*
G04 #@! TO.C,R6*
X27630000Y36880000D03*
X29330000Y36880000D03*
G04 #@! TD*
G04 #@! TO.C,R9*
X59790000Y51360000D03*
X59790000Y53060000D03*
G04 #@! TD*
G04 #@! TO.C,R32*
X21210000Y81110000D03*
X22910000Y81110000D03*
G04 #@! TD*
G04 #@! TO.C,C2*
X12770000Y71290000D03*
X14470000Y71290000D03*
G04 #@! TD*
G04 #@! TO.C,R13*
X12710000Y12100000D03*
X14410000Y12100000D03*
G04 #@! TD*
G04 #@! TO.C,R19*
X34110000Y94320000D03*
X35810000Y94320000D03*
G04 #@! TD*
D21*
G04 #@! TO.C,C5*
X27460000Y15900000D03*
X31860000Y15900000D03*
G04 #@! TD*
D17*
G04 #@! TO.C,C14*
X9170000Y12130000D03*
X10870000Y12130000D03*
G04 #@! TD*
G04 #@! TO.C,R34*
X39490000Y24980000D03*
X37790000Y24980000D03*
G04 #@! TD*
D19*
G04 #@! TO.C,JA1*
X57542000Y91376192D03*
D20*
X55002000Y91376192D03*
X57542000Y88836192D03*
X55002000Y88836192D03*
X57542000Y86296192D03*
X55002000Y86296192D03*
X57542000Y83756192D03*
X55002000Y83756192D03*
X57542000Y81216192D03*
X55002000Y81216192D03*
G04 #@! TD*
D17*
G04 #@! TO.C,R31*
X21300000Y78960000D03*
X23000000Y78960000D03*
G04 #@! TD*
D22*
G04 #@! TO.C,U2*
X14310000Y13985000D03*
X14310000Y14635000D03*
X14310000Y15285000D03*
X14310000Y15935000D03*
X8410000Y15935000D03*
X8410000Y15285000D03*
X8410000Y14635000D03*
X8410000Y13985000D03*
G04 #@! TD*
D17*
G04 #@! TO.C,R7*
X19010000Y32660000D03*
X19010000Y34360000D03*
G04 #@! TD*
D23*
G04 #@! TO.C,U3*
X46410000Y78900000D03*
D24*
X47910000Y79046500D03*
D25*
X47910000Y80303800D03*
D26*
X47910000Y81713500D03*
D27*
X47910000Y83047000D03*
D23*
X49410000Y78900000D03*
G04 #@! TD*
D17*
G04 #@! TO.C,C12*
X64940000Y54950000D03*
X63240000Y54950000D03*
G04 #@! TD*
G04 #@! TO.C,C16*
X58740000Y103210000D03*
X58740000Y101510000D03*
G04 #@! TD*
G04 #@! TO.C,R11*
X61500000Y56380000D03*
X59800000Y56380000D03*
G04 #@! TD*
G04 #@! TO.C,R10*
X63870000Y47690000D03*
X65570000Y47690000D03*
G04 #@! TD*
G04 #@! TO.C,R15*
X19640000Y12470000D03*
X21340000Y12470000D03*
G04 #@! TD*
G04 #@! TO.C,C11*
X17980000Y14230000D03*
X17980000Y12530000D03*
G04 #@! TD*
G04 #@! TO.C,R18*
X41890000Y94110000D03*
X40190000Y94110000D03*
G04 #@! TD*
D19*
G04 #@! TO.C,JB1*
X60352002Y30026200D03*
D20*
X60352002Y32566200D03*
X57812002Y30026200D03*
X57812002Y32566200D03*
X55272002Y30026200D03*
X55272002Y32566200D03*
X52732002Y30026200D03*
X52732002Y32566200D03*
X50192002Y30026200D03*
X50192002Y32566200D03*
G04 #@! TD*
D17*
G04 #@! TO.C,R8*
X67380000Y49400000D03*
X65680000Y49400000D03*
G04 #@! TD*
G04 #@! TO.C,C3*
X61570000Y51420000D03*
X61570000Y53120000D03*
G04 #@! TD*
D19*
G04 #@! TO.C,JD1*
X29541980Y91376192D03*
D20*
X27001980Y91376192D03*
X29541980Y88836192D03*
X27001980Y88836192D03*
X29541980Y86296192D03*
X27001980Y86296192D03*
X29541980Y83756192D03*
X27001980Y83756192D03*
X29541980Y81216192D03*
X27001980Y81216192D03*
G04 #@! TD*
D17*
G04 #@! TO.C,R3*
X32530000Y39270000D03*
X32530000Y37570000D03*
G04 #@! TD*
G04 #@! TO.C,C10*
X55180000Y44410000D03*
X56880000Y44410000D03*
G04 #@! TD*
D28*
G04 #@! TO.C,J10*
X55164000Y23332764D03*
X44191200Y23332764D03*
X46604200Y23332764D03*
G04 #@! TD*
D29*
G04 #@! TO.C,Bank_But1*
X69950000Y104132764D03*
X63450000Y104132764D03*
X69950000Y99632764D03*
X63450000Y99632764D03*
D30*
X67600000Y104782764D03*
X65800000Y104782764D03*
X65800000Y98982764D03*
X67600000Y98982764D03*
G04 #@! TD*
D31*
G04 #@! TO.C,SD1*
X40630000Y76850249D03*
X41729820Y77950069D03*
X40630000Y79050143D03*
X41729820Y80149963D03*
X40630000Y81250037D03*
X41729820Y82349857D03*
X40630000Y83449931D03*
X41729820Y84549751D03*
D32*
X37460080Y76407400D03*
X37460080Y84992600D03*
G04 #@! TD*
D33*
G04 #@! TO.C,POT_LENGTH1*
X31300000Y47866000D03*
X26300000Y47866000D03*
X21300000Y47866000D03*
G04 #@! TD*
D28*
G04 #@! TO.C,J2*
X35057000Y39132764D03*
X24084200Y39132764D03*
X26497200Y39132764D03*
G04 #@! TD*
D33*
G04 #@! TO.C,POT_PITCH1*
X71900000Y67453764D03*
X66900000Y67453764D03*
X61900000Y67453764D03*
G04 #@! TD*
D28*
G04 #@! TO.C,J7*
X33277000Y7907764D03*
X22304200Y7907764D03*
X24717200Y7907764D03*
G04 #@! TD*
G04 #@! TO.C,J6*
X13482000Y23332764D03*
X2509200Y23332764D03*
X4922200Y23332764D03*
G04 #@! TD*
G04 #@! TO.C,J4*
X61193000Y39132764D03*
X72165800Y39132764D03*
X69752800Y39132764D03*
G04 #@! TD*
D29*
G04 #@! TO.C,REV_BUT1*
X14550000Y104132764D03*
X8050000Y104132764D03*
X14550000Y99632764D03*
X8050000Y99632764D03*
D30*
X12200000Y104782764D03*
X10400000Y104782764D03*
X10400000Y98982764D03*
X12200000Y98982764D03*
G04 #@! TD*
D28*
G04 #@! TO.C,J5*
X13482000Y7907764D03*
X2509200Y7907764D03*
X4922200Y7907764D03*
G04 #@! TD*
G04 #@! TO.C,J9*
X55137000Y7907764D03*
X44164200Y7907764D03*
X46577200Y7907764D03*
G04 #@! TD*
G04 #@! TO.C,J8*
X74932000Y23332764D03*
X63959200Y23332764D03*
X66372200Y23332764D03*
G04 #@! TD*
G04 #@! TO.C,J1*
X53282000Y39132764D03*
X42309200Y39132764D03*
X44722200Y39132764D03*
G04 #@! TD*
G04 #@! TO.C,J11*
X74932000Y7907764D03*
X63959200Y7907764D03*
X66372200Y7907764D03*
G04 #@! TD*
G04 #@! TO.C,J13*
X33250000Y23332764D03*
X22277200Y23332764D03*
X24690200Y23332764D03*
G04 #@! TD*
D33*
G04 #@! TO.C,POT_START1*
X56700000Y47821681D03*
X51700000Y47821681D03*
X46700000Y47821681D03*
G04 #@! TD*
D29*
G04 #@! TO.C,PLAY_BUT1*
X41996000Y101857764D03*
X36004000Y101857764D03*
X41996000Y97357764D03*
X36004000Y97357764D03*
D30*
X39900000Y102507764D03*
X38100000Y102507764D03*
X38100000Y96707764D03*
X39900000Y96707764D03*
G04 #@! TD*
D33*
G04 #@! TO.C,POT_SAMP1*
X16100000Y67453764D03*
X11100000Y67453764D03*
X6100000Y67453764D03*
G04 #@! TD*
D28*
G04 #@! TO.C,J3*
X16882000Y39132764D03*
X5909200Y39132764D03*
X8322200Y39132764D03*
G04 #@! TD*
M02*
