G04 #@! TF.GenerationSoftware,KiCad,Pcbnew,8.0.5*
G04 #@! TF.CreationDate,2024-10-08T11:29:37-07:00*
G04 #@! TF.ProjectId,Sampler-built,53616d70-6c65-4722-9d62-75696c742e6b,rev?*
G04 #@! TF.SameCoordinates,PX815dad0PY77b6f90*
G04 #@! TF.FileFunction,Copper,L4,Bot*
G04 #@! TF.FilePolarity,Positive*
%FSLAX46Y46*%
G04 Gerber Fmt 4.6, Leading zero omitted, Abs format (unit mm)*
G04 Created by KiCad (PCBNEW 8.0.5) date 2024-10-08 11:29:37*
%MOMM*%
%LPD*%
G01*
G04 APERTURE LIST*
G04 Aperture macros list*
%AMRoundRect*
0 Rectangle with rounded corners*
0 $1 Rounding radius*
0 $2 $3 $4 $5 $6 $7 $8 $9 X,Y pos of 4 corners*
0 Add a 4 corners polygon primitive as box body*
4,1,4,$2,$3,$4,$5,$6,$7,$8,$9,$2,$3,0*
0 Add four circle primitives for the rounded corners*
1,1,$1+$1,$2,$3*
1,1,$1+$1,$4,$5*
1,1,$1+$1,$6,$7*
1,1,$1+$1,$8,$9*
0 Add four rect primitives between the rounded corners*
20,1,$1+$1,$2,$3,$4,$5,0*
20,1,$1+$1,$4,$5,$6,$7,0*
20,1,$1+$1,$6,$7,$8,$9,0*
20,1,$1+$1,$8,$9,$2,$3,0*%
G04 Aperture macros list end*
G04 #@! TA.AperFunction,ComponentPad*
%ADD10C,1.700000*%
G04 #@! TD*
G04 #@! TA.AperFunction,ComponentPad*
%ADD11O,1.700000X1.700000*%
G04 #@! TD*
G04 #@! TA.AperFunction,ComponentPad*
%ADD12R,1.700000X1.700000*%
G04 #@! TD*
G04 #@! TA.AperFunction,ComponentPad*
%ADD13C,1.930400*%
G04 #@! TD*
G04 #@! TA.AperFunction,SMDPad,CuDef*
%ADD14RoundRect,0.147500X-0.172500X0.147500X-0.172500X-0.147500X0.172500X-0.147500X0.172500X0.147500X0*%
G04 #@! TD*
G04 #@! TA.AperFunction,ComponentPad*
%ADD15C,1.600000*%
G04 #@! TD*
G04 #@! TA.AperFunction,ComponentPad*
%ADD16C,1.300000*%
G04 #@! TD*
G04 #@! TA.AperFunction,ComponentPad*
%ADD17O,1.397000X1.092200*%
G04 #@! TD*
G04 #@! TA.AperFunction,ComponentPad*
%ADD18O,1.524000X1.524000*%
G04 #@! TD*
G04 #@! TA.AperFunction,SMDPad,CuDef*
%ADD19R,1.000000X1.000000*%
G04 #@! TD*
G04 #@! TA.AperFunction,ComponentPad*
%ADD20C,2.286000*%
G04 #@! TD*
G04 #@! TA.AperFunction,SMDPad,CuDef*
%ADD21RoundRect,0.147500X0.172500X-0.147500X0.172500X0.147500X-0.172500X0.147500X-0.172500X-0.147500X0*%
G04 #@! TD*
G04 #@! TA.AperFunction,SMDPad,CuDef*
%ADD22RoundRect,0.147500X0.017678X-0.226274X0.226274X-0.017678X-0.017678X0.226274X-0.226274X0.017678X0*%
G04 #@! TD*
G04 #@! TA.AperFunction,ViaPad*
%ADD23C,0.400000*%
G04 #@! TD*
G04 #@! TA.AperFunction,Conductor*
%ADD24C,0.203200*%
G04 #@! TD*
G04 #@! TA.AperFunction,Conductor*
%ADD25C,0.127000*%
G04 #@! TD*
G04 #@! TA.AperFunction,Conductor*
%ADD26C,0.100000*%
G04 #@! TD*
G04 #@! TA.AperFunction,Conductor*
%ADD27C,0.200000*%
G04 #@! TD*
G04 APERTURE END LIST*
D10*
G04 #@! TO.P,J4,1,Pin_1*
G04 #@! TO.N,/UART_TX*
X27646648Y91469922D03*
G04 #@! TO.P,J4,2,Pin_2*
G04 #@! TO.N,GND*
X27646648Y94009922D03*
D11*
G04 #@! TO.P,J4,3,Pin_3*
G04 #@! TO.N,/UART_RX*
X30186648Y91469922D03*
G04 #@! TO.P,J4,4,Pin_4*
G04 #@! TO.N,GND*
X30186648Y94009922D03*
G04 #@! TO.P,J4,5,Pin_5*
G04 #@! TO.N,/DEBUG2*
X32726648Y91469922D03*
G04 #@! TO.P,J4,6,Pin_6*
G04 #@! TO.N,GND*
X32726648Y94009922D03*
D10*
G04 #@! TO.P,J4,7,Pin_7*
G04 #@! TO.N,/DEBUG3*
X35266648Y91469922D03*
G04 #@! TO.P,J4,8,Pin_8*
G04 #@! TO.N,GND*
X35266648Y94009922D03*
G04 #@! TD*
D12*
G04 #@! TO.P,J3,1,Pin_1*
G04 #@! TO.N,+3V3*
X57226648Y80469922D03*
D11*
G04 #@! TO.P,J3,2,Pin_2*
G04 #@! TO.N,/SWDCLK*
X57226648Y77929922D03*
G04 #@! TO.P,J3,3,Pin_3*
G04 #@! TO.N,GND*
X57226648Y75389922D03*
G04 #@! TO.P,J3,4,Pin_4*
G04 #@! TO.N,/SWDIO*
X57226648Y72849922D03*
G04 #@! TD*
G04 #@! TO.P,J10,10,+12V*
G04 #@! TO.N,Net-(D16-A)*
X14936648Y23659922D03*
G04 #@! TO.P,J10,9,+12V*
X17476648Y23659922D03*
G04 #@! TO.P,J10,8,GND*
G04 #@! TO.N,GND*
X14936648Y21119922D03*
G04 #@! TO.P,J10,7,GND*
X17476648Y21119922D03*
G04 #@! TO.P,J10,6,GND*
X14936648Y18579922D03*
G04 #@! TO.P,J10,5,GND*
X17476648Y18579922D03*
G04 #@! TO.P,J10,4,GND*
X14936648Y16039922D03*
G04 #@! TO.P,J10,3,GND*
X17476648Y16039922D03*
G04 #@! TO.P,J10,2,-12V*
G04 #@! TO.N,Net-(D17-K)*
X14936648Y13499922D03*
G04 #@! TO.P,J10,1,-12V*
X17476648Y13499922D03*
G04 #@! TD*
D13*
G04 #@! TO.P,J12,1,SIG*
G04 #@! TO.N,Net-(J12-SIG)*
X8608648Y27146922D03*
G04 #@! TO.P,J12,2,SHEILD*
G04 #@! TO.N,GND*
X8608648Y16174122D03*
G04 #@! TO.P,J12,3,SW*
X8608648Y18587122D03*
G04 #@! TD*
G04 #@! TO.P,J17,1,SIG*
G04 #@! TO.N,Net-(J17-SIG)*
X36800848Y1687362D03*
G04 #@! TO.P,J17,2,SHEILD*
G04 #@! TO.N,GND*
X36800848Y12660162D03*
G04 #@! TO.P,J17,3,SW*
G04 #@! TO.N,unconnected-(J17-SW-Pad3)*
X36800848Y10247162D03*
G04 #@! TD*
G04 #@! TO.P,J16,1,SIG*
G04 #@! TO.N,Net-(J16-SIG)*
X52300848Y1687362D03*
G04 #@! TO.P,J16,2,SHEILD*
G04 #@! TO.N,GND*
X52300848Y12660162D03*
G04 #@! TO.P,J16,3,SW*
G04 #@! TO.N,unconnected-(J16-SW-Pad3)*
X52300848Y10247162D03*
G04 #@! TD*
D14*
G04 #@! TO.P,C30,1*
G04 #@! TO.N,+3V3*
X30766648Y43444922D03*
G04 #@! TO.P,C30,2*
G04 #@! TO.N,GND*
X30766648Y42474922D03*
G04 #@! TD*
D15*
G04 #@! TO.P,Bank_But1,1,UP-A*
G04 #@! TO.N,unconnected-(Bank_But1-UP-A-Pad1)*
X53008648Y104839922D03*
G04 #@! TO.P,Bank_But1,2,POLE-A*
G04 #@! TO.N,Net-(Bank_But1-POLE-A)*
X46508648Y104839922D03*
G04 #@! TO.P,Bank_But1,3,DOWN-A*
G04 #@! TO.N,unconnected-(Bank_But1-DOWN-A-Pad3)*
X53008648Y100339922D03*
G04 #@! TO.P,Bank_But1,4,UP-B*
G04 #@! TO.N,GND*
X46508648Y100339922D03*
D16*
G04 #@! TO.P,Bank_But1,5,CA*
G04 #@! TO.N,+3V3*
X50658648Y105489922D03*
G04 #@! TO.P,Bank_But1,6,G*
G04 #@! TO.N,Net-(Bank_But1-G)*
X48858648Y105489922D03*
G04 #@! TO.P,Bank_But1,7,R*
G04 #@! TO.N,Net-(Bank_But1-R)*
X48858648Y99689922D03*
G04 #@! TO.P,Bank_But1,8,B*
G04 #@! TO.N,Net-(Bank_But1-B)*
X50658648Y99689922D03*
G04 #@! TD*
D17*
G04 #@! TO.P,SD1,1,DAT2*
G04 #@! TO.N,/D18*
X31946648Y79490171D03*
G04 #@! TO.P,SD1,2,CD/DAT3*
G04 #@! TO.N,/D19*
X33046468Y80589991D03*
G04 #@! TO.P,SD1,3,CMD*
G04 #@! TO.N,/D4*
X31946648Y81690065D03*
G04 #@! TO.P,SD1,4,VDD*
G04 #@! TO.N,+3V3*
X33046468Y82789885D03*
G04 #@! TO.P,SD1,5,CLK*
G04 #@! TO.N,/D9*
X31946648Y83889959D03*
G04 #@! TO.P,SD1,6,VSS*
G04 #@! TO.N,GND*
X33046468Y84989779D03*
G04 #@! TO.P,SD1,7,DAT0*
G04 #@! TO.N,/D16*
X31946648Y86089853D03*
G04 #@! TO.P,SD1,8,DAT1*
G04 #@! TO.N,/D17*
X33046468Y87189673D03*
D18*
G04 #@! TO.P,SD1,9,SHELL1*
G04 #@! TO.N,GND*
X28776728Y79047322D03*
G04 #@! TO.P,SD1,10,SHELL2*
X28776728Y87632522D03*
G04 #@! TD*
D19*
G04 #@! TO.P,C4,1*
G04 #@! TO.N,Net-(U2B-VCAP_1)*
X30980148Y63566600D03*
G04 #@! TO.P,C4,2*
G04 #@! TO.N,GND*
X30980148Y65266600D03*
G04 #@! TD*
D20*
G04 #@! TO.P,POT_LENGTH1,1,Left*
G04 #@! TO.N,GNDADC*
X15508648Y48985922D03*
G04 #@! TO.P,POT_LENGTH1,2,Center*
G04 #@! TO.N,Net-(POT_LENGTH1-Center)*
X10508648Y48985922D03*
G04 #@! TO.P,POT_LENGTH1,3,Right*
G04 #@! TO.N,VREF+*
X5508648Y48985922D03*
G04 #@! TD*
D13*
G04 #@! TO.P,J2,1,SIG*
G04 #@! TO.N,Net-(J2-SIG)*
X36636648Y42146922D03*
G04 #@! TO.P,J2,2,SHEILD*
G04 #@! TO.N,GND*
X36636648Y31174122D03*
G04 #@! TO.P,J2,3,SW*
X36636648Y33587122D03*
G04 #@! TD*
D20*
G04 #@! TO.P,POT_PITCH1,1,Left*
G04 #@! TO.N,GNDADC*
X52136648Y74985922D03*
G04 #@! TO.P,POT_PITCH1,2,Center*
G04 #@! TO.N,Net-(POT_PITCH1-Center)*
X47136648Y74985922D03*
G04 #@! TO.P,POT_PITCH1,3,Right*
G04 #@! TO.N,VREF+*
X42136648Y74985922D03*
G04 #@! TD*
D13*
G04 #@! TO.P,J7,1,SIG*
G04 #@! TO.N,Net-(J7-SIG)*
X13815648Y36939922D03*
G04 #@! TO.P,J7,2,SHEILD*
G04 #@! TO.N,GND*
X2842848Y36939922D03*
G04 #@! TO.P,J7,3,SW*
X5255848Y36939922D03*
G04 #@! TD*
D14*
G04 #@! TO.P,C32,1*
G04 #@! TO.N,+3V3*
X29054076Y43659376D03*
G04 #@! TO.P,C32,2*
G04 #@! TO.N,GND*
X29054076Y42689376D03*
G04 #@! TD*
D13*
G04 #@! TO.P,J6,1,SIG*
G04 #@! TO.N,Net-(J6-SIG)*
X29343648Y36939922D03*
G04 #@! TO.P,J6,2,SHEILD*
G04 #@! TO.N,GND*
X18370848Y36939922D03*
G04 #@! TO.P,J6,3,SW*
X20783848Y36939922D03*
G04 #@! TD*
G04 #@! TO.P,J15,1,SIG*
G04 #@! TO.N,Net-(J15-SIG)*
X24136648Y1732922D03*
G04 #@! TO.P,J15,2,SHEILD*
G04 #@! TO.N,GND*
X24136648Y12705722D03*
G04 #@! TO.P,J15,3,SW*
G04 #@! TO.N,unconnected-(J15-SW-Pad3)*
X24136648Y10292722D03*
G04 #@! TD*
D15*
G04 #@! TO.P,REV_BUT1,1,UP-A*
G04 #@! TO.N,unconnected-(REV_BUT1-UP-A-Pad1)*
X14136648Y104839922D03*
G04 #@! TO.P,REV_BUT1,2,POLE-A*
G04 #@! TO.N,Net-(REV_BUT1-POLE-A)*
X7636648Y104839922D03*
G04 #@! TO.P,REV_BUT1,3,DOWN-A*
G04 #@! TO.N,unconnected-(REV_BUT1-DOWN-A-Pad3)*
X14136648Y100339922D03*
G04 #@! TO.P,REV_BUT1,4,UP-B*
G04 #@! TO.N,GND*
X7636648Y100339922D03*
D16*
G04 #@! TO.P,REV_BUT1,5,CA*
G04 #@! TO.N,+3V3*
X11786648Y105489922D03*
G04 #@! TO.P,REV_BUT1,6,G*
G04 #@! TO.N,Net-(REV_BUT1-G)*
X9986648Y105489922D03*
G04 #@! TO.P,REV_BUT1,7,R*
G04 #@! TO.N,Net-(REV_BUT1-R)*
X9986648Y99689922D03*
G04 #@! TO.P,REV_BUT1,8,B*
G04 #@! TO.N,Net-(REV_BUT1-B)*
X11786648Y99689922D03*
G04 #@! TD*
D14*
G04 #@! TO.P,C28,1*
G04 #@! TO.N,+3V3*
X29489940Y46215632D03*
G04 #@! TO.P,C28,2*
G04 #@! TO.N,GND*
X29489940Y45245632D03*
G04 #@! TD*
D21*
G04 #@! TO.P,C33,1*
G04 #@! TO.N,+3V3*
X28473940Y46010680D03*
G04 #@! TO.P,C33,2*
G04 #@! TO.N,GND*
X28473940Y46980680D03*
G04 #@! TD*
D13*
G04 #@! TO.P,J9,1,SIG*
G04 #@! TO.N,Net-(J9-SIG)*
X24136648Y27146922D03*
G04 #@! TO.P,J9,2,SHEILD*
G04 #@! TO.N,GND*
X24136648Y16174122D03*
G04 #@! TO.P,J9,3,SW*
X24136648Y18587122D03*
G04 #@! TD*
G04 #@! TO.P,J8,1,SIG*
G04 #@! TO.N,Net-(J8-SIG)*
X46929648Y36939922D03*
G04 #@! TO.P,J8,2,SHEILD*
G04 #@! TO.N,GND*
X57902448Y36939922D03*
G04 #@! TO.P,J8,3,SW*
X55489448Y36939922D03*
G04 #@! TD*
G04 #@! TO.P,J11,1,SIG*
G04 #@! TO.N,Net-(J11-SIG)*
X8608648Y1732922D03*
G04 #@! TO.P,J11,2,SHEILD*
G04 #@! TO.N,GND*
X8608648Y12705722D03*
G04 #@! TO.P,J11,3,SW*
X8608648Y10292722D03*
G04 #@! TD*
G04 #@! TO.P,J13,1,SIG*
G04 #@! TO.N,Net-(J13-SIG)*
X46929648Y21939922D03*
G04 #@! TO.P,J13,2,SHEILD*
G04 #@! TO.N,GND*
X57902448Y21939922D03*
G04 #@! TO.P,J13,3,SW*
X55489448Y21939922D03*
G04 #@! TD*
D20*
G04 #@! TO.P,POT_START1,1,Left*
G04 #@! TO.N,GNDADC*
X55136648Y48985922D03*
G04 #@! TO.P,POT_START1,2,Center*
G04 #@! TO.N,Net-(POT_START1-Center)*
X50136648Y48985922D03*
G04 #@! TO.P,POT_START1,3,Right*
G04 #@! TO.N,VREF+*
X45136648Y48985922D03*
G04 #@! TD*
D13*
G04 #@! TO.P,J14,1,SIG*
G04 #@! TO.N,Net-(J14-SIG)*
X41843648Y21939922D03*
G04 #@! TO.P,J14,2,SHEILD*
G04 #@! TO.N,GND*
X30870848Y21939922D03*
G04 #@! TO.P,J14,3,SW*
X33283848Y21939922D03*
G04 #@! TD*
D15*
G04 #@! TO.P,PLAY_BUT1,1,UP-A*
G04 #@! TO.N,unconnected-(PLAY_BUT1-UP-A-Pad1)*
X33322648Y102739922D03*
G04 #@! TO.P,PLAY_BUT1,2,POLE-A*
G04 #@! TO.N,Net-(PLAY_BUT1-POLE-A)*
X27330648Y102739922D03*
G04 #@! TO.P,PLAY_BUT1,3,DOWN-A*
G04 #@! TO.N,unconnected-(PLAY_BUT1-DOWN-A-Pad3)*
X33322648Y98239922D03*
G04 #@! TO.P,PLAY_BUT1,4,UP-B*
G04 #@! TO.N,GND*
X27330648Y98239922D03*
D16*
G04 #@! TO.P,PLAY_BUT1,5,CA*
G04 #@! TO.N,+3V3*
X31226648Y103389922D03*
G04 #@! TO.P,PLAY_BUT1,6,G*
G04 #@! TO.N,Net-(PLAY_BUT1-G)*
X29426648Y103389922D03*
G04 #@! TO.P,PLAY_BUT1,7,R*
G04 #@! TO.N,Net-(PLAY_BUT1-R)*
X29426648Y97589922D03*
G04 #@! TO.P,PLAY_BUT1,8,B*
G04 #@! TO.N,Net-(PLAY_BUT1-B)*
X31226648Y97589922D03*
G04 #@! TD*
D22*
G04 #@! TO.P,C27,1*
G04 #@! TO.N,+3V3*
X29617201Y48143653D03*
G04 #@! TO.P,C27,2*
G04 #@! TO.N,GND*
X30303095Y48829547D03*
G04 #@! TD*
D21*
G04 #@! TO.P,C31,1*
G04 #@! TO.N,+3V3*
X28094972Y42746272D03*
G04 #@! TO.P,C31,2*
G04 #@! TO.N,GND*
X28094972Y43716272D03*
G04 #@! TD*
D20*
G04 #@! TO.P,POT_SAMP1,1,Left*
G04 #@! TO.N,GNDADC*
X18440000Y75166000D03*
G04 #@! TO.P,POT_SAMP1,2,Center*
G04 #@! TO.N,Net-(POT_SAMP1-Center)*
X13440000Y75166000D03*
G04 #@! TO.P,POT_SAMP1,3,Right*
G04 #@! TO.N,VREF+*
X8440000Y75166000D03*
G04 #@! TD*
D23*
G04 #@! TO.N,-12VA*
X9760000Y2820000D03*
X2240000Y48070000D03*
G04 #@! TO.N,GND*
X21350000Y7030000D03*
G04 #@! TO.N,-12VA*
X31340000Y1140000D03*
X22320000Y3380000D03*
G04 #@! TO.N,GND*
X11220000Y6490000D03*
X11990000Y4260000D03*
G04 #@! TO.N,+12V*
X57850000Y29780000D03*
G04 #@! TO.N,GND*
X25350000Y7030000D03*
X13100000Y10030000D03*
G04 #@! TO.N,+12V*
X9441600Y35777646D03*
X18100000Y30280000D03*
X7371600Y36030000D03*
X7308400Y37780000D03*
G04 #@! TO.N,GND*
X7290000Y62140000D03*
X32467073Y63488450D03*
X7760000Y59100000D03*
X35126648Y34659922D03*
X9986648Y55659922D03*
X14759685Y66760315D03*
X8696570Y55650000D03*
X6631700Y59078300D03*
X42716648Y11619922D03*
X27660000Y71480000D03*
X6660000Y67260000D03*
X29041884Y46717168D03*
X29160149Y55583849D03*
X38466648Y12949922D03*
X9130000Y59040000D03*
X49426648Y40839922D03*
X33592383Y25926500D03*
X27894820Y44282832D03*
X30226648Y34329922D03*
X48466648Y58979922D03*
X49576648Y43979922D03*
X11716648Y56849922D03*
X31330148Y64426600D03*
X39126648Y61129922D03*
X20126500Y60460000D03*
X3676648Y106989922D03*
X31176648Y7579922D03*
X27261648Y31269922D03*
X4929601Y46089769D03*
X36130000Y66950000D03*
X15696648Y57199922D03*
X25786648Y106889922D03*
X51946648Y18769922D03*
X6830000Y71790000D03*
X30846648Y2964922D03*
X38646648Y65139922D03*
X9366648Y55639922D03*
X33624273Y43481587D03*
X8460000Y59170000D03*
X52326648Y26119922D03*
X30131798Y45185040D03*
X29410753Y43104582D03*
X22110000Y66190000D03*
X13056648Y86204922D03*
X50140000Y59620000D03*
X7340000Y62940000D03*
X43630000Y51810000D03*
X50456648Y18689922D03*
X31377148Y51676600D03*
X22086562Y61579836D03*
X6051700Y59108300D03*
X44280000Y55100000D03*
X5386648Y58759922D03*
X28850148Y48386600D03*
X50870000Y57744922D03*
X47607148Y52040000D03*
G04 #@! TO.N,+3V3*
X31530148Y69936600D03*
X23570148Y66686600D03*
X23536648Y36209922D03*
X29220148Y58966600D03*
X8370000Y60310000D03*
X23080000Y82960000D03*
X37830612Y60045497D03*
X25257284Y43948568D03*
X26702208Y70726780D03*
X23280000Y77320000D03*
X7371600Y42200000D03*
X30015212Y45721488D03*
X31376648Y52496600D03*
X28816112Y45286010D03*
X15366648Y53079922D03*
X12240000Y44740000D03*
X7780000Y60250000D03*
X47460000Y47780000D03*
X29180148Y47686600D03*
X6890000Y60360000D03*
X5431700Y60438300D03*
X9100000Y60300000D03*
X7960000Y52910000D03*
X25566148Y50583048D03*
X6121700Y60408300D03*
X53230000Y34280000D03*
X35310148Y63326600D03*
X25766648Y41249922D03*
X48494510Y35919637D03*
X27450148Y42996600D03*
X44510000Y36380000D03*
X29763498Y43751210D03*
G04 #@! TO.N,/A4*
X21890000Y45390000D03*
X7371600Y39500000D03*
G04 #@! TO.N,GNDADC*
X43421522Y46281522D03*
X41999998Y46600000D03*
G04 #@! TO.N,/A5*
X22566648Y37389922D03*
X23056648Y30950422D03*
X19156648Y42829922D03*
X21330000Y45750000D03*
G04 #@! TO.N,+12V*
X50850000Y58422531D03*
X47606648Y58739922D03*
X10256648Y70999922D03*
X33056648Y24199922D03*
X38546648Y21829922D03*
X51546648Y23049922D03*
X41436648Y4899922D03*
X41966648Y11719922D03*
X25916648Y7999922D03*
X11806648Y82929922D03*
X23546648Y29199922D03*
X4125000Y72530000D03*
X9326648Y54599922D03*
X51134148Y45879922D03*
X10859257Y45077313D03*
G04 #@! TO.N,-12VA*
X11670000Y86830000D03*
X43916648Y9679922D03*
X47346648Y14909922D03*
X43536648Y39099922D03*
X33986648Y10699922D03*
X30236648Y32109922D03*
X42446648Y12669922D03*
X45056648Y9109922D03*
X46740000Y51910000D03*
X33056648Y13299922D03*
X8610000Y88020000D03*
X30036648Y29739922D03*
G04 #@! TO.N,/A2*
X21945316Y40095314D03*
X22330000Y44040000D03*
G04 #@! TO.N,/A7*
X20380000Y84010000D03*
X21090000Y69050000D03*
X23510000Y59820000D03*
X21426500Y75230000D03*
G04 #@! TO.N,/A6*
X23620148Y64996600D03*
X26780000Y88520000D03*
X26019346Y60235598D03*
X25324993Y64806600D03*
G04 #@! TO.N,/D6*
X41606648Y57489922D03*
X42577800Y100236803D03*
G04 #@! TO.N,/D8*
X17370000Y59380000D03*
X33984612Y45645009D03*
X35078011Y56989600D03*
X17376648Y48089922D03*
X22480000Y95780000D03*
X17430000Y51480000D03*
G04 #@! TO.N,/A9*
X21850000Y57180000D03*
X21052493Y66026180D03*
G04 #@! TO.N,/D15*
X31970000Y26390000D03*
X38800000Y36960000D03*
X38580000Y38830000D03*
X41290000Y56343500D03*
X34170148Y56206600D03*
X31580004Y62206644D03*
G04 #@! TO.N,/D13*
X37980000Y38810000D03*
X31820000Y61559241D03*
X38270000Y36960000D03*
X11166648Y22769922D03*
G04 #@! TO.N,VREF+*
X20760000Y58820000D03*
X5650000Y66590000D03*
X42950000Y45590000D03*
X6640000Y66380000D03*
X41860000Y46010000D03*
X22810000Y59850000D03*
G04 #@! TO.N,/D11*
X40076648Y60299922D03*
X36188769Y70962043D03*
X34390000Y70990000D03*
X35326648Y81209922D03*
G04 #@! TO.N,/D10*
X21820000Y99699922D03*
X40696648Y59739922D03*
G04 #@! TO.N,/D14*
X36966648Y81799922D03*
X34160000Y85480000D03*
X36164039Y81027313D03*
X35212341Y62598793D03*
G04 #@! TO.N,/D12*
X37293648Y82329922D03*
X37900000Y67990000D03*
X34670148Y64316600D03*
X37456648Y68939922D03*
G04 #@! TO.N,/D0*
X46560000Y94840000D03*
X38956500Y70132256D03*
G04 #@! TO.N,/D1*
X30330000Y77130000D03*
X38460000Y92390000D03*
X23660000Y69100000D03*
X27820000Y77043000D03*
X37536500Y90450000D03*
X43670000Y95430000D03*
G04 #@! TO.N,/D3*
X22851420Y93542248D03*
X34576648Y66219922D03*
X21426500Y78140000D03*
X35790148Y78150000D03*
G04 #@! TO.N,GND*
X18615703Y13066500D03*
X42060000Y61500000D03*
X35401468Y63937921D03*
X39866648Y62059922D03*
G04 #@! TO.N,/D5*
X52190000Y96380000D03*
X40144998Y68684998D03*
G04 #@! TO.N,/D19*
X32493699Y67376471D03*
G04 #@! TO.N,/D18*
X36646648Y68609922D03*
X37220148Y78840000D03*
G04 #@! TO.N,/D7*
X33128407Y58943681D03*
X18026648Y47499922D03*
X33514104Y45272685D03*
X15120000Y45620000D03*
X3060000Y86560000D03*
X3060000Y88670000D03*
G04 #@! TO.N,/D17*
X33137911Y64188837D03*
G04 #@! TO.N,/D16*
X35810000Y83590000D03*
X33780148Y64166600D03*
X35110000Y79850000D03*
G04 #@! TO.N,/D9*
X32186648Y68539922D03*
G04 #@! TO.N,/A0*
X22266648Y49319922D03*
X28130000Y30549922D03*
X23030000Y43440000D03*
X26625255Y60266600D03*
G04 #@! TO.N,/A1*
X23032904Y56583666D03*
X21190000Y67380000D03*
G04 #@! TO.N,/A3*
X20840000Y60920000D03*
X54260000Y65440000D03*
X50820000Y66640000D03*
X21410000Y74040000D03*
G04 #@! TO.N,/A8*
X16570000Y41620000D03*
X21330000Y51770000D03*
X22220000Y53900000D03*
X24520000Y61020000D03*
G04 #@! TO.N,Net-(J2-SIG)*
X36650000Y38690000D03*
G04 #@! TO.N,Net-(C46-Pad1)*
X45940000Y55760000D03*
X54590000Y44050000D03*
G04 #@! TO.N,Net-(POT_LENGTH1-Center)*
X16680000Y69390000D03*
G04 #@! TO.N,Net-(REV_BUT1-R)*
X7480000Y97490000D03*
G04 #@! TO.N,/D4*
X32440148Y66076600D03*
G04 #@! TO.N,/VCOM*
X53026648Y15709922D03*
X47896648Y20419922D03*
X34996648Y20779922D03*
G04 #@! TO.N,GNDA*
X41396648Y14359922D03*
X49906648Y21819922D03*
X49496648Y11089922D03*
X44116648Y14189922D03*
G04 #@! TO.N,Net-(U2B-VCAP_1)*
X30052594Y61439046D03*
G04 #@! TO.N,+3.3VADC*
X22130000Y58500000D03*
X14324685Y66015315D03*
X18630000Y61340000D03*
X13250000Y66930000D03*
G04 #@! TO.N,/BOOT0*
X28040148Y65416600D03*
X28610000Y71660000D03*
G04 #@! TO.N,Net-(C152-Pad1)*
X41416648Y9909922D03*
X37776648Y5439922D03*
G04 #@! TO.N,Net-(C152-Pad2)*
X37876648Y8999922D03*
X37176648Y4429922D03*
G04 #@! TO.N,Net-(C153-Pad1)*
X46456648Y3999922D03*
X49606648Y6419922D03*
G04 #@! TO.N,Net-(C153-Pad2)*
X47526648Y7679922D03*
X45586648Y10499922D03*
G04 #@! TO.N,/SWDCLK*
X41040000Y69120000D03*
G04 #@! TO.N,/SWDIO*
X40900000Y68450000D03*
G04 #@! TO.N,/UART_TX*
X23355436Y62176342D03*
G04 #@! TO.N,/UART_RX*
X23756648Y61713342D03*
G04 #@! TO.N,/DEBUG2*
X27270148Y66116600D03*
G04 #@! TO.N,/DEBUG3*
X30090148Y69016600D03*
G04 #@! TO.N,Net-(J9-SIG)*
X11920000Y44069922D03*
X9896648Y44069922D03*
X13476648Y43839922D03*
X13368517Y41374179D03*
G04 #@! TO.N,/LOUT+*
X46768085Y13276875D03*
X45440443Y20121525D03*
G04 #@! TO.N,/LOUT-*
X46302549Y13095823D03*
X44770000Y20070000D03*
G04 #@! TO.N,Net-(U15A--)*
X45050000Y44110000D03*
X46646648Y44620000D03*
G04 #@! TO.N,/I2C1_SCL*
X52270000Y35720000D03*
X25080000Y72440000D03*
G04 #@! TO.N,/I2C1_SDA*
X48600000Y37720000D03*
X28587926Y67413227D03*
G04 #@! TO.N,/RIN*
X39096648Y21019922D03*
X51380000Y26310000D03*
G04 #@! TO.N,/SAI_SD_B*
X50966648Y35469922D03*
X23313500Y70089922D03*
G04 #@! TO.N,/SAI_MCLK*
X24525714Y70147986D03*
X49086648Y35169922D03*
G04 #@! TO.N,/SD-NBL1*
X32820148Y48136600D03*
X27930148Y67406600D03*
G04 #@! TO.N,/SD-NBL0*
X26626648Y66761634D03*
X24706648Y46559922D03*
G04 #@! TO.N,/SD-CKE1*
X31000148Y47366600D03*
X28220148Y68846600D03*
G04 #@! TO.N,/CODEC_RESET*
X53350000Y29880000D03*
X43140000Y70800000D03*
G04 #@! TO.N,/SAI_FS*
X50096648Y35649922D03*
X23946648Y70089922D03*
G04 #@! TO.N,/SAI_SCK*
X25079797Y70378194D03*
X49633148Y36706922D03*
G04 #@! TO.N,/SAI_SD_A*
X45216648Y34739922D03*
X26545162Y68750000D03*
X25980148Y66766600D03*
G04 #@! TO.N,/SD-NCAS*
X30010148Y65056600D03*
X29230148Y66756600D03*
X28630148Y65116600D03*
X28000148Y47706600D03*
G04 #@! TO.N,/SD-D2*
X34750148Y43926600D03*
X27001504Y44144801D03*
X38220000Y45670000D03*
X32475175Y64816600D03*
G04 #@! TO.N,/SD-D3*
X39646648Y62769922D03*
X25240148Y45306600D03*
X40596648Y57489922D03*
X34951969Y44758655D03*
X34230518Y70100422D03*
X39746648Y66149922D03*
X40660000Y55980000D03*
X38216648Y66799922D03*
G04 #@! TO.N,/SD-A0*
X26020441Y56233100D03*
X25938033Y65424485D03*
G04 #@! TO.N,/SD-A2*
X23739582Y55306988D03*
X25327832Y63504212D03*
G04 #@! TO.N,/SD-A1*
X26200148Y49756600D03*
X27823713Y62678745D03*
X24540148Y49836600D03*
X23249678Y53300392D03*
G04 #@! TO.N,/SD-CLK*
X30850000Y61310000D03*
X31793718Y47350078D03*
G04 #@! TO.N,/SD-A3*
X26634091Y62856225D03*
X24356582Y55499724D03*
G04 #@! TO.N,/SD-A4*
X28690328Y55256420D03*
X28604794Y53245314D03*
G04 #@! TO.N,/SD-NWE*
X27938309Y60986600D03*
X25090148Y47666600D03*
G04 #@! TO.N,/SD-A5*
X26015923Y61625332D03*
X25098336Y56673600D03*
G04 #@! TO.N,/SD-BA1*
X26199851Y48976600D03*
X29147148Y56226600D03*
X38796648Y55139922D03*
X32480148Y62206600D03*
G04 #@! TO.N,/SD-BA0*
X34586000Y54850000D03*
X32480148Y60916600D03*
X30080148Y52996600D03*
X28212231Y49192043D03*
G04 #@! TO.N,/SD-D1*
X26130148Y44216600D03*
X33776648Y61559922D03*
G04 #@! TO.N,/SD-A12*
X35449759Y61234467D03*
X32780148Y53346600D03*
X32940148Y48786600D03*
X38846648Y54029922D03*
G04 #@! TO.N,/SD-A11*
X25960148Y53396600D03*
X31030148Y48936600D03*
X29157895Y49098949D03*
X29227297Y60273838D03*
G04 #@! TO.N,/SD-NE1*
X24290148Y45076600D03*
X31799403Y60955476D03*
G04 #@! TO.N,/SD-D0*
X33137799Y60883323D03*
X26610148Y43186600D03*
G04 #@! TO.N,/SD-A7*
X31805148Y53591600D03*
X30932854Y52149306D03*
X28301309Y61406600D03*
X31038298Y49753057D03*
G04 #@! TO.N,/SD-A10*
X28584981Y59626600D03*
X24010148Y52846600D03*
G04 #@! TO.N,/SD-D10*
X35173541Y46006567D03*
X33125100Y60266600D03*
G04 #@! TO.N,/SD-D15*
X33306648Y42689922D03*
X35303774Y59034484D03*
G04 #@! TO.N,/SD-A6*
X28004168Y59012826D03*
X26311416Y55385332D03*
G04 #@! TO.N,/SD-A9*
X26388468Y54178280D03*
X28602454Y57711044D03*
G04 #@! TO.N,/SD-D5*
X25200148Y45846600D03*
X29120148Y54846600D03*
X31377148Y55006600D03*
X29874955Y58959407D03*
G04 #@! TO.N,/SD-D6*
X27010148Y46566600D03*
X30530148Y59611564D03*
X31977148Y54176600D03*
X30490148Y52546600D03*
G04 #@! TO.N,/SD-D8*
X31772344Y57384567D03*
X33166648Y49586600D03*
G04 #@! TO.N,/SD-D11*
X35036648Y45303891D03*
X31780148Y45726600D03*
X33775121Y60256600D03*
X33080172Y45521667D03*
G04 #@! TO.N,/SD-D14*
X34882955Y58099407D03*
X32606828Y44703280D03*
G04 #@! TO.N,/SD-D13*
X31806208Y44976600D03*
X33770148Y58961622D03*
G04 #@! TO.N,/SD-NRAS*
X26337018Y48084194D03*
X28149795Y56836246D03*
G04 #@! TO.N,/SD-A8*
X31909845Y49700041D03*
X29103295Y57048833D03*
G04 #@! TO.N,/SD-D4*
X28077148Y54286600D03*
X27005660Y44984066D03*
X29610148Y58116600D03*
X23510148Y47036600D03*
X30420148Y54698942D03*
X23520148Y50146600D03*
G04 #@! TO.N,/SD-D7*
X29089623Y53923600D03*
X29973148Y57596600D03*
X25213648Y46944332D03*
X31158468Y54468280D03*
G04 #@! TO.N,/SD-D9*
X31806445Y46583258D03*
X33136828Y56673280D03*
G04 #@! TO.N,/SD-D12*
X33114898Y57250030D03*
X32754241Y46205255D03*
G04 #@! TD*
D24*
G04 #@! TO.N,-12VA*
X9760000Y2820000D02*
X7190000Y5390000D01*
X7190000Y5390000D02*
X7190000Y19350000D01*
X7190000Y19350000D02*
X9843200Y22003200D01*
X9843200Y22003200D02*
X9843200Y35943995D01*
X9843200Y35943995D02*
X2240000Y43547195D01*
X2240000Y43547195D02*
X2240000Y48070000D01*
G04 #@! TO.N,+12V*
X7371600Y37716800D02*
X7308400Y37780000D01*
D25*
G04 #@! TO.N,/A4*
X16620000Y39500000D02*
X7371600Y39500000D01*
X21890000Y45390000D02*
X21890000Y44770000D01*
D24*
G04 #@! TO.N,+12V*
X7371600Y36030000D02*
X7623954Y35777646D01*
G04 #@! TO.N,+3V3*
X7371600Y43471600D02*
X7371600Y42200000D01*
G04 #@! TO.N,+12V*
X7623954Y35777646D02*
X9441600Y35777646D01*
G04 #@! TO.N,+3V3*
X8500000Y44600000D02*
X7371600Y43471600D01*
D25*
G04 #@! TO.N,/A4*
X21890000Y44770000D02*
X16620000Y39500000D01*
D24*
G04 #@! TO.N,+12V*
X7371600Y36030000D02*
X7371600Y37716800D01*
D25*
G04 #@! TO.N,-12VA*
X29100000Y3380000D02*
X31340000Y1140000D01*
X22320000Y3380000D02*
X29100000Y3380000D01*
G04 #@! TO.N,GND*
X11220000Y6490000D02*
X11990000Y5720000D01*
X11990000Y5720000D02*
X11990000Y4260000D01*
X24258222Y26018222D02*
X18615703Y20375703D01*
X42126648Y55123688D02*
X40566500Y53563540D01*
X37090000Y38330000D02*
X31650000Y32890000D01*
X25265348Y27025348D02*
X25265348Y26679399D01*
X42126648Y61433352D02*
X42126648Y55123688D01*
X29270000Y31657341D02*
X29270000Y31030000D01*
X42060000Y61500000D02*
X42126648Y61433352D01*
X31650000Y32890000D02*
X30502659Y32890000D01*
X40566500Y38966500D02*
X39930000Y38330000D01*
X25265348Y26679399D02*
X24604171Y26018222D01*
X18615703Y20375703D02*
X18615703Y13066500D01*
X40566500Y53563540D02*
X40566500Y38966500D01*
X39930000Y38330000D02*
X37090000Y38330000D01*
D24*
G04 #@! TO.N,-12VA*
X31769500Y32599500D02*
X31770330Y32599500D01*
D25*
G04 #@! TO.N,GND*
X29270000Y31030000D02*
X25265348Y27025348D01*
D24*
G04 #@! TO.N,-12VA*
X41810000Y37870000D02*
X42370000Y38430000D01*
X31279922Y32109922D02*
X31769500Y32599500D01*
D25*
G04 #@! TO.N,GND*
X24604171Y26018222D02*
X24258222Y26018222D01*
D24*
G04 #@! TO.N,-12VA*
X31770330Y32599500D02*
X37040830Y37870000D01*
X37040830Y37870000D02*
X41810000Y37870000D01*
X42866726Y38430000D02*
X43536648Y39099922D01*
X42370000Y38430000D02*
X42866726Y38430000D01*
D25*
G04 #@! TO.N,GND*
X30502659Y32890000D02*
X29270000Y31657341D01*
D24*
G04 #@! TO.N,-12VA*
X30236648Y32109922D02*
X31279922Y32109922D01*
D25*
G04 #@! TO.N,Net-(J9-SIG)*
X13476648Y43839922D02*
X13368517Y43731791D01*
X13368517Y43731791D02*
X13368517Y41374179D01*
G04 #@! TO.N,GND*
X21350000Y7030000D02*
X25350000Y7030000D01*
X13100000Y10030000D02*
X12837278Y10292722D01*
X12837278Y10292722D02*
X8608648Y10292722D01*
D24*
G04 #@! TO.N,+12V*
X23546648Y29199922D02*
X19180078Y29199922D01*
X19180078Y29199922D02*
X18100000Y30280000D01*
D25*
G04 #@! TO.N,GND*
X8608648Y16174122D02*
X8608648Y12705722D01*
X28473940Y46980680D02*
X28737452Y46717168D01*
X33572534Y43429848D02*
X33624273Y43481587D01*
X49426648Y43829922D02*
X49576648Y43979922D01*
X55489448Y21939922D02*
X57902448Y21939922D01*
X28959613Y48386600D02*
X29383455Y48810442D01*
X11716648Y56849922D02*
X12066648Y57199922D01*
X31721574Y43429848D02*
X30766648Y42474922D01*
X30870848Y21939922D02*
X33283848Y21939922D01*
X27606648Y31269922D02*
X30226648Y33889922D01*
X51946648Y18769922D02*
X51866648Y18689922D01*
X24136648Y18587122D02*
X24136648Y16174122D01*
X27894820Y44282832D02*
X27894820Y43786656D01*
X30071206Y45245632D02*
X29489940Y45245632D01*
X31721574Y43429848D02*
X33572534Y43429848D01*
X28737452Y46717168D02*
X29041884Y46717168D01*
X31176648Y7579922D02*
X31176648Y3294922D01*
X55489448Y36939922D02*
X57902448Y36939922D01*
X30131798Y45185040D02*
X30071206Y45245632D01*
X51866648Y18689922D02*
X50456648Y18689922D01*
X31176648Y3294922D02*
X30846648Y2964922D01*
X38176888Y12660162D02*
X38466648Y12949922D01*
X8608648Y12705722D02*
X8608648Y10292722D01*
X12066648Y57199922D02*
X15696648Y57199922D01*
X30226648Y33889922D02*
X30226648Y34329922D01*
X29054076Y42747905D02*
X29410753Y43104582D01*
X8608648Y18587122D02*
X8608648Y16174122D01*
X28850148Y48386600D02*
X28959613Y48386600D01*
X49426648Y40839922D02*
X49426648Y43829922D01*
X27261648Y31269922D02*
X27606648Y31269922D01*
X31330148Y64426600D02*
X31330148Y64916600D01*
X36800848Y12660162D02*
X38176888Y12660162D01*
X29383455Y48810442D02*
X30150770Y48810442D01*
D24*
G04 #@! TO.N,+3V3*
X48198400Y37751600D02*
X48198400Y37091600D01*
D25*
X29119468Y43532008D02*
X29338670Y43751210D01*
D24*
X31226648Y103389922D02*
X31226648Y102470684D01*
D25*
X28473940Y45628182D02*
X28816112Y45286010D01*
D24*
X49090000Y34280000D02*
X53230000Y34280000D01*
X47460000Y38490000D02*
X47460000Y38920000D01*
X7960000Y52910000D02*
X8500000Y52370000D01*
X15638248Y101638322D02*
X11786648Y105489922D01*
X8500000Y52370000D02*
X8500000Y44600000D01*
D25*
X29984084Y45721488D02*
X29489940Y46215632D01*
D24*
X25766648Y41249922D02*
X25766648Y38439922D01*
X48360000Y35010000D02*
X49090000Y34280000D01*
X29763498Y43751210D02*
X30069786Y43444922D01*
X29475048Y101638322D02*
X15638248Y101638322D01*
X28140972Y42746272D02*
X29054076Y43659376D01*
X44510000Y36380000D02*
X47050000Y38920000D01*
X48494510Y35919637D02*
X48360000Y35785127D01*
X48200000Y36214147D02*
X48200000Y37090000D01*
X12240000Y44740000D02*
X12175713Y44675713D01*
X47460000Y38920000D02*
X47460000Y47780000D01*
D25*
X29180148Y47686600D02*
X29180148Y47706600D01*
X30015212Y45721488D02*
X29984084Y45721488D01*
D24*
X31226648Y102470684D02*
X32059010Y101638322D01*
X29489940Y46215632D02*
X28678892Y46215632D01*
D25*
X29180148Y47706600D02*
X29617201Y48143653D01*
D24*
X8575713Y44675713D02*
X8500000Y44600000D01*
X12175713Y44675713D02*
X8575713Y44675713D01*
X27450148Y42996600D02*
X27784182Y42662566D01*
X46807048Y101638322D02*
X50658648Y105489922D01*
X30069786Y43444922D02*
X30766648Y43444922D01*
X25766648Y38439922D02*
X23536648Y36209922D01*
D25*
X29338670Y43751210D02*
X29763498Y43751210D01*
D24*
X48360000Y35785127D02*
X48360000Y35010000D01*
X48198400Y37091600D02*
X48200000Y37090000D01*
X32059010Y101638322D02*
X46807048Y101638322D01*
X47050000Y38920000D02*
X47460000Y38920000D01*
X48198400Y37751600D02*
X47460000Y38490000D01*
X28678892Y46215632D02*
X28473940Y46010680D01*
X31226648Y103389922D02*
X29475048Y101638322D01*
X27784182Y42662566D02*
X28094972Y42662566D01*
X48494510Y35919637D02*
X48200000Y36214147D01*
D25*
X28473940Y46010680D02*
X28473940Y45628182D01*
G04 #@! TO.N,/A5*
X21330000Y45210000D02*
X21330000Y45750000D01*
X19156648Y42829922D02*
X19156648Y43036648D01*
X22566648Y31440422D02*
X23056648Y30950422D01*
X19156648Y43036648D02*
X21330000Y45210000D01*
X22566648Y37389922D02*
X22566648Y31440422D01*
D24*
G04 #@! TO.N,+12V*
X51125570Y45879922D02*
X50125570Y46879922D01*
X9010048Y54283322D02*
X9326648Y54599922D01*
X47924039Y58422531D02*
X47606648Y58739922D01*
X50310000Y54503274D02*
X50310000Y57882531D01*
X10256648Y70999922D02*
X10256648Y71240000D01*
X10488248Y70768322D02*
X10256648Y70999922D01*
X50850000Y58422531D02*
X47924039Y58422531D01*
X9636018Y54599922D02*
X10488248Y55452152D01*
X10256648Y71240000D02*
X10256648Y81379922D01*
X4125000Y72530000D02*
X5415000Y71240000D01*
X10859257Y45077313D02*
X9010048Y46926522D01*
X51134148Y45879922D02*
X51125570Y45879922D01*
X9326648Y54599922D02*
X9636018Y54599922D01*
X50310000Y57882531D02*
X50850000Y58422531D01*
X9010048Y46926522D02*
X9010048Y54283322D01*
X50125570Y46879922D02*
X49556648Y46879922D01*
X48416648Y52609922D02*
X50310000Y54503274D01*
X49556648Y46879922D02*
X48416648Y48019922D01*
X5415000Y71240000D02*
X10256648Y71240000D01*
X10488248Y55452152D02*
X10488248Y70768322D01*
X10256648Y81379922D02*
X11806648Y82929922D01*
X48416648Y48019922D02*
X48416648Y52609922D01*
G04 #@! TO.N,-12VA*
X44486648Y9109922D02*
X43916648Y9679922D01*
X47486458Y14770112D02*
X47486458Y12979732D01*
X43536648Y44466648D02*
X46740000Y47670000D01*
X45056648Y9109922D02*
X44486648Y9109922D01*
X33682088Y13925362D02*
X33056648Y13299922D01*
X10480000Y88020000D02*
X8610000Y88020000D01*
X43536648Y39099922D02*
X43536648Y44466648D01*
X11670000Y86830000D02*
X10480000Y88020000D01*
X41191208Y13925362D02*
X33682088Y13925362D01*
X30036648Y31909922D02*
X30236648Y32109922D01*
X47486458Y12979732D02*
X46726648Y12219922D01*
X33986648Y10699922D02*
X33986648Y12369922D01*
X33986648Y12369922D02*
X33056648Y13299922D01*
X42446648Y12669922D02*
X41191208Y13925362D01*
X46726648Y12219922D02*
X42896648Y12219922D01*
X30036648Y31909922D02*
X30036648Y29739922D01*
X46740000Y47670000D02*
X46740000Y51910000D01*
X47346648Y14909922D02*
X47486458Y14770112D01*
X42896648Y12219922D02*
X42446648Y12669922D01*
D25*
G04 #@! TO.N,/A2*
X22330000Y40479998D02*
X21945316Y40095314D01*
X22330000Y44040000D02*
X22330000Y40479998D01*
D26*
G04 #@! TO.N,/A7*
X21680000Y68460000D02*
X21680000Y63230000D01*
D25*
X20380000Y84010000D02*
X20380000Y76276500D01*
D26*
X23510000Y61400000D02*
X23510000Y59820000D01*
X21090000Y69050000D02*
X21680000Y68460000D01*
X21680000Y63230000D02*
X23510000Y61400000D01*
D25*
X20380000Y76276500D02*
X21426500Y75230000D01*
G04 #@! TO.N,/A6*
X26750000Y88520000D02*
X24640000Y86410000D01*
X27097591Y61676491D02*
X27097591Y63048213D01*
X26780000Y88520000D02*
X26750000Y88520000D01*
X23933148Y65403148D02*
X23620148Y65090148D01*
X23620148Y65090148D02*
X23620148Y64996600D01*
X24640000Y83210000D02*
X22510000Y81080000D01*
X22510000Y81080000D02*
X22510000Y68910000D01*
X27021309Y61600209D02*
X27097591Y61676491D01*
X26433267Y60730100D02*
X26556826Y60730100D01*
X23933148Y67038112D02*
X23933148Y65403148D01*
X23240000Y68180000D02*
X23240000Y67731260D01*
X27097591Y63048213D02*
X25348839Y64796965D01*
X26019346Y60235598D02*
X26019346Y60316179D01*
X25348839Y64796965D02*
X25324993Y64796965D01*
X23240000Y67731260D02*
X23933148Y67038112D01*
X22510000Y68910000D02*
X23240000Y68180000D01*
X26556826Y60730100D02*
X27021309Y61194583D01*
X26019346Y60316179D02*
X26433267Y60730100D01*
X24640000Y86410000D02*
X24640000Y83210000D01*
X27021309Y61194583D02*
X27021309Y61600209D01*
G04 #@! TO.N,/D6*
X38530000Y84940000D02*
X38530000Y75510000D01*
X41606648Y66547864D02*
X41606648Y57489922D01*
X45250000Y94490000D02*
X40620000Y89860000D01*
X45250000Y95756570D02*
X45250000Y94490000D01*
X40620000Y87030000D02*
X38530000Y84940000D01*
X42577800Y100236803D02*
X42577800Y98428770D01*
X37220000Y74200000D02*
X37220000Y70934512D01*
X40620000Y89860000D02*
X40620000Y87030000D01*
X42577800Y98428770D02*
X45250000Y95756570D01*
X38530000Y75510000D02*
X37220000Y74200000D01*
X37220000Y70934512D02*
X41606648Y66547864D01*
G04 #@! TO.N,/D8*
X17370000Y71050000D02*
X19120000Y72800000D01*
X22000000Y95300000D02*
X22480000Y95780000D01*
X35176000Y47165145D02*
X33984612Y45973757D01*
X35176000Y55836556D02*
X35176000Y47165145D01*
X35180148Y55840704D02*
X35176000Y55836556D01*
X17620000Y51290000D02*
X17430000Y51480000D01*
X19980000Y74500000D02*
X19980000Y88840000D01*
X19980000Y88840000D02*
X22000000Y90860000D01*
X35078011Y56989600D02*
X35180148Y56887463D01*
X35180148Y56887463D02*
X35180148Y55840704D01*
X17620000Y48333274D02*
X17376648Y48089922D01*
X17370000Y59380000D02*
X17370000Y71050000D01*
X19120000Y72800000D02*
X19120000Y73640000D01*
X22000000Y90860000D02*
X22000000Y95300000D01*
X19120000Y73640000D02*
X19980000Y74500000D01*
X33984612Y45973757D02*
X33984612Y45645009D01*
X17620000Y48333274D02*
X17620000Y51290000D01*
D26*
G04 #@! TO.N,/A9*
X21850000Y57180000D02*
X21150000Y57880000D01*
X21150000Y60590000D02*
X21280000Y60720000D01*
X21070000Y61650000D02*
X21070000Y65820000D01*
X21150000Y57880000D02*
X21150000Y60590000D01*
X21070000Y66008673D02*
X21052493Y66026180D01*
X21280000Y61440000D02*
X21070000Y61650000D01*
X21070000Y65820000D02*
X21060000Y65830000D01*
X21070000Y65820000D02*
X21070000Y66008673D01*
X21280000Y60720000D02*
X21280000Y61440000D01*
D25*
G04 #@! TO.N,/D15*
X41290000Y54608066D02*
X38600000Y51918066D01*
X31380148Y62006788D02*
X31380148Y60588652D01*
X34130148Y56246600D02*
X34170148Y56206600D01*
X38800000Y36960000D02*
X38800000Y27480000D01*
X32381174Y58855821D02*
X33310148Y57926847D01*
X37710000Y26390000D02*
X31970000Y26390000D01*
X31580004Y62206644D02*
X31380148Y62006788D01*
X32381174Y59595574D02*
X32381174Y58855821D01*
X31681174Y60287626D02*
X31689122Y60287626D01*
X33310148Y57896600D02*
X34130148Y57076600D01*
X38600000Y51918066D02*
X38600000Y38850000D01*
X34130148Y57076600D02*
X34130148Y56246600D01*
X38600000Y38850000D02*
X38580000Y38830000D01*
X31380148Y60588652D02*
X31681174Y60287626D01*
X31689122Y60287626D02*
X32381174Y59595574D01*
X38800000Y27480000D02*
X37710000Y26390000D01*
X33310148Y57926847D02*
X33310148Y57896600D01*
X41290000Y56343500D02*
X41290000Y54608066D01*
G04 #@! TO.N,/D13*
X37980000Y44500000D02*
X37980000Y38810000D01*
X19345000Y12005000D02*
X12300000Y12005000D01*
X37480000Y51920000D02*
X37480000Y45000000D01*
X37816648Y58353511D02*
X37816648Y52256648D01*
X25800000Y14530000D02*
X21870000Y14530000D01*
X37480000Y45000000D02*
X37980000Y44500000D01*
X29742148Y28432148D02*
X29742148Y18472148D01*
X33077151Y62150000D02*
X34020159Y62150000D01*
X12300000Y12005000D02*
X11166648Y13138352D01*
X11166648Y13138352D02*
X11166648Y22769922D01*
X32486392Y61559241D02*
X33077151Y62150000D01*
X21870000Y14530000D02*
X19345000Y12005000D01*
X37816648Y52256648D02*
X37480000Y51920000D01*
X29742148Y18472148D02*
X25800000Y14530000D01*
X38270000Y36960000D02*
X29742148Y28432148D01*
X34020159Y62150000D02*
X37816648Y58353511D01*
X31842714Y61559241D02*
X32486392Y61559241D01*
D24*
G04 #@! TO.N,VREF+*
X6430000Y66590000D02*
X6640000Y66380000D01*
X5650000Y66590000D02*
X6430000Y66590000D01*
D25*
G04 #@! TO.N,/D11*
X40076648Y60299922D02*
X40856648Y61079922D01*
X35326648Y81209922D02*
X36529648Y80006922D01*
X40856648Y61079922D02*
X40856648Y66472370D01*
X37925596Y69403422D02*
X37343148Y69403422D01*
X36529648Y80006922D02*
X36529648Y76822922D01*
X34390000Y74683274D02*
X34390000Y70990000D01*
X36188769Y70557801D02*
X36188769Y70962043D01*
X37343148Y69403422D02*
X36188769Y70557801D01*
X40856648Y66472370D02*
X37925596Y69403422D01*
X36529648Y76822922D02*
X34390000Y74683274D01*
G04 #@! TO.N,/D10*
X21820000Y99699922D02*
X33366665Y99699922D01*
X38096500Y92540567D02*
X38096500Y92239433D01*
X41236648Y60279922D02*
X40696648Y59739922D01*
X38190000Y92145933D02*
X38190000Y75820000D01*
X41236648Y66569652D02*
X41236648Y60279922D01*
X33366665Y99699922D02*
X38190000Y94876587D01*
X35820000Y71986300D02*
X41236648Y66569652D01*
X38096500Y92239433D02*
X38190000Y92145933D01*
X35820000Y73450000D02*
X35820000Y71986300D01*
X38190000Y75820000D02*
X35820000Y73450000D01*
X38190000Y94876587D02*
X38190000Y92634067D01*
X38190000Y92634067D02*
X38096500Y92540567D01*
G04 #@! TO.N,/D14*
X34836648Y71641434D02*
X34836648Y69764434D01*
X36454660Y68146422D02*
X36838636Y68146422D01*
X34160000Y85480000D02*
X34160000Y84326570D01*
X34850148Y72038910D02*
X34850148Y71654934D01*
X36966648Y81799922D02*
X36686648Y81799922D01*
X36164039Y81027313D02*
X36856648Y80334704D01*
X40466648Y66399922D02*
X40466648Y62004434D01*
X40058636Y61596422D02*
X38020148Y61596422D01*
X34160000Y84326570D02*
X36686648Y81799922D01*
X36856648Y76687474D02*
X34836648Y74667474D01*
X34836648Y69764434D02*
X36454660Y68146422D01*
X38448636Y68417934D02*
X40466648Y66399922D01*
X40466648Y62004434D02*
X40058636Y61596422D01*
X37110148Y68417934D02*
X38448636Y68417934D01*
X36838636Y68146422D02*
X37110148Y68417934D01*
X34836648Y72052410D02*
X34850148Y72038910D01*
X36856648Y80334704D02*
X36856648Y76687474D01*
X38020148Y61596422D02*
X37017777Y62598793D01*
X34836648Y74667474D02*
X34836648Y72052410D01*
X37017777Y62598793D02*
X35212341Y62598793D01*
X34850148Y71654934D02*
X34836648Y71641434D01*
G04 #@! TO.N,/D12*
X35504148Y70637910D02*
X37202136Y68939922D01*
X37900000Y81723570D02*
X37900000Y75940000D01*
X39011648Y66878352D02*
X37900000Y67990000D01*
X34670148Y64316600D02*
X36761827Y64316600D01*
X35504148Y73544148D02*
X35504148Y70637910D01*
X36761827Y64316600D02*
X39011648Y66566421D01*
X37293648Y82329922D02*
X37900000Y81723570D01*
X39011648Y66566421D02*
X39011648Y66878352D01*
X37900000Y75940000D02*
X35504148Y73544148D01*
X37202136Y68939922D02*
X37456648Y68939922D01*
G04 #@! TO.N,/D0*
X38956500Y70393500D02*
X38956500Y70132256D01*
X41140000Y86340000D02*
X38870000Y84070000D01*
X37680000Y71670000D02*
X38956500Y70393500D01*
X41140000Y89420000D02*
X41140000Y86340000D01*
X46560000Y94840000D02*
X41140000Y89420000D01*
X38870000Y84070000D02*
X38870000Y75260000D01*
X37680000Y74070000D02*
X37680000Y71670000D01*
X38870000Y75260000D02*
X37680000Y74070000D01*
G04 #@! TO.N,/D1*
X36470000Y90450000D02*
X37536500Y90450000D01*
X30330000Y77130000D02*
X30100000Y77360000D01*
X22890000Y69610000D02*
X23400000Y69100000D01*
X32940000Y88640000D02*
X34660000Y88640000D01*
X22890000Y72113000D02*
X22890000Y69610000D01*
X30100000Y77360000D02*
X30100000Y85800000D01*
X38460000Y92390000D02*
X38460000Y92630000D01*
X27820000Y77043000D02*
X22890000Y72113000D01*
X34660000Y88640000D02*
X36470000Y90450000D01*
X23400000Y69100000D02*
X23660000Y69100000D01*
X38460000Y92630000D02*
X41260000Y95430000D01*
X41260000Y95430000D02*
X43670000Y95430000D01*
X30100000Y85800000D02*
X32940000Y88640000D01*
G04 #@! TO.N,/D3*
X21426500Y89965474D02*
X22851420Y91390394D01*
X22851420Y91390394D02*
X22851420Y93542248D01*
X33730648Y70319234D02*
X33923148Y70511734D01*
X21426500Y78140000D02*
X21426500Y89965474D01*
X33923148Y74026422D02*
X34059648Y74162922D01*
X34576648Y66219922D02*
X33730648Y67065922D01*
X35790148Y77046078D02*
X35790148Y78150000D01*
X33923148Y70511734D02*
X33923148Y74026422D01*
X34059648Y75315578D02*
X35790148Y77046078D01*
X33730648Y67065922D02*
X33730648Y70319234D01*
X34059648Y74162922D02*
X34059648Y75315578D01*
G04 #@! TO.N,GND*
X37340148Y63446600D02*
X38726826Y62059922D01*
X36085123Y63446600D02*
X37340148Y63446600D01*
X35401468Y63937921D02*
X35593802Y63937921D01*
X38726826Y62059922D02*
X39866648Y62059922D01*
X35593802Y63937921D02*
X36085123Y63446600D01*
G04 #@! TO.N,/D5*
X52190000Y96380000D02*
X52190000Y96260000D01*
X39420000Y69409996D02*
X40144998Y68684998D01*
X39420000Y83490000D02*
X39420000Y69409996D01*
X52190000Y96260000D02*
X39420000Y83490000D01*
G04 #@! TO.N,/D19*
X33996648Y79920000D02*
X33326657Y80589991D01*
X32883648Y74666922D02*
X33073648Y74856922D01*
X32493699Y67376471D02*
X32686648Y67569420D01*
X32686648Y67569420D02*
X32686648Y70662578D01*
X33073648Y75716922D02*
X33996648Y76639922D01*
X33996648Y76639922D02*
X33996648Y79920000D01*
X32883648Y70859578D02*
X32883648Y74666922D01*
X33073648Y74856922D02*
X33073648Y75716922D01*
X32686648Y70662578D02*
X32883648Y70859578D01*
G04 #@! TO.N,/D18*
X35177148Y71519486D02*
X35177148Y74545526D01*
X37250000Y76618378D02*
X37250000Y78810148D01*
X37250000Y78810148D02*
X37220148Y78840000D01*
X36646648Y68609922D02*
X36646648Y69032962D01*
X35177148Y74545526D02*
X37250000Y76618378D01*
X35163648Y71505986D02*
X35177148Y71519486D01*
X35163648Y70515962D02*
X35163648Y71505986D01*
X36646648Y69032962D02*
X35163648Y70515962D01*
G04 #@! TO.N,/D7*
X16146726Y45620000D02*
X18026648Y47499922D01*
X34714511Y56839033D02*
X34953148Y56600396D01*
X34953148Y55934730D02*
X34949000Y55930582D01*
X33514104Y45829989D02*
X33514104Y45272685D01*
X15120000Y45620000D02*
X16146726Y45620000D01*
X33808675Y58328073D02*
X33819196Y58328073D01*
X3060000Y86560000D02*
X3060000Y88670000D01*
X34949000Y47264885D02*
X33514104Y45829989D01*
X33459526Y58677222D02*
X33808675Y58328073D01*
X34949000Y55930582D02*
X34949000Y47264885D01*
X33819196Y58328073D02*
X34830148Y57317121D01*
X34830148Y57317121D02*
X34830148Y57255804D01*
X33394866Y58677222D02*
X33459526Y58677222D01*
X34714511Y57140167D02*
X34714511Y56839033D01*
X34830148Y57255804D02*
X34714511Y57140167D01*
X34953148Y56600396D02*
X34953148Y55934730D01*
X33128407Y58943681D02*
X33394866Y58677222D01*
G04 #@! TO.N,/D17*
X33137911Y64188837D02*
X33137911Y64346389D01*
X33137911Y64346389D02*
X33082968Y64401332D01*
X30800000Y77174067D02*
X30650000Y77324067D01*
X30650000Y77324067D02*
X30650000Y85949131D01*
X32248160Y65613100D02*
X31656648Y66204612D01*
X30800000Y76367466D02*
X30800000Y77174067D01*
X31993648Y70128588D02*
X31966648Y70155588D01*
X31656648Y66204612D02*
X31656648Y69154612D01*
X31966648Y70867474D02*
X32229648Y71130474D01*
X33082968Y64873780D02*
X32343648Y65613100D01*
X32343648Y65613100D02*
X32248160Y65613100D01*
X31993648Y69491612D02*
X31993648Y70128588D01*
X33082968Y64401332D02*
X33082968Y64873780D01*
X30650000Y85949131D02*
X31890542Y87189673D01*
X32229648Y74937818D02*
X30800000Y76367466D01*
X32229648Y71130474D02*
X32229648Y74937818D01*
X31966648Y70155588D02*
X31966648Y70867474D01*
X31890542Y87189673D02*
X33046468Y87189673D01*
X31656648Y69154612D02*
X31993648Y69491612D01*
G04 #@! TO.N,/D16*
X35690000Y84464067D02*
X34020045Y86134022D01*
X33537648Y74396026D02*
X33537648Y70588682D01*
X33727648Y74586026D02*
X33537648Y74396026D01*
X35690000Y83710000D02*
X35690000Y84464067D01*
X33537648Y70588682D02*
X33403648Y70454682D01*
X35810000Y83590000D02*
X35690000Y83710000D01*
X33780148Y66201152D02*
X33780148Y64166600D01*
X35326648Y79633352D02*
X35326648Y77045026D01*
X33403648Y66577652D02*
X33780148Y66201152D01*
X35326648Y79633352D02*
X35110000Y79850000D01*
X35326648Y77045026D02*
X33727648Y75446026D01*
X34020045Y86134022D02*
X31946648Y86134022D01*
X33403648Y70454682D02*
X33403648Y66577652D01*
X33727648Y75446026D02*
X33727648Y74586026D01*
G04 #@! TO.N,/D9*
X31026500Y79093500D02*
X30877000Y78944000D01*
X32293648Y70291036D02*
X32320648Y70264036D01*
X31946648Y83889959D02*
X31026500Y82969811D01*
X32556648Y74802370D02*
X32556648Y70995026D01*
X31026500Y82969811D02*
X31026500Y79093500D01*
X32293648Y70732026D02*
X32293648Y70291036D01*
X32556648Y70995026D02*
X32293648Y70732026D01*
X30877000Y77796613D02*
X32746648Y75926965D01*
X32320648Y68673922D02*
X32186648Y68539922D01*
X32746648Y75926965D02*
X32746648Y74992370D01*
X30877000Y78944000D02*
X30877000Y77796613D01*
X32320648Y70264036D02*
X32320648Y68673922D01*
X32746648Y74992370D02*
X32556648Y74802370D01*
D26*
G04 #@! TO.N,/A0*
X22176648Y52899922D02*
X22176648Y49409922D01*
X26625255Y59626807D02*
X26143648Y59145200D01*
X22176648Y52899922D02*
X24056648Y54779922D01*
X25570441Y56077186D02*
X24273177Y54779922D01*
X26143648Y59145200D02*
X26143648Y56969922D01*
X22176648Y49409922D02*
X22266648Y49319922D01*
X26143648Y56969922D02*
X26120866Y56969922D01*
X26625255Y60266600D02*
X26625255Y59626807D01*
X23030000Y34865173D02*
X23030000Y43440000D01*
X25570441Y56419497D02*
X25570441Y56077186D01*
X27345251Y30549922D02*
X23030000Y34865173D01*
X24056648Y54779922D02*
X24273177Y54779922D01*
X28130000Y30549922D02*
X27345251Y30549922D01*
X25570441Y56419497D02*
X26120866Y56969922D01*
G04 #@! TO.N,/A1*
X23032904Y56583666D02*
X21480000Y58136570D01*
X21480000Y67090000D02*
X21190000Y67380000D01*
X21480000Y58136570D02*
X21480000Y67090000D01*
D25*
G04 #@! TO.N,/A3*
X20530000Y61230000D02*
X20530000Y73160000D01*
X20840000Y60920000D02*
X20530000Y61230000D01*
X20530000Y73160000D02*
X21410000Y74040000D01*
X53060000Y66640000D02*
X50820000Y66640000D01*
X54260000Y65440000D02*
X53060000Y66640000D01*
G04 #@! TO.N,/A8*
X20966500Y51406500D02*
X20966500Y46016500D01*
X21330000Y51770000D02*
X20966500Y51406500D01*
X23963500Y56044973D02*
X22220000Y54301473D01*
X23963500Y58023004D02*
X23963500Y56044973D01*
X22220000Y54301473D02*
X22220000Y53900000D01*
X24520000Y58579504D02*
X23963500Y58023004D01*
X20966500Y46016500D02*
X16570000Y41620000D01*
X24520000Y61020000D02*
X24520000Y58579504D01*
D24*
G04 #@! TO.N,Net-(J2-SIG)*
X36650000Y38690000D02*
X36636648Y38703352D01*
X36636648Y38703352D02*
X36636648Y42146922D01*
D25*
G04 #@! TO.N,Net-(C46-Pad1)*
X47103500Y54596500D02*
X47103500Y48958162D01*
X52011662Y44050000D02*
X54590000Y44050000D01*
X47103500Y48958162D02*
X52011662Y44050000D01*
X45940000Y55760000D02*
X47103500Y54596500D01*
G04 #@! TO.N,Net-(POT_LENGTH1-Center)*
X10508648Y48985922D02*
X16680000Y55157274D01*
X16680000Y55157274D02*
X16680000Y69390000D01*
G04 #@! TO.N,Net-(REV_BUT1-R)*
X9986648Y99689922D02*
X7786726Y97490000D01*
X7786726Y97490000D02*
X7480000Y97490000D01*
G04 #@! TO.N,/D4*
X34406648Y76587474D02*
X33400648Y75581474D01*
X34406648Y80770000D02*
X34406648Y76587474D01*
X33400648Y74721474D02*
X33210648Y74531474D01*
X31946648Y81690065D02*
X33486583Y81690065D01*
X33210648Y70724130D02*
X33076648Y70590130D01*
X33076648Y70590130D02*
X33076648Y66713100D01*
X33400648Y75581474D02*
X33400648Y74721474D01*
X33486583Y81690065D02*
X34406648Y80770000D01*
X33076648Y66713100D02*
X32440148Y66076600D01*
X33210648Y74531474D02*
X33210648Y70724130D01*
G04 #@! TO.N,/VCOM*
X47756570Y20560000D02*
X35216570Y20560000D01*
X47896648Y20419922D02*
X47756570Y20560000D01*
X53026648Y15709922D02*
X52336648Y15709922D01*
X47896648Y20149922D02*
X47896648Y20419922D01*
X52336648Y15709922D02*
X47896648Y20149922D01*
X35216570Y20560000D02*
X34996648Y20779922D01*
G04 #@! TO.N,GNDA*
X44116648Y14189922D02*
X43946648Y14359922D01*
X53770148Y17956422D02*
X53770148Y15453422D01*
X49906648Y21819922D02*
X53770148Y17956422D01*
X49496648Y11929922D02*
X49496648Y11089922D01*
X43946648Y14359922D02*
X41396648Y14359922D01*
X53770148Y15453422D02*
X52396648Y14079922D01*
X51646648Y14079922D02*
X49496648Y11929922D01*
X52396648Y14079922D02*
X51646648Y14079922D01*
G04 #@! TO.N,Net-(U2B-VCAP_1)*
X29970148Y61521492D02*
X29970148Y62556600D01*
X29970148Y62556600D02*
X30598491Y63184943D01*
X30052594Y61439046D02*
X29970148Y61521492D01*
G04 #@! TO.N,+3.3VADC*
X18630000Y59435544D02*
X18630000Y61340000D01*
X23176648Y56189922D02*
X21875622Y56189922D01*
X23396404Y57233596D02*
X23396404Y56409678D01*
X13250000Y66930000D02*
X14164685Y66015315D01*
X23396404Y56409678D02*
X23176648Y56189922D01*
X21875622Y56189922D02*
X18630000Y59435544D01*
X22130000Y58500000D02*
X23396404Y57233596D01*
X14164685Y66015315D02*
X14324685Y66015315D01*
G04 #@! TO.N,/BOOT0*
X28040148Y66425574D02*
X28040148Y65416600D01*
X28616148Y71653852D02*
X28616148Y69838533D01*
X28616148Y69838533D02*
X27064215Y68286600D01*
X26937696Y68164148D02*
X26937696Y67528026D01*
X27060148Y68286600D02*
X26937696Y68164148D01*
X28610000Y71660000D02*
X28616148Y71653852D01*
X27064215Y68286600D02*
X27060148Y68286600D01*
X26937696Y67528026D02*
X28040148Y66425574D01*
D27*
G04 #@! TO.N,Net-(C152-Pad1)*
X37776648Y6269922D02*
X41416648Y9909922D01*
X37776648Y5439922D02*
X37776648Y6269922D01*
G04 #@! TO.N,Net-(C152-Pad2)*
X37276648Y4529922D02*
X37276648Y8399922D01*
X37276648Y8399922D02*
X37876648Y8999922D01*
X37176648Y4429922D02*
X37276648Y4529922D01*
G04 #@! TO.N,Net-(C153-Pad1)*
X48876648Y6419922D02*
X49606648Y6419922D01*
X46456648Y3999922D02*
X48876648Y6419922D01*
G04 #@! TO.N,Net-(C153-Pad2)*
X45586648Y10499922D02*
X45586648Y9619922D01*
X45586648Y9619922D02*
X47526648Y7679922D01*
D25*
G04 #@! TO.N,/SWDCLK*
X56070000Y76530000D02*
X56070000Y76773274D01*
X52570000Y69120000D02*
X55860000Y72410000D01*
X55860000Y76320000D02*
X56070000Y76530000D01*
X55860000Y72410000D02*
X55860000Y76320000D01*
X56070000Y76773274D02*
X57226648Y77929922D01*
X41040000Y69120000D02*
X52570000Y69120000D01*
G04 #@! TO.N,/SWDIO*
X57226648Y72849922D02*
X52826726Y68450000D01*
X52826726Y68450000D02*
X40900000Y68450000D01*
G04 #@! TO.N,/UART_TX*
X22533648Y62998130D02*
X22533648Y66401988D01*
X21790000Y85613274D02*
X27646648Y91469922D01*
X22393500Y68056500D02*
X21790000Y68660000D01*
X22533648Y66401988D02*
X22393500Y66542136D01*
X23355436Y62176342D02*
X22533648Y62998130D01*
X21790000Y68660000D02*
X21790000Y85613274D01*
X22393500Y66542136D02*
X22393500Y68056500D01*
G04 #@! TO.N,/UART_RX*
X22130000Y84630000D02*
X27561637Y90061637D01*
X22130000Y68730000D02*
X22130000Y84630000D01*
X22760647Y68099353D02*
X22130000Y68730000D01*
X22760647Y64325923D02*
X22760647Y68099353D01*
X23730000Y61739990D02*
X23730000Y63356570D01*
X27561637Y90061637D02*
X28778363Y90061637D01*
X23730000Y63356570D02*
X22760647Y64325923D01*
X23756648Y61713342D02*
X23730000Y61739990D01*
X28778363Y90061637D02*
X30186648Y91469922D01*
G04 #@! TO.N,/DEBUG2*
X28701082Y77630000D02*
X26950000Y77630000D01*
X27270148Y66874548D02*
X26710696Y67434000D01*
X26046648Y86846648D02*
X29059922Y89859922D01*
X26710696Y68377148D02*
X27065708Y68732160D01*
X29059922Y89859922D02*
X30696648Y89859922D01*
X28950000Y75600000D02*
X28950000Y77381082D01*
X26950000Y77630000D02*
X26046648Y78533352D01*
X26046648Y78533352D02*
X26046648Y86846648D01*
X28950000Y77381082D02*
X28701082Y77630000D01*
X27065708Y73794292D02*
X27144292Y73794292D01*
X30696648Y89859922D02*
X32306648Y91469922D01*
X27270148Y66116600D02*
X27270148Y66874548D01*
X26710696Y67434000D02*
X26710696Y68377148D01*
X27144292Y73794292D02*
X28950000Y75600000D01*
X27065708Y68732160D02*
X27065708Y73794292D01*
G04 #@! TO.N,/DEBUG3*
X30090148Y69016600D02*
X30090148Y69453422D01*
X31902648Y71265922D02*
X31902648Y74887352D01*
X31902648Y74887352D02*
X29850000Y76940000D01*
X30090148Y69453422D02*
X31902648Y71265922D01*
X29850000Y76940000D02*
X29850000Y86053274D01*
X29850000Y86053274D02*
X35266648Y91469922D01*
G04 #@! TO.N,Net-(J9-SIG)*
X11920000Y44069922D02*
X9896648Y44069922D01*
D27*
G04 #@! TO.N,/LOUT+*
X46768085Y13276875D02*
X45190000Y14854960D01*
X45190000Y19871082D02*
X45440443Y20121525D01*
X45190000Y14854960D02*
X45190000Y19871082D01*
G04 #@! TO.N,/LOUT-*
X44770000Y14628371D02*
X44770000Y20070000D01*
X46302549Y13095823D02*
X44770000Y14628371D01*
D24*
G04 #@! TO.N,Net-(U15A--)*
X46646648Y44620000D02*
X46136648Y44110000D01*
X46136648Y44110000D02*
X45050000Y44110000D01*
D25*
G04 #@! TO.N,/RIN*
X39096648Y21019922D02*
X44386726Y26310000D01*
X44386726Y26310000D02*
X51380000Y26310000D01*
G04 #@! TO.N,/SD-NBL1*
X31922911Y57748067D02*
X32751398Y56919580D01*
X29337148Y65949600D02*
X29337148Y61520626D01*
X27939655Y67347093D02*
X29337148Y65949600D01*
X27939655Y67411567D02*
X27939655Y67347093D01*
X32751398Y56919580D02*
X32751398Y56544643D01*
X33530148Y48846600D02*
X32820148Y48136600D01*
X33196648Y52647167D02*
X33196648Y50323178D01*
X33370648Y53757126D02*
X33370647Y52821166D01*
X30549216Y60429064D02*
X30878279Y60429062D01*
X33370647Y52821166D02*
X33196648Y52647167D01*
X33021647Y54106127D02*
X33370648Y53757126D01*
X33530148Y49989678D02*
X33530148Y48846600D01*
X30878279Y60429062D02*
X31636344Y59670997D01*
X31828681Y57748067D02*
X31922911Y57748067D01*
X32751398Y56544643D02*
X33021647Y56274394D01*
X31636344Y59670997D02*
X31636344Y57940404D01*
X31636344Y57940404D02*
X31828681Y57748067D01*
X29539438Y61318336D02*
X29659945Y61318335D01*
X29659945Y61318335D02*
X30549216Y60429064D01*
X29337148Y61520626D02*
X29539438Y61318336D01*
X33196648Y50323178D02*
X33530148Y49989678D01*
X33021647Y56274394D02*
X33021647Y54106127D01*
D26*
G04 #@! TO.N,/SD-NBL0*
X24380148Y64531141D02*
X26610641Y66761634D01*
X21766648Y54477987D02*
X23750000Y56461339D01*
X24140000Y60590000D02*
X23970000Y60760000D01*
X24706648Y46559922D02*
X22296648Y48969922D01*
X23971287Y60761287D02*
X23971287Y61048713D01*
X23970000Y60760000D02*
X23971287Y60761287D01*
X23971287Y61048713D02*
X24380148Y61457575D01*
X23750000Y56461339D02*
X23750000Y58610000D01*
X24380148Y61457575D02*
X24380148Y64531141D01*
X23750000Y58610000D02*
X24140000Y59000000D01*
X24140000Y59000000D02*
X24140000Y60590000D01*
X21766648Y49324947D02*
X21766648Y54477987D01*
X22296648Y48969922D02*
X22121673Y48969922D01*
X22121673Y48969922D02*
X21766648Y49324947D01*
D25*
G04 #@! TO.N,/SD-CKE1*
X32267148Y52123574D02*
X32267148Y50177831D01*
X28220148Y68696600D02*
X27453374Y67929826D01*
X32576648Y48783100D02*
X31215605Y47422057D01*
X32567647Y53653073D02*
X32416648Y53502074D01*
X31409344Y59576971D02*
X31409344Y57219977D01*
X27453374Y67929826D02*
X27453374Y67333374D01*
X32477148Y54511693D02*
X32567648Y54421193D01*
X29445411Y61091337D02*
X29565918Y61091336D01*
X32416648Y53502074D02*
X32416647Y52273073D01*
X27453374Y67333374D02*
X29110148Y65676600D01*
X29110148Y65676600D02*
X29110148Y61426600D01*
X32576648Y49868331D02*
X32576648Y48783100D01*
X32416647Y52273073D02*
X32267148Y52123574D01*
X31215605Y47422057D02*
X30972079Y47422057D01*
X28220148Y68846600D02*
X28220148Y68696600D01*
X30784252Y60202063D02*
X31409344Y59576971D01*
X31409344Y57219977D02*
X32477148Y56152173D01*
X32267148Y50177831D02*
X32576648Y49868331D01*
X30455190Y60202064D02*
X30784252Y60202063D01*
X32477148Y56152173D02*
X32477148Y54511693D01*
X29110148Y61426600D02*
X29445411Y61091337D01*
X32567648Y54421193D02*
X32567647Y53653073D01*
X29565918Y61091336D02*
X30455190Y60202064D01*
G04 #@! TO.N,/SAI_SD_A*
X26545162Y68750000D02*
X26022810Y68227648D01*
X26022810Y68227648D02*
X26022810Y66823938D01*
G04 #@! TO.N,/SD-NCAS*
X32250148Y55926600D02*
X32250148Y54417667D01*
X32340648Y54327167D02*
X32340648Y53747100D01*
X28037868Y47668880D02*
X28000148Y47706600D01*
X31114148Y59551141D02*
X31114148Y57062600D01*
X32040148Y52217600D02*
X32040148Y50083805D01*
X32273345Y49359797D02*
X30120148Y47206600D01*
X29252410Y60864338D02*
X29471891Y60864337D01*
X30010148Y65991083D02*
X30010148Y65056600D01*
X31114148Y57062600D02*
X32250148Y55926600D01*
X32189648Y52367100D02*
X32040148Y52217600D01*
X29239868Y66761363D02*
X30010148Y65991083D01*
X32189648Y53596100D02*
X32189648Y52367100D01*
X30120148Y47206600D02*
X29020148Y47206600D01*
X32040148Y50083805D02*
X32273345Y49850608D01*
X28630148Y61591828D02*
X28664809Y61557167D01*
X32273345Y49850608D02*
X32273345Y49359797D01*
X32340648Y53747100D02*
X32189648Y53596100D01*
X28557868Y47668880D02*
X28037868Y47668880D01*
X30361164Y59975064D02*
X30690225Y59975064D01*
X30690225Y59975064D02*
X31114148Y59551141D01*
X28664809Y61451939D02*
X29252410Y60864338D01*
X32250148Y54417667D02*
X32340648Y54327167D01*
X29020148Y47206600D02*
X28557868Y47668880D01*
X29471891Y60864337D02*
X30361164Y59975064D01*
X28664809Y61557167D02*
X28664809Y61451939D01*
X28630148Y65116600D02*
X28630148Y61591828D01*
D26*
G04 #@! TO.N,/SD-D2*
X37890292Y61282922D02*
X36893292Y62279922D01*
X37870000Y46536570D02*
X37860000Y46546570D01*
D25*
X28290148Y44696600D02*
X28610148Y44376600D01*
X34320148Y43956600D02*
X34720148Y43956600D01*
D26*
X36893292Y62279922D02*
X35735800Y62279922D01*
X35697478Y62241600D02*
X35506648Y62241600D01*
D25*
X31460148Y44006600D02*
X34270148Y44006600D01*
D26*
X32892990Y63576600D02*
X33720467Y63576600D01*
X38327912Y61282922D02*
X37890292Y61282922D01*
D25*
X28610148Y44376600D02*
X31090148Y44376600D01*
D26*
X39776648Y53396648D02*
X39776648Y59834186D01*
X33720467Y63576600D02*
X35061774Y62235293D01*
X35061774Y62235293D02*
X35581455Y62235293D01*
X37860000Y51480000D02*
X39776648Y53396648D01*
X35735800Y62279922D02*
X35697478Y62241600D01*
D25*
X27553303Y44696600D02*
X28290148Y44696600D01*
D26*
X32475175Y64797100D02*
X32475175Y63994415D01*
X38220000Y45670000D02*
X37870000Y46020000D01*
X37860000Y46546570D02*
X37860000Y51480000D01*
X32475175Y63994415D02*
X32892990Y63576600D01*
D25*
X31090148Y44376600D02*
X31460148Y44006600D01*
X34270148Y44006600D02*
X34320148Y43956600D01*
D26*
X39776648Y59834186D02*
X38327912Y61282922D01*
D25*
X34720148Y43956600D02*
X34750148Y43926600D01*
X27001504Y44144801D02*
X27553303Y44696600D01*
D26*
X37870000Y46020000D02*
X37870000Y46536570D01*
G04 #@! TO.N,/SD-D3*
X39746648Y66149922D02*
X39746648Y62869922D01*
X34230518Y69249836D02*
X35850354Y67630000D01*
D25*
X31670148Y44296600D02*
X34489914Y44296600D01*
X31179616Y44787132D02*
X31670148Y44296600D01*
X25240148Y45306600D02*
X25460148Y45526600D01*
X25460148Y45526600D02*
X28061455Y45526600D01*
D26*
X39746648Y62869922D02*
X39646648Y62769922D01*
X35850354Y67630000D02*
X37386570Y67630000D01*
X34230518Y70100422D02*
X34230518Y69249836D01*
X40596648Y56043352D02*
X40596648Y57489922D01*
D25*
X34489914Y44296600D02*
X34951969Y44758655D01*
X28061455Y45526600D02*
X28800922Y44787132D01*
D26*
X37386570Y67630000D02*
X38216648Y66799922D01*
D25*
X28800922Y44787132D02*
X31179616Y44787132D01*
D26*
X40660000Y55980000D02*
X40596648Y56043352D01*
D25*
G04 #@! TO.N,/SD-A0*
X27820148Y63196600D02*
X27460213Y62836665D01*
X26952263Y65424485D02*
X27820148Y64556600D01*
X27460213Y62836665D02*
X27460213Y62528178D01*
X27833148Y61949600D02*
X27348309Y61464761D01*
X27348309Y59887413D02*
X26564193Y59103297D01*
X26564193Y59103297D02*
X26564193Y56776852D01*
X26564193Y56776852D02*
X26020441Y56233100D01*
X25938033Y65424485D02*
X26952263Y65424485D01*
X27833148Y62155243D02*
X27833148Y61949600D01*
X27348309Y61464761D02*
X27348309Y59887413D01*
X27820148Y64556600D02*
X27820148Y63196600D01*
X27460213Y62528178D02*
X27833148Y62155243D01*
D26*
G04 #@! TO.N,/SD-A2*
X25243648Y62151718D02*
X25243648Y63257100D01*
X25243648Y63257100D02*
X25157148Y63343600D01*
X24917148Y60860422D02*
X24917148Y61825218D01*
D25*
X25330148Y63506528D02*
X25327832Y63504212D01*
X25330148Y63516600D02*
X25330148Y63506528D01*
D26*
X23739582Y55306988D02*
X23739582Y55518414D01*
X24946648Y60830922D02*
X24917148Y60860422D01*
X24946648Y58704217D02*
X24946648Y60830922D01*
D25*
X25157148Y63343600D02*
X25330148Y63516600D01*
D26*
X24256383Y58013952D02*
X24946648Y58704217D01*
X24256383Y56035215D02*
X24256383Y58013952D01*
X24917148Y61825218D02*
X25243648Y62151718D01*
X23739582Y55518414D02*
X24256383Y56035215D01*
G04 #@! TO.N,/SD-A1*
X28060148Y61855574D02*
X27575309Y61370735D01*
X27823713Y62678745D02*
X28060148Y62442310D01*
X24374119Y54424833D02*
X23249678Y53300392D01*
X27575309Y59651761D02*
X26791194Y58867646D01*
X26791194Y56388672D02*
X26172122Y55769600D01*
X25687119Y55769600D02*
X24374119Y54456600D01*
X26791194Y58867646D02*
X26791194Y56388672D01*
D25*
X26180193Y49768181D02*
X25866948Y49768181D01*
X25798529Y49836600D02*
X24540148Y49836600D01*
D26*
X28060148Y62442310D02*
X28060148Y61855574D01*
X26172122Y55769600D02*
X25687119Y55769600D01*
X27575309Y61370735D02*
X27575309Y59651761D01*
D25*
X25866948Y49768181D02*
X25798529Y49836600D01*
D26*
X24374119Y54456600D02*
X24374119Y54424833D01*
D25*
G04 #@! TO.N,/SD-CLK*
X31442945Y46999305D02*
X31793718Y47350078D01*
X31442945Y46432691D02*
X31442945Y46999305D01*
X31806990Y46219758D02*
X31655878Y46219758D01*
X33757148Y54669600D02*
X34057148Y54369600D01*
X33877648Y50621152D02*
X34247147Y50251653D01*
X34247147Y50251653D02*
X34247148Y47851693D01*
X33767148Y46704095D02*
X32899653Y45836600D01*
X31863344Y59765023D02*
X31863344Y58333404D01*
X31863344Y58333404D02*
X32124736Y58072012D01*
X32843957Y58072012D02*
X33083148Y57832821D01*
X33757148Y57121847D02*
X33757148Y54669600D01*
X33083148Y57795847D02*
X33757148Y57121847D01*
X33877648Y52062574D02*
X33877648Y50621152D01*
X33767148Y47371693D02*
X33767148Y46704095D01*
X34057148Y52242074D02*
X33877648Y52062574D01*
X30850000Y60778367D02*
X31863344Y59765023D01*
X34057148Y54369600D02*
X34057148Y52242074D01*
X32899653Y45836600D02*
X32190148Y45836600D01*
X32190148Y45836600D02*
X31806990Y46219758D01*
X31655878Y46219758D02*
X31442945Y46432691D01*
X32124736Y58072012D02*
X32843957Y58072012D01*
X33083148Y57832821D02*
X33083148Y57795847D01*
X34247148Y47851693D02*
X33767148Y47371693D01*
X30850000Y61310000D02*
X30850000Y60778367D01*
D26*
G04 #@! TO.N,/SD-A3*
X25360004Y61625430D02*
X25360004Y60636917D01*
X26139773Y62856225D02*
X25577184Y62293636D01*
D25*
X24635336Y55778478D02*
X24635336Y57228610D01*
X24356582Y55499724D02*
X24635336Y55778478D01*
D26*
X25269346Y57892224D02*
X25284148Y57877422D01*
X25269346Y60546259D02*
X25269346Y57892224D01*
X25577184Y62293636D02*
X25577183Y61842609D01*
D25*
X24635336Y57228610D02*
X25284148Y57877422D01*
D26*
X25360004Y60636917D02*
X25269346Y60546259D01*
X26634091Y62856225D02*
X26139773Y62856225D01*
X25577183Y61842609D02*
X25360004Y61625430D01*
D25*
G04 #@! TO.N,/SD-A4*
X28690328Y55256420D02*
X28690328Y53330848D01*
X28690328Y53330848D02*
X28604794Y53245314D01*
G04 #@! TO.N,/SD-NWE*
X26873093Y55421597D02*
X26861041Y55421597D01*
X27830148Y58108640D02*
X27830148Y57557626D01*
X27135150Y56012773D02*
X27135148Y55683652D01*
X27938309Y60986600D02*
X28302309Y60622600D01*
X28220148Y59310913D02*
X28367668Y59163393D01*
X28302309Y60622600D02*
X28302309Y60111810D01*
X27472193Y57199671D02*
X27472193Y56349816D01*
X27830148Y57557626D02*
X27472193Y57199671D01*
X28220148Y60029649D02*
X28220148Y59310913D01*
X24780148Y47666600D02*
X25090148Y47666600D01*
X26435224Y54995780D02*
X25599848Y54995779D01*
X22630148Y52026079D02*
X22630148Y49816600D01*
X27867669Y58334121D02*
X27867669Y58146161D01*
X25599848Y54995779D02*
X22630148Y52026079D01*
X27867669Y58146161D02*
X27830148Y58108640D01*
X28302309Y60111810D02*
X28220148Y60029649D01*
X28367668Y59163393D02*
X28367668Y58834120D01*
X26861041Y55421597D02*
X26435224Y54995780D01*
X22630148Y49816600D02*
X24780148Y47666600D01*
X27472193Y56349816D02*
X27135150Y56012773D01*
X27135148Y55683652D02*
X26873093Y55421597D01*
X28367668Y58834120D02*
X27867669Y58334121D01*
G04 #@! TO.N,/SD-A5*
X25136648Y57267474D02*
X25136648Y56711912D01*
D26*
X25569346Y60049201D02*
X25716648Y59901899D01*
X25716648Y59901899D02*
X25716648Y59349922D01*
D25*
X25136648Y56711912D02*
X25098336Y56673600D01*
D26*
X25684148Y61293557D02*
X25684148Y60536797D01*
D25*
X25136648Y57267474D02*
X25716648Y57847474D01*
D26*
X26015923Y61625332D02*
X25684148Y61293557D01*
D25*
X25716648Y57847474D02*
X25716648Y59349922D01*
D26*
X25684148Y60536797D02*
X25569346Y60421995D01*
X25569346Y60421995D02*
X25569346Y60049201D01*
G04 #@! TO.N,/SD-BA1*
X36689393Y61635293D02*
X37641764Y60682922D01*
X32480148Y62206600D02*
X32480148Y62453422D01*
X32480148Y62453422D02*
X32516648Y62489922D01*
X38796648Y56859922D02*
X38796648Y55139922D01*
X38846648Y59049922D02*
X38846648Y56909922D01*
X35244707Y61635293D02*
X36689393Y61635293D01*
D25*
X28270148Y55349600D02*
X29147148Y56226600D01*
X28270148Y54607667D02*
X28270148Y55349600D01*
X28440648Y54437167D02*
X28270148Y54607667D01*
D26*
X32516648Y62489922D02*
X34390078Y62489922D01*
X34390078Y62489922D02*
X35244707Y61635293D01*
D25*
X26199851Y48990149D02*
X26573697Y48990149D01*
X26660148Y51814735D02*
X28440648Y53595235D01*
X26573697Y48990149D02*
X26660148Y49076600D01*
D26*
X37829584Y60682922D02*
X38476648Y60035858D01*
D25*
X28440648Y53595235D02*
X28440648Y54437167D01*
X26660148Y49076600D02*
X26660148Y51814735D01*
D26*
X37641764Y60682922D02*
X37829584Y60682922D01*
X38846648Y56909922D02*
X38796648Y56859922D01*
X38476648Y60035858D02*
X38476648Y59419922D01*
X38476648Y59419922D02*
X38846648Y59049922D01*
D25*
G04 #@! TO.N,/SD-BA0*
X32761600Y58796421D02*
X32761600Y60638907D01*
X34487511Y57234193D02*
X34539781Y57286462D01*
X30080148Y52996600D02*
X28212231Y51128683D01*
X28212231Y51128683D02*
X28212231Y49192043D01*
X33581675Y58075073D02*
X33309683Y58347065D01*
X34586000Y54850000D02*
X34586000Y55888608D01*
X34586000Y55888608D02*
X34726148Y56028756D01*
X33210956Y58347065D02*
X32761600Y58796421D01*
X32761600Y60638907D02*
X32474943Y60925564D01*
X34726148Y56506370D02*
X34487512Y56745006D01*
X33309683Y58347065D02*
X33210956Y58347065D01*
X34539781Y57286462D02*
X33751170Y58075073D01*
X34487512Y56745006D02*
X34487511Y57234193D01*
X34726148Y56028756D02*
X34726148Y56506370D01*
X33751170Y58075073D02*
X33581675Y58075073D01*
D26*
G04 #@! TO.N,/SD-D1*
X35491860Y59642600D02*
X35297400Y59642600D01*
X26130148Y43030203D02*
X28100429Y41059922D01*
X35297400Y59642600D02*
X34480148Y60459852D01*
X28100429Y41059922D02*
X33079922Y41059922D01*
X36976648Y52299922D02*
X37316648Y52639922D01*
X26130148Y44216600D02*
X26130148Y43030203D01*
X34480148Y60779989D02*
X33746537Y61513600D01*
X37316648Y56319922D02*
X37376648Y56379922D01*
X37376648Y56379922D02*
X37376648Y57757812D01*
X34480148Y60459852D02*
X34480148Y60779989D01*
X37376648Y57757812D02*
X35491860Y59642600D01*
X36976648Y44956648D02*
X36976648Y52299922D01*
X33079922Y41059922D02*
X36976648Y44956648D01*
X37316648Y52639922D02*
X37316648Y56319922D01*
D25*
G04 #@! TO.N,/SD-A12*
X36438596Y60710600D02*
X35818937Y60710600D01*
X32643646Y52179046D02*
X32494148Y52029548D01*
X38333148Y58816048D02*
X36438596Y60710600D01*
X32494148Y50383626D02*
X32803648Y50074126D01*
X32494148Y52029548D02*
X32494148Y50383626D01*
D26*
X35449759Y61234467D02*
X35449759Y61079778D01*
D25*
X32803648Y48923100D02*
X32940148Y48786600D01*
X32780148Y53346600D02*
X32643648Y53210100D01*
D26*
X35449759Y61079778D02*
X35818937Y60710600D01*
D25*
X32643648Y53210100D02*
X32643646Y52179046D01*
X38846648Y54029922D02*
X38333148Y54543422D01*
X38333148Y54543422D02*
X38333148Y58816048D01*
X32803648Y50074126D02*
X32803648Y48923100D01*
G04 #@! TO.N,/SD-A11*
X28821668Y59150912D02*
X28821668Y58021673D01*
X28965954Y57560477D02*
X28740295Y57334817D01*
X29427366Y49368420D02*
X29157895Y49098949D01*
X28965954Y57877387D02*
X28965954Y57560477D01*
X27317148Y54513600D02*
X27237148Y54513600D01*
X29040148Y59385190D02*
X29040148Y59369392D01*
X28924302Y59970843D02*
X28924302Y59766093D01*
X29040148Y59369392D02*
X28821668Y59150912D01*
X28043148Y55636667D02*
X28043148Y55239600D01*
X28043148Y55239600D02*
X27317148Y54513600D01*
X29227297Y60273838D02*
X28924302Y59970843D01*
X26120148Y53396600D02*
X25960148Y53396600D01*
X28821668Y58021673D02*
X28965954Y57877387D01*
X28740295Y56333814D02*
X28043148Y55636667D01*
X30598328Y49368420D02*
X29427366Y49368420D01*
X27237148Y54513600D02*
X26120148Y53396600D01*
X29037148Y59388190D02*
X29040148Y59385190D01*
X29037148Y59677426D02*
X29037148Y59388190D01*
X31030148Y48936600D02*
X30598328Y49368420D01*
X28740295Y57334817D02*
X28740295Y56333814D01*
X28948481Y59766093D02*
X29037148Y59677426D01*
D26*
G04 #@! TO.N,/SD-NE1*
X37603148Y52624488D02*
X37603148Y58126852D01*
X24290148Y43996600D02*
X27976826Y40309922D01*
X37220000Y52241340D02*
X37603148Y52624488D01*
X32590000Y61270000D02*
X32113927Y61270000D01*
X32729922Y40309922D02*
X37220000Y44800000D01*
X24290148Y45076600D02*
X24290148Y43996600D01*
X27976826Y40309922D02*
X32729922Y40309922D01*
X33243422Y61923422D02*
X32590000Y61270000D01*
X37220000Y44800000D02*
X37220000Y52241340D01*
X34886259Y60843741D02*
X34886259Y60970241D01*
X33933078Y61923422D02*
X33243422Y61923422D01*
X32113927Y61270000D02*
X31799403Y60955476D01*
X37603148Y58126852D02*
X34886259Y60843741D01*
X34886259Y60970241D02*
X33933078Y61923422D01*
G04 #@! TO.N,/SD-D0*
X36650000Y46274462D02*
X36650000Y55187867D01*
X34784147Y59442601D02*
X34280148Y59946600D01*
X34280148Y60486600D02*
X33883425Y60883323D01*
X35683149Y43983149D02*
X35683149Y45307611D01*
X36650000Y55187867D02*
X36572648Y55265219D01*
X35793675Y58693073D02*
X35793675Y59057943D01*
X36572649Y56365220D02*
X36790148Y56582719D01*
X36572648Y55265219D02*
X36572649Y56365220D01*
X35793675Y59057943D02*
X35409018Y59442600D01*
X35683149Y45307611D02*
X36650000Y46274462D01*
X26610148Y43186600D02*
X28166826Y41629922D01*
X33883425Y60883323D02*
X33137799Y60883323D01*
X36790148Y57696600D02*
X35793675Y58693073D01*
X34280148Y59946600D02*
X34280148Y60486600D01*
X28166826Y41629922D02*
X33329922Y41629922D01*
X35409018Y59442600D02*
X34784147Y59442601D01*
X33329922Y41629922D02*
X35683149Y43983149D01*
X36790148Y56582719D02*
X36790148Y57696600D01*
D25*
G04 #@! TO.N,/SD-A7*
X29377864Y60637338D02*
X29590797Y60424405D01*
X30600148Y50191207D02*
X31038298Y49753057D01*
X31613648Y54327167D02*
X31613648Y53783100D01*
X29893841Y59322907D02*
X30025522Y59322907D01*
X29590797Y59625951D02*
X29893841Y59322907D01*
X30932854Y52149306D02*
X30600148Y51816600D01*
X30563648Y57648152D02*
X30648106Y57563694D01*
X30600148Y51816600D02*
X30600148Y50191207D01*
X30563648Y58784781D02*
X30563648Y57648152D01*
X29590797Y60424405D02*
X29590797Y59625951D01*
X29069410Y60637338D02*
X29377864Y60637338D01*
X31613648Y53783100D02*
X31805148Y53591600D01*
X30025522Y59322907D02*
X30563648Y58784781D01*
X31740148Y55627626D02*
X31740148Y54453667D01*
X28301309Y61406600D02*
X28301309Y61405439D01*
X28301309Y61405439D02*
X29069410Y60637338D01*
X30648106Y57563694D02*
X30648106Y56719668D01*
X30648106Y56719668D02*
X31740148Y55627626D01*
X31740148Y54453667D02*
X31613648Y54327167D01*
G04 #@! TO.N,/SD-A10*
X27362149Y55918746D02*
X27362148Y55589626D01*
X27780148Y56336745D02*
X27362149Y55918746D01*
X26967121Y55194599D02*
X26955068Y55194598D01*
X28057148Y58014614D02*
X28057148Y57463600D01*
X28594668Y58552134D02*
X28057148Y58014614D01*
X26955068Y55194598D02*
X26529250Y54768780D01*
X27362148Y55589626D02*
X26967121Y55194599D01*
X24010148Y53085053D02*
X24010148Y52846600D01*
X26529250Y54768780D02*
X25693875Y54768780D01*
X28594668Y59627446D02*
X28594668Y58552134D01*
X27780148Y57186600D02*
X27780148Y56336745D01*
X25693875Y54768780D02*
X24010148Y53085053D01*
X28057148Y57463600D02*
X27780148Y57186600D01*
G04 #@! TO.N,/SD-D10*
X34576648Y58999074D02*
X34576649Y58919073D01*
X36030148Y56785797D02*
X35891649Y56647298D01*
X36030148Y57465574D02*
X36030148Y56785797D01*
X35891649Y46724675D02*
X35173541Y46006567D01*
X33125100Y60276123D02*
X33125100Y60086600D01*
X33125100Y60086600D02*
X33421553Y60086600D01*
X33692123Y59883599D02*
X34576648Y58999074D01*
X35891649Y56647298D02*
X35891649Y46724675D01*
X33421553Y60086600D02*
X33624554Y59883599D01*
X34576649Y58919073D02*
X36030148Y57465574D01*
X33624554Y59883599D02*
X33692123Y59883599D01*
G04 #@! TO.N,/SD-D15*
X33306648Y42689922D02*
X33734813Y43118087D01*
X36436500Y55099432D02*
X36345648Y55190284D01*
X36563148Y57602574D02*
X35303774Y58861948D01*
X34498087Y43118087D02*
X35456149Y44076149D01*
X35303774Y58861948D02*
X35303774Y59034484D01*
X33734813Y43118087D02*
X34498087Y43118087D01*
X36345649Y56459246D02*
X36563148Y56676745D01*
X36345648Y55190284D02*
X36345649Y56459246D01*
X35456149Y44076149D02*
X35456149Y45401637D01*
X36436500Y46381988D02*
X36436500Y55099432D01*
X36563148Y56676745D02*
X36563148Y57602574D01*
X35456149Y45401637D02*
X36436500Y46381988D01*
G04 #@! TO.N,/SD-A6*
X26908149Y55824601D02*
X26908151Y56106800D01*
X27080148Y58088806D02*
X28004168Y59012826D01*
X26311416Y55385332D02*
X26468880Y55385332D01*
X27080148Y56278797D02*
X27080148Y58088806D01*
X26468880Y55385332D02*
X26908149Y55824601D01*
X26908151Y56106800D02*
X27080148Y56278797D01*
G04 #@! TO.N,/SD-A9*
X28513295Y56986813D02*
X28513295Y56427840D01*
X27816149Y55730694D02*
X27816148Y55333626D01*
X27223121Y54740599D02*
X27143121Y54740599D01*
X26580802Y54178280D02*
X26388468Y54178280D01*
X28400148Y57508738D02*
X28400148Y57099960D01*
X27143121Y54740599D02*
X26580802Y54178280D01*
X28400148Y57099960D02*
X28513295Y56986813D01*
X27816148Y55333626D02*
X27223121Y54740599D01*
X28513295Y56427840D02*
X27816149Y55730694D01*
X28602454Y57711044D02*
X28400148Y57508738D01*
G04 #@! TO.N,/SD-D5*
X26150148Y45846600D02*
X25200148Y45846600D01*
X29874955Y58807648D02*
X29874955Y58959407D01*
X30336648Y58345955D02*
X29874955Y58807648D01*
X31377148Y55669600D02*
X30421106Y56625642D01*
X30421106Y57469668D02*
X30336648Y57554126D01*
X27150148Y48062231D02*
X26590148Y47502231D01*
X29890148Y54076600D02*
X29890148Y53466600D01*
X29890148Y53466600D02*
X27150148Y50726600D01*
X31377148Y55006600D02*
X31377148Y55669600D01*
X30336648Y57554126D02*
X30336648Y58345955D01*
X29120148Y54846600D02*
X29890148Y54076600D01*
X26590148Y47502231D02*
X26590148Y46286600D01*
X30421106Y56625642D02*
X30421106Y57469668D01*
X27150148Y50726600D02*
X27150148Y48062231D01*
X26590148Y46286600D02*
X26150148Y45846600D01*
G04 #@! TO.N,/SD-D6*
X28200488Y48742033D02*
X27409649Y47951194D01*
X30539658Y59611564D02*
X30539658Y59328116D01*
X30790648Y58534007D02*
X30790648Y57742178D01*
X31977148Y55711652D02*
X31977148Y54176600D01*
X27409649Y47951194D02*
X27409648Y46999347D01*
X30539658Y59328116D02*
X30830148Y59037626D01*
X30830148Y58573507D02*
X30790648Y58534007D01*
X27409648Y46999347D02*
X27000362Y46590061D01*
X29930148Y50396600D02*
X28275581Y48742033D01*
X30887148Y56801652D02*
X31977148Y55711652D01*
X28275581Y48742033D02*
X28200488Y48742033D01*
X30830148Y59037626D02*
X30830148Y58573507D01*
X29930148Y51986600D02*
X29930148Y50396600D01*
X30490148Y52546600D02*
X29930148Y51986600D01*
X30887148Y57645678D02*
X30887148Y56801652D01*
X30790648Y57742178D02*
X30887148Y57645678D01*
G04 #@! TO.N,/SD-D8*
X32202554Y56893240D02*
X31823148Y57272646D01*
X33030648Y49722600D02*
X33030648Y50168152D01*
X33166648Y49586600D02*
X33030648Y49722600D01*
X33143648Y53663100D02*
X32794647Y54012101D01*
X32794647Y54012101D02*
X32794648Y54515219D01*
X32704148Y54605719D02*
X32704148Y56252600D01*
X31823148Y57272646D02*
X31823148Y57333763D01*
X32704148Y56252600D02*
X32202554Y56754194D01*
X33143648Y52915193D02*
X33143648Y53663100D01*
X32794648Y54515219D02*
X32704148Y54605719D01*
X33030648Y50168152D02*
X32969648Y50229152D01*
X31823148Y57333763D02*
X31772344Y57384567D01*
X32202554Y56754194D02*
X32202554Y56893240D01*
X32969648Y52741193D02*
X33143648Y52915193D01*
X32969648Y50229152D02*
X32969648Y52741193D01*
G04 #@! TO.N,/SD-D11*
X36280148Y56714771D02*
X36118649Y56553272D01*
X34803648Y59093100D02*
X34803648Y59013100D01*
X33775121Y60121627D02*
X34803648Y59093100D01*
X36118649Y56553272D02*
X36118649Y46385163D01*
X33080172Y45521667D02*
X32995105Y45436600D01*
X34803648Y59013100D02*
X36280148Y57536600D01*
X32995105Y45436600D02*
X32070148Y45436600D01*
X35037377Y45303891D02*
X35036648Y45303891D01*
X33775121Y60247099D02*
X33775121Y60121627D01*
X36118649Y46385163D02*
X35037377Y45303891D01*
X36280148Y57536600D02*
X36280148Y56714771D01*
X32070148Y45436600D02*
X31780148Y45726600D01*
G04 #@! TO.N,/SD-D14*
X34674153Y45596884D02*
X34573148Y45495879D01*
X34573148Y45137602D02*
X34017732Y44582186D01*
X34017732Y44582186D02*
X32727922Y44582186D01*
X34882955Y58099407D02*
X35075289Y58099407D01*
X35664648Y55683152D02*
X35630000Y55648504D01*
X35803148Y56879823D02*
X35664650Y56741325D01*
X35630000Y55648504D02*
X35630000Y46977093D01*
X35630000Y46977093D02*
X34674153Y46021246D01*
X32727922Y44582186D02*
X32606828Y44703280D01*
X35075289Y58099407D02*
X35803148Y57371548D01*
X35803148Y57371548D02*
X35803148Y56879823D01*
X35664650Y56741325D02*
X35664648Y55683152D01*
X34674153Y46021246D02*
X34674153Y45596884D01*
X34573148Y45495879D02*
X34573148Y45137602D01*
G04 #@! TO.N,/SD-D13*
X34447153Y45690910D02*
X34447154Y46115273D01*
X35540148Y57056600D02*
X34860841Y57735907D01*
X35437648Y55777178D02*
X35437651Y56835352D01*
X34346148Y45232109D02*
X34346149Y45589906D01*
X35403000Y55742530D02*
X35437648Y55777178D01*
X33322115Y44809186D02*
X33923224Y44809185D01*
X33760653Y58707642D02*
X33760653Y58961622D01*
X31888956Y45066780D02*
X33064521Y45066780D01*
X35540148Y56937849D02*
X35540148Y57056600D01*
X35437651Y56835352D02*
X35540148Y56937849D01*
X34346149Y45589906D02*
X34447153Y45690910D01*
X34447154Y46115273D02*
X35403000Y47071119D01*
X34860841Y57735907D02*
X34732388Y57735907D01*
X33923224Y44809185D02*
X34346148Y45232109D01*
X31806208Y44984032D02*
X31888956Y45066780D01*
X34732388Y57735907D02*
X33760653Y58707642D01*
X35403000Y47071119D02*
X35403000Y55742530D01*
X33064521Y45066780D02*
X33322115Y44809186D01*
G04 #@! TO.N,/SD-NRAS*
X27589149Y55824720D02*
X27589148Y55495600D01*
X27049095Y54967599D02*
X26623276Y54541780D01*
X22990148Y51286600D02*
X22990148Y49876600D01*
X28149795Y56385366D02*
X27589149Y55824720D01*
X22990148Y49876600D02*
X24782554Y48084194D01*
X24782554Y48084194D02*
X26337018Y48084194D01*
X24610148Y53364027D02*
X24610148Y52906600D01*
X24610148Y52906600D02*
X22990148Y51286600D01*
X26623276Y54541780D02*
X25787901Y54541780D01*
X28149795Y56836246D02*
X28149795Y56385366D01*
X27589148Y55495600D02*
X27061147Y54967599D01*
X27061147Y54967599D02*
X27049095Y54967599D01*
X25787901Y54541780D02*
X24610148Y53364027D01*
G04 #@! TO.N,/SD-A8*
X31740148Y52740667D02*
X31740148Y49869738D01*
X29570148Y55066600D02*
X29560148Y55056600D01*
X29570148Y55620132D02*
X29570148Y55066600D01*
X29103295Y57048833D02*
X29510148Y56641980D01*
X31740148Y49869738D02*
X31909845Y49700041D01*
X29510148Y56641980D02*
X29510148Y55680132D01*
X29510148Y55680132D02*
X29570148Y55620132D01*
X29560148Y55056600D02*
X29560148Y54920667D01*
X29560148Y54920667D02*
X31740148Y52740667D01*
G04 #@! TO.N,/SD-D4*
X29609648Y57446033D02*
X29609648Y58116100D01*
X26964694Y44943100D02*
X27005660Y44984066D01*
X29967106Y57088575D02*
X29609648Y57446033D01*
X29609648Y58116100D02*
X29610148Y58116600D01*
X27390148Y54286600D02*
X23520148Y50416600D01*
X23510148Y47036600D02*
X23510148Y46522533D01*
X23510148Y46522533D02*
X25089581Y44943100D01*
X25089581Y44943100D02*
X26964694Y44943100D01*
X29967106Y56437590D02*
X29967106Y57088575D01*
X28077148Y54286600D02*
X27390148Y54286600D01*
X30030148Y55088942D02*
X30030148Y56374548D01*
X30030148Y56374548D02*
X29967106Y56437590D01*
X23520148Y50416600D02*
X23520148Y50146600D01*
X30420148Y54698942D02*
X30030148Y55088942D01*
G04 #@! TO.N,/SD-D7*
X30194106Y57375642D02*
X29973148Y57596600D01*
X26890148Y48706600D02*
X26700518Y48516970D01*
X31158468Y54468280D02*
X30760148Y54866600D01*
X30194106Y56531616D02*
X30194106Y57375642D01*
X26700518Y47933627D02*
X25711223Y46944332D01*
X29089623Y53923600D02*
X29150148Y53863075D01*
X29150148Y53047626D02*
X26890148Y50787626D01*
X26700518Y48516970D02*
X26700518Y47933627D01*
X25711223Y46944332D02*
X25213648Y46944332D01*
X26890148Y50787626D02*
X26890148Y48706600D01*
X30760148Y55965574D02*
X30194106Y56531616D01*
X30760148Y54866600D02*
X30760148Y55965574D01*
X29150148Y53863075D02*
X29150148Y53047626D01*
G04 #@! TO.N,/SD-D9*
X33597646Y53979102D02*
X33597646Y52727139D01*
X33136828Y56673280D02*
X33250148Y56559960D01*
X32910148Y47146600D02*
X32720148Y46956600D01*
X33423648Y52553141D02*
X33423648Y50433100D01*
X32179787Y46956600D02*
X31806445Y46583258D01*
X33790148Y48036745D02*
X32910148Y47156745D01*
X33423648Y50433100D02*
X33790148Y50066600D01*
X33790148Y50066600D02*
X33790148Y48036745D01*
X32720148Y46956600D02*
X32179787Y46956600D01*
X33250148Y56559960D02*
X33250148Y54326600D01*
X32910148Y47156745D02*
X32910148Y47146600D01*
X33250148Y54326600D02*
X33597646Y53979102D01*
X33597646Y52727139D02*
X33423648Y52553141D01*
G04 #@! TO.N,/SD-D12*
X33830148Y54216600D02*
X33830148Y52336100D01*
X33114898Y57250030D02*
X33530148Y56834780D01*
X34020148Y50157626D02*
X34020148Y47945719D01*
X33830148Y52336100D02*
X33650648Y52156600D01*
X33490148Y54556600D02*
X33830148Y54216600D01*
X33530148Y56834780D02*
X33530148Y55963450D01*
X33540148Y47465719D02*
X33540148Y46991162D01*
X33540148Y46991162D02*
X32754241Y46205255D01*
X34020148Y47945719D02*
X33540148Y47465719D01*
X33650648Y52156600D02*
X33650648Y50527126D01*
X33650648Y50527126D02*
X34020148Y50157626D01*
X33530148Y55963450D02*
X33490148Y55923450D01*
X33490148Y55923450D02*
X33490148Y54556600D01*
G04 #@! TD*
M02*
