G04 #@! TF.GenerationSoftware,KiCad,Pcbnew,8.0.5*
G04 #@! TF.CreationDate,2024-10-08T11:29:37-07:00*
G04 #@! TF.ProjectId,Sampler-built,53616d70-6c65-4722-9d62-75696c742e6b,rev?*
G04 #@! TF.SameCoordinates,PX815dad0PY77b6f90*
G04 #@! TF.FileFunction,Copper,L3,Inr*
G04 #@! TF.FilePolarity,Positive*
%FSLAX46Y46*%
G04 Gerber Fmt 4.6, Leading zero omitted, Abs format (unit mm)*
G04 Created by KiCad (PCBNEW 8.0.5) date 2024-10-08 11:29:37*
%MOMM*%
%LPD*%
G01*
G04 APERTURE LIST*
G04 #@! TA.AperFunction,ComponentPad*
%ADD10C,1.700000*%
G04 #@! TD*
G04 #@! TA.AperFunction,ComponentPad*
%ADD11O,1.700000X1.700000*%
G04 #@! TD*
G04 #@! TA.AperFunction,ComponentPad*
%ADD12R,1.700000X1.700000*%
G04 #@! TD*
G04 #@! TA.AperFunction,ComponentPad*
%ADD13C,1.930400*%
G04 #@! TD*
G04 #@! TA.AperFunction,ComponentPad*
%ADD14C,1.600000*%
G04 #@! TD*
G04 #@! TA.AperFunction,ComponentPad*
%ADD15C,1.300000*%
G04 #@! TD*
G04 #@! TA.AperFunction,ComponentPad*
%ADD16O,1.397000X1.092200*%
G04 #@! TD*
G04 #@! TA.AperFunction,ComponentPad*
%ADD17O,1.524000X1.524000*%
G04 #@! TD*
G04 #@! TA.AperFunction,ComponentPad*
%ADD18C,2.286000*%
G04 #@! TD*
G04 #@! TA.AperFunction,ViaPad*
%ADD19C,0.400000*%
G04 #@! TD*
G04 #@! TA.AperFunction,Conductor*
%ADD20C,0.203200*%
G04 #@! TD*
G04 #@! TA.AperFunction,Conductor*
%ADD21C,0.127000*%
G04 #@! TD*
G04 #@! TA.AperFunction,Conductor*
%ADD22C,0.200000*%
G04 #@! TD*
G04 APERTURE END LIST*
D10*
G04 #@! TO.N,/UART_TX*
G04 #@! TO.C,J4*
X27646648Y91469922D03*
G04 #@! TO.N,GND*
X27646648Y94009922D03*
D11*
G04 #@! TO.N,/UART_RX*
X30186648Y91469922D03*
G04 #@! TO.N,GND*
X30186648Y94009922D03*
G04 #@! TO.N,/DEBUG2*
X32726648Y91469922D03*
G04 #@! TO.N,GND*
X32726648Y94009922D03*
D10*
G04 #@! TO.N,/DEBUG3*
X35266648Y91469922D03*
G04 #@! TO.N,GND*
X35266648Y94009922D03*
G04 #@! TD*
D12*
G04 #@! TO.N,+3V3*
G04 #@! TO.C,J3*
X57226648Y80469922D03*
D11*
G04 #@! TO.N,/SWDCLK*
X57226648Y77929922D03*
G04 #@! TO.N,GND*
X57226648Y75389922D03*
G04 #@! TO.N,/SWDIO*
X57226648Y72849922D03*
G04 #@! TD*
G04 #@! TO.N,Net-(D16-A)*
G04 #@! TO.C,J10*
X14936648Y23659922D03*
X17476648Y23659922D03*
G04 #@! TO.N,GND*
X14936648Y21119922D03*
X17476648Y21119922D03*
X14936648Y18579922D03*
X17476648Y18579922D03*
X14936648Y16039922D03*
X17476648Y16039922D03*
G04 #@! TO.N,Net-(D17-K)*
X14936648Y13499922D03*
X17476648Y13499922D03*
G04 #@! TD*
D13*
G04 #@! TO.N,Net-(J12-SIG)*
G04 #@! TO.C,J12*
X8608648Y27146922D03*
G04 #@! TO.N,GND*
X8608648Y16174122D03*
X8608648Y18587122D03*
G04 #@! TD*
G04 #@! TO.N,Net-(J17-SIG)*
G04 #@! TO.C,J17*
X36800848Y1687362D03*
G04 #@! TO.N,GND*
X36800848Y12660162D03*
G04 #@! TO.N,unconnected-(J17-SW-Pad3)*
X36800848Y10247162D03*
G04 #@! TD*
G04 #@! TO.N,Net-(J16-SIG)*
G04 #@! TO.C,J16*
X52300848Y1687362D03*
G04 #@! TO.N,GND*
X52300848Y12660162D03*
G04 #@! TO.N,unconnected-(J16-SW-Pad3)*
X52300848Y10247162D03*
G04 #@! TD*
D14*
G04 #@! TO.N,unconnected-(Bank_But1-UP-A-Pad1)*
G04 #@! TO.C,Bank_But1*
X53008648Y104839922D03*
G04 #@! TO.N,Net-(Bank_But1-POLE-A)*
X46508648Y104839922D03*
G04 #@! TO.N,unconnected-(Bank_But1-DOWN-A-Pad3)*
X53008648Y100339922D03*
G04 #@! TO.N,GND*
X46508648Y100339922D03*
D15*
G04 #@! TO.N,+3V3*
X50658648Y105489922D03*
G04 #@! TO.N,Net-(Bank_But1-G)*
X48858648Y105489922D03*
G04 #@! TO.N,Net-(Bank_But1-R)*
X48858648Y99689922D03*
G04 #@! TO.N,Net-(Bank_But1-B)*
X50658648Y99689922D03*
G04 #@! TD*
D16*
G04 #@! TO.N,/D18*
G04 #@! TO.C,SD1*
X31946648Y79490171D03*
G04 #@! TO.N,/D19*
X33046468Y80589991D03*
G04 #@! TO.N,/D4*
X31946648Y81690065D03*
G04 #@! TO.N,+3V3*
X33046468Y82789885D03*
G04 #@! TO.N,/D9*
X31946648Y83889959D03*
G04 #@! TO.N,GND*
X33046468Y84989779D03*
G04 #@! TO.N,/D16*
X31946648Y86089853D03*
G04 #@! TO.N,/D17*
X33046468Y87189673D03*
D17*
G04 #@! TO.N,GND*
X28776728Y79047322D03*
X28776728Y87632522D03*
G04 #@! TD*
D18*
G04 #@! TO.N,GNDADC*
G04 #@! TO.C,POT_LENGTH1*
X15508648Y48985922D03*
G04 #@! TO.N,Net-(POT_LENGTH1-Center)*
X10508648Y48985922D03*
G04 #@! TO.N,VREF+*
X5508648Y48985922D03*
G04 #@! TD*
D13*
G04 #@! TO.N,Net-(J2-SIG)*
G04 #@! TO.C,J2*
X36636648Y42146922D03*
G04 #@! TO.N,GND*
X36636648Y31174122D03*
X36636648Y33587122D03*
G04 #@! TD*
D18*
G04 #@! TO.N,GNDADC*
G04 #@! TO.C,POT_PITCH1*
X52136648Y74985922D03*
G04 #@! TO.N,Net-(POT_PITCH1-Center)*
X47136648Y74985922D03*
G04 #@! TO.N,VREF+*
X42136648Y74985922D03*
G04 #@! TD*
D13*
G04 #@! TO.N,Net-(J7-SIG)*
G04 #@! TO.C,J7*
X13815648Y36939922D03*
G04 #@! TO.N,GND*
X2842848Y36939922D03*
X5255848Y36939922D03*
G04 #@! TD*
G04 #@! TO.N,Net-(J6-SIG)*
G04 #@! TO.C,J6*
X29343648Y36939922D03*
G04 #@! TO.N,GND*
X18370848Y36939922D03*
X20783848Y36939922D03*
G04 #@! TD*
G04 #@! TO.N,Net-(J15-SIG)*
G04 #@! TO.C,J15*
X24136648Y1732922D03*
G04 #@! TO.N,GND*
X24136648Y12705722D03*
G04 #@! TO.N,unconnected-(J15-SW-Pad3)*
X24136648Y10292722D03*
G04 #@! TD*
D14*
G04 #@! TO.N,unconnected-(REV_BUT1-UP-A-Pad1)*
G04 #@! TO.C,REV_BUT1*
X14136648Y104839922D03*
G04 #@! TO.N,Net-(REV_BUT1-POLE-A)*
X7636648Y104839922D03*
G04 #@! TO.N,unconnected-(REV_BUT1-DOWN-A-Pad3)*
X14136648Y100339922D03*
G04 #@! TO.N,GND*
X7636648Y100339922D03*
D15*
G04 #@! TO.N,+3V3*
X11786648Y105489922D03*
G04 #@! TO.N,Net-(REV_BUT1-G)*
X9986648Y105489922D03*
G04 #@! TO.N,Net-(REV_BUT1-R)*
X9986648Y99689922D03*
G04 #@! TO.N,Net-(REV_BUT1-B)*
X11786648Y99689922D03*
G04 #@! TD*
D13*
G04 #@! TO.N,Net-(J9-SIG)*
G04 #@! TO.C,J9*
X24136648Y27146922D03*
G04 #@! TO.N,GND*
X24136648Y16174122D03*
X24136648Y18587122D03*
G04 #@! TD*
G04 #@! TO.N,Net-(J8-SIG)*
G04 #@! TO.C,J8*
X46929648Y36939922D03*
G04 #@! TO.N,GND*
X57902448Y36939922D03*
X55489448Y36939922D03*
G04 #@! TD*
G04 #@! TO.N,Net-(J11-SIG)*
G04 #@! TO.C,J11*
X8608648Y1732922D03*
G04 #@! TO.N,GND*
X8608648Y12705722D03*
X8608648Y10292722D03*
G04 #@! TD*
G04 #@! TO.N,Net-(J13-SIG)*
G04 #@! TO.C,J13*
X46929648Y21939922D03*
G04 #@! TO.N,GND*
X57902448Y21939922D03*
X55489448Y21939922D03*
G04 #@! TD*
D18*
G04 #@! TO.N,GNDADC*
G04 #@! TO.C,POT_START1*
X55136648Y48985922D03*
G04 #@! TO.N,Net-(POT_START1-Center)*
X50136648Y48985922D03*
G04 #@! TO.N,VREF+*
X45136648Y48985922D03*
G04 #@! TD*
D13*
G04 #@! TO.N,Net-(J14-SIG)*
G04 #@! TO.C,J14*
X41843648Y21939922D03*
G04 #@! TO.N,GND*
X30870848Y21939922D03*
X33283848Y21939922D03*
G04 #@! TD*
D14*
G04 #@! TO.N,unconnected-(PLAY_BUT1-UP-A-Pad1)*
G04 #@! TO.C,PLAY_BUT1*
X33322648Y102739922D03*
G04 #@! TO.N,Net-(PLAY_BUT1-POLE-A)*
X27330648Y102739922D03*
G04 #@! TO.N,unconnected-(PLAY_BUT1-DOWN-A-Pad3)*
X33322648Y98239922D03*
G04 #@! TO.N,GND*
X27330648Y98239922D03*
D15*
G04 #@! TO.N,+3V3*
X31226648Y103389922D03*
G04 #@! TO.N,Net-(PLAY_BUT1-G)*
X29426648Y103389922D03*
G04 #@! TO.N,Net-(PLAY_BUT1-R)*
X29426648Y97589922D03*
G04 #@! TO.N,Net-(PLAY_BUT1-B)*
X31226648Y97589922D03*
G04 #@! TD*
D18*
G04 #@! TO.N,GNDADC*
G04 #@! TO.C,POT_SAMP1*
X18440000Y75166000D03*
G04 #@! TO.N,Net-(POT_SAMP1-Center)*
X13440000Y75166000D03*
G04 #@! TO.N,VREF+*
X8440000Y75166000D03*
G04 #@! TD*
D19*
G04 #@! TO.N,-12VA*
X9760000Y2820000D03*
X2240000Y48070000D03*
G04 #@! TO.N,GND*
X21350000Y7030000D03*
G04 #@! TO.N,-12VA*
X31340000Y1140000D03*
X22320000Y3380000D03*
G04 #@! TO.N,GND*
X11220000Y6490000D03*
X11990000Y4260000D03*
G04 #@! TO.N,+12V*
X57850000Y29780000D03*
G04 #@! TO.N,GND*
X25350000Y7030000D03*
X13100000Y10030000D03*
G04 #@! TO.N,+12V*
X9441600Y35777646D03*
X18100000Y30280000D03*
X7371600Y36030000D03*
X7308400Y37780000D03*
G04 #@! TO.N,GND*
X7290000Y62140000D03*
X32467073Y63488450D03*
X7760000Y59100000D03*
X35126648Y34659922D03*
X9986648Y55659922D03*
X14759685Y66760315D03*
X8696570Y55650000D03*
X6631700Y59078300D03*
X42716648Y11619922D03*
X27660000Y71480000D03*
X6660000Y67260000D03*
X29041884Y46717168D03*
X29160149Y55583849D03*
X38466648Y12949922D03*
X9130000Y59040000D03*
X49426648Y40839922D03*
X33592383Y25926500D03*
X27894820Y44282832D03*
X30226648Y34329922D03*
X48466648Y58979922D03*
X49576648Y43979922D03*
X11716648Y56849922D03*
X31330148Y64426600D03*
X39126648Y61129922D03*
X20126500Y60460000D03*
X3676648Y106989922D03*
X31176648Y7579922D03*
X27261648Y31269922D03*
X4929601Y46089769D03*
X36130000Y66950000D03*
X15696648Y57199922D03*
X25786648Y106889922D03*
X51946648Y18769922D03*
X6830000Y71790000D03*
X30846648Y2964922D03*
X38646648Y65139922D03*
X9366648Y55639922D03*
X33624273Y43481587D03*
X8460000Y59170000D03*
X52326648Y26119922D03*
X30131798Y45185040D03*
X29410753Y43104582D03*
X22110000Y66190000D03*
X13056648Y86204922D03*
X50140000Y59620000D03*
X7340000Y62940000D03*
X43630000Y51810000D03*
X50456648Y18689922D03*
X31377148Y51676600D03*
X22086562Y61579836D03*
X6051700Y59108300D03*
X44280000Y55100000D03*
X5386648Y58759922D03*
X28850148Y48386600D03*
X50870000Y57744922D03*
X47607148Y52040000D03*
G04 #@! TO.N,+3V3*
X31530148Y69936600D03*
X23570148Y66686600D03*
X23536648Y36209922D03*
X29220148Y58966600D03*
X8370000Y60310000D03*
X23080000Y82960000D03*
X37830612Y60045497D03*
X25257284Y43948568D03*
X26702208Y70726780D03*
X23280000Y77320000D03*
X7371600Y42200000D03*
X30015212Y45721488D03*
X31376648Y52496600D03*
X28816112Y45286010D03*
X15366648Y53079922D03*
X12240000Y44740000D03*
X7780000Y60250000D03*
X47460000Y47780000D03*
X29180148Y47686600D03*
X6890000Y60360000D03*
X5431700Y60438300D03*
X9100000Y60300000D03*
X7960000Y52910000D03*
X25566148Y50583048D03*
X6121700Y60408300D03*
X53230000Y34280000D03*
X35310148Y63326600D03*
X25766648Y41249922D03*
X48494510Y35919637D03*
X27450148Y42996600D03*
X44510000Y36380000D03*
X29763498Y43751210D03*
G04 #@! TO.N,/A4*
X21890000Y45390000D03*
X7371600Y39500000D03*
G04 #@! TO.N,GNDADC*
X43421522Y46281522D03*
X41999998Y46600000D03*
G04 #@! TO.N,/A5*
X22566648Y37389922D03*
X23056648Y30950422D03*
X19156648Y42829922D03*
X21330000Y45750000D03*
G04 #@! TO.N,+12V*
X50850000Y58422531D03*
X47606648Y58739922D03*
X10256648Y70999922D03*
X33056648Y24199922D03*
X38546648Y21829922D03*
X51546648Y23049922D03*
X41436648Y4899922D03*
X41966648Y11719922D03*
X25916648Y7999922D03*
X11806648Y82929922D03*
X23546648Y29199922D03*
X4125000Y72530000D03*
X9326648Y54599922D03*
X51134148Y45879922D03*
X10859257Y45077313D03*
G04 #@! TO.N,-12VA*
X11670000Y86830000D03*
X43916648Y9679922D03*
X47346648Y14909922D03*
X43536648Y39099922D03*
X33986648Y10699922D03*
X30236648Y32109922D03*
X42446648Y12669922D03*
X45056648Y9109922D03*
X46740000Y51910000D03*
X33056648Y13299922D03*
X8610000Y88020000D03*
X30036648Y29739922D03*
G04 #@! TO.N,/A2*
X21945316Y40095314D03*
X22330000Y44040000D03*
G04 #@! TO.N,/A7*
X20380000Y84010000D03*
X21090000Y69050000D03*
X23510000Y59820000D03*
X21426500Y75230000D03*
G04 #@! TO.N,/A6*
X23620148Y64996600D03*
X26780000Y88520000D03*
X26019346Y60235598D03*
X25324993Y64806600D03*
G04 #@! TO.N,/D6*
X41606648Y57489922D03*
X42577800Y100236803D03*
G04 #@! TO.N,/D8*
X17370000Y59380000D03*
X33984612Y45645009D03*
X35078011Y56989600D03*
X17376648Y48089922D03*
X22480000Y95780000D03*
X17430000Y51480000D03*
G04 #@! TO.N,/A9*
X21850000Y57180000D03*
X21052493Y66026180D03*
G04 #@! TO.N,/D15*
X31970000Y26390000D03*
X38800000Y36960000D03*
X38580000Y38830000D03*
X41290000Y56343500D03*
X34170148Y56206600D03*
X31580004Y62206644D03*
G04 #@! TO.N,/D13*
X37980000Y38810000D03*
X31820000Y61559241D03*
X38270000Y36960000D03*
X11166648Y22769922D03*
G04 #@! TO.N,VREF+*
X20760000Y58820000D03*
X5650000Y66590000D03*
X42950000Y45590000D03*
X6640000Y66380000D03*
X41860000Y46010000D03*
X22810000Y59850000D03*
G04 #@! TO.N,/D11*
X40076648Y60299922D03*
X36188769Y70962043D03*
X34390000Y70990000D03*
X35326648Y81209922D03*
G04 #@! TO.N,/D10*
X21820000Y99699922D03*
X40696648Y59739922D03*
G04 #@! TO.N,/D14*
X36966648Y81799922D03*
X34160000Y85480000D03*
X36164039Y81027313D03*
X35212341Y62598793D03*
G04 #@! TO.N,/D12*
X37293648Y82329922D03*
X37900000Y67990000D03*
X34670148Y64316600D03*
X37456648Y68939922D03*
G04 #@! TO.N,/D0*
X46560000Y94840000D03*
X38956500Y70132256D03*
G04 #@! TO.N,/D1*
X30330000Y77130000D03*
X38460000Y92390000D03*
X23660000Y69100000D03*
X27820000Y77043000D03*
X37536500Y90450000D03*
X43670000Y95430000D03*
G04 #@! TO.N,/D3*
X22851420Y93542248D03*
X34576648Y66219922D03*
X21426500Y78140000D03*
X35790148Y78150000D03*
G04 #@! TO.N,GND*
X18615703Y13066500D03*
X42060000Y61500000D03*
X35401468Y63937921D03*
X39866648Y62059922D03*
G04 #@! TO.N,/D5*
X52190000Y96380000D03*
X40144998Y68684998D03*
G04 #@! TO.N,/D19*
X32493699Y67376471D03*
G04 #@! TO.N,/D18*
X36646648Y68609922D03*
X37220148Y78840000D03*
G04 #@! TO.N,/D7*
X33128407Y58943681D03*
X18026648Y47499922D03*
X33514104Y45272685D03*
X15120000Y45620000D03*
X3060000Y86560000D03*
X3060000Y88670000D03*
G04 #@! TO.N,/D17*
X33137911Y64188837D03*
G04 #@! TO.N,/D16*
X35810000Y83590000D03*
X33780148Y64166600D03*
X35110000Y79850000D03*
G04 #@! TO.N,/D9*
X32186648Y68539922D03*
G04 #@! TO.N,/A0*
X22266648Y49319922D03*
X28130000Y30549922D03*
X23030000Y43440000D03*
X26625255Y60266600D03*
G04 #@! TO.N,/A1*
X23032904Y56583666D03*
X21190000Y67380000D03*
G04 #@! TO.N,/A3*
X20840000Y60920000D03*
X54260000Y65440000D03*
X50820000Y66640000D03*
X21410000Y74040000D03*
G04 #@! TO.N,/A8*
X16570000Y41620000D03*
X21330000Y51770000D03*
X22220000Y53900000D03*
X24520000Y61020000D03*
G04 #@! TO.N,Net-(J2-SIG)*
X36650000Y38690000D03*
G04 #@! TO.N,Net-(C46-Pad1)*
X45940000Y55760000D03*
X54590000Y44050000D03*
G04 #@! TO.N,Net-(POT_LENGTH1-Center)*
X16680000Y69390000D03*
G04 #@! TO.N,Net-(REV_BUT1-R)*
X7480000Y97490000D03*
G04 #@! TO.N,/D4*
X32440148Y66076600D03*
G04 #@! TO.N,/VCOM*
X53026648Y15709922D03*
X47896648Y20419922D03*
X34996648Y20779922D03*
G04 #@! TO.N,GNDA*
X41396648Y14359922D03*
X49906648Y21819922D03*
X49496648Y11089922D03*
X44116648Y14189922D03*
G04 #@! TO.N,Net-(U2B-VCAP_1)*
X30052594Y61439046D03*
G04 #@! TO.N,+3.3VADC*
X22130000Y58500000D03*
X14324685Y66015315D03*
X18630000Y61340000D03*
X13250000Y66930000D03*
G04 #@! TO.N,/BOOT0*
X28040148Y65416600D03*
X28610000Y71660000D03*
G04 #@! TO.N,Net-(C152-Pad1)*
X41416648Y9909922D03*
X37776648Y5439922D03*
G04 #@! TO.N,Net-(C152-Pad2)*
X37876648Y8999922D03*
X37176648Y4429922D03*
G04 #@! TO.N,Net-(C153-Pad1)*
X46456648Y3999922D03*
X49606648Y6419922D03*
G04 #@! TO.N,Net-(C153-Pad2)*
X47526648Y7679922D03*
X45586648Y10499922D03*
G04 #@! TO.N,/SWDCLK*
X41040000Y69120000D03*
G04 #@! TO.N,/SWDIO*
X40900000Y68450000D03*
G04 #@! TO.N,/UART_TX*
X23355436Y62176342D03*
G04 #@! TO.N,/UART_RX*
X23756648Y61713342D03*
G04 #@! TO.N,/DEBUG2*
X27270148Y66116600D03*
G04 #@! TO.N,/DEBUG3*
X30090148Y69016600D03*
G04 #@! TO.N,Net-(J9-SIG)*
X11920000Y44069922D03*
X9896648Y44069922D03*
X13476648Y43839922D03*
X13368517Y41374179D03*
G04 #@! TO.N,/LOUT+*
X46768085Y13276875D03*
X45440443Y20121525D03*
G04 #@! TO.N,/LOUT-*
X46302549Y13095823D03*
X44770000Y20070000D03*
G04 #@! TO.N,Net-(U15A--)*
X45050000Y44110000D03*
X46646648Y44620000D03*
G04 #@! TO.N,/I2C1_SCL*
X52270000Y35720000D03*
X25080000Y72440000D03*
G04 #@! TO.N,/I2C1_SDA*
X48600000Y37720000D03*
X28587926Y67413227D03*
G04 #@! TO.N,/RIN*
X39096648Y21019922D03*
X51380000Y26310000D03*
G04 #@! TO.N,/SAI_SD_B*
X50966648Y35469922D03*
X23313500Y70089922D03*
G04 #@! TO.N,/SAI_MCLK*
X24525714Y70147986D03*
X49086648Y35169922D03*
G04 #@! TO.N,/SD-NBL1*
X32820148Y48136600D03*
X27930148Y67406600D03*
G04 #@! TO.N,/SD-NBL0*
X26626648Y66761634D03*
X24706648Y46559922D03*
G04 #@! TO.N,/SD-CKE1*
X31000148Y47366600D03*
X28220148Y68846600D03*
G04 #@! TO.N,/CODEC_RESET*
X53350000Y29880000D03*
X43140000Y70800000D03*
G04 #@! TO.N,/SAI_FS*
X50096648Y35649922D03*
X23946648Y70089922D03*
G04 #@! TO.N,/SAI_SCK*
X25079797Y70378194D03*
X49633148Y36706922D03*
G04 #@! TO.N,/SAI_SD_A*
X45216648Y34739922D03*
X26545162Y68750000D03*
X25980148Y66766600D03*
G04 #@! TO.N,/SD-NCAS*
X30010148Y65056600D03*
X29230148Y66756600D03*
X28630148Y65116600D03*
X28000148Y47706600D03*
G04 #@! TO.N,/SD-D2*
X34750148Y43926600D03*
X27001504Y44144801D03*
X38220000Y45670000D03*
X32475175Y64816600D03*
G04 #@! TO.N,/SD-D3*
X39646648Y62769922D03*
X25240148Y45306600D03*
X40596648Y57489922D03*
X34951969Y44758655D03*
X34230518Y70100422D03*
X39746648Y66149922D03*
X40660000Y55980000D03*
X38216648Y66799922D03*
G04 #@! TO.N,/SD-A0*
X26020441Y56233100D03*
X25938033Y65424485D03*
G04 #@! TO.N,/SD-A2*
X23739582Y55306988D03*
X25327832Y63504212D03*
G04 #@! TO.N,/SD-A1*
X26200148Y49756600D03*
X27823713Y62678745D03*
X24540148Y49836600D03*
X23249678Y53300392D03*
G04 #@! TO.N,/SD-CLK*
X30850000Y61310000D03*
X31793718Y47350078D03*
G04 #@! TO.N,/SD-A3*
X26634091Y62856225D03*
X24356582Y55499724D03*
G04 #@! TO.N,/SD-A4*
X28690328Y55256420D03*
X28604794Y53245314D03*
G04 #@! TO.N,/SD-NWE*
X27938309Y60986600D03*
X25090148Y47666600D03*
G04 #@! TO.N,/SD-A5*
X26015923Y61625332D03*
X25098336Y56673600D03*
G04 #@! TO.N,/SD-BA1*
X26199851Y48976600D03*
X29147148Y56226600D03*
X38796648Y55139922D03*
X32480148Y62206600D03*
G04 #@! TO.N,/SD-BA0*
X34586000Y54850000D03*
X32480148Y60916600D03*
X30080148Y52996600D03*
X28212231Y49192043D03*
G04 #@! TO.N,/SD-D1*
X26130148Y44216600D03*
X33776648Y61559922D03*
G04 #@! TO.N,/SD-A12*
X35449759Y61234467D03*
X32780148Y53346600D03*
X32940148Y48786600D03*
X38846648Y54029922D03*
G04 #@! TO.N,/SD-A11*
X25960148Y53396600D03*
X31030148Y48936600D03*
X29157895Y49098949D03*
X29227297Y60273838D03*
G04 #@! TO.N,/SD-NE1*
X24290148Y45076600D03*
X31799403Y60955476D03*
G04 #@! TO.N,/SD-D0*
X33137799Y60883323D03*
X26610148Y43186600D03*
G04 #@! TO.N,/SD-A7*
X31805148Y53591600D03*
X30932854Y52149306D03*
X28301309Y61406600D03*
X31038298Y49753057D03*
G04 #@! TO.N,/SD-A10*
X28584981Y59626600D03*
X24010148Y52846600D03*
G04 #@! TO.N,/SD-D10*
X35173541Y46006567D03*
X33125100Y60266600D03*
G04 #@! TO.N,/SD-D15*
X33306648Y42689922D03*
X35303774Y59034484D03*
G04 #@! TO.N,/SD-A6*
X28004168Y59012826D03*
X26311416Y55385332D03*
G04 #@! TO.N,/SD-A9*
X26388468Y54178280D03*
X28602454Y57711044D03*
G04 #@! TO.N,/SD-D5*
X25200148Y45846600D03*
X29120148Y54846600D03*
X31377148Y55006600D03*
X29874955Y58959407D03*
G04 #@! TO.N,/SD-D6*
X27010148Y46566600D03*
X30530148Y59611564D03*
X31977148Y54176600D03*
X30490148Y52546600D03*
G04 #@! TO.N,/SD-D8*
X31772344Y57384567D03*
X33166648Y49586600D03*
G04 #@! TO.N,/SD-D11*
X35036648Y45303891D03*
X31780148Y45726600D03*
X33775121Y60256600D03*
X33080172Y45521667D03*
G04 #@! TO.N,/SD-D14*
X34882955Y58099407D03*
X32606828Y44703280D03*
G04 #@! TO.N,/SD-D13*
X31806208Y44976600D03*
X33770148Y58961622D03*
G04 #@! TO.N,/SD-NRAS*
X26337018Y48084194D03*
X28149795Y56836246D03*
G04 #@! TO.N,/SD-A8*
X31909845Y49700041D03*
X29103295Y57048833D03*
G04 #@! TO.N,/SD-D4*
X28077148Y54286600D03*
X27005660Y44984066D03*
X29610148Y58116600D03*
X23510148Y47036600D03*
X30420148Y54698942D03*
X23520148Y50146600D03*
G04 #@! TO.N,/SD-D7*
X29089623Y53923600D03*
X29973148Y57596600D03*
X25213648Y46944332D03*
X31158468Y54468280D03*
G04 #@! TO.N,/SD-D9*
X31806445Y46583258D03*
X33136828Y56673280D03*
G04 #@! TO.N,/SD-D12*
X33114898Y57250030D03*
X32754241Y46205255D03*
G04 #@! TD*
D20*
G04 #@! TO.N,+12V*
X56750000Y28680000D02*
X57850000Y29780000D01*
D21*
G04 #@! TO.N,GND*
X28850148Y48386600D02*
X28678548Y48215000D01*
X28678548Y48215000D02*
X28678548Y47080504D01*
X28678548Y47080504D02*
X29041884Y46717168D01*
D20*
G04 #@! TO.N,+3V3*
X57226648Y98921922D02*
X57226648Y80469922D01*
X27450148Y42996600D02*
X27450148Y42933422D01*
X50658648Y105489922D02*
X57226648Y98921922D01*
D22*
X4860000Y61010000D02*
X5431700Y60438300D01*
X23280000Y77320000D02*
X5820000Y77320000D01*
X5820000Y77320000D02*
X4860000Y76360000D01*
D20*
X23209959Y83089959D02*
X23080000Y82960000D01*
X28816112Y45286010D02*
X28816112Y44698596D01*
D22*
X4860000Y76360000D02*
X4860000Y61010000D01*
D20*
X54836570Y82860000D02*
X57226648Y80469922D01*
X27450148Y42933422D02*
X25766648Y41249922D01*
X27606828Y83089959D02*
X27836787Y82860000D01*
X27606828Y83089959D02*
X23209959Y83089959D01*
X27836787Y82860000D02*
X54836570Y82860000D01*
X28816112Y44698596D02*
X29763498Y43751210D01*
G04 #@! TO.N,GNDADC*
X43421522Y46281522D02*
X42318476Y46281522D01*
X42318476Y46281522D02*
X41999998Y46600000D01*
G04 #@! TO.N,+12V*
X23546648Y29199922D02*
X28056648Y29199922D01*
X41966648Y11719922D02*
X38546648Y15139922D01*
X56750000Y28680000D02*
X56750000Y28253274D01*
X28056648Y29199922D02*
X33056648Y24199922D01*
X39921848Y23205122D02*
X38546648Y21829922D01*
X25916648Y7999922D02*
X28986648Y4929922D01*
X51391448Y23205122D02*
X39921848Y23205122D01*
X38546648Y15139922D02*
X38546648Y21829922D01*
X28986648Y4929922D02*
X41406648Y4929922D01*
X56750000Y28253274D02*
X51546648Y23049922D01*
X41406648Y4929922D02*
X41436648Y4899922D01*
X51546648Y23049922D02*
X51391448Y23205122D01*
D21*
G04 #@! TO.N,VREF+*
X22400000Y59850000D02*
X22810000Y59850000D01*
D20*
X42280000Y45590000D02*
X41860000Y46010000D01*
X42950000Y45590000D02*
X42280000Y45590000D01*
D21*
X20780000Y58800000D02*
X20760000Y58820000D01*
X21350000Y58800000D02*
X20780000Y58800000D01*
X21350000Y58800000D02*
X22400000Y59850000D01*
G04 #@! TO.N,/I2C1_SCL*
X58364997Y54400133D02*
X39605130Y73160000D01*
X52365130Y35720000D02*
X58364998Y41719868D01*
X25800000Y73160000D02*
X25080000Y72440000D01*
X52270000Y35720000D02*
X52365130Y35720000D01*
X58364998Y41719868D02*
X58364997Y54400133D01*
X39605130Y73160000D02*
X25800000Y73160000D01*
G04 #@! TO.N,/I2C1_SDA*
X50720000Y39840000D02*
X48600000Y37720000D01*
X28960148Y70943422D02*
X29814726Y71798000D01*
X47970148Y62680000D02*
X57000000Y53650148D01*
X28960148Y67785449D02*
X28960148Y70943422D01*
X57000000Y53650148D02*
X57000000Y42360000D01*
X54480000Y39840000D02*
X50720000Y39840000D01*
X38952000Y71798000D02*
X47970148Y62779852D01*
X57000000Y42360000D02*
X54480000Y39840000D01*
X29814726Y71798000D02*
X38952000Y71798000D01*
X28587926Y67413227D02*
X28960148Y67785449D01*
X47970148Y62779852D02*
X47970148Y62680000D01*
G04 #@! TO.N,/SAI_SD_B*
X50966648Y35469922D02*
X54201727Y38705001D01*
X54201727Y38705001D02*
X55029106Y38705002D01*
X39511104Y72933000D02*
X26156578Y72933000D01*
X58137998Y54306106D02*
X39511104Y72933000D01*
X26156578Y72933000D02*
X23313500Y70089922D01*
X58137998Y41813894D02*
X58137998Y54306106D01*
X55029106Y38705002D02*
X58137998Y41813894D01*
G04 #@! TO.N,/SAI_MCLK*
X54841053Y39159001D02*
X57683998Y42001946D01*
X57683999Y54118053D02*
X39323052Y72479000D01*
X53075727Y39159001D02*
X54841053Y39159001D01*
X26396540Y72479000D02*
X24525714Y70608174D01*
X24525714Y70608174D02*
X24525714Y70147986D01*
X39323052Y72479000D02*
X26396540Y72479000D01*
X49086648Y35169922D02*
X53075727Y39159001D01*
X57683998Y42001946D02*
X57683999Y54118053D01*
G04 #@! TO.N,/CODEC_RESET*
X58591997Y54494159D02*
X43140000Y69946156D01*
X56670147Y33200147D02*
X56670147Y39703991D01*
X56670147Y39703991D02*
X58591997Y41625841D01*
X58591997Y41625841D02*
X58591997Y54494159D01*
X43140000Y69946156D02*
X43140000Y70800000D01*
X53350000Y29880000D02*
X56670147Y33200147D01*
G04 #@! TO.N,/SAI_FS*
X57910999Y54212079D02*
X57910998Y41907920D01*
X57910998Y41907920D02*
X54935079Y38932001D01*
X23946648Y70350134D02*
X26302514Y72706000D01*
X54935079Y38932001D02*
X53378726Y38932000D01*
X23946648Y70089922D02*
X23946648Y70350134D01*
X53378726Y38932000D02*
X50096648Y35649922D01*
X39417078Y72706000D02*
X57910999Y54212079D01*
X26302514Y72706000D02*
X39417078Y72706000D01*
G04 #@! TO.N,/SAI_SCK*
X50197948Y36706922D02*
X52877026Y39386000D01*
X39229026Y72252000D02*
X26570974Y72252000D01*
X25079797Y70760823D02*
X25079797Y70378194D01*
X49633148Y36706922D02*
X50197948Y36706922D01*
X57456999Y54024027D02*
X39229026Y72252000D01*
X57456998Y42095972D02*
X57456999Y54024027D01*
X26570974Y72252000D02*
X25079797Y70760823D01*
X52877026Y39386000D02*
X54747027Y39386001D01*
X54747027Y39386001D02*
X57456998Y42095972D01*
G04 #@! TO.N,/SAI_SD_A*
X26338708Y69868359D02*
X26338708Y71698708D01*
X26545162Y68750000D02*
X26380000Y68915162D01*
X26380000Y69827067D02*
X26338708Y69868359D01*
X39135000Y72025000D02*
X57230000Y53930000D01*
X57230000Y53930000D02*
X57229998Y42189998D01*
X46506648Y34739922D02*
X45216648Y34739922D01*
X54653000Y39613000D02*
X51379726Y39613000D01*
X26338708Y71698708D02*
X26665000Y72025000D01*
X57229998Y42189998D02*
X54653000Y39613000D01*
X51379726Y39613000D02*
X46506648Y34739922D01*
X26665000Y72025000D02*
X39135000Y72025000D01*
X26380000Y68915162D02*
X26380000Y69827067D01*
G04 #@! TD*
G04 #@! TA.AperFunction,Conductor*
G04 #@! TO.N,+3V3*
G36*
X11535562Y63826998D02*
G01*
X11579682Y63808516D01*
X11597810Y63764248D01*
X11597807Y63763766D01*
X11536648Y58549923D01*
X11536648Y58549922D01*
X20540467Y58557559D01*
X20580690Y58542939D01*
X20593724Y58532002D01*
X20702253Y58492500D01*
X20702256Y58492500D01*
X20817744Y58492500D01*
X20817747Y58492500D01*
X20926276Y58532002D01*
X20939751Y58543310D01*
X20979867Y58557932D01*
X21734897Y58558572D01*
X21779105Y58540305D01*
X21793801Y58504910D01*
X21796499Y58505385D01*
X21797448Y58500002D01*
X21797448Y58500000D01*
X21817503Y58386261D01*
X21875250Y58286240D01*
X21963724Y58212002D01*
X22072253Y58172500D01*
X22072256Y58172500D01*
X22187744Y58172500D01*
X22187747Y58172500D01*
X22296276Y58212002D01*
X22384750Y58286240D01*
X22442497Y58386261D01*
X22462552Y58500000D01*
X22462551Y58500002D01*
X22463501Y58505385D01*
X22465952Y58504953D01*
X22480858Y58540937D01*
X22524996Y58559243D01*
X23326648Y58559922D01*
X23291637Y56790528D01*
X23287656Y56797423D01*
X23287654Y56797426D01*
X23199179Y56871665D01*
X23090653Y56911166D01*
X23090651Y56911166D01*
X22975157Y56911166D01*
X22975154Y56911166D01*
X22866628Y56871665D01*
X22778154Y56797427D01*
X22720407Y56697406D01*
X22720407Y56697405D01*
X22700352Y56583666D01*
X22720407Y56469927D01*
X22778154Y56369906D01*
X22866628Y56295668D01*
X22975157Y56256166D01*
X22975160Y56256166D01*
X23090648Y56256166D01*
X23090651Y56256166D01*
X23199180Y56295668D01*
X23283240Y56366204D01*
X23229058Y53627892D01*
X23191928Y53627892D01*
X23083402Y53588391D01*
X22994928Y53514153D01*
X22937181Y53414132D01*
X22937181Y53414131D01*
X22917126Y53300392D01*
X22937181Y53186653D01*
X22994928Y53086632D01*
X23083402Y53012394D01*
X23191931Y52972892D01*
X23191934Y52972892D01*
X23216098Y52972892D01*
X23196648Y51989922D01*
X23139256Y51989529D01*
X21613533Y51979057D01*
X21572930Y51993678D01*
X21496275Y52057999D01*
X21387749Y52097500D01*
X21387747Y52097500D01*
X21272253Y52097500D01*
X21272250Y52097500D01*
X21163724Y52057999D01*
X21082398Y51989759D01*
X21042653Y51975138D01*
X4333525Y51860437D01*
X4289206Y51878440D01*
X4270597Y51922507D01*
X4270598Y51923415D01*
X4276885Y52589162D01*
X4251753Y53900000D01*
X21887448Y53900000D01*
X21907503Y53786261D01*
X21965250Y53686240D01*
X22053724Y53612002D01*
X22118593Y53588391D01*
X22162253Y53572500D01*
X22162256Y53572500D01*
X22277744Y53572500D01*
X22277747Y53572500D01*
X22386276Y53612002D01*
X22474750Y53686240D01*
X22532497Y53786261D01*
X22552552Y53900000D01*
X22532497Y54013739D01*
X22474750Y54113760D01*
X22386276Y54187998D01*
X22386275Y54187999D01*
X22277749Y54227500D01*
X22277747Y54227500D01*
X22162253Y54227500D01*
X22162250Y54227500D01*
X22053724Y54187999D01*
X21965250Y54113761D01*
X21907503Y54013740D01*
X21887448Y53900000D01*
X4251753Y53900000D01*
X4238334Y54599922D01*
X8994096Y54599922D01*
X9014151Y54486183D01*
X9071898Y54386162D01*
X9160372Y54311924D01*
X9268901Y54272422D01*
X9268904Y54272422D01*
X9384392Y54272422D01*
X9384395Y54272422D01*
X9492924Y54311924D01*
X9581398Y54386162D01*
X9639145Y54486183D01*
X9659200Y54599922D01*
X9639145Y54713661D01*
X9581398Y54813682D01*
X9492924Y54887920D01*
X9492923Y54887921D01*
X9384397Y54927422D01*
X9384395Y54927422D01*
X9268901Y54927422D01*
X9268898Y54927422D01*
X9160372Y54887921D01*
X9071898Y54813683D01*
X9014151Y54713662D01*
X9014151Y54713661D01*
X8994096Y54599922D01*
X4238334Y54599922D01*
X4218201Y55650000D01*
X8364018Y55650000D01*
X8384073Y55536261D01*
X8441820Y55436240D01*
X8530294Y55362002D01*
X8638823Y55322500D01*
X8638826Y55322500D01*
X8754314Y55322500D01*
X8754317Y55322500D01*
X8862846Y55362002D01*
X8951320Y55436240D01*
X8974573Y55476516D01*
X9012522Y55505636D01*
X9059948Y55499393D01*
X9082825Y55476516D01*
X9111895Y55426165D01*
X9111897Y55426163D01*
X9200372Y55351924D01*
X9281209Y55322501D01*
X9308901Y55312422D01*
X9308904Y55312422D01*
X9424392Y55312422D01*
X9424395Y55312422D01*
X9532924Y55351924D01*
X9621398Y55426162D01*
X9628648Y55438721D01*
X9666597Y55467841D01*
X9714023Y55461599D01*
X9730650Y55447648D01*
X9731894Y55446165D01*
X9820372Y55371924D01*
X9875320Y55351924D01*
X9928901Y55332422D01*
X9928904Y55332422D01*
X10044392Y55332422D01*
X10044395Y55332422D01*
X10152924Y55371924D01*
X10241398Y55446162D01*
X10299145Y55546183D01*
X10319200Y55659922D01*
X10299145Y55773661D01*
X10241398Y55873682D01*
X10164748Y55937999D01*
X10152923Y55947921D01*
X10044397Y55987422D01*
X10044395Y55987422D01*
X9928901Y55987422D01*
X9928898Y55987422D01*
X9820372Y55947921D01*
X9731897Y55873682D01*
X9731895Y55873679D01*
X9724645Y55861122D01*
X9686694Y55832003D01*
X9639268Y55838249D01*
X9622644Y55852197D01*
X9621397Y55853683D01*
X9532923Y55927921D01*
X9424397Y55967422D01*
X9424395Y55967422D01*
X9308901Y55967422D01*
X9308898Y55967422D01*
X9200372Y55927921D01*
X9111897Y55853682D01*
X9111895Y55853679D01*
X9088644Y55813407D01*
X9050694Y55784287D01*
X9003268Y55790531D01*
X8980391Y55813407D01*
X8969655Y55832003D01*
X8951320Y55863760D01*
X8939496Y55873682D01*
X8862845Y55937999D01*
X8754319Y55977500D01*
X8754317Y55977500D01*
X8638823Y55977500D01*
X8638820Y55977500D01*
X8530294Y55937999D01*
X8441820Y55863761D01*
X8384073Y55763740D01*
X8384073Y55763739D01*
X8364018Y55650000D01*
X4218201Y55650000D01*
X4195195Y56849922D01*
X11384096Y56849922D01*
X11404151Y56736183D01*
X11461898Y56636162D01*
X11550372Y56561924D01*
X11658901Y56522422D01*
X11658904Y56522422D01*
X11774392Y56522422D01*
X11774395Y56522422D01*
X11882924Y56561924D01*
X11971398Y56636162D01*
X12029145Y56736183D01*
X12049200Y56849922D01*
X12029145Y56963661D01*
X11971398Y57063682D01*
X11968325Y57066261D01*
X11882923Y57137921D01*
X11774397Y57177422D01*
X11774395Y57177422D01*
X11658901Y57177422D01*
X11658898Y57177422D01*
X11550372Y57137921D01*
X11461898Y57063683D01*
X11404151Y56963662D01*
X11404151Y56963661D01*
X11384096Y56849922D01*
X4195195Y56849922D01*
X4188485Y57199922D01*
X15364096Y57199922D01*
X15384151Y57086183D01*
X15441898Y56986162D01*
X15530372Y56911924D01*
X15638901Y56872422D01*
X15638904Y56872422D01*
X15754392Y56872422D01*
X15754395Y56872422D01*
X15862924Y56911924D01*
X15951398Y56986162D01*
X16009145Y57086183D01*
X16025687Y57180000D01*
X21517448Y57180000D01*
X21537503Y57066261D01*
X21595250Y56966240D01*
X21683724Y56892002D01*
X21792253Y56852500D01*
X21792256Y56852500D01*
X21907744Y56852500D01*
X21907747Y56852500D01*
X22016276Y56892002D01*
X22104750Y56966240D01*
X22162497Y57066261D01*
X22182552Y57180000D01*
X22162497Y57293739D01*
X22104750Y57393760D01*
X22016276Y57467998D01*
X22016275Y57467999D01*
X21907749Y57507500D01*
X21907747Y57507500D01*
X21792253Y57507500D01*
X21792250Y57507500D01*
X21683724Y57467999D01*
X21595250Y57393761D01*
X21537503Y57293740D01*
X21537503Y57293739D01*
X21517448Y57180000D01*
X16025687Y57180000D01*
X16029200Y57199922D01*
X16009145Y57313661D01*
X15951398Y57413682D01*
X15862924Y57487920D01*
X15862923Y57487921D01*
X15754397Y57527422D01*
X15754395Y57527422D01*
X15638901Y57527422D01*
X15638898Y57527422D01*
X15530372Y57487921D01*
X15441898Y57413683D01*
X15384151Y57313662D01*
X15384151Y57313661D01*
X15364096Y57199922D01*
X4188485Y57199922D01*
X4158576Y58759922D01*
X5054096Y58759922D01*
X5074151Y58646183D01*
X5131898Y58546162D01*
X5220372Y58471924D01*
X5328901Y58432422D01*
X5328904Y58432422D01*
X5444392Y58432422D01*
X5444395Y58432422D01*
X5552924Y58471924D01*
X5641398Y58546162D01*
X5699145Y58646183D01*
X5719200Y58759922D01*
X5719199Y58759924D01*
X5719200Y58759925D01*
X5707659Y58825377D01*
X5718012Y58872079D01*
X5758356Y58897780D01*
X5805058Y58887427D01*
X5809376Y58884113D01*
X5885424Y58820302D01*
X5993953Y58780800D01*
X5993956Y58780800D01*
X6109444Y58780800D01*
X6109447Y58780800D01*
X6217976Y58820302D01*
X6285216Y58876724D01*
X6330837Y58891107D01*
X6373268Y58869019D01*
X6373651Y58868471D01*
X6376950Y58864540D01*
X6465424Y58790302D01*
X6570650Y58752002D01*
X6573953Y58750800D01*
X6573956Y58750800D01*
X6689444Y58750800D01*
X6689447Y58750800D01*
X6797976Y58790302D01*
X6886450Y58864540D01*
X6944197Y58964561D01*
X6964252Y59078300D01*
X6960426Y59100000D01*
X7427448Y59100000D01*
X7447503Y58986261D01*
X7505250Y58886240D01*
X7593724Y58812002D01*
X7679446Y58780801D01*
X7702253Y58772500D01*
X7702256Y58772500D01*
X7817744Y58772500D01*
X7817747Y58772500D01*
X7926276Y58812002D01*
X8014750Y58886240D01*
X8072497Y58986261D01*
X8072497Y58986262D01*
X8075231Y58990997D01*
X8077490Y58989693D01*
X8103574Y59018184D01*
X8151362Y59020293D01*
X8184140Y58992802D01*
X8205247Y58956243D01*
X8205249Y58956241D01*
X8205250Y58956240D01*
X8293724Y58882002D01*
X8402253Y58842500D01*
X8402256Y58842500D01*
X8517744Y58842500D01*
X8517747Y58842500D01*
X8626276Y58882002D01*
X8714750Y58956240D01*
X8714751Y58956243D01*
X8716728Y58957901D01*
X8762349Y58972285D01*
X8804780Y58950197D01*
X8815633Y58931398D01*
X8817501Y58926265D01*
X8817502Y58926262D01*
X8817503Y58926261D01*
X8875250Y58826240D01*
X8963724Y58752002D01*
X9072253Y58712500D01*
X9072256Y58712500D01*
X9187744Y58712500D01*
X9187747Y58712500D01*
X9296276Y58752002D01*
X9384750Y58826240D01*
X9442497Y58926261D01*
X9462552Y59040000D01*
X9442497Y59153739D01*
X9384750Y59253760D01*
X9355140Y59278606D01*
X9296275Y59327999D01*
X9187749Y59367500D01*
X9187747Y59367500D01*
X9072253Y59367500D01*
X9072250Y59367500D01*
X8963724Y59327999D01*
X8873271Y59252100D01*
X8827649Y59237716D01*
X8785219Y59259804D01*
X8774365Y59278606D01*
X8772497Y59283737D01*
X8772497Y59283739D01*
X8714750Y59383760D01*
X8709700Y59387998D01*
X8626275Y59457999D01*
X8517749Y59497500D01*
X8517747Y59497500D01*
X8402253Y59497500D01*
X8402250Y59497500D01*
X8293724Y59457999D01*
X8205250Y59383761D01*
X8144769Y59279003D01*
X8142517Y59280304D01*
X8116388Y59251800D01*
X8068597Y59249722D01*
X8035858Y59277199D01*
X8034816Y59279003D01*
X8014750Y59313760D01*
X8004859Y59322060D01*
X7926275Y59387999D01*
X7817749Y59427500D01*
X7817747Y59427500D01*
X7702253Y59427500D01*
X7702250Y59427500D01*
X7593724Y59387999D01*
X7505250Y59313761D01*
X7447503Y59213740D01*
X7427448Y59100000D01*
X6960426Y59100000D01*
X6944197Y59192039D01*
X6886450Y59292060D01*
X6882358Y59295494D01*
X6797975Y59366299D01*
X6689449Y59405800D01*
X6689447Y59405800D01*
X6573953Y59405800D01*
X6573950Y59405800D01*
X6465422Y59366299D01*
X6398182Y59309878D01*
X6352561Y59295494D01*
X6310131Y59317583D01*
X6309752Y59318124D01*
X6306449Y59322061D01*
X6217975Y59396299D01*
X6109449Y59435800D01*
X6109447Y59435800D01*
X5993953Y59435800D01*
X5993950Y59435800D01*
X5885424Y59396299D01*
X5796950Y59322061D01*
X5739203Y59222040D01*
X5719148Y59108300D01*
X5730689Y59042845D01*
X5720335Y58996144D01*
X5679990Y58970442D01*
X5633289Y58980796D01*
X5628964Y58984115D01*
X5626406Y58986261D01*
X5552924Y59047920D01*
X5552923Y59047921D01*
X5444397Y59087422D01*
X5444395Y59087422D01*
X5328901Y59087422D01*
X5328898Y59087422D01*
X5220372Y59047921D01*
X5131898Y58973683D01*
X5074151Y58873662D01*
X5065637Y58825377D01*
X5054096Y58759922D01*
X4158576Y58759922D01*
X4093771Y62140000D01*
X6957448Y62140000D01*
X6977503Y62026261D01*
X7035250Y61926240D01*
X7123724Y61852002D01*
X7232253Y61812500D01*
X7232256Y61812500D01*
X7347744Y61812500D01*
X7347747Y61812500D01*
X7456276Y61852002D01*
X7544750Y61926240D01*
X7602497Y62026261D01*
X7622552Y62140000D01*
X7602497Y62253739D01*
X7544750Y62353760D01*
X7456276Y62427998D01*
X7456275Y62427999D01*
X7347749Y62467500D01*
X7347747Y62467500D01*
X7232253Y62467500D01*
X7232250Y62467500D01*
X7123724Y62427999D01*
X7035250Y62353761D01*
X6977503Y62253740D01*
X6977503Y62253739D01*
X6957448Y62140000D01*
X4093771Y62140000D01*
X4078433Y62940000D01*
X7007448Y62940000D01*
X7027503Y62826261D01*
X7085250Y62726240D01*
X7173724Y62652002D01*
X7282253Y62612500D01*
X7282256Y62612500D01*
X7397744Y62612500D01*
X7397747Y62612500D01*
X7506276Y62652002D01*
X7594750Y62726240D01*
X7652497Y62826261D01*
X7672552Y62940000D01*
X7652497Y63053739D01*
X7594750Y63153760D01*
X7506276Y63227998D01*
X7506275Y63227999D01*
X7397749Y63267500D01*
X7397747Y63267500D01*
X7282253Y63267500D01*
X7282250Y63267500D01*
X7173724Y63227999D01*
X7085250Y63153761D01*
X7027503Y63053740D01*
X7027503Y63053739D01*
X7007448Y62940000D01*
X4078433Y62940000D01*
X4062078Y63793025D01*
X4079534Y63837561D01*
X4123369Y63856711D01*
X4124767Y63856721D01*
X11535562Y63826998D01*
G37*
G04 #@! TD.AperFunction*
G04 #@! TD*
G04 #@! TA.AperFunction,Conductor*
G04 #@! TO.N,+3V3*
G36*
X28706808Y70565605D02*
G01*
X28750954Y70547187D01*
X28769148Y70503105D01*
X28769148Y67890452D01*
X28750842Y67846258D01*
X28663617Y67759033D01*
X28619423Y67740727D01*
X28530176Y67740727D01*
X28421650Y67701226D01*
X28333175Y67626987D01*
X28333174Y67626986D01*
X28311249Y67589011D01*
X28273298Y67559891D01*
X28225872Y67566136D01*
X28202996Y67589013D01*
X28184898Y67620360D01*
X28096423Y67694599D01*
X27987897Y67734100D01*
X27987895Y67734100D01*
X27872401Y67734100D01*
X27872398Y67734100D01*
X27763872Y67694599D01*
X27675398Y67620361D01*
X27617651Y67520340D01*
X27597596Y67406600D01*
X27617651Y67292861D01*
X27675398Y67192840D01*
X27763872Y67118602D01*
X27848168Y67087920D01*
X27872401Y67079100D01*
X27872404Y67079100D01*
X27987892Y67079100D01*
X27987895Y67079100D01*
X28096424Y67118602D01*
X28184898Y67192840D01*
X28206823Y67230817D01*
X28244774Y67259936D01*
X28292200Y67253693D01*
X28315077Y67230816D01*
X28333176Y67199467D01*
X28421650Y67125229D01*
X28522634Y67088473D01*
X28530179Y67085727D01*
X28530182Y67085727D01*
X28645670Y67085727D01*
X28645673Y67085727D01*
X28754202Y67125229D01*
X28842676Y67199467D01*
X28900423Y67299488D01*
X28913997Y67376471D01*
X32161147Y67376471D01*
X32181202Y67262732D01*
X32238949Y67162711D01*
X32327423Y67088473D01*
X32339437Y67084100D01*
X32435952Y67048971D01*
X32435955Y67048971D01*
X32551443Y67048971D01*
X32551446Y67048971D01*
X32659975Y67088473D01*
X32748449Y67162711D01*
X32806196Y67262732D01*
X32826251Y67376471D01*
X32806196Y67490210D01*
X32748449Y67590231D01*
X32712543Y67620360D01*
X32659974Y67664470D01*
X32551448Y67703971D01*
X32551446Y67703971D01*
X32435952Y67703971D01*
X32435949Y67703971D01*
X32327423Y67664470D01*
X32238949Y67590232D01*
X32181202Y67490211D01*
X32161147Y67376471D01*
X28913997Y67376471D01*
X28920478Y67413227D01*
X28916768Y67434268D01*
X28927122Y67480968D01*
X28934119Y67489307D01*
X29122070Y67677256D01*
X29151148Y67747457D01*
X29151148Y67823441D01*
X29151148Y67990000D01*
X37567448Y67990000D01*
X37587503Y67876261D01*
X37645250Y67776240D01*
X37733724Y67702002D01*
X37836840Y67664470D01*
X37842253Y67662500D01*
X37842256Y67662500D01*
X37957744Y67662500D01*
X37957747Y67662500D01*
X38066276Y67702002D01*
X38154750Y67776240D01*
X38212497Y67876261D01*
X38232552Y67990000D01*
X38212497Y68103739D01*
X38154750Y68203760D01*
X38066276Y68277998D01*
X38066275Y68277999D01*
X37957749Y68317500D01*
X37957747Y68317500D01*
X37842253Y68317500D01*
X37842250Y68317500D01*
X37733724Y68277999D01*
X37645250Y68203761D01*
X37587503Y68103740D01*
X37567448Y67990000D01*
X29151148Y67990000D01*
X29151148Y68539922D01*
X31854096Y68539922D01*
X31874151Y68426183D01*
X31931898Y68326162D01*
X32020372Y68251924D01*
X32128901Y68212422D01*
X32128904Y68212422D01*
X32244392Y68212422D01*
X32244395Y68212422D01*
X32352924Y68251924D01*
X32441398Y68326162D01*
X32499145Y68426183D01*
X32519200Y68539922D01*
X32506857Y68609922D01*
X36314096Y68609922D01*
X36334151Y68496183D01*
X36391898Y68396162D01*
X36480372Y68321924D01*
X36588901Y68282422D01*
X36588904Y68282422D01*
X36704392Y68282422D01*
X36704395Y68282422D01*
X36812924Y68321924D01*
X36901398Y68396162D01*
X36959145Y68496183D01*
X36979200Y68609922D01*
X36959145Y68723661D01*
X36901398Y68823682D01*
X36898418Y68826183D01*
X36812923Y68897921D01*
X36704397Y68937422D01*
X36704395Y68937422D01*
X36588901Y68937422D01*
X36588898Y68937422D01*
X36480372Y68897921D01*
X36391898Y68823683D01*
X36334151Y68723662D01*
X36334151Y68723661D01*
X36314096Y68609922D01*
X32506857Y68609922D01*
X32499145Y68653661D01*
X32441398Y68753682D01*
X32418972Y68772500D01*
X32352923Y68827921D01*
X32244397Y68867422D01*
X32244395Y68867422D01*
X32128901Y68867422D01*
X32128898Y68867422D01*
X32020372Y68827921D01*
X31931898Y68753683D01*
X31874151Y68653662D01*
X31866439Y68609922D01*
X31854096Y68539922D01*
X29151148Y68539922D01*
X29151148Y69016600D01*
X29757596Y69016600D01*
X29777651Y68902861D01*
X29835398Y68802840D01*
X29923872Y68728602D01*
X30032401Y68689100D01*
X30032404Y68689100D01*
X30147892Y68689100D01*
X30147895Y68689100D01*
X30256424Y68728602D01*
X30344898Y68802840D01*
X30402645Y68902861D01*
X30409180Y68939922D01*
X37124096Y68939922D01*
X37144151Y68826183D01*
X37201898Y68726162D01*
X37290372Y68651924D01*
X37398901Y68612422D01*
X37398904Y68612422D01*
X37514392Y68612422D01*
X37514395Y68612422D01*
X37622924Y68651924D01*
X37711398Y68726162D01*
X37769145Y68826183D01*
X37789200Y68939922D01*
X37769145Y69053661D01*
X37711398Y69153682D01*
X37639825Y69213739D01*
X37622923Y69227921D01*
X37514397Y69267422D01*
X37514395Y69267422D01*
X37398901Y69267422D01*
X37398898Y69267422D01*
X37290372Y69227921D01*
X37201898Y69153683D01*
X37144151Y69053662D01*
X37144151Y69053661D01*
X37124096Y68939922D01*
X30409180Y68939922D01*
X30422700Y69016600D01*
X30402645Y69130339D01*
X30344898Y69230360D01*
X30256424Y69304598D01*
X30256423Y69304599D01*
X30147897Y69344100D01*
X30147895Y69344100D01*
X30032401Y69344100D01*
X30032398Y69344100D01*
X29923872Y69304599D01*
X29835398Y69230361D01*
X29777651Y69130340D01*
X29777651Y69130339D01*
X29757596Y69016600D01*
X29151148Y69016600D01*
X29151148Y70501817D01*
X29169454Y70546011D01*
X29213648Y70564317D01*
X29213666Y70564317D01*
X34160831Y70551753D01*
X34204977Y70533335D01*
X34223171Y70489094D01*
X34204753Y70444947D01*
X34177534Y70430821D01*
X34177909Y70429792D01*
X34064242Y70388421D01*
X33975768Y70314183D01*
X33918021Y70214162D01*
X33909253Y70164434D01*
X33897966Y70100422D01*
X33918021Y69986683D01*
X33975768Y69886662D01*
X34064242Y69812424D01*
X34172771Y69772922D01*
X34172774Y69772922D01*
X34288262Y69772922D01*
X34288265Y69772922D01*
X34396794Y69812424D01*
X34485268Y69886662D01*
X34543015Y69986683D01*
X34563070Y70100422D01*
X34543015Y70214161D01*
X34485268Y70314182D01*
X34447330Y70346016D01*
X34396793Y70388421D01*
X34283127Y70429792D01*
X34283988Y70432161D01*
X34251207Y70453046D01*
X34240855Y70499748D01*
X34266558Y70540091D01*
X34302562Y70551393D01*
X38765091Y70540059D01*
X38809235Y70521642D01*
X38827429Y70477401D01*
X38809011Y70433254D01*
X38794398Y70423964D01*
X38794961Y70422990D01*
X38790227Y70420257D01*
X38701750Y70346017D01*
X38644003Y70245996D01*
X38623948Y70132256D01*
X38644003Y70018517D01*
X38701750Y69918496D01*
X38790224Y69844258D01*
X38877685Y69812424D01*
X38898753Y69804756D01*
X38898756Y69804756D01*
X39014244Y69804756D01*
X39014247Y69804756D01*
X39122776Y69844258D01*
X39211250Y69918496D01*
X39268997Y70018517D01*
X39289052Y70132256D01*
X39268997Y70245995D01*
X39211250Y70346016D01*
X39122776Y70420254D01*
X39122774Y70420255D01*
X39118963Y70422456D01*
X39089845Y70460408D01*
X39096091Y70507834D01*
X39134043Y70536952D01*
X39150368Y70539081D01*
X39892366Y70537196D01*
X39936510Y70518779D01*
X39954704Y70474563D01*
X39951501Y68979167D01*
X39933100Y68935012D01*
X39929176Y68931424D01*
X39890248Y68898759D01*
X39832501Y68798738D01*
X39812446Y68684998D01*
X39832501Y68571259D01*
X39839808Y68558602D01*
X39890248Y68471238D01*
X39927917Y68439630D01*
X39950005Y68397201D01*
X39950243Y68391619D01*
X39946223Y66514926D01*
X39927822Y66470771D01*
X39883589Y66452560D01*
X39862347Y66456329D01*
X39804397Y66477422D01*
X39804395Y66477422D01*
X39688901Y66477422D01*
X39688898Y66477422D01*
X39580372Y66437921D01*
X39491898Y66363683D01*
X39434151Y66263662D01*
X39414096Y66149922D01*
X39434151Y66036183D01*
X39491898Y65936162D01*
X39580372Y65861924D01*
X39688895Y65822424D01*
X39688901Y65822422D01*
X39688904Y65822422D01*
X39804392Y65822422D01*
X39804395Y65822422D01*
X39860780Y65842945D01*
X39908570Y65840860D01*
X39940887Y65805592D01*
X39944657Y65784081D01*
X39938879Y63086129D01*
X39920478Y63041974D01*
X39876245Y63023763D01*
X39836205Y63038385D01*
X39812923Y63057921D01*
X39704397Y63097422D01*
X39704395Y63097422D01*
X39588901Y63097422D01*
X39588898Y63097422D01*
X39480372Y63057921D01*
X39391898Y62983683D01*
X39334151Y62883662D01*
X39334151Y62883661D01*
X39314096Y62769922D01*
X39334151Y62656183D01*
X39391898Y62556162D01*
X39480372Y62481924D01*
X39588901Y62442422D01*
X39588904Y62442422D01*
X39641278Y62442422D01*
X39685472Y62424116D01*
X39703778Y62379922D01*
X39685472Y62335728D01*
X39681456Y62332049D01*
X39667503Y62320340D01*
X39611898Y62273683D01*
X39554151Y62173662D01*
X39534096Y62059922D01*
X39554151Y61946183D01*
X39611898Y61846162D01*
X39700372Y61771924D01*
X39790630Y61739072D01*
X39808901Y61732422D01*
X39808904Y61732422D01*
X39873345Y61732422D01*
X39917539Y61714116D01*
X39935845Y61669922D01*
X39935845Y61669788D01*
X39933631Y60636448D01*
X39915230Y60592293D01*
X39911305Y60588704D01*
X39821898Y60513683D01*
X39764151Y60413662D01*
X39756512Y60370340D01*
X39744096Y60299922D01*
X39764151Y60186183D01*
X39821898Y60086162D01*
X39875720Y60041000D01*
X39909866Y60012349D01*
X39931954Y59969919D01*
X39932192Y59964337D01*
X39896785Y43433894D01*
X39878384Y43389739D01*
X39834151Y43371528D01*
X39832697Y43371548D01*
X34881369Y43497430D01*
X34837654Y43516853D01*
X34820477Y43561498D01*
X34839900Y43605213D01*
X34861578Y43618640D01*
X34916424Y43638602D01*
X35004898Y43712840D01*
X35062645Y43812861D01*
X35082700Y43926600D01*
X35062645Y44040339D01*
X35004898Y44140360D01*
X34999606Y44144801D01*
X34916423Y44214599D01*
X34807897Y44254100D01*
X34807895Y44254100D01*
X34692401Y44254100D01*
X34692398Y44254100D01*
X34583872Y44214599D01*
X34495398Y44140361D01*
X34437651Y44040340D01*
X34417596Y43926600D01*
X34437651Y43812861D01*
X34495398Y43712840D01*
X34583872Y43638602D01*
X34618767Y43625901D01*
X34654035Y43593584D01*
X34656122Y43545794D01*
X34623805Y43510526D01*
X34595802Y43504690D01*
X34000942Y43519814D01*
X33957228Y43539237D01*
X33940981Y43571440D01*
X33936770Y43595326D01*
X33879023Y43695347D01*
X33790549Y43769585D01*
X33790548Y43769586D01*
X33682022Y43809087D01*
X33682020Y43809087D01*
X33566526Y43809087D01*
X33566523Y43809087D01*
X33457997Y43769586D01*
X33369523Y43695348D01*
X33311776Y43595328D01*
X33311774Y43595323D01*
X33310940Y43590588D01*
X33285238Y43550244D01*
X33247802Y43538961D01*
X30515102Y43608436D01*
X30471387Y43627859D01*
X30454243Y43668345D01*
X30400421Y44975906D01*
X30408739Y45009717D01*
X30444295Y45071301D01*
X30464350Y45185040D01*
X30444295Y45298779D01*
X30390428Y45392079D01*
X30382110Y45420753D01*
X30369521Y45726600D01*
X31447596Y45726600D01*
X31467651Y45612861D01*
X31525398Y45512840D01*
X31613872Y45438602D01*
X31704574Y45405589D01*
X31739842Y45373272D01*
X31741929Y45325482D01*
X31709612Y45290214D01*
X31704575Y45288127D01*
X31639932Y45264599D01*
X31551458Y45190361D01*
X31493711Y45090340D01*
X31473656Y44976600D01*
X31493711Y44862861D01*
X31551458Y44762840D01*
X31639932Y44688602D01*
X31727948Y44656566D01*
X31748461Y44649100D01*
X31748464Y44649100D01*
X31863952Y44649100D01*
X31863955Y44649100D01*
X31972484Y44688602D01*
X31989977Y44703280D01*
X32274276Y44703280D01*
X32294331Y44589541D01*
X32352078Y44489520D01*
X32440552Y44415282D01*
X32549081Y44375780D01*
X32549084Y44375780D01*
X32664572Y44375780D01*
X32664575Y44375780D01*
X32773104Y44415282D01*
X32861578Y44489520D01*
X32919325Y44589541D01*
X32939380Y44703280D01*
X32929616Y44758655D01*
X34619417Y44758655D01*
X34639472Y44644916D01*
X34697219Y44544895D01*
X34785693Y44470657D01*
X34894222Y44431155D01*
X34894225Y44431155D01*
X35009713Y44431155D01*
X35009716Y44431155D01*
X35118245Y44470657D01*
X35206719Y44544895D01*
X35264466Y44644916D01*
X35284521Y44758655D01*
X35264466Y44872394D01*
X35214791Y44958433D01*
X35208549Y45005858D01*
X35228743Y45037559D01*
X35291398Y45090131D01*
X35349145Y45190152D01*
X35369200Y45303891D01*
X35349145Y45417630D01*
X35291398Y45517651D01*
X35288170Y45520360D01*
X35221969Y45575909D01*
X35199881Y45618340D01*
X35214265Y45663961D01*
X35222889Y45670000D01*
X37887448Y45670000D01*
X37907503Y45556261D01*
X37965250Y45456240D01*
X38053724Y45382002D01*
X38101537Y45364599D01*
X38162253Y45342500D01*
X38162256Y45342500D01*
X38277744Y45342500D01*
X38277747Y45342500D01*
X38386276Y45382002D01*
X38474750Y45456240D01*
X38532497Y45556261D01*
X38552552Y45670000D01*
X38532497Y45783739D01*
X38474750Y45883760D01*
X38416060Y45933007D01*
X38386275Y45957999D01*
X38277749Y45997500D01*
X38277747Y45997500D01*
X38162253Y45997500D01*
X38162250Y45997500D01*
X38053724Y45957999D01*
X37965250Y45883761D01*
X37907503Y45783740D01*
X37887448Y45670000D01*
X35222889Y45670000D01*
X35240764Y45682517D01*
X35339817Y45718569D01*
X35428291Y45792807D01*
X35486038Y45892828D01*
X35506093Y46006567D01*
X35486038Y46120306D01*
X35428291Y46220327D01*
X35413876Y46232423D01*
X35339816Y46294566D01*
X35231290Y46334067D01*
X35231288Y46334067D01*
X35115794Y46334067D01*
X35115791Y46334067D01*
X35007265Y46294566D01*
X34918791Y46220328D01*
X34861044Y46120307D01*
X34840989Y46006567D01*
X34861044Y45892828D01*
X34918791Y45792807D01*
X34988219Y45734550D01*
X35010307Y45692119D01*
X34995923Y45646498D01*
X34969422Y45627941D01*
X34870372Y45591890D01*
X34781898Y45517652D01*
X34724151Y45417631D01*
X34704096Y45303891D01*
X34724151Y45190152D01*
X34773824Y45104115D01*
X34780067Y45056688D01*
X34759871Y45024987D01*
X34701380Y44975906D01*
X34697218Y44972414D01*
X34639472Y44872395D01*
X34637791Y44862861D01*
X34619417Y44758655D01*
X32929616Y44758655D01*
X32919325Y44817019D01*
X32861578Y44917040D01*
X32795586Y44972414D01*
X32773103Y44991279D01*
X32664577Y45030780D01*
X32664575Y45030780D01*
X32549081Y45030780D01*
X32549078Y45030780D01*
X32440552Y44991279D01*
X32352078Y44917041D01*
X32294331Y44817020D01*
X32294331Y44817019D01*
X32274276Y44703280D01*
X31989977Y44703280D01*
X32060958Y44762840D01*
X32118705Y44862861D01*
X32138760Y44976600D01*
X32118705Y45090339D01*
X32060958Y45190360D01*
X32057978Y45192861D01*
X31972483Y45264599D01*
X31881781Y45297612D01*
X31846513Y45329930D01*
X31844426Y45377719D01*
X31876744Y45412987D01*
X31881770Y45415070D01*
X31946424Y45438602D01*
X32034898Y45512840D01*
X32092645Y45612861D01*
X32112700Y45726600D01*
X32092645Y45840339D01*
X32034898Y45940360D01*
X31946424Y46014598D01*
X31946423Y46014599D01*
X31837897Y46054100D01*
X31837895Y46054100D01*
X31722401Y46054100D01*
X31722398Y46054100D01*
X31613872Y46014599D01*
X31525398Y45940361D01*
X31467651Y45840340D01*
X31462242Y45809665D01*
X31447596Y45726600D01*
X30369521Y45726600D01*
X30349819Y46205255D01*
X32421689Y46205255D01*
X32441744Y46091516D01*
X32499491Y45991495D01*
X32587965Y45917257D01*
X32679995Y45883760D01*
X32696494Y45877755D01*
X32696497Y45877755D01*
X32811986Y45877755D01*
X32811988Y45877755D01*
X32811989Y45877756D01*
X32814026Y45878115D01*
X32815651Y45877755D01*
X32817456Y45877755D01*
X32817456Y45877356D01*
X32860729Y45867767D01*
X32886435Y45827426D01*
X32876087Y45780723D01*
X32865061Y45768689D01*
X32825422Y45735428D01*
X32767675Y45635407D01*
X32754347Y45559819D01*
X32747620Y45521667D01*
X32767675Y45407928D01*
X32825422Y45307907D01*
X32913896Y45233669D01*
X33022425Y45194167D01*
X33022428Y45194167D01*
X33143387Y45194167D01*
X33143387Y45191454D01*
X33180836Y45183176D01*
X33199146Y45163206D01*
X33259351Y45058928D01*
X33259353Y45058926D01*
X33259354Y45058925D01*
X33347828Y44984687D01*
X33456357Y44945185D01*
X33456360Y44945185D01*
X33571848Y44945185D01*
X33571851Y44945185D01*
X33680380Y44984687D01*
X33768854Y45058925D01*
X33826601Y45158946D01*
X33845986Y45268889D01*
X33871687Y45309230D01*
X33918389Y45319584D01*
X33924716Y45317889D01*
X33926862Y45317511D01*
X33926865Y45317509D01*
X33926868Y45317509D01*
X34042356Y45317509D01*
X34042359Y45317509D01*
X34150888Y45357011D01*
X34239362Y45431249D01*
X34297109Y45531270D01*
X34317164Y45645009D01*
X34297109Y45758748D01*
X34239362Y45858769D01*
X34209578Y45883761D01*
X34150887Y45933008D01*
X34042361Y45972509D01*
X34042359Y45972509D01*
X33926865Y45972509D01*
X33926862Y45972509D01*
X33818336Y45933008D01*
X33729862Y45858770D01*
X33684802Y45780723D01*
X33677855Y45768689D01*
X33672114Y45758746D01*
X33652729Y45648809D01*
X33627027Y45608465D01*
X33580326Y45598112D01*
X33574004Y45599805D01*
X33571853Y45600184D01*
X33571851Y45600185D01*
X33456357Y45600185D01*
X33450889Y45600185D01*
X33450889Y45602888D01*
X33413397Y45611206D01*
X33395127Y45631147D01*
X33392669Y45635404D01*
X33392669Y45635406D01*
X33334922Y45735427D01*
X33307132Y45758746D01*
X33246447Y45809666D01*
X33137921Y45849167D01*
X33137919Y45849167D01*
X33022425Y45849167D01*
X33020377Y45848806D01*
X33018749Y45849167D01*
X33016957Y45849167D01*
X33016957Y45849565D01*
X32973676Y45859161D01*
X32947975Y45899506D01*
X32958330Y45946207D01*
X32969348Y45958232D01*
X33008991Y45991495D01*
X33066738Y46091516D01*
X33086793Y46205255D01*
X33066738Y46318994D01*
X33008991Y46419015D01*
X32920517Y46493253D01*
X32920516Y46493254D01*
X32811990Y46532755D01*
X32811988Y46532755D01*
X32696494Y46532755D01*
X32696491Y46532755D01*
X32587965Y46493254D01*
X32499491Y46419016D01*
X32441744Y46318995D01*
X32421689Y46205255D01*
X30349819Y46205255D01*
X30302015Y47366600D01*
X30667596Y47366600D01*
X30687651Y47252861D01*
X30745398Y47152840D01*
X30833872Y47078602D01*
X30942401Y47039100D01*
X30942404Y47039100D01*
X31057892Y47039100D01*
X31057895Y47039100D01*
X31166424Y47078602D01*
X31254898Y47152840D01*
X31312645Y47252861D01*
X31329787Y47350078D01*
X31461166Y47350078D01*
X31481221Y47236339D01*
X31538968Y47136318D01*
X31627442Y47062080D01*
X31734584Y47023083D01*
X31769852Y46990766D01*
X31771939Y46942976D01*
X31739622Y46907708D01*
X31734584Y46905621D01*
X31640169Y46871257D01*
X31551695Y46797019D01*
X31493948Y46696998D01*
X31493948Y46696997D01*
X31473893Y46583258D01*
X31493948Y46469519D01*
X31551695Y46369498D01*
X31640169Y46295260D01*
X31748698Y46255758D01*
X31748701Y46255758D01*
X31864189Y46255758D01*
X31864192Y46255758D01*
X31972721Y46295260D01*
X32061195Y46369498D01*
X32118942Y46469519D01*
X32138997Y46583258D01*
X32118942Y46696997D01*
X32061195Y46797018D01*
X32035879Y46818261D01*
X31972720Y46871257D01*
X31865577Y46910254D01*
X31830310Y46942572D01*
X31828223Y46990362D01*
X31860541Y47025629D01*
X31865554Y47027707D01*
X31959994Y47062080D01*
X32048468Y47136318D01*
X32106215Y47236339D01*
X32126270Y47350078D01*
X32106215Y47463817D01*
X32048468Y47563838D01*
X31959994Y47638076D01*
X31959993Y47638077D01*
X31851467Y47677578D01*
X31851465Y47677578D01*
X31735971Y47677578D01*
X31735968Y47677578D01*
X31627442Y47638077D01*
X31538968Y47563839D01*
X31481221Y47463818D01*
X31461166Y47350078D01*
X31329787Y47350078D01*
X31332700Y47366600D01*
X31312645Y47480339D01*
X31254898Y47580360D01*
X31166424Y47654598D01*
X31166423Y47654599D01*
X31057897Y47694100D01*
X31057895Y47694100D01*
X30942401Y47694100D01*
X30942398Y47694100D01*
X30833872Y47654599D01*
X30745398Y47580361D01*
X30687651Y47480340D01*
X30687651Y47480339D01*
X30667596Y47366600D01*
X30302015Y47366600D01*
X30286648Y47739922D01*
X30286647Y47739923D01*
X29074670Y48016630D01*
X29035659Y48044313D01*
X29027649Y48091473D01*
X29048405Y48125438D01*
X29061708Y48136600D01*
X32487596Y48136600D01*
X32507651Y48022861D01*
X32565398Y47922840D01*
X32653872Y47848602D01*
X32731522Y47820339D01*
X32762401Y47809100D01*
X32762404Y47809100D01*
X32877892Y47809100D01*
X32877895Y47809100D01*
X32986424Y47848602D01*
X33074898Y47922840D01*
X33132645Y48022861D01*
X33152700Y48136600D01*
X33132645Y48250339D01*
X33074898Y48350360D01*
X33074897Y48350361D01*
X33044142Y48376168D01*
X33022055Y48418598D01*
X33036440Y48464220D01*
X33062940Y48482776D01*
X33089426Y48492416D01*
X33106422Y48498601D01*
X33106422Y48498602D01*
X33106424Y48498602D01*
X33194898Y48572840D01*
X33252645Y48672861D01*
X33272700Y48786600D01*
X33252645Y48900339D01*
X33194898Y49000360D01*
X33106424Y49074598D01*
X33106423Y49074599D01*
X32997897Y49114100D01*
X32997895Y49114100D01*
X32882401Y49114100D01*
X32882398Y49114100D01*
X32773872Y49074599D01*
X32685398Y49000361D01*
X32627651Y48900340D01*
X32627651Y48900339D01*
X32607596Y48786600D01*
X32627651Y48672861D01*
X32685398Y48572840D01*
X32716153Y48547034D01*
X32738240Y48504603D01*
X32723856Y48458981D01*
X32697355Y48440425D01*
X32653872Y48424599D01*
X32565398Y48350361D01*
X32507651Y48250340D01*
X32487596Y48136600D01*
X29061708Y48136600D01*
X29104898Y48172840D01*
X29162645Y48272861D01*
X29182700Y48386600D01*
X29162645Y48500339D01*
X29104898Y48600360D01*
X29094481Y48609101D01*
X29019975Y48671619D01*
X28997887Y48714050D01*
X29012271Y48759671D01*
X29054702Y48781759D01*
X29081525Y48778228D01*
X29100148Y48771449D01*
X29100151Y48771449D01*
X29215639Y48771449D01*
X29215642Y48771449D01*
X29324171Y48810951D01*
X29412645Y48885189D01*
X29442327Y48936600D01*
X30697596Y48936600D01*
X30717651Y48822861D01*
X30775398Y48722840D01*
X30863872Y48648602D01*
X30972401Y48609100D01*
X30972404Y48609100D01*
X31087892Y48609100D01*
X31087895Y48609100D01*
X31196424Y48648602D01*
X31284898Y48722840D01*
X31342645Y48822861D01*
X31362700Y48936600D01*
X31342645Y49050339D01*
X31284898Y49150360D01*
X31237227Y49190361D01*
X31196423Y49224599D01*
X31087897Y49264100D01*
X31087895Y49264100D01*
X30972401Y49264100D01*
X30972398Y49264100D01*
X30863872Y49224599D01*
X30775398Y49150361D01*
X30717651Y49050340D01*
X30717651Y49050339D01*
X30697596Y48936600D01*
X29442327Y48936600D01*
X29470392Y48985210D01*
X29490447Y49098949D01*
X29470392Y49212688D01*
X29412645Y49312709D01*
X29409435Y49315403D01*
X29324170Y49386948D01*
X29215644Y49426449D01*
X29215642Y49426449D01*
X29100148Y49426449D01*
X29100145Y49426449D01*
X28991619Y49386948D01*
X28903145Y49312710D01*
X28845398Y49212689D01*
X28825343Y49098949D01*
X28845398Y48985210D01*
X28903145Y48885189D01*
X28988067Y48813931D01*
X29010155Y48771500D01*
X28995771Y48725879D01*
X28953340Y48703791D01*
X28926517Y48707322D01*
X28907897Y48714100D01*
X28907895Y48714100D01*
X28792401Y48714100D01*
X28792398Y48714100D01*
X28683872Y48674599D01*
X28595398Y48600361D01*
X28537651Y48500340D01*
X28517596Y48386600D01*
X28521985Y48361705D01*
X28518177Y48326937D01*
X28487548Y48252992D01*
X28487548Y48229054D01*
X28469242Y48184860D01*
X28425048Y48166554D01*
X28411137Y48168122D01*
X28096648Y48239923D01*
X28096647Y48239922D01*
X28067432Y48085017D01*
X28041253Y48044981D01*
X28006015Y48034100D01*
X27942398Y48034100D01*
X27833872Y47994599D01*
X27745398Y47920361D01*
X27687651Y47820340D01*
X27687651Y47820339D01*
X27667596Y47706600D01*
X27687651Y47592861D01*
X27745398Y47492840D01*
X27833872Y47418602D01*
X27884934Y47400017D01*
X27920202Y47367700D01*
X27924975Y47329702D01*
X27369170Y44382779D01*
X27342991Y44342744D01*
X27296169Y44332946D01*
X27261360Y44355708D01*
X27259769Y44354372D01*
X27256254Y44358561D01*
X27167779Y44432800D01*
X27059253Y44472301D01*
X27059251Y44472301D01*
X26943757Y44472301D01*
X26943754Y44472301D01*
X26835228Y44432800D01*
X26746754Y44358562D01*
X26689007Y44258541D01*
X26689007Y44258540D01*
X26668952Y44144801D01*
X26689007Y44031062D01*
X26746754Y43931041D01*
X26835228Y43856803D01*
X26943757Y43817301D01*
X26943760Y43817301D01*
X27059248Y43817301D01*
X27059251Y43817301D01*
X27100647Y43832369D01*
X27172919Y43858673D01*
X27173835Y43856157D01*
X27211952Y43861195D01*
X27249917Y43832094D01*
X27257224Y43789232D01*
X27150422Y43222955D01*
X27124243Y43182920D01*
X27077421Y43173122D01*
X27067060Y43176018D01*
X27012410Y43196512D01*
X26976648Y43209922D01*
X26976647Y43209923D01*
X26971423Y43211881D01*
X26972331Y43214304D01*
X26939903Y43235245D01*
X26929772Y43259920D01*
X26922645Y43300339D01*
X26864898Y43400360D01*
X26824934Y43433894D01*
X26776423Y43474599D01*
X26667897Y43514100D01*
X26667895Y43514100D01*
X26552401Y43514100D01*
X26552398Y43514100D01*
X26443872Y43474599D01*
X26355398Y43400361D01*
X26297651Y43300341D01*
X26297650Y43300337D01*
X26291149Y43263470D01*
X26265447Y43223126D01*
X26229440Y43211824D01*
X23388694Y43219053D01*
X23344547Y43237471D01*
X23326353Y43281712D01*
X23334725Y43312802D01*
X23342497Y43326261D01*
X23362552Y43440000D01*
X23342497Y43553739D01*
X23284750Y43653760D01*
X23196276Y43727998D01*
X23196275Y43727999D01*
X23094154Y43765168D01*
X23058886Y43797485D01*
X23053033Y43824559D01*
X23053367Y43856157D01*
X23057173Y44216600D01*
X25797596Y44216600D01*
X25817651Y44102861D01*
X25875398Y44002840D01*
X25963872Y43928602D01*
X26072401Y43889100D01*
X26072404Y43889100D01*
X26187892Y43889100D01*
X26187895Y43889100D01*
X26296424Y43928602D01*
X26384898Y44002840D01*
X26442645Y44102861D01*
X26462700Y44216600D01*
X26442645Y44330339D01*
X26384898Y44430360D01*
X26383950Y44431156D01*
X26296423Y44504599D01*
X26187897Y44544100D01*
X26187895Y44544100D01*
X26072401Y44544100D01*
X26072398Y44544100D01*
X25963872Y44504599D01*
X25875398Y44430361D01*
X25817651Y44330340D01*
X25817651Y44330339D01*
X25797596Y44216600D01*
X23057173Y44216600D01*
X23066255Y45076600D01*
X23957596Y45076600D01*
X23977651Y44962861D01*
X24035398Y44862840D01*
X24123872Y44788602D01*
X24232401Y44749100D01*
X24232404Y44749100D01*
X24347892Y44749100D01*
X24347895Y44749100D01*
X24456424Y44788602D01*
X24544898Y44862840D01*
X24602645Y44962861D01*
X24622700Y45076600D01*
X24602645Y45190339D01*
X24544898Y45290360D01*
X24536256Y45297612D01*
X24456423Y45364599D01*
X24347897Y45404100D01*
X24347895Y45404100D01*
X24232401Y45404100D01*
X24232398Y45404100D01*
X24123872Y45364599D01*
X24035398Y45290361D01*
X23977651Y45190340D01*
X23960019Y45090340D01*
X23957596Y45076600D01*
X23066255Y45076600D01*
X23074386Y45846600D01*
X24867596Y45846600D01*
X24887651Y45732861D01*
X24945398Y45632840D01*
X24976378Y45606845D01*
X24998466Y45564415D01*
X24986391Y45526101D01*
X24988132Y45525095D01*
X24927651Y45420340D01*
X24925050Y45405589D01*
X24907596Y45306600D01*
X24927651Y45192861D01*
X24985398Y45092840D01*
X25073872Y45018602D01*
X25182401Y44979100D01*
X25182404Y44979100D01*
X25297892Y44979100D01*
X25297895Y44979100D01*
X25311539Y44984066D01*
X26673108Y44984066D01*
X26693163Y44870327D01*
X26750910Y44770306D01*
X26839384Y44696068D01*
X26947913Y44656566D01*
X26947916Y44656566D01*
X27063404Y44656566D01*
X27063407Y44656566D01*
X27171936Y44696068D01*
X27260410Y44770306D01*
X27318157Y44870327D01*
X27338212Y44984066D01*
X27318157Y45097805D01*
X27260410Y45197826D01*
X27175724Y45268886D01*
X27171935Y45272065D01*
X27063409Y45311566D01*
X27063407Y45311566D01*
X26947913Y45311566D01*
X26947910Y45311566D01*
X26839384Y45272065D01*
X26750910Y45197827D01*
X26693163Y45097806D01*
X26678720Y45015893D01*
X26673108Y44984066D01*
X25311539Y44984066D01*
X25406424Y45018602D01*
X25494898Y45092840D01*
X25552645Y45192861D01*
X25572700Y45306600D01*
X25552645Y45420339D01*
X25494898Y45520360D01*
X25493340Y45521667D01*
X25463917Y45546356D01*
X25441829Y45588787D01*
X25453907Y45627098D01*
X25452164Y45628104D01*
X25481587Y45679067D01*
X25512645Y45732861D01*
X25532700Y45846600D01*
X25512645Y45960339D01*
X25454898Y46060360D01*
X25417768Y46091516D01*
X25366423Y46134599D01*
X25257897Y46174100D01*
X25257895Y46174100D01*
X25142401Y46174100D01*
X25142398Y46174100D01*
X25033872Y46134599D01*
X24945398Y46060361D01*
X24887651Y45960340D01*
X24867596Y45846600D01*
X23074386Y45846600D01*
X23081918Y46559922D01*
X24374096Y46559922D01*
X24394151Y46446183D01*
X24451898Y46346162D01*
X24540372Y46271924D01*
X24630553Y46239100D01*
X24648901Y46232422D01*
X24648904Y46232422D01*
X24764392Y46232422D01*
X24764395Y46232422D01*
X24872924Y46271924D01*
X24961398Y46346162D01*
X25019145Y46446183D01*
X25039200Y46559922D01*
X25039199Y46559924D01*
X25039200Y46559925D01*
X25039200Y46565390D01*
X25040575Y46565390D01*
X25040843Y46566600D01*
X26677596Y46566600D01*
X26697651Y46452861D01*
X26755398Y46352840D01*
X26843872Y46278602D01*
X26906631Y46255759D01*
X26952401Y46239100D01*
X26952404Y46239100D01*
X27067892Y46239100D01*
X27067895Y46239100D01*
X27176424Y46278602D01*
X27264898Y46352840D01*
X27322645Y46452861D01*
X27342700Y46566600D01*
X27322645Y46680339D01*
X27264898Y46780360D01*
X27245045Y46797019D01*
X27176423Y46854599D01*
X27067897Y46894100D01*
X27067895Y46894100D01*
X26952401Y46894100D01*
X26952398Y46894100D01*
X26843872Y46854599D01*
X26755398Y46780361D01*
X26697651Y46680340D01*
X26677596Y46566600D01*
X25040843Y46566600D01*
X25049623Y46606214D01*
X25089966Y46631918D01*
X25122198Y46629099D01*
X25155901Y46616832D01*
X25155904Y46616832D01*
X25271392Y46616832D01*
X25271395Y46616832D01*
X25379924Y46656334D01*
X25468398Y46730572D01*
X25526145Y46830593D01*
X25546200Y46944332D01*
X25526145Y47058071D01*
X25468398Y47158092D01*
X25461944Y47163508D01*
X25379923Y47232331D01*
X25273929Y47270910D01*
X25238662Y47303228D01*
X25236575Y47351018D01*
X25255132Y47377519D01*
X25256421Y47378602D01*
X25256424Y47378602D01*
X25344898Y47452840D01*
X25402645Y47552861D01*
X25422700Y47666600D01*
X25402645Y47780339D01*
X25344898Y47880360D01*
X25297227Y47920361D01*
X25256423Y47954599D01*
X25147897Y47994100D01*
X25147895Y47994100D01*
X25032401Y47994100D01*
X25032398Y47994100D01*
X24923872Y47954599D01*
X24835398Y47880361D01*
X24777651Y47780340D01*
X24757596Y47666600D01*
X24777651Y47552861D01*
X24835398Y47452840D01*
X24923872Y47378602D01*
X25029865Y47340023D01*
X25065133Y47307706D01*
X25067220Y47259916D01*
X25048663Y47233414D01*
X24958898Y47158093D01*
X24901151Y47058072D01*
X24897806Y47039101D01*
X24886030Y46972311D01*
X24881096Y46944330D01*
X24881096Y46938864D01*
X24879723Y46938864D01*
X24870666Y46898033D01*
X24830319Y46872335D01*
X24798098Y46875156D01*
X24764399Y46887421D01*
X24764396Y46887422D01*
X24764395Y46887422D01*
X24648901Y46887422D01*
X24648898Y46887422D01*
X24540372Y46847921D01*
X24451898Y46773683D01*
X24394151Y46673662D01*
X24374096Y46559922D01*
X23081918Y46559922D01*
X23085349Y46884788D01*
X23104121Y46928783D01*
X23148506Y46946622D01*
X23192504Y46927850D01*
X23201973Y46915375D01*
X23227445Y46871256D01*
X23255398Y46822840D01*
X23343872Y46748602D01*
X23452401Y46709100D01*
X23452404Y46709100D01*
X23567892Y46709100D01*
X23567895Y46709100D01*
X23676424Y46748602D01*
X23764898Y46822840D01*
X23822645Y46922861D01*
X23842700Y47036600D01*
X23822645Y47150339D01*
X23764898Y47250360D01*
X23761918Y47252861D01*
X23676423Y47324599D01*
X23567897Y47364100D01*
X23567895Y47364100D01*
X23452401Y47364100D01*
X23452398Y47364100D01*
X23343872Y47324599D01*
X23255398Y47250361D01*
X23205254Y47163508D01*
X23167303Y47134388D01*
X23119877Y47140631D01*
X23090757Y47178582D01*
X23088630Y47195418D01*
X23089020Y47232331D01*
X23098016Y48084194D01*
X26004466Y48084194D01*
X26024521Y47970455D01*
X26082268Y47870434D01*
X26170742Y47796196D01*
X26279271Y47756694D01*
X26279274Y47756694D01*
X26394762Y47756694D01*
X26394765Y47756694D01*
X26503294Y47796196D01*
X26591768Y47870434D01*
X26649515Y47970455D01*
X26669570Y48084194D01*
X26649515Y48197933D01*
X26591768Y48297954D01*
X26549380Y48333522D01*
X26503293Y48372193D01*
X26394767Y48411694D01*
X26394765Y48411694D01*
X26279271Y48411694D01*
X26279268Y48411694D01*
X26170742Y48372193D01*
X26082268Y48297955D01*
X26024521Y48197934D01*
X26018988Y48166554D01*
X26004466Y48084194D01*
X23098016Y48084194D01*
X23107440Y48976600D01*
X25867299Y48976600D01*
X25887354Y48862861D01*
X25945101Y48762840D01*
X26033575Y48688602D01*
X26142104Y48649100D01*
X26142107Y48649100D01*
X26257595Y48649100D01*
X26257598Y48649100D01*
X26366127Y48688602D01*
X26454601Y48762840D01*
X26512348Y48862861D01*
X26532403Y48976600D01*
X26512348Y49090339D01*
X26454601Y49190360D01*
X26452595Y49192043D01*
X27879679Y49192043D01*
X27899734Y49078304D01*
X27957481Y48978283D01*
X28045955Y48904045D01*
X28097760Y48885189D01*
X28154484Y48864543D01*
X28154487Y48864543D01*
X28269975Y48864543D01*
X28269978Y48864543D01*
X28378507Y48904045D01*
X28466981Y48978283D01*
X28524728Y49078304D01*
X28544783Y49192043D01*
X28524728Y49305782D01*
X28466981Y49405803D01*
X28459545Y49412043D01*
X28378506Y49480042D01*
X28269980Y49519543D01*
X28269978Y49519543D01*
X28154484Y49519543D01*
X28154481Y49519543D01*
X28045955Y49480042D01*
X27957481Y49405804D01*
X27899734Y49305783D01*
X27879679Y49192043D01*
X26452595Y49192043D01*
X26427992Y49212688D01*
X26366126Y49264599D01*
X26257600Y49304100D01*
X26252213Y49305049D01*
X26211869Y49330751D01*
X26201515Y49377453D01*
X26227217Y49417797D01*
X26252907Y49425898D01*
X26252510Y49428151D01*
X26257891Y49429100D01*
X26257895Y49429100D01*
X26366424Y49468602D01*
X26454898Y49542840D01*
X26512645Y49642861D01*
X26532075Y49753057D01*
X30705746Y49753057D01*
X30725801Y49639318D01*
X30783548Y49539297D01*
X30872022Y49465059D01*
X30980551Y49425557D01*
X30980554Y49425557D01*
X31096042Y49425557D01*
X31096045Y49425557D01*
X31204574Y49465059D01*
X31293048Y49539297D01*
X31350795Y49639318D01*
X31361502Y49700041D01*
X31577293Y49700041D01*
X31597348Y49586302D01*
X31655095Y49486281D01*
X31743569Y49412043D01*
X31851276Y49372840D01*
X31852098Y49372541D01*
X31852101Y49372541D01*
X31967589Y49372541D01*
X31967592Y49372541D01*
X32076121Y49412043D01*
X32164595Y49486281D01*
X32222342Y49586302D01*
X32222395Y49586600D01*
X32834096Y49586600D01*
X32854151Y49472861D01*
X32911898Y49372840D01*
X33000372Y49298602D01*
X33093795Y49264598D01*
X33108901Y49259100D01*
X33108904Y49259100D01*
X33224392Y49259100D01*
X33224395Y49259100D01*
X33332924Y49298602D01*
X33421398Y49372840D01*
X33479145Y49472861D01*
X33499200Y49586600D01*
X33479145Y49700339D01*
X33421398Y49800360D01*
X33405404Y49813781D01*
X33332923Y49874599D01*
X33224397Y49914100D01*
X33224395Y49914100D01*
X33108901Y49914100D01*
X33108898Y49914100D01*
X33000372Y49874599D01*
X32911898Y49800361D01*
X32854151Y49700340D01*
X32834096Y49586600D01*
X32222395Y49586600D01*
X32242397Y49700041D01*
X32222342Y49813780D01*
X32164595Y49913801D01*
X32121051Y49950339D01*
X32076120Y49988040D01*
X31967594Y50027541D01*
X31967592Y50027541D01*
X31852098Y50027541D01*
X31852095Y50027541D01*
X31743569Y49988040D01*
X31655095Y49913802D01*
X31597348Y49813781D01*
X31577293Y49700041D01*
X31361502Y49700041D01*
X31370850Y49753057D01*
X31350795Y49866796D01*
X31293048Y49966817D01*
X31288825Y49970361D01*
X31204573Y50041056D01*
X31096047Y50080557D01*
X31096045Y50080557D01*
X30980551Y50080557D01*
X30980548Y50080557D01*
X30872022Y50041056D01*
X30783548Y49966818D01*
X30725801Y49866797D01*
X30725801Y49866796D01*
X30705746Y49753057D01*
X26532075Y49753057D01*
X26532700Y49756600D01*
X26512645Y49870339D01*
X26454898Y49970360D01*
X26370647Y50041055D01*
X26366423Y50044599D01*
X26257897Y50084100D01*
X26257895Y50084100D01*
X26142401Y50084100D01*
X26142398Y50084100D01*
X26033872Y50044599D01*
X25945398Y49970361D01*
X25887651Y49870340D01*
X25887651Y49870339D01*
X25867596Y49756600D01*
X25887651Y49642861D01*
X25945398Y49542840D01*
X26033872Y49468602D01*
X26142401Y49429100D01*
X26142404Y49429100D01*
X26147786Y49428151D01*
X26188130Y49402449D01*
X26198484Y49355747D01*
X26172782Y49315403D01*
X26147091Y49307303D01*
X26147489Y49305049D01*
X26142101Y49304100D01*
X26033575Y49264599D01*
X25945101Y49190361D01*
X25887354Y49090340D01*
X25884578Y49074598D01*
X25867299Y48976600D01*
X23107440Y48976600D01*
X23117782Y49955935D01*
X23136553Y49999930D01*
X23180938Y50017769D01*
X23224936Y49998997D01*
X23234404Y49986524D01*
X23265398Y49932840D01*
X23353872Y49858602D01*
X23462401Y49819100D01*
X23462404Y49819100D01*
X23577892Y49819100D01*
X23577895Y49819100D01*
X23625975Y49836600D01*
X24207596Y49836600D01*
X24227651Y49722861D01*
X24285398Y49622840D01*
X24373872Y49548602D01*
X24453709Y49519543D01*
X24482401Y49509100D01*
X24482404Y49509100D01*
X24597892Y49509100D01*
X24597895Y49509100D01*
X24706424Y49548602D01*
X24794898Y49622840D01*
X24852645Y49722861D01*
X24872700Y49836600D01*
X24852645Y49950339D01*
X24794898Y50050360D01*
X24758911Y50080557D01*
X24706423Y50124599D01*
X24597897Y50164100D01*
X24597895Y50164100D01*
X24482401Y50164100D01*
X24482398Y50164100D01*
X24373872Y50124599D01*
X24285398Y50050361D01*
X24227651Y49950340D01*
X24207596Y49836600D01*
X23625975Y49836600D01*
X23686424Y49858602D01*
X23774898Y49932840D01*
X23832645Y50032861D01*
X23852700Y50146600D01*
X23832645Y50260339D01*
X23774898Y50360360D01*
X23686424Y50434598D01*
X23686423Y50434599D01*
X23577897Y50474100D01*
X23577895Y50474100D01*
X23462401Y50474100D01*
X23462398Y50474100D01*
X23353872Y50434599D01*
X23265397Y50360360D01*
X23265395Y50360357D01*
X23238520Y50313808D01*
X23200570Y50284688D01*
X23153144Y50290932D01*
X23124024Y50328882D01*
X23121898Y50345709D01*
X23148306Y52846600D01*
X23677596Y52846600D01*
X23697651Y52732861D01*
X23755398Y52632840D01*
X23843872Y52558602D01*
X23952401Y52519100D01*
X23952404Y52519100D01*
X24067892Y52519100D01*
X24067895Y52519100D01*
X24176424Y52558602D01*
X24264898Y52632840D01*
X24322645Y52732861D01*
X24342700Y52846600D01*
X24322645Y52960339D01*
X24264898Y53060360D01*
X24176424Y53134598D01*
X24176423Y53134599D01*
X24067897Y53174100D01*
X24067895Y53174100D01*
X23952401Y53174100D01*
X23952398Y53174100D01*
X23843872Y53134599D01*
X23755398Y53060361D01*
X23697651Y52960340D01*
X23697651Y52960339D01*
X23677596Y52846600D01*
X23148306Y52846600D01*
X23149802Y52988226D01*
X23191931Y52972892D01*
X23191934Y52972892D01*
X23307422Y52972892D01*
X23307425Y52972892D01*
X23415954Y53012394D01*
X23504428Y53086632D01*
X23562175Y53186653D01*
X23582230Y53300392D01*
X23565266Y53396600D01*
X25627596Y53396600D01*
X25647651Y53282861D01*
X25705398Y53182840D01*
X25793872Y53108602D01*
X25902401Y53069100D01*
X25902404Y53069100D01*
X26017892Y53069100D01*
X26017895Y53069100D01*
X26126424Y53108602D01*
X26214898Y53182840D01*
X26250967Y53245314D01*
X28272242Y53245314D01*
X28292297Y53131575D01*
X28350044Y53031554D01*
X28438518Y52957316D01*
X28547047Y52917814D01*
X28547050Y52917814D01*
X28662538Y52917814D01*
X28662541Y52917814D01*
X28771070Y52957316D01*
X28817887Y52996600D01*
X29747596Y52996600D01*
X29767651Y52882861D01*
X29825398Y52782840D01*
X29913872Y52708602D01*
X30022401Y52669100D01*
X30022404Y52669100D01*
X30104711Y52669100D01*
X30148905Y52650794D01*
X30167211Y52606600D01*
X30166262Y52595749D01*
X30157596Y52546600D01*
X30177651Y52432861D01*
X30235398Y52332840D01*
X30323872Y52258602D01*
X30432401Y52219100D01*
X30432404Y52219100D01*
X30538124Y52219100D01*
X30582318Y52200794D01*
X30600624Y52156600D01*
X30600302Y52152922D01*
X30600302Y52149309D01*
X30600302Y52149308D01*
X30600302Y52149306D01*
X30620357Y52035567D01*
X30678104Y51935546D01*
X30766578Y51861308D01*
X30875107Y51821806D01*
X30875110Y51821806D01*
X30995715Y51821806D01*
X31039909Y51803500D01*
X31058215Y51759306D01*
X31057266Y51748460D01*
X31044596Y51676600D01*
X31064651Y51562861D01*
X31122398Y51462840D01*
X31210872Y51388602D01*
X31319401Y51349100D01*
X31319404Y51349100D01*
X31434892Y51349100D01*
X31434895Y51349100D01*
X31543424Y51388602D01*
X31631898Y51462840D01*
X31689645Y51562861D01*
X31709700Y51676600D01*
X31689645Y51790339D01*
X31631898Y51890360D01*
X31543424Y51964598D01*
X31543423Y51964599D01*
X31434897Y52004100D01*
X31434895Y52004100D01*
X31319401Y52004100D01*
X31314287Y52004100D01*
X31270093Y52022406D01*
X31251787Y52066600D01*
X31252735Y52077447D01*
X31265406Y52149306D01*
X31245351Y52263045D01*
X31187604Y52363066D01*
X31099130Y52437304D01*
X31099129Y52437305D01*
X30990603Y52476806D01*
X30990601Y52476806D01*
X30884878Y52476806D01*
X30840684Y52495112D01*
X30822378Y52539306D01*
X30822700Y52542985D01*
X30822700Y52546598D01*
X30822700Y52546600D01*
X30802645Y52660339D01*
X30744898Y52760360D01*
X30656424Y52834598D01*
X30656423Y52834599D01*
X30547897Y52874100D01*
X30547895Y52874100D01*
X30465585Y52874100D01*
X30421391Y52892406D01*
X30403085Y52936600D01*
X30404034Y52947453D01*
X30406306Y52960340D01*
X30412700Y52996600D01*
X30392645Y53110339D01*
X30334898Y53210360D01*
X30246424Y53284598D01*
X30246423Y53284599D01*
X30137897Y53324100D01*
X30137895Y53324100D01*
X30022401Y53324100D01*
X30022398Y53324100D01*
X29913872Y53284599D01*
X29825398Y53210361D01*
X29767651Y53110340D01*
X29758839Y53060361D01*
X29747596Y52996600D01*
X28817887Y52996600D01*
X28859544Y53031554D01*
X28917291Y53131575D01*
X28937346Y53245314D01*
X28917291Y53359053D01*
X28859544Y53459074D01*
X28858037Y53460339D01*
X28771069Y53533313D01*
X28662543Y53572814D01*
X28662541Y53572814D01*
X28547047Y53572814D01*
X28547044Y53572814D01*
X28438518Y53533313D01*
X28350044Y53459075D01*
X28292297Y53359054D01*
X28292297Y53359053D01*
X28272242Y53245314D01*
X26250967Y53245314D01*
X26272645Y53282861D01*
X26292700Y53396600D01*
X26272645Y53510339D01*
X26225729Y53591600D01*
X31472596Y53591600D01*
X31492651Y53477861D01*
X31550398Y53377840D01*
X31638872Y53303602D01*
X31747401Y53264100D01*
X31747404Y53264100D01*
X31862892Y53264100D01*
X31862895Y53264100D01*
X31971424Y53303602D01*
X32022667Y53346600D01*
X32447596Y53346600D01*
X32467651Y53232861D01*
X32525398Y53132840D01*
X32613872Y53058602D01*
X32688184Y53031554D01*
X32722401Y53019100D01*
X32722404Y53019100D01*
X32837892Y53019100D01*
X32837895Y53019100D01*
X32946424Y53058602D01*
X33034898Y53132840D01*
X33092645Y53232861D01*
X33112700Y53346600D01*
X33092645Y53460339D01*
X33034898Y53560360D01*
X32997668Y53591600D01*
X32946423Y53634599D01*
X32837897Y53674100D01*
X32837895Y53674100D01*
X32722401Y53674100D01*
X32722398Y53674100D01*
X32613872Y53634599D01*
X32525398Y53560361D01*
X32467651Y53460340D01*
X32447596Y53346600D01*
X32022667Y53346600D01*
X32059898Y53377840D01*
X32117645Y53477861D01*
X32137700Y53591600D01*
X32117645Y53705339D01*
X32071930Y53784520D01*
X32065687Y53831946D01*
X32094807Y53869897D01*
X32104682Y53874501D01*
X32143422Y53888601D01*
X32143422Y53888602D01*
X32143424Y53888602D01*
X32231898Y53962840D01*
X32270628Y54029922D01*
X38514096Y54029922D01*
X38534151Y53916183D01*
X38591898Y53816162D01*
X38680372Y53741924D01*
X38768520Y53709840D01*
X38788901Y53702422D01*
X38788904Y53702422D01*
X38904392Y53702422D01*
X38904395Y53702422D01*
X39012924Y53741924D01*
X39101398Y53816162D01*
X39159145Y53916183D01*
X39179200Y54029922D01*
X39159145Y54143661D01*
X39101398Y54243682D01*
X39012924Y54317920D01*
X39012923Y54317921D01*
X38904397Y54357422D01*
X38904395Y54357422D01*
X38788901Y54357422D01*
X38788898Y54357422D01*
X38680372Y54317921D01*
X38591898Y54243683D01*
X38534151Y54143662D01*
X38514096Y54029922D01*
X32270628Y54029922D01*
X32289645Y54062861D01*
X32309700Y54176600D01*
X32289645Y54290339D01*
X32231898Y54390360D01*
X32220006Y54400339D01*
X32143423Y54464599D01*
X32034897Y54504100D01*
X32034895Y54504100D01*
X31919401Y54504100D01*
X31919398Y54504100D01*
X31810872Y54464599D01*
X31722398Y54390361D01*
X31664651Y54290340D01*
X31644596Y54176600D01*
X31664651Y54062861D01*
X31710365Y53983681D01*
X31716608Y53936254D01*
X31687488Y53898304D01*
X31677615Y53893700D01*
X31638872Y53879599D01*
X31550398Y53805361D01*
X31492651Y53705340D01*
X31475904Y53610361D01*
X31472596Y53591600D01*
X26225729Y53591600D01*
X26214898Y53610360D01*
X26126424Y53684598D01*
X26126423Y53684599D01*
X26017897Y53724100D01*
X26017895Y53724100D01*
X25902401Y53724100D01*
X25902398Y53724100D01*
X25793872Y53684599D01*
X25705398Y53610361D01*
X25647651Y53510340D01*
X25647651Y53510339D01*
X25627596Y53396600D01*
X23565266Y53396600D01*
X23562175Y53414131D01*
X23504428Y53514152D01*
X23415954Y53588390D01*
X23415953Y53588391D01*
X23307427Y53627892D01*
X23307425Y53627892D01*
X23191931Y53627892D01*
X23191928Y53627892D01*
X23156422Y53614969D01*
X23162370Y54178280D01*
X26055916Y54178280D01*
X26075971Y54064541D01*
X26133718Y53964520D01*
X26222192Y53890282D01*
X26251545Y53879598D01*
X26330721Y53850780D01*
X26330724Y53850780D01*
X26446212Y53850780D01*
X26446215Y53850780D01*
X26554744Y53890282D01*
X26594451Y53923600D01*
X28757071Y53923600D01*
X28777126Y53809861D01*
X28834873Y53709840D01*
X28923347Y53635602D01*
X28992697Y53610360D01*
X29031876Y53596100D01*
X29031879Y53596100D01*
X29147367Y53596100D01*
X29147370Y53596100D01*
X29255899Y53635602D01*
X29344373Y53709840D01*
X29402120Y53809861D01*
X29422175Y53923600D01*
X29402120Y54037339D01*
X29344373Y54137360D01*
X29336241Y54144184D01*
X29255898Y54211599D01*
X29147372Y54251100D01*
X29147370Y54251100D01*
X29031876Y54251100D01*
X29031873Y54251100D01*
X28923347Y54211599D01*
X28834873Y54137361D01*
X28777126Y54037340D01*
X28757071Y53923600D01*
X26594451Y53923600D01*
X26643218Y53964520D01*
X26700965Y54064541D01*
X26721020Y54178280D01*
X26701921Y54286600D01*
X27744596Y54286600D01*
X27764651Y54172861D01*
X27822398Y54072840D01*
X27910872Y53998602D01*
X28009125Y53962840D01*
X28019401Y53959100D01*
X28019404Y53959100D01*
X28134892Y53959100D01*
X28134895Y53959100D01*
X28243424Y53998602D01*
X28331898Y54072840D01*
X28389645Y54172861D01*
X28409700Y54286600D01*
X28389645Y54400339D01*
X28331898Y54500360D01*
X28322405Y54508326D01*
X28243423Y54574599D01*
X28134897Y54614100D01*
X28134895Y54614100D01*
X28019401Y54614100D01*
X28019398Y54614100D01*
X27910872Y54574599D01*
X27822398Y54500361D01*
X27764651Y54400340D01*
X27744596Y54286600D01*
X26701921Y54286600D01*
X26700965Y54292019D01*
X26643218Y54392040D01*
X26633327Y54400340D01*
X26554743Y54466279D01*
X26446217Y54505780D01*
X26446215Y54505780D01*
X26330721Y54505780D01*
X26330718Y54505780D01*
X26222192Y54466279D01*
X26133718Y54392041D01*
X26075971Y54292020D01*
X26055916Y54178280D01*
X23162370Y54178280D01*
X23174289Y55306988D01*
X23407030Y55306988D01*
X23427085Y55193249D01*
X23484832Y55093228D01*
X23573306Y55018990D01*
X23681835Y54979488D01*
X23681838Y54979488D01*
X23797326Y54979488D01*
X23797329Y54979488D01*
X23905858Y55018990D01*
X23994332Y55093228D01*
X24052079Y55193249D01*
X24053934Y55203774D01*
X24079636Y55244117D01*
X24126337Y55254471D01*
X24155659Y55240798D01*
X24190306Y55211726D01*
X24284339Y55177500D01*
X24298835Y55172224D01*
X24298838Y55172224D01*
X24414326Y55172224D01*
X24414329Y55172224D01*
X24522858Y55211726D01*
X24611332Y55285964D01*
X24668702Y55385332D01*
X25978864Y55385332D01*
X25998919Y55271593D01*
X26056666Y55171572D01*
X26145140Y55097334D01*
X26253669Y55057832D01*
X26253672Y55057832D01*
X26369160Y55057832D01*
X26369163Y55057832D01*
X26477692Y55097334D01*
X26566166Y55171572D01*
X26615153Y55256420D01*
X28357776Y55256420D01*
X28377831Y55142681D01*
X28435578Y55042660D01*
X28524052Y54968422D01*
X28632581Y54928920D01*
X28632584Y54928920D01*
X28727626Y54928920D01*
X28771820Y54910614D01*
X28790126Y54866420D01*
X28789177Y54855570D01*
X28787596Y54846603D01*
X28787596Y54846602D01*
X28787596Y54846600D01*
X28807651Y54732861D01*
X28865398Y54632840D01*
X28953872Y54558602D01*
X29062401Y54519100D01*
X29062404Y54519100D01*
X29177892Y54519100D01*
X29177895Y54519100D01*
X29286424Y54558602D01*
X29374898Y54632840D01*
X29413062Y54698942D01*
X30087596Y54698942D01*
X30107651Y54585203D01*
X30165398Y54485182D01*
X30253872Y54410944D01*
X30283008Y54400339D01*
X30362401Y54371442D01*
X30362404Y54371442D01*
X30477892Y54371442D01*
X30477895Y54371442D01*
X30586424Y54410944D01*
X30674898Y54485182D01*
X30719380Y54562229D01*
X30738967Y54577258D01*
X30810778Y54577258D01*
X30833877Y54547154D01*
X30835057Y54520128D01*
X30828896Y54485182D01*
X30825916Y54468281D01*
X30845971Y54354541D01*
X30903718Y54254520D01*
X30992192Y54180282D01*
X31092805Y54143661D01*
X31100721Y54140780D01*
X31100724Y54140780D01*
X31216212Y54140780D01*
X31216215Y54140780D01*
X31324744Y54180282D01*
X31413218Y54254520D01*
X31470965Y54354541D01*
X31491020Y54468280D01*
X31470965Y54582019D01*
X31470964Y54582021D01*
X31470964Y54582022D01*
X31470963Y54582023D01*
X31455627Y54608585D01*
X31449382Y54656011D01*
X31478502Y54693962D01*
X31488373Y54698565D01*
X31522613Y54711028D01*
X31543422Y54718601D01*
X31543422Y54718602D01*
X31543424Y54718602D01*
X31631898Y54792840D01*
X31664899Y54850000D01*
X34253448Y54850000D01*
X34273503Y54736261D01*
X34331250Y54636240D01*
X34419724Y54562002D01*
X34528253Y54522500D01*
X34528256Y54522500D01*
X34643744Y54522500D01*
X34643747Y54522500D01*
X34752276Y54562002D01*
X34840750Y54636240D01*
X34898497Y54736261D01*
X34918552Y54850000D01*
X34898497Y54963739D01*
X34840750Y55063760D01*
X34773322Y55120339D01*
X34752275Y55137999D01*
X34746992Y55139922D01*
X38464096Y55139922D01*
X38484151Y55026183D01*
X38541898Y54926162D01*
X38630372Y54851924D01*
X38738186Y54812682D01*
X38738901Y54812422D01*
X38738904Y54812422D01*
X38854392Y54812422D01*
X38854395Y54812422D01*
X38962924Y54851924D01*
X39051398Y54926162D01*
X39109145Y55026183D01*
X39129200Y55139922D01*
X39109145Y55253661D01*
X39051398Y55353682D01*
X39031762Y55370159D01*
X38962923Y55427921D01*
X38854397Y55467422D01*
X38854395Y55467422D01*
X38738901Y55467422D01*
X38738898Y55467422D01*
X38630372Y55427921D01*
X38541898Y55353683D01*
X38484151Y55253662D01*
X38464096Y55139922D01*
X34746992Y55139922D01*
X34643749Y55177500D01*
X34643747Y55177500D01*
X34528253Y55177500D01*
X34528250Y55177500D01*
X34419724Y55137999D01*
X34331250Y55063761D01*
X34273503Y54963740D01*
X34266877Y54926162D01*
X34253448Y54850000D01*
X31664899Y54850000D01*
X31689645Y54892861D01*
X31709700Y55006600D01*
X31689645Y55120339D01*
X31631898Y55220360D01*
X31603586Y55244117D01*
X31543423Y55294599D01*
X31434897Y55334100D01*
X31434895Y55334100D01*
X31319401Y55334100D01*
X31319398Y55334100D01*
X31210872Y55294599D01*
X31122398Y55220361D01*
X31064651Y55120340D01*
X31044596Y55006600D01*
X31064651Y54892859D01*
X31064653Y54892855D01*
X31079988Y54866295D01*
X31086233Y54818869D01*
X31057112Y54780919D01*
X31047239Y54776314D01*
X30992192Y54756279D01*
X30903717Y54682040D01*
X30859234Y54604994D01*
X30821283Y54575874D01*
X30810778Y54577258D01*
X30738967Y54577258D01*
X30757331Y54591348D01*
X30767836Y54589966D01*
X30744737Y54620070D01*
X30743558Y54647096D01*
X30752700Y54698942D01*
X30732645Y54812681D01*
X30674898Y54912702D01*
X30586424Y54986940D01*
X30586423Y54986941D01*
X30477897Y55026442D01*
X30477895Y55026442D01*
X30362401Y55026442D01*
X30362398Y55026442D01*
X30253872Y54986941D01*
X30165398Y54912703D01*
X30107651Y54812682D01*
X30087596Y54698942D01*
X29413062Y54698942D01*
X29432645Y54732861D01*
X29452700Y54846600D01*
X29432645Y54960339D01*
X29374898Y55060360D01*
X29303418Y55120339D01*
X29286423Y55134599D01*
X29246268Y55149214D01*
X29211000Y55181531D01*
X29208913Y55229321D01*
X29241230Y55264589D01*
X29246262Y55266674D01*
X29326425Y55295851D01*
X29414899Y55370089D01*
X29472646Y55470110D01*
X29492701Y55583849D01*
X29472646Y55697588D01*
X29414899Y55797609D01*
X29379605Y55827224D01*
X29337205Y55862802D01*
X29315117Y55905233D01*
X29329501Y55950854D01*
X29337201Y55958554D01*
X29401898Y56012840D01*
X29459645Y56112861D01*
X29476174Y56206600D01*
X33837596Y56206600D01*
X33857651Y56092861D01*
X33915398Y55992840D01*
X34003872Y55918602D01*
X34112401Y55879100D01*
X34112404Y55879100D01*
X34227892Y55879100D01*
X34227895Y55879100D01*
X34336424Y55918602D01*
X34424898Y55992840D01*
X34482645Y56092861D01*
X34502700Y56206600D01*
X34482645Y56320339D01*
X34424898Y56420360D01*
X34393317Y56446860D01*
X34336423Y56494599D01*
X34227897Y56534100D01*
X34227895Y56534100D01*
X34112401Y56534100D01*
X34112398Y56534100D01*
X34003872Y56494599D01*
X33915398Y56420361D01*
X33857651Y56320340D01*
X33857651Y56320339D01*
X33837596Y56206600D01*
X29476174Y56206600D01*
X29479700Y56226600D01*
X29459645Y56340339D01*
X29401898Y56440360D01*
X29394151Y56446861D01*
X29313423Y56514599D01*
X29204897Y56554100D01*
X29204895Y56554100D01*
X29089401Y56554100D01*
X29089398Y56554100D01*
X28980872Y56514599D01*
X28892398Y56440361D01*
X28834651Y56340340D01*
X28814596Y56226600D01*
X28834651Y56112861D01*
X28892398Y56012840D01*
X28970090Y55947649D01*
X28992178Y55905218D01*
X28977794Y55859597D01*
X28970091Y55851894D01*
X28905399Y55797610D01*
X28847651Y55697586D01*
X28835746Y55630071D01*
X28810044Y55589727D01*
X28763343Y55579374D01*
X28752820Y55582193D01*
X28748077Y55583920D01*
X28748075Y55583920D01*
X28632581Y55583920D01*
X28632578Y55583920D01*
X28524052Y55544419D01*
X28435578Y55470181D01*
X28377831Y55370160D01*
X28374926Y55353683D01*
X28357776Y55256420D01*
X26615153Y55256420D01*
X26623913Y55271593D01*
X26643968Y55385332D01*
X26623913Y55499071D01*
X26566166Y55599092D01*
X26549041Y55613462D01*
X26477691Y55673331D01*
X26369165Y55712832D01*
X26369163Y55712832D01*
X26253669Y55712832D01*
X26253666Y55712832D01*
X26145140Y55673331D01*
X26056666Y55599093D01*
X25998919Y55499072D01*
X25998919Y55499071D01*
X25978864Y55385332D01*
X24668702Y55385332D01*
X24669079Y55385985D01*
X24689134Y55499724D01*
X24669079Y55613463D01*
X24611332Y55713484D01*
X24522858Y55787722D01*
X24522857Y55787723D01*
X24414331Y55827224D01*
X24414329Y55827224D01*
X24298835Y55827224D01*
X24298832Y55827224D01*
X24190306Y55787723D01*
X24101832Y55713485D01*
X24044084Y55613462D01*
X24042228Y55602936D01*
X24016523Y55562594D01*
X23969821Y55552243D01*
X23940504Y55565915D01*
X23905857Y55594987D01*
X23797331Y55634488D01*
X23797329Y55634488D01*
X23681835Y55634488D01*
X23681832Y55634488D01*
X23573306Y55594987D01*
X23484832Y55520749D01*
X23427085Y55420728D01*
X23407030Y55306988D01*
X23174289Y55306988D01*
X23184069Y56233100D01*
X25687889Y56233100D01*
X25707944Y56119361D01*
X25765691Y56019340D01*
X25854165Y55945102D01*
X25962694Y55905600D01*
X25962697Y55905600D01*
X26078185Y55905600D01*
X26078188Y55905600D01*
X26186717Y55945102D01*
X26275191Y56019340D01*
X26332938Y56119361D01*
X26352993Y56233100D01*
X26332938Y56346839D01*
X26275191Y56446860D01*
X26218298Y56494599D01*
X26186716Y56521099D01*
X26078190Y56560600D01*
X26078188Y56560600D01*
X25962694Y56560600D01*
X25962691Y56560600D01*
X25854165Y56521099D01*
X25765691Y56446861D01*
X25707944Y56346840D01*
X25703271Y56320339D01*
X25687889Y56233100D01*
X23184069Y56233100D01*
X23184674Y56290389D01*
X23199180Y56295668D01*
X23287654Y56369906D01*
X23345401Y56469927D01*
X23365456Y56583666D01*
X23349598Y56673600D01*
X24765784Y56673600D01*
X24785839Y56559861D01*
X24843586Y56459840D01*
X24932060Y56385602D01*
X25038558Y56346839D01*
X25040589Y56346100D01*
X25040592Y56346100D01*
X25156080Y56346100D01*
X25156083Y56346100D01*
X25264612Y56385602D01*
X25353086Y56459840D01*
X25410833Y56559861D01*
X25430888Y56673600D01*
X25410833Y56787339D01*
X25382597Y56836246D01*
X27817243Y56836246D01*
X27837298Y56722507D01*
X27895045Y56622486D01*
X27983519Y56548248D01*
X28092048Y56508746D01*
X28092051Y56508746D01*
X28207539Y56508746D01*
X28207542Y56508746D01*
X28316071Y56548248D01*
X28404545Y56622486D01*
X28462292Y56722507D01*
X28482347Y56836246D01*
X28462292Y56949985D01*
X28405222Y57048833D01*
X28770743Y57048833D01*
X28790798Y56935094D01*
X28848545Y56835073D01*
X28937019Y56760835D01*
X29042322Y56722507D01*
X29045548Y56721333D01*
X29045551Y56721333D01*
X29161039Y56721333D01*
X29161042Y56721333D01*
X29269571Y56760835D01*
X29358045Y56835073D01*
X29415792Y56935094D01*
X29435847Y57048833D01*
X29415792Y57162572D01*
X29358045Y57262593D01*
X29340162Y57277599D01*
X29269570Y57336832D01*
X29161044Y57376333D01*
X29161042Y57376333D01*
X29045548Y57376333D01*
X29045545Y57376333D01*
X28937019Y57336832D01*
X28848545Y57262594D01*
X28790798Y57162573D01*
X28770743Y57048833D01*
X28405222Y57048833D01*
X28404545Y57050006D01*
X28316071Y57124244D01*
X28316070Y57124245D01*
X28207544Y57163746D01*
X28207542Y57163746D01*
X28092048Y57163746D01*
X28092045Y57163746D01*
X27983519Y57124245D01*
X27895045Y57050007D01*
X27837298Y56949986D01*
X27837298Y56949985D01*
X27817243Y56836246D01*
X25382597Y56836246D01*
X25353086Y56887360D01*
X25296199Y56935094D01*
X25264611Y56961599D01*
X25156085Y57001100D01*
X25156083Y57001100D01*
X25040589Y57001100D01*
X25040586Y57001100D01*
X24932060Y56961599D01*
X24843586Y56887361D01*
X24785839Y56787340D01*
X24765784Y56673600D01*
X23349598Y56673600D01*
X23345401Y56697405D01*
X23287654Y56797426D01*
X23199180Y56871664D01*
X23199179Y56871665D01*
X23190846Y56874698D01*
X23199678Y57711044D01*
X28269902Y57711044D01*
X28289957Y57597305D01*
X28347704Y57497284D01*
X28436178Y57423046D01*
X28544707Y57383544D01*
X28544710Y57383544D01*
X28660198Y57383544D01*
X28660201Y57383544D01*
X28768730Y57423046D01*
X28857204Y57497284D01*
X28914951Y57597305D01*
X28935006Y57711044D01*
X28914951Y57824783D01*
X28857204Y57924804D01*
X28768730Y57999042D01*
X28768729Y57999043D01*
X28660203Y58038544D01*
X28660201Y58038544D01*
X28544707Y58038544D01*
X28544704Y58038544D01*
X28436178Y57999043D01*
X28347704Y57924805D01*
X28289957Y57824784D01*
X28283665Y57789101D01*
X28269902Y57711044D01*
X23199678Y57711044D01*
X23203961Y58116600D01*
X29277596Y58116600D01*
X29297651Y58002861D01*
X29355398Y57902840D01*
X29443872Y57828602D01*
X29503999Y57806717D01*
X29552401Y57789100D01*
X29552404Y57789100D01*
X29600058Y57789100D01*
X29644252Y57770794D01*
X29662558Y57726600D01*
X29660745Y57715875D01*
X29661601Y57715724D01*
X29640596Y57596600D01*
X29660651Y57482861D01*
X29718398Y57382840D01*
X29806872Y57308602D01*
X29892050Y57277599D01*
X29915401Y57269100D01*
X29915404Y57269100D01*
X30030892Y57269100D01*
X30030895Y57269100D01*
X30139424Y57308602D01*
X30227898Y57382840D01*
X30228895Y57384567D01*
X31439792Y57384567D01*
X31459847Y57270828D01*
X31517594Y57170807D01*
X31606068Y57096569D01*
X31714597Y57057067D01*
X31714600Y57057067D01*
X31830088Y57057067D01*
X31830091Y57057067D01*
X31938620Y57096569D01*
X32027094Y57170807D01*
X32072833Y57250030D01*
X32782346Y57250030D01*
X32802401Y57136291D01*
X32860148Y57036270D01*
X32902977Y57000333D01*
X32925065Y56957903D01*
X32910681Y56912281D01*
X32902978Y56904578D01*
X32882078Y56887041D01*
X32824331Y56787020D01*
X32804276Y56673280D01*
X32824331Y56559541D01*
X32882078Y56459520D01*
X32970552Y56385282D01*
X33076168Y56346840D01*
X33079081Y56345780D01*
X33079084Y56345780D01*
X33194572Y56345780D01*
X33194575Y56345780D01*
X33303104Y56385282D01*
X33391578Y56459520D01*
X33449325Y56559541D01*
X33469380Y56673280D01*
X33449325Y56787019D01*
X33391578Y56887040D01*
X33391195Y56887361D01*
X33370677Y56904578D01*
X33348747Y56922979D01*
X33326660Y56965408D01*
X33334287Y56989600D01*
X34745459Y56989600D01*
X34765514Y56875861D01*
X34823261Y56775840D01*
X34911735Y56701602D01*
X34988668Y56673600D01*
X35020264Y56662100D01*
X35020267Y56662100D01*
X35135755Y56662100D01*
X35135758Y56662100D01*
X35244287Y56701602D01*
X35332761Y56775840D01*
X35390508Y56875861D01*
X35410563Y56989600D01*
X35390508Y57103339D01*
X35332761Y57203360D01*
X35277142Y57250030D01*
X35244286Y57277599D01*
X35135760Y57317100D01*
X35135758Y57317100D01*
X35020264Y57317100D01*
X35020261Y57317100D01*
X34911735Y57277599D01*
X34823261Y57203361D01*
X34765514Y57103340D01*
X34745459Y56989600D01*
X33334287Y56989600D01*
X33341044Y57011030D01*
X33348743Y57018730D01*
X33369648Y57036270D01*
X33427395Y57136291D01*
X33447450Y57250030D01*
X33427395Y57363769D01*
X33369648Y57463790D01*
X33281174Y57538028D01*
X33281173Y57538029D01*
X33172647Y57577530D01*
X33172645Y57577530D01*
X33057151Y57577530D01*
X33057148Y57577530D01*
X32948622Y57538029D01*
X32860148Y57463791D01*
X32802401Y57363770D01*
X32784561Y57262594D01*
X32782346Y57250030D01*
X32072833Y57250030D01*
X32084841Y57270828D01*
X32104896Y57384567D01*
X32084841Y57498306D01*
X32027094Y57598327D01*
X31938620Y57672565D01*
X31938619Y57672566D01*
X31830093Y57712067D01*
X31830091Y57712067D01*
X31714597Y57712067D01*
X31714594Y57712067D01*
X31606068Y57672566D01*
X31517594Y57598328D01*
X31459847Y57498307D01*
X31459847Y57498306D01*
X31439792Y57384567D01*
X30228895Y57384567D01*
X30285645Y57482861D01*
X30305700Y57596600D01*
X30285645Y57710339D01*
X30227898Y57810360D01*
X30139424Y57884598D01*
X30139423Y57884599D01*
X30030897Y57924100D01*
X30030895Y57924100D01*
X29983238Y57924100D01*
X29939044Y57942406D01*
X29920738Y57986600D01*
X29922550Y57997326D01*
X29921695Y57997476D01*
X29922644Y58002860D01*
X29922645Y58002861D01*
X29939668Y58099407D01*
X34550403Y58099407D01*
X34570458Y57985668D01*
X34628205Y57885647D01*
X34716679Y57811409D01*
X34825208Y57771907D01*
X34825211Y57771907D01*
X34940699Y57771907D01*
X34940702Y57771907D01*
X35049231Y57811409D01*
X35137705Y57885647D01*
X35195452Y57985668D01*
X35215507Y58099407D01*
X35195452Y58213146D01*
X35137705Y58313167D01*
X35049231Y58387405D01*
X35049230Y58387406D01*
X34940704Y58426907D01*
X34940702Y58426907D01*
X34825208Y58426907D01*
X34825205Y58426907D01*
X34716679Y58387406D01*
X34628205Y58313168D01*
X34570458Y58213147D01*
X34570458Y58213146D01*
X34550403Y58099407D01*
X29939668Y58099407D01*
X29942700Y58116600D01*
X29922645Y58230339D01*
X29864898Y58330360D01*
X29776424Y58404598D01*
X29776423Y58404599D01*
X29667897Y58444100D01*
X29667895Y58444100D01*
X29552401Y58444100D01*
X29552398Y58444100D01*
X29443872Y58404599D01*
X29355398Y58330361D01*
X29297651Y58230340D01*
X29277596Y58116600D01*
X23203961Y58116600D01*
X23213425Y59012826D01*
X27671616Y59012826D01*
X27691671Y58899087D01*
X27749418Y58799066D01*
X27837892Y58724828D01*
X27946421Y58685326D01*
X27946424Y58685326D01*
X28061912Y58685326D01*
X28061915Y58685326D01*
X28170444Y58724828D01*
X28258918Y58799066D01*
X28316665Y58899087D01*
X28327301Y58959407D01*
X29542403Y58959407D01*
X29562458Y58845668D01*
X29620205Y58745647D01*
X29708679Y58671409D01*
X29811119Y58634123D01*
X29817208Y58631907D01*
X29817211Y58631907D01*
X29932699Y58631907D01*
X29932702Y58631907D01*
X30041231Y58671409D01*
X30129705Y58745647D01*
X30187452Y58845668D01*
X30204734Y58943681D01*
X32795855Y58943681D01*
X32815910Y58829942D01*
X32873657Y58729921D01*
X32962131Y58655683D01*
X33021365Y58634123D01*
X33070660Y58616181D01*
X33070663Y58616181D01*
X33186151Y58616181D01*
X33186154Y58616181D01*
X33294683Y58655683D01*
X33383157Y58729921D01*
X33400330Y58759666D01*
X33438278Y58788786D01*
X33485705Y58782543D01*
X33508582Y58759667D01*
X33508583Y58759665D01*
X33515398Y58747862D01*
X33603872Y58673624D01*
X33712401Y58634122D01*
X33712404Y58634122D01*
X33827892Y58634122D01*
X33827895Y58634122D01*
X33936424Y58673624D01*
X34024898Y58747862D01*
X34082645Y58847883D01*
X34102700Y58961622D01*
X34089853Y59034484D01*
X34971222Y59034484D01*
X34991277Y58920745D01*
X35049024Y58820724D01*
X35137498Y58746486D01*
X35246027Y58706984D01*
X35246030Y58706984D01*
X35361518Y58706984D01*
X35361521Y58706984D01*
X35470050Y58746486D01*
X35558524Y58820724D01*
X35616271Y58920745D01*
X35636326Y59034484D01*
X35616271Y59148223D01*
X35558524Y59248244D01*
X35470050Y59322482D01*
X35470049Y59322483D01*
X35361523Y59361984D01*
X35361521Y59361984D01*
X35246027Y59361984D01*
X35246024Y59361984D01*
X35137498Y59322483D01*
X35049024Y59248245D01*
X34991277Y59148224D01*
X34985686Y59116517D01*
X34971222Y59034484D01*
X34089853Y59034484D01*
X34082645Y59075361D01*
X34024898Y59175382D01*
X33957806Y59231679D01*
X33936423Y59249621D01*
X33827897Y59289122D01*
X33827895Y59289122D01*
X33712401Y59289122D01*
X33712398Y59289122D01*
X33603872Y59249621D01*
X33515397Y59175382D01*
X33498224Y59145637D01*
X33460273Y59116517D01*
X33412847Y59122762D01*
X33389971Y59145639D01*
X33388478Y59148224D01*
X33383157Y59157441D01*
X33300753Y59226586D01*
X33294682Y59231680D01*
X33186156Y59271181D01*
X33186154Y59271181D01*
X33070660Y59271181D01*
X33070657Y59271181D01*
X32962131Y59231680D01*
X32873657Y59157442D01*
X32815910Y59057421D01*
X32795855Y58943681D01*
X30204734Y58943681D01*
X30207507Y58959407D01*
X30187452Y59073146D01*
X30129705Y59173167D01*
X30059972Y59231680D01*
X30041230Y59247406D01*
X29932704Y59286907D01*
X29932702Y59286907D01*
X29817208Y59286907D01*
X29817205Y59286907D01*
X29708679Y59247406D01*
X29620205Y59173168D01*
X29562458Y59073147D01*
X29542403Y58959407D01*
X28327301Y58959407D01*
X28336720Y59012826D01*
X28316665Y59126565D01*
X28258918Y59226586D01*
X28252849Y59231679D01*
X28170443Y59300825D01*
X28061917Y59340326D01*
X28061915Y59340326D01*
X27946421Y59340326D01*
X27946418Y59340326D01*
X27837892Y59300825D01*
X27749418Y59226587D01*
X27691671Y59126566D01*
X27691671Y59126565D01*
X27671616Y59012826D01*
X23213425Y59012826D01*
X23218608Y59503622D01*
X23237379Y59547616D01*
X23281764Y59565455D01*
X23321278Y59550836D01*
X23343724Y59532002D01*
X23396312Y59512861D01*
X23452253Y59492500D01*
X23452256Y59492500D01*
X23567744Y59492500D01*
X23567747Y59492500D01*
X23676276Y59532002D01*
X23764750Y59606240D01*
X23776505Y59626600D01*
X28252429Y59626600D01*
X28272484Y59512861D01*
X28330231Y59412840D01*
X28418705Y59338602D01*
X28522494Y59300825D01*
X28527234Y59299100D01*
X28527237Y59299100D01*
X28642725Y59299100D01*
X28642728Y59299100D01*
X28751257Y59338602D01*
X28839731Y59412840D01*
X28897478Y59512861D01*
X28914882Y59611564D01*
X30197596Y59611564D01*
X30217651Y59497825D01*
X30275398Y59397804D01*
X30363872Y59323566D01*
X30431090Y59299100D01*
X30472401Y59284064D01*
X30472404Y59284064D01*
X30587892Y59284064D01*
X30587895Y59284064D01*
X30696424Y59323566D01*
X30784898Y59397804D01*
X30842645Y59497825D01*
X30862700Y59611564D01*
X30842645Y59725303D01*
X30784898Y59825324D01*
X30766978Y59840361D01*
X30696423Y59899563D01*
X30587897Y59939064D01*
X30587895Y59939064D01*
X30472401Y59939064D01*
X30472398Y59939064D01*
X30363872Y59899563D01*
X30275398Y59825325D01*
X30217651Y59725304D01*
X30197596Y59611564D01*
X28914882Y59611564D01*
X28917533Y59626600D01*
X28897478Y59740339D01*
X28839731Y59840360D01*
X28828243Y59850000D01*
X28751256Y59914599D01*
X28642730Y59954100D01*
X28642728Y59954100D01*
X28527234Y59954100D01*
X28527231Y59954100D01*
X28418705Y59914599D01*
X28330231Y59840361D01*
X28272484Y59740340D01*
X28252429Y59626600D01*
X23776505Y59626600D01*
X23822497Y59706261D01*
X23842552Y59820000D01*
X23822497Y59933739D01*
X23764750Y60033760D01*
X23676276Y60107998D01*
X23676275Y60107999D01*
X23567749Y60147500D01*
X23567747Y60147500D01*
X23452253Y60147500D01*
X23452250Y60147500D01*
X23343722Y60107999D01*
X23328031Y60094832D01*
X23282409Y60080449D01*
X23239980Y60102539D01*
X23225364Y60143365D01*
X23226338Y60235598D01*
X25686794Y60235598D01*
X25706849Y60121859D01*
X25764596Y60021838D01*
X25853070Y59947600D01*
X25943740Y59914598D01*
X25961599Y59908098D01*
X25961602Y59908098D01*
X26077090Y59908098D01*
X26077093Y59908098D01*
X26185622Y59947600D01*
X26274096Y60021838D01*
X26280374Y60032712D01*
X26318324Y60061833D01*
X26365750Y60055590D01*
X26374675Y60049341D01*
X26458979Y59978602D01*
X26526296Y59954100D01*
X26567508Y59939100D01*
X26567511Y59939100D01*
X26682999Y59939100D01*
X26683002Y59939100D01*
X26791531Y59978602D01*
X26880005Y60052840D01*
X26937752Y60152861D01*
X26957807Y60266600D01*
X26956531Y60273838D01*
X28894745Y60273838D01*
X28914800Y60160099D01*
X28972547Y60060078D01*
X29061021Y59985840D01*
X29166082Y59947600D01*
X29169550Y59946338D01*
X29169553Y59946338D01*
X29285041Y59946338D01*
X29285044Y59946338D01*
X29393573Y59985840D01*
X29482047Y60060078D01*
X29539794Y60160099D01*
X29559849Y60273838D01*
X29539794Y60387577D01*
X29482047Y60487598D01*
X29414116Y60544599D01*
X29393572Y60561837D01*
X29285046Y60601338D01*
X29285044Y60601338D01*
X29169550Y60601338D01*
X29169547Y60601338D01*
X29061021Y60561837D01*
X28972547Y60487599D01*
X28914800Y60387578D01*
X28894745Y60273838D01*
X26956531Y60273838D01*
X26937752Y60380339D01*
X26880005Y60480360D01*
X26803448Y60544599D01*
X26791530Y60554599D01*
X26683004Y60594100D01*
X26683002Y60594100D01*
X26567508Y60594100D01*
X26567505Y60594100D01*
X26458979Y60554599D01*
X26370505Y60480361D01*
X26370503Y60480358D01*
X26364223Y60469482D01*
X26326271Y60440364D01*
X26278845Y60446612D01*
X26269925Y60452858D01*
X26185621Y60523597D01*
X26077095Y60563098D01*
X26077093Y60563098D01*
X25961599Y60563098D01*
X25961596Y60563098D01*
X25853070Y60523597D01*
X25764596Y60449359D01*
X25706849Y60349338D01*
X25686794Y60235598D01*
X23226338Y60235598D01*
X23234621Y61020000D01*
X24187448Y61020000D01*
X24207503Y60906261D01*
X24265250Y60806240D01*
X24353724Y60732002D01*
X24433844Y60702840D01*
X24462253Y60692500D01*
X24462256Y60692500D01*
X24577744Y60692500D01*
X24577747Y60692500D01*
X24686276Y60732002D01*
X24774750Y60806240D01*
X24832497Y60906261D01*
X24846663Y60986600D01*
X27605757Y60986600D01*
X27625812Y60872861D01*
X27683559Y60772840D01*
X27772033Y60698602D01*
X27851815Y60669563D01*
X27880562Y60659100D01*
X27880565Y60659100D01*
X27996053Y60659100D01*
X27996056Y60659100D01*
X28104585Y60698602D01*
X28193059Y60772840D01*
X28250806Y60872861D01*
X28270861Y60986600D01*
X28267485Y61005749D01*
X28277840Y61052450D01*
X28318185Y61078151D01*
X28329036Y61079100D01*
X28359053Y61079100D01*
X28359056Y61079100D01*
X28467585Y61118602D01*
X28556059Y61192840D01*
X28613806Y61292861D01*
X28633861Y61406600D01*
X28628140Y61439046D01*
X29720042Y61439046D01*
X29740097Y61325307D01*
X29797844Y61225286D01*
X29886318Y61151048D01*
X29943159Y61130359D01*
X29994847Y61111546D01*
X29994850Y61111546D01*
X30110338Y61111546D01*
X30110341Y61111546D01*
X30218870Y61151048D01*
X30307344Y61225286D01*
X30356254Y61310000D01*
X30517448Y61310000D01*
X30537503Y61196261D01*
X30595250Y61096240D01*
X30683724Y61022002D01*
X30780988Y60986600D01*
X30792253Y60982500D01*
X30792256Y60982500D01*
X30907744Y60982500D01*
X30907747Y60982500D01*
X31016276Y61022002D01*
X31104750Y61096240D01*
X31162497Y61196261D01*
X31182552Y61310000D01*
X31162497Y61423739D01*
X31104750Y61523760D01*
X31059217Y61561967D01*
X31016275Y61597999D01*
X30907749Y61637500D01*
X30907747Y61637500D01*
X30792253Y61637500D01*
X30792250Y61637500D01*
X30683724Y61597999D01*
X30595250Y61523761D01*
X30537503Y61423740D01*
X30517448Y61310000D01*
X30356254Y61310000D01*
X30365091Y61325307D01*
X30385146Y61439046D01*
X30365091Y61552785D01*
X30307344Y61652806D01*
X30283302Y61672980D01*
X30218869Y61727045D01*
X30110343Y61766546D01*
X30110341Y61766546D01*
X29994847Y61766546D01*
X29994844Y61766546D01*
X29886318Y61727045D01*
X29797844Y61652807D01*
X29740097Y61552786D01*
X29720042Y61439046D01*
X28628140Y61439046D01*
X28613806Y61520339D01*
X28556059Y61620360D01*
X28493348Y61672981D01*
X28467584Y61694599D01*
X28359058Y61734100D01*
X28359056Y61734100D01*
X28243562Y61734100D01*
X28243559Y61734100D01*
X28135033Y61694599D01*
X28046559Y61620361D01*
X27988812Y61520340D01*
X27988812Y61520339D01*
X27975737Y61446183D01*
X27968757Y61406599D01*
X27972133Y61387451D01*
X27961778Y61340750D01*
X27921433Y61315049D01*
X27910582Y61314100D01*
X27880559Y61314100D01*
X27772033Y61274599D01*
X27683559Y61200361D01*
X27625812Y61100340D01*
X27605757Y60986600D01*
X24846663Y60986600D01*
X24852552Y61020000D01*
X24832497Y61133739D01*
X24774750Y61233760D01*
X24773908Y61234467D01*
X24686275Y61307999D01*
X24577749Y61347500D01*
X24577747Y61347500D01*
X24462253Y61347500D01*
X24462250Y61347500D01*
X24353724Y61307999D01*
X24265250Y61233761D01*
X24207503Y61133740D01*
X24187448Y61020000D01*
X23234621Y61020000D01*
X23242721Y61787004D01*
X23261493Y61831000D01*
X23305218Y61848842D01*
X23373504Y61848842D01*
X23417698Y61830536D01*
X23436004Y61786342D01*
X23435054Y61775489D01*
X23424096Y61713345D01*
X23424096Y61713344D01*
X23424096Y61713342D01*
X23427401Y61694599D01*
X23444151Y61599603D01*
X23501898Y61499582D01*
X23590372Y61425344D01*
X23641872Y61406599D01*
X23698901Y61385842D01*
X23698904Y61385842D01*
X23814392Y61385842D01*
X23814395Y61385842D01*
X23922924Y61425344D01*
X24011398Y61499582D01*
X24069145Y61599603D01*
X24073682Y61625332D01*
X25683371Y61625332D01*
X25703426Y61511593D01*
X25761173Y61411572D01*
X25849647Y61337334D01*
X25930245Y61307998D01*
X25958176Y61297832D01*
X25958179Y61297832D01*
X26073667Y61297832D01*
X26073670Y61297832D01*
X26182199Y61337334D01*
X26270673Y61411572D01*
X26328420Y61511593D01*
X26348475Y61625332D01*
X26328420Y61739071D01*
X26270673Y61839092D01*
X26259054Y61848842D01*
X26182198Y61913331D01*
X26073672Y61952832D01*
X26073670Y61952832D01*
X25958176Y61952832D01*
X25958173Y61952832D01*
X25849647Y61913331D01*
X25761173Y61839093D01*
X25703426Y61739072D01*
X25683371Y61625332D01*
X24073682Y61625332D01*
X24089200Y61713342D01*
X24069145Y61827081D01*
X24011398Y61927102D01*
X23922924Y62001340D01*
X23922923Y62001341D01*
X23814397Y62040842D01*
X23814395Y62040842D01*
X23738580Y62040842D01*
X23694386Y62059148D01*
X23676080Y62103342D01*
X23677030Y62114195D01*
X23687988Y62176340D01*
X23687988Y62176342D01*
X23682645Y62206644D01*
X31247452Y62206644D01*
X31267507Y62092905D01*
X31325254Y61992884D01*
X31413728Y61918646D01*
X31496980Y61888344D01*
X31522257Y61879144D01*
X31522260Y61879144D01*
X31527642Y61878195D01*
X31527297Y61876239D01*
X31564477Y61860838D01*
X31582783Y61816644D01*
X31568160Y61776469D01*
X31565250Y61773003D01*
X31507503Y61672981D01*
X31487448Y61559241D01*
X31507503Y61445502D01*
X31565250Y61345481D01*
X31602913Y61313878D01*
X31625001Y61271447D01*
X31610617Y61225826D01*
X31602913Y61218122D01*
X31544653Y61169237D01*
X31486906Y61069216D01*
X31480051Y61030339D01*
X31466851Y60955476D01*
X31486906Y60841737D01*
X31544653Y60741716D01*
X31633127Y60667478D01*
X31741656Y60627976D01*
X31741659Y60627976D01*
X31857147Y60627976D01*
X31857150Y60627976D01*
X31965679Y60667478D01*
X32054153Y60741716D01*
X32074427Y60776832D01*
X32112376Y60805951D01*
X32159803Y60799708D01*
X32182678Y60776833D01*
X32225398Y60702840D01*
X32313872Y60628602D01*
X32422401Y60589100D01*
X32422404Y60589100D01*
X32537892Y60589100D01*
X32537895Y60589100D01*
X32646424Y60628602D01*
X32734898Y60702840D01*
X32745240Y60720754D01*
X32783190Y60749874D01*
X32830616Y60743631D01*
X32853494Y60720754D01*
X32883049Y60669563D01*
X32932382Y60628168D01*
X32954470Y60585737D01*
X32940086Y60540116D01*
X32932383Y60532413D01*
X32870350Y60480361D01*
X32812603Y60380340D01*
X32792548Y60266600D01*
X32812603Y60152861D01*
X32870350Y60052840D01*
X32958824Y59978602D01*
X33026141Y59954100D01*
X33067353Y59939100D01*
X33067356Y59939100D01*
X33182844Y59939100D01*
X33182847Y59939100D01*
X33291376Y59978602D01*
X33379850Y60052840D01*
X33393096Y60075784D01*
X33431045Y60104905D01*
X33478471Y60098662D01*
X33501349Y60075785D01*
X33520368Y60042844D01*
X33520370Y60042841D01*
X33520371Y60042840D01*
X33556709Y60012349D01*
X33608845Y59968602D01*
X33704628Y59933739D01*
X33717374Y59929100D01*
X33717377Y59929100D01*
X33832865Y59929100D01*
X33832868Y59929100D01*
X33941397Y59968602D01*
X34029871Y60042840D01*
X34087618Y60142861D01*
X34107673Y60256600D01*
X34087618Y60370339D01*
X34029871Y60470360D01*
X34017954Y60480360D01*
X33941396Y60544599D01*
X33832870Y60584100D01*
X33832868Y60584100D01*
X33717374Y60584100D01*
X33717371Y60584100D01*
X33608845Y60544599D01*
X33520370Y60470360D01*
X33520370Y60470359D01*
X33507123Y60447415D01*
X33469172Y60418295D01*
X33421746Y60424540D01*
X33398870Y60447416D01*
X33379849Y60480361D01*
X33330516Y60521756D01*
X33308428Y60564187D01*
X33322812Y60609808D01*
X33330512Y60617509D01*
X33392549Y60669563D01*
X33450296Y60769584D01*
X33470351Y60883323D01*
X33450296Y60997062D01*
X33392549Y61097083D01*
X33388668Y61100340D01*
X33304074Y61171322D01*
X33195548Y61210823D01*
X33195546Y61210823D01*
X33080052Y61210823D01*
X33080049Y61210823D01*
X32971523Y61171322D01*
X32883048Y61097083D01*
X32883046Y61097080D01*
X32872704Y61079168D01*
X32834753Y61050049D01*
X32787327Y61056295D01*
X32764452Y61079170D01*
X32755171Y61095245D01*
X32734898Y61130360D01*
X32651474Y61200361D01*
X32646423Y61204599D01*
X32537897Y61244100D01*
X32537895Y61244100D01*
X32422401Y61244100D01*
X32422398Y61244100D01*
X32313872Y61204599D01*
X32225397Y61130360D01*
X32225396Y61130359D01*
X32205123Y61095245D01*
X32167172Y61066125D01*
X32119746Y61072370D01*
X32096872Y61095244D01*
X32054153Y61169236D01*
X32017061Y61200360D01*
X32016489Y61200840D01*
X31994401Y61243271D01*
X32008785Y61288892D01*
X32016486Y61296593D01*
X32074750Y61345481D01*
X32132497Y61445502D01*
X32152552Y61559241D01*
X32152432Y61559922D01*
X33444096Y61559922D01*
X33464151Y61446183D01*
X33521898Y61346162D01*
X33610372Y61271924D01*
X33713282Y61234467D01*
X33718901Y61232422D01*
X33718904Y61232422D01*
X33834392Y61232422D01*
X33834395Y61232422D01*
X33840013Y61234467D01*
X35117207Y61234467D01*
X35137262Y61120728D01*
X35195009Y61020707D01*
X35283483Y60946469D01*
X35353193Y60921096D01*
X35392012Y60906967D01*
X35392015Y60906967D01*
X35507503Y60906967D01*
X35507506Y60906967D01*
X35616035Y60946469D01*
X35704509Y61020707D01*
X35762256Y61120728D01*
X35763877Y61129922D01*
X38794096Y61129922D01*
X38814151Y61016183D01*
X38871898Y60916162D01*
X38960372Y60841924D01*
X39068901Y60802422D01*
X39068904Y60802422D01*
X39184392Y60802422D01*
X39184395Y60802422D01*
X39292924Y60841924D01*
X39381398Y60916162D01*
X39439145Y61016183D01*
X39459200Y61129922D01*
X39439145Y61243661D01*
X39381398Y61343682D01*
X39379257Y61345479D01*
X39292923Y61417921D01*
X39184397Y61457422D01*
X39184395Y61457422D01*
X39068901Y61457422D01*
X39068898Y61457422D01*
X38960372Y61417921D01*
X38871898Y61343683D01*
X38814151Y61243662D01*
X38806516Y61200361D01*
X38794096Y61129922D01*
X35763877Y61129922D01*
X35782311Y61234467D01*
X35762256Y61348206D01*
X35704509Y61448227D01*
X35618568Y61520340D01*
X35616034Y61522466D01*
X35507508Y61561967D01*
X35507506Y61561967D01*
X35392012Y61561967D01*
X35392009Y61561967D01*
X35283483Y61522466D01*
X35195009Y61448228D01*
X35137262Y61348207D01*
X35117207Y61234467D01*
X33840013Y61234467D01*
X33942924Y61271924D01*
X34031398Y61346162D01*
X34089145Y61446183D01*
X34109200Y61559922D01*
X34089145Y61673661D01*
X34031398Y61773682D01*
X34029245Y61775489D01*
X33942923Y61847921D01*
X33834397Y61887422D01*
X33834395Y61887422D01*
X33718901Y61887422D01*
X33718898Y61887422D01*
X33610372Y61847921D01*
X33521898Y61773683D01*
X33464151Y61673662D01*
X33444096Y61559922D01*
X32152432Y61559922D01*
X32132497Y61672980D01*
X32074750Y61773001D01*
X32073939Y61773682D01*
X31986275Y61847240D01*
X31877749Y61886741D01*
X31872362Y61887690D01*
X31872706Y61889647D01*
X31835527Y61905047D01*
X31817221Y61949241D01*
X31831844Y61989416D01*
X31834753Y61992883D01*
X31839636Y62001340D01*
X31892501Y62092905D01*
X31912548Y62206600D01*
X32147596Y62206600D01*
X32167651Y62092861D01*
X32225398Y61992840D01*
X32313872Y61918602D01*
X32398800Y61887690D01*
X32422401Y61879100D01*
X32422404Y61879100D01*
X32537892Y61879100D01*
X32537895Y61879100D01*
X32646424Y61918602D01*
X32734898Y61992840D01*
X32792645Y62092861D01*
X32812700Y62206600D01*
X32792645Y62320339D01*
X32734898Y62420360D01*
X32734845Y62420405D01*
X32646423Y62494599D01*
X32537897Y62534100D01*
X32537895Y62534100D01*
X32422401Y62534100D01*
X32422398Y62534100D01*
X32313872Y62494599D01*
X32225398Y62420361D01*
X32167651Y62320340D01*
X32147596Y62206600D01*
X31912548Y62206600D01*
X31912556Y62206644D01*
X31892501Y62320383D01*
X31834754Y62420404D01*
X31746333Y62494598D01*
X31746279Y62494643D01*
X31637753Y62534144D01*
X31637751Y62534144D01*
X31522257Y62534144D01*
X31522254Y62534144D01*
X31413728Y62494643D01*
X31325254Y62420405D01*
X31267507Y62320384D01*
X31247452Y62206644D01*
X23682645Y62206644D01*
X23667933Y62290081D01*
X23610186Y62390102D01*
X23609418Y62390747D01*
X23521711Y62464341D01*
X23413185Y62503842D01*
X23413183Y62503842D01*
X23313455Y62503842D01*
X23269261Y62522148D01*
X23250955Y62566342D01*
X23250957Y62566918D01*
X23254012Y62856225D01*
X26301539Y62856225D01*
X26321594Y62742486D01*
X26379341Y62642465D01*
X26467815Y62568227D01*
X26561576Y62534100D01*
X26576344Y62528725D01*
X26576347Y62528725D01*
X26691835Y62528725D01*
X26691838Y62528725D01*
X26800367Y62568227D01*
X26888841Y62642465D01*
X26909787Y62678745D01*
X27491161Y62678745D01*
X27511216Y62565006D01*
X27568963Y62464985D01*
X27657437Y62390747D01*
X27765966Y62351245D01*
X27765969Y62351245D01*
X27881457Y62351245D01*
X27881460Y62351245D01*
X27989989Y62390747D01*
X28078463Y62464985D01*
X28136210Y62565006D01*
X28142167Y62598793D01*
X34879789Y62598793D01*
X34899844Y62485054D01*
X34957591Y62385033D01*
X35046065Y62310795D01*
X35148027Y62273683D01*
X35154594Y62271293D01*
X35154597Y62271293D01*
X35270085Y62271293D01*
X35270088Y62271293D01*
X35378617Y62310795D01*
X35467091Y62385033D01*
X35524838Y62485054D01*
X35544893Y62598793D01*
X35524838Y62712532D01*
X35467091Y62812553D01*
X35415045Y62856225D01*
X35378616Y62886792D01*
X35270090Y62926293D01*
X35270088Y62926293D01*
X35154594Y62926293D01*
X35154591Y62926293D01*
X35046065Y62886792D01*
X34957591Y62812554D01*
X34899844Y62712533D01*
X34879789Y62598793D01*
X28142167Y62598793D01*
X28156265Y62678745D01*
X28136210Y62792484D01*
X28078463Y62892505D01*
X27989989Y62966743D01*
X27989988Y62966744D01*
X27881462Y63006245D01*
X27881460Y63006245D01*
X27765966Y63006245D01*
X27765963Y63006245D01*
X27657437Y62966744D01*
X27568963Y62892506D01*
X27511216Y62792485D01*
X27511216Y62792484D01*
X27491161Y62678745D01*
X26909787Y62678745D01*
X26946588Y62742486D01*
X26966643Y62856225D01*
X26946588Y62969964D01*
X26888841Y63069985D01*
X26800367Y63144223D01*
X26800366Y63144224D01*
X26691840Y63183725D01*
X26691838Y63183725D01*
X26576344Y63183725D01*
X26576341Y63183725D01*
X26467815Y63144224D01*
X26379341Y63069986D01*
X26321594Y62969965D01*
X26301539Y62856225D01*
X23254012Y62856225D01*
X23260855Y63504212D01*
X24995280Y63504212D01*
X25015335Y63390473D01*
X25073082Y63290452D01*
X25161556Y63216214D01*
X25270085Y63176712D01*
X25270088Y63176712D01*
X25385576Y63176712D01*
X25385579Y63176712D01*
X25494108Y63216214D01*
X25582582Y63290452D01*
X25640329Y63390473D01*
X25657605Y63488450D01*
X32134521Y63488450D01*
X32154576Y63374711D01*
X32212323Y63274690D01*
X32300797Y63200452D01*
X32409326Y63160950D01*
X32409329Y63160950D01*
X32524817Y63160950D01*
X32524820Y63160950D01*
X32633349Y63200452D01*
X32721823Y63274690D01*
X32779570Y63374711D01*
X32799625Y63488450D01*
X32779570Y63602189D01*
X32721823Y63702210D01*
X32703039Y63717972D01*
X32633348Y63776449D01*
X32524822Y63815950D01*
X32524820Y63815950D01*
X32409326Y63815950D01*
X32409323Y63815950D01*
X32300797Y63776449D01*
X32212323Y63702211D01*
X32154576Y63602190D01*
X32154576Y63602189D01*
X32134521Y63488450D01*
X25657605Y63488450D01*
X25660384Y63504212D01*
X25640329Y63617951D01*
X25582582Y63717972D01*
X25512892Y63776449D01*
X25494107Y63792211D01*
X25385581Y63831712D01*
X25385579Y63831712D01*
X25270085Y63831712D01*
X25270082Y63831712D01*
X25161556Y63792211D01*
X25073082Y63717973D01*
X25015335Y63617952D01*
X25015335Y63617951D01*
X24995280Y63504212D01*
X23260855Y63504212D01*
X23270595Y64426600D01*
X30997596Y64426600D01*
X31017651Y64312861D01*
X31075398Y64212840D01*
X31163872Y64138602D01*
X31262125Y64102840D01*
X31272401Y64099100D01*
X31272404Y64099100D01*
X31387892Y64099100D01*
X31387895Y64099100D01*
X31496424Y64138602D01*
X31556292Y64188837D01*
X32805359Y64188837D01*
X32825414Y64075098D01*
X32883161Y63975077D01*
X32971635Y63900839D01*
X33032729Y63878602D01*
X33080164Y63861337D01*
X33080167Y63861337D01*
X33195655Y63861337D01*
X33195658Y63861337D01*
X33304187Y63900839D01*
X33392661Y63975077D01*
X33398484Y63985162D01*
X33436433Y64014282D01*
X33483859Y64008039D01*
X33506736Y63985163D01*
X33525398Y63952840D01*
X33613872Y63878602D01*
X33722401Y63839100D01*
X33722404Y63839100D01*
X33837892Y63839100D01*
X33837895Y63839100D01*
X33946424Y63878602D01*
X34017118Y63937921D01*
X35068916Y63937921D01*
X35088971Y63824182D01*
X35146718Y63724161D01*
X35235192Y63649923D01*
X35343721Y63610421D01*
X35343724Y63610421D01*
X35459212Y63610421D01*
X35459215Y63610421D01*
X35567744Y63649923D01*
X35656218Y63724161D01*
X35713965Y63824182D01*
X35734020Y63937921D01*
X35713965Y64051660D01*
X35656218Y64151681D01*
X35567744Y64225919D01*
X35567743Y64225920D01*
X35459217Y64265421D01*
X35459215Y64265421D01*
X35343721Y64265421D01*
X35343718Y64265421D01*
X35235192Y64225920D01*
X35146718Y64151682D01*
X35088971Y64051661D01*
X35071547Y63952840D01*
X35068916Y63937921D01*
X34017118Y63937921D01*
X34034898Y63952840D01*
X34092645Y64052861D01*
X34112700Y64166600D01*
X34092645Y64280339D01*
X34071710Y64316600D01*
X34337596Y64316600D01*
X34357651Y64202861D01*
X34415398Y64102840D01*
X34503872Y64028602D01*
X34612401Y63989100D01*
X34612404Y63989100D01*
X34727892Y63989100D01*
X34727895Y63989100D01*
X34836424Y64028602D01*
X34924898Y64102840D01*
X34982645Y64202861D01*
X35002700Y64316600D01*
X34982645Y64430339D01*
X34924898Y64530360D01*
X34913006Y64540339D01*
X34836423Y64604599D01*
X34727897Y64644100D01*
X34727895Y64644100D01*
X34612401Y64644100D01*
X34612398Y64644100D01*
X34503872Y64604599D01*
X34415398Y64530361D01*
X34357651Y64430340D01*
X34352759Y64402597D01*
X34337596Y64316600D01*
X34071710Y64316600D01*
X34034898Y64380360D01*
X33946424Y64454598D01*
X33946423Y64454599D01*
X33837897Y64494100D01*
X33837895Y64494100D01*
X33722401Y64494100D01*
X33722398Y64494100D01*
X33613872Y64454599D01*
X33525397Y64380360D01*
X33525396Y64380359D01*
X33519573Y64370273D01*
X33481620Y64341155D01*
X33434195Y64347401D01*
X33411321Y64370276D01*
X33405499Y64380360D01*
X33392661Y64402597D01*
X33304187Y64476835D01*
X33304186Y64476836D01*
X33195660Y64516337D01*
X33195658Y64516337D01*
X33080164Y64516337D01*
X33080161Y64516337D01*
X32971635Y64476836D01*
X32883161Y64402598D01*
X32825414Y64302577D01*
X32805359Y64188837D01*
X31556292Y64188837D01*
X31584898Y64212840D01*
X31642645Y64312861D01*
X31662700Y64426600D01*
X31642645Y64540339D01*
X31584898Y64640360D01*
X31522330Y64692861D01*
X31496423Y64714599D01*
X31387897Y64754100D01*
X31387895Y64754100D01*
X31272401Y64754100D01*
X31272398Y64754100D01*
X31163872Y64714599D01*
X31075398Y64640361D01*
X31017651Y64540340D01*
X30997596Y64426600D01*
X23270595Y64426600D01*
X23273761Y64726366D01*
X23292533Y64770361D01*
X23336918Y64788200D01*
X23376432Y64773581D01*
X23446725Y64714599D01*
X23453872Y64708602D01*
X23562401Y64669100D01*
X23562404Y64669100D01*
X23677892Y64669100D01*
X23677895Y64669100D01*
X23786424Y64708602D01*
X23874898Y64782840D01*
X23888616Y64806600D01*
X24992441Y64806600D01*
X25012496Y64692861D01*
X25070243Y64592840D01*
X25158717Y64518602D01*
X25226034Y64494100D01*
X25267246Y64479100D01*
X25267249Y64479100D01*
X25382737Y64479100D01*
X25382740Y64479100D01*
X25491269Y64518602D01*
X25579743Y64592840D01*
X25637490Y64692861D01*
X25657545Y64806600D01*
X25637490Y64920339D01*
X25579743Y65020360D01*
X25572804Y65026183D01*
X25491268Y65094599D01*
X25382742Y65134100D01*
X25382740Y65134100D01*
X25267246Y65134100D01*
X25267243Y65134100D01*
X25158717Y65094599D01*
X25070243Y65020361D01*
X25012496Y64920340D01*
X24992441Y64806600D01*
X23888616Y64806600D01*
X23932645Y64882861D01*
X23952700Y64996600D01*
X23932645Y65110339D01*
X23874898Y65210360D01*
X23823293Y65253662D01*
X23786423Y65284599D01*
X23677897Y65324100D01*
X23677895Y65324100D01*
X23562401Y65324100D01*
X23562398Y65324100D01*
X23453872Y65284599D01*
X23382205Y65224463D01*
X23336583Y65210079D01*
X23294153Y65232167D01*
X23279534Y65273000D01*
X23281134Y65424485D01*
X25605481Y65424485D01*
X25625536Y65310746D01*
X25683283Y65210725D01*
X25771757Y65136487D01*
X25880286Y65096985D01*
X25880289Y65096985D01*
X25995777Y65096985D01*
X25995780Y65096985D01*
X26104309Y65136487D01*
X26192783Y65210725D01*
X26250530Y65310746D01*
X26269195Y65416600D01*
X27707596Y65416600D01*
X27727651Y65302861D01*
X27785398Y65202840D01*
X27873872Y65128602D01*
X27967295Y65094598D01*
X27982401Y65089100D01*
X27982404Y65089100D01*
X28097892Y65089100D01*
X28097895Y65089100D01*
X28206424Y65128602D01*
X28206426Y65128604D01*
X28209943Y65130634D01*
X28257368Y65136885D01*
X28295322Y65107769D01*
X28302750Y65087365D01*
X28314565Y65020361D01*
X28317651Y65002861D01*
X28375398Y64902840D01*
X28463872Y64828602D01*
X28572401Y64789100D01*
X28572404Y64789100D01*
X28687892Y64789100D01*
X28687895Y64789100D01*
X28796424Y64828602D01*
X28884898Y64902840D01*
X28942645Y65002861D01*
X28952121Y65056600D01*
X29677596Y65056600D01*
X29697651Y64942861D01*
X29755398Y64842840D01*
X29843872Y64768602D01*
X29952401Y64729100D01*
X29952404Y64729100D01*
X30067892Y64729100D01*
X30067895Y64729100D01*
X30176424Y64768602D01*
X30233626Y64816600D01*
X32142623Y64816600D01*
X32162678Y64702861D01*
X32220425Y64602840D01*
X32308899Y64528602D01*
X32417428Y64489100D01*
X32417431Y64489100D01*
X32532919Y64489100D01*
X32532922Y64489100D01*
X32641451Y64528602D01*
X32729925Y64602840D01*
X32787672Y64702861D01*
X32807727Y64816600D01*
X32787672Y64930339D01*
X32729925Y65030360D01*
X32653368Y65094599D01*
X32641450Y65104599D01*
X32544403Y65139922D01*
X38314096Y65139922D01*
X38334151Y65026183D01*
X38391898Y64926162D01*
X38480372Y64851924D01*
X38544447Y64828602D01*
X38588901Y64812422D01*
X38588904Y64812422D01*
X38704392Y64812422D01*
X38704395Y64812422D01*
X38812924Y64851924D01*
X38901398Y64926162D01*
X38959145Y65026183D01*
X38979200Y65139922D01*
X38959145Y65253661D01*
X38901398Y65353682D01*
X38812924Y65427920D01*
X38812923Y65427921D01*
X38704397Y65467422D01*
X38704395Y65467422D01*
X38588901Y65467422D01*
X38588898Y65467422D01*
X38480372Y65427921D01*
X38391898Y65353683D01*
X38334151Y65253662D01*
X38314096Y65139922D01*
X32544403Y65139922D01*
X32532924Y65144100D01*
X32532922Y65144100D01*
X32417428Y65144100D01*
X32417425Y65144100D01*
X32308899Y65104599D01*
X32220425Y65030361D01*
X32162678Y64930340D01*
X32162678Y64930339D01*
X32142623Y64816600D01*
X30233626Y64816600D01*
X30264898Y64842840D01*
X30322645Y64942861D01*
X30342700Y65056600D01*
X30322645Y65170339D01*
X30264898Y65270360D01*
X30176424Y65344598D01*
X30176423Y65344599D01*
X30067897Y65384100D01*
X30067895Y65384100D01*
X29952401Y65384100D01*
X29952398Y65384100D01*
X29843872Y65344599D01*
X29755398Y65270361D01*
X29697651Y65170340D01*
X29686618Y65107769D01*
X29677596Y65056600D01*
X28952121Y65056600D01*
X28962700Y65116600D01*
X28942645Y65230339D01*
X28884898Y65330360D01*
X28798851Y65402562D01*
X28796423Y65404599D01*
X28687897Y65444100D01*
X28687895Y65444100D01*
X28572401Y65444100D01*
X28572398Y65444100D01*
X28463872Y65404599D01*
X28460345Y65402562D01*
X28412918Y65396319D01*
X28374968Y65425439D01*
X28367545Y65445831D01*
X28352645Y65530339D01*
X28294898Y65630360D01*
X28206424Y65704598D01*
X28206423Y65704599D01*
X28097897Y65744100D01*
X28097895Y65744100D01*
X27982401Y65744100D01*
X27982398Y65744100D01*
X27873872Y65704599D01*
X27785398Y65630361D01*
X27727651Y65530340D01*
X27707596Y65416600D01*
X26269195Y65416600D01*
X26270585Y65424485D01*
X26250530Y65538224D01*
X26192783Y65638245D01*
X26104309Y65712483D01*
X26104308Y65712484D01*
X25995782Y65751985D01*
X25995780Y65751985D01*
X25880286Y65751985D01*
X25880283Y65751985D01*
X25771757Y65712484D01*
X25683283Y65638246D01*
X25625536Y65538225D01*
X25625536Y65538224D01*
X25605481Y65424485D01*
X23281134Y65424485D01*
X23288443Y66116600D01*
X26937596Y66116600D01*
X26957651Y66002861D01*
X27015398Y65902840D01*
X27103872Y65828602D01*
X27212401Y65789100D01*
X27212404Y65789100D01*
X27327892Y65789100D01*
X27327895Y65789100D01*
X27436424Y65828602D01*
X27524898Y65902840D01*
X27582645Y66002861D01*
X27595647Y66076600D01*
X32107596Y66076600D01*
X32127651Y65962861D01*
X32185398Y65862840D01*
X32273872Y65788602D01*
X32374474Y65751985D01*
X32382401Y65749100D01*
X32382404Y65749100D01*
X32497892Y65749100D01*
X32497895Y65749100D01*
X32606424Y65788602D01*
X32694898Y65862840D01*
X32752645Y65962861D01*
X32772700Y66076600D01*
X32752645Y66190339D01*
X32735565Y66219922D01*
X34244096Y66219922D01*
X34264151Y66106183D01*
X34321898Y66006162D01*
X34410372Y65931924D01*
X34518901Y65892422D01*
X34518904Y65892422D01*
X34634392Y65892422D01*
X34634395Y65892422D01*
X34742924Y65931924D01*
X34831398Y66006162D01*
X34889145Y66106183D01*
X34909200Y66219922D01*
X34889145Y66333661D01*
X34831398Y66433682D01*
X34830860Y66434134D01*
X34742923Y66507921D01*
X34634397Y66547422D01*
X34634395Y66547422D01*
X34518901Y66547422D01*
X34518898Y66547422D01*
X34410372Y66507921D01*
X34321898Y66433683D01*
X34264151Y66333662D01*
X34264151Y66333661D01*
X34244096Y66219922D01*
X32735565Y66219922D01*
X32694898Y66290360D01*
X32647227Y66330361D01*
X32606423Y66364599D01*
X32497897Y66404100D01*
X32497895Y66404100D01*
X32382401Y66404100D01*
X32382398Y66404100D01*
X32273872Y66364599D01*
X32185398Y66290361D01*
X32127651Y66190340D01*
X32107596Y66076600D01*
X27595647Y66076600D01*
X27602700Y66116600D01*
X27582645Y66230339D01*
X27524898Y66330360D01*
X27484095Y66364598D01*
X27436423Y66404599D01*
X27327897Y66444100D01*
X27327895Y66444100D01*
X27212401Y66444100D01*
X27212398Y66444100D01*
X27103872Y66404599D01*
X27015398Y66330361D01*
X26957651Y66230340D01*
X26957651Y66230339D01*
X26937596Y66116600D01*
X23288443Y66116600D01*
X23295307Y66766600D01*
X25647596Y66766600D01*
X25667651Y66652861D01*
X25725398Y66552840D01*
X25813872Y66478602D01*
X25885420Y66452560D01*
X25922401Y66439100D01*
X25922404Y66439100D01*
X26037892Y66439100D01*
X26037895Y66439100D01*
X26146424Y66478602D01*
X26234898Y66552840D01*
X26247837Y66575253D01*
X26285786Y66604373D01*
X26333213Y66598130D01*
X26356090Y66575254D01*
X26369030Y66552841D01*
X26371898Y66547874D01*
X26460372Y66473636D01*
X26555254Y66439101D01*
X26568901Y66434134D01*
X26568904Y66434134D01*
X26684392Y66434134D01*
X26684395Y66434134D01*
X26792924Y66473636D01*
X26881398Y66547874D01*
X26939145Y66647895D01*
X26958312Y66756600D01*
X28897596Y66756600D01*
X28917651Y66642861D01*
X28975398Y66542840D01*
X29063872Y66468602D01*
X29159809Y66433683D01*
X29172401Y66429100D01*
X29172404Y66429100D01*
X29287892Y66429100D01*
X29287895Y66429100D01*
X29396424Y66468602D01*
X29484898Y66542840D01*
X29542645Y66642861D01*
X29562700Y66756600D01*
X29542645Y66870339D01*
X29496653Y66950000D01*
X35797448Y66950000D01*
X35817503Y66836261D01*
X35875250Y66736240D01*
X35963724Y66662002D01*
X36016312Y66642861D01*
X36072253Y66622500D01*
X36072256Y66622500D01*
X36187744Y66622500D01*
X36187747Y66622500D01*
X36296276Y66662002D01*
X36384750Y66736240D01*
X36421517Y66799922D01*
X37884096Y66799922D01*
X37904151Y66686183D01*
X37961898Y66586162D01*
X38050372Y66511924D01*
X38155565Y66473636D01*
X38158901Y66472422D01*
X38158904Y66472422D01*
X38274392Y66472422D01*
X38274395Y66472422D01*
X38382924Y66511924D01*
X38471398Y66586162D01*
X38529145Y66686183D01*
X38549200Y66799922D01*
X38529145Y66913661D01*
X38471398Y67013682D01*
X38434554Y67044598D01*
X38382923Y67087921D01*
X38274397Y67127422D01*
X38274395Y67127422D01*
X38158901Y67127422D01*
X38158898Y67127422D01*
X38050372Y67087921D01*
X37961898Y67013683D01*
X37904151Y66913662D01*
X37884096Y66799922D01*
X36421517Y66799922D01*
X36442497Y66836261D01*
X36462552Y66950000D01*
X36442497Y67063739D01*
X36384750Y67163760D01*
X36296276Y67237998D01*
X36296275Y67237999D01*
X36187749Y67277500D01*
X36187747Y67277500D01*
X36072253Y67277500D01*
X36072250Y67277500D01*
X35963724Y67237999D01*
X35875250Y67163761D01*
X35817503Y67063740D01*
X35797448Y66950000D01*
X29496653Y66950000D01*
X29484898Y66970360D01*
X29478898Y66975395D01*
X29396423Y67044599D01*
X29287897Y67084100D01*
X29287895Y67084100D01*
X29172401Y67084100D01*
X29172398Y67084100D01*
X29063872Y67044599D01*
X28975398Y66970361D01*
X28917651Y66870340D01*
X28897596Y66756600D01*
X26958312Y66756600D01*
X26959200Y66761634D01*
X26939145Y66875373D01*
X26881398Y66975394D01*
X26798924Y67044598D01*
X26792923Y67049633D01*
X26684397Y67089134D01*
X26684395Y67089134D01*
X26568901Y67089134D01*
X26568898Y67089134D01*
X26460372Y67049633D01*
X26371897Y66975394D01*
X26371897Y66975393D01*
X26358957Y66952981D01*
X26321006Y66923861D01*
X26273580Y66930106D01*
X26250704Y66952983D01*
X26240671Y66970361D01*
X26234898Y66980360D01*
X26158342Y67044598D01*
X26146423Y67054599D01*
X26037897Y67094100D01*
X26037895Y67094100D01*
X25922401Y67094100D01*
X25922398Y67094100D01*
X25813872Y67054599D01*
X25725398Y66980361D01*
X25667651Y66880340D01*
X25647596Y66766600D01*
X23295307Y66766600D01*
X23312646Y68408557D01*
X23331418Y68452552D01*
X23338420Y68458467D01*
X23819768Y68807855D01*
X23825227Y68811397D01*
X23826271Y68812001D01*
X23826276Y68812002D01*
X23829699Y68814875D01*
X23833102Y68817534D01*
X26048497Y70425583D01*
X26095013Y70436728D01*
X26135788Y70411716D01*
X26147708Y70375002D01*
X26147708Y69906351D01*
X26147708Y69830367D01*
X26171502Y69772923D01*
X26176786Y69760166D01*
X26178464Y69757655D01*
X26189000Y69722928D01*
X26189000Y68877171D01*
X26214316Y68816050D01*
X26218124Y68781284D01*
X26212610Y68750003D01*
X26212610Y68750002D01*
X26212610Y68750000D01*
X26232665Y68636261D01*
X26290412Y68536240D01*
X26378886Y68462002D01*
X26487415Y68422500D01*
X26487418Y68422500D01*
X26602906Y68422500D01*
X26602909Y68422500D01*
X26711438Y68462002D01*
X26799912Y68536240D01*
X26857659Y68636261D01*
X26877714Y68750000D01*
X26860681Y68846600D01*
X27887596Y68846600D01*
X27907651Y68732861D01*
X27965398Y68632840D01*
X28053872Y68558602D01*
X28162401Y68519100D01*
X28162404Y68519100D01*
X28277892Y68519100D01*
X28277895Y68519100D01*
X28386424Y68558602D01*
X28474898Y68632840D01*
X28532645Y68732861D01*
X28552700Y68846600D01*
X28532645Y68960339D01*
X28474898Y69060360D01*
X28458469Y69074146D01*
X28386423Y69134599D01*
X28277897Y69174100D01*
X28277895Y69174100D01*
X28162401Y69174100D01*
X28162398Y69174100D01*
X28053872Y69134599D01*
X27965398Y69060361D01*
X27907651Y68960340D01*
X27892986Y68877171D01*
X27887596Y68846600D01*
X26860681Y68846600D01*
X26857659Y68863739D01*
X26799912Y68963760D01*
X26736940Y69016600D01*
X26711437Y69037999D01*
X26612124Y69074146D01*
X26576856Y69106463D01*
X26571000Y69132877D01*
X26571000Y69865057D01*
X26571000Y69865059D01*
X26547598Y69921556D01*
X26541921Y69935263D01*
X26540242Y69937775D01*
X26529708Y69972499D01*
X26529708Y70508475D01*
X26548014Y70552669D01*
X26592207Y70570975D01*
X28706808Y70565605D01*
G37*
G04 #@! TD.AperFunction*
G04 #@! TD*
M02*
