%TF.GenerationSoftware,KiCad,Pcbnew,8.0.5*%
%TF.CreationDate,2024-10-10T15:49:45-07:00*%
%TF.ProjectId,Sampler-built,53616d70-6c65-4722-9d62-75696c742e6b,rev?*%
%TF.SameCoordinates,PX38444c0PY67f3540*%
%TF.FileFunction,Drillmap*%
%TF.FilePolarity,Positive*%
%FSLAX45Y45*%
G04 Gerber Fmt 4.5, Leading zero omitted, Abs format (unit mm)*
G04 Created by KiCad (PCBNEW 8.0.5) date 2024-10-10 15:49:45*
%MOMM*%
%LPD*%
G01*
G04 APERTURE LIST*
%ADD10C,0.150000*%
%ADD11C,0.200000*%
%ADD12C,0.100000*%
%ADD13C,0.114300*%
%ADD14C,0.120000*%
G04 APERTURE END LIST*
D10*
X-5900000Y10900000D02*
X0Y10900000D01*
X0Y0D01*
X-5900000Y0D01*
X-5900000Y10900000D01*
D11*
D12*
X-5761143Y4860008D02*
X-5741143Y4840008D01*
X-5741143Y4860008D02*
X-5761143Y4840008D01*
X-5679143Y8920008D02*
X-5659143Y8900008D01*
X-5659143Y8920008D02*
X-5679143Y8900008D01*
X-5679143Y8709008D02*
X-5659143Y8689008D01*
X-5659143Y8709008D02*
X-5679143Y8689008D01*
X-5617478Y10752000D02*
X-5597478Y10732000D01*
X-5597478Y10752000D02*
X-5617478Y10732000D01*
X-5572643Y7306008D02*
X-5552643Y7286008D01*
X-5552643Y7306008D02*
X-5572643Y7286008D01*
X-5492183Y4661985D02*
X-5472183Y4641985D01*
X-5472183Y4661985D02*
X-5492183Y4641985D01*
X-5467665Y4395008D02*
X-5447665Y4375008D01*
X-5447665Y4395008D02*
X-5467665Y4375008D01*
X-5446479Y5929000D02*
X-5426479Y5909000D01*
X-5426479Y5929000D02*
X-5446479Y5909000D01*
X-5441973Y6096838D02*
X-5421973Y6076838D01*
X-5421973Y6096838D02*
X-5441973Y6076838D01*
X-5391813Y6712008D02*
X-5371813Y6692008D01*
X-5371813Y6712008D02*
X-5391813Y6692008D01*
X-5379973Y5963838D02*
X-5359973Y5943838D01*
X-5359973Y5963838D02*
X-5379973Y5943838D01*
X-5372973Y6093838D02*
X-5352973Y6073838D01*
X-5352973Y6093838D02*
X-5372973Y6073838D01*
X-5367479Y5386343D02*
X-5347479Y5366343D01*
X-5347479Y5386343D02*
X-5367479Y5366343D01*
X-5340665Y727008D02*
X-5320665Y707008D01*
X-5320665Y727008D02*
X-5340665Y707008D01*
X-5340665Y557008D02*
X-5320665Y537008D01*
X-5320665Y557008D02*
X-5340665Y537008D01*
X-5321973Y5960838D02*
X-5301973Y5940838D01*
X-5301973Y5960838D02*
X-5321973Y5940838D01*
X-5319143Y6779008D02*
X-5299143Y6759008D01*
X-5299143Y6779008D02*
X-5319143Y6759008D01*
X-5304275Y4706549D02*
X-5284275Y4686549D01*
X-5284275Y4706549D02*
X-5304275Y4686549D01*
X-5302143Y7232008D02*
X-5282143Y7212008D01*
X-5282143Y7232008D02*
X-5302143Y7212008D01*
X-5296143Y6089008D02*
X-5276143Y6069008D01*
X-5276143Y6089008D02*
X-5296143Y6069008D01*
X-5293666Y6677812D02*
X-5273666Y6657812D01*
X-5273666Y6677812D02*
X-5293666Y6657812D01*
X-5270747Y4025771D02*
X-5250747Y4005771D01*
X-5250747Y4025771D02*
X-5270747Y4005771D01*
X-5263665Y4794008D02*
X-5243665Y4774008D01*
X-5243665Y4794008D02*
X-5263665Y4774008D01*
X-5256143Y6267008D02*
X-5236143Y6247008D01*
X-5236143Y6267008D02*
X-5256143Y6247008D01*
X-5254303Y3831008D02*
X-5234303Y3811008D01*
X-5234303Y3831008D02*
X-5254303Y3811008D01*
X-5251143Y6347008D02*
X-5231143Y6327008D01*
X-5231143Y6347008D02*
X-5251143Y6327008D01*
X-5247983Y3656008D02*
X-5227983Y3636008D01*
X-5227983Y3656008D02*
X-5247983Y3636008D01*
X-5237143Y9802008D02*
X-5217143Y9782008D01*
X-5217143Y9802008D02*
X-5237143Y9782008D01*
X-5209143Y5963008D02*
X-5189143Y5943008D01*
X-5189143Y5963008D02*
X-5209143Y5943008D01*
X-5207143Y6078008D02*
X-5187143Y6058008D01*
X-5187143Y6078008D02*
X-5207143Y6058008D01*
X-5189143Y5344008D02*
X-5169143Y5324008D01*
X-5169143Y5344008D02*
X-5189143Y5324008D01*
X-5148143Y6084008D02*
X-5128143Y6064008D01*
X-5128143Y6084008D02*
X-5148143Y6064008D01*
X-5139143Y5970008D02*
X-5119143Y5950008D01*
X-5119143Y5970008D02*
X-5139143Y5950008D01*
X-5124143Y8855008D02*
X-5104143Y8835008D01*
X-5104143Y8855008D02*
X-5124143Y8835008D01*
X-5115486Y5618008D02*
X-5095486Y5598008D01*
X-5095486Y5618008D02*
X-5115486Y5598008D01*
X-5075143Y6083008D02*
X-5055143Y6063008D01*
X-5055143Y6083008D02*
X-5075143Y6063008D01*
X-5072143Y5957008D02*
X-5052143Y5937008D01*
X-5052143Y5957008D02*
X-5072143Y5937008D01*
X-5056256Y3624446D02*
X-5036256Y3604446D01*
X-5036256Y3624446D02*
X-5056256Y3604446D01*
X-5052479Y5513000D02*
X-5032479Y5493000D01*
X-5032479Y5513000D02*
X-5052479Y5493000D01*
X-5048479Y5617000D02*
X-5028479Y5597000D01*
X-5028479Y5617000D02*
X-5048479Y5597000D01*
X-5009143Y335008D02*
X-4989143Y315008D01*
X-4989143Y335008D02*
X-5009143Y315008D01*
X-5000823Y3647407D02*
X-4980823Y3627407D01*
X-4980823Y3647407D02*
X-5000823Y3627407D01*
X-4986479Y5619000D02*
X-4966479Y5599000D01*
X-4966479Y5619000D02*
X-4986479Y5599000D01*
X-4959479Y7153000D02*
X-4939479Y7133000D01*
X-4939479Y7153000D02*
X-4959479Y7133000D01*
X-4899218Y4560739D02*
X-4879218Y4540739D01*
X-4879218Y4560739D02*
X-4899218Y4540739D01*
X-4868479Y2330000D02*
X-4848479Y2310000D01*
X-4848479Y2330000D02*
X-4868479Y2310000D01*
X-4863143Y702008D02*
X-4843143Y682008D01*
X-4843143Y702008D02*
X-4863143Y682008D01*
X-4818143Y8736008D02*
X-4798143Y8716008D01*
X-4798143Y8736008D02*
X-4818143Y8716008D01*
X-4813479Y5738000D02*
X-4793479Y5718000D01*
X-4793479Y5738000D02*
X-4813479Y5718000D01*
X-4804479Y8346000D02*
X-4784479Y8326000D01*
X-4784479Y8346000D02*
X-4804479Y8326000D01*
X-4786143Y479008D02*
X-4766143Y459008D01*
X-4766143Y479008D02*
X-4786143Y459008D01*
X-4679479Y8673500D02*
X-4659479Y8653500D01*
X-4659479Y8673500D02*
X-4679479Y8653500D01*
X-4675143Y1056008D02*
X-4655143Y1036008D01*
X-4655143Y1056008D02*
X-4675143Y1036008D01*
X-4671747Y4200281D02*
X-4651747Y4180281D01*
X-4651747Y4200281D02*
X-4671747Y4180281D01*
X-4660143Y6746008D02*
X-4640143Y6726008D01*
X-4640143Y6746008D02*
X-4660143Y6726008D01*
X-4640665Y4769008D02*
X-4620665Y4749008D01*
X-4620665Y4769008D02*
X-4640665Y4749008D01*
X-4618145Y4521883D02*
X-4598145Y4501883D01*
X-4598145Y4521883D02*
X-4618145Y4501883D01*
X-4552675Y6654539D02*
X-4532675Y6634539D01*
X-4532675Y6654539D02*
X-4552675Y6634539D01*
X-4509175Y6729039D02*
X-4489175Y6709039D01*
X-4489175Y6729039D02*
X-4509175Y6709039D01*
X-4503825Y4614691D02*
X-4483825Y4594691D01*
X-4483825Y4614691D02*
X-4503825Y4594691D01*
X-4502665Y2906008D02*
X-4482665Y2886008D01*
X-4482665Y2906008D02*
X-4502665Y2886008D01*
X-4465014Y5377535D02*
X-4445014Y5357535D01*
X-4445014Y5377535D02*
X-4465014Y5357535D01*
X-4415479Y5773000D02*
X-4395479Y5753000D01*
X-4395479Y5773000D02*
X-4415479Y5753000D01*
X-4318665Y4280008D02*
X-4298665Y4260008D01*
X-4298665Y4280008D02*
X-4318665Y4260008D01*
X-4317143Y6992008D02*
X-4297143Y6972008D01*
X-4297143Y6992008D02*
X-4317143Y6972008D01*
X-4305665Y4785008D02*
X-4285665Y4765008D01*
X-4285665Y4785008D02*
X-4305665Y4765008D01*
X-4248143Y5991008D02*
X-4228143Y5971008D01*
X-4228143Y5991008D02*
X-4248143Y5971008D01*
X-4228665Y5322008D02*
X-4208665Y5302008D01*
X-4208665Y5322008D02*
X-4228665Y5302008D01*
X-4175143Y3081008D02*
X-4155143Y3061008D01*
X-4155143Y3081008D02*
X-4175143Y3061008D01*
X-4152985Y4831358D02*
X-4132985Y4811358D01*
X-4132985Y4831358D02*
X-4152985Y4811358D01*
X-4123573Y1359658D02*
X-4103573Y1339658D01*
X-4103573Y1359658D02*
X-4123573Y1339658D01*
X-4122143Y6187008D02*
X-4102143Y6167008D01*
X-4102143Y6187008D02*
X-4122143Y6167008D01*
X-4078607Y4774516D02*
X-4058607Y4754516D01*
X-4058607Y4774516D02*
X-4078607Y4754516D01*
X-4069478Y4336000D02*
X-4049478Y4316000D01*
X-4049478Y4336000D02*
X-4069478Y4316000D01*
X-4032367Y4678008D02*
X-4012367Y4658008D01*
X-4012367Y4678008D02*
X-4032367Y4658008D01*
X-3972493Y6099008D02*
X-3952493Y6079008D01*
X-3952493Y6099008D02*
X-3972493Y6079008D01*
X-3947143Y8454008D02*
X-3927143Y8434008D01*
X-3927143Y8454008D02*
X-3947143Y8434008D01*
X-3924665Y2921008D02*
X-3904665Y2901008D01*
X-3904665Y2921008D02*
X-3924665Y2901008D01*
X-3909143Y5935008D02*
X-3889143Y5915008D01*
X-3889143Y5935008D02*
X-3909143Y5915008D01*
X-3901143Y6145008D02*
X-3881143Y6125008D01*
X-3881143Y6145008D02*
X-3901143Y6125008D01*
X-3879894Y6655626D02*
X-3859894Y6635626D01*
X-3859894Y6655626D02*
X-3879894Y6635626D01*
X-3876143Y6958008D02*
X-3856143Y6938008D01*
X-3856143Y6958008D02*
X-3876143Y6938008D01*
X-3873665Y4142008D02*
X-3853665Y4122008D01*
X-3853665Y4142008D02*
X-3873665Y4122008D01*
X-3866143Y6791008D02*
X-3846143Y6771008D01*
X-3846143Y6791008D02*
X-3866143Y6771008D01*
X-3852143Y5230008D02*
X-3832143Y5210008D01*
X-3832143Y5230008D02*
X-3852143Y5210008D01*
X-3852143Y4628008D02*
X-3832143Y4608008D01*
X-3832143Y4628008D02*
X-3852143Y4608008D01*
X-3850143Y756008D02*
X-3830143Y736008D01*
X-3830143Y756008D02*
X-3850143Y736008D01*
X-3844143Y7457008D02*
X-3824143Y7437008D01*
X-3824143Y7457008D02*
X-3844143Y7437008D01*
X-3842493Y7867008D02*
X-3822493Y7847008D01*
X-3822493Y7867008D02*
X-3842493Y7847008D01*
X-3842493Y7576008D02*
X-3822493Y7556008D01*
X-3822493Y7576008D02*
X-3842493Y7556008D01*
X-3804665Y4414008D02*
X-3784665Y4394008D01*
X-3784665Y4414008D02*
X-3804665Y4394008D01*
X-3803143Y10023000D02*
X-3783143Y10003000D01*
X-3783143Y10023000D02*
X-3803143Y10003000D01*
X-3800143Y5771008D02*
X-3780143Y5751008D01*
X-3780143Y5771008D02*
X-3800143Y5751008D01*
X-3796143Y4592008D02*
X-3776143Y4572008D01*
X-3776143Y4592008D02*
X-3796143Y4572008D01*
X-3776487Y6210991D02*
X-3756487Y6190991D01*
X-3756487Y6210991D02*
X-3776487Y6190991D01*
X-3774143Y6672008D02*
X-3754143Y6652008D01*
X-3754143Y6672008D02*
X-3774143Y6652008D01*
X-3772143Y5903008D02*
X-3752143Y5883008D01*
X-3752143Y5903008D02*
X-3772143Y5883008D01*
X-3764130Y4089021D02*
X-3744130Y4069021D01*
X-3744130Y4089021D02*
X-3764130Y4069021D01*
X-3763143Y5443008D02*
X-3743143Y5423008D01*
X-3743143Y5443008D02*
X-3763143Y5423008D01*
X-3758478Y4985000D02*
X-3738478Y4965000D01*
X-3738478Y4985000D02*
X-3758478Y4965000D01*
X-3753143Y391008D02*
X-3733143Y371008D01*
X-3733143Y391008D02*
X-3753143Y371008D01*
X-3740015Y3792000D02*
X-3720015Y3772000D01*
X-3720015Y3792000D02*
X-3740015Y3772000D01*
X-3737143Y9631008D02*
X-3717143Y9611008D01*
X-3717143Y9631008D02*
X-3737143Y9611008D01*
X-3717930Y4469112D02*
X-3697930Y4449112D01*
X-3697930Y4469112D02*
X-3717930Y4449112D01*
X-3704143Y6038008D02*
X-3684143Y6018008D01*
X-3684143Y6038008D02*
X-3704143Y6018008D01*
X-3700001Y9407233D02*
X-3680001Y9387233D01*
X-3680001Y9407233D02*
X-3700001Y9387233D01*
X-3682143Y4397008D02*
X-3662143Y4377008D01*
X-3662143Y4397008D02*
X-3682143Y4377008D01*
X-3681853Y5711374D02*
X-3661853Y5691374D01*
X-3661853Y5711374D02*
X-3681853Y5691374D01*
X-3679478Y3148050D02*
X-3659478Y3128050D01*
X-3659478Y3148050D02*
X-3679478Y3128050D01*
X-3677143Y8349008D02*
X-3657143Y8329008D01*
X-3657143Y8349008D02*
X-3677143Y8329008D01*
X-3660175Y5383047D02*
X-3640175Y5363047D01*
X-3640175Y5383047D02*
X-3660175Y5363047D01*
X-3657143Y7785008D02*
X-3637143Y7765008D01*
X-3637143Y7785008D02*
X-3657143Y7765008D01*
X-3649600Y6270642D02*
X-3629600Y6250642D01*
X-3629600Y6270642D02*
X-3649600Y6250642D01*
X-3634778Y7062000D02*
X-3614778Y7042000D01*
X-3614778Y7062000D02*
X-3634778Y7042000D01*
X-3634143Y6035008D02*
X-3614143Y6015008D01*
X-3614143Y6035008D02*
X-3634143Y6015008D01*
X-3634128Y4756668D02*
X-3614128Y4736668D01*
X-3614128Y4756668D02*
X-3634128Y4736668D01*
X-3633128Y5067668D02*
X-3613128Y5047668D01*
X-3613128Y5067668D02*
X-3633128Y5047668D01*
X-3631478Y3674000D02*
X-3611478Y3654000D01*
X-3611478Y3674000D02*
X-3631478Y3654000D01*
X-3630478Y2973000D02*
X-3610478Y2953000D01*
X-3610478Y2973000D02*
X-3630478Y2953000D01*
X-3628128Y6721668D02*
X-3608128Y6701668D01*
X-3608128Y6721668D02*
X-3628128Y6701668D01*
X-3623128Y6552668D02*
X-3603128Y6532668D01*
X-3603128Y6552668D02*
X-3623128Y6532668D01*
X-3620665Y3481008D02*
X-3600665Y3461008D01*
X-3600665Y3481008D02*
X-3620665Y3461008D01*
X-3619143Y6963008D02*
X-3599143Y6943008D01*
X-3599143Y6963008D02*
X-3619143Y6943008D01*
X-3611185Y5583707D02*
X-3591185Y5563707D01*
X-3591185Y5583707D02*
X-3611185Y5563707D01*
X-3609478Y6224342D02*
X-3589478Y6204342D01*
X-3589478Y6224342D02*
X-3609478Y6204342D01*
X-3584128Y5337668D02*
X-3564128Y5317668D01*
X-3564128Y5337668D02*
X-3584128Y5317668D01*
X-3574778Y7062000D02*
X-3554778Y7042000D01*
X-3554778Y7062000D02*
X-3574778Y7042000D01*
X-3556128Y4560668D02*
X-3536128Y4540668D01*
X-3536128Y4560668D02*
X-3556128Y4540668D01*
X-3549485Y5602980D02*
X-3529485Y5582980D01*
X-3529485Y5602980D02*
X-3549485Y5582980D01*
X-3533143Y6155008D02*
X-3513143Y6135008D01*
X-3513143Y6155008D02*
X-3533143Y6135008D01*
X-3531128Y5036668D02*
X-3511128Y5016668D01*
X-3511128Y5036668D02*
X-3531128Y5016668D01*
X-3515338Y7070177D02*
X-3495338Y7050177D01*
X-3495338Y7070177D02*
X-3515338Y7050177D01*
X-3514478Y4709000D02*
X-3494478Y4689000D01*
X-3494478Y4709000D02*
X-3514478Y4689000D01*
X-3477143Y7297008D02*
X-3457143Y7277008D01*
X-3457143Y7297008D02*
X-3477143Y7277008D01*
X-3476128Y4819668D02*
X-3456128Y4799668D01*
X-3456128Y4819668D02*
X-3476128Y4799668D01*
X-3475310Y5720368D02*
X-3455310Y5700368D01*
X-3455310Y5720368D02*
X-3475310Y5700368D01*
X-3465128Y4637668D02*
X-3445128Y4617668D01*
X-3445128Y4637668D02*
X-3465128Y4617668D01*
X-3463778Y4747441D02*
X-3443778Y4727441D01*
X-3443778Y4747441D02*
X-3463778Y4727441D01*
X-3462564Y7098725D02*
X-3442564Y7078725D01*
X-3442564Y7098725D02*
X-3462564Y7078725D01*
X-3461128Y4583668D02*
X-3441128Y4563668D01*
X-3441128Y4583668D02*
X-3461128Y4563668D01*
X-3459415Y4447865D02*
X-3439415Y4427865D01*
X-3439415Y4447865D02*
X-3459415Y4427865D01*
X-3452644Y6533668D02*
X-3432644Y6513668D01*
X-3432644Y6533668D02*
X-3452644Y6513668D01*
X-3452360Y6403429D02*
X-3432360Y6383429D01*
X-3432360Y6403429D02*
X-3452360Y6383429D01*
X-3428528Y5111313D02*
X-3408528Y5091313D01*
X-3408528Y5111313D02*
X-3428528Y5091313D01*
X-3406478Y10742000D02*
X-3386478Y10722000D01*
X-3386478Y10742000D02*
X-3406478Y10722000D01*
X-3394665Y4165008D02*
X-3374665Y4145008D01*
X-3374665Y4165008D02*
X-3394665Y4145008D01*
X-3391340Y6595456D02*
X-3371340Y6575456D01*
X-3371340Y6595456D02*
X-3391340Y6575456D01*
X-3389128Y5392668D02*
X-3369128Y5372668D01*
X-3369128Y5392668D02*
X-3389128Y5372668D01*
X-3387128Y6729668D02*
X-3367128Y6709668D01*
X-3367128Y6729668D02*
X-3387128Y6709668D01*
X-3383551Y6215541D02*
X-3363551Y6195541D01*
X-3363551Y6215541D02*
X-3383551Y6195541D01*
X-3383209Y6076568D02*
X-3363209Y6056568D01*
X-3363209Y6076568D02*
X-3383209Y6056568D01*
X-3383099Y5676318D02*
X-3363099Y5656318D01*
X-3363099Y5676318D02*
X-3383099Y5656318D01*
X-3372128Y4474668D02*
X-3352128Y4454668D01*
X-3352128Y4474668D02*
X-3372128Y4454668D01*
X-3365158Y4950668D02*
X-3345158Y4930668D01*
X-3345158Y4950668D02*
X-3365158Y4930668D01*
X-3365128Y5028668D02*
X-3345128Y5008668D01*
X-3345128Y5028668D02*
X-3365128Y5008668D01*
X-3354002Y5591541D02*
X-3334002Y5571541D01*
X-3334002Y5591541D02*
X-3354002Y5571541D01*
X-3351441Y4861427D02*
X-3331441Y4841427D01*
X-3331441Y4861427D02*
X-3351441Y4841427D01*
X-3346296Y5470836D02*
X-3326296Y5450836D01*
X-3326296Y5470836D02*
X-3346296Y5450836D01*
X-3330627Y6928008D02*
X-3310627Y6908008D01*
X-3310627Y6928008D02*
X-3330627Y6908008D01*
X-3324128Y4371668D02*
X-3304128Y4351668D01*
X-3304128Y4371668D02*
X-3324128Y4351668D01*
X-3322618Y6079668D02*
X-3302618Y6059668D01*
X-3302618Y6079668D02*
X-3322618Y6059668D01*
X-3322478Y6729171D02*
X-3302478Y6709171D01*
X-3302478Y6729171D02*
X-3322478Y6709171D01*
X-3321734Y6338630D02*
X-3301734Y6318630D01*
X-3301734Y6338630D02*
X-3321734Y6318630D01*
X-3315665Y673008D02*
X-3295665Y653008D01*
X-3295665Y673008D02*
X-3315665Y653008D01*
X-3307143Y8905008D02*
X-3287143Y8885008D01*
X-3287143Y8905008D02*
X-3307143Y8885008D01*
X-3284993Y4467488D02*
X-3264993Y4447488D01*
X-3264993Y4467488D02*
X-3284993Y4447488D01*
X-3284577Y4551414D02*
X-3264577Y4531414D01*
X-3264577Y4551414D02*
X-3284577Y4531414D01*
X-3284128Y4709668D02*
X-3264128Y4689668D01*
X-3264128Y4709668D02*
X-3284128Y4689668D01*
X-3258978Y3180000D02*
X-3238978Y3160000D01*
X-3238978Y3180000D02*
X-3258978Y3160000D01*
X-3258128Y6664668D02*
X-3238128Y6644668D01*
X-3238128Y6664668D02*
X-3258128Y6644668D01*
X-3240128Y4352668D02*
X-3220128Y4332668D01*
X-3220128Y4352668D02*
X-3240128Y4332668D01*
X-3224665Y816000D02*
X-3204665Y796000D01*
X-3204665Y816000D02*
X-3224665Y796000D01*
X-3219143Y7201008D02*
X-3199143Y7181008D01*
X-3199143Y7201008D02*
X-3219143Y7181008D01*
X-3203143Y7757308D02*
X-3183143Y7737308D01*
X-3183143Y7757308D02*
X-3203143Y7737308D01*
X-3202772Y6320882D02*
X-3182772Y6300882D01*
X-3182772Y6320882D02*
X-3202772Y6300882D01*
X-3195661Y4481291D02*
X-3175661Y4461291D01*
X-3175661Y4481291D02*
X-3195661Y4461291D01*
X-3192128Y6793668D02*
X-3172128Y6773668D01*
X-3172128Y6793668D02*
X-3192128Y6773668D01*
X-3191312Y6151668D02*
X-3171312Y6131668D01*
X-3171312Y6151668D02*
X-3191312Y6131668D01*
X-3185128Y4823668D02*
X-3165128Y4803668D01*
X-3165128Y4823668D02*
X-3185128Y4803668D01*
X-3184726Y5954290D02*
X-3164726Y5934290D01*
X-3164726Y5954290D02*
X-3184726Y5934290D01*
X-3181128Y6594668D02*
X-3161128Y6574668D01*
X-3161128Y6594668D02*
X-3181128Y6574668D01*
X-3177428Y5481668D02*
X-3157428Y5461668D01*
X-3157428Y5481668D02*
X-3177428Y5461668D01*
X-3172143Y3108000D02*
X-3152143Y3088000D01*
X-3152143Y3108000D02*
X-3172143Y3088000D01*
X-3170164Y5736632D02*
X-3150164Y5716632D01*
X-3150164Y5736632D02*
X-3170164Y5716632D01*
X-3163920Y4972212D02*
X-3143920Y4952212D01*
X-3143920Y4972212D02*
X-3163920Y4952212D01*
X-3163128Y6937668D02*
X-3143128Y6917668D01*
X-3143128Y6937668D02*
X-3163128Y6917668D01*
X-3155012Y6193668D02*
X-3135012Y6173668D01*
X-3135012Y6193668D02*
X-3155012Y6173668D01*
X-3137531Y8334596D02*
X-3117531Y8314596D01*
X-3117531Y8334596D02*
X-3137531Y8314596D01*
X-3126645Y6015668D02*
X-3106645Y5995668D01*
X-3106645Y6015668D02*
X-3126645Y5995668D01*
X-3126351Y6794330D02*
X-3106351Y6774330D01*
X-3106351Y6794330D02*
X-3126351Y6774330D01*
X-3124898Y5824112D02*
X-3104898Y5804112D01*
X-3104898Y5824112D02*
X-3124898Y5804112D01*
X-3124664Y5377539D02*
X-3104664Y5357539D01*
X-3104664Y5377539D02*
X-3124664Y5357539D01*
X-3124143Y7219008D02*
X-3104143Y7199008D01*
X-3104143Y7219008D02*
X-3124143Y7199008D01*
X-3122128Y6564668D02*
X-3102128Y6544668D01*
X-3102128Y6564668D02*
X-3122128Y6544668D01*
X-3120665Y8135008D02*
X-3100665Y8115008D01*
X-3100665Y8135008D02*
X-3120665Y8115008D01*
X-3116110Y5578650D02*
X-3096110Y5558650D01*
X-3096110Y5578650D02*
X-3116110Y5558650D01*
X-3103532Y4581609D02*
X-3083532Y4561609D01*
X-3083532Y4581609D02*
X-3103532Y4561609D01*
X-3100128Y4891668D02*
X-3080128Y4871668D01*
X-3080128Y4891668D02*
X-3100128Y4871668D01*
X-3080955Y4724725D02*
X-3060955Y4704725D01*
X-3060955Y4724725D02*
X-3080955Y4704725D01*
X-3076181Y5445368D02*
X-3056181Y5425368D01*
X-3056181Y5445368D02*
X-3076181Y5425368D01*
X-3074814Y5757891D02*
X-3054814Y5737891D01*
X-3054814Y5757891D02*
X-3074814Y5737891D01*
X-3073128Y5537668D02*
X-3053128Y5517668D01*
X-3053128Y5537668D02*
X-3073128Y5517668D01*
X-3070428Y5675668D02*
X-3050428Y5655668D01*
X-3050428Y5675668D02*
X-3070428Y5655668D01*
X-3069354Y4962903D02*
X-3049354Y4942903D01*
X-3049354Y4962903D02*
X-3069354Y4942903D01*
X-3069128Y5611393D02*
X-3049128Y5591393D01*
X-3049128Y5611393D02*
X-3069128Y5591393D01*
X-3067128Y4821668D02*
X-3047128Y4801668D01*
X-3047128Y4821668D02*
X-3067128Y4801668D01*
X-3063128Y5949668D02*
X-3043128Y5929668D01*
X-3043128Y5949668D02*
X-3063128Y5929668D01*
X-3062414Y6080392D02*
X-3042414Y6060392D01*
X-3042414Y6080392D02*
X-3062414Y6060392D01*
X-3062128Y6728668D02*
X-3042128Y6708668D01*
X-3042128Y6728668D02*
X-3062128Y6708668D01*
X-3044068Y4363466D02*
X-3024068Y4343466D01*
X-3024068Y4363466D02*
X-3044068Y4343466D01*
X-3024128Y5864668D02*
X-3004128Y5844668D01*
X-3004128Y5864668D02*
X-3024128Y5844668D01*
X-3008793Y4428129D02*
X-2988793Y4408129D01*
X-2988793Y4428129D02*
X-3008793Y4408129D01*
X-2997648Y5948948D02*
X-2977648Y5928948D01*
X-2977648Y5948948D02*
X-2997648Y5928948D01*
X-2987828Y5812668D02*
X-2967828Y5792668D01*
X-2967828Y5812668D02*
X-2987828Y5792668D01*
X-2984128Y6558668D02*
X-2964128Y6538668D01*
X-2964128Y6558668D02*
X-2984128Y6538668D01*
X-2983622Y4625157D02*
X-2963622Y4605157D01*
X-2963622Y4625157D02*
X-2983622Y4605157D01*
X-2981478Y3027000D02*
X-2961478Y3007000D01*
X-2961478Y3027000D02*
X-2981478Y3007000D01*
X-2979884Y6196912D02*
X-2959884Y6176912D01*
X-2959884Y6196912D02*
X-2979884Y6176912D01*
X-2977128Y5352668D02*
X-2957128Y5332668D01*
X-2957128Y5352668D02*
X-2977128Y5332668D01*
X-2976128Y6954668D02*
X-2956128Y6934668D01*
X-2956128Y6954668D02*
X-2976128Y6934668D01*
X-2971963Y4571512D02*
X-2951963Y4551512D01*
X-2951963Y4571512D02*
X-2971963Y4551512D01*
X-2962478Y3486000D02*
X-2942478Y3466000D01*
X-2942478Y3486000D02*
X-2962478Y3466000D01*
X-2961478Y3264000D02*
X-2941478Y3244000D01*
X-2941478Y3264000D02*
X-2961478Y3244000D01*
X-2952143Y7766008D02*
X-2932143Y7746008D01*
X-2932143Y7766008D02*
X-2952143Y7746008D01*
X-2943128Y5522902D02*
X-2923128Y5502902D01*
X-2923128Y5522902D02*
X-2943128Y5502902D01*
X-2936128Y5307668D02*
X-2916128Y5287668D01*
X-2916128Y5307668D02*
X-2936128Y5287668D01*
X-2932128Y6014164D02*
X-2912128Y5994164D01*
X-2912128Y6014164D02*
X-2932128Y5994164D01*
X-2900478Y349500D02*
X-2880478Y329500D01*
X-2880478Y349500D02*
X-2900478Y329500D01*
X-2900143Y6184008D02*
X-2880143Y6164008D01*
X-2880143Y6184008D02*
X-2900143Y6164008D01*
X-2891858Y5267938D02*
X-2871858Y5247938D01*
X-2871858Y5267938D02*
X-2891858Y5247938D01*
X-2885128Y4789668D02*
X-2865128Y4769668D01*
X-2865128Y4789668D02*
X-2885128Y4769668D01*
X-2882128Y4946668D02*
X-2862128Y4926668D01*
X-2862128Y4946668D02*
X-2882128Y4926668D01*
X-2881313Y5028314D02*
X-2861313Y5008314D01*
X-2861313Y5028314D02*
X-2881313Y5008314D01*
X-2869296Y5499836D02*
X-2849296Y5479836D01*
X-2849296Y5499836D02*
X-2869296Y5479836D01*
X-2867478Y811000D02*
X-2847478Y791000D01*
X-2847478Y811000D02*
X-2867478Y791000D01*
X-2852128Y6495668D02*
X-2832128Y6475668D01*
X-2832128Y6495668D02*
X-2852128Y6475668D01*
X-2851143Y167008D02*
X-2831143Y147008D01*
X-2831143Y167008D02*
X-2851143Y147008D01*
X-2847478Y5302668D02*
X-2827478Y5282668D01*
X-2827478Y5302668D02*
X-2847478Y5282668D01*
X-2847428Y5553668D02*
X-2827428Y5533668D01*
X-2827428Y5553668D02*
X-2847428Y5533668D01*
X-2847428Y5220668D02*
X-2827428Y5200668D01*
X-2827428Y5220668D02*
X-2847428Y5200668D01*
X-2832128Y7046668D02*
X-2812128Y7026668D01*
X-2812128Y7046668D02*
X-2832128Y7026668D01*
X-2827143Y6273672D02*
X-2807143Y6253672D01*
X-2807143Y6273672D02*
X-2827143Y6253672D01*
X-2807909Y5791464D02*
X-2787909Y5771464D01*
X-2787909Y5791464D02*
X-2807909Y5771464D01*
X-2807128Y4625668D02*
X-2787129Y4605668D01*
X-2787129Y4625668D02*
X-2807128Y4605668D01*
X-2805771Y4788016D02*
X-2785772Y4768016D01*
X-2785772Y4788016D02*
X-2805771Y4768016D01*
X-2805203Y6148555D02*
X-2785203Y6128555D01*
X-2785203Y6148555D02*
X-2805203Y6128555D01*
X-2804628Y5412168D02*
X-2784629Y5392168D01*
X-2784629Y5412168D02*
X-2804628Y5392168D01*
X-2804522Y4550668D02*
X-2784523Y4530668D01*
X-2784523Y4550668D02*
X-2804522Y4530668D01*
X-2804499Y4711334D02*
X-2784499Y4691334D01*
X-2784499Y4711334D02*
X-2804499Y4691334D01*
X-2803143Y6208932D02*
X-2783143Y6188932D01*
X-2783143Y6208932D02*
X-2803143Y6188932D01*
X-2794159Y5023012D02*
X-2774159Y5003012D01*
X-2774159Y5023012D02*
X-2794159Y5003012D01*
X-2788143Y2692008D02*
X-2768143Y2672008D01*
X-2768143Y2692008D02*
X-2788143Y2672008D01*
X-2787429Y5470668D02*
X-2767429Y5450668D01*
X-2767429Y5470668D02*
X-2787429Y5450668D01*
X-2766479Y6907000D02*
X-2746479Y6887000D01*
X-2746479Y6907000D02*
X-2766479Y6887000D01*
X-2741129Y6660668D02*
X-2721129Y6640668D01*
X-2721129Y6660668D02*
X-2741129Y6640668D01*
X-2738436Y6401853D02*
X-2718436Y6381853D01*
X-2718436Y6401853D02*
X-2738436Y6381853D01*
X-2737626Y6534668D02*
X-2717626Y6514668D01*
X-2717626Y6534668D02*
X-2737626Y6514668D01*
X-2737129Y6273668D02*
X-2717129Y6253668D01*
X-2717129Y6273668D02*
X-2737129Y6253668D01*
X-2737129Y6144668D02*
X-2717129Y6124668D01*
X-2717129Y6144668D02*
X-2737129Y6124668D01*
X-2735773Y6790655D02*
X-2715773Y6770655D01*
X-2715773Y6790655D02*
X-2735773Y6770655D01*
X-2724461Y4523336D02*
X-2704461Y4503336D01*
X-2704461Y4523336D02*
X-2724461Y4503336D01*
X-2709719Y4673533D02*
X-2689719Y4653533D01*
X-2689719Y4673533D02*
X-2709719Y4653533D01*
X-2707129Y5387668D02*
X-2687129Y5367668D01*
X-2687129Y5387668D02*
X-2707129Y5367668D01*
X-2703129Y4866668D02*
X-2683129Y4846668D01*
X-2683129Y4866668D02*
X-2703129Y4846668D01*
X-2691129Y4931668D02*
X-2671129Y4911668D01*
X-2671129Y4931668D02*
X-2691129Y4911668D01*
X-2679479Y1383000D02*
X-2659479Y1363000D01*
X-2659479Y1383000D02*
X-2679479Y1363000D01*
X-2677126Y4605175D02*
X-2657126Y4585175D01*
X-2657126Y4605175D02*
X-2677126Y4585175D01*
X-2673654Y5778011D02*
X-2653654Y5758011D01*
X-2653654Y5778011D02*
X-2673654Y5758011D01*
X-2672633Y6079668D02*
X-2652633Y6059668D01*
X-2652633Y6079668D02*
X-2672633Y6059668D01*
X-2672303Y5947376D02*
X-2652303Y5927376D01*
X-2652303Y5947376D02*
X-2672303Y5927376D01*
X-2671461Y5720336D02*
X-2651461Y5700336D01*
X-2651461Y5720336D02*
X-2671461Y5700336D01*
X-2671363Y6141340D02*
X-2651363Y6121340D01*
X-2651363Y6141340D02*
X-2671363Y6121340D01*
X-2671352Y6471891D02*
X-2651352Y6451891D01*
X-2651352Y6471891D02*
X-2671352Y6451891D01*
X-2668479Y5011668D02*
X-2648479Y4991668D01*
X-2648479Y5011668D02*
X-2668479Y4991668D01*
X-2663665Y2453008D02*
X-2643665Y2433008D01*
X-2643665Y2453008D02*
X-2663665Y2433008D01*
X-2654479Y4322000D02*
X-2634479Y4302000D01*
X-2634479Y4322000D02*
X-2654479Y4302000D01*
X-2633733Y4580276D02*
X-2613733Y4560276D01*
X-2613733Y4580276D02*
X-2633733Y4560276D01*
X-2625905Y2645658D02*
X-2605905Y2625658D01*
X-2605905Y2645658D02*
X-2625905Y2625658D01*
X-2622716Y4401167D02*
X-2602716Y4381167D01*
X-2602716Y4401167D02*
X-2622716Y4381167D01*
X-2608129Y5949170D02*
X-2588129Y5929170D01*
X-2588129Y5949170D02*
X-2608129Y5929170D01*
X-2607631Y6078668D02*
X-2587631Y6058668D01*
X-2587631Y6078668D02*
X-2607631Y6058668D01*
X-2607479Y6209000D02*
X-2587479Y6189000D01*
X-2587479Y6209000D02*
X-2607479Y6189000D01*
X-2607129Y6469668D02*
X-2587129Y6449668D01*
X-2587129Y6469668D02*
X-2607129Y6449668D01*
X-2586682Y4617509D02*
X-2566682Y4597509D01*
X-2566682Y4617509D02*
X-2586682Y4597509D01*
X-2586479Y1123000D02*
X-2566479Y1103000D01*
X-2566479Y1123000D02*
X-2586479Y1103000D01*
X-2569143Y8601008D02*
X-2549143Y8581008D01*
X-2549143Y8601008D02*
X-2569143Y8581008D01*
X-2568129Y5673668D02*
X-2548129Y5653668D01*
X-2548129Y5673668D02*
X-2568129Y5653668D01*
X-2562092Y7063050D02*
X-2542092Y7043050D01*
X-2542092Y7063050D02*
X-2562092Y7043050D01*
X-2546143Y7152008D02*
X-2526143Y7132008D01*
X-2526143Y7152008D02*
X-2546143Y7132008D01*
X-2527479Y6675000D02*
X-2507479Y6655000D01*
X-2507479Y6675000D02*
X-2527479Y6655000D01*
X-2526543Y5538008D02*
X-2506543Y5518008D01*
X-2506543Y5538008D02*
X-2526543Y5518008D01*
X-2518129Y6484668D02*
X-2498129Y6464668D01*
X-2498129Y6484668D02*
X-2518129Y6464668D01*
X-2510129Y4445668D02*
X-2490129Y4425668D01*
X-2490129Y4445668D02*
X-2510129Y4425668D01*
X-2496848Y5862948D02*
X-2476848Y5842948D01*
X-2476848Y5862948D02*
X-2496848Y5842948D01*
X-2489946Y4528873D02*
X-2469946Y4508873D01*
X-2469946Y4528873D02*
X-2489946Y4508873D01*
X-2481479Y4583397D02*
X-2461479Y4563397D01*
X-2461479Y4583397D02*
X-2481479Y4563397D01*
X-2477342Y5751968D02*
X-2457342Y5731968D01*
X-2457342Y5751968D02*
X-2477342Y5731968D01*
X-2474143Y8038008D02*
X-2454143Y8018008D01*
X-2454143Y8038008D02*
X-2474143Y8018008D01*
X-2471665Y2874008D02*
X-2451665Y2854008D01*
X-2451665Y2874008D02*
X-2471665Y2854008D01*
X-2467789Y4653665D02*
X-2447789Y4633665D01*
X-2447789Y4653665D02*
X-2467789Y4633665D01*
X-2463909Y6312887D02*
X-2443909Y6292887D01*
X-2443909Y6312887D02*
X-2463909Y6292887D01*
X-2454766Y5956456D02*
X-2434766Y5936456D01*
X-2434766Y5956456D02*
X-2454766Y5936456D01*
X-2454129Y6385668D02*
X-2434129Y6365668D01*
X-2434129Y6385668D02*
X-2454129Y6365668D01*
X-2444997Y6446800D02*
X-2424997Y6426800D01*
X-2424997Y6446800D02*
X-2444997Y6426800D01*
X-2440167Y6176454D02*
X-2420167Y6156454D01*
X-2420167Y6176454D02*
X-2440167Y6156454D01*
X-2439280Y8187198D02*
X-2419280Y8167198D01*
X-2419280Y8187198D02*
X-2439280Y8167198D01*
X-2406129Y7868008D02*
X-2386129Y7848008D01*
X-2386129Y7868008D02*
X-2406129Y7848008D01*
X-2404143Y8412008D02*
X-2384143Y8392008D01*
X-2384143Y8412008D02*
X-2404143Y8392008D01*
X-2393665Y2109008D02*
X-2373665Y2089008D01*
X-2373665Y2109008D02*
X-2393665Y2089008D01*
X-2372143Y6748008D02*
X-2352143Y6728008D01*
X-2352143Y6748008D02*
X-2372143Y6728008D01*
X-2366266Y7149212D02*
X-2346266Y7129212D01*
X-2346266Y7149212D02*
X-2366266Y7129212D01*
X-2355506Y8168973D02*
X-2335506Y8148973D01*
X-2335506Y8168973D02*
X-2355506Y8148973D01*
X-2320479Y6914000D02*
X-2300479Y6894000D01*
X-2300479Y6914000D02*
X-2320479Y6894000D01*
X-2320143Y3922008D02*
X-2300143Y3902008D01*
X-2300143Y3922008D02*
X-2320143Y3902008D01*
X-2288479Y8233000D02*
X-2268479Y8213000D01*
X-2268479Y8233000D02*
X-2288479Y8213000D01*
X-2263129Y7937008D02*
X-2243129Y7917008D01*
X-2243129Y7937008D02*
X-2263129Y7917008D01*
X-2255779Y8286000D02*
X-2235779Y8266000D01*
X-2235779Y8286000D02*
X-2255779Y8266000D01*
X-2239479Y6947000D02*
X-2219479Y6927000D01*
X-2219479Y6947000D02*
X-2239479Y6927000D01*
X-2231493Y9098008D02*
X-2211493Y9078008D01*
X-2211493Y9098008D02*
X-2231493Y9078008D01*
X-2216665Y386008D02*
X-2196665Y366008D01*
X-2196665Y386008D02*
X-2216665Y366008D01*
X-2202082Y6057557D02*
X-2182082Y6037557D01*
X-2182082Y6057557D02*
X-2202082Y6037557D01*
X-2195143Y6852008D02*
X-2175143Y6832008D01*
X-2175143Y6852008D02*
X-2195143Y6832008D01*
X-2192665Y2338008D02*
X-2172665Y2318008D01*
X-2172665Y2338008D02*
X-2192665Y2318008D01*
X-2187143Y3934008D02*
X-2167143Y3914008D01*
X-2167143Y3934008D02*
X-2187143Y3914008D01*
X-2163479Y6733000D02*
X-2143479Y6713000D01*
X-2143479Y6733000D02*
X-2163479Y6713000D01*
X-2163143Y4620008D02*
X-2143143Y4600008D01*
X-2143143Y4620008D02*
X-2163143Y4600008D01*
X-2158143Y3749008D02*
X-2138143Y3729008D01*
X-2138143Y3749008D02*
X-2158143Y3729008D01*
X-2139143Y9292008D02*
X-2119143Y9272008D01*
X-2119143Y9292008D02*
X-2139143Y9272008D01*
X-2130665Y596008D02*
X-2110665Y576008D01*
X-2110665Y596008D02*
X-2130665Y576008D01*
X-2127143Y3936008D02*
X-2107143Y3916008D01*
X-2107143Y3936008D02*
X-2127143Y3916008D01*
X-2120479Y6567000D02*
X-2100479Y6547000D01*
X-2100479Y6567000D02*
X-2120479Y6547000D01*
X-2105479Y5567000D02*
X-2085478Y5547000D01*
X-2085478Y5567000D02*
X-2105479Y5547000D01*
X-2105143Y3749008D02*
X-2085143Y3729008D01*
X-2085143Y3749008D02*
X-2105143Y3729008D01*
X-2100665Y940008D02*
X-2080665Y920008D01*
X-2080665Y940008D02*
X-2100665Y920008D01*
X-2100479Y5456000D02*
X-2080478Y5436000D01*
X-2080478Y5456000D02*
X-2100479Y5436000D01*
X-2089493Y7066233D02*
X-2069493Y7046233D01*
X-2069493Y7066233D02*
X-2089493Y7046233D01*
X-2072478Y6166000D02*
X-2052478Y6146000D01*
X-2052478Y6166000D02*
X-2072478Y6146000D01*
X-2024665Y2155008D02*
X-2004665Y2135008D01*
X-2004665Y2155008D02*
X-2024665Y2135008D01*
X-2020478Y6330000D02*
X-2000478Y6310000D01*
X-2000478Y6330000D02*
X-2020478Y6310000D01*
X-2010478Y6668000D02*
X-1990478Y6648000D01*
X-1990478Y6668000D02*
X-2010478Y6648000D01*
X-1998478Y6259000D02*
X-1978478Y6239000D01*
X-1978478Y6259000D02*
X-1998478Y6239000D01*
X-1977478Y6083000D02*
X-1957478Y6063000D01*
X-1957478Y6083000D02*
X-1977478Y6063000D01*
X-1970643Y6921508D02*
X-1950643Y6901508D01*
X-1950643Y6921508D02*
X-1970643Y6901508D01*
X-1925478Y5802000D02*
X-1905478Y5782000D01*
X-1905478Y5802000D02*
X-1925478Y5782000D01*
X-1919143Y5651008D02*
X-1899143Y5631008D01*
X-1899143Y5651008D02*
X-1919143Y5631008D01*
X-1915478Y6027000D02*
X-1895478Y6007000D01*
X-1895478Y6027000D02*
X-1915478Y6007000D01*
X-1895143Y6898008D02*
X-1875143Y6878008D01*
X-1875143Y6898008D02*
X-1895143Y6878008D01*
X-1881143Y6965008D02*
X-1861143Y6945008D01*
X-1861143Y6965008D02*
X-1881143Y6945008D01*
X-1856143Y5687358D02*
X-1836143Y5667358D01*
X-1836143Y5687358D02*
X-1856143Y5667358D01*
X-1845478Y1489000D02*
X-1825478Y1469000D01*
X-1825478Y1489000D02*
X-1845478Y1469000D01*
X-1843478Y1006008D02*
X-1823478Y986008D01*
X-1823478Y1006008D02*
X-1843478Y986008D01*
X-1824478Y5802000D02*
X-1804478Y5782000D01*
X-1804478Y5802000D02*
X-1824478Y5782000D01*
X-1799143Y4654008D02*
X-1779143Y4634008D01*
X-1779143Y4654008D02*
X-1799143Y4634008D01*
X-1785143Y4713008D02*
X-1765143Y4693008D01*
X-1765143Y4713008D02*
X-1785143Y4693008D01*
X-1779143Y6203008D02*
X-1759143Y6183008D01*
X-1759143Y6203008D02*
X-1779143Y6183008D01*
X-1759439Y1230233D02*
X-1739439Y1210233D01*
X-1739439Y1230233D02*
X-1759439Y1210233D01*
X-1727363Y10076688D02*
X-1707363Y10056688D01*
X-1707363Y10076688D02*
X-1727363Y10056688D01*
X-1699505Y1320000D02*
X-1679505Y1300000D01*
X-1679505Y1320000D02*
X-1699505Y1300000D01*
X-1690143Y4612008D02*
X-1670143Y4592008D01*
X-1670143Y4612008D02*
X-1690143Y4592008D01*
X-1671143Y7133008D02*
X-1651143Y7113008D01*
X-1651143Y7133008D02*
X-1671143Y7113008D01*
X-1642991Y4681160D02*
X-1622991Y4661160D01*
X-1622991Y4681160D02*
X-1642991Y4661160D01*
X-1631478Y3963000D02*
X-1611478Y3943000D01*
X-1611478Y3963000D02*
X-1631478Y3943000D01*
X-1622143Y5234008D02*
X-1602143Y5214008D01*
X-1602143Y5234008D02*
X-1622143Y5214008D01*
X-1618665Y1155008D02*
X-1598665Y1135008D01*
X-1598665Y1155008D02*
X-1618665Y1135008D01*
X-1618143Y9596008D02*
X-1598143Y9576008D01*
X-1598143Y9596008D02*
X-1618143Y9576008D01*
X-1573478Y1472000D02*
X-1553478Y1452000D01*
X-1553478Y1472000D02*
X-1573478Y1452000D01*
X-1566665Y942008D02*
X-1546665Y922008D01*
X-1546665Y942008D02*
X-1566665Y922008D01*
X-1534143Y3691008D02*
X-1514143Y3671008D01*
X-1514143Y3691008D02*
X-1534143Y3671008D01*
X-1502665Y2022008D02*
X-1482665Y2002008D01*
X-1482665Y2022008D02*
X-1502665Y2002008D01*
X-1480143Y4464008D02*
X-1460143Y4444008D01*
X-1460143Y4464008D02*
X-1480143Y4444008D01*
X-1479478Y952008D02*
X-1459478Y932008D01*
X-1459478Y952008D02*
X-1479478Y932008D01*
X-1463478Y3527000D02*
X-1443478Y3507000D01*
X-1443478Y3527000D02*
X-1463478Y3507000D01*
X-1462665Y5886008D02*
X-1442665Y5866008D01*
X-1442665Y5886008D02*
X-1462665Y5866008D01*
X-1447099Y2027160D02*
X-1427099Y2007160D01*
X-1427099Y2027160D02*
X-1447099Y2007160D01*
X-1365665Y5684008D02*
X-1345665Y5664008D01*
X-1345665Y5684008D02*
X-1365665Y5664008D01*
X-1354888Y1362590D02*
X-1334888Y1342590D01*
X-1334888Y1362590D02*
X-1354888Y1342590D01*
X-1339479Y453000D02*
X-1319479Y433000D01*
X-1319479Y453000D02*
X-1339479Y433000D01*
X-1330665Y5879008D02*
X-1310665Y5859008D01*
X-1310665Y5879008D02*
X-1330665Y5859008D01*
X-1329143Y9537008D02*
X-1309143Y9517008D01*
X-1309143Y9537008D02*
X-1329143Y9517008D01*
X-1320479Y4515008D02*
X-1300479Y4495008D01*
X-1300479Y4515008D02*
X-1320479Y4495008D01*
X-1313665Y5797008D02*
X-1293665Y5777008D01*
X-1293665Y5797008D02*
X-1313665Y5777008D01*
X-1311143Y5244008D02*
X-1291143Y5224008D01*
X-1291143Y5244008D02*
X-1311143Y5224008D01*
X-1308335Y1380695D02*
X-1288335Y1360695D01*
X-1288335Y1380695D02*
X-1308335Y1360695D01*
X-1269665Y6837008D02*
X-1249665Y6817008D01*
X-1249665Y6837008D02*
X-1269665Y6817008D01*
X-1269665Y4829008D02*
X-1249665Y4809008D01*
X-1249665Y4829008D02*
X-1269665Y4809008D01*
X-1250479Y1544000D02*
X-1230479Y1524000D01*
X-1230479Y1544000D02*
X-1250479Y1524000D01*
X-1224429Y5257008D02*
X-1204429Y5237008D01*
X-1204429Y5257008D02*
X-1224429Y5237008D01*
X-1197824Y5924259D02*
X-1177824Y5904259D01*
X-1177824Y5924259D02*
X-1197824Y5904259D01*
X-1195479Y2095000D02*
X-1175479Y2075000D01*
X-1175479Y2095000D02*
X-1195479Y2075000D01*
X-1134665Y5870008D02*
X-1114665Y5850008D01*
X-1114665Y5870008D02*
X-1134665Y5850008D01*
X-1125411Y3626008D02*
X-1105411Y3606008D01*
X-1105411Y3626008D02*
X-1125411Y3606008D01*
X-1125143Y3825008D02*
X-1105143Y3805008D01*
X-1105143Y3825008D02*
X-1125143Y3805008D01*
X-1095541Y3550938D02*
X-1075541Y3530938D01*
X-1075541Y3550938D02*
X-1095541Y3530938D01*
X-1042478Y4137000D02*
X-1022478Y4117000D01*
X-1022478Y4137000D02*
X-1042478Y4117000D01*
X-1035478Y1162000D02*
X-1015478Y1142000D01*
X-1015478Y1162000D02*
X-1035478Y1142000D01*
X-1027478Y4451000D02*
X-1007478Y4431000D01*
X-1007478Y4451000D02*
X-1027478Y4431000D01*
X-1021828Y3723700D02*
X-1001828Y3703700D01*
X-1001828Y3723700D02*
X-1021828Y3703700D01*
X-994478Y2235000D02*
X-974478Y2215000D01*
X-974478Y2235000D02*
X-994478Y2215000D01*
X-986665Y6036008D02*
X-966665Y6016008D01*
X-966665Y6036008D02*
X-986665Y6016008D01*
X-975478Y3618000D02*
X-955478Y3598000D01*
X-955478Y3618000D02*
X-975478Y3598000D01*
X-965665Y5907008D02*
X-945665Y5887008D01*
X-945665Y5907008D02*
X-965665Y5887008D01*
X-945665Y670008D02*
X-925665Y650008D01*
X-925665Y670008D02*
X-945665Y650008D01*
X-939478Y1922000D02*
X-919478Y1902000D01*
X-919478Y1922000D02*
X-939478Y1902000D01*
X-912046Y1429626D02*
X-892046Y1409626D01*
X-892046Y1429626D02*
X-912046Y1409626D01*
X-888478Y3600000D02*
X-868478Y3580000D01*
X-868478Y3600000D02*
X-888478Y3580000D01*
X-871728Y4641000D02*
X-851728Y4621000D01*
X-851728Y4641000D02*
X-871728Y4621000D01*
X-847143Y2684008D02*
X-827143Y2664008D01*
X-827143Y2684008D02*
X-847143Y2664008D01*
X-830478Y2358000D02*
X-810478Y2338000D01*
X-810478Y2358000D02*
X-830478Y2338000D01*
X-811665Y5808008D02*
X-791665Y5788008D01*
X-791665Y5808008D02*
X-811665Y5788008D01*
X-790478Y1930000D02*
X-770478Y1910000D01*
X-770478Y1930000D02*
X-790478Y1910000D01*
X-775665Y6503008D02*
X-755665Y6483008D01*
X-755665Y6503008D02*
X-775665Y6483008D01*
X-766143Y9691008D02*
X-746143Y9671008D01*
X-746143Y9691008D02*
X-766143Y9671008D01*
X-752478Y2665000D02*
X-732478Y2645000D01*
X-732478Y2665000D02*
X-752478Y2645000D01*
X-746665Y2112008D02*
X-726665Y2092008D01*
X-726665Y2112008D02*
X-746665Y2092008D01*
X-726665Y3592008D02*
X-706665Y3572008D01*
X-706665Y3592008D02*
X-726665Y3572008D01*
X-682479Y1624000D02*
X-662479Y1604000D01*
X-662479Y1624000D02*
X-682479Y1604000D01*
X-662143Y3481008D02*
X-642143Y3461008D01*
X-642143Y3481008D02*
X-662143Y3461008D01*
X-650143Y3041008D02*
X-630143Y3021008D01*
X-630143Y3041008D02*
X-650143Y3021008D01*
X-559143Y6597008D02*
X-539143Y6577008D01*
X-539143Y6597008D02*
X-559143Y6577008D01*
X-526143Y4458008D02*
X-506143Y4438008D01*
X-506143Y4458008D02*
X-526143Y4438008D01*
X-461665Y5505008D02*
X-441665Y5485008D01*
X-441665Y5505008D02*
X-461665Y5485008D01*
X-200143Y3031008D02*
X-180143Y3011008D01*
X-180143Y3031008D02*
X-200143Y3011008D01*
X-160665Y5613008D02*
X-140665Y5593008D01*
X-140665Y5613008D02*
X-160665Y5593008D01*
X-2761010Y8699593D02*
G75*
G02*
X-2829590Y8699593I-34290J0D01*
G01*
X-2829590Y8699593D02*
G75*
G02*
X-2761010Y8699593I34290J0D01*
G01*
X-2761010Y8479604D02*
G75*
G02*
X-2829590Y8479604I-34290J0D01*
G01*
X-2829590Y8479604D02*
G75*
G02*
X-2761010Y8479604I34290J0D01*
G01*
X-2761010Y8039625D02*
G75*
G02*
X-2829590Y8039625I-34290J0D01*
G01*
X-2829590Y8039625D02*
G75*
G02*
X-2761010Y8039625I34290J0D01*
G01*
X-2651028Y8809575D02*
G75*
G02*
X-2719608Y8809575I-34290J0D01*
G01*
X-2719608Y8809575D02*
G75*
G02*
X-2651028Y8809575I34290J0D01*
G01*
X-2651028Y8589586D02*
G75*
G02*
X-2719608Y8589586I-34290J0D01*
G01*
X-2719608Y8589586D02*
G75*
G02*
X-2651028Y8589586I34290J0D01*
G01*
X-2651028Y8369596D02*
G75*
G02*
X-2719608Y8369596I-34290J0D01*
G01*
X-2719608Y8369596D02*
G75*
G02*
X-2651028Y8369596I34290J0D01*
G01*
X-2651028Y8149607D02*
G75*
G02*
X-2719608Y8149607I-34290J0D01*
G01*
X-2719608Y8149607D02*
G75*
G02*
X-2651028Y8149607I34290J0D01*
G01*
X-2795300Y8294603D02*
X-2795300Y8224626D01*
X-2830288Y8259614D02*
X-2760312Y8259614D01*
X-4837716Y10602116D02*
X-4837716Y10658685D01*
X-4894285Y10658685D01*
X-4894285Y10602116D01*
X-4837716Y10602116D01*
X-4837716Y10022116D02*
X-4837716Y10078685D01*
X-4894285Y10078685D01*
X-4894285Y10022116D01*
X-4837716Y10022116D01*
X-4657716Y10602116D02*
X-4657716Y10658685D01*
X-4714285Y10658685D01*
X-4714285Y10602116D01*
X-4657716Y10602116D01*
X-4657716Y10022116D02*
X-4657716Y10078685D01*
X-4714285Y10078685D01*
X-4714285Y10022116D01*
X-4657716Y10022116D01*
X-3014815Y10398916D02*
X-3014815Y10455485D01*
X-3071384Y10455485D01*
X-3071384Y10398916D01*
X-3014815Y10398916D01*
X-3014815Y9818916D02*
X-3014815Y9875485D01*
X-3071384Y9875485D01*
X-3071384Y9818916D01*
X-3014815Y9818916D01*
X-2834815Y10398916D02*
X-2834815Y10455485D01*
X-2891384Y10455485D01*
X-2891384Y10398916D01*
X-2834815Y10398916D01*
X-2834815Y9818916D02*
X-2834815Y9875485D01*
X-2891384Y9875485D01*
X-2891384Y9818916D01*
X-2834815Y9818916D01*
X-1143716Y10602116D02*
X-1143716Y10658685D01*
X-1200285Y10658685D01*
X-1200285Y10602116D01*
X-1143716Y10602116D01*
X-1143716Y10022116D02*
X-1143716Y10078685D01*
X-1200285Y10078685D01*
X-1200285Y10022116D01*
X-1143716Y10022116D01*
X-963715Y10602116D02*
X-963715Y10658685D01*
X-1020284Y10658685D01*
X-1020284Y10602116D01*
X-963715Y10602116D01*
X-963715Y10022116D02*
X-963715Y10078685D01*
X-1020284Y10078685D01*
X-1020284Y10022116D01*
X-963715Y10022116D01*
X-5697180Y3662050D02*
X-5652730Y3706500D01*
X-5697180Y3750950D01*
X-5741630Y3706500D01*
X-5697180Y3662050D01*
X-5120600Y1585870D02*
X-5076150Y1630320D01*
X-5120600Y1674770D01*
X-5165050Y1630320D01*
X-5120600Y1585870D01*
X-5120600Y1236130D02*
X-5076150Y1280580D01*
X-5120600Y1325030D01*
X-5165050Y1280580D01*
X-5120600Y1236130D01*
X-4245080Y3662050D02*
X-4200630Y3706500D01*
X-4245080Y3750950D01*
X-4289530Y3706500D01*
X-4245080Y3662050D01*
X-3668500Y1585870D02*
X-3624050Y1630320D01*
X-3668500Y1674770D01*
X-3712950Y1630320D01*
X-3668500Y1585870D01*
X-3668500Y1236130D02*
X-3624050Y1280580D01*
X-3668500Y1325030D01*
X-3712950Y1280580D01*
X-3668500Y1236130D01*
X-2792380Y2162450D02*
X-2747930Y2206900D01*
X-2792380Y2251350D01*
X-2836830Y2206900D01*
X-2792380Y2162450D01*
X-2215800Y1236130D02*
X-2171350Y1280580D01*
X-2215800Y1325030D01*
X-2260250Y1280580D01*
X-2215800Y1236130D01*
X-2215700Y3085470D02*
X-2171250Y3129920D01*
X-2215700Y3174370D01*
X-2260150Y3129920D01*
X-2215700Y3085470D01*
X-763000Y1236130D02*
X-718550Y1280580D01*
X-763000Y1325030D01*
X-807450Y1280580D01*
X-763000Y1236130D01*
X-186520Y3662050D02*
X-142070Y3706500D01*
X-186520Y3750950D01*
X-230970Y3706500D01*
X-186520Y3662050D01*
X-186520Y2162450D02*
X-142070Y2206900D01*
X-186520Y2251350D01*
X-230970Y2206900D01*
X-186520Y2162450D01*
X-3158012Y8899580D02*
X-3066572Y8808140D01*
X-3066572Y8899580D02*
X-3158012Y8808140D01*
X-3066572Y8853860D02*
G75*
G02*
X-3158012Y8853860I-45720J0D01*
G01*
X-3158012Y8853860D02*
G75*
G02*
X-3066572Y8853860I45720J0D01*
G01*
X-3158012Y8041060D02*
X-3066572Y7949620D01*
X-3066572Y8041060D02*
X-3158012Y7949620D01*
X-3066572Y7995340D02*
G75*
G02*
X-3158012Y7995340I-45720J0D01*
G01*
X-3158012Y7995340D02*
G75*
G02*
X-3066572Y7995340I45720J0D01*
G01*
X-5151000Y10615400D02*
X-5051000Y10515400D01*
X-5051000Y10615400D02*
X-5151000Y10515400D01*
X-5101000Y10615400D02*
X-5101000Y10515400D01*
X-5151000Y10565400D02*
X-5051000Y10565400D01*
X-5151000Y10165400D02*
X-5051000Y10065400D01*
X-5051000Y10165400D02*
X-5151000Y10065400D01*
X-5101000Y10165400D02*
X-5101000Y10065400D01*
X-5151000Y10115400D02*
X-5051000Y10115400D01*
X-4531479Y2459000D02*
X-4431479Y2359000D01*
X-4431479Y2459000D02*
X-4531479Y2359000D01*
X-4481479Y2459000D02*
X-4481479Y2359000D01*
X-4531479Y2409000D02*
X-4431479Y2409000D01*
X-4531479Y2205000D02*
X-4431479Y2105000D01*
X-4431479Y2205000D02*
X-4531479Y2105000D01*
X-4481479Y2205000D02*
X-4481479Y2105000D01*
X-4531479Y2155000D02*
X-4431479Y2155000D01*
X-4531479Y1951000D02*
X-4431479Y1851000D01*
X-4431479Y1951000D02*
X-4531479Y1851000D01*
X-4481479Y1951000D02*
X-4481479Y1851000D01*
X-4531479Y1901000D02*
X-4431479Y1901000D01*
X-4531479Y1697000D02*
X-4431479Y1597000D01*
X-4431479Y1697000D02*
X-4531479Y1597000D01*
X-4481479Y1697000D02*
X-4481479Y1597000D01*
X-4531479Y1647000D02*
X-4431479Y1647000D01*
X-4531479Y1443000D02*
X-4431479Y1343000D01*
X-4431479Y1443000D02*
X-4531479Y1343000D01*
X-4481479Y1443000D02*
X-4481479Y1343000D01*
X-4531479Y1393000D02*
X-4431479Y1393000D01*
X-4501000Y10615400D02*
X-4401000Y10515400D01*
X-4401000Y10615400D02*
X-4501000Y10515400D01*
X-4451000Y10615400D02*
X-4451000Y10515400D01*
X-4501000Y10565400D02*
X-4401000Y10565400D01*
X-4501000Y10165400D02*
X-4401000Y10065400D01*
X-4401000Y10165400D02*
X-4501000Y10065400D01*
X-4451000Y10165400D02*
X-4451000Y10065400D01*
X-4501000Y10115400D02*
X-4401000Y10115400D01*
X-4277479Y2459000D02*
X-4177478Y2359000D01*
X-4177478Y2459000D02*
X-4277479Y2359000D01*
X-4227479Y2459000D02*
X-4227479Y2359000D01*
X-4277479Y2409000D02*
X-4177478Y2409000D01*
X-4277479Y2205000D02*
X-4177478Y2105000D01*
X-4177478Y2205000D02*
X-4277479Y2105000D01*
X-4227479Y2205000D02*
X-4227479Y2105000D01*
X-4277479Y2155000D02*
X-4177478Y2155000D01*
X-4277479Y1951000D02*
X-4177478Y1851000D01*
X-4177478Y1951000D02*
X-4277479Y1851000D01*
X-4227479Y1951000D02*
X-4227479Y1851000D01*
X-4277479Y1901000D02*
X-4177478Y1901000D01*
X-4277479Y1697000D02*
X-4177478Y1597000D01*
X-4177478Y1697000D02*
X-4277479Y1597000D01*
X-4227479Y1697000D02*
X-4227479Y1597000D01*
X-4277479Y1647000D02*
X-4177478Y1647000D01*
X-4277479Y1443000D02*
X-4177478Y1343000D01*
X-4177478Y1443000D02*
X-4277479Y1343000D01*
X-4227479Y1443000D02*
X-4227479Y1343000D01*
X-4277479Y1393000D02*
X-4177478Y1393000D01*
X-3302700Y10412200D02*
X-3202700Y10312200D01*
X-3202700Y10412200D02*
X-3302700Y10312200D01*
X-3252700Y10412200D02*
X-3252700Y10312200D01*
X-3302700Y10362200D02*
X-3202700Y10362200D01*
X-3302700Y9962200D02*
X-3202700Y9862200D01*
X-3202700Y9962200D02*
X-3302700Y9862200D01*
X-3252700Y9962200D02*
X-3252700Y9862200D01*
X-3302700Y9912200D02*
X-3202700Y9912200D01*
X-3260478Y9494000D02*
X-3160478Y9394000D01*
X-3160478Y9494000D02*
X-3260478Y9394000D01*
X-3210478Y9494000D02*
X-3210478Y9394000D01*
X-3260478Y9444000D02*
X-3160478Y9444000D01*
X-3260478Y9240000D02*
X-3160478Y9140000D01*
X-3160478Y9240000D02*
X-3260478Y9140000D01*
X-3210478Y9240000D02*
X-3210478Y9140000D01*
X-3260478Y9190000D02*
X-3160478Y9190000D01*
X-3006478Y9494000D02*
X-2906478Y9394000D01*
X-2906478Y9494000D02*
X-3006478Y9394000D01*
X-2956478Y9494000D02*
X-2956478Y9394000D01*
X-3006478Y9444000D02*
X-2906478Y9444000D01*
X-3006478Y9240000D02*
X-2906478Y9140000D01*
X-2906478Y9240000D02*
X-3006478Y9140000D01*
X-2956478Y9240000D02*
X-2956478Y9140000D01*
X-3006478Y9190000D02*
X-2906478Y9190000D01*
X-2752479Y9494000D02*
X-2652479Y9394000D01*
X-2652479Y9494000D02*
X-2752479Y9394000D01*
X-2702479Y9494000D02*
X-2702479Y9394000D01*
X-2752479Y9444000D02*
X-2652479Y9444000D01*
X-2752479Y9240000D02*
X-2652479Y9140000D01*
X-2652479Y9240000D02*
X-2752479Y9140000D01*
X-2702479Y9240000D02*
X-2702479Y9140000D01*
X-2752479Y9190000D02*
X-2652479Y9190000D01*
X-2703500Y10412200D02*
X-2603500Y10312200D01*
X-2603500Y10412200D02*
X-2703500Y10312200D01*
X-2653500Y10412200D02*
X-2653500Y10312200D01*
X-2703500Y10362200D02*
X-2603500Y10362200D01*
X-2703500Y9962200D02*
X-2603500Y9862200D01*
X-2603500Y9962200D02*
X-2703500Y9862200D01*
X-2653500Y9962200D02*
X-2653500Y9862200D01*
X-2703500Y9912200D02*
X-2603500Y9912200D01*
X-2498479Y9494000D02*
X-2398479Y9394000D01*
X-2398479Y9494000D02*
X-2498479Y9394000D01*
X-2448479Y9494000D02*
X-2448479Y9394000D01*
X-2498479Y9444000D02*
X-2398479Y9444000D01*
X-2498479Y9240000D02*
X-2398479Y9140000D01*
X-2398479Y9240000D02*
X-2498479Y9140000D01*
X-2448479Y9240000D02*
X-2448479Y9140000D01*
X-2498479Y9190000D02*
X-2398479Y9190000D01*
X-1457000Y10615400D02*
X-1357000Y10515400D01*
X-1357000Y10615400D02*
X-1457000Y10515400D01*
X-1407000Y10615400D02*
X-1407000Y10515400D01*
X-1457000Y10565400D02*
X-1357000Y10565400D01*
X-1457000Y10165400D02*
X-1357000Y10065400D01*
X-1357000Y10165400D02*
X-1457000Y10065400D01*
X-1407000Y10165400D02*
X-1407000Y10065400D01*
X-1457000Y10115400D02*
X-1357000Y10115400D01*
X-807000Y10615400D02*
X-707000Y10515400D01*
X-707000Y10615400D02*
X-807000Y10515400D01*
X-757000Y10615400D02*
X-757000Y10515400D01*
X-807000Y10565400D02*
X-707000Y10565400D01*
X-807000Y10165400D02*
X-707000Y10065400D01*
X-707000Y10165400D02*
X-807000Y10065400D01*
X-757000Y10165400D02*
X-757000Y10065400D01*
X-807000Y10115400D02*
X-707000Y10115400D01*
X-302479Y8140000D02*
X-202478Y8040000D01*
X-202478Y8140000D02*
X-302479Y8040000D01*
X-252478Y8140000D02*
X-252478Y8040000D01*
X-302479Y8090000D02*
X-202478Y8090000D01*
X-302479Y7886000D02*
X-202478Y7786000D01*
X-202478Y7886000D02*
X-302479Y7786000D01*
X-252478Y7886000D02*
X-252478Y7786000D01*
X-302479Y7836000D02*
X-202478Y7836000D01*
X-302479Y7632000D02*
X-202478Y7532000D01*
X-202478Y7632000D02*
X-302479Y7532000D01*
X-252478Y7632000D02*
X-252478Y7532000D01*
X-302479Y7582000D02*
X-202478Y7582000D01*
X-302479Y7378000D02*
X-202478Y7278000D01*
X-202478Y7378000D02*
X-302479Y7278000D01*
X-252478Y7378000D02*
X-252478Y7278000D01*
X-302479Y7328000D02*
X-202478Y7328000D01*
D13*
X-5513030Y3763650D02*
X-5398730Y3649350D01*
X-5398730Y3763650D02*
X-5513030Y3649350D01*
X-5415469Y3666088D02*
X-5415469Y3746911D01*
X-5496292Y3746911D01*
X-5496292Y3666088D01*
X-5415469Y3666088D01*
X-5177750Y2784750D02*
X-5063450Y2670450D01*
X-5063450Y2784750D02*
X-5177750Y2670450D01*
X-5080189Y2687189D02*
X-5080189Y2768012D01*
X-5161012Y2768012D01*
X-5161012Y2687189D01*
X-5080189Y2687189D01*
X-5177750Y1928770D02*
X-5063450Y1814470D01*
X-5063450Y1928770D02*
X-5177750Y1814470D01*
X-5080189Y1831208D02*
X-5080189Y1912031D01*
X-5161012Y1912031D01*
X-5161012Y1831208D01*
X-5080189Y1831208D01*
X-5177750Y1096430D02*
X-5063450Y982130D01*
X-5063450Y1096430D02*
X-5177750Y982130D01*
X-5080189Y998868D02*
X-5080189Y1079692D01*
X-5161012Y1079692D01*
X-5161012Y998868D01*
X-5080189Y998868D01*
X-5177750Y240450D02*
X-5063450Y126150D01*
X-5063450Y240450D02*
X-5177750Y126150D01*
X-5080189Y142889D02*
X-5080189Y223711D01*
X-5161012Y223711D01*
X-5161012Y142889D01*
X-5080189Y142889D01*
X-4657050Y3763650D02*
X-4542750Y3649350D01*
X-4542750Y3763650D02*
X-4657050Y3649350D01*
X-4559489Y3666088D02*
X-4559489Y3746911D01*
X-4640312Y3746911D01*
X-4640312Y3666088D01*
X-4559489Y3666088D01*
X-4060930Y3763650D02*
X-3946630Y3649350D01*
X-3946630Y3763650D02*
X-4060930Y3649350D01*
X-3963368Y3666088D02*
X-3963368Y3746911D01*
X-4044191Y3746911D01*
X-4044191Y3666088D01*
X-3963368Y3666088D01*
X-3725650Y2784750D02*
X-3611350Y2670450D01*
X-3611350Y2784750D02*
X-3725650Y2670450D01*
X-3628088Y2687189D02*
X-3628088Y2768012D01*
X-3708911Y2768012D01*
X-3708911Y2687189D01*
X-3628088Y2687189D01*
X-3725650Y1928770D02*
X-3611350Y1814470D01*
X-3611350Y1928770D02*
X-3725650Y1814470D01*
X-3628088Y1831208D02*
X-3628088Y1912031D01*
X-3708911Y1912031D01*
X-3708911Y1831208D01*
X-3628088Y1831208D01*
X-3725650Y1096430D02*
X-3611350Y982130D01*
X-3611350Y1096430D02*
X-3725650Y982130D01*
X-3628088Y998868D02*
X-3628088Y1079692D01*
X-3708911Y1079692D01*
X-3708911Y998868D01*
X-3628088Y998868D01*
X-3725650Y240450D02*
X-3611350Y126150D01*
X-3611350Y240450D02*
X-3725650Y126150D01*
X-3628088Y142889D02*
X-3628088Y223711D01*
X-3708911Y223711D01*
X-3708911Y142889D01*
X-3628088Y142889D01*
X-3204950Y3763650D02*
X-3090650Y3649350D01*
X-3090650Y3763650D02*
X-3204950Y3649350D01*
X-3107388Y3666088D02*
X-3107388Y3746911D01*
X-3188211Y3746911D01*
X-3188211Y3666088D01*
X-3107388Y3666088D01*
X-2608230Y2264050D02*
X-2493930Y2149750D01*
X-2493930Y2264050D02*
X-2608230Y2149750D01*
X-2510669Y2166489D02*
X-2510669Y2247312D01*
X-2591492Y2247312D01*
X-2591492Y2166489D01*
X-2510669Y2166489D01*
X-2272950Y1096430D02*
X-2158650Y982130D01*
X-2158650Y1096430D02*
X-2272950Y982130D01*
X-2175389Y998868D02*
X-2175389Y1079692D01*
X-2256212Y1079692D01*
X-2256212Y998868D01*
X-2175389Y998868D01*
X-2272950Y240450D02*
X-2158650Y126150D01*
X-2158650Y240450D02*
X-2272950Y126150D01*
X-2175389Y142889D02*
X-2175389Y223711D01*
X-2256212Y223711D01*
X-2256212Y142889D01*
X-2175389Y142889D01*
X-2272850Y4284350D02*
X-2158550Y4170050D01*
X-2158550Y4284350D02*
X-2272850Y4170050D01*
X-2175289Y4186788D02*
X-2175289Y4267612D01*
X-2256112Y4267612D01*
X-2256112Y4186788D01*
X-2175289Y4186788D01*
X-2272850Y3428370D02*
X-2158550Y3314070D01*
X-2158550Y3428370D02*
X-2272850Y3314070D01*
X-2175289Y3330808D02*
X-2175289Y3411631D01*
X-2256112Y3411631D01*
X-2256112Y3330808D01*
X-2175289Y3330808D01*
X-1752250Y2264050D02*
X-1637950Y2149750D01*
X-1637950Y2264050D02*
X-1752250Y2149750D01*
X-1654688Y2166489D02*
X-1654688Y2247312D01*
X-1735511Y2247312D01*
X-1735511Y2166489D01*
X-1654688Y2166489D01*
X-1340950Y3763650D02*
X-1226650Y3649350D01*
X-1226650Y3763650D02*
X-1340950Y3649350D01*
X-1243389Y3666088D02*
X-1243389Y3746911D01*
X-1324212Y3746911D01*
X-1324212Y3666088D01*
X-1243389Y3666088D01*
X-1340950Y2264050D02*
X-1226650Y2149750D01*
X-1226650Y2264050D02*
X-1340950Y2149750D01*
X-1243389Y2166489D02*
X-1243389Y2247312D01*
X-1324212Y2247312D01*
X-1324212Y2166489D01*
X-1243389Y2166489D01*
X-820150Y1096430D02*
X-705850Y982130D01*
X-705850Y1096430D02*
X-820150Y982130D01*
X-722588Y998868D02*
X-722588Y1079692D01*
X-803411Y1079692D01*
X-803411Y998868D01*
X-722588Y998868D01*
X-820150Y240450D02*
X-705850Y126150D01*
X-705850Y240450D02*
X-820150Y126150D01*
X-722588Y142889D02*
X-722588Y223711D01*
X-803411Y223711D01*
X-803411Y142889D01*
X-722588Y142889D01*
X-484970Y3763650D02*
X-370670Y3649350D01*
X-370670Y3763650D02*
X-484970Y3649350D01*
X-387408Y3666088D02*
X-387408Y3746911D01*
X-468231Y3746911D01*
X-468231Y3666088D01*
X-387408Y3666088D01*
X-484970Y2264050D02*
X-370670Y2149750D01*
X-370670Y2264050D02*
X-484970Y2149750D01*
X-387408Y2166489D02*
X-387408Y2247312D01*
X-468231Y2247312D01*
X-468231Y2166489D01*
X-387408Y2166489D01*
D14*
X-5336000Y7657200D02*
X-5216000Y7537200D01*
X-5216000Y7657200D02*
X-5336000Y7537200D01*
X-5276000Y7537200D02*
X-5216000Y7597200D01*
X-5276000Y7657200D01*
X-5336000Y7597200D01*
X-5276000Y7537200D01*
X-5336000Y5041000D02*
X-5216000Y4921000D01*
X-5216000Y5041000D02*
X-5336000Y4921000D01*
X-5276000Y4921000D02*
X-5216000Y4981000D01*
X-5276000Y5041000D01*
X-5336000Y4981000D01*
X-5276000Y4921000D01*
X-4836000Y7657200D02*
X-4716000Y7537200D01*
X-4716000Y7657200D02*
X-4836000Y7537200D01*
X-4776000Y7537200D02*
X-4716000Y7597200D01*
X-4776000Y7657200D01*
X-4836000Y7597200D01*
X-4776000Y7537200D01*
X-4836000Y5041000D02*
X-4716000Y4921000D01*
X-4716000Y5041000D02*
X-4836000Y4921000D01*
X-4776000Y4921000D02*
X-4716000Y4981000D01*
X-4776000Y5041000D01*
X-4836000Y4981000D01*
X-4776000Y4921000D01*
X-4336000Y7657200D02*
X-4216000Y7537200D01*
X-4216000Y7657200D02*
X-4336000Y7537200D01*
X-4276000Y7537200D02*
X-4216000Y7597200D01*
X-4276000Y7657200D01*
X-4336000Y7597200D01*
X-4276000Y7537200D01*
X-4336000Y5041000D02*
X-4216000Y4921000D01*
X-4216000Y5041000D02*
X-4336000Y4921000D01*
X-4276000Y4921000D02*
X-4216000Y4981000D01*
X-4276000Y5041000D01*
X-4336000Y4981000D01*
X-4276000Y4921000D01*
X-1642000Y7640300D02*
X-1522000Y7520300D01*
X-1522000Y7640300D02*
X-1642000Y7520300D01*
X-1582000Y7520300D02*
X-1522000Y7580300D01*
X-1582000Y7640300D01*
X-1642000Y7580300D01*
X-1582000Y7520300D01*
X-1642000Y5041000D02*
X-1522000Y4921000D01*
X-1522000Y5041000D02*
X-1642000Y4921000D01*
X-1582000Y4921000D02*
X-1522000Y4981000D01*
X-1582000Y5041000D01*
X-1642000Y4981000D01*
X-1582000Y4921000D01*
X-1142000Y7640300D02*
X-1022000Y7520300D01*
X-1022000Y7640300D02*
X-1142000Y7520300D01*
X-1082000Y7520300D02*
X-1022000Y7580300D01*
X-1082000Y7640300D01*
X-1142000Y7580300D01*
X-1082000Y7520300D01*
X-1142000Y5041000D02*
X-1022000Y4921000D01*
X-1022000Y5041000D02*
X-1142000Y4921000D01*
X-1082000Y4921000D02*
X-1022000Y4981000D01*
X-1082000Y5041000D01*
X-1142000Y4981000D01*
X-1082000Y4921000D01*
X-642000Y7640300D02*
X-522000Y7520300D01*
X-522000Y7640300D02*
X-642000Y7520300D01*
X-582000Y7520300D02*
X-522000Y7580300D01*
X-582000Y7640300D01*
X-642000Y7580300D01*
X-582000Y7520300D01*
X-642000Y5041000D02*
X-522000Y4921000D01*
X-522000Y5041000D02*
X-642000Y4921000D01*
X-582000Y4921000D02*
X-522000Y4981000D01*
X-582000Y5041000D01*
X-642000Y4981000D01*
X-582000Y4921000D01*
D11*
X-5646723Y-318984D02*
X-5646723Y-118984D01*
X-5646723Y-118984D02*
X-5599104Y-118984D01*
X-5599104Y-118984D02*
X-5570533Y-128508D01*
X-5570533Y-128508D02*
X-5551485Y-147555D01*
X-5551485Y-147555D02*
X-5541961Y-166603D01*
X-5541961Y-166603D02*
X-5532438Y-204698D01*
X-5532438Y-204698D02*
X-5532438Y-233269D01*
X-5532438Y-233269D02*
X-5541961Y-271365D01*
X-5541961Y-271365D02*
X-5551485Y-290412D01*
X-5551485Y-290412D02*
X-5570533Y-309460D01*
X-5570533Y-309460D02*
X-5599104Y-318984D01*
X-5599104Y-318984D02*
X-5646723Y-318984D01*
X-5446723Y-318984D02*
X-5446723Y-185650D01*
X-5446723Y-223746D02*
X-5437199Y-204698D01*
X-5437199Y-204698D02*
X-5427676Y-195174D01*
X-5427676Y-195174D02*
X-5408628Y-185650D01*
X-5408628Y-185650D02*
X-5389580Y-185650D01*
X-5322914Y-318984D02*
X-5322914Y-185650D01*
X-5322914Y-118984D02*
X-5332438Y-128508D01*
X-5332438Y-128508D02*
X-5322914Y-138031D01*
X-5322914Y-138031D02*
X-5313390Y-128508D01*
X-5313390Y-128508D02*
X-5322914Y-118984D01*
X-5322914Y-118984D02*
X-5322914Y-138031D01*
X-5199104Y-318984D02*
X-5218152Y-309460D01*
X-5218152Y-309460D02*
X-5227676Y-290412D01*
X-5227676Y-290412D02*
X-5227676Y-118984D01*
X-5094342Y-318984D02*
X-5113390Y-309460D01*
X-5113390Y-309460D02*
X-5122914Y-290412D01*
X-5122914Y-290412D02*
X-5122914Y-118984D01*
X-4865771Y-318984D02*
X-4865771Y-118984D01*
X-4865771Y-118984D02*
X-4799104Y-261841D01*
X-4799104Y-261841D02*
X-4732438Y-118984D01*
X-4732438Y-118984D02*
X-4732438Y-318984D01*
X-4551485Y-318984D02*
X-4551485Y-214222D01*
X-4551485Y-214222D02*
X-4561009Y-195174D01*
X-4561009Y-195174D02*
X-4580057Y-185650D01*
X-4580057Y-185650D02*
X-4618152Y-185650D01*
X-4618152Y-185650D02*
X-4637199Y-195174D01*
X-4551485Y-309460D02*
X-4570533Y-318984D01*
X-4570533Y-318984D02*
X-4618152Y-318984D01*
X-4618152Y-318984D02*
X-4637199Y-309460D01*
X-4637199Y-309460D02*
X-4646723Y-290412D01*
X-4646723Y-290412D02*
X-4646723Y-271365D01*
X-4646723Y-271365D02*
X-4637199Y-252317D01*
X-4637199Y-252317D02*
X-4618152Y-242793D01*
X-4618152Y-242793D02*
X-4570533Y-242793D01*
X-4570533Y-242793D02*
X-4551485Y-233269D01*
X-4456247Y-185650D02*
X-4456247Y-385650D01*
X-4456247Y-195174D02*
X-4437199Y-185650D01*
X-4437199Y-185650D02*
X-4399104Y-185650D01*
X-4399104Y-185650D02*
X-4380057Y-195174D01*
X-4380057Y-195174D02*
X-4370533Y-204698D01*
X-4370533Y-204698D02*
X-4361009Y-223746D01*
X-4361009Y-223746D02*
X-4361009Y-280889D01*
X-4361009Y-280889D02*
X-4370533Y-299936D01*
X-4370533Y-299936D02*
X-4380057Y-309460D01*
X-4380057Y-309460D02*
X-4399104Y-318984D01*
X-4399104Y-318984D02*
X-4437199Y-318984D01*
X-4437199Y-318984D02*
X-4456247Y-309460D01*
X-4275295Y-299936D02*
X-4265771Y-309460D01*
X-4265771Y-309460D02*
X-4275295Y-318984D01*
X-4275295Y-318984D02*
X-4284818Y-309460D01*
X-4284818Y-309460D02*
X-4275295Y-299936D01*
X-4275295Y-299936D02*
X-4275295Y-318984D01*
X-4275295Y-195174D02*
X-4265771Y-204698D01*
X-4265771Y-204698D02*
X-4275295Y-214222D01*
X-4275295Y-214222D02*
X-4284818Y-204698D01*
X-4284818Y-204698D02*
X-4275295Y-195174D01*
X-4275295Y-195174D02*
X-4275295Y-214222D01*
D12*
X-5927500Y-637500D02*
X-5907500Y-657500D01*
X-5907500Y-637500D02*
X-5927500Y-657500D01*
D11*
X-5608628Y-538984D02*
X-5589580Y-538984D01*
X-5589580Y-538984D02*
X-5570533Y-548508D01*
X-5570533Y-548508D02*
X-5561009Y-558031D01*
X-5561009Y-558031D02*
X-5551485Y-577079D01*
X-5551485Y-577079D02*
X-5541961Y-615174D01*
X-5541961Y-615174D02*
X-5541961Y-662793D01*
X-5541961Y-662793D02*
X-5551485Y-700888D01*
X-5551485Y-700888D02*
X-5561009Y-719936D01*
X-5561009Y-719936D02*
X-5570533Y-729460D01*
X-5570533Y-729460D02*
X-5589580Y-738984D01*
X-5589580Y-738984D02*
X-5608628Y-738984D01*
X-5608628Y-738984D02*
X-5627676Y-729460D01*
X-5627676Y-729460D02*
X-5637199Y-719936D01*
X-5637199Y-719936D02*
X-5646723Y-700888D01*
X-5646723Y-700888D02*
X-5656247Y-662793D01*
X-5656247Y-662793D02*
X-5656247Y-615174D01*
X-5656247Y-615174D02*
X-5646723Y-577079D01*
X-5646723Y-577079D02*
X-5637199Y-558031D01*
X-5637199Y-558031D02*
X-5627676Y-548508D01*
X-5627676Y-548508D02*
X-5608628Y-538984D01*
X-5456247Y-719936D02*
X-5446723Y-729460D01*
X-5446723Y-729460D02*
X-5456247Y-738984D01*
X-5456247Y-738984D02*
X-5465771Y-729460D01*
X-5465771Y-729460D02*
X-5456247Y-719936D01*
X-5456247Y-719936D02*
X-5456247Y-738984D01*
X-5370533Y-558031D02*
X-5361009Y-548508D01*
X-5361009Y-548508D02*
X-5341961Y-538984D01*
X-5341961Y-538984D02*
X-5294342Y-538984D01*
X-5294342Y-538984D02*
X-5275295Y-548508D01*
X-5275295Y-548508D02*
X-5265771Y-558031D01*
X-5265771Y-558031D02*
X-5256247Y-577079D01*
X-5256247Y-577079D02*
X-5256247Y-596127D01*
X-5256247Y-596127D02*
X-5265771Y-624698D01*
X-5265771Y-624698D02*
X-5380057Y-738984D01*
X-5380057Y-738984D02*
X-5256247Y-738984D01*
X-5132438Y-538984D02*
X-5113390Y-538984D01*
X-5113390Y-538984D02*
X-5094342Y-548508D01*
X-5094342Y-548508D02*
X-5084818Y-558031D01*
X-5084818Y-558031D02*
X-5075295Y-577079D01*
X-5075295Y-577079D02*
X-5065771Y-615174D01*
X-5065771Y-615174D02*
X-5065771Y-662793D01*
X-5065771Y-662793D02*
X-5075295Y-700888D01*
X-5075295Y-700888D02*
X-5084818Y-719936D01*
X-5084818Y-719936D02*
X-5094342Y-729460D01*
X-5094342Y-729460D02*
X-5113390Y-738984D01*
X-5113390Y-738984D02*
X-5132438Y-738984D01*
X-5132438Y-738984D02*
X-5151485Y-729460D01*
X-5151485Y-729460D02*
X-5161009Y-719936D01*
X-5161009Y-719936D02*
X-5170533Y-700888D01*
X-5170533Y-700888D02*
X-5180057Y-662793D01*
X-5180057Y-662793D02*
X-5180057Y-615174D01*
X-5180057Y-615174D02*
X-5170533Y-577079D01*
X-5170533Y-577079D02*
X-5161009Y-558031D01*
X-5161009Y-558031D02*
X-5151485Y-548508D01*
X-5151485Y-548508D02*
X-5132438Y-538984D01*
X-4941961Y-538984D02*
X-4922914Y-538984D01*
X-4922914Y-538984D02*
X-4903866Y-548508D01*
X-4903866Y-548508D02*
X-4894342Y-558031D01*
X-4894342Y-558031D02*
X-4884818Y-577079D01*
X-4884818Y-577079D02*
X-4875295Y-615174D01*
X-4875295Y-615174D02*
X-4875295Y-662793D01*
X-4875295Y-662793D02*
X-4884818Y-700888D01*
X-4884818Y-700888D02*
X-4894342Y-719936D01*
X-4894342Y-719936D02*
X-4903866Y-729460D01*
X-4903866Y-729460D02*
X-4922914Y-738984D01*
X-4922914Y-738984D02*
X-4941961Y-738984D01*
X-4941961Y-738984D02*
X-4961009Y-729460D01*
X-4961009Y-729460D02*
X-4970533Y-719936D01*
X-4970533Y-719936D02*
X-4980057Y-700888D01*
X-4980057Y-700888D02*
X-4989580Y-662793D01*
X-4989580Y-662793D02*
X-4989580Y-615174D01*
X-4989580Y-615174D02*
X-4980057Y-577079D01*
X-4980057Y-577079D02*
X-4970533Y-558031D01*
X-4970533Y-558031D02*
X-4961009Y-548508D01*
X-4961009Y-548508D02*
X-4941961Y-538984D01*
X-4789580Y-738984D02*
X-4789580Y-605650D01*
X-4789580Y-624698D02*
X-4780057Y-615174D01*
X-4780057Y-615174D02*
X-4761009Y-605650D01*
X-4761009Y-605650D02*
X-4732437Y-605650D01*
X-4732437Y-605650D02*
X-4713390Y-615174D01*
X-4713390Y-615174D02*
X-4703866Y-634222D01*
X-4703866Y-634222D02*
X-4703866Y-738984D01*
X-4703866Y-634222D02*
X-4694342Y-615174D01*
X-4694342Y-615174D02*
X-4675295Y-605650D01*
X-4675295Y-605650D02*
X-4646723Y-605650D01*
X-4646723Y-605650D02*
X-4627676Y-615174D01*
X-4627676Y-615174D02*
X-4618152Y-634222D01*
X-4618152Y-634222D02*
X-4618152Y-738984D01*
X-4522914Y-738984D02*
X-4522914Y-605650D01*
X-4522914Y-624698D02*
X-4513390Y-615174D01*
X-4513390Y-615174D02*
X-4494342Y-605650D01*
X-4494342Y-605650D02*
X-4465771Y-605650D01*
X-4465771Y-605650D02*
X-4446723Y-615174D01*
X-4446723Y-615174D02*
X-4437199Y-634222D01*
X-4437199Y-634222D02*
X-4437199Y-738984D01*
X-4437199Y-634222D02*
X-4427676Y-615174D01*
X-4427676Y-615174D02*
X-4408628Y-605650D01*
X-4408628Y-605650D02*
X-4380057Y-605650D01*
X-4380057Y-605650D02*
X-4361009Y-615174D01*
X-4361009Y-615174D02*
X-4351485Y-634222D01*
X-4351485Y-634222D02*
X-4351485Y-738984D01*
X-3961009Y-529460D02*
X-4132437Y-786603D01*
X-3703866Y-538984D02*
X-3684818Y-538984D01*
X-3684818Y-538984D02*
X-3665771Y-548508D01*
X-3665771Y-548508D02*
X-3656247Y-558031D01*
X-3656247Y-558031D02*
X-3646723Y-577079D01*
X-3646723Y-577079D02*
X-3637199Y-615174D01*
X-3637199Y-615174D02*
X-3637199Y-662793D01*
X-3637199Y-662793D02*
X-3646723Y-700888D01*
X-3646723Y-700888D02*
X-3656247Y-719936D01*
X-3656247Y-719936D02*
X-3665771Y-729460D01*
X-3665771Y-729460D02*
X-3684818Y-738984D01*
X-3684818Y-738984D02*
X-3703866Y-738984D01*
X-3703866Y-738984D02*
X-3722913Y-729460D01*
X-3722913Y-729460D02*
X-3732437Y-719936D01*
X-3732437Y-719936D02*
X-3741961Y-700888D01*
X-3741961Y-700888D02*
X-3751485Y-662793D01*
X-3751485Y-662793D02*
X-3751485Y-615174D01*
X-3751485Y-615174D02*
X-3741961Y-577079D01*
X-3741961Y-577079D02*
X-3732437Y-558031D01*
X-3732437Y-558031D02*
X-3722913Y-548508D01*
X-3722913Y-548508D02*
X-3703866Y-538984D01*
X-3551485Y-719936D02*
X-3541961Y-729460D01*
X-3541961Y-729460D02*
X-3551485Y-738984D01*
X-3551485Y-738984D02*
X-3561009Y-729460D01*
X-3561009Y-729460D02*
X-3551485Y-719936D01*
X-3551485Y-719936D02*
X-3551485Y-738984D01*
X-3418152Y-538984D02*
X-3399104Y-538984D01*
X-3399104Y-538984D02*
X-3380056Y-548508D01*
X-3380056Y-548508D02*
X-3370532Y-558031D01*
X-3370532Y-558031D02*
X-3361009Y-577079D01*
X-3361009Y-577079D02*
X-3351485Y-615174D01*
X-3351485Y-615174D02*
X-3351485Y-662793D01*
X-3351485Y-662793D02*
X-3361009Y-700888D01*
X-3361009Y-700888D02*
X-3370532Y-719936D01*
X-3370532Y-719936D02*
X-3380056Y-729460D01*
X-3380056Y-729460D02*
X-3399104Y-738984D01*
X-3399104Y-738984D02*
X-3418152Y-738984D01*
X-3418152Y-738984D02*
X-3437199Y-729460D01*
X-3437199Y-729460D02*
X-3446723Y-719936D01*
X-3446723Y-719936D02*
X-3456247Y-700888D01*
X-3456247Y-700888D02*
X-3465771Y-662793D01*
X-3465771Y-662793D02*
X-3465771Y-615174D01*
X-3465771Y-615174D02*
X-3456247Y-577079D01*
X-3456247Y-577079D02*
X-3446723Y-558031D01*
X-3446723Y-558031D02*
X-3437199Y-548508D01*
X-3437199Y-548508D02*
X-3418152Y-538984D01*
X-3227675Y-538984D02*
X-3208628Y-538984D01*
X-3208628Y-538984D02*
X-3189580Y-548508D01*
X-3189580Y-548508D02*
X-3180056Y-558031D01*
X-3180056Y-558031D02*
X-3170532Y-577079D01*
X-3170532Y-577079D02*
X-3161009Y-615174D01*
X-3161009Y-615174D02*
X-3161009Y-662793D01*
X-3161009Y-662793D02*
X-3170532Y-700888D01*
X-3170532Y-700888D02*
X-3180056Y-719936D01*
X-3180056Y-719936D02*
X-3189580Y-729460D01*
X-3189580Y-729460D02*
X-3208628Y-738984D01*
X-3208628Y-738984D02*
X-3227675Y-738984D01*
X-3227675Y-738984D02*
X-3246723Y-729460D01*
X-3246723Y-729460D02*
X-3256247Y-719936D01*
X-3256247Y-719936D02*
X-3265771Y-700888D01*
X-3265771Y-700888D02*
X-3275294Y-662793D01*
X-3275294Y-662793D02*
X-3275294Y-615174D01*
X-3275294Y-615174D02*
X-3265771Y-577079D01*
X-3265771Y-577079D02*
X-3256247Y-558031D01*
X-3256247Y-558031D02*
X-3246723Y-548508D01*
X-3246723Y-548508D02*
X-3227675Y-538984D01*
X-3094342Y-538984D02*
X-2961009Y-538984D01*
X-2961009Y-538984D02*
X-3046723Y-738984D01*
X-2875294Y-738984D02*
X-2837199Y-738984D01*
X-2837199Y-738984D02*
X-2818151Y-729460D01*
X-2818151Y-729460D02*
X-2808628Y-719936D01*
X-2808628Y-719936D02*
X-2789580Y-691365D01*
X-2789580Y-691365D02*
X-2780056Y-653270D01*
X-2780056Y-653270D02*
X-2780056Y-577079D01*
X-2780056Y-577079D02*
X-2789580Y-558031D01*
X-2789580Y-558031D02*
X-2799104Y-548508D01*
X-2799104Y-548508D02*
X-2818151Y-538984D01*
X-2818151Y-538984D02*
X-2856247Y-538984D01*
X-2856247Y-538984D02*
X-2875294Y-548508D01*
X-2875294Y-548508D02*
X-2884818Y-558031D01*
X-2884818Y-558031D02*
X-2894342Y-577079D01*
X-2894342Y-577079D02*
X-2894342Y-624698D01*
X-2894342Y-624698D02*
X-2884818Y-643746D01*
X-2884818Y-643746D02*
X-2875294Y-653270D01*
X-2875294Y-653270D02*
X-2856247Y-662793D01*
X-2856247Y-662793D02*
X-2818151Y-662793D01*
X-2818151Y-662793D02*
X-2799104Y-653270D01*
X-2799104Y-653270D02*
X-2789580Y-643746D01*
X-2789580Y-643746D02*
X-2780056Y-624698D01*
X-2703866Y-538984D02*
X-2703866Y-577079D01*
X-2627675Y-538984D02*
X-2627675Y-577079D01*
X-2332437Y-815174D02*
X-2341961Y-805650D01*
X-2341961Y-805650D02*
X-2361009Y-777079D01*
X-2361009Y-777079D02*
X-2370532Y-758031D01*
X-2370532Y-758031D02*
X-2380056Y-729460D01*
X-2380056Y-729460D02*
X-2389580Y-681841D01*
X-2389580Y-681841D02*
X-2389580Y-643746D01*
X-2389580Y-643746D02*
X-2380056Y-596127D01*
X-2380056Y-596127D02*
X-2370532Y-567555D01*
X-2370532Y-567555D02*
X-2361009Y-548508D01*
X-2361009Y-548508D02*
X-2341961Y-519936D01*
X-2341961Y-519936D02*
X-2332437Y-510412D01*
X-2170532Y-605650D02*
X-2170532Y-738984D01*
X-2218152Y-529460D02*
X-2265771Y-672317D01*
X-2265771Y-672317D02*
X-2141961Y-672317D01*
X-2075294Y-558031D02*
X-2065770Y-548508D01*
X-2065770Y-548508D02*
X-2046723Y-538984D01*
X-2046723Y-538984D02*
X-1999104Y-538984D01*
X-1999104Y-538984D02*
X-1980056Y-548508D01*
X-1980056Y-548508D02*
X-1970532Y-558031D01*
X-1970532Y-558031D02*
X-1961009Y-577079D01*
X-1961009Y-577079D02*
X-1961009Y-596127D01*
X-1961009Y-596127D02*
X-1970532Y-624698D01*
X-1970532Y-624698D02*
X-2084818Y-738984D01*
X-2084818Y-738984D02*
X-1961009Y-738984D01*
X-1894342Y-538984D02*
X-1770532Y-538984D01*
X-1770532Y-538984D02*
X-1837199Y-615174D01*
X-1837199Y-615174D02*
X-1808628Y-615174D01*
X-1808628Y-615174D02*
X-1789580Y-624698D01*
X-1789580Y-624698D02*
X-1780056Y-634222D01*
X-1780056Y-634222D02*
X-1770532Y-653270D01*
X-1770532Y-653270D02*
X-1770532Y-700888D01*
X-1770532Y-700888D02*
X-1780056Y-719936D01*
X-1780056Y-719936D02*
X-1789580Y-729460D01*
X-1789580Y-729460D02*
X-1808628Y-738984D01*
X-1808628Y-738984D02*
X-1865770Y-738984D01*
X-1865770Y-738984D02*
X-1884818Y-729460D01*
X-1884818Y-729460D02*
X-1894342Y-719936D01*
X-1532437Y-738984D02*
X-1532437Y-538984D01*
X-1446723Y-738984D02*
X-1446723Y-634222D01*
X-1446723Y-634222D02*
X-1456247Y-615174D01*
X-1456247Y-615174D02*
X-1475294Y-605650D01*
X-1475294Y-605650D02*
X-1503866Y-605650D01*
X-1503866Y-605650D02*
X-1522913Y-615174D01*
X-1522913Y-615174D02*
X-1532437Y-624698D01*
X-1322913Y-738984D02*
X-1341961Y-729460D01*
X-1341961Y-729460D02*
X-1351485Y-719936D01*
X-1351485Y-719936D02*
X-1361009Y-700888D01*
X-1361009Y-700888D02*
X-1361009Y-643746D01*
X-1361009Y-643746D02*
X-1351485Y-624698D01*
X-1351485Y-624698D02*
X-1341961Y-615174D01*
X-1341961Y-615174D02*
X-1322913Y-605650D01*
X-1322913Y-605650D02*
X-1294342Y-605650D01*
X-1294342Y-605650D02*
X-1275294Y-615174D01*
X-1275294Y-615174D02*
X-1265770Y-624698D01*
X-1265770Y-624698D02*
X-1256247Y-643746D01*
X-1256247Y-643746D02*
X-1256247Y-700888D01*
X-1256247Y-700888D02*
X-1265770Y-719936D01*
X-1265770Y-719936D02*
X-1275294Y-729460D01*
X-1275294Y-729460D02*
X-1294342Y-738984D01*
X-1294342Y-738984D02*
X-1322913Y-738984D01*
X-1141961Y-738984D02*
X-1161009Y-729460D01*
X-1161009Y-729460D02*
X-1170532Y-710412D01*
X-1170532Y-710412D02*
X-1170532Y-538984D01*
X-989580Y-729460D02*
X-1008627Y-738984D01*
X-1008627Y-738984D02*
X-1046723Y-738984D01*
X-1046723Y-738984D02*
X-1065770Y-729460D01*
X-1065770Y-729460D02*
X-1075294Y-710412D01*
X-1075294Y-710412D02*
X-1075294Y-634222D01*
X-1075294Y-634222D02*
X-1065770Y-615174D01*
X-1065770Y-615174D02*
X-1046723Y-605650D01*
X-1046723Y-605650D02*
X-1008627Y-605650D01*
X-1008627Y-605650D02*
X-989580Y-615174D01*
X-989580Y-615174D02*
X-980056Y-634222D01*
X-980056Y-634222D02*
X-980056Y-653270D01*
X-980056Y-653270D02*
X-1075294Y-672317D01*
X-903866Y-729460D02*
X-884818Y-738984D01*
X-884818Y-738984D02*
X-846723Y-738984D01*
X-846723Y-738984D02*
X-827675Y-729460D01*
X-827675Y-729460D02*
X-818151Y-710412D01*
X-818151Y-710412D02*
X-818151Y-700888D01*
X-818151Y-700888D02*
X-827675Y-681841D01*
X-827675Y-681841D02*
X-846723Y-672317D01*
X-846723Y-672317D02*
X-875294Y-672317D01*
X-875294Y-672317D02*
X-894342Y-662793D01*
X-894342Y-662793D02*
X-903866Y-643746D01*
X-903866Y-643746D02*
X-903866Y-634222D01*
X-903866Y-634222D02*
X-894342Y-615174D01*
X-894342Y-615174D02*
X-875294Y-605650D01*
X-875294Y-605650D02*
X-846723Y-605650D01*
X-846723Y-605650D02*
X-827675Y-615174D01*
X-751485Y-815174D02*
X-741961Y-805650D01*
X-741961Y-805650D02*
X-722913Y-777079D01*
X-722913Y-777079D02*
X-713389Y-758031D01*
X-713389Y-758031D02*
X-703866Y-729460D01*
X-703866Y-729460D02*
X-694342Y-681841D01*
X-694342Y-681841D02*
X-694342Y-643746D01*
X-694342Y-643746D02*
X-703866Y-596127D01*
X-703866Y-596127D02*
X-713389Y-567555D01*
X-713389Y-567555D02*
X-722913Y-548508D01*
X-722913Y-548508D02*
X-741961Y-519936D01*
X-741961Y-519936D02*
X-751485Y-510412D01*
D12*
X-5907500Y-911500D02*
G75*
G02*
X-5976080Y-911500I-34290J0D01*
G01*
X-5976080Y-911500D02*
G75*
G02*
X-5907500Y-911500I34290J0D01*
G01*
D11*
X-5608628Y-802984D02*
X-5589580Y-802984D01*
X-5589580Y-802984D02*
X-5570533Y-812508D01*
X-5570533Y-812508D02*
X-5561009Y-822031D01*
X-5561009Y-822031D02*
X-5551485Y-841079D01*
X-5551485Y-841079D02*
X-5541961Y-879174D01*
X-5541961Y-879174D02*
X-5541961Y-926793D01*
X-5541961Y-926793D02*
X-5551485Y-964888D01*
X-5551485Y-964888D02*
X-5561009Y-983936D01*
X-5561009Y-983936D02*
X-5570533Y-993460D01*
X-5570533Y-993460D02*
X-5589580Y-1002984D01*
X-5589580Y-1002984D02*
X-5608628Y-1002984D01*
X-5608628Y-1002984D02*
X-5627676Y-993460D01*
X-5627676Y-993460D02*
X-5637199Y-983936D01*
X-5637199Y-983936D02*
X-5646723Y-964888D01*
X-5646723Y-964888D02*
X-5656247Y-926793D01*
X-5656247Y-926793D02*
X-5656247Y-879174D01*
X-5656247Y-879174D02*
X-5646723Y-841079D01*
X-5646723Y-841079D02*
X-5637199Y-822031D01*
X-5637199Y-822031D02*
X-5627676Y-812508D01*
X-5627676Y-812508D02*
X-5608628Y-802984D01*
X-5456247Y-983936D02*
X-5446723Y-993460D01*
X-5446723Y-993460D02*
X-5456247Y-1002984D01*
X-5456247Y-1002984D02*
X-5465771Y-993460D01*
X-5465771Y-993460D02*
X-5456247Y-983936D01*
X-5456247Y-983936D02*
X-5456247Y-1002984D01*
X-5275295Y-802984D02*
X-5313390Y-802984D01*
X-5313390Y-802984D02*
X-5332438Y-812508D01*
X-5332438Y-812508D02*
X-5341961Y-822031D01*
X-5341961Y-822031D02*
X-5361009Y-850603D01*
X-5361009Y-850603D02*
X-5370533Y-888698D01*
X-5370533Y-888698D02*
X-5370533Y-964888D01*
X-5370533Y-964888D02*
X-5361009Y-983936D01*
X-5361009Y-983936D02*
X-5351485Y-993460D01*
X-5351485Y-993460D02*
X-5332438Y-1002984D01*
X-5332438Y-1002984D02*
X-5294342Y-1002984D01*
X-5294342Y-1002984D02*
X-5275295Y-993460D01*
X-5275295Y-993460D02*
X-5265771Y-983936D01*
X-5265771Y-983936D02*
X-5256247Y-964888D01*
X-5256247Y-964888D02*
X-5256247Y-917269D01*
X-5256247Y-917269D02*
X-5265771Y-898222D01*
X-5265771Y-898222D02*
X-5275295Y-888698D01*
X-5275295Y-888698D02*
X-5294342Y-879174D01*
X-5294342Y-879174D02*
X-5332438Y-879174D01*
X-5332438Y-879174D02*
X-5351485Y-888698D01*
X-5351485Y-888698D02*
X-5361009Y-898222D01*
X-5361009Y-898222D02*
X-5370533Y-917269D01*
X-5141961Y-888698D02*
X-5161009Y-879174D01*
X-5161009Y-879174D02*
X-5170533Y-869650D01*
X-5170533Y-869650D02*
X-5180057Y-850603D01*
X-5180057Y-850603D02*
X-5180057Y-841079D01*
X-5180057Y-841079D02*
X-5170533Y-822031D01*
X-5170533Y-822031D02*
X-5161009Y-812508D01*
X-5161009Y-812508D02*
X-5141961Y-802984D01*
X-5141961Y-802984D02*
X-5103866Y-802984D01*
X-5103866Y-802984D02*
X-5084818Y-812508D01*
X-5084818Y-812508D02*
X-5075295Y-822031D01*
X-5075295Y-822031D02*
X-5065771Y-841079D01*
X-5065771Y-841079D02*
X-5065771Y-850603D01*
X-5065771Y-850603D02*
X-5075295Y-869650D01*
X-5075295Y-869650D02*
X-5084818Y-879174D01*
X-5084818Y-879174D02*
X-5103866Y-888698D01*
X-5103866Y-888698D02*
X-5141961Y-888698D01*
X-5141961Y-888698D02*
X-5161009Y-898222D01*
X-5161009Y-898222D02*
X-5170533Y-907746D01*
X-5170533Y-907746D02*
X-5180057Y-926793D01*
X-5180057Y-926793D02*
X-5180057Y-964888D01*
X-5180057Y-964888D02*
X-5170533Y-983936D01*
X-5170533Y-983936D02*
X-5161009Y-993460D01*
X-5161009Y-993460D02*
X-5141961Y-1002984D01*
X-5141961Y-1002984D02*
X-5103866Y-1002984D01*
X-5103866Y-1002984D02*
X-5084818Y-993460D01*
X-5084818Y-993460D02*
X-5075295Y-983936D01*
X-5075295Y-983936D02*
X-5065771Y-964888D01*
X-5065771Y-964888D02*
X-5065771Y-926793D01*
X-5065771Y-926793D02*
X-5075295Y-907746D01*
X-5075295Y-907746D02*
X-5084818Y-898222D01*
X-5084818Y-898222D02*
X-5103866Y-888698D01*
X-4894342Y-802984D02*
X-4932438Y-802984D01*
X-4932438Y-802984D02*
X-4951485Y-812508D01*
X-4951485Y-812508D02*
X-4961009Y-822031D01*
X-4961009Y-822031D02*
X-4980057Y-850603D01*
X-4980057Y-850603D02*
X-4989580Y-888698D01*
X-4989580Y-888698D02*
X-4989580Y-964888D01*
X-4989580Y-964888D02*
X-4980057Y-983936D01*
X-4980057Y-983936D02*
X-4970533Y-993460D01*
X-4970533Y-993460D02*
X-4951485Y-1002984D01*
X-4951485Y-1002984D02*
X-4913390Y-1002984D01*
X-4913390Y-1002984D02*
X-4894342Y-993460D01*
X-4894342Y-993460D02*
X-4884818Y-983936D01*
X-4884818Y-983936D02*
X-4875295Y-964888D01*
X-4875295Y-964888D02*
X-4875295Y-917269D01*
X-4875295Y-917269D02*
X-4884818Y-898222D01*
X-4884818Y-898222D02*
X-4894342Y-888698D01*
X-4894342Y-888698D02*
X-4913390Y-879174D01*
X-4913390Y-879174D02*
X-4951485Y-879174D01*
X-4951485Y-879174D02*
X-4970533Y-888698D01*
X-4970533Y-888698D02*
X-4980057Y-898222D01*
X-4980057Y-898222D02*
X-4989580Y-917269D01*
X-4789580Y-1002984D02*
X-4789580Y-869650D01*
X-4789580Y-888698D02*
X-4780057Y-879174D01*
X-4780057Y-879174D02*
X-4761009Y-869650D01*
X-4761009Y-869650D02*
X-4732437Y-869650D01*
X-4732437Y-869650D02*
X-4713390Y-879174D01*
X-4713390Y-879174D02*
X-4703866Y-898222D01*
X-4703866Y-898222D02*
X-4703866Y-1002984D01*
X-4703866Y-898222D02*
X-4694342Y-879174D01*
X-4694342Y-879174D02*
X-4675295Y-869650D01*
X-4675295Y-869650D02*
X-4646723Y-869650D01*
X-4646723Y-869650D02*
X-4627676Y-879174D01*
X-4627676Y-879174D02*
X-4618152Y-898222D01*
X-4618152Y-898222D02*
X-4618152Y-1002984D01*
X-4522914Y-1002984D02*
X-4522914Y-869650D01*
X-4522914Y-888698D02*
X-4513390Y-879174D01*
X-4513390Y-879174D02*
X-4494342Y-869650D01*
X-4494342Y-869650D02*
X-4465771Y-869650D01*
X-4465771Y-869650D02*
X-4446723Y-879174D01*
X-4446723Y-879174D02*
X-4437199Y-898222D01*
X-4437199Y-898222D02*
X-4437199Y-1002984D01*
X-4437199Y-898222D02*
X-4427676Y-879174D01*
X-4427676Y-879174D02*
X-4408628Y-869650D01*
X-4408628Y-869650D02*
X-4380057Y-869650D01*
X-4380057Y-869650D02*
X-4361009Y-879174D01*
X-4361009Y-879174D02*
X-4351485Y-898222D01*
X-4351485Y-898222D02*
X-4351485Y-1002984D01*
X-3961009Y-793460D02*
X-4132437Y-1050603D01*
X-3703866Y-802984D02*
X-3684818Y-802984D01*
X-3684818Y-802984D02*
X-3665771Y-812508D01*
X-3665771Y-812508D02*
X-3656247Y-822031D01*
X-3656247Y-822031D02*
X-3646723Y-841079D01*
X-3646723Y-841079D02*
X-3637199Y-879174D01*
X-3637199Y-879174D02*
X-3637199Y-926793D01*
X-3637199Y-926793D02*
X-3646723Y-964888D01*
X-3646723Y-964888D02*
X-3656247Y-983936D01*
X-3656247Y-983936D02*
X-3665771Y-993460D01*
X-3665771Y-993460D02*
X-3684818Y-1002984D01*
X-3684818Y-1002984D02*
X-3703866Y-1002984D01*
X-3703866Y-1002984D02*
X-3722913Y-993460D01*
X-3722913Y-993460D02*
X-3732437Y-983936D01*
X-3732437Y-983936D02*
X-3741961Y-964888D01*
X-3741961Y-964888D02*
X-3751485Y-926793D01*
X-3751485Y-926793D02*
X-3751485Y-879174D01*
X-3751485Y-879174D02*
X-3741961Y-841079D01*
X-3741961Y-841079D02*
X-3732437Y-822031D01*
X-3732437Y-822031D02*
X-3722913Y-812508D01*
X-3722913Y-812508D02*
X-3703866Y-802984D01*
X-3551485Y-983936D02*
X-3541961Y-993460D01*
X-3541961Y-993460D02*
X-3551485Y-1002984D01*
X-3551485Y-1002984D02*
X-3561009Y-993460D01*
X-3561009Y-993460D02*
X-3551485Y-983936D01*
X-3551485Y-983936D02*
X-3551485Y-1002984D01*
X-3418152Y-802984D02*
X-3399104Y-802984D01*
X-3399104Y-802984D02*
X-3380056Y-812508D01*
X-3380056Y-812508D02*
X-3370532Y-822031D01*
X-3370532Y-822031D02*
X-3361009Y-841079D01*
X-3361009Y-841079D02*
X-3351485Y-879174D01*
X-3351485Y-879174D02*
X-3351485Y-926793D01*
X-3351485Y-926793D02*
X-3361009Y-964888D01*
X-3361009Y-964888D02*
X-3370532Y-983936D01*
X-3370532Y-983936D02*
X-3380056Y-993460D01*
X-3380056Y-993460D02*
X-3399104Y-1002984D01*
X-3399104Y-1002984D02*
X-3418152Y-1002984D01*
X-3418152Y-1002984D02*
X-3437199Y-993460D01*
X-3437199Y-993460D02*
X-3446723Y-983936D01*
X-3446723Y-983936D02*
X-3456247Y-964888D01*
X-3456247Y-964888D02*
X-3465771Y-926793D01*
X-3465771Y-926793D02*
X-3465771Y-879174D01*
X-3465771Y-879174D02*
X-3456247Y-841079D01*
X-3456247Y-841079D02*
X-3446723Y-822031D01*
X-3446723Y-822031D02*
X-3437199Y-812508D01*
X-3437199Y-812508D02*
X-3418152Y-802984D01*
X-3275294Y-822031D02*
X-3265771Y-812508D01*
X-3265771Y-812508D02*
X-3246723Y-802984D01*
X-3246723Y-802984D02*
X-3199104Y-802984D01*
X-3199104Y-802984D02*
X-3180056Y-812508D01*
X-3180056Y-812508D02*
X-3170532Y-822031D01*
X-3170532Y-822031D02*
X-3161009Y-841079D01*
X-3161009Y-841079D02*
X-3161009Y-860127D01*
X-3161009Y-860127D02*
X-3170532Y-888698D01*
X-3170532Y-888698D02*
X-3284818Y-1002984D01*
X-3284818Y-1002984D02*
X-3161009Y-1002984D01*
X-3094342Y-802984D02*
X-2961009Y-802984D01*
X-2961009Y-802984D02*
X-3046723Y-1002984D01*
X-2846723Y-802984D02*
X-2827675Y-802984D01*
X-2827675Y-802984D02*
X-2808628Y-812508D01*
X-2808628Y-812508D02*
X-2799104Y-822031D01*
X-2799104Y-822031D02*
X-2789580Y-841079D01*
X-2789580Y-841079D02*
X-2780056Y-879174D01*
X-2780056Y-879174D02*
X-2780056Y-926793D01*
X-2780056Y-926793D02*
X-2789580Y-964888D01*
X-2789580Y-964888D02*
X-2799104Y-983936D01*
X-2799104Y-983936D02*
X-2808628Y-993460D01*
X-2808628Y-993460D02*
X-2827675Y-1002984D01*
X-2827675Y-1002984D02*
X-2846723Y-1002984D01*
X-2846723Y-1002984D02*
X-2865771Y-993460D01*
X-2865771Y-993460D02*
X-2875294Y-983936D01*
X-2875294Y-983936D02*
X-2884818Y-964888D01*
X-2884818Y-964888D02*
X-2894342Y-926793D01*
X-2894342Y-926793D02*
X-2894342Y-879174D01*
X-2894342Y-879174D02*
X-2884818Y-841079D01*
X-2884818Y-841079D02*
X-2875294Y-822031D01*
X-2875294Y-822031D02*
X-2865771Y-812508D01*
X-2865771Y-812508D02*
X-2846723Y-802984D01*
X-2703866Y-802984D02*
X-2703866Y-841079D01*
X-2627675Y-802984D02*
X-2627675Y-841079D01*
X-2332437Y-1079174D02*
X-2341961Y-1069650D01*
X-2341961Y-1069650D02*
X-2361009Y-1041079D01*
X-2361009Y-1041079D02*
X-2370532Y-1022031D01*
X-2370532Y-1022031D02*
X-2380056Y-993460D01*
X-2380056Y-993460D02*
X-2389580Y-945841D01*
X-2389580Y-945841D02*
X-2389580Y-907746D01*
X-2389580Y-907746D02*
X-2380056Y-860127D01*
X-2380056Y-860127D02*
X-2370532Y-831555D01*
X-2370532Y-831555D02*
X-2361009Y-812508D01*
X-2361009Y-812508D02*
X-2341961Y-783936D01*
X-2341961Y-783936D02*
X-2332437Y-774412D01*
X-2275294Y-802984D02*
X-2141961Y-802984D01*
X-2141961Y-802984D02*
X-2227675Y-1002984D01*
X-1913389Y-1002984D02*
X-1913389Y-802984D01*
X-1827675Y-1002984D02*
X-1827675Y-898222D01*
X-1827675Y-898222D02*
X-1837199Y-879174D01*
X-1837199Y-879174D02*
X-1856247Y-869650D01*
X-1856247Y-869650D02*
X-1884818Y-869650D01*
X-1884818Y-869650D02*
X-1903866Y-879174D01*
X-1903866Y-879174D02*
X-1913389Y-888698D01*
X-1703866Y-1002984D02*
X-1722913Y-993460D01*
X-1722913Y-993460D02*
X-1732437Y-983936D01*
X-1732437Y-983936D02*
X-1741961Y-964888D01*
X-1741961Y-964888D02*
X-1741961Y-907746D01*
X-1741961Y-907746D02*
X-1732437Y-888698D01*
X-1732437Y-888698D02*
X-1722913Y-879174D01*
X-1722913Y-879174D02*
X-1703866Y-869650D01*
X-1703866Y-869650D02*
X-1675294Y-869650D01*
X-1675294Y-869650D02*
X-1656247Y-879174D01*
X-1656247Y-879174D02*
X-1646723Y-888698D01*
X-1646723Y-888698D02*
X-1637199Y-907746D01*
X-1637199Y-907746D02*
X-1637199Y-964888D01*
X-1637199Y-964888D02*
X-1646723Y-983936D01*
X-1646723Y-983936D02*
X-1656247Y-993460D01*
X-1656247Y-993460D02*
X-1675294Y-1002984D01*
X-1675294Y-1002984D02*
X-1703866Y-1002984D01*
X-1522913Y-1002984D02*
X-1541961Y-993460D01*
X-1541961Y-993460D02*
X-1551485Y-974412D01*
X-1551485Y-974412D02*
X-1551485Y-802984D01*
X-1370532Y-993460D02*
X-1389580Y-1002984D01*
X-1389580Y-1002984D02*
X-1427675Y-1002984D01*
X-1427675Y-1002984D02*
X-1446723Y-993460D01*
X-1446723Y-993460D02*
X-1456247Y-974412D01*
X-1456247Y-974412D02*
X-1456247Y-898222D01*
X-1456247Y-898222D02*
X-1446723Y-879174D01*
X-1446723Y-879174D02*
X-1427675Y-869650D01*
X-1427675Y-869650D02*
X-1389580Y-869650D01*
X-1389580Y-869650D02*
X-1370532Y-879174D01*
X-1370532Y-879174D02*
X-1361009Y-898222D01*
X-1361009Y-898222D02*
X-1361009Y-917269D01*
X-1361009Y-917269D02*
X-1456247Y-936317D01*
X-1284818Y-993460D02*
X-1265770Y-1002984D01*
X-1265770Y-1002984D02*
X-1227675Y-1002984D01*
X-1227675Y-1002984D02*
X-1208628Y-993460D01*
X-1208628Y-993460D02*
X-1199104Y-974412D01*
X-1199104Y-974412D02*
X-1199104Y-964888D01*
X-1199104Y-964888D02*
X-1208628Y-945841D01*
X-1208628Y-945841D02*
X-1227675Y-936317D01*
X-1227675Y-936317D02*
X-1256247Y-936317D01*
X-1256247Y-936317D02*
X-1275294Y-926793D01*
X-1275294Y-926793D02*
X-1284818Y-907746D01*
X-1284818Y-907746D02*
X-1284818Y-898222D01*
X-1284818Y-898222D02*
X-1275294Y-879174D01*
X-1275294Y-879174D02*
X-1256247Y-869650D01*
X-1256247Y-869650D02*
X-1227675Y-869650D01*
X-1227675Y-869650D02*
X-1208628Y-879174D01*
X-1132437Y-1079174D02*
X-1122913Y-1069650D01*
X-1122913Y-1069650D02*
X-1103866Y-1041079D01*
X-1103866Y-1041079D02*
X-1094342Y-1022031D01*
X-1094342Y-1022031D02*
X-1084818Y-993460D01*
X-1084818Y-993460D02*
X-1075294Y-945841D01*
X-1075294Y-945841D02*
X-1075294Y-907746D01*
X-1075294Y-907746D02*
X-1084818Y-860127D01*
X-1084818Y-860127D02*
X-1094342Y-831555D01*
X-1094342Y-831555D02*
X-1103866Y-812508D01*
X-1103866Y-812508D02*
X-1122913Y-783936D01*
X-1122913Y-783936D02*
X-1132437Y-774412D01*
D12*
X-5942488Y-1140512D02*
X-5942488Y-1210489D01*
X-5977477Y-1175500D02*
X-5907500Y-1175500D01*
D11*
X-5608628Y-1066984D02*
X-5589580Y-1066984D01*
X-5589580Y-1066984D02*
X-5570533Y-1076508D01*
X-5570533Y-1076508D02*
X-5561009Y-1086031D01*
X-5561009Y-1086031D02*
X-5551485Y-1105079D01*
X-5551485Y-1105079D02*
X-5541961Y-1143174D01*
X-5541961Y-1143174D02*
X-5541961Y-1190793D01*
X-5541961Y-1190793D02*
X-5551485Y-1228889D01*
X-5551485Y-1228889D02*
X-5561009Y-1247936D01*
X-5561009Y-1247936D02*
X-5570533Y-1257460D01*
X-5570533Y-1257460D02*
X-5589580Y-1266984D01*
X-5589580Y-1266984D02*
X-5608628Y-1266984D01*
X-5608628Y-1266984D02*
X-5627676Y-1257460D01*
X-5627676Y-1257460D02*
X-5637199Y-1247936D01*
X-5637199Y-1247936D02*
X-5646723Y-1228889D01*
X-5646723Y-1228889D02*
X-5656247Y-1190793D01*
X-5656247Y-1190793D02*
X-5656247Y-1143174D01*
X-5656247Y-1143174D02*
X-5646723Y-1105079D01*
X-5646723Y-1105079D02*
X-5637199Y-1086031D01*
X-5637199Y-1086031D02*
X-5627676Y-1076508D01*
X-5627676Y-1076508D02*
X-5608628Y-1066984D01*
X-5456247Y-1247936D02*
X-5446723Y-1257460D01*
X-5446723Y-1257460D02*
X-5456247Y-1266984D01*
X-5456247Y-1266984D02*
X-5465771Y-1257460D01*
X-5465771Y-1257460D02*
X-5456247Y-1247936D01*
X-5456247Y-1247936D02*
X-5456247Y-1266984D01*
X-5380057Y-1066984D02*
X-5246723Y-1066984D01*
X-5246723Y-1066984D02*
X-5332438Y-1266984D01*
X-5132438Y-1066984D02*
X-5113390Y-1066984D01*
X-5113390Y-1066984D02*
X-5094342Y-1076508D01*
X-5094342Y-1076508D02*
X-5084818Y-1086031D01*
X-5084818Y-1086031D02*
X-5075295Y-1105079D01*
X-5075295Y-1105079D02*
X-5065771Y-1143174D01*
X-5065771Y-1143174D02*
X-5065771Y-1190793D01*
X-5065771Y-1190793D02*
X-5075295Y-1228889D01*
X-5075295Y-1228889D02*
X-5084818Y-1247936D01*
X-5084818Y-1247936D02*
X-5094342Y-1257460D01*
X-5094342Y-1257460D02*
X-5113390Y-1266984D01*
X-5113390Y-1266984D02*
X-5132438Y-1266984D01*
X-5132438Y-1266984D02*
X-5151485Y-1257460D01*
X-5151485Y-1257460D02*
X-5161009Y-1247936D01*
X-5161009Y-1247936D02*
X-5170533Y-1228889D01*
X-5170533Y-1228889D02*
X-5180057Y-1190793D01*
X-5180057Y-1190793D02*
X-5180057Y-1143174D01*
X-5180057Y-1143174D02*
X-5170533Y-1105079D01*
X-5170533Y-1105079D02*
X-5161009Y-1086031D01*
X-5161009Y-1086031D02*
X-5151485Y-1076508D01*
X-5151485Y-1076508D02*
X-5132438Y-1066984D01*
X-4941961Y-1066984D02*
X-4922914Y-1066984D01*
X-4922914Y-1066984D02*
X-4903866Y-1076508D01*
X-4903866Y-1076508D02*
X-4894342Y-1086031D01*
X-4894342Y-1086031D02*
X-4884818Y-1105079D01*
X-4884818Y-1105079D02*
X-4875295Y-1143174D01*
X-4875295Y-1143174D02*
X-4875295Y-1190793D01*
X-4875295Y-1190793D02*
X-4884818Y-1228889D01*
X-4884818Y-1228889D02*
X-4894342Y-1247936D01*
X-4894342Y-1247936D02*
X-4903866Y-1257460D01*
X-4903866Y-1257460D02*
X-4922914Y-1266984D01*
X-4922914Y-1266984D02*
X-4941961Y-1266984D01*
X-4941961Y-1266984D02*
X-4961009Y-1257460D01*
X-4961009Y-1257460D02*
X-4970533Y-1247936D01*
X-4970533Y-1247936D02*
X-4980057Y-1228889D01*
X-4980057Y-1228889D02*
X-4989580Y-1190793D01*
X-4989580Y-1190793D02*
X-4989580Y-1143174D01*
X-4989580Y-1143174D02*
X-4980057Y-1105079D01*
X-4980057Y-1105079D02*
X-4970533Y-1086031D01*
X-4970533Y-1086031D02*
X-4961009Y-1076508D01*
X-4961009Y-1076508D02*
X-4941961Y-1066984D01*
X-4789580Y-1266984D02*
X-4789580Y-1133650D01*
X-4789580Y-1152698D02*
X-4780057Y-1143174D01*
X-4780057Y-1143174D02*
X-4761009Y-1133650D01*
X-4761009Y-1133650D02*
X-4732437Y-1133650D01*
X-4732437Y-1133650D02*
X-4713390Y-1143174D01*
X-4713390Y-1143174D02*
X-4703866Y-1162222D01*
X-4703866Y-1162222D02*
X-4703866Y-1266984D01*
X-4703866Y-1162222D02*
X-4694342Y-1143174D01*
X-4694342Y-1143174D02*
X-4675295Y-1133650D01*
X-4675295Y-1133650D02*
X-4646723Y-1133650D01*
X-4646723Y-1133650D02*
X-4627676Y-1143174D01*
X-4627676Y-1143174D02*
X-4618152Y-1162222D01*
X-4618152Y-1162222D02*
X-4618152Y-1266984D01*
X-4522914Y-1266984D02*
X-4522914Y-1133650D01*
X-4522914Y-1152698D02*
X-4513390Y-1143174D01*
X-4513390Y-1143174D02*
X-4494342Y-1133650D01*
X-4494342Y-1133650D02*
X-4465771Y-1133650D01*
X-4465771Y-1133650D02*
X-4446723Y-1143174D01*
X-4446723Y-1143174D02*
X-4437199Y-1162222D01*
X-4437199Y-1162222D02*
X-4437199Y-1266984D01*
X-4437199Y-1162222D02*
X-4427676Y-1143174D01*
X-4427676Y-1143174D02*
X-4408628Y-1133650D01*
X-4408628Y-1133650D02*
X-4380057Y-1133650D01*
X-4380057Y-1133650D02*
X-4361009Y-1143174D01*
X-4361009Y-1143174D02*
X-4351485Y-1162222D01*
X-4351485Y-1162222D02*
X-4351485Y-1266984D01*
X-3961009Y-1057460D02*
X-4132437Y-1314603D01*
X-3703866Y-1066984D02*
X-3684818Y-1066984D01*
X-3684818Y-1066984D02*
X-3665771Y-1076508D01*
X-3665771Y-1076508D02*
X-3656247Y-1086031D01*
X-3656247Y-1086031D02*
X-3646723Y-1105079D01*
X-3646723Y-1105079D02*
X-3637199Y-1143174D01*
X-3637199Y-1143174D02*
X-3637199Y-1190793D01*
X-3637199Y-1190793D02*
X-3646723Y-1228889D01*
X-3646723Y-1228889D02*
X-3656247Y-1247936D01*
X-3656247Y-1247936D02*
X-3665771Y-1257460D01*
X-3665771Y-1257460D02*
X-3684818Y-1266984D01*
X-3684818Y-1266984D02*
X-3703866Y-1266984D01*
X-3703866Y-1266984D02*
X-3722913Y-1257460D01*
X-3722913Y-1257460D02*
X-3732437Y-1247936D01*
X-3732437Y-1247936D02*
X-3741961Y-1228889D01*
X-3741961Y-1228889D02*
X-3751485Y-1190793D01*
X-3751485Y-1190793D02*
X-3751485Y-1143174D01*
X-3751485Y-1143174D02*
X-3741961Y-1105079D01*
X-3741961Y-1105079D02*
X-3732437Y-1086031D01*
X-3732437Y-1086031D02*
X-3722913Y-1076508D01*
X-3722913Y-1076508D02*
X-3703866Y-1066984D01*
X-3551485Y-1247936D02*
X-3541961Y-1257460D01*
X-3541961Y-1257460D02*
X-3551485Y-1266984D01*
X-3551485Y-1266984D02*
X-3561009Y-1257460D01*
X-3561009Y-1257460D02*
X-3551485Y-1247936D01*
X-3551485Y-1247936D02*
X-3551485Y-1266984D01*
X-3418152Y-1066984D02*
X-3399104Y-1066984D01*
X-3399104Y-1066984D02*
X-3380056Y-1076508D01*
X-3380056Y-1076508D02*
X-3370532Y-1086031D01*
X-3370532Y-1086031D02*
X-3361009Y-1105079D01*
X-3361009Y-1105079D02*
X-3351485Y-1143174D01*
X-3351485Y-1143174D02*
X-3351485Y-1190793D01*
X-3351485Y-1190793D02*
X-3361009Y-1228889D01*
X-3361009Y-1228889D02*
X-3370532Y-1247936D01*
X-3370532Y-1247936D02*
X-3380056Y-1257460D01*
X-3380056Y-1257460D02*
X-3399104Y-1266984D01*
X-3399104Y-1266984D02*
X-3418152Y-1266984D01*
X-3418152Y-1266984D02*
X-3437199Y-1257460D01*
X-3437199Y-1257460D02*
X-3446723Y-1247936D01*
X-3446723Y-1247936D02*
X-3456247Y-1228889D01*
X-3456247Y-1228889D02*
X-3465771Y-1190793D01*
X-3465771Y-1190793D02*
X-3465771Y-1143174D01*
X-3465771Y-1143174D02*
X-3456247Y-1105079D01*
X-3456247Y-1105079D02*
X-3446723Y-1086031D01*
X-3446723Y-1086031D02*
X-3437199Y-1076508D01*
X-3437199Y-1076508D02*
X-3418152Y-1066984D01*
X-3275294Y-1086031D02*
X-3265771Y-1076508D01*
X-3265771Y-1076508D02*
X-3246723Y-1066984D01*
X-3246723Y-1066984D02*
X-3199104Y-1066984D01*
X-3199104Y-1066984D02*
X-3180056Y-1076508D01*
X-3180056Y-1076508D02*
X-3170532Y-1086031D01*
X-3170532Y-1086031D02*
X-3161009Y-1105079D01*
X-3161009Y-1105079D02*
X-3161009Y-1124127D01*
X-3161009Y-1124127D02*
X-3170532Y-1152698D01*
X-3170532Y-1152698D02*
X-3284818Y-1266984D01*
X-3284818Y-1266984D02*
X-3161009Y-1266984D01*
X-3094342Y-1066984D02*
X-2961009Y-1066984D01*
X-2961009Y-1066984D02*
X-3046723Y-1266984D01*
X-2789580Y-1066984D02*
X-2884818Y-1066984D01*
X-2884818Y-1066984D02*
X-2894342Y-1162222D01*
X-2894342Y-1162222D02*
X-2884818Y-1152698D01*
X-2884818Y-1152698D02*
X-2865771Y-1143174D01*
X-2865771Y-1143174D02*
X-2818151Y-1143174D01*
X-2818151Y-1143174D02*
X-2799104Y-1152698D01*
X-2799104Y-1152698D02*
X-2789580Y-1162222D01*
X-2789580Y-1162222D02*
X-2780056Y-1181270D01*
X-2780056Y-1181270D02*
X-2780056Y-1228889D01*
X-2780056Y-1228889D02*
X-2789580Y-1247936D01*
X-2789580Y-1247936D02*
X-2799104Y-1257460D01*
X-2799104Y-1257460D02*
X-2818151Y-1266984D01*
X-2818151Y-1266984D02*
X-2865771Y-1266984D01*
X-2865771Y-1266984D02*
X-2884818Y-1257460D01*
X-2884818Y-1257460D02*
X-2894342Y-1247936D01*
X-2703866Y-1066984D02*
X-2703866Y-1105079D01*
X-2627675Y-1066984D02*
X-2627675Y-1105079D01*
X-2332437Y-1343174D02*
X-2341961Y-1333650D01*
X-2341961Y-1333650D02*
X-2361009Y-1305079D01*
X-2361009Y-1305079D02*
X-2370532Y-1286031D01*
X-2370532Y-1286031D02*
X-2380056Y-1257460D01*
X-2380056Y-1257460D02*
X-2389580Y-1209841D01*
X-2389580Y-1209841D02*
X-2389580Y-1171746D01*
X-2389580Y-1171746D02*
X-2380056Y-1124127D01*
X-2380056Y-1124127D02*
X-2370532Y-1095555D01*
X-2370532Y-1095555D02*
X-2361009Y-1076508D01*
X-2361009Y-1076508D02*
X-2341961Y-1047936D01*
X-2341961Y-1047936D02*
X-2332437Y-1038412D01*
X-2151485Y-1266984D02*
X-2265771Y-1266984D01*
X-2208628Y-1266984D02*
X-2208628Y-1066984D01*
X-2208628Y-1066984D02*
X-2227675Y-1095555D01*
X-2227675Y-1095555D02*
X-2246723Y-1114603D01*
X-2246723Y-1114603D02*
X-2265771Y-1124127D01*
X-1913389Y-1266984D02*
X-1913389Y-1066984D01*
X-1827675Y-1266984D02*
X-1827675Y-1162222D01*
X-1827675Y-1162222D02*
X-1837199Y-1143174D01*
X-1837199Y-1143174D02*
X-1856247Y-1133650D01*
X-1856247Y-1133650D02*
X-1884818Y-1133650D01*
X-1884818Y-1133650D02*
X-1903866Y-1143174D01*
X-1903866Y-1143174D02*
X-1913389Y-1152698D01*
X-1703866Y-1266984D02*
X-1722913Y-1257460D01*
X-1722913Y-1257460D02*
X-1732437Y-1247936D01*
X-1732437Y-1247936D02*
X-1741961Y-1228889D01*
X-1741961Y-1228889D02*
X-1741961Y-1171746D01*
X-1741961Y-1171746D02*
X-1732437Y-1152698D01*
X-1732437Y-1152698D02*
X-1722913Y-1143174D01*
X-1722913Y-1143174D02*
X-1703866Y-1133650D01*
X-1703866Y-1133650D02*
X-1675294Y-1133650D01*
X-1675294Y-1133650D02*
X-1656247Y-1143174D01*
X-1656247Y-1143174D02*
X-1646723Y-1152698D01*
X-1646723Y-1152698D02*
X-1637199Y-1171746D01*
X-1637199Y-1171746D02*
X-1637199Y-1228889D01*
X-1637199Y-1228889D02*
X-1646723Y-1247936D01*
X-1646723Y-1247936D02*
X-1656247Y-1257460D01*
X-1656247Y-1257460D02*
X-1675294Y-1266984D01*
X-1675294Y-1266984D02*
X-1703866Y-1266984D01*
X-1522913Y-1266984D02*
X-1541961Y-1257460D01*
X-1541961Y-1257460D02*
X-1551485Y-1238412D01*
X-1551485Y-1238412D02*
X-1551485Y-1066984D01*
X-1370532Y-1257460D02*
X-1389580Y-1266984D01*
X-1389580Y-1266984D02*
X-1427675Y-1266984D01*
X-1427675Y-1266984D02*
X-1446723Y-1257460D01*
X-1446723Y-1257460D02*
X-1456247Y-1238412D01*
X-1456247Y-1238412D02*
X-1456247Y-1162222D01*
X-1456247Y-1162222D02*
X-1446723Y-1143174D01*
X-1446723Y-1143174D02*
X-1427675Y-1133650D01*
X-1427675Y-1133650D02*
X-1389580Y-1133650D01*
X-1389580Y-1133650D02*
X-1370532Y-1143174D01*
X-1370532Y-1143174D02*
X-1361009Y-1162222D01*
X-1361009Y-1162222D02*
X-1361009Y-1181270D01*
X-1361009Y-1181270D02*
X-1456247Y-1200317D01*
X-1294342Y-1343174D02*
X-1284818Y-1333650D01*
X-1284818Y-1333650D02*
X-1265770Y-1305079D01*
X-1265770Y-1305079D02*
X-1256247Y-1286031D01*
X-1256247Y-1286031D02*
X-1246723Y-1257460D01*
X-1246723Y-1257460D02*
X-1237199Y-1209841D01*
X-1237199Y-1209841D02*
X-1237199Y-1171746D01*
X-1237199Y-1171746D02*
X-1246723Y-1124127D01*
X-1246723Y-1124127D02*
X-1256247Y-1095555D01*
X-1256247Y-1095555D02*
X-1265770Y-1076508D01*
X-1265770Y-1076508D02*
X-1284818Y-1047936D01*
X-1284818Y-1047936D02*
X-1294342Y-1038412D01*
D12*
X-5919215Y-1467784D02*
X-5919215Y-1411215D01*
X-5975784Y-1411215D01*
X-5975784Y-1467784D01*
X-5919215Y-1467784D01*
D11*
X-5608628Y-1330984D02*
X-5589580Y-1330984D01*
X-5589580Y-1330984D02*
X-5570533Y-1340508D01*
X-5570533Y-1340508D02*
X-5561009Y-1350031D01*
X-5561009Y-1350031D02*
X-5551485Y-1369079D01*
X-5551485Y-1369079D02*
X-5541961Y-1407174D01*
X-5541961Y-1407174D02*
X-5541961Y-1454793D01*
X-5541961Y-1454793D02*
X-5551485Y-1492888D01*
X-5551485Y-1492888D02*
X-5561009Y-1511936D01*
X-5561009Y-1511936D02*
X-5570533Y-1521460D01*
X-5570533Y-1521460D02*
X-5589580Y-1530984D01*
X-5589580Y-1530984D02*
X-5608628Y-1530984D01*
X-5608628Y-1530984D02*
X-5627676Y-1521460D01*
X-5627676Y-1521460D02*
X-5637199Y-1511936D01*
X-5637199Y-1511936D02*
X-5646723Y-1492888D01*
X-5646723Y-1492888D02*
X-5656247Y-1454793D01*
X-5656247Y-1454793D02*
X-5656247Y-1407174D01*
X-5656247Y-1407174D02*
X-5646723Y-1369079D01*
X-5646723Y-1369079D02*
X-5637199Y-1350031D01*
X-5637199Y-1350031D02*
X-5627676Y-1340508D01*
X-5627676Y-1340508D02*
X-5608628Y-1330984D01*
X-5456247Y-1511936D02*
X-5446723Y-1521460D01*
X-5446723Y-1521460D02*
X-5456247Y-1530984D01*
X-5456247Y-1530984D02*
X-5465771Y-1521460D01*
X-5465771Y-1521460D02*
X-5456247Y-1511936D01*
X-5456247Y-1511936D02*
X-5456247Y-1530984D01*
X-5332438Y-1416698D02*
X-5351485Y-1407174D01*
X-5351485Y-1407174D02*
X-5361009Y-1397650D01*
X-5361009Y-1397650D02*
X-5370533Y-1378603D01*
X-5370533Y-1378603D02*
X-5370533Y-1369079D01*
X-5370533Y-1369079D02*
X-5361009Y-1350031D01*
X-5361009Y-1350031D02*
X-5351485Y-1340508D01*
X-5351485Y-1340508D02*
X-5332438Y-1330984D01*
X-5332438Y-1330984D02*
X-5294342Y-1330984D01*
X-5294342Y-1330984D02*
X-5275295Y-1340508D01*
X-5275295Y-1340508D02*
X-5265771Y-1350031D01*
X-5265771Y-1350031D02*
X-5256247Y-1369079D01*
X-5256247Y-1369079D02*
X-5256247Y-1378603D01*
X-5256247Y-1378603D02*
X-5265771Y-1397650D01*
X-5265771Y-1397650D02*
X-5275295Y-1407174D01*
X-5275295Y-1407174D02*
X-5294342Y-1416698D01*
X-5294342Y-1416698D02*
X-5332438Y-1416698D01*
X-5332438Y-1416698D02*
X-5351485Y-1426222D01*
X-5351485Y-1426222D02*
X-5361009Y-1435746D01*
X-5361009Y-1435746D02*
X-5370533Y-1454793D01*
X-5370533Y-1454793D02*
X-5370533Y-1492888D01*
X-5370533Y-1492888D02*
X-5361009Y-1511936D01*
X-5361009Y-1511936D02*
X-5351485Y-1521460D01*
X-5351485Y-1521460D02*
X-5332438Y-1530984D01*
X-5332438Y-1530984D02*
X-5294342Y-1530984D01*
X-5294342Y-1530984D02*
X-5275295Y-1521460D01*
X-5275295Y-1521460D02*
X-5265771Y-1511936D01*
X-5265771Y-1511936D02*
X-5256247Y-1492888D01*
X-5256247Y-1492888D02*
X-5256247Y-1454793D01*
X-5256247Y-1454793D02*
X-5265771Y-1435746D01*
X-5265771Y-1435746D02*
X-5275295Y-1426222D01*
X-5275295Y-1426222D02*
X-5294342Y-1416698D01*
X-5132438Y-1330984D02*
X-5113390Y-1330984D01*
X-5113390Y-1330984D02*
X-5094342Y-1340508D01*
X-5094342Y-1340508D02*
X-5084818Y-1350031D01*
X-5084818Y-1350031D02*
X-5075295Y-1369079D01*
X-5075295Y-1369079D02*
X-5065771Y-1407174D01*
X-5065771Y-1407174D02*
X-5065771Y-1454793D01*
X-5065771Y-1454793D02*
X-5075295Y-1492888D01*
X-5075295Y-1492888D02*
X-5084818Y-1511936D01*
X-5084818Y-1511936D02*
X-5094342Y-1521460D01*
X-5094342Y-1521460D02*
X-5113390Y-1530984D01*
X-5113390Y-1530984D02*
X-5132438Y-1530984D01*
X-5132438Y-1530984D02*
X-5151485Y-1521460D01*
X-5151485Y-1521460D02*
X-5161009Y-1511936D01*
X-5161009Y-1511936D02*
X-5170533Y-1492888D01*
X-5170533Y-1492888D02*
X-5180057Y-1454793D01*
X-5180057Y-1454793D02*
X-5180057Y-1407174D01*
X-5180057Y-1407174D02*
X-5170533Y-1369079D01*
X-5170533Y-1369079D02*
X-5161009Y-1350031D01*
X-5161009Y-1350031D02*
X-5151485Y-1340508D01*
X-5151485Y-1340508D02*
X-5132438Y-1330984D01*
X-4941961Y-1330984D02*
X-4922914Y-1330984D01*
X-4922914Y-1330984D02*
X-4903866Y-1340508D01*
X-4903866Y-1340508D02*
X-4894342Y-1350031D01*
X-4894342Y-1350031D02*
X-4884818Y-1369079D01*
X-4884818Y-1369079D02*
X-4875295Y-1407174D01*
X-4875295Y-1407174D02*
X-4875295Y-1454793D01*
X-4875295Y-1454793D02*
X-4884818Y-1492888D01*
X-4884818Y-1492888D02*
X-4894342Y-1511936D01*
X-4894342Y-1511936D02*
X-4903866Y-1521460D01*
X-4903866Y-1521460D02*
X-4922914Y-1530984D01*
X-4922914Y-1530984D02*
X-4941961Y-1530984D01*
X-4941961Y-1530984D02*
X-4961009Y-1521460D01*
X-4961009Y-1521460D02*
X-4970533Y-1511936D01*
X-4970533Y-1511936D02*
X-4980057Y-1492888D01*
X-4980057Y-1492888D02*
X-4989580Y-1454793D01*
X-4989580Y-1454793D02*
X-4989580Y-1407174D01*
X-4989580Y-1407174D02*
X-4980057Y-1369079D01*
X-4980057Y-1369079D02*
X-4970533Y-1350031D01*
X-4970533Y-1350031D02*
X-4961009Y-1340508D01*
X-4961009Y-1340508D02*
X-4941961Y-1330984D01*
X-4789580Y-1530984D02*
X-4789580Y-1397650D01*
X-4789580Y-1416698D02*
X-4780057Y-1407174D01*
X-4780057Y-1407174D02*
X-4761009Y-1397650D01*
X-4761009Y-1397650D02*
X-4732437Y-1397650D01*
X-4732437Y-1397650D02*
X-4713390Y-1407174D01*
X-4713390Y-1407174D02*
X-4703866Y-1426222D01*
X-4703866Y-1426222D02*
X-4703866Y-1530984D01*
X-4703866Y-1426222D02*
X-4694342Y-1407174D01*
X-4694342Y-1407174D02*
X-4675295Y-1397650D01*
X-4675295Y-1397650D02*
X-4646723Y-1397650D01*
X-4646723Y-1397650D02*
X-4627676Y-1407174D01*
X-4627676Y-1407174D02*
X-4618152Y-1426222D01*
X-4618152Y-1426222D02*
X-4618152Y-1530984D01*
X-4522914Y-1530984D02*
X-4522914Y-1397650D01*
X-4522914Y-1416698D02*
X-4513390Y-1407174D01*
X-4513390Y-1407174D02*
X-4494342Y-1397650D01*
X-4494342Y-1397650D02*
X-4465771Y-1397650D01*
X-4465771Y-1397650D02*
X-4446723Y-1407174D01*
X-4446723Y-1407174D02*
X-4437199Y-1426222D01*
X-4437199Y-1426222D02*
X-4437199Y-1530984D01*
X-4437199Y-1426222D02*
X-4427676Y-1407174D01*
X-4427676Y-1407174D02*
X-4408628Y-1397650D01*
X-4408628Y-1397650D02*
X-4380057Y-1397650D01*
X-4380057Y-1397650D02*
X-4361009Y-1407174D01*
X-4361009Y-1407174D02*
X-4351485Y-1426222D01*
X-4351485Y-1426222D02*
X-4351485Y-1530984D01*
X-3961009Y-1321460D02*
X-4132437Y-1578603D01*
X-3703866Y-1330984D02*
X-3684818Y-1330984D01*
X-3684818Y-1330984D02*
X-3665771Y-1340508D01*
X-3665771Y-1340508D02*
X-3656247Y-1350031D01*
X-3656247Y-1350031D02*
X-3646723Y-1369079D01*
X-3646723Y-1369079D02*
X-3637199Y-1407174D01*
X-3637199Y-1407174D02*
X-3637199Y-1454793D01*
X-3637199Y-1454793D02*
X-3646723Y-1492888D01*
X-3646723Y-1492888D02*
X-3656247Y-1511936D01*
X-3656247Y-1511936D02*
X-3665771Y-1521460D01*
X-3665771Y-1521460D02*
X-3684818Y-1530984D01*
X-3684818Y-1530984D02*
X-3703866Y-1530984D01*
X-3703866Y-1530984D02*
X-3722913Y-1521460D01*
X-3722913Y-1521460D02*
X-3732437Y-1511936D01*
X-3732437Y-1511936D02*
X-3741961Y-1492888D01*
X-3741961Y-1492888D02*
X-3751485Y-1454793D01*
X-3751485Y-1454793D02*
X-3751485Y-1407174D01*
X-3751485Y-1407174D02*
X-3741961Y-1369079D01*
X-3741961Y-1369079D02*
X-3732437Y-1350031D01*
X-3732437Y-1350031D02*
X-3722913Y-1340508D01*
X-3722913Y-1340508D02*
X-3703866Y-1330984D01*
X-3551485Y-1511936D02*
X-3541961Y-1521460D01*
X-3541961Y-1521460D02*
X-3551485Y-1530984D01*
X-3551485Y-1530984D02*
X-3561009Y-1521460D01*
X-3561009Y-1521460D02*
X-3551485Y-1511936D01*
X-3551485Y-1511936D02*
X-3551485Y-1530984D01*
X-3418152Y-1330984D02*
X-3399104Y-1330984D01*
X-3399104Y-1330984D02*
X-3380056Y-1340508D01*
X-3380056Y-1340508D02*
X-3370532Y-1350031D01*
X-3370532Y-1350031D02*
X-3361009Y-1369079D01*
X-3361009Y-1369079D02*
X-3351485Y-1407174D01*
X-3351485Y-1407174D02*
X-3351485Y-1454793D01*
X-3351485Y-1454793D02*
X-3361009Y-1492888D01*
X-3361009Y-1492888D02*
X-3370532Y-1511936D01*
X-3370532Y-1511936D02*
X-3380056Y-1521460D01*
X-3380056Y-1521460D02*
X-3399104Y-1530984D01*
X-3399104Y-1530984D02*
X-3418152Y-1530984D01*
X-3418152Y-1530984D02*
X-3437199Y-1521460D01*
X-3437199Y-1521460D02*
X-3446723Y-1511936D01*
X-3446723Y-1511936D02*
X-3456247Y-1492888D01*
X-3456247Y-1492888D02*
X-3465771Y-1454793D01*
X-3465771Y-1454793D02*
X-3465771Y-1407174D01*
X-3465771Y-1407174D02*
X-3456247Y-1369079D01*
X-3456247Y-1369079D02*
X-3446723Y-1350031D01*
X-3446723Y-1350031D02*
X-3437199Y-1340508D01*
X-3437199Y-1340508D02*
X-3418152Y-1330984D01*
X-3284818Y-1330984D02*
X-3161009Y-1330984D01*
X-3161009Y-1330984D02*
X-3227675Y-1407174D01*
X-3227675Y-1407174D02*
X-3199104Y-1407174D01*
X-3199104Y-1407174D02*
X-3180056Y-1416698D01*
X-3180056Y-1416698D02*
X-3170532Y-1426222D01*
X-3170532Y-1426222D02*
X-3161009Y-1445269D01*
X-3161009Y-1445269D02*
X-3161009Y-1492888D01*
X-3161009Y-1492888D02*
X-3170532Y-1511936D01*
X-3170532Y-1511936D02*
X-3180056Y-1521460D01*
X-3180056Y-1521460D02*
X-3199104Y-1530984D01*
X-3199104Y-1530984D02*
X-3256247Y-1530984D01*
X-3256247Y-1530984D02*
X-3275294Y-1521460D01*
X-3275294Y-1521460D02*
X-3284818Y-1511936D01*
X-2970532Y-1530984D02*
X-3084818Y-1530984D01*
X-3027675Y-1530984D02*
X-3027675Y-1330984D01*
X-3027675Y-1330984D02*
X-3046723Y-1359555D01*
X-3046723Y-1359555D02*
X-3065771Y-1378603D01*
X-3065771Y-1378603D02*
X-3084818Y-1388127D01*
X-2789580Y-1330984D02*
X-2884818Y-1330984D01*
X-2884818Y-1330984D02*
X-2894342Y-1426222D01*
X-2894342Y-1426222D02*
X-2884818Y-1416698D01*
X-2884818Y-1416698D02*
X-2865771Y-1407174D01*
X-2865771Y-1407174D02*
X-2818151Y-1407174D01*
X-2818151Y-1407174D02*
X-2799104Y-1416698D01*
X-2799104Y-1416698D02*
X-2789580Y-1426222D01*
X-2789580Y-1426222D02*
X-2780056Y-1445269D01*
X-2780056Y-1445269D02*
X-2780056Y-1492888D01*
X-2780056Y-1492888D02*
X-2789580Y-1511936D01*
X-2789580Y-1511936D02*
X-2799104Y-1521460D01*
X-2799104Y-1521460D02*
X-2818151Y-1530984D01*
X-2818151Y-1530984D02*
X-2865771Y-1530984D01*
X-2865771Y-1530984D02*
X-2884818Y-1521460D01*
X-2884818Y-1521460D02*
X-2894342Y-1511936D01*
X-2703866Y-1330984D02*
X-2703866Y-1369079D01*
X-2627675Y-1330984D02*
X-2627675Y-1369079D01*
X-2332437Y-1607174D02*
X-2341961Y-1597650D01*
X-2341961Y-1597650D02*
X-2361009Y-1569079D01*
X-2361009Y-1569079D02*
X-2370532Y-1550031D01*
X-2370532Y-1550031D02*
X-2380056Y-1521460D01*
X-2380056Y-1521460D02*
X-2389580Y-1473841D01*
X-2389580Y-1473841D02*
X-2389580Y-1435746D01*
X-2389580Y-1435746D02*
X-2380056Y-1388127D01*
X-2380056Y-1388127D02*
X-2370532Y-1359555D01*
X-2370532Y-1359555D02*
X-2361009Y-1340508D01*
X-2361009Y-1340508D02*
X-2341961Y-1311936D01*
X-2341961Y-1311936D02*
X-2332437Y-1302412D01*
X-2151485Y-1530984D02*
X-2265771Y-1530984D01*
X-2208628Y-1530984D02*
X-2208628Y-1330984D01*
X-2208628Y-1330984D02*
X-2227675Y-1359555D01*
X-2227675Y-1359555D02*
X-2246723Y-1378603D01*
X-2246723Y-1378603D02*
X-2265771Y-1388127D01*
X-2075294Y-1350031D02*
X-2065770Y-1340508D01*
X-2065770Y-1340508D02*
X-2046723Y-1330984D01*
X-2046723Y-1330984D02*
X-1999104Y-1330984D01*
X-1999104Y-1330984D02*
X-1980056Y-1340508D01*
X-1980056Y-1340508D02*
X-1970532Y-1350031D01*
X-1970532Y-1350031D02*
X-1961009Y-1369079D01*
X-1961009Y-1369079D02*
X-1961009Y-1388127D01*
X-1961009Y-1388127D02*
X-1970532Y-1416698D01*
X-1970532Y-1416698D02*
X-2084818Y-1530984D01*
X-2084818Y-1530984D02*
X-1961009Y-1530984D01*
X-1722913Y-1530984D02*
X-1722913Y-1330984D01*
X-1637199Y-1530984D02*
X-1637199Y-1426222D01*
X-1637199Y-1426222D02*
X-1646723Y-1407174D01*
X-1646723Y-1407174D02*
X-1665770Y-1397650D01*
X-1665770Y-1397650D02*
X-1694342Y-1397650D01*
X-1694342Y-1397650D02*
X-1713389Y-1407174D01*
X-1713389Y-1407174D02*
X-1722913Y-1416698D01*
X-1513389Y-1530984D02*
X-1532437Y-1521460D01*
X-1532437Y-1521460D02*
X-1541961Y-1511936D01*
X-1541961Y-1511936D02*
X-1551485Y-1492888D01*
X-1551485Y-1492888D02*
X-1551485Y-1435746D01*
X-1551485Y-1435746D02*
X-1541961Y-1416698D01*
X-1541961Y-1416698D02*
X-1532437Y-1407174D01*
X-1532437Y-1407174D02*
X-1513389Y-1397650D01*
X-1513389Y-1397650D02*
X-1484818Y-1397650D01*
X-1484818Y-1397650D02*
X-1465770Y-1407174D01*
X-1465770Y-1407174D02*
X-1456247Y-1416698D01*
X-1456247Y-1416698D02*
X-1446723Y-1435746D01*
X-1446723Y-1435746D02*
X-1446723Y-1492888D01*
X-1446723Y-1492888D02*
X-1456247Y-1511936D01*
X-1456247Y-1511936D02*
X-1465770Y-1521460D01*
X-1465770Y-1521460D02*
X-1484818Y-1530984D01*
X-1484818Y-1530984D02*
X-1513389Y-1530984D01*
X-1332437Y-1530984D02*
X-1351485Y-1521460D01*
X-1351485Y-1521460D02*
X-1361009Y-1502412D01*
X-1361009Y-1502412D02*
X-1361009Y-1330984D01*
X-1180056Y-1521460D02*
X-1199104Y-1530984D01*
X-1199104Y-1530984D02*
X-1237199Y-1530984D01*
X-1237199Y-1530984D02*
X-1256247Y-1521460D01*
X-1256247Y-1521460D02*
X-1265770Y-1502412D01*
X-1265770Y-1502412D02*
X-1265770Y-1426222D01*
X-1265770Y-1426222D02*
X-1256247Y-1407174D01*
X-1256247Y-1407174D02*
X-1237199Y-1397650D01*
X-1237199Y-1397650D02*
X-1199104Y-1397650D01*
X-1199104Y-1397650D02*
X-1180056Y-1407174D01*
X-1180056Y-1407174D02*
X-1170532Y-1426222D01*
X-1170532Y-1426222D02*
X-1170532Y-1445269D01*
X-1170532Y-1445269D02*
X-1265770Y-1464317D01*
X-1094342Y-1521460D02*
X-1075294Y-1530984D01*
X-1075294Y-1530984D02*
X-1037199Y-1530984D01*
X-1037199Y-1530984D02*
X-1018151Y-1521460D01*
X-1018151Y-1521460D02*
X-1008627Y-1502412D01*
X-1008627Y-1502412D02*
X-1008627Y-1492888D01*
X-1008627Y-1492888D02*
X-1018151Y-1473841D01*
X-1018151Y-1473841D02*
X-1037199Y-1464317D01*
X-1037199Y-1464317D02*
X-1065770Y-1464317D01*
X-1065770Y-1464317D02*
X-1084818Y-1454793D01*
X-1084818Y-1454793D02*
X-1094342Y-1435746D01*
X-1094342Y-1435746D02*
X-1094342Y-1426222D01*
X-1094342Y-1426222D02*
X-1084818Y-1407174D01*
X-1084818Y-1407174D02*
X-1065770Y-1397650D01*
X-1065770Y-1397650D02*
X-1037199Y-1397650D01*
X-1037199Y-1397650D02*
X-1018151Y-1407174D01*
X-941961Y-1607174D02*
X-932437Y-1597650D01*
X-932437Y-1597650D02*
X-913389Y-1569079D01*
X-913389Y-1569079D02*
X-903866Y-1550031D01*
X-903866Y-1550031D02*
X-894342Y-1521460D01*
X-894342Y-1521460D02*
X-884818Y-1473841D01*
X-884818Y-1473841D02*
X-884818Y-1435746D01*
X-884818Y-1435746D02*
X-894342Y-1388127D01*
X-894342Y-1388127D02*
X-903866Y-1359555D01*
X-903866Y-1359555D02*
X-913389Y-1340508D01*
X-913389Y-1340508D02*
X-932437Y-1311936D01*
X-932437Y-1311936D02*
X-941961Y-1302412D01*
D12*
X-5951950Y-1747950D02*
X-5907500Y-1703500D01*
X-5951950Y-1659050D01*
X-5996400Y-1703500D01*
X-5951950Y-1747950D01*
D11*
X-5608628Y-1594984D02*
X-5589580Y-1594984D01*
X-5589580Y-1594984D02*
X-5570533Y-1604508D01*
X-5570533Y-1604508D02*
X-5561009Y-1614031D01*
X-5561009Y-1614031D02*
X-5551485Y-1633079D01*
X-5551485Y-1633079D02*
X-5541961Y-1671174D01*
X-5541961Y-1671174D02*
X-5541961Y-1718793D01*
X-5541961Y-1718793D02*
X-5551485Y-1756888D01*
X-5551485Y-1756888D02*
X-5561009Y-1775936D01*
X-5561009Y-1775936D02*
X-5570533Y-1785460D01*
X-5570533Y-1785460D02*
X-5589580Y-1794984D01*
X-5589580Y-1794984D02*
X-5608628Y-1794984D01*
X-5608628Y-1794984D02*
X-5627676Y-1785460D01*
X-5627676Y-1785460D02*
X-5637199Y-1775936D01*
X-5637199Y-1775936D02*
X-5646723Y-1756888D01*
X-5646723Y-1756888D02*
X-5656247Y-1718793D01*
X-5656247Y-1718793D02*
X-5656247Y-1671174D01*
X-5656247Y-1671174D02*
X-5646723Y-1633079D01*
X-5646723Y-1633079D02*
X-5637199Y-1614031D01*
X-5637199Y-1614031D02*
X-5627676Y-1604508D01*
X-5627676Y-1604508D02*
X-5608628Y-1594984D01*
X-5456247Y-1775936D02*
X-5446723Y-1785460D01*
X-5446723Y-1785460D02*
X-5456247Y-1794984D01*
X-5456247Y-1794984D02*
X-5465771Y-1785460D01*
X-5465771Y-1785460D02*
X-5456247Y-1775936D01*
X-5456247Y-1775936D02*
X-5456247Y-1794984D01*
X-5332438Y-1680698D02*
X-5351485Y-1671174D01*
X-5351485Y-1671174D02*
X-5361009Y-1661650D01*
X-5361009Y-1661650D02*
X-5370533Y-1642603D01*
X-5370533Y-1642603D02*
X-5370533Y-1633079D01*
X-5370533Y-1633079D02*
X-5361009Y-1614031D01*
X-5361009Y-1614031D02*
X-5351485Y-1604508D01*
X-5351485Y-1604508D02*
X-5332438Y-1594984D01*
X-5332438Y-1594984D02*
X-5294342Y-1594984D01*
X-5294342Y-1594984D02*
X-5275295Y-1604508D01*
X-5275295Y-1604508D02*
X-5265771Y-1614031D01*
X-5265771Y-1614031D02*
X-5256247Y-1633079D01*
X-5256247Y-1633079D02*
X-5256247Y-1642603D01*
X-5256247Y-1642603D02*
X-5265771Y-1661650D01*
X-5265771Y-1661650D02*
X-5275295Y-1671174D01*
X-5275295Y-1671174D02*
X-5294342Y-1680698D01*
X-5294342Y-1680698D02*
X-5332438Y-1680698D01*
X-5332438Y-1680698D02*
X-5351485Y-1690222D01*
X-5351485Y-1690222D02*
X-5361009Y-1699746D01*
X-5361009Y-1699746D02*
X-5370533Y-1718793D01*
X-5370533Y-1718793D02*
X-5370533Y-1756888D01*
X-5370533Y-1756888D02*
X-5361009Y-1775936D01*
X-5361009Y-1775936D02*
X-5351485Y-1785460D01*
X-5351485Y-1785460D02*
X-5332438Y-1794984D01*
X-5332438Y-1794984D02*
X-5294342Y-1794984D01*
X-5294342Y-1794984D02*
X-5275295Y-1785460D01*
X-5275295Y-1785460D02*
X-5265771Y-1775936D01*
X-5265771Y-1775936D02*
X-5256247Y-1756888D01*
X-5256247Y-1756888D02*
X-5256247Y-1718793D01*
X-5256247Y-1718793D02*
X-5265771Y-1699746D01*
X-5265771Y-1699746D02*
X-5275295Y-1690222D01*
X-5275295Y-1690222D02*
X-5294342Y-1680698D01*
X-5141961Y-1680698D02*
X-5161009Y-1671174D01*
X-5161009Y-1671174D02*
X-5170533Y-1661650D01*
X-5170533Y-1661650D02*
X-5180057Y-1642603D01*
X-5180057Y-1642603D02*
X-5180057Y-1633079D01*
X-5180057Y-1633079D02*
X-5170533Y-1614031D01*
X-5170533Y-1614031D02*
X-5161009Y-1604508D01*
X-5161009Y-1604508D02*
X-5141961Y-1594984D01*
X-5141961Y-1594984D02*
X-5103866Y-1594984D01*
X-5103866Y-1594984D02*
X-5084818Y-1604508D01*
X-5084818Y-1604508D02*
X-5075295Y-1614031D01*
X-5075295Y-1614031D02*
X-5065771Y-1633079D01*
X-5065771Y-1633079D02*
X-5065771Y-1642603D01*
X-5065771Y-1642603D02*
X-5075295Y-1661650D01*
X-5075295Y-1661650D02*
X-5084818Y-1671174D01*
X-5084818Y-1671174D02*
X-5103866Y-1680698D01*
X-5103866Y-1680698D02*
X-5141961Y-1680698D01*
X-5141961Y-1680698D02*
X-5161009Y-1690222D01*
X-5161009Y-1690222D02*
X-5170533Y-1699746D01*
X-5170533Y-1699746D02*
X-5180057Y-1718793D01*
X-5180057Y-1718793D02*
X-5180057Y-1756888D01*
X-5180057Y-1756888D02*
X-5170533Y-1775936D01*
X-5170533Y-1775936D02*
X-5161009Y-1785460D01*
X-5161009Y-1785460D02*
X-5141961Y-1794984D01*
X-5141961Y-1794984D02*
X-5103866Y-1794984D01*
X-5103866Y-1794984D02*
X-5084818Y-1785460D01*
X-5084818Y-1785460D02*
X-5075295Y-1775936D01*
X-5075295Y-1775936D02*
X-5065771Y-1756888D01*
X-5065771Y-1756888D02*
X-5065771Y-1718793D01*
X-5065771Y-1718793D02*
X-5075295Y-1699746D01*
X-5075295Y-1699746D02*
X-5084818Y-1690222D01*
X-5084818Y-1690222D02*
X-5103866Y-1680698D01*
X-4970533Y-1794984D02*
X-4932438Y-1794984D01*
X-4932438Y-1794984D02*
X-4913390Y-1785460D01*
X-4913390Y-1785460D02*
X-4903866Y-1775936D01*
X-4903866Y-1775936D02*
X-4884818Y-1747365D01*
X-4884818Y-1747365D02*
X-4875295Y-1709269D01*
X-4875295Y-1709269D02*
X-4875295Y-1633079D01*
X-4875295Y-1633079D02*
X-4884818Y-1614031D01*
X-4884818Y-1614031D02*
X-4894342Y-1604508D01*
X-4894342Y-1604508D02*
X-4913390Y-1594984D01*
X-4913390Y-1594984D02*
X-4951485Y-1594984D01*
X-4951485Y-1594984D02*
X-4970533Y-1604508D01*
X-4970533Y-1604508D02*
X-4980057Y-1614031D01*
X-4980057Y-1614031D02*
X-4989580Y-1633079D01*
X-4989580Y-1633079D02*
X-4989580Y-1680698D01*
X-4989580Y-1680698D02*
X-4980057Y-1699746D01*
X-4980057Y-1699746D02*
X-4970533Y-1709269D01*
X-4970533Y-1709269D02*
X-4951485Y-1718793D01*
X-4951485Y-1718793D02*
X-4913390Y-1718793D01*
X-4913390Y-1718793D02*
X-4894342Y-1709269D01*
X-4894342Y-1709269D02*
X-4884818Y-1699746D01*
X-4884818Y-1699746D02*
X-4875295Y-1680698D01*
X-4789580Y-1794984D02*
X-4789580Y-1661650D01*
X-4789580Y-1680698D02*
X-4780057Y-1671174D01*
X-4780057Y-1671174D02*
X-4761009Y-1661650D01*
X-4761009Y-1661650D02*
X-4732437Y-1661650D01*
X-4732437Y-1661650D02*
X-4713390Y-1671174D01*
X-4713390Y-1671174D02*
X-4703866Y-1690222D01*
X-4703866Y-1690222D02*
X-4703866Y-1794984D01*
X-4703866Y-1690222D02*
X-4694342Y-1671174D01*
X-4694342Y-1671174D02*
X-4675295Y-1661650D01*
X-4675295Y-1661650D02*
X-4646723Y-1661650D01*
X-4646723Y-1661650D02*
X-4627676Y-1671174D01*
X-4627676Y-1671174D02*
X-4618152Y-1690222D01*
X-4618152Y-1690222D02*
X-4618152Y-1794984D01*
X-4522914Y-1794984D02*
X-4522914Y-1661650D01*
X-4522914Y-1680698D02*
X-4513390Y-1671174D01*
X-4513390Y-1671174D02*
X-4494342Y-1661650D01*
X-4494342Y-1661650D02*
X-4465771Y-1661650D01*
X-4465771Y-1661650D02*
X-4446723Y-1671174D01*
X-4446723Y-1671174D02*
X-4437199Y-1690222D01*
X-4437199Y-1690222D02*
X-4437199Y-1794984D01*
X-4437199Y-1690222D02*
X-4427676Y-1671174D01*
X-4427676Y-1671174D02*
X-4408628Y-1661650D01*
X-4408628Y-1661650D02*
X-4380057Y-1661650D01*
X-4380057Y-1661650D02*
X-4361009Y-1671174D01*
X-4361009Y-1671174D02*
X-4351485Y-1690222D01*
X-4351485Y-1690222D02*
X-4351485Y-1794984D01*
X-3961009Y-1585460D02*
X-4132437Y-1842603D01*
X-3703866Y-1594984D02*
X-3684818Y-1594984D01*
X-3684818Y-1594984D02*
X-3665771Y-1604508D01*
X-3665771Y-1604508D02*
X-3656247Y-1614031D01*
X-3656247Y-1614031D02*
X-3646723Y-1633079D01*
X-3646723Y-1633079D02*
X-3637199Y-1671174D01*
X-3637199Y-1671174D02*
X-3637199Y-1718793D01*
X-3637199Y-1718793D02*
X-3646723Y-1756888D01*
X-3646723Y-1756888D02*
X-3656247Y-1775936D01*
X-3656247Y-1775936D02*
X-3665771Y-1785460D01*
X-3665771Y-1785460D02*
X-3684818Y-1794984D01*
X-3684818Y-1794984D02*
X-3703866Y-1794984D01*
X-3703866Y-1794984D02*
X-3722913Y-1785460D01*
X-3722913Y-1785460D02*
X-3732437Y-1775936D01*
X-3732437Y-1775936D02*
X-3741961Y-1756888D01*
X-3741961Y-1756888D02*
X-3751485Y-1718793D01*
X-3751485Y-1718793D02*
X-3751485Y-1671174D01*
X-3751485Y-1671174D02*
X-3741961Y-1633079D01*
X-3741961Y-1633079D02*
X-3732437Y-1614031D01*
X-3732437Y-1614031D02*
X-3722913Y-1604508D01*
X-3722913Y-1604508D02*
X-3703866Y-1594984D01*
X-3551485Y-1775936D02*
X-3541961Y-1785460D01*
X-3541961Y-1785460D02*
X-3551485Y-1794984D01*
X-3551485Y-1794984D02*
X-3561009Y-1785460D01*
X-3561009Y-1785460D02*
X-3551485Y-1775936D01*
X-3551485Y-1775936D02*
X-3551485Y-1794984D01*
X-3418152Y-1594984D02*
X-3399104Y-1594984D01*
X-3399104Y-1594984D02*
X-3380056Y-1604508D01*
X-3380056Y-1604508D02*
X-3370532Y-1614031D01*
X-3370532Y-1614031D02*
X-3361009Y-1633079D01*
X-3361009Y-1633079D02*
X-3351485Y-1671174D01*
X-3351485Y-1671174D02*
X-3351485Y-1718793D01*
X-3351485Y-1718793D02*
X-3361009Y-1756888D01*
X-3361009Y-1756888D02*
X-3370532Y-1775936D01*
X-3370532Y-1775936D02*
X-3380056Y-1785460D01*
X-3380056Y-1785460D02*
X-3399104Y-1794984D01*
X-3399104Y-1794984D02*
X-3418152Y-1794984D01*
X-3418152Y-1794984D02*
X-3437199Y-1785460D01*
X-3437199Y-1785460D02*
X-3446723Y-1775936D01*
X-3446723Y-1775936D02*
X-3456247Y-1756888D01*
X-3456247Y-1756888D02*
X-3465771Y-1718793D01*
X-3465771Y-1718793D02*
X-3465771Y-1671174D01*
X-3465771Y-1671174D02*
X-3456247Y-1633079D01*
X-3456247Y-1633079D02*
X-3446723Y-1614031D01*
X-3446723Y-1614031D02*
X-3437199Y-1604508D01*
X-3437199Y-1604508D02*
X-3418152Y-1594984D01*
X-3284818Y-1594984D02*
X-3161009Y-1594984D01*
X-3161009Y-1594984D02*
X-3227675Y-1671174D01*
X-3227675Y-1671174D02*
X-3199104Y-1671174D01*
X-3199104Y-1671174D02*
X-3180056Y-1680698D01*
X-3180056Y-1680698D02*
X-3170532Y-1690222D01*
X-3170532Y-1690222D02*
X-3161009Y-1709269D01*
X-3161009Y-1709269D02*
X-3161009Y-1756888D01*
X-3161009Y-1756888D02*
X-3170532Y-1775936D01*
X-3170532Y-1775936D02*
X-3180056Y-1785460D01*
X-3180056Y-1785460D02*
X-3199104Y-1794984D01*
X-3199104Y-1794984D02*
X-3256247Y-1794984D01*
X-3256247Y-1794984D02*
X-3275294Y-1785460D01*
X-3275294Y-1785460D02*
X-3284818Y-1775936D01*
X-2980056Y-1594984D02*
X-3075294Y-1594984D01*
X-3075294Y-1594984D02*
X-3084818Y-1690222D01*
X-3084818Y-1690222D02*
X-3075294Y-1680698D01*
X-3075294Y-1680698D02*
X-3056247Y-1671174D01*
X-3056247Y-1671174D02*
X-3008628Y-1671174D01*
X-3008628Y-1671174D02*
X-2989580Y-1680698D01*
X-2989580Y-1680698D02*
X-2980056Y-1690222D01*
X-2980056Y-1690222D02*
X-2970532Y-1709269D01*
X-2970532Y-1709269D02*
X-2970532Y-1756888D01*
X-2970532Y-1756888D02*
X-2980056Y-1775936D01*
X-2980056Y-1775936D02*
X-2989580Y-1785460D01*
X-2989580Y-1785460D02*
X-3008628Y-1794984D01*
X-3008628Y-1794984D02*
X-3056247Y-1794984D01*
X-3056247Y-1794984D02*
X-3075294Y-1785460D01*
X-3075294Y-1785460D02*
X-3084818Y-1775936D01*
X-2846723Y-1594984D02*
X-2827675Y-1594984D01*
X-2827675Y-1594984D02*
X-2808628Y-1604508D01*
X-2808628Y-1604508D02*
X-2799104Y-1614031D01*
X-2799104Y-1614031D02*
X-2789580Y-1633079D01*
X-2789580Y-1633079D02*
X-2780056Y-1671174D01*
X-2780056Y-1671174D02*
X-2780056Y-1718793D01*
X-2780056Y-1718793D02*
X-2789580Y-1756888D01*
X-2789580Y-1756888D02*
X-2799104Y-1775936D01*
X-2799104Y-1775936D02*
X-2808628Y-1785460D01*
X-2808628Y-1785460D02*
X-2827675Y-1794984D01*
X-2827675Y-1794984D02*
X-2846723Y-1794984D01*
X-2846723Y-1794984D02*
X-2865771Y-1785460D01*
X-2865771Y-1785460D02*
X-2875294Y-1775936D01*
X-2875294Y-1775936D02*
X-2884818Y-1756888D01*
X-2884818Y-1756888D02*
X-2894342Y-1718793D01*
X-2894342Y-1718793D02*
X-2894342Y-1671174D01*
X-2894342Y-1671174D02*
X-2884818Y-1633079D01*
X-2884818Y-1633079D02*
X-2875294Y-1614031D01*
X-2875294Y-1614031D02*
X-2865771Y-1604508D01*
X-2865771Y-1604508D02*
X-2846723Y-1594984D01*
X-2703866Y-1594984D02*
X-2703866Y-1633079D01*
X-2627675Y-1594984D02*
X-2627675Y-1633079D01*
X-2332437Y-1871174D02*
X-2341961Y-1861650D01*
X-2341961Y-1861650D02*
X-2361009Y-1833079D01*
X-2361009Y-1833079D02*
X-2370532Y-1814031D01*
X-2370532Y-1814031D02*
X-2380056Y-1785460D01*
X-2380056Y-1785460D02*
X-2389580Y-1737841D01*
X-2389580Y-1737841D02*
X-2389580Y-1699746D01*
X-2389580Y-1699746D02*
X-2380056Y-1652127D01*
X-2380056Y-1652127D02*
X-2370532Y-1623555D01*
X-2370532Y-1623555D02*
X-2361009Y-1604508D01*
X-2361009Y-1604508D02*
X-2341961Y-1575936D01*
X-2341961Y-1575936D02*
X-2332437Y-1566412D01*
X-2151485Y-1794984D02*
X-2265771Y-1794984D01*
X-2208628Y-1794984D02*
X-2208628Y-1594984D01*
X-2208628Y-1594984D02*
X-2227675Y-1623555D01*
X-2227675Y-1623555D02*
X-2246723Y-1642603D01*
X-2246723Y-1642603D02*
X-2265771Y-1652127D01*
X-2075294Y-1614031D02*
X-2065770Y-1604508D01*
X-2065770Y-1604508D02*
X-2046723Y-1594984D01*
X-2046723Y-1594984D02*
X-1999104Y-1594984D01*
X-1999104Y-1594984D02*
X-1980056Y-1604508D01*
X-1980056Y-1604508D02*
X-1970532Y-1614031D01*
X-1970532Y-1614031D02*
X-1961009Y-1633079D01*
X-1961009Y-1633079D02*
X-1961009Y-1652127D01*
X-1961009Y-1652127D02*
X-1970532Y-1680698D01*
X-1970532Y-1680698D02*
X-2084818Y-1794984D01*
X-2084818Y-1794984D02*
X-1961009Y-1794984D01*
X-1722913Y-1794984D02*
X-1722913Y-1594984D01*
X-1637199Y-1794984D02*
X-1637199Y-1690222D01*
X-1637199Y-1690222D02*
X-1646723Y-1671174D01*
X-1646723Y-1671174D02*
X-1665770Y-1661650D01*
X-1665770Y-1661650D02*
X-1694342Y-1661650D01*
X-1694342Y-1661650D02*
X-1713389Y-1671174D01*
X-1713389Y-1671174D02*
X-1722913Y-1680698D01*
X-1513389Y-1794984D02*
X-1532437Y-1785460D01*
X-1532437Y-1785460D02*
X-1541961Y-1775936D01*
X-1541961Y-1775936D02*
X-1551485Y-1756888D01*
X-1551485Y-1756888D02*
X-1551485Y-1699746D01*
X-1551485Y-1699746D02*
X-1541961Y-1680698D01*
X-1541961Y-1680698D02*
X-1532437Y-1671174D01*
X-1532437Y-1671174D02*
X-1513389Y-1661650D01*
X-1513389Y-1661650D02*
X-1484818Y-1661650D01*
X-1484818Y-1661650D02*
X-1465770Y-1671174D01*
X-1465770Y-1671174D02*
X-1456247Y-1680698D01*
X-1456247Y-1680698D02*
X-1446723Y-1699746D01*
X-1446723Y-1699746D02*
X-1446723Y-1756888D01*
X-1446723Y-1756888D02*
X-1456247Y-1775936D01*
X-1456247Y-1775936D02*
X-1465770Y-1785460D01*
X-1465770Y-1785460D02*
X-1484818Y-1794984D01*
X-1484818Y-1794984D02*
X-1513389Y-1794984D01*
X-1332437Y-1794984D02*
X-1351485Y-1785460D01*
X-1351485Y-1785460D02*
X-1361009Y-1766412D01*
X-1361009Y-1766412D02*
X-1361009Y-1594984D01*
X-1180056Y-1785460D02*
X-1199104Y-1794984D01*
X-1199104Y-1794984D02*
X-1237199Y-1794984D01*
X-1237199Y-1794984D02*
X-1256247Y-1785460D01*
X-1256247Y-1785460D02*
X-1265770Y-1766412D01*
X-1265770Y-1766412D02*
X-1265770Y-1690222D01*
X-1265770Y-1690222D02*
X-1256247Y-1671174D01*
X-1256247Y-1671174D02*
X-1237199Y-1661650D01*
X-1237199Y-1661650D02*
X-1199104Y-1661650D01*
X-1199104Y-1661650D02*
X-1180056Y-1671174D01*
X-1180056Y-1671174D02*
X-1170532Y-1690222D01*
X-1170532Y-1690222D02*
X-1170532Y-1709269D01*
X-1170532Y-1709269D02*
X-1265770Y-1728317D01*
X-1094342Y-1785460D02*
X-1075294Y-1794984D01*
X-1075294Y-1794984D02*
X-1037199Y-1794984D01*
X-1037199Y-1794984D02*
X-1018151Y-1785460D01*
X-1018151Y-1785460D02*
X-1008627Y-1766412D01*
X-1008627Y-1766412D02*
X-1008627Y-1756888D01*
X-1008627Y-1756888D02*
X-1018151Y-1737841D01*
X-1018151Y-1737841D02*
X-1037199Y-1728317D01*
X-1037199Y-1728317D02*
X-1065770Y-1728317D01*
X-1065770Y-1728317D02*
X-1084818Y-1718793D01*
X-1084818Y-1718793D02*
X-1094342Y-1699746D01*
X-1094342Y-1699746D02*
X-1094342Y-1690222D01*
X-1094342Y-1690222D02*
X-1084818Y-1671174D01*
X-1084818Y-1671174D02*
X-1065770Y-1661650D01*
X-1065770Y-1661650D02*
X-1037199Y-1661650D01*
X-1037199Y-1661650D02*
X-1018151Y-1671174D01*
X-941961Y-1871174D02*
X-932437Y-1861650D01*
X-932437Y-1861650D02*
X-913389Y-1833079D01*
X-913389Y-1833079D02*
X-903866Y-1814031D01*
X-903866Y-1814031D02*
X-894342Y-1785460D01*
X-894342Y-1785460D02*
X-884818Y-1737841D01*
X-884818Y-1737841D02*
X-884818Y-1699746D01*
X-884818Y-1699746D02*
X-894342Y-1652127D01*
X-894342Y-1652127D02*
X-903866Y-1623555D01*
X-903866Y-1623555D02*
X-913389Y-1604508D01*
X-913389Y-1604508D02*
X-932437Y-1575936D01*
X-932437Y-1575936D02*
X-941961Y-1566412D01*
D12*
X-5998940Y-1921780D02*
X-5907500Y-2013220D01*
X-5907500Y-1921780D02*
X-5998940Y-2013220D01*
X-5907500Y-1967500D02*
G75*
G02*
X-5998940Y-1967500I-45720J0D01*
G01*
X-5998940Y-1967500D02*
G75*
G02*
X-5907500Y-1967500I45720J0D01*
G01*
D11*
X-5608628Y-1858984D02*
X-5589580Y-1858984D01*
X-5589580Y-1858984D02*
X-5570533Y-1868508D01*
X-5570533Y-1868508D02*
X-5561009Y-1878031D01*
X-5561009Y-1878031D02*
X-5551485Y-1897079D01*
X-5551485Y-1897079D02*
X-5541961Y-1935174D01*
X-5541961Y-1935174D02*
X-5541961Y-1982793D01*
X-5541961Y-1982793D02*
X-5551485Y-2020888D01*
X-5551485Y-2020888D02*
X-5561009Y-2039936D01*
X-5561009Y-2039936D02*
X-5570533Y-2049460D01*
X-5570533Y-2049460D02*
X-5589580Y-2058984D01*
X-5589580Y-2058984D02*
X-5608628Y-2058984D01*
X-5608628Y-2058984D02*
X-5627676Y-2049460D01*
X-5627676Y-2049460D02*
X-5637199Y-2039936D01*
X-5637199Y-2039936D02*
X-5646723Y-2020888D01*
X-5646723Y-2020888D02*
X-5656247Y-1982793D01*
X-5656247Y-1982793D02*
X-5656247Y-1935174D01*
X-5656247Y-1935174D02*
X-5646723Y-1897079D01*
X-5646723Y-1897079D02*
X-5637199Y-1878031D01*
X-5637199Y-1878031D02*
X-5627676Y-1868508D01*
X-5627676Y-1868508D02*
X-5608628Y-1858984D01*
X-5456247Y-2039936D02*
X-5446723Y-2049460D01*
X-5446723Y-2049460D02*
X-5456247Y-2058984D01*
X-5456247Y-2058984D02*
X-5465771Y-2049460D01*
X-5465771Y-2049460D02*
X-5456247Y-2039936D01*
X-5456247Y-2039936D02*
X-5456247Y-2058984D01*
X-5351485Y-2058984D02*
X-5313390Y-2058984D01*
X-5313390Y-2058984D02*
X-5294342Y-2049460D01*
X-5294342Y-2049460D02*
X-5284818Y-2039936D01*
X-5284818Y-2039936D02*
X-5265771Y-2011365D01*
X-5265771Y-2011365D02*
X-5256247Y-1973269D01*
X-5256247Y-1973269D02*
X-5256247Y-1897079D01*
X-5256247Y-1897079D02*
X-5265771Y-1878031D01*
X-5265771Y-1878031D02*
X-5275295Y-1868508D01*
X-5275295Y-1868508D02*
X-5294342Y-1858984D01*
X-5294342Y-1858984D02*
X-5332438Y-1858984D01*
X-5332438Y-1858984D02*
X-5351485Y-1868508D01*
X-5351485Y-1868508D02*
X-5361009Y-1878031D01*
X-5361009Y-1878031D02*
X-5370533Y-1897079D01*
X-5370533Y-1897079D02*
X-5370533Y-1944698D01*
X-5370533Y-1944698D02*
X-5361009Y-1963746D01*
X-5361009Y-1963746D02*
X-5351485Y-1973269D01*
X-5351485Y-1973269D02*
X-5332438Y-1982793D01*
X-5332438Y-1982793D02*
X-5294342Y-1982793D01*
X-5294342Y-1982793D02*
X-5275295Y-1973269D01*
X-5275295Y-1973269D02*
X-5265771Y-1963746D01*
X-5265771Y-1963746D02*
X-5256247Y-1944698D01*
X-5065771Y-2058984D02*
X-5180057Y-2058984D01*
X-5122914Y-2058984D02*
X-5122914Y-1858984D01*
X-5122914Y-1858984D02*
X-5141961Y-1887555D01*
X-5141961Y-1887555D02*
X-5161009Y-1906603D01*
X-5161009Y-1906603D02*
X-5180057Y-1916127D01*
X-4894342Y-1925650D02*
X-4894342Y-2058984D01*
X-4941961Y-1849460D02*
X-4989580Y-1992317D01*
X-4989580Y-1992317D02*
X-4865771Y-1992317D01*
X-4789580Y-2058984D02*
X-4789580Y-1925650D01*
X-4789580Y-1944698D02*
X-4780057Y-1935174D01*
X-4780057Y-1935174D02*
X-4761009Y-1925650D01*
X-4761009Y-1925650D02*
X-4732437Y-1925650D01*
X-4732437Y-1925650D02*
X-4713390Y-1935174D01*
X-4713390Y-1935174D02*
X-4703866Y-1954222D01*
X-4703866Y-1954222D02*
X-4703866Y-2058984D01*
X-4703866Y-1954222D02*
X-4694342Y-1935174D01*
X-4694342Y-1935174D02*
X-4675295Y-1925650D01*
X-4675295Y-1925650D02*
X-4646723Y-1925650D01*
X-4646723Y-1925650D02*
X-4627676Y-1935174D01*
X-4627676Y-1935174D02*
X-4618152Y-1954222D01*
X-4618152Y-1954222D02*
X-4618152Y-2058984D01*
X-4522914Y-2058984D02*
X-4522914Y-1925650D01*
X-4522914Y-1944698D02*
X-4513390Y-1935174D01*
X-4513390Y-1935174D02*
X-4494342Y-1925650D01*
X-4494342Y-1925650D02*
X-4465771Y-1925650D01*
X-4465771Y-1925650D02*
X-4446723Y-1935174D01*
X-4446723Y-1935174D02*
X-4437199Y-1954222D01*
X-4437199Y-1954222D02*
X-4437199Y-2058984D01*
X-4437199Y-1954222D02*
X-4427676Y-1935174D01*
X-4427676Y-1935174D02*
X-4408628Y-1925650D01*
X-4408628Y-1925650D02*
X-4380057Y-1925650D01*
X-4380057Y-1925650D02*
X-4361009Y-1935174D01*
X-4361009Y-1935174D02*
X-4351485Y-1954222D01*
X-4351485Y-1954222D02*
X-4351485Y-2058984D01*
X-3961009Y-1849460D02*
X-4132437Y-2106603D01*
X-3703866Y-1858984D02*
X-3684818Y-1858984D01*
X-3684818Y-1858984D02*
X-3665771Y-1868508D01*
X-3665771Y-1868508D02*
X-3656247Y-1878031D01*
X-3656247Y-1878031D02*
X-3646723Y-1897079D01*
X-3646723Y-1897079D02*
X-3637199Y-1935174D01*
X-3637199Y-1935174D02*
X-3637199Y-1982793D01*
X-3637199Y-1982793D02*
X-3646723Y-2020888D01*
X-3646723Y-2020888D02*
X-3656247Y-2039936D01*
X-3656247Y-2039936D02*
X-3665771Y-2049460D01*
X-3665771Y-2049460D02*
X-3684818Y-2058984D01*
X-3684818Y-2058984D02*
X-3703866Y-2058984D01*
X-3703866Y-2058984D02*
X-3722913Y-2049460D01*
X-3722913Y-2049460D02*
X-3732437Y-2039936D01*
X-3732437Y-2039936D02*
X-3741961Y-2020888D01*
X-3741961Y-2020888D02*
X-3751485Y-1982793D01*
X-3751485Y-1982793D02*
X-3751485Y-1935174D01*
X-3751485Y-1935174D02*
X-3741961Y-1897079D01*
X-3741961Y-1897079D02*
X-3732437Y-1878031D01*
X-3732437Y-1878031D02*
X-3722913Y-1868508D01*
X-3722913Y-1868508D02*
X-3703866Y-1858984D01*
X-3551485Y-2039936D02*
X-3541961Y-2049460D01*
X-3541961Y-2049460D02*
X-3551485Y-2058984D01*
X-3551485Y-2058984D02*
X-3561009Y-2049460D01*
X-3561009Y-2049460D02*
X-3551485Y-2039936D01*
X-3551485Y-2039936D02*
X-3551485Y-2058984D01*
X-3418152Y-1858984D02*
X-3399104Y-1858984D01*
X-3399104Y-1858984D02*
X-3380056Y-1868508D01*
X-3380056Y-1868508D02*
X-3370532Y-1878031D01*
X-3370532Y-1878031D02*
X-3361009Y-1897079D01*
X-3361009Y-1897079D02*
X-3351485Y-1935174D01*
X-3351485Y-1935174D02*
X-3351485Y-1982793D01*
X-3351485Y-1982793D02*
X-3361009Y-2020888D01*
X-3361009Y-2020888D02*
X-3370532Y-2039936D01*
X-3370532Y-2039936D02*
X-3380056Y-2049460D01*
X-3380056Y-2049460D02*
X-3399104Y-2058984D01*
X-3399104Y-2058984D02*
X-3418152Y-2058984D01*
X-3418152Y-2058984D02*
X-3437199Y-2049460D01*
X-3437199Y-2049460D02*
X-3446723Y-2039936D01*
X-3446723Y-2039936D02*
X-3456247Y-2020888D01*
X-3456247Y-2020888D02*
X-3465771Y-1982793D01*
X-3465771Y-1982793D02*
X-3465771Y-1935174D01*
X-3465771Y-1935174D02*
X-3456247Y-1897079D01*
X-3456247Y-1897079D02*
X-3446723Y-1878031D01*
X-3446723Y-1878031D02*
X-3437199Y-1868508D01*
X-3437199Y-1868508D02*
X-3418152Y-1858984D01*
X-3284818Y-1858984D02*
X-3161009Y-1858984D01*
X-3161009Y-1858984D02*
X-3227675Y-1935174D01*
X-3227675Y-1935174D02*
X-3199104Y-1935174D01*
X-3199104Y-1935174D02*
X-3180056Y-1944698D01*
X-3180056Y-1944698D02*
X-3170532Y-1954222D01*
X-3170532Y-1954222D02*
X-3161009Y-1973269D01*
X-3161009Y-1973269D02*
X-3161009Y-2020888D01*
X-3161009Y-2020888D02*
X-3170532Y-2039936D01*
X-3170532Y-2039936D02*
X-3180056Y-2049460D01*
X-3180056Y-2049460D02*
X-3199104Y-2058984D01*
X-3199104Y-2058984D02*
X-3256247Y-2058984D01*
X-3256247Y-2058984D02*
X-3275294Y-2049460D01*
X-3275294Y-2049460D02*
X-3284818Y-2039936D01*
X-2989580Y-1858984D02*
X-3027675Y-1858984D01*
X-3027675Y-1858984D02*
X-3046723Y-1868508D01*
X-3046723Y-1868508D02*
X-3056247Y-1878031D01*
X-3056247Y-1878031D02*
X-3075294Y-1906603D01*
X-3075294Y-1906603D02*
X-3084818Y-1944698D01*
X-3084818Y-1944698D02*
X-3084818Y-2020888D01*
X-3084818Y-2020888D02*
X-3075294Y-2039936D01*
X-3075294Y-2039936D02*
X-3065771Y-2049460D01*
X-3065771Y-2049460D02*
X-3046723Y-2058984D01*
X-3046723Y-2058984D02*
X-3008628Y-2058984D01*
X-3008628Y-2058984D02*
X-2989580Y-2049460D01*
X-2989580Y-2049460D02*
X-2980056Y-2039936D01*
X-2980056Y-2039936D02*
X-2970532Y-2020888D01*
X-2970532Y-2020888D02*
X-2970532Y-1973269D01*
X-2970532Y-1973269D02*
X-2980056Y-1954222D01*
X-2980056Y-1954222D02*
X-2989580Y-1944698D01*
X-2989580Y-1944698D02*
X-3008628Y-1935174D01*
X-3008628Y-1935174D02*
X-3046723Y-1935174D01*
X-3046723Y-1935174D02*
X-3065771Y-1944698D01*
X-3065771Y-1944698D02*
X-3075294Y-1954222D01*
X-3075294Y-1954222D02*
X-3084818Y-1973269D01*
X-2846723Y-1858984D02*
X-2827675Y-1858984D01*
X-2827675Y-1858984D02*
X-2808628Y-1868508D01*
X-2808628Y-1868508D02*
X-2799104Y-1878031D01*
X-2799104Y-1878031D02*
X-2789580Y-1897079D01*
X-2789580Y-1897079D02*
X-2780056Y-1935174D01*
X-2780056Y-1935174D02*
X-2780056Y-1982793D01*
X-2780056Y-1982793D02*
X-2789580Y-2020888D01*
X-2789580Y-2020888D02*
X-2799104Y-2039936D01*
X-2799104Y-2039936D02*
X-2808628Y-2049460D01*
X-2808628Y-2049460D02*
X-2827675Y-2058984D01*
X-2827675Y-2058984D02*
X-2846723Y-2058984D01*
X-2846723Y-2058984D02*
X-2865771Y-2049460D01*
X-2865771Y-2049460D02*
X-2875294Y-2039936D01*
X-2875294Y-2039936D02*
X-2884818Y-2020888D01*
X-2884818Y-2020888D02*
X-2894342Y-1982793D01*
X-2894342Y-1982793D02*
X-2894342Y-1935174D01*
X-2894342Y-1935174D02*
X-2884818Y-1897079D01*
X-2884818Y-1897079D02*
X-2875294Y-1878031D01*
X-2875294Y-1878031D02*
X-2865771Y-1868508D01*
X-2865771Y-1868508D02*
X-2846723Y-1858984D01*
X-2703866Y-1858984D02*
X-2703866Y-1897079D01*
X-2627675Y-1858984D02*
X-2627675Y-1897079D01*
X-2332437Y-2135174D02*
X-2341961Y-2125650D01*
X-2341961Y-2125650D02*
X-2361009Y-2097079D01*
X-2361009Y-2097079D02*
X-2370532Y-2078031D01*
X-2370532Y-2078031D02*
X-2380056Y-2049460D01*
X-2380056Y-2049460D02*
X-2389580Y-2001841D01*
X-2389580Y-2001841D02*
X-2389580Y-1963746D01*
X-2389580Y-1963746D02*
X-2380056Y-1916127D01*
X-2380056Y-1916127D02*
X-2370532Y-1887555D01*
X-2370532Y-1887555D02*
X-2361009Y-1868508D01*
X-2361009Y-1868508D02*
X-2341961Y-1839936D01*
X-2341961Y-1839936D02*
X-2332437Y-1830412D01*
X-2265771Y-1878031D02*
X-2256247Y-1868508D01*
X-2256247Y-1868508D02*
X-2237199Y-1858984D01*
X-2237199Y-1858984D02*
X-2189580Y-1858984D01*
X-2189580Y-1858984D02*
X-2170532Y-1868508D01*
X-2170532Y-1868508D02*
X-2161009Y-1878031D01*
X-2161009Y-1878031D02*
X-2151485Y-1897079D01*
X-2151485Y-1897079D02*
X-2151485Y-1916127D01*
X-2151485Y-1916127D02*
X-2161009Y-1944698D01*
X-2161009Y-1944698D02*
X-2275294Y-2058984D01*
X-2275294Y-2058984D02*
X-2151485Y-2058984D01*
X-1913389Y-2058984D02*
X-1913389Y-1858984D01*
X-1827675Y-2058984D02*
X-1827675Y-1954222D01*
X-1827675Y-1954222D02*
X-1837199Y-1935174D01*
X-1837199Y-1935174D02*
X-1856247Y-1925650D01*
X-1856247Y-1925650D02*
X-1884818Y-1925650D01*
X-1884818Y-1925650D02*
X-1903866Y-1935174D01*
X-1903866Y-1935174D02*
X-1913389Y-1944698D01*
X-1703866Y-2058984D02*
X-1722913Y-2049460D01*
X-1722913Y-2049460D02*
X-1732437Y-2039936D01*
X-1732437Y-2039936D02*
X-1741961Y-2020888D01*
X-1741961Y-2020888D02*
X-1741961Y-1963746D01*
X-1741961Y-1963746D02*
X-1732437Y-1944698D01*
X-1732437Y-1944698D02*
X-1722913Y-1935174D01*
X-1722913Y-1935174D02*
X-1703866Y-1925650D01*
X-1703866Y-1925650D02*
X-1675294Y-1925650D01*
X-1675294Y-1925650D02*
X-1656247Y-1935174D01*
X-1656247Y-1935174D02*
X-1646723Y-1944698D01*
X-1646723Y-1944698D02*
X-1637199Y-1963746D01*
X-1637199Y-1963746D02*
X-1637199Y-2020888D01*
X-1637199Y-2020888D02*
X-1646723Y-2039936D01*
X-1646723Y-2039936D02*
X-1656247Y-2049460D01*
X-1656247Y-2049460D02*
X-1675294Y-2058984D01*
X-1675294Y-2058984D02*
X-1703866Y-2058984D01*
X-1522913Y-2058984D02*
X-1541961Y-2049460D01*
X-1541961Y-2049460D02*
X-1551485Y-2030412D01*
X-1551485Y-2030412D02*
X-1551485Y-1858984D01*
X-1370532Y-2049460D02*
X-1389580Y-2058984D01*
X-1389580Y-2058984D02*
X-1427675Y-2058984D01*
X-1427675Y-2058984D02*
X-1446723Y-2049460D01*
X-1446723Y-2049460D02*
X-1456247Y-2030412D01*
X-1456247Y-2030412D02*
X-1456247Y-1954222D01*
X-1456247Y-1954222D02*
X-1446723Y-1935174D01*
X-1446723Y-1935174D02*
X-1427675Y-1925650D01*
X-1427675Y-1925650D02*
X-1389580Y-1925650D01*
X-1389580Y-1925650D02*
X-1370532Y-1935174D01*
X-1370532Y-1935174D02*
X-1361009Y-1954222D01*
X-1361009Y-1954222D02*
X-1361009Y-1973269D01*
X-1361009Y-1973269D02*
X-1456247Y-1992317D01*
X-1284818Y-2049460D02*
X-1265770Y-2058984D01*
X-1265770Y-2058984D02*
X-1227675Y-2058984D01*
X-1227675Y-2058984D02*
X-1208628Y-2049460D01*
X-1208628Y-2049460D02*
X-1199104Y-2030412D01*
X-1199104Y-2030412D02*
X-1199104Y-2020888D01*
X-1199104Y-2020888D02*
X-1208628Y-2001841D01*
X-1208628Y-2001841D02*
X-1227675Y-1992317D01*
X-1227675Y-1992317D02*
X-1256247Y-1992317D01*
X-1256247Y-1992317D02*
X-1275294Y-1982793D01*
X-1275294Y-1982793D02*
X-1284818Y-1963746D01*
X-1284818Y-1963746D02*
X-1284818Y-1954222D01*
X-1284818Y-1954222D02*
X-1275294Y-1935174D01*
X-1275294Y-1935174D02*
X-1256247Y-1925650D01*
X-1256247Y-1925650D02*
X-1227675Y-1925650D01*
X-1227675Y-1925650D02*
X-1208628Y-1935174D01*
X-1132437Y-2135174D02*
X-1122913Y-2125650D01*
X-1122913Y-2125650D02*
X-1103866Y-2097079D01*
X-1103866Y-2097079D02*
X-1094342Y-2078031D01*
X-1094342Y-2078031D02*
X-1084818Y-2049460D01*
X-1084818Y-2049460D02*
X-1075294Y-2001841D01*
X-1075294Y-2001841D02*
X-1075294Y-1963746D01*
X-1075294Y-1963746D02*
X-1084818Y-1916127D01*
X-1084818Y-1916127D02*
X-1094342Y-1887555D01*
X-1094342Y-1887555D02*
X-1103866Y-1868508D01*
X-1103866Y-1868508D02*
X-1122913Y-1839936D01*
X-1122913Y-1839936D02*
X-1132437Y-1830412D01*
D12*
X-6007500Y-2181500D02*
X-5907500Y-2281500D01*
X-5907500Y-2181500D02*
X-6007500Y-2281500D01*
X-5957500Y-2181500D02*
X-5957500Y-2281500D01*
X-6007500Y-2231500D02*
X-5907500Y-2231500D01*
D11*
X-5541961Y-2322984D02*
X-5656247Y-2322984D01*
X-5599104Y-2322984D02*
X-5599104Y-2122984D01*
X-5599104Y-2122984D02*
X-5618152Y-2151555D01*
X-5618152Y-2151555D02*
X-5637199Y-2170603D01*
X-5637199Y-2170603D02*
X-5656247Y-2180127D01*
X-5456247Y-2303936D02*
X-5446723Y-2313460D01*
X-5446723Y-2313460D02*
X-5456247Y-2322984D01*
X-5456247Y-2322984D02*
X-5465771Y-2313460D01*
X-5465771Y-2313460D02*
X-5456247Y-2303936D01*
X-5456247Y-2303936D02*
X-5456247Y-2322984D01*
X-5322914Y-2122984D02*
X-5303866Y-2122984D01*
X-5303866Y-2122984D02*
X-5284818Y-2132508D01*
X-5284818Y-2132508D02*
X-5275295Y-2142031D01*
X-5275295Y-2142031D02*
X-5265771Y-2161079D01*
X-5265771Y-2161079D02*
X-5256247Y-2199174D01*
X-5256247Y-2199174D02*
X-5256247Y-2246793D01*
X-5256247Y-2246793D02*
X-5265771Y-2284889D01*
X-5265771Y-2284889D02*
X-5275295Y-2303936D01*
X-5275295Y-2303936D02*
X-5284818Y-2313460D01*
X-5284818Y-2313460D02*
X-5303866Y-2322984D01*
X-5303866Y-2322984D02*
X-5322914Y-2322984D01*
X-5322914Y-2322984D02*
X-5341961Y-2313460D01*
X-5341961Y-2313460D02*
X-5351485Y-2303936D01*
X-5351485Y-2303936D02*
X-5361009Y-2284889D01*
X-5361009Y-2284889D02*
X-5370533Y-2246793D01*
X-5370533Y-2246793D02*
X-5370533Y-2199174D01*
X-5370533Y-2199174D02*
X-5361009Y-2161079D01*
X-5361009Y-2161079D02*
X-5351485Y-2142031D01*
X-5351485Y-2142031D02*
X-5341961Y-2132508D01*
X-5341961Y-2132508D02*
X-5322914Y-2122984D01*
X-5132438Y-2122984D02*
X-5113390Y-2122984D01*
X-5113390Y-2122984D02*
X-5094342Y-2132508D01*
X-5094342Y-2132508D02*
X-5084818Y-2142031D01*
X-5084818Y-2142031D02*
X-5075295Y-2161079D01*
X-5075295Y-2161079D02*
X-5065771Y-2199174D01*
X-5065771Y-2199174D02*
X-5065771Y-2246793D01*
X-5065771Y-2246793D02*
X-5075295Y-2284889D01*
X-5075295Y-2284889D02*
X-5084818Y-2303936D01*
X-5084818Y-2303936D02*
X-5094342Y-2313460D01*
X-5094342Y-2313460D02*
X-5113390Y-2322984D01*
X-5113390Y-2322984D02*
X-5132438Y-2322984D01*
X-5132438Y-2322984D02*
X-5151485Y-2313460D01*
X-5151485Y-2313460D02*
X-5161009Y-2303936D01*
X-5161009Y-2303936D02*
X-5170533Y-2284889D01*
X-5170533Y-2284889D02*
X-5180057Y-2246793D01*
X-5180057Y-2246793D02*
X-5180057Y-2199174D01*
X-5180057Y-2199174D02*
X-5170533Y-2161079D01*
X-5170533Y-2161079D02*
X-5161009Y-2142031D01*
X-5161009Y-2142031D02*
X-5151485Y-2132508D01*
X-5151485Y-2132508D02*
X-5132438Y-2122984D01*
X-4941961Y-2122984D02*
X-4922914Y-2122984D01*
X-4922914Y-2122984D02*
X-4903866Y-2132508D01*
X-4903866Y-2132508D02*
X-4894342Y-2142031D01*
X-4894342Y-2142031D02*
X-4884818Y-2161079D01*
X-4884818Y-2161079D02*
X-4875295Y-2199174D01*
X-4875295Y-2199174D02*
X-4875295Y-2246793D01*
X-4875295Y-2246793D02*
X-4884818Y-2284889D01*
X-4884818Y-2284889D02*
X-4894342Y-2303936D01*
X-4894342Y-2303936D02*
X-4903866Y-2313460D01*
X-4903866Y-2313460D02*
X-4922914Y-2322984D01*
X-4922914Y-2322984D02*
X-4941961Y-2322984D01*
X-4941961Y-2322984D02*
X-4961009Y-2313460D01*
X-4961009Y-2313460D02*
X-4970533Y-2303936D01*
X-4970533Y-2303936D02*
X-4980057Y-2284889D01*
X-4980057Y-2284889D02*
X-4989580Y-2246793D01*
X-4989580Y-2246793D02*
X-4989580Y-2199174D01*
X-4989580Y-2199174D02*
X-4980057Y-2161079D01*
X-4980057Y-2161079D02*
X-4970533Y-2142031D01*
X-4970533Y-2142031D02*
X-4961009Y-2132508D01*
X-4961009Y-2132508D02*
X-4941961Y-2122984D01*
X-4789580Y-2322984D02*
X-4789580Y-2189650D01*
X-4789580Y-2208698D02*
X-4780057Y-2199174D01*
X-4780057Y-2199174D02*
X-4761009Y-2189650D01*
X-4761009Y-2189650D02*
X-4732437Y-2189650D01*
X-4732437Y-2189650D02*
X-4713390Y-2199174D01*
X-4713390Y-2199174D02*
X-4703866Y-2218222D01*
X-4703866Y-2218222D02*
X-4703866Y-2322984D01*
X-4703866Y-2218222D02*
X-4694342Y-2199174D01*
X-4694342Y-2199174D02*
X-4675295Y-2189650D01*
X-4675295Y-2189650D02*
X-4646723Y-2189650D01*
X-4646723Y-2189650D02*
X-4627676Y-2199174D01*
X-4627676Y-2199174D02*
X-4618152Y-2218222D01*
X-4618152Y-2218222D02*
X-4618152Y-2322984D01*
X-4522914Y-2322984D02*
X-4522914Y-2189650D01*
X-4522914Y-2208698D02*
X-4513390Y-2199174D01*
X-4513390Y-2199174D02*
X-4494342Y-2189650D01*
X-4494342Y-2189650D02*
X-4465771Y-2189650D01*
X-4465771Y-2189650D02*
X-4446723Y-2199174D01*
X-4446723Y-2199174D02*
X-4437199Y-2218222D01*
X-4437199Y-2218222D02*
X-4437199Y-2322984D01*
X-4437199Y-2218222D02*
X-4427676Y-2199174D01*
X-4427676Y-2199174D02*
X-4408628Y-2189650D01*
X-4408628Y-2189650D02*
X-4380057Y-2189650D01*
X-4380057Y-2189650D02*
X-4361009Y-2199174D01*
X-4361009Y-2199174D02*
X-4351485Y-2218222D01*
X-4351485Y-2218222D02*
X-4351485Y-2322984D01*
X-3961009Y-2113460D02*
X-4132437Y-2370603D01*
X-3703866Y-2122984D02*
X-3684818Y-2122984D01*
X-3684818Y-2122984D02*
X-3665771Y-2132508D01*
X-3665771Y-2132508D02*
X-3656247Y-2142031D01*
X-3656247Y-2142031D02*
X-3646723Y-2161079D01*
X-3646723Y-2161079D02*
X-3637199Y-2199174D01*
X-3637199Y-2199174D02*
X-3637199Y-2246793D01*
X-3637199Y-2246793D02*
X-3646723Y-2284889D01*
X-3646723Y-2284889D02*
X-3656247Y-2303936D01*
X-3656247Y-2303936D02*
X-3665771Y-2313460D01*
X-3665771Y-2313460D02*
X-3684818Y-2322984D01*
X-3684818Y-2322984D02*
X-3703866Y-2322984D01*
X-3703866Y-2322984D02*
X-3722913Y-2313460D01*
X-3722913Y-2313460D02*
X-3732437Y-2303936D01*
X-3732437Y-2303936D02*
X-3741961Y-2284889D01*
X-3741961Y-2284889D02*
X-3751485Y-2246793D01*
X-3751485Y-2246793D02*
X-3751485Y-2199174D01*
X-3751485Y-2199174D02*
X-3741961Y-2161079D01*
X-3741961Y-2161079D02*
X-3732437Y-2142031D01*
X-3732437Y-2142031D02*
X-3722913Y-2132508D01*
X-3722913Y-2132508D02*
X-3703866Y-2122984D01*
X-3551485Y-2303936D02*
X-3541961Y-2313460D01*
X-3541961Y-2313460D02*
X-3551485Y-2322984D01*
X-3551485Y-2322984D02*
X-3561009Y-2313460D01*
X-3561009Y-2313460D02*
X-3551485Y-2303936D01*
X-3551485Y-2303936D02*
X-3551485Y-2322984D01*
X-3418152Y-2122984D02*
X-3399104Y-2122984D01*
X-3399104Y-2122984D02*
X-3380056Y-2132508D01*
X-3380056Y-2132508D02*
X-3370532Y-2142031D01*
X-3370532Y-2142031D02*
X-3361009Y-2161079D01*
X-3361009Y-2161079D02*
X-3351485Y-2199174D01*
X-3351485Y-2199174D02*
X-3351485Y-2246793D01*
X-3351485Y-2246793D02*
X-3361009Y-2284889D01*
X-3361009Y-2284889D02*
X-3370532Y-2303936D01*
X-3370532Y-2303936D02*
X-3380056Y-2313460D01*
X-3380056Y-2313460D02*
X-3399104Y-2322984D01*
X-3399104Y-2322984D02*
X-3418152Y-2322984D01*
X-3418152Y-2322984D02*
X-3437199Y-2313460D01*
X-3437199Y-2313460D02*
X-3446723Y-2303936D01*
X-3446723Y-2303936D02*
X-3456247Y-2284889D01*
X-3456247Y-2284889D02*
X-3465771Y-2246793D01*
X-3465771Y-2246793D02*
X-3465771Y-2199174D01*
X-3465771Y-2199174D02*
X-3456247Y-2161079D01*
X-3456247Y-2161079D02*
X-3446723Y-2142031D01*
X-3446723Y-2142031D02*
X-3437199Y-2132508D01*
X-3437199Y-2132508D02*
X-3418152Y-2122984D01*
X-3284818Y-2122984D02*
X-3161009Y-2122984D01*
X-3161009Y-2122984D02*
X-3227675Y-2199174D01*
X-3227675Y-2199174D02*
X-3199104Y-2199174D01*
X-3199104Y-2199174D02*
X-3180056Y-2208698D01*
X-3180056Y-2208698D02*
X-3170532Y-2218222D01*
X-3170532Y-2218222D02*
X-3161009Y-2237270D01*
X-3161009Y-2237270D02*
X-3161009Y-2284889D01*
X-3161009Y-2284889D02*
X-3170532Y-2303936D01*
X-3170532Y-2303936D02*
X-3180056Y-2313460D01*
X-3180056Y-2313460D02*
X-3199104Y-2322984D01*
X-3199104Y-2322984D02*
X-3256247Y-2322984D01*
X-3256247Y-2322984D02*
X-3275294Y-2313460D01*
X-3275294Y-2313460D02*
X-3284818Y-2303936D01*
X-3065771Y-2322984D02*
X-3027675Y-2322984D01*
X-3027675Y-2322984D02*
X-3008628Y-2313460D01*
X-3008628Y-2313460D02*
X-2999104Y-2303936D01*
X-2999104Y-2303936D02*
X-2980056Y-2275365D01*
X-2980056Y-2275365D02*
X-2970532Y-2237270D01*
X-2970532Y-2237270D02*
X-2970532Y-2161079D01*
X-2970532Y-2161079D02*
X-2980056Y-2142031D01*
X-2980056Y-2142031D02*
X-2989580Y-2132508D01*
X-2989580Y-2132508D02*
X-3008628Y-2122984D01*
X-3008628Y-2122984D02*
X-3046723Y-2122984D01*
X-3046723Y-2122984D02*
X-3065771Y-2132508D01*
X-3065771Y-2132508D02*
X-3075294Y-2142031D01*
X-3075294Y-2142031D02*
X-3084818Y-2161079D01*
X-3084818Y-2161079D02*
X-3084818Y-2208698D01*
X-3084818Y-2208698D02*
X-3075294Y-2227746D01*
X-3075294Y-2227746D02*
X-3065771Y-2237270D01*
X-3065771Y-2237270D02*
X-3046723Y-2246793D01*
X-3046723Y-2246793D02*
X-3008628Y-2246793D01*
X-3008628Y-2246793D02*
X-2989580Y-2237270D01*
X-2989580Y-2237270D02*
X-2980056Y-2227746D01*
X-2980056Y-2227746D02*
X-2970532Y-2208698D01*
X-2799104Y-2189650D02*
X-2799104Y-2322984D01*
X-2846723Y-2113460D02*
X-2894342Y-2256317D01*
X-2894342Y-2256317D02*
X-2770533Y-2256317D01*
X-2703866Y-2122984D02*
X-2703866Y-2161079D01*
X-2627675Y-2122984D02*
X-2627675Y-2161079D01*
X-2332437Y-2399174D02*
X-2341961Y-2389650D01*
X-2341961Y-2389650D02*
X-2361009Y-2361079D01*
X-2361009Y-2361079D02*
X-2370532Y-2342031D01*
X-2370532Y-2342031D02*
X-2380056Y-2313460D01*
X-2380056Y-2313460D02*
X-2389580Y-2265841D01*
X-2389580Y-2265841D02*
X-2389580Y-2227746D01*
X-2389580Y-2227746D02*
X-2380056Y-2180127D01*
X-2380056Y-2180127D02*
X-2370532Y-2151555D01*
X-2370532Y-2151555D02*
X-2361009Y-2132508D01*
X-2361009Y-2132508D02*
X-2341961Y-2103936D01*
X-2341961Y-2103936D02*
X-2332437Y-2094412D01*
X-2275294Y-2122984D02*
X-2151485Y-2122984D01*
X-2151485Y-2122984D02*
X-2218152Y-2199174D01*
X-2218152Y-2199174D02*
X-2189580Y-2199174D01*
X-2189580Y-2199174D02*
X-2170532Y-2208698D01*
X-2170532Y-2208698D02*
X-2161009Y-2218222D01*
X-2161009Y-2218222D02*
X-2151485Y-2237270D01*
X-2151485Y-2237270D02*
X-2151485Y-2284889D01*
X-2151485Y-2284889D02*
X-2161009Y-2303936D01*
X-2161009Y-2303936D02*
X-2170532Y-2313460D01*
X-2170532Y-2313460D02*
X-2189580Y-2322984D01*
X-2189580Y-2322984D02*
X-2246723Y-2322984D01*
X-2246723Y-2322984D02*
X-2265771Y-2313460D01*
X-2265771Y-2313460D02*
X-2275294Y-2303936D01*
X-1980056Y-2189650D02*
X-1980056Y-2322984D01*
X-2027675Y-2113460D02*
X-2075294Y-2256317D01*
X-2075294Y-2256317D02*
X-1951485Y-2256317D01*
X-1722913Y-2322984D02*
X-1722913Y-2122984D01*
X-1637199Y-2322984D02*
X-1637199Y-2218222D01*
X-1637199Y-2218222D02*
X-1646723Y-2199174D01*
X-1646723Y-2199174D02*
X-1665770Y-2189650D01*
X-1665770Y-2189650D02*
X-1694342Y-2189650D01*
X-1694342Y-2189650D02*
X-1713389Y-2199174D01*
X-1713389Y-2199174D02*
X-1722913Y-2208698D01*
X-1513389Y-2322984D02*
X-1532437Y-2313460D01*
X-1532437Y-2313460D02*
X-1541961Y-2303936D01*
X-1541961Y-2303936D02*
X-1551485Y-2284889D01*
X-1551485Y-2284889D02*
X-1551485Y-2227746D01*
X-1551485Y-2227746D02*
X-1541961Y-2208698D01*
X-1541961Y-2208698D02*
X-1532437Y-2199174D01*
X-1532437Y-2199174D02*
X-1513389Y-2189650D01*
X-1513389Y-2189650D02*
X-1484818Y-2189650D01*
X-1484818Y-2189650D02*
X-1465770Y-2199174D01*
X-1465770Y-2199174D02*
X-1456247Y-2208698D01*
X-1456247Y-2208698D02*
X-1446723Y-2227746D01*
X-1446723Y-2227746D02*
X-1446723Y-2284889D01*
X-1446723Y-2284889D02*
X-1456247Y-2303936D01*
X-1456247Y-2303936D02*
X-1465770Y-2313460D01*
X-1465770Y-2313460D02*
X-1484818Y-2322984D01*
X-1484818Y-2322984D02*
X-1513389Y-2322984D01*
X-1332437Y-2322984D02*
X-1351485Y-2313460D01*
X-1351485Y-2313460D02*
X-1361009Y-2294412D01*
X-1361009Y-2294412D02*
X-1361009Y-2122984D01*
X-1180056Y-2313460D02*
X-1199104Y-2322984D01*
X-1199104Y-2322984D02*
X-1237199Y-2322984D01*
X-1237199Y-2322984D02*
X-1256247Y-2313460D01*
X-1256247Y-2313460D02*
X-1265770Y-2294412D01*
X-1265770Y-2294412D02*
X-1265770Y-2218222D01*
X-1265770Y-2218222D02*
X-1256247Y-2199174D01*
X-1256247Y-2199174D02*
X-1237199Y-2189650D01*
X-1237199Y-2189650D02*
X-1199104Y-2189650D01*
X-1199104Y-2189650D02*
X-1180056Y-2199174D01*
X-1180056Y-2199174D02*
X-1170532Y-2218222D01*
X-1170532Y-2218222D02*
X-1170532Y-2237270D01*
X-1170532Y-2237270D02*
X-1265770Y-2256317D01*
X-1094342Y-2313460D02*
X-1075294Y-2322984D01*
X-1075294Y-2322984D02*
X-1037199Y-2322984D01*
X-1037199Y-2322984D02*
X-1018151Y-2313460D01*
X-1018151Y-2313460D02*
X-1008627Y-2294412D01*
X-1008627Y-2294412D02*
X-1008627Y-2284889D01*
X-1008627Y-2284889D02*
X-1018151Y-2265841D01*
X-1018151Y-2265841D02*
X-1037199Y-2256317D01*
X-1037199Y-2256317D02*
X-1065770Y-2256317D01*
X-1065770Y-2256317D02*
X-1084818Y-2246793D01*
X-1084818Y-2246793D02*
X-1094342Y-2227746D01*
X-1094342Y-2227746D02*
X-1094342Y-2218222D01*
X-1094342Y-2218222D02*
X-1084818Y-2199174D01*
X-1084818Y-2199174D02*
X-1065770Y-2189650D01*
X-1065770Y-2189650D02*
X-1037199Y-2189650D01*
X-1037199Y-2189650D02*
X-1018151Y-2199174D01*
X-941961Y-2399174D02*
X-932437Y-2389650D01*
X-932437Y-2389650D02*
X-913389Y-2361079D01*
X-913389Y-2361079D02*
X-903866Y-2342031D01*
X-903866Y-2342031D02*
X-894342Y-2313460D01*
X-894342Y-2313460D02*
X-884818Y-2265841D01*
X-884818Y-2265841D02*
X-884818Y-2227746D01*
X-884818Y-2227746D02*
X-894342Y-2180127D01*
X-894342Y-2180127D02*
X-903866Y-2151555D01*
X-903866Y-2151555D02*
X-913389Y-2132508D01*
X-913389Y-2132508D02*
X-932437Y-2103936D01*
X-932437Y-2103936D02*
X-941961Y-2094412D01*
D13*
X-6021800Y-2438350D02*
X-5907500Y-2552650D01*
X-5907500Y-2438350D02*
X-6021800Y-2552650D01*
X-5924238Y-2535912D02*
X-5924238Y-2455089D01*
X-6005061Y-2455089D01*
X-6005061Y-2535912D01*
X-5924238Y-2535912D01*
D11*
X-5541961Y-2586984D02*
X-5656247Y-2586984D01*
X-5599104Y-2586984D02*
X-5599104Y-2386984D01*
X-5599104Y-2386984D02*
X-5618152Y-2415555D01*
X-5618152Y-2415555D02*
X-5637199Y-2434603D01*
X-5637199Y-2434603D02*
X-5656247Y-2444127D01*
X-5456247Y-2567936D02*
X-5446723Y-2577460D01*
X-5446723Y-2577460D02*
X-5456247Y-2586984D01*
X-5456247Y-2586984D02*
X-5465771Y-2577460D01*
X-5465771Y-2577460D02*
X-5456247Y-2567936D01*
X-5456247Y-2567936D02*
X-5456247Y-2586984D01*
X-5256247Y-2586984D02*
X-5370533Y-2586984D01*
X-5313390Y-2586984D02*
X-5313390Y-2386984D01*
X-5313390Y-2386984D02*
X-5332438Y-2415555D01*
X-5332438Y-2415555D02*
X-5351485Y-2434603D01*
X-5351485Y-2434603D02*
X-5370533Y-2444127D01*
X-5084818Y-2453650D02*
X-5084818Y-2586984D01*
X-5132438Y-2377460D02*
X-5180057Y-2520317D01*
X-5180057Y-2520317D02*
X-5056247Y-2520317D01*
X-4999104Y-2386984D02*
X-4875295Y-2386984D01*
X-4875295Y-2386984D02*
X-4941961Y-2463174D01*
X-4941961Y-2463174D02*
X-4913390Y-2463174D01*
X-4913390Y-2463174D02*
X-4894342Y-2472698D01*
X-4894342Y-2472698D02*
X-4884818Y-2482222D01*
X-4884818Y-2482222D02*
X-4875295Y-2501270D01*
X-4875295Y-2501270D02*
X-4875295Y-2548889D01*
X-4875295Y-2548889D02*
X-4884818Y-2567936D01*
X-4884818Y-2567936D02*
X-4894342Y-2577460D01*
X-4894342Y-2577460D02*
X-4913390Y-2586984D01*
X-4913390Y-2586984D02*
X-4970533Y-2586984D01*
X-4970533Y-2586984D02*
X-4989580Y-2577460D01*
X-4989580Y-2577460D02*
X-4999104Y-2567936D01*
X-4789580Y-2586984D02*
X-4789580Y-2453650D01*
X-4789580Y-2472698D02*
X-4780057Y-2463174D01*
X-4780057Y-2463174D02*
X-4761009Y-2453650D01*
X-4761009Y-2453650D02*
X-4732437Y-2453650D01*
X-4732437Y-2453650D02*
X-4713390Y-2463174D01*
X-4713390Y-2463174D02*
X-4703866Y-2482222D01*
X-4703866Y-2482222D02*
X-4703866Y-2586984D01*
X-4703866Y-2482222D02*
X-4694342Y-2463174D01*
X-4694342Y-2463174D02*
X-4675295Y-2453650D01*
X-4675295Y-2453650D02*
X-4646723Y-2453650D01*
X-4646723Y-2453650D02*
X-4627676Y-2463174D01*
X-4627676Y-2463174D02*
X-4618152Y-2482222D01*
X-4618152Y-2482222D02*
X-4618152Y-2586984D01*
X-4522914Y-2586984D02*
X-4522914Y-2453650D01*
X-4522914Y-2472698D02*
X-4513390Y-2463174D01*
X-4513390Y-2463174D02*
X-4494342Y-2453650D01*
X-4494342Y-2453650D02*
X-4465771Y-2453650D01*
X-4465771Y-2453650D02*
X-4446723Y-2463174D01*
X-4446723Y-2463174D02*
X-4437199Y-2482222D01*
X-4437199Y-2482222D02*
X-4437199Y-2586984D01*
X-4437199Y-2482222D02*
X-4427676Y-2463174D01*
X-4427676Y-2463174D02*
X-4408628Y-2453650D01*
X-4408628Y-2453650D02*
X-4380057Y-2453650D01*
X-4380057Y-2453650D02*
X-4361009Y-2463174D01*
X-4361009Y-2463174D02*
X-4351485Y-2482222D01*
X-4351485Y-2482222D02*
X-4351485Y-2586984D01*
X-3961009Y-2377460D02*
X-4132437Y-2634603D01*
X-3703866Y-2386984D02*
X-3684818Y-2386984D01*
X-3684818Y-2386984D02*
X-3665771Y-2396508D01*
X-3665771Y-2396508D02*
X-3656247Y-2406031D01*
X-3656247Y-2406031D02*
X-3646723Y-2425079D01*
X-3646723Y-2425079D02*
X-3637199Y-2463174D01*
X-3637199Y-2463174D02*
X-3637199Y-2510793D01*
X-3637199Y-2510793D02*
X-3646723Y-2548889D01*
X-3646723Y-2548889D02*
X-3656247Y-2567936D01*
X-3656247Y-2567936D02*
X-3665771Y-2577460D01*
X-3665771Y-2577460D02*
X-3684818Y-2586984D01*
X-3684818Y-2586984D02*
X-3703866Y-2586984D01*
X-3703866Y-2586984D02*
X-3722913Y-2577460D01*
X-3722913Y-2577460D02*
X-3732437Y-2567936D01*
X-3732437Y-2567936D02*
X-3741961Y-2548889D01*
X-3741961Y-2548889D02*
X-3751485Y-2510793D01*
X-3751485Y-2510793D02*
X-3751485Y-2463174D01*
X-3751485Y-2463174D02*
X-3741961Y-2425079D01*
X-3741961Y-2425079D02*
X-3732437Y-2406031D01*
X-3732437Y-2406031D02*
X-3722913Y-2396508D01*
X-3722913Y-2396508D02*
X-3703866Y-2386984D01*
X-3551485Y-2567936D02*
X-3541961Y-2577460D01*
X-3541961Y-2577460D02*
X-3551485Y-2586984D01*
X-3551485Y-2586984D02*
X-3561009Y-2577460D01*
X-3561009Y-2577460D02*
X-3551485Y-2567936D01*
X-3551485Y-2567936D02*
X-3551485Y-2586984D01*
X-3418152Y-2386984D02*
X-3399104Y-2386984D01*
X-3399104Y-2386984D02*
X-3380056Y-2396508D01*
X-3380056Y-2396508D02*
X-3370532Y-2406031D01*
X-3370532Y-2406031D02*
X-3361009Y-2425079D01*
X-3361009Y-2425079D02*
X-3351485Y-2463174D01*
X-3351485Y-2463174D02*
X-3351485Y-2510793D01*
X-3351485Y-2510793D02*
X-3361009Y-2548889D01*
X-3361009Y-2548889D02*
X-3370532Y-2567936D01*
X-3370532Y-2567936D02*
X-3380056Y-2577460D01*
X-3380056Y-2577460D02*
X-3399104Y-2586984D01*
X-3399104Y-2586984D02*
X-3418152Y-2586984D01*
X-3418152Y-2586984D02*
X-3437199Y-2577460D01*
X-3437199Y-2577460D02*
X-3446723Y-2567936D01*
X-3446723Y-2567936D02*
X-3456247Y-2548889D01*
X-3456247Y-2548889D02*
X-3465771Y-2510793D01*
X-3465771Y-2510793D02*
X-3465771Y-2463174D01*
X-3465771Y-2463174D02*
X-3456247Y-2425079D01*
X-3456247Y-2425079D02*
X-3446723Y-2406031D01*
X-3446723Y-2406031D02*
X-3437199Y-2396508D01*
X-3437199Y-2396508D02*
X-3418152Y-2386984D01*
X-3180056Y-2453650D02*
X-3180056Y-2586984D01*
X-3227675Y-2377460D02*
X-3275294Y-2520317D01*
X-3275294Y-2520317D02*
X-3151485Y-2520317D01*
X-2980056Y-2386984D02*
X-3075294Y-2386984D01*
X-3075294Y-2386984D02*
X-3084818Y-2482222D01*
X-3084818Y-2482222D02*
X-3075294Y-2472698D01*
X-3075294Y-2472698D02*
X-3056247Y-2463174D01*
X-3056247Y-2463174D02*
X-3008628Y-2463174D01*
X-3008628Y-2463174D02*
X-2989580Y-2472698D01*
X-2989580Y-2472698D02*
X-2980056Y-2482222D01*
X-2980056Y-2482222D02*
X-2970532Y-2501270D01*
X-2970532Y-2501270D02*
X-2970532Y-2548889D01*
X-2970532Y-2548889D02*
X-2980056Y-2567936D01*
X-2980056Y-2567936D02*
X-2989580Y-2577460D01*
X-2989580Y-2577460D02*
X-3008628Y-2586984D01*
X-3008628Y-2586984D02*
X-3056247Y-2586984D01*
X-3056247Y-2586984D02*
X-3075294Y-2577460D01*
X-3075294Y-2577460D02*
X-3084818Y-2567936D01*
X-2846723Y-2386984D02*
X-2827675Y-2386984D01*
X-2827675Y-2386984D02*
X-2808628Y-2396508D01*
X-2808628Y-2396508D02*
X-2799104Y-2406031D01*
X-2799104Y-2406031D02*
X-2789580Y-2425079D01*
X-2789580Y-2425079D02*
X-2780056Y-2463174D01*
X-2780056Y-2463174D02*
X-2780056Y-2510793D01*
X-2780056Y-2510793D02*
X-2789580Y-2548889D01*
X-2789580Y-2548889D02*
X-2799104Y-2567936D01*
X-2799104Y-2567936D02*
X-2808628Y-2577460D01*
X-2808628Y-2577460D02*
X-2827675Y-2586984D01*
X-2827675Y-2586984D02*
X-2846723Y-2586984D01*
X-2846723Y-2586984D02*
X-2865771Y-2577460D01*
X-2865771Y-2577460D02*
X-2875294Y-2567936D01*
X-2875294Y-2567936D02*
X-2884818Y-2548889D01*
X-2884818Y-2548889D02*
X-2894342Y-2510793D01*
X-2894342Y-2510793D02*
X-2894342Y-2463174D01*
X-2894342Y-2463174D02*
X-2884818Y-2425079D01*
X-2884818Y-2425079D02*
X-2875294Y-2406031D01*
X-2875294Y-2406031D02*
X-2865771Y-2396508D01*
X-2865771Y-2396508D02*
X-2846723Y-2386984D01*
X-2703866Y-2386984D02*
X-2703866Y-2425079D01*
X-2627675Y-2386984D02*
X-2627675Y-2425079D01*
X-2332437Y-2663174D02*
X-2341961Y-2653650D01*
X-2341961Y-2653650D02*
X-2361009Y-2625079D01*
X-2361009Y-2625079D02*
X-2370532Y-2606031D01*
X-2370532Y-2606031D02*
X-2380056Y-2577460D01*
X-2380056Y-2577460D02*
X-2389580Y-2529841D01*
X-2389580Y-2529841D02*
X-2389580Y-2491746D01*
X-2389580Y-2491746D02*
X-2380056Y-2444127D01*
X-2380056Y-2444127D02*
X-2370532Y-2415555D01*
X-2370532Y-2415555D02*
X-2361009Y-2396508D01*
X-2361009Y-2396508D02*
X-2341961Y-2367936D01*
X-2341961Y-2367936D02*
X-2332437Y-2358412D01*
X-2265771Y-2406031D02*
X-2256247Y-2396508D01*
X-2256247Y-2396508D02*
X-2237199Y-2386984D01*
X-2237199Y-2386984D02*
X-2189580Y-2386984D01*
X-2189580Y-2386984D02*
X-2170532Y-2396508D01*
X-2170532Y-2396508D02*
X-2161009Y-2406031D01*
X-2161009Y-2406031D02*
X-2151485Y-2425079D01*
X-2151485Y-2425079D02*
X-2151485Y-2444127D01*
X-2151485Y-2444127D02*
X-2161009Y-2472698D01*
X-2161009Y-2472698D02*
X-2275294Y-2586984D01*
X-2275294Y-2586984D02*
X-2151485Y-2586984D01*
X-1980056Y-2453650D02*
X-1980056Y-2586984D01*
X-2027675Y-2377460D02*
X-2075294Y-2520317D01*
X-2075294Y-2520317D02*
X-1951485Y-2520317D01*
X-1722913Y-2586984D02*
X-1722913Y-2386984D01*
X-1637199Y-2586984D02*
X-1637199Y-2482222D01*
X-1637199Y-2482222D02*
X-1646723Y-2463174D01*
X-1646723Y-2463174D02*
X-1665770Y-2453650D01*
X-1665770Y-2453650D02*
X-1694342Y-2453650D01*
X-1694342Y-2453650D02*
X-1713389Y-2463174D01*
X-1713389Y-2463174D02*
X-1722913Y-2472698D01*
X-1513389Y-2586984D02*
X-1532437Y-2577460D01*
X-1532437Y-2577460D02*
X-1541961Y-2567936D01*
X-1541961Y-2567936D02*
X-1551485Y-2548889D01*
X-1551485Y-2548889D02*
X-1551485Y-2491746D01*
X-1551485Y-2491746D02*
X-1541961Y-2472698D01*
X-1541961Y-2472698D02*
X-1532437Y-2463174D01*
X-1532437Y-2463174D02*
X-1513389Y-2453650D01*
X-1513389Y-2453650D02*
X-1484818Y-2453650D01*
X-1484818Y-2453650D02*
X-1465770Y-2463174D01*
X-1465770Y-2463174D02*
X-1456247Y-2472698D01*
X-1456247Y-2472698D02*
X-1446723Y-2491746D01*
X-1446723Y-2491746D02*
X-1446723Y-2548889D01*
X-1446723Y-2548889D02*
X-1456247Y-2567936D01*
X-1456247Y-2567936D02*
X-1465770Y-2577460D01*
X-1465770Y-2577460D02*
X-1484818Y-2586984D01*
X-1484818Y-2586984D02*
X-1513389Y-2586984D01*
X-1332437Y-2586984D02*
X-1351485Y-2577460D01*
X-1351485Y-2577460D02*
X-1361009Y-2558412D01*
X-1361009Y-2558412D02*
X-1361009Y-2386984D01*
X-1180056Y-2577460D02*
X-1199104Y-2586984D01*
X-1199104Y-2586984D02*
X-1237199Y-2586984D01*
X-1237199Y-2586984D02*
X-1256247Y-2577460D01*
X-1256247Y-2577460D02*
X-1265770Y-2558412D01*
X-1265770Y-2558412D02*
X-1265770Y-2482222D01*
X-1265770Y-2482222D02*
X-1256247Y-2463174D01*
X-1256247Y-2463174D02*
X-1237199Y-2453650D01*
X-1237199Y-2453650D02*
X-1199104Y-2453650D01*
X-1199104Y-2453650D02*
X-1180056Y-2463174D01*
X-1180056Y-2463174D02*
X-1170532Y-2482222D01*
X-1170532Y-2482222D02*
X-1170532Y-2501270D01*
X-1170532Y-2501270D02*
X-1265770Y-2520317D01*
X-1094342Y-2577460D02*
X-1075294Y-2586984D01*
X-1075294Y-2586984D02*
X-1037199Y-2586984D01*
X-1037199Y-2586984D02*
X-1018151Y-2577460D01*
X-1018151Y-2577460D02*
X-1008627Y-2558412D01*
X-1008627Y-2558412D02*
X-1008627Y-2548889D01*
X-1008627Y-2548889D02*
X-1018151Y-2529841D01*
X-1018151Y-2529841D02*
X-1037199Y-2520317D01*
X-1037199Y-2520317D02*
X-1065770Y-2520317D01*
X-1065770Y-2520317D02*
X-1084818Y-2510793D01*
X-1084818Y-2510793D02*
X-1094342Y-2491746D01*
X-1094342Y-2491746D02*
X-1094342Y-2482222D01*
X-1094342Y-2482222D02*
X-1084818Y-2463174D01*
X-1084818Y-2463174D02*
X-1065770Y-2453650D01*
X-1065770Y-2453650D02*
X-1037199Y-2453650D01*
X-1037199Y-2453650D02*
X-1018151Y-2463174D01*
X-941961Y-2663174D02*
X-932437Y-2653650D01*
X-932437Y-2653650D02*
X-913389Y-2625079D01*
X-913389Y-2625079D02*
X-903866Y-2606031D01*
X-903866Y-2606031D02*
X-894342Y-2577460D01*
X-894342Y-2577460D02*
X-884818Y-2529841D01*
X-884818Y-2529841D02*
X-884818Y-2491746D01*
X-884818Y-2491746D02*
X-894342Y-2444127D01*
X-894342Y-2444127D02*
X-903866Y-2415555D01*
X-903866Y-2415555D02*
X-913389Y-2396508D01*
X-913389Y-2396508D02*
X-932437Y-2367936D01*
X-932437Y-2367936D02*
X-941961Y-2358412D01*
D14*
X-6027500Y-2699500D02*
X-5907500Y-2819500D01*
X-5907500Y-2699500D02*
X-6027500Y-2819500D01*
X-5967500Y-2819500D02*
X-5907500Y-2759500D01*
X-5967500Y-2699500D01*
X-6027500Y-2759500D01*
X-5967500Y-2819500D01*
D11*
X-5541961Y-2850984D02*
X-5656247Y-2850984D01*
X-5599104Y-2850984D02*
X-5599104Y-2650984D01*
X-5599104Y-2650984D02*
X-5618152Y-2679555D01*
X-5618152Y-2679555D02*
X-5637199Y-2698603D01*
X-5637199Y-2698603D02*
X-5656247Y-2708127D01*
X-5456247Y-2831936D02*
X-5446723Y-2841460D01*
X-5446723Y-2841460D02*
X-5456247Y-2850984D01*
X-5456247Y-2850984D02*
X-5465771Y-2841460D01*
X-5465771Y-2841460D02*
X-5456247Y-2831936D01*
X-5456247Y-2831936D02*
X-5456247Y-2850984D01*
X-5370533Y-2670031D02*
X-5361009Y-2660508D01*
X-5361009Y-2660508D02*
X-5341961Y-2650984D01*
X-5341961Y-2650984D02*
X-5294342Y-2650984D01*
X-5294342Y-2650984D02*
X-5275295Y-2660508D01*
X-5275295Y-2660508D02*
X-5265771Y-2670031D01*
X-5265771Y-2670031D02*
X-5256247Y-2689079D01*
X-5256247Y-2689079D02*
X-5256247Y-2708127D01*
X-5256247Y-2708127D02*
X-5265771Y-2736698D01*
X-5265771Y-2736698D02*
X-5380057Y-2850984D01*
X-5380057Y-2850984D02*
X-5256247Y-2850984D01*
X-5132438Y-2650984D02*
X-5113390Y-2650984D01*
X-5113390Y-2650984D02*
X-5094342Y-2660508D01*
X-5094342Y-2660508D02*
X-5084818Y-2670031D01*
X-5084818Y-2670031D02*
X-5075295Y-2689079D01*
X-5075295Y-2689079D02*
X-5065771Y-2727174D01*
X-5065771Y-2727174D02*
X-5065771Y-2774793D01*
X-5065771Y-2774793D02*
X-5075295Y-2812888D01*
X-5075295Y-2812888D02*
X-5084818Y-2831936D01*
X-5084818Y-2831936D02*
X-5094342Y-2841460D01*
X-5094342Y-2841460D02*
X-5113390Y-2850984D01*
X-5113390Y-2850984D02*
X-5132438Y-2850984D01*
X-5132438Y-2850984D02*
X-5151485Y-2841460D01*
X-5151485Y-2841460D02*
X-5161009Y-2831936D01*
X-5161009Y-2831936D02*
X-5170533Y-2812888D01*
X-5170533Y-2812888D02*
X-5180057Y-2774793D01*
X-5180057Y-2774793D02*
X-5180057Y-2727174D01*
X-5180057Y-2727174D02*
X-5170533Y-2689079D01*
X-5170533Y-2689079D02*
X-5161009Y-2670031D01*
X-5161009Y-2670031D02*
X-5151485Y-2660508D01*
X-5151485Y-2660508D02*
X-5132438Y-2650984D01*
X-4941961Y-2650984D02*
X-4922914Y-2650984D01*
X-4922914Y-2650984D02*
X-4903866Y-2660508D01*
X-4903866Y-2660508D02*
X-4894342Y-2670031D01*
X-4894342Y-2670031D02*
X-4884818Y-2689079D01*
X-4884818Y-2689079D02*
X-4875295Y-2727174D01*
X-4875295Y-2727174D02*
X-4875295Y-2774793D01*
X-4875295Y-2774793D02*
X-4884818Y-2812888D01*
X-4884818Y-2812888D02*
X-4894342Y-2831936D01*
X-4894342Y-2831936D02*
X-4903866Y-2841460D01*
X-4903866Y-2841460D02*
X-4922914Y-2850984D01*
X-4922914Y-2850984D02*
X-4941961Y-2850984D01*
X-4941961Y-2850984D02*
X-4961009Y-2841460D01*
X-4961009Y-2841460D02*
X-4970533Y-2831936D01*
X-4970533Y-2831936D02*
X-4980057Y-2812888D01*
X-4980057Y-2812888D02*
X-4989580Y-2774793D01*
X-4989580Y-2774793D02*
X-4989580Y-2727174D01*
X-4989580Y-2727174D02*
X-4980057Y-2689079D01*
X-4980057Y-2689079D02*
X-4970533Y-2670031D01*
X-4970533Y-2670031D02*
X-4961009Y-2660508D01*
X-4961009Y-2660508D02*
X-4941961Y-2650984D01*
X-4789580Y-2850984D02*
X-4789580Y-2717650D01*
X-4789580Y-2736698D02*
X-4780057Y-2727174D01*
X-4780057Y-2727174D02*
X-4761009Y-2717650D01*
X-4761009Y-2717650D02*
X-4732437Y-2717650D01*
X-4732437Y-2717650D02*
X-4713390Y-2727174D01*
X-4713390Y-2727174D02*
X-4703866Y-2746222D01*
X-4703866Y-2746222D02*
X-4703866Y-2850984D01*
X-4703866Y-2746222D02*
X-4694342Y-2727174D01*
X-4694342Y-2727174D02*
X-4675295Y-2717650D01*
X-4675295Y-2717650D02*
X-4646723Y-2717650D01*
X-4646723Y-2717650D02*
X-4627676Y-2727174D01*
X-4627676Y-2727174D02*
X-4618152Y-2746222D01*
X-4618152Y-2746222D02*
X-4618152Y-2850984D01*
X-4522914Y-2850984D02*
X-4522914Y-2717650D01*
X-4522914Y-2736698D02*
X-4513390Y-2727174D01*
X-4513390Y-2727174D02*
X-4494342Y-2717650D01*
X-4494342Y-2717650D02*
X-4465771Y-2717650D01*
X-4465771Y-2717650D02*
X-4446723Y-2727174D01*
X-4446723Y-2727174D02*
X-4437199Y-2746222D01*
X-4437199Y-2746222D02*
X-4437199Y-2850984D01*
X-4437199Y-2746222D02*
X-4427676Y-2727174D01*
X-4427676Y-2727174D02*
X-4408628Y-2717650D01*
X-4408628Y-2717650D02*
X-4380057Y-2717650D01*
X-4380057Y-2717650D02*
X-4361009Y-2727174D01*
X-4361009Y-2727174D02*
X-4351485Y-2746222D01*
X-4351485Y-2746222D02*
X-4351485Y-2850984D01*
X-3961009Y-2641460D02*
X-4132437Y-2898603D01*
X-3703866Y-2650984D02*
X-3684818Y-2650984D01*
X-3684818Y-2650984D02*
X-3665771Y-2660508D01*
X-3665771Y-2660508D02*
X-3656247Y-2670031D01*
X-3656247Y-2670031D02*
X-3646723Y-2689079D01*
X-3646723Y-2689079D02*
X-3637199Y-2727174D01*
X-3637199Y-2727174D02*
X-3637199Y-2774793D01*
X-3637199Y-2774793D02*
X-3646723Y-2812888D01*
X-3646723Y-2812888D02*
X-3656247Y-2831936D01*
X-3656247Y-2831936D02*
X-3665771Y-2841460D01*
X-3665771Y-2841460D02*
X-3684818Y-2850984D01*
X-3684818Y-2850984D02*
X-3703866Y-2850984D01*
X-3703866Y-2850984D02*
X-3722913Y-2841460D01*
X-3722913Y-2841460D02*
X-3732437Y-2831936D01*
X-3732437Y-2831936D02*
X-3741961Y-2812888D01*
X-3741961Y-2812888D02*
X-3751485Y-2774793D01*
X-3751485Y-2774793D02*
X-3751485Y-2727174D01*
X-3751485Y-2727174D02*
X-3741961Y-2689079D01*
X-3741961Y-2689079D02*
X-3732437Y-2670031D01*
X-3732437Y-2670031D02*
X-3722913Y-2660508D01*
X-3722913Y-2660508D02*
X-3703866Y-2650984D01*
X-3551485Y-2831936D02*
X-3541961Y-2841460D01*
X-3541961Y-2841460D02*
X-3551485Y-2850984D01*
X-3551485Y-2850984D02*
X-3561009Y-2841460D01*
X-3561009Y-2841460D02*
X-3551485Y-2831936D01*
X-3551485Y-2831936D02*
X-3551485Y-2850984D01*
X-3418152Y-2650984D02*
X-3399104Y-2650984D01*
X-3399104Y-2650984D02*
X-3380056Y-2660508D01*
X-3380056Y-2660508D02*
X-3370532Y-2670031D01*
X-3370532Y-2670031D02*
X-3361009Y-2689079D01*
X-3361009Y-2689079D02*
X-3351485Y-2727174D01*
X-3351485Y-2727174D02*
X-3351485Y-2774793D01*
X-3351485Y-2774793D02*
X-3361009Y-2812888D01*
X-3361009Y-2812888D02*
X-3370532Y-2831936D01*
X-3370532Y-2831936D02*
X-3380056Y-2841460D01*
X-3380056Y-2841460D02*
X-3399104Y-2850984D01*
X-3399104Y-2850984D02*
X-3418152Y-2850984D01*
X-3418152Y-2850984D02*
X-3437199Y-2841460D01*
X-3437199Y-2841460D02*
X-3446723Y-2831936D01*
X-3446723Y-2831936D02*
X-3456247Y-2812888D01*
X-3456247Y-2812888D02*
X-3465771Y-2774793D01*
X-3465771Y-2774793D02*
X-3465771Y-2727174D01*
X-3465771Y-2727174D02*
X-3456247Y-2689079D01*
X-3456247Y-2689079D02*
X-3446723Y-2670031D01*
X-3446723Y-2670031D02*
X-3437199Y-2660508D01*
X-3437199Y-2660508D02*
X-3418152Y-2650984D01*
X-3180056Y-2717650D02*
X-3180056Y-2850984D01*
X-3227675Y-2641460D02*
X-3275294Y-2784317D01*
X-3275294Y-2784317D02*
X-3151485Y-2784317D01*
X-3094342Y-2650984D02*
X-2961009Y-2650984D01*
X-2961009Y-2650984D02*
X-3046723Y-2850984D01*
X-2894342Y-2670031D02*
X-2884818Y-2660508D01*
X-2884818Y-2660508D02*
X-2865771Y-2650984D01*
X-2865771Y-2650984D02*
X-2818151Y-2650984D01*
X-2818151Y-2650984D02*
X-2799104Y-2660508D01*
X-2799104Y-2660508D02*
X-2789580Y-2670031D01*
X-2789580Y-2670031D02*
X-2780056Y-2689079D01*
X-2780056Y-2689079D02*
X-2780056Y-2708127D01*
X-2780056Y-2708127D02*
X-2789580Y-2736698D01*
X-2789580Y-2736698D02*
X-2903866Y-2850984D01*
X-2903866Y-2850984D02*
X-2780056Y-2850984D01*
X-2703866Y-2650984D02*
X-2703866Y-2689079D01*
X-2627675Y-2650984D02*
X-2627675Y-2689079D01*
X-2332437Y-2927174D02*
X-2341961Y-2917650D01*
X-2341961Y-2917650D02*
X-2361009Y-2889079D01*
X-2361009Y-2889079D02*
X-2370532Y-2870031D01*
X-2370532Y-2870031D02*
X-2380056Y-2841460D01*
X-2380056Y-2841460D02*
X-2389580Y-2793841D01*
X-2389580Y-2793841D02*
X-2389580Y-2755746D01*
X-2389580Y-2755746D02*
X-2380056Y-2708127D01*
X-2380056Y-2708127D02*
X-2370532Y-2679555D01*
X-2370532Y-2679555D02*
X-2361009Y-2660508D01*
X-2361009Y-2660508D02*
X-2341961Y-2631936D01*
X-2341961Y-2631936D02*
X-2332437Y-2622412D01*
X-2151485Y-2850984D02*
X-2265771Y-2850984D01*
X-2208628Y-2850984D02*
X-2208628Y-2650984D01*
X-2208628Y-2650984D02*
X-2227675Y-2679555D01*
X-2227675Y-2679555D02*
X-2246723Y-2698603D01*
X-2246723Y-2698603D02*
X-2265771Y-2708127D01*
X-2075294Y-2670031D02*
X-2065770Y-2660508D01*
X-2065770Y-2660508D02*
X-2046723Y-2650984D01*
X-2046723Y-2650984D02*
X-1999104Y-2650984D01*
X-1999104Y-2650984D02*
X-1980056Y-2660508D01*
X-1980056Y-2660508D02*
X-1970532Y-2670031D01*
X-1970532Y-2670031D02*
X-1961009Y-2689079D01*
X-1961009Y-2689079D02*
X-1961009Y-2708127D01*
X-1961009Y-2708127D02*
X-1970532Y-2736698D01*
X-1970532Y-2736698D02*
X-2084818Y-2850984D01*
X-2084818Y-2850984D02*
X-1961009Y-2850984D01*
X-1722913Y-2850984D02*
X-1722913Y-2650984D01*
X-1637199Y-2850984D02*
X-1637199Y-2746222D01*
X-1637199Y-2746222D02*
X-1646723Y-2727174D01*
X-1646723Y-2727174D02*
X-1665770Y-2717650D01*
X-1665770Y-2717650D02*
X-1694342Y-2717650D01*
X-1694342Y-2717650D02*
X-1713389Y-2727174D01*
X-1713389Y-2727174D02*
X-1722913Y-2736698D01*
X-1513389Y-2850984D02*
X-1532437Y-2841460D01*
X-1532437Y-2841460D02*
X-1541961Y-2831936D01*
X-1541961Y-2831936D02*
X-1551485Y-2812888D01*
X-1551485Y-2812888D02*
X-1551485Y-2755746D01*
X-1551485Y-2755746D02*
X-1541961Y-2736698D01*
X-1541961Y-2736698D02*
X-1532437Y-2727174D01*
X-1532437Y-2727174D02*
X-1513389Y-2717650D01*
X-1513389Y-2717650D02*
X-1484818Y-2717650D01*
X-1484818Y-2717650D02*
X-1465770Y-2727174D01*
X-1465770Y-2727174D02*
X-1456247Y-2736698D01*
X-1456247Y-2736698D02*
X-1446723Y-2755746D01*
X-1446723Y-2755746D02*
X-1446723Y-2812888D01*
X-1446723Y-2812888D02*
X-1456247Y-2831936D01*
X-1456247Y-2831936D02*
X-1465770Y-2841460D01*
X-1465770Y-2841460D02*
X-1484818Y-2850984D01*
X-1484818Y-2850984D02*
X-1513389Y-2850984D01*
X-1332437Y-2850984D02*
X-1351485Y-2841460D01*
X-1351485Y-2841460D02*
X-1361009Y-2822412D01*
X-1361009Y-2822412D02*
X-1361009Y-2650984D01*
X-1180056Y-2841460D02*
X-1199104Y-2850984D01*
X-1199104Y-2850984D02*
X-1237199Y-2850984D01*
X-1237199Y-2850984D02*
X-1256247Y-2841460D01*
X-1256247Y-2841460D02*
X-1265770Y-2822412D01*
X-1265770Y-2822412D02*
X-1265770Y-2746222D01*
X-1265770Y-2746222D02*
X-1256247Y-2727174D01*
X-1256247Y-2727174D02*
X-1237199Y-2717650D01*
X-1237199Y-2717650D02*
X-1199104Y-2717650D01*
X-1199104Y-2717650D02*
X-1180056Y-2727174D01*
X-1180056Y-2727174D02*
X-1170532Y-2746222D01*
X-1170532Y-2746222D02*
X-1170532Y-2765270D01*
X-1170532Y-2765270D02*
X-1265770Y-2784317D01*
X-1094342Y-2841460D02*
X-1075294Y-2850984D01*
X-1075294Y-2850984D02*
X-1037199Y-2850984D01*
X-1037199Y-2850984D02*
X-1018151Y-2841460D01*
X-1018151Y-2841460D02*
X-1008627Y-2822412D01*
X-1008627Y-2822412D02*
X-1008627Y-2812888D01*
X-1008627Y-2812888D02*
X-1018151Y-2793841D01*
X-1018151Y-2793841D02*
X-1037199Y-2784317D01*
X-1037199Y-2784317D02*
X-1065770Y-2784317D01*
X-1065770Y-2784317D02*
X-1084818Y-2774793D01*
X-1084818Y-2774793D02*
X-1094342Y-2755746D01*
X-1094342Y-2755746D02*
X-1094342Y-2746222D01*
X-1094342Y-2746222D02*
X-1084818Y-2727174D01*
X-1084818Y-2727174D02*
X-1065770Y-2717650D01*
X-1065770Y-2717650D02*
X-1037199Y-2717650D01*
X-1037199Y-2717650D02*
X-1018151Y-2727174D01*
X-941961Y-2927174D02*
X-932437Y-2917650D01*
X-932437Y-2917650D02*
X-913389Y-2889079D01*
X-913389Y-2889079D02*
X-903866Y-2870031D01*
X-903866Y-2870031D02*
X-894342Y-2841460D01*
X-894342Y-2841460D02*
X-884818Y-2793841D01*
X-884818Y-2793841D02*
X-884818Y-2755746D01*
X-884818Y-2755746D02*
X-894342Y-2708127D01*
X-894342Y-2708127D02*
X-903866Y-2679555D01*
X-903866Y-2679555D02*
X-913389Y-2660508D01*
X-913389Y-2660508D02*
X-932437Y-2631936D01*
X-932437Y-2631936D02*
X-941961Y-2622412D01*
M02*
