G04 #@! TF.GenerationSoftware,KiCad,Pcbnew,8.0.5*
G04 #@! TF.CreationDate,2024-10-10T15:49:41-07:00*
G04 #@! TF.ProjectId,Sampler-built,53616d70-6c65-4722-9d62-75696c742e6b,rev?*
G04 #@! TF.SameCoordinates,PX38444c0PY67f3540*
G04 #@! TF.FileFunction,Paste,Top*
G04 #@! TF.FilePolarity,Positive*
%FSLAX46Y46*%
G04 Gerber Fmt 4.6, Leading zero omitted, Abs format (unit mm)*
G04 Created by KiCad (PCBNEW 8.0.5) date 2024-10-10 15:49:41*
%MOMM*%
%LPD*%
G01*
G04 APERTURE LIST*
G04 Aperture macros list*
%AMRoundRect*
0 Rectangle with rounded corners*
0 $1 Rounding radius*
0 $2 $3 $4 $5 $6 $7 $8 $9 X,Y pos of 4 corners*
0 Add a 4 corners polygon primitive as box body*
4,1,4,$2,$3,$4,$5,$6,$7,$8,$9,$2,$3,0*
0 Add four circle primitives for the rounded corners*
1,1,$1+$1,$2,$3*
1,1,$1+$1,$4,$5*
1,1,$1+$1,$6,$7*
1,1,$1+$1,$8,$9*
0 Add four rect primitives between the rounded corners*
20,1,$1+$1,$2,$3,$4,$5,0*
20,1,$1+$1,$4,$5,$6,$7,0*
20,1,$1+$1,$6,$7,$8,$9,0*
20,1,$1+$1,$8,$9,$2,$3,0*%
G04 Aperture macros list end*
%ADD10R,0.900000X1.200000*%
%ADD11RoundRect,0.147500X0.147500X0.172500X-0.147500X0.172500X-0.147500X-0.172500X0.147500X-0.172500X0*%
%ADD12R,1.000000X1.000000*%
%ADD13RoundRect,0.147500X0.172500X-0.147500X0.172500X0.147500X-0.172500X0.147500X-0.172500X-0.147500X0*%
%ADD14R,0.700000X1.300000*%
%ADD15R,0.800100X0.800100*%
%ADD16R,1.450000X0.450000*%
%ADD17RoundRect,0.147500X-0.172500X0.147500X-0.172500X-0.147500X0.172500X-0.147500X0.172500X0.147500X0*%
%ADD18RoundRect,0.147500X-0.147500X-0.172500X0.147500X-0.172500X0.147500X0.172500X-0.147500X0.172500X0*%
%ADD19R,3.000000X1.600000*%
%ADD20R,1.700000X0.900000*%
%ADD21R,1.150000X1.400000*%
%ADD22R,1.220000X0.650000*%
%ADD23C,0.300000*%
%ADD24R,0.450000X1.450000*%
%ADD25R,1.200000X3.700000*%
%ADD26C,0.500000*%
%ADD27R,0.900000X1.700000*%
%ADD28RoundRect,0.100000X-0.100000X0.637500X-0.100000X-0.637500X0.100000X-0.637500X0.100000X0.637500X0*%
G04 APERTURE END LIST*
D10*
G04 #@! TO.C,D16*
X-42001433Y26960078D03*
X-45301433Y26960078D03*
G04 #@! TD*
D11*
G04 #@! TO.C,C61*
X-44709785Y86695000D03*
X-45679785Y86695000D03*
G04 #@! TD*
D12*
G04 #@! TO.C,R3*
X-12494785Y96130000D03*
X-12494785Y97830000D03*
G04 #@! TD*
D13*
G04 #@! TO.C,C1*
X-31391285Y70381678D03*
X-31391285Y71351678D03*
G04 #@! TD*
D12*
G04 #@! TO.C,R57*
X-11854785Y40240000D03*
X-13554785Y40240000D03*
G04 #@! TD*
D14*
G04 #@! TO.C,C44*
X-11900000Y25950000D03*
X-10000000Y25950000D03*
G04 #@! TD*
D12*
G04 #@! TO.C,R59*
X-49484785Y24830000D03*
X-49484785Y23130000D03*
G04 #@! TD*
D15*
G04 #@! TO.C,Q11*
X-43901433Y32860078D03*
X-43901433Y30960078D03*
X-41902453Y31910078D03*
G04 #@! TD*
D12*
G04 #@! TO.C,R61*
X-27859785Y9450000D03*
X-27859785Y11150000D03*
G04 #@! TD*
D16*
G04 #@! TO.C,U15*
X-14604785Y43955000D03*
X-14604785Y43305000D03*
X-14604785Y42655000D03*
X-14604785Y42005000D03*
X-8704785Y42005000D03*
X-8704785Y42655000D03*
X-8704785Y43305000D03*
X-8704785Y43955000D03*
G04 #@! TD*
D12*
G04 #@! TO.C,C45*
X-11500000Y24210000D03*
X-9800000Y24210000D03*
G04 #@! TD*
D17*
G04 #@! TO.C,R42*
X-3424785Y18044750D03*
X-3424785Y17074750D03*
G04 #@! TD*
D12*
G04 #@! TO.C,C25*
X-42051433Y28960078D03*
X-43751433Y28960078D03*
G04 #@! TD*
G04 #@! TO.C,C47*
X-15874785Y102870000D03*
X-15874785Y101170000D03*
G04 #@! TD*
D11*
G04 #@! TO.C,R161*
X-11576648Y4820078D03*
X-12546648Y4820078D03*
G04 #@! TD*
D12*
G04 #@! TO.C,C79*
X-50514785Y81185000D03*
X-48814785Y81185000D03*
G04 #@! TD*
G04 #@! TO.C,C55*
X-54981433Y71250078D03*
X-53281433Y71250078D03*
G04 #@! TD*
D17*
G04 #@! TO.C,C36*
X-37111285Y62821678D03*
X-37111285Y61851678D03*
G04 #@! TD*
D12*
G04 #@! TO.C,C65*
X-7006648Y65934638D03*
X-8706648Y65934638D03*
G04 #@! TD*
G04 #@! TO.C,R71*
X-37084785Y97550000D03*
X-35384785Y97550000D03*
G04 #@! TD*
D18*
G04 #@! TO.C,R52*
X-21562208Y29416592D03*
X-20592208Y29416592D03*
G04 #@! TD*
G04 #@! TO.C,C88*
X-12908296Y53750156D03*
X-11938296Y53750156D03*
G04 #@! TD*
D19*
G04 #@! TO.C,C24*
X-40246648Y6090078D03*
X-35846648Y6090078D03*
G04 #@! TD*
D12*
G04 #@! TO.C,R74*
X-35194785Y105670000D03*
X-36894785Y105670000D03*
G04 #@! TD*
D11*
G04 #@! TO.C,R55*
X-4139785Y19159750D03*
X-5109785Y19159750D03*
G04 #@! TD*
D17*
G04 #@! TO.C,R49*
X-14199785Y17344750D03*
X-14199785Y16374750D03*
G04 #@! TD*
D18*
G04 #@! TO.C,R41*
X-5248296Y60644638D03*
X-4278296Y60644638D03*
G04 #@! TD*
D20*
G04 #@! TO.C,C67*
X-50294940Y53940000D03*
X-50294940Y56840000D03*
G04 #@! TD*
D18*
G04 #@! TO.C,C13*
X-23546285Y60016678D03*
X-22576285Y60016678D03*
G04 #@! TD*
D11*
G04 #@! TO.C,R12*
X-13331648Y62980078D03*
X-14301648Y62980078D03*
G04 #@! TD*
D17*
G04 #@! TO.C,R40*
X-4226648Y64789638D03*
X-4226648Y63819638D03*
G04 #@! TD*
D12*
G04 #@! TO.C,R21*
X-25654785Y35040000D03*
X-25654785Y33340000D03*
G04 #@! TD*
D15*
G04 #@! TO.C,D15*
X-16143296Y52069396D03*
X-14243296Y52069396D03*
X-15193296Y54068376D03*
G04 #@! TD*
D11*
G04 #@! TO.C,C6*
X-37059785Y59600000D03*
X-38029785Y59600000D03*
G04 #@! TD*
D18*
G04 #@! TO.C,R30*
X-36639785Y32100000D03*
X-35669785Y32100000D03*
G04 #@! TD*
G04 #@! TO.C,C8*
X-10735000Y22920000D03*
X-9765000Y22920000D03*
G04 #@! TD*
G04 #@! TO.C,R66*
X-48359940Y53510000D03*
X-47389940Y53510000D03*
G04 #@! TD*
D15*
G04 #@! TO.C,U6*
X-55102193Y69410078D03*
X-55102193Y67510078D03*
X-53103213Y68460078D03*
G04 #@! TD*
D11*
G04 #@! TO.C,R162*
X-13596648Y5790078D03*
X-14566648Y5790078D03*
G04 #@! TD*
D18*
G04 #@! TO.C,C73*
X-33459785Y28970000D03*
X-32489785Y28970000D03*
G04 #@! TD*
D12*
G04 #@! TO.C,C90*
X-8744785Y20454750D03*
X-10444785Y20454750D03*
G04 #@! TD*
D15*
G04 #@! TO.C,D24*
X-35134785Y35420760D03*
X-37034785Y35420760D03*
X-36084785Y33421780D03*
G04 #@! TD*
D11*
G04 #@! TO.C,R65*
X-45274785Y53490000D03*
X-46244785Y53490000D03*
G04 #@! TD*
G04 #@! TO.C,C87*
X-7291648Y58805078D03*
X-8261648Y58805078D03*
G04 #@! TD*
D12*
G04 #@! TO.C,C22*
X-42234785Y67640000D03*
X-43934785Y67640000D03*
G04 #@! TD*
D18*
G04 #@! TO.C,R160*
X-22941648Y5380078D03*
X-21971648Y5380078D03*
G04 #@! TD*
D17*
G04 #@! TO.C,R164*
X-9216648Y9485078D03*
X-9216648Y8515078D03*
G04 #@! TD*
D13*
G04 #@! TO.C,R44*
X-14179785Y18339750D03*
X-14179785Y19309750D03*
G04 #@! TD*
D20*
G04 #@! TO.C,C70*
X-51301433Y61590078D03*
X-51301433Y58690078D03*
G04 #@! TD*
D18*
G04 #@! TO.C,C59*
X-12251648Y60724638D03*
X-11281648Y60724638D03*
G04 #@! TD*
D17*
G04 #@! TO.C,R7*
X-19126648Y11725078D03*
X-19126648Y10755078D03*
G04 #@! TD*
D12*
G04 #@! TO.C,C83*
X-12556648Y65994638D03*
X-10856648Y65994638D03*
G04 #@! TD*
G04 #@! TO.C,R73*
X-15874785Y106490000D03*
X-15874785Y104790000D03*
G04 #@! TD*
D18*
G04 #@! TO.C,R23*
X-42924785Y84525000D03*
X-41954785Y84525000D03*
G04 #@! TD*
D17*
G04 #@! TO.C,R14*
X-12506648Y11715078D03*
X-12506648Y10745078D03*
G04 #@! TD*
D12*
G04 #@! TO.C,C57*
X-4824785Y17809750D03*
X-4824785Y16109750D03*
G04 #@! TD*
G04 #@! TO.C,C49*
X-3598653Y31024052D03*
X-5298653Y31024052D03*
G04 #@! TD*
D17*
G04 #@! TO.C,R18*
X-13753296Y56075156D03*
X-13753296Y55105156D03*
G04 #@! TD*
D12*
G04 #@! TO.C,C66*
X-43244785Y81015000D03*
X-44944785Y81015000D03*
G04 #@! TD*
D11*
G04 #@! TO.C,C60*
X-7681648Y60694638D03*
X-8651648Y60694638D03*
G04 #@! TD*
D12*
G04 #@! TO.C,R5*
X-10754785Y96150000D03*
X-10754785Y97850000D03*
G04 #@! TD*
D15*
G04 #@! TO.C,D1*
X-29424785Y34099240D03*
X-27524785Y34099240D03*
X-28474785Y36098220D03*
G04 #@! TD*
D17*
G04 #@! TO.C,C11*
X-28381285Y57101678D03*
X-28381285Y56131678D03*
G04 #@! TD*
D18*
G04 #@! TO.C,R47*
X-7530000Y35177500D03*
X-6560000Y35177500D03*
G04 #@! TD*
D12*
G04 #@! TO.C,C20*
X-43401433Y5640078D03*
X-43401433Y3940078D03*
G04 #@! TD*
G04 #@! TO.C,C39*
X-56194785Y104730000D03*
X-56194785Y106430000D03*
G04 #@! TD*
G04 #@! TO.C,C26*
X-48678081Y5620156D03*
X-46978081Y5620156D03*
G04 #@! TD*
G04 #@! TO.C,R29*
X-10154785Y40255000D03*
X-8454785Y40255000D03*
G04 #@! TD*
G04 #@! TO.C,C46*
X-4904785Y43555000D03*
X-4904785Y41855000D03*
G04 #@! TD*
G04 #@! TO.C,R37*
X-45151433Y5640078D03*
X-45151433Y3940078D03*
G04 #@! TD*
G04 #@! TO.C,R79*
X-36721433Y84500078D03*
X-35021433Y84500078D03*
G04 #@! TD*
G04 #@! TO.C,C2*
X-23261285Y66356678D03*
X-23261285Y68056678D03*
G04 #@! TD*
D18*
G04 #@! TO.C,R48*
X-8851648Y36530078D03*
X-7881648Y36530078D03*
G04 #@! TD*
D21*
G04 #@! TO.C,Y1*
X-41744785Y65410000D03*
X-40244785Y63310000D03*
X-41744785Y63310000D03*
X-40244785Y65410000D03*
G04 #@! TD*
D12*
G04 #@! TO.C,R68*
X-54854785Y97830000D03*
X-53154785Y97830000D03*
G04 #@! TD*
D11*
G04 #@! TO.C,C35*
X-8419785Y45455000D03*
X-9389785Y45455000D03*
G04 #@! TD*
D15*
G04 #@! TO.C,D22*
X-42536648Y47050838D03*
X-44436648Y47050838D03*
X-43486648Y45051858D03*
G04 #@! TD*
D11*
G04 #@! TO.C,C17*
X-36686285Y66056678D03*
X-37656285Y66056678D03*
G04 #@! TD*
D12*
G04 #@! TO.C,R80*
X-36721433Y87050078D03*
X-35021433Y87050078D03*
G04 #@! TD*
D11*
G04 #@! TO.C,C64*
X-47320732Y45435078D03*
X-48290732Y45435078D03*
G04 #@! TD*
D17*
G04 #@! TO.C,C76*
X-24631648Y27635078D03*
X-24631648Y26665078D03*
G04 #@! TD*
D12*
G04 #@! TO.C,C42*
X-10145665Y38680500D03*
X-8445665Y38680500D03*
G04 #@! TD*
D16*
G04 #@! TO.C,U10*
X-28164785Y30465000D03*
X-28164785Y31115000D03*
X-28164785Y31765000D03*
X-28164785Y32415000D03*
X-34064785Y32415000D03*
X-34064785Y31765000D03*
X-34064785Y31115000D03*
X-34064785Y30465000D03*
G04 #@! TD*
D11*
G04 #@! TO.C,C150*
X-10277816Y9800078D03*
X-11247816Y9800078D03*
G04 #@! TD*
D18*
G04 #@! TO.C,R2*
X-27339785Y28940000D03*
X-26369785Y28940000D03*
G04 #@! TD*
D11*
G04 #@! TO.C,R50*
X-21311648Y18550078D03*
X-22281648Y18550078D03*
G04 #@! TD*
G04 #@! TO.C,R152*
X-17288296Y3600156D03*
X-18258296Y3600156D03*
G04 #@! TD*
D18*
G04 #@! TO.C,R11*
X-14343352Y64278158D03*
X-13373352Y64278158D03*
G04 #@! TD*
D22*
G04 #@! TO.C,U13*
X-48214785Y56680000D03*
X-48214785Y55730000D03*
X-48214785Y54780000D03*
X-45594785Y54780000D03*
X-45594785Y55730000D03*
X-45594785Y56680000D03*
G04 #@! TD*
D12*
G04 #@! TO.C,R20*
X-44088197Y38521867D03*
X-44088197Y40221867D03*
G04 #@! TD*
G04 #@! TO.C,C51*
X-5308005Y25817500D03*
X-3608005Y25817500D03*
G04 #@! TD*
D18*
G04 #@! TO.C,R51*
X-22401648Y17280078D03*
X-21431648Y17280078D03*
G04 #@! TD*
D23*
G04 #@! TO.C,U2*
X-34751285Y68166678D03*
X-34101285Y68166678D03*
X-33451285Y68166678D03*
X-32801285Y68166678D03*
X-32151285Y68166678D03*
X-31501285Y68166678D03*
X-30851285Y68166678D03*
X-30201285Y68166678D03*
X-29551285Y68166678D03*
X-28901285Y68166678D03*
X-28251285Y68166678D03*
X-27601285Y68166678D03*
X-26951285Y68166678D03*
X-26301285Y68166678D03*
X-25651285Y68166678D03*
X-34751285Y67516678D03*
X-34101285Y67516678D03*
X-33451285Y67516678D03*
X-32801285Y67516678D03*
X-32151285Y67516678D03*
X-31501285Y67516678D03*
X-30851285Y67516678D03*
X-30201285Y67516678D03*
X-29551285Y67516678D03*
X-28901285Y67516678D03*
X-28251285Y67516678D03*
X-27601285Y67516678D03*
X-26951285Y67516678D03*
X-26301285Y67516678D03*
X-25651285Y67516678D03*
X-34751285Y66866678D03*
X-34101285Y66866678D03*
X-33451285Y66866678D03*
X-32801285Y66866678D03*
X-32151285Y66866678D03*
X-31501285Y66866678D03*
X-30851285Y66866678D03*
X-30201285Y66866678D03*
X-29551285Y66866678D03*
X-28901285Y66866678D03*
X-28251285Y66866678D03*
X-27601285Y66866678D03*
X-26951285Y66866678D03*
X-26301285Y66866678D03*
X-25651285Y66866678D03*
X-34751285Y66216678D03*
X-34101285Y66216678D03*
X-33451285Y66216678D03*
X-32801285Y66216678D03*
X-32151285Y66216678D03*
X-31501285Y66216678D03*
X-30851285Y66216678D03*
X-30201285Y66216678D03*
X-29551285Y66216678D03*
X-28901285Y66216678D03*
X-28251285Y66216678D03*
X-27601285Y66216678D03*
X-26951285Y66216678D03*
X-26301285Y66216678D03*
X-25651285Y66216678D03*
X-34751285Y65566678D03*
X-34101285Y65566678D03*
X-33451285Y65566678D03*
X-32801285Y65566678D03*
X-27601285Y65566678D03*
X-26951285Y65566678D03*
X-26301285Y65566678D03*
X-25651285Y65566678D03*
X-34751285Y64916678D03*
X-34101285Y64916678D03*
X-33451285Y64916678D03*
X-32801285Y64916678D03*
X-31501285Y64916678D03*
X-30851285Y64916678D03*
X-30201285Y64916678D03*
X-29551285Y64916678D03*
X-28901285Y64916678D03*
X-27601285Y64916678D03*
X-26951285Y64916678D03*
X-26301285Y64916678D03*
X-25651285Y64916678D03*
X-34751285Y64266678D03*
X-34101285Y64266678D03*
X-33451285Y64266678D03*
X-32801285Y64266678D03*
X-31501285Y64266678D03*
X-30851285Y64266678D03*
X-30201285Y64266678D03*
X-29551285Y64266678D03*
X-28901285Y64266678D03*
X-27601285Y64266678D03*
X-26951285Y64266678D03*
X-26301285Y64266678D03*
X-25651285Y64266678D03*
X-34751285Y63616678D03*
X-34101285Y63616678D03*
X-33451285Y63616678D03*
X-32801285Y63616678D03*
X-31501285Y63616678D03*
X-30851285Y63616678D03*
X-30201285Y63616678D03*
X-29551285Y63616678D03*
X-28901285Y63616678D03*
X-27601285Y63616678D03*
X-26951285Y63616678D03*
X-26301285Y63616678D03*
X-25651285Y63616678D03*
X-34751285Y62966678D03*
X-34101285Y62966678D03*
X-33451285Y62966678D03*
X-32801285Y62966678D03*
X-31501285Y62966678D03*
X-30851285Y62966678D03*
X-30201285Y62966678D03*
X-29551285Y62966678D03*
X-28901285Y62966678D03*
X-27601285Y62966678D03*
X-26951285Y62966678D03*
X-26301285Y62966678D03*
X-25651285Y62966678D03*
X-34751285Y62316678D03*
X-34101285Y62316678D03*
X-33451285Y62316678D03*
X-32801285Y62316678D03*
X-31501285Y62316678D03*
X-30851285Y62316678D03*
X-30201285Y62316678D03*
X-29551285Y62316678D03*
X-28901285Y62316678D03*
X-27601285Y62316678D03*
X-26951285Y62316678D03*
X-26301285Y62316678D03*
X-25651285Y62316678D03*
X-34751285Y61666678D03*
X-34101285Y61666678D03*
X-33451285Y61666678D03*
X-32801285Y61666678D03*
X-27601285Y61666678D03*
X-26951285Y61666678D03*
X-26301285Y61666678D03*
X-25651285Y61666678D03*
X-34751285Y61016678D03*
X-34101285Y61016678D03*
X-33451285Y61016678D03*
X-32801285Y61016678D03*
X-32151285Y61016678D03*
X-31501285Y61016678D03*
X-30851285Y61016678D03*
X-30201285Y61016678D03*
X-29551285Y61016678D03*
X-28901285Y61016678D03*
X-28251285Y61016678D03*
X-27601285Y61016678D03*
X-26951285Y61016678D03*
X-26301285Y61016678D03*
X-25651285Y61016678D03*
X-34751285Y60366678D03*
X-34101285Y60366678D03*
X-33451285Y60366678D03*
X-32801285Y60366678D03*
X-32151285Y60366678D03*
X-31501285Y60366678D03*
X-30851285Y60366678D03*
X-30201285Y60366678D03*
X-29551285Y60366678D03*
X-28901285Y60366678D03*
X-28251285Y60366678D03*
X-27601285Y60366678D03*
X-26951285Y60366678D03*
X-26301285Y60366678D03*
X-25651285Y60366678D03*
X-34751285Y59716678D03*
X-34101285Y59716678D03*
X-33451285Y59716678D03*
X-32801285Y59716678D03*
X-32151285Y59716678D03*
X-31501285Y59716678D03*
X-30851285Y59716678D03*
X-30201285Y59716678D03*
X-29551285Y59716678D03*
X-28901285Y59716678D03*
X-28251285Y59716678D03*
X-27601285Y59716678D03*
X-26951285Y59716678D03*
X-26301285Y59716678D03*
X-25651285Y59716678D03*
X-34751285Y59066678D03*
X-34101285Y59066678D03*
X-33451285Y59066678D03*
X-32801285Y59066678D03*
X-32151285Y59066678D03*
X-31501285Y59066678D03*
X-30851285Y59066678D03*
X-30201285Y59066678D03*
X-29551285Y59066678D03*
X-28901285Y59066678D03*
X-28251285Y59066678D03*
X-27601285Y59066678D03*
X-26951285Y59066678D03*
X-26301285Y59066678D03*
X-25651285Y59066678D03*
G04 #@! TD*
D24*
G04 #@! TO.C,U11*
X-21096648Y27680078D03*
X-21746648Y27680078D03*
X-22396648Y27680078D03*
X-23046648Y27680078D03*
X-23046648Y21780078D03*
X-22396648Y21780078D03*
X-21746648Y21780078D03*
X-21096648Y21780078D03*
G04 #@! TD*
D13*
G04 #@! TO.C,R22*
X-42834785Y82430000D03*
X-42834785Y83400000D03*
G04 #@! TD*
G04 #@! TO.C,C3*
X-29371285Y70391678D03*
X-29371285Y71361678D03*
G04 #@! TD*
D17*
G04 #@! TO.C,C38*
X-33079785Y8485000D03*
X-33079785Y7515000D03*
G04 #@! TD*
D16*
G04 #@! TO.C,U12*
X-12766648Y7325078D03*
X-12766648Y7975078D03*
X-12766648Y8625078D03*
X-12766648Y9275078D03*
X-18666648Y9275078D03*
X-18666648Y8625078D03*
X-18666648Y7975078D03*
X-18666648Y7325078D03*
G04 #@! TD*
D18*
G04 #@! TO.C,C72*
X-11099785Y15214750D03*
X-10129785Y15214750D03*
G04 #@! TD*
D12*
G04 #@! TO.C,R24*
X-38034785Y29940000D03*
X-38034785Y31640000D03*
G04 #@! TD*
G04 #@! TO.C,C52*
X-18071648Y18380078D03*
X-18071648Y20080078D03*
G04 #@! TD*
G04 #@! TO.C,R77*
X-36721433Y79400078D03*
X-35021433Y79400078D03*
G04 #@! TD*
G04 #@! TO.C,C58*
X-44728785Y59634000D03*
X-44728785Y61334000D03*
G04 #@! TD*
D18*
G04 #@! TO.C,C9*
X-23656285Y63386678D03*
X-22686285Y63386678D03*
G04 #@! TD*
G04 #@! TO.C,C29*
X-27716285Y52946678D03*
X-26746285Y52946678D03*
G04 #@! TD*
D19*
G04 #@! TO.C,C21*
X-55101433Y32710078D03*
X-50701433Y32710078D03*
G04 #@! TD*
D13*
G04 #@! TO.C,C97*
X-14753296Y55175156D03*
X-14753296Y56145156D03*
G04 #@! TD*
D12*
G04 #@! TO.C,R13*
X-46304785Y97860000D03*
X-48004785Y97860000D03*
G04 #@! TD*
G04 #@! TO.C,R26*
X-39246648Y42250078D03*
X-40946648Y42250078D03*
G04 #@! TD*
D11*
G04 #@! TO.C,C18*
X-36711285Y67116678D03*
X-37681285Y67116678D03*
G04 #@! TD*
D12*
G04 #@! TO.C,R31*
X-47651433Y31010078D03*
X-47651433Y32710078D03*
G04 #@! TD*
G04 #@! TO.C,C54*
X-36914785Y107290000D03*
X-35214785Y107290000D03*
G04 #@! TD*
D17*
G04 #@! TO.C,C10*
X-27341285Y57111678D03*
X-27341285Y56141678D03*
G04 #@! TD*
G04 #@! TO.C,R33*
X-51246648Y46510078D03*
X-51246648Y45540078D03*
G04 #@! TD*
D12*
G04 #@! TO.C,R63*
X-33009785Y10020000D03*
X-33009785Y11720000D03*
G04 #@! TD*
D24*
G04 #@! TO.C,U16*
X-31504785Y2160000D03*
X-30854785Y2160000D03*
X-30204785Y2160000D03*
X-29554785Y2160000D03*
X-29554785Y8060000D03*
X-30204785Y8060000D03*
X-30854785Y8060000D03*
X-31504785Y8060000D03*
G04 #@! TD*
D11*
G04 #@! TO.C,C19*
X-53279785Y7800000D03*
X-54249785Y7800000D03*
G04 #@! TD*
G04 #@! TO.C,R81*
X-35664785Y30670000D03*
X-36634785Y30670000D03*
G04 #@! TD*
D18*
G04 #@! TO.C,C62*
X-48429785Y86635000D03*
X-47459785Y86635000D03*
G04 #@! TD*
D17*
G04 #@! TO.C,R158*
X-20512816Y6805078D03*
X-20512816Y5835078D03*
G04 #@! TD*
D18*
G04 #@! TO.C,C14*
X-23656285Y64426678D03*
X-22686285Y64426678D03*
G04 #@! TD*
D17*
G04 #@! TO.C,C152*
X-20622816Y4715078D03*
X-20622816Y3745078D03*
G04 #@! TD*
D16*
G04 #@! TO.C,U1*
X-5806648Y62245078D03*
X-5806648Y62895078D03*
X-5806648Y63545078D03*
X-5806648Y64195078D03*
X-11706648Y64195078D03*
X-11706648Y63545078D03*
X-11706648Y62895078D03*
X-11706648Y62245078D03*
G04 #@! TD*
D12*
G04 #@! TO.C,R9*
X-16454785Y42130000D03*
X-16454785Y43830000D03*
G04 #@! TD*
G04 #@! TO.C,R64*
X-6894785Y97920000D03*
X-8594785Y97920000D03*
G04 #@! TD*
D13*
G04 #@! TO.C,R67*
X-44044940Y55815000D03*
X-44044940Y56785000D03*
G04 #@! TD*
D11*
G04 #@! TO.C,R4*
X-22546285Y62156678D03*
X-23516285Y62156678D03*
G04 #@! TD*
D15*
G04 #@! TO.C,V2*
X-49444785Y70090000D03*
X-47544785Y70090000D03*
X-48494785Y72088980D03*
G04 #@! TD*
D11*
G04 #@! TO.C,R27*
X-42631648Y41990078D03*
X-43601648Y41990078D03*
G04 #@! TD*
D13*
G04 #@! TO.C,C7*
X-32431285Y70371678D03*
X-32431285Y71341678D03*
G04 #@! TD*
D11*
G04 #@! TO.C,C78*
X-15011648Y10780078D03*
X-15981648Y10780078D03*
G04 #@! TD*
D12*
G04 #@! TO.C,R35*
X-56354785Y102360000D03*
X-54654785Y102360000D03*
G04 #@! TD*
D11*
G04 #@! TO.C,R34*
X-53891648Y41970078D03*
X-54861648Y41970078D03*
G04 #@! TD*
D12*
G04 #@! TO.C,R56*
X-6704785Y43505000D03*
X-6704785Y41805000D03*
G04 #@! TD*
D13*
G04 #@! TO.C,C85*
X-56626648Y44685078D03*
X-56626648Y45655078D03*
G04 #@! TD*
D12*
G04 #@! TO.C,C48*
X-20926648Y19910078D03*
X-22626648Y19910078D03*
G04 #@! TD*
G04 #@! TO.C,R36*
X-54554785Y104730000D03*
X-54554785Y106430000D03*
G04 #@! TD*
D13*
G04 #@! TO.C,R159*
X-20326648Y8805078D03*
X-20326648Y9775078D03*
G04 #@! TD*
G04 #@! TO.C,C50*
X-30311285Y70371678D03*
X-30311285Y71341678D03*
G04 #@! TD*
D25*
G04 #@! TO.C,L1*
X-46454785Y59940000D03*
X-49254785Y59940000D03*
G04 #@! TD*
D17*
G04 #@! TO.C,C12*
X-29941285Y57101678D03*
X-29941285Y56131678D03*
G04 #@! TD*
G04 #@! TO.C,R6*
X-18086648Y11745078D03*
X-18086648Y10775078D03*
G04 #@! TD*
D11*
G04 #@! TO.C,R8*
X-29379785Y72360000D03*
X-30349785Y72360000D03*
G04 #@! TD*
D12*
G04 #@! TO.C,R60*
X-27764785Y6800000D03*
X-27764785Y5100000D03*
G04 #@! TD*
D16*
G04 #@! TO.C,U3*
X-50374785Y85085000D03*
X-50374785Y84435000D03*
X-50374785Y83785000D03*
X-50374785Y83135000D03*
X-44474785Y83135000D03*
X-44474785Y83785000D03*
X-44474785Y84435000D03*
X-44474785Y85085000D03*
G04 #@! TD*
D12*
G04 #@! TO.C,R15*
X-23944785Y37840000D03*
X-23944785Y36140000D03*
G04 #@! TD*
D13*
G04 #@! TO.C,C15*
X-40161433Y60555078D03*
X-40161433Y61525078D03*
G04 #@! TD*
D18*
G04 #@! TO.C,C77*
X-17396648Y5780078D03*
X-16426648Y5780078D03*
G04 #@! TD*
D11*
G04 #@! TO.C,R157*
X-18432816Y4710078D03*
X-19402816Y4710078D03*
G04 #@! TD*
D17*
G04 #@! TO.C,C82*
X-30884785Y35235000D03*
X-30884785Y34265000D03*
G04 #@! TD*
D11*
G04 #@! TO.C,C149*
X-11576648Y5860078D03*
X-12546648Y5860078D03*
G04 #@! TD*
D18*
G04 #@! TO.C,C86*
X-42291648Y44550078D03*
X-41321648Y44550078D03*
G04 #@! TD*
D17*
G04 #@! TO.C,R54*
X-19551648Y20260078D03*
X-19551648Y19290078D03*
G04 #@! TD*
D12*
G04 #@! TO.C,C56*
X-55151433Y65710078D03*
X-53451433Y65710078D03*
G04 #@! TD*
G04 #@! TO.C,R25*
X-55796648Y47470078D03*
X-54096648Y47470078D03*
G04 #@! TD*
D15*
G04 #@! TO.C,D3*
X-53065545Y24840000D03*
X-53065545Y22940000D03*
X-51066565Y23890000D03*
G04 #@! TD*
D18*
G04 #@! TO.C,R28*
X-43621648Y43340078D03*
X-42651648Y43340078D03*
G04 #@! TD*
D20*
G04 #@! TO.C,C68*
X-53636381Y61568456D03*
X-53636381Y58668456D03*
G04 #@! TD*
D15*
G04 #@! TO.C,D7*
X-54075545Y6430000D03*
X-54075545Y4530000D03*
X-52076565Y5480000D03*
G04 #@! TD*
D16*
G04 #@! TO.C,U5*
X-45226648Y41985078D03*
X-45226648Y42635078D03*
X-45226648Y43285078D03*
X-45226648Y43935078D03*
X-51126648Y43935078D03*
X-51126648Y43285078D03*
X-51126648Y42635078D03*
X-51126648Y41985078D03*
G04 #@! TD*
D18*
G04 #@! TO.C,C53*
X-23546285Y61086678D03*
X-22576285Y61086678D03*
G04 #@! TD*
D15*
G04 #@! TO.C,D26*
X-55357408Y45760078D03*
X-55357408Y43860078D03*
X-53358428Y44810078D03*
G04 #@! TD*
D13*
G04 #@! TO.C,R45*
X-51994785Y82665000D03*
X-51994785Y83635000D03*
G04 #@! TD*
D12*
G04 #@! TO.C,R17*
X-49526648Y47920078D03*
X-51226648Y47920078D03*
G04 #@! TD*
D26*
G04 #@! TO.C,U4*
X-27551285Y44196678D03*
X-28351285Y44196678D03*
X-29151285Y44196678D03*
X-32351285Y44196678D03*
X-33151285Y44196678D03*
X-33951285Y44196678D03*
X-27551285Y44996678D03*
X-28351285Y44996678D03*
X-29151285Y44996678D03*
X-32351285Y44996678D03*
X-33151285Y44996678D03*
X-33951285Y44996678D03*
X-27551285Y45796678D03*
X-28351285Y45796678D03*
X-29151285Y45796678D03*
X-32351285Y45796678D03*
X-33151285Y45796678D03*
X-33951285Y45796678D03*
X-27551285Y46596678D03*
X-28351285Y46596678D03*
X-29151285Y46596678D03*
X-32351285Y46596678D03*
X-33151285Y46596678D03*
X-33951285Y46596678D03*
X-27551285Y47396678D03*
X-28351285Y47396678D03*
X-29151285Y47396678D03*
X-32351285Y47396678D03*
X-33151285Y47396678D03*
X-33951285Y47396678D03*
X-27551285Y48196678D03*
X-28351285Y48196678D03*
X-29151285Y48196678D03*
X-32351285Y48196678D03*
X-33151285Y48196678D03*
X-33951285Y48196678D03*
X-27551285Y48996678D03*
X-28351285Y48996678D03*
X-29151285Y48996678D03*
X-32351285Y48996678D03*
X-33151285Y48996678D03*
X-33951285Y48996678D03*
X-27551285Y49796678D03*
X-28351285Y49796678D03*
X-29151285Y49796678D03*
X-32351285Y49796678D03*
X-33151285Y49796678D03*
X-33951285Y49796678D03*
X-27551285Y50596678D03*
X-28351285Y50596678D03*
X-29151285Y50596678D03*
X-32351285Y50596678D03*
X-33151285Y50596678D03*
X-33951285Y50596678D03*
G04 #@! TD*
D13*
G04 #@! TO.C,C40*
X-28134785Y2425000D03*
X-28134785Y3395000D03*
G04 #@! TD*
D10*
G04 #@! TO.C,D17*
X-43434785Y7590000D03*
X-46734785Y7590000D03*
G04 #@! TD*
D11*
G04 #@! TO.C,C71*
X-6339785Y20159750D03*
X-7309785Y20159750D03*
G04 #@! TD*
D12*
G04 #@! TO.C,C16*
X-45901433Y30960078D03*
X-45901433Y32660078D03*
G04 #@! TD*
G04 #@! TO.C,C84*
X-29569785Y9920000D03*
X-31269785Y9920000D03*
G04 #@! TD*
D11*
G04 #@! TO.C,R1*
X-25569785Y31820000D03*
X-26539785Y31820000D03*
G04 #@! TD*
D18*
G04 #@! TO.C,R46*
X-50754785Y86605000D03*
X-49784785Y86605000D03*
G04 #@! TD*
D27*
G04 #@! TO.C,C43*
X-38011433Y89570078D03*
X-35111433Y89570078D03*
G04 #@! TD*
D12*
G04 #@! TO.C,R58*
X-50454785Y4540000D03*
X-50454785Y6240000D03*
G04 #@! TD*
G04 #@! TO.C,C81*
X-51144785Y70220760D03*
X-51144785Y68520760D03*
G04 #@! TD*
D16*
G04 #@! TO.C,U8*
X-12624785Y18709750D03*
X-12624785Y18059750D03*
X-12624785Y17409750D03*
X-12624785Y16759750D03*
X-6724785Y16759750D03*
X-6724785Y17409750D03*
X-6724785Y18059750D03*
X-6724785Y18709750D03*
G04 #@! TD*
D12*
G04 #@! TO.C,R75*
X-35254785Y101020000D03*
X-36954785Y101020000D03*
G04 #@! TD*
G04 #@! TO.C,R32*
X-13104785Y45855000D03*
X-11404785Y45855000D03*
G04 #@! TD*
D11*
G04 #@! TO.C,C41*
X-11595000Y35210000D03*
X-12565000Y35210000D03*
G04 #@! TD*
D12*
G04 #@! TO.C,C80*
X-47734785Y68520760D03*
X-49434785Y68520760D03*
G04 #@! TD*
D15*
G04 #@! TO.C,Q12*
X-46821433Y3730838D03*
X-48721433Y3730838D03*
X-47771433Y1731858D03*
G04 #@! TD*
D11*
G04 #@! TO.C,C153*
X-9396648Y7360078D03*
X-10366648Y7360078D03*
G04 #@! TD*
D15*
G04 #@! TO.C,V1*
X-5148765Y29347500D03*
X-5148765Y27447500D03*
X-3149785Y28397500D03*
G04 #@! TD*
D13*
G04 #@! TO.C,C75*
X-24601648Y24365078D03*
X-24601648Y25335078D03*
G04 #@! TD*
G04 #@! TO.C,C34*
X-33784785Y34005000D03*
X-33784785Y34975000D03*
G04 #@! TD*
D12*
G04 #@! TO.C,C23*
X-43884785Y64250000D03*
X-43884785Y65950000D03*
G04 #@! TD*
D11*
G04 #@! TO.C,R43*
X-7409785Y15284750D03*
X-8379785Y15284750D03*
G04 #@! TD*
D14*
G04 #@! TO.C,C69*
X-53691433Y63470078D03*
X-51791433Y63470078D03*
G04 #@! TD*
D13*
G04 #@! TO.C,C148*
X-21846648Y6525078D03*
X-21846648Y7495078D03*
G04 #@! TD*
D12*
G04 #@! TO.C,R16*
X-38704785Y35080000D03*
X-38704785Y33380000D03*
G04 #@! TD*
D28*
G04 #@! TO.C,U9*
X-7415000Y33582500D03*
X-8065000Y33582500D03*
X-8715000Y33582500D03*
X-9365000Y33582500D03*
X-10015000Y33582500D03*
X-10665000Y33582500D03*
X-11315000Y33582500D03*
X-11965000Y33582500D03*
X-12615000Y33582500D03*
X-13265000Y33582500D03*
X-13915000Y33582500D03*
X-14565000Y33582500D03*
X-15215000Y33582500D03*
X-15865000Y33582500D03*
X-15865000Y27857500D03*
X-15215000Y27857500D03*
X-14565000Y27857500D03*
X-13915000Y27857500D03*
X-13265000Y27857500D03*
X-12615000Y27857500D03*
X-11965000Y27857500D03*
X-11315000Y27857500D03*
X-10665000Y27857500D03*
X-10015000Y27857500D03*
X-9365000Y27857500D03*
X-8715000Y27857500D03*
X-8065000Y27857500D03*
X-7415000Y27857500D03*
G04 #@! TD*
D11*
G04 #@! TO.C,R19*
X-14458296Y57970156D03*
X-15428296Y57970156D03*
G04 #@! TD*
G04 #@! TO.C,C74*
X-29899785Y28970000D03*
X-30869785Y28970000D03*
G04 #@! TD*
D12*
G04 #@! TO.C,R78*
X-36721433Y81950078D03*
X-35021433Y81950078D03*
G04 #@! TD*
G04 #@! TO.C,R70*
X-21954785Y101390000D03*
X-23654785Y101390000D03*
G04 #@! TD*
D18*
G04 #@! TO.C,R163*
X-11227816Y8670078D03*
X-10257816Y8670078D03*
G04 #@! TD*
D12*
G04 #@! TO.C,C5*
X-21231285Y64646678D03*
X-21231285Y62946678D03*
G04 #@! TD*
D17*
G04 #@! TO.C,R10*
X-11506648Y11785078D03*
X-11506648Y10815078D03*
G04 #@! TD*
D12*
G04 #@! TO.C,R62*
X-29599785Y11530000D03*
X-31299785Y11530000D03*
G04 #@! TD*
D18*
G04 #@! TO.C,C63*
X-51570732Y40485078D03*
X-50600732Y40485078D03*
G04 #@! TD*
D13*
G04 #@! TO.C,R153*
X-11583296Y2925156D03*
X-11583296Y3895156D03*
G04 #@! TD*
D18*
G04 #@! TO.C,C37*
X-16199785Y40540000D03*
X-15229785Y40540000D03*
G04 #@! TD*
D16*
G04 #@! TO.C,U14*
X-12276648Y57205078D03*
X-12276648Y56555078D03*
X-12276648Y55905078D03*
X-12276648Y55255078D03*
X-6376648Y55255078D03*
X-6376648Y55905078D03*
X-6376648Y56555078D03*
X-6376648Y57205078D03*
G04 #@! TD*
D11*
G04 #@! TO.C,C147*
X-18477816Y5770078D03*
X-19447816Y5770078D03*
G04 #@! TD*
G04 #@! TO.C,R53*
X-22562208Y29426592D03*
X-23532208Y29426592D03*
G04 #@! TD*
M02*
