G04 #@! TF.GenerationSoftware,KiCad,Pcbnew,8.0.5*
G04 #@! TF.CreationDate,2024-10-10T15:49:41-07:00*
G04 #@! TF.ProjectId,Sampler-built,53616d70-6c65-4722-9d62-75696c742e6b,rev?*
G04 #@! TF.SameCoordinates,PX38444c0PY67f3540*
G04 #@! TF.FileFunction,Soldermask,Bot*
G04 #@! TF.FilePolarity,Negative*
%FSLAX46Y46*%
G04 Gerber Fmt 4.6, Leading zero omitted, Abs format (unit mm)*
G04 Created by KiCad (PCBNEW 8.0.5) date 2024-10-10 15:49:41*
%MOMM*%
%LPD*%
G01*
G04 APERTURE LIST*
G04 Aperture macros list*
%AMRoundRect*
0 Rectangle with rounded corners*
0 $1 Rounding radius*
0 $2 $3 $4 $5 $6 $7 $8 $9 X,Y pos of 4 corners*
0 Add a 4 corners polygon primitive as box body*
4,1,4,$2,$3,$4,$5,$6,$7,$8,$9,$2,$3,0*
0 Add four circle primitives for the rounded corners*
1,1,$1+$1,$2,$3*
1,1,$1+$1,$4,$5*
1,1,$1+$1,$6,$7*
1,1,$1+$1,$8,$9*
0 Add four rect primitives between the rounded corners*
20,1,$1+$1,$2,$3,$4,$5,0*
20,1,$1+$1,$4,$5,$6,$7,0*
20,1,$1+$1,$6,$7,$8,$9,0*
20,1,$1+$1,$8,$9,$2,$3,0*%
G04 Aperture macros list end*
%ADD10C,1.700000*%
%ADD11O,1.700000X1.700000*%
%ADD12R,1.700000X1.700000*%
%ADD13C,1.930400*%
%ADD14RoundRect,0.147500X-0.172500X0.147500X-0.172500X-0.147500X0.172500X-0.147500X0.172500X0.147500X0*%
%ADD15C,1.800000*%
%ADD16C,1.500000*%
%ADD17O,1.397000X1.092200*%
%ADD18O,1.524000X1.524000*%
%ADD19R,1.000000X1.000000*%
%ADD20C,2.540000*%
%ADD21RoundRect,0.147500X0.172500X-0.147500X0.172500X0.147500X-0.172500X0.147500X-0.172500X-0.147500X0*%
%ADD22RoundRect,0.147500X0.017678X-0.226274X0.226274X-0.017678X-0.017678X0.226274X-0.226274X0.017678X0*%
G04 APERTURE END LIST*
D10*
G04 #@! TO.C,J4*
X-32104785Y91900000D03*
X-32104785Y94440000D03*
D11*
X-29564785Y91900000D03*
X-29564785Y94440000D03*
X-27024785Y91900000D03*
X-27024785Y94440000D03*
D10*
X-24484785Y91900000D03*
X-24484785Y94440000D03*
G04 #@! TD*
D12*
G04 #@! TO.C,J3*
X-2524785Y80900000D03*
D11*
X-2524785Y78360000D03*
X-2524785Y75820000D03*
X-2524785Y73280000D03*
G04 #@! TD*
G04 #@! TO.C,J10*
X-42274785Y13930000D03*
X-44814785Y13930000D03*
X-42274785Y16470000D03*
X-44814785Y16470000D03*
X-42274785Y19010000D03*
X-44814785Y19010000D03*
X-42274785Y21550000D03*
X-44814785Y21550000D03*
X-42274785Y24090000D03*
X-44814785Y24090000D03*
G04 #@! TD*
D13*
G04 #@! TO.C,J12*
X-51206000Y27276000D03*
X-51206000Y16303200D03*
X-51206000Y18716200D03*
G04 #@! TD*
G04 #@! TO.C,J17*
X-22158000Y1833000D03*
X-22158000Y12805800D03*
X-22158000Y10392800D03*
G04 #@! TD*
G04 #@! TO.C,J16*
X-7630000Y1833000D03*
X-7630000Y12805800D03*
X-7630000Y10392800D03*
G04 #@! TD*
D14*
G04 #@! TO.C,C30*
X-28984785Y43875000D03*
X-28984785Y42905000D03*
G04 #@! TD*
D15*
G04 #@! TO.C,Bank_But1*
X-7570000Y105654000D03*
X-14070000Y105654000D03*
X-7570000Y101154000D03*
X-14070000Y101154000D03*
D16*
X-9920000Y106304000D03*
X-11720000Y106304000D03*
X-11720000Y100504000D03*
X-9920000Y100504000D03*
G04 #@! TD*
D17*
G04 #@! TO.C,SD1*
X-27953000Y80396249D03*
X-26853180Y81496069D03*
X-27953000Y82596143D03*
X-26853180Y83695963D03*
X-27953000Y84796037D03*
X-26853180Y85895857D03*
X-27953000Y86995931D03*
X-26853180Y88095751D03*
D18*
X-31122920Y79953400D03*
X-31122920Y88538600D03*
G04 #@! TD*
D19*
G04 #@! TO.C,C4*
X-28771285Y63996678D03*
X-28771285Y65696678D03*
G04 #@! TD*
D20*
G04 #@! TO.C,POT_LENGTH1*
X-42760000Y49810000D03*
X-47760000Y49810000D03*
X-52760000Y49810000D03*
G04 #@! TD*
D13*
G04 #@! TO.C,J2*
X-22157000Y42272000D03*
X-22157000Y31299200D03*
X-22157000Y33712200D03*
G04 #@! TD*
D20*
G04 #@! TO.C,POT_PITCH1*
X-5820000Y75803000D03*
X-10820000Y75803000D03*
X-15820000Y75803000D03*
G04 #@! TD*
D13*
G04 #@! TO.C,J7*
X-45999000Y37065000D03*
X-56971800Y37065000D03*
X-54558800Y37065000D03*
G04 #@! TD*
D14*
G04 #@! TO.C,C32*
X-30697357Y44089454D03*
X-30697357Y43119454D03*
G04 #@! TD*
D13*
G04 #@! TO.C,J6*
X-31478000Y37065000D03*
X-42450800Y37065000D03*
X-40037800Y37065000D03*
G04 #@! TD*
G04 #@! TO.C,J15*
X-36685000Y1833000D03*
X-36685000Y12805800D03*
X-36685000Y10392800D03*
G04 #@! TD*
D15*
G04 #@! TO.C,REV_BUT1*
X-44510000Y105654000D03*
X-51010000Y105654000D03*
X-44510000Y101154000D03*
X-51010000Y101154000D03*
D16*
X-46860000Y106304000D03*
X-48660000Y106304000D03*
X-48660000Y100504000D03*
X-46860000Y100504000D03*
G04 #@! TD*
D14*
G04 #@! TO.C,C28*
X-30261493Y46645710D03*
X-30261493Y45675710D03*
G04 #@! TD*
D21*
G04 #@! TO.C,C33*
X-31277493Y46440758D03*
X-31277493Y47410758D03*
G04 #@! TD*
D13*
G04 #@! TO.C,J9*
X-36685000Y27276000D03*
X-36685000Y16303200D03*
X-36685000Y18716200D03*
G04 #@! TD*
G04 #@! TO.C,J8*
X-12838000Y37065000D03*
X-1865200Y37065000D03*
X-4278200Y37065000D03*
G04 #@! TD*
G04 #@! TO.C,J11*
X-51206000Y1833000D03*
X-51206000Y12805800D03*
X-51206000Y10392800D03*
G04 #@! TD*
G04 #@! TO.C,J13*
X-12838000Y22069000D03*
X-1865200Y22069000D03*
X-4278200Y22069000D03*
G04 #@! TD*
G04 #@! TO.C,J14*
X-16951000Y22069000D03*
X-27923800Y22069000D03*
X-25510800Y22069000D03*
G04 #@! TD*
D15*
G04 #@! TO.C,PLAY_BUT1*
X-26535000Y103622000D03*
X-32527000Y103622000D03*
X-26535000Y99122000D03*
X-32527000Y99122000D03*
D16*
X-28631000Y104272000D03*
X-30431000Y104272000D03*
X-30431000Y98472000D03*
X-28631000Y98472000D03*
G04 #@! TD*
D22*
G04 #@! TO.C,C27*
X-30134232Y48573731D03*
X-29448338Y49259625D03*
G04 #@! TD*
D21*
G04 #@! TO.C,C31*
X-31656461Y43176350D03*
X-31656461Y44146350D03*
G04 #@! TD*
D20*
G04 #@! TO.C,POT_SAMP1*
X-42760000Y75972000D03*
X-47760000Y75972000D03*
X-52760000Y75972000D03*
G04 #@! TD*
G04 #@! TO.C,POT_START1*
X-5820000Y49810000D03*
X-10820000Y49810000D03*
X-15820000Y49810000D03*
G04 #@! TD*
M02*
