M48
; DRILL file {KiCad 8.0.5} date 2024-10-10T15:49:44-0700
; FORMAT={-:-/ absolute / metric / decimal}
; #@! TF.CreationDate,2024-10-10T15:49:44-07:00
; #@! TF.GenerationSoftware,Kicad,Pcbnew,8.0.5
; #@! TF.FileFunction,MixedPlating,1,4
FMAT,2
METRIC
; #@! TA.AperFunction,Plated,PTH,ViaDrill
T1C0.200
; #@! TA.AperFunction,Plated,PTH,ComponentDrill
T2C0.686
; #@! TA.AperFunction,Plated,PTH,ComponentDrill
T3C0.700
; #@! TA.AperFunction,Plated,PTH,ComponentDrill
T4C0.800
; #@! TA.AperFunction,Plated,PTH,ComponentDrill
T5C0.889
; #@! TA.AperFunction,Plated,PTH,ComponentDrill
T6C0.914
; #@! TA.AperFunction,Plated,PTH,ComponentDrill
T7C1.000
; #@! TA.AperFunction,Plated,PTH,ComponentDrill
T8C1.143
; #@! TA.AperFunction,Plated,PTH,ComponentDrill
T9C1.200
%
G90
G05
T1
X-57.511Y48.5
X-56.691Y89.1
X-56.691Y86.99
X-56.075Y107.42
X-55.626Y72.96
X-54.822Y46.52
X-54.577Y43.85
X-54.365Y59.19
X-54.32Y60.868
X-53.818Y67.02
X-53.7Y59.538
X-53.63Y60.838
X-53.575Y53.763
X-53.307Y7.17
X-53.307Y5.47
X-53.12Y59.508
X-53.091Y67.69
X-52.943Y46.965
X-52.921Y72.22
X-52.861Y60.79
X-52.837Y66.678
X-52.607Y40.158
X-52.537Y47.84
X-52.461Y62.57
X-52.443Y38.21
X-52.411Y63.37
X-52.38Y36.46
X-52.271Y97.92
X-51.991Y59.53
X-51.971Y60.68
X-51.791Y53.34
X-51.381Y60.74
X-51.291Y59.6
X-51.141Y88.45
X-51.055Y56.08
X-50.651Y60.73
X-50.621Y59.47
X-50.463Y36.144
X-50.425Y55.03
X-50.385Y56.07
X-49.991Y3.25
X-49.908Y36.374
X-49.765Y56.09
X-49.495Y71.43
X-48.892Y45.507
X-48.585Y23.2
X-48.531Y6.92
X-48.081Y87.26
X-48.035Y57.28
X-47.945Y83.36
X-47.761Y4.69
X-46.695Y86.635
X-46.651Y10.46
X-46.617Y41.903
X-46.501Y67.36
X-46.307Y47.59
X-46.081Y45.119
X-45.427Y66.445
X-44.992Y67.19
X-44.938Y46.047
X-44.927Y28.96
X-44.55Y53.675
X-44.055Y57.63
X-43.087Y42.7
X-43.071Y69.82
X-42.957Y47.75
X-42.381Y59.81
X-42.187Y53.12
X-41.651Y30.71
X-41.43Y48.214
X-41.136Y13.497
X-41.121Y61.77
X-40.686Y47.645
X-40.595Y43.26
X-40.224Y46.68
X-39.625Y60.89
X-39.371Y84.44
X-39.147Y29.11
X-38.991Y59.25
X-38.911Y61.35
X-38.699Y66.456
X-38.661Y69.48
X-38.637Y41.32
X-38.561Y67.81
X-38.421Y52.2
X-38.421Y46.18
X-38.401Y7.46
X-38.341Y74.47
X-38.325Y78.57
X-38.325Y75.66
X-37.947Y44.04
X-37.931Y100.13
X-37.901Y57.61
X-37.861Y45.82
X-37.665Y62.01
X-37.641Y66.62
X-37.621Y58.93
X-37.541Y40.79
X-37.531Y54.33
X-37.485Y49.75
X-37.431Y3.81
X-37.3Y37.82
X-37.271Y96.21
X-37.079Y44.591
X-36.941Y60.28
X-36.9Y93.972
X-36.721Y43.87
X-36.719Y57.014
X-36.695Y31.38
X-36.671Y83.39
X-36.502Y53.73
X-36.471Y77.75
X-36.396Y62.606
X-36.248Y70.52
X-36.241Y60.25
X-36.241Y47.467
X-36.231Y50.577
X-36.215Y36.64
X-36.205Y29.63
X-36.181Y67.117
X-36.131Y65.427
X-36.107Y34.71
X-36.091Y69.53
X-36.012Y55.737
X-35.995Y62.143
X-35.741Y53.277
X-35.648Y70.52
X-35.461Y45.507
X-35.395Y55.93
X-35.231Y61.45
X-35.211Y50.267
X-35.053Y70.602
X-35.045Y46.99
X-34.671Y72.87
X-34.661Y48.097
X-34.653Y57.104
X-34.551Y46.277
X-34.538Y47.374
X-34.526Y70.887
X-34.511Y45.737
X-34.494Y44.379
X-34.426Y65.237
X-34.424Y63.934
X-34.185Y51.013
X-33.965Y107.32
X-33.847Y41.55
X-33.813Y65.855
X-33.791Y53.827
X-33.771Y67.197
X-33.736Y62.055
X-33.732Y60.666
X-33.731Y56.663
X-33.621Y44.647
X-33.552Y49.407
X-33.551Y50.187
X-33.44Y55.815
X-33.414Y48.514
X-33.363Y54.608
X-33.206Y69.18
X-33.141Y43.617
X-33.126Y60.697
X-33.125Y67.192
X-33.117Y63.286
X-33.057Y6.63
X-32.971Y88.95
X-32.75Y44.575
X-32.746Y45.414
X-32.741Y46.997
X-32.49Y31.7
X-32.481Y66.547
X-32.301Y43.427
X-32.147Y8.06
X-32.091Y71.91
X-31.931Y77.473
X-31.928Y63.109
X-31.857Y44.713
X-31.821Y67.837
X-31.813Y61.417
X-31.751Y48.137
X-31.747Y59.443
X-31.711Y65.847
X-31.674Y54.717
X-31.621Y30.98
X-31.602Y57.266
X-31.539Y49.622
X-31.531Y69.277
X-31.45Y61.837
X-31.275Y83.246
X-31.166Y60.057
X-31.164Y67.843
X-31.149Y58.141
X-31.147Y53.675
X-31.141Y72.09
X-31.121Y65.547
X-31.107Y81.25
X-31.061Y55.686
X-30.935Y45.716
X-30.901Y48.817
X-30.71Y47.147
X-30.662Y54.354
X-30.648Y57.479
X-30.631Y55.277
X-30.604Y56.657
X-30.594Y49.529
X-30.591Y56.014
X-30.571Y48.117
X-30.531Y59.397
X-30.524Y60.704
X-30.521Y67.187
X-30.341Y43.535
X-30.141Y58.547
X-29.988Y44.181
X-29.876Y59.389
X-29.778Y58.027
X-29.741Y65.487
X-29.736Y46.152
X-29.715Y30.17
X-29.699Y61.869
X-29.671Y53.427
X-29.661Y69.447
X-29.62Y45.615
X-29.525Y34.76
X-29.515Y32.54
X-29.421Y77.56
X-29.331Y55.129
X-29.261Y52.977
X-29.221Y60.042
X-28.905Y3.395
X-28.901Y61.74
X-28.819Y52.579
X-28.751Y47.797
X-28.721Y49.367
X-28.713Y50.183
X-28.593Y54.898
X-28.575Y8.01
X-28.421Y64.857
X-28.411Y1.57
X-28.375Y52.927
X-28.374Y55.437
X-28.374Y52.107
X-28.221Y70.367
X-28.171Y62.637
X-27.979Y57.815
X-27.971Y46.157
X-27.958Y47.78
X-27.952Y61.386
X-27.946Y54.022
X-27.945Y45.407
X-27.945Y47.013
X-27.931Y61.989
X-27.842Y50.13
X-27.781Y26.82
X-27.774Y54.607
X-27.565Y68.97
X-27.311Y66.507
X-27.284Y63.919
X-27.276Y65.247
X-27.271Y62.637
X-27.271Y61.347
X-27.258Y67.807
X-27.145Y45.133
X-26.997Y46.635
X-26.971Y53.777
X-26.931Y48.567
X-26.811Y49.217
X-26.695Y13.73
X-26.671Y45.952
X-26.637Y57.68
X-26.626Y60.697
X-26.623Y59.374
X-26.615Y57.103
X-26.614Y61.313
X-26.614Y64.619
X-26.585Y50.017
X-26.537Y24.43
X-26.445Y43.12
X-26.237Y45.703
X-26.159Y26.357
X-26.127Y43.912
X-25.981Y59.392
X-25.976Y60.687
X-25.975Y61.99
X-25.971Y64.597
X-25.767Y46.075
X-25.765Y11.13
X-25.591Y85.91
X-25.581Y56.637
X-25.521Y70.531
X-25.361Y71.42
X-25.175Y66.65
X-25.165Y55.28
X-25.081Y64.747
X-25.001Y44.357
X-24.868Y58.529
X-24.799Y45.189
X-24.715Y45.734
X-24.673Y57.42
X-24.641Y80.28
X-24.617Y28.64
X-24.578Y46.437
X-24.539Y63.029
X-24.448Y59.465
X-24.441Y63.757
X-24.35Y64.368
X-24.302Y61.665
X-24.293Y81.772
X-23.961Y78.58
X-23.941Y84.02
X-23.837Y20.99
X-23.621Y67.38
X-23.563Y71.392
X-23.455Y81.59
X-23.105Y69.04
X-23.101Y39.12
X-22.785Y82.23
X-22.531Y79.27
X-22.458Y82.76
X-22.295Y69.37
X-22.215Y90.88
X-22.067Y3.76
X-21.921Y60.476
X-21.851Y68.42
X-21.827Y23.28
X-21.771Y39.24
X-21.535Y67.23
X-21.531Y46.1
X-21.481Y37.39
X-21.291Y92.82
X-21.207Y5.86
X-21.171Y39.26
X-21.105Y65.57
X-20.955Y55.57
X-20.951Y37.39
X-20.907Y9.3
X-20.905Y54.46
X-20.795Y70.562
X-20.625Y61.56
X-20.147Y21.45
X-20.105Y63.2
X-20.005Y66.58
X-19.885Y62.49
X-19.675Y60.73
X-19.606Y69.115
X-19.155Y57.92
X-19.091Y56.41
X-19.055Y60.17
X-18.851Y68.88
X-18.711Y69.55
X-18.461Y56.774
X-18.355Y14.79
X-18.335Y9.96
X-18.145Y57.92
X-17.891Y46.44
X-17.751Y47.03
X-17.691Y61.93
X-17.494Y12.202
X-17.174Y100.667
X-16.895Y13.1
X-16.801Y46.02
X-16.611Y71.23
X-16.33Y46.712
X-16.215Y39.53
X-16.121Y52.24
X-16.087Y11.45
X-16.081Y95.86
X-15.635Y14.62
X-15.567Y9.32
X-15.241Y36.81
X-14.927Y20.12
X-14.701Y44.54
X-14.695Y9.42
X-14.535Y35.17
X-14.527Y58.76
X-14.371Y20.172
X-13.557Y56.74
X-13.449Y13.526
X-13.295Y4.43
X-13.207Y58.69
X-13.191Y95.27
X-13.105Y45.05
X-13.037Y57.87
X-13.011Y52.34
X-12.983Y13.707
X-12.597Y68.27
X-12.597Y48.19
X-12.405Y15.34
X-12.144Y52.47
X-11.878Y59.143
X-11.855Y20.85
X-11.247Y58.6
X-11.154Y36.16
X-11.151Y38.15
X-10.855Y35.409
X-10.325Y41.27
X-10.255Y11.52
X-10.175Y44.41
X-10.118Y37.137
X-9.845Y22.25
X-9.767Y60.26
X-9.655Y36.08
X-9.557Y58.97
X-9.357Y6.6
X-9.295Y19.12
X-9.02Y14.196
X-8.785Y35.9
X-8.617Y46.31
X-8.371Y26.74
X-8.205Y23.48
X-8.017Y57.98
X-7.805Y19.2
X-7.657Y64.93
X-7.561Y96.81
X-7.425Y26.55
X-7.367Y21.02
X-7.167Y35.82
X-6.725Y16.14
X-6.521Y34.71
X-6.401Y30.31
X-5.491Y65.87
X-5.161Y44.48
X-4.517Y54.95
X-1.901Y30.21
X-1.507Y56.03
T2
X-27.953Y86.996
X-27.953Y84.796
X-27.953Y80.396
X-26.853Y88.096
X-26.853Y85.896
X-26.853Y83.696
X-26.853Y81.496
T3
X-27.953Y82.596
T4
X-48.66Y106.304
X-48.66Y100.504
X-46.86Y106.304
X-46.86Y100.504
X-30.431Y104.272
X-30.431Y98.472
X-28.631Y104.272
X-28.631Y98.472
X-11.72Y106.304
X-11.72Y100.504
X-9.92Y106.304
X-9.92Y100.504
T5
X-56.972Y37.065
X-51.206Y16.303
X-51.206Y12.806
X-42.451Y37.065
X-36.685Y16.303
X-36.685Y12.806
X-27.924Y22.069
X-22.158Y12.806
X-22.157Y31.299
X-7.63Y12.806
X-1.865Y37.065
X-1.865Y22.069
T6
X-31.123Y88.539
X-31.123Y79.953
T7
X-51.01Y105.654
X-51.01Y101.154
X-44.815Y24.09
X-44.815Y21.55
X-44.815Y19.01
X-44.815Y16.47
X-44.815Y13.93
X-44.51Y105.654
X-44.51Y101.154
X-42.275Y24.09
X-42.275Y21.55
X-42.275Y19.01
X-42.275Y16.47
X-42.275Y13.93
X-32.527Y103.622
X-32.527Y99.122
X-32.105Y94.44
X-32.105Y91.9
X-29.565Y94.44
X-29.565Y91.9
X-27.025Y94.44
X-27.025Y91.9
X-26.535Y103.622
X-26.535Y99.122
X-24.485Y94.44
X-24.485Y91.9
X-14.07Y105.654
X-14.07Y101.154
X-7.57Y105.654
X-7.57Y101.154
X-2.525Y80.9
X-2.525Y78.36
X-2.525Y75.82
X-2.525Y73.28
T8
X-54.559Y37.065
X-51.206Y27.276
X-51.206Y18.716
X-51.206Y10.393
X-51.206Y1.833
X-45.999Y37.065
X-40.038Y37.065
X-36.685Y27.276
X-36.685Y18.716
X-36.685Y10.393
X-36.685Y1.833
X-31.478Y37.065
X-25.511Y22.069
X-22.158Y10.393
X-22.158Y1.833
X-22.157Y42.272
X-22.157Y33.712
X-16.951Y22.069
X-12.838Y37.065
X-12.838Y22.069
X-7.63Y10.393
X-7.63Y1.833
X-4.278Y37.065
X-4.278Y22.069
T9
X-52.76Y75.972
X-52.76Y49.81
X-47.76Y75.972
X-47.76Y49.81
X-42.76Y75.972
X-42.76Y49.81
X-15.82Y75.803
X-15.82Y49.81
X-10.82Y75.803
X-10.82Y49.81
X-5.82Y75.803
X-5.82Y49.81
M30
