G04 #@! TF.GenerationSoftware,KiCad,Pcbnew,8.0.5*
G04 #@! TF.CreationDate,2024-10-28T12:14:28-07:00*
G04 #@! TF.ProjectId,Sampler-built,53616d70-6c65-4722-9d62-75696c742e6b,rev?*
G04 #@! TF.SameCoordinates,PX38444c0PY67f3540*
G04 #@! TF.FileFunction,Copper,L3,Inr*
G04 #@! TF.FilePolarity,Positive*
%FSLAX46Y46*%
G04 Gerber Fmt 4.6, Leading zero omitted, Abs format (unit mm)*
G04 Created by KiCad (PCBNEW 8.0.5) date 2024-10-28 12:14:28*
%MOMM*%
%LPD*%
G01*
G04 APERTURE LIST*
G04 #@! TA.AperFunction,ComponentPad*
%ADD10C,1.700000*%
G04 #@! TD*
G04 #@! TA.AperFunction,ComponentPad*
%ADD11O,1.700000X1.700000*%
G04 #@! TD*
G04 #@! TA.AperFunction,ComponentPad*
%ADD12R,1.700000X1.700000*%
G04 #@! TD*
G04 #@! TA.AperFunction,ComponentPad*
%ADD13C,1.930400*%
G04 #@! TD*
G04 #@! TA.AperFunction,ComponentPad*
%ADD14C,1.600000*%
G04 #@! TD*
G04 #@! TA.AperFunction,ComponentPad*
%ADD15C,1.300000*%
G04 #@! TD*
G04 #@! TA.AperFunction,ComponentPad*
%ADD16O,1.397000X1.092200*%
G04 #@! TD*
G04 #@! TA.AperFunction,ComponentPad*
%ADD17O,1.524000X1.524000*%
G04 #@! TD*
G04 #@! TA.AperFunction,ComponentPad*
%ADD18C,2.286000*%
G04 #@! TD*
G04 #@! TA.AperFunction,ViaPad*
%ADD19C,0.400000*%
G04 #@! TD*
G04 #@! TA.AperFunction,Conductor*
%ADD20C,0.127000*%
G04 #@! TD*
G04 #@! TA.AperFunction,Conductor*
%ADD21C,0.203200*%
G04 #@! TD*
G04 #@! TA.AperFunction,Conductor*
%ADD22C,0.100000*%
G04 #@! TD*
G04 APERTURE END LIST*
D10*
G04 #@! TO.N,/UART_TX*
G04 #@! TO.C,J4*
X-32170000Y91520000D03*
G04 #@! TO.N,GND*
X-32170000Y94060000D03*
D11*
G04 #@! TO.N,/UART_RX*
X-29630000Y91520000D03*
G04 #@! TO.N,GND*
X-29630000Y94060000D03*
G04 #@! TO.N,/DEBUG2*
X-27090000Y91520000D03*
G04 #@! TO.N,GND*
X-27090000Y94060000D03*
D10*
G04 #@! TO.N,/DEBUG3*
X-24550000Y91520000D03*
G04 #@! TO.N,GND*
X-24550000Y94060000D03*
G04 #@! TD*
D12*
G04 #@! TO.N,+3V3*
G04 #@! TO.C,J3*
X-2090000Y77680000D03*
D11*
G04 #@! TO.N,/SWDCLK*
X-2090000Y75140000D03*
G04 #@! TO.N,GND*
X-2090000Y72600000D03*
G04 #@! TO.N,/SWDIO*
X-2090000Y70060000D03*
G04 #@! TD*
G04 #@! TO.N,Net-(D17-K)*
G04 #@! TO.C,J10*
X-42274785Y13930000D03*
X-44814785Y13930000D03*
G04 #@! TO.N,GND*
X-42274785Y16470000D03*
X-44814785Y16470000D03*
X-42274785Y19010000D03*
X-44814785Y19010000D03*
X-42274785Y21550000D03*
X-44814785Y21550000D03*
G04 #@! TO.N,Net-(D16-A)*
X-42274785Y24090000D03*
X-44814785Y24090000D03*
G04 #@! TD*
D13*
G04 #@! TO.N,Net-(J12-SIG)*
G04 #@! TO.C,J12*
X-51206000Y27276000D03*
G04 #@! TO.N,GND*
X-51206000Y16303200D03*
X-51206000Y18716200D03*
G04 #@! TD*
G04 #@! TO.N,Net-(J17-SIG)*
G04 #@! TO.C,J17*
X-22158000Y1833000D03*
G04 #@! TO.N,GND*
X-22158000Y12805800D03*
G04 #@! TO.N,unconnected-(J17-SW-Pad3)*
X-22158000Y10392800D03*
G04 #@! TD*
G04 #@! TO.N,Net-(J16-SIG)*
G04 #@! TO.C,J16*
X-7630000Y1833000D03*
G04 #@! TO.N,GND*
X-7630000Y12805800D03*
G04 #@! TO.N,unconnected-(J16-SW-Pad3)*
X-7630000Y10392800D03*
G04 #@! TD*
D14*
G04 #@! TO.N,unconnected-(Bank_But1-UP-A-Pad1)*
G04 #@! TO.C,Bank_But1*
X-4250000Y104750000D03*
G04 #@! TO.N,Net-(Bank_But1-POLE-A)*
X-10750000Y104750000D03*
G04 #@! TO.N,unconnected-(Bank_But1-DOWN-A-Pad3)*
X-4250000Y100250000D03*
G04 #@! TO.N,GND*
X-10750000Y100250000D03*
D15*
G04 #@! TO.N,+3V3*
X-6600000Y105400000D03*
G04 #@! TO.N,Net-(Bank_But1-G)*
X-8400000Y105400000D03*
G04 #@! TO.N,Net-(Bank_But1-R)*
X-8400000Y99600000D03*
G04 #@! TO.N,Net-(Bank_But1-B)*
X-6600000Y99600000D03*
G04 #@! TD*
D16*
G04 #@! TO.N,/D18*
G04 #@! TO.C,SD1*
X-27953000Y79531249D03*
G04 #@! TO.N,/D19*
X-26853180Y80631069D03*
G04 #@! TO.N,/D4*
X-27953000Y81731143D03*
G04 #@! TO.N,+3V3*
X-26853180Y82830963D03*
G04 #@! TO.N,/D9*
X-27953000Y83931037D03*
G04 #@! TO.N,GND*
X-26853180Y85030857D03*
G04 #@! TO.N,/D16*
X-27953000Y86130931D03*
G04 #@! TO.N,/D17*
X-26853180Y87230751D03*
D17*
G04 #@! TO.N,GND*
X-31122920Y79088400D03*
X-31122920Y87673600D03*
G04 #@! TD*
D18*
G04 #@! TO.N,GNDADC*
G04 #@! TO.C,POT_LENGTH1*
X-36760000Y45424000D03*
G04 #@! TO.N,Net-(POT_LENGTH1-Center)*
X-41760000Y45424000D03*
G04 #@! TO.N,VREF+*
X-46760000Y45424000D03*
G04 #@! TD*
D13*
G04 #@! TO.N,Net-(J2-SIG)*
G04 #@! TO.C,J2*
X-22157000Y42272000D03*
G04 #@! TO.N,GND*
X-22157000Y31299200D03*
X-22157000Y33712200D03*
G04 #@! TD*
D18*
G04 #@! TO.N,GNDADC*
G04 #@! TO.C,POT_PITCH1*
X-5820000Y70027000D03*
G04 #@! TO.N,Net-(POT_PITCH1-Center)*
X-10820000Y70027000D03*
G04 #@! TO.N,VREF+*
X-15820000Y70027000D03*
G04 #@! TD*
D13*
G04 #@! TO.N,Net-(J7-SIG)*
G04 #@! TO.C,J7*
X-45999000Y37065000D03*
G04 #@! TO.N,GND*
X-56971800Y37065000D03*
X-54558800Y37065000D03*
G04 #@! TD*
G04 #@! TO.N,Net-(J15-SIG)*
G04 #@! TO.C,J15*
X-36685000Y1833000D03*
G04 #@! TO.N,GND*
X-36685000Y12805800D03*
G04 #@! TO.N,unconnected-(J15-SW-Pad3)*
X-36685000Y10392800D03*
G04 #@! TD*
D14*
G04 #@! TO.N,unconnected-(REV_BUT1-UP-A-Pad1)*
G04 #@! TO.C,REV_BUT1*
X-48250000Y104750000D03*
G04 #@! TO.N,Net-(REV_BUT1-POLE-A)*
X-54750000Y104750000D03*
G04 #@! TO.N,unconnected-(REV_BUT1-DOWN-A-Pad3)*
X-48250000Y100250000D03*
G04 #@! TO.N,GND*
X-54750000Y100250000D03*
D15*
G04 #@! TO.N,+3V3*
X-50600000Y105400000D03*
G04 #@! TO.N,Net-(REV_BUT1-G)*
X-52400000Y105400000D03*
G04 #@! TO.N,Net-(REV_BUT1-R)*
X-52400000Y99600000D03*
G04 #@! TO.N,Net-(REV_BUT1-B)*
X-50600000Y99600000D03*
G04 #@! TD*
D13*
G04 #@! TO.N,Net-(J9-SIG)*
G04 #@! TO.C,J9*
X-36685000Y27276000D03*
G04 #@! TO.N,GND*
X-36685000Y16303200D03*
X-36685000Y18716200D03*
G04 #@! TD*
G04 #@! TO.N,Net-(J8-SIG)*
G04 #@! TO.C,J8*
X-12838000Y37065000D03*
G04 #@! TO.N,GND*
X-1865200Y37065000D03*
X-4278200Y37065000D03*
G04 #@! TD*
G04 #@! TO.N,Net-(J11-SIG)*
G04 #@! TO.C,J11*
X-51206000Y1833000D03*
G04 #@! TO.N,GND*
X-51206000Y12805800D03*
X-51206000Y10392800D03*
G04 #@! TD*
G04 #@! TO.N,Net-(J13-SIG)*
G04 #@! TO.C,J13*
X-12838000Y22069000D03*
G04 #@! TO.N,GND*
X-1865200Y22069000D03*
X-4278200Y22069000D03*
G04 #@! TD*
G04 #@! TO.N,Net-(J6-SIG)*
G04 #@! TO.C,J6*
X-31478000Y37065000D03*
G04 #@! TO.N,GND*
X-42450800Y37065000D03*
X-40037800Y37065000D03*
G04 #@! TD*
G04 #@! TO.N,Net-(J14-SIG)*
G04 #@! TO.C,J14*
X-16951000Y22069000D03*
G04 #@! TO.N,GND*
X-27923800Y22069000D03*
X-25510800Y22069000D03*
G04 #@! TD*
D14*
G04 #@! TO.N,unconnected-(PLAY_BUT1-UP-A-Pad1)*
G04 #@! TO.C,PLAY_BUT1*
X-26535000Y101979000D03*
G04 #@! TO.N,Net-(PLAY_BUT1-POLE-A)*
X-32527000Y101979000D03*
G04 #@! TO.N,unconnected-(PLAY_BUT1-DOWN-A-Pad3)*
X-26535000Y97479000D03*
G04 #@! TO.N,GND*
X-32527000Y97479000D03*
D15*
G04 #@! TO.N,+3V3*
X-28631000Y102629000D03*
G04 #@! TO.N,Net-(PLAY_BUT1-G)*
X-30431000Y102629000D03*
G04 #@! TO.N,Net-(PLAY_BUT1-R)*
X-30431000Y96829000D03*
G04 #@! TO.N,Net-(PLAY_BUT1-B)*
X-28631000Y96829000D03*
G04 #@! TD*
D18*
G04 #@! TO.N,GNDADC*
G04 #@! TO.C,POT_SAMP1*
X-42815000Y70455000D03*
G04 #@! TO.N,Net-(POT_SAMP1-Center)*
X-47815000Y70455000D03*
G04 #@! TO.N,VREF+*
X-52815000Y70455000D03*
G04 #@! TD*
G04 #@! TO.N,GNDADC*
G04 #@! TO.C,POT_START1*
X-10140000Y45424000D03*
G04 #@! TO.N,Net-(POT_START1-Center)*
X-15140000Y45424000D03*
G04 #@! TO.N,VREF+*
X-20140000Y45424000D03*
G04 #@! TD*
D19*
G04 #@! TO.N,GND*
X-51416648Y58600078D03*
X-16470000Y38000000D03*
X-27284360Y63918528D03*
X-50946648Y55560078D03*
X-48874685Y52274685D03*
X-47761433Y4690078D03*
X-44991748Y67190393D03*
X-50010078Y52110078D03*
X-52074948Y55538378D03*
X-20406500Y33880000D03*
X-53830000Y40980000D03*
X-32091433Y71910078D03*
X-56280000Y43910000D03*
X-30346664Y47147246D03*
X-30228399Y56013927D03*
X-36106648Y34710078D03*
X-33056648Y6630078D03*
X-4160000Y57060000D03*
X-44926648Y28960078D03*
X-49576648Y55500078D03*
X-26159050Y26356578D03*
X-31493728Y44712910D03*
X-29524785Y34760000D03*
X-11246648Y58600078D03*
X-46566492Y53164138D03*
X-28421285Y64856678D03*
X-20624785Y61560000D03*
X-39624933Y60890078D03*
X-7900000Y56720000D03*
X-13036648Y57870078D03*
X-28574785Y8010000D03*
X-35070000Y105970000D03*
X-13140000Y42950000D03*
X-38630000Y105906500D03*
X-32489785Y31700000D03*
X-7366648Y21020078D03*
X-23621433Y67380078D03*
X-1506648Y56030078D03*
X-43010000Y53660000D03*
X-7804785Y19200000D03*
X-39146648Y29110078D03*
X-28904785Y3395000D03*
X-21104785Y65570000D03*
X-49340000Y52100000D03*
X-25764275Y43911665D03*
X-50246648Y55630078D03*
X-7424785Y26550000D03*
X-29256750Y45615118D03*
X-29977795Y43534660D03*
X-9020463Y14196263D03*
X-37641433Y66620078D03*
X-46694785Y86635000D03*
X-8570000Y61730000D03*
X-51366648Y59400078D03*
X-16121433Y52240078D03*
X-9294785Y19120000D03*
X-28011400Y52106678D03*
X-37664871Y62009914D03*
X-52654948Y55568378D03*
X-53602884Y55600078D03*
X-30538400Y48816678D03*
X-16086648Y11450078D03*
X-24616648Y28640078D03*
X-48531433Y6920078D03*
X-46651433Y10460078D03*
X-38401433Y7460078D03*
X-14580000Y36620000D03*
X-12144285Y52470078D03*
G04 #@! TO.N,+3V3*
X-28324484Y70469877D03*
X-36181285Y67116678D03*
X-36214785Y36640000D03*
X-37972744Y98557256D03*
X-36721433Y83220000D03*
X-30531285Y59396678D03*
X-50336648Y56770078D03*
X-21920821Y60475575D03*
X-34131264Y44378646D03*
X-36471433Y77750078D03*
X-29373336Y46151566D03*
X-28011900Y52926678D03*
X-30572436Y45716088D03*
X-50926648Y56710078D03*
X-13111433Y47982462D03*
X-30208400Y48116678D03*
X-51816648Y56820078D03*
X-53274948Y56898378D03*
X-49606648Y56760078D03*
X-33822400Y51013126D03*
X-52584948Y56868378D03*
X-6521433Y34710078D03*
X-24441285Y63756678D03*
X-33483763Y41550078D03*
X-11154109Y36160078D03*
X-44510000Y39690000D03*
X-31938400Y43426678D03*
X-15241433Y36601500D03*
X-29625050Y44181288D03*
G04 #@! TO.N,/A4*
X-57330000Y40240000D03*
X-38480000Y47570000D03*
G04 #@! TO.N,GNDADC*
X-10150000Y47770000D03*
X-35757327Y41102185D03*
X-16410000Y48320000D03*
X-17751435Y47030078D03*
G04 #@! TO.N,/A5*
X-36694785Y31380500D03*
X-38672980Y46212350D03*
X-37163648Y37650000D03*
X-38937744Y41277744D03*
G04 #@! TO.N,+12V*
X-1901433Y30210078D03*
X-50462562Y36144461D03*
X-9770000Y58190000D03*
X-11878240Y59142588D03*
X-41651433Y30710078D03*
X-17494392Y12202334D03*
X-52699302Y37953813D03*
X-52379833Y36460078D03*
X-26536648Y24430078D03*
X-21826648Y23280078D03*
X-8204785Y23480000D03*
X-32146648Y8060000D03*
X-47944785Y83360000D03*
X-49520000Y68700000D03*
X-36204785Y29630000D03*
X-49380000Y51060000D03*
X-51725364Y41053500D03*
X-7740000Y46420000D03*
G04 #@! TO.N,-12VA*
X-15566648Y9320078D03*
X-37431433Y3810078D03*
X-12404785Y15340000D03*
X-51029998Y38040000D03*
X-28411433Y1570078D03*
X-25764785Y11130000D03*
X-29514785Y32540000D03*
X-16895048Y13100000D03*
X-14694785Y9420078D03*
X-49991433Y3250078D03*
X-20640000Y38660000D03*
X-50560000Y82410000D03*
X-13011433Y52340078D03*
X-54190000Y43540000D03*
X-26694785Y13730000D03*
X-29714785Y30170000D03*
G04 #@! TO.N,/A2*
X-39403500Y42190000D03*
X-39277721Y47163291D03*
G04 #@! TO.N,/A7*
X-39371433Y84350000D03*
X-38661433Y69480078D03*
X-36241433Y60250078D03*
X-38324933Y75660078D03*
G04 #@! TO.N,/A6*
X-36131285Y65426678D03*
X-33732087Y60665676D03*
X-34426440Y65236678D03*
X-37340000Y85590000D03*
G04 #@! TO.N,/D6*
X-18144785Y57920000D03*
X-15080000Y103520000D03*
G04 #@! TO.N,/D8*
X-40000000Y59136500D03*
X-25874444Y45702763D03*
X-24325876Y57344123D03*
X-39775315Y47374685D03*
X-36980000Y95860000D03*
X-39660000Y44200000D03*
G04 #@! TO.N,/A9*
X-37901433Y57610078D03*
X-38698940Y66456258D03*
G04 #@! TO.N,/D15*
X-27781433Y26820078D03*
X-20951433Y37390078D03*
X-21288226Y39322752D03*
X-18461433Y56773578D03*
X-25151731Y56180404D03*
X-28171429Y62636722D03*
G04 #@! TO.N,/D13*
X-21879635Y39221565D03*
X-27931433Y61989319D03*
X-21481433Y37390078D03*
X-48584785Y23200000D03*
G04 #@! TO.N,VREF+*
X-55230000Y54620000D03*
X-38991433Y59136500D03*
X-37137888Y41642800D03*
X-6253006Y44223636D03*
X-4554633Y47086878D03*
X-16827883Y46479996D03*
X-55220000Y60100000D03*
X-14940000Y73200000D03*
X-17891433Y46440078D03*
X-36941433Y60280078D03*
G04 #@! TO.N,/D11*
X-19674785Y60730000D03*
X-23320000Y79840000D03*
X-23700137Y71433500D03*
X-25361433Y71420078D03*
G04 #@! TO.N,/D10*
X-49000000Y107726500D03*
X-19054785Y60170000D03*
G04 #@! TO.N,/D14*
X-22690000Y98470006D03*
X-24539092Y63028871D03*
X-22690000Y87460000D03*
X-36770000Y98650002D03*
G04 #@! TO.N,/D12*
X-21851433Y68420078D03*
X-25081285Y64746678D03*
X-36990000Y105906500D03*
X-22294785Y69370000D03*
G04 #@! TO.N,/D0*
X-12550000Y95720000D03*
X-21680000Y70562334D03*
G04 #@! TO.N,/D1*
X-29421433Y77560078D03*
X-36091433Y69530078D03*
X-33250000Y76700000D03*
X-22314933Y87950000D03*
G04 #@! TO.N,/D3*
X-39536500Y92145286D03*
X-25174785Y66650000D03*
X-38324933Y78570078D03*
X-23961285Y78580078D03*
G04 #@! TO.N,/D5*
X-5870000Y96250000D03*
X-20070000Y68910000D03*
G04 #@! TO.N,/D19*
X-27257734Y67806549D03*
G04 #@! TO.N,/D18*
X-23104785Y69040000D03*
X-22531285Y79270078D03*
G04 #@! TO.N,/D7*
X-26623026Y59373759D03*
X-19640000Y88810000D03*
X-56280000Y97420000D03*
X-24820000Y47530000D03*
X-19630000Y81660000D03*
X-51670000Y106520000D03*
X-19620000Y72730000D03*
X-18820500Y59020000D03*
X-19630000Y87330000D03*
X-19940000Y49750000D03*
G04 #@! TO.N,/D17*
X-26613522Y64618915D03*
G04 #@! TO.N,/D16*
X-25971285Y64596678D03*
G04 #@! TO.N,/D9*
X-27401725Y68901878D03*
G04 #@! TO.N,/A0*
X-37121900Y49750000D03*
X-31621433Y30980000D03*
X-35200000Y43170000D03*
X-35200000Y38340000D03*
X-34589999Y37600001D03*
X-33126178Y60696678D03*
G04 #@! TO.N,/A1*
X-36660000Y57070000D03*
X-38561433Y67810078D03*
G04 #@! TO.N,/A3*
X-38911433Y61350078D03*
X-5491433Y65870078D03*
X-12680000Y67670000D03*
X-38341433Y74470078D03*
G04 #@! TO.N,/A8*
X-38058548Y52200078D03*
X-39360000Y40200000D03*
X-43040000Y40180000D03*
X-37168548Y54330078D03*
X-35231433Y61450078D03*
X-48600000Y40280000D03*
G04 #@! TO.N,Net-(J2-SIG)*
X-23101433Y39120078D03*
G04 #@! TO.N,Net-(C46-Pad1)*
X-13556648Y56740078D03*
X-9100000Y43470000D03*
G04 #@! TO.N,Net-(POT_LENGTH1-Center)*
X-41730000Y49100000D03*
X-42900000Y79900000D03*
X-43855000Y58995000D03*
G04 #@! TO.N,/D4*
X-27311285Y66506678D03*
G04 #@! TO.N,/VCOM*
X-6724785Y16140000D03*
X-11854785Y20850000D03*
X-23836648Y20990078D03*
G04 #@! TO.N,GNDA*
X-18354785Y14790000D03*
X-9844785Y22250000D03*
X-10254785Y11520000D03*
X-15634785Y14620000D03*
G04 #@! TO.N,Net-(POT_START1-Center)*
X-7656648Y64930078D03*
X-11723627Y46679115D03*
G04 #@! TO.N,Net-(U2B-VCAP_1)*
X-29698839Y61869124D03*
G04 #@! TO.N,+3.3VADC*
X-37621433Y58930078D03*
X-44990000Y66360000D03*
X-41121433Y61770078D03*
G04 #@! TO.N,/BOOT0*
X-31711285Y65846678D03*
X-31141433Y72090078D03*
G04 #@! TO.N,Net-(C152-Pad1)*
X-18334785Y9960078D03*
X-21206648Y5860078D03*
G04 #@! TO.N,Net-(C152-Pad2)*
X-20906648Y9300078D03*
X-22066648Y3760078D03*
G04 #@! TO.N,Net-(C153-Pad1)*
X-13294785Y4430000D03*
X-9356648Y6600078D03*
G04 #@! TO.N,/SWDCLK*
X-18352744Y70427256D03*
G04 #@! TO.N,/SWDIO*
X-18040000Y69990000D03*
G04 #@! TO.N,/UART_TX*
X-36395997Y62606420D03*
G04 #@! TO.N,/UART_RX*
X-35994785Y62143420D03*
G04 #@! TO.N,/DEBUG2*
X-32481285Y66546678D03*
G04 #@! TO.N,/DEBUG3*
X-29661285Y69446678D03*
G04 #@! TO.N,Net-(J9-SIG)*
X-48529485Y45987030D03*
X-47636648Y36350078D03*
G04 #@! TO.N,/LOUT+*
X-12983348Y13706953D03*
X-14370990Y20171603D03*
G04 #@! TO.N,/LOUT-*
X-13448884Y13525901D03*
X-14926648Y20120078D03*
G04 #@! TO.N,/I2C1_SCL*
X-7166648Y35820078D03*
X-34671433Y72870078D03*
G04 #@! TO.N,/I2C1_SDA*
X-11151433Y38150078D03*
X-31163507Y67843305D03*
G04 #@! TO.N,/RIN*
X-20146648Y21450078D03*
X-8371433Y26740078D03*
G04 #@! TO.N,/SAI_SD_B*
X-8784785Y35900000D03*
X-36247785Y70520000D03*
G04 #@! TO.N,/SAI_MCLK*
X-35053378Y70601773D03*
X-10855407Y35409378D03*
G04 #@! TO.N,/SD-NBL1*
X-26568400Y48566678D03*
X-31821285Y67836678D03*
G04 #@! TO.N,/SD-NBL0*
X-33124785Y67191712D03*
X-34080000Y46876681D03*
G04 #@! TO.N,/SD-CKE1*
X-28388400Y47796678D03*
X-31531285Y69276678D03*
G04 #@! TO.N,/CODEC_RESET*
X-6401433Y30310078D03*
X-18507744Y70902256D03*
G04 #@! TO.N,/SAI_FS*
X-9654785Y36080000D03*
X-35647782Y70520000D03*
G04 #@! TO.N,/SAI_SCK*
X-34525640Y70887247D03*
X-10118285Y37137000D03*
G04 #@! TO.N,/SAI_SD_A*
X-14534785Y35170000D03*
X-33206271Y69180078D03*
X-33771285Y67196678D03*
G04 #@! TO.N,/SD-NCAS*
X-29741285Y65486678D03*
X-30521285Y67186678D03*
X-31121285Y65546678D03*
X-31388400Y48136678D03*
G04 #@! TO.N,/SD-D2*
X-24638400Y44356678D03*
X-32387044Y44574879D03*
X-21390000Y46660000D03*
X-27276258Y65246678D03*
G04 #@! TO.N,/SD-D3*
X-20104785Y63200000D03*
X-34148400Y45736678D03*
X-18989648Y57754862D03*
X-24436579Y45188733D03*
X-25520915Y70530500D03*
X-20004785Y66580000D03*
X-19091433Y56410078D03*
X-21534785Y67230000D03*
G04 #@! TO.N,/SD-A0*
X-33368107Y56663178D03*
X-33813400Y65854563D03*
G04 #@! TO.N,/SD-A2*
X-35648966Y55737066D03*
X-34423601Y63934290D03*
G04 #@! TO.N,/SD-A1*
X-33188400Y50186678D03*
X-31927720Y63108823D03*
X-34848400Y50266678D03*
X-36240000Y53690000D03*
G04 #@! TO.N,/SD-CLK*
X-28901433Y61740078D03*
X-27594830Y47780156D03*
G04 #@! TO.N,/SD-A3*
X-33117342Y63286303D03*
X-35134281Y56032117D03*
G04 #@! TO.N,/SD-A4*
X-30698220Y55686498D03*
X-30783754Y53675392D03*
G04 #@! TO.N,/SD-NWE*
X-31813124Y61416678D03*
X-34298400Y48096678D03*
G04 #@! TO.N,/SD-A5*
X-33735510Y62055410D03*
X-34290212Y57103678D03*
G04 #@! TO.N,/SD-BA1*
X-33188697Y49406678D03*
X-30720000Y56510000D03*
X-20591900Y55570000D03*
X-27271285Y62636678D03*
G04 #@! TO.N,/SD-BA0*
X-24802548Y55280078D03*
X-27271285Y61346678D03*
X-29308400Y53426678D03*
X-31176317Y49622121D03*
G04 #@! TO.N,/SD-D1*
X-33258400Y44646678D03*
X-25974785Y61990000D03*
G04 #@! TO.N,/SD-A12*
X-24301674Y61664545D03*
X-26450000Y53776678D03*
X-26448400Y49216678D03*
X-20541900Y54460000D03*
G04 #@! TO.N,/SD-A11*
X-33428400Y53826678D03*
X-28358400Y49366678D03*
X-30230653Y49529027D03*
X-30524136Y60703916D03*
G04 #@! TO.N,/SD-NE1*
X-34860000Y45413031D03*
X-27952030Y61385554D03*
G04 #@! TO.N,/SD-D0*
X-26613634Y61313401D03*
X-32778400Y43616678D03*
G04 #@! TO.N,/SD-A7*
X-27583400Y54021678D03*
X-28455694Y52579384D03*
X-31450124Y61836678D03*
X-28350250Y50183135D03*
G04 #@! TO.N,/SD-A10*
X-31166452Y60056678D03*
X-35378400Y53276678D03*
G04 #@! TO.N,/SD-D10*
X-24215007Y46436645D03*
X-26626333Y60696678D03*
G04 #@! TO.N,/SD-D15*
X-26081900Y43120000D03*
X-24447659Y59464562D03*
G04 #@! TO.N,/SD-A6*
X-31747265Y59442904D03*
X-33077132Y55815410D03*
G04 #@! TO.N,/SD-A9*
X-33000080Y54608358D03*
X-31148979Y58141122D03*
G04 #@! TO.N,/SD-D5*
X-34080000Y46276678D03*
X-30268400Y55276678D03*
X-28418785Y55419721D03*
X-29876478Y59389485D03*
G04 #@! TO.N,/SD-D6*
X-32378400Y46996678D03*
X-29221285Y60041642D03*
X-27411400Y54606678D03*
X-28898400Y52976678D03*
G04 #@! TO.N,/SD-D8*
X-27979089Y57814645D03*
X-25977516Y49900000D03*
G04 #@! TO.N,/SD-D11*
X-24351900Y45733969D03*
X-27608400Y46156678D03*
X-25976312Y60686678D03*
X-26308376Y45951745D03*
G04 #@! TO.N,/SD-D14*
X-24868478Y58529485D03*
X-26781720Y45133358D03*
G04 #@! TO.N,/SD-D13*
X-27582340Y45406678D03*
X-25981285Y59391700D03*
G04 #@! TO.N,/SD-NRAS*
X-33051530Y48514272D03*
X-31763500Y57266324D03*
G04 #@! TO.N,/SD-A8*
X-27478703Y50130119D03*
X-30648138Y57478911D03*
G04 #@! TO.N,/SD-D4*
X-31311400Y54716678D03*
X-32382888Y45414144D03*
X-30141285Y58546678D03*
X-35868404Y47678278D03*
X-29185557Y55020427D03*
X-35868400Y50576678D03*
G04 #@! TO.N,/SD-D7*
X-30298925Y54353678D03*
X-29778285Y58026678D03*
X-34097628Y47494185D03*
X-28334167Y54885808D03*
G04 #@! TO.N,/SD-D9*
X-27582103Y47013336D03*
X-26614605Y57144818D03*
G04 #@! TO.N,/SD-D12*
X-26636535Y57680108D03*
X-26634307Y46635333D03*
G04 #@! TO.N,Net-(U14A--)*
X-14526648Y58760078D03*
X-13206648Y58690078D03*
G04 #@! TO.N,/D2*
X-41135730Y13496578D03*
X-17893500Y61930078D03*
X-24349965Y64367999D03*
X-53306648Y5470078D03*
X-53306648Y7170078D03*
X-19884785Y62490000D03*
G04 #@! TD*
D20*
G04 #@! TO.N,GND*
X-30538400Y48816678D02*
X-30710000Y48645078D01*
X-30710000Y48645078D02*
X-30710000Y47510582D01*
X-30710000Y47510582D02*
X-30346664Y47147246D01*
D21*
G04 #@! TO.N,+3V3*
X-36926648Y77690078D02*
X-36866648Y77750078D01*
D20*
X-33483763Y41881315D02*
X-33483763Y41550078D01*
D22*
X-3390000Y100733503D02*
X-3390000Y102190000D01*
D20*
X-31938400Y43426678D02*
X-33483763Y41881315D01*
D22*
X-3920000Y82295215D02*
X-2524785Y82295215D01*
X-3300000Y100643503D02*
X-3390000Y100733503D01*
D21*
X-30572436Y45716088D02*
X-30572436Y45128674D01*
D22*
X-2524785Y99081282D02*
X-3300000Y99856497D01*
D21*
X-54586648Y76810078D02*
X-53706648Y77690078D01*
X-53706648Y77690078D02*
X-36926648Y77690078D01*
D22*
X-25988180Y82830963D02*
X-26853180Y82830963D01*
X-26853180Y82830963D02*
X-36332396Y82830963D01*
X-36332396Y82830963D02*
X-36721433Y83220000D01*
D21*
X-53274948Y56898378D02*
X-54586648Y58210078D01*
X-36866648Y77750078D02*
X-36471433Y77750078D01*
D22*
X-3924785Y82300000D02*
X-25457217Y82300000D01*
D21*
X-54586648Y58210078D02*
X-54586648Y76810078D01*
D22*
X-2524785Y82295215D02*
X-2090000Y81860430D01*
X-2524785Y82295215D02*
X-2524785Y99081282D01*
X-2090000Y81860430D02*
X-2090000Y77680000D01*
X-3390000Y102190000D02*
X-6600000Y105400000D01*
X-3300000Y99856497D02*
X-3300000Y100643503D01*
D21*
X-30572436Y45128674D02*
X-29625050Y44181288D01*
D22*
X-25457217Y82300000D02*
X-25988180Y82830963D01*
D21*
G04 #@! TO.N,GNDADC*
X-17751435Y47030078D02*
X-17699922Y47030078D01*
X-17699922Y47030078D02*
X-16410000Y48320000D01*
G04 #@! TO.N,+12V*
X-31726570Y29630000D02*
X-26536648Y24440078D01*
X-32146648Y6741863D02*
X-30764785Y5360000D01*
X-3001433Y29110078D02*
X-1901433Y30210078D01*
X-3001433Y29110078D02*
X-3001433Y28683352D01*
X-21471526Y23635200D02*
X-21826648Y23280078D01*
X-8204785Y23480000D02*
X-8359985Y23635200D01*
X-26536648Y24440078D02*
X-26536648Y24430078D01*
X-30764785Y5360000D02*
X-17756570Y5360000D01*
X-21286648Y23280078D02*
X-17396648Y19390078D01*
X-8359985Y23635200D02*
X-21471526Y23635200D01*
X-17396648Y19390078D02*
X-17396648Y5699922D01*
X-3001433Y28683352D02*
X-8204785Y23480000D01*
X-17396648Y5699922D02*
X-17766570Y5330000D01*
X-21826648Y23280078D02*
X-21286648Y23280078D01*
X-32146648Y8060000D02*
X-32146648Y6741863D01*
X-36204785Y29630000D02*
X-31726570Y29630000D01*
G04 #@! TO.N,VREF+*
X-16867801Y46440078D02*
X-16827883Y46479996D01*
X-17891433Y46440078D02*
X-16867801Y46440078D01*
X-19123922Y46440078D02*
X-20140000Y45424000D01*
D20*
X-36941433Y60280078D02*
X-37351433Y60280078D01*
X-43507933Y54620000D02*
X-55230000Y54620000D01*
X-38897855Y59230078D02*
X-38991433Y59136500D01*
X-37351433Y60280078D02*
X-38401433Y59230078D01*
X-38991433Y59136500D02*
X-43507933Y54620000D01*
D21*
X-17891433Y46440078D02*
X-19123922Y46440078D01*
D20*
X-38401433Y59230078D02*
X-38897855Y59230078D01*
G04 #@! TO.N,/I2C1_SCL*
X-7166648Y35820078D02*
X-7166648Y36369733D01*
X-1386435Y52801565D02*
X-22174948Y73590078D01*
X-1386435Y42149946D02*
X-1386435Y52801565D01*
X-33951433Y73590078D02*
X-34671433Y72870078D01*
X-22174948Y73590078D02*
X-33951433Y73590078D01*
X-7166648Y36369733D02*
X-1386435Y42149946D01*
G04 #@! TO.N,/I2C1_SDA*
X-2751433Y52151433D02*
X-3985000Y53385000D01*
X-9031433Y40270078D02*
X-11151433Y38150078D01*
X-30791285Y68215527D02*
X-30791285Y71373500D01*
X-21768000Y71168000D02*
X-3985000Y53385000D01*
X-22800000Y72200000D02*
X-21395000Y70795000D01*
X-29964785Y72200000D02*
X-22800000Y72200000D01*
X-2751433Y42790078D02*
X-2751433Y52151433D01*
X-5271433Y40270078D02*
X-9031433Y40270078D01*
X-2751433Y42790078D02*
X-5271433Y40270078D01*
X-30791285Y71373500D02*
X-29964785Y72200000D01*
X-31163507Y67843305D02*
X-30791285Y68215527D01*
X-3985000Y53385000D02*
X-3715829Y53115830D01*
G04 #@! TO.N,/SAI_SD_B*
X-4722327Y39135080D02*
X-5549706Y39135079D01*
X-1613435Y52707539D02*
X-1613435Y42243972D01*
X-36247785Y70710148D02*
X-33594855Y73363078D01*
X-36247785Y70520000D02*
X-36247785Y70710148D01*
X-22268974Y73363078D02*
X-1613435Y52707539D01*
X-1613435Y42243972D02*
X-4722327Y39135080D01*
X-5549706Y39135079D02*
X-8784785Y35900000D01*
X-33594855Y73363078D02*
X-22268974Y73363078D01*
G04 #@! TO.N,/SAI_MCLK*
X-4910380Y39589079D02*
X-6675706Y39589079D01*
X-35053378Y71210593D02*
X-33354893Y72909078D01*
X-22457026Y72909078D02*
X-21343974Y71796026D01*
X-2067435Y52519487D02*
X-2067435Y42432024D01*
X-2067435Y42432024D02*
X-4910380Y39589079D01*
X-21396948Y71849000D02*
X-2067435Y52519487D01*
X-6675706Y39589079D02*
X-10855407Y35409378D01*
X-33354893Y72909078D02*
X-22457026Y72909078D01*
X-35053378Y70601773D02*
X-35053378Y71210593D01*
G04 #@! TO.N,/CODEC_RESET*
X-17646234Y69382390D02*
X-17646234Y70376234D01*
X-18172256Y70902256D02*
X-18507744Y70902256D01*
X-1159436Y52895592D02*
X-17646234Y69382390D01*
X-6401433Y30310078D02*
X-3081286Y33630225D01*
X-1159436Y42055919D02*
X-1159436Y52895592D01*
X-17646234Y70376234D02*
X-18172256Y70902256D01*
X-3081286Y40134069D02*
X-1159436Y42055919D01*
X-3081286Y33630225D02*
X-3081286Y40134069D01*
G04 #@! TO.N,/SAI_FS*
X-9654785Y36080000D02*
X-6372707Y39362078D01*
X-21228461Y72001539D02*
X-22363000Y73136078D01*
X-6372707Y39362078D02*
X-4816354Y39362079D01*
X-22363000Y73136078D02*
X-33448919Y73136078D01*
X-1840435Y42337998D02*
X-1840435Y52613513D01*
X-1840435Y52613513D02*
X-21302922Y72076000D01*
X-35647782Y70937215D02*
X-35647782Y70520000D01*
X-4816354Y39362079D02*
X-1840435Y42337998D01*
X-33448919Y73136078D02*
X-35647782Y70937215D01*
G04 #@! TO.N,/SAI_SCK*
X-34525640Y71336897D02*
X-34525640Y70887247D01*
X-5004406Y39816079D02*
X-2294435Y42526050D01*
X-22551052Y72682078D02*
X-33180459Y72682078D01*
X-2294435Y42526050D02*
X-2294435Y52425461D01*
X-10118285Y37137000D02*
X-9553485Y37137000D01*
X-2294435Y52425461D02*
X-21490974Y71622000D01*
X-9553485Y37137000D02*
X-6874407Y39816078D01*
X-33180459Y72682078D02*
X-34525640Y71336897D01*
X-6874407Y39816078D02*
X-5004406Y39816079D01*
X-21454487Y71585513D02*
X-22551052Y72682078D01*
G04 #@! TO.N,/SAI_SD_A*
X-33206271Y69180078D02*
X-33371433Y69345240D01*
X-33412725Y72128786D02*
X-33086433Y72455078D01*
X-33412725Y70298437D02*
X-33412725Y72128786D01*
X-2521435Y42620076D02*
X-5098433Y40043078D01*
X-33371433Y70257145D02*
X-33412725Y70298437D01*
X-33086433Y72455078D02*
X-22645078Y72455078D01*
X-3490000Y53300000D02*
X-2521435Y52331435D01*
X-2521435Y52331435D02*
X-2521435Y42620076D01*
X-7993648Y40043078D02*
X-12866726Y35170000D01*
X-5098433Y40043078D02*
X-7993648Y40043078D01*
X-12866726Y35170000D02*
X-14534785Y35170000D01*
X-22645078Y72455078D02*
X-21585000Y71395000D01*
X-21585000Y71395000D02*
X-3490000Y53300000D01*
X-33371433Y69345240D02*
X-33371433Y70257145D01*
G04 #@! TD*
G04 #@! TA.AperFunction,Conductor*
G04 #@! TO.N,+3V3*
G36*
X-48757971Y64097914D02*
G01*
X-48713851Y64079432D01*
X-48695723Y64035164D01*
X-48695726Y64034682D01*
X-48756885Y58820839D01*
X-48756885Y58820838D01*
X-44170993Y58824728D01*
X-44126786Y58806461D01*
X-44116817Y58793480D01*
X-44109750Y58781240D01*
X-44021276Y58707002D01*
X-43912747Y58667500D01*
X-43912744Y58667500D01*
X-43797256Y58667500D01*
X-43797253Y58667500D01*
X-43688724Y58707002D01*
X-43600250Y58781240D01*
X-43592876Y58794014D01*
X-43554929Y58823134D01*
X-43538811Y58825264D01*
X-40121467Y58828163D01*
X-40100041Y58824394D01*
X-40057753Y58809002D01*
X-40057747Y58809000D01*
X-40057744Y58809000D01*
X-39942254Y58809000D01*
X-39942253Y58809000D01*
X-39899388Y58824603D01*
X-39878080Y58828369D01*
X-39720488Y58828503D01*
X-39676279Y58810234D01*
X-39657936Y58766056D01*
X-39676205Y58721846D01*
X-39676242Y58721809D01*
X-43568742Y54829306D01*
X-43612936Y54811000D01*
X-54927008Y54811000D01*
X-54971202Y54829306D01*
X-54974887Y54833327D01*
X-54975251Y54833761D01*
X-55063725Y54907999D01*
X-55172251Y54947500D01*
X-55172253Y54947500D01*
X-55287747Y54947500D01*
X-55287750Y54947500D01*
X-55396276Y54907999D01*
X-55484750Y54833761D01*
X-55542497Y54733740D01*
X-55562552Y54620000D01*
X-55542497Y54506261D01*
X-55484750Y54406240D01*
X-55396276Y54332002D01*
X-55287747Y54292500D01*
X-55287744Y54292500D01*
X-55172256Y54292500D01*
X-55172253Y54292500D01*
X-55063724Y54332002D01*
X-54975250Y54406240D01*
X-54975248Y54406244D01*
X-54974887Y54406673D01*
X-54974484Y54406883D01*
X-54971061Y54409755D01*
X-54970425Y54408997D01*
X-54932456Y54428762D01*
X-54927008Y54429000D01*
X-43469943Y54429000D01*
X-43469941Y54429000D01*
X-43399740Y54458078D01*
X-40247740Y57610078D01*
X-38233985Y57610078D01*
X-38213930Y57496339D01*
X-38156183Y57396318D01*
X-38067709Y57322080D01*
X-37962428Y57283760D01*
X-37959180Y57282578D01*
X-37959177Y57282578D01*
X-37843689Y57282578D01*
X-37843686Y57282578D01*
X-37735157Y57322080D01*
X-37646683Y57396318D01*
X-37588936Y57496339D01*
X-37568881Y57610078D01*
X-37588936Y57723817D01*
X-37646683Y57823838D01*
X-37735157Y57898076D01*
X-37735158Y57898077D01*
X-37843684Y57937578D01*
X-37843686Y57937578D01*
X-37959180Y57937578D01*
X-37959183Y57937578D01*
X-38067709Y57898077D01*
X-38156183Y57823839D01*
X-38213930Y57723818D01*
X-38233985Y57610078D01*
X-40247740Y57610078D01*
X-39067124Y58790694D01*
X-39022930Y58809000D01*
X-38933689Y58809000D01*
X-38933686Y58809000D01*
X-38888472Y58825458D01*
X-38867153Y58829227D01*
X-37977943Y58829981D01*
X-37933734Y58811713D01*
X-37923765Y58798732D01*
X-37876183Y58716318D01*
X-37787709Y58642080D01*
X-37679180Y58602578D01*
X-37679177Y58602578D01*
X-37563689Y58602578D01*
X-37563686Y58602578D01*
X-37455157Y58642080D01*
X-37366683Y58716318D01*
X-37318753Y58799337D01*
X-37280804Y58828456D01*
X-37266673Y58830323D01*
X-37266410Y58830583D01*
X-37266410Y58830584D01*
X-36966885Y58830838D01*
X-37049900Y54635412D01*
X-37110799Y54657578D01*
X-37110801Y54657578D01*
X-37226295Y54657578D01*
X-37226298Y54657578D01*
X-37334824Y54618077D01*
X-37423298Y54543839D01*
X-37481045Y54443818D01*
X-37501100Y54330078D01*
X-37481045Y54216339D01*
X-37423298Y54116318D01*
X-37334824Y54042080D01*
X-37226301Y54002580D01*
X-37226295Y54002578D01*
X-37226292Y54002578D01*
X-37110804Y54002578D01*
X-37110801Y54002578D01*
X-37062072Y54020315D01*
X-37096885Y52260838D01*
X-37335806Y52259198D01*
X-37683128Y52256815D01*
X-37727447Y52274818D01*
X-37745107Y52308464D01*
X-37746051Y52313817D01*
X-37803798Y52413838D01*
X-37892272Y52488076D01*
X-37892273Y52488077D01*
X-38000799Y52527578D01*
X-38000801Y52527578D01*
X-38116295Y52527578D01*
X-38116298Y52527578D01*
X-38224824Y52488077D01*
X-38313298Y52413839D01*
X-38371046Y52313815D01*
X-38372899Y52303306D01*
X-38398601Y52262962D01*
X-38434020Y52251660D01*
X-48483444Y52182676D01*
X-48527763Y52200679D01*
X-48546372Y52244746D01*
X-48545424Y52256023D01*
X-48542133Y52274685D01*
X-48562188Y52388424D01*
X-48619935Y52488445D01*
X-48708409Y52562683D01*
X-48708410Y52562684D01*
X-48816936Y52602185D01*
X-48816938Y52602185D01*
X-48932432Y52602185D01*
X-48932435Y52602185D01*
X-49040961Y52562684D01*
X-49129435Y52488446D01*
X-49129437Y52488444D01*
X-49158827Y52437538D01*
X-49196777Y52408418D01*
X-49234329Y52410057D01*
X-49282251Y52427500D01*
X-49282253Y52427500D01*
X-49397747Y52427500D01*
X-49397750Y52427500D01*
X-49506276Y52387999D01*
X-49594751Y52313760D01*
X-49594753Y52313757D01*
X-49618004Y52273485D01*
X-49655954Y52244365D01*
X-49703380Y52250609D01*
X-49726257Y52273485D01*
X-49726950Y52274685D01*
X-49755328Y52323838D01*
X-49831792Y52387999D01*
X-49843803Y52398077D01*
X-49952329Y52437578D01*
X-49952331Y52437578D01*
X-50067825Y52437578D01*
X-50067828Y52437578D01*
X-50176354Y52398077D01*
X-50264828Y52323839D01*
X-50322575Y52223819D01*
X-50322576Y52223815D01*
X-50323024Y52221273D01*
X-50324136Y52219528D01*
X-50324444Y52218681D01*
X-50324632Y52218750D01*
X-50348727Y52180930D01*
X-50384145Y52169629D01*
X-55960008Y52131353D01*
X-56004327Y52149355D01*
X-56022936Y52193423D01*
X-56022935Y52194331D01*
X-56016648Y52860078D01*
X-56022478Y53164138D01*
X-46899044Y53164138D01*
X-46878989Y53050399D01*
X-46821242Y52950378D01*
X-46732768Y52876140D01*
X-46624239Y52836638D01*
X-46624236Y52836638D01*
X-46508748Y52836638D01*
X-46508745Y52836638D01*
X-46400216Y52876140D01*
X-46311742Y52950378D01*
X-46253995Y53050399D01*
X-46233940Y53164138D01*
X-46253995Y53277877D01*
X-46311742Y53377898D01*
X-46400216Y53452136D01*
X-46400217Y53452137D01*
X-46508743Y53491638D01*
X-46508745Y53491638D01*
X-46624239Y53491638D01*
X-46624242Y53491638D01*
X-46732768Y53452137D01*
X-46821242Y53377899D01*
X-46878989Y53277878D01*
X-46878989Y53277877D01*
X-46899044Y53164138D01*
X-56022478Y53164138D01*
X-56031985Y53660000D01*
X-43342552Y53660000D01*
X-43322497Y53546261D01*
X-43264750Y53446240D01*
X-43176276Y53372002D01*
X-43067747Y53332500D01*
X-43067744Y53332500D01*
X-42952256Y53332500D01*
X-42952253Y53332500D01*
X-42843724Y53372002D01*
X-42755250Y53446240D01*
X-42697503Y53546261D01*
X-42677448Y53660000D01*
X-42697503Y53773739D01*
X-42755250Y53873760D01*
X-42843724Y53947998D01*
X-42843725Y53947999D01*
X-42952251Y53987500D01*
X-42952253Y53987500D01*
X-43067747Y53987500D01*
X-43067750Y53987500D01*
X-43176276Y53947999D01*
X-43264750Y53873761D01*
X-43322497Y53773740D01*
X-43322497Y53773739D01*
X-43342552Y53660000D01*
X-56031985Y53660000D01*
X-56069181Y55600078D01*
X-53935436Y55600078D01*
X-53915381Y55486339D01*
X-53857634Y55386318D01*
X-53769160Y55312080D01*
X-53682067Y55280380D01*
X-53660631Y55272578D01*
X-53660628Y55272578D01*
X-53545140Y55272578D01*
X-53545137Y55272578D01*
X-53436608Y55312080D01*
X-53348134Y55386318D01*
X-53290387Y55486339D01*
X-53275921Y55568378D01*
X-52987500Y55568378D01*
X-52967445Y55454639D01*
X-52909698Y55354618D01*
X-52821224Y55280380D01*
X-52712695Y55240878D01*
X-52712692Y55240878D01*
X-52597204Y55240878D01*
X-52597201Y55240878D01*
X-52488672Y55280380D01*
X-52421432Y55336802D01*
X-52375811Y55351185D01*
X-52333380Y55329097D01*
X-52332997Y55328549D01*
X-52329698Y55324618D01*
X-52241224Y55250380D01*
X-52135998Y55212080D01*
X-52132695Y55210878D01*
X-52132692Y55210878D01*
X-52017204Y55210878D01*
X-52017201Y55210878D01*
X-51908672Y55250380D01*
X-51820198Y55324618D01*
X-51762451Y55424639D01*
X-51742396Y55538378D01*
X-51746222Y55560078D01*
X-51279200Y55560078D01*
X-51259145Y55446339D01*
X-51201398Y55346318D01*
X-51112924Y55272080D01*
X-51027202Y55240879D01*
X-51004395Y55232578D01*
X-51004392Y55232578D01*
X-50888904Y55232578D01*
X-50888901Y55232578D01*
X-50780372Y55272080D01*
X-50691898Y55346318D01*
X-50634151Y55446339D01*
X-50634151Y55446340D01*
X-50631417Y55451075D01*
X-50629158Y55449771D01*
X-50603074Y55478262D01*
X-50555286Y55480371D01*
X-50522508Y55452880D01*
X-50501401Y55416321D01*
X-50501399Y55416319D01*
X-50501398Y55416318D01*
X-50412924Y55342080D01*
X-50304395Y55302578D01*
X-50304392Y55302578D01*
X-50188904Y55302578D01*
X-50188901Y55302578D01*
X-50080372Y55342080D01*
X-49991898Y55416318D01*
X-49991897Y55416321D01*
X-49989920Y55417979D01*
X-49944299Y55432363D01*
X-49901868Y55410275D01*
X-49891015Y55391476D01*
X-49889147Y55386343D01*
X-49889146Y55386340D01*
X-49889145Y55386339D01*
X-49831398Y55286318D01*
X-49742924Y55212080D01*
X-49634395Y55172578D01*
X-49634392Y55172578D01*
X-49518904Y55172578D01*
X-49518901Y55172578D01*
X-49410372Y55212080D01*
X-49321898Y55286318D01*
X-49264151Y55386339D01*
X-49244096Y55500078D01*
X-49264151Y55613817D01*
X-49321898Y55713838D01*
X-49351508Y55738684D01*
X-49410373Y55788077D01*
X-49518899Y55827578D01*
X-49518901Y55827578D01*
X-49634395Y55827578D01*
X-49634398Y55827578D01*
X-49742924Y55788077D01*
X-49833377Y55712178D01*
X-49878999Y55697794D01*
X-49921429Y55719882D01*
X-49932283Y55738684D01*
X-49934151Y55743815D01*
X-49934151Y55743817D01*
X-49991898Y55843838D01*
X-49996948Y55848076D01*
X-50080373Y55918077D01*
X-50188899Y55957578D01*
X-50188901Y55957578D01*
X-50304395Y55957578D01*
X-50304398Y55957578D01*
X-50412924Y55918077D01*
X-50501398Y55843839D01*
X-50561879Y55739081D01*
X-50564131Y55740382D01*
X-50590260Y55711878D01*
X-50638051Y55709800D01*
X-50670790Y55737277D01*
X-50671832Y55739081D01*
X-50691898Y55773838D01*
X-50701789Y55782138D01*
X-50780373Y55848077D01*
X-50888899Y55887578D01*
X-50888901Y55887578D01*
X-51004395Y55887578D01*
X-51004398Y55887578D01*
X-51112924Y55848077D01*
X-51201398Y55773839D01*
X-51259145Y55673818D01*
X-51279200Y55560078D01*
X-51746222Y55560078D01*
X-51762451Y55652117D01*
X-51820198Y55752138D01*
X-51824290Y55755572D01*
X-51908673Y55826377D01*
X-52017199Y55865878D01*
X-52017201Y55865878D01*
X-52132695Y55865878D01*
X-52132698Y55865878D01*
X-52241226Y55826377D01*
X-52308466Y55769956D01*
X-52354087Y55755572D01*
X-52396517Y55777661D01*
X-52396896Y55778202D01*
X-52400199Y55782139D01*
X-52488673Y55856377D01*
X-52597199Y55895878D01*
X-52597201Y55895878D01*
X-52712695Y55895878D01*
X-52712698Y55895878D01*
X-52821224Y55856377D01*
X-52909698Y55782139D01*
X-52967445Y55682118D01*
X-52972735Y55652118D01*
X-52987500Y55568378D01*
X-53275921Y55568378D01*
X-53270332Y55600078D01*
X-53290387Y55713817D01*
X-53348134Y55813838D01*
X-53388937Y55848076D01*
X-53436609Y55888077D01*
X-53545135Y55927578D01*
X-53545137Y55927578D01*
X-53660631Y55927578D01*
X-53660634Y55927578D01*
X-53769160Y55888077D01*
X-53857634Y55813839D01*
X-53915381Y55713818D01*
X-53935436Y55600078D01*
X-56069181Y55600078D01*
X-56126699Y58600078D01*
X-51749200Y58600078D01*
X-51729145Y58486339D01*
X-51671398Y58386318D01*
X-51582924Y58312080D01*
X-51474395Y58272578D01*
X-51474392Y58272578D01*
X-51358904Y58272578D01*
X-51358901Y58272578D01*
X-51250372Y58312080D01*
X-51161898Y58386318D01*
X-51104151Y58486339D01*
X-51084096Y58600078D01*
X-51104151Y58713817D01*
X-51161898Y58813838D01*
X-51164878Y58816339D01*
X-51250373Y58888077D01*
X-51358899Y58927578D01*
X-51358901Y58927578D01*
X-51474395Y58927578D01*
X-51474398Y58927578D01*
X-51582924Y58888077D01*
X-51671398Y58813839D01*
X-51729145Y58713818D01*
X-51729145Y58713817D01*
X-51749200Y58600078D01*
X-56126699Y58600078D01*
X-56142037Y59400078D01*
X-51699200Y59400078D01*
X-51679145Y59286339D01*
X-51621398Y59186318D01*
X-51532924Y59112080D01*
X-51424395Y59072578D01*
X-51424392Y59072578D01*
X-51308904Y59072578D01*
X-51308901Y59072578D01*
X-51200372Y59112080D01*
X-51111898Y59186318D01*
X-51054151Y59286339D01*
X-51034096Y59400078D01*
X-51054151Y59513817D01*
X-51111898Y59613838D01*
X-51200372Y59688076D01*
X-51200373Y59688077D01*
X-51308899Y59727578D01*
X-51308901Y59727578D01*
X-51424395Y59727578D01*
X-51424398Y59727578D01*
X-51532924Y59688077D01*
X-51621398Y59613839D01*
X-51679145Y59513818D01*
X-51679145Y59513817D01*
X-51699200Y59400078D01*
X-56142037Y59400078D01*
X-56155456Y60100000D01*
X-55552552Y60100000D01*
X-55532497Y59986261D01*
X-55474750Y59886240D01*
X-55386276Y59812002D01*
X-55277747Y59772500D01*
X-55277744Y59772500D01*
X-55162256Y59772500D01*
X-55162253Y59772500D01*
X-55053724Y59812002D01*
X-54965250Y59886240D01*
X-54907503Y59986261D01*
X-54887448Y60100000D01*
X-54907503Y60213739D01*
X-54965250Y60313760D01*
X-55053724Y60387998D01*
X-55053725Y60387999D01*
X-55162251Y60427500D01*
X-55162253Y60427500D01*
X-55277747Y60427500D01*
X-55277750Y60427500D01*
X-55386276Y60387999D01*
X-55474750Y60313761D01*
X-55532497Y60213740D01*
X-55532497Y60213739D01*
X-55552552Y60100000D01*
X-56155456Y60100000D01*
X-56231455Y64063941D01*
X-56213999Y64108477D01*
X-56170164Y64127627D01*
X-56168766Y64127637D01*
X-48757971Y64097914D01*
G37*
G04 #@! TD.AperFunction*
G04 #@! TD*
G04 #@! TA.AperFunction,Conductor*
G04 #@! TO.N,+3V3*
G36*
X-33666064Y70898018D02*
G01*
X-33621919Y70879601D01*
X-33603725Y70835519D01*
X-33603725Y70336429D01*
X-33603725Y70260445D01*
X-33579931Y70203001D01*
X-33574647Y70190244D01*
X-33572969Y70187733D01*
X-33562433Y70153006D01*
X-33562433Y69307249D01*
X-33537117Y69246128D01*
X-33533309Y69211362D01*
X-33538823Y69180081D01*
X-33538823Y69180080D01*
X-33538823Y69180078D01*
X-33518768Y69066339D01*
X-33461021Y68966318D01*
X-33372547Y68892080D01*
X-33264018Y68852578D01*
X-33264015Y68852578D01*
X-33148527Y68852578D01*
X-33148524Y68852578D01*
X-33039995Y68892080D01*
X-32951521Y68966318D01*
X-32893774Y69066339D01*
X-32873719Y69180078D01*
X-32890752Y69276678D01*
X-31863837Y69276678D01*
X-31843782Y69162939D01*
X-31786035Y69062918D01*
X-31697561Y68988680D01*
X-31589032Y68949178D01*
X-31589029Y68949178D01*
X-31473541Y68949178D01*
X-31473538Y68949178D01*
X-31365009Y68988680D01*
X-31276535Y69062918D01*
X-31218788Y69162939D01*
X-31198733Y69276678D01*
X-31218788Y69390417D01*
X-31276535Y69490438D01*
X-31292964Y69504224D01*
X-31365010Y69564677D01*
X-31473536Y69604178D01*
X-31473538Y69604178D01*
X-31589032Y69604178D01*
X-31589035Y69604178D01*
X-31697561Y69564677D01*
X-31786035Y69490439D01*
X-31843782Y69390418D01*
X-31857832Y69310733D01*
X-31863837Y69276678D01*
X-32890752Y69276678D01*
X-32893774Y69293817D01*
X-32951521Y69393838D01*
X-33014493Y69446678D01*
X-33039996Y69468077D01*
X-33139309Y69504224D01*
X-33174577Y69536541D01*
X-33180433Y69562955D01*
X-33180433Y70295135D01*
X-33180433Y70295137D01*
X-33209511Y70365338D01*
X-33209512Y70365341D01*
X-33211191Y70367853D01*
X-33221725Y70402577D01*
X-33221725Y70834231D01*
X-33203419Y70878425D01*
X-33159226Y70896731D01*
X-31044624Y70891361D01*
X-31000479Y70872943D01*
X-30982285Y70828861D01*
X-30982285Y68320530D01*
X-31000591Y68276336D01*
X-31087816Y68189111D01*
X-31132010Y68170805D01*
X-31221257Y68170805D01*
X-31329783Y68131304D01*
X-31418258Y68057065D01*
X-31418259Y68057064D01*
X-31440184Y68019089D01*
X-31478135Y67989969D01*
X-31525561Y67996214D01*
X-31548437Y68019091D01*
X-31566535Y68050438D01*
X-31655010Y68124677D01*
X-31763536Y68164178D01*
X-31763538Y68164178D01*
X-31879032Y68164178D01*
X-31879035Y68164178D01*
X-31987561Y68124677D01*
X-32076035Y68050439D01*
X-32133782Y67950418D01*
X-32153837Y67836678D01*
X-32133782Y67722939D01*
X-32076035Y67622918D01*
X-31987561Y67548680D01*
X-31903265Y67517998D01*
X-31879032Y67509178D01*
X-31879029Y67509178D01*
X-31763541Y67509178D01*
X-31763538Y67509178D01*
X-31655009Y67548680D01*
X-31566535Y67622918D01*
X-31544610Y67660895D01*
X-31506659Y67690014D01*
X-31459233Y67683771D01*
X-31436356Y67660894D01*
X-31418257Y67629545D01*
X-31329783Y67555307D01*
X-31228799Y67518551D01*
X-31221254Y67515805D01*
X-31221251Y67515805D01*
X-31105763Y67515805D01*
X-31105760Y67515805D01*
X-30997231Y67555307D01*
X-30908757Y67629545D01*
X-30851010Y67729566D01*
X-30837436Y67806549D01*
X-27590286Y67806549D01*
X-27570231Y67692810D01*
X-27512484Y67592789D01*
X-27424010Y67518551D01*
X-27411996Y67514178D01*
X-27315481Y67479049D01*
X-27315478Y67479049D01*
X-27199990Y67479049D01*
X-27199987Y67479049D01*
X-27091458Y67518551D01*
X-27002984Y67592789D01*
X-26945237Y67692810D01*
X-26925182Y67806549D01*
X-26945237Y67920288D01*
X-27002984Y68020309D01*
X-27038890Y68050438D01*
X-27091459Y68094548D01*
X-27199985Y68134049D01*
X-27199987Y68134049D01*
X-27315481Y68134049D01*
X-27315484Y68134049D01*
X-27424010Y68094548D01*
X-27512484Y68020310D01*
X-27570231Y67920289D01*
X-27590286Y67806549D01*
X-30837436Y67806549D01*
X-30830955Y67843305D01*
X-30834665Y67864346D01*
X-30824311Y67911046D01*
X-30817314Y67919385D01*
X-30629363Y68107334D01*
X-30600285Y68177535D01*
X-30600285Y68253519D01*
X-30600285Y68420078D01*
X-22183985Y68420078D01*
X-22163930Y68306339D01*
X-22106183Y68206318D01*
X-22017709Y68132080D01*
X-21914593Y68094548D01*
X-21909180Y68092578D01*
X-21909177Y68092578D01*
X-21793689Y68092578D01*
X-21793686Y68092578D01*
X-21685157Y68132080D01*
X-21596683Y68206318D01*
X-21538936Y68306339D01*
X-21518881Y68420078D01*
X-21538936Y68533817D01*
X-21596683Y68633838D01*
X-21685157Y68708076D01*
X-21685158Y68708077D01*
X-21793684Y68747578D01*
X-21793686Y68747578D01*
X-21909180Y68747578D01*
X-21909183Y68747578D01*
X-22017709Y68708077D01*
X-22106183Y68633839D01*
X-22163930Y68533818D01*
X-22183985Y68420078D01*
X-30600285Y68420078D01*
X-30600285Y68901878D01*
X-27734277Y68901878D01*
X-27714222Y68788139D01*
X-27656475Y68688118D01*
X-27568001Y68613880D01*
X-27459472Y68574378D01*
X-27459469Y68574378D01*
X-27343981Y68574378D01*
X-27343978Y68574378D01*
X-27235449Y68613880D01*
X-27146975Y68688118D01*
X-27089228Y68788139D01*
X-27069173Y68901878D01*
X-27089228Y69015617D01*
X-27103305Y69040000D01*
X-23437337Y69040000D01*
X-23417282Y68926261D01*
X-23359535Y68826240D01*
X-23271061Y68752002D01*
X-23162532Y68712500D01*
X-23162529Y68712500D01*
X-23047041Y68712500D01*
X-23047038Y68712500D01*
X-22938509Y68752002D01*
X-22850035Y68826240D01*
X-22792288Y68926261D01*
X-22772233Y69040000D01*
X-22792288Y69153739D01*
X-22850035Y69253760D01*
X-22853015Y69256261D01*
X-22938510Y69327999D01*
X-23047036Y69367500D01*
X-23047038Y69367500D01*
X-23162532Y69367500D01*
X-23162535Y69367500D01*
X-23271061Y69327999D01*
X-23359535Y69253761D01*
X-23417282Y69153740D01*
X-23417282Y69153739D01*
X-23437337Y69040000D01*
X-27103305Y69040000D01*
X-27146975Y69115638D01*
X-27192383Y69153740D01*
X-27235450Y69189877D01*
X-27343976Y69229378D01*
X-27343978Y69229378D01*
X-27459472Y69229378D01*
X-27459475Y69229378D01*
X-27568001Y69189877D01*
X-27656475Y69115639D01*
X-27714222Y69015618D01*
X-27714222Y69015617D01*
X-27734277Y68901878D01*
X-30600285Y68901878D01*
X-30600285Y69446678D01*
X-29993837Y69446678D01*
X-29973782Y69332939D01*
X-29916035Y69232918D01*
X-29827561Y69158680D01*
X-29719032Y69119178D01*
X-29719029Y69119178D01*
X-29603541Y69119178D01*
X-29603538Y69119178D01*
X-29495009Y69158680D01*
X-29406535Y69232918D01*
X-29348788Y69332939D01*
X-29342253Y69370000D01*
X-22627337Y69370000D01*
X-22607282Y69256261D01*
X-22549535Y69156240D01*
X-22461061Y69082002D01*
X-22352532Y69042500D01*
X-22352529Y69042500D01*
X-22237041Y69042500D01*
X-22237038Y69042500D01*
X-22128509Y69082002D01*
X-22040035Y69156240D01*
X-21982288Y69256261D01*
X-21962233Y69370000D01*
X-21982288Y69483739D01*
X-22040035Y69583760D01*
X-22090527Y69626128D01*
X-22128510Y69657999D01*
X-22237036Y69697500D01*
X-22237038Y69697500D01*
X-22352532Y69697500D01*
X-22352535Y69697500D01*
X-22461061Y69657999D01*
X-22549535Y69583761D01*
X-22607282Y69483740D01*
X-22607282Y69483739D01*
X-22627337Y69370000D01*
X-29342253Y69370000D01*
X-29328733Y69446678D01*
X-29348788Y69560417D01*
X-29406535Y69660438D01*
X-29495009Y69734676D01*
X-29495010Y69734677D01*
X-29603536Y69774178D01*
X-29603538Y69774178D01*
X-29719032Y69774178D01*
X-29719035Y69774178D01*
X-29827561Y69734677D01*
X-29916035Y69660439D01*
X-29973782Y69560418D01*
X-29973782Y69560417D01*
X-29993837Y69446678D01*
X-30600285Y69446678D01*
X-30600285Y70827573D01*
X-30581979Y70871767D01*
X-30537786Y70890073D01*
X-25787826Y70878009D01*
X-25743681Y70859592D01*
X-25725487Y70815351D01*
X-25743905Y70771204D01*
X-25747812Y70767633D01*
X-25775665Y70744262D01*
X-25775665Y70744261D01*
X-25833412Y70644240D01*
X-25853467Y70530500D01*
X-25833412Y70416761D01*
X-25775665Y70316740D01*
X-25687191Y70242502D01*
X-25578662Y70203000D01*
X-25578659Y70203000D01*
X-25463171Y70203000D01*
X-25463168Y70203000D01*
X-25354639Y70242502D01*
X-25266165Y70316740D01*
X-25208418Y70416761D01*
X-25188363Y70530500D01*
X-25208418Y70644239D01*
X-25266165Y70744260D01*
X-25292398Y70766272D01*
X-25314485Y70808701D01*
X-25300101Y70854323D01*
X-25257671Y70876411D01*
X-25252080Y70876649D01*
X-21989573Y70868363D01*
X-21945427Y70849945D01*
X-21927233Y70805704D01*
X-21935606Y70774614D01*
X-21992497Y70676076D01*
X-22012552Y70562334D01*
X-21992497Y70448595D01*
X-21934750Y70348574D01*
X-21846276Y70274336D01*
X-21758815Y70242502D01*
X-21737747Y70234834D01*
X-21737744Y70234834D01*
X-21622256Y70234834D01*
X-21622253Y70234834D01*
X-21513724Y70274336D01*
X-21425250Y70348574D01*
X-21390370Y70408990D01*
X-21352420Y70438110D01*
X-21304994Y70431867D01*
X-21292049Y70421934D01*
X-20540571Y69670456D01*
X-20522265Y69626262D01*
X-20522265Y69626128D01*
X-20536545Y62958804D01*
X-20538697Y61953839D01*
X-20538706Y61949866D01*
X-20557107Y61905711D01*
X-20601206Y61887500D01*
X-20682535Y61887500D01*
X-20791061Y61847999D01*
X-20879535Y61773761D01*
X-20937282Y61673740D01*
X-20944917Y61630439D01*
X-20957337Y61560000D01*
X-20937282Y61446261D01*
X-20879535Y61346240D01*
X-20791061Y61272002D01*
X-20682532Y61232500D01*
X-20682529Y61232500D01*
X-20602877Y61232500D01*
X-20558683Y61214194D01*
X-20540377Y61170000D01*
X-20540377Y61169866D01*
X-20541717Y60544314D01*
X-20551521Y55966644D01*
X-20551536Y55959866D01*
X-20569937Y55915711D01*
X-20614036Y55897500D01*
X-20649650Y55897500D01*
X-20758176Y55857999D01*
X-20846650Y55783761D01*
X-20904397Y55683740D01*
X-20908689Y55659399D01*
X-20924452Y55570000D01*
X-20904397Y55456261D01*
X-20846650Y55356240D01*
X-20758176Y55282002D01*
X-20649647Y55242500D01*
X-20649644Y55242500D01*
X-20615707Y55242500D01*
X-20571513Y55224194D01*
X-20553207Y55180000D01*
X-20553305Y55134167D01*
X-20553919Y54847773D01*
X-20572320Y54803618D01*
X-20595043Y54789176D01*
X-20708176Y54747999D01*
X-20796650Y54673761D01*
X-20854397Y54573740D01*
X-20874452Y54460000D01*
X-20854397Y54346261D01*
X-20796650Y54246240D01*
X-20708176Y54172002D01*
X-20596704Y54131429D01*
X-20561436Y54099112D01*
X-20555580Y54072564D01*
X-20571448Y46664338D01*
X-20589849Y46620183D01*
X-20607534Y46607828D01*
X-20777676Y46528489D01*
X-20959783Y46400977D01*
X-21116977Y46243783D01*
X-21244489Y46061676D01*
X-21338441Y45860195D01*
X-21338442Y45860193D01*
X-21395976Y45645476D01*
X-21395979Y45645460D01*
X-21415353Y45424003D01*
X-21415353Y45423998D01*
X-21395979Y45202541D01*
X-21395976Y45202525D01*
X-21338442Y44987808D01*
X-21338441Y44987806D01*
X-21244489Y44786324D01*
X-21116977Y44604218D01*
X-20959783Y44447024D01*
X-20893531Y44400634D01*
X-20777677Y44319512D01*
X-20777676Y44319512D01*
X-20777674Y44319510D01*
X-20705998Y44286088D01*
X-20612843Y44242649D01*
X-20580526Y44207383D01*
X-20576757Y44185872D01*
X-20577666Y43761486D01*
X-20596067Y43717331D01*
X-20640300Y43699120D01*
X-20641754Y43699140D01*
X-25375086Y43819480D01*
X-25418801Y43838903D01*
X-25435978Y43883548D01*
X-25435050Y43892797D01*
X-25431723Y43911665D01*
X-25451778Y44025404D01*
X-25509525Y44125425D01*
X-25597999Y44199663D01*
X-25598000Y44199664D01*
X-25706526Y44239165D01*
X-25706528Y44239165D01*
X-25822022Y44239165D01*
X-25822025Y44239165D01*
X-25930551Y44199664D01*
X-26019025Y44125426D01*
X-26076772Y44025405D01*
X-26096827Y43911663D01*
X-26096827Y43906198D01*
X-26098478Y43906198D01*
X-26107380Y43866065D01*
X-26147727Y43840367D01*
X-26160161Y43839439D01*
X-29959348Y43936028D01*
X-30003063Y43955451D01*
X-30020207Y43995938D01*
X-30027290Y44168022D01*
X-30035056Y44356678D01*
X-24970952Y44356678D01*
X-24950897Y44242939D01*
X-24893150Y44142918D01*
X-24804676Y44068680D01*
X-24696147Y44029178D01*
X-24696144Y44029178D01*
X-24580656Y44029178D01*
X-24580653Y44029178D01*
X-24472124Y44068680D01*
X-24383650Y44142918D01*
X-24325903Y44242939D01*
X-24305848Y44356678D01*
X-24325903Y44470417D01*
X-24383650Y44570438D01*
X-24388942Y44574879D01*
X-24472125Y44644677D01*
X-24580651Y44684178D01*
X-24580653Y44684178D01*
X-24696147Y44684178D01*
X-24696150Y44684178D01*
X-24804676Y44644677D01*
X-24893150Y44570439D01*
X-24950897Y44470418D01*
X-24950897Y44470417D01*
X-24970952Y44356678D01*
X-30035056Y44356678D01*
X-30086856Y45615118D01*
X-29589302Y45615118D01*
X-29569247Y45501379D01*
X-29511500Y45401358D01*
X-29423026Y45327120D01*
X-29349629Y45300405D01*
X-29314497Y45287618D01*
X-29314494Y45287618D01*
X-29199006Y45287618D01*
X-29199003Y45287618D01*
X-29090474Y45327120D01*
X-29002000Y45401358D01*
X-28944253Y45501379D01*
X-28924198Y45615118D01*
X-28944253Y45728857D01*
X-29002000Y45828878D01*
X-29002357Y45829178D01*
X-29090475Y45903117D01*
X-29199001Y45942618D01*
X-29199003Y45942618D01*
X-29314497Y45942618D01*
X-29314500Y45942618D01*
X-29423026Y45903117D01*
X-29511500Y45828879D01*
X-29569247Y45728858D01*
X-29589302Y45615118D01*
X-30086856Y45615118D01*
X-30109148Y46156678D01*
X-27940952Y46156678D01*
X-27920897Y46042939D01*
X-27863150Y45942918D01*
X-27774676Y45868680D01*
X-27683974Y45835667D01*
X-27648706Y45803350D01*
X-27646619Y45755560D01*
X-27678936Y45720292D01*
X-27683973Y45718205D01*
X-27748616Y45694677D01*
X-27837090Y45620439D01*
X-27894837Y45520418D01*
X-27914892Y45406678D01*
X-27894837Y45292939D01*
X-27837090Y45192918D01*
X-27748616Y45118680D01*
X-27657542Y45085531D01*
X-27640087Y45079178D01*
X-27640084Y45079178D01*
X-27524596Y45079178D01*
X-27524593Y45079178D01*
X-27416064Y45118680D01*
X-27398571Y45133358D01*
X-27114272Y45133358D01*
X-27094217Y45019619D01*
X-27036470Y44919598D01*
X-26947996Y44845360D01*
X-26839467Y44805858D01*
X-26839464Y44805858D01*
X-26723976Y44805858D01*
X-26723973Y44805858D01*
X-26615444Y44845360D01*
X-26526970Y44919598D01*
X-26469223Y45019619D01*
X-26449168Y45133358D01*
X-26458932Y45188733D01*
X-24769131Y45188733D01*
X-24749076Y45074994D01*
X-24691329Y44974973D01*
X-24602855Y44900735D01*
X-24494326Y44861233D01*
X-24494323Y44861233D01*
X-24378835Y44861233D01*
X-24378832Y44861233D01*
X-24270303Y44900735D01*
X-24181829Y44974973D01*
X-24124082Y45074994D01*
X-24104027Y45188733D01*
X-24124082Y45302472D01*
X-24173757Y45388511D01*
X-24179999Y45435936D01*
X-24159805Y45467637D01*
X-24097150Y45520209D01*
X-24039403Y45620230D01*
X-24019348Y45733969D01*
X-24039403Y45847708D01*
X-24097150Y45947729D01*
X-24100378Y45950438D01*
X-24166579Y46005987D01*
X-24188667Y46048418D01*
X-24174283Y46094039D01*
X-24147784Y46112595D01*
X-24048731Y46148647D01*
X-23960257Y46222885D01*
X-23902510Y46322906D01*
X-23882455Y46436645D01*
X-23902510Y46550384D01*
X-23960257Y46650405D01*
X-23971692Y46660000D01*
X-21722552Y46660000D01*
X-21702497Y46546261D01*
X-21644750Y46446240D01*
X-21556276Y46372002D01*
X-21447747Y46332500D01*
X-21447744Y46332500D01*
X-21332256Y46332500D01*
X-21332253Y46332500D01*
X-21223724Y46372002D01*
X-21135250Y46446240D01*
X-21077503Y46546261D01*
X-21057448Y46660000D01*
X-21077503Y46773739D01*
X-21135250Y46873760D01*
X-21166041Y46899597D01*
X-21223725Y46947999D01*
X-21332251Y46987500D01*
X-21332253Y46987500D01*
X-21447747Y46987500D01*
X-21447750Y46987500D01*
X-21556276Y46947999D01*
X-21644750Y46873761D01*
X-21702497Y46773740D01*
X-21719029Y46679979D01*
X-21722552Y46660000D01*
X-23971692Y46660000D01*
X-23995498Y46679976D01*
X-24048732Y46724644D01*
X-24157258Y46764145D01*
X-24157260Y46764145D01*
X-24272754Y46764145D01*
X-24272757Y46764145D01*
X-24381283Y46724644D01*
X-24469757Y46650406D01*
X-24527504Y46550385D01*
X-24547559Y46436645D01*
X-24527504Y46322906D01*
X-24469757Y46222885D01*
X-24400329Y46164628D01*
X-24378241Y46122197D01*
X-24392625Y46076576D01*
X-24419126Y46058019D01*
X-24518176Y46021968D01*
X-24606650Y45947730D01*
X-24664397Y45847709D01*
X-24684452Y45733969D01*
X-24664397Y45620230D01*
X-24614724Y45534193D01*
X-24608481Y45486766D01*
X-24628676Y45455065D01*
X-24691330Y45402492D01*
X-24749076Y45302473D01*
X-24749637Y45299292D01*
X-24769131Y45188733D01*
X-26458932Y45188733D01*
X-26469223Y45247097D01*
X-26526970Y45347118D01*
X-26592962Y45402492D01*
X-26615445Y45421357D01*
X-26723971Y45460858D01*
X-26723973Y45460858D01*
X-26839467Y45460858D01*
X-26839470Y45460858D01*
X-26947996Y45421357D01*
X-27036470Y45347119D01*
X-27094217Y45247098D01*
X-27094217Y45247097D01*
X-27114272Y45133358D01*
X-27398571Y45133358D01*
X-27327590Y45192918D01*
X-27269843Y45292939D01*
X-27249788Y45406678D01*
X-27269843Y45520417D01*
X-27327590Y45620438D01*
X-27330570Y45622939D01*
X-27416065Y45694677D01*
X-27506767Y45727690D01*
X-27542035Y45760008D01*
X-27544122Y45807797D01*
X-27511804Y45843065D01*
X-27506778Y45845148D01*
X-27442124Y45868680D01*
X-27353650Y45942918D01*
X-27295903Y46042939D01*
X-27275848Y46156678D01*
X-27295903Y46270417D01*
X-27353650Y46370438D01*
X-27442124Y46444676D01*
X-27442125Y46444677D01*
X-27550651Y46484178D01*
X-27550653Y46484178D01*
X-27666147Y46484178D01*
X-27666150Y46484178D01*
X-27774676Y46444677D01*
X-27863150Y46370439D01*
X-27920897Y46270418D01*
X-27926306Y46239743D01*
X-27940952Y46156678D01*
X-30109148Y46156678D01*
X-30128851Y46635333D01*
X-26966859Y46635333D01*
X-26946804Y46521594D01*
X-26889057Y46421573D01*
X-26800583Y46347335D01*
X-26692054Y46307833D01*
X-26692051Y46307833D01*
X-26576562Y46307833D01*
X-26576560Y46307833D01*
X-26576559Y46307834D01*
X-26574522Y46308193D01*
X-26572897Y46307833D01*
X-26571092Y46307833D01*
X-26571092Y46307434D01*
X-26527819Y46297845D01*
X-26502113Y46257504D01*
X-26512461Y46210801D01*
X-26523487Y46198767D01*
X-26563126Y46165506D01*
X-26620873Y46065485D01*
X-26635557Y45982207D01*
X-26640928Y45951745D01*
X-26620873Y45838006D01*
X-26563126Y45737985D01*
X-26474652Y45663747D01*
X-26366123Y45624245D01*
X-26366120Y45624245D01*
X-26245161Y45624245D01*
X-26245161Y45621532D01*
X-26207712Y45613254D01*
X-26189402Y45593284D01*
X-26129197Y45489006D01*
X-26129195Y45489004D01*
X-26129194Y45489003D01*
X-26040720Y45414765D01*
X-25932191Y45375263D01*
X-25932188Y45375263D01*
X-25816700Y45375263D01*
X-25816697Y45375263D01*
X-25708168Y45414765D01*
X-25619694Y45489003D01*
X-25561947Y45589024D01*
X-25541892Y45702763D01*
X-25561947Y45816502D01*
X-25619694Y45916523D01*
X-25651150Y45942918D01*
X-25708169Y45990762D01*
X-25816695Y46030263D01*
X-25816697Y46030263D01*
X-25932191Y46030263D01*
X-25937659Y46030263D01*
X-25937659Y46032966D01*
X-25975151Y46041284D01*
X-25993421Y46061225D01*
X-25995879Y46065482D01*
X-25995879Y46065484D01*
X-26053626Y46165505D01*
X-26142100Y46239743D01*
X-26142101Y46239744D01*
X-26250627Y46279245D01*
X-26250629Y46279245D01*
X-26366123Y46279245D01*
X-26368171Y46278884D01*
X-26369799Y46279245D01*
X-26371591Y46279245D01*
X-26371591Y46279643D01*
X-26414872Y46289239D01*
X-26440573Y46329584D01*
X-26430218Y46376285D01*
X-26419200Y46388310D01*
X-26379557Y46421573D01*
X-26321810Y46521594D01*
X-26301755Y46635333D01*
X-26321810Y46749072D01*
X-26379557Y46849093D01*
X-26468031Y46923331D01*
X-26468032Y46923332D01*
X-26576558Y46962833D01*
X-26576560Y46962833D01*
X-26692054Y46962833D01*
X-26692057Y46962833D01*
X-26800583Y46923332D01*
X-26889057Y46849094D01*
X-26946804Y46749073D01*
X-26953926Y46708680D01*
X-26966859Y46635333D01*
X-30128851Y46635333D01*
X-30138217Y46862880D01*
X-30121745Y46907785D01*
X-30115966Y46913305D01*
X-30091914Y46933486D01*
X-30034167Y47033507D01*
X-30014112Y47147246D01*
X-30034167Y47260985D01*
X-30091914Y47361006D01*
X-30091915Y47361007D01*
X-30139974Y47401334D01*
X-30162061Y47443764D01*
X-30162245Y47446619D01*
X-30176654Y47796678D01*
X-28720952Y47796678D01*
X-28700897Y47682939D01*
X-28643150Y47582918D01*
X-28554676Y47508680D01*
X-28446147Y47469178D01*
X-28446144Y47469178D01*
X-28330656Y47469178D01*
X-28330653Y47469178D01*
X-28222124Y47508680D01*
X-28133650Y47582918D01*
X-28075903Y47682939D01*
X-28058761Y47780156D01*
X-27927382Y47780156D01*
X-27907327Y47666417D01*
X-27849580Y47566396D01*
X-27761106Y47492158D01*
X-27653964Y47453161D01*
X-27618696Y47420844D01*
X-27616609Y47373054D01*
X-27648926Y47337786D01*
X-27653964Y47335699D01*
X-27748379Y47301335D01*
X-27836853Y47227097D01*
X-27894600Y47127076D01*
X-27911098Y47033507D01*
X-27914655Y47013336D01*
X-27894600Y46899597D01*
X-27836853Y46799576D01*
X-27748379Y46725338D01*
X-27639850Y46685836D01*
X-27639847Y46685836D01*
X-27524359Y46685836D01*
X-27524356Y46685836D01*
X-27415827Y46725338D01*
X-27327353Y46799576D01*
X-27269606Y46899597D01*
X-27249551Y47013336D01*
X-27269606Y47127075D01*
X-27327353Y47227096D01*
X-27367740Y47260985D01*
X-27415828Y47301335D01*
X-27522971Y47340332D01*
X-27558238Y47372650D01*
X-27560325Y47420440D01*
X-27528007Y47455707D01*
X-27522994Y47457785D01*
X-27428554Y47492158D01*
X-27383455Y47530000D01*
X-25152552Y47530000D01*
X-25132497Y47416261D01*
X-25074750Y47316240D01*
X-24986276Y47242002D01*
X-24924017Y47219341D01*
X-24877747Y47202500D01*
X-24877744Y47202500D01*
X-24762256Y47202500D01*
X-24762253Y47202500D01*
X-24653724Y47242002D01*
X-24565250Y47316240D01*
X-24507503Y47416261D01*
X-24487448Y47530000D01*
X-24507503Y47643739D01*
X-24565250Y47743760D01*
X-24628315Y47796678D01*
X-24653725Y47817999D01*
X-24762251Y47857500D01*
X-24762253Y47857500D01*
X-24877747Y47857500D01*
X-24877750Y47857500D01*
X-24986276Y47817999D01*
X-25074750Y47743761D01*
X-25132497Y47643740D01*
X-25152552Y47530000D01*
X-27383455Y47530000D01*
X-27340080Y47566396D01*
X-27282333Y47666417D01*
X-27262278Y47780156D01*
X-27282333Y47893895D01*
X-27340080Y47993916D01*
X-27354216Y48005778D01*
X-27428555Y48068155D01*
X-27537081Y48107656D01*
X-27537083Y48107656D01*
X-27652577Y48107656D01*
X-27652580Y48107656D01*
X-27761106Y48068155D01*
X-27849580Y47993917D01*
X-27907327Y47893896D01*
X-27927382Y47780156D01*
X-28058761Y47780156D01*
X-28055848Y47796678D01*
X-28075903Y47910417D01*
X-28133650Y48010438D01*
X-28222124Y48084676D01*
X-28222125Y48084677D01*
X-28330651Y48124178D01*
X-28330653Y48124178D01*
X-28446147Y48124178D01*
X-28446150Y48124178D01*
X-28554676Y48084677D01*
X-28643150Y48010439D01*
X-28700897Y47910418D01*
X-28704138Y47892038D01*
X-28720952Y47796678D01*
X-30176654Y47796678D01*
X-30187802Y48067514D01*
X-30187803Y48067515D01*
X-30470411Y48132037D01*
X-30509422Y48159720D01*
X-30519000Y48192969D01*
X-30519000Y48431458D01*
X-30500694Y48475652D01*
X-30477877Y48490189D01*
X-30372124Y48528680D01*
X-30326839Y48566678D01*
X-26900952Y48566678D01*
X-26880897Y48452939D01*
X-26823150Y48352918D01*
X-26734676Y48278680D01*
X-26657026Y48250417D01*
X-26626147Y48239178D01*
X-26626144Y48239178D01*
X-26510656Y48239178D01*
X-26510653Y48239178D01*
X-26402124Y48278680D01*
X-26313650Y48352918D01*
X-26255903Y48452939D01*
X-26235848Y48566678D01*
X-26255903Y48680417D01*
X-26313650Y48780438D01*
X-26313651Y48780439D01*
X-26344406Y48806246D01*
X-26366493Y48848676D01*
X-26352108Y48894298D01*
X-26325608Y48912854D01*
X-26299122Y48922494D01*
X-26282126Y48928679D01*
X-26282126Y48928680D01*
X-26282124Y48928680D01*
X-26193650Y49002918D01*
X-26135903Y49102939D01*
X-26115848Y49216678D01*
X-26135903Y49330417D01*
X-26193650Y49430438D01*
X-26233123Y49463560D01*
X-26282125Y49504677D01*
X-26390651Y49544178D01*
X-26390653Y49544178D01*
X-26506147Y49544178D01*
X-26506150Y49544178D01*
X-26614676Y49504677D01*
X-26703150Y49430439D01*
X-26760897Y49330418D01*
X-26760897Y49330417D01*
X-26780952Y49216678D01*
X-26760897Y49102939D01*
X-26703150Y49002918D01*
X-26672395Y48977112D01*
X-26650308Y48934681D01*
X-26664692Y48889059D01*
X-26691193Y48870503D01*
X-26734676Y48854677D01*
X-26823150Y48780439D01*
X-26880897Y48680418D01*
X-26900952Y48566678D01*
X-30326839Y48566678D01*
X-30283650Y48602918D01*
X-30225903Y48702939D01*
X-30205848Y48816678D01*
X-30225903Y48930417D01*
X-30283650Y49030438D01*
X-30294067Y49039179D01*
X-30368573Y49101697D01*
X-30390661Y49144128D01*
X-30376277Y49189749D01*
X-30333846Y49211837D01*
X-30307023Y49208306D01*
X-30288400Y49201527D01*
X-30288397Y49201527D01*
X-30172909Y49201527D01*
X-30172906Y49201527D01*
X-30064377Y49241029D01*
X-29975903Y49315267D01*
X-29946221Y49366678D01*
X-28690952Y49366678D01*
X-28670897Y49252939D01*
X-28613150Y49152918D01*
X-28524676Y49078680D01*
X-28416147Y49039178D01*
X-28416144Y49039178D01*
X-28300656Y49039178D01*
X-28300653Y49039178D01*
X-28192124Y49078680D01*
X-28103650Y49152918D01*
X-28045903Y49252939D01*
X-28025848Y49366678D01*
X-28045903Y49480417D01*
X-28103650Y49580438D01*
X-28151321Y49620439D01*
X-28192125Y49654677D01*
X-28300651Y49694178D01*
X-28300653Y49694178D01*
X-28416147Y49694178D01*
X-28416150Y49694178D01*
X-28524676Y49654677D01*
X-28613150Y49580439D01*
X-28670897Y49480418D01*
X-28670897Y49480417D01*
X-28690952Y49366678D01*
X-29946221Y49366678D01*
X-29918156Y49415288D01*
X-29898101Y49529027D01*
X-29918156Y49642766D01*
X-29975903Y49742787D01*
X-29979113Y49745481D01*
X-30064378Y49817026D01*
X-30172904Y49856527D01*
X-30172906Y49856527D01*
X-30288400Y49856527D01*
X-30288403Y49856527D01*
X-30396929Y49817026D01*
X-30485403Y49742788D01*
X-30543150Y49642767D01*
X-30563205Y49529027D01*
X-30543150Y49415288D01*
X-30485403Y49315267D01*
X-30400481Y49244009D01*
X-30378393Y49201578D01*
X-30392777Y49155957D01*
X-30435208Y49133869D01*
X-30462031Y49137400D01*
X-30480651Y49144178D01*
X-30480653Y49144178D01*
X-30596147Y49144178D01*
X-30596150Y49144178D01*
X-30704676Y49104677D01*
X-30793150Y49030439D01*
X-30850897Y48930418D01*
X-30870952Y48816678D01*
X-30866563Y48791783D01*
X-30870371Y48757015D01*
X-30901000Y48683070D01*
X-30901000Y48308723D01*
X-30919306Y48264529D01*
X-30963500Y48246223D01*
X-30977412Y48247791D01*
X-31062530Y48267225D01*
X-31101541Y48294909D01*
X-31102720Y48296866D01*
X-31133650Y48350438D01*
X-31136606Y48352918D01*
X-31222125Y48424677D01*
X-31330651Y48464178D01*
X-31330653Y48464178D01*
X-31446147Y48464178D01*
X-31446150Y48464178D01*
X-31554676Y48424677D01*
X-31573122Y48409199D01*
X-31618744Y48394816D01*
X-31627206Y48396146D01*
X-32377803Y48567515D01*
X-32632076Y47219341D01*
X-32639366Y47199676D01*
X-32690897Y47110420D01*
X-32710952Y46996678D01*
X-32695112Y46906841D01*
X-32695246Y46884405D01*
X-33051208Y44997066D01*
X-33077387Y44957031D01*
X-33124209Y44947233D01*
X-33134001Y44949919D01*
X-33200651Y44974178D01*
X-33200653Y44974178D01*
X-33316147Y44974178D01*
X-33316150Y44974178D01*
X-33424676Y44934677D01*
X-33513150Y44860439D01*
X-33570897Y44760418D01*
X-33570897Y44760417D01*
X-33590952Y44646678D01*
X-33570897Y44532939D01*
X-33513150Y44432918D01*
X-33424676Y44358680D01*
X-33316147Y44319178D01*
X-33316144Y44319178D01*
X-33254450Y44319178D01*
X-33210256Y44300872D01*
X-33191950Y44256678D01*
X-33193033Y44245094D01*
X-33324028Y43550547D01*
X-33350207Y43510512D01*
X-33397029Y43500714D01*
X-33407390Y43503610D01*
X-33497804Y43537515D01*
X-37364799Y43547354D01*
X-37408946Y43565772D01*
X-37427140Y43610013D01*
X-37427137Y43610514D01*
X-37426009Y43717331D01*
X-37420566Y44232745D01*
X-37401795Y44276740D01*
X-37357410Y44294579D01*
X-37331657Y44288727D01*
X-37196196Y44225560D01*
X-37196194Y44225560D01*
X-37196193Y44225559D01*
X-36981476Y44168025D01*
X-36981470Y44168024D01*
X-36981463Y44168022D01*
X-36848586Y44156397D01*
X-36760002Y44148647D01*
X-36760000Y44148647D01*
X-36759998Y44148647D01*
X-36686179Y44155106D01*
X-36538537Y44168022D01*
X-36538528Y44168025D01*
X-36538525Y44168025D01*
X-36323808Y44225559D01*
X-36323809Y44225559D01*
X-36323804Y44225560D01*
X-36122323Y44319512D01*
X-35940219Y44447023D01*
X-35783023Y44604219D01*
X-35655512Y44786323D01*
X-35561560Y44987804D01*
X-35535076Y45086644D01*
X-35504025Y45202525D01*
X-35504025Y45202528D01*
X-35504022Y45202537D01*
X-35486529Y45402492D01*
X-35485607Y45413031D01*
X-35192552Y45413031D01*
X-35172497Y45299292D01*
X-35114750Y45199271D01*
X-35026276Y45125033D01*
X-34917747Y45085531D01*
X-34917744Y45085531D01*
X-34802256Y45085531D01*
X-34802253Y45085531D01*
X-34693724Y45125033D01*
X-34605250Y45199271D01*
X-34547503Y45299292D01*
X-34527448Y45413031D01*
X-34527449Y45413033D01*
X-34527448Y45413034D01*
X-34540449Y45486766D01*
X-34547503Y45526770D01*
X-34547504Y45526771D01*
X-34548446Y45532116D01*
X-34543913Y45552565D01*
X-34557354Y45555544D01*
X-34575632Y45575491D01*
X-34586414Y45594166D01*
X-34605250Y45626791D01*
X-34625644Y45643904D01*
X-34693725Y45701030D01*
X-34802251Y45740531D01*
X-34802253Y45740531D01*
X-34917747Y45740531D01*
X-34917750Y45740531D01*
X-35026276Y45701030D01*
X-35114750Y45626792D01*
X-35172497Y45526771D01*
X-35184119Y45460858D01*
X-35192552Y45413031D01*
X-35485607Y45413031D01*
X-35484647Y45423998D01*
X-35484647Y45424003D01*
X-35501584Y45617594D01*
X-35504022Y45645463D01*
X-35517209Y45694676D01*
X-35561559Y45860193D01*
X-35561560Y45860195D01*
X-35565517Y45868680D01*
X-35655512Y46061676D01*
X-35697889Y46122197D01*
X-35783024Y46243783D01*
X-35940218Y46400977D01*
X-36067984Y46490439D01*
X-36122323Y46528488D01*
X-36122325Y46528489D01*
X-36122323Y46528489D01*
X-36323806Y46622441D01*
X-36323808Y46622442D01*
X-36538525Y46679976D01*
X-36538541Y46679979D01*
X-36759998Y46699353D01*
X-36760002Y46699353D01*
X-36981460Y46679979D01*
X-36981476Y46679976D01*
X-37196198Y46622440D01*
X-37196200Y46622440D01*
X-37306358Y46571072D01*
X-37354148Y46568985D01*
X-37389415Y46601303D01*
X-37395268Y46628373D01*
X-37384180Y47678278D01*
X-36200956Y47678278D01*
X-36180901Y47564539D01*
X-36123154Y47464518D01*
X-36034680Y47390280D01*
X-35954255Y47361007D01*
X-35926151Y47350778D01*
X-35926148Y47350778D01*
X-35810660Y47350778D01*
X-35810657Y47350778D01*
X-35702128Y47390280D01*
X-35613654Y47464518D01*
X-35555907Y47564539D01*
X-35535852Y47678278D01*
X-35555907Y47792017D01*
X-35613654Y47892038D01*
X-35635558Y47910418D01*
X-35702129Y47966277D01*
X-35810655Y48005778D01*
X-35810657Y48005778D01*
X-35926151Y48005778D01*
X-35926154Y48005778D01*
X-36034680Y47966277D01*
X-36123154Y47892039D01*
X-36180901Y47792018D01*
X-36200956Y47678278D01*
X-37384180Y47678278D01*
X-37379762Y48096678D01*
X-34630952Y48096678D01*
X-34610897Y47982939D01*
X-34553150Y47882918D01*
X-34464676Y47808680D01*
X-34393812Y47782887D01*
X-34358544Y47750570D01*
X-34356457Y47702780D01*
X-34361061Y47692906D01*
X-34410125Y47607925D01*
X-34417775Y47564539D01*
X-34430180Y47494185D01*
X-34410125Y47380446D01*
X-34352378Y47280425D01*
X-34288823Y47227096D01*
X-34287416Y47225916D01*
X-34265328Y47183486D01*
X-34279712Y47137864D01*
X-34287415Y47130161D01*
X-34334750Y47090442D01*
X-34392497Y46990421D01*
X-34406091Y46913326D01*
X-34412552Y46876681D01*
X-34392497Y46762942D01*
X-34334750Y46662921D01*
X-34301872Y46635333D01*
X-34289030Y46624558D01*
X-34266942Y46582128D01*
X-34281326Y46536506D01*
X-34289030Y46528802D01*
X-34334750Y46490439D01*
X-34392497Y46390418D01*
X-34402709Y46332501D01*
X-34412552Y46276678D01*
X-34392497Y46162939D01*
X-34363432Y46112596D01*
X-34339547Y46071227D01*
X-34333304Y46023801D01*
X-34353500Y45992099D01*
X-34403150Y45950439D01*
X-34460897Y45850418D01*
X-34480076Y45741644D01*
X-34480952Y45736678D01*
X-34460897Y45622939D01*
X-34460897Y45622938D01*
X-34459954Y45617594D01*
X-34464488Y45597146D01*
X-34451048Y45594166D01*
X-34432770Y45574219D01*
X-34403153Y45522922D01*
X-34403151Y45522919D01*
X-34403150Y45522918D01*
X-34362731Y45489003D01*
X-34314676Y45448680D01*
X-34246870Y45424000D01*
X-34206147Y45409178D01*
X-34206144Y45409178D01*
X-34090656Y45409178D01*
X-34090653Y45409178D01*
X-33982124Y45448680D01*
X-33893650Y45522918D01*
X-33835903Y45622939D01*
X-33815848Y45736678D01*
X-33835903Y45850417D01*
X-33835904Y45850419D01*
X-33835904Y45850420D01*
X-33888853Y45942129D01*
X-33895097Y45989555D01*
X-33874903Y46021256D01*
X-33825250Y46062918D01*
X-33767503Y46162939D01*
X-33747448Y46276678D01*
X-33767503Y46390417D01*
X-33825250Y46490438D01*
X-33870972Y46528803D01*
X-33893059Y46571232D01*
X-33878675Y46616854D01*
X-33870970Y46624558D01*
X-33858128Y46635333D01*
X-33825250Y46662921D01*
X-33767503Y46762942D01*
X-33747448Y46876681D01*
X-33767503Y46990420D01*
X-33825250Y47090441D01*
X-33890214Y47144952D01*
X-33912301Y47187382D01*
X-33897917Y47233003D01*
X-33890217Y47240704D01*
X-33842878Y47280425D01*
X-33785131Y47380446D01*
X-33765076Y47494185D01*
X-33785131Y47607924D01*
X-33842878Y47707945D01*
X-33931352Y47782183D01*
X-33931353Y47782184D01*
X-34002218Y47807977D01*
X-34037485Y47840295D01*
X-34039572Y47888085D01*
X-34034967Y47897958D01*
X-34027773Y47910417D01*
X-33985903Y47982939D01*
X-33965848Y48096678D01*
X-33985903Y48210417D01*
X-34043650Y48310438D01*
X-34132124Y48384676D01*
X-34132125Y48384677D01*
X-34240651Y48424178D01*
X-34240653Y48424178D01*
X-34356147Y48424178D01*
X-34356150Y48424178D01*
X-34464676Y48384677D01*
X-34553150Y48310439D01*
X-34610897Y48210418D01*
X-34630952Y48096678D01*
X-37379762Y48096678D01*
X-37375352Y48514272D01*
X-33384082Y48514272D01*
X-33364027Y48400533D01*
X-33306280Y48300512D01*
X-33217806Y48226274D01*
X-33109277Y48186772D01*
X-33109274Y48186772D01*
X-32993786Y48186772D01*
X-32993783Y48186772D01*
X-32885254Y48226274D01*
X-32796780Y48300512D01*
X-32739033Y48400533D01*
X-32718978Y48514272D01*
X-32739033Y48628011D01*
X-32796780Y48728032D01*
X-32839168Y48763600D01*
X-32885255Y48802271D01*
X-32993781Y48841772D01*
X-32993783Y48841772D01*
X-33109277Y48841772D01*
X-33109280Y48841772D01*
X-33217806Y48802271D01*
X-33306280Y48728033D01*
X-33364027Y48628012D01*
X-33364027Y48628011D01*
X-33384082Y48514272D01*
X-37375352Y48514272D01*
X-37365980Y49401728D01*
X-37363868Y49406678D01*
X-33521249Y49406678D01*
X-33501194Y49292939D01*
X-33443447Y49192918D01*
X-33354973Y49118680D01*
X-33246444Y49079178D01*
X-33246441Y49079178D01*
X-33130953Y49079178D01*
X-33130950Y49079178D01*
X-33022421Y49118680D01*
X-32933947Y49192918D01*
X-32876200Y49292939D01*
X-32856145Y49406678D01*
X-32876200Y49520417D01*
X-32933947Y49620438D01*
X-32935953Y49622121D01*
X-31508869Y49622121D01*
X-31488814Y49508382D01*
X-31431067Y49408361D01*
X-31342593Y49334123D01*
X-31290788Y49315267D01*
X-31234064Y49294621D01*
X-31234061Y49294621D01*
X-31118573Y49294621D01*
X-31118570Y49294621D01*
X-31010041Y49334123D01*
X-30921567Y49408361D01*
X-30863820Y49508382D01*
X-30843765Y49622121D01*
X-30863820Y49735860D01*
X-30921567Y49835881D01*
X-30929003Y49842121D01*
X-31010042Y49910120D01*
X-31118568Y49949621D01*
X-31118570Y49949621D01*
X-31234064Y49949621D01*
X-31234067Y49949621D01*
X-31342593Y49910120D01*
X-31431067Y49835882D01*
X-31488814Y49735861D01*
X-31508869Y49622121D01*
X-32935953Y49622121D01*
X-32960556Y49642766D01*
X-33022422Y49694677D01*
X-33130948Y49734178D01*
X-33136335Y49735127D01*
X-33176679Y49760829D01*
X-33187033Y49807531D01*
X-33161331Y49847875D01*
X-33135641Y49855976D01*
X-33136038Y49858229D01*
X-33130657Y49859178D01*
X-33130653Y49859178D01*
X-33022124Y49898680D01*
X-32933650Y49972918D01*
X-32875903Y50072939D01*
X-32856473Y50183135D01*
X-28682802Y50183135D01*
X-28662747Y50069396D01*
X-28605000Y49969375D01*
X-28516526Y49895137D01*
X-28407997Y49855635D01*
X-28407994Y49855635D01*
X-28292506Y49855635D01*
X-28292503Y49855635D01*
X-28183974Y49895137D01*
X-28095500Y49969375D01*
X-28037753Y50069396D01*
X-28027046Y50130119D01*
X-27811255Y50130119D01*
X-27791200Y50016380D01*
X-27733453Y49916359D01*
X-27644979Y49842121D01*
X-27549946Y49807531D01*
X-27536450Y49802619D01*
X-27536447Y49802619D01*
X-27420959Y49802619D01*
X-27420956Y49802619D01*
X-27312427Y49842121D01*
X-27243449Y49900000D01*
X-26310068Y49900000D01*
X-26290013Y49786261D01*
X-26232266Y49686240D01*
X-26143792Y49612002D01*
X-26035263Y49572500D01*
X-26035260Y49572500D01*
X-25919772Y49572500D01*
X-25919769Y49572500D01*
X-25811240Y49612002D01*
X-25722766Y49686240D01*
X-25665019Y49786261D01*
X-25644964Y49900000D01*
X-25665019Y50013739D01*
X-25722766Y50113760D01*
X-25811240Y50187998D01*
X-25811241Y50187999D01*
X-25919767Y50227500D01*
X-25919769Y50227500D01*
X-26035263Y50227500D01*
X-26035266Y50227500D01*
X-26143792Y50187999D01*
X-26232266Y50113761D01*
X-26290013Y50013740D01*
X-26298825Y49963761D01*
X-26310068Y49900000D01*
X-27243449Y49900000D01*
X-27223953Y49916359D01*
X-27166206Y50016380D01*
X-27146151Y50130119D01*
X-27166206Y50243858D01*
X-27223953Y50343879D01*
X-27267497Y50380417D01*
X-27312428Y50418118D01*
X-27420954Y50457619D01*
X-27420956Y50457619D01*
X-27536450Y50457619D01*
X-27536453Y50457619D01*
X-27644979Y50418118D01*
X-27733453Y50343880D01*
X-27791200Y50243859D01*
X-27811255Y50130119D01*
X-28027046Y50130119D01*
X-28017698Y50183135D01*
X-28037753Y50296874D01*
X-28095500Y50396895D01*
X-28099723Y50400439D01*
X-28183975Y50471134D01*
X-28292501Y50510635D01*
X-28292503Y50510635D01*
X-28407997Y50510635D01*
X-28408000Y50510635D01*
X-28516526Y50471134D01*
X-28605000Y50396896D01*
X-28662747Y50296875D01*
X-28662747Y50296874D01*
X-28682802Y50183135D01*
X-32856473Y50183135D01*
X-32855848Y50186678D01*
X-32875903Y50300417D01*
X-32933650Y50400438D01*
X-33017901Y50471133D01*
X-33022125Y50474677D01*
X-33130651Y50514178D01*
X-33130653Y50514178D01*
X-33246147Y50514178D01*
X-33246150Y50514178D01*
X-33354676Y50474677D01*
X-33443150Y50400439D01*
X-33500897Y50300418D01*
X-33500897Y50300417D01*
X-33520952Y50186678D01*
X-33500897Y50072939D01*
X-33443150Y49972918D01*
X-33354676Y49898680D01*
X-33246147Y49859178D01*
X-33246144Y49859178D01*
X-33240762Y49858229D01*
X-33200418Y49832527D01*
X-33190064Y49785825D01*
X-33215766Y49745481D01*
X-33241457Y49737381D01*
X-33241059Y49735127D01*
X-33246447Y49734178D01*
X-33354973Y49694677D01*
X-33443447Y49620439D01*
X-33501194Y49520418D01*
X-33503970Y49504676D01*
X-33521249Y49406678D01*
X-37363868Y49406678D01*
X-37347210Y49445721D01*
X-37302825Y49463560D01*
X-37282112Y49459795D01*
X-37179647Y49422500D01*
X-37179644Y49422500D01*
X-37064156Y49422500D01*
X-37064153Y49422500D01*
X-36955624Y49462002D01*
X-36867150Y49536240D01*
X-36809403Y49636261D01*
X-36789348Y49750000D01*
X-36809403Y49863739D01*
X-36867150Y49963760D01*
X-36955624Y50037998D01*
X-36955625Y50037999D01*
X-37064151Y50077500D01*
X-37064153Y50077500D01*
X-37179647Y50077500D01*
X-37179650Y50077500D01*
X-37274710Y50042900D01*
X-37322500Y50044987D01*
X-37354817Y50080255D01*
X-37358582Y50102285D01*
X-37353572Y50576678D01*
X-36200952Y50576678D01*
X-36180897Y50462939D01*
X-36123150Y50362918D01*
X-36034676Y50288680D01*
X-35926147Y50249178D01*
X-35926144Y50249178D01*
X-35810656Y50249178D01*
X-35810653Y50249178D01*
X-35762573Y50266678D01*
X-35180952Y50266678D01*
X-35160897Y50152939D01*
X-35103150Y50052918D01*
X-35014676Y49978680D01*
X-34934839Y49949621D01*
X-34906147Y49939178D01*
X-34906144Y49939178D01*
X-34790656Y49939178D01*
X-34790653Y49939178D01*
X-34682124Y49978680D01*
X-34593650Y50052918D01*
X-34535903Y50152939D01*
X-34515848Y50266678D01*
X-34535903Y50380417D01*
X-34593650Y50480438D01*
X-34629637Y50510635D01*
X-34682125Y50554677D01*
X-34790651Y50594178D01*
X-34790653Y50594178D01*
X-34906147Y50594178D01*
X-34906150Y50594178D01*
X-35014676Y50554677D01*
X-35103150Y50480439D01*
X-35160897Y50380418D01*
X-35180952Y50266678D01*
X-35762573Y50266678D01*
X-35702124Y50288680D01*
X-35613650Y50362918D01*
X-35555903Y50462939D01*
X-35535848Y50576678D01*
X-35555903Y50690417D01*
X-35613650Y50790438D01*
X-35702124Y50864676D01*
X-35702125Y50864677D01*
X-35810651Y50904178D01*
X-35810653Y50904178D01*
X-35926147Y50904178D01*
X-35926150Y50904178D01*
X-36034676Y50864677D01*
X-36123150Y50790439D01*
X-36180897Y50690418D01*
X-36180897Y50690417D01*
X-36200952Y50576678D01*
X-37353572Y50576678D01*
X-37325060Y53276678D01*
X-35710952Y53276678D01*
X-35690897Y53162939D01*
X-35633150Y53062918D01*
X-35544676Y52988680D01*
X-35436147Y52949178D01*
X-35436144Y52949178D01*
X-35320656Y52949178D01*
X-35320653Y52949178D01*
X-35212124Y52988680D01*
X-35123650Y53062918D01*
X-35065903Y53162939D01*
X-35045848Y53276678D01*
X-35065903Y53390417D01*
X-35123650Y53490438D01*
X-35212124Y53564676D01*
X-35212125Y53564677D01*
X-35320651Y53604178D01*
X-35320653Y53604178D01*
X-35436147Y53604178D01*
X-35436150Y53604178D01*
X-35544676Y53564677D01*
X-35633150Y53490439D01*
X-35690897Y53390418D01*
X-35698395Y53347893D01*
X-35710952Y53276678D01*
X-37325060Y53276678D01*
X-37320695Y53690000D01*
X-36572552Y53690000D01*
X-36552497Y53576261D01*
X-36494750Y53476240D01*
X-36406276Y53402002D01*
X-36297747Y53362500D01*
X-36297744Y53362500D01*
X-36182256Y53362500D01*
X-36182253Y53362500D01*
X-36073724Y53402002D01*
X-35985250Y53476240D01*
X-35927503Y53576261D01*
X-35907448Y53690000D01*
X-35927503Y53803739D01*
X-35940747Y53826678D01*
X-33760952Y53826678D01*
X-33740897Y53712939D01*
X-33683150Y53612918D01*
X-33594676Y53538680D01*
X-33486147Y53499178D01*
X-33486144Y53499178D01*
X-33370656Y53499178D01*
X-33370653Y53499178D01*
X-33262124Y53538680D01*
X-33173650Y53612918D01*
X-33137581Y53675392D01*
X-31116306Y53675392D01*
X-31096251Y53561653D01*
X-31038504Y53461632D01*
X-30950030Y53387394D01*
X-30881636Y53362500D01*
X-30841501Y53347892D01*
X-30841498Y53347892D01*
X-30726010Y53347892D01*
X-30726007Y53347892D01*
X-30617478Y53387394D01*
X-30570661Y53426678D01*
X-29640952Y53426678D01*
X-29620897Y53312939D01*
X-29563150Y53212918D01*
X-29474676Y53138680D01*
X-29366147Y53099178D01*
X-29366144Y53099178D01*
X-29283837Y53099178D01*
X-29239643Y53080872D01*
X-29221337Y53036678D01*
X-29222286Y53025827D01*
X-29230952Y52976678D01*
X-29210897Y52862939D01*
X-29153150Y52762918D01*
X-29064676Y52688680D01*
X-28956147Y52649178D01*
X-28956144Y52649178D01*
X-28850424Y52649178D01*
X-28806230Y52630872D01*
X-28787924Y52586678D01*
X-28788246Y52583000D01*
X-28788246Y52579387D01*
X-28788246Y52579386D01*
X-28788246Y52579384D01*
X-28768191Y52465645D01*
X-28710444Y52365624D01*
X-28621970Y52291386D01*
X-28513441Y52251884D01*
X-28513438Y52251884D01*
X-28392833Y52251884D01*
X-28348639Y52233578D01*
X-28330333Y52189384D01*
X-28331282Y52178538D01*
X-28343952Y52106678D01*
X-28323897Y51992939D01*
X-28266150Y51892918D01*
X-28177676Y51818680D01*
X-28069147Y51779178D01*
X-28069144Y51779178D01*
X-27953656Y51779178D01*
X-27953653Y51779178D01*
X-27845124Y51818680D01*
X-27756650Y51892918D01*
X-27698903Y51992939D01*
X-27678848Y52106678D01*
X-27698903Y52220417D01*
X-27756650Y52320438D01*
X-27845124Y52394676D01*
X-27845125Y52394677D01*
X-27953651Y52434178D01*
X-27953653Y52434178D01*
X-28069147Y52434178D01*
X-28074261Y52434178D01*
X-28118455Y52452484D01*
X-28136761Y52496678D01*
X-28135813Y52507525D01*
X-28123142Y52579384D01*
X-28143197Y52693123D01*
X-28200944Y52793144D01*
X-28289418Y52867382D01*
X-28289419Y52867383D01*
X-28397945Y52906884D01*
X-28397947Y52906884D01*
X-28503670Y52906884D01*
X-28547864Y52925190D01*
X-28566170Y52969384D01*
X-28565848Y52973063D01*
X-28565848Y52976676D01*
X-28565848Y52976678D01*
X-28585903Y53090417D01*
X-28643650Y53190438D01*
X-28732124Y53264676D01*
X-28732125Y53264677D01*
X-28840651Y53304178D01*
X-28840653Y53304178D01*
X-28922963Y53304178D01*
X-28967157Y53322484D01*
X-28985463Y53366678D01*
X-28984514Y53377531D01*
X-28982242Y53390418D01*
X-28975848Y53426678D01*
X-28995903Y53540417D01*
X-29053650Y53640438D01*
X-29142124Y53714676D01*
X-29142125Y53714677D01*
X-29250651Y53754178D01*
X-29250653Y53754178D01*
X-29366147Y53754178D01*
X-29366150Y53754178D01*
X-29474676Y53714677D01*
X-29563150Y53640439D01*
X-29620897Y53540418D01*
X-29629709Y53490439D01*
X-29640952Y53426678D01*
X-30570661Y53426678D01*
X-30529004Y53461632D01*
X-30471257Y53561653D01*
X-30451202Y53675392D01*
X-30471257Y53789131D01*
X-30529004Y53889152D01*
X-30530511Y53890417D01*
X-30617479Y53963391D01*
X-30726005Y54002892D01*
X-30726007Y54002892D01*
X-30841501Y54002892D01*
X-30841504Y54002892D01*
X-30950030Y53963391D01*
X-31038504Y53889153D01*
X-31096251Y53789132D01*
X-31116306Y53675392D01*
X-33137581Y53675392D01*
X-33115903Y53712939D01*
X-33095848Y53826678D01*
X-33115903Y53940417D01*
X-33162819Y54021678D01*
X-27915952Y54021678D01*
X-27895897Y53907939D01*
X-27838150Y53807918D01*
X-27749676Y53733680D01*
X-27641147Y53694178D01*
X-27641144Y53694178D01*
X-27525656Y53694178D01*
X-27525653Y53694178D01*
X-27417124Y53733680D01*
X-27365881Y53776678D01*
X-26782552Y53776678D01*
X-26762497Y53662939D01*
X-26704750Y53562918D01*
X-26616276Y53488680D01*
X-26541964Y53461632D01*
X-26507747Y53449178D01*
X-26507744Y53449178D01*
X-26392256Y53449178D01*
X-26392253Y53449178D01*
X-26283724Y53488680D01*
X-26195250Y53562918D01*
X-26137503Y53662939D01*
X-26117448Y53776678D01*
X-26137503Y53890417D01*
X-26195250Y53990438D01*
X-26232480Y54021678D01*
X-26283725Y54064677D01*
X-26392251Y54104178D01*
X-26392253Y54104178D01*
X-26507747Y54104178D01*
X-26507750Y54104178D01*
X-26616276Y54064677D01*
X-26704750Y53990439D01*
X-26762497Y53890418D01*
X-26782552Y53776678D01*
X-27365881Y53776678D01*
X-27328650Y53807918D01*
X-27270903Y53907939D01*
X-27250848Y54021678D01*
X-27270903Y54135417D01*
X-27316618Y54214598D01*
X-27322861Y54262024D01*
X-27293741Y54299975D01*
X-27283866Y54304579D01*
X-27245126Y54318679D01*
X-27245126Y54318680D01*
X-27245124Y54318680D01*
X-27156650Y54392918D01*
X-27098903Y54492939D01*
X-27078848Y54606678D01*
X-27098903Y54720417D01*
X-27156650Y54820438D01*
X-27168542Y54830417D01*
X-27245125Y54894677D01*
X-27353651Y54934178D01*
X-27353653Y54934178D01*
X-27469147Y54934178D01*
X-27469150Y54934178D01*
X-27577676Y54894677D01*
X-27666150Y54820439D01*
X-27723897Y54720418D01*
X-27743952Y54606678D01*
X-27723897Y54492939D01*
X-27678183Y54413759D01*
X-27671940Y54366332D01*
X-27701060Y54328382D01*
X-27710933Y54323778D01*
X-27749676Y54309677D01*
X-27838150Y54235439D01*
X-27895897Y54135418D01*
X-27906980Y54072564D01*
X-27915952Y54021678D01*
X-33162819Y54021678D01*
X-33173650Y54040438D01*
X-33211936Y54072564D01*
X-33262125Y54114677D01*
X-33370651Y54154178D01*
X-33370653Y54154178D01*
X-33486147Y54154178D01*
X-33486150Y54154178D01*
X-33594676Y54114677D01*
X-33683150Y54040439D01*
X-33740897Y53940418D01*
X-33740897Y53940417D01*
X-33760952Y53826678D01*
X-35940747Y53826678D01*
X-35985250Y53903760D01*
X-36028937Y53940418D01*
X-36073725Y53977999D01*
X-36182251Y54017500D01*
X-36182253Y54017500D01*
X-36297747Y54017500D01*
X-36297750Y54017500D01*
X-36406276Y53977999D01*
X-36494750Y53903761D01*
X-36552497Y53803740D01*
X-36552497Y53803739D01*
X-36572552Y53690000D01*
X-37320695Y53690000D01*
X-37317045Y54035609D01*
X-37226295Y54002578D01*
X-37226292Y54002578D01*
X-37110804Y54002578D01*
X-37110801Y54002578D01*
X-37002272Y54042080D01*
X-36913798Y54116318D01*
X-36856051Y54216339D01*
X-36835996Y54330078D01*
X-36856051Y54443817D01*
X-36913798Y54543838D01*
X-36941923Y54567438D01*
X-36990690Y54608358D01*
X-33332632Y54608358D01*
X-33312577Y54494619D01*
X-33254830Y54394598D01*
X-33166356Y54320360D01*
X-33137003Y54309676D01*
X-33057827Y54280858D01*
X-33057824Y54280858D01*
X-32942336Y54280858D01*
X-32942333Y54280858D01*
X-32833804Y54320360D01*
X-32794097Y54353678D01*
X-30631477Y54353678D01*
X-30611422Y54239939D01*
X-30553675Y54139918D01*
X-30465201Y54065680D01*
X-30395851Y54040438D01*
X-30356672Y54026178D01*
X-30356669Y54026178D01*
X-30241181Y54026178D01*
X-30241178Y54026178D01*
X-30132649Y54065680D01*
X-30044175Y54139918D01*
X-29986428Y54239939D01*
X-29966373Y54353678D01*
X-29986428Y54467417D01*
X-30044175Y54567438D01*
X-30104524Y54618077D01*
X-30132650Y54641677D01*
X-30241176Y54681178D01*
X-30241178Y54681178D01*
X-30356672Y54681178D01*
X-30356675Y54681178D01*
X-30465201Y54641677D01*
X-30553675Y54567439D01*
X-30611422Y54467418D01*
X-30631477Y54353678D01*
X-32794097Y54353678D01*
X-32745330Y54394598D01*
X-32687583Y54494619D01*
X-32667528Y54608358D01*
X-32686627Y54716678D01*
X-31643952Y54716678D01*
X-31623897Y54602939D01*
X-31566150Y54502918D01*
X-31477676Y54428680D01*
X-31379423Y54392918D01*
X-31369147Y54389178D01*
X-31369144Y54389178D01*
X-31253656Y54389178D01*
X-31253653Y54389178D01*
X-31145124Y54428680D01*
X-31056650Y54502918D01*
X-30998903Y54602939D01*
X-30978848Y54716678D01*
X-30998903Y54830417D01*
X-31056650Y54930438D01*
X-31078983Y54949178D01*
X-31145125Y55004677D01*
X-31253651Y55044178D01*
X-31253653Y55044178D01*
X-31369147Y55044178D01*
X-31369150Y55044178D01*
X-31477676Y55004677D01*
X-31566150Y54930439D01*
X-31623897Y54830418D01*
X-31643952Y54716678D01*
X-32686627Y54716678D01*
X-32687583Y54722097D01*
X-32745330Y54822118D01*
X-32755221Y54830418D01*
X-32833805Y54896357D01*
X-32942331Y54935858D01*
X-32942333Y54935858D01*
X-33057827Y54935858D01*
X-33057830Y54935858D01*
X-33166356Y54896357D01*
X-33254830Y54822119D01*
X-33312577Y54722098D01*
X-33332632Y54608358D01*
X-36990690Y54608358D01*
X-37002273Y54618077D01*
X-37110799Y54657578D01*
X-37110801Y54657578D01*
X-37226295Y54657578D01*
X-37226298Y54657578D01*
X-37310802Y54626821D01*
X-37299077Y55737066D01*
X-35981518Y55737066D01*
X-35961463Y55623327D01*
X-35903716Y55523306D01*
X-35815242Y55449068D01*
X-35706713Y55409566D01*
X-35706710Y55409566D01*
X-35591222Y55409566D01*
X-35591219Y55409566D01*
X-35482690Y55449068D01*
X-35394216Y55523306D01*
X-35336469Y55623327D01*
X-35327223Y55675765D01*
X-35301522Y55716108D01*
X-35254821Y55726462D01*
X-35244304Y55723644D01*
X-35192028Y55704617D01*
X-35192025Y55704617D01*
X-35076537Y55704617D01*
X-35076534Y55704617D01*
X-34968005Y55744119D01*
X-34883043Y55815410D01*
X-33409684Y55815410D01*
X-33389629Y55701671D01*
X-33331882Y55601650D01*
X-33243408Y55527412D01*
X-33134879Y55487910D01*
X-33134876Y55487910D01*
X-33019388Y55487910D01*
X-33019385Y55487910D01*
X-32910856Y55527412D01*
X-32822382Y55601650D01*
X-32764635Y55701671D01*
X-32744580Y55815410D01*
X-32764635Y55929149D01*
X-32822382Y56029170D01*
X-32841893Y56045542D01*
X-32910857Y56103409D01*
X-33019383Y56142910D01*
X-33019385Y56142910D01*
X-33134879Y56142910D01*
X-33134882Y56142910D01*
X-33243408Y56103409D01*
X-33331882Y56029171D01*
X-33389629Y55929150D01*
X-33394723Y55900259D01*
X-33409684Y55815410D01*
X-34883043Y55815410D01*
X-34879531Y55818357D01*
X-34821784Y55918378D01*
X-34801729Y56032117D01*
X-34821784Y56145856D01*
X-34879531Y56245877D01*
X-34937052Y56294143D01*
X-34968006Y56320116D01*
X-35076532Y56359617D01*
X-35076534Y56359617D01*
X-35192028Y56359617D01*
X-35192031Y56359617D01*
X-35300557Y56320116D01*
X-35389031Y56245878D01*
X-35446779Y56145855D01*
X-35456025Y56093419D01*
X-35481727Y56053076D01*
X-35528429Y56042723D01*
X-35538951Y56045542D01*
X-35591217Y56064566D01*
X-35591219Y56064566D01*
X-35706713Y56064566D01*
X-35706716Y56064566D01*
X-35815242Y56025065D01*
X-35903716Y55950827D01*
X-35961463Y55850806D01*
X-35967704Y55815410D01*
X-35981518Y55737066D01*
X-37299077Y55737066D01*
X-37289297Y56663178D01*
X-33700659Y56663178D01*
X-33680604Y56549439D01*
X-33622857Y56449418D01*
X-33534383Y56375180D01*
X-33425854Y56335678D01*
X-33425851Y56335678D01*
X-33310363Y56335678D01*
X-33310360Y56335678D01*
X-33201831Y56375180D01*
X-33113357Y56449418D01*
X-33078380Y56510000D01*
X-31052552Y56510000D01*
X-31032497Y56396261D01*
X-30974750Y56296240D01*
X-30886276Y56222002D01*
X-30777753Y56182502D01*
X-30777747Y56182500D01*
X-30777744Y56182500D01*
X-30662256Y56182500D01*
X-30662253Y56182500D01*
X-30623968Y56196435D01*
X-30576178Y56194350D01*
X-30543861Y56159082D01*
X-30541040Y56126852D01*
X-30552801Y56060149D01*
X-30578503Y56019805D01*
X-30625205Y56009451D01*
X-30635728Y56012271D01*
X-30640471Y56013998D01*
X-30640473Y56013998D01*
X-30755967Y56013998D01*
X-30755970Y56013998D01*
X-30864496Y55974497D01*
X-30952970Y55900259D01*
X-31010717Y55800238D01*
X-31013622Y55783761D01*
X-31030772Y55686498D01*
X-31010717Y55572759D01*
X-30952970Y55472738D01*
X-30864496Y55398500D01*
X-30755967Y55358998D01*
X-30755964Y55358998D01*
X-30660922Y55358998D01*
X-30616728Y55340692D01*
X-30598422Y55296498D01*
X-30599371Y55285648D01*
X-30600952Y55276681D01*
X-30600952Y55276680D01*
X-30600952Y55276678D01*
X-30580897Y55162939D01*
X-30523150Y55062918D01*
X-30434676Y54988680D01*
X-30326147Y54949178D01*
X-30326144Y54949178D01*
X-30210656Y54949178D01*
X-30210653Y54949178D01*
X-30102124Y54988680D01*
X-30064289Y55020427D01*
X-29518109Y55020427D01*
X-29498054Y54906688D01*
X-29440307Y54806667D01*
X-29351833Y54732429D01*
X-29243304Y54692927D01*
X-29243301Y54692927D01*
X-29127813Y54692927D01*
X-29127810Y54692927D01*
X-29019281Y54732429D01*
X-28930807Y54806667D01*
X-28873060Y54906688D01*
X-28853005Y55020427D01*
X-28873060Y55134166D01*
X-28930807Y55234187D01*
X-29016369Y55305982D01*
X-29019282Y55308426D01*
X-29127808Y55347927D01*
X-29127810Y55347927D01*
X-29243304Y55347927D01*
X-29243307Y55347927D01*
X-29351833Y55308426D01*
X-29440307Y55234188D01*
X-29498054Y55134167D01*
X-29507959Y55077993D01*
X-29518109Y55020427D01*
X-30064289Y55020427D01*
X-30013650Y55062918D01*
X-29955903Y55162939D01*
X-29935848Y55276678D01*
X-29955903Y55390417D01*
X-29972822Y55419721D01*
X-28751337Y55419721D01*
X-28731282Y55305982D01*
X-28673535Y55205961D01*
X-28615328Y55157120D01*
X-28593240Y55114690D01*
X-28601375Y55077993D01*
X-28646664Y54999550D01*
X-28666719Y54885808D01*
X-28646664Y54772069D01*
X-28588917Y54672048D01*
X-28500443Y54597810D01*
X-28434313Y54573740D01*
X-28391914Y54558308D01*
X-28391911Y54558308D01*
X-28276423Y54558308D01*
X-28276420Y54558308D01*
X-28167891Y54597810D01*
X-28079417Y54672048D01*
X-28021670Y54772069D01*
X-28001615Y54885808D01*
X-28021670Y54999547D01*
X-28079417Y55099568D01*
X-28117738Y55131723D01*
X-28137626Y55148411D01*
X-28159714Y55190842D01*
X-28151580Y55227536D01*
X-28121244Y55280078D01*
X-25135100Y55280078D01*
X-25115045Y55166339D01*
X-25057298Y55066318D01*
X-24968824Y54992080D01*
X-24860295Y54952578D01*
X-24860292Y54952578D01*
X-24744804Y54952578D01*
X-24744801Y54952578D01*
X-24636272Y54992080D01*
X-24547798Y55066318D01*
X-24490051Y55166339D01*
X-24469996Y55280078D01*
X-24490051Y55393817D01*
X-24547798Y55493838D01*
X-24636272Y55568076D01*
X-24636273Y55568077D01*
X-24744799Y55607578D01*
X-24744801Y55607578D01*
X-24860295Y55607578D01*
X-24860298Y55607578D01*
X-24968824Y55568077D01*
X-25057298Y55493839D01*
X-25115045Y55393818D01*
X-25130533Y55305981D01*
X-25135100Y55280078D01*
X-28121244Y55280078D01*
X-28106288Y55305982D01*
X-28086233Y55419721D01*
X-28106288Y55533460D01*
X-28164035Y55633481D01*
X-28223930Y55683739D01*
X-28252510Y55707720D01*
X-28361036Y55747221D01*
X-28361038Y55747221D01*
X-28476532Y55747221D01*
X-28476535Y55747221D01*
X-28585061Y55707720D01*
X-28673535Y55633482D01*
X-28731282Y55533461D01*
X-28751337Y55419721D01*
X-29972822Y55419721D01*
X-30013650Y55490438D01*
X-30102124Y55564676D01*
X-30102125Y55564677D01*
X-30142280Y55579292D01*
X-30177548Y55611609D01*
X-30179635Y55659399D01*
X-30147318Y55694667D01*
X-30142286Y55696752D01*
X-30062123Y55725929D01*
X-29973649Y55800167D01*
X-29915902Y55900188D01*
X-29895847Y56013927D01*
X-29915902Y56127666D01*
X-29946350Y56180404D01*
X-25484283Y56180404D01*
X-25464228Y56066665D01*
X-25406481Y55966644D01*
X-25318007Y55892406D01*
X-25223474Y55857998D01*
X-25209478Y55852904D01*
X-25209475Y55852904D01*
X-25093987Y55852904D01*
X-25093984Y55852904D01*
X-24985455Y55892406D01*
X-24896981Y55966644D01*
X-24839234Y56066665D01*
X-24819179Y56180404D01*
X-24839234Y56294143D01*
X-24896981Y56394164D01*
X-24962830Y56449418D01*
X-24985456Y56468403D01*
X-25093982Y56507904D01*
X-25093984Y56507904D01*
X-25209478Y56507904D01*
X-25209481Y56507904D01*
X-25318007Y56468403D01*
X-25406481Y56394165D01*
X-25464228Y56294144D01*
X-25484283Y56180404D01*
X-29946350Y56180404D01*
X-29973649Y56227687D01*
X-30062123Y56301925D01*
X-30062124Y56301926D01*
X-30170650Y56341427D01*
X-30170652Y56341427D01*
X-30286146Y56341427D01*
X-30286149Y56341427D01*
X-30324433Y56327492D01*
X-30372223Y56329579D01*
X-30404540Y56364847D01*
X-30407359Y56397076D01*
X-30387448Y56509998D01*
X-30387448Y56510000D01*
X-30407503Y56623739D01*
X-30465250Y56723760D01*
X-30487583Y56742500D01*
X-30553725Y56797999D01*
X-30662251Y56837500D01*
X-30662253Y56837500D01*
X-30777747Y56837500D01*
X-30777750Y56837500D01*
X-30886276Y56797999D01*
X-30974750Y56723761D01*
X-31032497Y56623740D01*
X-31052552Y56510000D01*
X-33078380Y56510000D01*
X-33055610Y56549439D01*
X-33035555Y56663178D01*
X-33055610Y56776917D01*
X-33113357Y56876938D01*
X-33187111Y56938825D01*
X-33201832Y56951177D01*
X-33310358Y56990678D01*
X-33310360Y56990678D01*
X-33425854Y56990678D01*
X-33425857Y56990678D01*
X-33534383Y56951177D01*
X-33622857Y56876939D01*
X-33680604Y56776918D01*
X-33686673Y56742500D01*
X-33700659Y56663178D01*
X-37289297Y56663178D01*
X-37285001Y57070000D01*
X-36992552Y57070000D01*
X-36972497Y56956261D01*
X-36914750Y56856240D01*
X-36826276Y56782002D01*
X-36717747Y56742500D01*
X-36717744Y56742500D01*
X-36602256Y56742500D01*
X-36602253Y56742500D01*
X-36493724Y56782002D01*
X-36405250Y56856240D01*
X-36347503Y56956261D01*
X-36327448Y57070000D01*
X-36333386Y57103678D01*
X-34622764Y57103678D01*
X-34602709Y56989939D01*
X-34544962Y56889918D01*
X-34456488Y56815680D01*
X-34349990Y56776917D01*
X-34347959Y56776178D01*
X-34347956Y56776178D01*
X-34232468Y56776178D01*
X-34232465Y56776178D01*
X-34123936Y56815680D01*
X-34035462Y56889918D01*
X-33977715Y56989939D01*
X-33957660Y57103678D01*
X-33977715Y57217417D01*
X-34005951Y57266324D01*
X-32096052Y57266324D01*
X-32075997Y57152585D01*
X-32018250Y57052564D01*
X-31929776Y56978326D01*
X-31821247Y56938824D01*
X-31821244Y56938824D01*
X-31705756Y56938824D01*
X-31705753Y56938824D01*
X-31597224Y56978326D01*
X-31508750Y57052564D01*
X-31451003Y57152585D01*
X-31430948Y57266324D01*
X-31451003Y57380063D01*
X-31508073Y57478911D01*
X-30980690Y57478911D01*
X-30960635Y57365172D01*
X-30902888Y57265151D01*
X-30814414Y57190913D01*
X-30709111Y57152585D01*
X-30705885Y57151411D01*
X-30705882Y57151411D01*
X-30590394Y57151411D01*
X-30590391Y57151411D01*
X-30481862Y57190913D01*
X-30393388Y57265151D01*
X-30335641Y57365172D01*
X-30315586Y57478911D01*
X-30335641Y57592650D01*
X-30393388Y57692671D01*
X-30481862Y57766909D01*
X-30481863Y57766910D01*
X-30590389Y57806411D01*
X-30590391Y57806411D01*
X-30705885Y57806411D01*
X-30705888Y57806411D01*
X-30814414Y57766910D01*
X-30902888Y57692672D01*
X-30960635Y57592651D01*
X-30980690Y57478911D01*
X-31508073Y57478911D01*
X-31508750Y57480084D01*
X-31597224Y57554322D01*
X-31597225Y57554323D01*
X-31705751Y57593824D01*
X-31705753Y57593824D01*
X-31821247Y57593824D01*
X-31821250Y57593824D01*
X-31929776Y57554323D01*
X-32018250Y57480085D01*
X-32075997Y57380064D01*
X-32079888Y57357998D01*
X-32096052Y57266324D01*
X-34005951Y57266324D01*
X-34035462Y57317438D01*
X-34092349Y57365172D01*
X-34123937Y57391677D01*
X-34232463Y57431178D01*
X-34232465Y57431178D01*
X-34347959Y57431178D01*
X-34347962Y57431178D01*
X-34456488Y57391677D01*
X-34544962Y57317439D01*
X-34602709Y57217418D01*
X-34622764Y57103678D01*
X-36333386Y57103678D01*
X-36347503Y57183739D01*
X-36405250Y57283760D01*
X-36493724Y57357998D01*
X-36493725Y57357999D01*
X-36602251Y57397500D01*
X-36602253Y57397500D01*
X-36717747Y57397500D01*
X-36717750Y57397500D01*
X-36826276Y57357999D01*
X-36914750Y57283761D01*
X-36972497Y57183740D01*
X-36972497Y57183739D01*
X-36992552Y57070000D01*
X-37285001Y57070000D01*
X-37273690Y58141122D01*
X-31481531Y58141122D01*
X-31461476Y58027383D01*
X-31403729Y57927362D01*
X-31315255Y57853124D01*
X-31206726Y57813622D01*
X-31206723Y57813622D01*
X-31091235Y57813622D01*
X-31091232Y57813622D01*
X-30982703Y57853124D01*
X-30894229Y57927362D01*
X-30836482Y58027383D01*
X-30816427Y58141122D01*
X-30836482Y58254861D01*
X-30894229Y58354882D01*
X-30982703Y58429120D01*
X-30982704Y58429121D01*
X-31091230Y58468622D01*
X-31091232Y58468622D01*
X-31206726Y58468622D01*
X-31206729Y58468622D01*
X-31315255Y58429121D01*
X-31403729Y58354883D01*
X-31461476Y58254862D01*
X-31467768Y58219179D01*
X-31481531Y58141122D01*
X-37273690Y58141122D01*
X-37269407Y58546678D01*
X-30473837Y58546678D01*
X-30453782Y58432939D01*
X-30396035Y58332918D01*
X-30307561Y58258680D01*
X-30247434Y58236795D01*
X-30199032Y58219178D01*
X-30199029Y58219178D01*
X-30151375Y58219178D01*
X-30107181Y58200872D01*
X-30088875Y58156678D01*
X-30090688Y58145953D01*
X-30089832Y58145802D01*
X-30090782Y58140419D01*
X-30090782Y58140417D01*
X-30110837Y58026678D01*
X-30090782Y57912939D01*
X-30033035Y57812918D01*
X-29944561Y57738680D01*
X-29836032Y57699178D01*
X-29836029Y57699178D01*
X-29720541Y57699178D01*
X-29720538Y57699178D01*
X-29612009Y57738680D01*
X-29523535Y57812918D01*
X-29522538Y57814645D01*
X-28311641Y57814645D01*
X-28291586Y57700906D01*
X-28233839Y57600885D01*
X-28145365Y57526647D01*
X-28036836Y57487145D01*
X-28036833Y57487145D01*
X-27921345Y57487145D01*
X-27921342Y57487145D01*
X-27812813Y57526647D01*
X-27724339Y57600885D01*
X-27678600Y57680108D01*
X-26969087Y57680108D01*
X-26949032Y57566369D01*
X-26891285Y57466348D01*
X-26873162Y57451141D01*
X-26851073Y57408712D01*
X-26865456Y57363090D01*
X-26866162Y57362384D01*
X-26869355Y57358579D01*
X-26927102Y57258558D01*
X-26947157Y57144818D01*
X-26927102Y57031079D01*
X-26869355Y56931058D01*
X-26780881Y56856820D01*
X-26672352Y56817318D01*
X-26672349Y56817318D01*
X-26556861Y56817318D01*
X-26556858Y56817318D01*
X-26448329Y56856820D01*
X-26359855Y56931058D01*
X-26302108Y57031079D01*
X-26282053Y57144818D01*
X-26302108Y57258557D01*
X-26351509Y57344123D01*
X-24658428Y57344123D01*
X-24638373Y57230384D01*
X-24580626Y57130363D01*
X-24492152Y57056125D01*
X-24383623Y57016623D01*
X-24383620Y57016623D01*
X-24268132Y57016623D01*
X-24268129Y57016623D01*
X-24159600Y57056125D01*
X-24071126Y57130363D01*
X-24013379Y57230384D01*
X-23993324Y57344123D01*
X-24013379Y57457862D01*
X-24071126Y57557883D01*
X-24159600Y57632121D01*
X-24159601Y57632122D01*
X-24268127Y57671623D01*
X-24268129Y57671623D01*
X-24383623Y57671623D01*
X-24383626Y57671623D01*
X-24492152Y57632122D01*
X-24580626Y57557884D01*
X-24638373Y57457863D01*
X-24658428Y57344123D01*
X-26351509Y57344123D01*
X-26359855Y57358578D01*
X-26365232Y57363090D01*
X-26377979Y57373786D01*
X-26400067Y57416217D01*
X-26385683Y57461838D01*
X-26384981Y57462540D01*
X-26381789Y57466345D01*
X-26381785Y57466348D01*
X-26324038Y57566369D01*
X-26303983Y57680108D01*
X-26324038Y57793847D01*
X-26381785Y57893868D01*
X-26470259Y57968106D01*
X-26470260Y57968107D01*
X-26578786Y58007608D01*
X-26578788Y58007608D01*
X-26694282Y58007608D01*
X-26694285Y58007608D01*
X-26802811Y57968107D01*
X-26891285Y57893869D01*
X-26949032Y57793848D01*
X-26966872Y57692672D01*
X-26969087Y57680108D01*
X-27678600Y57680108D01*
X-27666592Y57700906D01*
X-27646537Y57814645D01*
X-27666592Y57928384D01*
X-27724339Y58028405D01*
X-27812813Y58102643D01*
X-27812814Y58102644D01*
X-27921340Y58142145D01*
X-27921342Y58142145D01*
X-28036836Y58142145D01*
X-28036839Y58142145D01*
X-28145365Y58102644D01*
X-28233839Y58028406D01*
X-28291586Y57928385D01*
X-28291586Y57928384D01*
X-28311641Y57814645D01*
X-29522538Y57814645D01*
X-29465788Y57912939D01*
X-29445733Y58026678D01*
X-29465788Y58140417D01*
X-29523535Y58240438D01*
X-29612009Y58314676D01*
X-29612010Y58314677D01*
X-29720536Y58354178D01*
X-29720538Y58354178D01*
X-29768195Y58354178D01*
X-29812389Y58372484D01*
X-29830695Y58416678D01*
X-29828883Y58427404D01*
X-29829738Y58427554D01*
X-29828789Y58432938D01*
X-29828788Y58432939D01*
X-29811765Y58529485D01*
X-25201030Y58529485D01*
X-25180975Y58415746D01*
X-25123228Y58315725D01*
X-25034754Y58241487D01*
X-24926225Y58201985D01*
X-24926222Y58201985D01*
X-24810734Y58201985D01*
X-24810731Y58201985D01*
X-24702202Y58241487D01*
X-24613728Y58315725D01*
X-24555981Y58415746D01*
X-24535926Y58529485D01*
X-24555981Y58643224D01*
X-24613728Y58743245D01*
X-24700838Y58816339D01*
X-24702203Y58817484D01*
X-24810729Y58856985D01*
X-24810731Y58856985D01*
X-24926225Y58856985D01*
X-24926228Y58856985D01*
X-25034754Y58817484D01*
X-25123228Y58743246D01*
X-25180975Y58643225D01*
X-25180975Y58643224D01*
X-25201030Y58529485D01*
X-29811765Y58529485D01*
X-29808733Y58546678D01*
X-29828788Y58660417D01*
X-29886535Y58760438D01*
X-29953155Y58816339D01*
X-29975010Y58834677D01*
X-30083536Y58874178D01*
X-30083538Y58874178D01*
X-30199032Y58874178D01*
X-30199035Y58874178D01*
X-30307561Y58834677D01*
X-30396035Y58760439D01*
X-30453782Y58660418D01*
X-30473837Y58546678D01*
X-37269407Y58546678D01*
X-37259943Y59442904D01*
X-32079817Y59442904D01*
X-32059762Y59329165D01*
X-32002015Y59229144D01*
X-31913541Y59154906D01*
X-31883133Y59143838D01*
X-31805012Y59115404D01*
X-31805009Y59115404D01*
X-31689521Y59115404D01*
X-31689518Y59115404D01*
X-31580989Y59154906D01*
X-31492515Y59229144D01*
X-31434768Y59329165D01*
X-31424132Y59389485D01*
X-30209030Y59389485D01*
X-30188975Y59275746D01*
X-30131228Y59175725D01*
X-30042754Y59101487D01*
X-29940314Y59064201D01*
X-29934225Y59061985D01*
X-29934222Y59061985D01*
X-29818734Y59061985D01*
X-29818731Y59061985D01*
X-29710202Y59101487D01*
X-29621728Y59175725D01*
X-29563981Y59275746D01*
X-29546699Y59373759D01*
X-26955578Y59373759D01*
X-26935523Y59260020D01*
X-26877776Y59159999D01*
X-26789302Y59085761D01*
X-26730068Y59064201D01*
X-26680773Y59046259D01*
X-26680770Y59046259D01*
X-26565282Y59046259D01*
X-26565279Y59046259D01*
X-26456750Y59085761D01*
X-26368276Y59159999D01*
X-26351103Y59189744D01*
X-26313155Y59218864D01*
X-26265728Y59212621D01*
X-26242851Y59189745D01*
X-26242850Y59189743D01*
X-26236035Y59177940D01*
X-26147561Y59103702D01*
X-26039032Y59064200D01*
X-26039029Y59064200D01*
X-25923541Y59064200D01*
X-25923538Y59064200D01*
X-25815009Y59103702D01*
X-25726535Y59177940D01*
X-25668788Y59277961D01*
X-25648733Y59391700D01*
X-25661580Y59464562D01*
X-24780211Y59464562D01*
X-24760156Y59350823D01*
X-24702409Y59250802D01*
X-24613935Y59176564D01*
X-24505406Y59137062D01*
X-24505403Y59137062D01*
X-24389915Y59137062D01*
X-24389912Y59137062D01*
X-24281383Y59176564D01*
X-24192909Y59250802D01*
X-24135162Y59350823D01*
X-24115107Y59464562D01*
X-24135162Y59578301D01*
X-24192909Y59678322D01*
X-24281383Y59752560D01*
X-24281384Y59752561D01*
X-24389910Y59792062D01*
X-24389912Y59792062D01*
X-24505406Y59792062D01*
X-24505409Y59792062D01*
X-24613935Y59752561D01*
X-24702409Y59678323D01*
X-24760156Y59578302D01*
X-24765747Y59546595D01*
X-24780211Y59464562D01*
X-25661580Y59464562D01*
X-25668788Y59505439D01*
X-25726535Y59605460D01*
X-25793627Y59661757D01*
X-25815010Y59679699D01*
X-25923536Y59719200D01*
X-25923538Y59719200D01*
X-26039032Y59719200D01*
X-26039035Y59719200D01*
X-26147561Y59679699D01*
X-26236036Y59605460D01*
X-26253209Y59575715D01*
X-26291160Y59546595D01*
X-26338586Y59552840D01*
X-26361462Y59575717D01*
X-26362955Y59578302D01*
X-26368276Y59587519D01*
X-26450680Y59656664D01*
X-26456751Y59661758D01*
X-26565277Y59701259D01*
X-26565279Y59701259D01*
X-26680773Y59701259D01*
X-26680776Y59701259D01*
X-26789302Y59661758D01*
X-26877776Y59587520D01*
X-26935523Y59487499D01*
X-26955578Y59373759D01*
X-29546699Y59373759D01*
X-29543926Y59389485D01*
X-29563981Y59503224D01*
X-29621728Y59603245D01*
X-29691461Y59661758D01*
X-29710203Y59677484D01*
X-29818729Y59716985D01*
X-29818731Y59716985D01*
X-29934225Y59716985D01*
X-29934228Y59716985D01*
X-30042754Y59677484D01*
X-30131228Y59603246D01*
X-30188975Y59503225D01*
X-30209030Y59389485D01*
X-31424132Y59389485D01*
X-31414713Y59442904D01*
X-31434768Y59556643D01*
X-31492515Y59656664D01*
X-31498584Y59661757D01*
X-31580990Y59730903D01*
X-31689516Y59770404D01*
X-31689518Y59770404D01*
X-31805012Y59770404D01*
X-31805015Y59770404D01*
X-31913541Y59730903D01*
X-32002015Y59656665D01*
X-32059762Y59556644D01*
X-32079817Y59442904D01*
X-37259943Y59442904D01*
X-37254253Y59981680D01*
X-37235482Y60025674D01*
X-37191097Y60043513D01*
X-37151583Y60028894D01*
X-37107709Y59992080D01*
X-36999180Y59952578D01*
X-36999177Y59952578D01*
X-36883689Y59952578D01*
X-36883686Y59952578D01*
X-36775157Y59992080D01*
X-36686683Y60066318D01*
X-36654220Y60122546D01*
X-36616271Y60151666D01*
X-36568845Y60145423D01*
X-36545968Y60122546D01*
X-36496186Y60036321D01*
X-36496184Y60036319D01*
X-36496183Y60036318D01*
X-36407709Y59962080D01*
X-36355121Y59942939D01*
X-36299180Y59922578D01*
X-36299177Y59922578D01*
X-36183689Y59922578D01*
X-36183686Y59922578D01*
X-36075157Y59962080D01*
X-35986683Y60036318D01*
X-35974928Y60056678D01*
X-31499004Y60056678D01*
X-31478949Y59942939D01*
X-31421202Y59842918D01*
X-31332728Y59768680D01*
X-31228939Y59730903D01*
X-31224199Y59729178D01*
X-31224196Y59729178D01*
X-31108708Y59729178D01*
X-31108705Y59729178D01*
X-31000176Y59768680D01*
X-30911702Y59842918D01*
X-30853955Y59942939D01*
X-30836551Y60041642D01*
X-29553837Y60041642D01*
X-29533782Y59927903D01*
X-29476035Y59827882D01*
X-29387561Y59753644D01*
X-29320343Y59729178D01*
X-29279032Y59714142D01*
X-29279029Y59714142D01*
X-29163541Y59714142D01*
X-29163538Y59714142D01*
X-29055009Y59753644D01*
X-28966535Y59827882D01*
X-28908788Y59927903D01*
X-28888733Y60041642D01*
X-28908788Y60155381D01*
X-28966535Y60255402D01*
X-28984455Y60270439D01*
X-29055010Y60329641D01*
X-29163536Y60369142D01*
X-29163538Y60369142D01*
X-29279032Y60369142D01*
X-29279035Y60369142D01*
X-29387561Y60329641D01*
X-29476035Y60255403D01*
X-29533782Y60155382D01*
X-29553837Y60041642D01*
X-30836551Y60041642D01*
X-30833900Y60056678D01*
X-30853955Y60170417D01*
X-30911702Y60270438D01*
X-30923190Y60280078D01*
X-31000177Y60344677D01*
X-31108703Y60384178D01*
X-31108705Y60384178D01*
X-31224199Y60384178D01*
X-31224202Y60384178D01*
X-31332728Y60344677D01*
X-31421202Y60270439D01*
X-31478949Y60170418D01*
X-31499004Y60056678D01*
X-35974928Y60056678D01*
X-35928936Y60136339D01*
X-35908881Y60250078D01*
X-35928936Y60363817D01*
X-35986683Y60463838D01*
X-36056267Y60522226D01*
X-36075158Y60538077D01*
X-36183684Y60577578D01*
X-36183686Y60577578D01*
X-36299180Y60577578D01*
X-36299183Y60577578D01*
X-36407709Y60538077D01*
X-36496184Y60463838D01*
X-36496186Y60463835D01*
X-36528647Y60407611D01*
X-36566597Y60378491D01*
X-36614023Y60384735D01*
X-36636900Y60407611D01*
X-36641696Y60415918D01*
X-36686683Y60493838D01*
X-36701011Y60505861D01*
X-36775158Y60568077D01*
X-36883684Y60607578D01*
X-36883686Y60607578D01*
X-36999180Y60607578D01*
X-36999183Y60607578D01*
X-37107709Y60568077D01*
X-37145210Y60536610D01*
X-37190832Y60522226D01*
X-37233262Y60544314D01*
X-37247880Y60585145D01*
X-37247030Y60665676D01*
X-34064639Y60665676D01*
X-34044584Y60551937D01*
X-33986837Y60451916D01*
X-33898363Y60377678D01*
X-33807693Y60344676D01*
X-33789834Y60338176D01*
X-33789831Y60338176D01*
X-33674343Y60338176D01*
X-33674340Y60338176D01*
X-33565811Y60377678D01*
X-33477337Y60451916D01*
X-33471059Y60462790D01*
X-33433109Y60491911D01*
X-33385683Y60485668D01*
X-33376758Y60479419D01*
X-33292454Y60408680D01*
X-33225137Y60384178D01*
X-33183925Y60369178D01*
X-33183922Y60369178D01*
X-33068434Y60369178D01*
X-33068431Y60369178D01*
X-32959902Y60408680D01*
X-32871428Y60482918D01*
X-32813681Y60582939D01*
X-32793626Y60696678D01*
X-32794902Y60703916D01*
X-30856688Y60703916D01*
X-30836633Y60590177D01*
X-30778886Y60490156D01*
X-30690412Y60415918D01*
X-30585351Y60377678D01*
X-30581883Y60376416D01*
X-30581880Y60376416D01*
X-30466392Y60376416D01*
X-30466389Y60376416D01*
X-30357860Y60415918D01*
X-30269386Y60490156D01*
X-30211639Y60590177D01*
X-30191584Y60703916D01*
X-30211639Y60817655D01*
X-30269386Y60917676D01*
X-30337317Y60974677D01*
X-30357861Y60991915D01*
X-30466387Y61031416D01*
X-30466389Y61031416D01*
X-30581883Y61031416D01*
X-30581886Y61031416D01*
X-30690412Y60991915D01*
X-30778886Y60917677D01*
X-30836633Y60817656D01*
X-30856688Y60703916D01*
X-32794902Y60703916D01*
X-32813681Y60810417D01*
X-32871428Y60910438D01*
X-32947985Y60974677D01*
X-32959903Y60984677D01*
X-33068429Y61024178D01*
X-33068431Y61024178D01*
X-33183925Y61024178D01*
X-33183928Y61024178D01*
X-33292454Y60984677D01*
X-33380928Y60910439D01*
X-33380930Y60910436D01*
X-33387210Y60899560D01*
X-33425162Y60870442D01*
X-33472588Y60876690D01*
X-33481508Y60882936D01*
X-33565812Y60953675D01*
X-33674338Y60993176D01*
X-33674340Y60993176D01*
X-33789834Y60993176D01*
X-33789837Y60993176D01*
X-33898363Y60953675D01*
X-33986837Y60879437D01*
X-34044584Y60779416D01*
X-34064639Y60665676D01*
X-37247030Y60665676D01*
X-37238746Y61450078D01*
X-35563985Y61450078D01*
X-35543930Y61336339D01*
X-35486183Y61236318D01*
X-35397709Y61162080D01*
X-35317589Y61132918D01*
X-35289180Y61122578D01*
X-35289177Y61122578D01*
X-35173689Y61122578D01*
X-35173686Y61122578D01*
X-35065157Y61162080D01*
X-34976683Y61236318D01*
X-34918936Y61336339D01*
X-34904770Y61416678D01*
X-32145676Y61416678D01*
X-32125621Y61302939D01*
X-32067874Y61202918D01*
X-31979400Y61128680D01*
X-31899618Y61099641D01*
X-31870871Y61089178D01*
X-31870868Y61089178D01*
X-31755380Y61089178D01*
X-31755377Y61089178D01*
X-31646848Y61128680D01*
X-31558374Y61202918D01*
X-31500627Y61302939D01*
X-31480572Y61416678D01*
X-31483948Y61435827D01*
X-31473593Y61482528D01*
X-31433248Y61508229D01*
X-31422397Y61509178D01*
X-31392380Y61509178D01*
X-31392377Y61509178D01*
X-31283848Y61548680D01*
X-31195374Y61622918D01*
X-31137627Y61722939D01*
X-31117572Y61836678D01*
X-31123293Y61869124D01*
X-30031391Y61869124D01*
X-30011336Y61755385D01*
X-29953589Y61655364D01*
X-29865115Y61581126D01*
X-29808274Y61560437D01*
X-29756586Y61541624D01*
X-29756583Y61541624D01*
X-29641095Y61541624D01*
X-29641092Y61541624D01*
X-29532563Y61581126D01*
X-29444089Y61655364D01*
X-29395179Y61740078D01*
X-29233985Y61740078D01*
X-29213930Y61626339D01*
X-29156183Y61526318D01*
X-29067709Y61452080D01*
X-28970445Y61416678D01*
X-28959180Y61412578D01*
X-28959177Y61412578D01*
X-28843689Y61412578D01*
X-28843686Y61412578D01*
X-28735157Y61452080D01*
X-28646683Y61526318D01*
X-28588936Y61626339D01*
X-28568881Y61740078D01*
X-28588936Y61853817D01*
X-28646683Y61953838D01*
X-28692216Y61992045D01*
X-28735158Y62028077D01*
X-28843684Y62067578D01*
X-28843686Y62067578D01*
X-28959180Y62067578D01*
X-28959183Y62067578D01*
X-29067709Y62028077D01*
X-29156183Y61953839D01*
X-29213930Y61853818D01*
X-29233985Y61740078D01*
X-29395179Y61740078D01*
X-29386342Y61755385D01*
X-29366287Y61869124D01*
X-29386342Y61982863D01*
X-29444089Y62082884D01*
X-29468131Y62103058D01*
X-29532564Y62157123D01*
X-29641090Y62196624D01*
X-29641092Y62196624D01*
X-29756586Y62196624D01*
X-29756589Y62196624D01*
X-29865115Y62157123D01*
X-29953589Y62082885D01*
X-30011336Y61982864D01*
X-30031391Y61869124D01*
X-31123293Y61869124D01*
X-31137627Y61950417D01*
X-31195374Y62050438D01*
X-31258085Y62103059D01*
X-31283849Y62124677D01*
X-31392375Y62164178D01*
X-31392377Y62164178D01*
X-31507871Y62164178D01*
X-31507874Y62164178D01*
X-31616400Y62124677D01*
X-31704874Y62050439D01*
X-31762621Y61950418D01*
X-31762621Y61950417D01*
X-31775696Y61876261D01*
X-31782676Y61836677D01*
X-31779300Y61817529D01*
X-31789655Y61770828D01*
X-31830000Y61745127D01*
X-31840851Y61744178D01*
X-31870874Y61744178D01*
X-31979400Y61704677D01*
X-32067874Y61630439D01*
X-32125621Y61530418D01*
X-32145676Y61416678D01*
X-34904770Y61416678D01*
X-34898881Y61450078D01*
X-34918936Y61563817D01*
X-34976683Y61663838D01*
X-34977525Y61664545D01*
X-35065158Y61738077D01*
X-35173684Y61777578D01*
X-35173686Y61777578D01*
X-35289180Y61777578D01*
X-35289183Y61777578D01*
X-35397709Y61738077D01*
X-35486183Y61663839D01*
X-35543930Y61563818D01*
X-35563985Y61450078D01*
X-37238746Y61450078D01*
X-37226535Y62606420D01*
X-36728549Y62606420D01*
X-36708494Y62492681D01*
X-36650747Y62392660D01*
X-36562273Y62318422D01*
X-36508858Y62298980D01*
X-36453744Y62278920D01*
X-36453741Y62278920D01*
X-36377929Y62278920D01*
X-36333735Y62260614D01*
X-36315429Y62216420D01*
X-36316379Y62205567D01*
X-36327337Y62143423D01*
X-36327337Y62143422D01*
X-36327337Y62143420D01*
X-36320340Y62103740D01*
X-36307282Y62029681D01*
X-36249535Y61929660D01*
X-36161061Y61855422D01*
X-36109561Y61836677D01*
X-36052532Y61815920D01*
X-36052529Y61815920D01*
X-35937041Y61815920D01*
X-35937038Y61815920D01*
X-35828509Y61855422D01*
X-35740035Y61929660D01*
X-35682288Y62029681D01*
X-35677751Y62055410D01*
X-34068062Y62055410D01*
X-34048007Y61941671D01*
X-33990260Y61841650D01*
X-33901786Y61767412D01*
X-33821188Y61738076D01*
X-33793257Y61727910D01*
X-33793254Y61727910D01*
X-33677766Y61727910D01*
X-33677763Y61727910D01*
X-33569234Y61767412D01*
X-33480760Y61841650D01*
X-33423013Y61941671D01*
X-33402958Y62055410D01*
X-33423013Y62169149D01*
X-33480760Y62269170D01*
X-33492379Y62278920D01*
X-33569235Y62343409D01*
X-33677761Y62382910D01*
X-33677763Y62382910D01*
X-33793257Y62382910D01*
X-33793260Y62382910D01*
X-33901786Y62343409D01*
X-33990260Y62269171D01*
X-34048007Y62169150D01*
X-34068062Y62055410D01*
X-35677751Y62055410D01*
X-35662233Y62143420D01*
X-35682288Y62257159D01*
X-35740035Y62357180D01*
X-35828509Y62431418D01*
X-35828510Y62431419D01*
X-35937036Y62470920D01*
X-35937038Y62470920D01*
X-36012853Y62470920D01*
X-36057047Y62489226D01*
X-36075353Y62533420D01*
X-36074403Y62544273D01*
X-36063445Y62606418D01*
X-36063445Y62606420D01*
X-36068788Y62636722D01*
X-28503981Y62636722D01*
X-28483926Y62522983D01*
X-28426179Y62422962D01*
X-28337705Y62348724D01*
X-28254453Y62318422D01*
X-28229176Y62309222D01*
X-28229173Y62309222D01*
X-28223791Y62308273D01*
X-28224136Y62306317D01*
X-28186956Y62290916D01*
X-28168650Y62246722D01*
X-28183273Y62206547D01*
X-28186183Y62203081D01*
X-28243930Y62103059D01*
X-28263985Y61989319D01*
X-28243930Y61875580D01*
X-28186183Y61775559D01*
X-28148520Y61743956D01*
X-28126432Y61701525D01*
X-28140816Y61655904D01*
X-28148520Y61648200D01*
X-28206780Y61599315D01*
X-28264527Y61499294D01*
X-28271382Y61460417D01*
X-28284582Y61385554D01*
X-28264527Y61271815D01*
X-28206780Y61171794D01*
X-28118306Y61097556D01*
X-28009777Y61058054D01*
X-28009774Y61058054D01*
X-27894286Y61058054D01*
X-27894283Y61058054D01*
X-27785754Y61097556D01*
X-27697280Y61171794D01*
X-27677006Y61206910D01*
X-27639057Y61236029D01*
X-27591630Y61229786D01*
X-27568755Y61206911D01*
X-27526035Y61132918D01*
X-27437561Y61058680D01*
X-27329032Y61019178D01*
X-27329029Y61019178D01*
X-27213541Y61019178D01*
X-27213538Y61019178D01*
X-27105009Y61058680D01*
X-27016535Y61132918D01*
X-27006193Y61150832D01*
X-26968243Y61179952D01*
X-26920817Y61173709D01*
X-26897939Y61150832D01*
X-26868384Y61099641D01*
X-26819051Y61058246D01*
X-26796963Y61015815D01*
X-26811347Y60970194D01*
X-26819050Y60962491D01*
X-26881083Y60910439D01*
X-26938830Y60810418D01*
X-26958885Y60696678D01*
X-26938830Y60582939D01*
X-26881083Y60482918D01*
X-26792609Y60408680D01*
X-26725292Y60384178D01*
X-26684080Y60369178D01*
X-26684077Y60369178D01*
X-26568589Y60369178D01*
X-26568586Y60369178D01*
X-26460057Y60408680D01*
X-26371583Y60482918D01*
X-26358337Y60505862D01*
X-26320388Y60534983D01*
X-26272962Y60528740D01*
X-26250084Y60505863D01*
X-26231065Y60472922D01*
X-26231063Y60472919D01*
X-26231062Y60472918D01*
X-26194215Y60442000D01*
X-26142588Y60398680D01*
X-26046805Y60363817D01*
X-26034059Y60359178D01*
X-26034056Y60359178D01*
X-25918568Y60359178D01*
X-25918565Y60359178D01*
X-25810036Y60398680D01*
X-25721562Y60472918D01*
X-25663815Y60572939D01*
X-25643760Y60686678D01*
X-25663815Y60800417D01*
X-25721562Y60900438D01*
X-25733479Y60910438D01*
X-25810037Y60974677D01*
X-25918563Y61014178D01*
X-25918565Y61014178D01*
X-26034059Y61014178D01*
X-26034062Y61014178D01*
X-26142588Y60974677D01*
X-26231063Y60900438D01*
X-26231063Y60900437D01*
X-26244310Y60877493D01*
X-26282261Y60848373D01*
X-26329687Y60854618D01*
X-26352563Y60877494D01*
X-26371584Y60910439D01*
X-26420917Y60951834D01*
X-26443005Y60994265D01*
X-26428621Y61039886D01*
X-26420921Y61047587D01*
X-26358884Y61099641D01*
X-26301137Y61199662D01*
X-26281082Y61313401D01*
X-26301137Y61427140D01*
X-26358884Y61527161D01*
X-26362765Y61530418D01*
X-26447359Y61601400D01*
X-26555885Y61640901D01*
X-26555887Y61640901D01*
X-26671381Y61640901D01*
X-26671384Y61640901D01*
X-26779910Y61601400D01*
X-26868385Y61527161D01*
X-26868387Y61527158D01*
X-26878729Y61509246D01*
X-26916680Y61480127D01*
X-26964106Y61486373D01*
X-26986981Y61509248D01*
X-26996262Y61525323D01*
X-27016535Y61560438D01*
X-27099959Y61630439D01*
X-27105010Y61634677D01*
X-27213536Y61674178D01*
X-27213538Y61674178D01*
X-27329032Y61674178D01*
X-27329035Y61674178D01*
X-27437561Y61634677D01*
X-27526036Y61560438D01*
X-27526037Y61560437D01*
X-27546310Y61525323D01*
X-27584261Y61496203D01*
X-27631687Y61502448D01*
X-27654561Y61525322D01*
X-27697280Y61599314D01*
X-27734372Y61630438D01*
X-27734944Y61630918D01*
X-27757032Y61673349D01*
X-27742648Y61718970D01*
X-27734947Y61726671D01*
X-27676683Y61775559D01*
X-27618936Y61875580D01*
X-27598881Y61989319D01*
X-27599001Y61990000D01*
X-26307337Y61990000D01*
X-26287282Y61876261D01*
X-26229535Y61776240D01*
X-26141061Y61702002D01*
X-26038151Y61664545D01*
X-26032532Y61662500D01*
X-26032529Y61662500D01*
X-25917041Y61662500D01*
X-25917038Y61662500D01*
X-25911420Y61664545D01*
X-24634226Y61664545D01*
X-24614171Y61550806D01*
X-24556424Y61450785D01*
X-24467950Y61376547D01*
X-24398240Y61351174D01*
X-24359421Y61337045D01*
X-24359418Y61337045D01*
X-24243930Y61337045D01*
X-24243927Y61337045D01*
X-24135398Y61376547D01*
X-24046924Y61450785D01*
X-23989177Y61550806D01*
X-23969122Y61664545D01*
X-23989177Y61778284D01*
X-24046924Y61878305D01*
X-24132207Y61949866D01*
X-24135399Y61952544D01*
X-24243925Y61992045D01*
X-24243927Y61992045D01*
X-24359421Y61992045D01*
X-24359424Y61992045D01*
X-24467950Y61952544D01*
X-24556424Y61878306D01*
X-24614171Y61778285D01*
X-24634226Y61664545D01*
X-25911420Y61664545D01*
X-25808509Y61702002D01*
X-25720035Y61776240D01*
X-25662288Y61876261D01*
X-25642233Y61990000D01*
X-25662288Y62103739D01*
X-25720035Y62203760D01*
X-25722188Y62205567D01*
X-25808510Y62277999D01*
X-25917036Y62317500D01*
X-25917038Y62317500D01*
X-26032532Y62317500D01*
X-26032535Y62317500D01*
X-26141061Y62277999D01*
X-26229535Y62203761D01*
X-26287282Y62103740D01*
X-26307337Y61990000D01*
X-27599001Y61990000D01*
X-27618936Y62103058D01*
X-27676683Y62203079D01*
X-27677494Y62203760D01*
X-27765158Y62277318D01*
X-27873684Y62316819D01*
X-27879071Y62317768D01*
X-27878727Y62319725D01*
X-27915906Y62335125D01*
X-27934212Y62379319D01*
X-27919589Y62419494D01*
X-27916680Y62422961D01*
X-27911797Y62431418D01*
X-27858932Y62522983D01*
X-27838885Y62636678D01*
X-27603837Y62636678D01*
X-27583782Y62522939D01*
X-27526035Y62422918D01*
X-27437561Y62348680D01*
X-27352633Y62317768D01*
X-27329032Y62309178D01*
X-27329029Y62309178D01*
X-27213541Y62309178D01*
X-27213538Y62309178D01*
X-27105009Y62348680D01*
X-27016535Y62422918D01*
X-26958788Y62522939D01*
X-26938733Y62636678D01*
X-26958788Y62750417D01*
X-27016535Y62850438D01*
X-27016588Y62850483D01*
X-27105010Y62924677D01*
X-27213536Y62964178D01*
X-27213538Y62964178D01*
X-27329032Y62964178D01*
X-27329035Y62964178D01*
X-27437561Y62924677D01*
X-27526035Y62850439D01*
X-27583782Y62750418D01*
X-27603837Y62636678D01*
X-27838885Y62636678D01*
X-27838877Y62636722D01*
X-27858932Y62750461D01*
X-27916679Y62850482D01*
X-28005100Y62924676D01*
X-28005154Y62924721D01*
X-28113680Y62964222D01*
X-28113682Y62964222D01*
X-28229176Y62964222D01*
X-28229179Y62964222D01*
X-28337705Y62924721D01*
X-28426179Y62850483D01*
X-28483926Y62750462D01*
X-28503981Y62636722D01*
X-36068788Y62636722D01*
X-36083500Y62720159D01*
X-36141247Y62820180D01*
X-36142015Y62820825D01*
X-36229722Y62894419D01*
X-36338248Y62933920D01*
X-36338250Y62933920D01*
X-36453744Y62933920D01*
X-36453747Y62933920D01*
X-36562273Y62894419D01*
X-36650747Y62820181D01*
X-36708494Y62720160D01*
X-36728549Y62606420D01*
X-37226535Y62606420D01*
X-37219356Y63286303D01*
X-33449894Y63286303D01*
X-33429839Y63172564D01*
X-33372092Y63072543D01*
X-33283618Y62998305D01*
X-33189857Y62964178D01*
X-33175089Y62958803D01*
X-33175086Y62958803D01*
X-33059598Y62958803D01*
X-33059595Y62958803D01*
X-32951066Y62998305D01*
X-32862592Y63072543D01*
X-32841646Y63108823D01*
X-32260272Y63108823D01*
X-32240217Y62995084D01*
X-32182470Y62895063D01*
X-32093996Y62820825D01*
X-31985467Y62781323D01*
X-31985464Y62781323D01*
X-31869976Y62781323D01*
X-31869973Y62781323D01*
X-31761444Y62820825D01*
X-31672970Y62895063D01*
X-31615223Y62995084D01*
X-31609266Y63028871D01*
X-24871644Y63028871D01*
X-24851589Y62915132D01*
X-24793842Y62815111D01*
X-24705368Y62740873D01*
X-24648461Y62720160D01*
X-24596839Y62701371D01*
X-24596836Y62701371D01*
X-24481348Y62701371D01*
X-24481345Y62701371D01*
X-24372816Y62740873D01*
X-24284342Y62815111D01*
X-24226595Y62915132D01*
X-24206540Y63028871D01*
X-24226595Y63142610D01*
X-24284342Y63242631D01*
X-24336388Y63286303D01*
X-24372817Y63316870D01*
X-24481343Y63356371D01*
X-24481345Y63356371D01*
X-24596839Y63356371D01*
X-24596842Y63356371D01*
X-24705368Y63316870D01*
X-24793842Y63242632D01*
X-24851589Y63142611D01*
X-24871644Y63028871D01*
X-31609266Y63028871D01*
X-31595168Y63108823D01*
X-31615223Y63222562D01*
X-31672970Y63322583D01*
X-31761444Y63396821D01*
X-31761445Y63396822D01*
X-31869971Y63436323D01*
X-31869973Y63436323D01*
X-31985467Y63436323D01*
X-31985470Y63436323D01*
X-32093996Y63396822D01*
X-32182470Y63322584D01*
X-32240217Y63222563D01*
X-32240217Y63222562D01*
X-32260272Y63108823D01*
X-32841646Y63108823D01*
X-32804845Y63172564D01*
X-32784790Y63286303D01*
X-32804845Y63400042D01*
X-32862592Y63500063D01*
X-32951066Y63574301D01*
X-32951067Y63574302D01*
X-33059593Y63613803D01*
X-33059595Y63613803D01*
X-33175089Y63613803D01*
X-33175092Y63613803D01*
X-33283618Y63574302D01*
X-33372092Y63500064D01*
X-33429839Y63400043D01*
X-33449894Y63286303D01*
X-37219356Y63286303D01*
X-37212513Y63934290D01*
X-34756153Y63934290D01*
X-34736098Y63820551D01*
X-34678351Y63720530D01*
X-34589877Y63646292D01*
X-34481348Y63606790D01*
X-34481345Y63606790D01*
X-34365857Y63606790D01*
X-34365854Y63606790D01*
X-34257325Y63646292D01*
X-34168851Y63720530D01*
X-34111104Y63820551D01*
X-34093828Y63918528D01*
X-27616912Y63918528D01*
X-27596857Y63804789D01*
X-27539110Y63704768D01*
X-27450636Y63630530D01*
X-27342107Y63591028D01*
X-27342104Y63591028D01*
X-27226616Y63591028D01*
X-27226613Y63591028D01*
X-27118084Y63630530D01*
X-27029610Y63704768D01*
X-26971863Y63804789D01*
X-26951808Y63918528D01*
X-26971863Y64032267D01*
X-27029610Y64132288D01*
X-27048394Y64148050D01*
X-27118085Y64206527D01*
X-27226611Y64246028D01*
X-27226613Y64246028D01*
X-27342107Y64246028D01*
X-27342110Y64246028D01*
X-27450636Y64206527D01*
X-27539110Y64132289D01*
X-27596857Y64032268D01*
X-27596857Y64032267D01*
X-27616912Y63918528D01*
X-34093828Y63918528D01*
X-34091049Y63934290D01*
X-34111104Y64048029D01*
X-34168851Y64148050D01*
X-34238541Y64206527D01*
X-34257326Y64222289D01*
X-34365852Y64261790D01*
X-34365854Y64261790D01*
X-34481348Y64261790D01*
X-34481351Y64261790D01*
X-34589877Y64222289D01*
X-34678351Y64148051D01*
X-34736098Y64048030D01*
X-34736098Y64048029D01*
X-34756153Y63934290D01*
X-37212513Y63934290D01*
X-37202772Y64856678D01*
X-28753837Y64856678D01*
X-28733782Y64742939D01*
X-28676035Y64642918D01*
X-28587561Y64568680D01*
X-28489308Y64532918D01*
X-28479032Y64529178D01*
X-28479029Y64529178D01*
X-28363541Y64529178D01*
X-28363538Y64529178D01*
X-28255009Y64568680D01*
X-28195141Y64618915D01*
X-26946074Y64618915D01*
X-26926019Y64505176D01*
X-26868272Y64405155D01*
X-26779798Y64330917D01*
X-26718704Y64308680D01*
X-26671269Y64291415D01*
X-26671266Y64291415D01*
X-26555778Y64291415D01*
X-26555775Y64291415D01*
X-26447246Y64330917D01*
X-26358772Y64405155D01*
X-26352949Y64415240D01*
X-26315000Y64444360D01*
X-26267574Y64438117D01*
X-26244697Y64415241D01*
X-26226035Y64382918D01*
X-26137561Y64308680D01*
X-26029032Y64269178D01*
X-26029029Y64269178D01*
X-25913541Y64269178D01*
X-25913538Y64269178D01*
X-25805009Y64308680D01*
X-25734315Y64367999D01*
X-24682517Y64367999D01*
X-24662462Y64254260D01*
X-24604715Y64154239D01*
X-24516241Y64080001D01*
X-24407712Y64040499D01*
X-24407709Y64040499D01*
X-24292221Y64040499D01*
X-24292218Y64040499D01*
X-24183689Y64080001D01*
X-24095215Y64154239D01*
X-24037468Y64254260D01*
X-24017413Y64367999D01*
X-24037468Y64481738D01*
X-24095215Y64581759D01*
X-24183689Y64655997D01*
X-24183690Y64655998D01*
X-24292216Y64695499D01*
X-24292218Y64695499D01*
X-24407712Y64695499D01*
X-24407715Y64695499D01*
X-24516241Y64655998D01*
X-24604715Y64581760D01*
X-24662462Y64481739D01*
X-24679886Y64382918D01*
X-24682517Y64367999D01*
X-25734315Y64367999D01*
X-25716535Y64382918D01*
X-25658788Y64482939D01*
X-25638733Y64596678D01*
X-25658788Y64710417D01*
X-25679723Y64746678D01*
X-25413837Y64746678D01*
X-25393782Y64632939D01*
X-25336035Y64532918D01*
X-25247561Y64458680D01*
X-25139032Y64419178D01*
X-25139029Y64419178D01*
X-25023541Y64419178D01*
X-25023538Y64419178D01*
X-24915009Y64458680D01*
X-24826535Y64532918D01*
X-24768788Y64632939D01*
X-24748733Y64746678D01*
X-24768788Y64860417D01*
X-24826535Y64960438D01*
X-24838427Y64970417D01*
X-24915010Y65034677D01*
X-25023536Y65074178D01*
X-25023538Y65074178D01*
X-25139032Y65074178D01*
X-25139035Y65074178D01*
X-25247561Y65034677D01*
X-25336035Y64960439D01*
X-25393782Y64860418D01*
X-25398674Y64832675D01*
X-25413837Y64746678D01*
X-25679723Y64746678D01*
X-25716535Y64810438D01*
X-25805009Y64884676D01*
X-25805010Y64884677D01*
X-25913536Y64924178D01*
X-25913538Y64924178D01*
X-26029032Y64924178D01*
X-26029035Y64924178D01*
X-26137561Y64884677D01*
X-26226036Y64810438D01*
X-26226037Y64810437D01*
X-26231860Y64800351D01*
X-26269813Y64771233D01*
X-26317238Y64777479D01*
X-26340112Y64800354D01*
X-26345934Y64810438D01*
X-26358772Y64832675D01*
X-26447246Y64906913D01*
X-26447247Y64906914D01*
X-26555773Y64946415D01*
X-26555775Y64946415D01*
X-26671269Y64946415D01*
X-26671272Y64946415D01*
X-26779798Y64906914D01*
X-26868272Y64832676D01*
X-26926019Y64732655D01*
X-26946074Y64618915D01*
X-28195141Y64618915D01*
X-28166535Y64642918D01*
X-28108788Y64742939D01*
X-28088733Y64856678D01*
X-28108788Y64970417D01*
X-28166535Y65070438D01*
X-28229103Y65122939D01*
X-28255010Y65144677D01*
X-28363536Y65184178D01*
X-28363538Y65184178D01*
X-28479032Y65184178D01*
X-28479035Y65184178D01*
X-28587561Y65144677D01*
X-28676035Y65070439D01*
X-28733782Y64970418D01*
X-28753837Y64856678D01*
X-37202772Y64856678D01*
X-37196753Y65426678D01*
X-36463837Y65426678D01*
X-36443782Y65312939D01*
X-36386035Y65212918D01*
X-36297561Y65138680D01*
X-36189032Y65099178D01*
X-36189029Y65099178D01*
X-36073541Y65099178D01*
X-36073538Y65099178D01*
X-35965009Y65138680D01*
X-35876535Y65212918D01*
X-35862817Y65236678D01*
X-34758992Y65236678D01*
X-34738937Y65122939D01*
X-34681190Y65022918D01*
X-34592716Y64948680D01*
X-34525399Y64924178D01*
X-34484187Y64909178D01*
X-34484184Y64909178D01*
X-34368696Y64909178D01*
X-34368693Y64909178D01*
X-34260164Y64948680D01*
X-34171690Y65022918D01*
X-34113943Y65122939D01*
X-34093888Y65236678D01*
X-34113943Y65350417D01*
X-34171690Y65450438D01*
X-34178629Y65456261D01*
X-34260165Y65524677D01*
X-34368691Y65564178D01*
X-34368693Y65564178D01*
X-34484187Y65564178D01*
X-34484190Y65564178D01*
X-34592716Y65524677D01*
X-34681190Y65450439D01*
X-34738937Y65350418D01*
X-34758992Y65236678D01*
X-35862817Y65236678D01*
X-35818788Y65312939D01*
X-35798733Y65426678D01*
X-35818788Y65540417D01*
X-35876535Y65640438D01*
X-35928140Y65683740D01*
X-35965010Y65714677D01*
X-36073536Y65754178D01*
X-36073538Y65754178D01*
X-36189032Y65754178D01*
X-36189035Y65754178D01*
X-36297561Y65714677D01*
X-36386035Y65640439D01*
X-36443782Y65540418D01*
X-36446558Y65524676D01*
X-36463837Y65426678D01*
X-37196753Y65426678D01*
X-37192234Y65854563D01*
X-34145952Y65854563D01*
X-34125897Y65740824D01*
X-34068150Y65640803D01*
X-33979676Y65566565D01*
X-33871147Y65527063D01*
X-33871144Y65527063D01*
X-33755656Y65527063D01*
X-33755653Y65527063D01*
X-33647124Y65566565D01*
X-33558650Y65640803D01*
X-33500903Y65740824D01*
X-33482238Y65846678D01*
X-32043837Y65846678D01*
X-32023782Y65732939D01*
X-31966035Y65632918D01*
X-31877561Y65558680D01*
X-31784138Y65524676D01*
X-31769032Y65519178D01*
X-31769029Y65519178D01*
X-31653541Y65519178D01*
X-31653538Y65519178D01*
X-31545009Y65558680D01*
X-31545007Y65558682D01*
X-31541490Y65560712D01*
X-31494065Y65566963D01*
X-31456111Y65537847D01*
X-31448683Y65517443D01*
X-31436868Y65450439D01*
X-31433782Y65432939D01*
X-31376035Y65332918D01*
X-31287561Y65258680D01*
X-31179032Y65219178D01*
X-31179029Y65219178D01*
X-31063541Y65219178D01*
X-31063538Y65219178D01*
X-30955009Y65258680D01*
X-30866535Y65332918D01*
X-30808788Y65432939D01*
X-30799312Y65486678D01*
X-30073837Y65486678D01*
X-30053782Y65372939D01*
X-29996035Y65272918D01*
X-29907561Y65198680D01*
X-29799032Y65159178D01*
X-29799029Y65159178D01*
X-29683541Y65159178D01*
X-29683538Y65159178D01*
X-29575009Y65198680D01*
X-29517807Y65246678D01*
X-27608810Y65246678D01*
X-27588755Y65132939D01*
X-27531008Y65032918D01*
X-27442534Y64958680D01*
X-27334005Y64919178D01*
X-27334002Y64919178D01*
X-27218514Y64919178D01*
X-27218511Y64919178D01*
X-27109982Y64958680D01*
X-27021508Y65032918D01*
X-26963761Y65132939D01*
X-26943706Y65246678D01*
X-26963761Y65360417D01*
X-27021508Y65460438D01*
X-27098065Y65524677D01*
X-27109983Y65534677D01*
X-27207030Y65570000D01*
X-21437337Y65570000D01*
X-21417282Y65456261D01*
X-21359535Y65356240D01*
X-21271061Y65282002D01*
X-21206986Y65258680D01*
X-21162532Y65242500D01*
X-21162529Y65242500D01*
X-21047041Y65242500D01*
X-21047038Y65242500D01*
X-20938509Y65282002D01*
X-20850035Y65356240D01*
X-20792288Y65456261D01*
X-20772233Y65570000D01*
X-20792288Y65683739D01*
X-20850035Y65783760D01*
X-20938509Y65857998D01*
X-20938510Y65857999D01*
X-21047036Y65897500D01*
X-21047038Y65897500D01*
X-21162532Y65897500D01*
X-21162535Y65897500D01*
X-21271061Y65857999D01*
X-21359535Y65783761D01*
X-21417282Y65683740D01*
X-21437337Y65570000D01*
X-27207030Y65570000D01*
X-27218509Y65574178D01*
X-27218511Y65574178D01*
X-27334005Y65574178D01*
X-27334008Y65574178D01*
X-27442534Y65534677D01*
X-27531008Y65460439D01*
X-27588755Y65360418D01*
X-27588755Y65360417D01*
X-27608810Y65246678D01*
X-29517807Y65246678D01*
X-29486535Y65272918D01*
X-29428788Y65372939D01*
X-29408733Y65486678D01*
X-29428788Y65600417D01*
X-29486535Y65700438D01*
X-29575009Y65774676D01*
X-29575010Y65774677D01*
X-29683536Y65814178D01*
X-29683538Y65814178D01*
X-29799032Y65814178D01*
X-29799035Y65814178D01*
X-29907561Y65774677D01*
X-29996035Y65700439D01*
X-30053782Y65600418D01*
X-30064815Y65537847D01*
X-30073837Y65486678D01*
X-30799312Y65486678D01*
X-30788733Y65546678D01*
X-30808788Y65660417D01*
X-30866535Y65760438D01*
X-30952582Y65832640D01*
X-30955010Y65834677D01*
X-31063536Y65874178D01*
X-31063538Y65874178D01*
X-31179032Y65874178D01*
X-31179035Y65874178D01*
X-31287561Y65834677D01*
X-31291088Y65832640D01*
X-31338515Y65826397D01*
X-31376465Y65855517D01*
X-31383888Y65875909D01*
X-31398788Y65960417D01*
X-31456535Y66060438D01*
X-31545009Y66134676D01*
X-31545010Y66134677D01*
X-31653536Y66174178D01*
X-31653538Y66174178D01*
X-31769032Y66174178D01*
X-31769035Y66174178D01*
X-31877561Y66134677D01*
X-31966035Y66060439D01*
X-32023782Y65960418D01*
X-32043837Y65846678D01*
X-33482238Y65846678D01*
X-33480848Y65854563D01*
X-33500903Y65968302D01*
X-33558650Y66068323D01*
X-33647124Y66142561D01*
X-33647125Y66142562D01*
X-33755651Y66182063D01*
X-33755653Y66182063D01*
X-33871147Y66182063D01*
X-33871150Y66182063D01*
X-33979676Y66142562D01*
X-34068150Y66068324D01*
X-34125897Y65968303D01*
X-34125897Y65968302D01*
X-34145952Y65854563D01*
X-37192234Y65854563D01*
X-37184925Y66546678D01*
X-32813837Y66546678D01*
X-32793782Y66432939D01*
X-32736035Y66332918D01*
X-32647561Y66258680D01*
X-32539032Y66219178D01*
X-32539029Y66219178D01*
X-32423541Y66219178D01*
X-32423538Y66219178D01*
X-32315009Y66258680D01*
X-32226535Y66332918D01*
X-32168788Y66432939D01*
X-32155786Y66506678D01*
X-27643837Y66506678D01*
X-27623782Y66392939D01*
X-27566035Y66292918D01*
X-27477561Y66218680D01*
X-27376959Y66182063D01*
X-27369032Y66179178D01*
X-27369029Y66179178D01*
X-27253541Y66179178D01*
X-27253538Y66179178D01*
X-27145009Y66218680D01*
X-27056535Y66292918D01*
X-26998788Y66392939D01*
X-26978733Y66506678D01*
X-26998788Y66620417D01*
X-27015868Y66650000D01*
X-25507337Y66650000D01*
X-25487282Y66536261D01*
X-25429535Y66436240D01*
X-25341061Y66362002D01*
X-25258853Y66332080D01*
X-25232532Y66322500D01*
X-25232529Y66322500D01*
X-25117041Y66322500D01*
X-25117038Y66322500D01*
X-25008509Y66362002D01*
X-24920035Y66436240D01*
X-24862288Y66536261D01*
X-24842233Y66650000D01*
X-24862288Y66763739D01*
X-24920035Y66863760D01*
X-24920573Y66864212D01*
X-25008510Y66937999D01*
X-25117036Y66977500D01*
X-25117038Y66977500D01*
X-25232532Y66977500D01*
X-25232535Y66977500D01*
X-25341061Y66937999D01*
X-25429535Y66863761D01*
X-25487282Y66763740D01*
X-25507337Y66650000D01*
X-27015868Y66650000D01*
X-27056535Y66720438D01*
X-27072479Y66733817D01*
X-27145010Y66794677D01*
X-27253536Y66834178D01*
X-27253538Y66834178D01*
X-27369032Y66834178D01*
X-27369035Y66834178D01*
X-27477561Y66794677D01*
X-27566035Y66720439D01*
X-27623782Y66620418D01*
X-27643837Y66506678D01*
X-32155786Y66506678D01*
X-32148733Y66546678D01*
X-32168788Y66660417D01*
X-32226535Y66760438D01*
X-32267338Y66794676D01*
X-32315010Y66834677D01*
X-32423536Y66874178D01*
X-32423538Y66874178D01*
X-32539032Y66874178D01*
X-32539035Y66874178D01*
X-32647561Y66834677D01*
X-32736035Y66760439D01*
X-32793782Y66660418D01*
X-32793782Y66660417D01*
X-32813837Y66546678D01*
X-37184925Y66546678D01*
X-37178061Y67196678D01*
X-34103837Y67196678D01*
X-34083782Y67082939D01*
X-34026035Y66982918D01*
X-33937561Y66908680D01*
X-33829032Y66869178D01*
X-33829029Y66869178D01*
X-33713541Y66869178D01*
X-33713538Y66869178D01*
X-33605009Y66908680D01*
X-33516535Y66982918D01*
X-33503596Y67005331D01*
X-33465647Y67034451D01*
X-33418220Y67028208D01*
X-33395343Y67005332D01*
X-33382403Y66982919D01*
X-33379535Y66977952D01*
X-33291061Y66903714D01*
X-33196179Y66869179D01*
X-33182532Y66864212D01*
X-33182529Y66864212D01*
X-33067041Y66864212D01*
X-33067038Y66864212D01*
X-32958509Y66903714D01*
X-32870035Y66977952D01*
X-32812288Y67077973D01*
X-32793121Y67186678D01*
X-30853837Y67186678D01*
X-30833782Y67072939D01*
X-30776035Y66972918D01*
X-30687561Y66898680D01*
X-30591624Y66863761D01*
X-30579032Y66859178D01*
X-30579029Y66859178D01*
X-30463541Y66859178D01*
X-30463538Y66859178D01*
X-30355009Y66898680D01*
X-30266535Y66972918D01*
X-30208788Y67072939D01*
X-30188733Y67186678D01*
X-30208788Y67300417D01*
X-30254780Y67380078D01*
X-23953985Y67380078D01*
X-23933930Y67266339D01*
X-23876183Y67166318D01*
X-23787709Y67092080D01*
X-23735121Y67072939D01*
X-23679180Y67052578D01*
X-23679177Y67052578D01*
X-23563689Y67052578D01*
X-23563686Y67052578D01*
X-23455157Y67092080D01*
X-23366683Y67166318D01*
X-23329916Y67230000D01*
X-21867337Y67230000D01*
X-21847282Y67116261D01*
X-21789535Y67016240D01*
X-21701061Y66942002D01*
X-21595868Y66903714D01*
X-21592532Y66902500D01*
X-21592529Y66902500D01*
X-21477041Y66902500D01*
X-21477038Y66902500D01*
X-21368509Y66942002D01*
X-21280035Y67016240D01*
X-21222288Y67116261D01*
X-21202233Y67230000D01*
X-21222288Y67343739D01*
X-21280035Y67443760D01*
X-21316879Y67474676D01*
X-21368510Y67517999D01*
X-21477036Y67557500D01*
X-21477038Y67557500D01*
X-21592532Y67557500D01*
X-21592535Y67557500D01*
X-21701061Y67517999D01*
X-21789535Y67443761D01*
X-21847282Y67343740D01*
X-21867337Y67230000D01*
X-23329916Y67230000D01*
X-23308936Y67266339D01*
X-23288881Y67380078D01*
X-23308936Y67493817D01*
X-23366683Y67593838D01*
X-23455157Y67668076D01*
X-23455158Y67668077D01*
X-23563684Y67707578D01*
X-23563686Y67707578D01*
X-23679180Y67707578D01*
X-23679183Y67707578D01*
X-23787709Y67668077D01*
X-23876183Y67593839D01*
X-23933930Y67493818D01*
X-23953985Y67380078D01*
X-30254780Y67380078D01*
X-30266535Y67400438D01*
X-30272535Y67405473D01*
X-30355010Y67474677D01*
X-30463536Y67514178D01*
X-30463538Y67514178D01*
X-30579032Y67514178D01*
X-30579035Y67514178D01*
X-30687561Y67474677D01*
X-30776035Y67400439D01*
X-30833782Y67300418D01*
X-30853837Y67186678D01*
X-32793121Y67186678D01*
X-32792233Y67191712D01*
X-32812288Y67305451D01*
X-32870035Y67405472D01*
X-32952509Y67474676D01*
X-32958510Y67479711D01*
X-33067036Y67519212D01*
X-33067038Y67519212D01*
X-33182532Y67519212D01*
X-33182535Y67519212D01*
X-33291061Y67479711D01*
X-33379536Y67405472D01*
X-33379536Y67405471D01*
X-33392476Y67383059D01*
X-33430427Y67353939D01*
X-33477853Y67360184D01*
X-33500729Y67383061D01*
X-33510762Y67400439D01*
X-33516535Y67410438D01*
X-33593091Y67474676D01*
X-33605010Y67484677D01*
X-33713536Y67524178D01*
X-33713538Y67524178D01*
X-33829032Y67524178D01*
X-33829035Y67524178D01*
X-33937561Y67484677D01*
X-34026035Y67410439D01*
X-34083782Y67310418D01*
X-34084658Y67305451D01*
X-34103837Y67196678D01*
X-37178061Y67196678D01*
X-37161804Y68736149D01*
X-37143032Y68780144D01*
X-37136030Y68786059D01*
X-36413192Y69310733D01*
X-36366675Y69321878D01*
X-36336306Y69308030D01*
X-36257709Y69242080D01*
X-36173314Y69211362D01*
X-36149180Y69202578D01*
X-36149177Y69202578D01*
X-36033689Y69202578D01*
X-36033686Y69202578D01*
X-35925157Y69242080D01*
X-35836683Y69316318D01*
X-35778936Y69416339D01*
X-35758881Y69530078D01*
X-35778936Y69643817D01*
X-35778937Y69643819D01*
X-35778937Y69643820D01*
X-35778939Y69643824D01*
X-35802574Y69684761D01*
X-35808818Y69732187D01*
X-35785165Y69766588D01*
X-35102153Y70262353D01*
X-35065439Y70274273D01*
X-34995634Y70274273D01*
X-34995631Y70274273D01*
X-34887102Y70313775D01*
X-34798628Y70388013D01*
X-34740881Y70488034D01*
X-34737878Y70505066D01*
X-34713044Y70544789D01*
X-34682895Y70566673D01*
X-34636379Y70577818D01*
X-34624808Y70574823D01*
X-34602416Y70566673D01*
X-34583387Y70559747D01*
X-34583384Y70559747D01*
X-34467896Y70559747D01*
X-34467893Y70559747D01*
X-34359364Y70599249D01*
X-34270890Y70673487D01*
X-34213143Y70773508D01*
X-34200084Y70847573D01*
X-34174383Y70887915D01*
X-34138377Y70899218D01*
X-33666064Y70898018D01*
G37*
G04 #@! TD.AperFunction*
G04 #@! TD*
M02*
