G04 #@! TF.GenerationSoftware,KiCad,Pcbnew,8.0.5*
G04 #@! TF.CreationDate,2024-10-28T12:14:28-07:00*
G04 #@! TF.ProjectId,Sampler-built,53616d70-6c65-4722-9d62-75696c742e6b,rev?*
G04 #@! TF.SameCoordinates,PX38444c0PY67f3540*
G04 #@! TF.FileFunction,Copper,L1,Top*
G04 #@! TF.FilePolarity,Positive*
%FSLAX46Y46*%
G04 Gerber Fmt 4.6, Leading zero omitted, Abs format (unit mm)*
G04 Created by KiCad (PCBNEW 8.0.5) date 2024-10-28 12:14:28*
%MOMM*%
%LPD*%
G01*
G04 APERTURE LIST*
G04 Aperture macros list*
%AMRoundRect*
0 Rectangle with rounded corners*
0 $1 Rounding radius*
0 $2 $3 $4 $5 $6 $7 $8 $9 X,Y pos of 4 corners*
0 Add a 4 corners polygon primitive as box body*
4,1,4,$2,$3,$4,$5,$6,$7,$8,$9,$2,$3,0*
0 Add four circle primitives for the rounded corners*
1,1,$1+$1,$2,$3*
1,1,$1+$1,$4,$5*
1,1,$1+$1,$6,$7*
1,1,$1+$1,$8,$9*
0 Add four rect primitives between the rounded corners*
20,1,$1+$1,$2,$3,$4,$5,0*
20,1,$1+$1,$4,$5,$6,$7,0*
20,1,$1+$1,$6,$7,$8,$9,0*
20,1,$1+$1,$8,$9,$2,$3,0*%
G04 Aperture macros list end*
G04 #@! TA.AperFunction,EtchedComponent*
%ADD10C,0.000000*%
G04 #@! TD*
G04 #@! TA.AperFunction,SMDPad,CuDef*
%ADD11R,0.900000X1.200000*%
G04 #@! TD*
G04 #@! TA.AperFunction,SMDPad,CuDef*
%ADD12RoundRect,0.147500X0.147500X0.172500X-0.147500X0.172500X-0.147500X-0.172500X0.147500X-0.172500X0*%
G04 #@! TD*
G04 #@! TA.AperFunction,SMDPad,CuDef*
%ADD13R,1.000000X1.000000*%
G04 #@! TD*
G04 #@! TA.AperFunction,SMDPad,CuDef*
%ADD14RoundRect,0.147500X0.172500X-0.147500X0.172500X0.147500X-0.172500X0.147500X-0.172500X-0.147500X0*%
G04 #@! TD*
G04 #@! TA.AperFunction,SMDPad,CuDef*
%ADD15R,0.700000X1.300000*%
G04 #@! TD*
G04 #@! TA.AperFunction,SMDPad,CuDef*
%ADD16R,0.439200X0.500000*%
G04 #@! TD*
G04 #@! TA.AperFunction,SMDPad,CuDef*
%ADD17R,0.800100X0.800100*%
G04 #@! TD*
G04 #@! TA.AperFunction,SMDPad,CuDef*
%ADD18R,1.450000X0.450000*%
G04 #@! TD*
G04 #@! TA.AperFunction,SMDPad,CuDef*
%ADD19RoundRect,0.147500X-0.172500X0.147500X-0.172500X-0.147500X0.172500X-0.147500X0.172500X0.147500X0*%
G04 #@! TD*
G04 #@! TA.AperFunction,SMDPad,CuDef*
%ADD20C,0.500000*%
G04 #@! TD*
G04 #@! TA.AperFunction,SMDPad,CuDef*
%ADD21RoundRect,0.147500X-0.147500X-0.172500X0.147500X-0.172500X0.147500X0.172500X-0.147500X0.172500X0*%
G04 #@! TD*
G04 #@! TA.AperFunction,SMDPad,CuDef*
%ADD22R,3.000000X1.600000*%
G04 #@! TD*
G04 #@! TA.AperFunction,SMDPad,CuDef*
%ADD23R,0.500000X0.439200*%
G04 #@! TD*
G04 #@! TA.AperFunction,SMDPad,CuDef*
%ADD24R,1.700000X0.900000*%
G04 #@! TD*
G04 #@! TA.AperFunction,ComponentPad*
%ADD25C,1.700000*%
G04 #@! TD*
G04 #@! TA.AperFunction,ComponentPad*
%ADD26O,1.700000X1.700000*%
G04 #@! TD*
G04 #@! TA.AperFunction,SMDPad,CuDef*
%ADD27R,1.150000X1.400000*%
G04 #@! TD*
G04 #@! TA.AperFunction,ComponentPad*
%ADD28R,1.700000X1.700000*%
G04 #@! TD*
G04 #@! TA.AperFunction,SMDPad,CuDef*
%ADD29R,1.220000X0.650000*%
G04 #@! TD*
G04 #@! TA.AperFunction,SMDPad,CuDef*
%ADD30C,0.300000*%
G04 #@! TD*
G04 #@! TA.AperFunction,SMDPad,CuDef*
%ADD31R,0.450000X1.450000*%
G04 #@! TD*
G04 #@! TA.AperFunction,SMDPad,CuDef*
%ADD32R,1.200000X3.700000*%
G04 #@! TD*
G04 #@! TA.AperFunction,SMDPad,CuDef*
%ADD33R,0.900000X1.700000*%
G04 #@! TD*
G04 #@! TA.AperFunction,SMDPad,CuDef*
%ADD34RoundRect,0.100000X-0.100000X0.637500X-0.100000X-0.637500X0.100000X-0.637500X0.100000X0.637500X0*%
G04 #@! TD*
G04 #@! TA.AperFunction,ComponentPad*
%ADD35C,1.930400*%
G04 #@! TD*
G04 #@! TA.AperFunction,ComponentPad*
%ADD36C,1.600000*%
G04 #@! TD*
G04 #@! TA.AperFunction,ComponentPad*
%ADD37C,1.300000*%
G04 #@! TD*
G04 #@! TA.AperFunction,ComponentPad*
%ADD38O,1.397000X1.092200*%
G04 #@! TD*
G04 #@! TA.AperFunction,ComponentPad*
%ADD39O,1.524000X1.524000*%
G04 #@! TD*
G04 #@! TA.AperFunction,ComponentPad*
%ADD40C,2.286000*%
G04 #@! TD*
G04 #@! TA.AperFunction,ViaPad*
%ADD41C,0.400000*%
G04 #@! TD*
G04 #@! TA.AperFunction,Conductor*
%ADD42C,0.127000*%
G04 #@! TD*
G04 #@! TA.AperFunction,Conductor*
%ADD43C,0.250000*%
G04 #@! TD*
G04 #@! TA.AperFunction,Conductor*
%ADD44C,0.203200*%
G04 #@! TD*
G04 #@! TA.AperFunction,Conductor*
%ADD45C,0.100000*%
G04 #@! TD*
G04 #@! TA.AperFunction,Conductor*
%ADD46C,0.200000*%
G04 #@! TD*
G04 APERTURE END LIST*
G04 #@! TA.AperFunction,EtchedComponent*
G04 #@! TO.C,JP4*
G36*
X-2050633Y30881878D02*
G01*
X-2152233Y30881878D01*
X-2152233Y31288278D01*
X-2050633Y31288278D01*
X-2050633Y30881878D01*
G37*
G04 #@! TD.AperFunction*
D10*
G04 #@! TA.AperFunction,EtchedComponent*
G04 #@! TO.C,NT2*
G36*
X-51316648Y61669318D02*
G01*
X-51816648Y61669318D01*
X-51816648Y62669318D01*
X-51316648Y62669318D01*
X-51316648Y61669318D01*
G37*
G04 #@! TD.AperFunction*
G04 #@! TA.AperFunction,EtchedComponent*
G04 #@! TO.C,JP2*
G36*
X-50603448Y50865878D02*
G01*
X-51009848Y50865878D01*
X-51009848Y50764278D01*
X-50603448Y50764278D01*
X-50603448Y50865878D01*
G37*
G04 #@! TD.AperFunction*
G04 #@! TA.AperFunction,EtchedComponent*
G04 #@! TO.C,JP11*
G36*
X-55878448Y68310118D02*
G01*
X-56284848Y68310118D01*
X-56284848Y68208518D01*
X-55878448Y68208518D01*
X-55878448Y68310118D01*
G37*
G04 #@! TD.AperFunction*
G04 #@! TA.AperFunction,EtchedComponent*
G04 #@! TO.C,NT1*
G36*
X-1581433Y26470078D02*
G01*
X-2081433Y26470078D01*
X-2081433Y27470078D01*
X-1581433Y27470078D01*
X-1581433Y26470078D01*
G37*
G04 #@! TD.AperFunction*
G04 #@! TA.AperFunction,EtchedComponent*
G04 #@! TO.C,JP3*
G36*
X-52151248Y66781118D02*
G01*
X-52252848Y66781118D01*
X-52252848Y67187518D01*
X-52151248Y67187518D01*
X-52151248Y66781118D01*
G37*
G04 #@! TD.AperFunction*
G04 #@! TD*
D11*
G04 #@! TO.P,D16,1,K*
G04 #@! TO.N,Net-(D16-K)*
X-42001433Y26960078D03*
G04 #@! TO.P,D16,2,A*
G04 #@! TO.N,Net-(D16-A)*
X-45301433Y26960078D03*
G04 #@! TD*
D12*
G04 #@! TO.P,C61,1*
G04 #@! TO.N,+12V*
X-44709785Y86695000D03*
G04 #@! TO.P,C61,2*
G04 #@! TO.N,GND*
X-45679785Y86695000D03*
G04 #@! TD*
D13*
G04 #@! TO.P,R3,1*
G04 #@! TO.N,/D0*
X-11210000Y95780000D03*
G04 #@! TO.P,R3,2*
G04 #@! TO.N,Net-(Bank_But1-G)*
X-11210000Y97480000D03*
G04 #@! TD*
D14*
G04 #@! TO.P,C1,1*
G04 #@! TO.N,+3V3*
X-31391285Y70381678D03*
G04 #@! TO.P,C1,2*
G04 #@! TO.N,GND*
X-31391285Y71351678D03*
G04 #@! TD*
D13*
G04 #@! TO.P,R57,1*
G04 #@! TO.N,Net-(U15B-+)*
X-9750000Y39170000D03*
G04 #@! TO.P,R57,2*
G04 #@! TO.N,VREF+*
X-8050000Y39170000D03*
G04 #@! TD*
D15*
G04 #@! TO.P,C44,1*
G04 #@! TO.N,/VCOM*
X-11900000Y25950000D03*
G04 #@! TO.P,C44,2*
G04 #@! TO.N,GNDA*
X-10000000Y25950000D03*
G04 #@! TD*
D13*
G04 #@! TO.P,R59,1*
G04 #@! TO.N,Net-(J12-SIG)*
X-49484785Y24830000D03*
G04 #@! TO.P,R59,2*
G04 #@! TO.N,/D13*
X-49484785Y23130000D03*
G04 #@! TD*
D16*
G04 #@! TO.P,JP4,1,A*
G04 #@! TO.N,+12V*
X-1831033Y31085078D03*
G04 #@! TO.P,JP4,2,B*
G04 #@! TO.N,Net-(JP4-B)*
X-2371833Y31085078D03*
G04 #@! TD*
D17*
G04 #@! TO.P,Q11,1,G*
G04 #@! TO.N,Net-(Q11-G)*
X-43901433Y32860078D03*
G04 #@! TO.P,Q11,2,S*
G04 #@! TO.N,Net-(D16-K)*
X-43901433Y30960078D03*
G04 #@! TO.P,Q11,3,D*
G04 #@! TO.N,+12V*
X-41902453Y31910078D03*
G04 #@! TD*
D13*
G04 #@! TO.P,R61,1*
G04 #@! TO.N,GND*
X-27859785Y9450000D03*
G04 #@! TO.P,R61,2*
G04 #@! TO.N,Net-(U16B--)*
X-27859785Y11150000D03*
G04 #@! TD*
D18*
G04 #@! TO.P,U15,1*
G04 #@! TO.N,Net-(U15A--)*
X-17490000Y41435000D03*
G04 #@! TO.P,U15,2,-*
X-17490000Y40785000D03*
G04 #@! TO.P,U15,3,+*
G04 #@! TO.N,Net-(U15A-+)*
X-17490000Y40135000D03*
G04 #@! TO.P,U15,4,V-*
G04 #@! TO.N,-12VA*
X-17490000Y39485000D03*
G04 #@! TO.P,U15,5,+*
G04 #@! TO.N,Net-(U15B-+)*
X-11590000Y39485000D03*
G04 #@! TO.P,U15,6,-*
G04 #@! TO.N,Net-(U15B--)*
X-11590000Y40135000D03*
G04 #@! TO.P,U15,7*
G04 #@! TO.N,Net-(C46-Pad1)*
X-11590000Y40785000D03*
G04 #@! TO.P,U15,8,V+*
G04 #@! TO.N,+12V*
X-11590000Y41435000D03*
G04 #@! TD*
D13*
G04 #@! TO.P,C45,1*
G04 #@! TO.N,/VCOM*
X-11500000Y24210000D03*
G04 #@! TO.P,C45,2*
G04 #@! TO.N,GNDA*
X-9800000Y24210000D03*
G04 #@! TD*
D19*
G04 #@! TO.P,R42,1*
G04 #@! TO.N,Net-(C57-Pad1)*
X-3424785Y18044750D03*
G04 #@! TO.P,R42,2*
G04 #@! TO.N,Net-(U8B--)*
X-3424785Y17074750D03*
G04 #@! TD*
D13*
G04 #@! TO.P,C25,1*
G04 #@! TO.N,Net-(D16-K)*
X-42051433Y28960078D03*
G04 #@! TO.P,C25,2*
G04 #@! TO.N,GND*
X-43751433Y28960078D03*
G04 #@! TD*
G04 #@! TO.P,C47,1*
G04 #@! TO.N,/D6*
X-13460000Y101750000D03*
G04 #@! TO.P,C47,2*
G04 #@! TO.N,GND*
X-13460000Y100050000D03*
G04 #@! TD*
D12*
G04 #@! TO.P,R161,1*
G04 #@! TO.N,Net-(C149-Pad1)*
X-11576648Y4820078D03*
G04 #@! TO.P,R161,2*
G04 #@! TO.N,Net-(C153-Pad1)*
X-12546648Y4820078D03*
G04 #@! TD*
D13*
G04 #@! TO.P,C79,1*
G04 #@! TO.N,Net-(POT_SAMP1-Center)*
X-50514785Y81185000D03*
G04 #@! TO.P,C79,2*
G04 #@! TO.N,GNDADC*
X-48814785Y81185000D03*
G04 #@! TD*
G04 #@! TO.P,C55,1*
G04 #@! TO.N,Net-(JP11-B)*
X-56186648Y66799318D03*
G04 #@! TO.P,C55,2*
G04 #@! TO.N,GND*
X-54486648Y66799318D03*
G04 #@! TD*
D20*
G04 #@! TO.P,NT2,1,1*
G04 #@! TO.N,GNDADC*
X-51566648Y62669318D03*
G04 #@! TO.P,NT2,2,2*
G04 #@! TO.N,GND*
X-51566648Y61669318D03*
G04 #@! TD*
D19*
G04 #@! TO.P,C36,1*
G04 #@! TO.N,+3V3*
X-37111285Y62821678D03*
G04 #@! TO.P,C36,2*
G04 #@! TO.N,GND*
X-37111285Y61851678D03*
G04 #@! TD*
D13*
G04 #@! TO.P,C65,1*
G04 #@! TO.N,Net-(POT_START1-Center)*
X-7006648Y65934638D03*
G04 #@! TO.P,C65,2*
G04 #@! TO.N,GNDADC*
X-8706648Y65934638D03*
G04 #@! TD*
G04 #@! TO.P,R71,1*
G04 #@! TO.N,/D8*
X-36740000Y97220000D03*
G04 #@! TO.P,R71,2*
G04 #@! TO.N,Net-(PLAY_BUT1-R)*
X-35040000Y97220000D03*
G04 #@! TD*
D21*
G04 #@! TO.P,R52,1*
G04 #@! TO.N,Net-(U11A-+)*
X-21562208Y29416592D03*
G04 #@! TO.P,R52,2*
G04 #@! TO.N,Net-(J14-SIG)*
X-20592208Y29416592D03*
G04 #@! TD*
G04 #@! TO.P,C88,1*
G04 #@! TO.N,-12VA*
X-12908296Y53750156D03*
G04 #@! TO.P,C88,2*
G04 #@! TO.N,GND*
X-11938296Y53750156D03*
G04 #@! TD*
D22*
G04 #@! TO.P,C24,1*
G04 #@! TO.N,GND*
X-40246648Y6090078D03*
G04 #@! TO.P,C24,2*
G04 #@! TO.N,-12VA*
X-35846648Y6090078D03*
G04 #@! TD*
D13*
G04 #@! TO.P,R74,1*
G04 #@! TO.N,Net-(PLAY_BUT1-POLE-A)*
X-35050000Y103060000D03*
G04 #@! TO.P,R74,2*
G04 #@! TO.N,/D12*
X-36750000Y103060000D03*
G04 #@! TD*
D12*
G04 #@! TO.P,R55,1*
G04 #@! TO.N,/LIN*
X-4139785Y19159750D03*
G04 #@! TO.P,R55,2*
G04 #@! TO.N,Net-(C57-Pad1)*
X-5109785Y19159750D03*
G04 #@! TD*
D23*
G04 #@! TO.P,JP2,1,A*
G04 #@! TO.N,+12V*
X-50806648Y51085478D03*
G04 #@! TO.P,JP2,2,B*
G04 #@! TO.N,Net-(JP2-B)*
X-50806648Y50544678D03*
G04 #@! TD*
D19*
G04 #@! TO.P,R49,1*
G04 #@! TO.N,Net-(U8A-+)*
X-14199785Y17344750D03*
G04 #@! TO.P,R49,2*
G04 #@! TO.N,GND*
X-14199785Y16374750D03*
G04 #@! TD*
D21*
G04 #@! TO.P,R41,1*
G04 #@! TO.N,Net-(U1A--)*
X-5248296Y60644638D03*
G04 #@! TO.P,R41,2*
G04 #@! TO.N,/A3*
X-4278296Y60644638D03*
G04 #@! TD*
D24*
G04 #@! TO.P,C67,1*
G04 #@! TO.N,Net-(JP2-B)*
X-49250155Y49970000D03*
G04 #@! TO.P,C67,2*
G04 #@! TO.N,GND*
X-49250155Y52870000D03*
G04 #@! TD*
D25*
G04 #@! TO.P,J4,1,Pin_1*
G04 #@! TO.N,/UART_TX*
X-32170000Y91520000D03*
G04 #@! TO.P,J4,2,Pin_2*
G04 #@! TO.N,GND*
X-32170000Y94060000D03*
D26*
G04 #@! TO.P,J4,3,Pin_3*
G04 #@! TO.N,/UART_RX*
X-29630000Y91520000D03*
G04 #@! TO.P,J4,4,Pin_4*
G04 #@! TO.N,GND*
X-29630000Y94060000D03*
G04 #@! TO.P,J4,5,Pin_5*
G04 #@! TO.N,/DEBUG2*
X-27090000Y91520000D03*
G04 #@! TO.P,J4,6,Pin_6*
G04 #@! TO.N,GND*
X-27090000Y94060000D03*
D25*
G04 #@! TO.P,J4,7,Pin_7*
G04 #@! TO.N,/DEBUG3*
X-24550000Y91520000D03*
G04 #@! TO.P,J4,8,Pin_8*
G04 #@! TO.N,GND*
X-24550000Y94060000D03*
G04 #@! TD*
D21*
G04 #@! TO.P,C13,1*
G04 #@! TO.N,+3V3*
X-23546285Y60016678D03*
G04 #@! TO.P,C13,2*
G04 #@! TO.N,GND*
X-22576285Y60016678D03*
G04 #@! TD*
D12*
G04 #@! TO.P,R12,1*
G04 #@! TO.N,Net-(U1B--)*
X-13331648Y62980078D03*
G04 #@! TO.P,R12,2*
G04 #@! TO.N,/A1*
X-14301648Y62980078D03*
G04 #@! TD*
D19*
G04 #@! TO.P,R40,1*
G04 #@! TO.N,Net-(POT_START1-Center)*
X-4226648Y64789638D03*
G04 #@! TO.P,R40,2*
G04 #@! TO.N,Net-(U1A-+)*
X-4226648Y63819638D03*
G04 #@! TD*
D13*
G04 #@! TO.P,R21,1*
G04 #@! TO.N,GND*
X-25654785Y35040000D03*
G04 #@! TO.P,R21,2*
G04 #@! TO.N,Net-(R1-Pad1)*
X-25654785Y33340000D03*
G04 #@! TD*
D17*
G04 #@! TO.P,D15,1,Anode*
G04 #@! TO.N,GND*
X-16143296Y52069396D03*
G04 #@! TO.P,D15,2,cathode*
G04 #@! TO.N,+3V3*
X-14243296Y52069396D03*
G04 #@! TO.P,D15,3,AK*
G04 #@! TO.N,Net-(D15-AK)*
X-15193296Y54068376D03*
G04 #@! TD*
D12*
G04 #@! TO.P,C6,1*
G04 #@! TO.N,+3.3VADC*
X-37059785Y59600000D03*
G04 #@! TO.P,C6,2*
G04 #@! TO.N,GNDADC*
X-38029785Y59600000D03*
G04 #@! TD*
D21*
G04 #@! TO.P,R30,1*
G04 #@! TO.N,Net-(R16-Pad2)*
X-36639785Y32100000D03*
G04 #@! TO.P,R30,2*
G04 #@! TO.N,Net-(D24-AK)*
X-35669785Y32100000D03*
G04 #@! TD*
G04 #@! TO.P,C8,1*
G04 #@! TO.N,/VCOM*
X-10735000Y22920000D03*
G04 #@! TO.P,C8,2*
G04 #@! TO.N,GNDA*
X-9765000Y22920000D03*
G04 #@! TD*
G04 #@! TO.P,R66,1*
G04 #@! TO.N,Net-(JP2-B)*
X-47315155Y49540000D03*
G04 #@! TO.P,R66,2*
G04 #@! TO.N,Net-(U13-EN)*
X-46345155Y49540000D03*
G04 #@! TD*
D17*
G04 #@! TO.P,U6,1,VI*
G04 #@! TO.N,Net-(JP11-B)*
X-56307408Y64959318D03*
G04 #@! TO.P,U6,2,VO*
G04 #@! TO.N,VREF+*
X-56307408Y63059318D03*
G04 #@! TO.P,U6,3,GND*
G04 #@! TO.N,GND*
X-54308428Y64009318D03*
G04 #@! TD*
D12*
G04 #@! TO.P,R162,1*
G04 #@! TO.N,Net-(U12A--)*
X-13596648Y5790078D03*
G04 #@! TO.P,R162,2*
G04 #@! TO.N,Net-(C153-Pad1)*
X-14566648Y5790078D03*
G04 #@! TD*
D21*
G04 #@! TO.P,C73,1*
G04 #@! TO.N,+12V*
X-33459785Y28970000D03*
G04 #@! TO.P,C73,2*
G04 #@! TO.N,GND*
X-32489785Y28970000D03*
G04 #@! TD*
D13*
G04 #@! TO.P,C90,1*
G04 #@! TO.N,Net-(C90-Pad1)*
X-8744785Y20454750D03*
G04 #@! TO.P,C90,2*
G04 #@! TO.N,Net-(U8A--)*
X-10444785Y20454750D03*
G04 #@! TD*
D17*
G04 #@! TO.P,D24,1,Anode*
G04 #@! TO.N,GND*
X-35134785Y35420760D03*
G04 #@! TO.P,D24,2,cathode*
G04 #@! TO.N,+3V3*
X-37034785Y35420760D03*
G04 #@! TO.P,D24,3,AK*
G04 #@! TO.N,Net-(D24-AK)*
X-36084785Y33421780D03*
G04 #@! TD*
D12*
G04 #@! TO.P,R65,1*
G04 #@! TO.N,+3V3*
X-44230000Y49520000D03*
G04 #@! TO.P,R65,2*
G04 #@! TO.N,Net-(U13-FB)*
X-45200000Y49520000D03*
G04 #@! TD*
G04 #@! TO.P,C87,1*
G04 #@! TO.N,+12V*
X-7291648Y58805078D03*
G04 #@! TO.P,C87,2*
G04 #@! TO.N,GND*
X-8261648Y58805078D03*
G04 #@! TD*
D13*
G04 #@! TO.P,C22,1*
G04 #@! TO.N,/OSC_IN*
X-42234785Y67640000D03*
G04 #@! TO.P,C22,2*
G04 #@! TO.N,GND*
X-43934785Y67640000D03*
G04 #@! TD*
D21*
G04 #@! TO.P,R160,1*
G04 #@! TO.N,GNDA*
X-22941648Y5380078D03*
G04 #@! TO.P,R160,2*
G04 #@! TO.N,Net-(C152-Pad2)*
X-21971648Y5380078D03*
G04 #@! TD*
D19*
G04 #@! TO.P,R164,1*
G04 #@! TO.N,GNDA*
X-9216648Y9485078D03*
G04 #@! TO.P,R164,2*
G04 #@! TO.N,Net-(C153-Pad2)*
X-9216648Y8515078D03*
G04 #@! TD*
D14*
G04 #@! TO.P,R44,1*
G04 #@! TO.N,Net-(U8A-+)*
X-14179785Y18339750D03*
G04 #@! TO.P,R44,2*
G04 #@! TO.N,Net-(J13-SIG)*
X-14179785Y19309750D03*
G04 #@! TD*
D24*
G04 #@! TO.P,C70,1*
G04 #@! TO.N,+3V3*
X-50256648Y57620078D03*
G04 #@! TO.P,C70,2*
G04 #@! TO.N,GND*
X-50256648Y54720078D03*
G04 #@! TD*
D21*
G04 #@! TO.P,C59,1*
G04 #@! TO.N,+12V*
X-12251648Y60724638D03*
G04 #@! TO.P,C59,2*
G04 #@! TO.N,GND*
X-11281648Y60724638D03*
G04 #@! TD*
D19*
G04 #@! TO.P,R7,1*
G04 #@! TO.N,/ROUT-*
X-19126648Y11725078D03*
G04 #@! TO.P,R7,2*
G04 #@! TO.N,Net-(C152-Pad2)*
X-19126648Y10755078D03*
G04 #@! TD*
D13*
G04 #@! TO.P,C83,1*
G04 #@! TO.N,Net-(POT_PITCH1-Center)*
X-12556648Y65994638D03*
G04 #@! TO.P,C83,2*
G04 #@! TO.N,GNDADC*
X-10856648Y65994638D03*
G04 #@! TD*
G04 #@! TO.P,R73,1*
G04 #@! TO.N,Net-(Bank_But1-POLE-A)*
X-13460000Y105370000D03*
G04 #@! TO.P,R73,2*
G04 #@! TO.N,/D6*
X-13460000Y103670000D03*
G04 #@! TD*
D21*
G04 #@! TO.P,R23,1*
G04 #@! TO.N,Net-(U3B--)*
X-42924785Y84525000D03*
G04 #@! TO.P,R23,2*
G04 #@! TO.N,/A7*
X-41954785Y84525000D03*
G04 #@! TD*
D19*
G04 #@! TO.P,R14,1*
G04 #@! TO.N,/LOUT-*
X-12506648Y11715078D03*
G04 #@! TO.P,R14,2*
G04 #@! TO.N,Net-(C153-Pad2)*
X-12506648Y10745078D03*
G04 #@! TD*
D13*
G04 #@! TO.P,C57,1*
G04 #@! TO.N,Net-(C57-Pad1)*
X-4824785Y17809750D03*
G04 #@! TO.P,C57,2*
G04 #@! TO.N,Net-(U8B--)*
X-4824785Y16109750D03*
G04 #@! TD*
G04 #@! TO.P,C49,1*
G04 #@! TO.N,Net-(JP4-B)*
X-3598653Y31024052D03*
G04 #@! TO.P,C49,2*
G04 #@! TO.N,GNDA*
X-5298653Y31024052D03*
G04 #@! TD*
D19*
G04 #@! TO.P,R18,1*
G04 #@! TO.N,Net-(C46-Pad1)*
X-13753296Y56075156D03*
G04 #@! TO.P,R18,2*
G04 #@! TO.N,Net-(D15-AK)*
X-13753296Y55105156D03*
G04 #@! TD*
D13*
G04 #@! TO.P,C66,1*
G04 #@! TO.N,Net-(POT_LENGTH1-Center)*
X-43244785Y81015000D03*
G04 #@! TO.P,C66,2*
G04 #@! TO.N,GNDADC*
X-44944785Y81015000D03*
G04 #@! TD*
D12*
G04 #@! TO.P,C60,1*
G04 #@! TO.N,-12VA*
X-7681648Y60694638D03*
G04 #@! TO.P,C60,2*
G04 #@! TO.N,GND*
X-8651648Y60694638D03*
G04 #@! TD*
D13*
G04 #@! TO.P,R5,1*
G04 #@! TO.N,/D1*
X-9470000Y95800000D03*
G04 #@! TO.P,R5,2*
G04 #@! TO.N,Net-(Bank_But1-R)*
X-9470000Y97500000D03*
G04 #@! TD*
D17*
G04 #@! TO.P,D1,1,Anode*
G04 #@! TO.N,GND*
X-29424785Y34099240D03*
G04 #@! TO.P,D1,2,cathode*
G04 #@! TO.N,+3V3*
X-27524785Y34099240D03*
G04 #@! TO.P,D1,3,AK*
G04 #@! TO.N,Net-(D1-AK)*
X-28474785Y36098220D03*
G04 #@! TD*
D19*
G04 #@! TO.P,C11,1*
G04 #@! TO.N,+3V3*
X-28381285Y57101678D03*
G04 #@! TO.P,C11,2*
G04 #@! TO.N,GND*
X-28381285Y56131678D03*
G04 #@! TD*
D21*
G04 #@! TO.P,R47,1*
G04 #@! TO.N,/I2C1_SCL*
X-7530000Y35177500D03*
G04 #@! TO.P,R47,2*
G04 #@! TO.N,+3V3*
X-6560000Y35177500D03*
G04 #@! TD*
D13*
G04 #@! TO.P,C20,1*
G04 #@! TO.N,Net-(D17-A)*
X-43401433Y5640078D03*
G04 #@! TO.P,C20,2*
G04 #@! TO.N,Net-(Q12-G)*
X-43401433Y3940078D03*
G04 #@! TD*
G04 #@! TO.P,C39,1*
G04 #@! TO.N,/A6*
X-56960000Y101910000D03*
G04 #@! TO.P,C39,2*
G04 #@! TO.N,GND*
X-56960000Y100210000D03*
G04 #@! TD*
G04 #@! TO.P,C26,1*
G04 #@! TO.N,Net-(D17-A)*
X-48678081Y5620156D03*
G04 #@! TO.P,C26,2*
G04 #@! TO.N,GND*
X-46978081Y5620156D03*
G04 #@! TD*
G04 #@! TO.P,R29,1*
G04 #@! TO.N,GND*
X-4690000Y40850000D03*
G04 #@! TO.P,R29,2*
G04 #@! TO.N,Net-(U15B-+)*
X-6390000Y40850000D03*
G04 #@! TD*
G04 #@! TO.P,C46,1*
G04 #@! TO.N,Net-(C46-Pad1)*
X-9690000Y42380000D03*
G04 #@! TO.P,C46,2*
G04 #@! TO.N,Net-(U15B--)*
X-7990000Y42380000D03*
G04 #@! TD*
G04 #@! TO.P,R37,1*
G04 #@! TO.N,GND*
X-45151433Y5640078D03*
G04 #@! TO.P,R37,2*
G04 #@! TO.N,Net-(Q12-G)*
X-45151433Y3940078D03*
G04 #@! TD*
G04 #@! TO.P,R79,1*
G04 #@! TO.N,+3V3*
X-36721433Y84500078D03*
G04 #@! TO.P,R79,2*
G04 #@! TO.N,/D16*
X-35021433Y84500078D03*
G04 #@! TD*
G04 #@! TO.P,C2,1*
G04 #@! TO.N,Net-(U2B-VCAP_2)*
X-23261285Y66356678D03*
G04 #@! TO.P,C2,2*
G04 #@! TO.N,GND*
X-23261285Y68056678D03*
G04 #@! TD*
D21*
G04 #@! TO.P,R48,1*
G04 #@! TO.N,/I2C1_SDA*
X-8851648Y36530078D03*
G04 #@! TO.P,R48,2*
G04 #@! TO.N,+3V3*
X-7881648Y36530078D03*
G04 #@! TD*
D27*
G04 #@! TO.P,Y1,1,1*
G04 #@! TO.N,/OSC_IN*
X-41744785Y65410000D03*
G04 #@! TO.P,Y1,2,2*
G04 #@! TO.N,/OSC_OUT*
X-40244785Y63310000D03*
G04 #@! TO.P,Y1,3,3*
G04 #@! TO.N,unconnected-(Y1-Pad3)*
X-41744785Y63310000D03*
G04 #@! TO.P,Y1,4,4*
G04 #@! TO.N,unconnected-(Y1-Pad4)*
X-40244785Y65410000D03*
G04 #@! TD*
D13*
G04 #@! TO.P,R68,1*
G04 #@! TO.N,/D7*
X-55200000Y97390000D03*
G04 #@! TO.P,R68,2*
G04 #@! TO.N,Net-(REV_BUT1-R)*
X-53500000Y97390000D03*
G04 #@! TD*
D12*
G04 #@! TO.P,C35,1*
G04 #@! TO.N,+12V*
X-11010000Y42990000D03*
G04 #@! TO.P,C35,2*
G04 #@! TO.N,GND*
X-11980000Y42990000D03*
G04 #@! TD*
D17*
G04 #@! TO.P,D22,1,Anode*
G04 #@! TO.N,GND*
X-47640000Y39019240D03*
G04 #@! TO.P,D22,2,cathode*
G04 #@! TO.N,+3V3*
X-45740000Y39019240D03*
G04 #@! TO.P,D22,3,AK*
G04 #@! TO.N,Net-(D22-AK)*
X-46690000Y41018220D03*
G04 #@! TD*
D12*
G04 #@! TO.P,C17,1*
G04 #@! TO.N,+3V3*
X-36686285Y66056678D03*
G04 #@! TO.P,C17,2*
G04 #@! TO.N,GND*
X-37656285Y66056678D03*
G04 #@! TD*
D13*
G04 #@! TO.P,R80,1*
G04 #@! TO.N,+3V3*
X-36721433Y87050078D03*
G04 #@! TO.P,R80,2*
G04 #@! TO.N,/D17*
X-35021433Y87050078D03*
G04 #@! TD*
D12*
G04 #@! TO.P,C64,1*
G04 #@! TO.N,-12VA*
X-49270000Y44640000D03*
G04 #@! TO.P,C64,2*
G04 #@! TO.N,GND*
X-50240000Y44640000D03*
G04 #@! TD*
D19*
G04 #@! TO.P,C76,1*
G04 #@! TO.N,-12VA*
X-24631648Y27635078D03*
G04 #@! TO.P,C76,2*
G04 #@! TO.N,GND*
X-24631648Y26665078D03*
G04 #@! TD*
D13*
G04 #@! TO.P,C42,1*
G04 #@! TO.N,GND*
X-4620000Y39180000D03*
G04 #@! TO.P,C42,2*
G04 #@! TO.N,Net-(U15B-+)*
X-6320000Y39180000D03*
G04 #@! TD*
D18*
G04 #@! TO.P,U10,1*
G04 #@! TO.N,Net-(U10A--)*
X-28164785Y30465000D03*
G04 #@! TO.P,U10,2,-*
X-28164785Y31115000D03*
G04 #@! TO.P,U10,3,+*
G04 #@! TO.N,Net-(D1-AK)*
X-28164785Y31765000D03*
G04 #@! TO.P,U10,4,V-*
G04 #@! TO.N,-12VA*
X-28164785Y32415000D03*
G04 #@! TO.P,U10,5,+*
G04 #@! TO.N,Net-(D24-AK)*
X-34064785Y32415000D03*
G04 #@! TO.P,U10,6,-*
G04 #@! TO.N,Net-(U10B--)*
X-34064785Y31765000D03*
G04 #@! TO.P,U10,7*
X-34064785Y31115000D03*
G04 #@! TO.P,U10,8,V+*
G04 #@! TO.N,+12V*
X-34064785Y30465000D03*
G04 #@! TD*
D12*
G04 #@! TO.P,C150,1*
G04 #@! TO.N,GNDA*
X-10277816Y9800078D03*
G04 #@! TO.P,C150,2*
G04 #@! TO.N,Net-(U12A-+)*
X-11247816Y9800078D03*
G04 #@! TD*
D21*
G04 #@! TO.P,R2,1*
G04 #@! TO.N,Net-(U10A--)*
X-27339785Y28940000D03*
G04 #@! TO.P,R2,2*
G04 #@! TO.N,/A0*
X-26369785Y28940000D03*
G04 #@! TD*
D12*
G04 #@! TO.P,R50,1*
G04 #@! TO.N,Net-(C48-Pad1)*
X-21311648Y18550078D03*
G04 #@! TO.P,R50,2*
G04 #@! TO.N,Net-(U11B--)*
X-22281648Y18550078D03*
G04 #@! TD*
G04 #@! TO.P,R152,1*
G04 #@! TO.N,Net-(J16-SIG)*
X-17288296Y3600156D03*
G04 #@! TO.P,R152,2*
G04 #@! TO.N,Net-(C147-Pad1)*
X-18258296Y3600156D03*
G04 #@! TD*
D28*
G04 #@! TO.P,J3,1,Pin_1*
G04 #@! TO.N,+3V3*
X-2090000Y77680000D03*
D26*
G04 #@! TO.P,J3,2,Pin_2*
G04 #@! TO.N,/SWDCLK*
X-2090000Y75140000D03*
G04 #@! TO.P,J3,3,Pin_3*
G04 #@! TO.N,GND*
X-2090000Y72600000D03*
G04 #@! TO.P,J3,4,Pin_4*
G04 #@! TO.N,/SWDIO*
X-2090000Y70060000D03*
G04 #@! TD*
D21*
G04 #@! TO.P,R11,1*
G04 #@! TO.N,Net-(POT_PITCH1-Center)*
X-14343352Y64278158D03*
G04 #@! TO.P,R11,2*
G04 #@! TO.N,Net-(U1B-+)*
X-13373352Y64278158D03*
G04 #@! TD*
D29*
G04 #@! TO.P,U13,1,GND*
G04 #@! TO.N,GND*
X-47170000Y52710000D03*
G04 #@! TO.P,U13,2,SW*
G04 #@! TO.N,Net-(U13-SW)*
X-47170000Y51760000D03*
G04 #@! TO.P,U13,3,IN*
G04 #@! TO.N,Net-(JP2-B)*
X-47170000Y50810000D03*
G04 #@! TO.P,U13,4,FB*
G04 #@! TO.N,Net-(U13-FB)*
X-44550000Y50810000D03*
G04 #@! TO.P,U13,5,EN*
G04 #@! TO.N,Net-(U13-EN)*
X-44550000Y51760000D03*
G04 #@! TO.P,U13,6,BST*
G04 #@! TO.N,Net-(U13-BST)*
X-44550000Y52710000D03*
G04 #@! TD*
D13*
G04 #@! TO.P,R20,1*
G04 #@! TO.N,Net-(J7-SIG)*
X-44830000Y42820000D03*
G04 #@! TO.P,R20,2*
G04 #@! TO.N,Net-(R20-Pad2)*
X-46530000Y42820000D03*
G04 #@! TD*
G04 #@! TO.P,C51,1*
G04 #@! TO.N,+5V*
X-5308005Y25817500D03*
G04 #@! TO.P,C51,2*
G04 #@! TO.N,GNDA*
X-3608005Y25817500D03*
G04 #@! TD*
D21*
G04 #@! TO.P,R51,1*
G04 #@! TO.N,Net-(U11B--)*
X-22401648Y17280078D03*
G04 #@! TO.P,R51,2*
G04 #@! TO.N,Net-(C52-Pad1)*
X-21431648Y17280078D03*
G04 #@! TD*
D23*
G04 #@! TO.P,JP11,1,A*
G04 #@! TO.N,+12V*
X-56081648Y68529718D03*
G04 #@! TO.P,JP11,2,B*
G04 #@! TO.N,Net-(JP11-B)*
X-56081648Y67988918D03*
G04 #@! TD*
D30*
G04 #@! TO.P,U2,A1,PE3*
G04 #@! TO.N,/SAI_SD_B*
X-34751285Y68166678D03*
G04 #@! TO.P,U2,A2,PE2*
G04 #@! TO.N,/SAI_MCLK*
X-34101285Y68166678D03*
G04 #@! TO.P,U2,A3,PE1*
G04 #@! TO.N,/SD-NBL1*
X-33451285Y68166678D03*
G04 #@! TO.P,U2,A4,PE0*
G04 #@! TO.N,/SD-NBL0*
X-32801285Y68166678D03*
G04 #@! TO.P,U2,A5,PB8*
G04 #@! TO.N,/I2C1_SCL*
X-32151285Y68166678D03*
G04 #@! TO.P,U2,A6,PB5*
G04 #@! TO.N,/SD-CKE1*
X-31501285Y68166678D03*
G04 #@! TO.P,U2,A7,PG14*
G04 #@! TO.N,unconnected-(U2A-PG14-PadA7)*
X-30851285Y68166678D03*
G04 #@! TO.P,U2,A8,PG13*
G04 #@! TO.N,unconnected-(U2A-PG13-PadA8)*
X-30201285Y68166678D03*
G04 #@! TO.P,U2,A9,PB4*
G04 #@! TO.N,/DEBUG3*
X-29551285Y68166678D03*
G04 #@! TO.P,U2,A10,PB3*
G04 #@! TO.N,/CODEC_RESET*
X-28901285Y68166678D03*
G04 #@! TO.P,U2,A11,PD7*
G04 #@! TO.N,unconnected-(U2A-PD7-PadA11)*
X-28251285Y68166678D03*
G04 #@! TO.P,U2,A12,PC12*
G04 #@! TO.N,/D9*
X-27601285Y68166678D03*
G04 #@! TO.P,U2,A13,PA15*
G04 #@! TO.N,/D0*
X-26951285Y68166678D03*
G04 #@! TO.P,U2,A14,PA14*
G04 #@! TO.N,/SWDCLK*
X-26301285Y68166678D03*
G04 #@! TO.P,U2,A15,PA13*
G04 #@! TO.N,/SWDIO*
X-25651285Y68166678D03*
G04 #@! TO.P,U2,B1,PE4*
G04 #@! TO.N,/SAI_FS*
X-34751285Y67516678D03*
G04 #@! TO.P,U2,B2,PE5*
G04 #@! TO.N,/SAI_SCK*
X-34101285Y67516678D03*
G04 #@! TO.P,U2,B3,PE6*
G04 #@! TO.N,/SAI_SD_A*
X-33451285Y67516678D03*
G04 #@! TO.P,U2,B4,PB9*
G04 #@! TO.N,/I2C1_SDA*
X-32801285Y67516678D03*
G04 #@! TO.P,U2,B5,PB7*
G04 #@! TO.N,unconnected-(U2A-PB7-PadB5)*
X-32151285Y67516678D03*
G04 #@! TO.P,U2,B6,PB6*
G04 #@! TO.N,unconnected-(U2A-PB6-PadB6)*
X-31501285Y67516678D03*
G04 #@! TO.P,U2,B7,PG15*
G04 #@! TO.N,/SD-NCAS*
X-30851285Y67516678D03*
G04 #@! TO.P,U2,B8,PG12*
G04 #@! TO.N,unconnected-(U2A-PG12-PadB8)*
X-30201285Y67516678D03*
G04 #@! TO.P,U2,B9,PG11*
G04 #@! TO.N,unconnected-(U2A-PG11-PadB9)*
X-29551285Y67516678D03*
G04 #@! TO.P,U2,B10,PG10*
G04 #@! TO.N,unconnected-(U2A-PG10-PadB10)*
X-28901285Y67516678D03*
G04 #@! TO.P,U2,B11,PD6*
G04 #@! TO.N,unconnected-(U2A-PD6-PadB11)*
X-28251285Y67516678D03*
G04 #@! TO.P,U2,B12,PD0*
G04 #@! TO.N,/SD-D2*
X-27601285Y67516678D03*
G04 #@! TO.P,U2,B13,PC11*
G04 #@! TO.N,/D19*
X-26951285Y67516678D03*
G04 #@! TO.P,U2,B14,PC10*
G04 #@! TO.N,/D18*
X-26301285Y67516678D03*
G04 #@! TO.P,U2,B15,PA12*
G04 #@! TO.N,unconnected-(U2A-PA12-PadB15)*
X-25651285Y67516678D03*
G04 #@! TO.P,U2,C1,VBAT*
G04 #@! TO.N,unconnected-(U2B-VBAT-PadC1)*
X-34751285Y66866678D03*
G04 #@! TO.P,U2,C2,PI7*
G04 #@! TO.N,/D1*
X-34101285Y66866678D03*
G04 #@! TO.P,U2,C3,PI6*
G04 #@! TO.N,unconnected-(U2A-PI6-PadC3)*
X-33451285Y66866678D03*
G04 #@! TO.P,U2,C4,PI5*
G04 #@! TO.N,/DEBUG2*
X-32801285Y66866678D03*
G04 #@! TO.P,U2,C5,VDD*
G04 #@! TO.N,+3V3*
X-32151285Y66866678D03*
G04 #@! TO.P,U2,C6,PDR_ON*
X-31501285Y66866678D03*
G04 #@! TO.P,U2,C7,VDD*
X-30851285Y66866678D03*
G04 #@! TO.P,U2,C8,VDDSDMMC*
X-30201285Y66866678D03*
G04 #@! TO.P,U2,C9,VDD*
X-29551285Y66866678D03*
G04 #@! TO.P,U2,C10,PG9*
G04 #@! TO.N,unconnected-(U2A-PG9-PadC10)*
X-28901285Y66866678D03*
G04 #@! TO.P,U2,C11,PD5*
G04 #@! TO.N,unconnected-(U2A-PD5-PadC11)*
X-28251285Y66866678D03*
G04 #@! TO.P,U2,C12,PD1*
G04 #@! TO.N,/SD-D3*
X-27601285Y66866678D03*
G04 #@! TO.P,U2,C13,PI3*
G04 #@! TO.N,unconnected-(U2A-PI3-PadC13)*
X-26951285Y66866678D03*
G04 #@! TO.P,U2,C14,PI2*
G04 #@! TO.N,/D3*
X-26301285Y66866678D03*
G04 #@! TO.P,U2,C15,PA11*
G04 #@! TO.N,unconnected-(U2A-PA11-PadC15)*
X-25651285Y66866678D03*
G04 #@! TO.P,U2,D1,PC13*
G04 #@! TO.N,unconnected-(U2A-PC13-PadD1)*
X-34751285Y66216678D03*
G04 #@! TO.P,U2,D2,PI8*
G04 #@! TO.N,unconnected-(U2A-PI8-PadD2)*
X-34101285Y66216678D03*
G04 #@! TO.P,U2,D3,PI9*
G04 #@! TO.N,unconnected-(U2A-PI9-PadD3)*
X-33451285Y66216678D03*
G04 #@! TO.P,U2,D4,PI4*
G04 #@! TO.N,unconnected-(U2A-PI4-PadD4)*
X-32801285Y66216678D03*
G04 #@! TO.P,U2,D5,VSS*
G04 #@! TO.N,GND*
X-32151285Y66216678D03*
G04 #@! TO.P,U2,D6,BOOT*
G04 #@! TO.N,/BOOT0*
X-31501285Y66216678D03*
G04 #@! TO.P,U2,D7,VSS*
G04 #@! TO.N,GND*
X-30851285Y66216678D03*
G04 #@! TO.P,U2,D8,VSS*
X-30201285Y66216678D03*
G04 #@! TO.P,U2,D9,VSS*
X-29551285Y66216678D03*
G04 #@! TO.P,U2,D10,PD4*
G04 #@! TO.N,unconnected-(U2A-PD4-PadD10)*
X-28901285Y66216678D03*
G04 #@! TO.P,U2,D11,PD3*
G04 #@! TO.N,unconnected-(U2A-PD3-PadD11)*
X-28251285Y66216678D03*
G04 #@! TO.P,U2,D12,PD2*
G04 #@! TO.N,/D4*
X-27601285Y66216678D03*
G04 #@! TO.P,U2,D13,PH15*
G04 #@! TO.N,unconnected-(U2A-PH15-PadD13)*
X-26951285Y66216678D03*
G04 #@! TO.P,U2,D14,PI1*
G04 #@! TO.N,unconnected-(U2A-PI1-PadD14)*
X-26301285Y66216678D03*
G04 #@! TO.P,U2,D15,PA10*
G04 #@! TO.N,unconnected-(U2A-PA10-PadD15)*
X-25651285Y66216678D03*
G04 #@! TO.P,U2,E1,PC14*
G04 #@! TO.N,unconnected-(U2A-PC14-PadE1)*
X-34751285Y65566678D03*
G04 #@! TO.P,U2,E2,PF0*
G04 #@! TO.N,/SD-A0*
X-34101285Y65566678D03*
G04 #@! TO.P,U2,E3,PI10*
G04 #@! TO.N,unconnected-(U2A-PI10-PadE3)*
X-33451285Y65566678D03*
G04 #@! TO.P,U2,E4,PI11*
G04 #@! TO.N,unconnected-(U2A-PI11-PadE4)*
X-32801285Y65566678D03*
G04 #@! TO.P,U2,E12,PH13*
G04 #@! TO.N,unconnected-(U2A-PH13-PadE12)*
X-27601285Y65566678D03*
G04 #@! TO.P,U2,E13,PH14*
G04 #@! TO.N,unconnected-(U2A-PH14-PadE13)*
X-26951285Y65566678D03*
G04 #@! TO.P,U2,E14,PI0*
G04 #@! TO.N,/D5*
X-26301285Y65566678D03*
G04 #@! TO.P,U2,E15,PA9*
G04 #@! TO.N,unconnected-(U2A-PA9-PadE15)*
X-25651285Y65566678D03*
G04 #@! TO.P,U2,F1,PC15*
G04 #@! TO.N,unconnected-(U2A-PC15-PadF1)*
X-34751285Y64916678D03*
G04 #@! TO.P,U2,F2,VSS*
G04 #@! TO.N,GND*
X-34101285Y64916678D03*
G04 #@! TO.P,U2,F3,VDD*
G04 #@! TO.N,+3V3*
X-33451285Y64916678D03*
G04 #@! TO.P,U2,F4,PH2*
G04 #@! TO.N,unconnected-(U2A-PH2-PadF4)*
X-32801285Y64916678D03*
G04 #@! TO.P,U2,F6,VSS*
G04 #@! TO.N,GND*
X-31501285Y64916678D03*
G04 #@! TO.P,U2,F7,VSS*
X-30851285Y64916678D03*
G04 #@! TO.P,U2,F8,VSS*
X-30201285Y64916678D03*
G04 #@! TO.P,U2,F9,VSS*
X-29551285Y64916678D03*
G04 #@! TO.P,U2,F10,VSS*
X-28901285Y64916678D03*
G04 #@! TO.P,U2,F12,VSS*
X-27601285Y64916678D03*
G04 #@! TO.P,U2,F13,VCAP_2*
G04 #@! TO.N,Net-(U2B-VCAP_2)*
X-26951285Y64916678D03*
G04 #@! TO.P,U2,F14,PC9*
G04 #@! TO.N,/D17*
X-26301285Y64916678D03*
G04 #@! TO.P,U2,F15,PA8*
G04 #@! TO.N,/D12*
X-25651285Y64916678D03*
G04 #@! TO.P,U2,G1,PH0*
G04 #@! TO.N,/OSC_IN*
X-34751285Y64266678D03*
G04 #@! TO.P,U2,G2,VSS*
G04 #@! TO.N,GND*
X-34101285Y64266678D03*
G04 #@! TO.P,U2,G3,VDD*
G04 #@! TO.N,+3V3*
X-33451285Y64266678D03*
G04 #@! TO.P,U2,G4,PH3*
G04 #@! TO.N,unconnected-(U2A-PH3-PadG4)*
X-32801285Y64266678D03*
G04 #@! TO.P,U2,G6,VSS*
G04 #@! TO.N,GND*
X-31501285Y64266678D03*
G04 #@! TO.P,U2,G7,VSS*
X-30851285Y64266678D03*
G04 #@! TO.P,U2,G8,VSS*
X-30201285Y64266678D03*
G04 #@! TO.P,U2,G9,VSS*
X-29551285Y64266678D03*
G04 #@! TO.P,U2,G10,VSS*
X-28901285Y64266678D03*
G04 #@! TO.P,U2,G12,VSS*
X-27601285Y64266678D03*
G04 #@! TO.P,U2,G13,VDD*
G04 #@! TO.N,+3V3*
X-26951285Y64266678D03*
G04 #@! TO.P,U2,G14,PC8*
G04 #@! TO.N,/D16*
X-26301285Y64266678D03*
G04 #@! TO.P,U2,G15,PC7*
G04 #@! TO.N,/D2*
X-25651285Y64266678D03*
G04 #@! TO.P,U2,H1,PH1*
G04 #@! TO.N,/OSC_OUT*
X-34751285Y63616678D03*
G04 #@! TO.P,U2,H2,PF2*
G04 #@! TO.N,/SD-A2*
X-34101285Y63616678D03*
G04 #@! TO.P,U2,H3,PF1*
G04 #@! TO.N,/SD-A1*
X-33451285Y63616678D03*
G04 #@! TO.P,U2,H4,PH4*
G04 #@! TO.N,unconnected-(U2A-PH4-PadH4)*
X-32801285Y63616678D03*
G04 #@! TO.P,U2,H6,VSS*
G04 #@! TO.N,GND*
X-31501285Y63616678D03*
G04 #@! TO.P,U2,H7,VSS*
X-30851285Y63616678D03*
G04 #@! TO.P,U2,H8,VSS*
X-30201285Y63616678D03*
G04 #@! TO.P,U2,H9,VSS*
X-29551285Y63616678D03*
G04 #@! TO.P,U2,H10,VSS*
X-28901285Y63616678D03*
G04 #@! TO.P,U2,H12,VSS*
X-27601285Y63616678D03*
G04 #@! TO.P,U2,H13,VDDUSB*
G04 #@! TO.N,+3V3*
X-26951285Y63616678D03*
G04 #@! TO.P,U2,H14,PG8*
G04 #@! TO.N,/SD-CLK*
X-26301285Y63616678D03*
G04 #@! TO.P,U2,H15,PC6*
G04 #@! TO.N,/D14*
X-25651285Y63616678D03*
G04 #@! TO.P,U2,J1,NRST*
G04 #@! TO.N,/NRST*
X-34751285Y62966678D03*
G04 #@! TO.P,U2,J2,PF3*
G04 #@! TO.N,/SD-A3*
X-34101285Y62966678D03*
G04 #@! TO.P,U2,J3,PF4*
G04 #@! TO.N,/SD-A4*
X-33451285Y62966678D03*
G04 #@! TO.P,U2,J4,PH5*
G04 #@! TO.N,/SD-NWE*
X-32801285Y62966678D03*
G04 #@! TO.P,U2,J6,VSS*
G04 #@! TO.N,GND*
X-31501285Y62966678D03*
G04 #@! TO.P,U2,J7,VSS*
X-30851285Y62966678D03*
G04 #@! TO.P,U2,J8,VSS*
X-30201285Y62966678D03*
G04 #@! TO.P,U2,J9,VSS*
X-29551285Y62966678D03*
G04 #@! TO.P,U2,J10,VSS*
X-28901285Y62966678D03*
G04 #@! TO.P,U2,J12,VDD*
G04 #@! TO.N,+3V3*
X-27601285Y62966678D03*
G04 #@! TO.P,U2,J13,VDD*
X-26951285Y62966678D03*
G04 #@! TO.P,U2,J14,VDD12OTGHS*
G04 #@! TO.N,Net-(U2B-VDD12OTGHS)*
X-26301285Y62966678D03*
G04 #@! TO.P,U2,J15,OTG_HR_REXT*
G04 #@! TO.N,Net-(U2B-OTG_HR_REXT)*
X-25651285Y62966678D03*
G04 #@! TO.P,U2,K1,PF7*
G04 #@! TO.N,/UART_TX*
X-34751285Y62316678D03*
G04 #@! TO.P,U2,K2,PF6*
G04 #@! TO.N,/UART_RX*
X-34101285Y62316678D03*
G04 #@! TO.P,U2,K3,PF5*
G04 #@! TO.N,/SD-A5*
X-33451285Y62316678D03*
G04 #@! TO.P,U2,K4,VDD*
G04 #@! TO.N,+3V3*
X-32801285Y62316678D03*
G04 #@! TO.P,U2,K6,VSS*
G04 #@! TO.N,GND*
X-31501285Y62316678D03*
G04 #@! TO.P,U2,K7,VSS*
X-30851285Y62316678D03*
G04 #@! TO.P,U2,K8,VSS*
X-30201285Y62316678D03*
G04 #@! TO.P,U2,K9,VSS*
X-29551285Y62316678D03*
G04 #@! TO.P,U2,K10,VSS*
X-28901285Y62316678D03*
G04 #@! TO.P,U2,K12,PH12*
G04 #@! TO.N,/D15*
X-27601285Y62316678D03*
G04 #@! TO.P,U2,K13,PG5*
G04 #@! TO.N,/SD-BA1*
X-26951285Y62316678D03*
G04 #@! TO.P,U2,K14,PG4*
G04 #@! TO.N,/SD-BA0*
X-26301285Y62316678D03*
G04 #@! TO.P,U2,K15,PG3*
G04 #@! TO.N,unconnected-(U2A-PG3-PadK15)*
X-25651285Y62316678D03*
G04 #@! TO.P,U2,L1,PF10*
G04 #@! TO.N,unconnected-(U2A-PF10-PadL1)*
X-34751285Y61666678D03*
G04 #@! TO.P,U2,L2,PF9*
G04 #@! TO.N,unconnected-(U2A-PF9-PadL2)*
X-34101285Y61666678D03*
G04 #@! TO.P,U2,L3,PF8*
G04 #@! TO.N,unconnected-(U2A-PF8-PadL3)*
X-33451285Y61666678D03*
G04 #@! TO.P,U2,L4,BYPASS_REG*
G04 #@! TO.N,unconnected-(U2B-BYPASS_REG-PadL4)*
X-32801285Y61666678D03*
G04 #@! TO.P,U2,L12,PH11*
G04 #@! TO.N,/D13*
X-27601285Y61666678D03*
G04 #@! TO.P,U2,L13,PH10*
G04 #@! TO.N,unconnected-(U2A-PH10-PadL13)*
X-26951285Y61666678D03*
G04 #@! TO.P,U2,L14,PD15*
G04 #@! TO.N,/SD-D1*
X-26301285Y61666678D03*
G04 #@! TO.P,U2,L15,PG2*
G04 #@! TO.N,/SD-A12*
X-25651285Y61666678D03*
G04 #@! TO.P,U2,M1,VSSA*
G04 #@! TO.N,GND*
X-34751285Y61016678D03*
G04 #@! TO.P,U2,M2,PC0*
G04 #@! TO.N,/A3*
X-34101285Y61016678D03*
G04 #@! TO.P,U2,M3,PC1*
G04 #@! TO.N,/A8*
X-33451285Y61016678D03*
G04 #@! TO.P,U2,M4,PC2*
G04 #@! TO.N,unconnected-(U2A-PC2-PadM4)*
X-32801285Y61016678D03*
G04 #@! TO.P,U2,M5,PC3*
G04 #@! TO.N,unconnected-(U2A-PC3-PadM5)*
X-32151285Y61016678D03*
G04 #@! TO.P,U2,M6,PB2*
G04 #@! TO.N,unconnected-(U2A-PB2-PadM6)*
X-31501285Y61016678D03*
G04 #@! TO.P,U2,M7,PG1*
G04 #@! TO.N,/SD-A11*
X-30851285Y61016678D03*
G04 #@! TO.P,U2,M8,VSS*
G04 #@! TO.N,GND*
X-30201285Y61016678D03*
G04 #@! TO.P,U2,M9,VSS*
X-29551285Y61016678D03*
G04 #@! TO.P,U2,M10,VCAP_1*
G04 #@! TO.N,Net-(U2B-VCAP_1)*
X-28901285Y61016678D03*
G04 #@! TO.P,U2,M11,PH6*
G04 #@! TO.N,/SD-NE1*
X-28251285Y61016678D03*
G04 #@! TO.P,U2,M12,PH8*
G04 #@! TO.N,unconnected-(U2A-PH8-PadM12)*
X-27601285Y61016678D03*
G04 #@! TO.P,U2,M13,PH9*
G04 #@! TO.N,unconnected-(U2A-PH9-PadM13)*
X-26951285Y61016678D03*
G04 #@! TO.P,U2,M14,PD14*
G04 #@! TO.N,/SD-D0*
X-26301285Y61016678D03*
G04 #@! TO.P,U2,M15,PD13*
G04 #@! TO.N,/D11*
X-25651285Y61016678D03*
G04 #@! TO.P,U2,N1,VREF-*
G04 #@! TO.N,GNDADC*
X-34751285Y60366678D03*
G04 #@! TO.P,U2,N2,PA1*
G04 #@! TO.N,/A7*
X-34101285Y60366678D03*
G04 #@! TO.P,U2,N3,PA0*
G04 #@! TO.N,/A6*
X-33451285Y60366678D03*
G04 #@! TO.P,U2,N4,PA4*
G04 #@! TO.N,/A0*
X-32801285Y60366678D03*
G04 #@! TO.P,U2,N5,PC4*
G04 #@! TO.N,unconnected-(U2A-PC4-PadN5)*
X-32151285Y60366678D03*
G04 #@! TO.P,U2,N6,PF13*
G04 #@! TO.N,/SD-A7*
X-31501285Y60366678D03*
G04 #@! TO.P,U2,N7,PG0*
G04 #@! TO.N,/SD-A10*
X-30851285Y60366678D03*
G04 #@! TO.P,U2,N8,VDD*
G04 #@! TO.N,+3V3*
X-30201285Y60366678D03*
G04 #@! TO.P,U2,N9,VDD*
X-29551285Y60366678D03*
G04 #@! TO.P,U2,N10,VDD*
X-28901285Y60366678D03*
G04 #@! TO.P,U2,N11,PE13*
G04 #@! TO.N,/SD-D10*
X-28251285Y60366678D03*
G04 #@! TO.P,U2,N12,PH7*
G04 #@! TO.N,unconnected-(U2A-PH7-PadN12)*
X-27601285Y60366678D03*
G04 #@! TO.P,U2,N13,PD12*
G04 #@! TO.N,unconnected-(U2A-PD12-PadN13)*
X-26951285Y60366678D03*
G04 #@! TO.P,U2,N14,PD11*
G04 #@! TO.N,unconnected-(U2A-PD11-PadN14)*
X-26301285Y60366678D03*
G04 #@! TO.P,U2,N15,PD10*
G04 #@! TO.N,/SD-D15*
X-25651285Y60366678D03*
G04 #@! TO.P,U2,P1,VREF+*
G04 #@! TO.N,VREF+*
X-34751285Y59716678D03*
G04 #@! TO.P,U2,P2,PA2*
G04 #@! TO.N,/A2*
X-34101285Y59716678D03*
G04 #@! TO.P,U2,P3,PA6*
G04 #@! TO.N,/A5*
X-33451285Y59716678D03*
G04 #@! TO.P,U2,P4,PA5*
G04 #@! TO.N,/A1*
X-32801285Y59716678D03*
G04 #@! TO.P,U2,P5,PC5*
G04 #@! TO.N,unconnected-(U2A-PC5-PadP5)*
X-32151285Y59716678D03*
G04 #@! TO.P,U2,P6,PF12*
G04 #@! TO.N,/SD-A6*
X-31501285Y59716678D03*
G04 #@! TO.P,U2,P7,PF15*
G04 #@! TO.N,/SD-A9*
X-30851285Y59716678D03*
G04 #@! TO.P,U2,P8,PE8*
G04 #@! TO.N,/SD-D5*
X-30201285Y59716678D03*
G04 #@! TO.P,U2,P9,PE9*
G04 #@! TO.N,/SD-D6*
X-29551285Y59716678D03*
G04 #@! TO.P,U2,P10,PE11*
G04 #@! TO.N,/SD-D8*
X-28901285Y59716678D03*
G04 #@! TO.P,U2,P11,PE14*
G04 #@! TO.N,/SD-D11*
X-28251285Y59716678D03*
G04 #@! TO.P,U2,P12,PB12*
G04 #@! TO.N,unconnected-(U2A-PB12-PadP12)*
X-27601285Y59716678D03*
G04 #@! TO.P,U2,P13,PB13*
G04 #@! TO.N,unconnected-(U2A-PB13-PadP13)*
X-26951285Y59716678D03*
G04 #@! TO.P,U2,P14,PD9*
G04 #@! TO.N,/SD-D14*
X-26301285Y59716678D03*
G04 #@! TO.P,U2,P15,PD8*
G04 #@! TO.N,/SD-D13*
X-25651285Y59716678D03*
G04 #@! TO.P,U2,R1,VDDA*
G04 #@! TO.N,+3.3VADC*
X-34751285Y59066678D03*
G04 #@! TO.P,U2,R2,PA3*
G04 #@! TO.N,/A9*
X-34101285Y59066678D03*
G04 #@! TO.P,U2,R3,PA7*
G04 #@! TO.N,/A4*
X-33451285Y59066678D03*
G04 #@! TO.P,U2,R4,PB1*
G04 #@! TO.N,unconnected-(U2A-PB1-PadR4)*
X-32801285Y59066678D03*
G04 #@! TO.P,U2,R5,PB0*
G04 #@! TO.N,unconnected-(U2A-PB0-PadR5)*
X-32151285Y59066678D03*
G04 #@! TO.P,U2,R6,PF11*
G04 #@! TO.N,/SD-NRAS*
X-31501285Y59066678D03*
G04 #@! TO.P,U2,R7,PF14*
G04 #@! TO.N,/SD-A8*
X-30851285Y59066678D03*
G04 #@! TO.P,U2,R8,PE7*
G04 #@! TO.N,/SD-D4*
X-30201285Y59066678D03*
G04 #@! TO.P,U2,R9,PE10*
G04 #@! TO.N,/SD-D7*
X-29551285Y59066678D03*
G04 #@! TO.P,U2,R10,PE12*
G04 #@! TO.N,/SD-D9*
X-28901285Y59066678D03*
G04 #@! TO.P,U2,R11,PE15*
G04 #@! TO.N,/SD-D12*
X-28251285Y59066678D03*
G04 #@! TO.P,U2,R12,PB10*
G04 #@! TO.N,/D6*
X-27601285Y59066678D03*
G04 #@! TO.P,U2,R13,PB11*
G04 #@! TO.N,/D10*
X-26951285Y59066678D03*
G04 #@! TO.P,U2,R14,PB14*
G04 #@! TO.N,/D7*
X-26301285Y59066678D03*
G04 #@! TO.P,U2,R15,PB15*
G04 #@! TO.N,/D8*
X-25651285Y59066678D03*
G04 #@! TD*
D31*
G04 #@! TO.P,U11,1*
G04 #@! TO.N,Net-(U11A--)*
X-21096648Y27680078D03*
G04 #@! TO.P,U11,2,-*
X-21746648Y27680078D03*
G04 #@! TO.P,U11,3,+*
G04 #@! TO.N,Net-(U11A-+)*
X-22396648Y27680078D03*
G04 #@! TO.P,U11,4,V-*
G04 #@! TO.N,-12VA*
X-23046648Y27680078D03*
G04 #@! TO.P,U11,5,+*
G04 #@! TO.N,/VCOM*
X-23046648Y21780078D03*
G04 #@! TO.P,U11,6,-*
G04 #@! TO.N,Net-(U11B--)*
X-22396648Y21780078D03*
G04 #@! TO.P,U11,7*
G04 #@! TO.N,Net-(C48-Pad1)*
X-21746648Y21780078D03*
G04 #@! TO.P,U11,8,V+*
G04 #@! TO.N,+12V*
X-21096648Y21780078D03*
G04 #@! TD*
D14*
G04 #@! TO.P,R22,1*
G04 #@! TO.N,Net-(POT_LENGTH1-Center)*
X-42834785Y82430000D03*
G04 #@! TO.P,R22,2*
G04 #@! TO.N,Net-(U3B-+)*
X-42834785Y83400000D03*
G04 #@! TD*
G04 #@! TO.P,C3,1*
G04 #@! TO.N,+3V3*
X-29371285Y70391678D03*
G04 #@! TO.P,C3,2*
G04 #@! TO.N,GND*
X-29371285Y71361678D03*
G04 #@! TD*
D19*
G04 #@! TO.P,C38,1*
G04 #@! TO.N,+12V*
X-33079785Y8485000D03*
G04 #@! TO.P,C38,2*
G04 #@! TO.N,GND*
X-33079785Y7515000D03*
G04 #@! TD*
D18*
G04 #@! TO.P,U12,1*
G04 #@! TO.N,Net-(C149-Pad1)*
X-12766648Y7325078D03*
G04 #@! TO.P,U12,2,-*
G04 #@! TO.N,Net-(U12A--)*
X-12766648Y7975078D03*
G04 #@! TO.P,U12,3,+*
G04 #@! TO.N,Net-(U12A-+)*
X-12766648Y8625078D03*
G04 #@! TO.P,U12,4,V-*
G04 #@! TO.N,-12VA*
X-12766648Y9275078D03*
G04 #@! TO.P,U12,5,+*
G04 #@! TO.N,Net-(U12B-+)*
X-18666648Y9275078D03*
G04 #@! TO.P,U12,6,-*
G04 #@! TO.N,Net-(U12B--)*
X-18666648Y8625078D03*
G04 #@! TO.P,U12,7*
G04 #@! TO.N,Net-(C147-Pad1)*
X-18666648Y7975078D03*
G04 #@! TO.P,U12,8,V+*
G04 #@! TO.N,+12V*
X-18666648Y7325078D03*
G04 #@! TD*
D21*
G04 #@! TO.P,C72,1*
G04 #@! TO.N,-12VA*
X-11099785Y15214750D03*
G04 #@! TO.P,C72,2*
G04 #@! TO.N,GND*
X-10129785Y15214750D03*
G04 #@! TD*
D13*
G04 #@! TO.P,R24,1*
G04 #@! TO.N,GND*
X-38034785Y29940000D03*
G04 #@! TO.P,R24,2*
G04 #@! TO.N,Net-(R16-Pad2)*
X-38034785Y31640000D03*
G04 #@! TD*
G04 #@! TO.P,C52,1*
G04 #@! TO.N,Net-(C52-Pad1)*
X-18071648Y18380078D03*
G04 #@! TO.P,C52,2*
G04 #@! TO.N,Net-(U11A--)*
X-18071648Y20080078D03*
G04 #@! TD*
G04 #@! TO.P,R77,1*
G04 #@! TO.N,+3V3*
X-36721433Y79400078D03*
G04 #@! TO.P,R77,2*
G04 #@! TO.N,/D18*
X-35021433Y79400078D03*
G04 #@! TD*
G04 #@! TO.P,C58,1*
G04 #@! TO.N,Net-(U13-BST)*
X-43684000Y55664000D03*
G04 #@! TO.P,C58,2*
G04 #@! TO.N,Net-(U13-SW)*
X-43684000Y57364000D03*
G04 #@! TD*
D21*
G04 #@! TO.P,C9,1*
G04 #@! TO.N,+3V3*
X-23656285Y63386678D03*
G04 #@! TO.P,C9,2*
G04 #@! TO.N,GND*
X-22686285Y63386678D03*
G04 #@! TD*
G04 #@! TO.P,C29,1*
G04 #@! TO.N,+3V3*
X-27353400Y52946678D03*
G04 #@! TO.P,C29,2*
G04 #@! TO.N,GND*
X-26383400Y52946678D03*
G04 #@! TD*
D22*
G04 #@! TO.P,C21,1*
G04 #@! TO.N,+12V*
X-55101433Y32710078D03*
G04 #@! TO.P,C21,2*
G04 #@! TO.N,GND*
X-50701433Y32710078D03*
G04 #@! TD*
D14*
G04 #@! TO.P,C97,1*
G04 #@! TO.N,Net-(D15-AK)*
X-14753296Y55175156D03*
G04 #@! TO.P,C97,2*
G04 #@! TO.N,GND*
X-14753296Y56145156D03*
G04 #@! TD*
D13*
G04 #@! TO.P,R13,1*
G04 #@! TO.N,/D3*
X-47940000Y97370000D03*
G04 #@! TO.P,R13,2*
G04 #@! TO.N,Net-(REV_BUT1-B)*
X-49640000Y97370000D03*
G04 #@! TD*
G04 #@! TO.P,R26,1*
G04 #@! TO.N,GND*
X-44450000Y46310000D03*
G04 #@! TO.P,R26,2*
G04 #@! TO.N,Net-(R20-Pad2)*
X-44450000Y44610000D03*
G04 #@! TD*
D12*
G04 #@! TO.P,C18,1*
G04 #@! TO.N,+3V3*
X-36711285Y67116678D03*
G04 #@! TO.P,C18,2*
G04 #@! TO.N,GND*
X-37681285Y67116678D03*
G04 #@! TD*
D13*
G04 #@! TO.P,R31,1*
G04 #@! TO.N,GND*
X-47651433Y31010078D03*
G04 #@! TO.P,R31,2*
G04 #@! TO.N,Net-(Q11-G)*
X-47651433Y32710078D03*
G04 #@! TD*
G04 #@! TO.P,C54,1*
G04 #@! TO.N,/D12*
X-36770000Y104680000D03*
G04 #@! TO.P,C54,2*
G04 #@! TO.N,GND*
X-35070000Y104680000D03*
G04 #@! TD*
D19*
G04 #@! TO.P,C10,1*
G04 #@! TO.N,+3V3*
X-27341285Y57111678D03*
G04 #@! TO.P,C10,2*
G04 #@! TO.N,GND*
X-27341285Y56141678D03*
G04 #@! TD*
D12*
G04 #@! TO.P,R33,1*
G04 #@! TO.N,Net-(R17-Pad2)*
X-53695000Y44600000D03*
G04 #@! TO.P,R33,2*
G04 #@! TO.N,Net-(D26-AK)*
X-54665000Y44600000D03*
G04 #@! TD*
D13*
G04 #@! TO.P,R63,1*
G04 #@! TO.N,Net-(C84-Pad2)*
X-33009785Y10020000D03*
G04 #@! TO.P,R63,2*
G04 #@! TO.N,Net-(J15-SIG)*
X-33009785Y11720000D03*
G04 #@! TD*
D31*
G04 #@! TO.P,U16,1*
G04 #@! TO.N,Net-(U16A--)*
X-31504785Y2160000D03*
G04 #@! TO.P,U16,2,-*
X-30854785Y2160000D03*
G04 #@! TO.P,U16,3,+*
G04 #@! TO.N,GND*
X-30204785Y2160000D03*
G04 #@! TO.P,U16,4,V-*
G04 #@! TO.N,-12VA*
X-29554785Y2160000D03*
G04 #@! TO.P,U16,5,+*
G04 #@! TO.N,Net-(U16B-+)*
X-29554785Y8060000D03*
G04 #@! TO.P,U16,6,-*
G04 #@! TO.N,Net-(U16B--)*
X-30204785Y8060000D03*
G04 #@! TO.P,U16,7*
G04 #@! TO.N,Net-(C84-Pad2)*
X-30854785Y8060000D03*
G04 #@! TO.P,U16,8,V+*
G04 #@! TO.N,+12V*
X-31504785Y8060000D03*
G04 #@! TD*
D12*
G04 #@! TO.P,C19,1*
G04 #@! TO.N,/D2*
X-53279785Y7800000D03*
G04 #@! TO.P,C19,2*
G04 #@! TO.N,GND*
X-54249785Y7800000D03*
G04 #@! TD*
G04 #@! TO.P,R81,1*
G04 #@! TO.N,Net-(U10B--)*
X-35664785Y30670000D03*
G04 #@! TO.P,R81,2*
G04 #@! TO.N,/A5*
X-36634785Y30670000D03*
G04 #@! TD*
D21*
G04 #@! TO.P,C62,1*
G04 #@! TO.N,-12VA*
X-48429785Y86635000D03*
G04 #@! TO.P,C62,2*
G04 #@! TO.N,GND*
X-47459785Y86635000D03*
G04 #@! TD*
D19*
G04 #@! TO.P,R158,1*
G04 #@! TO.N,Net-(U12B--)*
X-20512816Y6805078D03*
G04 #@! TO.P,R158,2*
G04 #@! TO.N,Net-(C152-Pad1)*
X-20512816Y5835078D03*
G04 #@! TD*
D21*
G04 #@! TO.P,C14,1*
G04 #@! TO.N,+3V3*
X-23656285Y64426678D03*
G04 #@! TO.P,C14,2*
G04 #@! TO.N,GND*
X-22686285Y64426678D03*
G04 #@! TD*
D19*
G04 #@! TO.P,C152,1*
G04 #@! TO.N,Net-(C152-Pad1)*
X-20622816Y4715078D03*
G04 #@! TO.P,C152,2*
G04 #@! TO.N,Net-(C152-Pad2)*
X-20622816Y3745078D03*
G04 #@! TD*
D18*
G04 #@! TO.P,U1,1*
G04 #@! TO.N,Net-(U1A--)*
X-5806648Y62245078D03*
G04 #@! TO.P,U1,2,-*
X-5806648Y62895078D03*
G04 #@! TO.P,U1,3,+*
G04 #@! TO.N,Net-(U1A-+)*
X-5806648Y63545078D03*
G04 #@! TO.P,U1,4,V-*
G04 #@! TO.N,-12VA*
X-5806648Y64195078D03*
G04 #@! TO.P,U1,5,+*
G04 #@! TO.N,Net-(U1B-+)*
X-11706648Y64195078D03*
G04 #@! TO.P,U1,6,-*
G04 #@! TO.N,Net-(U1B--)*
X-11706648Y63545078D03*
G04 #@! TO.P,U1,7*
X-11706648Y62895078D03*
G04 #@! TO.P,U1,8,V+*
G04 #@! TO.N,+12V*
X-11706648Y62245078D03*
G04 #@! TD*
D13*
G04 #@! TO.P,R9,1*
G04 #@! TO.N,Net-(J8-SIG)*
X-19390000Y38490000D03*
G04 #@! TO.P,R9,2*
G04 #@! TO.N,Net-(U15A-+)*
X-19390000Y40190000D03*
G04 #@! TD*
G04 #@! TO.P,R64,1*
G04 #@! TO.N,/D5*
X-5610000Y97570000D03*
G04 #@! TO.P,R64,2*
G04 #@! TO.N,Net-(Bank_But1-B)*
X-7310000Y97570000D03*
G04 #@! TD*
D14*
G04 #@! TO.P,R67,1*
G04 #@! TO.N,Net-(U13-FB)*
X-43000155Y51845000D03*
G04 #@! TO.P,R67,2*
G04 #@! TO.N,GND*
X-43000155Y52815000D03*
G04 #@! TD*
D12*
G04 #@! TO.P,R4,1*
G04 #@! TO.N,GND*
X-22546285Y62156678D03*
G04 #@! TO.P,R4,2*
G04 #@! TO.N,Net-(U2B-OTG_HR_REXT)*
X-23516285Y62156678D03*
G04 #@! TD*
D17*
G04 #@! TO.P,V2,1,VI*
G04 #@! TO.N,Net-(JP3-B)*
X-50650000Y65639240D03*
G04 #@! TO.P,V2,2,VO*
G04 #@! TO.N,+3.3VADC*
X-48750000Y65639240D03*
G04 #@! TO.P,V2,3,GND*
G04 #@! TO.N,GNDADC*
X-49700000Y67638220D03*
G04 #@! TD*
D19*
G04 #@! TO.P,R27,1*
G04 #@! TO.N,Net-(R20-Pad2)*
X-48010000Y42485000D03*
G04 #@! TO.P,R27,2*
G04 #@! TO.N,Net-(D22-AK)*
X-48010000Y41515000D03*
G04 #@! TD*
D14*
G04 #@! TO.P,C7,1*
G04 #@! TO.N,+3V3*
X-32431285Y70371678D03*
G04 #@! TO.P,C7,2*
G04 #@! TO.N,GND*
X-32431285Y71341678D03*
G04 #@! TD*
D12*
G04 #@! TO.P,C78,1*
G04 #@! TO.N,-12VA*
X-15011648Y10780078D03*
G04 #@! TO.P,C78,2*
G04 #@! TO.N,GND*
X-15981648Y10780078D03*
G04 #@! TD*
D13*
G04 #@! TO.P,R35,1*
G04 #@! TO.N,/D10*
X-50740000Y107460000D03*
G04 #@! TO.P,R35,2*
G04 #@! TO.N,Net-(REV_BUT1-G)*
X-52440000Y107460000D03*
G04 #@! TD*
D19*
G04 #@! TO.P,R34,1*
G04 #@! TO.N,Net-(U5B--)*
X-57300000Y42045000D03*
G04 #@! TO.P,R34,2*
G04 #@! TO.N,/A4*
X-57300000Y41075000D03*
G04 #@! TD*
D13*
G04 #@! TO.P,R56,1*
G04 #@! TO.N,Net-(C46-Pad1)*
X-9700000Y40770000D03*
G04 #@! TO.P,R56,2*
G04 #@! TO.N,Net-(U15B--)*
X-8000000Y40770000D03*
G04 #@! TD*
D19*
G04 #@! TO.P,C85,1*
G04 #@! TO.N,Net-(D26-AK)*
X-57310000Y44505000D03*
G04 #@! TO.P,C85,2*
G04 #@! TO.N,GND*
X-57310000Y43535000D03*
G04 #@! TD*
D13*
G04 #@! TO.P,C48,1*
G04 #@! TO.N,Net-(C48-Pad1)*
X-20926648Y19910078D03*
G04 #@! TO.P,C48,2*
G04 #@! TO.N,Net-(U11B--)*
X-22626648Y19910078D03*
G04 #@! TD*
G04 #@! TO.P,R36,1*
G04 #@! TO.N,/A6*
X-57030000Y103950000D03*
G04 #@! TO.P,R36,2*
G04 #@! TO.N,Net-(REV_BUT1-POLE-A)*
X-57030000Y105650000D03*
G04 #@! TD*
D14*
G04 #@! TO.P,R159,1*
G04 #@! TO.N,Net-(U12B-+)*
X-20326648Y8805078D03*
G04 #@! TO.P,R159,2*
G04 #@! TO.N,Net-(C152-Pad2)*
X-20326648Y9775078D03*
G04 #@! TD*
G04 #@! TO.P,C50,1*
G04 #@! TO.N,+3V3*
X-30311285Y70371678D03*
G04 #@! TO.P,C50,2*
G04 #@! TO.N,GND*
X-30311285Y71341678D03*
G04 #@! TD*
D32*
G04 #@! TO.P,L1,1,1*
G04 #@! TO.N,Net-(U13-SW)*
X-45410000Y55970000D03*
G04 #@! TO.P,L1,2,2*
G04 #@! TO.N,+3V3*
X-48210000Y55970000D03*
G04 #@! TD*
D19*
G04 #@! TO.P,C12,1*
G04 #@! TO.N,+3V3*
X-29941285Y57101678D03*
G04 #@! TO.P,C12,2*
G04 #@! TO.N,GND*
X-29941285Y56131678D03*
G04 #@! TD*
D20*
G04 #@! TO.P,NT1,1,1*
G04 #@! TO.N,GNDA*
X-1831433Y27470078D03*
G04 #@! TO.P,NT1,2,2*
G04 #@! TO.N,GND*
X-1831433Y26470078D03*
G04 #@! TD*
D19*
G04 #@! TO.P,R6,1*
G04 #@! TO.N,/ROUT+*
X-18086648Y11745078D03*
G04 #@! TO.P,R6,2*
G04 #@! TO.N,Net-(C152-Pad1)*
X-18086648Y10775078D03*
G04 #@! TD*
D12*
G04 #@! TO.P,R8,1*
G04 #@! TO.N,GND*
X-29379785Y72360000D03*
G04 #@! TO.P,R8,2*
G04 #@! TO.N,/BOOT0*
X-30349785Y72360000D03*
G04 #@! TD*
D13*
G04 #@! TO.P,R60,1*
G04 #@! TO.N,/D15*
X-27764785Y6800000D03*
G04 #@! TO.P,R60,2*
G04 #@! TO.N,Net-(U16B-+)*
X-27764785Y5100000D03*
G04 #@! TD*
D18*
G04 #@! TO.P,U3,1*
G04 #@! TO.N,Net-(U3A--)*
X-50374785Y85085000D03*
G04 #@! TO.P,U3,2,-*
X-50374785Y84435000D03*
G04 #@! TO.P,U3,3,+*
G04 #@! TO.N,Net-(U3A-+)*
X-50374785Y83785000D03*
G04 #@! TO.P,U3,4,V-*
G04 #@! TO.N,-12VA*
X-50374785Y83135000D03*
G04 #@! TO.P,U3,5,+*
G04 #@! TO.N,Net-(U3B-+)*
X-44474785Y83135000D03*
G04 #@! TO.P,U3,6,-*
G04 #@! TO.N,Net-(U3B--)*
X-44474785Y83785000D03*
G04 #@! TO.P,U3,7*
X-44474785Y84435000D03*
G04 #@! TO.P,U3,8,V+*
G04 #@! TO.N,+12V*
X-44474785Y85085000D03*
G04 #@! TD*
D13*
G04 #@! TO.P,R15,1*
G04 #@! TO.N,Net-(J2-SIG)*
X-23944785Y37840000D03*
G04 #@! TO.P,R15,2*
G04 #@! TO.N,Net-(R1-Pad1)*
X-23944785Y36140000D03*
G04 #@! TD*
D14*
G04 #@! TO.P,C15,1*
G04 #@! TO.N,GND*
X-40161433Y60555078D03*
G04 #@! TO.P,C15,2*
G04 #@! TO.N,/NRST*
X-40161433Y61525078D03*
G04 #@! TD*
D26*
G04 #@! TO.P,J10,1,-12V*
G04 #@! TO.N,Net-(D17-K)*
X-42274785Y13930000D03*
G04 #@! TO.P,J10,2,-12V*
X-44814785Y13930000D03*
G04 #@! TO.P,J10,3,GND*
G04 #@! TO.N,GND*
X-42274785Y16470000D03*
G04 #@! TO.P,J10,4,GND*
X-44814785Y16470000D03*
G04 #@! TO.P,J10,5,GND*
X-42274785Y19010000D03*
G04 #@! TO.P,J10,6,GND*
X-44814785Y19010000D03*
G04 #@! TO.P,J10,7,GND*
X-42274785Y21550000D03*
G04 #@! TO.P,J10,8,GND*
X-44814785Y21550000D03*
G04 #@! TO.P,J10,9,+12V*
G04 #@! TO.N,Net-(D16-A)*
X-42274785Y24090000D03*
G04 #@! TO.P,J10,10,+12V*
X-44814785Y24090000D03*
G04 #@! TD*
D21*
G04 #@! TO.P,C77,1*
G04 #@! TO.N,+12V*
X-17396648Y5780078D03*
G04 #@! TO.P,C77,2*
G04 #@! TO.N,GND*
X-16426648Y5780078D03*
G04 #@! TD*
D12*
G04 #@! TO.P,R157,1*
G04 #@! TO.N,Net-(C147-Pad1)*
X-18432816Y4710078D03*
G04 #@! TO.P,R157,2*
G04 #@! TO.N,Net-(C152-Pad1)*
X-19402816Y4710078D03*
G04 #@! TD*
D19*
G04 #@! TO.P,C82,1*
G04 #@! TO.N,Net-(D1-AK)*
X-30884785Y35235000D03*
G04 #@! TO.P,C82,2*
G04 #@! TO.N,GND*
X-30884785Y34265000D03*
G04 #@! TD*
D12*
G04 #@! TO.P,C149,1*
G04 #@! TO.N,Net-(C149-Pad1)*
X-11576648Y5860078D03*
G04 #@! TO.P,C149,2*
G04 #@! TO.N,Net-(U12A--)*
X-12546648Y5860078D03*
G04 #@! TD*
D21*
G04 #@! TO.P,C86,1*
G04 #@! TO.N,Net-(D22-AK)*
X-45455000Y41470000D03*
G04 #@! TO.P,C86,2*
G04 #@! TO.N,GND*
X-44485000Y41470000D03*
G04 #@! TD*
D19*
G04 #@! TO.P,R54,1*
G04 #@! TO.N,/RIN*
X-19551648Y20260078D03*
G04 #@! TO.P,R54,2*
G04 #@! TO.N,Net-(C48-Pad1)*
X-19551648Y19290078D03*
G04 #@! TD*
D13*
G04 #@! TO.P,C56,1*
G04 #@! TO.N,VREF+*
X-54745215Y61210000D03*
G04 #@! TO.P,C56,2*
G04 #@! TO.N,GND*
X-53045215Y61210000D03*
G04 #@! TD*
G04 #@! TO.P,R25,1*
G04 #@! TO.N,GND*
X-53140000Y47710000D03*
G04 #@! TO.P,R25,2*
G04 #@! TO.N,Net-(R17-Pad2)*
X-53140000Y46010000D03*
G04 #@! TD*
D17*
G04 #@! TO.P,D3,1,Anode*
G04 #@! TO.N,GND*
X-53065545Y24840000D03*
G04 #@! TO.P,D3,2,cathode*
G04 #@! TO.N,+3V3*
X-53065545Y22940000D03*
G04 #@! TO.P,D3,3,AK*
G04 #@! TO.N,/D13*
X-51066565Y23890000D03*
G04 #@! TD*
D21*
G04 #@! TO.P,R28,1*
G04 #@! TO.N,Net-(U5A--)*
X-50240000Y39620000D03*
G04 #@! TO.P,R28,2*
G04 #@! TO.N,/A8*
X-49270000Y39620000D03*
G04 #@! TD*
D24*
G04 #@! TO.P,C68,1*
G04 #@! TO.N,+3V3*
X-52591596Y57598456D03*
G04 #@! TO.P,C68,2*
G04 #@! TO.N,GND*
X-52591596Y54698456D03*
G04 #@! TD*
D17*
G04 #@! TO.P,D7,1,Anode*
G04 #@! TO.N,GND*
X-54075545Y6430000D03*
G04 #@! TO.P,D7,2,cathode*
G04 #@! TO.N,+3V3*
X-54075545Y4530000D03*
G04 #@! TO.P,D7,3,AK*
G04 #@! TO.N,/D2*
X-52076565Y5480000D03*
G04 #@! TD*
D18*
G04 #@! TO.P,U5,1*
G04 #@! TO.N,Net-(U5A--)*
X-49800000Y41205000D03*
G04 #@! TO.P,U5,2,-*
X-49800000Y41855000D03*
G04 #@! TO.P,U5,3,+*
G04 #@! TO.N,Net-(D22-AK)*
X-49800000Y42505000D03*
G04 #@! TO.P,U5,4,V-*
G04 #@! TO.N,-12VA*
X-49800000Y43155000D03*
G04 #@! TO.P,U5,5,+*
G04 #@! TO.N,Net-(D26-AK)*
X-55700000Y43155000D03*
G04 #@! TO.P,U5,6,-*
G04 #@! TO.N,Net-(U5B--)*
X-55700000Y42505000D03*
G04 #@! TO.P,U5,7*
X-55700000Y41855000D03*
G04 #@! TO.P,U5,8,V+*
G04 #@! TO.N,+12V*
X-55700000Y41205000D03*
G04 #@! TD*
D21*
G04 #@! TO.P,C53,1*
G04 #@! TO.N,+3V3*
X-23546285Y61086678D03*
G04 #@! TO.P,C53,2*
G04 #@! TO.N,GND*
X-22576285Y61086678D03*
G04 #@! TD*
D17*
G04 #@! TO.P,D26,1,Anode*
G04 #@! TO.N,GND*
X-54900000Y47030760D03*
G04 #@! TO.P,D26,2,cathode*
G04 #@! TO.N,+3V3*
X-56800000Y47030760D03*
G04 #@! TO.P,D26,3,AK*
G04 #@! TO.N,Net-(D26-AK)*
X-55850000Y45031780D03*
G04 #@! TD*
D14*
G04 #@! TO.P,R45,1*
G04 #@! TO.N,Net-(POT_SAMP1-Center)*
X-51994785Y82665000D03*
G04 #@! TO.P,R45,2*
G04 #@! TO.N,Net-(U3A-+)*
X-51994785Y83635000D03*
G04 #@! TD*
D13*
G04 #@! TO.P,R17,1*
G04 #@! TO.N,Net-(J9-SIG)*
X-51420000Y47710000D03*
G04 #@! TO.P,R17,2*
G04 #@! TO.N,Net-(R17-Pad2)*
X-51420000Y46010000D03*
G04 #@! TD*
D20*
G04 #@! TO.P,U4,A1,GND*
G04 #@! TO.N,GND*
X-27188400Y44196678D03*
G04 #@! TO.P,U4,A2,DQ15*
G04 #@! TO.N,/SD-D15*
X-27988400Y44196678D03*
G04 #@! TO.P,U4,A3,GNDQ*
G04 #@! TO.N,GND*
X-28788400Y44196678D03*
G04 #@! TO.P,U4,A7,VDDQ*
G04 #@! TO.N,+3V3*
X-31988400Y44196678D03*
G04 #@! TO.P,U4,A8,DQ0*
G04 #@! TO.N,/SD-D0*
X-32788400Y44196678D03*
G04 #@! TO.P,U4,A9,VDD*
G04 #@! TO.N,+3V3*
X-33588400Y44196678D03*
G04 #@! TO.P,U4,B1,DQ14*
G04 #@! TO.N,/SD-D14*
X-27188400Y44996678D03*
G04 #@! TO.P,U4,B2,DQ13*
G04 #@! TO.N,/SD-D13*
X-27988400Y44996678D03*
G04 #@! TO.P,U4,B3,VDDQ*
G04 #@! TO.N,+3V3*
X-28788400Y44996678D03*
G04 #@! TO.P,U4,B7,GNDQ*
G04 #@! TO.N,GND*
X-31988400Y44996678D03*
G04 #@! TO.P,U4,B8,DQ2*
G04 #@! TO.N,/SD-D2*
X-32788400Y44996678D03*
G04 #@! TO.P,U4,B9,DQ1*
G04 #@! TO.N,/SD-D1*
X-33588400Y44996678D03*
G04 #@! TO.P,U4,C1,DQ12*
G04 #@! TO.N,/SD-D12*
X-27188400Y45796678D03*
G04 #@! TO.P,U4,C2,DQ11*
G04 #@! TO.N,/SD-D11*
X-27988400Y45796678D03*
G04 #@! TO.P,U4,C3,GNDQ*
G04 #@! TO.N,GND*
X-28788400Y45796678D03*
G04 #@! TO.P,U4,C7,VDDQ*
G04 #@! TO.N,+3V3*
X-31988400Y45796678D03*
G04 #@! TO.P,U4,C8,DQ4*
G04 #@! TO.N,/SD-D4*
X-32788400Y45796678D03*
G04 #@! TO.P,U4,C9,DQ3*
G04 #@! TO.N,/SD-D3*
X-33588400Y45796678D03*
G04 #@! TO.P,U4,D1,DQ10*
G04 #@! TO.N,/SD-D10*
X-27188400Y46596678D03*
G04 #@! TO.P,U4,D2,DQ9*
G04 #@! TO.N,/SD-D9*
X-27988400Y46596678D03*
G04 #@! TO.P,U4,D3,VDDQ*
G04 #@! TO.N,+3V3*
X-28788400Y46596678D03*
G04 #@! TO.P,U4,D7,GNDQ*
G04 #@! TO.N,GND*
X-31988400Y46596678D03*
G04 #@! TO.P,U4,D8,DQ6*
G04 #@! TO.N,/SD-D6*
X-32788400Y46596678D03*
G04 #@! TO.P,U4,D9,DQ5*
G04 #@! TO.N,/SD-D5*
X-33588400Y46596678D03*
G04 #@! TO.P,U4,E1,DQ8*
G04 #@! TO.N,/SD-D8*
X-27188400Y47396678D03*
G04 #@! TO.P,U4,E2,NC*
G04 #@! TO.N,unconnected-(U4-NC-PadE2)*
X-27988400Y47396678D03*
G04 #@! TO.P,U4,E3,GND*
G04 #@! TO.N,GND*
X-28788400Y47396678D03*
G04 #@! TO.P,U4,E7,VDD*
G04 #@! TO.N,+3V3*
X-31988400Y47396678D03*
G04 #@! TO.P,U4,E8,DQML*
G04 #@! TO.N,/SD-NBL0*
X-32788400Y47396678D03*
G04 #@! TO.P,U4,E9,DQ7*
G04 #@! TO.N,/SD-D7*
X-33588400Y47396678D03*
G04 #@! TO.P,U4,F1,DQMH*
G04 #@! TO.N,/SD-NBL1*
X-27188400Y48196678D03*
G04 #@! TO.P,U4,F2,CLK*
G04 #@! TO.N,/SD-CLK*
X-27988400Y48196678D03*
G04 #@! TO.P,U4,F3,CKE*
G04 #@! TO.N,/SD-CKE1*
X-28788400Y48196678D03*
G04 #@! TO.P,U4,F7,~{CAS}*
G04 #@! TO.N,/SD-NCAS*
X-31988400Y48196678D03*
G04 #@! TO.P,U4,F8,~{RAS}*
G04 #@! TO.N,/SD-NRAS*
X-32788400Y48196678D03*
G04 #@! TO.P,U4,F9,~{WE}*
G04 #@! TO.N,/SD-NWE*
X-33588400Y48196678D03*
G04 #@! TO.P,U4,G1,A12/NC*
G04 #@! TO.N,/SD-A12*
X-27188400Y48996678D03*
G04 #@! TO.P,U4,G2,A11*
G04 #@! TO.N,/SD-A11*
X-27988400Y48996678D03*
G04 #@! TO.P,U4,G3,A9*
G04 #@! TO.N,/SD-A9*
X-28788400Y48996678D03*
G04 #@! TO.P,U4,G7,BA0*
G04 #@! TO.N,/SD-BA0*
X-31988400Y48996678D03*
G04 #@! TO.P,U4,G8,BA1*
G04 #@! TO.N,/SD-BA1*
X-32788400Y48996678D03*
G04 #@! TO.P,U4,G9,~{CS}*
G04 #@! TO.N,/SD-NE1*
X-33588400Y48996678D03*
G04 #@! TO.P,U4,H1,A8*
G04 #@! TO.N,/SD-A8*
X-27188400Y49796678D03*
G04 #@! TO.P,U4,H2,A7*
G04 #@! TO.N,/SD-A7*
X-27988400Y49796678D03*
G04 #@! TO.P,U4,H3,A6*
G04 #@! TO.N,/SD-A6*
X-28788400Y49796678D03*
G04 #@! TO.P,U4,H7,A0*
G04 #@! TO.N,/SD-A0*
X-31988400Y49796678D03*
G04 #@! TO.P,U4,H8,A1*
G04 #@! TO.N,/SD-A1*
X-32788400Y49796678D03*
G04 #@! TO.P,U4,H9,A10*
G04 #@! TO.N,/SD-A10*
X-33588400Y49796678D03*
G04 #@! TO.P,U4,J1,GND*
G04 #@! TO.N,GND*
X-27188400Y50596678D03*
G04 #@! TO.P,U4,J2,A5*
G04 #@! TO.N,/SD-A5*
X-27988400Y50596678D03*
G04 #@! TO.P,U4,J3,A4*
G04 #@! TO.N,/SD-A4*
X-28788400Y50596678D03*
G04 #@! TO.P,U4,J7,A3*
G04 #@! TO.N,/SD-A3*
X-31988400Y50596678D03*
G04 #@! TO.P,U4,J8,A2*
G04 #@! TO.N,/SD-A2*
X-32788400Y50596678D03*
G04 #@! TO.P,U4,J9,VDD*
G04 #@! TO.N,+3V3*
X-33588400Y50596678D03*
G04 #@! TD*
D14*
G04 #@! TO.P,C40,1*
G04 #@! TO.N,-12VA*
X-28134785Y2425000D03*
G04 #@! TO.P,C40,2*
G04 #@! TO.N,GND*
X-28134785Y3395000D03*
G04 #@! TD*
D11*
G04 #@! TO.P,D17,1,K*
G04 #@! TO.N,Net-(D17-K)*
X-43434785Y7590000D03*
G04 #@! TO.P,D17,2,A*
G04 #@! TO.N,Net-(D17-A)*
X-46734785Y7590000D03*
G04 #@! TD*
D12*
G04 #@! TO.P,C71,1*
G04 #@! TO.N,+12V*
X-6339785Y20159750D03*
G04 #@! TO.P,C71,2*
G04 #@! TO.N,GND*
X-7309785Y20159750D03*
G04 #@! TD*
D13*
G04 #@! TO.P,C16,1*
G04 #@! TO.N,Net-(D16-K)*
X-45901433Y30960078D03*
G04 #@! TO.P,C16,2*
G04 #@! TO.N,Net-(Q11-G)*
X-45901433Y32660078D03*
G04 #@! TD*
G04 #@! TO.P,C84,1*
G04 #@! TO.N,Net-(U16B--)*
X-29569785Y9920000D03*
G04 #@! TO.P,C84,2*
G04 #@! TO.N,Net-(C84-Pad2)*
X-31269785Y9920000D03*
G04 #@! TD*
D12*
G04 #@! TO.P,R1,1*
G04 #@! TO.N,Net-(R1-Pad1)*
X-25569785Y31820000D03*
G04 #@! TO.P,R1,2*
G04 #@! TO.N,Net-(D1-AK)*
X-26539785Y31820000D03*
G04 #@! TD*
D21*
G04 #@! TO.P,R46,1*
G04 #@! TO.N,Net-(U3A--)*
X-50754785Y86605000D03*
G04 #@! TO.P,R46,2*
G04 #@! TO.N,/A9*
X-49784785Y86605000D03*
G04 #@! TD*
D33*
G04 #@! TO.P,C43,1*
G04 #@! TO.N,+3V3*
X-38011433Y89570078D03*
G04 #@! TO.P,C43,2*
G04 #@! TO.N,GND*
X-35111433Y89570078D03*
G04 #@! TD*
D13*
G04 #@! TO.P,R58,1*
G04 #@! TO.N,Net-(J11-SIG)*
X-50454785Y4540000D03*
G04 #@! TO.P,R58,2*
G04 #@! TO.N,/D2*
X-50454785Y6240000D03*
G04 #@! TD*
G04 #@! TO.P,C81,1*
G04 #@! TO.N,Net-(JP3-B)*
X-52350000Y65770000D03*
G04 #@! TO.P,C81,2*
G04 #@! TO.N,GNDADC*
X-52350000Y64070000D03*
G04 #@! TD*
D18*
G04 #@! TO.P,U8,1*
G04 #@! TO.N,Net-(U8A--)*
X-12624785Y18709750D03*
G04 #@! TO.P,U8,2,-*
X-12624785Y18059750D03*
G04 #@! TO.P,U8,3,+*
G04 #@! TO.N,Net-(U8A-+)*
X-12624785Y17409750D03*
G04 #@! TO.P,U8,4,V-*
G04 #@! TO.N,-12VA*
X-12624785Y16759750D03*
G04 #@! TO.P,U8,5,+*
G04 #@! TO.N,/VCOM*
X-6724785Y16759750D03*
G04 #@! TO.P,U8,6,-*
G04 #@! TO.N,Net-(U8B--)*
X-6724785Y17409750D03*
G04 #@! TO.P,U8,7*
G04 #@! TO.N,Net-(C57-Pad1)*
X-6724785Y18059750D03*
G04 #@! TO.P,U8,8,V+*
G04 #@! TO.N,+12V*
X-6724785Y18709750D03*
G04 #@! TD*
D13*
G04 #@! TO.P,R75,1*
G04 #@! TO.N,Net-(PLAY_BUT1-G)*
X-35070000Y100440000D03*
G04 #@! TO.P,R75,2*
G04 #@! TO.N,/D14*
X-36770000Y100440000D03*
G04 #@! TD*
G04 #@! TO.P,R32,1*
G04 #@! TO.N,Net-(U15A--)*
X-16140000Y43180000D03*
G04 #@! TO.P,R32,2*
G04 #@! TO.N,Net-(U15B--)*
X-14440000Y43180000D03*
G04 #@! TD*
D12*
G04 #@! TO.P,C41,1*
G04 #@! TO.N,+3V3*
X-11595000Y35210000D03*
G04 #@! TO.P,C41,2*
G04 #@! TO.N,GND*
X-12565000Y35210000D03*
G04 #@! TD*
D13*
G04 #@! TO.P,C80,1*
G04 #@! TO.N,+3.3VADC*
X-48940000Y64070000D03*
G04 #@! TO.P,C80,2*
G04 #@! TO.N,GNDADC*
X-50640000Y64070000D03*
G04 #@! TD*
D17*
G04 #@! TO.P,Q12,1,G*
G04 #@! TO.N,Net-(Q12-G)*
X-46821433Y3730838D03*
G04 #@! TO.P,Q12,2,S*
G04 #@! TO.N,Net-(D17-A)*
X-48721433Y3730838D03*
G04 #@! TO.P,Q12,3,D*
G04 #@! TO.N,-12VA*
X-47771433Y1731858D03*
G04 #@! TD*
D12*
G04 #@! TO.P,C153,1*
G04 #@! TO.N,Net-(C153-Pad1)*
X-9396648Y7360078D03*
G04 #@! TO.P,C153,2*
G04 #@! TO.N,Net-(C153-Pad2)*
X-10366648Y7360078D03*
G04 #@! TD*
D16*
G04 #@! TO.P,JP3,1,A*
G04 #@! TO.N,+12V*
X-51931648Y66984318D03*
G04 #@! TO.P,JP3,2,B*
G04 #@! TO.N,Net-(JP3-B)*
X-52472448Y66984318D03*
G04 #@! TD*
D17*
G04 #@! TO.P,V1,1,GND*
G04 #@! TO.N,GNDA*
X-5148765Y29347500D03*
G04 #@! TO.P,V1,2,VO*
G04 #@! TO.N,+5V*
X-5148765Y27447500D03*
G04 #@! TO.P,V1,3,VI*
G04 #@! TO.N,Net-(JP4-B)*
X-3149785Y28397500D03*
G04 #@! TD*
D14*
G04 #@! TO.P,C75,1*
G04 #@! TO.N,+12V*
X-24601648Y24365078D03*
G04 #@! TO.P,C75,2*
G04 #@! TO.N,GND*
X-24601648Y25335078D03*
G04 #@! TD*
G04 #@! TO.P,C34,1*
G04 #@! TO.N,Net-(D24-AK)*
X-33784785Y34005000D03*
G04 #@! TO.P,C34,2*
G04 #@! TO.N,GND*
X-33784785Y34975000D03*
G04 #@! TD*
D13*
G04 #@! TO.P,C23,1*
G04 #@! TO.N,/OSC_OUT*
X-43884785Y64250000D03*
G04 #@! TO.P,C23,2*
G04 #@! TO.N,GND*
X-43884785Y65950000D03*
G04 #@! TD*
D12*
G04 #@! TO.P,R43,1*
G04 #@! TO.N,Net-(U8B--)*
X-7409785Y15284750D03*
G04 #@! TO.P,R43,2*
G04 #@! TO.N,Net-(C90-Pad1)*
X-8379785Y15284750D03*
G04 #@! TD*
D15*
G04 #@! TO.P,C69,1*
G04 #@! TO.N,+3V3*
X-52646648Y59500078D03*
G04 #@! TO.P,C69,2*
G04 #@! TO.N,GND*
X-50746648Y59500078D03*
G04 #@! TD*
D14*
G04 #@! TO.P,C148,1*
G04 #@! TO.N,GNDA*
X-21846648Y6525078D03*
G04 #@! TO.P,C148,2*
G04 #@! TO.N,Net-(U12B-+)*
X-21846648Y7495078D03*
G04 #@! TD*
D13*
G04 #@! TO.P,R16,1*
G04 #@! TO.N,Net-(J6-SIG)*
X-38704785Y35080000D03*
G04 #@! TO.P,R16,2*
G04 #@! TO.N,Net-(R16-Pad2)*
X-38704785Y33380000D03*
G04 #@! TD*
D34*
G04 #@! TO.P,U9,1,MC/SCL/FMT*
G04 #@! TO.N,/I2C1_SCL*
X-7415000Y33582500D03*
G04 #@! TO.P,U9,2,MD/SDA/DEMP*
G04 #@! TO.N,/I2C1_SDA*
X-8065000Y33582500D03*
G04 #@! TO.P,U9,3,DOUT*
G04 #@! TO.N,/SAI_SD_B*
X-8715000Y33582500D03*
G04 #@! TO.P,U9,4,LRCK1*
G04 #@! TO.N,/SAI_FS*
X-9365000Y33582500D03*
G04 #@! TO.P,U9,5,BCK1*
G04 #@! TO.N,/SAI_SCK*
X-10015000Y33582500D03*
G04 #@! TO.P,U9,6,SCKI1*
G04 #@! TO.N,/SAI_MCLK*
X-10665000Y33582500D03*
G04 #@! TO.P,U9,7,VDD*
G04 #@! TO.N,+3V3*
X-11315000Y33582500D03*
G04 #@! TO.P,U9,8,DGND*
G04 #@! TO.N,GND*
X-11965000Y33582500D03*
G04 #@! TO.P,U9,9,SCKI2*
G04 #@! TO.N,/SAI_MCLK*
X-12615000Y33582500D03*
G04 #@! TO.P,U9,10,BCK2*
G04 #@! TO.N,/SAI_SCK*
X-13265000Y33582500D03*
G04 #@! TO.P,U9,11,LRCK2*
G04 #@! TO.N,/SAI_FS*
X-13915000Y33582500D03*
G04 #@! TO.P,U9,12,DIN*
G04 #@! TO.N,/SAI_SD_A*
X-14565000Y33582500D03*
G04 #@! TO.P,U9,13,ZEROR*
G04 #@! TO.N,unconnected-(U9-ZEROR-Pad13)*
X-15215000Y33582500D03*
G04 #@! TO.P,U9,14,ZEROL*
G04 #@! TO.N,unconnected-(U9-ZEROL-Pad14)*
X-15865000Y33582500D03*
G04 #@! TO.P,U9,15,~{RST}*
G04 #@! TO.N,/CODEC_RESET*
X-15865000Y27857500D03*
G04 #@! TO.P,U9,16,SGND*
G04 #@! TO.N,GNDA*
X-15215000Y27857500D03*
G04 #@! TO.P,U9,17,VOUTR-*
G04 #@! TO.N,/ROUT-*
X-14565000Y27857500D03*
G04 #@! TO.P,U9,18,VOUTR+*
G04 #@! TO.N,/ROUT+*
X-13915000Y27857500D03*
G04 #@! TO.P,U9,19,VOUTL-*
G04 #@! TO.N,/LOUT-*
X-13265000Y27857500D03*
G04 #@! TO.P,U9,20,VOUTL+*
G04 #@! TO.N,/LOUT+*
X-12615000Y27857500D03*
G04 #@! TO.P,U9,21,VCOM*
G04 #@! TO.N,/VCOM*
X-11965000Y27857500D03*
G04 #@! TO.P,U9,22,AGND2*
G04 #@! TO.N,GNDA*
X-11315000Y27857500D03*
G04 #@! TO.P,U9,23,AGND1*
X-10665000Y27857500D03*
G04 #@! TO.P,U9,24,VCC*
G04 #@! TO.N,+5V*
X-10015000Y27857500D03*
G04 #@! TO.P,U9,25,VINL*
G04 #@! TO.N,/LIN*
X-9365000Y27857500D03*
G04 #@! TO.P,U9,26,VINR*
G04 #@! TO.N,/RIN*
X-8715000Y27857500D03*
G04 #@! TO.P,U9,27,~{MS}/ADR/IFMD*
G04 #@! TO.N,GND*
X-8065000Y27857500D03*
G04 #@! TO.P,U9,28,MODE*
X-7415000Y27857500D03*
G04 #@! TD*
D12*
G04 #@! TO.P,R19,1*
G04 #@! TO.N,Net-(U14A--)*
X-14458296Y57970156D03*
G04 #@! TO.P,R19,2*
G04 #@! TO.N,/A2*
X-15428296Y57970156D03*
G04 #@! TD*
G04 #@! TO.P,C74,1*
G04 #@! TO.N,-12VA*
X-29899785Y28970000D03*
G04 #@! TO.P,C74,2*
G04 #@! TO.N,GND*
X-30869785Y28970000D03*
G04 #@! TD*
D13*
G04 #@! TO.P,R78,1*
G04 #@! TO.N,+3V3*
X-36721433Y81950078D03*
G04 #@! TO.P,R78,2*
G04 #@! TO.N,/D4*
X-35021433Y81950078D03*
G04 #@! TD*
G04 #@! TO.P,R70,1*
G04 #@! TO.N,/D11*
X-22580000Y100390000D03*
G04 #@! TO.P,R70,2*
G04 #@! TO.N,Net-(PLAY_BUT1-B)*
X-24280000Y100390000D03*
G04 #@! TD*
D21*
G04 #@! TO.P,R163,1*
G04 #@! TO.N,Net-(U12A-+)*
X-11227816Y8670078D03*
G04 #@! TO.P,R163,2*
G04 #@! TO.N,Net-(C153-Pad2)*
X-10257816Y8670078D03*
G04 #@! TD*
D13*
G04 #@! TO.P,C5,1*
G04 #@! TO.N,GND*
X-21231285Y64646678D03*
G04 #@! TO.P,C5,2*
G04 #@! TO.N,Net-(U2B-VDD12OTGHS)*
X-21231285Y62946678D03*
G04 #@! TD*
D19*
G04 #@! TO.P,R10,1*
G04 #@! TO.N,/LOUT+*
X-11506648Y11785078D03*
G04 #@! TO.P,R10,2*
G04 #@! TO.N,Net-(C153-Pad1)*
X-11506648Y10815078D03*
G04 #@! TD*
D13*
G04 #@! TO.P,R62,1*
G04 #@! TO.N,Net-(U16B--)*
X-29599785Y11530000D03*
G04 #@! TO.P,R62,2*
G04 #@! TO.N,Net-(C84-Pad2)*
X-31299785Y11530000D03*
G04 #@! TD*
D21*
G04 #@! TO.P,C63,1*
G04 #@! TO.N,+12V*
X-56290000Y39680000D03*
G04 #@! TO.P,C63,2*
G04 #@! TO.N,GND*
X-55320000Y39680000D03*
G04 #@! TD*
D14*
G04 #@! TO.P,R153,1*
G04 #@! TO.N,Net-(J17-SIG)*
X-11583296Y2925156D03*
G04 #@! TO.P,R153,2*
G04 #@! TO.N,Net-(C149-Pad1)*
X-11583296Y3895156D03*
G04 #@! TD*
D21*
G04 #@! TO.P,C37,1*
G04 #@! TO.N,-12VA*
X-18150000Y37990000D03*
G04 #@! TO.P,C37,2*
G04 #@! TO.N,GND*
X-17180000Y37990000D03*
G04 #@! TD*
D18*
G04 #@! TO.P,U14,1*
G04 #@! TO.N,Net-(U14A--)*
X-12276648Y57205078D03*
G04 #@! TO.P,U14,2,-*
X-12276648Y56555078D03*
G04 #@! TO.P,U14,3,+*
G04 #@! TO.N,Net-(D15-AK)*
X-12276648Y55905078D03*
G04 #@! TO.P,U14,4,V-*
G04 #@! TO.N,-12VA*
X-12276648Y55255078D03*
G04 #@! TO.P,U14,5,+*
G04 #@! TO.N,Net-(U14B-+)*
X-6376648Y55255078D03*
G04 #@! TO.P,U14,6,-*
G04 #@! TO.N,GND*
X-6376648Y55905078D03*
G04 #@! TO.P,U14,7*
G04 #@! TO.N,Net-(U14B-+)*
X-6376648Y56555078D03*
G04 #@! TO.P,U14,8,V+*
G04 #@! TO.N,+12V*
X-6376648Y57205078D03*
G04 #@! TD*
D12*
G04 #@! TO.P,C147,1*
G04 #@! TO.N,Net-(C147-Pad1)*
X-18477816Y5770078D03*
G04 #@! TO.P,C147,2*
G04 #@! TO.N,Net-(U12B--)*
X-19447816Y5770078D03*
G04 #@! TD*
G04 #@! TO.P,R53,1*
G04 #@! TO.N,Net-(U11A-+)*
X-22562208Y29426592D03*
G04 #@! TO.P,R53,2*
G04 #@! TO.N,GND*
X-23532208Y29426592D03*
G04 #@! TD*
D35*
G04 #@! TO.P,J12,1,SIG*
G04 #@! TO.N,Net-(J12-SIG)*
X-51206000Y27276000D03*
G04 #@! TO.P,J12,2,SHEILD*
G04 #@! TO.N,GND*
X-51206000Y16303200D03*
G04 #@! TO.P,J12,3,SW*
X-51206000Y18716200D03*
G04 #@! TD*
G04 #@! TO.P,J17,1,SIG*
G04 #@! TO.N,Net-(J17-SIG)*
X-22158000Y1833000D03*
G04 #@! TO.P,J17,2,SHEILD*
G04 #@! TO.N,GND*
X-22158000Y12805800D03*
G04 #@! TO.P,J17,3,SW*
G04 #@! TO.N,unconnected-(J17-SW-Pad3)*
X-22158000Y10392800D03*
G04 #@! TD*
G04 #@! TO.P,J16,1,SIG*
G04 #@! TO.N,Net-(J16-SIG)*
X-7630000Y1833000D03*
G04 #@! TO.P,J16,2,SHEILD*
G04 #@! TO.N,GND*
X-7630000Y12805800D03*
G04 #@! TO.P,J16,3,SW*
G04 #@! TO.N,unconnected-(J16-SW-Pad3)*
X-7630000Y10392800D03*
G04 #@! TD*
D36*
G04 #@! TO.P,Bank_But1,1,UP-A*
G04 #@! TO.N,unconnected-(Bank_But1-UP-A-Pad1)*
X-4250000Y104750000D03*
G04 #@! TO.P,Bank_But1,2,POLE-A*
G04 #@! TO.N,Net-(Bank_But1-POLE-A)*
X-10750000Y104750000D03*
G04 #@! TO.P,Bank_But1,3,DOWN-A*
G04 #@! TO.N,unconnected-(Bank_But1-DOWN-A-Pad3)*
X-4250000Y100250000D03*
G04 #@! TO.P,Bank_But1,4,UP-B*
G04 #@! TO.N,GND*
X-10750000Y100250000D03*
D37*
G04 #@! TO.P,Bank_But1,5,CA*
G04 #@! TO.N,+3V3*
X-6600000Y105400000D03*
G04 #@! TO.P,Bank_But1,6,G*
G04 #@! TO.N,Net-(Bank_But1-G)*
X-8400000Y105400000D03*
G04 #@! TO.P,Bank_But1,7,R*
G04 #@! TO.N,Net-(Bank_But1-R)*
X-8400000Y99600000D03*
G04 #@! TO.P,Bank_But1,8,B*
G04 #@! TO.N,Net-(Bank_But1-B)*
X-6600000Y99600000D03*
G04 #@! TD*
D38*
G04 #@! TO.P,SD1,1,DAT2*
G04 #@! TO.N,/D18*
X-27953000Y79531249D03*
G04 #@! TO.P,SD1,2,CD/DAT3*
G04 #@! TO.N,/D19*
X-26853180Y80631069D03*
G04 #@! TO.P,SD1,3,CMD*
G04 #@! TO.N,/D4*
X-27953000Y81731143D03*
G04 #@! TO.P,SD1,4,VDD*
G04 #@! TO.N,+3V3*
X-26853180Y82830963D03*
G04 #@! TO.P,SD1,5,CLK*
G04 #@! TO.N,/D9*
X-27953000Y83931037D03*
G04 #@! TO.P,SD1,6,VSS*
G04 #@! TO.N,GND*
X-26853180Y85030857D03*
G04 #@! TO.P,SD1,7,DAT0*
G04 #@! TO.N,/D16*
X-27953000Y86130931D03*
G04 #@! TO.P,SD1,8,DAT1*
G04 #@! TO.N,/D17*
X-26853180Y87230751D03*
D39*
G04 #@! TO.P,SD1,9,SHELL1*
G04 #@! TO.N,GND*
X-31122920Y79088400D03*
G04 #@! TO.P,SD1,10,SHELL2*
X-31122920Y87673600D03*
G04 #@! TD*
D40*
G04 #@! TO.P,POT_LENGTH1,1,Left*
G04 #@! TO.N,GNDADC*
X-36760000Y45424000D03*
G04 #@! TO.P,POT_LENGTH1,2,Center*
G04 #@! TO.N,Net-(POT_LENGTH1-Center)*
X-41760000Y45424000D03*
G04 #@! TO.P,POT_LENGTH1,3,Right*
G04 #@! TO.N,VREF+*
X-46760000Y45424000D03*
G04 #@! TD*
D35*
G04 #@! TO.P,J2,1,SIG*
G04 #@! TO.N,Net-(J2-SIG)*
X-22157000Y42272000D03*
G04 #@! TO.P,J2,2,SHEILD*
G04 #@! TO.N,GND*
X-22157000Y31299200D03*
G04 #@! TO.P,J2,3,SW*
X-22157000Y33712200D03*
G04 #@! TD*
D40*
G04 #@! TO.P,POT_PITCH1,1,Left*
G04 #@! TO.N,GNDADC*
X-5820000Y70027000D03*
G04 #@! TO.P,POT_PITCH1,2,Center*
G04 #@! TO.N,Net-(POT_PITCH1-Center)*
X-10820000Y70027000D03*
G04 #@! TO.P,POT_PITCH1,3,Right*
G04 #@! TO.N,VREF+*
X-15820000Y70027000D03*
G04 #@! TD*
D35*
G04 #@! TO.P,J7,1,SIG*
G04 #@! TO.N,Net-(J7-SIG)*
X-45999000Y37065000D03*
G04 #@! TO.P,J7,2,SHEILD*
G04 #@! TO.N,GND*
X-56971800Y37065000D03*
G04 #@! TO.P,J7,3,SW*
X-54558800Y37065000D03*
G04 #@! TD*
G04 #@! TO.P,J15,1,SIG*
G04 #@! TO.N,Net-(J15-SIG)*
X-36685000Y1833000D03*
G04 #@! TO.P,J15,2,SHEILD*
G04 #@! TO.N,GND*
X-36685000Y12805800D03*
G04 #@! TO.P,J15,3,SW*
G04 #@! TO.N,unconnected-(J15-SW-Pad3)*
X-36685000Y10392800D03*
G04 #@! TD*
D36*
G04 #@! TO.P,REV_BUT1,1,UP-A*
G04 #@! TO.N,unconnected-(REV_BUT1-UP-A-Pad1)*
X-48250000Y104750000D03*
G04 #@! TO.P,REV_BUT1,2,POLE-A*
G04 #@! TO.N,Net-(REV_BUT1-POLE-A)*
X-54750000Y104750000D03*
G04 #@! TO.P,REV_BUT1,3,DOWN-A*
G04 #@! TO.N,unconnected-(REV_BUT1-DOWN-A-Pad3)*
X-48250000Y100250000D03*
G04 #@! TO.P,REV_BUT1,4,UP-B*
G04 #@! TO.N,GND*
X-54750000Y100250000D03*
D37*
G04 #@! TO.P,REV_BUT1,5,CA*
G04 #@! TO.N,+3V3*
X-50600000Y105400000D03*
G04 #@! TO.P,REV_BUT1,6,G*
G04 #@! TO.N,Net-(REV_BUT1-G)*
X-52400000Y105400000D03*
G04 #@! TO.P,REV_BUT1,7,R*
G04 #@! TO.N,Net-(REV_BUT1-R)*
X-52400000Y99600000D03*
G04 #@! TO.P,REV_BUT1,8,B*
G04 #@! TO.N,Net-(REV_BUT1-B)*
X-50600000Y99600000D03*
G04 #@! TD*
D35*
G04 #@! TO.P,J9,1,SIG*
G04 #@! TO.N,Net-(J9-SIG)*
X-36685000Y27276000D03*
G04 #@! TO.P,J9,2,SHEILD*
G04 #@! TO.N,GND*
X-36685000Y16303200D03*
G04 #@! TO.P,J9,3,SW*
X-36685000Y18716200D03*
G04 #@! TD*
G04 #@! TO.P,J8,1,SIG*
G04 #@! TO.N,Net-(J8-SIG)*
X-12838000Y37065000D03*
G04 #@! TO.P,J8,2,SHEILD*
G04 #@! TO.N,GND*
X-1865200Y37065000D03*
G04 #@! TO.P,J8,3,SW*
X-4278200Y37065000D03*
G04 #@! TD*
G04 #@! TO.P,J11,1,SIG*
G04 #@! TO.N,Net-(J11-SIG)*
X-51206000Y1833000D03*
G04 #@! TO.P,J11,2,SHEILD*
G04 #@! TO.N,GND*
X-51206000Y12805800D03*
G04 #@! TO.P,J11,3,SW*
X-51206000Y10392800D03*
G04 #@! TD*
G04 #@! TO.P,J13,1,SIG*
G04 #@! TO.N,Net-(J13-SIG)*
X-12838000Y22069000D03*
G04 #@! TO.P,J13,2,SHEILD*
G04 #@! TO.N,GND*
X-1865200Y22069000D03*
G04 #@! TO.P,J13,3,SW*
X-4278200Y22069000D03*
G04 #@! TD*
G04 #@! TO.P,J6,1,SIG*
G04 #@! TO.N,Net-(J6-SIG)*
X-31478000Y37065000D03*
G04 #@! TO.P,J6,2,SHEILD*
G04 #@! TO.N,GND*
X-42450800Y37065000D03*
G04 #@! TO.P,J6,3,SW*
X-40037800Y37065000D03*
G04 #@! TD*
G04 #@! TO.P,J14,1,SIG*
G04 #@! TO.N,Net-(J14-SIG)*
X-16951000Y22069000D03*
G04 #@! TO.P,J14,2,SHEILD*
G04 #@! TO.N,GND*
X-27923800Y22069000D03*
G04 #@! TO.P,J14,3,SW*
X-25510800Y22069000D03*
G04 #@! TD*
D36*
G04 #@! TO.P,PLAY_BUT1,1,UP-A*
G04 #@! TO.N,unconnected-(PLAY_BUT1-UP-A-Pad1)*
X-26535000Y101979000D03*
G04 #@! TO.P,PLAY_BUT1,2,POLE-A*
G04 #@! TO.N,Net-(PLAY_BUT1-POLE-A)*
X-32527000Y101979000D03*
G04 #@! TO.P,PLAY_BUT1,3,DOWN-A*
G04 #@! TO.N,unconnected-(PLAY_BUT1-DOWN-A-Pad3)*
X-26535000Y97479000D03*
G04 #@! TO.P,PLAY_BUT1,4,UP-B*
G04 #@! TO.N,GND*
X-32527000Y97479000D03*
D37*
G04 #@! TO.P,PLAY_BUT1,5,CA*
G04 #@! TO.N,+3V3*
X-28631000Y102629000D03*
G04 #@! TO.P,PLAY_BUT1,6,G*
G04 #@! TO.N,Net-(PLAY_BUT1-G)*
X-30431000Y102629000D03*
G04 #@! TO.P,PLAY_BUT1,7,R*
G04 #@! TO.N,Net-(PLAY_BUT1-R)*
X-30431000Y96829000D03*
G04 #@! TO.P,PLAY_BUT1,8,B*
G04 #@! TO.N,Net-(PLAY_BUT1-B)*
X-28631000Y96829000D03*
G04 #@! TD*
D40*
G04 #@! TO.P,POT_SAMP1,1,Left*
G04 #@! TO.N,GNDADC*
X-42815000Y70455000D03*
G04 #@! TO.P,POT_SAMP1,2,Center*
G04 #@! TO.N,Net-(POT_SAMP1-Center)*
X-47815000Y70455000D03*
G04 #@! TO.P,POT_SAMP1,3,Right*
G04 #@! TO.N,VREF+*
X-52815000Y70455000D03*
G04 #@! TD*
G04 #@! TO.P,POT_START1,1,Left*
G04 #@! TO.N,GNDADC*
X-10140000Y45424000D03*
G04 #@! TO.P,POT_START1,2,Center*
G04 #@! TO.N,Net-(POT_START1-Center)*
X-15140000Y45424000D03*
G04 #@! TO.P,POT_START1,3,Right*
G04 #@! TO.N,VREF+*
X-20140000Y45424000D03*
G04 #@! TD*
D41*
G04 #@! TO.N,GND*
X-51416648Y58600078D03*
X-16470000Y38000000D03*
X-27284360Y63918528D03*
X-50946648Y55560078D03*
X-48874685Y52274685D03*
X-47761433Y4690078D03*
X-44991748Y67190393D03*
X-50010078Y52110078D03*
X-52074948Y55538378D03*
X-20406500Y33880000D03*
X-53830000Y40980000D03*
X-32091433Y71910078D03*
X-56280000Y43910000D03*
X-30346664Y47147246D03*
X-30228399Y56013927D03*
X-36106648Y34710078D03*
X-33056648Y6630078D03*
X-4160000Y57060000D03*
X-44926648Y28960078D03*
X-49576648Y55500078D03*
X-26159050Y26356578D03*
X-31493728Y44712910D03*
X-29524785Y34760000D03*
X-11246648Y58600078D03*
X-46566492Y53164138D03*
X-28421285Y64856678D03*
X-20624785Y61560000D03*
X-39624933Y60890078D03*
X-7900000Y56720000D03*
X-13036648Y57870078D03*
X-28574785Y8010000D03*
X-35070000Y105970000D03*
X-13140000Y42950000D03*
X-38630000Y105906500D03*
X-32489785Y31700000D03*
X-7366648Y21020078D03*
X-23621433Y67380078D03*
X-1506648Y56030078D03*
X-43010000Y53660000D03*
X-7804785Y19200000D03*
X-39146648Y29110078D03*
X-28904785Y3395000D03*
X-21104785Y65570000D03*
X-49340000Y52100000D03*
X-25764275Y43911665D03*
X-50246648Y55630078D03*
X-7424785Y26550000D03*
X-29256750Y45615118D03*
X-29977795Y43534660D03*
X-9020463Y14196263D03*
X-37641433Y66620078D03*
X-46694785Y86635000D03*
X-8570000Y61730000D03*
X-51366648Y59400078D03*
X-16121433Y52240078D03*
X-9294785Y19120000D03*
X-28011400Y52106678D03*
X-37664871Y62009914D03*
X-52654948Y55568378D03*
X-53602884Y55600078D03*
X-30538400Y48816678D03*
X-16086648Y11450078D03*
X-24616648Y28640078D03*
X-48531433Y6920078D03*
X-46651433Y10460078D03*
X-38401433Y7460078D03*
X-14580000Y36620000D03*
X-12144285Y52470078D03*
G04 #@! TO.N,+3V3*
X-28324484Y70469877D03*
X-36181285Y67116678D03*
X-36214785Y36640000D03*
X-37972744Y98557256D03*
X-36721433Y83220000D03*
X-30531285Y59396678D03*
X-50336648Y56770078D03*
X-21920821Y60475575D03*
X-34131264Y44378646D03*
X-36471433Y77750078D03*
X-29373336Y46151566D03*
X-28011900Y52926678D03*
X-30572436Y45716088D03*
X-50926648Y56710078D03*
X-13111433Y47982462D03*
X-30208400Y48116678D03*
X-51816648Y56820078D03*
X-53274948Y56898378D03*
X-49606648Y56760078D03*
X-33822400Y51013126D03*
X-52584948Y56868378D03*
X-6521433Y34710078D03*
X-24441285Y63756678D03*
X-33483763Y41550078D03*
X-11154109Y36160078D03*
X-44510000Y39690000D03*
X-31938400Y43426678D03*
X-15241433Y36601500D03*
X-29625050Y44181288D03*
G04 #@! TO.N,/A4*
X-57330000Y40240000D03*
X-38480000Y47570000D03*
G04 #@! TO.N,GNDADC*
X-10150000Y47770000D03*
X-35757327Y41102185D03*
X-16410000Y48320000D03*
X-17751435Y47030078D03*
G04 #@! TO.N,/A5*
X-36694785Y31380500D03*
X-38672980Y46212350D03*
X-37163648Y37650000D03*
X-38937744Y41277744D03*
G04 #@! TO.N,+12V*
X-1901433Y30210078D03*
X-50462562Y36144461D03*
X-9770000Y58190000D03*
X-11878240Y59142588D03*
X-41651433Y30710078D03*
X-17494392Y12202334D03*
X-52699302Y37953813D03*
X-52379833Y36460078D03*
X-26536648Y24430078D03*
X-21826648Y23280078D03*
X-8204785Y23480000D03*
X-32146648Y8060000D03*
X-47944785Y83360000D03*
X-49520000Y68700000D03*
X-36204785Y29630000D03*
X-49380000Y51060000D03*
X-51725364Y41053500D03*
X-7740000Y46420000D03*
G04 #@! TO.N,-12VA*
X-15566648Y9320078D03*
X-37431433Y3810078D03*
X-12404785Y15340000D03*
X-51029998Y38040000D03*
X-28411433Y1570078D03*
X-25764785Y11130000D03*
X-29514785Y32540000D03*
X-16895048Y13100000D03*
X-14694785Y9420078D03*
X-49991433Y3250078D03*
X-20640000Y38660000D03*
X-50560000Y82410000D03*
X-13011433Y52340078D03*
X-54190000Y43540000D03*
X-26694785Y13730000D03*
X-29714785Y30170000D03*
G04 #@! TO.N,/A2*
X-39403500Y42190000D03*
X-39277721Y47163291D03*
G04 #@! TO.N,/A7*
X-39371433Y84350000D03*
X-38661433Y69480078D03*
X-36241433Y60250078D03*
X-38324933Y75660078D03*
G04 #@! TO.N,/A6*
X-36131285Y65426678D03*
X-33732087Y60665676D03*
X-34426440Y65236678D03*
X-37340000Y85590000D03*
G04 #@! TO.N,/D6*
X-18144785Y57920000D03*
X-15080000Y103520000D03*
G04 #@! TO.N,/D8*
X-40000000Y59136500D03*
X-25874444Y45702763D03*
X-24325876Y57344123D03*
X-39775315Y47374685D03*
X-36980000Y95860000D03*
X-39660000Y44200000D03*
G04 #@! TO.N,/A9*
X-37901433Y57610078D03*
X-38698940Y66456258D03*
G04 #@! TO.N,/D15*
X-27781433Y26820078D03*
X-20951433Y37390078D03*
X-21288226Y39322752D03*
X-18461433Y56773578D03*
X-25151731Y56180404D03*
X-28171429Y62636722D03*
G04 #@! TO.N,/D13*
X-21879635Y39221565D03*
X-27931433Y61989319D03*
X-21481433Y37390078D03*
X-48584785Y23200000D03*
G04 #@! TO.N,VREF+*
X-55230000Y54620000D03*
X-38991433Y59136500D03*
X-37137888Y41642800D03*
X-6253006Y44223636D03*
X-4554633Y47086878D03*
X-16827883Y46479996D03*
X-55220000Y60100000D03*
X-14940000Y73200000D03*
X-17891433Y46440078D03*
X-36941433Y60280078D03*
G04 #@! TO.N,/D11*
X-19674785Y60730000D03*
X-23320000Y79840000D03*
X-23700137Y71433500D03*
X-25361433Y71420078D03*
G04 #@! TO.N,/D10*
X-49000000Y107726500D03*
X-19054785Y60170000D03*
G04 #@! TO.N,/D14*
X-22690000Y98470006D03*
X-24539092Y63028871D03*
X-22690000Y87460000D03*
X-36770000Y98650002D03*
G04 #@! TO.N,/D12*
X-21851433Y68420078D03*
X-25081285Y64746678D03*
X-36990000Y105906500D03*
X-22294785Y69370000D03*
G04 #@! TO.N,/D0*
X-12550000Y95720000D03*
X-21680000Y70562334D03*
G04 #@! TO.N,/D1*
X-29421433Y77560078D03*
X-36091433Y69530078D03*
X-33250000Y76700000D03*
X-22314933Y87950000D03*
G04 #@! TO.N,/D3*
X-39536500Y92145286D03*
X-25174785Y66650000D03*
X-38324933Y78570078D03*
X-23961285Y78580078D03*
G04 #@! TO.N,/D5*
X-5870000Y96250000D03*
X-20070000Y68910000D03*
G04 #@! TO.N,/D19*
X-27257734Y67806549D03*
G04 #@! TO.N,/D18*
X-23104785Y69040000D03*
X-22531285Y79270078D03*
G04 #@! TO.N,/D7*
X-26623026Y59373759D03*
X-19640000Y88810000D03*
X-56280000Y97420000D03*
X-24820000Y47530000D03*
X-19630000Y81660000D03*
X-51670000Y106520000D03*
X-19620000Y72730000D03*
X-18820500Y59020000D03*
X-19630000Y87330000D03*
X-19940000Y49750000D03*
G04 #@! TO.N,/D17*
X-26613522Y64618915D03*
G04 #@! TO.N,/D16*
X-25971285Y64596678D03*
G04 #@! TO.N,/D9*
X-27401725Y68901878D03*
G04 #@! TO.N,/A0*
X-37121900Y49750000D03*
X-31621433Y30980000D03*
X-35200000Y43170000D03*
X-35200000Y38340000D03*
X-34589999Y37600001D03*
X-33126178Y60696678D03*
G04 #@! TO.N,/A1*
X-36660000Y57070000D03*
X-38561433Y67810078D03*
G04 #@! TO.N,/A3*
X-38911433Y61350078D03*
X-5491433Y65870078D03*
X-12680000Y67670000D03*
X-38341433Y74470078D03*
G04 #@! TO.N,/A8*
X-38058548Y52200078D03*
X-39360000Y40200000D03*
X-43040000Y40180000D03*
X-37168548Y54330078D03*
X-35231433Y61450078D03*
X-48600000Y40280000D03*
G04 #@! TO.N,Net-(J2-SIG)*
X-23101433Y39120078D03*
G04 #@! TO.N,Net-(C46-Pad1)*
X-13556648Y56740078D03*
X-9100000Y43470000D03*
G04 #@! TO.N,Net-(POT_LENGTH1-Center)*
X-41730000Y49100000D03*
X-42900000Y79900000D03*
X-43855000Y58995000D03*
G04 #@! TO.N,/D4*
X-27311285Y66506678D03*
G04 #@! TO.N,/VCOM*
X-6724785Y16140000D03*
X-11854785Y20850000D03*
X-23836648Y20990078D03*
G04 #@! TO.N,GNDA*
X-18354785Y14790000D03*
X-9844785Y22250000D03*
X-10254785Y11520000D03*
X-15634785Y14620000D03*
G04 #@! TO.N,Net-(POT_START1-Center)*
X-7656648Y64930078D03*
X-11723627Y46679115D03*
G04 #@! TO.N,Net-(U2B-VCAP_1)*
X-29698839Y61869124D03*
G04 #@! TO.N,+3.3VADC*
X-37621433Y58930078D03*
X-44990000Y66360000D03*
X-41121433Y61770078D03*
G04 #@! TO.N,/BOOT0*
X-31711285Y65846678D03*
X-31141433Y72090078D03*
G04 #@! TO.N,Net-(C152-Pad1)*
X-18334785Y9960078D03*
X-21206648Y5860078D03*
G04 #@! TO.N,Net-(C152-Pad2)*
X-20906648Y9300078D03*
X-22066648Y3760078D03*
G04 #@! TO.N,Net-(C153-Pad1)*
X-13294785Y4430000D03*
X-9356648Y6600078D03*
G04 #@! TO.N,/SWDCLK*
X-18352744Y70427256D03*
G04 #@! TO.N,/SWDIO*
X-18040000Y69990000D03*
G04 #@! TO.N,/UART_TX*
X-36395997Y62606420D03*
G04 #@! TO.N,/UART_RX*
X-35994785Y62143420D03*
G04 #@! TO.N,/DEBUG2*
X-32481285Y66546678D03*
G04 #@! TO.N,/DEBUG3*
X-29661285Y69446678D03*
G04 #@! TO.N,Net-(J9-SIG)*
X-48529485Y45987030D03*
X-47636648Y36350078D03*
G04 #@! TO.N,/LOUT+*
X-12983348Y13706953D03*
X-14370990Y20171603D03*
G04 #@! TO.N,/LOUT-*
X-13448884Y13525901D03*
X-14926648Y20120078D03*
G04 #@! TO.N,/I2C1_SCL*
X-7166648Y35820078D03*
X-34671433Y72870078D03*
G04 #@! TO.N,/I2C1_SDA*
X-11151433Y38150078D03*
X-31163507Y67843305D03*
G04 #@! TO.N,/RIN*
X-20146648Y21450078D03*
X-8371433Y26740078D03*
G04 #@! TO.N,/SAI_SD_B*
X-8784785Y35900000D03*
X-36247785Y70520000D03*
G04 #@! TO.N,/SAI_MCLK*
X-35053378Y70601773D03*
X-10855407Y35409378D03*
G04 #@! TO.N,/SD-NBL1*
X-26568400Y48566678D03*
X-31821285Y67836678D03*
G04 #@! TO.N,/SD-NBL0*
X-33124785Y67191712D03*
X-34080000Y46876681D03*
G04 #@! TO.N,/SD-CKE1*
X-28388400Y47796678D03*
X-31531285Y69276678D03*
G04 #@! TO.N,/CODEC_RESET*
X-6401433Y30310078D03*
X-18507744Y70902256D03*
G04 #@! TO.N,/SAI_FS*
X-9654785Y36080000D03*
X-35647782Y70520000D03*
G04 #@! TO.N,/SAI_SCK*
X-34525640Y70887247D03*
X-10118285Y37137000D03*
G04 #@! TO.N,/SAI_SD_A*
X-14534785Y35170000D03*
X-33206271Y69180078D03*
X-33771285Y67196678D03*
G04 #@! TO.N,/SD-NCAS*
X-29741285Y65486678D03*
X-30521285Y67186678D03*
X-31121285Y65546678D03*
X-31388400Y48136678D03*
G04 #@! TO.N,/SD-D2*
X-24638400Y44356678D03*
X-32387044Y44574879D03*
X-21390000Y46660000D03*
X-27276258Y65246678D03*
G04 #@! TO.N,/SD-D3*
X-20104785Y63200000D03*
X-34148400Y45736678D03*
X-18989648Y57754862D03*
X-24436579Y45188733D03*
X-25520915Y70530500D03*
X-20004785Y66580000D03*
X-19091433Y56410078D03*
X-21534785Y67230000D03*
G04 #@! TO.N,/SD-A0*
X-33368107Y56663178D03*
X-33813400Y65854563D03*
G04 #@! TO.N,/SD-A2*
X-35648966Y55737066D03*
X-34423601Y63934290D03*
G04 #@! TO.N,/SD-A1*
X-33188400Y50186678D03*
X-31927720Y63108823D03*
X-34848400Y50266678D03*
X-36240000Y53690000D03*
G04 #@! TO.N,/SD-CLK*
X-28901433Y61740078D03*
X-27594830Y47780156D03*
G04 #@! TO.N,/SD-A3*
X-33117342Y63286303D03*
X-35134281Y56032117D03*
G04 #@! TO.N,/SD-A4*
X-30698220Y55686498D03*
X-30783754Y53675392D03*
G04 #@! TO.N,/SD-NWE*
X-31813124Y61416678D03*
X-34298400Y48096678D03*
G04 #@! TO.N,/SD-A5*
X-33735510Y62055410D03*
X-34290212Y57103678D03*
G04 #@! TO.N,/SD-BA1*
X-33188697Y49406678D03*
X-30720000Y56510000D03*
X-20591900Y55570000D03*
X-27271285Y62636678D03*
G04 #@! TO.N,/SD-BA0*
X-24802548Y55280078D03*
X-27271285Y61346678D03*
X-29308400Y53426678D03*
X-31176317Y49622121D03*
G04 #@! TO.N,/SD-D1*
X-33258400Y44646678D03*
X-25974785Y61990000D03*
G04 #@! TO.N,/SD-A12*
X-24301674Y61664545D03*
X-26450000Y53776678D03*
X-26448400Y49216678D03*
X-20541900Y54460000D03*
G04 #@! TO.N,/SD-A11*
X-33428400Y53826678D03*
X-28358400Y49366678D03*
X-30230653Y49529027D03*
X-30524136Y60703916D03*
G04 #@! TO.N,/SD-NE1*
X-34860000Y45413031D03*
X-27952030Y61385554D03*
G04 #@! TO.N,/SD-D0*
X-26613634Y61313401D03*
X-32778400Y43616678D03*
G04 #@! TO.N,/SD-A7*
X-27583400Y54021678D03*
X-28455694Y52579384D03*
X-31450124Y61836678D03*
X-28350250Y50183135D03*
G04 #@! TO.N,/SD-A10*
X-31166452Y60056678D03*
X-35378400Y53276678D03*
G04 #@! TO.N,/SD-D10*
X-24215007Y46436645D03*
X-26626333Y60696678D03*
G04 #@! TO.N,/SD-D15*
X-26081900Y43120000D03*
X-24447659Y59464562D03*
G04 #@! TO.N,/SD-A6*
X-31747265Y59442904D03*
X-33077132Y55815410D03*
G04 #@! TO.N,/SD-A9*
X-33000080Y54608358D03*
X-31148979Y58141122D03*
G04 #@! TO.N,/SD-D5*
X-34080000Y46276678D03*
X-30268400Y55276678D03*
X-28418785Y55419721D03*
X-29876478Y59389485D03*
G04 #@! TO.N,/SD-D6*
X-32378400Y46996678D03*
X-29221285Y60041642D03*
X-27411400Y54606678D03*
X-28898400Y52976678D03*
G04 #@! TO.N,/SD-D8*
X-27979089Y57814645D03*
X-25977516Y49900000D03*
G04 #@! TO.N,/SD-D11*
X-24351900Y45733969D03*
X-27608400Y46156678D03*
X-25976312Y60686678D03*
X-26308376Y45951745D03*
G04 #@! TO.N,/SD-D14*
X-24868478Y58529485D03*
X-26781720Y45133358D03*
G04 #@! TO.N,/SD-D13*
X-27582340Y45406678D03*
X-25981285Y59391700D03*
G04 #@! TO.N,/SD-NRAS*
X-33051530Y48514272D03*
X-31763500Y57266324D03*
G04 #@! TO.N,/SD-A8*
X-27478703Y50130119D03*
X-30648138Y57478911D03*
G04 #@! TO.N,/SD-D4*
X-31311400Y54716678D03*
X-32382888Y45414144D03*
X-30141285Y58546678D03*
X-35868404Y47678278D03*
X-29185557Y55020427D03*
X-35868400Y50576678D03*
G04 #@! TO.N,/SD-D7*
X-30298925Y54353678D03*
X-29778285Y58026678D03*
X-34097628Y47494185D03*
X-28334167Y54885808D03*
G04 #@! TO.N,/SD-D9*
X-27582103Y47013336D03*
X-26614605Y57144818D03*
G04 #@! TO.N,/SD-D12*
X-26636535Y57680108D03*
X-26634307Y46635333D03*
G04 #@! TO.N,Net-(U14A--)*
X-14526648Y58760078D03*
X-13206648Y58690078D03*
G04 #@! TO.N,/D2*
X-41135730Y13496578D03*
X-17893500Y61930078D03*
X-24349965Y64367999D03*
X-53306648Y5470078D03*
X-53306648Y7170078D03*
X-19884785Y62490000D03*
G04 #@! TD*
D42*
G04 #@! TO.N,GND*
X-43934785Y67640000D02*
X-44542141Y67640000D01*
X-27601285Y64235453D02*
X-27284360Y63918528D01*
X-23532208Y32336992D02*
X-22157000Y33712200D01*
X-43000155Y52815000D02*
X-43000155Y53650155D01*
X-49250155Y52870000D02*
X-49250155Y52189845D01*
X-51176079Y37086079D02*
X-51176079Y33184724D01*
X-30766526Y43985708D02*
X-31493728Y44712910D01*
X-4160000Y57060000D02*
X-5314922Y55905078D01*
X-30201285Y64916678D02*
X-30851285Y64916678D01*
X-2148005Y26153506D02*
X-2148005Y22669020D01*
X-30851285Y64266678D02*
X-31501285Y64266678D01*
X-29424785Y34099240D02*
X-30719025Y34099240D01*
X-43934785Y67640000D02*
X-43934785Y66000000D01*
X-34297646Y28350000D02*
X-33109785Y28350000D01*
X-30346664Y46429442D02*
X-30346664Y47147246D01*
X-30201285Y66216678D02*
X-30851285Y66216678D01*
X-29669785Y3395000D02*
X-28904785Y3395000D01*
X-28901285Y64266678D02*
X-29551285Y64266678D01*
X-7630000Y12805800D02*
X-9020463Y14196263D01*
X-23532208Y31299200D02*
X-23532208Y29426592D01*
X-30282910Y43985708D02*
X-30766526Y43985708D01*
X-7900000Y56720000D02*
X-7900000Y58443430D01*
X-15527058Y56145156D02*
X-16121433Y55550781D01*
X-23621433Y67572018D02*
X-23621433Y67380078D01*
X-29551285Y64916678D02*
X-29551285Y64266678D01*
X-30538400Y48816678D02*
X-30216281Y48816678D01*
X-39959933Y60555078D02*
X-39624933Y60890078D01*
X-29528400Y43536678D02*
X-30731778Y42333300D01*
X-49250155Y52650155D02*
X-48874685Y52274685D01*
X-13786648Y58000078D02*
X-13166648Y58000078D01*
X-13460000Y100050000D02*
X-10950000Y100050000D01*
X-29578400Y56131678D02*
X-28018400Y56131678D01*
X-53065545Y24840000D02*
X-53065545Y24236750D01*
X-21741285Y59826678D02*
X-21551285Y60016678D01*
X-37641433Y66071530D02*
X-37641433Y66620078D01*
X-50256648Y54820078D02*
X-49576648Y55500078D01*
X-53140000Y47710000D02*
X-52320000Y46890000D01*
X-11936648Y58600078D02*
X-11246648Y58600078D01*
X-54308428Y63921572D02*
X-53045215Y62658359D01*
X-34230545Y35420760D02*
X-33784785Y34975000D01*
X-35845467Y34710078D02*
X-35134785Y35420760D01*
X-28901285Y64916678D02*
X-28481285Y64916678D01*
X-29551285Y64266678D02*
X-30201285Y64266678D01*
D43*
X-36685000Y18716200D02*
X-39440985Y18716200D01*
D42*
X-53770000Y39680000D02*
X-51230000Y37140000D01*
X-50256648Y54870078D02*
X-50946648Y55560078D01*
X-53045215Y62658359D02*
X-53045215Y61210000D01*
X-11281648Y60724638D02*
X-11281648Y58635078D01*
X-24616648Y28640078D02*
X-23830134Y29426592D01*
X-50256648Y55620078D02*
X-50256648Y54720078D01*
X-30851285Y63616678D02*
X-31501285Y63616678D01*
X-22386285Y59826678D02*
X-21741285Y59826678D01*
X-13786648Y58000078D02*
X-13786648Y58980078D01*
X-21231285Y65443500D02*
X-21104785Y65570000D01*
X-34414785Y64603178D02*
X-36524533Y64603178D01*
X-12156648Y53531804D02*
X-12156648Y52482441D01*
X-4620000Y39180000D02*
X-4620000Y40780000D01*
X-54486648Y64187538D02*
X-54308428Y64009318D01*
X-1831433Y26470078D02*
X-2148005Y26153506D01*
X-53830000Y39710000D02*
X-53860000Y39680000D01*
X-35134785Y35420760D02*
X-34230545Y35420760D01*
X-30231137Y43933935D02*
X-29833880Y43536678D01*
X-50701433Y32710078D02*
X-49001433Y31010078D01*
X-45601433Y28960078D02*
X-47651433Y31010078D01*
X-13786648Y57111804D02*
X-13786648Y58000078D01*
X-27741285Y64776678D02*
X-27601285Y64916678D01*
X-27741285Y64406678D02*
X-27741285Y64776678D01*
X-47640000Y39019240D02*
X-46935760Y39019240D01*
X-16480000Y37990000D02*
X-16470000Y38000000D01*
X-47640000Y39019240D02*
X-49242918Y39019240D01*
X-22157000Y35840430D02*
X-23120070Y36803500D01*
X-29551285Y66216678D02*
X-30201285Y66216678D01*
X-33079785Y7515000D02*
X-33079785Y6653215D01*
X-41360148Y4976578D02*
X-40246648Y6090078D01*
X-16086648Y11450078D02*
X-16086648Y10885078D01*
X-53065545Y24236750D02*
X-51142785Y22313990D01*
X-54900000Y47030760D02*
X-54859240Y47030760D01*
X-29379785Y72360000D02*
X-29379785Y71370178D01*
X-22576285Y61086678D02*
X-22576285Y62126678D01*
D43*
X-42274785Y19010000D02*
X-44814785Y19010000D01*
D42*
X-29551285Y64916678D02*
X-29351285Y65116678D01*
X-54308428Y64009318D02*
X-54308428Y63921572D01*
X-34751285Y61016678D02*
X-35561463Y61016678D01*
X-30201285Y64266678D02*
X-30201285Y63616678D01*
X-43450000Y47310000D02*
X-44450000Y46310000D01*
X-14753296Y56145156D02*
X-15527058Y56145156D01*
X-28901285Y62966678D02*
X-28901285Y62316678D01*
X-28901285Y62966678D02*
X-29551285Y62966678D01*
X-47761433Y4690078D02*
X-47761433Y4836804D01*
X-49250155Y52189845D02*
X-49340000Y52100000D01*
X-29551285Y62316678D02*
X-29551285Y62966678D01*
X-12565000Y35210000D02*
X-13170000Y35210000D01*
X-7439785Y26565000D02*
X-7424785Y26550000D01*
X-14199785Y16374750D02*
X-14199785Y15925000D01*
X-31184685Y66550078D02*
X-31817885Y66550078D01*
X-30201285Y64916678D02*
X-29551285Y64916678D01*
X-50746648Y59270078D02*
X-51416648Y58600078D01*
X-28901285Y62316678D02*
X-29551285Y62316678D01*
X-29691900Y43536678D02*
X-29528400Y43536678D01*
X-27601285Y64266678D02*
X-27601285Y63616678D01*
X-28901285Y64266678D02*
X-28901285Y63616678D01*
X-8651648Y61648352D02*
X-8651648Y60694638D01*
X-31777496Y44996678D02*
X-31493728Y44712910D01*
X-8651648Y60694638D02*
X-11251648Y60694638D01*
X-37641433Y65720078D02*
X-37641433Y66620078D01*
X-43000155Y53650155D02*
X-43010000Y53660000D01*
X-38630000Y99870000D02*
X-38630000Y105906500D01*
X-52564870Y55048456D02*
X-52074948Y55538378D01*
X-49250155Y52870000D02*
X-49250155Y53713585D01*
X-28969960Y45615118D02*
X-28788400Y45796678D01*
D43*
X-42274785Y21550000D02*
X-42274785Y19010000D01*
D42*
X-30869785Y28970000D02*
X-32489785Y28970000D01*
X-4620000Y37406800D02*
X-4278200Y37065000D01*
X-49250155Y53713585D02*
X-50256648Y54720078D01*
X-35111433Y89570078D02*
X-33019398Y89570078D01*
X-35561463Y61016678D02*
X-36396463Y61851678D01*
X-36596998Y42333300D02*
X-41573698Y47310000D01*
X-21949607Y61560000D02*
X-20624785Y61560000D01*
X-36396463Y61851678D02*
X-37111285Y61851678D01*
X-33326999Y98278999D02*
X-37038999Y98278999D01*
X-30851285Y62316678D02*
X-31501285Y62316678D01*
X-33109785Y28350000D02*
X-32489785Y28970000D01*
X-52591596Y54698456D02*
X-52591596Y55505026D01*
X-27223400Y52106678D02*
X-28011400Y52106678D01*
X-50973000Y46890000D02*
X-50240000Y46157000D01*
X-7309785Y20159750D02*
X-7309785Y19695000D01*
X-45151433Y5640078D02*
X-44487933Y4976578D01*
X-51142785Y22313990D02*
X-51142785Y19017200D01*
X-12546648Y59210078D02*
X-11936648Y58600078D01*
X-16121433Y55550781D02*
X-16121433Y52240078D01*
X-22157000Y33712200D02*
X-22157000Y35840430D01*
X-52585897Y61669318D02*
X-53045215Y61210000D01*
X-12869535Y14594750D02*
X-10749785Y14594750D01*
X-47170000Y52710000D02*
X-48753000Y52710000D01*
X-51230000Y37140000D02*
X-51176079Y37086079D01*
X-30321285Y71351678D02*
X-31391285Y71351678D01*
X-29551285Y63616678D02*
X-30201285Y63616678D01*
X-1506648Y65096648D02*
X-1506648Y56030078D01*
X-28959785Y3395000D02*
X-28904785Y3395000D01*
X-29551285Y62966678D02*
X-29551285Y63616678D01*
X-35070000Y105970000D02*
X-35070000Y104680000D01*
X-29424785Y34099240D02*
X-29424785Y34660000D01*
X-9020463Y14196263D02*
X-10038950Y15214750D01*
X-26548400Y52746678D02*
X-26548400Y51236678D01*
X-38931433Y6930078D02*
X-38401433Y7460078D01*
X-31988400Y46596678D02*
X-30897232Y46596678D01*
X-30851285Y62966678D02*
X-31501285Y62966678D01*
X-30201285Y62966678D02*
X-30201285Y63616678D01*
X-36106648Y34710078D02*
X-35845467Y34710078D01*
X-38316726Y29940000D02*
X-39146648Y29110078D01*
X-25654785Y35757000D02*
X-25654785Y35040000D01*
X-7439785Y28137500D02*
X-8089785Y28137500D01*
X-29256750Y45615118D02*
X-30231137Y44640731D01*
X-22466285Y64646678D02*
X-22686285Y64426678D01*
X-29256750Y45615118D02*
X-29532340Y45615118D01*
X-57310000Y43535000D02*
X-56655000Y43535000D01*
X-51366648Y59400078D02*
X-50846648Y59400078D01*
X-30201285Y62316678D02*
X-30851285Y62316678D01*
X-28018400Y56131678D02*
X-26988400Y56131678D01*
X-53830000Y40980000D02*
X-53830000Y39710000D01*
X-22157000Y31299200D02*
X-23532208Y31299200D01*
X-13166648Y58000078D02*
X-13036648Y57870078D01*
X-32489785Y33680000D02*
X-32489785Y28970000D01*
D43*
X-44814785Y16470000D02*
X-42274785Y16470000D01*
D42*
X-30204785Y2160000D02*
X-30204785Y2860000D01*
X-3103500Y66693500D02*
X-1506648Y65096648D01*
X-4620000Y40780000D02*
X-4690000Y40850000D01*
X-34101285Y64266678D02*
X-34101285Y64916678D01*
X-10950000Y100050000D02*
X-10750000Y100250000D01*
X-30201285Y62316678D02*
X-30201285Y61016678D01*
X-14199785Y15925000D02*
X-12869535Y14594750D01*
X-30201285Y62316678D02*
X-30201285Y62966678D01*
X-12020000Y42950000D02*
X-11980000Y42990000D01*
X-27859785Y8725000D02*
X-28574785Y8010000D01*
X-7439785Y28137500D02*
X-7439785Y26565000D01*
X-33079785Y7515000D02*
X-28959785Y3395000D01*
X-29351285Y65116678D02*
X-29351285Y66016678D01*
X-29351285Y66016678D02*
X-29551285Y66216678D01*
X-52320000Y46890000D02*
X-50973000Y46890000D01*
X-7366648Y21020078D02*
X-7366648Y20216613D01*
X-23120070Y36803500D02*
X-24608285Y36803500D01*
X-32431285Y71570226D02*
X-32091433Y71910078D01*
X-33079785Y6653215D02*
X-33056648Y6630078D01*
X-30851285Y62966678D02*
X-30851285Y63616678D01*
X-21231285Y64646678D02*
X-22466285Y64646678D01*
X-30231137Y44640731D02*
X-30231137Y43933935D01*
D43*
X-39440985Y18716200D02*
X-42274785Y21550000D01*
D42*
X-56655000Y43535000D02*
X-56280000Y43910000D01*
X-38034785Y29940000D02*
X-36984785Y28890000D01*
X-30851285Y64916678D02*
X-30851285Y64266678D01*
X-31391285Y71351678D02*
X-32421285Y71351678D01*
X-54180000Y47710000D02*
X-53140000Y47710000D01*
X-30201285Y63616678D02*
X-30851285Y63616678D01*
X-10129785Y18285000D02*
X-10129785Y15214750D01*
X-29833880Y43536678D02*
X-29691900Y43536678D01*
X-26383400Y52946678D02*
X-27223400Y52106678D01*
X-54486648Y66799318D02*
X-54486648Y64187538D01*
X-23532208Y29426592D02*
X-23532208Y32336992D01*
X-29424785Y34660000D02*
X-29524785Y34760000D01*
X-12156648Y52482441D02*
X-12144285Y52470078D01*
X-31501285Y64266678D02*
X-31501285Y63616678D01*
X-10749785Y14594750D02*
X-10129785Y15214750D01*
X-24631648Y26665078D02*
X-24631648Y25365078D01*
X-28901285Y64266678D02*
X-28901285Y64916678D01*
X-53045215Y61210000D02*
X-52456570Y61210000D01*
X-30201285Y61016678D02*
X-29551285Y61016678D01*
X-30851285Y66216678D02*
X-31164785Y66530178D01*
X-20574300Y33712200D02*
X-20406500Y33880000D01*
X-50246648Y55630078D02*
X-50256648Y55620078D01*
X-7309785Y19695000D02*
X-7804785Y19200000D01*
X-29551285Y62966678D02*
X-30201285Y62966678D01*
X-51566648Y61669318D02*
X-52585897Y61669318D01*
X-43751433Y28960078D02*
X-44926648Y28960078D01*
D43*
X-44814785Y19010000D02*
X-44814785Y21550000D01*
D42*
X-13556648Y59210078D02*
X-12546648Y59210078D01*
X-3103500Y71586500D02*
X-3103500Y66693500D01*
X-37506635Y61851678D02*
X-37664871Y62009914D01*
X-54249785Y7800000D02*
X-51326985Y10722800D01*
X-47761433Y4836804D02*
X-46978081Y5620156D01*
X-17180000Y37990000D02*
X-16480000Y37990000D01*
X-21231285Y64646678D02*
X-21231285Y65443500D01*
X-30897232Y46596678D02*
X-30346664Y47147246D01*
X-55320000Y39680000D02*
X-53860000Y39680000D01*
X-32527000Y97479000D02*
X-33326999Y98278999D01*
X-37038999Y98278999D02*
X-38630000Y99870000D01*
X-5314922Y55905078D02*
X-6376648Y55905078D01*
X-28901285Y64916678D02*
X-29551285Y64916678D01*
X-30851285Y63616678D02*
X-30851285Y64266678D01*
X-44926648Y28960078D02*
X-45601433Y28960078D01*
X-21551285Y60016678D02*
X-21551285Y60916678D01*
X-22686285Y64426678D02*
X-22686285Y63386678D01*
X-23261285Y67740226D02*
X-23621433Y67380078D01*
X-4620000Y39180000D02*
X-4620000Y37406800D01*
X-33784785Y34975000D02*
X-32489785Y33680000D01*
X-39681433Y6930078D02*
X-38931433Y6930078D01*
X-25850550Y26665078D02*
X-26159050Y26356578D01*
X-31988400Y44996678D02*
X-31777496Y44996678D01*
X-46935760Y39019240D02*
X-44485000Y41470000D01*
X-29371285Y71361678D02*
X-30291285Y71361678D01*
X-54075545Y6430000D02*
X-54075545Y7625760D01*
X-28904785Y3395000D02*
X-28134785Y3395000D01*
X-24631648Y26665078D02*
X-25850550Y26665078D01*
X-31817885Y66550078D02*
X-31837785Y66530178D01*
X-21551285Y60916678D02*
X-21721285Y61086678D01*
X-29256750Y45615118D02*
X-28969960Y45615118D01*
X-13140000Y42950000D02*
X-12020000Y42950000D01*
X-30201285Y64266678D02*
X-30851285Y64266678D01*
X-2090000Y72600000D02*
X-3103500Y71586500D01*
X-52456570Y61210000D02*
X-50746648Y59500078D01*
X-31501285Y62316678D02*
X-31501285Y62966678D01*
X-21721285Y61086678D02*
X-22576285Y61086678D01*
X-44487933Y4976578D02*
X-41360148Y4976578D01*
X-28901285Y63616678D02*
X-28901285Y62966678D01*
X-49242918Y39019240D02*
X-51176079Y37086079D01*
X-31501285Y63616678D02*
X-31501285Y62966678D01*
X-11281648Y58635078D02*
X-11246648Y58600078D01*
X-30204785Y2860000D02*
X-29669785Y3395000D01*
X-14753296Y56145156D02*
X-13786648Y57111804D01*
X-53860000Y39680000D02*
X-53770000Y39680000D01*
X-44542141Y67640000D02*
X-44991748Y67190393D01*
X-7900000Y58443430D02*
X-8261648Y58805078D01*
X-30851285Y64916678D02*
X-31501285Y64916678D01*
X-56908585Y37370000D02*
X-51460000Y37370000D01*
X-13170000Y35210000D02*
X-14580000Y36620000D01*
X-36984785Y28890000D02*
X-34837646Y28890000D01*
X-49250156Y52870000D02*
X-50010078Y52110078D01*
X-23830134Y29426592D02*
X-23532208Y29426592D01*
X-57793500Y44018500D02*
X-57793500Y44796500D01*
X-54790000Y100210000D02*
X-54750000Y100250000D01*
X-46715862Y53164138D02*
X-46566492Y53164138D01*
X-31837785Y66530178D02*
X-32151285Y66216678D01*
X-30228399Y56013927D02*
X-29696151Y56013927D01*
X-13786648Y58980078D02*
X-13556648Y59210078D01*
X-28901285Y63616678D02*
X-29551285Y63616678D01*
X-27601285Y64266678D02*
X-27741285Y64406678D01*
X-33019398Y89570078D02*
X-31122920Y87673600D01*
X-27859785Y9450000D02*
X-27859785Y8725000D01*
X-51460000Y37370000D02*
X-51230000Y37140000D01*
X-30201285Y64916678D02*
X-30201285Y64266678D01*
X-36524533Y64603178D02*
X-37641433Y65720078D01*
X-30231137Y43933935D02*
X-30282910Y43985708D01*
X-29551285Y63616678D02*
X-29551285Y64266678D01*
X-22853451Y68340000D02*
X-23621433Y67572018D01*
D43*
X-44814785Y19010000D02*
X-44814785Y16470000D01*
D42*
X-46978081Y5620156D02*
X-45171355Y5620156D01*
X-29551285Y62316678D02*
X-30201285Y62316678D01*
X-46990000Y52890000D02*
X-46715862Y53164138D01*
X-49001433Y31010078D02*
X-47651433Y31010078D01*
X-30731778Y42333300D02*
X-36596998Y42333300D01*
X-29691900Y43536678D02*
X-29448400Y43536678D01*
X-47459785Y86635000D02*
X-45739785Y86635000D01*
X-50240000Y46157000D02*
X-50240000Y44640000D01*
X-11938296Y53750156D02*
X-12156648Y53531804D01*
D43*
X-42274785Y16470000D02*
X-42274785Y19010000D01*
D42*
X-30851285Y62316678D02*
X-30851285Y62966678D01*
X-41573698Y47310000D02*
X-43450000Y47310000D01*
D43*
X-44814785Y21550000D02*
X-42274785Y21550000D01*
D42*
X-27059160Y44325918D02*
X-26178528Y44325918D01*
X-52591596Y55505026D02*
X-52654948Y55568378D01*
X-34837646Y28890000D02*
X-34297646Y28350000D01*
X-30216281Y48816678D02*
X-28788400Y47388797D01*
X-28481285Y64916678D02*
X-28421285Y64856678D01*
X-55559240Y47030760D02*
X-54900000Y47030760D01*
X-34101285Y64916678D02*
X-34414785Y64603178D01*
X-29448400Y43536678D02*
X-28788400Y44196678D01*
X-29532340Y45615118D02*
X-30346664Y46429442D01*
X-57793500Y44796500D02*
X-55559240Y47030760D01*
X-22157000Y33712200D02*
X-20574300Y33712200D01*
X-22546285Y62156678D02*
X-21949607Y61560000D01*
X-8570000Y61730000D02*
X-8651648Y61648352D01*
X-37111285Y61851678D02*
X-37506635Y61851678D01*
X-31501285Y64916678D02*
X-31501285Y64266678D01*
X-11965000Y34610000D02*
X-11965000Y33582500D01*
X-9294785Y19120000D02*
X-10129785Y18285000D01*
X-37681285Y67116678D02*
X-37681285Y66081678D01*
X-31164785Y66530178D02*
X-31184685Y66550078D01*
X-26178528Y44325918D02*
X-25764275Y43911665D01*
X-12565000Y35210000D02*
X-11965000Y34610000D01*
X-16426648Y10335078D02*
X-15981648Y10780078D01*
X-57310000Y43535000D02*
X-57793500Y44018500D01*
D43*
X-36685000Y12805800D02*
X-36685000Y18716200D01*
D42*
X-26548400Y51236678D02*
X-27188400Y50596678D01*
X-30201285Y62966678D02*
X-30851285Y62966678D01*
X-24608285Y36803500D02*
X-25654785Y35757000D01*
X-56960000Y100210000D02*
X-54790000Y100210000D01*
X-54859240Y47030760D02*
X-54180000Y47710000D01*
X-16426648Y5780078D02*
X-16426648Y10335078D01*
X-29448400Y43536678D02*
X-29528400Y43536678D01*
D44*
G04 #@! TO.N,+3V3*
X-38011433Y98518567D02*
X-37972744Y98557256D01*
D42*
X-28402683Y70391678D02*
X-28324484Y70469877D01*
D44*
X-50256648Y57380078D02*
X-50926648Y56710078D01*
D42*
X-24441285Y63756678D02*
X-24026285Y63756678D01*
D44*
X-54846385Y5300840D02*
X-54846385Y21159160D01*
D42*
X-28381285Y57101678D02*
X-27351285Y57101678D01*
D44*
X-54110992Y56898378D02*
X-53274948Y56898378D01*
X-45574900Y106104900D02*
X-49895100Y106104900D01*
D42*
X-27031285Y63046678D02*
X-26951285Y62966678D01*
X-29373336Y46151566D02*
X-29373336Y47281614D01*
X-30819104Y47826950D02*
X-31249376Y47396678D01*
X-25367799Y63953178D02*
X-26614785Y63953178D01*
X-30458505Y60129727D02*
X-30458505Y60085311D01*
X-33588400Y50779126D02*
X-33822400Y51013126D01*
D44*
X-27524785Y34099240D02*
X-27524785Y34702490D01*
X-50256648Y56850078D02*
X-50336648Y56770078D01*
D42*
X-23974785Y61930178D02*
X-24104785Y62060178D01*
D44*
X-54075545Y4530000D02*
X-54846385Y5300840D01*
D45*
X-34414785Y62676678D02*
X-34438285Y62653178D01*
D42*
X-29551285Y66866678D02*
X-29214785Y67203178D01*
D44*
X-36214785Y36240760D02*
X-37034785Y35420760D01*
D42*
X-29371285Y70391678D02*
X-28402683Y70391678D01*
D44*
X-50256648Y57620078D02*
X-50256648Y56850078D01*
X-52601596Y57571730D02*
X-53274948Y56898378D01*
D42*
X-36862963Y63070000D02*
X-35317055Y63070000D01*
D44*
X-56800000Y47030760D02*
X-56800000Y54209370D01*
X-34736570Y36640000D02*
X-33926648Y35830078D01*
D42*
X-29864785Y68036822D02*
X-29864785Y68790178D01*
D44*
X-29946227Y35830078D02*
X-28753830Y37022475D01*
D42*
X-24427286Y63742679D02*
X-25157300Y63742679D01*
X-30514785Y59400068D02*
X-30517285Y59397568D01*
D44*
X-51809948Y56823378D02*
X-51813348Y56823378D01*
D42*
X-30851285Y66866678D02*
X-31501285Y66866678D01*
D44*
X-54846385Y21159160D02*
X-53065545Y22940000D01*
D45*
X-34438285Y62653178D02*
X-34900233Y62653178D01*
D42*
X-30321285Y70381678D02*
X-31391285Y70381678D01*
D44*
X-36214785Y36640000D02*
X-36214785Y36240760D01*
D42*
X-26614785Y63953178D02*
X-26951285Y63616678D01*
X-31988400Y45796678D02*
X-30653026Y45796678D01*
X-28788400Y44996678D02*
X-29603790Y44181288D01*
D44*
X-11595000Y35719187D02*
X-11154109Y36160078D01*
D42*
X-23062785Y60500178D02*
X-21945424Y60500178D01*
D44*
X-31938400Y43426678D02*
X-32766678Y42598400D01*
D42*
X-45180760Y39019240D02*
X-44510000Y39690000D01*
X-29821285Y67690034D02*
X-29821285Y67993322D01*
D44*
X-33926648Y35830078D02*
X-29946227Y35830078D01*
X-43241266Y103771266D02*
X-45574900Y106104900D01*
D42*
X-45740000Y39019240D02*
X-45180760Y39019240D01*
X-28408400Y57111678D02*
X-28418400Y57101678D01*
D44*
X-51813348Y56823378D02*
X-51816648Y56820078D01*
D42*
X-29371285Y70391678D02*
X-30291285Y70391678D01*
D44*
X-52585026Y57598456D02*
X-51809948Y56823378D01*
D42*
X-30221554Y60366678D02*
X-30458505Y60129727D01*
X-29214785Y67203178D02*
X-29214785Y70235178D01*
X-23974785Y61822384D02*
X-23974785Y61930178D01*
X-23546285Y61086678D02*
X-23546285Y61501678D01*
X-32991285Y62316678D02*
X-32801285Y62316678D01*
X-25157300Y63742679D02*
X-25367799Y63953178D01*
D44*
X-14243296Y52069396D02*
X-14243296Y49114325D01*
D42*
X-7401433Y36810078D02*
X-6584785Y35993430D01*
X-27601285Y62966678D02*
X-27521285Y63046678D01*
D44*
X-52646648Y58873648D02*
X-52546648Y58773648D01*
D42*
X-30351285Y66716678D02*
X-30701285Y66716678D01*
X-30514785Y59436678D02*
X-30514785Y59400068D01*
X-30201285Y66866678D02*
X-30351285Y66716678D01*
D44*
X-38011433Y98518567D02*
X-43241266Y103748400D01*
D42*
X-31249376Y47396678D02*
X-31988400Y47396678D01*
X-33588400Y44196678D02*
X-33949296Y44196678D01*
X-34231141Y63280178D02*
X-34414785Y63096534D01*
X-28928224Y46596678D02*
X-29373336Y46151566D01*
X-31501285Y66866678D02*
X-32151285Y66866678D01*
D44*
X-36721433Y78000078D02*
X-36471433Y77750078D01*
D42*
X-30201285Y66866678D02*
X-29821285Y67246678D01*
D44*
X-27524785Y34702490D02*
X-25158675Y37068600D01*
X-25158675Y37068600D02*
X-21925170Y37068600D01*
X-27995740Y37022475D02*
X-27524785Y36551520D01*
D42*
X-34414785Y63096534D02*
X-34414785Y62676678D01*
X-30498128Y47826950D02*
X-30819104Y47826950D01*
X-27521285Y63046678D02*
X-27031285Y63046678D01*
D44*
X-49520000Y57280000D02*
X-48210000Y55970000D01*
D42*
X-26801285Y64116678D02*
X-26951285Y64266678D01*
D44*
X-58206648Y45624112D02*
X-56800000Y47030760D01*
D42*
X-29603790Y44181288D02*
X-29625050Y44181288D01*
D44*
X-52584948Y57591808D02*
X-52584948Y56868378D01*
D42*
X-33451285Y64916678D02*
X-33137785Y65230178D01*
D44*
X-36721433Y81950078D02*
X-36721433Y88280078D01*
D42*
X-32106285Y70371678D02*
X-32101285Y70376678D01*
X-28901285Y60346678D02*
X-29131285Y60576678D01*
X-36686285Y66056678D02*
X-36686285Y67091678D01*
D44*
X-21458070Y36601500D02*
X-15241433Y36601500D01*
X-36721433Y81950078D02*
X-36721433Y79400078D01*
D42*
X-30311285Y69236678D02*
X-30311285Y70371678D01*
X-30514785Y59436678D02*
X-30514785Y58000178D01*
X-6584785Y35993430D02*
X-6584785Y35457500D01*
D44*
X-43241266Y103748400D02*
X-43241266Y103771266D01*
D42*
X-27965492Y52880270D02*
X-28011900Y52926678D01*
X-33137785Y65230178D02*
X-33137785Y66346534D01*
X-35006801Y66530178D02*
X-35593301Y67116678D01*
X-31391285Y70381678D02*
X-32421285Y70381678D01*
X-7906433Y36810078D02*
X-7401433Y36810078D01*
D44*
X-27524785Y36551520D02*
X-27524785Y34099240D01*
D42*
X-33451285Y64266678D02*
X-33451285Y64916678D01*
X-29131285Y60576678D02*
X-29341285Y60576678D01*
X-29864785Y67386822D02*
X-29864785Y67646534D01*
X-36711285Y67116678D02*
X-36181285Y67116678D01*
X-27286992Y52880270D02*
X-27965492Y52880270D01*
X-29864785Y68790178D02*
X-30311285Y69236678D01*
D44*
X-58206648Y28081103D02*
X-58206648Y45624112D01*
D42*
X-29941285Y57426678D02*
X-29941285Y57101678D01*
X-23656285Y63386678D02*
X-23656285Y64426678D01*
X-23825579Y61673178D02*
X-23974785Y61822384D01*
D44*
X-36487190Y42598400D02*
X-43408790Y49520000D01*
X-32766678Y42598400D02*
X-36487190Y42598400D01*
D42*
X-28418400Y57101678D02*
X-29941285Y57101678D01*
X-30514785Y60029031D02*
X-30514785Y59436678D01*
X-30458505Y60085311D02*
X-30514785Y60029031D01*
X-34414785Y62676678D02*
X-34391285Y62653178D01*
X-33327785Y62653178D02*
X-34391285Y62653178D01*
D44*
X-36721433Y88280078D02*
X-38011433Y89570078D01*
D42*
X-32431285Y70371678D02*
X-32106285Y70371678D01*
D44*
X-52546648Y58773648D02*
X-52546648Y57320078D01*
D42*
X-35593301Y67116678D02*
X-36711285Y67116678D01*
X-30201285Y60366678D02*
X-29551285Y60366678D01*
X-23717785Y61673178D02*
X-23825579Y61673178D01*
X-33137785Y66346534D02*
X-33321429Y66530178D01*
X-37111285Y62821678D02*
X-36862963Y63070000D01*
X-24764785Y62060178D02*
X-25334785Y62630178D01*
X-29864785Y67646534D02*
X-29821285Y67690034D01*
X-33994429Y63280178D02*
X-34231141Y63280178D01*
X-33787785Y63930178D02*
X-33787785Y63486822D01*
X-30208400Y48116678D02*
X-30498128Y47826950D01*
X-32056285Y70371678D02*
X-32431285Y70371678D01*
D44*
X-36214785Y36640000D02*
X-34736570Y36640000D01*
D42*
X-31938400Y43426678D02*
X-31988400Y43476678D01*
X-24104785Y62060178D02*
X-24764785Y62060178D01*
D44*
X-56800000Y54209370D02*
X-54110992Y56898378D01*
D42*
X-29821285Y67246678D02*
X-29821285Y67343322D01*
X-24026285Y63756678D02*
X-23656285Y63386678D01*
X-33787785Y63486822D02*
X-33994429Y63280178D01*
X-26464641Y62596678D02*
X-26581285Y62596678D01*
D44*
X-38011433Y89570078D02*
X-38011433Y98518567D01*
D42*
X-33949296Y44196678D02*
X-34131264Y44378646D01*
D45*
X-34900233Y62653178D02*
X-35317055Y63070000D01*
D42*
X-29821285Y67993322D02*
X-29864785Y68036822D01*
X-33451285Y64266678D02*
X-33787785Y63930178D01*
D44*
X-36721433Y79400078D02*
X-36721433Y78000078D01*
D42*
X-26431141Y62630178D02*
X-26464641Y62596678D01*
X-23546285Y61086678D02*
X-23546285Y60016678D01*
X-33327785Y62653178D02*
X-32991285Y62316678D01*
D44*
X-49895100Y106104900D02*
X-50600000Y105400000D01*
X-6521433Y34710078D02*
X-6521433Y35394148D01*
X-53065545Y22940000D02*
X-58206648Y28081103D01*
D42*
X-26801285Y63766678D02*
X-26801285Y64116678D01*
D44*
X-11595000Y35210000D02*
X-11595000Y35719187D01*
D42*
X-26581285Y62596678D02*
X-26951285Y62966678D01*
X-29341285Y60576678D02*
X-29551285Y60366678D01*
D44*
X-28753830Y37022475D02*
X-27995740Y37022475D01*
X-52646648Y59500078D02*
X-52646648Y58873648D01*
D42*
X-30653026Y45796678D02*
X-30572436Y45716088D01*
D44*
X-50256648Y57410078D02*
X-49606648Y56760078D01*
D42*
X-30514785Y58000178D02*
X-29941285Y57426678D01*
X-23546285Y61501678D02*
X-23717785Y61673178D01*
X-21945424Y60500178D02*
X-21920821Y60475575D01*
X-30701285Y66716678D02*
X-30851285Y66866678D01*
X-31988400Y43476678D02*
X-31988400Y44196678D01*
D44*
X-21925170Y37068600D02*
X-21458070Y36601500D01*
D42*
X-33321429Y66530178D02*
X-35006801Y66530178D01*
X-23546285Y60016678D02*
X-23062785Y60500178D01*
X-26951285Y63616678D02*
X-26801285Y63766678D01*
D44*
X-14243296Y49114325D02*
X-13111433Y47982462D01*
D42*
X-25334785Y62630178D02*
X-26431141Y62630178D01*
D44*
X-52536570Y57310000D02*
X-50270000Y57310000D01*
D42*
X-11339785Y33862500D02*
X-11339785Y35210000D01*
X-27351285Y57101678D02*
X-27341285Y57111678D01*
X-29821285Y67343322D02*
X-29864785Y67386822D01*
D44*
X-43408790Y49520000D02*
X-44230000Y49520000D01*
D42*
X-29373336Y47281614D02*
X-30208400Y48116678D01*
G04 #@! TO.N,/A4*
X-38458548Y49640000D02*
X-38458548Y47591452D01*
X-36646262Y57600078D02*
X-38458548Y55787792D01*
X-38458548Y47591452D02*
X-38480000Y47570000D01*
X-38458548Y55787792D02*
X-38458548Y55424907D01*
X-35631433Y57600078D02*
X-36646262Y57600078D01*
X-57330000Y40240000D02*
X-57330000Y41045000D01*
X-33451285Y58194071D02*
X-33775278Y57870078D01*
X-33775278Y57870078D02*
X-35361433Y57870078D01*
X-38458548Y49640000D02*
X-38458548Y49560078D01*
X-33451285Y59066678D02*
X-33451285Y58194071D01*
X-35361433Y57870078D02*
X-35631433Y57600078D01*
X-38458548Y55424907D02*
X-38458548Y49640000D01*
X-57330000Y41045000D02*
X-57300000Y41075000D01*
G04 #@! TO.N,GNDADC*
X-41260000Y59600000D02*
X-46170000Y59600000D01*
X-38029785Y59840215D02*
X-38029785Y59600000D01*
D45*
X-34751285Y60366678D02*
X-35398107Y60366678D01*
D44*
X-18340000Y44236726D02*
X-22401826Y40174900D01*
D42*
X-45631780Y67638220D02*
X-42815000Y70455000D01*
X-8706648Y66230078D02*
X-5286648Y69650078D01*
X-51566648Y63286648D02*
X-52350000Y64070000D01*
D44*
X-5286648Y67730078D02*
X-2851433Y65294863D01*
X-10485982Y47434018D02*
X-15524018Y47434018D01*
X-2851433Y65294863D02*
X-2851433Y52778567D01*
D42*
X-50640000Y64070000D02*
X-49700000Y65010000D01*
D44*
X-5286648Y69650078D02*
X-5286648Y75269648D01*
D42*
X-37050524Y44591117D02*
X-36716418Y44591117D01*
D44*
X-22401826Y40174900D02*
X-34830042Y40174900D01*
D42*
X-9220303Y65700078D02*
X-9180303Y65740078D01*
D44*
X-38534000Y45424000D02*
X-41300000Y48190000D01*
X-34830042Y40174900D02*
X-35757327Y41102185D01*
X-5286648Y69650078D02*
X-5286648Y67730078D01*
X-36760000Y45424000D02*
X-38534000Y45424000D01*
X-2851433Y52778567D02*
X-7860000Y47770000D01*
D42*
X-10479267Y65700078D02*
X-9220303Y65700078D01*
X-38029785Y59600000D02*
X-41260000Y59600000D01*
X-46170000Y59600000D02*
X-50640000Y64070000D01*
D45*
X-35832359Y60362678D02*
X-35104785Y60362678D01*
D44*
X-18340000Y46731511D02*
X-18340000Y44236726D01*
D45*
X-36219681Y60750000D02*
X-35832359Y60362678D01*
D44*
X-7860000Y47770000D02*
X-10150000Y47770000D01*
X-18041433Y47030078D02*
X-18340000Y46731511D01*
D46*
X-48814785Y81185000D02*
X-45114785Y81185000D01*
D42*
X-42815000Y70455000D02*
X-42815000Y78885215D01*
D44*
X-17751435Y47030078D02*
X-18041433Y47030078D01*
X-41300000Y48190000D02*
X-41300000Y59560000D01*
D42*
X-49700000Y67638220D02*
X-45631780Y67638220D01*
D44*
X-10150000Y47770000D02*
X-10485982Y47434018D01*
D42*
X-9389785Y45195000D02*
X-10174785Y44410000D01*
X-51566648Y62669318D02*
X-51566648Y63286648D01*
X-42815000Y78885215D02*
X-44944785Y81015000D01*
X-36219681Y60750000D02*
X-37120000Y60750000D01*
X-49700000Y65010000D02*
X-49700000Y67638220D01*
D44*
X-15524018Y47434018D02*
X-16410000Y48320000D01*
D42*
X-52350000Y64070000D02*
X-50640000Y64070000D01*
X-37120000Y60750000D02*
X-38029785Y59840215D01*
G04 #@! TO.N,/A5*
X-35626725Y58153178D02*
X-35839903Y57940000D01*
X-33787785Y59380178D02*
X-33787785Y58178597D01*
X-38940000Y41275488D02*
X-38937744Y41277744D01*
X-38850000Y55954785D02*
X-38850000Y46389370D01*
X-33813204Y58153178D02*
X-35626725Y58153178D01*
X-37163648Y37650000D02*
X-38940000Y39426352D01*
X-36694785Y31380500D02*
X-36694785Y30730000D01*
X-33787785Y58178597D02*
X-33813204Y58153178D01*
X-38850000Y46389370D02*
X-38672980Y46212350D01*
X-36864785Y57940000D02*
X-38850000Y55954785D01*
X-38940000Y39426352D02*
X-38940000Y41275488D01*
X-35839903Y57940000D02*
X-36864785Y57940000D01*
X-33451285Y59716678D02*
X-33787785Y59380178D01*
G04 #@! TO.N,Net-(Bank_But1-B)*
X-7310000Y98890000D02*
X-6600000Y99600000D01*
X-7310000Y97570000D02*
X-7310000Y98890000D01*
G04 #@! TO.N,+12V*
X-21096648Y22550078D02*
X-21826648Y23280078D01*
D44*
X-26441726Y24525000D02*
X-23071570Y24525000D01*
X-33459785Y28970000D02*
X-34119785Y29630000D01*
X-49028179Y34710078D02*
X-50462562Y36144461D01*
X-7916648Y59430078D02*
X-6414785Y57928215D01*
D42*
X-52999718Y68700000D02*
X-49520000Y68700000D01*
D44*
X-44048403Y34710078D02*
X-49028179Y34710078D01*
D42*
X-51931648Y67361318D02*
X-53100048Y68529718D01*
X-55461500Y41443500D02*
X-52115364Y41443500D01*
X-53240000Y68529718D02*
X-53170000Y68529718D01*
D44*
X-7740000Y46420000D02*
X-5600000Y44280000D01*
X-32654785Y8060000D02*
X-33079785Y8485000D01*
X-34119785Y29630000D02*
X-36204785Y29630000D01*
D42*
X-18666648Y7325078D02*
X-17471647Y7325078D01*
X-12251648Y60724638D02*
X-11792808Y60724638D01*
X-53170000Y68529718D02*
X-52999718Y68700000D01*
D44*
X-23071570Y24525000D02*
X-21826648Y23280078D01*
X-5600000Y35122751D02*
X-1831033Y31353784D01*
D42*
X-56290000Y40615000D02*
X-55700000Y41205000D01*
X-11590000Y41435000D02*
X-11590000Y42410000D01*
X-55700000Y41205000D02*
X-55461500Y41443500D01*
X-52115364Y41443500D02*
X-51725364Y41053500D01*
D44*
X-11778248Y62173478D02*
X-11778248Y60710078D01*
X-33459785Y28970000D02*
X-33459785Y29860000D01*
X-49405478Y51085478D02*
X-50806648Y51085478D01*
X-6339785Y19094750D02*
X-6724785Y18709750D01*
D42*
X-7740000Y45400000D02*
X-7740000Y46420000D01*
D44*
X-11778248Y59242580D02*
X-11878240Y59142588D01*
X-5600000Y44280000D02*
X-5600000Y35122751D01*
D42*
X-17396648Y7400077D02*
X-17396648Y12104590D01*
D44*
X-6339785Y21615000D02*
X-8204785Y23480000D01*
D42*
X-53240000Y68529718D02*
X-56081648Y68529718D01*
X-10096500Y43043500D02*
X-7740000Y45400000D01*
D44*
X-56290000Y39680000D02*
X-55330000Y38720000D01*
X-1821433Y30290078D02*
X-1821433Y31082878D01*
D42*
X-17396648Y12104590D02*
X-17494392Y12202334D01*
D44*
X-44709785Y86695000D02*
X-44709785Y85320000D01*
D42*
X-56290000Y39680000D02*
X-56290000Y40615000D01*
D44*
X-31504785Y8060000D02*
X-32654785Y8060000D01*
X-44709785Y85320000D02*
X-44474785Y85085000D01*
D42*
X-11590000Y42410000D02*
X-11010000Y42990000D01*
D44*
X-41651433Y30710078D02*
X-41651433Y31659058D01*
X-6339785Y20159750D02*
X-6339785Y21615000D01*
X-33459785Y29860000D02*
X-34064785Y30465000D01*
D42*
X-11010000Y42990000D02*
X-10956500Y43043500D01*
D44*
X-32146648Y8060000D02*
X-32654785Y8060000D01*
X-55330000Y38720000D02*
X-53465489Y38720000D01*
X-47944785Y83360000D02*
X-44709785Y86595000D01*
X-6414785Y57928215D02*
X-6414785Y57260000D01*
X-41902453Y32564128D02*
X-44048403Y34710078D01*
X-8529922Y59430078D02*
X-7916648Y59430078D01*
D42*
X-11792808Y60724638D02*
X-11778248Y60710078D01*
D44*
X-1901433Y30210078D02*
X-1821433Y30290078D01*
X-41902453Y31910078D02*
X-41902453Y32564128D01*
D42*
X-17396648Y7690078D02*
X-17396648Y5780078D01*
X-17471647Y7325078D02*
X-17396648Y7400077D01*
X-10956500Y43043500D02*
X-10096500Y43043500D01*
D44*
X-55101433Y32710078D02*
X-55101433Y33738478D01*
X-1831033Y31353784D02*
X-1831033Y31085078D01*
X-26536648Y24430078D02*
X-26441726Y24525000D01*
D42*
X-21096648Y21780078D02*
X-21096648Y22550078D01*
D44*
X-55101433Y33738478D02*
X-52379833Y36460078D01*
X-49380000Y51060000D02*
X-49405478Y51085478D01*
D42*
X-53100048Y68529718D02*
X-53240000Y68529718D01*
D44*
X-9770000Y58190000D02*
X-8529922Y59430078D01*
D42*
X-51931648Y66984318D02*
X-51931648Y67361318D01*
D44*
X-11778248Y60710078D02*
X-11778248Y59242580D01*
X-6339785Y20159750D02*
X-6339785Y19094750D01*
X-53465489Y38720000D02*
X-52699302Y37953813D01*
G04 #@! TO.N,-12VA*
X-33854785Y20890000D02*
X-33854785Y25015000D01*
D42*
X-23046648Y27680078D02*
X-24586648Y27680078D01*
D44*
X-15011648Y11216600D02*
X-16895048Y13100000D01*
X-12276648Y55255078D02*
X-10709707Y55255078D01*
X-25764785Y4795000D02*
X-25764785Y11130000D01*
X-12279535Y15214750D02*
X-12404785Y15340000D01*
D42*
X-53427002Y42777002D02*
X-54190000Y43540000D01*
D44*
X-29389785Y32415000D02*
X-29514785Y32540000D01*
X-13011433Y52340078D02*
X-13011433Y53647019D01*
X-48473213Y1731858D02*
X-49991433Y3250078D01*
D42*
X-50652000Y43155000D02*
X-51029998Y42777002D01*
D44*
X-29899785Y28970000D02*
X-29899785Y29985000D01*
D42*
X-37949811Y3291700D02*
X-37431433Y3810078D01*
D44*
X-29051433Y2425000D02*
X-29289785Y2425000D01*
X-11099785Y15214750D02*
X-12279535Y15214750D01*
D42*
X-17490000Y39485000D02*
X-19815000Y39485000D01*
D44*
X-15566648Y9850078D02*
X-15011648Y10405078D01*
D42*
X-50560000Y82410000D02*
X-50560000Y82949785D01*
X-49800000Y43155000D02*
X-50652000Y43155000D01*
D44*
X-12908296Y54623430D02*
X-12276648Y55255078D01*
X-15566648Y9320078D02*
X-15566648Y9850078D01*
D42*
X-18150000Y37990000D02*
X-18150000Y38825000D01*
D44*
X-9662415Y59740078D02*
X-8044267Y59740078D01*
X-49449785Y83135000D02*
X-50374785Y83135000D01*
X-47771433Y1731858D02*
X-48473213Y1731858D01*
X-26694785Y13730000D02*
X-33854785Y20890000D01*
D42*
X-28411433Y1570078D02*
X-28411433Y1785000D01*
D44*
X-12766648Y9275078D02*
X-14549785Y9275078D01*
X-28164785Y32415000D02*
X-29389785Y32415000D01*
D42*
X-35846648Y5394863D02*
X-37431433Y3810078D01*
X-49800000Y43155000D02*
X-49230000Y43725000D01*
D44*
X-28134785Y2425000D02*
X-29051433Y2425000D01*
D42*
X-51029998Y42777002D02*
X-51029998Y38040000D01*
D44*
X-12908296Y53750156D02*
X-12908296Y54623430D01*
X-15011648Y10405078D02*
X-15011648Y10780078D01*
X-15011648Y10780078D02*
X-15011648Y11216600D01*
X-29289785Y2425000D02*
X-29554785Y2160000D01*
D42*
X-18150000Y38825000D02*
X-17490000Y39485000D01*
D44*
X-14549785Y9275078D02*
X-14694785Y9420078D01*
D42*
X-19815000Y39485000D02*
X-20640000Y38660000D01*
D44*
X-48429785Y86635000D02*
X-48429785Y84155000D01*
X-10344785Y59057708D02*
X-9662415Y59740078D01*
X-10344785Y55620000D02*
X-10344785Y59057708D01*
X-7411648Y64195078D02*
X-5806648Y64195078D01*
D42*
X-49230000Y43725000D02*
X-49230000Y44600000D01*
D44*
X-29899785Y29985000D02*
X-29714785Y30170000D01*
D42*
X-50560000Y82949785D02*
X-50374785Y83135000D01*
D44*
X-29899785Y28970000D02*
X-33854785Y25015000D01*
X-8044267Y59740078D02*
X-7719785Y60064560D01*
D42*
X-51029998Y42777002D02*
X-53427002Y42777002D01*
X-38919811Y3291700D02*
X-37949811Y3291700D01*
D44*
X-47771433Y1731858D02*
X-40479653Y1731858D01*
X-48429785Y84155000D02*
X-49449785Y83135000D01*
D42*
X-49230000Y44600000D02*
X-49270000Y44640000D01*
D44*
X-10709707Y55255078D02*
X-10344785Y55620000D01*
X-11099785Y15234750D02*
X-12624785Y16759750D01*
X-28134785Y2425000D02*
X-25764785Y4795000D01*
D42*
X-40479653Y1731858D02*
X-38919811Y3291700D01*
D44*
X-28724785Y27795000D02*
X-24791570Y27795000D01*
X-7719785Y63886941D02*
X-7411648Y64195078D01*
D42*
X-28411433Y1785000D02*
X-29051433Y2425000D01*
D44*
X-7719785Y60064560D02*
X-7719785Y63886941D01*
X-29899785Y28970000D02*
X-28724785Y27795000D01*
D42*
G04 #@! TO.N,/A2*
X-21740126Y39606600D02*
X-36626600Y39606600D01*
X-17291383Y56107069D02*
X-17291383Y44055343D01*
X-15428296Y57970156D02*
X-17291383Y56107069D01*
X-34494785Y58753178D02*
X-37272400Y58753178D01*
X-34437785Y58810178D02*
X-34494785Y58753178D01*
X-39210000Y42190000D02*
X-39403500Y42190000D01*
X-34437785Y59380178D02*
X-34437785Y58810178D01*
X-36626600Y39606600D02*
X-39210000Y42190000D01*
X-34101285Y59716678D02*
X-34437785Y59380178D01*
X-37272400Y58753178D02*
X-39277721Y56747857D01*
X-17291383Y44055343D02*
X-21740126Y39606600D01*
X-39277721Y56747857D02*
X-39277721Y47163291D01*
D45*
G04 #@! TO.N,/A7*
X-34418785Y60049178D02*
X-36040533Y60049178D01*
X-38661433Y69480078D02*
X-39131433Y69950078D01*
D42*
X-41954785Y84525000D02*
X-39546433Y84525000D01*
D45*
X-39131433Y69950078D02*
X-39131433Y71670078D01*
D42*
X-39131433Y74853578D02*
X-38324933Y75660078D01*
D45*
X-34101285Y60366678D02*
X-34418785Y60049178D01*
D42*
X-39131433Y71670078D02*
X-39131433Y74853578D01*
D45*
X-36040533Y60049178D02*
X-36241433Y60250078D01*
D42*
X-39546433Y84525000D02*
X-39371433Y84350000D01*
G04 #@! TO.N,/A6*
X-34426440Y65227043D02*
X-34452575Y65253178D01*
X-56960000Y103880000D02*
X-57030000Y103950000D01*
X-33732087Y60665676D02*
X-33732087Y60647480D01*
X-38624933Y87671511D02*
X-38624933Y95494933D01*
X-45040000Y101910000D02*
X-56960000Y101910000D01*
X-56960000Y101910000D02*
X-56960000Y103880000D01*
X-35957785Y65253178D02*
X-36131285Y65426678D01*
X-38624933Y95494933D02*
X-45040000Y101910000D01*
X-37340000Y86386578D02*
X-38624933Y87671511D01*
X-33732087Y60647480D02*
X-33451285Y60366678D01*
X-37340000Y85590000D02*
X-37340000Y86386578D01*
X-34452575Y65253178D02*
X-35957785Y65253178D01*
G04 #@! TO.N,/D6*
X-15080000Y103520000D02*
X-14930000Y103670000D01*
X-27491285Y59066678D02*
X-27601285Y59066678D01*
X-21432400Y56719500D02*
X-24925133Y56719500D01*
X-14930000Y103670000D02*
X-13460000Y103670000D01*
X-25290285Y56865678D02*
X-27491285Y59066678D01*
X-18144785Y57920000D02*
X-19034785Y57030000D01*
X-24925133Y56719500D02*
X-25071311Y56865678D01*
X-21121900Y57030000D02*
X-21432400Y56719500D01*
X-25071311Y56865678D02*
X-25290285Y56865678D01*
X-19034785Y57030000D02*
X-21121900Y57030000D01*
X-13460000Y103670000D02*
X-13460000Y101750000D01*
G04 #@! TO.N,/D8*
X-25874444Y45702763D02*
X-25874444Y44616208D01*
X-24325876Y57344123D02*
X-25651285Y58669532D01*
X-40644933Y48244303D02*
X-39775315Y47374685D01*
X-25268400Y43419433D02*
X-26581533Y42106300D01*
X-25268400Y44010164D02*
X-25268400Y43419433D01*
X-40000000Y59136500D02*
X-40644933Y58491567D01*
X-40644933Y58491567D02*
X-40644933Y48244303D01*
X-36980000Y95860000D02*
X-36740000Y96100000D01*
X-25874444Y44616208D02*
X-25268400Y44010164D01*
X-26581533Y42106300D02*
X-37566300Y42106300D01*
X-37566300Y42106300D02*
X-39660000Y44200000D01*
X-25651285Y58669532D02*
X-25651285Y59066678D01*
X-36740000Y96100000D02*
X-36740000Y97220000D01*
G04 #@! TO.N,/A9*
X-49794785Y86615000D02*
X-49794785Y87740000D01*
X-49794785Y87740000D02*
X-49484707Y88050078D01*
X-39551433Y67308751D02*
X-38698940Y66456258D01*
X-49484707Y88050078D02*
X-43951433Y88050078D01*
D45*
X-37901433Y57610078D02*
X-37631433Y57610078D01*
D42*
X-43951433Y88050078D02*
X-43911433Y88010078D01*
D45*
X-34370521Y58453178D02*
X-34101285Y58722414D01*
D42*
X-38721433Y87400078D02*
X-38721433Y83598567D01*
D45*
X-37631433Y57610078D02*
X-37019756Y58221755D01*
D42*
X-39331433Y88010078D02*
X-38721433Y87400078D01*
X-38721433Y83598567D02*
X-39551433Y82768567D01*
X-43911433Y88010078D02*
X-39331433Y88010078D01*
D45*
X-37019756Y58221755D02*
X-35882412Y58221755D01*
X-34101285Y58722414D02*
X-34101285Y59066678D01*
X-35882412Y58221755D02*
X-35650989Y58453178D01*
X-35650989Y58453178D02*
X-34370521Y58453178D01*
D42*
X-39551433Y82768567D02*
X-39551433Y67308751D01*
G04 #@! TO.N,Net-(Bank_But1-POLE-A)*
X-11370000Y105370000D02*
X-10750000Y104750000D01*
X-13460000Y105370000D02*
X-11370000Y105370000D01*
G04 #@! TO.N,Net-(U1B--)*
X-11706648Y63545078D02*
X-11706648Y62895078D01*
X-11744785Y62915000D02*
X-13266570Y62915000D01*
G04 #@! TO.N,/D15*
X-30681433Y19600078D02*
X-30681433Y24200078D01*
X-19732678Y56773578D02*
X-20186256Y56320000D01*
X-25012135Y56320000D02*
X-25151731Y56180404D01*
X-25433070Y13161715D02*
X-25433070Y14351715D01*
X-20186256Y56320000D02*
X-25012135Y56320000D01*
X-27096285Y11498500D02*
X-27096285Y7468500D01*
X-21288226Y37726871D02*
X-21288226Y39322752D01*
X-30681433Y24200078D02*
X-28061433Y26820078D01*
X-28061433Y26820078D02*
X-27781433Y26820078D01*
X-30681433Y19600078D02*
X-25433070Y14351715D01*
X-19883128Y56623128D02*
X-19732678Y56773578D01*
X-25433070Y13161715D02*
X-27096285Y11498500D01*
X-27601285Y62316678D02*
X-27921329Y62636722D01*
X-19732678Y56773578D02*
X-18461433Y56773578D01*
X-27921329Y62636722D02*
X-28171429Y62636722D01*
X-20951433Y37390078D02*
X-21288226Y37726871D01*
X-27096285Y7468500D02*
X-27764785Y6800000D01*
G04 #@! TO.N,/D13*
X-21515226Y38857156D02*
X-21879635Y39221565D01*
D45*
X-27908719Y61989319D02*
X-27601285Y61681885D01*
D42*
X-21515226Y37632845D02*
X-21515225Y37820898D01*
X-21515225Y37820898D02*
X-21515226Y38857156D01*
D44*
X-50244785Y23890000D02*
X-49484785Y23130000D01*
D42*
X-48584785Y23200000D02*
X-49414785Y23200000D01*
X-21481433Y37390078D02*
X-21481433Y37599052D01*
X-21481433Y37599052D02*
X-21515226Y37632845D01*
D44*
X-51066565Y23890000D02*
X-50244785Y23890000D01*
D42*
G04 #@! TO.N,Net-(Bank_But1-G)*
X-11210000Y98107000D02*
X-8400000Y100917000D01*
X-8400000Y100917000D02*
X-8400000Y105400000D01*
X-11210000Y97480000D02*
X-11210000Y98107000D01*
G04 #@! TO.N,Net-(Bank_But1-R)*
X-9470000Y97500000D02*
X-9470000Y98530000D01*
X-9470000Y98530000D02*
X-8400000Y99600000D01*
G04 #@! TO.N,Net-(POT_PITCH1-Center)*
X-11826648Y66132697D02*
X-11826648Y74796352D01*
X-12231433Y65727912D02*
X-11826648Y66132697D01*
X-11826648Y74796352D02*
X-10820000Y75803000D01*
X-12812088Y65994638D02*
X-14343352Y64463374D01*
G04 #@! TO.N,VREF+*
X-7053500Y40166500D02*
X-7053500Y43423142D01*
X-57230000Y68177966D02*
X-57230000Y63981910D01*
D44*
X-17891433Y44025293D02*
X-22045026Y39871700D01*
X-16221001Y47086878D02*
X-16827883Y46479996D01*
D42*
X-56307408Y62772193D02*
X-56307408Y63059318D01*
X-7053500Y43423142D02*
X-6253006Y44223636D01*
X-8050000Y39170000D02*
X-7053500Y40166500D01*
D44*
X-4554633Y47086878D02*
X-2535100Y49106411D01*
D42*
X-54952966Y70455000D02*
X-57230000Y68177966D01*
D44*
X-54956648Y61188567D02*
X-54735215Y61410000D01*
X-10472488Y77697512D02*
X-14940000Y73230000D01*
X-54956648Y60890078D02*
X-54956648Y61188567D01*
D42*
X-57230000Y63981910D02*
X-56307408Y63059318D01*
X-36378033Y59716678D02*
X-36941433Y60280078D01*
X-52815000Y70455000D02*
X-54952966Y70455000D01*
D44*
X-55220000Y60735215D02*
X-54745215Y61210000D01*
X-35366788Y39871700D02*
X-37137888Y41642800D01*
X-4245239Y76878669D02*
X-5064082Y77697512D01*
X-4554633Y47086878D02*
X-16221001Y47086878D01*
X-4245239Y67318669D02*
X-4245239Y76878669D01*
X-2535100Y49106411D02*
X-2535100Y65608530D01*
X-2535100Y65608530D02*
X-4245239Y67318669D01*
X-22045026Y39871700D02*
X-35366788Y39871700D01*
D42*
X-54745215Y61210000D02*
X-56307408Y62772193D01*
X-34751285Y59716678D02*
X-36378033Y59716678D01*
D44*
X-55230000Y53894000D02*
X-55230000Y54620000D01*
X-55220000Y60100000D02*
X-55220000Y60735215D01*
X-5064082Y77697512D02*
X-10472488Y77697512D01*
X-14940000Y73230000D02*
X-14940000Y73200000D01*
X-46760000Y45424000D02*
X-55230000Y53894000D01*
X-17891433Y46440078D02*
X-17891433Y44025293D01*
D42*
G04 #@! TO.N,/D11*
X-24004785Y60100178D02*
X-24921285Y61016678D01*
X-22290000Y100370000D02*
X-22290000Y99900000D01*
X-24921285Y61016678D02*
X-25651285Y61016678D01*
X-24004785Y59566111D02*
X-24004785Y60100178D01*
X-23181785Y99008215D02*
X-23181785Y79978215D01*
X-22290000Y99900000D02*
X-23181785Y99008215D01*
X-23713559Y71420078D02*
X-23700137Y71433500D01*
X-23181785Y79978215D02*
X-23320000Y79840000D01*
X-22965352Y58526678D02*
X-24004785Y59566111D01*
X-22965352Y58526678D02*
X-21878107Y58526678D01*
X-25361433Y71420078D02*
X-23713559Y71420078D01*
X-21878107Y58526678D02*
X-19674785Y60730000D01*
G04 #@! TO.N,/D10*
X-50740000Y107460000D02*
X-49266500Y107460000D01*
X-24831107Y56946500D02*
X-26951285Y59066678D01*
X-49266500Y107460000D02*
X-49000000Y107726500D01*
X-22278285Y56946500D02*
X-24831107Y56946500D01*
X-19054785Y60170000D02*
X-22278285Y56946500D01*
G04 #@! TO.N,/D14*
X-24539092Y63028871D02*
X-25025900Y63515679D01*
X-25025900Y63515679D02*
X-25550286Y63515679D01*
X-36770000Y100440000D02*
X-36770000Y98650002D01*
X-25550286Y63515679D02*
X-25651285Y63616678D01*
X-22690000Y87460000D02*
X-22690000Y98470006D01*
G04 #@! TO.N,/D12*
X-36770000Y103080000D02*
X-36750000Y103060000D01*
X-21851433Y68926648D02*
X-21851433Y68420078D01*
X-36770000Y104680000D02*
X-36770000Y103080000D01*
X-25651285Y64916678D02*
X-25251285Y64916678D01*
X-25251285Y64916678D02*
X-25081285Y64746678D01*
X-36770000Y105686500D02*
X-36990000Y105906500D01*
X-22294785Y69370000D02*
X-21851433Y68926648D01*
X-36770000Y104680000D02*
X-36770000Y105686500D01*
G04 #@! TO.N,Net-(POT_SAMP1-Center)*
X-47815000Y78485215D02*
X-50514785Y81185000D01*
D46*
X-51994785Y82665000D02*
X-50514785Y81185000D01*
D42*
X-47815000Y70455000D02*
X-47815000Y78485215D01*
G04 #@! TO.N,/D0*
X-24555629Y70562334D02*
X-26951285Y68166678D01*
X-12490000Y95780000D02*
X-11210000Y95780000D01*
X-21680000Y70562334D02*
X-24555629Y70562334D01*
X-12550000Y95720000D02*
X-12490000Y95780000D01*
G04 #@! TO.N,/D1*
X-9470000Y95800000D02*
X-17320000Y87950000D01*
X-29421433Y77560078D02*
X-32389922Y77560078D01*
X-34101285Y66866678D02*
X-34414785Y67180178D01*
X-34930273Y67180178D02*
X-36091433Y68341338D01*
X-34414785Y67180178D02*
X-34930273Y67180178D01*
X-17320000Y87950000D02*
X-22314933Y87950000D01*
X-36091433Y68341338D02*
X-36091433Y69530078D01*
X-32389922Y77560078D02*
X-33250000Y76700000D01*
G04 #@! TO.N,/D3*
X-44761214Y97370000D02*
X-39536500Y92145286D01*
X-25987785Y66553178D02*
X-26301285Y66866678D01*
X-35891433Y76540078D02*
X-38168433Y76540078D01*
X-38324933Y76696578D02*
X-38324933Y78570078D01*
X-38168433Y76540078D02*
X-38324933Y76696578D01*
X-23961285Y78580078D02*
X-27511433Y78580078D01*
X-34461511Y77970000D02*
X-35891433Y76540078D01*
X-28121511Y77970000D02*
X-34461511Y77970000D01*
X-47940000Y97370000D02*
X-44761214Y97370000D01*
X-25271607Y66553178D02*
X-25987785Y66553178D01*
X-27511433Y78580078D02*
X-28121511Y77970000D01*
X-25174785Y66650000D02*
X-25271607Y66553178D01*
G04 #@! TO.N,/D5*
X-20070000Y68910000D02*
X-20711511Y68910000D01*
X-25978285Y65243678D02*
X-26301285Y65566678D01*
X-20711511Y68910000D02*
X-22161285Y67460226D01*
X-22161285Y65243678D02*
X-25978285Y65243678D01*
X-22161285Y67460226D02*
X-22161285Y65243678D01*
X-5870000Y96250000D02*
X-5610000Y96510000D01*
X-5610000Y96510000D02*
X-5610000Y97570000D01*
G04 #@! TO.N,/D19*
X-26967863Y67516678D02*
X-27257734Y67806549D01*
G04 #@! TO.N,/D18*
X-33791511Y80630000D02*
X-29051751Y80630000D01*
X-35021433Y79400078D02*
X-33791511Y80630000D01*
X-25288811Y67830178D02*
X-24078989Y69040000D01*
X-27691829Y79270078D02*
X-22531285Y79270078D01*
X-25987785Y67830178D02*
X-25288811Y67830178D01*
X-24078989Y69040000D02*
X-23104785Y69040000D01*
X-26301285Y67516678D02*
X-25987785Y67830178D01*
X-29051751Y80630000D02*
X-27691829Y79270078D01*
G04 #@! TO.N,/D7*
X-56250000Y97390000D02*
X-56280000Y97420000D01*
X-26623026Y59373759D02*
X-26608366Y59373759D01*
X-51610000Y106460000D02*
X-51670000Y106520000D01*
X-26608366Y59373759D02*
X-26301285Y59066678D01*
X-17430000Y60410500D02*
X-18820500Y59020000D01*
X-19630000Y81660000D02*
X-19630000Y87330000D01*
X-55200000Y97390000D02*
X-56250000Y97390000D01*
X-19640000Y102820000D02*
X-23280000Y106460000D01*
X-19620000Y72730000D02*
X-17430000Y70540000D01*
X-24820000Y47530000D02*
X-22160000Y47530000D01*
X-17430000Y70540000D02*
X-17430000Y60410500D01*
X-23280000Y106460000D02*
X-51610000Y106460000D01*
X-19640000Y88810000D02*
X-19640000Y102820000D01*
X-22160000Y47530000D02*
X-19940000Y49750000D01*
G04 #@! TO.N,/D17*
X-28861900Y86748100D02*
X-28379249Y87230751D01*
X-35021433Y87050078D02*
X-34719455Y86748100D01*
X-26315758Y64916678D02*
X-26613522Y64618915D01*
X-34719455Y86748100D02*
X-28861900Y86748100D01*
X-28379249Y87230751D02*
X-26853180Y87230751D01*
G04 #@! TO.N,/D16*
X-35021433Y84500078D02*
X-29583853Y84500078D01*
X-29583853Y84500078D02*
X-27953000Y86130931D01*
X-26301285Y64266678D02*
X-25971285Y64596678D01*
G04 #@! TO.N,/D9*
X-27601285Y68166678D02*
X-27601285Y68702318D01*
X-27601285Y68702318D02*
X-27401725Y68901878D01*
D45*
G04 #@! TO.N,/A0*
X-35220000Y46111703D02*
X-35220000Y44200000D01*
D42*
X-32801285Y60381369D02*
X-33126178Y60706262D01*
D45*
X-35220000Y44200000D02*
X-35220000Y43190000D01*
X-35200000Y38340000D02*
X-35200000Y38210002D01*
X-27664785Y28360000D02*
X-26949785Y28360000D01*
X-35220000Y43190000D02*
X-35200000Y43170000D01*
X-29888388Y30980000D02*
X-29039785Y30131397D01*
X-29039785Y30131397D02*
X-29039785Y29735000D01*
X-31621433Y30980000D02*
X-29888388Y30980000D01*
X-37121900Y48013603D02*
X-35220000Y46111703D01*
X-26949785Y28360000D02*
X-26369785Y28940000D01*
X-29039785Y29735000D02*
X-27664785Y28360000D01*
X-35200000Y38210002D02*
X-34589999Y37600001D01*
X-37121900Y49750000D02*
X-37121900Y48013603D01*
G04 #@! TO.N,/A1*
X-35021433Y57500078D02*
X-33537885Y57500078D01*
X-36660000Y57070000D02*
X-35451511Y57070000D01*
D42*
X-37050148Y74162066D02*
X-36368636Y74843578D01*
X-17915973Y72326999D02*
X-17899052Y72310078D01*
X-17899052Y72310078D02*
X-14681433Y72310078D01*
X-38561433Y67810078D02*
X-37050148Y69321363D01*
X-13700000Y71328645D02*
X-13700000Y66000000D01*
X-37050148Y69321363D02*
X-37050148Y74162066D01*
X-18081906Y72326999D02*
X-17915973Y72326999D01*
X-20598485Y74843578D02*
X-18081906Y72326999D01*
X-15011433Y64780078D02*
X-15011433Y63689863D01*
X-36368636Y74843578D02*
X-20598485Y74843578D01*
X-15011433Y63689863D02*
X-14301648Y62980078D01*
X-13700000Y66000000D02*
X-15070000Y64630000D01*
D45*
X-35451511Y57070000D02*
X-35021433Y57500078D01*
D42*
X-14101433Y65690078D02*
X-15011433Y64780078D01*
X-14681433Y72310078D02*
X-13700000Y71328645D01*
D45*
X-33537885Y57500078D02*
X-33114785Y57923178D01*
X-33114785Y59421629D02*
X-32819736Y59716678D01*
X-33114785Y57923178D02*
X-33114785Y59421629D01*
D42*
G04 #@! TO.N,/A3*
X-36498733Y61350078D02*
X-38911433Y61350078D01*
X-4146648Y65870078D02*
X-5491433Y65870078D01*
X-12680000Y67670000D02*
X-12680000Y70993430D01*
X-34101285Y61016678D02*
X-34428285Y60689678D01*
X-3396648Y65120078D02*
X-4146648Y65870078D01*
X-4278296Y60644638D02*
X-3396648Y61526286D01*
X-35838333Y60689678D02*
X-36498733Y61350078D01*
X-14516648Y72830078D02*
X-17942459Y72830078D01*
X-12680000Y70993430D02*
X-14516648Y72830078D01*
X-17942459Y72830078D02*
X-20192459Y75080078D01*
X-20192459Y75080078D02*
X-37731433Y75080078D01*
X-3396648Y61526286D02*
X-3396648Y65120078D01*
X-34388285Y60729678D02*
X-34101285Y61016678D01*
X-34428285Y60689678D02*
X-35838333Y60689678D01*
X-34388285Y60712162D02*
X-34388285Y60729678D01*
X-37731433Y75080078D02*
X-38341433Y74470078D01*
G04 #@! TO.N,/A8*
X-33743017Y61330178D02*
X-35111533Y61330178D01*
X-33717285Y61304446D02*
X-33743017Y61330178D01*
X-48600000Y40280000D02*
X-48610000Y40280000D01*
X-38058548Y53440078D02*
X-38058548Y52200078D01*
X-43020000Y40200000D02*
X-43040000Y40180000D01*
X-48610000Y40280000D02*
X-49270000Y39620000D01*
X-37168548Y54330078D02*
X-38058548Y53440078D01*
X-39360000Y40200000D02*
X-43020000Y40200000D01*
X-33451285Y61038446D02*
X-33717285Y61304446D01*
X-35111533Y61330178D02*
X-35231433Y61450078D01*
D44*
G04 #@! TO.N,Net-(J2-SIG)*
X-23101433Y39120078D02*
X-23944785Y38276726D01*
X-23944785Y38276726D02*
X-23944785Y37840000D01*
D42*
G04 #@! TO.N,Net-(U15B-+)*
X-6320000Y40780000D02*
X-6390000Y40850000D01*
X-9750000Y39170000D02*
X-9086500Y38506500D01*
X-11590000Y39485000D02*
X-10065000Y39485000D01*
X-10065000Y39485000D02*
X-9750000Y39170000D01*
X-6993500Y38506500D02*
X-6320000Y39180000D01*
X-6320000Y39180000D02*
X-6320000Y40780000D01*
X-9086500Y38506500D02*
X-6993500Y38506500D01*
G04 #@! TO.N,Net-(J7-SIG)*
X-44830000Y42820000D02*
X-43579500Y41569500D01*
X-43579500Y39484500D02*
X-45999000Y37065000D01*
X-43579500Y41569500D02*
X-43579500Y39484500D01*
G04 #@! TO.N,Net-(C46-Pad1)*
X-9690000Y42380000D02*
X-9690000Y40780000D01*
X-9690000Y40780000D02*
X-9700000Y40770000D01*
X-13556648Y56740078D02*
X-13556648Y56271804D01*
X-9100000Y42970000D02*
X-9100000Y43470000D01*
X-9700000Y40770000D02*
X-11575000Y40770000D01*
X-9690000Y42380000D02*
X-9100000Y42970000D01*
X-11575000Y40770000D02*
X-11590000Y40785000D01*
G04 #@! TO.N,Net-(U15B--)*
X-11561500Y40106500D02*
X-11590000Y40135000D01*
X-7990000Y42380000D02*
X-7990000Y40780000D01*
X-8000000Y40770000D02*
X-8663500Y40106500D01*
X-14440000Y42133000D02*
X-12442000Y40135000D01*
X-7990000Y40780000D02*
X-8000000Y40770000D01*
X-12442000Y40135000D02*
X-11590000Y40135000D01*
X-14440000Y43180000D02*
X-14440000Y42133000D01*
X-8663500Y40106500D02*
X-11561500Y40106500D01*
G04 #@! TO.N,Net-(POT_LENGTH1-Center)*
X-43854996Y58995000D02*
X-43855000Y58995000D01*
X-41730000Y56870004D02*
X-43854996Y58995000D01*
X-41730000Y49100000D02*
X-41730000Y56870004D01*
D46*
X-42834785Y82430000D02*
X-42834785Y81425000D01*
X-42834785Y81425000D02*
X-43244785Y81015000D01*
D42*
X-42900000Y79900000D02*
X-42900000Y80670215D01*
X-42900000Y80670215D02*
X-43244785Y81015000D01*
D46*
G04 #@! TO.N,Net-(J13-SIG)*
X-12821785Y20667750D02*
X-14179785Y19309750D01*
X-12821785Y22370000D02*
X-12821785Y20667750D01*
D42*
G04 #@! TO.N,Net-(PLAY_BUT1-B)*
X-28631000Y98769000D02*
X-28631000Y96829000D01*
X-23990000Y100370000D02*
X-27030000Y100370000D01*
X-27030000Y100370000D02*
X-28631000Y98769000D01*
G04 #@! TO.N,Net-(PLAY_BUT1-R)*
X-33890000Y96070000D02*
X-31190000Y96070000D01*
X-31190000Y96070000D02*
X-30431000Y96829000D01*
X-35040000Y97220000D02*
X-33890000Y96070000D01*
G04 #@! TO.N,Net-(PLAY_BUT1-G)*
X-35070000Y100440000D02*
X-31490000Y100440000D01*
X-31490000Y100440000D02*
X-30431000Y101499000D01*
X-30431000Y101499000D02*
X-30431000Y102629000D01*
G04 #@! TO.N,Net-(PLAY_BUT1-POLE-A)*
X-35050000Y103060000D02*
X-33608000Y103060000D01*
X-33608000Y103060000D02*
X-32527000Y101979000D01*
G04 #@! TO.N,Net-(U1A--)*
X-5844785Y62265000D02*
X-5248296Y61668511D01*
X-5248296Y61668511D02*
X-5248296Y60644638D01*
X-5806648Y62895078D02*
X-5806648Y62245078D01*
G04 #@! TO.N,Net-(REV_BUT1-R)*
X-53500000Y98500000D02*
X-52400000Y99600000D01*
X-53500000Y97390000D02*
X-53500000Y98500000D01*
G04 #@! TO.N,/D4*
X-28171935Y81950078D02*
X-27953000Y81731143D01*
X-27601285Y66216678D02*
X-27311285Y66506678D01*
X-35021433Y81950078D02*
X-28171935Y81950078D01*
D46*
G04 #@! TO.N,Net-(J6-SIG)*
X-38704785Y35080000D02*
X-36719785Y37065000D01*
X-36719785Y37065000D02*
X-30712785Y37065000D01*
D42*
G04 #@! TO.N,/VCOM*
X-10759785Y23200000D02*
X-10759785Y21945000D01*
X-10759785Y21945000D02*
X-11854785Y20850000D01*
D46*
X-11989785Y24699785D02*
X-11500000Y24210000D01*
D42*
X-6724785Y16140000D02*
X-6724785Y16759750D01*
D46*
X-11524785Y24490000D02*
X-10759785Y23725000D01*
X-10759785Y23725000D02*
X-10759785Y23200000D01*
D42*
X-23046648Y21780078D02*
X-23836648Y20990078D01*
D46*
X-11989785Y28137500D02*
X-11989785Y24699785D01*
G04 #@! TO.N,GNDA*
X-9824785Y24490000D02*
X-9824785Y26030000D01*
D42*
X-11339785Y28137500D02*
X-10689785Y28137500D01*
X-15634785Y14620000D02*
X-13354785Y14620000D01*
X-5551265Y29750000D02*
X-5148765Y29347500D01*
X-15215000Y27857500D02*
X-15215000Y28901726D01*
X-9954785Y29750000D02*
X-5551265Y29750000D01*
X-22941648Y6525078D02*
X-21846648Y6525078D01*
X-9789785Y23200000D02*
X-9789785Y22305000D01*
X-22941648Y5380078D02*
X-22941648Y6525078D01*
X-5148765Y28996380D02*
X-5148765Y29347500D01*
X-22941648Y6525078D02*
X-22941648Y7923986D01*
X-1861433Y27500078D02*
X-3652463Y27500078D01*
X-5148765Y29347500D02*
X-5148765Y30874164D01*
D46*
X-9789785Y23200000D02*
X-9789785Y24455000D01*
D42*
X-9789785Y22305000D02*
X-9844785Y22250000D01*
X-3608005Y25817500D02*
X-3608005Y27455620D01*
X-9216648Y9485078D02*
X-9962816Y9485078D01*
X-10689785Y26639785D02*
X-10000000Y25950000D01*
X-13354785Y14620000D02*
X-10254785Y11520000D01*
X-20796648Y10068986D02*
X-20796648Y12348137D01*
X-3819885Y27667500D02*
X-5148765Y28996380D01*
X-12174662Y29180078D02*
X-11315000Y28320416D01*
X-15215000Y28901726D02*
X-14936648Y29180078D01*
X-10277816Y11496969D02*
X-10277816Y9800078D01*
X-22941648Y7923986D02*
X-20796648Y10068986D01*
X-10689785Y28137500D02*
X-10689785Y29015000D01*
X-10689785Y27484315D02*
X-10689785Y26639785D01*
X-10689785Y29015000D02*
X-9954785Y29750000D01*
X-3652463Y27500078D02*
X-3819885Y27667500D01*
X-10254785Y11520000D02*
X-10277816Y11496969D01*
X-20796648Y12348137D02*
X-18354785Y14790000D01*
X-3608005Y27455620D02*
X-3819885Y27667500D01*
X-14936648Y29180078D02*
X-12174662Y29180078D01*
X-9962816Y9485078D02*
X-10277816Y9800078D01*
G04 #@! TO.N,Net-(POT_START1-Center)*
X-7656648Y64930078D02*
X-7656648Y65284638D01*
X-6302088Y65230078D02*
X-7006648Y65934638D01*
X-4667088Y65230078D02*
X-6302088Y65230078D01*
X-7656648Y65284638D02*
X-7006648Y65934638D01*
X-4226648Y64789638D02*
X-4667088Y65230078D01*
D44*
X-16020078Y46020078D02*
X-14951433Y46020078D01*
D42*
X-14701433Y44540078D02*
X-14604785Y44443430D01*
X-12978742Y45424000D02*
X-11723627Y46679115D01*
X-15140000Y45424000D02*
X-12978742Y45424000D01*
D43*
G04 #@! TO.N,Net-(U16A--)*
X-31504785Y2160000D02*
X-30854785Y2160000D01*
D46*
G04 #@! TO.N,Net-(C84-Pad2)*
X-30854785Y8060000D02*
X-30854785Y8760000D01*
X-31299785Y11530000D02*
X-31299785Y9950000D01*
X-30854785Y8760000D02*
X-31269785Y9175000D01*
X-31269785Y9920000D02*
X-32909785Y9920000D01*
X-31269785Y9175000D02*
X-31269785Y9920000D01*
D42*
G04 #@! TO.N,/NRST*
X-38858011Y62183500D02*
X-37504833Y63536678D01*
X-35321285Y63536678D02*
X-34751285Y62966678D01*
X-39503011Y62183500D02*
X-38858011Y62183500D01*
X-37504833Y63536678D02*
X-35321285Y63536678D01*
X-40161433Y61525078D02*
X-39503011Y62183500D01*
D46*
G04 #@! TO.N,+5V*
X-5148765Y27447500D02*
X-6876265Y29175000D01*
X-5308005Y25817500D02*
X-5308005Y27288260D01*
X-6876265Y29175000D02*
X-9655470Y29175000D01*
X-9655470Y29175000D02*
X-10039785Y28790685D01*
X-10039785Y28790685D02*
X-10039785Y28137500D01*
G04 #@! TO.N,/OSC_IN*
X-41744785Y65410000D02*
X-41744785Y67150000D01*
D42*
X-34751285Y64266678D02*
X-37299463Y64266678D01*
X-37299463Y64266678D02*
X-39406285Y66373500D01*
D46*
X-41744785Y67150000D02*
X-42234785Y67640000D01*
D42*
X-41271285Y66373500D02*
X-41744785Y65900000D01*
X-39406285Y66373500D02*
X-41271285Y66373500D01*
G04 #@! TO.N,Net-(U2B-VCAP_2)*
X-25434929Y65793678D02*
X-25521429Y65880178D01*
X-26625431Y65242532D02*
X-26951285Y64916678D01*
X-25521429Y65880178D02*
X-26431141Y65880178D01*
X-26625431Y65685888D02*
X-26625431Y65242532D01*
X-23261285Y66356678D02*
X-23824285Y65793678D01*
X-26431141Y65880178D02*
X-26625431Y65685888D01*
X-23824285Y65793678D02*
X-25434929Y65793678D01*
G04 #@! TO.N,Net-(U2B-VCAP_1)*
X-29698839Y61869124D02*
X-29698839Y61754232D01*
X-29698839Y61754232D02*
X-28961285Y61016678D01*
G04 #@! TO.N,Net-(U2B-VDD12OTGHS)*
X-25303759Y63280178D02*
X-24663759Y62640178D01*
X-25987785Y63280178D02*
X-25303759Y63280178D01*
X-24663759Y62640178D02*
X-21537785Y62640178D01*
X-26301285Y62966678D02*
X-25987785Y63280178D01*
G04 #@! TO.N,+3.3VADC*
X-48750000Y65639240D02*
X-48750000Y64260000D01*
X-41121433Y61770078D02*
X-42731863Y61770078D01*
X-37621433Y58930078D02*
X-37059785Y59491726D01*
X-48940000Y64070000D02*
X-45031786Y64070000D01*
X-48750000Y64260000D02*
X-48940000Y64070000D01*
X-42731863Y61770078D02*
X-44940893Y63979107D01*
D45*
X-35044607Y59360000D02*
X-34751285Y59066678D01*
X-36841072Y59600000D02*
X-36601072Y59360000D01*
X-36601072Y59360000D02*
X-35044607Y59360000D01*
D42*
X-44990000Y64028215D02*
X-44990000Y66360000D01*
X-45031786Y64070000D02*
X-44940893Y63979107D01*
X-44940893Y63979107D02*
X-44990000Y64028215D01*
D46*
G04 #@! TO.N,Net-(D24-AK)*
X-34064785Y32415000D02*
X-35354785Y32415000D01*
X-35354785Y32415000D02*
X-35669785Y32100000D01*
X-34368005Y33421780D02*
X-33784785Y34005000D01*
X-36084785Y33421780D02*
X-34368005Y33421780D01*
X-36084785Y33421780D02*
X-36084785Y32515000D01*
X-36084785Y32515000D02*
X-35669785Y32100000D01*
G04 #@! TO.N,Net-(R1-Pad1)*
X-25654785Y33340000D02*
X-24954785Y33340000D01*
X-23836648Y34458137D02*
X-23836648Y36031863D01*
X-25569785Y31820000D02*
X-25569785Y33255000D01*
X-24954785Y33340000D02*
X-23836648Y34458137D01*
G04 #@! TO.N,Net-(C48-Pad1)*
X-21776648Y20070000D02*
X-21086570Y20070000D01*
D42*
X-21311648Y18550078D02*
X-21046648Y18550078D01*
X-21896648Y20160078D02*
X-21806570Y20070000D01*
X-21896648Y21630078D02*
X-21896648Y20160078D01*
D46*
X-21086570Y20070000D02*
X-20306648Y19290078D01*
D42*
X-21806570Y20070000D02*
X-21776648Y20070000D01*
D46*
X-20306648Y19290078D02*
X-19551648Y19290078D01*
D42*
X-21046648Y18550078D02*
X-20306648Y19290078D01*
G04 #@! TO.N,Net-(U11B--)*
X-22406648Y19690078D02*
X-22406648Y18675078D01*
X-22401648Y17280078D02*
X-22401648Y18430078D01*
X-22436648Y20100078D02*
X-22436648Y21740078D01*
G04 #@! TO.N,/BOOT0*
X-30619707Y72090078D02*
X-30349785Y72360000D01*
X-31141433Y72090078D02*
X-30619707Y72090078D01*
X-31501285Y66216678D02*
X-31501285Y66056678D01*
X-31501285Y66056678D02*
X-31711285Y65846678D01*
G04 #@! TO.N,Net-(C52-Pad1)*
X-19171648Y17280078D02*
X-18071648Y18380078D01*
X-21431648Y17280078D02*
X-19171648Y17280078D01*
D46*
G04 #@! TO.N,Net-(U11A--)*
X-18071648Y20080078D02*
X-21086648Y23095078D01*
X-21086648Y23095078D02*
X-21086648Y27670078D01*
X-21096648Y27680078D02*
X-21746648Y27680078D01*
D42*
G04 #@! TO.N,Net-(U1B-+)*
X-13373352Y64278158D02*
X-11789728Y64278158D01*
D46*
G04 #@! TO.N,Net-(C57-Pad1)*
X-4824785Y18874750D02*
X-5109785Y19159750D01*
X-4824785Y17809750D02*
X-3659785Y17809750D01*
X-6724785Y18059750D02*
X-5074785Y18059750D01*
X-3659785Y17809750D02*
X-3424785Y18044750D01*
X-4824785Y17809750D02*
X-4824785Y18874750D01*
G04 #@! TO.N,Net-(U8B--)*
X-7424785Y17409750D02*
X-6724785Y17409750D01*
X-7830000Y15704965D02*
X-7830000Y17004535D01*
X-6024785Y17409750D02*
X-4824785Y16209750D01*
X-4389785Y16109750D02*
X-3424785Y17074750D01*
X-7409785Y15284750D02*
X-7830000Y15704965D01*
X-6724785Y17409750D02*
X-6024785Y17409750D01*
X-4824785Y16109750D02*
X-4389785Y16109750D01*
X-7830000Y17004535D02*
X-7424785Y17409750D01*
G04 #@! TO.N,Net-(U13-BST)*
X-44550000Y52710000D02*
X-44550000Y54798000D01*
X-44550000Y54798000D02*
X-43684000Y55664000D01*
G04 #@! TO.N,Net-(U13-SW)*
X-47170000Y51760000D02*
X-46214746Y51760000D01*
X-46214746Y51760000D02*
X-45460000Y52514746D01*
D42*
X-44016000Y57364000D02*
X-45410000Y55970000D01*
D46*
X-45460000Y52514746D02*
X-45460000Y55896000D01*
G04 #@! TO.N,Net-(D1-AK)*
X-28164785Y31765000D02*
X-26594785Y31765000D01*
X-30884785Y35235000D02*
X-29338005Y35235000D01*
X-31504785Y34615000D02*
X-31504785Y33290000D01*
X-29979785Y31765000D02*
X-28164785Y31765000D01*
X-29338005Y35235000D02*
X-28474785Y36098220D01*
X-30884785Y35235000D02*
X-31504785Y34615000D01*
X-31504785Y33290000D02*
X-29979785Y31765000D01*
D42*
G04 #@! TO.N,Net-(REV_BUT1-B)*
X-49640000Y98640000D02*
X-50600000Y99600000D01*
X-49640000Y97370000D02*
X-49640000Y98640000D01*
G04 #@! TO.N,Net-(D26-AK)*
X-55700000Y43155000D02*
X-55700000Y43565000D01*
X-55096780Y45031780D02*
X-54665000Y44600000D01*
X-55850000Y45031780D02*
X-56783220Y45031780D01*
X-55700000Y43565000D02*
X-54665000Y44600000D01*
X-56783220Y45031780D02*
X-57310000Y44505000D01*
X-55850000Y45031780D02*
X-55096780Y45031780D01*
G04 #@! TO.N,Net-(D22-AK)*
X-46690000Y41018220D02*
X-47513220Y41018220D01*
X-47513220Y41018220D02*
X-48010000Y41515000D01*
X-49000000Y42505000D02*
X-49800000Y42505000D01*
X-48010000Y41515000D02*
X-49000000Y42505000D01*
X-45455000Y41470000D02*
X-46238220Y41470000D01*
X-46238220Y41470000D02*
X-46690000Y41018220D01*
D46*
G04 #@! TO.N,Net-(U3B-+)*
X-43099785Y83135000D02*
X-42834785Y83400000D01*
X-44474785Y83135000D02*
X-43099785Y83135000D01*
D42*
G04 #@! TO.N,Net-(REV_BUT1-G)*
X-53049999Y106850001D02*
X-53049999Y106049999D01*
X-52440000Y107460000D02*
X-53049999Y106850001D01*
X-53049999Y106049999D02*
X-52400000Y105400000D01*
G04 #@! TO.N,/OSC_OUT*
X-34801285Y63666678D02*
X-34998285Y63863678D01*
X-39691107Y63863678D02*
X-40244785Y63310000D01*
D46*
X-40244785Y64210000D02*
X-40244785Y63310000D01*
X-40344785Y64310000D02*
X-40244785Y64210000D01*
X-43824785Y64310000D02*
X-40344785Y64310000D01*
D42*
X-34998285Y63863678D02*
X-39691107Y63863678D01*
D46*
G04 #@! TO.N,Net-(C90-Pad1)*
X-8379785Y15284750D02*
X-8744785Y15649750D01*
X-8744785Y15649750D02*
X-8744785Y20454750D01*
G04 #@! TO.N,Net-(U8A--)*
X-10444785Y20454750D02*
X-12189785Y18709750D01*
X-12624785Y18059750D02*
X-12624785Y18709750D01*
D42*
G04 #@! TO.N,Net-(D15-AK)*
X-15193296Y54068376D02*
X-15193296Y54735156D01*
X-15193296Y54735156D02*
X-14753296Y55175156D01*
X-14753296Y55175156D02*
X-13823296Y55175156D01*
X-13753296Y55105156D02*
X-12953374Y55905078D01*
X-12953374Y55905078D02*
X-12276648Y55905078D01*
G04 #@! TO.N,Net-(C147-Pad1)*
X-19293648Y7975078D02*
X-19555148Y7713578D01*
X-18477816Y5770078D02*
X-18477816Y4755078D01*
X-18432816Y4710078D02*
X-18432816Y3774676D01*
X-19555148Y6847410D02*
X-18477816Y5770078D01*
X-19555148Y7713578D02*
X-19555148Y6847410D01*
G04 #@! TO.N,Net-(U12B--)*
X-20512816Y6805078D02*
X-20512816Y7405910D01*
X-20512816Y7405910D02*
X-19293648Y8625078D01*
X-19477816Y5770078D02*
X-20512816Y6805078D01*
G04 #@! TO.N,Net-(U12B-+)*
X-19856648Y9275078D02*
X-20326648Y8805078D01*
X-18666648Y9275078D02*
X-19856648Y9275078D01*
X-20536648Y8805078D02*
X-21846648Y7495078D01*
G04 #@! TO.N,Net-(C149-Pad1)*
X-11576648Y4820078D02*
X-11576648Y3947226D01*
X-12766648Y7325078D02*
X-11576648Y6135078D01*
X-11576648Y6135078D02*
X-11576648Y5860078D01*
X-11576648Y5860078D02*
X-11576648Y4820078D01*
G04 #@! TO.N,Net-(U12A--)*
X-12546648Y5860078D02*
X-13526648Y5860078D01*
X-13596648Y5790078D02*
X-14206648Y6400078D01*
X-14081648Y7975078D02*
X-12766648Y7975078D01*
X-14206648Y6400078D02*
X-14206648Y7850078D01*
X-14206648Y7850078D02*
X-14096648Y7960078D01*
G04 #@! TO.N,Net-(U12A-+)*
X-12766648Y8625078D02*
X-11272816Y8625078D01*
X-11247816Y9800078D02*
X-11247816Y8690078D01*
D46*
G04 #@! TO.N,Net-(C152-Pad1)*
X-21206648Y5860078D02*
X-20537816Y5860078D01*
X-18086648Y10775078D02*
X-18334785Y10526941D01*
X-18334785Y10526941D02*
X-18334785Y9960078D01*
X-20512816Y5835078D02*
X-20512816Y4825078D01*
D42*
X-19402816Y4710078D02*
X-20617816Y4710078D01*
G04 #@! TO.N,Net-(C152-Pad2)*
X-22051648Y3745078D02*
X-22066648Y3760078D01*
X-20906648Y9300078D02*
X-20801648Y9300078D01*
X-20622816Y3745078D02*
X-22051648Y3745078D01*
X-20801648Y9300078D02*
X-20326648Y9775078D01*
D46*
X-19126648Y10755078D02*
X-20276726Y9605000D01*
D42*
X-22066648Y5285078D02*
X-22066648Y3760078D01*
D46*
G04 #@! TO.N,Net-(C153-Pad1)*
X-13294785Y4430000D02*
X-15164707Y6299922D01*
X-12401648Y9920078D02*
X-11506648Y10815078D01*
X-14846648Y9920078D02*
X-12401648Y9920078D01*
D42*
X-12546648Y4820078D02*
X-12904707Y4820078D01*
D46*
X-15164707Y6299922D02*
X-15164707Y9602019D01*
D42*
X-9396648Y7360078D02*
X-9396648Y6640078D01*
D46*
X-15164707Y9602019D02*
X-14846648Y9920078D01*
D42*
X-12904707Y4820078D02*
X-13294785Y4430000D01*
X-9396648Y6640078D02*
X-9356648Y6600078D01*
G04 #@! TO.N,Net-(C153-Pad2)*
X-10360000Y8567894D02*
X-10360000Y7366726D01*
X-11207740Y11280078D02*
X-11971648Y11280078D01*
X-10360000Y7366726D02*
X-10366648Y7360078D01*
X-10257816Y8670078D02*
X-10789316Y9201578D01*
X-10257816Y8670078D02*
X-9371648Y8670078D01*
X-11971648Y11280078D02*
X-12506648Y10745078D01*
X-10257816Y8670078D02*
X-10360000Y8567894D01*
X-10789316Y10861654D02*
X-11207740Y11280078D01*
X-10789316Y9201578D02*
X-10789316Y10861654D01*
D44*
G04 #@! TO.N,Net-(D16-A)*
X-45484785Y24760000D02*
X-44814785Y24090000D01*
X-44814785Y24090000D02*
X-42274785Y24090000D01*
X-45484785Y26400000D02*
X-45484785Y24760000D01*
D42*
G04 #@! TO.N,Net-(D17-K)*
X-41055085Y13930000D02*
X-42274785Y13930000D01*
X-40772230Y13647145D02*
X-41055085Y13930000D01*
X-40772230Y10252555D02*
X-40772230Y13647145D01*
X-43434785Y7590000D02*
X-40772230Y10252555D01*
D44*
X-44814785Y13930000D02*
X-42274785Y13930000D01*
D42*
G04 #@! TO.N,/SWDCLK*
X-18681166Y70098834D02*
X-18352744Y70427256D01*
X-24369129Y70098834D02*
X-18681166Y70098834D01*
X-26301285Y68166678D02*
X-24369129Y70098834D01*
G04 #@! TO.N,/SWDIO*
X-18040000Y69990000D02*
X-18158166Y69871834D01*
X-18158166Y69871834D02*
X-23946129Y69871834D01*
X-23946129Y69871834D02*
X-25651285Y68166678D01*
G04 #@! TO.N,/UART_TX*
X-36395997Y62606420D02*
X-35361205Y62606420D01*
X-35071463Y62316678D02*
X-34751285Y62316678D01*
X-35361205Y62606420D02*
X-35071463Y62316678D01*
G04 #@! TO.N,/UART_RX*
X-35841043Y61989678D02*
X-34428285Y61989678D01*
X-35994785Y62143420D02*
X-35841043Y61989678D01*
X-34101285Y62316678D02*
X-34428285Y61989678D01*
G04 #@! TO.N,/DEBUG2*
X-32801285Y66866678D02*
X-32481285Y66546678D01*
G04 #@! TO.N,/DEBUG3*
X-29551285Y69336678D02*
X-29661285Y69446678D01*
X-29551285Y68166678D02*
X-29551285Y69336678D01*
G04 #@! TO.N,Net-(J8-SIG)*
X-19390000Y37863000D02*
X-18592000Y37065000D01*
X-18592000Y37065000D02*
X-12838000Y37065000D01*
X-19390000Y38490000D02*
X-19390000Y37863000D01*
G04 #@! TO.N,Net-(J9-SIG)*
X-46399933Y35113363D02*
X-47636648Y36350078D01*
X-51420000Y47710000D02*
X-50252455Y47710000D01*
X-37968058Y27276000D02*
X-39798148Y29106090D01*
X-50252455Y47710000D02*
X-48529485Y45987030D01*
X-39798148Y29106090D02*
X-39798148Y33556793D01*
X-39798148Y33556793D02*
X-41354718Y35113363D01*
X-35915785Y27276000D02*
X-37968058Y27276000D01*
X-41354718Y35113363D02*
X-46399933Y35113363D01*
G04 #@! TO.N,Net-(J11-SIG)*
X-51142785Y3852000D02*
X-50454785Y4540000D01*
X-51142785Y2163000D02*
X-51142785Y3852000D01*
D44*
G04 #@! TO.N,Net-(J12-SIG)*
X-49484785Y24830000D02*
X-49484785Y25919000D01*
X-49484785Y25919000D02*
X-51142785Y27577000D01*
D46*
G04 #@! TO.N,Net-(J14-SIG)*
X-20592208Y28623377D02*
X-20592208Y29416592D01*
X-17907785Y23025785D02*
X-17907785Y25938954D01*
X-17907785Y25938954D02*
X-20592208Y28623377D01*
X-16951000Y22069000D02*
X-17907785Y23025785D01*
G04 #@! TO.N,Net-(J15-SIG)*
X-34146648Y4371352D02*
X-36685000Y1833000D01*
X-34146648Y10583137D02*
X-34146648Y4371352D01*
X-33009785Y11720000D02*
X-34146648Y10583137D01*
D42*
G04 #@! TO.N,Net-(J16-SIG)*
X-9180656Y3383656D02*
X-7630000Y1833000D01*
X-17071796Y3383656D02*
X-9180656Y3383656D01*
G04 #@! TO.N,Net-(J17-SIG)*
X-11583296Y2925156D02*
X-12358374Y2150078D01*
X-12358374Y2150078D02*
X-22917947Y2150078D01*
G04 #@! TO.N,Net-(U15A-+)*
X-17545000Y40190000D02*
X-17490000Y40135000D01*
X-19390000Y40190000D02*
X-17545000Y40190000D01*
D46*
G04 #@! TO.N,/ROUT+*
X-15366648Y25604386D02*
X-15366648Y16017451D01*
X-15366648Y16017451D02*
X-18086648Y13297451D01*
X-18086648Y13297451D02*
X-18086648Y11745078D01*
X-13939785Y27031249D02*
X-15366648Y25604386D01*
X-13939785Y28137500D02*
X-13939785Y27031249D01*
G04 #@! TO.N,/ROUT-*
X-15666648Y16283137D02*
X-19126648Y12823137D01*
X-14589785Y27031249D02*
X-15666648Y25954386D01*
X-14589785Y28137500D02*
X-14589785Y27031249D01*
X-15666648Y25954386D02*
X-15666648Y16283137D01*
X-19126648Y12823137D02*
X-19126648Y11725078D01*
G04 #@! TO.N,/LOUT+*
X-12514784Y13228198D02*
X-12514784Y12793214D01*
X-14370990Y23600521D02*
X-14370990Y20171603D01*
X-12639785Y28137500D02*
X-12639785Y25331726D01*
X-12983348Y13706953D02*
X-12983348Y13696762D01*
X-12983348Y13696762D02*
X-12514784Y13228198D01*
X-12514784Y12793214D02*
X-11506648Y11785078D01*
X-12639785Y25331726D02*
X-14370990Y23600521D01*
G04 #@! TO.N,/LOUT-*
X-13448884Y12657314D02*
X-12506648Y11715078D01*
X-13289785Y28137500D02*
X-13289785Y25211726D01*
X-13289785Y25211726D02*
X-14926648Y23574863D01*
X-13448884Y13525901D02*
X-13448884Y12657314D01*
X-14926648Y23574863D02*
X-14926648Y20120078D01*
G04 #@! TO.N,Net-(R16-Pad2)*
X-36639785Y32100000D02*
X-38034785Y32100000D01*
X-38414785Y31720000D02*
X-38414785Y33170000D01*
X-38034785Y32100000D02*
X-38414785Y31720000D01*
D42*
G04 #@! TO.N,Net-(R17-Pad2)*
X-53140000Y45155000D02*
X-53695000Y44600000D01*
X-53140000Y46010000D02*
X-51420000Y46010000D01*
X-53140000Y46010000D02*
X-53140000Y45155000D01*
D46*
G04 #@! TO.N,Net-(U3A--)*
X-50374785Y85085000D02*
X-50374785Y84435000D01*
X-50374785Y86225000D02*
X-50754785Y86605000D01*
X-50374785Y85085000D02*
X-50374785Y86225000D01*
D42*
G04 #@! TO.N,Net-(R20-Pad2)*
X-46865000Y42485000D02*
X-46530000Y42820000D01*
X-48010000Y42485000D02*
X-46865000Y42485000D01*
X-46530000Y42820000D02*
X-44740000Y44610000D01*
X-44740000Y44610000D02*
X-44450000Y44610000D01*
D46*
G04 #@! TO.N,Net-(U3B--)*
X-44474785Y84435000D02*
X-43014785Y84435000D01*
X-44474785Y84435000D02*
X-44474785Y83785000D01*
D42*
G04 #@! TO.N,Net-(U5A--)*
X-50240000Y40765000D02*
X-49800000Y41205000D01*
X-49800000Y41205000D02*
X-49800000Y41855000D01*
X-50240000Y39620000D02*
X-50240000Y40765000D01*
G04 #@! TO.N,Net-(U2B-OTG_HR_REXT)*
X-25311285Y62966678D02*
X-24651285Y62306678D01*
X-25651285Y62966678D02*
X-25311285Y62966678D01*
X-24651285Y62306678D02*
X-23666285Y62306678D01*
G04 #@! TO.N,Net-(U15A--)*
X-16140000Y43180000D02*
X-17490000Y41830000D01*
X-17490000Y41435000D02*
X-17490000Y40785000D01*
X-17490000Y41830000D02*
X-17490000Y41435000D01*
G04 #@! TO.N,Net-(REV_BUT1-POLE-A)*
X-57030000Y105650000D02*
X-55650000Y105650000D01*
X-55650000Y105650000D02*
X-54750000Y104750000D01*
D46*
G04 #@! TO.N,Net-(U10A--)*
X-28164785Y29765000D02*
X-27339785Y28940000D01*
X-28164785Y31115000D02*
X-28164785Y30465000D01*
X-28164785Y30465000D02*
X-28164785Y29765000D01*
G04 #@! TO.N,Net-(U8A-+)*
X-12624785Y17409750D02*
X-14134785Y17409750D01*
X-14199785Y17344750D02*
X-14199785Y18319750D01*
D42*
G04 #@! TO.N,/I2C1_SCL*
X-7166648Y35820078D02*
X-7192207Y35820078D01*
X-7192207Y35820078D02*
X-7554785Y35457500D01*
X-7439785Y33862500D02*
X-7439785Y35342500D01*
X-32151285Y69168380D02*
X-34671433Y71688528D01*
X-34671433Y71688528D02*
X-34671433Y72870078D01*
X-32151285Y68166678D02*
X-32151285Y69168380D01*
G04 #@! TO.N,/I2C1_SDA*
X-31163507Y67843305D02*
X-31164785Y67842027D01*
X-31777785Y67203178D02*
X-32487785Y67203178D01*
X-31164785Y67409822D02*
X-31371429Y67203178D01*
X-31371429Y67203178D02*
X-31631141Y67203178D01*
X-31634641Y67206678D02*
X-31774285Y67206678D01*
X-8113285Y35909930D02*
X-8944933Y36741578D01*
X-11151433Y38150078D02*
X-10918355Y37917000D01*
X-9983355Y37917000D02*
X-8876433Y36810078D01*
X-32487785Y67203178D02*
X-32801285Y67516678D01*
X-31774285Y67206678D02*
X-31777785Y67203178D01*
X-8113285Y33886000D02*
X-8113285Y35909930D01*
X-31631141Y67203178D02*
X-31634641Y67206678D01*
X-31164785Y67842027D02*
X-31164785Y67409822D01*
X-10918355Y37917000D02*
X-9983355Y37917000D01*
G04 #@! TO.N,Net-(U11A-+)*
X-22562208Y29426592D02*
X-21572208Y29426592D01*
X-22396648Y27680078D02*
X-22396648Y29261032D01*
G04 #@! TO.N,/RIN*
X-8739785Y27108430D02*
X-8371433Y26740078D01*
X-20146648Y20855078D02*
X-19551648Y20260078D01*
X-20146648Y21450078D02*
X-20146648Y20855078D01*
X-8739785Y28137500D02*
X-8739785Y27108430D01*
G04 #@! TO.N,/LIN*
X-4139785Y20029785D02*
X-4139785Y19159750D01*
X-9389785Y25279785D02*
X-4139785Y20029785D01*
X-9389785Y28137500D02*
X-9389785Y25279785D01*
D46*
G04 #@! TO.N,Net-(U13-FB)*
X-43145155Y50770000D02*
X-44510000Y50770000D01*
X-44550000Y50810000D02*
X-44550000Y50170000D01*
X-43000155Y51845000D02*
X-43000155Y50915000D01*
X-44550000Y50170000D02*
X-45200000Y49520000D01*
X-43000155Y50915000D02*
X-43145155Y50770000D01*
G04 #@! TO.N,Net-(U13-EN)*
X-46260000Y49625155D02*
X-46260000Y50740000D01*
X-46260000Y50740000D02*
X-45240000Y51760000D01*
X-45240000Y51760000D02*
X-44550000Y51760000D01*
D42*
G04 #@! TO.N,Net-(U5B--)*
X-55700000Y41855000D02*
X-57110000Y41855000D01*
X-57110000Y41855000D02*
X-57300000Y42045000D01*
X-55700000Y42505000D02*
X-55700000Y41855000D01*
G04 #@! TO.N,/SAI_SD_B*
X-34756785Y69029000D02*
X-36247785Y70520000D01*
X-8739785Y35855000D02*
X-8784785Y35900000D01*
X-34756785Y68166678D02*
X-34756785Y69029000D01*
X-8739785Y33862500D02*
X-8739785Y35855000D01*
G04 #@! TO.N,/SAI_MCLK*
X-12446648Y32370078D02*
X-10826648Y32370078D01*
X-34101285Y68166678D02*
X-34101285Y69649680D01*
X-12639785Y32563215D02*
X-12446648Y32370078D01*
X-34101285Y69649680D02*
X-35053378Y70601773D01*
X-10689785Y32506941D02*
X-10689785Y33862500D01*
X-10664785Y35218756D02*
X-10855407Y35409378D01*
X-10664785Y33887500D02*
X-10664785Y35218756D01*
X-10826648Y32370078D02*
X-10689785Y32506941D01*
X-12639785Y33260933D02*
X-12639785Y32563215D01*
G04 #@! TO.N,/SD-NBL1*
X-26938400Y48196678D02*
X-26568400Y48566678D01*
X-32464785Y68273534D02*
X-32677929Y68486678D01*
X-27188400Y48196678D02*
X-26938400Y48196678D01*
X-32464785Y68036822D02*
X-32464785Y68273534D01*
X-33131285Y68486678D02*
X-33451285Y68166678D01*
X-32677929Y68486678D02*
X-33131285Y68486678D01*
X-32269608Y67841645D02*
X-32464785Y68036822D01*
X-31811778Y67841645D02*
X-32269608Y67841645D01*
D45*
G04 #@! TO.N,/SD-NBL0*
X-33140792Y67827171D02*
X-33140792Y67191712D01*
X-33188400Y46996678D02*
X-33960003Y46996678D01*
X-33960003Y46996678D02*
X-34080000Y46876681D01*
X-32801285Y68166678D02*
X-33140792Y67827171D01*
X-32788400Y47396678D02*
X-33188400Y46996678D01*
D42*
G04 #@! TO.N,/SD-CKE1*
X-31531285Y69276678D02*
X-31531285Y68196678D01*
X-28761012Y48196678D02*
X-28416469Y47852135D01*
G04 #@! TO.N,/CODEC_RESET*
X-19015488Y71410000D02*
X-18507744Y70902256D01*
X-14596648Y30310078D02*
X-6401433Y30310078D01*
D45*
X-27177963Y70980000D02*
X-25114785Y70980000D01*
D42*
X-15865000Y29041726D02*
X-14596648Y30310078D01*
X-23329297Y70970000D02*
X-22889297Y71410000D01*
X-25114785Y70980000D02*
X-25104785Y70970000D01*
X-15865000Y27857500D02*
X-15865000Y29041726D01*
X-25104785Y70970000D02*
X-23329297Y70970000D01*
X-22889297Y71410000D02*
X-19015488Y71410000D01*
D45*
X-28901285Y68166678D02*
X-28901285Y69256678D01*
X-28901285Y69256678D02*
X-27177963Y70980000D01*
D42*
G04 #@! TO.N,/SAI_FS*
X-34429785Y69302003D02*
X-35647782Y70520000D01*
X-12704863Y31560078D02*
X-13939785Y32795000D01*
X-13939785Y32795000D02*
X-13939785Y33862500D01*
X-34751285Y67516678D02*
X-34429785Y67838178D01*
X-9389785Y35815000D02*
X-9389785Y32675000D01*
X-10504707Y31560078D02*
X-12704863Y31560078D01*
X-9389785Y32675000D02*
X-10504707Y31560078D01*
X-34429785Y67838178D02*
X-34429785Y69302003D01*
X-9654785Y36080000D02*
X-9389785Y35815000D01*
G04 #@! TO.N,/SAI_SCK*
X-12572415Y31890078D02*
X-10754707Y31890078D01*
X-33787785Y67830178D02*
X-33787785Y70149392D01*
X-33787785Y70149392D02*
X-34525640Y70887247D01*
X-13289785Y32607448D02*
X-12572415Y31890078D01*
X-10039785Y32605000D02*
X-10039785Y33862500D01*
X-10118285Y37137000D02*
X-10118285Y33941000D01*
X-10754707Y31890078D02*
X-10039785Y32605000D01*
X-13289785Y33862500D02*
X-13289785Y32607448D01*
X-34101285Y67516678D02*
X-33787785Y67830178D01*
G04 #@! TO.N,/SAI_SD_A*
X-14534785Y35170000D02*
X-14534785Y33917500D01*
X-33728623Y67254016D02*
X-33465961Y67516678D01*
G04 #@! TO.N,/SD-NCAS*
X-31388400Y48136678D02*
X-31928400Y48136678D01*
X-29741285Y65486678D02*
X-31061285Y65486678D01*
X-31061285Y65486678D02*
X-31121285Y65546678D01*
X-30526048Y67191441D02*
X-30851285Y67516678D01*
G04 #@! TO.N,/SD-D2*
X-23873322Y44356678D02*
X-24638400Y44356678D01*
X-27276258Y65726678D02*
X-27276258Y65227178D01*
X-21390000Y46660000D02*
X-21570000Y46660000D01*
X-32387044Y44595322D02*
X-32788400Y44996678D01*
X-26637785Y66086822D02*
X-26844429Y65880178D01*
X-32387044Y44574879D02*
X-32387044Y44595322D01*
X-26821429Y67180178D02*
X-26637785Y66996534D01*
X-27122758Y65880178D02*
X-27276258Y65726678D01*
X-27601285Y67516678D02*
X-27264785Y67180178D01*
X-26844429Y65880178D02*
X-27122758Y65880178D01*
X-27264785Y67180178D02*
X-26821429Y67180178D01*
X-26637785Y66996534D02*
X-26637785Y66086822D01*
X-21570000Y46660000D02*
X-23873322Y44356678D01*
D45*
G04 #@! TO.N,/SD-D3*
X-19270500Y59206397D02*
X-19270500Y58035714D01*
D42*
X-33588400Y45796678D02*
X-34088400Y45796678D01*
D45*
X-27930000Y67195393D02*
X-27930000Y69010000D01*
X-27930000Y69010000D02*
X-26409500Y70530500D01*
X-20654785Y67230000D02*
X-20004785Y66580000D01*
D42*
X-19091433Y56410078D02*
X-19091433Y49943079D01*
D45*
X-26409500Y70530500D02*
X-25520915Y70530500D01*
X-18604785Y59872112D02*
X-19270500Y59206397D01*
X-20334785Y62086397D02*
X-18604785Y60356397D01*
X-20334785Y62970000D02*
X-20334785Y62086397D01*
X-27601285Y66866678D02*
X-27930000Y67195393D01*
X-19270500Y58035714D02*
X-18989648Y57754862D01*
D42*
X-19091433Y49943079D02*
X-23845779Y45188733D01*
X-34088400Y45796678D02*
X-34148400Y45736678D01*
D45*
X-21534785Y67230000D02*
X-20654785Y67230000D01*
X-18604785Y60356397D02*
X-18604785Y59872112D01*
X-20104785Y63200000D02*
X-20334785Y62970000D01*
D42*
X-23845779Y45188733D02*
X-24436579Y45188733D01*
G04 #@! TO.N,/SD-A0*
X-34050220Y53318498D02*
X-34050220Y55981065D01*
X-31574900Y50210178D02*
X-31574900Y50843178D01*
X-31574900Y50843178D02*
X-34050220Y53318498D01*
X-34050220Y55981065D02*
X-33368107Y56663178D01*
X-33813400Y65854563D02*
X-34101285Y65566678D01*
X-31988400Y49796678D02*
X-31574900Y50210178D01*
G04 #@! TO.N,/SD-A2*
X-34948400Y52906678D02*
X-32788400Y50746678D01*
X-34948400Y54210745D02*
X-34948400Y52906678D01*
X-34101285Y63616678D02*
X-34421285Y63936678D01*
D45*
X-35648966Y55737066D02*
X-34948400Y55036500D01*
X-34948400Y55036500D02*
X-34948400Y54210745D01*
D42*
G04 #@! TO.N,/SD-A1*
X-33208355Y50198259D02*
X-33164684Y50198259D01*
X-31861285Y63976678D02*
X-32464785Y64580178D01*
X-36240000Y51658278D02*
X-36240000Y53690000D01*
X-33114785Y64396534D02*
X-33114785Y63953178D01*
X-33114785Y63953178D02*
X-33451285Y63616678D01*
X-32464785Y64580178D02*
X-32931141Y64580178D01*
X-33164684Y50198259D02*
X-32788400Y49821975D01*
X-32931141Y64580178D02*
X-33114785Y64396534D01*
X-31927720Y63108823D02*
X-31861285Y63175258D01*
X-31861285Y63175258D02*
X-31861285Y63976678D01*
X-34848400Y50266678D02*
X-36240000Y51658278D01*
G04 #@! TO.N,/SD-CLK*
X-28041333Y63280178D02*
X-26637785Y63280178D01*
X-28587785Y62733726D02*
X-28041333Y63280178D01*
X-26637785Y63280178D02*
X-26301285Y63616678D01*
X-27958126Y48196678D02*
X-27594830Y47833382D01*
X-28901433Y61740078D02*
X-28587785Y62053726D01*
X-27594830Y47833382D02*
X-27594830Y47780156D01*
X-28587785Y62053726D02*
X-28587785Y62733726D01*
G04 #@! TO.N,/SD-A3*
X-31988400Y50596678D02*
X-34438400Y53046678D01*
X-34438400Y55336236D02*
X-35134281Y56032117D01*
X-34438400Y53046678D02*
X-34438400Y55336236D01*
X-33667278Y63286303D02*
X-33986903Y62966678D01*
X-33986903Y62966678D02*
X-34101285Y62966678D01*
X-33117342Y63286303D02*
X-33667278Y63286303D01*
G04 #@! TO.N,/SD-A4*
X-28788400Y51680038D02*
X-30783754Y53675392D01*
X-32931141Y62653178D02*
X-33194641Y62916678D01*
X-32481285Y61163034D02*
X-32481285Y62456678D01*
X-32481285Y62456678D02*
X-32677785Y62653178D01*
X-32464785Y61146534D02*
X-32481285Y61163034D01*
X-30698220Y55686498D02*
X-31368400Y56356678D01*
X-33194641Y62916678D02*
X-33401285Y62916678D01*
X-28788400Y50596678D02*
X-28788400Y51680038D01*
X-32464785Y57453063D02*
X-32464785Y61146534D01*
X-31280861Y56269139D02*
X-32464785Y57453063D01*
X-32677785Y62653178D02*
X-32931141Y62653178D01*
G04 #@! TO.N,/SD-NWE*
X-34298400Y48096678D02*
X-34198400Y48196678D01*
X-31813124Y62185161D02*
X-32594641Y62966678D01*
X-34198400Y48196678D02*
X-33588400Y48196678D01*
X-31813124Y61416678D02*
X-31813124Y62185161D01*
X-32594641Y62966678D02*
X-32801285Y62966678D01*
G04 #@! TO.N,/SD-A5*
X-30696265Y54101970D02*
X-31273692Y54101970D01*
X-33794900Y57103678D02*
X-33771900Y57126678D01*
X-31784900Y55770481D02*
X-33141097Y57126678D01*
X-31784900Y54613178D02*
X-31784900Y55770481D01*
X-27988400Y51394105D02*
X-30696265Y54101970D01*
X-34290212Y57103678D02*
X-33794900Y57103678D01*
X-27988400Y50596678D02*
X-27988400Y51394105D01*
X-31273692Y54101970D02*
X-31784900Y54613178D01*
X-33771900Y57126678D02*
X-33141097Y57126678D01*
X-33474242Y62316678D02*
X-33735510Y62055410D01*
G04 #@! TO.N,/SD-BA1*
X-30629822Y56600178D02*
X-26226993Y56600178D01*
X-33188697Y49420227D02*
X-32788400Y49019930D01*
X-30720000Y56510000D02*
X-30629822Y56600178D01*
D45*
X-20888578Y55866678D02*
X-20591900Y55570000D01*
D42*
X-26226993Y56600178D02*
X-25343719Y55716904D01*
X-27286747Y62637178D02*
X-26966247Y62316678D01*
X-22631674Y55716904D02*
X-22481900Y55866678D01*
D45*
X-22481900Y55866678D02*
X-20888578Y55866678D01*
D42*
X-25343719Y55716904D02*
X-22631674Y55716904D01*
G04 #@! TO.N,/SD-BA0*
X-24802548Y55280078D02*
X-25012374Y55489904D01*
X-25012374Y55489904D02*
X-27125174Y55489904D01*
X-26301285Y62316678D02*
X-26637785Y61980178D01*
X-27271285Y61790034D02*
X-27271285Y61346678D01*
X-27081141Y61980178D02*
X-27271285Y61790034D01*
X-31362957Y49622121D02*
X-31988400Y48996678D01*
X-27125174Y55489904D02*
X-29188400Y53426678D01*
X-26637785Y61980178D02*
X-27081141Y61980178D01*
X-31176317Y49622121D02*
X-31362957Y49622121D01*
X-29188400Y53426678D02*
X-29308400Y53426678D01*
G04 #@! TO.N,/SD-D1*
X-26281896Y61666678D02*
X-26004896Y61943678D01*
X-33588400Y44976678D02*
X-33258400Y44646678D01*
D45*
G04 #@! TO.N,/SD-A12*
X-24326219Y61640000D02*
X-25624607Y61640000D01*
X-24301674Y61664545D02*
X-24326219Y61640000D01*
D42*
X-25766678Y54460000D02*
X-26450000Y53776678D01*
X-20541900Y54460000D02*
X-25766678Y54460000D01*
X-26968400Y49216678D02*
X-27188400Y48996678D01*
X-26448400Y49216678D02*
X-26968400Y49216678D01*
G04 #@! TO.N,/SD-A11*
X-33428400Y53826678D02*
X-33428400Y53136678D01*
X-30230653Y49529027D02*
X-30230653Y49938931D01*
X-27988400Y48996678D02*
X-28358400Y49366678D01*
X-30836898Y61016678D02*
X-30524136Y60703916D01*
X-30230653Y49938931D02*
X-33428400Y53136678D01*
D45*
G04 #@! TO.N,/SD-NE1*
X-27952030Y61315933D02*
X-28251285Y61016678D01*
X-34078400Y48996678D02*
X-34860000Y48215078D01*
X-27952030Y61385554D02*
X-27952030Y61315933D01*
X-34860000Y48215078D02*
X-34860000Y45413031D01*
X-33588400Y48996678D02*
X-34078400Y48996678D01*
D42*
G04 #@! TO.N,/SD-D0*
X-26316911Y61016678D02*
X-26613634Y61313401D01*
X-32788400Y44196678D02*
X-32788400Y43626678D01*
X-32788400Y43626678D02*
X-32778400Y43616678D01*
G04 #@! TO.N,/SD-A7*
X-28455694Y52579384D02*
X-28455694Y53149384D01*
X-31164785Y61146534D02*
X-31164785Y60813178D01*
X-31450124Y61431873D02*
X-31164785Y61146534D01*
X-28455694Y53149384D02*
X-27583400Y54021678D01*
X-31164785Y60813178D02*
X-31501285Y60476678D01*
X-27988400Y49821285D02*
X-28350250Y50183135D01*
X-31501285Y60476678D02*
X-31501285Y60366678D01*
X-31450124Y61836678D02*
X-31450124Y61431873D01*
G04 #@! TO.N,/SD-A10*
X-35378400Y53276678D02*
X-35834900Y52820178D01*
X-35834900Y52820178D02*
X-35834900Y52043178D01*
X-31160752Y60067211D02*
X-30851285Y60376678D01*
X-35834900Y52043178D02*
X-33588400Y49796678D01*
X-31166452Y60067211D02*
X-31160752Y60067211D01*
G04 #@! TO.N,/SD-D10*
X-26640911Y60691623D02*
X-26626333Y60706201D01*
X-24777195Y46998833D02*
X-26786245Y46998833D01*
X-24215007Y46436645D02*
X-24777195Y46998833D01*
X-26786245Y46998833D02*
X-27188400Y46596678D01*
X-28251285Y60366678D02*
X-27926340Y60691623D01*
X-27926340Y60691623D02*
X-26640911Y60691623D01*
G04 #@! TO.N,/SD-D15*
X-26911722Y43120000D02*
X-27988400Y44196678D01*
X-26081900Y43120000D02*
X-26911722Y43120000D01*
X-25110786Y59947205D02*
X-25530259Y60366678D01*
X-25530259Y60366678D02*
X-25651285Y60366678D01*
X-24447659Y59473052D02*
X-24921812Y59947205D01*
X-24921812Y59947205D02*
X-25110786Y59947205D01*
X-24447659Y59464562D02*
X-24447659Y59473052D01*
G04 #@! TO.N,/SD-A6*
X-29968400Y51076678D02*
X-28788400Y49896678D01*
X-31747265Y59442904D02*
X-31747265Y59470698D01*
X-31747265Y59470698D02*
X-31501285Y59716678D01*
X-33077132Y55815410D02*
X-33077132Y55455410D01*
X-29968400Y52346678D02*
X-29968400Y51076678D01*
X-33077132Y55455410D02*
X-29968400Y52346678D01*
G04 #@! TO.N,/SD-A9*
X-31148979Y58141122D02*
X-31187785Y58179928D01*
X-30502900Y52111178D02*
X-30502900Y50711178D01*
X-31191285Y59376678D02*
X-30851285Y59716678D01*
X-31191285Y59200034D02*
X-31191285Y59376678D01*
X-31187785Y58179928D02*
X-31187785Y59196534D01*
X-31187785Y59196534D02*
X-31191285Y59200034D01*
X-30502900Y50711178D02*
X-28788400Y48996678D01*
X-32956720Y54564998D02*
X-30502900Y52111178D01*
G04 #@! TO.N,/SD-D5*
X-33588400Y46596678D02*
X-33908400Y46276678D01*
X-30053058Y55492020D02*
X-28491084Y55492020D01*
X-28491084Y55492020D02*
X-28418785Y55419721D01*
X-29876478Y59391871D02*
X-30201285Y59716678D01*
X-33908400Y46276678D02*
X-34080000Y46276678D01*
X-30268400Y55276678D02*
X-30053058Y55492020D01*
X-29876478Y59389485D02*
X-29876478Y59391871D01*
G04 #@! TO.N,/SD-D6*
X-29211775Y60041642D02*
X-29536739Y59716678D01*
X-27558400Y54606678D02*
X-27411400Y54606678D01*
X-28832194Y53042884D02*
X-28832194Y53332884D01*
X-28832194Y53332884D02*
X-27558400Y54606678D01*
X-28898400Y52976678D02*
X-28832194Y53042884D01*
X-32388186Y47020139D02*
X-32788400Y46619925D01*
G04 #@! TO.N,/SD-D8*
X-27979089Y57814645D02*
X-27979089Y58152430D01*
X-29214785Y59403178D02*
X-28901285Y59716678D01*
X-28475168Y58526179D02*
X-28702167Y58753178D01*
X-27188400Y47396678D02*
X-25977516Y48607562D01*
X-28702167Y58753178D02*
X-29031141Y58753178D01*
X-28352837Y58526178D02*
X-28475168Y58526179D01*
X-27979089Y58152430D02*
X-28352837Y58526178D01*
X-29031141Y58753178D02*
X-29214785Y58936822D01*
X-25977516Y48607562D02*
X-25977516Y49900000D01*
X-29214785Y58936822D02*
X-29214785Y59403178D01*
G04 #@! TO.N,/SD-D11*
X-28251285Y59716678D02*
X-27914785Y60053178D01*
X-26148429Y60053178D02*
X-27914785Y60053178D01*
X-25149320Y46531389D02*
X-24351900Y45733969D01*
X-26308376Y45951745D02*
X-25728732Y46531389D01*
X-25728732Y46531389D02*
X-25149320Y46531389D01*
X-25976027Y60225580D02*
X-25976027Y60676892D01*
X-25976027Y60676892D02*
X-25976312Y60677177D01*
X-27608400Y46156678D02*
X-27968400Y45796678D01*
X-26148429Y60053178D02*
X-25976027Y60225580D01*
G04 #@! TO.N,/SD-D14*
X-24868478Y58529485D02*
X-24868478Y58919397D01*
X-26131852Y59755200D02*
X-26170374Y59716678D01*
X-25982763Y59755200D02*
X-26131852Y59755200D01*
X-26781720Y45133358D02*
X-26918400Y44996678D01*
X-25337785Y59586822D02*
X-25337785Y59853178D01*
X-25340792Y59391711D02*
X-25340792Y59583815D01*
X-25340792Y59583815D02*
X-25337785Y59586822D01*
X-25781141Y60030178D02*
X-25964785Y59846534D01*
X-25514785Y60030178D02*
X-25781141Y60030178D01*
X-25964785Y59773178D02*
X-25982763Y59755200D01*
X-26170374Y59716678D02*
X-26301285Y59716678D01*
X-24868478Y58919397D02*
X-25340792Y59391711D01*
X-25337785Y59853178D02*
X-25514785Y60030178D01*
X-25964785Y59846534D02*
X-25964785Y59773178D01*
X-26918400Y44996678D02*
X-27188400Y44996678D01*
G04 #@! TO.N,/SD-D13*
X-25976263Y59391700D02*
X-25651285Y59716678D01*
X-27988400Y45008050D02*
X-27582340Y45414110D01*
G04 #@! TO.N,/SD-NRAS*
X-31751900Y57266111D02*
X-31751900Y57270178D01*
X-32788400Y48251142D02*
X-33051530Y48514272D01*
X-31763500Y58804463D02*
X-31763500Y57266324D01*
X-31501285Y59066678D02*
X-31763500Y58804463D01*
G04 #@! TO.N,/SD-A8*
X-30784479Y58306465D02*
X-30841285Y58363271D01*
X-30841285Y57948525D02*
X-30784479Y58005331D01*
X-27188400Y49839816D02*
X-27478703Y50130119D01*
X-30841285Y57672058D02*
X-30841285Y57948525D01*
X-30841285Y58363271D02*
X-30841285Y59056678D01*
X-30784479Y58005331D02*
X-30784479Y58306465D01*
X-30648138Y57478911D02*
X-30841285Y57672058D01*
G04 #@! TO.N,/SD-D4*
X-29299306Y54906678D02*
X-29185557Y55020427D01*
X-35868400Y47678282D02*
X-35868404Y47678278D01*
X-30141285Y58546678D02*
X-30201285Y58606678D01*
X-31311400Y54716678D02*
X-31121400Y54906678D01*
X-32405866Y45414144D02*
X-32788400Y45796678D01*
X-32382888Y45414144D02*
X-32405866Y45414144D01*
X-31121400Y54906678D02*
X-29299306Y54906678D01*
X-30201285Y58606678D02*
X-30201285Y59066678D01*
X-35868400Y50576678D02*
X-35868400Y47678282D01*
G04 #@! TO.N,/SD-D7*
X-33588400Y47396678D02*
X-34000121Y47396678D01*
X-29023297Y54196678D02*
X-28334167Y54885808D01*
X-34000121Y47396678D02*
X-34097628Y47494185D01*
X-29778285Y58026678D02*
X-29778285Y58839678D01*
X-29778285Y58839678D02*
X-29551285Y59066678D01*
X-30141925Y54196678D02*
X-29023297Y54196678D01*
X-30298925Y54353678D02*
X-30141925Y54196678D01*
G04 #@! TO.N,/SD-D9*
X-28381140Y58753177D02*
X-28694641Y59066678D01*
X-27752089Y58124126D02*
X-27752090Y58246457D01*
X-28694641Y59066678D02*
X-28901285Y59066678D01*
X-27354785Y57570178D02*
X-27615589Y57830982D01*
X-27615589Y57830982D02*
X-27615589Y57987626D01*
X-27615589Y57987626D02*
X-27752089Y58124126D01*
X-28258810Y58753177D02*
X-28381140Y58753177D01*
X-27582103Y47002975D02*
X-27988400Y46596678D01*
X-27039965Y57570178D02*
X-27354785Y57570178D01*
X-27582103Y47013336D02*
X-27582103Y47002975D01*
X-26614605Y57144818D02*
X-27039965Y57570178D01*
X-27752090Y58246457D02*
X-28258810Y58753177D01*
G04 #@! TO.N,/SD-D12*
X-27038080Y58081653D02*
X-27388590Y58081653D01*
X-26634307Y46635333D02*
X-26634307Y46350771D01*
X-26636535Y57680108D02*
X-27038080Y58081653D01*
X-27525090Y58218153D02*
X-27525091Y58340484D01*
X-27388590Y58081653D02*
X-27525090Y58218153D01*
X-26634307Y46350771D02*
X-27188400Y45796678D01*
X-27525091Y58340484D02*
X-28251285Y59066678D01*
D46*
G04 #@! TO.N,Net-(U16B--)*
X-29599785Y11530000D02*
X-28239785Y11530000D01*
X-30204785Y8680000D02*
X-29569785Y9315000D01*
X-29599785Y11530000D02*
X-29599785Y9950000D01*
X-29569785Y9315000D02*
X-29569785Y9920000D01*
D42*
G04 #@! TO.N,Net-(U1A-+)*
X-4659633Y63386653D02*
X-5648224Y63386653D01*
X-4226648Y63819638D02*
X-4659633Y63386653D01*
D46*
G04 #@! TO.N,Net-(U3A-+)*
X-50374785Y83785000D02*
X-51844785Y83785000D01*
D42*
G04 #@! TO.N,Net-(U14A--)*
X-14526648Y58760078D02*
X-14526648Y58038508D01*
X-12276648Y57760078D02*
X-13206648Y58690078D01*
X-12276648Y57205078D02*
X-12276648Y56555078D01*
X-12276648Y57205078D02*
X-12276648Y57760078D01*
G04 #@! TO.N,Net-(U14B-+)*
X-7331648Y56555078D02*
X-6376648Y56555078D01*
X-7466648Y56420078D02*
X-7331648Y56555078D01*
X-7466648Y55474862D02*
X-7466648Y56420078D01*
X-7266786Y55275000D02*
X-7466648Y55474862D01*
X-6414785Y55275000D02*
X-7266786Y55275000D01*
D46*
G04 #@! TO.N,Net-(U16B-+)*
X-29554785Y6890000D02*
X-27764785Y5100000D01*
X-29554785Y8060000D02*
X-29554785Y6890000D01*
G04 #@! TO.N,Net-(U10B--)*
X-34064785Y31115000D02*
X-35219785Y31115000D01*
X-35219785Y31115000D02*
X-35664785Y30670000D01*
X-34064785Y31765000D02*
X-34064785Y31115000D01*
D42*
G04 #@! TO.N,Net-(D16-K)*
X-43901433Y30960078D02*
X-42051433Y29110078D01*
X-45901433Y30960078D02*
X-43901433Y30960078D01*
X-42051433Y28960078D02*
X-42051433Y27010078D01*
G04 #@! TO.N,Net-(Q11-G)*
X-47651433Y32710078D02*
X-45951433Y32710078D01*
X-45901433Y32660078D02*
X-44101433Y32660078D01*
G04 #@! TO.N,Net-(Q12-G)*
X-43401433Y3940078D02*
X-45151433Y3940078D01*
X-46821433Y3730838D02*
X-45360673Y3730838D01*
G04 #@! TO.N,Net-(D17-A)*
X-45774355Y7590000D02*
X-43824433Y5640078D01*
X-46734785Y7590000D02*
X-48678081Y5646704D01*
X-46734785Y7590000D02*
X-45774355Y7590000D01*
X-48678081Y5620156D02*
X-48678081Y3774190D01*
D44*
G04 #@! TO.N,Net-(JP4-B)*
X-3598653Y31024052D02*
X-2432859Y31024052D01*
X-3598653Y28846368D02*
X-3149785Y28397500D01*
X-3598653Y31024052D02*
X-3598653Y28846368D01*
D42*
G04 #@! TO.N,Net-(JP11-B)*
X-56186648Y67883918D02*
X-56081648Y67988918D01*
X-56186648Y66799318D02*
X-56186648Y67883918D01*
X-56307408Y64959318D02*
X-56307408Y66678558D01*
X-56307408Y66678558D02*
X-56186648Y66799318D01*
D44*
G04 #@! TO.N,Net-(JP2-B)*
X-50806648Y50544678D02*
X-50231970Y49970000D01*
X-50231970Y49970000D02*
X-49250155Y49970000D01*
X-47745155Y49970000D02*
X-47315155Y49540000D01*
X-49250155Y49970000D02*
X-47745155Y49970000D01*
X-47170000Y50810000D02*
X-47170000Y49685155D01*
D42*
G04 #@! TO.N,Net-(JP3-B)*
X-50650000Y65639240D02*
X-52219240Y65639240D01*
X-52472448Y66984318D02*
X-52472448Y65892448D01*
X-52219240Y65639240D02*
X-52350000Y65770000D01*
X-52472448Y65892448D02*
X-52350000Y65770000D01*
G04 #@! TO.N,/D2*
X-19884785Y62490000D02*
X-19064785Y62490000D01*
X-24349965Y64367999D02*
X-24371286Y64346678D01*
X-53296726Y5480000D02*
X-53306648Y5470078D01*
X-42172230Y12460078D02*
X-41135730Y13496578D01*
X-24371286Y64346678D02*
X-25280273Y64346678D01*
X-46578433Y12460078D02*
X-42172230Y12460078D01*
X-51214785Y5480000D02*
X-50615298Y6079487D01*
X-50454785Y6240000D02*
X-50454785Y8583726D01*
X-19064785Y62490000D02*
X-18504863Y61930078D01*
X-50454785Y8583726D02*
X-46578433Y12460078D01*
X-18504863Y61930078D02*
X-17893500Y61930078D01*
X-53306648Y7170078D02*
X-53306648Y7773137D01*
X-25280273Y64346678D02*
X-25360273Y64266678D01*
X-25360273Y64266678D02*
X-25651285Y64266678D01*
X-52076565Y5480000D02*
X-51214785Y5480000D01*
X-52076565Y5480000D02*
X-53296726Y5480000D01*
G04 #@! TD*
M02*
