G04 #@! TF.GenerationSoftware,KiCad,Pcbnew,8.0.5*
G04 #@! TF.CreationDate,2024-10-28T12:14:28-07:00*
G04 #@! TF.ProjectId,Sampler-built,53616d70-6c65-4722-9d62-75696c742e6b,rev?*
G04 #@! TF.SameCoordinates,PX38444c0PY67f3540*
G04 #@! TF.FileFunction,Copper,L4,Bot*
G04 #@! TF.FilePolarity,Positive*
%FSLAX46Y46*%
G04 Gerber Fmt 4.6, Leading zero omitted, Abs format (unit mm)*
G04 Created by KiCad (PCBNEW 8.0.5) date 2024-10-28 12:14:28*
%MOMM*%
%LPD*%
G01*
G04 APERTURE LIST*
G04 Aperture macros list*
%AMRoundRect*
0 Rectangle with rounded corners*
0 $1 Rounding radius*
0 $2 $3 $4 $5 $6 $7 $8 $9 X,Y pos of 4 corners*
0 Add a 4 corners polygon primitive as box body*
4,1,4,$2,$3,$4,$5,$6,$7,$8,$9,$2,$3,0*
0 Add four circle primitives for the rounded corners*
1,1,$1+$1,$2,$3*
1,1,$1+$1,$4,$5*
1,1,$1+$1,$6,$7*
1,1,$1+$1,$8,$9*
0 Add four rect primitives between the rounded corners*
20,1,$1+$1,$2,$3,$4,$5,0*
20,1,$1+$1,$4,$5,$6,$7,0*
20,1,$1+$1,$6,$7,$8,$9,0*
20,1,$1+$1,$8,$9,$2,$3,0*%
G04 Aperture macros list end*
G04 #@! TA.AperFunction,ComponentPad*
%ADD10C,1.700000*%
G04 #@! TD*
G04 #@! TA.AperFunction,ComponentPad*
%ADD11O,1.700000X1.700000*%
G04 #@! TD*
G04 #@! TA.AperFunction,ComponentPad*
%ADD12R,1.700000X1.700000*%
G04 #@! TD*
G04 #@! TA.AperFunction,ComponentPad*
%ADD13C,1.930400*%
G04 #@! TD*
G04 #@! TA.AperFunction,SMDPad,CuDef*
%ADD14RoundRect,0.147500X-0.172500X0.147500X-0.172500X-0.147500X0.172500X-0.147500X0.172500X0.147500X0*%
G04 #@! TD*
G04 #@! TA.AperFunction,ComponentPad*
%ADD15C,1.600000*%
G04 #@! TD*
G04 #@! TA.AperFunction,ComponentPad*
%ADD16C,1.300000*%
G04 #@! TD*
G04 #@! TA.AperFunction,ComponentPad*
%ADD17O,1.397000X1.092200*%
G04 #@! TD*
G04 #@! TA.AperFunction,ComponentPad*
%ADD18O,1.524000X1.524000*%
G04 #@! TD*
G04 #@! TA.AperFunction,SMDPad,CuDef*
%ADD19R,1.000000X1.000000*%
G04 #@! TD*
G04 #@! TA.AperFunction,ComponentPad*
%ADD20C,2.286000*%
G04 #@! TD*
G04 #@! TA.AperFunction,SMDPad,CuDef*
%ADD21RoundRect,0.147500X0.172500X-0.147500X0.172500X0.147500X-0.172500X0.147500X-0.172500X-0.147500X0*%
G04 #@! TD*
G04 #@! TA.AperFunction,SMDPad,CuDef*
%ADD22RoundRect,0.147500X0.017678X-0.226274X0.226274X-0.017678X-0.017678X0.226274X-0.226274X0.017678X0*%
G04 #@! TD*
G04 #@! TA.AperFunction,ViaPad*
%ADD23C,0.400000*%
G04 #@! TD*
G04 #@! TA.AperFunction,Conductor*
%ADD24C,0.127000*%
G04 #@! TD*
G04 #@! TA.AperFunction,Conductor*
%ADD25C,0.203200*%
G04 #@! TD*
G04 #@! TA.AperFunction,Conductor*
%ADD26C,0.100000*%
G04 #@! TD*
G04 #@! TA.AperFunction,Conductor*
%ADD27C,0.200000*%
G04 #@! TD*
G04 APERTURE END LIST*
D10*
G04 #@! TO.P,J4,1,Pin_1*
G04 #@! TO.N,/UART_TX*
X-32170000Y91520000D03*
G04 #@! TO.P,J4,2,Pin_2*
G04 #@! TO.N,GND*
X-32170000Y94060000D03*
D11*
G04 #@! TO.P,J4,3,Pin_3*
G04 #@! TO.N,/UART_RX*
X-29630000Y91520000D03*
G04 #@! TO.P,J4,4,Pin_4*
G04 #@! TO.N,GND*
X-29630000Y94060000D03*
G04 #@! TO.P,J4,5,Pin_5*
G04 #@! TO.N,/DEBUG2*
X-27090000Y91520000D03*
G04 #@! TO.P,J4,6,Pin_6*
G04 #@! TO.N,GND*
X-27090000Y94060000D03*
D10*
G04 #@! TO.P,J4,7,Pin_7*
G04 #@! TO.N,/DEBUG3*
X-24550000Y91520000D03*
G04 #@! TO.P,J4,8,Pin_8*
G04 #@! TO.N,GND*
X-24550000Y94060000D03*
G04 #@! TD*
D12*
G04 #@! TO.P,J3,1,Pin_1*
G04 #@! TO.N,+3V3*
X-2090000Y77680000D03*
D11*
G04 #@! TO.P,J3,2,Pin_2*
G04 #@! TO.N,/SWDCLK*
X-2090000Y75140000D03*
G04 #@! TO.P,J3,3,Pin_3*
G04 #@! TO.N,GND*
X-2090000Y72600000D03*
G04 #@! TO.P,J3,4,Pin_4*
G04 #@! TO.N,/SWDIO*
X-2090000Y70060000D03*
G04 #@! TD*
G04 #@! TO.P,J10,1,-12V*
G04 #@! TO.N,Net-(D17-K)*
X-42274785Y13930000D03*
G04 #@! TO.P,J10,2,-12V*
X-44814785Y13930000D03*
G04 #@! TO.P,J10,3,GND*
G04 #@! TO.N,GND*
X-42274785Y16470000D03*
G04 #@! TO.P,J10,4,GND*
X-44814785Y16470000D03*
G04 #@! TO.P,J10,5,GND*
X-42274785Y19010000D03*
G04 #@! TO.P,J10,6,GND*
X-44814785Y19010000D03*
G04 #@! TO.P,J10,7,GND*
X-42274785Y21550000D03*
G04 #@! TO.P,J10,8,GND*
X-44814785Y21550000D03*
G04 #@! TO.P,J10,9,+12V*
G04 #@! TO.N,Net-(D16-A)*
X-42274785Y24090000D03*
G04 #@! TO.P,J10,10,+12V*
X-44814785Y24090000D03*
G04 #@! TD*
D13*
G04 #@! TO.P,J12,1,SIG*
G04 #@! TO.N,Net-(J12-SIG)*
X-51206000Y27276000D03*
G04 #@! TO.P,J12,2,SHEILD*
G04 #@! TO.N,GND*
X-51206000Y16303200D03*
G04 #@! TO.P,J12,3,SW*
X-51206000Y18716200D03*
G04 #@! TD*
G04 #@! TO.P,J17,1,SIG*
G04 #@! TO.N,Net-(J17-SIG)*
X-22158000Y1833000D03*
G04 #@! TO.P,J17,2,SHEILD*
G04 #@! TO.N,GND*
X-22158000Y12805800D03*
G04 #@! TO.P,J17,3,SW*
G04 #@! TO.N,unconnected-(J17-SW-Pad3)*
X-22158000Y10392800D03*
G04 #@! TD*
G04 #@! TO.P,J16,1,SIG*
G04 #@! TO.N,Net-(J16-SIG)*
X-7630000Y1833000D03*
G04 #@! TO.P,J16,2,SHEILD*
G04 #@! TO.N,GND*
X-7630000Y12805800D03*
G04 #@! TO.P,J16,3,SW*
G04 #@! TO.N,unconnected-(J16-SW-Pad3)*
X-7630000Y10392800D03*
G04 #@! TD*
D14*
G04 #@! TO.P,C30,1*
G04 #@! TO.N,+3V3*
X-28621900Y43875000D03*
G04 #@! TO.P,C30,2*
G04 #@! TO.N,GND*
X-28621900Y42905000D03*
G04 #@! TD*
D15*
G04 #@! TO.P,Bank_But1,1,UP-A*
G04 #@! TO.N,unconnected-(Bank_But1-UP-A-Pad1)*
X-4250000Y104750000D03*
G04 #@! TO.P,Bank_But1,2,POLE-A*
G04 #@! TO.N,Net-(Bank_But1-POLE-A)*
X-10750000Y104750000D03*
G04 #@! TO.P,Bank_But1,3,DOWN-A*
G04 #@! TO.N,unconnected-(Bank_But1-DOWN-A-Pad3)*
X-4250000Y100250000D03*
G04 #@! TO.P,Bank_But1,4,UP-B*
G04 #@! TO.N,GND*
X-10750000Y100250000D03*
D16*
G04 #@! TO.P,Bank_But1,5,CA*
G04 #@! TO.N,+3V3*
X-6600000Y105400000D03*
G04 #@! TO.P,Bank_But1,6,G*
G04 #@! TO.N,Net-(Bank_But1-G)*
X-8400000Y105400000D03*
G04 #@! TO.P,Bank_But1,7,R*
G04 #@! TO.N,Net-(Bank_But1-R)*
X-8400000Y99600000D03*
G04 #@! TO.P,Bank_But1,8,B*
G04 #@! TO.N,Net-(Bank_But1-B)*
X-6600000Y99600000D03*
G04 #@! TD*
D17*
G04 #@! TO.P,SD1,1,DAT2*
G04 #@! TO.N,/D18*
X-27953000Y79531249D03*
G04 #@! TO.P,SD1,2,CD/DAT3*
G04 #@! TO.N,/D19*
X-26853180Y80631069D03*
G04 #@! TO.P,SD1,3,CMD*
G04 #@! TO.N,/D4*
X-27953000Y81731143D03*
G04 #@! TO.P,SD1,4,VDD*
G04 #@! TO.N,+3V3*
X-26853180Y82830963D03*
G04 #@! TO.P,SD1,5,CLK*
G04 #@! TO.N,/D9*
X-27953000Y83931037D03*
G04 #@! TO.P,SD1,6,VSS*
G04 #@! TO.N,GND*
X-26853180Y85030857D03*
G04 #@! TO.P,SD1,7,DAT0*
G04 #@! TO.N,/D16*
X-27953000Y86130931D03*
G04 #@! TO.P,SD1,8,DAT1*
G04 #@! TO.N,/D17*
X-26853180Y87230751D03*
D18*
G04 #@! TO.P,SD1,9,SHELL1*
G04 #@! TO.N,GND*
X-31122920Y79088400D03*
G04 #@! TO.P,SD1,10,SHELL2*
X-31122920Y87673600D03*
G04 #@! TD*
D19*
G04 #@! TO.P,C4,1*
G04 #@! TO.N,Net-(U2B-VCAP_1)*
X-28771285Y63996678D03*
G04 #@! TO.P,C4,2*
G04 #@! TO.N,GND*
X-28771285Y65696678D03*
G04 #@! TD*
D20*
G04 #@! TO.P,POT_LENGTH1,1,Left*
G04 #@! TO.N,GNDADC*
X-36760000Y45424000D03*
G04 #@! TO.P,POT_LENGTH1,2,Center*
G04 #@! TO.N,Net-(POT_LENGTH1-Center)*
X-41760000Y45424000D03*
G04 #@! TO.P,POT_LENGTH1,3,Right*
G04 #@! TO.N,VREF+*
X-46760000Y45424000D03*
G04 #@! TD*
D13*
G04 #@! TO.P,J2,1,SIG*
G04 #@! TO.N,Net-(J2-SIG)*
X-22157000Y42272000D03*
G04 #@! TO.P,J2,2,SHEILD*
G04 #@! TO.N,GND*
X-22157000Y31299200D03*
G04 #@! TO.P,J2,3,SW*
X-22157000Y33712200D03*
G04 #@! TD*
D20*
G04 #@! TO.P,POT_PITCH1,1,Left*
G04 #@! TO.N,GNDADC*
X-5820000Y70027000D03*
G04 #@! TO.P,POT_PITCH1,2,Center*
G04 #@! TO.N,Net-(POT_PITCH1-Center)*
X-10820000Y70027000D03*
G04 #@! TO.P,POT_PITCH1,3,Right*
G04 #@! TO.N,VREF+*
X-15820000Y70027000D03*
G04 #@! TD*
D13*
G04 #@! TO.P,J7,1,SIG*
G04 #@! TO.N,Net-(J7-SIG)*
X-45999000Y37065000D03*
G04 #@! TO.P,J7,2,SHEILD*
G04 #@! TO.N,GND*
X-56971800Y37065000D03*
G04 #@! TO.P,J7,3,SW*
X-54558800Y37065000D03*
G04 #@! TD*
D14*
G04 #@! TO.P,C32,1*
G04 #@! TO.N,+3V3*
X-30334472Y44089454D03*
G04 #@! TO.P,C32,2*
G04 #@! TO.N,GND*
X-30334472Y43119454D03*
G04 #@! TD*
D13*
G04 #@! TO.P,J15,1,SIG*
G04 #@! TO.N,Net-(J15-SIG)*
X-36685000Y1833000D03*
G04 #@! TO.P,J15,2,SHEILD*
G04 #@! TO.N,GND*
X-36685000Y12805800D03*
G04 #@! TO.P,J15,3,SW*
G04 #@! TO.N,unconnected-(J15-SW-Pad3)*
X-36685000Y10392800D03*
G04 #@! TD*
D15*
G04 #@! TO.P,REV_BUT1,1,UP-A*
G04 #@! TO.N,unconnected-(REV_BUT1-UP-A-Pad1)*
X-48250000Y104750000D03*
G04 #@! TO.P,REV_BUT1,2,POLE-A*
G04 #@! TO.N,Net-(REV_BUT1-POLE-A)*
X-54750000Y104750000D03*
G04 #@! TO.P,REV_BUT1,3,DOWN-A*
G04 #@! TO.N,unconnected-(REV_BUT1-DOWN-A-Pad3)*
X-48250000Y100250000D03*
G04 #@! TO.P,REV_BUT1,4,UP-B*
G04 #@! TO.N,GND*
X-54750000Y100250000D03*
D16*
G04 #@! TO.P,REV_BUT1,5,CA*
G04 #@! TO.N,+3V3*
X-50600000Y105400000D03*
G04 #@! TO.P,REV_BUT1,6,G*
G04 #@! TO.N,Net-(REV_BUT1-G)*
X-52400000Y105400000D03*
G04 #@! TO.P,REV_BUT1,7,R*
G04 #@! TO.N,Net-(REV_BUT1-R)*
X-52400000Y99600000D03*
G04 #@! TO.P,REV_BUT1,8,B*
G04 #@! TO.N,Net-(REV_BUT1-B)*
X-50600000Y99600000D03*
G04 #@! TD*
D14*
G04 #@! TO.P,C28,1*
G04 #@! TO.N,+3V3*
X-29898608Y46645710D03*
G04 #@! TO.P,C28,2*
G04 #@! TO.N,GND*
X-29898608Y45675710D03*
G04 #@! TD*
D21*
G04 #@! TO.P,C33,1*
G04 #@! TO.N,+3V3*
X-30914608Y46440758D03*
G04 #@! TO.P,C33,2*
G04 #@! TO.N,GND*
X-30914608Y47410758D03*
G04 #@! TD*
D13*
G04 #@! TO.P,J9,1,SIG*
G04 #@! TO.N,Net-(J9-SIG)*
X-36685000Y27276000D03*
G04 #@! TO.P,J9,2,SHEILD*
G04 #@! TO.N,GND*
X-36685000Y16303200D03*
G04 #@! TO.P,J9,3,SW*
X-36685000Y18716200D03*
G04 #@! TD*
G04 #@! TO.P,J8,1,SIG*
G04 #@! TO.N,Net-(J8-SIG)*
X-12838000Y37065000D03*
G04 #@! TO.P,J8,2,SHEILD*
G04 #@! TO.N,GND*
X-1865200Y37065000D03*
G04 #@! TO.P,J8,3,SW*
X-4278200Y37065000D03*
G04 #@! TD*
G04 #@! TO.P,J11,1,SIG*
G04 #@! TO.N,Net-(J11-SIG)*
X-51206000Y1833000D03*
G04 #@! TO.P,J11,2,SHEILD*
G04 #@! TO.N,GND*
X-51206000Y12805800D03*
G04 #@! TO.P,J11,3,SW*
X-51206000Y10392800D03*
G04 #@! TD*
G04 #@! TO.P,J13,1,SIG*
G04 #@! TO.N,Net-(J13-SIG)*
X-12838000Y22069000D03*
G04 #@! TO.P,J13,2,SHEILD*
G04 #@! TO.N,GND*
X-1865200Y22069000D03*
G04 #@! TO.P,J13,3,SW*
X-4278200Y22069000D03*
G04 #@! TD*
G04 #@! TO.P,J6,1,SIG*
G04 #@! TO.N,Net-(J6-SIG)*
X-31478000Y37065000D03*
G04 #@! TO.P,J6,2,SHEILD*
G04 #@! TO.N,GND*
X-42450800Y37065000D03*
G04 #@! TO.P,J6,3,SW*
X-40037800Y37065000D03*
G04 #@! TD*
G04 #@! TO.P,J14,1,SIG*
G04 #@! TO.N,Net-(J14-SIG)*
X-16951000Y22069000D03*
G04 #@! TO.P,J14,2,SHEILD*
G04 #@! TO.N,GND*
X-27923800Y22069000D03*
G04 #@! TO.P,J14,3,SW*
X-25510800Y22069000D03*
G04 #@! TD*
D15*
G04 #@! TO.P,PLAY_BUT1,1,UP-A*
G04 #@! TO.N,unconnected-(PLAY_BUT1-UP-A-Pad1)*
X-26535000Y101979000D03*
G04 #@! TO.P,PLAY_BUT1,2,POLE-A*
G04 #@! TO.N,Net-(PLAY_BUT1-POLE-A)*
X-32527000Y101979000D03*
G04 #@! TO.P,PLAY_BUT1,3,DOWN-A*
G04 #@! TO.N,unconnected-(PLAY_BUT1-DOWN-A-Pad3)*
X-26535000Y97479000D03*
G04 #@! TO.P,PLAY_BUT1,4,UP-B*
G04 #@! TO.N,GND*
X-32527000Y97479000D03*
D16*
G04 #@! TO.P,PLAY_BUT1,5,CA*
G04 #@! TO.N,+3V3*
X-28631000Y102629000D03*
G04 #@! TO.P,PLAY_BUT1,6,G*
G04 #@! TO.N,Net-(PLAY_BUT1-G)*
X-30431000Y102629000D03*
G04 #@! TO.P,PLAY_BUT1,7,R*
G04 #@! TO.N,Net-(PLAY_BUT1-R)*
X-30431000Y96829000D03*
G04 #@! TO.P,PLAY_BUT1,8,B*
G04 #@! TO.N,Net-(PLAY_BUT1-B)*
X-28631000Y96829000D03*
G04 #@! TD*
D22*
G04 #@! TO.P,C27,1*
G04 #@! TO.N,+3V3*
X-29771347Y48573731D03*
G04 #@! TO.P,C27,2*
G04 #@! TO.N,GND*
X-29085453Y49259625D03*
G04 #@! TD*
D21*
G04 #@! TO.P,C31,1*
G04 #@! TO.N,+3V3*
X-31293576Y43176350D03*
G04 #@! TO.P,C31,2*
G04 #@! TO.N,GND*
X-31293576Y44146350D03*
G04 #@! TD*
D20*
G04 #@! TO.P,POT_SAMP1,1,Left*
G04 #@! TO.N,GNDADC*
X-42815000Y70455000D03*
G04 #@! TO.P,POT_SAMP1,2,Center*
G04 #@! TO.N,Net-(POT_SAMP1-Center)*
X-47815000Y70455000D03*
G04 #@! TO.P,POT_SAMP1,3,Right*
G04 #@! TO.N,VREF+*
X-52815000Y70455000D03*
G04 #@! TD*
G04 #@! TO.P,POT_START1,1,Left*
G04 #@! TO.N,GNDADC*
X-10140000Y45424000D03*
G04 #@! TO.P,POT_START1,2,Center*
G04 #@! TO.N,Net-(POT_START1-Center)*
X-15140000Y45424000D03*
G04 #@! TO.P,POT_START1,3,Right*
G04 #@! TO.N,VREF+*
X-20140000Y45424000D03*
G04 #@! TD*
D23*
G04 #@! TO.N,GND*
X-51416648Y58600078D03*
X-16470000Y38000000D03*
X-27284360Y63918528D03*
X-50946648Y55560078D03*
X-48874685Y52274685D03*
X-47761433Y4690078D03*
X-44991748Y67190393D03*
X-50010078Y52110078D03*
X-52074948Y55538378D03*
X-20406500Y33880000D03*
X-53830000Y40980000D03*
X-32091433Y71910078D03*
X-56280000Y43910000D03*
X-30346664Y47147246D03*
X-30228399Y56013927D03*
X-36106648Y34710078D03*
X-33056648Y6630078D03*
X-4160000Y57060000D03*
X-44926648Y28960078D03*
X-49576648Y55500078D03*
X-26159050Y26356578D03*
X-31493728Y44712910D03*
X-29524785Y34760000D03*
X-11246648Y58600078D03*
X-46566492Y53164138D03*
X-28421285Y64856678D03*
X-20624785Y61560000D03*
X-39624933Y60890078D03*
X-7900000Y56720000D03*
X-13036648Y57870078D03*
X-28574785Y8010000D03*
X-35070000Y105970000D03*
X-13140000Y42950000D03*
X-38630000Y105906500D03*
X-32489785Y31700000D03*
X-7366648Y21020078D03*
X-23621433Y67380078D03*
X-1506648Y56030078D03*
X-43010000Y53660000D03*
X-7804785Y19200000D03*
X-39146648Y29110078D03*
X-28904785Y3395000D03*
X-21104785Y65570000D03*
X-49340000Y52100000D03*
X-25764275Y43911665D03*
X-50246648Y55630078D03*
X-7424785Y26550000D03*
X-29256750Y45615118D03*
X-29977795Y43534660D03*
X-9020463Y14196263D03*
X-37641433Y66620078D03*
X-46694785Y86635000D03*
X-8570000Y61730000D03*
X-51366648Y59400078D03*
X-16121433Y52240078D03*
X-9294785Y19120000D03*
X-28011400Y52106678D03*
X-37664871Y62009914D03*
X-52654948Y55568378D03*
X-53602884Y55600078D03*
X-30538400Y48816678D03*
X-16086648Y11450078D03*
X-24616648Y28640078D03*
X-48531433Y6920078D03*
X-46651433Y10460078D03*
X-38401433Y7460078D03*
X-14580000Y36620000D03*
X-12144285Y52470078D03*
G04 #@! TO.N,+3V3*
X-28324484Y70469877D03*
X-36181285Y67116678D03*
X-36214785Y36640000D03*
X-37972744Y98557256D03*
X-36721433Y83220000D03*
X-30531285Y59396678D03*
X-50336648Y56770078D03*
X-21920821Y60475575D03*
X-34131264Y44378646D03*
X-36471433Y77750078D03*
X-29373336Y46151566D03*
X-28011900Y52926678D03*
X-30572436Y45716088D03*
X-50926648Y56710078D03*
X-13111433Y47982462D03*
X-30208400Y48116678D03*
X-51816648Y56820078D03*
X-53274948Y56898378D03*
X-49606648Y56760078D03*
X-33822400Y51013126D03*
X-52584948Y56868378D03*
X-6521433Y34710078D03*
X-24441285Y63756678D03*
X-33483763Y41550078D03*
X-11154109Y36160078D03*
X-44510000Y39690000D03*
X-31938400Y43426678D03*
X-15241433Y36601500D03*
X-29625050Y44181288D03*
G04 #@! TO.N,/A4*
X-57330000Y40240000D03*
X-38480000Y47570000D03*
G04 #@! TO.N,GNDADC*
X-10150000Y47770000D03*
X-35757327Y41102185D03*
X-16410000Y48320000D03*
X-17751435Y47030078D03*
G04 #@! TO.N,/A5*
X-36694785Y31380500D03*
X-38672980Y46212350D03*
X-37163648Y37650000D03*
X-38937744Y41277744D03*
G04 #@! TO.N,+12V*
X-1901433Y30210078D03*
X-50462562Y36144461D03*
X-9770000Y58190000D03*
X-11878240Y59142588D03*
X-41651433Y30710078D03*
X-17494392Y12202334D03*
X-52699302Y37953813D03*
X-52379833Y36460078D03*
X-26536648Y24430078D03*
X-21826648Y23280078D03*
X-8204785Y23480000D03*
X-32146648Y8060000D03*
X-47944785Y83360000D03*
X-49520000Y68700000D03*
X-36204785Y29630000D03*
X-49380000Y51060000D03*
X-51725364Y41053500D03*
X-7740000Y46420000D03*
G04 #@! TO.N,-12VA*
X-15566648Y9320078D03*
X-37431433Y3810078D03*
X-12404785Y15340000D03*
X-51029998Y38040000D03*
X-28411433Y1570078D03*
X-25764785Y11130000D03*
X-29514785Y32540000D03*
X-16895048Y13100000D03*
X-14694785Y9420078D03*
X-49991433Y3250078D03*
X-20640000Y38660000D03*
X-50560000Y82410000D03*
X-13011433Y52340078D03*
X-54190000Y43540000D03*
X-26694785Y13730000D03*
X-29714785Y30170000D03*
G04 #@! TO.N,/A2*
X-39403500Y42190000D03*
X-39277721Y47163291D03*
G04 #@! TO.N,/A7*
X-39371433Y84350000D03*
X-38661433Y69480078D03*
X-36241433Y60250078D03*
X-38324933Y75660078D03*
G04 #@! TO.N,/A6*
X-36131285Y65426678D03*
X-33732087Y60665676D03*
X-34426440Y65236678D03*
X-37340000Y85590000D03*
G04 #@! TO.N,/D6*
X-18144785Y57920000D03*
X-15080000Y103520000D03*
G04 #@! TO.N,/D8*
X-40000000Y59136500D03*
X-25874444Y45702763D03*
X-24325876Y57344123D03*
X-39775315Y47374685D03*
X-36980000Y95860000D03*
X-39660000Y44200000D03*
G04 #@! TO.N,/A9*
X-37901433Y57610078D03*
X-38698940Y66456258D03*
G04 #@! TO.N,/D15*
X-27781433Y26820078D03*
X-20951433Y37390078D03*
X-21288226Y39322752D03*
X-18461433Y56773578D03*
X-25151731Y56180404D03*
X-28171429Y62636722D03*
G04 #@! TO.N,/D13*
X-21879635Y39221565D03*
X-27931433Y61989319D03*
X-21481433Y37390078D03*
X-48584785Y23200000D03*
G04 #@! TO.N,VREF+*
X-55230000Y54620000D03*
X-38991433Y59136500D03*
X-37137888Y41642800D03*
X-6253006Y44223636D03*
X-4554633Y47086878D03*
X-16827883Y46479996D03*
X-55220000Y60100000D03*
X-14940000Y73200000D03*
X-17891433Y46440078D03*
X-36941433Y60280078D03*
G04 #@! TO.N,/D11*
X-19674785Y60730000D03*
X-23320000Y79840000D03*
X-23700137Y71433500D03*
X-25361433Y71420078D03*
G04 #@! TO.N,/D10*
X-49000000Y107726500D03*
X-19054785Y60170000D03*
G04 #@! TO.N,/D14*
X-22690000Y98470006D03*
X-24539092Y63028871D03*
X-22690000Y87460000D03*
X-36770000Y98650002D03*
G04 #@! TO.N,/D12*
X-21851433Y68420078D03*
X-25081285Y64746678D03*
X-36990000Y105906500D03*
X-22294785Y69370000D03*
G04 #@! TO.N,/D0*
X-12550000Y95720000D03*
X-21680000Y70562334D03*
G04 #@! TO.N,/D1*
X-29421433Y77560078D03*
X-36091433Y69530078D03*
X-33250000Y76700000D03*
X-22314933Y87950000D03*
G04 #@! TO.N,/D3*
X-39536500Y92145286D03*
X-25174785Y66650000D03*
X-38324933Y78570078D03*
X-23961285Y78580078D03*
G04 #@! TO.N,/D5*
X-5870000Y96250000D03*
X-20070000Y68910000D03*
G04 #@! TO.N,/D19*
X-27257734Y67806549D03*
G04 #@! TO.N,/D18*
X-23104785Y69040000D03*
X-22531285Y79270078D03*
G04 #@! TO.N,/D7*
X-26623026Y59373759D03*
X-19640000Y88810000D03*
X-56280000Y97420000D03*
X-24820000Y47530000D03*
X-19630000Y81660000D03*
X-51670000Y106520000D03*
X-19620000Y72730000D03*
X-18820500Y59020000D03*
X-19630000Y87330000D03*
X-19940000Y49750000D03*
G04 #@! TO.N,/D17*
X-26613522Y64618915D03*
G04 #@! TO.N,/D16*
X-25971285Y64596678D03*
G04 #@! TO.N,/D9*
X-27401725Y68901878D03*
G04 #@! TO.N,/A0*
X-37121900Y49750000D03*
X-31621433Y30980000D03*
X-35200000Y43170000D03*
X-35200000Y38340000D03*
X-34589999Y37600001D03*
X-33126178Y60696678D03*
G04 #@! TO.N,/A1*
X-36660000Y57070000D03*
X-38561433Y67810078D03*
G04 #@! TO.N,/A3*
X-38911433Y61350078D03*
X-5491433Y65870078D03*
X-12680000Y67670000D03*
X-38341433Y74470078D03*
G04 #@! TO.N,/A8*
X-38058548Y52200078D03*
X-39360000Y40200000D03*
X-43040000Y40180000D03*
X-37168548Y54330078D03*
X-35231433Y61450078D03*
X-48600000Y40280000D03*
G04 #@! TO.N,Net-(J2-SIG)*
X-23101433Y39120078D03*
G04 #@! TO.N,Net-(C46-Pad1)*
X-13556648Y56740078D03*
X-9100000Y43470000D03*
G04 #@! TO.N,Net-(POT_LENGTH1-Center)*
X-41730000Y49100000D03*
X-42900000Y79900000D03*
X-43855000Y58995000D03*
G04 #@! TO.N,/D4*
X-27311285Y66506678D03*
G04 #@! TO.N,/VCOM*
X-6724785Y16140000D03*
X-11854785Y20850000D03*
X-23836648Y20990078D03*
G04 #@! TO.N,GNDA*
X-18354785Y14790000D03*
X-9844785Y22250000D03*
X-10254785Y11520000D03*
X-15634785Y14620000D03*
G04 #@! TO.N,Net-(POT_START1-Center)*
X-7656648Y64930078D03*
X-11723627Y46679115D03*
G04 #@! TO.N,Net-(U2B-VCAP_1)*
X-29698839Y61869124D03*
G04 #@! TO.N,+3.3VADC*
X-37621433Y58930078D03*
X-44990000Y66360000D03*
X-41121433Y61770078D03*
G04 #@! TO.N,/BOOT0*
X-31711285Y65846678D03*
X-31141433Y72090078D03*
G04 #@! TO.N,Net-(C152-Pad1)*
X-18334785Y9960078D03*
X-21206648Y5860078D03*
G04 #@! TO.N,Net-(C152-Pad2)*
X-20906648Y9300078D03*
X-22066648Y3760078D03*
G04 #@! TO.N,Net-(C153-Pad1)*
X-13294785Y4430000D03*
X-9356648Y6600078D03*
G04 #@! TO.N,/SWDCLK*
X-18352744Y70427256D03*
G04 #@! TO.N,/SWDIO*
X-18040000Y69990000D03*
G04 #@! TO.N,/UART_TX*
X-36395997Y62606420D03*
G04 #@! TO.N,/UART_RX*
X-35994785Y62143420D03*
G04 #@! TO.N,/DEBUG2*
X-32481285Y66546678D03*
G04 #@! TO.N,/DEBUG3*
X-29661285Y69446678D03*
G04 #@! TO.N,Net-(J9-SIG)*
X-48529485Y45987030D03*
X-47636648Y36350078D03*
G04 #@! TO.N,/LOUT+*
X-12983348Y13706953D03*
X-14370990Y20171603D03*
G04 #@! TO.N,/LOUT-*
X-13448884Y13525901D03*
X-14926648Y20120078D03*
G04 #@! TO.N,/I2C1_SCL*
X-7166648Y35820078D03*
X-34671433Y72870078D03*
G04 #@! TO.N,/I2C1_SDA*
X-11151433Y38150078D03*
X-31163507Y67843305D03*
G04 #@! TO.N,/RIN*
X-20146648Y21450078D03*
X-8371433Y26740078D03*
G04 #@! TO.N,/SAI_SD_B*
X-8784785Y35900000D03*
X-36247785Y70520000D03*
G04 #@! TO.N,/SAI_MCLK*
X-35053378Y70601773D03*
X-10855407Y35409378D03*
G04 #@! TO.N,/SD-NBL1*
X-26568400Y48566678D03*
X-31821285Y67836678D03*
G04 #@! TO.N,/SD-NBL0*
X-33124785Y67191712D03*
X-34080000Y46876681D03*
G04 #@! TO.N,/SD-CKE1*
X-28388400Y47796678D03*
X-31531285Y69276678D03*
G04 #@! TO.N,/CODEC_RESET*
X-6401433Y30310078D03*
X-18507744Y70902256D03*
G04 #@! TO.N,/SAI_FS*
X-9654785Y36080000D03*
X-35647782Y70520000D03*
G04 #@! TO.N,/SAI_SCK*
X-34525640Y70887247D03*
X-10118285Y37137000D03*
G04 #@! TO.N,/SAI_SD_A*
X-14534785Y35170000D03*
X-33206271Y69180078D03*
X-33771285Y67196678D03*
G04 #@! TO.N,/SD-NCAS*
X-29741285Y65486678D03*
X-30521285Y67186678D03*
X-31121285Y65546678D03*
X-31388400Y48136678D03*
G04 #@! TO.N,/SD-D2*
X-24638400Y44356678D03*
X-32387044Y44574879D03*
X-21390000Y46660000D03*
X-27276258Y65246678D03*
G04 #@! TO.N,/SD-D3*
X-20104785Y63200000D03*
X-34148400Y45736678D03*
X-18989648Y57754862D03*
X-24436579Y45188733D03*
X-25520915Y70530500D03*
X-20004785Y66580000D03*
X-19091433Y56410078D03*
X-21534785Y67230000D03*
G04 #@! TO.N,/SD-A0*
X-33368107Y56663178D03*
X-33813400Y65854563D03*
G04 #@! TO.N,/SD-A2*
X-35648966Y55737066D03*
X-34423601Y63934290D03*
G04 #@! TO.N,/SD-A1*
X-33188400Y50186678D03*
X-31927720Y63108823D03*
X-34848400Y50266678D03*
X-36240000Y53690000D03*
G04 #@! TO.N,/SD-CLK*
X-28901433Y61740078D03*
X-27594830Y47780156D03*
G04 #@! TO.N,/SD-A3*
X-33117342Y63286303D03*
X-35134281Y56032117D03*
G04 #@! TO.N,/SD-A4*
X-30698220Y55686498D03*
X-30783754Y53675392D03*
G04 #@! TO.N,/SD-NWE*
X-31813124Y61416678D03*
X-34298400Y48096678D03*
G04 #@! TO.N,/SD-A5*
X-33735510Y62055410D03*
X-34290212Y57103678D03*
G04 #@! TO.N,/SD-BA1*
X-33188697Y49406678D03*
X-30720000Y56510000D03*
X-20591900Y55570000D03*
X-27271285Y62636678D03*
G04 #@! TO.N,/SD-BA0*
X-24802548Y55280078D03*
X-27271285Y61346678D03*
X-29308400Y53426678D03*
X-31176317Y49622121D03*
G04 #@! TO.N,/SD-D1*
X-33258400Y44646678D03*
X-25974785Y61990000D03*
G04 #@! TO.N,/SD-A12*
X-24301674Y61664545D03*
X-26450000Y53776678D03*
X-26448400Y49216678D03*
X-20541900Y54460000D03*
G04 #@! TO.N,/SD-A11*
X-33428400Y53826678D03*
X-28358400Y49366678D03*
X-30230653Y49529027D03*
X-30524136Y60703916D03*
G04 #@! TO.N,/SD-NE1*
X-34860000Y45413031D03*
X-27952030Y61385554D03*
G04 #@! TO.N,/SD-D0*
X-26613634Y61313401D03*
X-32778400Y43616678D03*
G04 #@! TO.N,/SD-A7*
X-27583400Y54021678D03*
X-28455694Y52579384D03*
X-31450124Y61836678D03*
X-28350250Y50183135D03*
G04 #@! TO.N,/SD-A10*
X-31166452Y60056678D03*
X-35378400Y53276678D03*
G04 #@! TO.N,/SD-D10*
X-24215007Y46436645D03*
X-26626333Y60696678D03*
G04 #@! TO.N,/SD-D15*
X-26081900Y43120000D03*
X-24447659Y59464562D03*
G04 #@! TO.N,/SD-A6*
X-31747265Y59442904D03*
X-33077132Y55815410D03*
G04 #@! TO.N,/SD-A9*
X-33000080Y54608358D03*
X-31148979Y58141122D03*
G04 #@! TO.N,/SD-D5*
X-34080000Y46276678D03*
X-30268400Y55276678D03*
X-28418785Y55419721D03*
X-29876478Y59389485D03*
G04 #@! TO.N,/SD-D6*
X-32378400Y46996678D03*
X-29221285Y60041642D03*
X-27411400Y54606678D03*
X-28898400Y52976678D03*
G04 #@! TO.N,/SD-D8*
X-27979089Y57814645D03*
X-25977516Y49900000D03*
G04 #@! TO.N,/SD-D11*
X-24351900Y45733969D03*
X-27608400Y46156678D03*
X-25976312Y60686678D03*
X-26308376Y45951745D03*
G04 #@! TO.N,/SD-D14*
X-24868478Y58529485D03*
X-26781720Y45133358D03*
G04 #@! TO.N,/SD-D13*
X-27582340Y45406678D03*
X-25981285Y59391700D03*
G04 #@! TO.N,/SD-NRAS*
X-33051530Y48514272D03*
X-31763500Y57266324D03*
G04 #@! TO.N,/SD-A8*
X-27478703Y50130119D03*
X-30648138Y57478911D03*
G04 #@! TO.N,/SD-D4*
X-31311400Y54716678D03*
X-32382888Y45414144D03*
X-30141285Y58546678D03*
X-35868404Y47678278D03*
X-29185557Y55020427D03*
X-35868400Y50576678D03*
G04 #@! TO.N,/SD-D7*
X-30298925Y54353678D03*
X-29778285Y58026678D03*
X-34097628Y47494185D03*
X-28334167Y54885808D03*
G04 #@! TO.N,/SD-D9*
X-27582103Y47013336D03*
X-26614605Y57144818D03*
G04 #@! TO.N,/SD-D12*
X-26636535Y57680108D03*
X-26634307Y46635333D03*
G04 #@! TO.N,Net-(U14A--)*
X-14526648Y58760078D03*
X-13206648Y58690078D03*
G04 #@! TO.N,/D2*
X-41135730Y13496578D03*
X-17893500Y61930078D03*
X-24349965Y64367999D03*
X-53306648Y5470078D03*
X-53306648Y7170078D03*
X-19884785Y62490000D03*
G04 #@! TD*
D24*
G04 #@! TO.N,GND*
X-17442370Y12805800D02*
X-16086648Y11450078D01*
X-4160000Y57223430D02*
X-4160000Y57060000D01*
X-51142785Y16604200D02*
X-51142785Y13135800D01*
X-14696648Y12840078D02*
X-10376648Y12840078D01*
X-38401433Y7460078D02*
X-33396648Y7460078D01*
X-13036648Y57870078D02*
X-13036648Y55720078D01*
X-43010000Y53660000D02*
X-46070630Y53660000D01*
X-44776648Y29110078D02*
X-44926648Y28960078D01*
X-30914608Y47410758D02*
X-30651096Y47147246D01*
X-7900000Y57980078D02*
X-4916648Y57980078D01*
X-4160000Y57060000D02*
X-3130078Y56030078D01*
X-25816014Y43859926D02*
X-25764275Y43911665D01*
X-7900000Y58380000D02*
X-8570000Y59050000D01*
X-35070000Y105970000D02*
X-35597000Y105443000D01*
X-4261985Y22370000D02*
X-1848985Y22370000D01*
X-14580000Y36620000D02*
X-15960000Y38000000D01*
X-8570000Y59050000D02*
X-8570000Y61730000D01*
X-30428935Y48816678D02*
X-30005093Y49240520D01*
X-27666974Y43859926D02*
X-28621900Y42905000D01*
X-32144785Y31700000D02*
X-29524785Y34320000D01*
X-7804785Y19200000D02*
X-7884785Y19120000D01*
X-6317726Y22069000D02*
X-7366648Y21020078D01*
X-35597000Y105443000D02*
X-38166500Y105443000D01*
X-4916648Y57980078D02*
X-4160000Y57223430D01*
X-12144285Y54827715D02*
X-12144285Y52470078D01*
X-3130078Y56030078D02*
X-1506648Y56030078D01*
X-56280000Y43910000D02*
X-53830000Y41460000D01*
X-31493728Y44712910D02*
X-31493728Y44216734D01*
X-29317342Y45675710D02*
X-29898608Y45675710D01*
X-10376648Y12840078D02*
X-9020463Y14196263D01*
X-26159050Y27097676D02*
X-24616648Y28640078D01*
X-27666974Y43859926D02*
X-25816014Y43859926D01*
X-30651096Y47147246D02*
X-30346664Y47147246D01*
X-28574785Y8010000D02*
X-28574785Y3725000D01*
X-13140000Y41330000D02*
X-13140000Y42950000D01*
X-46651433Y10460078D02*
X-46914155Y10722800D01*
X-26146648Y26344176D02*
X-26159050Y26356578D01*
X-4261985Y37370000D02*
X-1848985Y37370000D01*
X-28574785Y8010000D02*
X-26953800Y8010000D01*
X-29256750Y45615118D02*
X-29317342Y45675710D01*
X-38166500Y105443000D02*
X-38630000Y105906500D01*
X-39146648Y29110078D02*
X-44776648Y29110078D01*
X-15960000Y38000000D02*
X-16470000Y38000000D01*
X-7884785Y19120000D02*
X-9294785Y19120000D01*
X-28574785Y3725000D02*
X-28904785Y3395000D01*
X-26146648Y22704848D02*
X-26146648Y26344176D01*
X-13036648Y55720078D02*
X-12144285Y54827715D01*
X-51142785Y13135800D02*
X-51142785Y10722800D01*
X-33396648Y7460078D02*
X-33056648Y7120078D01*
X-53830000Y41460000D02*
X-53830000Y40980000D01*
X-26159050Y26356578D02*
X-26159050Y27097676D01*
X-33056648Y7120078D02*
X-33056648Y6630078D01*
X-6317726Y22069000D02*
X-7424785Y23176059D01*
X-25510800Y22069000D02*
X-27923800Y22069000D01*
X-29524785Y34320000D02*
X-29524785Y34760000D01*
X-30334472Y43177983D02*
X-29977795Y43534660D01*
X-51142785Y19017200D02*
X-51142785Y16604200D01*
X-30538400Y48816678D02*
X-30428935Y48816678D01*
X-32527000Y94417000D02*
X-32170000Y94060000D01*
X-32489785Y31700000D02*
X-32144785Y31700000D01*
X-32170000Y94060000D02*
X-24550000Y94060000D01*
X-4278200Y22069000D02*
X-6317726Y22069000D01*
X-16086648Y11450078D02*
X-14696648Y12840078D01*
X-20406500Y34063500D02*
X-20406500Y33880000D01*
X-28421285Y64856678D02*
X-28421285Y65346678D01*
X-7900000Y56720000D02*
X-7900000Y57980078D01*
X-16470000Y38000000D02*
X-20406500Y34063500D01*
X-32527000Y97479000D02*
X-32527000Y94417000D01*
X-16470000Y38000000D02*
X-13140000Y41330000D01*
X-7900000Y56720000D02*
X-7900000Y58380000D01*
X-22158000Y12805800D02*
X-17442370Y12805800D01*
X-47761433Y6150078D02*
X-47761433Y4690078D01*
X-48531433Y6920078D02*
X-47761433Y6150078D01*
X-46070630Y53660000D02*
X-46566492Y53164138D01*
X-7424785Y23176059D02*
X-7424785Y26550000D01*
X-26953800Y8010000D02*
X-22158000Y12805800D01*
X-46914155Y10722800D02*
X-51142785Y10722800D01*
X-30005093Y49240520D02*
X-29237778Y49240520D01*
G04 #@! TO.N,+3V3*
X-30269080Y43962086D02*
X-30049878Y44181288D01*
X-30914608Y46058260D02*
X-30572436Y45716088D01*
D25*
X-11154109Y36160078D02*
X-11154109Y37454109D01*
X-10896737Y36160078D02*
X-11154109Y36160078D01*
D24*
X-43789800Y38969800D02*
X-37788774Y38969800D01*
D25*
X-11154109Y36160078D02*
X-11415987Y35898200D01*
X-11154109Y37454109D02*
X-12639808Y38939808D01*
D24*
X-29404464Y46151566D02*
X-29898608Y46645710D01*
D25*
X-29625050Y44181288D02*
X-29318762Y43875000D01*
X-6521433Y34710078D02*
X-9446737Y34710078D01*
X-12639808Y38939808D02*
X-12639808Y43989808D01*
X-31247576Y43176350D02*
X-30334472Y44089454D01*
X-37364900Y99165100D02*
X-37972744Y98557256D01*
D24*
X-36214785Y37395811D02*
X-36214785Y36640000D01*
X-30208400Y48116678D02*
X-30208400Y48136678D01*
D25*
X-33483763Y39371022D02*
X-33483763Y41550078D01*
X-13111433Y44461433D02*
X-13111433Y47982462D01*
X-14538133Y35898200D02*
X-15241433Y36601500D01*
D24*
X-29373336Y46151566D02*
X-29404464Y46151566D01*
D25*
X-12639808Y43989808D02*
X-13111433Y44461433D01*
D24*
X-37788774Y38969800D02*
X-36214785Y37395811D01*
D25*
X-11415987Y35898200D02*
X-14538133Y35898200D01*
X-9446737Y34710078D02*
X-10896737Y36160078D01*
X-29898608Y46645710D02*
X-30709656Y46645710D01*
D24*
X-30208400Y48136678D02*
X-29771347Y48573731D01*
D25*
X-32094900Y99165100D02*
X-37364900Y99165100D01*
X-31938400Y43426678D02*
X-31604366Y43092644D01*
X-29318762Y43875000D02*
X-28621900Y43875000D01*
D24*
X-30049878Y44181288D02*
X-29625050Y44181288D01*
D25*
X-36214785Y36640000D02*
X-33483763Y39371022D01*
X-28631000Y102629000D02*
X-32094900Y99165100D01*
D24*
X-44510000Y39690000D02*
X-43789800Y38969800D01*
D25*
X-30709656Y46645710D02*
X-30914608Y46440758D01*
X-31604366Y43092644D02*
X-31293576Y43092644D01*
D24*
X-30914608Y46440758D02*
X-30914608Y46058260D01*
G04 #@! TO.N,/A4*
X-51140000Y40879556D02*
X-51779556Y40240000D01*
X-40473500Y49563500D02*
X-45467082Y49563500D01*
X-38480000Y47570000D02*
X-40473500Y49563500D01*
X-51140000Y43890582D02*
X-51140000Y40879556D01*
X-45467082Y49563500D02*
X-51140000Y43890582D01*
X-51779556Y40240000D02*
X-57330000Y40240000D01*
G04 #@! TO.N,GNDADC*
X-10324785Y44260000D02*
X-10174785Y44410000D01*
D25*
X-36760000Y42104858D02*
X-35757327Y41102185D01*
X-36760000Y45424000D02*
X-36760000Y42104858D01*
D24*
X-37498548Y45820078D02*
X-37498548Y45200078D01*
X-10140000Y47760000D02*
X-10150000Y47770000D01*
X-10140000Y45424000D02*
X-10140000Y47760000D01*
G04 #@! TO.N,/A5*
X-37163648Y37650000D02*
X-37163648Y37683500D01*
X-37163648Y31849363D02*
X-37163648Y37650000D01*
X-36694785Y31380500D02*
X-37163648Y31849363D01*
X-38940000Y41280000D02*
X-38940000Y45945330D01*
X-38940000Y45945330D02*
X-38672980Y46212350D01*
X-38937744Y41277744D02*
X-38940000Y41280000D01*
G04 #@! TO.N,+12V*
X-52650000Y47790000D02*
X-52650000Y41978136D01*
D25*
X-8617285Y47297285D02*
X-7740000Y46420000D01*
X-36204785Y29630000D02*
X-40571355Y29630000D01*
X-10722588Y59142588D02*
X-11878240Y59142588D01*
X-52379833Y37634344D02*
X-52699302Y37953813D01*
X-9770000Y58190000D02*
X-8617285Y57037285D01*
X-52379833Y36460078D02*
X-52064216Y36144461D01*
X-49380000Y51060000D02*
X-47810000Y52630000D01*
D24*
X-49380000Y51060000D02*
X-52650000Y47790000D01*
D25*
X-40571355Y29630000D02*
X-41651433Y30710078D01*
X-52064216Y36144461D02*
X-50462562Y36144461D01*
X-52379833Y36460078D02*
X-52379833Y37634344D01*
D24*
X-52650000Y41978136D02*
X-51725364Y41053500D01*
D25*
X-8617285Y57037285D02*
X-8617285Y47297285D01*
X-9770000Y58190000D02*
X-10722588Y59142588D01*
X-49530000Y81774785D02*
X-47944785Y83360000D01*
X-49530000Y59200000D02*
X-49530000Y81774785D01*
X-47810000Y57480000D02*
X-49530000Y59200000D01*
X-47810000Y52630000D02*
X-47810000Y57480000D01*
G04 #@! TO.N,-12VA*
X-52856648Y19484863D02*
X-49908233Y22433278D01*
X-15466648Y9420078D02*
X-14694785Y9420078D01*
D24*
X-30651433Y3810078D02*
X-28411433Y1570078D01*
D25*
X-28172140Y32540000D02*
X-22412062Y38300078D01*
X-15566648Y9320078D02*
X-15466648Y9420078D01*
D24*
X-54650000Y44000000D02*
X-54650000Y78320000D01*
D25*
X-49908233Y35310000D02*
X-49908233Y36374073D01*
X-26694785Y13730000D02*
X-26069345Y14355440D01*
X-14310000Y43520000D02*
X-13613033Y44216967D01*
X-49991433Y3250078D02*
X-52856648Y6115293D01*
X-22412062Y38300078D02*
X-20999922Y38300078D01*
X-18150488Y14355440D02*
X-16895048Y13100000D01*
X-13613033Y44216967D02*
X-13613033Y51738478D01*
X-12404785Y13677233D02*
X-12976840Y13105178D01*
D24*
X-49908233Y35310000D02*
X-49908233Y36918235D01*
D25*
X-15396100Y13105178D02*
X-15401278Y13100000D01*
X-15401278Y13100000D02*
X-16895048Y13100000D01*
D24*
X-37431433Y3810078D02*
X-30651433Y3810078D01*
D25*
X-29714785Y32340000D02*
X-29514785Y32540000D01*
X-52856648Y6115293D02*
X-52856648Y19484863D01*
X-49908233Y22433278D02*
X-49908233Y35310000D01*
X-25764785Y11130000D02*
X-25764785Y12800000D01*
X-26069345Y14355440D02*
X-18150488Y14355440D01*
D24*
X-49908233Y36918235D02*
X-51029998Y38040000D01*
D25*
X-25764785Y12800000D02*
X-26694785Y13730000D01*
X-20999922Y38300078D02*
X-15780000Y43520000D01*
X-29714785Y32340000D02*
X-29714785Y30170000D01*
X-12976840Y13105178D02*
X-15396100Y13105178D01*
X-29514785Y32540000D02*
X-28172140Y32540000D01*
X-13613033Y51738478D02*
X-13011433Y52340078D01*
D24*
X-54190000Y43540000D02*
X-54650000Y44000000D01*
D25*
X-12404785Y15340000D02*
X-12404785Y13677233D01*
X-15780000Y43520000D02*
X-14310000Y43520000D01*
D24*
X-54650000Y78320000D02*
X-50560000Y82410000D01*
G04 #@! TO.N,/A2*
X-39403500Y42190000D02*
X-39210000Y42383500D01*
X-39210000Y45405142D02*
X-39277721Y45472863D01*
X-39210000Y42383500D02*
X-39210000Y45405142D01*
X-39277721Y45472863D02*
X-39277721Y47163291D01*
D26*
G04 #@! TO.N,/A7*
X-38071433Y68890078D02*
X-38071433Y63660078D01*
D24*
X-39371433Y84350000D02*
X-39371433Y76706578D01*
D26*
X-36241433Y61830078D02*
X-36241433Y60250078D01*
X-38661433Y69480078D02*
X-38071433Y68890078D01*
X-38071433Y63660078D02*
X-36241433Y61830078D01*
D24*
X-39371433Y84440078D02*
X-39371433Y84350000D01*
X-39371433Y76706578D02*
X-38324933Y75660078D01*
G04 #@! TO.N,/A6*
X-37241433Y73818349D02*
X-37241433Y69340078D01*
X-32653842Y62106569D02*
X-32653842Y63478291D01*
X-35818285Y65739678D02*
X-36131285Y65426678D01*
X-36511433Y68610078D02*
X-36511433Y68161338D01*
X-37317148Y73984064D02*
X-37287148Y73954064D01*
X-36511433Y68161338D02*
X-35818285Y67468190D01*
X-37287148Y73864064D02*
X-37241433Y73818349D01*
X-37317148Y84604363D02*
X-37317148Y73984064D01*
X-32730124Y62030287D02*
X-32653842Y62106569D01*
X-37317148Y84604363D02*
X-37317148Y85567148D01*
X-33318166Y61160178D02*
X-33194607Y61160178D01*
X-32653842Y63478291D02*
X-34402594Y65227043D01*
X-37287148Y73954064D02*
X-37287148Y73864064D01*
X-37241433Y69340078D02*
X-36511433Y68610078D01*
X-35818285Y67468190D02*
X-35818285Y65739678D01*
X-33732087Y60665676D02*
X-33732087Y60746257D01*
X-34402594Y65227043D02*
X-34426440Y65227043D01*
X-37317148Y85567148D02*
X-37340000Y85590000D01*
X-33194607Y61160178D02*
X-32730124Y61624661D01*
X-33732087Y60746257D02*
X-33318166Y61160178D01*
X-32730124Y61624661D02*
X-32730124Y62030287D01*
G04 #@! TO.N,/D6*
X-15080000Y103520000D02*
X-21221433Y97378567D01*
X-22531433Y70851433D02*
X-18085488Y66405488D01*
X-18357000Y62122066D02*
X-18357000Y58132215D01*
X-22531433Y74630078D02*
X-22531433Y70851433D01*
X-18085488Y66405488D02*
X-18085488Y62393578D01*
X-18357000Y58132215D02*
X-18144785Y57920000D01*
X-18085488Y62393578D02*
X-18357000Y62122066D01*
X-21221433Y97378567D02*
X-21221433Y75940078D01*
X-21221433Y75940078D02*
X-22531433Y74630078D01*
G04 #@! TO.N,/D8*
X-24183001Y57201248D02*
X-24183001Y47646999D01*
X-24183001Y47646999D02*
X-25874444Y45955556D01*
X-24325876Y57344123D02*
X-24352458Y57317541D01*
X-39660000Y44200000D02*
X-39775315Y44315315D01*
X-39775315Y44315315D02*
X-39775315Y47374685D01*
X-40000000Y92840000D02*
X-40000000Y59136500D01*
X-25874444Y45955556D02*
X-25874444Y45702763D01*
X-36980000Y95860000D02*
X-40000000Y92840000D01*
X-24325876Y57344123D02*
X-24183001Y57201248D01*
D26*
G04 #@! TO.N,/A9*
X-37901433Y57610078D02*
X-38601433Y58310078D01*
X-38601433Y61020078D02*
X-38471433Y61150078D01*
X-38681433Y62080078D02*
X-38681433Y66250078D01*
X-38601433Y58310078D02*
X-38601433Y61020078D01*
X-38681433Y66438751D02*
X-38698940Y66456258D01*
X-38471433Y61870078D02*
X-38681433Y62080078D01*
X-38681433Y66250078D02*
X-38691433Y66260078D01*
X-38681433Y66250078D02*
X-38681433Y66438751D01*
X-38471433Y61150078D02*
X-38471433Y61870078D01*
D24*
G04 #@! TO.N,/D15*
X-21108759Y39322752D02*
X-21288226Y39322752D01*
X-27370259Y60025652D02*
X-27370259Y59285899D01*
X-25143376Y56188759D02*
X-25151731Y56180404D01*
X-21244933Y29103578D02*
X-25497933Y29103578D01*
X-20870000Y37308645D02*
X-20870000Y29478511D01*
X-25497933Y29103578D02*
X-27781433Y26820078D01*
X-28371285Y62436866D02*
X-28371285Y61026678D01*
X-28171429Y62636722D02*
X-28371285Y62436866D01*
X-28371285Y61026678D02*
X-27370259Y60025652D01*
X-18570000Y56665011D02*
X-18570000Y41861511D01*
X-20870000Y29478511D02*
X-21244933Y29103578D01*
X-20951433Y37390078D02*
X-20870000Y37308645D01*
X-18461433Y56773578D02*
X-18570000Y56665011D01*
X-18570000Y41861511D02*
X-21108759Y39322752D01*
X-25143376Y57059016D02*
X-25143376Y56188759D01*
X-27370259Y59285899D02*
X-25143376Y57059016D01*
G04 #@! TO.N,/D13*
X-21481433Y37009805D02*
X-40406433Y18084805D01*
X-27908719Y61989319D02*
X-27265041Y61989319D01*
X-21879635Y39386831D02*
X-21879635Y39221565D01*
X-21934785Y52376315D02*
X-21908548Y52350078D01*
X-48584785Y13568430D02*
X-48584785Y23200000D01*
X-41091648Y12435078D02*
X-47451433Y12435078D01*
X-21481433Y37390078D02*
X-21481433Y37009805D01*
X-21908548Y43918548D02*
X-20816648Y42826648D01*
X-21934785Y58783589D02*
X-21934785Y52376315D01*
X-40406433Y13120293D02*
X-41091648Y12435078D01*
X-25731274Y62580078D02*
X-21934785Y58783589D01*
X-47451433Y12435078D02*
X-48584785Y13568430D01*
X-21908548Y52350078D02*
X-21908548Y43918548D01*
X-40406433Y18084805D02*
X-40406433Y13120293D01*
X-20816648Y40449818D02*
X-21879635Y39386831D01*
X-26674282Y62580078D02*
X-25731274Y62580078D01*
X-27265041Y61989319D02*
X-26674282Y62580078D01*
X-20816648Y42826648D02*
X-20816648Y40449818D01*
D25*
G04 #@! TO.N,VREF+*
X-55220000Y60100000D02*
X-55240000Y60080000D01*
X-37137888Y40747204D02*
X-37137888Y41642800D01*
X-55240000Y60080000D02*
X-55240000Y54630000D01*
X-15820000Y72320000D02*
X-15820000Y70027000D01*
X-14940000Y73200000D02*
X-15820000Y72320000D01*
D24*
X-4554633Y47086878D02*
X-6253006Y45388505D01*
D25*
X-38230192Y39654900D02*
X-37137888Y40747204D01*
D24*
X-6253006Y45388505D02*
X-6253006Y44223636D01*
D25*
X-55240000Y54630000D02*
X-55230000Y54620000D01*
X-40990900Y39654900D02*
X-38230192Y39654900D01*
X-46760000Y45424000D02*
X-40990900Y39654900D01*
D24*
G04 #@! TO.N,/D11*
X-23700137Y71125352D02*
X-23700137Y71433500D01*
X-23320000Y79560000D02*
X-23322392Y79557608D01*
X-23322392Y79557608D02*
X-23322392Y77152392D01*
X-22155552Y69833500D02*
X-22408285Y69833500D01*
X-25361433Y71420078D02*
X-25361433Y75113352D01*
X-22408285Y69833500D02*
X-23700137Y71125352D01*
X-18894785Y61510000D02*
X-18894785Y66572733D01*
X-19674785Y60730000D02*
X-18894785Y61510000D01*
X-25361433Y75113352D02*
X-23322392Y77152392D01*
X-23320000Y79840000D02*
X-23320000Y79560000D01*
X-18894785Y66572733D02*
X-22155552Y69833500D01*
G04 #@! TO.N,/D10*
X-22758433Y70757407D02*
X-22758433Y70868433D01*
X-18584000Y66582974D02*
X-22758433Y70757407D01*
X-19054785Y60170000D02*
X-18584000Y60640785D01*
X-21561433Y102921433D02*
X-26720000Y108080000D01*
X-21561433Y76250078D02*
X-21561433Y102921433D01*
X-23236637Y74574874D02*
X-21561433Y76250078D01*
X-26720000Y108080000D02*
X-48646500Y108080000D01*
X-23236637Y71346637D02*
X-23236637Y74574874D01*
X-48646500Y108080000D02*
X-49000000Y107726500D01*
X-18584000Y60640785D02*
X-18584000Y66582974D01*
X-22758433Y70868433D02*
X-23236637Y71346637D01*
G04 #@! TO.N,/D14*
X-24914785Y72071512D02*
X-24901285Y72085012D01*
X-19692797Y62026500D02*
X-19284785Y62434512D01*
X-21491090Y68848012D02*
X-22641285Y68848012D01*
X-22690000Y98470006D02*
X-22989994Y98770000D01*
X-24914785Y72482488D02*
X-24914785Y75097552D01*
X-23296773Y68576500D02*
X-24914785Y70194512D01*
X-24539092Y63028871D02*
X-22733656Y63028871D01*
X-22894785Y77117552D02*
X-22894785Y81029454D01*
X-24901285Y72468988D02*
X-24914785Y72482488D01*
X-36650002Y98770000D02*
X-36770000Y98650002D01*
X-22894785Y81029454D02*
X-22894785Y87255215D01*
X-22912797Y68576500D02*
X-23296773Y68576500D01*
X-24914785Y75097552D02*
X-22894785Y77117552D01*
X-22989994Y98770000D02*
X-36650002Y98770000D01*
X-21731285Y62026500D02*
X-19692797Y62026500D01*
X-24914785Y70194512D02*
X-24914785Y72071512D01*
X-19284785Y66641707D02*
X-21491090Y68848012D01*
X-24901285Y72085012D02*
X-24901285Y72468988D01*
X-19284785Y62434512D02*
X-19284785Y66641707D01*
X-22894785Y87255215D02*
X-22690000Y87460000D01*
X-22733656Y63028871D02*
X-21731285Y62026500D01*
X-22641285Y68848012D02*
X-22912797Y68576500D01*
G04 #@! TO.N,/D12*
X-22294785Y69370000D02*
X-22549297Y69370000D01*
X-21851433Y102481433D02*
X-25716500Y106346500D01*
X-36550000Y106346500D02*
X-36990000Y105906500D01*
X-20739785Y67308430D02*
X-21851433Y68420078D01*
X-25081285Y64746678D02*
X-22989606Y64746678D01*
X-22989606Y64746678D02*
X-20739785Y66996499D01*
X-24247285Y71067988D02*
X-24247285Y73974226D01*
X-24247285Y73974226D02*
X-21851433Y76370078D01*
X-21851433Y76370078D02*
X-21851433Y102481433D01*
X-22549297Y69370000D02*
X-24247285Y71067988D01*
X-20739785Y66996499D02*
X-20739785Y67308430D01*
X-25716500Y106346500D02*
X-36550000Y106346500D01*
G04 #@! TO.N,/D0*
X-13385488Y95720000D02*
X-12550000Y95720000D01*
X-22071433Y74500078D02*
X-20881433Y75690078D01*
X-22071433Y72100078D02*
X-22071433Y74500078D01*
X-20881433Y88224055D02*
X-13385488Y95720000D01*
X-21680000Y71708645D02*
X-22071433Y72100078D01*
X-21680000Y70562334D02*
X-21680000Y71708645D01*
X-20881433Y75690078D02*
X-20881433Y88224055D01*
G04 #@! TO.N,/D1*
X-36091433Y69530078D02*
X-36861433Y70300078D01*
X-29651433Y87688567D02*
X-29399649Y87940351D01*
X-36861433Y70300078D02*
X-36861433Y73088567D01*
X-36861433Y73088567D02*
X-33250000Y76700000D01*
X-29399649Y87940351D02*
X-22324582Y87940351D01*
X-22324582Y87940351D02*
X-22314933Y87950000D01*
X-29651433Y87640000D02*
X-29651433Y87688567D01*
X-29421433Y77560078D02*
X-29651433Y77790078D01*
X-29651433Y77790078D02*
X-29651433Y87640000D01*
G04 #@! TO.N,/D3*
X-25174785Y66650000D02*
X-26020785Y67496000D01*
X-25828285Y75609156D02*
X-23961285Y77476156D01*
X-23961285Y77476156D02*
X-23961285Y78580078D01*
X-26020785Y70749312D02*
X-25828285Y70941812D01*
X-38324933Y78570078D02*
X-38324933Y90933719D01*
X-26020785Y67496000D02*
X-26020785Y70749312D01*
X-25828285Y70941812D02*
X-25828285Y75609156D01*
X-38324933Y90933719D02*
X-39536500Y92145286D01*
G04 #@! TO.N,/D5*
X-20070000Y68910000D02*
X-20331433Y69171433D01*
X-20331433Y69171433D02*
X-20331433Y81788567D01*
X-20331433Y81788567D02*
X-5870000Y96250000D01*
G04 #@! TO.N,/D19*
X-27257734Y67806549D02*
X-27064785Y67999498D01*
X-26938225Y80546024D02*
X-26853180Y80631069D01*
X-26938225Y68709890D02*
X-26938225Y80546024D01*
X-27064785Y68583330D02*
X-26938225Y68709890D01*
X-27064785Y67999498D02*
X-27064785Y68583330D01*
G04 #@! TO.N,/D18*
X-24574285Y71949564D02*
X-24574285Y74975604D01*
X-22501433Y77048456D02*
X-22501433Y79240226D01*
X-22501433Y79240226D02*
X-22531285Y79270078D01*
X-23104785Y69040000D02*
X-23104785Y69463040D01*
X-24574285Y74975604D02*
X-22501433Y77048456D01*
X-24587785Y71936064D02*
X-24574285Y71949564D01*
X-24587785Y70946040D02*
X-24587785Y71936064D01*
X-23104785Y69463040D02*
X-24587785Y70946040D01*
G04 #@! TO.N,/D7*
X-26623026Y59263026D02*
X-24689376Y57329376D01*
X-19630000Y87330000D02*
X-19630000Y88800000D01*
X-24410000Y47910000D02*
X-24750000Y47570000D01*
X-24689376Y57329376D02*
X-24689376Y57193556D01*
X-51730000Y106460000D02*
X-51670000Y106520000D01*
X-19620000Y72730000D02*
X-19620000Y81650000D01*
X-19620000Y81650000D02*
X-19630000Y81660000D01*
X-56280000Y106040000D02*
X-55860000Y106460000D01*
X-19940000Y49750000D02*
X-19761285Y49928715D01*
X-24750000Y47570000D02*
X-24780000Y47570000D01*
X-19630000Y88800000D02*
X-19640000Y88810000D01*
X-24689376Y57193556D02*
X-24410000Y56914180D01*
X-19761285Y49928715D02*
X-19761285Y58079215D01*
X-26623026Y59373759D02*
X-26623026Y59263026D01*
X-55860000Y106460000D02*
X-51730000Y106460000D01*
X-56280000Y97420000D02*
X-56280000Y106040000D01*
X-19761285Y58079215D02*
X-18820500Y59020000D01*
X-24410000Y56914180D02*
X-24410000Y47910000D01*
X-24780000Y47570000D02*
X-24820000Y47530000D01*
G04 #@! TO.N,/D17*
X-27521785Y71560552D02*
X-27521785Y76174497D01*
X-29346648Y86153352D02*
X-28370000Y87130000D01*
X-27757785Y70558666D02*
X-27784785Y70585666D01*
X-26853180Y87230751D02*
X-28269249Y87230751D01*
X-26668465Y64831410D02*
X-26668465Y65303858D01*
X-27407785Y66043178D02*
X-27503273Y66043178D01*
X-26613522Y64776467D02*
X-26668465Y64831410D01*
X-27503273Y66043178D02*
X-28094785Y66634690D01*
X-27757785Y69921690D02*
X-27757785Y70558666D01*
X-28094785Y66634690D02*
X-28094785Y69584690D01*
X-29346648Y77999360D02*
X-29346648Y86153352D01*
X-28094785Y69584690D02*
X-27757785Y69921690D01*
X-26668465Y65303858D02*
X-27407785Y66043178D01*
X-27521785Y76174497D02*
X-29346648Y77999360D01*
X-26613522Y64618915D02*
X-26613522Y64776467D01*
X-27784785Y71297552D02*
X-27521785Y71560552D01*
X-28269249Y87230751D02*
X-28370000Y87130000D01*
X-27784785Y70585666D02*
X-27784785Y71297552D01*
G04 #@! TO.N,/D16*
X-26550000Y86130931D02*
X-25455861Y85036792D01*
X-25455861Y85036792D02*
X-25455861Y76444028D01*
X-25971285Y66631230D02*
X-25971285Y64596678D01*
X-26347785Y67007730D02*
X-25971285Y66631230D01*
X-27953000Y86130931D02*
X-26550000Y86130931D01*
X-26213785Y75686104D02*
X-26213785Y71018760D01*
X-26347785Y70884760D02*
X-26347785Y67007730D01*
X-26213785Y71018760D02*
X-26347785Y70884760D01*
X-25455861Y76444028D02*
X-26213785Y75686104D01*
G04 #@! TO.N,/D9*
X-28996648Y82887389D02*
X-28996648Y78348906D01*
X-27430785Y70694114D02*
X-27430785Y68930938D01*
X-27953000Y83931037D02*
X-28996648Y82887389D01*
X-27457785Y71162104D02*
X-27457785Y70721114D01*
X-27457785Y70721114D02*
X-27430785Y70694114D01*
X-28996648Y78348906D02*
X-27194785Y76547043D01*
X-27194785Y76547043D02*
X-27194785Y71425104D01*
X-27430785Y68930938D02*
X-27401725Y68901878D01*
X-27194785Y71425104D02*
X-27457785Y71162104D01*
D26*
G04 #@! TO.N,/A0*
X-37211900Y53330000D02*
X-37211900Y49840000D01*
X-33607785Y59575278D02*
X-33607785Y56922215D01*
X-35200000Y43170000D02*
X-35200000Y38340000D01*
X-33126178Y60696678D02*
X-33126178Y60056885D01*
X-35331900Y55210000D02*
X-37211900Y53330000D01*
X-33126178Y60056885D02*
X-33607785Y59575278D01*
X-35320000Y55210000D02*
X-35331900Y55210000D01*
X-33607785Y56922215D02*
X-35320000Y55210000D01*
X-37211900Y49840000D02*
X-37121900Y49750000D01*
X-34589999Y33305363D02*
X-34589999Y37600001D01*
X-31621433Y30980000D02*
X-32264636Y30980000D01*
X-32264636Y30980000D02*
X-34589999Y33305363D01*
G04 #@! TO.N,/A1*
X-38271433Y58681433D02*
X-38271433Y67520078D01*
X-36660000Y57070000D02*
X-38271433Y58681433D01*
X-38271433Y67520078D02*
X-38561433Y67810078D01*
D24*
G04 #@! TO.N,/A3*
X-39221433Y61660078D02*
X-39221433Y73590078D01*
X-6256570Y67660000D02*
X-5491433Y66894863D01*
X-38911433Y61350078D02*
X-39221433Y61660078D01*
X-39221433Y73590078D02*
X-38341433Y74470078D01*
X-12680000Y67670000D02*
X-12670000Y67660000D01*
X-5491433Y66894863D02*
X-5491433Y65870078D01*
X-12670000Y67660000D02*
X-6256570Y67660000D01*
G04 #@! TO.N,/A8*
X-48500000Y40180000D02*
X-48600000Y40280000D01*
X-38450000Y45779842D02*
X-38450000Y41110000D01*
X-35730000Y58511015D02*
X-35730000Y56460000D01*
X-38060000Y46800000D02*
X-38060000Y46169842D01*
X-37168548Y55021452D02*
X-37168548Y54330078D01*
X-38058548Y52200078D02*
X-38058548Y46810078D01*
X-38060000Y46169842D02*
X-38450000Y45779842D01*
X-43040000Y40180000D02*
X-48500000Y40180000D01*
X-35231433Y61450078D02*
X-35231433Y59009582D01*
X-38450000Y41110000D02*
X-39360000Y40200000D01*
X-35730000Y56460000D02*
X-37168548Y55021452D01*
X-35231433Y59009582D02*
X-35730000Y58511015D01*
D25*
G04 #@! TO.N,Net-(J2-SIG)*
X-22770000Y39451511D02*
X-22770000Y41296115D01*
X-23101433Y39120078D02*
X-22770000Y39451511D01*
X-22770000Y41296115D02*
X-21794115Y42272000D01*
D24*
G04 #@! TO.N,Net-(C46-Pad1)*
X-13556648Y55919052D02*
X-13556648Y56740078D01*
X-10860000Y43470000D02*
X-12647933Y45257933D01*
X-12647933Y55010337D02*
X-13556648Y55919052D01*
X-12647933Y45257933D02*
X-12647933Y55010337D01*
X-9100000Y43470000D02*
X-10860000Y43470000D01*
G04 #@! TO.N,Net-(POT_LENGTH1-Center)*
X-41760000Y49070000D02*
X-41730000Y49100000D01*
X-41760000Y45424000D02*
X-41760000Y49070000D01*
X-45920000Y61060000D02*
X-43855000Y58995000D01*
X-45920000Y76880000D02*
X-45920000Y61060000D01*
X-42900000Y79900000D02*
X-45920000Y76880000D01*
G04 #@! TO.N,/D4*
X-26674785Y67143178D02*
X-27311285Y66506678D01*
X-26540785Y79149215D02*
X-26540785Y71154208D01*
X-25770000Y79920000D02*
X-26540785Y79149215D01*
X-26674785Y71020208D02*
X-26674785Y67143178D01*
X-26381143Y81731143D02*
X-25770000Y81120000D01*
X-25770000Y81120000D02*
X-25770000Y79920000D01*
X-27953000Y81731143D02*
X-26381143Y81731143D01*
X-26540785Y71154208D02*
X-26674785Y71020208D01*
G04 #@! TO.N,/VCOM*
X-6724785Y16140000D02*
X-7414785Y16140000D01*
X-11854785Y20580000D02*
X-11854785Y20850000D01*
X-11864863Y20860078D02*
X-11854785Y20850000D01*
X-7414785Y16140000D02*
X-11854785Y20580000D01*
X-23836648Y20990078D02*
X-23706648Y20860078D01*
X-23706648Y20860078D02*
X-11864863Y20860078D01*
G04 #@! TO.N,GNDA*
X-15634785Y14620000D02*
X-15804785Y14790000D01*
X-5981285Y18386500D02*
X-5981285Y15883500D01*
X-9844785Y22250000D02*
X-5981285Y18386500D01*
X-10254785Y12360000D02*
X-10254785Y11520000D01*
X-15804785Y14790000D02*
X-18354785Y14790000D01*
X-5981285Y15883500D02*
X-7354785Y14510000D01*
X-8104785Y14510000D02*
X-10254785Y12360000D01*
X-7354785Y14510000D02*
X-8104785Y14510000D01*
G04 #@! TO.N,Net-(POT_START1-Center)*
X-12623648Y58992021D02*
X-10820000Y57188373D01*
X-10820000Y49498974D02*
X-11723627Y48595347D01*
X-10820000Y57188373D02*
X-10820000Y49498974D01*
X-11723627Y48595347D02*
X-11723627Y46679115D01*
X-12623648Y59963078D02*
X-12623648Y58992021D01*
X-7656648Y64930078D02*
X-12623648Y59963078D01*
G04 #@! TO.N,Net-(U2B-VCAP_1)*
X-29781285Y61951570D02*
X-29781285Y62986678D01*
X-29781285Y62986678D02*
X-29152942Y63615021D01*
X-29698839Y61869124D02*
X-29781285Y61951570D01*
G04 #@! TO.N,+3.3VADC*
X-37621433Y58930078D02*
X-36296500Y57605145D01*
X-41121433Y59602445D02*
X-41121433Y61770078D01*
X-38138988Y56620000D02*
X-41121433Y59602445D01*
X-36296500Y57605145D02*
X-36296500Y56898284D01*
X-36296500Y56898284D02*
X-36574784Y56620000D01*
X-36574784Y56620000D02*
X-38138988Y56620000D01*
G04 #@! TO.N,/BOOT0*
X-31711285Y66855652D02*
X-31711285Y65846678D01*
X-31135285Y72083930D02*
X-31135285Y70268611D01*
X-31135285Y70268611D02*
X-32687218Y68716678D01*
X-32813737Y68594226D02*
X-32813737Y67958104D01*
X-32691285Y68716678D02*
X-32813737Y68594226D01*
X-31141433Y72090078D02*
X-31135285Y72083930D01*
X-32687218Y68716678D02*
X-32691285Y68716678D01*
X-32813737Y67958104D02*
X-31711285Y66855652D01*
D27*
G04 #@! TO.N,Net-(C152-Pad1)*
X-18334785Y8731941D02*
X-18334785Y9960078D01*
X-21206648Y5860078D02*
X-18334785Y8731941D01*
D24*
G04 #@! TO.N,Net-(C152-Pad2)*
X-22066648Y8140078D02*
X-20906648Y9300078D01*
X-22066648Y3760078D02*
X-22066648Y8140078D01*
D27*
G04 #@! TO.N,Net-(C153-Pad1)*
X-9356648Y6600078D02*
X-11124707Y6600078D01*
X-11124707Y6600078D02*
X-13294785Y4430000D01*
D24*
G04 #@! TO.N,/SWDCLK*
X-2090000Y75140000D02*
X-5310000Y78360000D01*
X-5310000Y78360000D02*
X-10420000Y78360000D01*
X-10420000Y78360000D02*
X-18352744Y70427256D01*
G04 #@! TO.N,/SWDIO*
X-3700000Y71670000D02*
X-2090000Y70060000D01*
X-18040000Y69990000D02*
X-16420000Y68370000D01*
X-6620000Y71670000D02*
X-3700000Y71670000D01*
X-16420000Y68370000D02*
X-9920000Y68370000D01*
X-9920000Y68370000D02*
X-6620000Y71670000D01*
G04 #@! TO.N,/UART_TX*
X-37217785Y66832066D02*
X-37357933Y66972214D01*
X-37357933Y66972214D02*
X-37357933Y68486578D01*
X-37961433Y69090078D02*
X-37961433Y85828567D01*
X-37217785Y63428208D02*
X-37217785Y66832066D01*
X-37961433Y85828567D02*
X-32270000Y91520000D01*
X-36395997Y62606420D02*
X-37217785Y63428208D01*
X-32270000Y91520000D02*
X-32170000Y91520000D01*
X-37357933Y68486578D02*
X-37961433Y69090078D01*
G04 #@! TO.N,/UART_RX*
X-37730000Y85720000D02*
X-33440000Y90010000D01*
X-31140000Y90010000D02*
X-29630000Y91520000D01*
X-37730000Y69268645D02*
X-37730000Y85720000D01*
X-36021433Y62170068D02*
X-36021433Y63786648D01*
X-35994785Y62143420D02*
X-36021433Y62170068D01*
X-36990786Y68529431D02*
X-37730000Y69268645D01*
X-36021433Y63786648D02*
X-36990786Y64756001D01*
X-36990786Y64756001D02*
X-36990786Y68529431D01*
X-33440000Y90010000D02*
X-31140000Y90010000D01*
G04 #@! TO.N,/DEBUG2*
X-32481285Y67304626D02*
X-32481285Y66546678D01*
X-32685725Y88143249D02*
X-32685725Y69162238D01*
X-33040737Y67864078D02*
X-32481285Y67304626D01*
X-32685725Y69162238D02*
X-33040737Y68807226D01*
X-27090000Y91520000D02*
X-29344275Y89265725D01*
X-29344275Y89265725D02*
X-31563249Y89265725D01*
X-31563249Y89265725D02*
X-32685725Y88143249D01*
X-33040737Y68807226D02*
X-33040737Y67864078D01*
G04 #@! TO.N,/DEBUG3*
X-30120000Y77588645D02*
X-30120000Y87600000D01*
X-28336726Y89420000D02*
X-26650000Y89420000D01*
X-30120000Y87636726D02*
X-28336726Y89420000D01*
X-27848785Y75317430D02*
X-30120000Y77588645D01*
X-30120000Y87600000D02*
X-30120000Y87636726D01*
X-29661285Y69446678D02*
X-29661285Y69883500D01*
X-26650000Y89420000D02*
X-24550000Y91520000D01*
X-29661285Y69883500D02*
X-27848785Y71696000D01*
X-27848785Y71696000D02*
X-27848785Y75317430D01*
G04 #@! TO.N,Net-(J9-SIG)*
X-49063500Y37776930D02*
X-49063500Y45453015D01*
X-47636648Y36350078D02*
X-49063500Y37776930D01*
X-49063500Y45453015D02*
X-48529485Y45987030D01*
D27*
G04 #@! TO.N,/LOUT+*
X-12983348Y13706953D02*
X-14366648Y15090253D01*
X-14366648Y20167261D02*
X-14370990Y20171603D01*
X-14366648Y15090253D02*
X-14366648Y20167261D01*
G04 #@! TO.N,/LOUT-*
X-13448884Y13525901D02*
X-14981433Y15058449D01*
X-14981433Y15058449D02*
X-14981433Y20065293D01*
X-14981433Y20065293D02*
X-14926648Y20120078D01*
D24*
G04 #@! TO.N,/RIN*
X-20146648Y21958137D02*
X-15364707Y26740078D01*
X-20146648Y21450078D02*
X-20146648Y21958137D01*
X-15364707Y26740078D02*
X-8371433Y26740078D01*
G04 #@! TO.N,/SD-NBL1*
X-27922752Y58178145D02*
X-27828522Y58178145D01*
X-31811778Y67841645D02*
X-31811778Y67777171D01*
X-25608012Y53777316D02*
X-25608012Y49527066D01*
X-30091488Y61748413D02*
X-29202217Y60859142D01*
X-28115089Y58370482D02*
X-27922752Y58178145D01*
X-26366901Y56356901D02*
X-26366901Y54536205D01*
X-27150000Y57499623D02*
X-27150000Y57140000D01*
X-29202217Y60859142D02*
X-28873154Y60859140D01*
X-28115089Y60101075D02*
X-28115089Y58370482D01*
X-27150000Y57140000D02*
X-26366901Y56356901D01*
X-30211995Y61748414D02*
X-30091488Y61748413D01*
X-27828522Y58178145D02*
X-27150000Y57499623D01*
X-28873154Y60859140D02*
X-28115089Y60101075D01*
X-25608012Y49527066D02*
X-26568400Y48566678D01*
X-26366901Y54536205D02*
X-25608012Y53777316D01*
X-31811778Y67777171D02*
X-30414285Y66379678D01*
X-30414285Y61950704D02*
X-30211995Y61748414D01*
X-30414285Y66379678D02*
X-30414285Y61950704D01*
D26*
G04 #@! TO.N,/SD-NBL0*
X-36001433Y56891417D02*
X-37621900Y55270950D01*
X-35781433Y61190078D02*
X-35611433Y61020078D01*
X-37621900Y49755025D02*
X-37266875Y49400000D01*
X-35371285Y64961219D02*
X-35371285Y61887653D01*
X-35780146Y61191365D02*
X-35781433Y61190078D01*
X-35611433Y59430078D02*
X-36001433Y59040078D01*
X-36603319Y49400000D02*
X-34080000Y46876681D01*
X-37621900Y55270950D02*
X-37621900Y49755025D01*
X-37266875Y49400000D02*
X-36603319Y49400000D01*
X-35611433Y61020078D02*
X-35611433Y59430078D01*
X-35780146Y61478791D02*
X-35780146Y61191365D01*
X-35371285Y61887653D02*
X-35780146Y61478791D01*
X-36001433Y59040078D02*
X-36001433Y56891417D01*
X-33140792Y67191712D02*
X-35371285Y64961219D01*
D24*
G04 #@! TO.N,/SD-CKE1*
X-31531285Y69276678D02*
X-31531285Y69126678D01*
X-27274285Y55304656D02*
X-26820900Y54851271D01*
X-31531285Y69126678D02*
X-32298059Y68359904D01*
X-28342089Y57650055D02*
X-27274285Y56582251D01*
X-30641285Y66106678D02*
X-30641285Y61856678D01*
X-27274285Y56582251D02*
X-27274285Y55304656D01*
X-30641285Y61856678D02*
X-30306022Y61521415D01*
X-30185515Y61521414D02*
X-29296243Y60632142D01*
X-26820900Y54851271D02*
X-26820900Y49447704D01*
X-32298059Y68359904D02*
X-32298059Y67763452D01*
X-28342089Y60007049D02*
X-28342089Y57650055D01*
X-26820900Y49447704D02*
X-28416469Y47852135D01*
X-32298059Y67763452D02*
X-30641285Y66106678D01*
X-28967181Y60632141D02*
X-28342089Y60007049D01*
X-29296243Y60632142D02*
X-28967181Y60632141D01*
X-30306022Y61521415D02*
X-30185515Y61521414D01*
G04 #@! TO.N,/SAI_SD_A*
X-33206271Y69180078D02*
X-33728623Y68657726D01*
X-33728623Y68657726D02*
X-33728623Y67254016D01*
G04 #@! TO.N,/SD-NCAS*
X-31350680Y48098958D02*
X-31388400Y48136678D01*
X-31086624Y61987245D02*
X-31086624Y61882017D01*
X-27047900Y49857178D02*
X-29268400Y47636678D01*
X-29268400Y47636678D02*
X-30368400Y47636678D01*
X-29390269Y60405142D02*
X-29061208Y60405142D01*
X-28637285Y59981219D02*
X-28637285Y57492678D01*
X-30830680Y48098958D02*
X-31350680Y48098958D01*
X-29741285Y66421161D02*
X-29741285Y65486678D01*
X-31121285Y62021906D02*
X-31086624Y61987245D01*
X-30279542Y61294415D02*
X-29390269Y60405142D01*
X-30511565Y67191441D02*
X-29741285Y66421161D01*
X-29061208Y60405142D02*
X-28637285Y59981219D01*
X-27501285Y56356678D02*
X-27501285Y55210630D01*
X-31086624Y61882017D02*
X-30499023Y61294416D01*
X-30499023Y61294416D02*
X-30279542Y61294415D01*
X-31121285Y65546678D02*
X-31121285Y62021906D01*
X-27047900Y54757245D02*
X-27047900Y49857178D01*
X-28637285Y57492678D02*
X-27501285Y56356678D01*
X-30368400Y47636678D02*
X-30830680Y48098958D01*
X-27501285Y55210630D02*
X-27047900Y54757245D01*
D26*
G04 #@! TO.N,/SD-D2*
X-21518548Y46966648D02*
X-21528548Y46976648D01*
D24*
X-31098400Y45126678D02*
X-30778400Y44806678D01*
X-25068400Y44386678D02*
X-24668400Y44386678D01*
D26*
X-21390000Y46660000D02*
X-21518548Y46788548D01*
X-24053955Y62671678D02*
X-24244785Y62671678D01*
D24*
X-27928400Y44436678D02*
X-25118400Y44436678D01*
D26*
X-26858443Y64006678D02*
X-26030966Y64006678D01*
X-21423521Y61713000D02*
X-21861141Y61713000D01*
X-24015633Y62710000D02*
X-24053955Y62671678D01*
D24*
X-30778400Y44806678D02*
X-28298400Y44806678D01*
D26*
X-21528548Y46976648D02*
X-21528548Y51910078D01*
X-21861141Y61713000D02*
X-22858141Y62710000D01*
X-26030966Y64006678D02*
X-24689659Y62665371D01*
X-24689659Y62665371D02*
X-24169978Y62665371D01*
D24*
X-31835245Y45126678D02*
X-31098400Y45126678D01*
D26*
X-19974785Y60264264D02*
X-21423521Y61713000D01*
X-22858141Y62710000D02*
X-24015633Y62710000D01*
X-27276258Y65227178D02*
X-27276258Y64424493D01*
X-21518548Y46788548D02*
X-21518548Y46966648D01*
X-19974785Y53463841D02*
X-19974785Y60264264D01*
X-27276258Y64424493D02*
X-26858443Y64006678D01*
D24*
X-28298400Y44806678D02*
X-27928400Y44436678D01*
D26*
X-21528548Y51910078D02*
X-19974785Y53463841D01*
D24*
X-25118400Y44436678D02*
X-25068400Y44386678D01*
X-24668400Y44386678D02*
X-24638400Y44356678D01*
X-32387044Y44574879D02*
X-31835245Y45126678D01*
D26*
G04 #@! TO.N,/SD-D3*
X-20004785Y66580000D02*
X-20004785Y63300000D01*
X-25520915Y69679914D02*
X-23901079Y68060078D01*
D24*
X-34071900Y45813178D02*
X-33888012Y45813178D01*
D26*
X-20004785Y63300000D02*
X-20104785Y63200000D01*
D24*
X-24898634Y44726678D02*
X-24436579Y45188733D01*
X-27718400Y44726678D02*
X-24898634Y44726678D01*
X-28208932Y45217210D02*
X-27718400Y44726678D01*
D26*
X-23901079Y68060078D02*
X-22364863Y68060078D01*
X-19091433Y57653077D02*
X-18989648Y57754862D01*
D24*
X-33744512Y45956678D02*
X-31327093Y45956678D01*
X-34148400Y45736678D02*
X-34071900Y45813178D01*
D26*
X-25520915Y70530500D02*
X-25520915Y69679914D01*
D24*
X-30587626Y45217210D02*
X-28208932Y45217210D01*
X-31327093Y45956678D02*
X-30587626Y45217210D01*
X-33888012Y45813178D02*
X-33744512Y45956678D01*
D26*
X-22364863Y68060078D02*
X-21534785Y67230000D01*
X-19091433Y56410078D02*
X-19091433Y57653077D01*
D24*
G04 #@! TO.N,/SD-A0*
X-31931285Y63626678D02*
X-32291220Y63266743D01*
X-33187240Y56844045D02*
X-33368107Y56663178D01*
X-33187240Y57206930D02*
X-33187240Y56844045D01*
X-32799170Y65854563D02*
X-31931285Y64986678D01*
X-32291220Y63266743D02*
X-32291220Y62958256D01*
X-31918285Y62379678D02*
X-32403124Y61894839D01*
X-32403124Y60317491D02*
X-33187240Y59533375D01*
X-33187240Y59533375D02*
X-33187240Y57206930D01*
X-33813400Y65854563D02*
X-32799170Y65854563D01*
X-31918285Y62585321D02*
X-31918285Y62379678D01*
X-32403124Y61894839D02*
X-32403124Y60317491D01*
X-31931285Y64986678D02*
X-31931285Y63626678D01*
X-32291220Y62958256D02*
X-31918285Y62585321D01*
D26*
G04 #@! TO.N,/SD-A2*
X-35495050Y58444030D02*
X-35495050Y55890982D01*
X-34834285Y62255296D02*
X-34834285Y61290500D01*
X-34804785Y61261000D02*
X-34804785Y59134295D01*
X-34507785Y62581796D02*
X-34834285Y62255296D01*
D24*
X-34421285Y63936606D02*
X-34423601Y63934290D01*
X-34421285Y63946678D02*
X-34421285Y63936606D01*
D26*
X-35495050Y55890982D02*
X-35648966Y55737066D01*
X-34507785Y63687178D02*
X-34507785Y62581796D01*
D24*
X-34594285Y63773678D02*
X-34421285Y63946678D01*
D26*
X-34594285Y63773678D02*
X-34507785Y63687178D01*
X-34804785Y59134295D02*
X-35495050Y58444030D01*
X-34834285Y61290500D02*
X-34804785Y61261000D01*
G04 #@! TO.N,/SD-A1*
X-31927720Y63108823D02*
X-31691285Y62872388D01*
X-33240322Y56199678D02*
X-33730322Y56199678D01*
X-31691285Y62285652D02*
X-32176124Y61800813D01*
X-32970000Y59287963D02*
X-32970000Y56470000D01*
X-32970000Y56470000D02*
X-33240322Y56199678D01*
X-32176124Y61800813D02*
X-32176124Y60081839D01*
X-33730322Y56199678D02*
X-36240000Y53690000D01*
X-32176124Y60081839D02*
X-32970000Y59287963D01*
D24*
X-33208355Y50198259D02*
X-33521600Y50198259D01*
X-33590019Y50266678D02*
X-34848400Y50266678D01*
D26*
X-31691285Y62872388D02*
X-31691285Y62285652D01*
D24*
X-33521600Y50198259D02*
X-33590019Y50266678D01*
G04 #@! TO.N,/SD-CLK*
X-27945603Y47429383D02*
X-27594830Y47780156D01*
X-26488895Y46266678D02*
X-27198400Y46266678D01*
X-27581558Y46649836D02*
X-27732670Y46649836D01*
X-27732670Y46649836D02*
X-27945603Y46862769D01*
X-25615231Y57172871D02*
X-25615231Y55275231D01*
X-28901433Y61208445D02*
X-27888089Y60195101D01*
X-25283500Y47721988D02*
X-25283500Y47472073D01*
X-25283500Y47472073D02*
X-26488895Y46266678D01*
X-25615231Y55275231D02*
X-24800000Y54460000D01*
X-28901433Y61740078D02*
X-28901433Y61208445D01*
X-27888089Y60195101D02*
X-27888089Y59445729D01*
X-27888089Y59445729D02*
X-25615231Y57172871D01*
X-27945603Y46862769D02*
X-27945603Y47429383D01*
X-27198400Y46266678D02*
X-27581558Y46649836D01*
X-24800000Y48205488D02*
X-25283500Y47721988D01*
X-24800000Y54460000D02*
X-24800000Y48205488D01*
G04 #@! TO.N,/SD-A3*
X-34467285Y58307500D02*
X-35134281Y57640504D01*
D26*
X-34391429Y62055508D02*
X-34391429Y61066995D01*
X-33611660Y63286303D02*
X-34174249Y62723714D01*
X-34482087Y58322302D02*
X-34467285Y58307500D01*
X-34482087Y60976337D02*
X-34482087Y58322302D01*
X-34174249Y62723714D02*
X-34174250Y62272687D01*
D24*
X-35134281Y57640504D02*
X-35134281Y56032117D01*
D26*
X-34391429Y61066995D02*
X-34482087Y60976337D01*
X-33117342Y63286303D02*
X-33611660Y63286303D01*
X-34174250Y62272687D02*
X-34391429Y62055508D01*
D24*
G04 #@! TO.N,/SD-A4*
X-30698220Y55686498D02*
X-30698220Y53760926D01*
X-30698220Y53760926D02*
X-30783754Y53675392D01*
G04 #@! TO.N,/SD-NWE*
X-32387000Y58260963D02*
X-32387000Y55992182D01*
X-36758400Y50246678D02*
X-34608400Y48096678D01*
X-32953324Y55425858D02*
X-33788699Y55425858D01*
X-31383765Y59593471D02*
X-31383765Y59264198D01*
X-31531285Y60459727D02*
X-31531285Y59740991D01*
X-32387000Y55992182D02*
X-32953324Y55425858D01*
X-31383765Y59264198D02*
X-32387000Y58260963D01*
X-31813124Y61416678D02*
X-31449124Y61052678D01*
X-33788699Y55425858D02*
X-36758400Y52456157D01*
X-31449124Y61052678D02*
X-31449124Y60541888D01*
X-31449124Y60541888D02*
X-31531285Y60459727D01*
X-31531285Y59740991D02*
X-31383765Y59593471D01*
X-36758400Y52456157D02*
X-36758400Y50246678D01*
X-34608400Y48096678D02*
X-34298400Y48096678D01*
G04 #@! TO.N,/SD-A5*
X-34034785Y59780000D02*
X-34034785Y57359105D01*
D26*
X-34182087Y60479279D02*
X-34034785Y60331977D01*
X-34034785Y60331977D02*
X-34034785Y59780000D01*
D24*
X-34251900Y57141990D02*
X-34290212Y57103678D01*
D26*
X-34067285Y61723635D02*
X-34067285Y60966875D01*
X-33735510Y62055410D02*
X-34067285Y61723635D01*
D24*
X-34034785Y57359105D02*
X-34290212Y57103678D01*
D26*
X-34067285Y60966875D02*
X-34182087Y60852073D01*
X-34182087Y60852073D02*
X-34182087Y60479279D01*
D24*
G04 #@! TO.N,/SD-BA1*
X-30947900Y54867245D02*
X-30947900Y54025313D01*
X-32728400Y52244813D02*
X-32728400Y49506678D01*
D26*
X-20590000Y59781151D02*
X-20590000Y57290000D01*
D24*
X-31118400Y55037745D02*
X-30947900Y54867245D01*
D26*
X-22109669Y61113000D02*
X-21921849Y61113000D01*
X-20591900Y57290000D02*
X-20591900Y55570000D01*
X-27234785Y62920000D02*
X-25361355Y62920000D01*
X-27271285Y62883500D02*
X-27234785Y62920000D01*
D24*
X-30947900Y54025313D02*
X-32728400Y52244813D01*
D26*
X-21921849Y61113000D02*
X-20590000Y59781151D01*
D24*
X-32728400Y49506678D02*
X-32814851Y49420227D01*
X-30720000Y56510000D02*
X-31118400Y56111600D01*
D26*
X-24506726Y62065371D02*
X-23062040Y62065371D01*
X-23062040Y62065371D02*
X-22109669Y61113000D01*
X-25361355Y62920000D02*
X-24506726Y62065371D01*
D24*
X-32814851Y49420227D02*
X-33188697Y49420227D01*
X-31118400Y56111600D02*
X-31118400Y55037745D01*
D26*
X-27271285Y62636678D02*
X-27271285Y62883500D01*
D24*
G04 #@! TO.N,/SD-BA0*
X-24637000Y56275974D02*
X-24637000Y55445626D01*
X-29308400Y53426678D02*
X-31176317Y51558761D01*
X-24637000Y55445626D02*
X-24802548Y55280078D01*
X-31176317Y51558761D02*
X-31176317Y49622121D01*
X-24916376Y57153042D02*
X-24916376Y56555350D01*
X-26989833Y61068985D02*
X-26989833Y59226499D01*
X-26989833Y59226499D02*
X-24916376Y57153042D01*
X-24916376Y56555350D02*
X-24637000Y56275974D01*
X-27276490Y61355642D02*
X-26989833Y61068985D01*
D26*
G04 #@! TO.N,/SD-D1*
X-31288119Y41490000D02*
X-33258400Y43460281D01*
X-26308626Y41490000D02*
X-31288119Y41490000D01*
X-25271285Y60889930D02*
X-24454033Y60072678D01*
X-33258400Y43460281D02*
X-33258400Y44646678D01*
X-22483500Y58296605D02*
X-22483500Y45315126D01*
X-24259573Y60072678D02*
X-22483500Y58296605D01*
X-22483500Y45315126D02*
X-26308626Y41490000D01*
X-24454033Y60072678D02*
X-24259573Y60072678D01*
X-25271285Y61210067D02*
X-25271285Y60889930D01*
X-26004896Y61943678D02*
X-25271285Y61210067D01*
D24*
G04 #@! TO.N,/SD-A12*
X-26448400Y53775078D02*
X-26450000Y53776678D01*
D26*
X-24301674Y61664545D02*
X-24301674Y61509856D01*
D24*
X-21170000Y58997841D02*
X-23312837Y61140678D01*
X-20541900Y54460000D02*
X-21170000Y55088100D01*
D26*
X-24301674Y61509856D02*
X-23932496Y61140678D01*
D24*
X-21170000Y55088100D02*
X-21170000Y55280000D01*
X-26448400Y49216678D02*
X-26448400Y53775078D01*
X-23312837Y61140678D02*
X-23932496Y61140678D01*
X-21170000Y55221785D02*
X-21170000Y58997841D01*
G04 #@! TO.N,/SD-A11*
X-31011138Y57764895D02*
X-31011138Y56763892D01*
X-33268400Y53826678D02*
X-33428400Y53826678D01*
X-30714285Y60107504D02*
X-30714285Y59818268D01*
X-31345400Y55749678D02*
X-33268400Y53826678D01*
X-29961182Y49798498D02*
X-30230653Y49529027D01*
X-30785479Y58307465D02*
X-30785479Y57990555D01*
X-30827131Y60400921D02*
X-30827131Y60196171D01*
X-30802952Y60196171D02*
X-30714285Y60107504D01*
X-31011138Y56763892D02*
X-31345400Y56429630D01*
X-30711285Y59815268D02*
X-30711285Y59799470D01*
X-30929765Y59580990D02*
X-30929765Y58451751D01*
X-30714285Y59818268D02*
X-30711285Y59815268D01*
X-30785479Y57990555D02*
X-31011138Y57764895D01*
X-30524136Y60703916D02*
X-30827131Y60400921D01*
X-30711285Y59799470D02*
X-30929765Y59580990D01*
X-30929765Y58451751D02*
X-30785479Y58307465D01*
X-31345400Y56429630D02*
X-31345400Y55749678D01*
X-28790220Y49798498D02*
X-29961182Y49798498D01*
X-28358400Y49366678D02*
X-28790220Y49798498D01*
D26*
G04 #@! TO.N,/SD-NE1*
X-26508011Y62353500D02*
X-25818355Y62353500D01*
X-26658626Y40740000D02*
X-31411722Y40740000D01*
X-31411722Y40740000D02*
X-34860000Y44188278D01*
X-27952030Y61385554D02*
X-27637506Y61700078D01*
X-34860000Y44188278D02*
X-34860000Y45413031D01*
X-22283500Y45115126D02*
X-26658626Y40740000D01*
X-22283500Y58818645D02*
X-22283500Y45115126D01*
X-27637506Y61700078D02*
X-27161433Y61700078D01*
X-27161433Y61700078D02*
X-26508011Y62353500D01*
X-25818355Y62353500D02*
X-22283500Y58818645D01*
G04 #@! TO.N,/SD-D0*
X-23705399Y44413227D02*
X-23705399Y45737689D01*
X-24967286Y59872679D02*
X-25471285Y60376678D01*
X-25471285Y60916678D02*
X-25868008Y61313401D01*
X-22815900Y55695297D02*
X-22815900Y57981293D01*
X-23957758Y59123151D02*
X-23957758Y59488021D01*
X-23957758Y59488021D02*
X-24342415Y59872678D01*
X-22738548Y55617945D02*
X-22815900Y55695297D01*
X-26058626Y42060000D02*
X-23705399Y44413227D01*
X-23705399Y45737689D02*
X-22738548Y46704540D01*
X-25868008Y61313401D02*
X-26613634Y61313401D01*
X-22961285Y58126678D02*
X-23957758Y59123151D01*
X-22738548Y46704540D02*
X-22738548Y55617945D01*
X-31221722Y42060000D02*
X-26058626Y42060000D01*
X-25471285Y60376678D02*
X-25471285Y60916678D01*
X-32778400Y43616678D02*
X-31221722Y42060000D01*
X-22815900Y57981293D02*
X-22961285Y58126678D01*
X-24342415Y59872678D02*
X-24967286Y59872679D01*
D24*
G04 #@! TO.N,/SD-A7*
X-28788400Y50621285D02*
X-28350250Y50183135D01*
X-29103327Y57149746D02*
X-27955285Y56001704D01*
X-29187785Y58078230D02*
X-29103327Y57993772D01*
X-27955285Y56001704D02*
X-27955285Y54937630D01*
X-30682023Y61067416D02*
X-30373569Y61067416D01*
X-29725911Y59752985D02*
X-29187785Y59214859D01*
X-28455694Y52579384D02*
X-28788400Y52246678D01*
X-28788400Y52246678D02*
X-28788400Y50621285D01*
X-29187785Y59214859D02*
X-29187785Y58078230D01*
X-30373569Y61067416D02*
X-30160636Y60854483D01*
X-31450124Y61835517D02*
X-30682023Y61067416D01*
X-29857592Y59752985D02*
X-29725911Y59752985D01*
X-27774900Y54757245D02*
X-27774900Y54213178D01*
X-29103327Y57993772D02*
X-29103327Y57149746D01*
X-30160636Y60854483D02*
X-30160636Y60056029D01*
X-30160636Y60056029D02*
X-29857592Y59752985D01*
X-27955285Y54937630D02*
X-27774900Y54757245D01*
X-27774900Y54213178D02*
X-27583400Y54021678D01*
X-31450124Y61836678D02*
X-31450124Y61835517D01*
G04 #@! TO.N,/SD-A10*
X-32026400Y56031756D02*
X-32859298Y55198858D01*
X-31156765Y60057524D02*
X-31156765Y58982212D01*
X-32026400Y56873736D02*
X-32026400Y56031756D01*
X-31156765Y58982212D02*
X-32160000Y57978977D01*
X-32160000Y57978977D02*
X-32160000Y57007336D01*
X-33694673Y55198858D02*
X-35378400Y53515131D01*
X-32859298Y55198858D02*
X-33694673Y55198858D01*
X-32160000Y57007336D02*
X-32026400Y56873736D01*
X-35378400Y53515131D02*
X-35378400Y53276678D01*
G04 #@! TO.N,/SD-D10*
X-25174785Y59429152D02*
X-25174784Y59349151D01*
X-23496899Y47154753D02*
X-24215007Y46436645D01*
X-26626333Y60706201D02*
X-26626333Y60516678D01*
X-23721285Y57895652D02*
X-23496899Y57671266D01*
X-26626333Y60516678D02*
X-26329880Y60516678D01*
X-26059310Y60313677D02*
X-25174785Y59429152D01*
X-23496899Y57671266D02*
X-23496899Y47154753D01*
X-26329880Y60516678D02*
X-26126879Y60313677D01*
X-25174784Y59349151D02*
X-23721285Y57895652D01*
X-26126879Y60313677D02*
X-26059310Y60313677D01*
G04 #@! TO.N,/SD-D15*
X-22952048Y55529510D02*
X-23042900Y55620362D01*
X-23042900Y55620362D02*
X-23042900Y57887267D01*
X-24890461Y43548165D02*
X-23932399Y44506227D01*
X-23188285Y58032652D02*
X-24447659Y59292026D01*
X-23932399Y44506227D02*
X-23932399Y45831715D01*
X-23932399Y45831715D02*
X-22952048Y46812066D01*
X-26081900Y43120000D02*
X-25653735Y43548165D01*
X-24447659Y59292026D02*
X-24447659Y59464562D01*
X-25653735Y43548165D02*
X-24890461Y43548165D01*
X-22952048Y46812066D02*
X-22952048Y55529510D01*
X-23042900Y57887267D02*
X-23188285Y58032652D01*
G04 #@! TO.N,/SD-A6*
X-32671285Y57656079D02*
X-32671285Y58518884D01*
X-32680999Y56211543D02*
X-32680999Y57646365D01*
X-32671285Y58518884D02*
X-31747265Y59442904D01*
X-33077132Y55815410D02*
X-32680999Y56211543D01*
X-32680999Y57646365D02*
X-32671285Y57656079D01*
G04 #@! TO.N,/SD-A9*
X-32807746Y54608358D02*
X-33000080Y54608358D01*
X-31148979Y58141122D02*
X-31300000Y57990101D01*
X-31300000Y56796056D02*
X-31572400Y56523656D01*
X-31300000Y57990101D02*
X-31300000Y56796056D01*
X-31572400Y56523656D02*
X-31572400Y55843704D01*
X-31572400Y55843704D02*
X-32807746Y54608358D01*
G04 #@! TO.N,/SD-D5*
X-30268400Y55276678D02*
X-29876057Y54884335D01*
X-29414785Y57984204D02*
X-29330327Y57899746D01*
X-32238400Y48492309D02*
X-32798400Y47932309D01*
X-29876057Y53519021D02*
X-32238400Y51156678D01*
X-29876478Y59237726D02*
X-29414785Y58776033D01*
X-32238400Y51156678D02*
X-32238400Y48492309D01*
X-33238400Y46276678D02*
X-34080000Y46276678D01*
X-29330327Y57899746D02*
X-29330327Y57055720D01*
X-32798400Y47932309D02*
X-32798400Y46716678D01*
X-29330327Y57055720D02*
X-28418785Y56144178D01*
X-32798400Y46716678D02*
X-33238400Y46276678D01*
X-29876057Y54884335D02*
X-29876057Y53519021D01*
X-28418785Y56144178D02*
X-28418785Y55419721D01*
X-29414785Y58776033D02*
X-29414785Y57984204D01*
X-29876478Y59389485D02*
X-29876478Y59237726D01*
G04 #@! TO.N,/SD-D6*
X-31188060Y49172111D02*
X-31978899Y48381272D01*
X-31978899Y48381272D02*
X-31978900Y47429425D01*
X-31978900Y47429425D02*
X-32388186Y47020139D01*
X-29458400Y50826678D02*
X-31112967Y49172111D01*
X-28921285Y59467704D02*
X-28921285Y59003585D01*
X-28960785Y58172256D02*
X-28864285Y58075756D01*
X-27728285Y55116604D02*
X-27411400Y54799719D01*
X-28864285Y58075756D02*
X-28864285Y57231730D01*
X-31112967Y49172111D02*
X-31188060Y49172111D01*
X-29211775Y59758194D02*
X-28921285Y59467704D01*
X-29458400Y52416678D02*
X-29458400Y50826678D01*
X-27411400Y54799719D02*
X-27411400Y54606678D01*
X-28898400Y52976678D02*
X-29458400Y52416678D01*
X-28921285Y59003585D02*
X-28960785Y58964085D01*
X-29211775Y60041642D02*
X-29211775Y59758194D01*
X-28864285Y57231730D02*
X-27728285Y56095730D01*
X-28960785Y58964085D02*
X-28960785Y58172256D01*
X-27728285Y56095730D02*
X-27728285Y55116604D01*
G04 #@! TO.N,/SD-D8*
X-27979089Y57629089D02*
X-26593901Y56243901D01*
X-27979089Y57814645D02*
X-27979089Y57629089D01*
X-25977516Y53825794D02*
X-25977516Y49900000D01*
X-26593901Y56243901D02*
X-26593901Y54442179D01*
X-26593901Y54442179D02*
X-25977516Y53825794D01*
G04 #@! TO.N,/SD-D11*
X-24947785Y59523178D02*
X-24947785Y59443178D01*
X-25976312Y60551705D02*
X-24947785Y59523178D01*
X-23269899Y46815241D02*
X-24351171Y45733969D01*
X-26308376Y45951745D02*
X-26393443Y45866678D01*
X-24947785Y59443178D02*
X-23471285Y57966678D01*
X-26393443Y45866678D02*
X-27318400Y45866678D01*
X-25976312Y60677177D02*
X-25976312Y60551705D01*
X-23269899Y57765292D02*
X-23269899Y46815241D01*
X-23471285Y57966678D02*
X-23269899Y57765292D01*
X-24351171Y45733969D02*
X-24351900Y45733969D01*
X-27318400Y45866678D02*
X-27608400Y46156678D01*
G04 #@! TO.N,/SD-D14*
X-26660626Y45012264D02*
X-26781720Y45133358D01*
X-24815400Y45567680D02*
X-25370816Y45012264D01*
X-23723900Y57577241D02*
X-23723900Y47441819D01*
X-23723900Y47441819D02*
X-24815400Y46350319D01*
X-25370816Y45012264D02*
X-26660626Y45012264D01*
X-24815400Y46350319D02*
X-24815400Y45567680D01*
X-24868478Y58529485D02*
X-24676144Y58529485D01*
X-24676144Y58529485D02*
X-23723900Y57577241D01*
G04 #@! TO.N,/SD-D13*
X-25990780Y59137720D02*
X-25990780Y59391700D01*
X-25403936Y46105038D02*
X-23950899Y47558075D01*
X-25397293Y45307294D02*
X-25397293Y46089452D01*
X-23950899Y57483214D02*
X-24633670Y58165985D01*
X-24633670Y58165985D02*
X-25019045Y58165985D01*
X-26324027Y45496858D02*
X-26066433Y45239264D01*
X-25019045Y58165985D02*
X-25990780Y59137720D01*
X-26066433Y45239264D02*
X-25465324Y45239263D01*
X-25403936Y46075087D02*
X-25403936Y46105038D01*
X-27582340Y45414110D02*
X-27499592Y45496858D01*
X-23950899Y47558075D02*
X-23950899Y57483214D01*
X-25465324Y45239263D02*
X-25397293Y45307294D01*
X-27499592Y45496858D02*
X-26324027Y45496858D01*
G04 #@! TO.N,/SD-NRAS*
X-31799400Y57230424D02*
X-31763500Y57266324D01*
X-36398400Y51716678D02*
X-34778400Y53336678D01*
X-34778400Y53336678D02*
X-34778400Y53794105D01*
X-33051530Y48514272D02*
X-34605994Y48514272D01*
X-31799400Y55937730D02*
X-31799400Y57230424D01*
X-34605994Y48514272D02*
X-36398400Y50306678D01*
X-32765272Y54971858D02*
X-31799400Y55937730D01*
X-36398400Y50306678D02*
X-36398400Y51716678D01*
X-33600647Y54971858D02*
X-32765272Y54971858D01*
X-34778400Y53794105D02*
X-33600647Y54971858D01*
G04 #@! TO.N,/SD-A8*
X-27520000Y53042345D02*
X-27520000Y50171416D01*
X-29377545Y54556927D02*
X-29034582Y54556927D01*
X-29034582Y54556927D02*
X-27520000Y53042345D01*
X-27520000Y50171416D02*
X-27478703Y50130119D01*
X-29649057Y56329057D02*
X-29649057Y54828439D01*
X-30241285Y56921285D02*
X-29649057Y56329057D01*
X-30241285Y57072058D02*
X-30241285Y56921285D01*
X-30648138Y57478911D02*
X-30241285Y57072058D01*
X-29649057Y54828439D02*
X-29377545Y54556927D01*
G04 #@! TO.N,/SD-D4*
X-32423854Y45373178D02*
X-34298968Y45373178D01*
X-30141785Y57876111D02*
X-29784327Y57518653D01*
X-29784327Y56867668D02*
X-29358400Y56441741D01*
X-32382888Y45414144D02*
X-32423854Y45373178D01*
X-31998400Y54716678D02*
X-35868400Y50846678D01*
X-29358400Y55193270D02*
X-29185557Y55020427D01*
X-35868404Y46942614D02*
X-35868404Y47678278D01*
X-31311400Y54716678D02*
X-31998400Y54716678D01*
X-30141285Y58546678D02*
X-30141785Y58546178D01*
X-30141785Y58546178D02*
X-30141785Y57876111D01*
X-29358400Y56441741D02*
X-29358400Y55193270D01*
X-29784327Y57518653D02*
X-29784327Y56867668D01*
X-34298968Y45373178D02*
X-35868404Y46942614D01*
X-35868400Y50846678D02*
X-35868400Y50576678D01*
G04 #@! TO.N,/SD-D7*
X-29557327Y57805720D02*
X-29557327Y56961694D01*
X-29557327Y56961694D02*
X-28882285Y56286652D01*
X-28540360Y54885808D02*
X-28334167Y54885808D01*
X-32498400Y49136678D02*
X-32688030Y48947048D01*
X-29778285Y58026678D02*
X-29557327Y57805720D01*
X-33557550Y47494185D02*
X-34097628Y47494185D01*
X-28882285Y55227733D02*
X-28540360Y54885808D01*
X-28882285Y56286652D02*
X-28882285Y55227733D01*
X-32498400Y51217704D02*
X-32498400Y49136678D01*
X-32688030Y48947048D02*
X-32688030Y48363705D01*
X-30298925Y54353678D02*
X-30238400Y54293153D01*
X-30238400Y54293153D02*
X-30238400Y53477704D01*
X-32688030Y48363705D02*
X-33557550Y47494185D01*
X-30238400Y53477704D02*
X-32498400Y51217704D01*
G04 #@! TO.N,/SD-D9*
X-26138400Y56668613D02*
X-26138400Y54756678D01*
X-25340000Y53958278D02*
X-25340000Y49255439D01*
X-26138400Y54756678D02*
X-25340000Y53958278D01*
X-25340000Y49255439D02*
X-27582103Y47013336D01*
X-26614605Y57144818D02*
X-26138400Y56668613D01*
G04 #@! TO.N,/SD-D12*
X-25898400Y56941973D02*
X-25898400Y54986678D01*
X-25898400Y54986678D02*
X-25106014Y54194292D01*
X-25106014Y48220500D02*
X-26634307Y46692207D01*
X-25106014Y54194292D02*
X-25106014Y48220500D01*
X-26636535Y57680108D02*
X-25898400Y56941973D01*
X-26634307Y46692207D02*
X-26634307Y46635333D01*
G04 #@! TO.N,Net-(U14A--)*
X-13206648Y58690078D02*
X-14456648Y58690078D01*
X-14456648Y58690078D02*
X-14526648Y58760078D01*
G04 #@! TO.N,/D2*
X-53306648Y5470078D02*
X-53306648Y7170078D01*
X-22411285Y63876678D02*
X-21024607Y62490000D01*
X-17559500Y61596078D02*
X-17893500Y61930078D01*
X-29248774Y33320078D02*
X-28101433Y33320078D01*
X-23666310Y63876678D02*
X-22411285Y63876678D01*
X-18290000Y53387117D02*
X-17559500Y54117617D01*
X-34486085Y27455426D02*
X-30481433Y31460078D01*
X-28101433Y33320078D02*
X-22661433Y38760078D01*
X-35147262Y26448300D02*
X-34486085Y27109477D01*
X-17559500Y54117617D02*
X-17559500Y61596078D01*
X-41135730Y13496578D02*
X-41135730Y20805781D01*
X-30481433Y32087419D02*
X-29248774Y33320078D01*
X-35493211Y26448300D02*
X-35147262Y26448300D01*
X-18290000Y41573578D02*
X-18290000Y53387117D01*
X-24349965Y64367999D02*
X-24157631Y64367999D01*
X-21103500Y38760078D02*
X-18290000Y41573578D01*
X-41135730Y20805781D02*
X-35493211Y26448300D01*
X-30481433Y31460078D02*
X-30481433Y32087419D01*
X-21024607Y62490000D02*
X-19884785Y62490000D01*
X-24157631Y64367999D02*
X-23666310Y63876678D01*
X-22661433Y38760078D02*
X-21103500Y38760078D01*
X-34486085Y27109477D02*
X-34486085Y27455426D01*
G04 #@! TD*
M02*
