G04 #@! TF.GenerationSoftware,KiCad,Pcbnew,8.0.5*
G04 #@! TF.CreationDate,2024-10-08T11:29:37-07:00*
G04 #@! TF.ProjectId,Sampler-built,53616d70-6c65-4722-9d62-75696c742e6b,rev?*
G04 #@! TF.SameCoordinates,PX815dad0PY77b6f90*
G04 #@! TF.FileFunction,Copper,L1,Top*
G04 #@! TF.FilePolarity,Positive*
%FSLAX46Y46*%
G04 Gerber Fmt 4.6, Leading zero omitted, Abs format (unit mm)*
G04 Created by KiCad (PCBNEW 8.0.5) date 2024-10-08 11:29:37*
%MOMM*%
%LPD*%
G01*
G04 APERTURE LIST*
G04 Aperture macros list*
%AMRoundRect*
0 Rectangle with rounded corners*
0 $1 Rounding radius*
0 $2 $3 $4 $5 $6 $7 $8 $9 X,Y pos of 4 corners*
0 Add a 4 corners polygon primitive as box body*
4,1,4,$2,$3,$4,$5,$6,$7,$8,$9,$2,$3,0*
0 Add four circle primitives for the rounded corners*
1,1,$1+$1,$2,$3*
1,1,$1+$1,$4,$5*
1,1,$1+$1,$6,$7*
1,1,$1+$1,$8,$9*
0 Add four rect primitives between the rounded corners*
20,1,$1+$1,$2,$3,$4,$5,0*
20,1,$1+$1,$4,$5,$6,$7,0*
20,1,$1+$1,$6,$7,$8,$9,0*
20,1,$1+$1,$8,$9,$2,$3,0*%
G04 Aperture macros list end*
G04 #@! TA.AperFunction,EtchedComponent*
%ADD10C,0.000000*%
G04 #@! TD*
G04 #@! TA.AperFunction,SMDPad,CuDef*
%ADD11R,0.900000X1.200000*%
G04 #@! TD*
G04 #@! TA.AperFunction,SMDPad,CuDef*
%ADD12RoundRect,0.147500X0.147500X0.172500X-0.147500X0.172500X-0.147500X-0.172500X0.147500X-0.172500X0*%
G04 #@! TD*
G04 #@! TA.AperFunction,SMDPad,CuDef*
%ADD13R,1.000000X1.000000*%
G04 #@! TD*
G04 #@! TA.AperFunction,SMDPad,CuDef*
%ADD14RoundRect,0.147500X0.172500X-0.147500X0.172500X0.147500X-0.172500X0.147500X-0.172500X-0.147500X0*%
G04 #@! TD*
G04 #@! TA.AperFunction,SMDPad,CuDef*
%ADD15R,0.700000X1.300000*%
G04 #@! TD*
G04 #@! TA.AperFunction,SMDPad,CuDef*
%ADD16R,0.800100X0.800100*%
G04 #@! TD*
G04 #@! TA.AperFunction,SMDPad,CuDef*
%ADD17R,1.450000X0.450000*%
G04 #@! TD*
G04 #@! TA.AperFunction,SMDPad,CuDef*
%ADD18RoundRect,0.147500X-0.172500X0.147500X-0.172500X-0.147500X0.172500X-0.147500X0.172500X0.147500X0*%
G04 #@! TD*
G04 #@! TA.AperFunction,SMDPad,CuDef*
%ADD19C,0.500000*%
G04 #@! TD*
G04 #@! TA.AperFunction,SMDPad,CuDef*
%ADD20RoundRect,0.147500X-0.147500X-0.172500X0.147500X-0.172500X0.147500X0.172500X-0.147500X0.172500X0*%
G04 #@! TD*
G04 #@! TA.AperFunction,SMDPad,CuDef*
%ADD21R,1.600000X3.000000*%
G04 #@! TD*
G04 #@! TA.AperFunction,SMDPad,CuDef*
%ADD22R,0.500000X0.439200*%
G04 #@! TD*
G04 #@! TA.AperFunction,SMDPad,CuDef*
%ADD23R,1.700000X0.900000*%
G04 #@! TD*
G04 #@! TA.AperFunction,ComponentPad*
%ADD24C,1.700000*%
G04 #@! TD*
G04 #@! TA.AperFunction,ComponentPad*
%ADD25O,1.700000X1.700000*%
G04 #@! TD*
G04 #@! TA.AperFunction,SMDPad,CuDef*
%ADD26R,1.150000X1.400000*%
G04 #@! TD*
G04 #@! TA.AperFunction,ComponentPad*
%ADD27R,1.700000X1.700000*%
G04 #@! TD*
G04 #@! TA.AperFunction,SMDPad,CuDef*
%ADD28R,1.220000X0.650000*%
G04 #@! TD*
G04 #@! TA.AperFunction,SMDPad,CuDef*
%ADD29C,0.300000*%
G04 #@! TD*
G04 #@! TA.AperFunction,SMDPad,CuDef*
%ADD30R,0.450000X1.450000*%
G04 #@! TD*
G04 #@! TA.AperFunction,SMDPad,CuDef*
%ADD31R,3.000000X1.600000*%
G04 #@! TD*
G04 #@! TA.AperFunction,SMDPad,CuDef*
%ADD32R,1.200000X3.700000*%
G04 #@! TD*
G04 #@! TA.AperFunction,SMDPad,CuDef*
%ADD33R,0.900000X1.700000*%
G04 #@! TD*
G04 #@! TA.AperFunction,SMDPad,CuDef*
%ADD34R,0.439200X0.500000*%
G04 #@! TD*
G04 #@! TA.AperFunction,SMDPad,CuDef*
%ADD35RoundRect,0.100000X-0.100000X0.637500X-0.100000X-0.637500X0.100000X-0.637500X0.100000X0.637500X0*%
G04 #@! TD*
G04 #@! TA.AperFunction,ComponentPad*
%ADD36C,1.930400*%
G04 #@! TD*
G04 #@! TA.AperFunction,ComponentPad*
%ADD37C,1.600000*%
G04 #@! TD*
G04 #@! TA.AperFunction,ComponentPad*
%ADD38C,1.300000*%
G04 #@! TD*
G04 #@! TA.AperFunction,ComponentPad*
%ADD39O,1.397000X1.092200*%
G04 #@! TD*
G04 #@! TA.AperFunction,ComponentPad*
%ADD40O,1.524000X1.524000*%
G04 #@! TD*
G04 #@! TA.AperFunction,ComponentPad*
%ADD41C,2.286000*%
G04 #@! TD*
G04 #@! TA.AperFunction,ViaPad*
%ADD42C,0.400000*%
G04 #@! TD*
G04 #@! TA.AperFunction,Conductor*
%ADD43C,0.203200*%
G04 #@! TD*
G04 #@! TA.AperFunction,Conductor*
%ADD44C,0.127000*%
G04 #@! TD*
G04 #@! TA.AperFunction,Conductor*
%ADD45C,0.100000*%
G04 #@! TD*
G04 #@! TA.AperFunction,Conductor*
%ADD46C,0.200000*%
G04 #@! TD*
G04 #@! TA.AperFunction,Conductor*
%ADD47C,0.250000*%
G04 #@! TD*
G04 APERTURE END LIST*
D10*
G04 #@! TA.AperFunction,EtchedComponent*
G04 #@! TO.C,NT2*
G36*
X9640000Y65690000D02*
G01*
X9140000Y65690000D01*
X9140000Y66690000D01*
X9640000Y66690000D01*
X9640000Y65690000D01*
G37*
G04 #@! TD.AperFunction*
G04 #@! TA.AperFunction,EtchedComponent*
G04 #@! TO.C,JP2*
G36*
X8103200Y54405800D02*
G01*
X7696800Y54405800D01*
X7696800Y54304200D01*
X8103200Y54304200D01*
X8103200Y54405800D01*
G37*
G04 #@! TD.AperFunction*
G04 #@! TA.AperFunction,EtchedComponent*
G04 #@! TO.C,JP11*
G36*
X5078200Y72330800D02*
G01*
X4671800Y72330800D01*
X4671800Y72229200D01*
X5078200Y72229200D01*
X5078200Y72330800D01*
G37*
G04 #@! TD.AperFunction*
G04 #@! TA.AperFunction,EtchedComponent*
G04 #@! TO.C,NT1*
G36*
X58170000Y26040000D02*
G01*
X57670000Y26040000D01*
X57670000Y27040000D01*
X58170000Y27040000D01*
X58170000Y26040000D01*
G37*
G04 #@! TD.AperFunction*
G04 #@! TA.AperFunction,EtchedComponent*
G04 #@! TO.C,JP3*
G36*
X8805400Y70801800D02*
G01*
X8703800Y70801800D01*
X8703800Y71208200D01*
X8805400Y71208200D01*
X8805400Y70801800D01*
G37*
G04 #@! TD.AperFunction*
G04 #@! TA.AperFunction,EtchedComponent*
G04 #@! TO.C,JP4*
G36*
X57700800Y30451800D02*
G01*
X57599200Y30451800D01*
X57599200Y30858200D01*
X57700800Y30858200D01*
X57700800Y30451800D01*
G37*
G04 #@! TD.AperFunction*
G04 #@! TD*
D11*
G04 #@! TO.P,D16,1,K*
G04 #@! TO.N,Net-(D16-K)*
X17750000Y26530000D03*
G04 #@! TO.P,D16,2,A*
G04 #@! TO.N,Net-(D16-A)*
X14450000Y26530000D03*
G04 #@! TD*
D12*
G04 #@! TO.P,C61,1*
G04 #@! TO.N,+12V*
X15041648Y86264922D03*
G04 #@! TO.P,C61,2*
G04 #@! TO.N,GND*
X14071648Y86264922D03*
G04 #@! TD*
D13*
G04 #@! TO.P,R3,1*
G04 #@! TO.N,/D0*
X47256648Y95699922D03*
G04 #@! TO.P,R3,2*
G04 #@! TO.N,Net-(Bank_But1-G)*
X47256648Y97399922D03*
G04 #@! TD*
D14*
G04 #@! TO.P,C1,1*
G04 #@! TO.N,+3V3*
X28360148Y69951600D03*
G04 #@! TO.P,C1,2*
G04 #@! TO.N,GND*
X28360148Y70921600D03*
G04 #@! TD*
D13*
G04 #@! TO.P,R57,1*
G04 #@! TO.N,Net-(U15B-+)*
X47896648Y39809922D03*
G04 #@! TO.P,R57,2*
G04 #@! TO.N,VREF+*
X46196648Y39809922D03*
G04 #@! TD*
D15*
G04 #@! TO.P,C44,1*
G04 #@! TO.N,/VCOM*
X47826648Y25799922D03*
G04 #@! TO.P,C44,2*
G04 #@! TO.N,GNDA*
X49726648Y25799922D03*
G04 #@! TD*
D13*
G04 #@! TO.P,R59,1*
G04 #@! TO.N,Net-(J12-SIG)*
X10266648Y24399922D03*
G04 #@! TO.P,R59,2*
G04 #@! TO.N,/D13*
X10266648Y22699922D03*
G04 #@! TD*
D16*
G04 #@! TO.P,Q11,1,G*
G04 #@! TO.N,Net-(Q11-G)*
X15850000Y32430000D03*
G04 #@! TO.P,Q11,2,S*
G04 #@! TO.N,Net-(D16-K)*
X15850000Y30530000D03*
G04 #@! TO.P,Q11,3,D*
G04 #@! TO.N,+12V*
X17848980Y31480000D03*
G04 #@! TD*
D13*
G04 #@! TO.P,R61,1*
G04 #@! TO.N,GND*
X31891648Y9019922D03*
G04 #@! TO.P,R61,2*
G04 #@! TO.N,Net-(U16B--)*
X31891648Y10719922D03*
G04 #@! TD*
D17*
G04 #@! TO.P,U15,1*
G04 #@! TO.N,Net-(U15A--)*
X45146648Y43524922D03*
G04 #@! TO.P,U15,2,-*
X45146648Y42874922D03*
G04 #@! TO.P,U15,3,+*
G04 #@! TO.N,Net-(U15A-+)*
X45146648Y42224922D03*
G04 #@! TO.P,U15,4,V-*
G04 #@! TO.N,-12VA*
X45146648Y41574922D03*
G04 #@! TO.P,U15,5,+*
G04 #@! TO.N,Net-(U15B-+)*
X51046648Y41574922D03*
G04 #@! TO.P,U15,6,-*
G04 #@! TO.N,Net-(U15B--)*
X51046648Y42224922D03*
G04 #@! TO.P,U15,7*
G04 #@! TO.N,Net-(C46-Pad1)*
X51046648Y42874922D03*
G04 #@! TO.P,U15,8,V+*
G04 #@! TO.N,+12V*
X51046648Y43524922D03*
G04 #@! TD*
D13*
G04 #@! TO.P,C45,1*
G04 #@! TO.N,/VCOM*
X48226648Y24059922D03*
G04 #@! TO.P,C45,2*
G04 #@! TO.N,GNDA*
X49926648Y24059922D03*
G04 #@! TD*
D18*
G04 #@! TO.P,R42,1*
G04 #@! TO.N,Net-(C57-Pad1)*
X56326648Y17614672D03*
G04 #@! TO.P,R42,2*
G04 #@! TO.N,Net-(U8B--)*
X56326648Y16644672D03*
G04 #@! TD*
D13*
G04 #@! TO.P,C25,1*
G04 #@! TO.N,Net-(D16-K)*
X17700000Y28530000D03*
G04 #@! TO.P,C25,2*
G04 #@! TO.N,GND*
X16000000Y28530000D03*
G04 #@! TD*
G04 #@! TO.P,C47,1*
G04 #@! TO.N,/D6*
X43876648Y102439922D03*
G04 #@! TO.P,C47,2*
G04 #@! TO.N,GND*
X43876648Y100739922D03*
G04 #@! TD*
D12*
G04 #@! TO.P,R161,1*
G04 #@! TO.N,Net-(C149-Pad1)*
X47406648Y4719922D03*
G04 #@! TO.P,R161,2*
G04 #@! TO.N,Net-(C153-Pad1)*
X46436648Y4719922D03*
G04 #@! TD*
D13*
G04 #@! TO.P,C79,1*
G04 #@! TO.N,Net-(POT_SAMP1-Center)*
X9236648Y80754922D03*
G04 #@! TO.P,C79,2*
G04 #@! TO.N,GNDADC*
X10936648Y80754922D03*
G04 #@! TD*
G04 #@! TO.P,C55,1*
G04 #@! TO.N,Net-(JP11-B)*
X4770000Y70820000D03*
G04 #@! TO.P,C55,2*
G04 #@! TO.N,GND*
X6470000Y70820000D03*
G04 #@! TD*
D19*
G04 #@! TO.P,NT2,1,1*
G04 #@! TO.N,GNDADC*
X9390000Y66690000D03*
G04 #@! TO.P,NT2,2,2*
G04 #@! TO.N,GND*
X9390000Y65690000D03*
G04 #@! TD*
D18*
G04 #@! TO.P,C36,1*
G04 #@! TO.N,+3V3*
X22640148Y62391600D03*
G04 #@! TO.P,C36,2*
G04 #@! TO.N,GND*
X22640148Y61421600D03*
G04 #@! TD*
D13*
G04 #@! TO.P,C65,1*
G04 #@! TO.N,Net-(POT_START1-Center)*
X52706648Y64874482D03*
G04 #@! TO.P,C65,2*
G04 #@! TO.N,GNDADC*
X51006648Y64874482D03*
G04 #@! TD*
G04 #@! TO.P,R71,1*
G04 #@! TO.N,/D8*
X22666648Y97119922D03*
G04 #@! TO.P,R71,2*
G04 #@! TO.N,Net-(PLAY_BUT1-R)*
X24366648Y97119922D03*
G04 #@! TD*
D20*
G04 #@! TO.P,R52,1*
G04 #@! TO.N,Net-(U11A-+)*
X37236088Y29146436D03*
G04 #@! TO.P,R52,2*
G04 #@! TO.N,Net-(J14-SIG)*
X38206088Y29146436D03*
G04 #@! TD*
G04 #@! TO.P,C88,1*
G04 #@! TO.N,-12VA*
X46805000Y52690000D03*
G04 #@! TO.P,C88,2*
G04 #@! TO.N,GND*
X47775000Y52690000D03*
G04 #@! TD*
D21*
G04 #@! TO.P,C24,1*
G04 #@! TO.N,GND*
X20070000Y6500000D03*
G04 #@! TO.P,C24,2*
G04 #@! TO.N,-12VA*
X20070000Y2100000D03*
G04 #@! TD*
D13*
G04 #@! TO.P,R74,1*
G04 #@! TO.N,Net-(PLAY_BUT1-POLE-A)*
X24556648Y105239922D03*
G04 #@! TO.P,R74,2*
G04 #@! TO.N,/D12*
X22856648Y105239922D03*
G04 #@! TD*
D12*
G04 #@! TO.P,R55,1*
G04 #@! TO.N,/LIN*
X55611648Y18729672D03*
G04 #@! TO.P,R55,2*
G04 #@! TO.N,Net-(C57-Pad1)*
X54641648Y18729672D03*
G04 #@! TD*
D22*
G04 #@! TO.P,JP2,1,A*
G04 #@! TO.N,+12V*
X7900000Y54625400D03*
G04 #@! TO.P,JP2,2,B*
G04 #@! TO.N,Net-(JP2-B)*
X7900000Y54084600D03*
G04 #@! TD*
D18*
G04 #@! TO.P,R49,1*
G04 #@! TO.N,Net-(U8A-+)*
X45551648Y16914672D03*
G04 #@! TO.P,R49,2*
G04 #@! TO.N,GND*
X45551648Y15944672D03*
G04 #@! TD*
D20*
G04 #@! TO.P,R41,1*
G04 #@! TO.N,Net-(U1A--)*
X54465000Y59584482D03*
G04 #@! TO.P,R41,2*
G04 #@! TO.N,/A3*
X55435000Y59584482D03*
G04 #@! TD*
D23*
G04 #@! TO.P,C67,1*
G04 #@! TO.N,Net-(JP2-B)*
X9456493Y53509922D03*
G04 #@! TO.P,C67,2*
G04 #@! TO.N,GND*
X9456493Y56409922D03*
G04 #@! TD*
D24*
G04 #@! TO.P,J4,1,Pin_1*
G04 #@! TO.N,/UART_TX*
X27646648Y91469922D03*
G04 #@! TO.P,J4,2,Pin_2*
G04 #@! TO.N,GND*
X27646648Y94009922D03*
D25*
G04 #@! TO.P,J4,3,Pin_3*
G04 #@! TO.N,/UART_RX*
X30186648Y91469922D03*
G04 #@! TO.P,J4,4,Pin_4*
G04 #@! TO.N,GND*
X30186648Y94009922D03*
G04 #@! TO.P,J4,5,Pin_5*
G04 #@! TO.N,/DEBUG2*
X32726648Y91469922D03*
G04 #@! TO.P,J4,6,Pin_6*
G04 #@! TO.N,GND*
X32726648Y94009922D03*
D24*
G04 #@! TO.P,J4,7,Pin_7*
G04 #@! TO.N,/DEBUG3*
X35266648Y91469922D03*
G04 #@! TO.P,J4,8,Pin_8*
G04 #@! TO.N,GND*
X35266648Y94009922D03*
G04 #@! TD*
D20*
G04 #@! TO.P,C13,1*
G04 #@! TO.N,+3V3*
X36205148Y59586600D03*
G04 #@! TO.P,C13,2*
G04 #@! TO.N,GND*
X37175148Y59586600D03*
G04 #@! TD*
D12*
G04 #@! TO.P,R12,1*
G04 #@! TO.N,Net-(U1B--)*
X46381648Y61919922D03*
G04 #@! TO.P,R12,2*
G04 #@! TO.N,/A1*
X45411648Y61919922D03*
G04 #@! TD*
D18*
G04 #@! TO.P,R40,1*
G04 #@! TO.N,Net-(POT_START1-Center)*
X55486648Y63729482D03*
G04 #@! TO.P,R40,2*
G04 #@! TO.N,Net-(U1A-+)*
X55486648Y62759482D03*
G04 #@! TD*
D13*
G04 #@! TO.P,R21,1*
G04 #@! TO.N,GND*
X34096648Y34609922D03*
G04 #@! TO.P,R21,2*
G04 #@! TO.N,Net-(R1-Pad1)*
X34096648Y32909922D03*
G04 #@! TD*
D16*
G04 #@! TO.P,D15,1,Anode*
G04 #@! TO.N,GND*
X43570000Y51009240D03*
G04 #@! TO.P,D15,2,cathode*
G04 #@! TO.N,+3V3*
X45470000Y51009240D03*
G04 #@! TO.P,D15,3,AK*
G04 #@! TO.N,Net-(D15-AK)*
X44520000Y53008220D03*
G04 #@! TD*
D12*
G04 #@! TO.P,C6,1*
G04 #@! TO.N,+3.3VADC*
X22691648Y59169922D03*
G04 #@! TO.P,C6,2*
G04 #@! TO.N,GNDADC*
X21721648Y59169922D03*
G04 #@! TD*
D20*
G04 #@! TO.P,R30,1*
G04 #@! TO.N,Net-(R16-Pad2)*
X23111648Y31669922D03*
G04 #@! TO.P,R30,2*
G04 #@! TO.N,Net-(D24-AK)*
X24081648Y31669922D03*
G04 #@! TD*
G04 #@! TO.P,C8,1*
G04 #@! TO.N,/VCOM*
X48991648Y22769922D03*
G04 #@! TO.P,C8,2*
G04 #@! TO.N,GNDA*
X49961648Y22769922D03*
G04 #@! TD*
G04 #@! TO.P,R66,1*
G04 #@! TO.N,Net-(JP2-B)*
X11391493Y53079922D03*
G04 #@! TO.P,R66,2*
G04 #@! TO.N,Net-(U13-EN)*
X12361493Y53079922D03*
G04 #@! TD*
D16*
G04 #@! TO.P,U6,1,VI*
G04 #@! TO.N,Net-(JP11-B)*
X4649240Y68980000D03*
G04 #@! TO.P,U6,2,VO*
G04 #@! TO.N,VREF+*
X4649240Y67080000D03*
G04 #@! TO.P,U6,3,GND*
G04 #@! TO.N,GND*
X6648220Y68030000D03*
G04 #@! TD*
D12*
G04 #@! TO.P,R162,1*
G04 #@! TO.N,Net-(U12A--)*
X45386648Y5689922D03*
G04 #@! TO.P,R162,2*
G04 #@! TO.N,Net-(C153-Pad1)*
X44416648Y5689922D03*
G04 #@! TD*
D20*
G04 #@! TO.P,C73,1*
G04 #@! TO.N,+12V*
X26291648Y28539922D03*
G04 #@! TO.P,C73,2*
G04 #@! TO.N,GND*
X27261648Y28539922D03*
G04 #@! TD*
D13*
G04 #@! TO.P,C90,1*
G04 #@! TO.N,Net-(C90-Pad1)*
X51006648Y20024672D03*
G04 #@! TO.P,C90,2*
G04 #@! TO.N,Net-(U8A--)*
X49306648Y20024672D03*
G04 #@! TD*
D16*
G04 #@! TO.P,D24,1,Anode*
G04 #@! TO.N,GND*
X24616648Y34990682D03*
G04 #@! TO.P,D24,2,cathode*
G04 #@! TO.N,+3V3*
X22716648Y34990682D03*
G04 #@! TO.P,D24,3,AK*
G04 #@! TO.N,Net-(D24-AK)*
X23666648Y32991702D03*
G04 #@! TD*
D12*
G04 #@! TO.P,R65,1*
G04 #@! TO.N,+3V3*
X14476648Y53059922D03*
G04 #@! TO.P,R65,2*
G04 #@! TO.N,Net-(U13-FB)*
X13506648Y53059922D03*
G04 #@! TD*
G04 #@! TO.P,C87,1*
G04 #@! TO.N,+12V*
X52421648Y57744922D03*
G04 #@! TO.P,C87,2*
G04 #@! TO.N,GND*
X51451648Y57744922D03*
G04 #@! TD*
D13*
G04 #@! TO.P,C22,1*
G04 #@! TO.N,/OSC_IN*
X17516648Y67209922D03*
G04 #@! TO.P,C22,2*
G04 #@! TO.N,GND*
X15816648Y67209922D03*
G04 #@! TD*
D20*
G04 #@! TO.P,R160,1*
G04 #@! TO.N,GNDA*
X36041648Y5279922D03*
G04 #@! TO.P,R160,2*
G04 #@! TO.N,Net-(C152-Pad2)*
X37011648Y5279922D03*
G04 #@! TD*
D18*
G04 #@! TO.P,R164,1*
G04 #@! TO.N,GNDA*
X49766648Y9384922D03*
G04 #@! TO.P,R164,2*
G04 #@! TO.N,Net-(C153-Pad2)*
X49766648Y8414922D03*
G04 #@! TD*
D14*
G04 #@! TO.P,R44,1*
G04 #@! TO.N,Net-(U8A-+)*
X45571648Y17909672D03*
G04 #@! TO.P,R44,2*
G04 #@! TO.N,Net-(J13-SIG)*
X45571648Y18879672D03*
G04 #@! TD*
D23*
G04 #@! TO.P,C70,1*
G04 #@! TO.N,+3V3*
X8450000Y61160000D03*
G04 #@! TO.P,C70,2*
G04 #@! TO.N,GND*
X8450000Y58260000D03*
G04 #@! TD*
D20*
G04 #@! TO.P,C59,1*
G04 #@! TO.N,+12V*
X47461648Y59664482D03*
G04 #@! TO.P,C59,2*
G04 #@! TO.N,GND*
X48431648Y59664482D03*
G04 #@! TD*
D18*
G04 #@! TO.P,R7,1*
G04 #@! TO.N,/ROUT-*
X39856648Y11624922D03*
G04 #@! TO.P,R7,2*
G04 #@! TO.N,Net-(C152-Pad2)*
X39856648Y10654922D03*
G04 #@! TD*
D13*
G04 #@! TO.P,C83,1*
G04 #@! TO.N,Net-(POT_PITCH1-Center)*
X47156648Y64934482D03*
G04 #@! TO.P,C83,2*
G04 #@! TO.N,GNDADC*
X48856648Y64934482D03*
G04 #@! TD*
G04 #@! TO.P,R73,1*
G04 #@! TO.N,Net-(Bank_But1-POLE-A)*
X43876648Y106059922D03*
G04 #@! TO.P,R73,2*
G04 #@! TO.N,/D6*
X43876648Y104359922D03*
G04 #@! TD*
D20*
G04 #@! TO.P,R23,1*
G04 #@! TO.N,Net-(U3B--)*
X16826648Y84094922D03*
G04 #@! TO.P,R23,2*
G04 #@! TO.N,/A7*
X17796648Y84094922D03*
G04 #@! TD*
D18*
G04 #@! TO.P,R14,1*
G04 #@! TO.N,/LOUT-*
X46476648Y11614922D03*
G04 #@! TO.P,R14,2*
G04 #@! TO.N,Net-(C153-Pad2)*
X46476648Y10644922D03*
G04 #@! TD*
D13*
G04 #@! TO.P,C57,1*
G04 #@! TO.N,Net-(C57-Pad1)*
X54926648Y17379672D03*
G04 #@! TO.P,C57,2*
G04 #@! TO.N,Net-(U8B--)*
X54926648Y15679672D03*
G04 #@! TD*
G04 #@! TO.P,C49,1*
G04 #@! TO.N,Net-(JP4-B)*
X56152780Y30593974D03*
G04 #@! TO.P,C49,2*
G04 #@! TO.N,GNDA*
X54452780Y30593974D03*
G04 #@! TD*
D18*
G04 #@! TO.P,R18,1*
G04 #@! TO.N,Net-(C46-Pad1)*
X45960000Y55015000D03*
G04 #@! TO.P,R18,2*
G04 #@! TO.N,Net-(D15-AK)*
X45960000Y54045000D03*
G04 #@! TD*
D13*
G04 #@! TO.P,C66,1*
G04 #@! TO.N,Net-(POT_LENGTH1-Center)*
X16506648Y80584922D03*
G04 #@! TO.P,C66,2*
G04 #@! TO.N,GNDADC*
X14806648Y80584922D03*
G04 #@! TD*
D12*
G04 #@! TO.P,C60,1*
G04 #@! TO.N,-12VA*
X52031648Y59634482D03*
G04 #@! TO.P,C60,2*
G04 #@! TO.N,GND*
X51061648Y59634482D03*
G04 #@! TD*
D13*
G04 #@! TO.P,R5,1*
G04 #@! TO.N,/D1*
X48996648Y95719922D03*
G04 #@! TO.P,R5,2*
G04 #@! TO.N,Net-(Bank_But1-R)*
X48996648Y97419922D03*
G04 #@! TD*
D16*
G04 #@! TO.P,D1,1,Anode*
G04 #@! TO.N,GND*
X30326648Y33669162D03*
G04 #@! TO.P,D1,2,cathode*
G04 #@! TO.N,+3V3*
X32226648Y33669162D03*
G04 #@! TO.P,D1,3,AK*
G04 #@! TO.N,Net-(D1-AK)*
X31276648Y35668142D03*
G04 #@! TD*
D18*
G04 #@! TO.P,C11,1*
G04 #@! TO.N,+3V3*
X31370148Y56671600D03*
G04 #@! TO.P,C11,2*
G04 #@! TO.N,GND*
X31370148Y55701600D03*
G04 #@! TD*
D20*
G04 #@! TO.P,R47,1*
G04 #@! TO.N,/I2C1_SCL*
X52196648Y35027422D03*
G04 #@! TO.P,R47,2*
G04 #@! TO.N,+3V3*
X53166648Y35027422D03*
G04 #@! TD*
D13*
G04 #@! TO.P,C20,2*
G04 #@! TO.N,Net-(Q12-G)*
X16350000Y3510000D03*
G04 #@! TO.P,C20,1*
G04 #@! TO.N,Net-(D17-A)*
X16350000Y5210000D03*
G04 #@! TD*
G04 #@! TO.P,C39,1*
G04 #@! TO.N,/A6*
X3556648Y104299922D03*
G04 #@! TO.P,C39,2*
G04 #@! TO.N,GND*
X3556648Y105999922D03*
G04 #@! TD*
G04 #@! TO.P,C26,1*
G04 #@! TO.N,Net-(D17-A)*
X11073352Y5190078D03*
G04 #@! TO.P,C26,2*
G04 #@! TO.N,GND*
X12773352Y5190078D03*
G04 #@! TD*
G04 #@! TO.P,R29,1*
G04 #@! TO.N,GND*
X49596648Y39824922D03*
G04 #@! TO.P,R29,2*
G04 #@! TO.N,Net-(U15B-+)*
X51296648Y39824922D03*
G04 #@! TD*
G04 #@! TO.P,C46,1*
G04 #@! TO.N,Net-(C46-Pad1)*
X54846648Y43124922D03*
G04 #@! TO.P,C46,2*
G04 #@! TO.N,Net-(U15B--)*
X54846648Y41424922D03*
G04 #@! TD*
G04 #@! TO.P,R37,1*
G04 #@! TO.N,GND*
X14600000Y5210000D03*
G04 #@! TO.P,R37,2*
G04 #@! TO.N,Net-(Q12-G)*
X14600000Y3510000D03*
G04 #@! TD*
G04 #@! TO.P,R79,1*
G04 #@! TO.N,+3V3*
X23030000Y84070000D03*
G04 #@! TO.P,R79,2*
G04 #@! TO.N,/D16*
X24730000Y84070000D03*
G04 #@! TD*
G04 #@! TO.P,C2,1*
G04 #@! TO.N,Net-(U2B-VCAP_2)*
X36490148Y65926600D03*
G04 #@! TO.P,C2,2*
G04 #@! TO.N,GND*
X36490148Y67626600D03*
G04 #@! TD*
D20*
G04 #@! TO.P,R48,1*
G04 #@! TO.N,/I2C1_SDA*
X50875000Y36380000D03*
G04 #@! TO.P,R48,2*
G04 #@! TO.N,+3V3*
X51845000Y36380000D03*
G04 #@! TD*
D26*
G04 #@! TO.P,Y1,1,1*
G04 #@! TO.N,/OSC_IN*
X18006648Y64979922D03*
G04 #@! TO.P,Y1,2,2*
G04 #@! TO.N,/OSC_OUT*
X19506648Y62879922D03*
G04 #@! TO.P,Y1,3,3*
G04 #@! TO.N,unconnected-(Y1-Pad3)*
X18006648Y62879922D03*
G04 #@! TO.P,Y1,4,4*
G04 #@! TO.N,unconnected-(Y1-Pad4)*
X19506648Y64979922D03*
G04 #@! TD*
D13*
G04 #@! TO.P,R68,1*
G04 #@! TO.N,/D7*
X4896648Y97399922D03*
G04 #@! TO.P,R68,2*
G04 #@! TO.N,Net-(REV_BUT1-R)*
X6596648Y97399922D03*
G04 #@! TD*
D12*
G04 #@! TO.P,C35,1*
G04 #@! TO.N,+12V*
X51331648Y45024922D03*
G04 #@! TO.P,C35,2*
G04 #@! TO.N,GND*
X50361648Y45024922D03*
G04 #@! TD*
D16*
G04 #@! TO.P,D22,1,Anode*
G04 #@! TO.N,GND*
X17146648Y44470682D03*
G04 #@! TO.P,D22,2,cathode*
G04 #@! TO.N,+3V3*
X15246648Y44470682D03*
G04 #@! TO.P,D22,3,AK*
G04 #@! TO.N,Net-(D22-AK)*
X16196648Y42471702D03*
G04 #@! TD*
D12*
G04 #@! TO.P,C17,1*
G04 #@! TO.N,+3V3*
X23065148Y65626600D03*
G04 #@! TO.P,C17,2*
G04 #@! TO.N,GND*
X22095148Y65626600D03*
G04 #@! TD*
D13*
G04 #@! TO.P,R80,1*
G04 #@! TO.N,+3V3*
X23030000Y86620000D03*
G04 #@! TO.P,R80,2*
G04 #@! TO.N,/D17*
X24730000Y86620000D03*
G04 #@! TD*
D12*
G04 #@! TO.P,C64,1*
G04 #@! TO.N,-12VA*
X12362564Y42854922D03*
G04 #@! TO.P,C64,2*
G04 #@! TO.N,GND*
X11392564Y42854922D03*
G04 #@! TD*
D18*
G04 #@! TO.P,C76,1*
G04 #@! TO.N,-12VA*
X34166648Y27364922D03*
G04 #@! TO.P,C76,2*
G04 #@! TO.N,GND*
X34166648Y26394922D03*
G04 #@! TD*
D13*
G04 #@! TO.P,C42,1*
G04 #@! TO.N,GND*
X49605768Y38250422D03*
G04 #@! TO.P,C42,2*
G04 #@! TO.N,Net-(U15B-+)*
X51305768Y38250422D03*
G04 #@! TD*
D17*
G04 #@! TO.P,U10,1*
G04 #@! TO.N,Net-(U10A--)*
X31586648Y30034922D03*
G04 #@! TO.P,U10,2,-*
X31586648Y30684922D03*
G04 #@! TO.P,U10,3,+*
G04 #@! TO.N,Net-(D1-AK)*
X31586648Y31334922D03*
G04 #@! TO.P,U10,4,V-*
G04 #@! TO.N,-12VA*
X31586648Y31984922D03*
G04 #@! TO.P,U10,5,+*
G04 #@! TO.N,Net-(D24-AK)*
X25686648Y31984922D03*
G04 #@! TO.P,U10,6,-*
G04 #@! TO.N,Net-(U10B--)*
X25686648Y31334922D03*
G04 #@! TO.P,U10,7*
X25686648Y30684922D03*
G04 #@! TO.P,U10,8,V+*
G04 #@! TO.N,+12V*
X25686648Y30034922D03*
G04 #@! TD*
D12*
G04 #@! TO.P,C150,1*
G04 #@! TO.N,GNDA*
X48705480Y9699922D03*
G04 #@! TO.P,C150,2*
G04 #@! TO.N,Net-(U12A-+)*
X47735480Y9699922D03*
G04 #@! TD*
D20*
G04 #@! TO.P,R2,1*
G04 #@! TO.N,Net-(U10A--)*
X32411648Y28509922D03*
G04 #@! TO.P,R2,2*
G04 #@! TO.N,/A0*
X33381648Y28509922D03*
G04 #@! TD*
D12*
G04 #@! TO.P,R50,1*
G04 #@! TO.N,Net-(C48-Pad1)*
X37486648Y18279922D03*
G04 #@! TO.P,R50,2*
G04 #@! TO.N,Net-(U11B--)*
X36516648Y18279922D03*
G04 #@! TD*
G04 #@! TO.P,R152,1*
G04 #@! TO.N,Net-(J16-SIG)*
X41695000Y3500000D03*
G04 #@! TO.P,R152,2*
G04 #@! TO.N,Net-(C147-Pad1)*
X40725000Y3500000D03*
G04 #@! TD*
D27*
G04 #@! TO.P,J3,1,Pin_1*
G04 #@! TO.N,+3V3*
X57226648Y80469922D03*
D25*
G04 #@! TO.P,J3,2,Pin_2*
G04 #@! TO.N,/SWDCLK*
X57226648Y77929922D03*
G04 #@! TO.P,J3,3,Pin_3*
G04 #@! TO.N,GND*
X57226648Y75389922D03*
G04 #@! TO.P,J3,4,Pin_4*
G04 #@! TO.N,/SWDIO*
X57226648Y72849922D03*
G04 #@! TD*
D20*
G04 #@! TO.P,R11,1*
G04 #@! TO.N,Net-(POT_PITCH1-Center)*
X45369944Y63218002D03*
G04 #@! TO.P,R11,2*
G04 #@! TO.N,Net-(U1B-+)*
X46339944Y63218002D03*
G04 #@! TD*
D28*
G04 #@! TO.P,U13,1,GND*
G04 #@! TO.N,GND*
X11536648Y56249922D03*
G04 #@! TO.P,U13,2,SW*
G04 #@! TO.N,Net-(U13-SW)*
X11536648Y55299922D03*
G04 #@! TO.P,U13,3,IN*
G04 #@! TO.N,Net-(JP2-B)*
X11536648Y54349922D03*
G04 #@! TO.P,U13,4,FB*
G04 #@! TO.N,Net-(U13-FB)*
X14156648Y54349922D03*
G04 #@! TO.P,U13,5,EN*
G04 #@! TO.N,Net-(U13-EN)*
X14156648Y55299922D03*
G04 #@! TO.P,U13,6,BST*
G04 #@! TO.N,Net-(U13-BST)*
X14156648Y56249922D03*
G04 #@! TD*
D13*
G04 #@! TO.P,R20,1*
G04 #@! TO.N,Net-(J7-SIG)*
X16156648Y35899922D03*
G04 #@! TO.P,R20,2*
G04 #@! TO.N,Net-(R20-Pad2)*
X16156648Y37599922D03*
G04 #@! TD*
G04 #@! TO.P,C51,1*
G04 #@! TO.N,+5V*
X54443428Y25387422D03*
G04 #@! TO.P,C51,2*
G04 #@! TO.N,GNDA*
X56143428Y25387422D03*
G04 #@! TD*
D20*
G04 #@! TO.P,R51,1*
G04 #@! TO.N,Net-(U11B--)*
X36396648Y17009922D03*
G04 #@! TO.P,R51,2*
G04 #@! TO.N,Net-(C52-Pad1)*
X37366648Y17009922D03*
G04 #@! TD*
D22*
G04 #@! TO.P,JP11,1,A*
G04 #@! TO.N,+12V*
X4875000Y72550400D03*
G04 #@! TO.P,JP11,2,B*
G04 #@! TO.N,Net-(JP11-B)*
X4875000Y72009600D03*
G04 #@! TD*
D29*
G04 #@! TO.P,U2,A1,PE3*
G04 #@! TO.N,/SAI_SD_B*
X25000148Y67736600D03*
G04 #@! TO.P,U2,A2,PE2*
G04 #@! TO.N,/SAI_MCLK*
X25650148Y67736600D03*
G04 #@! TO.P,U2,A3,PE1*
G04 #@! TO.N,/SD-NBL1*
X26300148Y67736600D03*
G04 #@! TO.P,U2,A4,PE0*
G04 #@! TO.N,/SD-NBL0*
X26950148Y67736600D03*
G04 #@! TO.P,U2,A5,PB8*
G04 #@! TO.N,/I2C1_SCL*
X27600148Y67736600D03*
G04 #@! TO.P,U2,A6,PB5*
G04 #@! TO.N,/SD-CKE1*
X28250148Y67736600D03*
G04 #@! TO.P,U2,A7,PG14*
G04 #@! TO.N,unconnected-(U2A-PG14-PadA7)*
X28900148Y67736600D03*
G04 #@! TO.P,U2,A8,PG13*
G04 #@! TO.N,unconnected-(U2A-PG13-PadA8)*
X29550148Y67736600D03*
G04 #@! TO.P,U2,A9,PB4*
G04 #@! TO.N,/DEBUG3*
X30200148Y67736600D03*
G04 #@! TO.P,U2,A10,PB3*
G04 #@! TO.N,/CODEC_RESET*
X30850148Y67736600D03*
G04 #@! TO.P,U2,A11,PD7*
G04 #@! TO.N,unconnected-(U2A-PD7-PadA11)*
X31500148Y67736600D03*
G04 #@! TO.P,U2,A12,PC12*
G04 #@! TO.N,/D9*
X32150148Y67736600D03*
G04 #@! TO.P,U2,A13,PA15*
G04 #@! TO.N,/D0*
X32800148Y67736600D03*
G04 #@! TO.P,U2,A14,PA14*
G04 #@! TO.N,/SWDCLK*
X33450148Y67736600D03*
G04 #@! TO.P,U2,A15,PA13*
G04 #@! TO.N,/SWDIO*
X34100148Y67736600D03*
G04 #@! TO.P,U2,B1,PE4*
G04 #@! TO.N,/SAI_FS*
X25000148Y67086600D03*
G04 #@! TO.P,U2,B2,PE5*
G04 #@! TO.N,/SAI_SCK*
X25650148Y67086600D03*
G04 #@! TO.P,U2,B3,PE6*
G04 #@! TO.N,/SAI_SD_A*
X26300148Y67086600D03*
G04 #@! TO.P,U2,B4,PB9*
G04 #@! TO.N,/I2C1_SDA*
X26950148Y67086600D03*
G04 #@! TO.P,U2,B5,PB7*
G04 #@! TO.N,unconnected-(U2A-PB7-PadB5)*
X27600148Y67086600D03*
G04 #@! TO.P,U2,B6,PB6*
G04 #@! TO.N,unconnected-(U2A-PB6-PadB6)*
X28250148Y67086600D03*
G04 #@! TO.P,U2,B7,PG15*
G04 #@! TO.N,/SD-NCAS*
X28900148Y67086600D03*
G04 #@! TO.P,U2,B8,PG12*
G04 #@! TO.N,unconnected-(U2A-PG12-PadB8)*
X29550148Y67086600D03*
G04 #@! TO.P,U2,B9,PG11*
G04 #@! TO.N,unconnected-(U2A-PG11-PadB9)*
X30200148Y67086600D03*
G04 #@! TO.P,U2,B10,PG10*
G04 #@! TO.N,unconnected-(U2A-PG10-PadB10)*
X30850148Y67086600D03*
G04 #@! TO.P,U2,B11,PD6*
G04 #@! TO.N,unconnected-(U2A-PD6-PadB11)*
X31500148Y67086600D03*
G04 #@! TO.P,U2,B12,PD0*
G04 #@! TO.N,/SD-D2*
X32150148Y67086600D03*
G04 #@! TO.P,U2,B13,PC11*
G04 #@! TO.N,/D19*
X32800148Y67086600D03*
G04 #@! TO.P,U2,B14,PC10*
G04 #@! TO.N,/D18*
X33450148Y67086600D03*
G04 #@! TO.P,U2,B15,PA12*
G04 #@! TO.N,unconnected-(U2A-PA12-PadB15)*
X34100148Y67086600D03*
G04 #@! TO.P,U2,C1,VBAT*
G04 #@! TO.N,unconnected-(U2B-VBAT-PadC1)*
X25000148Y66436600D03*
G04 #@! TO.P,U2,C2,PI7*
G04 #@! TO.N,/D1*
X25650148Y66436600D03*
G04 #@! TO.P,U2,C3,PI6*
G04 #@! TO.N,unconnected-(U2A-PI6-PadC3)*
X26300148Y66436600D03*
G04 #@! TO.P,U2,C4,PI5*
G04 #@! TO.N,/DEBUG2*
X26950148Y66436600D03*
G04 #@! TO.P,U2,C5,VDD*
G04 #@! TO.N,+3V3*
X27600148Y66436600D03*
G04 #@! TO.P,U2,C6,PDR_ON*
X28250148Y66436600D03*
G04 #@! TO.P,U2,C7,VDD*
X28900148Y66436600D03*
G04 #@! TO.P,U2,C8,VDDSDMMC*
X29550148Y66436600D03*
G04 #@! TO.P,U2,C9,VDD*
X30200148Y66436600D03*
G04 #@! TO.P,U2,C10,PG9*
G04 #@! TO.N,unconnected-(U2A-PG9-PadC10)*
X30850148Y66436600D03*
G04 #@! TO.P,U2,C11,PD5*
G04 #@! TO.N,unconnected-(U2A-PD5-PadC11)*
X31500148Y66436600D03*
G04 #@! TO.P,U2,C12,PD1*
G04 #@! TO.N,/SD-D3*
X32150148Y66436600D03*
G04 #@! TO.P,U2,C13,PI3*
G04 #@! TO.N,unconnected-(U2A-PI3-PadC13)*
X32800148Y66436600D03*
G04 #@! TO.P,U2,C14,PI2*
G04 #@! TO.N,/D3*
X33450148Y66436600D03*
G04 #@! TO.P,U2,C15,PA11*
G04 #@! TO.N,unconnected-(U2A-PA11-PadC15)*
X34100148Y66436600D03*
G04 #@! TO.P,U2,D1,PC13*
G04 #@! TO.N,unconnected-(U2A-PC13-PadD1)*
X25000148Y65786600D03*
G04 #@! TO.P,U2,D2,PI8*
G04 #@! TO.N,unconnected-(U2A-PI8-PadD2)*
X25650148Y65786600D03*
G04 #@! TO.P,U2,D3,PI9*
G04 #@! TO.N,unconnected-(U2A-PI9-PadD3)*
X26300148Y65786600D03*
G04 #@! TO.P,U2,D4,PI4*
G04 #@! TO.N,unconnected-(U2A-PI4-PadD4)*
X26950148Y65786600D03*
G04 #@! TO.P,U2,D5,VSS*
G04 #@! TO.N,GND*
X27600148Y65786600D03*
G04 #@! TO.P,U2,D6,BOOT*
G04 #@! TO.N,/BOOT0*
X28250148Y65786600D03*
G04 #@! TO.P,U2,D7,VSS*
G04 #@! TO.N,GND*
X28900148Y65786600D03*
G04 #@! TO.P,U2,D8,VSS*
X29550148Y65786600D03*
G04 #@! TO.P,U2,D9,VSS*
X30200148Y65786600D03*
G04 #@! TO.P,U2,D10,PD4*
G04 #@! TO.N,unconnected-(U2A-PD4-PadD10)*
X30850148Y65786600D03*
G04 #@! TO.P,U2,D11,PD3*
G04 #@! TO.N,unconnected-(U2A-PD3-PadD11)*
X31500148Y65786600D03*
G04 #@! TO.P,U2,D12,PD2*
G04 #@! TO.N,/D4*
X32150148Y65786600D03*
G04 #@! TO.P,U2,D13,PH15*
G04 #@! TO.N,unconnected-(U2A-PH15-PadD13)*
X32800148Y65786600D03*
G04 #@! TO.P,U2,D14,PI1*
G04 #@! TO.N,unconnected-(U2A-PI1-PadD14)*
X33450148Y65786600D03*
G04 #@! TO.P,U2,D15,PA10*
G04 #@! TO.N,unconnected-(U2A-PA10-PadD15)*
X34100148Y65786600D03*
G04 #@! TO.P,U2,E1,PC14*
G04 #@! TO.N,unconnected-(U2A-PC14-PadE1)*
X25000148Y65136600D03*
G04 #@! TO.P,U2,E2,PF0*
G04 #@! TO.N,/SD-A0*
X25650148Y65136600D03*
G04 #@! TO.P,U2,E3,PI10*
G04 #@! TO.N,unconnected-(U2A-PI10-PadE3)*
X26300148Y65136600D03*
G04 #@! TO.P,U2,E4,PI11*
G04 #@! TO.N,unconnected-(U2A-PI11-PadE4)*
X26950148Y65136600D03*
G04 #@! TO.P,U2,E12,PH13*
G04 #@! TO.N,unconnected-(U2A-PH13-PadE12)*
X32150148Y65136600D03*
G04 #@! TO.P,U2,E13,PH14*
G04 #@! TO.N,unconnected-(U2A-PH14-PadE13)*
X32800148Y65136600D03*
G04 #@! TO.P,U2,E14,PI0*
G04 #@! TO.N,/D5*
X33450148Y65136600D03*
G04 #@! TO.P,U2,E15,PA9*
G04 #@! TO.N,unconnected-(U2A-PA9-PadE15)*
X34100148Y65136600D03*
G04 #@! TO.P,U2,F1,PC15*
G04 #@! TO.N,unconnected-(U2A-PC15-PadF1)*
X25000148Y64486600D03*
G04 #@! TO.P,U2,F2,VSS*
G04 #@! TO.N,GND*
X25650148Y64486600D03*
G04 #@! TO.P,U2,F3,VDD*
G04 #@! TO.N,+3V3*
X26300148Y64486600D03*
G04 #@! TO.P,U2,F4,PH2*
G04 #@! TO.N,unconnected-(U2A-PH2-PadF4)*
X26950148Y64486600D03*
G04 #@! TO.P,U2,F6,VSS*
G04 #@! TO.N,GND*
X28250148Y64486600D03*
G04 #@! TO.P,U2,F7,VSS*
X28900148Y64486600D03*
G04 #@! TO.P,U2,F8,VSS*
X29550148Y64486600D03*
G04 #@! TO.P,U2,F9,VSS*
X30200148Y64486600D03*
G04 #@! TO.P,U2,F10,VSS*
X30850148Y64486600D03*
G04 #@! TO.P,U2,F12,VSS*
X32150148Y64486600D03*
G04 #@! TO.P,U2,F13,VCAP_2*
G04 #@! TO.N,Net-(U2B-VCAP_2)*
X32800148Y64486600D03*
G04 #@! TO.P,U2,F14,PC9*
G04 #@! TO.N,/D17*
X33450148Y64486600D03*
G04 #@! TO.P,U2,F15,PA8*
G04 #@! TO.N,/D12*
X34100148Y64486600D03*
G04 #@! TO.P,U2,G1,PH0*
G04 #@! TO.N,/OSC_IN*
X25000148Y63836600D03*
G04 #@! TO.P,U2,G2,VSS*
G04 #@! TO.N,GND*
X25650148Y63836600D03*
G04 #@! TO.P,U2,G3,VDD*
G04 #@! TO.N,+3V3*
X26300148Y63836600D03*
G04 #@! TO.P,U2,G4,PH3*
G04 #@! TO.N,unconnected-(U2A-PH3-PadG4)*
X26950148Y63836600D03*
G04 #@! TO.P,U2,G6,VSS*
G04 #@! TO.N,GND*
X28250148Y63836600D03*
G04 #@! TO.P,U2,G7,VSS*
X28900148Y63836600D03*
G04 #@! TO.P,U2,G8,VSS*
X29550148Y63836600D03*
G04 #@! TO.P,U2,G9,VSS*
X30200148Y63836600D03*
G04 #@! TO.P,U2,G10,VSS*
X30850148Y63836600D03*
G04 #@! TO.P,U2,G12,VSS*
X32150148Y63836600D03*
G04 #@! TO.P,U2,G13,VDD*
G04 #@! TO.N,+3V3*
X32800148Y63836600D03*
G04 #@! TO.P,U2,G14,PC8*
G04 #@! TO.N,/D16*
X33450148Y63836600D03*
G04 #@! TO.P,U2,G15,PC7*
G04 #@! TO.N,GND*
X34100148Y63836600D03*
G04 #@! TO.P,U2,H1,PH1*
G04 #@! TO.N,/OSC_OUT*
X25000148Y63186600D03*
G04 #@! TO.P,U2,H2,PF2*
G04 #@! TO.N,/SD-A2*
X25650148Y63186600D03*
G04 #@! TO.P,U2,H3,PF1*
G04 #@! TO.N,/SD-A1*
X26300148Y63186600D03*
G04 #@! TO.P,U2,H4,PH4*
G04 #@! TO.N,unconnected-(U2A-PH4-PadH4)*
X26950148Y63186600D03*
G04 #@! TO.P,U2,H6,VSS*
G04 #@! TO.N,GND*
X28250148Y63186600D03*
G04 #@! TO.P,U2,H7,VSS*
X28900148Y63186600D03*
G04 #@! TO.P,U2,H8,VSS*
X29550148Y63186600D03*
G04 #@! TO.P,U2,H9,VSS*
X30200148Y63186600D03*
G04 #@! TO.P,U2,H10,VSS*
X30850148Y63186600D03*
G04 #@! TO.P,U2,H12,VSS*
X32150148Y63186600D03*
G04 #@! TO.P,U2,H13,VDDUSB*
G04 #@! TO.N,+3V3*
X32800148Y63186600D03*
G04 #@! TO.P,U2,H14,PG8*
G04 #@! TO.N,/SD-CLK*
X33450148Y63186600D03*
G04 #@! TO.P,U2,H15,PC6*
G04 #@! TO.N,/D14*
X34100148Y63186600D03*
G04 #@! TO.P,U2,J1,NRST*
G04 #@! TO.N,/NRST*
X25000148Y62536600D03*
G04 #@! TO.P,U2,J2,PF3*
G04 #@! TO.N,/SD-A3*
X25650148Y62536600D03*
G04 #@! TO.P,U2,J3,PF4*
G04 #@! TO.N,/SD-A4*
X26300148Y62536600D03*
G04 #@! TO.P,U2,J4,PH5*
G04 #@! TO.N,/SD-NWE*
X26950148Y62536600D03*
G04 #@! TO.P,U2,J6,VSS*
G04 #@! TO.N,GND*
X28250148Y62536600D03*
G04 #@! TO.P,U2,J7,VSS*
X28900148Y62536600D03*
G04 #@! TO.P,U2,J8,VSS*
X29550148Y62536600D03*
G04 #@! TO.P,U2,J9,VSS*
X30200148Y62536600D03*
G04 #@! TO.P,U2,J10,VSS*
X30850148Y62536600D03*
G04 #@! TO.P,U2,J12,VDD*
G04 #@! TO.N,+3V3*
X32150148Y62536600D03*
G04 #@! TO.P,U2,J13,VDD*
X32800148Y62536600D03*
G04 #@! TO.P,U2,J14,VDD12OTGHS*
G04 #@! TO.N,Net-(U2B-VDD12OTGHS)*
X33450148Y62536600D03*
G04 #@! TO.P,U2,J15,OTG_HR_REXT*
G04 #@! TO.N,Net-(U2B-OTG_HR_REXT)*
X34100148Y62536600D03*
G04 #@! TO.P,U2,K1,PF7*
G04 #@! TO.N,/UART_TX*
X25000148Y61886600D03*
G04 #@! TO.P,U2,K2,PF6*
G04 #@! TO.N,/UART_RX*
X25650148Y61886600D03*
G04 #@! TO.P,U2,K3,PF5*
G04 #@! TO.N,/SD-A5*
X26300148Y61886600D03*
G04 #@! TO.P,U2,K4,VDD*
G04 #@! TO.N,+3V3*
X26950148Y61886600D03*
G04 #@! TO.P,U2,K6,VSS*
G04 #@! TO.N,GND*
X28250148Y61886600D03*
G04 #@! TO.P,U2,K7,VSS*
X28900148Y61886600D03*
G04 #@! TO.P,U2,K8,VSS*
X29550148Y61886600D03*
G04 #@! TO.P,U2,K9,VSS*
X30200148Y61886600D03*
G04 #@! TO.P,U2,K10,VSS*
X30850148Y61886600D03*
G04 #@! TO.P,U2,K12,PH12*
G04 #@! TO.N,/D15*
X32150148Y61886600D03*
G04 #@! TO.P,U2,K13,PG5*
G04 #@! TO.N,/SD-BA1*
X32800148Y61886600D03*
G04 #@! TO.P,U2,K14,PG4*
G04 #@! TO.N,/SD-BA0*
X33450148Y61886600D03*
G04 #@! TO.P,U2,K15,PG3*
G04 #@! TO.N,unconnected-(U2A-PG3-PadK15)*
X34100148Y61886600D03*
G04 #@! TO.P,U2,L1,PF10*
G04 #@! TO.N,unconnected-(U2A-PF10-PadL1)*
X25000148Y61236600D03*
G04 #@! TO.P,U2,L2,PF9*
G04 #@! TO.N,unconnected-(U2A-PF9-PadL2)*
X25650148Y61236600D03*
G04 #@! TO.P,U2,L3,PF8*
G04 #@! TO.N,unconnected-(U2A-PF8-PadL3)*
X26300148Y61236600D03*
G04 #@! TO.P,U2,L4,BYPASS_REG*
G04 #@! TO.N,unconnected-(U2B-BYPASS_REG-PadL4)*
X26950148Y61236600D03*
G04 #@! TO.P,U2,L12,PH11*
G04 #@! TO.N,/D13*
X32150148Y61236600D03*
G04 #@! TO.P,U2,L13,PH10*
G04 #@! TO.N,unconnected-(U2A-PH10-PadL13)*
X32800148Y61236600D03*
G04 #@! TO.P,U2,L14,PD15*
G04 #@! TO.N,/SD-D1*
X33450148Y61236600D03*
G04 #@! TO.P,U2,L15,PG2*
G04 #@! TO.N,/SD-A12*
X34100148Y61236600D03*
G04 #@! TO.P,U2,M1,VSSA*
G04 #@! TO.N,GND*
X25000148Y60586600D03*
G04 #@! TO.P,U2,M2,PC0*
G04 #@! TO.N,/A3*
X25650148Y60586600D03*
G04 #@! TO.P,U2,M3,PC1*
G04 #@! TO.N,/A8*
X26300148Y60586600D03*
G04 #@! TO.P,U2,M4,PC2*
G04 #@! TO.N,unconnected-(U2A-PC2-PadM4)*
X26950148Y60586600D03*
G04 #@! TO.P,U2,M5,PC3*
G04 #@! TO.N,unconnected-(U2A-PC3-PadM5)*
X27600148Y60586600D03*
G04 #@! TO.P,U2,M6,PB2*
G04 #@! TO.N,unconnected-(U2A-PB2-PadM6)*
X28250148Y60586600D03*
G04 #@! TO.P,U2,M7,PG1*
G04 #@! TO.N,/SD-A11*
X28900148Y60586600D03*
G04 #@! TO.P,U2,M8,VSS*
G04 #@! TO.N,GND*
X29550148Y60586600D03*
G04 #@! TO.P,U2,M9,VSS*
X30200148Y60586600D03*
G04 #@! TO.P,U2,M10,VCAP_1*
G04 #@! TO.N,Net-(U2B-VCAP_1)*
X30850148Y60586600D03*
G04 #@! TO.P,U2,M11,PH6*
G04 #@! TO.N,/SD-NE1*
X31500148Y60586600D03*
G04 #@! TO.P,U2,M12,PH8*
G04 #@! TO.N,unconnected-(U2A-PH8-PadM12)*
X32150148Y60586600D03*
G04 #@! TO.P,U2,M13,PH9*
G04 #@! TO.N,unconnected-(U2A-PH9-PadM13)*
X32800148Y60586600D03*
G04 #@! TO.P,U2,M14,PD14*
G04 #@! TO.N,/SD-D0*
X33450148Y60586600D03*
G04 #@! TO.P,U2,M15,PD13*
G04 #@! TO.N,/D11*
X34100148Y60586600D03*
G04 #@! TO.P,U2,N1,VREF-*
G04 #@! TO.N,GNDADC*
X25000148Y59936600D03*
G04 #@! TO.P,U2,N2,PA1*
G04 #@! TO.N,/A7*
X25650148Y59936600D03*
G04 #@! TO.P,U2,N3,PA0*
G04 #@! TO.N,/A6*
X26300148Y59936600D03*
G04 #@! TO.P,U2,N4,PA4*
G04 #@! TO.N,/A0*
X26950148Y59936600D03*
G04 #@! TO.P,U2,N5,PC4*
G04 #@! TO.N,unconnected-(U2A-PC4-PadN5)*
X27600148Y59936600D03*
G04 #@! TO.P,U2,N6,PF13*
G04 #@! TO.N,/SD-A7*
X28250148Y59936600D03*
G04 #@! TO.P,U2,N7,PG0*
G04 #@! TO.N,/SD-A10*
X28900148Y59936600D03*
G04 #@! TO.P,U2,N8,VDD*
G04 #@! TO.N,+3V3*
X29550148Y59936600D03*
G04 #@! TO.P,U2,N9,VDD*
X30200148Y59936600D03*
G04 #@! TO.P,U2,N10,VDD*
X30850148Y59936600D03*
G04 #@! TO.P,U2,N11,PE13*
G04 #@! TO.N,/SD-D10*
X31500148Y59936600D03*
G04 #@! TO.P,U2,N12,PH7*
G04 #@! TO.N,unconnected-(U2A-PH7-PadN12)*
X32150148Y59936600D03*
G04 #@! TO.P,U2,N13,PD12*
G04 #@! TO.N,unconnected-(U2A-PD12-PadN13)*
X32800148Y59936600D03*
G04 #@! TO.P,U2,N14,PD11*
G04 #@! TO.N,unconnected-(U2A-PD11-PadN14)*
X33450148Y59936600D03*
G04 #@! TO.P,U2,N15,PD10*
G04 #@! TO.N,/SD-D15*
X34100148Y59936600D03*
G04 #@! TO.P,U2,P1,VREF+*
G04 #@! TO.N,VREF+*
X25000148Y59286600D03*
G04 #@! TO.P,U2,P2,PA2*
G04 #@! TO.N,/A2*
X25650148Y59286600D03*
G04 #@! TO.P,U2,P3,PA6*
G04 #@! TO.N,/A5*
X26300148Y59286600D03*
G04 #@! TO.P,U2,P4,PA5*
G04 #@! TO.N,/A1*
X26950148Y59286600D03*
G04 #@! TO.P,U2,P5,PC5*
G04 #@! TO.N,unconnected-(U2A-PC5-PadP5)*
X27600148Y59286600D03*
G04 #@! TO.P,U2,P6,PF12*
G04 #@! TO.N,/SD-A6*
X28250148Y59286600D03*
G04 #@! TO.P,U2,P7,PF15*
G04 #@! TO.N,/SD-A9*
X28900148Y59286600D03*
G04 #@! TO.P,U2,P8,PE8*
G04 #@! TO.N,/SD-D5*
X29550148Y59286600D03*
G04 #@! TO.P,U2,P9,PE9*
G04 #@! TO.N,/SD-D6*
X30200148Y59286600D03*
G04 #@! TO.P,U2,P10,PE11*
G04 #@! TO.N,/SD-D8*
X30850148Y59286600D03*
G04 #@! TO.P,U2,P11,PE14*
G04 #@! TO.N,/SD-D11*
X31500148Y59286600D03*
G04 #@! TO.P,U2,P12,PB12*
G04 #@! TO.N,unconnected-(U2A-PB12-PadP12)*
X32150148Y59286600D03*
G04 #@! TO.P,U2,P13,PB13*
G04 #@! TO.N,unconnected-(U2A-PB13-PadP13)*
X32800148Y59286600D03*
G04 #@! TO.P,U2,P14,PD9*
G04 #@! TO.N,/SD-D14*
X33450148Y59286600D03*
G04 #@! TO.P,U2,P15,PD8*
G04 #@! TO.N,/SD-D13*
X34100148Y59286600D03*
G04 #@! TO.P,U2,R1,VDDA*
G04 #@! TO.N,+3.3VADC*
X25000148Y58636600D03*
G04 #@! TO.P,U2,R2,PA3*
G04 #@! TO.N,/A9*
X25650148Y58636600D03*
G04 #@! TO.P,U2,R3,PA7*
G04 #@! TO.N,/A4*
X26300148Y58636600D03*
G04 #@! TO.P,U2,R4,PB1*
G04 #@! TO.N,unconnected-(U2A-PB1-PadR4)*
X26950148Y58636600D03*
G04 #@! TO.P,U2,R5,PB0*
G04 #@! TO.N,unconnected-(U2A-PB0-PadR5)*
X27600148Y58636600D03*
G04 #@! TO.P,U2,R6,PF11*
G04 #@! TO.N,/SD-NRAS*
X28250148Y58636600D03*
G04 #@! TO.P,U2,R7,PF14*
G04 #@! TO.N,/SD-A8*
X28900148Y58636600D03*
G04 #@! TO.P,U2,R8,PE7*
G04 #@! TO.N,/SD-D4*
X29550148Y58636600D03*
G04 #@! TO.P,U2,R9,PE10*
G04 #@! TO.N,/SD-D7*
X30200148Y58636600D03*
G04 #@! TO.P,U2,R10,PE12*
G04 #@! TO.N,/SD-D9*
X30850148Y58636600D03*
G04 #@! TO.P,U2,R11,PE15*
G04 #@! TO.N,/SD-D12*
X31500148Y58636600D03*
G04 #@! TO.P,U2,R12,PB10*
G04 #@! TO.N,/D6*
X32150148Y58636600D03*
G04 #@! TO.P,U2,R13,PB11*
G04 #@! TO.N,/D10*
X32800148Y58636600D03*
G04 #@! TO.P,U2,R14,PB14*
G04 #@! TO.N,/D7*
X33450148Y58636600D03*
G04 #@! TO.P,U2,R15,PB15*
G04 #@! TO.N,/D8*
X34100148Y58636600D03*
G04 #@! TD*
D30*
G04 #@! TO.P,U11,1*
G04 #@! TO.N,Net-(U11A--)*
X37701648Y27409922D03*
G04 #@! TO.P,U11,2,-*
X37051648Y27409922D03*
G04 #@! TO.P,U11,3,+*
G04 #@! TO.N,Net-(U11A-+)*
X36401648Y27409922D03*
G04 #@! TO.P,U11,4,V-*
G04 #@! TO.N,-12VA*
X35751648Y27409922D03*
G04 #@! TO.P,U11,5,+*
G04 #@! TO.N,/VCOM*
X35751648Y21509922D03*
G04 #@! TO.P,U11,6,-*
G04 #@! TO.N,Net-(U11B--)*
X36401648Y21509922D03*
G04 #@! TO.P,U11,7*
G04 #@! TO.N,Net-(C48-Pad1)*
X37051648Y21509922D03*
G04 #@! TO.P,U11,8,V+*
G04 #@! TO.N,+12V*
X37701648Y21509922D03*
G04 #@! TD*
D14*
G04 #@! TO.P,R22,1*
G04 #@! TO.N,Net-(POT_LENGTH1-Center)*
X16916648Y81999922D03*
G04 #@! TO.P,R22,2*
G04 #@! TO.N,Net-(U3B-+)*
X16916648Y82969922D03*
G04 #@! TD*
G04 #@! TO.P,C3,1*
G04 #@! TO.N,+3V3*
X30380148Y69961600D03*
G04 #@! TO.P,C3,2*
G04 #@! TO.N,GND*
X30380148Y70931600D03*
G04 #@! TD*
D18*
G04 #@! TO.P,C38,1*
G04 #@! TO.N,+12V*
X26671648Y8054922D03*
G04 #@! TO.P,C38,2*
G04 #@! TO.N,GND*
X26671648Y7084922D03*
G04 #@! TD*
D17*
G04 #@! TO.P,U12,1*
G04 #@! TO.N,Net-(C149-Pad1)*
X46216648Y7224922D03*
G04 #@! TO.P,U12,2,-*
G04 #@! TO.N,Net-(U12A--)*
X46216648Y7874922D03*
G04 #@! TO.P,U12,3,+*
G04 #@! TO.N,Net-(U12A-+)*
X46216648Y8524922D03*
G04 #@! TO.P,U12,4,V-*
G04 #@! TO.N,-12VA*
X46216648Y9174922D03*
G04 #@! TO.P,U12,5,+*
G04 #@! TO.N,Net-(U12B-+)*
X40316648Y9174922D03*
G04 #@! TO.P,U12,6,-*
G04 #@! TO.N,Net-(U12B--)*
X40316648Y8524922D03*
G04 #@! TO.P,U12,7*
G04 #@! TO.N,Net-(C147-Pad1)*
X40316648Y7874922D03*
G04 #@! TO.P,U12,8,V+*
G04 #@! TO.N,+12V*
X40316648Y7224922D03*
G04 #@! TD*
D20*
G04 #@! TO.P,C72,1*
G04 #@! TO.N,-12VA*
X48651648Y14784672D03*
G04 #@! TO.P,C72,2*
G04 #@! TO.N,GND*
X49621648Y14784672D03*
G04 #@! TD*
D13*
G04 #@! TO.P,R24,1*
G04 #@! TO.N,GND*
X21716648Y29509922D03*
G04 #@! TO.P,R24,2*
G04 #@! TO.N,Net-(R16-Pad2)*
X21716648Y31209922D03*
G04 #@! TD*
G04 #@! TO.P,C52,1*
G04 #@! TO.N,Net-(C52-Pad1)*
X40726648Y18109922D03*
G04 #@! TO.P,C52,2*
G04 #@! TO.N,Net-(U11A--)*
X40726648Y19809922D03*
G04 #@! TD*
G04 #@! TO.P,R77,1*
G04 #@! TO.N,+3V3*
X23030000Y78970000D03*
G04 #@! TO.P,R77,2*
G04 #@! TO.N,/D18*
X24730000Y78970000D03*
G04 #@! TD*
G04 #@! TO.P,C58,1*
G04 #@! TO.N,Net-(U13-BST)*
X15022648Y59203922D03*
G04 #@! TO.P,C58,2*
G04 #@! TO.N,Net-(U13-SW)*
X15022648Y60903922D03*
G04 #@! TD*
D20*
G04 #@! TO.P,C9,1*
G04 #@! TO.N,+3V3*
X36095148Y62956600D03*
G04 #@! TO.P,C9,2*
G04 #@! TO.N,GND*
X37065148Y62956600D03*
G04 #@! TD*
G04 #@! TO.P,C29,1*
G04 #@! TO.N,+3V3*
X32035148Y52516600D03*
G04 #@! TO.P,C29,2*
G04 #@! TO.N,GND*
X33005148Y52516600D03*
G04 #@! TD*
D31*
G04 #@! TO.P,C21,1*
G04 #@! TO.N,+12V*
X4650000Y32280000D03*
G04 #@! TO.P,C21,2*
G04 #@! TO.N,GND*
X9050000Y32280000D03*
G04 #@! TD*
D14*
G04 #@! TO.P,C97,1*
G04 #@! TO.N,Net-(D15-AK)*
X44960000Y54115000D03*
G04 #@! TO.P,C97,2*
G04 #@! TO.N,GND*
X44960000Y55085000D03*
G04 #@! TD*
D13*
G04 #@! TO.P,R13,1*
G04 #@! TO.N,/D3*
X13446648Y97429922D03*
G04 #@! TO.P,R13,2*
G04 #@! TO.N,Net-(REV_BUT1-B)*
X11746648Y97429922D03*
G04 #@! TD*
G04 #@! TO.P,R26,1*
G04 #@! TO.N,GND*
X20436648Y39669922D03*
G04 #@! TO.P,R26,2*
G04 #@! TO.N,Net-(R20-Pad2)*
X18736648Y39669922D03*
G04 #@! TD*
D12*
G04 #@! TO.P,C18,1*
G04 #@! TO.N,+3V3*
X23040148Y66686600D03*
G04 #@! TO.P,C18,2*
G04 #@! TO.N,GND*
X22070148Y66686600D03*
G04 #@! TD*
D13*
G04 #@! TO.P,R31,1*
G04 #@! TO.N,GND*
X12100000Y30580000D03*
G04 #@! TO.P,R31,2*
G04 #@! TO.N,Net-(Q11-G)*
X12100000Y32280000D03*
G04 #@! TD*
G04 #@! TO.P,C54,1*
G04 #@! TO.N,/D12*
X22836648Y106859922D03*
G04 #@! TO.P,C54,2*
G04 #@! TO.N,GND*
X24536648Y106859922D03*
G04 #@! TD*
D18*
G04 #@! TO.P,C10,1*
G04 #@! TO.N,+3V3*
X32410148Y56681600D03*
G04 #@! TO.P,C10,2*
G04 #@! TO.N,GND*
X32410148Y55711600D03*
G04 #@! TD*
G04 #@! TO.P,R33,1*
G04 #@! TO.N,Net-(R17-Pad2)*
X8727564Y43949922D03*
G04 #@! TO.P,R33,2*
G04 #@! TO.N,Net-(D26-AK)*
X8727564Y42979922D03*
G04 #@! TD*
D13*
G04 #@! TO.P,R63,1*
G04 #@! TO.N,Net-(C84-Pad2)*
X26741648Y9589922D03*
G04 #@! TO.P,R63,2*
G04 #@! TO.N,Net-(J15-SIG)*
X26741648Y11289922D03*
G04 #@! TD*
D30*
G04 #@! TO.P,U16,1*
G04 #@! TO.N,Net-(U16A--)*
X28246648Y1729922D03*
G04 #@! TO.P,U16,2,-*
X28896648Y1729922D03*
G04 #@! TO.P,U16,3,+*
G04 #@! TO.N,GND*
X29546648Y1729922D03*
G04 #@! TO.P,U16,4,V-*
G04 #@! TO.N,-12VA*
X30196648Y1729922D03*
G04 #@! TO.P,U16,5,+*
G04 #@! TO.N,Net-(U16B-+)*
X30196648Y7629922D03*
G04 #@! TO.P,U16,6,-*
G04 #@! TO.N,Net-(U16B--)*
X29546648Y7629922D03*
G04 #@! TO.P,U16,7*
G04 #@! TO.N,Net-(C84-Pad2)*
X28896648Y7629922D03*
G04 #@! TO.P,U16,8,V+*
G04 #@! TO.N,+12V*
X28246648Y7629922D03*
G04 #@! TD*
D12*
G04 #@! TO.P,C19,1*
G04 #@! TO.N,GND*
X6471648Y7369922D03*
G04 #@! TO.P,C19,2*
X5501648Y7369922D03*
G04 #@! TD*
G04 #@! TO.P,R81,1*
G04 #@! TO.N,Net-(U10B--)*
X24086648Y30239922D03*
G04 #@! TO.P,R81,2*
G04 #@! TO.N,/A5*
X23116648Y30239922D03*
G04 #@! TD*
D20*
G04 #@! TO.P,C62,1*
G04 #@! TO.N,-12VA*
X11321648Y86204922D03*
G04 #@! TO.P,C62,2*
G04 #@! TO.N,GND*
X12291648Y86204922D03*
G04 #@! TD*
D18*
G04 #@! TO.P,R158,1*
G04 #@! TO.N,Net-(U12B--)*
X38470480Y6704922D03*
G04 #@! TO.P,R158,2*
G04 #@! TO.N,Net-(C152-Pad1)*
X38470480Y5734922D03*
G04 #@! TD*
D20*
G04 #@! TO.P,C14,1*
G04 #@! TO.N,+3V3*
X36095148Y63996600D03*
G04 #@! TO.P,C14,2*
G04 #@! TO.N,GND*
X37065148Y63996600D03*
G04 #@! TD*
D18*
G04 #@! TO.P,C152,1*
G04 #@! TO.N,Net-(C152-Pad1)*
X38360480Y4614922D03*
G04 #@! TO.P,C152,2*
G04 #@! TO.N,Net-(C152-Pad2)*
X38360480Y3644922D03*
G04 #@! TD*
D17*
G04 #@! TO.P,U1,1*
G04 #@! TO.N,Net-(U1A--)*
X53906648Y61184922D03*
G04 #@! TO.P,U1,2,-*
X53906648Y61834922D03*
G04 #@! TO.P,U1,3,+*
G04 #@! TO.N,Net-(U1A-+)*
X53906648Y62484922D03*
G04 #@! TO.P,U1,4,V-*
G04 #@! TO.N,-12VA*
X53906648Y63134922D03*
G04 #@! TO.P,U1,5,+*
G04 #@! TO.N,Net-(U1B-+)*
X48006648Y63134922D03*
G04 #@! TO.P,U1,6,-*
G04 #@! TO.N,Net-(U1B--)*
X48006648Y62484922D03*
G04 #@! TO.P,U1,7*
X48006648Y61834922D03*
G04 #@! TO.P,U1,8,V+*
G04 #@! TO.N,+12V*
X48006648Y61184922D03*
G04 #@! TD*
D13*
G04 #@! TO.P,R9,1*
G04 #@! TO.N,Net-(J8-SIG)*
X43296648Y41699922D03*
G04 #@! TO.P,R9,2*
G04 #@! TO.N,Net-(U15A-+)*
X43296648Y43399922D03*
G04 #@! TD*
G04 #@! TO.P,R64,1*
G04 #@! TO.N,/D5*
X52856648Y97489922D03*
G04 #@! TO.P,R64,2*
G04 #@! TO.N,Net-(Bank_But1-B)*
X51156648Y97489922D03*
G04 #@! TD*
D14*
G04 #@! TO.P,R67,1*
G04 #@! TO.N,Net-(U13-FB)*
X15706493Y55384922D03*
G04 #@! TO.P,R67,2*
G04 #@! TO.N,GND*
X15706493Y56354922D03*
G04 #@! TD*
D12*
G04 #@! TO.P,R4,1*
G04 #@! TO.N,GND*
X37205148Y61726600D03*
G04 #@! TO.P,R4,2*
G04 #@! TO.N,Net-(U2B-OTG_HR_REXT)*
X36235148Y61726600D03*
G04 #@! TD*
D16*
G04 #@! TO.P,V2,1,VI*
G04 #@! TO.N,Net-(JP3-B)*
X10306648Y69659922D03*
G04 #@! TO.P,V2,2,VO*
G04 #@! TO.N,+3.3VADC*
X12206648Y69659922D03*
G04 #@! TO.P,V2,3,GND*
G04 #@! TO.N,GNDADC*
X11256648Y71658902D03*
G04 #@! TD*
D12*
G04 #@! TO.P,R27,1*
G04 #@! TO.N,Net-(R20-Pad2)*
X17051648Y39409922D03*
G04 #@! TO.P,R27,2*
G04 #@! TO.N,Net-(D22-AK)*
X16081648Y39409922D03*
G04 #@! TD*
D14*
G04 #@! TO.P,C7,1*
G04 #@! TO.N,+3V3*
X27320148Y69941600D03*
G04 #@! TO.P,C7,2*
G04 #@! TO.N,GND*
X27320148Y70911600D03*
G04 #@! TD*
D12*
G04 #@! TO.P,C78,1*
G04 #@! TO.N,-12VA*
X43971648Y10679922D03*
G04 #@! TO.P,C78,2*
G04 #@! TO.N,GND*
X43001648Y10679922D03*
G04 #@! TD*
D13*
G04 #@! TO.P,R35,1*
G04 #@! TO.N,/D10*
X3396648Y101929922D03*
G04 #@! TO.P,R35,2*
G04 #@! TO.N,Net-(REV_BUT1-G)*
X5096648Y101929922D03*
G04 #@! TD*
D12*
G04 #@! TO.P,R34,1*
G04 #@! TO.N,Net-(U5B--)*
X6822564Y40244922D03*
G04 #@! TO.P,R34,2*
G04 #@! TO.N,/A4*
X5852564Y40244922D03*
G04 #@! TD*
D13*
G04 #@! TO.P,R56,1*
G04 #@! TO.N,Net-(C46-Pad1)*
X53046648Y43074922D03*
G04 #@! TO.P,R56,2*
G04 #@! TO.N,Net-(U15B--)*
X53046648Y41374922D03*
G04 #@! TD*
D14*
G04 #@! TO.P,C85,1*
G04 #@! TO.N,Net-(D26-AK)*
X4087564Y42959922D03*
G04 #@! TO.P,C85,2*
G04 #@! TO.N,GND*
X4087564Y43929922D03*
G04 #@! TD*
D13*
G04 #@! TO.P,C48,1*
G04 #@! TO.N,Net-(C48-Pad1)*
X37871648Y19639922D03*
G04 #@! TO.P,C48,2*
G04 #@! TO.N,Net-(U11B--)*
X36171648Y19639922D03*
G04 #@! TD*
G04 #@! TO.P,R36,1*
G04 #@! TO.N,/A6*
X5196648Y104299922D03*
G04 #@! TO.P,R36,2*
G04 #@! TO.N,Net-(REV_BUT1-POLE-A)*
X5196648Y105999922D03*
G04 #@! TD*
D14*
G04 #@! TO.P,R159,1*
G04 #@! TO.N,Net-(U12B-+)*
X38656648Y8704922D03*
G04 #@! TO.P,R159,2*
G04 #@! TO.N,Net-(C152-Pad2)*
X38656648Y9674922D03*
G04 #@! TD*
G04 #@! TO.P,C50,1*
G04 #@! TO.N,+3V3*
X29440148Y69941600D03*
G04 #@! TO.P,C50,2*
G04 #@! TO.N,GND*
X29440148Y70911600D03*
G04 #@! TD*
D32*
G04 #@! TO.P,L1,1,1*
G04 #@! TO.N,Net-(U13-SW)*
X13296648Y59509922D03*
G04 #@! TO.P,L1,2,2*
G04 #@! TO.N,+3V3*
X10496648Y59509922D03*
G04 #@! TD*
D18*
G04 #@! TO.P,C12,1*
G04 #@! TO.N,+3V3*
X29810148Y56671600D03*
G04 #@! TO.P,C12,2*
G04 #@! TO.N,GND*
X29810148Y55701600D03*
G04 #@! TD*
D19*
G04 #@! TO.P,NT1,1,1*
G04 #@! TO.N,GNDA*
X57920000Y27040000D03*
G04 #@! TO.P,NT1,2,2*
G04 #@! TO.N,GND*
X57920000Y26040000D03*
G04 #@! TD*
D18*
G04 #@! TO.P,R6,1*
G04 #@! TO.N,/ROUT+*
X40896648Y11644922D03*
G04 #@! TO.P,R6,2*
G04 #@! TO.N,Net-(C152-Pad1)*
X40896648Y10674922D03*
G04 #@! TD*
D12*
G04 #@! TO.P,R8,1*
G04 #@! TO.N,GND*
X30371648Y71929922D03*
G04 #@! TO.P,R8,2*
G04 #@! TO.N,/BOOT0*
X29401648Y71929922D03*
G04 #@! TD*
D13*
G04 #@! TO.P,R60,1*
G04 #@! TO.N,/D15*
X31986648Y6369922D03*
G04 #@! TO.P,R60,2*
G04 #@! TO.N,Net-(U16B-+)*
X31986648Y4669922D03*
G04 #@! TD*
D17*
G04 #@! TO.P,U3,1*
G04 #@! TO.N,Net-(U3A--)*
X9376648Y84654922D03*
G04 #@! TO.P,U3,2,-*
X9376648Y84004922D03*
G04 #@! TO.P,U3,3,+*
G04 #@! TO.N,Net-(U3A-+)*
X9376648Y83354922D03*
G04 #@! TO.P,U3,4,V-*
G04 #@! TO.N,-12VA*
X9376648Y82704922D03*
G04 #@! TO.P,U3,5,+*
G04 #@! TO.N,Net-(U3B-+)*
X15276648Y82704922D03*
G04 #@! TO.P,U3,6,-*
G04 #@! TO.N,Net-(U3B--)*
X15276648Y83354922D03*
G04 #@! TO.P,U3,7*
X15276648Y84004922D03*
G04 #@! TO.P,U3,8,V+*
G04 #@! TO.N,+12V*
X15276648Y84654922D03*
G04 #@! TD*
D13*
G04 #@! TO.P,R15,1*
G04 #@! TO.N,Net-(J2-SIG)*
X35806648Y37409922D03*
G04 #@! TO.P,R15,2*
G04 #@! TO.N,Net-(R1-Pad1)*
X35806648Y35709922D03*
G04 #@! TD*
D14*
G04 #@! TO.P,C15,1*
G04 #@! TO.N,GND*
X19590000Y60125000D03*
G04 #@! TO.P,C15,2*
G04 #@! TO.N,/NRST*
X19590000Y61095000D03*
G04 #@! TD*
D25*
G04 #@! TO.P,J10,10,+12V*
G04 #@! TO.N,Net-(D16-A)*
X14936648Y23659922D03*
G04 #@! TO.P,J10,9,+12V*
X17476648Y23659922D03*
G04 #@! TO.P,J10,8,GND*
G04 #@! TO.N,GND*
X14936648Y21119922D03*
G04 #@! TO.P,J10,7,GND*
X17476648Y21119922D03*
G04 #@! TO.P,J10,6,GND*
X14936648Y18579922D03*
G04 #@! TO.P,J10,5,GND*
X17476648Y18579922D03*
G04 #@! TO.P,J10,4,GND*
X14936648Y16039922D03*
G04 #@! TO.P,J10,3,GND*
X17476648Y16039922D03*
G04 #@! TO.P,J10,2,-12V*
G04 #@! TO.N,Net-(D17-K)*
X14936648Y13499922D03*
G04 #@! TO.P,J10,1,-12V*
X17476648Y13499922D03*
G04 #@! TD*
D20*
G04 #@! TO.P,C77,1*
G04 #@! TO.N,+12V*
X41586648Y5679922D03*
G04 #@! TO.P,C77,2*
G04 #@! TO.N,GND*
X42556648Y5679922D03*
G04 #@! TD*
D12*
G04 #@! TO.P,R157,1*
G04 #@! TO.N,Net-(C147-Pad1)*
X40550480Y4609922D03*
G04 #@! TO.P,R157,2*
G04 #@! TO.N,Net-(C152-Pad1)*
X39580480Y4609922D03*
G04 #@! TD*
D18*
G04 #@! TO.P,C82,1*
G04 #@! TO.N,Net-(D1-AK)*
X28866648Y34804922D03*
G04 #@! TO.P,C82,2*
G04 #@! TO.N,GND*
X28866648Y33834922D03*
G04 #@! TD*
D12*
G04 #@! TO.P,C149,1*
G04 #@! TO.N,Net-(C149-Pad1)*
X47406648Y5759922D03*
G04 #@! TO.P,C149,2*
G04 #@! TO.N,Net-(U12A--)*
X46436648Y5759922D03*
G04 #@! TD*
D20*
G04 #@! TO.P,C86,1*
G04 #@! TO.N,Net-(D22-AK)*
X17391648Y41969922D03*
G04 #@! TO.P,C86,2*
G04 #@! TO.N,GND*
X18361648Y41969922D03*
G04 #@! TD*
D18*
G04 #@! TO.P,R54,1*
G04 #@! TO.N,/RIN*
X39246648Y19989922D03*
G04 #@! TO.P,R54,2*
G04 #@! TO.N,Net-(C48-Pad1)*
X39246648Y19019922D03*
G04 #@! TD*
D13*
G04 #@! TO.P,C56,1*
G04 #@! TO.N,VREF+*
X4600000Y65280000D03*
G04 #@! TO.P,C56,2*
G04 #@! TO.N,GND*
X6300000Y65280000D03*
G04 #@! TD*
G04 #@! TO.P,R25,1*
G04 #@! TO.N,GND*
X4917564Y45744922D03*
G04 #@! TO.P,R25,2*
G04 #@! TO.N,Net-(R17-Pad2)*
X6617564Y45744922D03*
G04 #@! TD*
D16*
G04 #@! TO.P,D3,1,Anode*
G04 #@! TO.N,GND*
X6685888Y24409922D03*
G04 #@! TO.P,D3,2,cathode*
G04 #@! TO.N,+3V3*
X6685888Y22509922D03*
G04 #@! TO.P,D3,3,AK*
G04 #@! TO.N,/D13*
X8684868Y23459922D03*
G04 #@! TD*
D20*
G04 #@! TO.P,R28,1*
G04 #@! TO.N,Net-(U5A--)*
X16061648Y40759922D03*
G04 #@! TO.P,R28,2*
G04 #@! TO.N,/A8*
X17031648Y40759922D03*
G04 #@! TD*
D23*
G04 #@! TO.P,C68,1*
G04 #@! TO.N,+3V3*
X6115052Y61138378D03*
G04 #@! TO.P,C68,2*
G04 #@! TO.N,GND*
X6115052Y58238378D03*
G04 #@! TD*
D16*
G04 #@! TO.P,D7,1,Anode*
G04 #@! TO.N,GND*
X5675888Y5999922D03*
G04 #@! TO.P,D7,2,cathode*
G04 #@! TO.N,+3V3*
X5675888Y4099922D03*
G04 #@! TO.P,D7,3,AK*
G04 #@! TO.N,GND*
X7674868Y5049922D03*
G04 #@! TD*
D17*
G04 #@! TO.P,U5,1*
G04 #@! TO.N,Net-(U5A--)*
X14456648Y39404922D03*
G04 #@! TO.P,U5,2,-*
X14456648Y40054922D03*
G04 #@! TO.P,U5,3,+*
G04 #@! TO.N,Net-(D22-AK)*
X14456648Y40704922D03*
G04 #@! TO.P,U5,4,V-*
G04 #@! TO.N,-12VA*
X14456648Y41354922D03*
G04 #@! TO.P,U5,5,+*
G04 #@! TO.N,Net-(D26-AK)*
X8556648Y41354922D03*
G04 #@! TO.P,U5,6,-*
G04 #@! TO.N,Net-(U5B--)*
X8556648Y40704922D03*
G04 #@! TO.P,U5,7*
X8556648Y40054922D03*
G04 #@! TO.P,U5,8,V+*
G04 #@! TO.N,+12V*
X8556648Y39404922D03*
G04 #@! TD*
D20*
G04 #@! TO.P,C53,1*
G04 #@! TO.N,+3V3*
X36205148Y60656600D03*
G04 #@! TO.P,C53,2*
G04 #@! TO.N,GND*
X37175148Y60656600D03*
G04 #@! TD*
D16*
G04 #@! TO.P,D26,1,Anode*
G04 #@! TO.N,GND*
X5356804Y44034922D03*
G04 #@! TO.P,D26,2,cathode*
G04 #@! TO.N,+3V3*
X5356804Y42134922D03*
G04 #@! TO.P,D26,3,AK*
G04 #@! TO.N,Net-(D26-AK)*
X7355784Y43084922D03*
G04 #@! TD*
D14*
G04 #@! TO.P,R45,1*
G04 #@! TO.N,Net-(POT_SAMP1-Center)*
X7756648Y82234922D03*
G04 #@! TO.P,R45,2*
G04 #@! TO.N,Net-(U3A-+)*
X7756648Y83204922D03*
G04 #@! TD*
D13*
G04 #@! TO.P,R17,1*
G04 #@! TO.N,Net-(J9-SIG)*
X9917564Y45484922D03*
G04 #@! TO.P,R17,2*
G04 #@! TO.N,Net-(R17-Pad2)*
X8217564Y45484922D03*
G04 #@! TD*
D19*
G04 #@! TO.P,U4,A1,GND*
G04 #@! TO.N,GND*
X32200148Y43766600D03*
G04 #@! TO.P,U4,A2,DQ15*
G04 #@! TO.N,/SD-D15*
X31400148Y43766600D03*
G04 #@! TO.P,U4,A3,GNDQ*
G04 #@! TO.N,GND*
X30600148Y43766600D03*
G04 #@! TO.P,U4,A7,VDDQ*
G04 #@! TO.N,+3V3*
X27400148Y43766600D03*
G04 #@! TO.P,U4,A8,DQ0*
G04 #@! TO.N,/SD-D0*
X26600148Y43766600D03*
G04 #@! TO.P,U4,A9,VDD*
G04 #@! TO.N,+3V3*
X25800148Y43766600D03*
G04 #@! TO.P,U4,B1,DQ14*
G04 #@! TO.N,/SD-D14*
X32200148Y44566600D03*
G04 #@! TO.P,U4,B2,DQ13*
G04 #@! TO.N,/SD-D13*
X31400148Y44566600D03*
G04 #@! TO.P,U4,B3,VDDQ*
G04 #@! TO.N,+3V3*
X30600148Y44566600D03*
G04 #@! TO.P,U4,B7,GNDQ*
G04 #@! TO.N,GND*
X27400148Y44566600D03*
G04 #@! TO.P,U4,B8,DQ2*
G04 #@! TO.N,/SD-D2*
X26600148Y44566600D03*
G04 #@! TO.P,U4,B9,DQ1*
G04 #@! TO.N,/SD-D1*
X25800148Y44566600D03*
G04 #@! TO.P,U4,C1,DQ12*
G04 #@! TO.N,/SD-D12*
X32200148Y45366600D03*
G04 #@! TO.P,U4,C2,DQ11*
G04 #@! TO.N,/SD-D11*
X31400148Y45366600D03*
G04 #@! TO.P,U4,C3,GNDQ*
G04 #@! TO.N,GND*
X30600148Y45366600D03*
G04 #@! TO.P,U4,C7,VDDQ*
G04 #@! TO.N,+3V3*
X27400148Y45366600D03*
G04 #@! TO.P,U4,C8,DQ4*
G04 #@! TO.N,/SD-D4*
X26600148Y45366600D03*
G04 #@! TO.P,U4,C9,DQ3*
G04 #@! TO.N,/SD-D3*
X25800148Y45366600D03*
G04 #@! TO.P,U4,D1,DQ10*
G04 #@! TO.N,/SD-D10*
X32200148Y46166600D03*
G04 #@! TO.P,U4,D2,DQ9*
G04 #@! TO.N,/SD-D9*
X31400148Y46166600D03*
G04 #@! TO.P,U4,D3,VDDQ*
G04 #@! TO.N,+3V3*
X30600148Y46166600D03*
G04 #@! TO.P,U4,D7,GNDQ*
G04 #@! TO.N,GND*
X27400148Y46166600D03*
G04 #@! TO.P,U4,D8,DQ6*
G04 #@! TO.N,/SD-D6*
X26600148Y46166600D03*
G04 #@! TO.P,U4,D9,DQ5*
G04 #@! TO.N,/SD-D5*
X25800148Y46166600D03*
G04 #@! TO.P,U4,E1,DQ8*
G04 #@! TO.N,/SD-D8*
X32200148Y46966600D03*
G04 #@! TO.P,U4,E2,NC*
G04 #@! TO.N,unconnected-(U4-NC-PadE2)*
X31400148Y46966600D03*
G04 #@! TO.P,U4,E3,GND*
G04 #@! TO.N,GND*
X30600148Y46966600D03*
G04 #@! TO.P,U4,E7,VDD*
G04 #@! TO.N,+3V3*
X27400148Y46966600D03*
G04 #@! TO.P,U4,E8,DQML*
G04 #@! TO.N,/SD-NBL0*
X26600148Y46966600D03*
G04 #@! TO.P,U4,E9,DQ7*
G04 #@! TO.N,/SD-D7*
X25800148Y46966600D03*
G04 #@! TO.P,U4,F1,DQMH*
G04 #@! TO.N,/SD-NBL1*
X32200148Y47766600D03*
G04 #@! TO.P,U4,F2,CLK*
G04 #@! TO.N,/SD-CLK*
X31400148Y47766600D03*
G04 #@! TO.P,U4,F3,CKE*
G04 #@! TO.N,/SD-CKE1*
X30600148Y47766600D03*
G04 #@! TO.P,U4,F7,~{CAS}*
G04 #@! TO.N,/SD-NCAS*
X27400148Y47766600D03*
G04 #@! TO.P,U4,F8,~{RAS}*
G04 #@! TO.N,/SD-NRAS*
X26600148Y47766600D03*
G04 #@! TO.P,U4,F9,~{WE}*
G04 #@! TO.N,/SD-NWE*
X25800148Y47766600D03*
G04 #@! TO.P,U4,G1,A12/NC*
G04 #@! TO.N,/SD-A12*
X32200148Y48566600D03*
G04 #@! TO.P,U4,G2,A11*
G04 #@! TO.N,/SD-A11*
X31400148Y48566600D03*
G04 #@! TO.P,U4,G3,A9*
G04 #@! TO.N,/SD-A9*
X30600148Y48566600D03*
G04 #@! TO.P,U4,G7,BA0*
G04 #@! TO.N,/SD-BA0*
X27400148Y48566600D03*
G04 #@! TO.P,U4,G8,BA1*
G04 #@! TO.N,/SD-BA1*
X26600148Y48566600D03*
G04 #@! TO.P,U4,G9,~{CS}*
G04 #@! TO.N,/SD-NE1*
X25800148Y48566600D03*
G04 #@! TO.P,U4,H1,A8*
G04 #@! TO.N,/SD-A8*
X32200148Y49366600D03*
G04 #@! TO.P,U4,H2,A7*
G04 #@! TO.N,/SD-A7*
X31400148Y49366600D03*
G04 #@! TO.P,U4,H3,A6*
G04 #@! TO.N,/SD-A6*
X30600148Y49366600D03*
G04 #@! TO.P,U4,H7,A0*
G04 #@! TO.N,/SD-A0*
X27400148Y49366600D03*
G04 #@! TO.P,U4,H8,A1*
G04 #@! TO.N,/SD-A1*
X26600148Y49366600D03*
G04 #@! TO.P,U4,H9,A10*
G04 #@! TO.N,/SD-A10*
X25800148Y49366600D03*
G04 #@! TO.P,U4,J1,GND*
G04 #@! TO.N,GND*
X32200148Y50166600D03*
G04 #@! TO.P,U4,J2,A5*
G04 #@! TO.N,/SD-A5*
X31400148Y50166600D03*
G04 #@! TO.P,U4,J3,A4*
G04 #@! TO.N,/SD-A4*
X30600148Y50166600D03*
G04 #@! TO.P,U4,J7,A3*
G04 #@! TO.N,/SD-A3*
X27400148Y50166600D03*
G04 #@! TO.P,U4,J8,A2*
G04 #@! TO.N,/SD-A2*
X26600148Y50166600D03*
G04 #@! TO.P,U4,J9,VDD*
G04 #@! TO.N,+3V3*
X25800148Y50166600D03*
G04 #@! TD*
D14*
G04 #@! TO.P,C40,1*
G04 #@! TO.N,-12VA*
X31616648Y1994922D03*
G04 #@! TO.P,C40,2*
G04 #@! TO.N,GND*
X31616648Y2964922D03*
G04 #@! TD*
D11*
G04 #@! TO.P,D17,1,K*
G04 #@! TO.N,Net-(D17-K)*
X16316648Y7159922D03*
G04 #@! TO.P,D17,2,A*
G04 #@! TO.N,Net-(D17-A)*
X13016648Y7159922D03*
G04 #@! TD*
D12*
G04 #@! TO.P,C71,1*
G04 #@! TO.N,+12V*
X53411648Y19729672D03*
G04 #@! TO.P,C71,2*
G04 #@! TO.N,GND*
X52441648Y19729672D03*
G04 #@! TD*
D13*
G04 #@! TO.P,C16,1*
G04 #@! TO.N,Net-(D16-K)*
X13850000Y30530000D03*
G04 #@! TO.P,C16,2*
G04 #@! TO.N,Net-(Q11-G)*
X13850000Y32230000D03*
G04 #@! TD*
G04 #@! TO.P,C84,1*
G04 #@! TO.N,Net-(U16B--)*
X30181648Y9489922D03*
G04 #@! TO.P,C84,2*
G04 #@! TO.N,Net-(C84-Pad2)*
X28481648Y9489922D03*
G04 #@! TD*
D12*
G04 #@! TO.P,R1,1*
G04 #@! TO.N,Net-(R1-Pad1)*
X34181648Y31389922D03*
G04 #@! TO.P,R1,2*
G04 #@! TO.N,Net-(D1-AK)*
X33211648Y31389922D03*
G04 #@! TD*
D20*
G04 #@! TO.P,R46,1*
G04 #@! TO.N,Net-(U3A--)*
X8996648Y86174922D03*
G04 #@! TO.P,R46,2*
G04 #@! TO.N,/A9*
X9966648Y86174922D03*
G04 #@! TD*
D33*
G04 #@! TO.P,C43,1*
G04 #@! TO.N,+3V3*
X21740000Y89140000D03*
G04 #@! TO.P,C43,2*
G04 #@! TO.N,GND*
X24640000Y89140000D03*
G04 #@! TD*
D13*
G04 #@! TO.P,R58,1*
G04 #@! TO.N,Net-(J11-SIG)*
X9296648Y4109922D03*
G04 #@! TO.P,R58,2*
G04 #@! TO.N,GND*
X9296648Y5809922D03*
G04 #@! TD*
G04 #@! TO.P,C81,1*
G04 #@! TO.N,Net-(JP3-B)*
X8606648Y69790682D03*
G04 #@! TO.P,C81,2*
G04 #@! TO.N,GNDADC*
X8606648Y68090682D03*
G04 #@! TD*
D17*
G04 #@! TO.P,U8,1*
G04 #@! TO.N,Net-(U8A--)*
X47126648Y18279672D03*
G04 #@! TO.P,U8,2,-*
X47126648Y17629672D03*
G04 #@! TO.P,U8,3,+*
G04 #@! TO.N,Net-(U8A-+)*
X47126648Y16979672D03*
G04 #@! TO.P,U8,4,V-*
G04 #@! TO.N,-12VA*
X47126648Y16329672D03*
G04 #@! TO.P,U8,5,+*
G04 #@! TO.N,/VCOM*
X53026648Y16329672D03*
G04 #@! TO.P,U8,6,-*
G04 #@! TO.N,Net-(U8B--)*
X53026648Y16979672D03*
G04 #@! TO.P,U8,7*
G04 #@! TO.N,Net-(C57-Pad1)*
X53026648Y17629672D03*
G04 #@! TO.P,U8,8,V+*
G04 #@! TO.N,+12V*
X53026648Y18279672D03*
G04 #@! TD*
D13*
G04 #@! TO.P,R75,1*
G04 #@! TO.N,Net-(PLAY_BUT1-G)*
X24496648Y100589922D03*
G04 #@! TO.P,R75,2*
G04 #@! TO.N,/D14*
X22796648Y100589922D03*
G04 #@! TD*
G04 #@! TO.P,R32,1*
G04 #@! TO.N,Net-(U15A--)*
X46646648Y45424922D03*
G04 #@! TO.P,R32,2*
G04 #@! TO.N,Net-(U15B--)*
X48346648Y45424922D03*
G04 #@! TD*
D12*
G04 #@! TO.P,C41,1*
G04 #@! TO.N,+3V3*
X48131648Y35059922D03*
G04 #@! TO.P,C41,2*
G04 #@! TO.N,GND*
X47161648Y35059922D03*
G04 #@! TD*
D13*
G04 #@! TO.P,C80,1*
G04 #@! TO.N,+3.3VADC*
X12016648Y68090682D03*
G04 #@! TO.P,C80,2*
G04 #@! TO.N,GNDADC*
X10316648Y68090682D03*
G04 #@! TD*
D16*
G04 #@! TO.P,Q12,1,G*
G04 #@! TO.N,Net-(Q12-G)*
X12930000Y3300760D03*
G04 #@! TO.P,Q12,2,S*
G04 #@! TO.N,Net-(D17-A)*
X11030000Y3300760D03*
G04 #@! TO.P,Q12,3,D*
G04 #@! TO.N,-12VA*
X11980000Y1301780D03*
G04 #@! TD*
D12*
G04 #@! TO.P,C153,1*
G04 #@! TO.N,Net-(C153-Pad1)*
X49586648Y7259922D03*
G04 #@! TO.P,C153,2*
G04 #@! TO.N,Net-(C153-Pad2)*
X48616648Y7259922D03*
G04 #@! TD*
D34*
G04 #@! TO.P,JP3,1,A*
G04 #@! TO.N,+12V*
X9025000Y71005000D03*
G04 #@! TO.P,JP3,2,B*
G04 #@! TO.N,Net-(JP3-B)*
X8484200Y71005000D03*
G04 #@! TD*
D16*
G04 #@! TO.P,V1,1,GND*
G04 #@! TO.N,GNDA*
X54602668Y28917422D03*
G04 #@! TO.P,V1,2,VO*
G04 #@! TO.N,+5V*
X54602668Y27017422D03*
G04 #@! TO.P,V1,3,VI*
G04 #@! TO.N,Net-(JP4-B)*
X56601648Y27967422D03*
G04 #@! TD*
D14*
G04 #@! TO.P,C75,1*
G04 #@! TO.N,+12V*
X34196648Y24094922D03*
G04 #@! TO.P,C75,2*
G04 #@! TO.N,GND*
X34196648Y25064922D03*
G04 #@! TD*
G04 #@! TO.P,C34,1*
G04 #@! TO.N,Net-(D24-AK)*
X25966648Y33574922D03*
G04 #@! TO.P,C34,2*
G04 #@! TO.N,GND*
X25966648Y34544922D03*
G04 #@! TD*
D13*
G04 #@! TO.P,C23,1*
G04 #@! TO.N,/OSC_OUT*
X15866648Y63819922D03*
G04 #@! TO.P,C23,2*
G04 #@! TO.N,GND*
X15866648Y65519922D03*
G04 #@! TD*
D12*
G04 #@! TO.P,R43,1*
G04 #@! TO.N,Net-(U8B--)*
X52341648Y14854672D03*
G04 #@! TO.P,R43,2*
G04 #@! TO.N,Net-(C90-Pad1)*
X51371648Y14854672D03*
G04 #@! TD*
D15*
G04 #@! TO.P,C69,1*
G04 #@! TO.N,+3V3*
X6060000Y63040000D03*
G04 #@! TO.P,C69,2*
G04 #@! TO.N,GND*
X7960000Y63040000D03*
G04 #@! TD*
D14*
G04 #@! TO.P,C148,1*
G04 #@! TO.N,GNDA*
X37136648Y6424922D03*
G04 #@! TO.P,C148,2*
G04 #@! TO.N,Net-(U12B-+)*
X37136648Y7394922D03*
G04 #@! TD*
D13*
G04 #@! TO.P,R16,1*
G04 #@! TO.N,Net-(J6-SIG)*
X21046648Y34649922D03*
G04 #@! TO.P,R16,2*
G04 #@! TO.N,Net-(R16-Pad2)*
X21046648Y32949922D03*
G04 #@! TD*
D35*
G04 #@! TO.P,U9,1,MC/SCL/FMT*
G04 #@! TO.N,/I2C1_SCL*
X52311648Y33432422D03*
G04 #@! TO.P,U9,2,MD/SDA/DEMP*
G04 #@! TO.N,/I2C1_SDA*
X51661648Y33432422D03*
G04 #@! TO.P,U9,3,DOUT*
G04 #@! TO.N,/SAI_SD_B*
X51011648Y33432422D03*
G04 #@! TO.P,U9,4,LRCK1*
G04 #@! TO.N,/SAI_FS*
X50361648Y33432422D03*
G04 #@! TO.P,U9,5,BCK1*
G04 #@! TO.N,/SAI_SCK*
X49711648Y33432422D03*
G04 #@! TO.P,U9,6,SCKI1*
G04 #@! TO.N,/SAI_MCLK*
X49061648Y33432422D03*
G04 #@! TO.P,U9,7,VDD*
G04 #@! TO.N,+3V3*
X48411648Y33432422D03*
G04 #@! TO.P,U9,8,DGND*
G04 #@! TO.N,GND*
X47761648Y33432422D03*
G04 #@! TO.P,U9,9,SCKI2*
G04 #@! TO.N,/SAI_MCLK*
X47111648Y33432422D03*
G04 #@! TO.P,U9,10,BCK2*
G04 #@! TO.N,/SAI_SCK*
X46461648Y33432422D03*
G04 #@! TO.P,U9,11,LRCK2*
G04 #@! TO.N,/SAI_FS*
X45811648Y33432422D03*
G04 #@! TO.P,U9,12,DIN*
G04 #@! TO.N,/SAI_SD_A*
X45161648Y33432422D03*
G04 #@! TO.P,U9,13,ZEROR*
G04 #@! TO.N,unconnected-(U9-ZEROR-Pad13)*
X44511648Y33432422D03*
G04 #@! TO.P,U9,14,ZEROL*
G04 #@! TO.N,unconnected-(U9-ZEROL-Pad14)*
X43861648Y33432422D03*
G04 #@! TO.P,U9,15,~{RST}*
G04 #@! TO.N,/CODEC_RESET*
X43861648Y27707422D03*
G04 #@! TO.P,U9,16,SGND*
G04 #@! TO.N,GNDA*
X44511648Y27707422D03*
G04 #@! TO.P,U9,17,VOUTR-*
G04 #@! TO.N,/ROUT-*
X45161648Y27707422D03*
G04 #@! TO.P,U9,18,VOUTR+*
G04 #@! TO.N,/ROUT+*
X45811648Y27707422D03*
G04 #@! TO.P,U9,19,VOUTL-*
G04 #@! TO.N,/LOUT-*
X46461648Y27707422D03*
G04 #@! TO.P,U9,20,VOUTL+*
G04 #@! TO.N,/LOUT+*
X47111648Y27707422D03*
G04 #@! TO.P,U9,21,VCOM*
G04 #@! TO.N,/VCOM*
X47761648Y27707422D03*
G04 #@! TO.P,U9,22,AGND2*
G04 #@! TO.N,GNDA*
X48411648Y27707422D03*
G04 #@! TO.P,U9,23,AGND1*
X49061648Y27707422D03*
G04 #@! TO.P,U9,24,VCC*
G04 #@! TO.N,+5V*
X49711648Y27707422D03*
G04 #@! TO.P,U9,25,VINL*
G04 #@! TO.N,/LIN*
X50361648Y27707422D03*
G04 #@! TO.P,U9,26,VINR*
G04 #@! TO.N,/RIN*
X51011648Y27707422D03*
G04 #@! TO.P,U9,27,~{MS}/ADR/IFMD*
G04 #@! TO.N,GND*
X51661648Y27707422D03*
G04 #@! TO.P,U9,28,MODE*
X52311648Y27707422D03*
G04 #@! TD*
D12*
G04 #@! TO.P,R19,1*
G04 #@! TO.N,Net-(U14A--)*
X45255000Y56910000D03*
G04 #@! TO.P,R19,2*
G04 #@! TO.N,/A2*
X44285000Y56910000D03*
G04 #@! TD*
G04 #@! TO.P,C74,1*
G04 #@! TO.N,-12VA*
X29851648Y28539922D03*
G04 #@! TO.P,C74,2*
G04 #@! TO.N,GND*
X28881648Y28539922D03*
G04 #@! TD*
D13*
G04 #@! TO.P,R78,1*
G04 #@! TO.N,+3V3*
X23030000Y81520000D03*
G04 #@! TO.P,R78,2*
G04 #@! TO.N,/D4*
X24730000Y81520000D03*
G04 #@! TD*
G04 #@! TO.P,R70,1*
G04 #@! TO.N,/D11*
X37796648Y100959922D03*
G04 #@! TO.P,R70,2*
G04 #@! TO.N,Net-(PLAY_BUT1-B)*
X36096648Y100959922D03*
G04 #@! TD*
D20*
G04 #@! TO.P,R163,1*
G04 #@! TO.N,Net-(U12A-+)*
X47755480Y8569922D03*
G04 #@! TO.P,R163,2*
G04 #@! TO.N,Net-(C153-Pad2)*
X48725480Y8569922D03*
G04 #@! TD*
D13*
G04 #@! TO.P,C5,1*
G04 #@! TO.N,GND*
X38520148Y64216600D03*
G04 #@! TO.P,C5,2*
G04 #@! TO.N,Net-(U2B-VDD12OTGHS)*
X38520148Y62516600D03*
G04 #@! TD*
D18*
G04 #@! TO.P,R10,1*
G04 #@! TO.N,/LOUT+*
X47476648Y11684922D03*
G04 #@! TO.P,R10,2*
G04 #@! TO.N,Net-(C153-Pad1)*
X47476648Y10714922D03*
G04 #@! TD*
D13*
G04 #@! TO.P,R62,1*
G04 #@! TO.N,Net-(U16B--)*
X30151648Y11099922D03*
G04 #@! TO.P,R62,2*
G04 #@! TO.N,Net-(C84-Pad2)*
X28451648Y11099922D03*
G04 #@! TD*
D20*
G04 #@! TO.P,C63,1*
G04 #@! TO.N,+12V*
X8112564Y37904922D03*
G04 #@! TO.P,C63,2*
G04 #@! TO.N,GND*
X9082564Y37904922D03*
G04 #@! TD*
D14*
G04 #@! TO.P,R153,1*
G04 #@! TO.N,Net-(J17-SIG)*
X47400000Y2825000D03*
G04 #@! TO.P,R153,2*
G04 #@! TO.N,Net-(C149-Pad1)*
X47400000Y3795000D03*
G04 #@! TD*
D20*
G04 #@! TO.P,C37,1*
G04 #@! TO.N,-12VA*
X43551648Y40109922D03*
G04 #@! TO.P,C37,2*
G04 #@! TO.N,GND*
X44521648Y40109922D03*
G04 #@! TD*
D17*
G04 #@! TO.P,U14,1*
G04 #@! TO.N,Net-(U14A--)*
X47436648Y56144922D03*
G04 #@! TO.P,U14,2,-*
X47436648Y55494922D03*
G04 #@! TO.P,U14,3,+*
G04 #@! TO.N,Net-(D15-AK)*
X47436648Y54844922D03*
G04 #@! TO.P,U14,4,V-*
G04 #@! TO.N,-12VA*
X47436648Y54194922D03*
G04 #@! TO.P,U14,5,+*
G04 #@! TO.N,Net-(U14B-+)*
X53336648Y54194922D03*
G04 #@! TO.P,U14,6,-*
G04 #@! TO.N,GND*
X53336648Y54844922D03*
G04 #@! TO.P,U14,7*
G04 #@! TO.N,Net-(U14B-+)*
X53336648Y55494922D03*
G04 #@! TO.P,U14,8,V+*
G04 #@! TO.N,+12V*
X53336648Y56144922D03*
G04 #@! TD*
D12*
G04 #@! TO.P,C147,1*
G04 #@! TO.N,Net-(C147-Pad1)*
X40505480Y5669922D03*
G04 #@! TO.P,C147,2*
G04 #@! TO.N,Net-(U12B--)*
X39535480Y5669922D03*
G04 #@! TD*
G04 #@! TO.P,R53,1*
G04 #@! TO.N,Net-(U11A-+)*
X36236088Y29156436D03*
G04 #@! TO.P,R53,2*
G04 #@! TO.N,GND*
X35266088Y29156436D03*
G04 #@! TD*
D36*
G04 #@! TO.P,J12,1,SIG*
G04 #@! TO.N,Net-(J12-SIG)*
X8608648Y27146922D03*
G04 #@! TO.P,J12,2,SHEILD*
G04 #@! TO.N,GND*
X8608648Y16174122D03*
G04 #@! TO.P,J12,3,SW*
X8608648Y18587122D03*
G04 #@! TD*
G04 #@! TO.P,J17,1,SIG*
G04 #@! TO.N,Net-(J17-SIG)*
X36800848Y1687362D03*
G04 #@! TO.P,J17,2,SHEILD*
G04 #@! TO.N,GND*
X36800848Y12660162D03*
G04 #@! TO.P,J17,3,SW*
G04 #@! TO.N,unconnected-(J17-SW-Pad3)*
X36800848Y10247162D03*
G04 #@! TD*
G04 #@! TO.P,J16,1,SIG*
G04 #@! TO.N,Net-(J16-SIG)*
X52300848Y1687362D03*
G04 #@! TO.P,J16,2,SHEILD*
G04 #@! TO.N,GND*
X52300848Y12660162D03*
G04 #@! TO.P,J16,3,SW*
G04 #@! TO.N,unconnected-(J16-SW-Pad3)*
X52300848Y10247162D03*
G04 #@! TD*
D37*
G04 #@! TO.P,Bank_But1,1,UP-A*
G04 #@! TO.N,unconnected-(Bank_But1-UP-A-Pad1)*
X53008648Y104839922D03*
G04 #@! TO.P,Bank_But1,2,POLE-A*
G04 #@! TO.N,Net-(Bank_But1-POLE-A)*
X46508648Y104839922D03*
G04 #@! TO.P,Bank_But1,3,DOWN-A*
G04 #@! TO.N,unconnected-(Bank_But1-DOWN-A-Pad3)*
X53008648Y100339922D03*
G04 #@! TO.P,Bank_But1,4,UP-B*
G04 #@! TO.N,GND*
X46508648Y100339922D03*
D38*
G04 #@! TO.P,Bank_But1,5,CA*
G04 #@! TO.N,+3V3*
X50658648Y105489922D03*
G04 #@! TO.P,Bank_But1,6,G*
G04 #@! TO.N,Net-(Bank_But1-G)*
X48858648Y105489922D03*
G04 #@! TO.P,Bank_But1,7,R*
G04 #@! TO.N,Net-(Bank_But1-R)*
X48858648Y99689922D03*
G04 #@! TO.P,Bank_But1,8,B*
G04 #@! TO.N,Net-(Bank_But1-B)*
X50658648Y99689922D03*
G04 #@! TD*
D39*
G04 #@! TO.P,SD1,1,DAT2*
G04 #@! TO.N,/D18*
X31946648Y79490171D03*
G04 #@! TO.P,SD1,2,CD/DAT3*
G04 #@! TO.N,/D19*
X33046468Y80589991D03*
G04 #@! TO.P,SD1,3,CMD*
G04 #@! TO.N,/D4*
X31946648Y81690065D03*
G04 #@! TO.P,SD1,4,VDD*
G04 #@! TO.N,+3V3*
X33046468Y82789885D03*
G04 #@! TO.P,SD1,5,CLK*
G04 #@! TO.N,/D9*
X31946648Y83889959D03*
G04 #@! TO.P,SD1,6,VSS*
G04 #@! TO.N,GND*
X33046468Y84989779D03*
G04 #@! TO.P,SD1,7,DAT0*
G04 #@! TO.N,/D16*
X31946648Y86089853D03*
G04 #@! TO.P,SD1,8,DAT1*
G04 #@! TO.N,/D17*
X33046468Y87189673D03*
D40*
G04 #@! TO.P,SD1,9,SHELL1*
G04 #@! TO.N,GND*
X28776728Y79047322D03*
G04 #@! TO.P,SD1,10,SHELL2*
X28776728Y87632522D03*
G04 #@! TD*
D41*
G04 #@! TO.P,POT_LENGTH1,1,Left*
G04 #@! TO.N,GNDADC*
X15508648Y48985922D03*
G04 #@! TO.P,POT_LENGTH1,2,Center*
G04 #@! TO.N,Net-(POT_LENGTH1-Center)*
X10508648Y48985922D03*
G04 #@! TO.P,POT_LENGTH1,3,Right*
G04 #@! TO.N,VREF+*
X5508648Y48985922D03*
G04 #@! TD*
D36*
G04 #@! TO.P,J2,1,SIG*
G04 #@! TO.N,Net-(J2-SIG)*
X36636648Y42146922D03*
G04 #@! TO.P,J2,2,SHEILD*
G04 #@! TO.N,GND*
X36636648Y31174122D03*
G04 #@! TO.P,J2,3,SW*
X36636648Y33587122D03*
G04 #@! TD*
D41*
G04 #@! TO.P,POT_PITCH1,1,Left*
G04 #@! TO.N,GNDADC*
X52136648Y74985922D03*
G04 #@! TO.P,POT_PITCH1,2,Center*
G04 #@! TO.N,Net-(POT_PITCH1-Center)*
X47136648Y74985922D03*
G04 #@! TO.P,POT_PITCH1,3,Right*
G04 #@! TO.N,VREF+*
X42136648Y74985922D03*
G04 #@! TD*
D36*
G04 #@! TO.P,J7,1,SIG*
G04 #@! TO.N,Net-(J7-SIG)*
X13815648Y36939922D03*
G04 #@! TO.P,J7,2,SHEILD*
G04 #@! TO.N,GND*
X2842848Y36939922D03*
G04 #@! TO.P,J7,3,SW*
X5255848Y36939922D03*
G04 #@! TD*
G04 #@! TO.P,J6,1,SIG*
G04 #@! TO.N,Net-(J6-SIG)*
X29343648Y36939922D03*
G04 #@! TO.P,J6,2,SHEILD*
G04 #@! TO.N,GND*
X18370848Y36939922D03*
G04 #@! TO.P,J6,3,SW*
X20783848Y36939922D03*
G04 #@! TD*
G04 #@! TO.P,J15,1,SIG*
G04 #@! TO.N,Net-(J15-SIG)*
X24136648Y1732922D03*
G04 #@! TO.P,J15,2,SHEILD*
G04 #@! TO.N,GND*
X24136648Y12705722D03*
G04 #@! TO.P,J15,3,SW*
G04 #@! TO.N,unconnected-(J15-SW-Pad3)*
X24136648Y10292722D03*
G04 #@! TD*
D37*
G04 #@! TO.P,REV_BUT1,1,UP-A*
G04 #@! TO.N,unconnected-(REV_BUT1-UP-A-Pad1)*
X14136648Y104839922D03*
G04 #@! TO.P,REV_BUT1,2,POLE-A*
G04 #@! TO.N,Net-(REV_BUT1-POLE-A)*
X7636648Y104839922D03*
G04 #@! TO.P,REV_BUT1,3,DOWN-A*
G04 #@! TO.N,unconnected-(REV_BUT1-DOWN-A-Pad3)*
X14136648Y100339922D03*
G04 #@! TO.P,REV_BUT1,4,UP-B*
G04 #@! TO.N,GND*
X7636648Y100339922D03*
D38*
G04 #@! TO.P,REV_BUT1,5,CA*
G04 #@! TO.N,+3V3*
X11786648Y105489922D03*
G04 #@! TO.P,REV_BUT1,6,G*
G04 #@! TO.N,Net-(REV_BUT1-G)*
X9986648Y105489922D03*
G04 #@! TO.P,REV_BUT1,7,R*
G04 #@! TO.N,Net-(REV_BUT1-R)*
X9986648Y99689922D03*
G04 #@! TO.P,REV_BUT1,8,B*
G04 #@! TO.N,Net-(REV_BUT1-B)*
X11786648Y99689922D03*
G04 #@! TD*
D36*
G04 #@! TO.P,J9,1,SIG*
G04 #@! TO.N,Net-(J9-SIG)*
X24136648Y27146922D03*
G04 #@! TO.P,J9,2,SHEILD*
G04 #@! TO.N,GND*
X24136648Y16174122D03*
G04 #@! TO.P,J9,3,SW*
X24136648Y18587122D03*
G04 #@! TD*
G04 #@! TO.P,J8,1,SIG*
G04 #@! TO.N,Net-(J8-SIG)*
X46929648Y36939922D03*
G04 #@! TO.P,J8,2,SHEILD*
G04 #@! TO.N,GND*
X57902448Y36939922D03*
G04 #@! TO.P,J8,3,SW*
X55489448Y36939922D03*
G04 #@! TD*
G04 #@! TO.P,J11,1,SIG*
G04 #@! TO.N,Net-(J11-SIG)*
X8608648Y1732922D03*
G04 #@! TO.P,J11,2,SHEILD*
G04 #@! TO.N,GND*
X8608648Y12705722D03*
G04 #@! TO.P,J11,3,SW*
X8608648Y10292722D03*
G04 #@! TD*
G04 #@! TO.P,J13,1,SIG*
G04 #@! TO.N,Net-(J13-SIG)*
X46929648Y21939922D03*
G04 #@! TO.P,J13,2,SHEILD*
G04 #@! TO.N,GND*
X57902448Y21939922D03*
G04 #@! TO.P,J13,3,SW*
X55489448Y21939922D03*
G04 #@! TD*
D41*
G04 #@! TO.P,POT_START1,1,Left*
G04 #@! TO.N,GNDADC*
X55136648Y48985922D03*
G04 #@! TO.P,POT_START1,2,Center*
G04 #@! TO.N,Net-(POT_START1-Center)*
X50136648Y48985922D03*
G04 #@! TO.P,POT_START1,3,Right*
G04 #@! TO.N,VREF+*
X45136648Y48985922D03*
G04 #@! TD*
D36*
G04 #@! TO.P,J14,1,SIG*
G04 #@! TO.N,Net-(J14-SIG)*
X41843648Y21939922D03*
G04 #@! TO.P,J14,2,SHEILD*
G04 #@! TO.N,GND*
X30870848Y21939922D03*
G04 #@! TO.P,J14,3,SW*
X33283848Y21939922D03*
G04 #@! TD*
D37*
G04 #@! TO.P,PLAY_BUT1,1,UP-A*
G04 #@! TO.N,unconnected-(PLAY_BUT1-UP-A-Pad1)*
X33322648Y102739922D03*
G04 #@! TO.P,PLAY_BUT1,2,POLE-A*
G04 #@! TO.N,Net-(PLAY_BUT1-POLE-A)*
X27330648Y102739922D03*
G04 #@! TO.P,PLAY_BUT1,3,DOWN-A*
G04 #@! TO.N,unconnected-(PLAY_BUT1-DOWN-A-Pad3)*
X33322648Y98239922D03*
G04 #@! TO.P,PLAY_BUT1,4,UP-B*
G04 #@! TO.N,GND*
X27330648Y98239922D03*
D38*
G04 #@! TO.P,PLAY_BUT1,5,CA*
G04 #@! TO.N,+3V3*
X31226648Y103389922D03*
G04 #@! TO.P,PLAY_BUT1,6,G*
G04 #@! TO.N,Net-(PLAY_BUT1-G)*
X29426648Y103389922D03*
G04 #@! TO.P,PLAY_BUT1,7,R*
G04 #@! TO.N,Net-(PLAY_BUT1-R)*
X29426648Y97589922D03*
G04 #@! TO.P,PLAY_BUT1,8,B*
G04 #@! TO.N,Net-(PLAY_BUT1-B)*
X31226648Y97589922D03*
G04 #@! TD*
D41*
G04 #@! TO.P,POT_SAMP1,1,Left*
G04 #@! TO.N,GNDADC*
X18440000Y75166000D03*
G04 #@! TO.P,POT_SAMP1,2,Center*
G04 #@! TO.N,Net-(POT_SAMP1-Center)*
X13440000Y75166000D03*
G04 #@! TO.P,POT_SAMP1,3,Right*
G04 #@! TO.N,VREF+*
X8440000Y75166000D03*
G04 #@! TD*
D34*
G04 #@! TO.P,JP4,1,A*
G04 #@! TO.N,+12V*
X57920400Y30655000D03*
G04 #@! TO.P,JP4,2,B*
G04 #@! TO.N,Net-(JP4-B)*
X57379600Y30655000D03*
G04 #@! TD*
D42*
G04 #@! TO.N,-12VA*
X9760000Y2820000D03*
X2240000Y48070000D03*
G04 #@! TO.N,GND*
X21350000Y7030000D03*
G04 #@! TO.N,-12VA*
X31340000Y1140000D03*
X22320000Y3380000D03*
G04 #@! TO.N,GND*
X11220000Y6490000D03*
X11990000Y4260000D03*
G04 #@! TO.N,+12V*
X57850000Y29780000D03*
G04 #@! TO.N,GND*
X25350000Y7030000D03*
X13100000Y10030000D03*
G04 #@! TO.N,+12V*
X9441600Y35777646D03*
X18100000Y30280000D03*
X7371600Y36030000D03*
X7308400Y37780000D03*
G04 #@! TO.N,GND*
X7290000Y62140000D03*
X32467073Y63488450D03*
X7760000Y59100000D03*
X35126648Y34659922D03*
X9986648Y55659922D03*
X14759685Y66760315D03*
X8696570Y55650000D03*
X6631700Y59078300D03*
X42716648Y11619922D03*
X27660000Y71480000D03*
X6660000Y67260000D03*
X29041884Y46717168D03*
X29160149Y55583849D03*
X38466648Y12949922D03*
X9130000Y59040000D03*
X49426648Y40839922D03*
X33592383Y25926500D03*
X27894820Y44282832D03*
X30226648Y34329922D03*
X48466648Y58979922D03*
X49576648Y43979922D03*
X11716648Y56849922D03*
X31330148Y64426600D03*
X39126648Y61129922D03*
X20126500Y60460000D03*
X3676648Y106989922D03*
X31176648Y7579922D03*
X27261648Y31269922D03*
X4929601Y46089769D03*
X36130000Y66950000D03*
X15696648Y57199922D03*
X25786648Y106889922D03*
X51946648Y18769922D03*
X6830000Y71790000D03*
X30846648Y2964922D03*
X38646648Y65139922D03*
X9366648Y55639922D03*
X33624273Y43481587D03*
X8460000Y59170000D03*
X52326648Y26119922D03*
X30131798Y45185040D03*
X29410753Y43104582D03*
X22110000Y66190000D03*
X13056648Y86204922D03*
X50140000Y59620000D03*
X7340000Y62940000D03*
X43630000Y51810000D03*
X50456648Y18689922D03*
X31377148Y51676600D03*
X22086562Y61579836D03*
X6051700Y59108300D03*
X44280000Y55100000D03*
X5386648Y58759922D03*
X28850148Y48386600D03*
X50870000Y57744922D03*
X47607148Y52040000D03*
G04 #@! TO.N,+3V3*
X31530148Y69936600D03*
X23570148Y66686600D03*
X23536648Y36209922D03*
X29220148Y58966600D03*
X8370000Y60310000D03*
X23080000Y82960000D03*
X37830612Y60045497D03*
X25257284Y43948568D03*
X26702208Y70726780D03*
X23280000Y77320000D03*
X7371600Y42200000D03*
X30015212Y45721488D03*
X31376648Y52496600D03*
X28816112Y45286010D03*
X15366648Y53079922D03*
X12240000Y44740000D03*
X7780000Y60250000D03*
X47460000Y47780000D03*
X29180148Y47686600D03*
X6890000Y60360000D03*
X5431700Y60438300D03*
X9100000Y60300000D03*
X7960000Y52910000D03*
X25566148Y50583048D03*
X6121700Y60408300D03*
X53230000Y34280000D03*
X35310148Y63326600D03*
X25766648Y41249922D03*
X48494510Y35919637D03*
X27450148Y42996600D03*
X44510000Y36380000D03*
X29763498Y43751210D03*
G04 #@! TO.N,/A4*
X21890000Y45390000D03*
X7371600Y39500000D03*
G04 #@! TO.N,GNDADC*
X43421522Y46281522D03*
X41999998Y46600000D03*
G04 #@! TO.N,/A5*
X22566648Y37389922D03*
X23056648Y30950422D03*
X19156648Y42829922D03*
X21330000Y45750000D03*
G04 #@! TO.N,+12V*
X50850000Y58422531D03*
X47606648Y58739922D03*
X10256648Y70999922D03*
X33056648Y24199922D03*
X38546648Y21829922D03*
X51546648Y23049922D03*
X41436648Y4899922D03*
X41966648Y11719922D03*
X25916648Y7999922D03*
X11806648Y82929922D03*
X23546648Y29199922D03*
X4125000Y72530000D03*
X9326648Y54599922D03*
X51134148Y45879922D03*
X10859257Y45077313D03*
G04 #@! TO.N,-12VA*
X11670000Y86830000D03*
X43916648Y9679922D03*
X47346648Y14909922D03*
X43536648Y39099922D03*
X33986648Y10699922D03*
X30236648Y32109922D03*
X42446648Y12669922D03*
X45056648Y9109922D03*
X46740000Y51910000D03*
X33056648Y13299922D03*
X8610000Y88020000D03*
X30036648Y29739922D03*
G04 #@! TO.N,/A2*
X21945316Y40095314D03*
X22330000Y44040000D03*
G04 #@! TO.N,/A7*
X20380000Y84010000D03*
X21090000Y69050000D03*
X23510000Y59820000D03*
X21426500Y75230000D03*
G04 #@! TO.N,/A6*
X23620148Y64996600D03*
X26780000Y88520000D03*
X26019346Y60235598D03*
X25324993Y64806600D03*
G04 #@! TO.N,/D6*
X41606648Y57489922D03*
X42577800Y100236803D03*
G04 #@! TO.N,/D8*
X17370000Y59380000D03*
X33984612Y45645009D03*
X35078011Y56989600D03*
X17376648Y48089922D03*
X22480000Y95780000D03*
X17430000Y51480000D03*
G04 #@! TO.N,/A9*
X21850000Y57180000D03*
X21052493Y66026180D03*
G04 #@! TO.N,/D15*
X31970000Y26390000D03*
X38800000Y36960000D03*
X38580000Y38830000D03*
X41290000Y56343500D03*
X34170148Y56206600D03*
X31580004Y62206644D03*
G04 #@! TO.N,/D13*
X37980000Y38810000D03*
X31820000Y61559241D03*
X38270000Y36960000D03*
X11166648Y22769922D03*
G04 #@! TO.N,VREF+*
X20760000Y58820000D03*
X5650000Y66590000D03*
X42950000Y45590000D03*
X6640000Y66380000D03*
X41860000Y46010000D03*
X22810000Y59850000D03*
G04 #@! TO.N,/D11*
X40076648Y60299922D03*
X36188769Y70962043D03*
X34390000Y70990000D03*
X35326648Y81209922D03*
G04 #@! TO.N,/D10*
X21820000Y99699922D03*
X40696648Y59739922D03*
G04 #@! TO.N,/D14*
X36966648Y81799922D03*
X34160000Y85480000D03*
X36164039Y81027313D03*
X35212341Y62598793D03*
G04 #@! TO.N,/D12*
X37293648Y82329922D03*
X37900000Y67990000D03*
X34670148Y64316600D03*
X37456648Y68939922D03*
G04 #@! TO.N,/D0*
X46560000Y94840000D03*
X38956500Y70132256D03*
G04 #@! TO.N,/D1*
X30330000Y77130000D03*
X38460000Y92390000D03*
X23660000Y69100000D03*
X27820000Y77043000D03*
X37536500Y90450000D03*
X43670000Y95430000D03*
G04 #@! TO.N,/D3*
X22851420Y93542248D03*
X34576648Y66219922D03*
X21426500Y78140000D03*
X35790148Y78150000D03*
G04 #@! TO.N,GND*
X18615703Y13066500D03*
X42060000Y61500000D03*
X35401468Y63937921D03*
X39866648Y62059922D03*
G04 #@! TO.N,/D5*
X52190000Y96380000D03*
X40144998Y68684998D03*
G04 #@! TO.N,/D19*
X32493699Y67376471D03*
G04 #@! TO.N,/D18*
X36646648Y68609922D03*
X37220148Y78840000D03*
G04 #@! TO.N,/D7*
X33128407Y58943681D03*
X18026648Y47499922D03*
X33514104Y45272685D03*
X15120000Y45620000D03*
X3060000Y86560000D03*
X3060000Y88670000D03*
G04 #@! TO.N,/D17*
X33137911Y64188837D03*
G04 #@! TO.N,/D16*
X35810000Y83590000D03*
X33780148Y64166600D03*
X35110000Y79850000D03*
G04 #@! TO.N,/D9*
X32186648Y68539922D03*
G04 #@! TO.N,/A0*
X22266648Y49319922D03*
X28130000Y30549922D03*
X23030000Y43440000D03*
X26625255Y60266600D03*
G04 #@! TO.N,/A1*
X23032904Y56583666D03*
X21190000Y67380000D03*
G04 #@! TO.N,/A3*
X20840000Y60920000D03*
X54260000Y65440000D03*
X50820000Y66640000D03*
X21410000Y74040000D03*
G04 #@! TO.N,/A8*
X16570000Y41620000D03*
X21330000Y51770000D03*
X22220000Y53900000D03*
X24520000Y61020000D03*
G04 #@! TO.N,Net-(J2-SIG)*
X36650000Y38690000D03*
G04 #@! TO.N,Net-(C46-Pad1)*
X45940000Y55760000D03*
X54590000Y44050000D03*
G04 #@! TO.N,Net-(POT_LENGTH1-Center)*
X16680000Y69390000D03*
G04 #@! TO.N,Net-(REV_BUT1-R)*
X7480000Y97490000D03*
G04 #@! TO.N,/D4*
X32440148Y66076600D03*
G04 #@! TO.N,/VCOM*
X53026648Y15709922D03*
X47896648Y20419922D03*
X34996648Y20779922D03*
G04 #@! TO.N,GNDA*
X41396648Y14359922D03*
X49906648Y21819922D03*
X49496648Y11089922D03*
X44116648Y14189922D03*
G04 #@! TO.N,Net-(U2B-VCAP_1)*
X30052594Y61439046D03*
G04 #@! TO.N,+3.3VADC*
X22130000Y58500000D03*
X14324685Y66015315D03*
X18630000Y61340000D03*
X13250000Y66930000D03*
G04 #@! TO.N,/BOOT0*
X28040148Y65416600D03*
X28610000Y71660000D03*
G04 #@! TO.N,Net-(C152-Pad1)*
X41416648Y9909922D03*
X37776648Y5439922D03*
G04 #@! TO.N,Net-(C152-Pad2)*
X37876648Y8999922D03*
X37176648Y4429922D03*
G04 #@! TO.N,Net-(C153-Pad1)*
X46456648Y3999922D03*
X49606648Y6419922D03*
G04 #@! TO.N,Net-(C153-Pad2)*
X47526648Y7679922D03*
X45586648Y10499922D03*
G04 #@! TO.N,/SWDCLK*
X41040000Y69120000D03*
G04 #@! TO.N,/SWDIO*
X40900000Y68450000D03*
G04 #@! TO.N,/UART_TX*
X23355436Y62176342D03*
G04 #@! TO.N,/UART_RX*
X23756648Y61713342D03*
G04 #@! TO.N,/DEBUG2*
X27270148Y66116600D03*
G04 #@! TO.N,/DEBUG3*
X30090148Y69016600D03*
G04 #@! TO.N,Net-(J9-SIG)*
X11920000Y44069922D03*
X9896648Y44069922D03*
X13476648Y43839922D03*
X13368517Y41374179D03*
G04 #@! TO.N,/LOUT+*
X46768085Y13276875D03*
X45440443Y20121525D03*
G04 #@! TO.N,/LOUT-*
X46302549Y13095823D03*
X44770000Y20070000D03*
G04 #@! TO.N,Net-(U15A--)*
X45050000Y44110000D03*
X46646648Y44620000D03*
G04 #@! TO.N,/I2C1_SCL*
X52270000Y35720000D03*
X25080000Y72440000D03*
G04 #@! TO.N,/I2C1_SDA*
X48600000Y37720000D03*
X28587926Y67413227D03*
G04 #@! TO.N,/RIN*
X39096648Y21019922D03*
X51380000Y26310000D03*
G04 #@! TO.N,/SAI_SD_B*
X50966648Y35469922D03*
X23313500Y70089922D03*
G04 #@! TO.N,/SAI_MCLK*
X24525714Y70147986D03*
X49086648Y35169922D03*
G04 #@! TO.N,/SD-NBL1*
X32820148Y48136600D03*
X27930148Y67406600D03*
G04 #@! TO.N,/SD-NBL0*
X26626648Y66761634D03*
X24706648Y46559922D03*
G04 #@! TO.N,/SD-CKE1*
X31000148Y47366600D03*
X28220148Y68846600D03*
G04 #@! TO.N,/CODEC_RESET*
X53350000Y29880000D03*
X43140000Y70800000D03*
G04 #@! TO.N,/SAI_FS*
X50096648Y35649922D03*
X23946648Y70089922D03*
G04 #@! TO.N,/SAI_SCK*
X25079797Y70378194D03*
X49633148Y36706922D03*
G04 #@! TO.N,/SAI_SD_A*
X45216648Y34739922D03*
X26545162Y68750000D03*
X25980148Y66766600D03*
G04 #@! TO.N,/SD-NCAS*
X30010148Y65056600D03*
X29230148Y66756600D03*
X28630148Y65116600D03*
X28000148Y47706600D03*
G04 #@! TO.N,/SD-D2*
X34750148Y43926600D03*
X27001504Y44144801D03*
X38220000Y45670000D03*
X32475175Y64816600D03*
G04 #@! TO.N,/SD-D3*
X39646648Y62769922D03*
X25240148Y45306600D03*
X40596648Y57489922D03*
X34951969Y44758655D03*
X34230518Y70100422D03*
X39746648Y66149922D03*
X40660000Y55980000D03*
X38216648Y66799922D03*
G04 #@! TO.N,/SD-A0*
X26020441Y56233100D03*
X25938033Y65424485D03*
G04 #@! TO.N,/SD-A2*
X23739582Y55306988D03*
X25327832Y63504212D03*
G04 #@! TO.N,/SD-A1*
X26200148Y49756600D03*
X27823713Y62678745D03*
X24540148Y49836600D03*
X23249678Y53300392D03*
G04 #@! TO.N,/SD-CLK*
X30850000Y61310000D03*
X31793718Y47350078D03*
G04 #@! TO.N,/SD-A3*
X26634091Y62856225D03*
X24356582Y55499724D03*
G04 #@! TO.N,/SD-A4*
X28690328Y55256420D03*
X28604794Y53245314D03*
G04 #@! TO.N,/SD-NWE*
X27938309Y60986600D03*
X25090148Y47666600D03*
G04 #@! TO.N,/SD-A5*
X26015923Y61625332D03*
X25098336Y56673600D03*
G04 #@! TO.N,/SD-BA1*
X26199851Y48976600D03*
X29147148Y56226600D03*
X38796648Y55139922D03*
X32480148Y62206600D03*
G04 #@! TO.N,/SD-BA0*
X34586000Y54850000D03*
X32480148Y60916600D03*
X30080148Y52996600D03*
X28212231Y49192043D03*
G04 #@! TO.N,/SD-D1*
X26130148Y44216600D03*
X33776648Y61559922D03*
G04 #@! TO.N,/SD-A12*
X35449759Y61234467D03*
X32780148Y53346600D03*
X32940148Y48786600D03*
X38846648Y54029922D03*
G04 #@! TO.N,/SD-A11*
X25960148Y53396600D03*
X31030148Y48936600D03*
X29157895Y49098949D03*
X29227297Y60273838D03*
G04 #@! TO.N,/SD-NE1*
X24290148Y45076600D03*
X31799403Y60955476D03*
G04 #@! TO.N,/SD-D0*
X33137799Y60883323D03*
X26610148Y43186600D03*
G04 #@! TO.N,/SD-A7*
X31805148Y53591600D03*
X30932854Y52149306D03*
X28301309Y61406600D03*
X31038298Y49753057D03*
G04 #@! TO.N,/SD-A10*
X28584981Y59626600D03*
X24010148Y52846600D03*
G04 #@! TO.N,/SD-D10*
X35173541Y46006567D03*
X33125100Y60266600D03*
G04 #@! TO.N,/SD-D15*
X33306648Y42689922D03*
X35303774Y59034484D03*
G04 #@! TO.N,/SD-A6*
X28004168Y59012826D03*
X26311416Y55385332D03*
G04 #@! TO.N,/SD-A9*
X26388468Y54178280D03*
X28602454Y57711044D03*
G04 #@! TO.N,/SD-D5*
X25200148Y45846600D03*
X29120148Y54846600D03*
X31377148Y55006600D03*
X29874955Y58959407D03*
G04 #@! TO.N,/SD-D6*
X27010148Y46566600D03*
X30530148Y59611564D03*
X31977148Y54176600D03*
X30490148Y52546600D03*
G04 #@! TO.N,/SD-D8*
X31772344Y57384567D03*
X33166648Y49586600D03*
G04 #@! TO.N,/SD-D11*
X35036648Y45303891D03*
X31780148Y45726600D03*
X33775121Y60256600D03*
X33080172Y45521667D03*
G04 #@! TO.N,/SD-D14*
X34882955Y58099407D03*
X32606828Y44703280D03*
G04 #@! TO.N,/SD-D13*
X31806208Y44976600D03*
X33770148Y58961622D03*
G04 #@! TO.N,/SD-NRAS*
X26337018Y48084194D03*
X28149795Y56836246D03*
G04 #@! TO.N,/SD-A8*
X31909845Y49700041D03*
X29103295Y57048833D03*
G04 #@! TO.N,/SD-D4*
X28077148Y54286600D03*
X27005660Y44984066D03*
X29610148Y58116600D03*
X23510148Y47036600D03*
X30420148Y54698942D03*
X23520148Y50146600D03*
G04 #@! TO.N,/SD-D7*
X29089623Y53923600D03*
X29973148Y57596600D03*
X25213648Y46944332D03*
X31158468Y54468280D03*
G04 #@! TO.N,/SD-D9*
X31806445Y46583258D03*
X33136828Y56673280D03*
G04 #@! TO.N,/SD-D12*
X33114898Y57250030D03*
X32754241Y46205255D03*
G04 #@! TD*
D43*
G04 #@! TO.N,+12V*
X17848980Y31480000D02*
X17848980Y32134050D01*
X15703030Y34280000D02*
X10939246Y34280000D01*
G04 #@! TO.N,+3V3*
X5421882Y42200000D02*
X7371600Y42200000D01*
G04 #@! TO.N,+12V*
X10939246Y34280000D02*
X9441600Y35777646D01*
D44*
G04 #@! TO.N,GND*
X4929601Y45756959D02*
X4929601Y46089769D01*
D43*
G04 #@! TO.N,+12V*
X7987642Y37780000D02*
X7308400Y37780000D01*
X4650000Y33308400D02*
X7371600Y36030000D01*
X17848980Y32134050D02*
X15703030Y34280000D01*
X4650000Y32280000D02*
X4650000Y33308400D01*
D44*
G04 #@! TO.N,GND*
X4917564Y45744922D02*
X4929601Y45756959D01*
G04 #@! TO.N,/A4*
X6472358Y39500000D02*
X7371600Y39500000D01*
X5790000Y40182358D02*
X6472358Y39500000D01*
D43*
G04 #@! TO.N,-12VA*
X11980000Y1301780D02*
X11278220Y1301780D01*
X11278220Y1301780D02*
X9760000Y2820000D01*
X2240000Y87370000D02*
X2240000Y48070000D01*
X2240000Y48070000D02*
X2240000Y47920000D01*
D44*
G04 #@! TO.N,GND*
X20070000Y6500000D02*
X20820000Y6500000D01*
X20820000Y6500000D02*
X21350000Y7030000D01*
G04 #@! TO.N,-12VA*
X20070000Y2100000D02*
X20831622Y2861622D01*
X20831622Y2861622D02*
X21801622Y2861622D01*
X21801622Y2861622D02*
X22320000Y3380000D01*
D43*
X31616648Y1994922D02*
X30700000Y1994922D01*
X30700000Y1994922D02*
X30461648Y1994922D01*
D44*
X31340000Y1140000D02*
X31340000Y1354922D01*
X31340000Y1354922D02*
X30700000Y1994922D01*
D43*
X11980000Y1301780D02*
X19271780Y1301780D01*
D44*
X19271780Y1301780D02*
X20070000Y2100000D01*
G04 #@! TO.N,Net-(Q12-G)*
X16350000Y3510000D02*
X14600000Y3510000D01*
X12930000Y3300760D02*
X14390760Y3300760D01*
X14390760Y3300760D02*
X14600000Y3510000D01*
G04 #@! TO.N,Net-(D17-A)*
X13016648Y7159922D02*
X13977078Y7159922D01*
X15927000Y5210000D02*
X16350000Y5210000D01*
X13977078Y7159922D02*
X15927000Y5210000D01*
G04 #@! TO.N,GND*
X12773352Y5190078D02*
X14580078Y5190078D01*
X14580078Y5190078D02*
X14600000Y5210000D01*
X9296648Y5809922D02*
X9976726Y6490000D01*
X9976726Y6490000D02*
X11220000Y6490000D01*
X11990000Y4260000D02*
X11990000Y4406726D01*
X11990000Y4406726D02*
X12773352Y5190078D01*
G04 #@! TO.N,Net-(D17-A)*
X11073352Y5190078D02*
X11073352Y3344112D01*
X11073352Y3344112D02*
X11030000Y3300760D01*
X13016648Y7159922D02*
X11073352Y5216626D01*
X11073352Y5216626D02*
X11073352Y5190078D01*
G04 #@! TO.N,Net-(D17-K)*
X16316648Y7159922D02*
X18979203Y9822477D01*
X18979203Y13217067D02*
X18696348Y13499922D01*
X18979203Y9822477D02*
X18979203Y13217067D01*
X18696348Y13499922D02*
X17476648Y13499922D01*
G04 #@! TO.N,GND*
X50140000Y59620000D02*
X50154482Y59634482D01*
X50154482Y59634482D02*
X51061648Y59634482D01*
D43*
G04 #@! TO.N,+12V*
X57850000Y29780000D02*
X57930000Y29860000D01*
X57930000Y29860000D02*
X57930000Y30652800D01*
D44*
G04 #@! TO.N,GND*
X22110000Y65641452D02*
X22110000Y66190000D01*
X25650148Y64486600D02*
X25336648Y64173100D01*
X22110000Y65290000D02*
X22110000Y66190000D01*
X25336648Y64173100D02*
X23226900Y64173100D01*
X23226900Y64173100D02*
X22110000Y65290000D01*
X24640000Y89036570D02*
X25186648Y88489922D01*
X28586648Y66100100D02*
X28566748Y66120000D01*
X27933548Y66120000D02*
X27913648Y66100100D01*
X28566748Y66120000D02*
X27933548Y66120000D01*
X7674868Y6531868D02*
X13173000Y12030000D01*
X13173000Y12030000D02*
X17579203Y12030000D01*
X7674868Y6166702D02*
X7674868Y6531868D01*
X17579203Y12030000D02*
X18615703Y13066500D01*
X9082564Y37904922D02*
X11350000Y40172358D01*
X11350000Y40172358D02*
X11350000Y42812358D01*
G04 #@! TO.N,Net-(J9-SIG)*
X12653064Y39922234D02*
X13390500Y40659670D01*
X14253285Y34683285D02*
X12653064Y36283506D01*
X18396715Y34683285D02*
X14253285Y34683285D01*
X13390500Y40659670D02*
X13390500Y41352196D01*
D43*
G04 #@! TO.N,+12V*
X8556648Y39404922D02*
X9535648Y39404922D01*
D44*
G04 #@! TO.N,GND*
X8575354Y36522790D02*
X8575354Y32754646D01*
D43*
G04 #@! TO.N,+12V*
X9535648Y39404922D02*
X10392000Y40261274D01*
D44*
G04 #@! TO.N,Net-(J9-SIG)*
X24136648Y27146922D02*
X21789648Y27146922D01*
D43*
G04 #@! TO.N,-12VA*
X13862564Y41649921D02*
X13862564Y41354922D01*
G04 #@! TO.N,+12V*
X10392000Y40261274D02*
X10392000Y44610056D01*
D44*
G04 #@! TO.N,Net-(J9-SIG)*
X13390500Y41352196D02*
X13368517Y41374179D01*
G04 #@! TO.N,Net-(D22-AK)*
X13476648Y39107922D02*
X13476648Y40424792D01*
D43*
G04 #@! TO.N,+12V*
X10392000Y44610056D02*
X10859257Y45077313D01*
D44*
G04 #@! TO.N,GND*
X9082564Y37030000D02*
X8575354Y36522790D01*
G04 #@! TO.N,Net-(D22-AK)*
X16081648Y39409922D02*
X15351648Y38679922D01*
D43*
G04 #@! TO.N,-12VA*
X12362564Y42854922D02*
X12657563Y42854922D01*
D44*
G04 #@! TO.N,Net-(J9-SIG)*
X12653064Y36283506D02*
X12653064Y39922234D01*
X21789648Y27146922D02*
X19953285Y28983285D01*
G04 #@! TO.N,Net-(D22-AK)*
X13476648Y40424792D02*
X13756778Y40704922D01*
G04 #@! TO.N,Net-(J9-SIG)*
X19953285Y28983285D02*
X19953285Y33126715D01*
G04 #@! TO.N,Net-(D22-AK)*
X13756778Y40704922D02*
X14456648Y40704922D01*
G04 #@! TO.N,Net-(J9-SIG)*
X19953285Y33126715D02*
X18396715Y34683285D01*
G04 #@! TO.N,Net-(D22-AK)*
X15351648Y38679922D02*
X13904648Y38679922D01*
D43*
G04 #@! TO.N,-12VA*
X12657563Y42854922D02*
X13862564Y41649921D01*
D44*
G04 #@! TO.N,Net-(D22-AK)*
X13904648Y38679922D02*
X13476648Y39107922D01*
G04 #@! TO.N,GND*
X25904922Y7084922D02*
X26671648Y7084922D01*
X25350000Y7030000D02*
X25850000Y7030000D01*
X25850000Y7030000D02*
X25904922Y7084922D01*
D43*
G04 #@! TO.N,+12V*
X18100000Y30280000D02*
X18100000Y31228980D01*
D44*
G04 #@! TO.N,Net-(D16-K)*
X15850000Y30530000D02*
X17700000Y28680000D01*
X17700000Y28530000D02*
X17700000Y26580000D01*
G04 #@! TO.N,GND*
X16000000Y28530000D02*
X14150000Y28530000D01*
X14150000Y28530000D02*
X12100000Y30580000D01*
G04 #@! TO.N,Net-(D16-K)*
X13850000Y30530000D02*
X15850000Y30530000D01*
G04 #@! TO.N,Net-(Q11-G)*
X13850000Y32230000D02*
X15650000Y32230000D01*
X12100000Y32280000D02*
X13800000Y32280000D01*
G04 #@! TO.N,GND*
X9082564Y37904922D02*
X9082564Y37030000D01*
X5255848Y36939922D02*
X8992486Y36939922D01*
X8992486Y36939922D02*
X9082564Y37030000D01*
X9050000Y32280000D02*
X10750000Y30580000D01*
X10750000Y30580000D02*
X12100000Y30580000D01*
X15816648Y67209922D02*
X15209292Y67209922D01*
X32150148Y63805375D02*
X32467073Y63488450D01*
X15706493Y56354922D02*
X15706493Y57190077D01*
X9456493Y56409922D02*
X9456493Y55729767D01*
X28622022Y43555630D02*
X27894820Y44282832D01*
X29550148Y64486600D02*
X28900148Y64486600D01*
X57603428Y25723428D02*
X57603428Y22238942D01*
X28900148Y63836600D02*
X28250148Y63836600D01*
X30326648Y33669162D02*
X29032408Y33669162D01*
X15816648Y67209922D02*
X15816648Y65569922D01*
X25453787Y27919922D02*
X26641648Y27919922D01*
X29041884Y45999364D02*
X29041884Y46717168D01*
X29550148Y65786600D02*
X28900148Y65786600D01*
X30081648Y2964922D02*
X30846648Y2964922D01*
X30850148Y63836600D02*
X30200148Y63836600D01*
X29105638Y43555630D02*
X28622022Y43555630D01*
X44521648Y40109922D02*
X46381148Y38250422D01*
X52484648Y54844922D02*
X53336648Y54844922D01*
X36130000Y67141940D02*
X36130000Y66950000D01*
X30200148Y64486600D02*
X30200148Y63836600D01*
X47775000Y52207852D02*
X47607148Y52040000D01*
X28850148Y48386600D02*
X29172267Y48386600D01*
X19791500Y60125000D02*
X20126500Y60460000D01*
X43001648Y10679922D02*
X43001648Y6124922D01*
X29810148Y55701600D02*
X31370148Y55701600D01*
X6685888Y24409922D02*
X6685888Y23806672D01*
X19185200Y47781160D02*
X15546360Y51420000D01*
X38010148Y59396600D02*
X38200148Y59586600D01*
X8450000Y58360000D02*
X9130000Y59040000D01*
X25520888Y34990682D02*
X25966648Y34544922D01*
X30850148Y64486600D02*
X31270148Y64486600D01*
X30200148Y63836600D02*
X29550148Y63836600D01*
X43570000Y51750000D02*
X43630000Y51810000D01*
X48158348Y38068770D02*
X48158348Y36056622D01*
X8450000Y58410000D02*
X7760000Y59100000D01*
X50870000Y57744922D02*
X50870000Y56459570D01*
X8450000Y59160000D02*
X8450000Y58260000D01*
X29860148Y43106600D02*
X29135348Y42381800D01*
X28900148Y63186600D02*
X28250148Y63186600D01*
X37365148Y59396600D02*
X38010148Y59396600D01*
X30186648Y94009922D02*
X32726648Y94009922D01*
X38520148Y65013422D02*
X38646648Y65139922D01*
X43001648Y6124922D02*
X42556648Y5679922D01*
X57920000Y26040000D02*
X57603428Y25723428D01*
X6470000Y70820000D02*
X6470000Y71430000D01*
X24616648Y34990682D02*
X25520888Y34990682D01*
X29157411Y43503857D02*
X29554668Y43106600D01*
X32010148Y64346600D02*
X32150148Y64486600D01*
X32010148Y63976600D02*
X32010148Y64346600D01*
X30200148Y65786600D02*
X29550148Y65786600D01*
X34096648Y34609922D02*
X35076648Y34609922D01*
X6685888Y23806672D02*
X8608648Y21883912D01*
X25756648Y106859922D02*
X25786648Y106889922D01*
X30371648Y71929922D02*
X30371648Y70940100D01*
X37175148Y60656600D02*
X37175148Y61696600D01*
X17476648Y18579922D02*
X14936648Y18579922D01*
X30200148Y64486600D02*
X30400148Y64686600D01*
X43570000Y51009240D02*
X43570000Y51750000D01*
X6648220Y68030000D02*
X6648220Y67271780D01*
X25000148Y60586600D02*
X24189970Y60586600D01*
X29550148Y63836600D02*
X29550148Y63186600D01*
X6470000Y71430000D02*
X6830000Y71790000D01*
X51451648Y57744922D02*
X50870000Y57744922D01*
X30850148Y62536600D02*
X30850148Y61886600D01*
X30850148Y62536600D02*
X30200148Y62536600D01*
X9456493Y55729767D02*
X9366648Y55639922D01*
X30200148Y61886600D02*
X30200148Y62536600D01*
X6300000Y65280000D02*
X6300000Y64700000D01*
X52311648Y26134922D02*
X52326648Y26119922D01*
X45551648Y15944672D02*
X45551648Y15494922D01*
X24536648Y106859922D02*
X25756648Y106859922D01*
X2842848Y36939922D02*
X5255848Y36939922D01*
X32726648Y94009922D02*
X35266648Y94009922D01*
X35266088Y29156436D02*
X35266088Y29803562D01*
X29550148Y64486600D02*
X30200148Y64486600D01*
X7960000Y62810000D02*
X7290000Y62140000D01*
X25560078Y88489922D02*
X26417478Y87632522D01*
X49605768Y38250422D02*
X48340000Y38250422D01*
X30850148Y61886600D02*
X30200148Y61886600D01*
X29696648Y43106600D02*
X29860148Y43106600D01*
X32150148Y63836600D02*
X32150148Y63186600D01*
X30850148Y63836600D02*
X30850148Y63186600D01*
X27611052Y44566600D02*
X27894820Y44282832D01*
X15706493Y57190077D02*
X15696648Y57199922D01*
X6141778Y58588378D02*
X6631700Y59078300D01*
X25186648Y88489922D02*
X25560078Y88489922D01*
X30418588Y45185040D02*
X30600148Y45366600D01*
X17476648Y21119922D02*
X17476648Y18579922D01*
X28881648Y28539922D02*
X27261648Y28539922D01*
X4917564Y44474162D02*
X5356804Y44034922D01*
X24189970Y60586600D02*
X23354970Y61421600D01*
X44960000Y55085000D02*
X44295000Y55085000D01*
X37801826Y61129922D02*
X39126648Y61129922D01*
X23354970Y61421600D02*
X22640148Y61421600D01*
X28900148Y61886600D02*
X28250148Y61886600D01*
X26641648Y27919922D02*
X27261648Y28539922D01*
X6115052Y58238378D02*
X6115052Y59044948D01*
X8090000Y51420000D02*
X6176648Y53333352D01*
X18361648Y41969922D02*
X20436648Y39894922D01*
X6648220Y67271780D02*
X6660000Y67260000D01*
X9150000Y65690000D02*
X6810000Y68030000D01*
X32165148Y51676600D02*
X31377148Y51676600D01*
X52441648Y19729672D02*
X52441648Y19264922D01*
X8608648Y21883912D02*
X8608648Y18587122D01*
X46881898Y14164672D02*
X49001648Y14164672D01*
X11536648Y56249922D02*
X9953648Y56249922D01*
X29430148Y70921600D02*
X28360148Y70921600D01*
X30200148Y63186600D02*
X29550148Y63186600D01*
X48158348Y36056622D02*
X47161648Y35059922D01*
X30791648Y2964922D02*
X30846648Y2964922D01*
X30200148Y62536600D02*
X30200148Y63186600D01*
X19185200Y46090194D02*
X19185200Y47781160D01*
X30326648Y33669162D02*
X30326648Y34229922D01*
X47761648Y33432422D02*
X47761648Y34459922D01*
X32840148Y52316600D02*
X32840148Y50806600D01*
X27400148Y46166600D02*
X28491316Y46166600D01*
X28900148Y62536600D02*
X28250148Y62536600D01*
X29550148Y62536600D02*
X29550148Y63186600D01*
X49596648Y40669922D02*
X49596648Y39824922D01*
X52311648Y27707422D02*
X51661648Y27707422D01*
X30131798Y45185040D02*
X29157411Y44210653D01*
X37285148Y64216600D02*
X37065148Y63996600D01*
X30131798Y45185040D02*
X29856208Y45185040D01*
X6300000Y64700000D02*
X7960000Y63040000D01*
X7340000Y62940000D02*
X7860000Y62940000D01*
X29550148Y61886600D02*
X28900148Y61886600D01*
X31370148Y55701600D02*
X32400148Y55701600D01*
X15546360Y51420000D02*
X8090000Y51420000D01*
X27261648Y33249922D02*
X27261648Y28539922D01*
X14936648Y16039922D02*
X17476648Y16039922D01*
X29546648Y1729922D02*
X29546648Y2429922D01*
X25650148Y63836600D02*
X25650148Y64486600D01*
X29550148Y61886600D02*
X29550148Y60586600D01*
X45551648Y15494922D02*
X46881898Y14164672D01*
X29550148Y61886600D02*
X29550148Y62536600D01*
X31891648Y8294922D02*
X31176648Y7579922D01*
X52311648Y27707422D02*
X52311648Y26134922D01*
X26671648Y7084922D02*
X30791648Y2964922D01*
X30400148Y64686600D02*
X30400148Y65586600D01*
X43001648Y10679922D02*
X43001648Y11334922D01*
X30400148Y65586600D02*
X30200148Y65786600D01*
X3556648Y106869922D02*
X3676648Y106989922D01*
X34060805Y26394922D02*
X33592383Y25926500D01*
X27320148Y71140148D02*
X27660000Y71480000D01*
X44295000Y55085000D02*
X44280000Y55100000D01*
X18370848Y36939922D02*
X20783848Y36939922D01*
X49426648Y40839922D02*
X49596648Y40669922D01*
X28900148Y62536600D02*
X28900148Y63186600D01*
X38520148Y64216600D02*
X37285148Y64216600D01*
X29157411Y44210653D02*
X29157411Y43503857D01*
X21716648Y29509922D02*
X22766648Y28459922D01*
X28900148Y64486600D02*
X28900148Y63836600D01*
X17146648Y44470682D02*
X17146648Y43184922D01*
X28360148Y70921600D02*
X27330148Y70921600D01*
X29550148Y63186600D02*
X28900148Y63186600D01*
X49621648Y17854922D02*
X49621648Y14784672D01*
X3556648Y105999922D02*
X3556648Y106869922D01*
X29554668Y43106600D02*
X29696648Y43106600D01*
X33005148Y52516600D02*
X32165148Y51676600D01*
X35076648Y34609922D02*
X35126648Y34659922D01*
X30326648Y34229922D02*
X30226648Y34329922D01*
X28250148Y63836600D02*
X28250148Y63186600D01*
X9456493Y56190077D02*
X9986648Y55659922D01*
X49001648Y14164672D02*
X49621648Y14784672D01*
X30850148Y63836600D02*
X30850148Y64486600D01*
X29550148Y60586600D02*
X30200148Y60586600D01*
X28900148Y65786600D02*
X28586648Y66100100D01*
X26417478Y87632522D02*
X28776728Y87632522D01*
X8460000Y59170000D02*
X8450000Y59160000D01*
X52441648Y19264922D02*
X51946648Y18769922D01*
X30200148Y62536600D02*
X29550148Y62536600D01*
X43876648Y100739922D02*
X46108648Y100739922D01*
X50870000Y56459570D02*
X52484648Y54844922D01*
X14936648Y18579922D02*
X14936648Y21119922D01*
X9390000Y65690000D02*
X9150000Y65690000D01*
X49596648Y39824922D02*
X49596648Y38259542D01*
X22244798Y61421600D02*
X22086562Y61579836D01*
X5501648Y7369922D02*
X8424448Y10292722D01*
X6176648Y53333352D02*
X6176648Y57943352D01*
X38520148Y64216600D02*
X38520148Y65013422D01*
X28491316Y46166600D02*
X29041884Y46717168D01*
X47775000Y52690000D02*
X47775000Y52207852D01*
X29135348Y42381800D02*
X22893594Y42381800D01*
X30850148Y64486600D02*
X30200148Y64486600D01*
X28900148Y63186600D02*
X28900148Y63836600D01*
X38200148Y59586600D02*
X38200148Y60486600D01*
X37065148Y63996600D02*
X37065148Y62956600D01*
X25966648Y34544922D02*
X27261648Y33249922D01*
X27400148Y44566600D02*
X27611052Y44566600D01*
X17146648Y43184922D02*
X18361648Y41969922D01*
X30380148Y70931600D02*
X29460148Y70931600D01*
X48340000Y38250422D02*
X48158348Y38068770D01*
X5675888Y5999922D02*
X5675888Y7195682D01*
X30846648Y2964922D02*
X31616648Y2964922D01*
X43001648Y11334922D02*
X42716648Y11619922D01*
X38200148Y60486600D02*
X38030148Y60656600D01*
X30131798Y45185040D02*
X30418588Y45185040D01*
X29550148Y63836600D02*
X28900148Y63836600D01*
X28250148Y61886600D02*
X28250148Y62536600D01*
X34166648Y26394922D02*
X34166648Y25094922D01*
X38030148Y60656600D02*
X37175148Y60656600D01*
X46381148Y38250422D02*
X49605768Y38250422D01*
X30850148Y63186600D02*
X30850148Y62536600D01*
X28250148Y63186600D02*
X28250148Y62536600D01*
X29546648Y2429922D02*
X30081648Y2964922D01*
X15209292Y67209922D02*
X14759685Y66760315D01*
X28900148Y64486600D02*
X28250148Y64486600D01*
X22766648Y28459922D02*
X24913787Y28459922D01*
X9456492Y56409922D02*
X8696570Y55650000D01*
X27913648Y66100100D02*
X27600148Y65786600D01*
X29160149Y55583849D02*
X29692397Y55583849D01*
X30850148Y63186600D02*
X30200148Y63186600D01*
X32150148Y63836600D02*
X32010148Y63976600D01*
X31891648Y9019922D02*
X31891648Y8294922D01*
X29550148Y64486600D02*
X29550148Y63836600D01*
X22893594Y42381800D02*
X19185200Y46090194D01*
X29157411Y43503857D02*
X29105638Y43555630D01*
X30200148Y63186600D02*
X30200148Y63836600D01*
X36897982Y67909922D02*
X36130000Y67141940D01*
X14936648Y18579922D02*
X14936648Y16039922D01*
X48431648Y59664482D02*
X48431648Y59014922D01*
X30200148Y61886600D02*
X29550148Y61886600D01*
X50361648Y44764922D02*
X49576648Y43979922D01*
X47761648Y34459922D02*
X47161648Y35059922D01*
X29696648Y43106600D02*
X29940148Y43106600D01*
X12291648Y86204922D02*
X14011648Y86204922D01*
X17476648Y16039922D02*
X17476648Y18579922D01*
X35266088Y29803562D02*
X36636648Y31174122D01*
X28900148Y61886600D02*
X28900148Y62536600D01*
X4917564Y45744922D02*
X4917564Y44474162D01*
X14936648Y21119922D02*
X17476648Y21119922D01*
X32329388Y43895840D02*
X33210020Y43895840D01*
X6115052Y59044948D02*
X6051700Y59108300D01*
X24913787Y28459922D02*
X25453787Y27919922D01*
X29172267Y48386600D02*
X30600148Y46958719D01*
X31270148Y64486600D02*
X31330148Y64426600D01*
X11716648Y56849922D02*
X11716648Y56429922D01*
X20436648Y39669922D02*
X20436648Y37287122D01*
X29940148Y43106600D02*
X30600148Y43766600D01*
X5356804Y44034922D02*
X4192564Y44034922D01*
X29856208Y45185040D02*
X29041884Y45999364D01*
X48431648Y59014922D02*
X48466648Y58979922D01*
X37205148Y61726600D02*
X37801826Y61129922D01*
X22640148Y61421600D02*
X22244798Y61421600D01*
X28250148Y64486600D02*
X28250148Y63836600D01*
X50456648Y18689922D02*
X49621648Y17854922D01*
X27646648Y94009922D02*
X30186648Y94009922D01*
X22070148Y66686600D02*
X22070148Y65651600D01*
X33210020Y43895840D02*
X33624273Y43481587D01*
X32840148Y50806600D02*
X32200148Y50166600D01*
X29550148Y62536600D02*
X28900148Y62536600D01*
X36636648Y33587122D02*
X36636648Y31174122D01*
X29940148Y43106600D02*
X29860148Y43106600D01*
D43*
G04 #@! TO.N,+3V3*
X7960000Y52910000D02*
X8890078Y51979922D01*
X8450000Y60920000D02*
X7780000Y60250000D01*
X12509318Y44470682D02*
X12240000Y44740000D01*
D44*
X35310148Y63326600D02*
X35725148Y63326600D01*
X48411648Y34779922D02*
X48131648Y35059922D01*
D43*
X4905048Y4870762D02*
X4905048Y20729082D01*
D44*
X32720148Y62616600D02*
X32800148Y62536600D01*
D43*
X19498400Y46345784D02*
X19498400Y46255784D01*
D44*
X30015212Y45721488D02*
X30015212Y46851536D01*
X28569444Y47396872D02*
X28139172Y46966600D01*
X34383634Y63523100D02*
X33136648Y63523100D01*
X29292928Y59699649D02*
X29292928Y59655233D01*
X25800148Y50349048D02*
X25566148Y50583048D01*
D43*
X8450000Y60390000D02*
X8370000Y60310000D01*
D44*
X35776648Y61500100D02*
X35646648Y61630100D01*
D43*
X5675888Y4099922D02*
X4905048Y4870762D01*
D45*
X25336648Y62246600D02*
X25313148Y62223100D01*
D44*
X30200148Y66436600D02*
X30536648Y66773100D01*
D43*
X23536648Y35810682D02*
X22716648Y34990682D01*
D44*
X30380148Y69961600D02*
X31505148Y69961600D01*
D43*
X8450000Y61160000D02*
X8450000Y60390000D01*
D44*
X30980148Y56681600D02*
X32685148Y56681600D01*
D43*
X6105052Y61111652D02*
X5431700Y60438300D01*
X6685888Y22509922D02*
X6186648Y22509922D01*
D44*
X22888470Y62639922D02*
X24434378Y62639922D01*
X29886648Y67606744D02*
X29886648Y68360100D01*
X35324147Y63312601D02*
X34594133Y63312601D01*
X29236648Y58969990D02*
X29234148Y58967490D01*
D43*
X6896700Y60363300D02*
X6893300Y60363300D01*
X1171648Y37949766D02*
X5356804Y42134922D01*
D44*
X28900148Y66436600D02*
X28250148Y66436600D01*
D43*
X4905048Y20729082D02*
X6685888Y22509922D01*
X34365758Y36411522D02*
X44478478Y36411522D01*
X14476648Y53059922D02*
X15346648Y53059922D01*
X23536648Y36209922D02*
X23973448Y35773122D01*
D45*
X25313148Y62223100D02*
X24851200Y62223100D01*
D44*
X29430148Y69951600D02*
X28360148Y69951600D01*
D43*
X23030000Y87850000D02*
X21740000Y89140000D01*
X23536648Y36209922D02*
X23536648Y35810682D01*
D44*
X33136648Y63523100D02*
X32800148Y63186600D01*
X27400148Y45366600D02*
X28735522Y45366600D01*
X30600148Y44566600D02*
X29784758Y43751210D01*
D43*
X6186648Y22509922D02*
X1171648Y27524922D01*
D44*
X36688648Y60070100D02*
X37806009Y60070100D01*
X29930148Y67259956D02*
X29930148Y67563244D01*
D43*
X48494510Y35764510D02*
X48494510Y35919637D01*
X7960000Y52910000D02*
X7228248Y53641752D01*
X6893300Y60363300D02*
X6890000Y60360000D01*
D44*
X30380148Y69961600D02*
X29460148Y69961600D01*
D43*
X6121622Y61138378D02*
X6896700Y60363300D01*
D44*
X29529879Y59936600D02*
X29292928Y59699649D01*
X30536648Y66773100D02*
X30536648Y69805100D01*
X35776648Y61392306D02*
X35776648Y61500100D01*
X36205148Y60656600D02*
X36205148Y61071600D01*
X26760148Y61886600D02*
X26950148Y61886600D01*
X34594133Y63312601D02*
X34383634Y63523100D01*
X52350000Y36380000D02*
X53166648Y35563352D01*
X32150148Y62536600D02*
X32230148Y62616600D01*
D43*
X6060000Y62413570D02*
X6160000Y62313570D01*
D44*
X29400148Y66286600D02*
X29050148Y66286600D01*
X29236648Y59006600D02*
X29236648Y58969990D01*
X29550148Y66436600D02*
X29400148Y66286600D01*
X28139172Y46966600D02*
X27400148Y46966600D01*
X25800148Y43766600D02*
X25439252Y43766600D01*
X25520292Y62850100D02*
X25336648Y62666456D01*
X30460324Y46166600D02*
X30015212Y45721488D01*
D43*
X7228248Y60021752D02*
X6890000Y60360000D01*
D44*
X28250148Y66436600D02*
X27600148Y66436600D01*
D43*
X23030000Y77570000D02*
X23280000Y77320000D01*
D44*
X29550148Y66436600D02*
X29930148Y66816600D01*
X25336648Y62666456D02*
X25336648Y62246600D01*
D43*
X15346648Y53059922D02*
X15366648Y53079922D01*
D44*
X28890420Y47396872D02*
X28569444Y47396872D01*
X32230148Y62616600D02*
X32720148Y62616600D01*
D43*
X9186648Y60819922D02*
X10496648Y59509922D01*
D44*
X32950148Y63686600D02*
X32800148Y63836600D01*
X29784758Y43751210D02*
X29763498Y43751210D01*
D43*
X6121700Y61131730D02*
X6121700Y60408300D01*
X19498400Y46255784D02*
X22969184Y42785000D01*
D44*
X26300148Y64486600D02*
X26613648Y64800100D01*
D43*
X48131648Y35214922D02*
X48131648Y35401648D01*
D44*
X27645148Y69941600D02*
X27650148Y69946600D01*
X30850148Y59916600D02*
X30620148Y60146600D01*
X23065148Y65626600D02*
X23065148Y66661600D01*
D43*
X32226648Y34272412D02*
X34365758Y36411522D01*
X23030000Y81520000D02*
X23030000Y78970000D01*
D44*
X29440148Y68806600D02*
X29440148Y69941600D01*
X29236648Y59006600D02*
X29236648Y57570100D01*
X53166648Y35563352D02*
X53166648Y35027422D01*
X31423056Y52450192D02*
X31376648Y52496600D01*
X26613648Y64800100D02*
X26613648Y65916456D01*
X24744632Y66100100D02*
X24158132Y66686600D01*
X28360148Y69951600D02*
X27330148Y69951600D01*
X51845000Y36380000D02*
X52350000Y36380000D01*
X26300148Y63836600D02*
X26300148Y64486600D01*
X30620148Y60146600D02*
X30410148Y60146600D01*
X29886648Y66956744D02*
X29886648Y67216456D01*
X26702208Y70726780D02*
X26702208Y70559540D01*
X23040148Y66686600D02*
X23570148Y66686600D01*
X32101556Y52450192D02*
X31423056Y52450192D01*
X29886648Y68360100D02*
X29440148Y68806600D01*
D43*
X30997603Y36592397D02*
X31755693Y36592397D01*
D44*
X29810148Y56996600D02*
X29810148Y56671600D01*
X36095148Y62956600D02*
X36095148Y63996600D01*
D43*
X47460000Y47780000D02*
X47460000Y49019240D01*
D44*
X35925854Y61243100D02*
X35776648Y61392306D01*
D43*
X23973448Y35773122D02*
X30178328Y35773122D01*
X47460000Y49019240D02*
X45470000Y51009240D01*
D44*
X29236648Y59598953D02*
X29236648Y59006600D01*
X29292928Y59655233D02*
X29236648Y59598953D01*
X25336648Y62246600D02*
X25360148Y62223100D01*
X26423648Y62223100D02*
X25360148Y62223100D01*
D43*
X30178328Y35773122D02*
X30997603Y36592397D01*
D44*
X27320148Y69941600D02*
X27645148Y69941600D01*
D43*
X6160000Y62313570D02*
X6160000Y60860000D01*
D44*
X24158132Y66686600D02*
X23040148Y66686600D01*
X30980148Y56681600D02*
X30970148Y56671600D01*
X29550148Y59936600D02*
X30200148Y59936600D01*
X36033648Y61243100D02*
X35925854Y61243100D01*
X26613648Y65916456D02*
X26430004Y66100100D01*
X22640148Y62391600D02*
X22888470Y62639922D01*
D43*
X19488400Y46355784D02*
X19498400Y46345784D01*
D44*
X34986648Y61630100D02*
X34416648Y62200100D01*
D43*
X48131648Y35401648D02*
X48494510Y35764510D01*
D44*
X29886648Y67216456D02*
X29930148Y67259956D01*
X25757004Y62850100D02*
X25520292Y62850100D01*
X25963648Y63500100D02*
X25963648Y63056744D01*
X29180148Y47686600D02*
X28890420Y47396872D01*
X27695148Y69941600D02*
X27320148Y69941600D01*
D43*
X19488400Y48048170D02*
X19488400Y46355784D01*
D44*
X27450148Y42996600D02*
X27400148Y43046600D01*
X35646648Y61630100D02*
X34986648Y61630100D01*
X29930148Y66816600D02*
X29930148Y66913244D01*
D43*
X15246648Y44470682D02*
X12509318Y44470682D01*
D44*
X35725148Y63326600D02*
X36095148Y62956600D01*
X25963648Y63056744D02*
X25757004Y62850100D01*
X33286792Y62166600D02*
X33170148Y62166600D01*
D43*
X44478478Y36411522D02*
X44510000Y36380000D01*
D44*
X25439252Y43766600D02*
X25257284Y43948568D01*
D45*
X24851200Y62223100D02*
X24434378Y62639922D01*
D43*
X7228248Y53641752D02*
X7228248Y60021752D01*
X23080000Y82960000D02*
X23080000Y84020000D01*
X23030000Y84070000D02*
X23030000Y86620000D01*
D44*
X29930148Y67563244D02*
X29886648Y67606744D01*
D43*
X31755693Y36592397D02*
X32226648Y36121442D01*
D44*
X26300148Y63836600D02*
X25963648Y63500100D01*
D43*
X23030000Y78970000D02*
X23030000Y77570000D01*
D44*
X33320292Y62200100D02*
X33286792Y62166600D01*
X36205148Y60656600D02*
X36205148Y59586600D01*
X26423648Y62223100D02*
X26760148Y61886600D01*
D43*
X53230000Y34280000D02*
X53230000Y34964070D01*
X22969184Y42785000D02*
X27238548Y42785000D01*
D44*
X32950148Y63336600D02*
X32950148Y63686600D01*
D43*
X32226648Y33669162D02*
X32226648Y34272412D01*
D44*
X33170148Y62166600D02*
X32800148Y62536600D01*
D43*
X8890078Y51979922D02*
X15556648Y51979922D01*
D44*
X30410148Y60146600D02*
X30200148Y59936600D01*
D43*
X6060000Y63040000D02*
X6060000Y62413570D01*
X15556648Y51979922D02*
X19488400Y48048170D01*
X1171648Y27524922D02*
X1171648Y37949766D01*
X23080000Y82960000D02*
X23080000Y81570000D01*
D44*
X31505148Y69961600D02*
X31530148Y69936600D01*
X28735522Y45366600D02*
X28816112Y45286010D01*
D43*
X8450000Y60950000D02*
X9100000Y60300000D01*
D44*
X29236648Y57570100D02*
X29810148Y56996600D01*
D43*
X27238548Y42785000D02*
X27450148Y42996600D01*
D44*
X26702208Y70559540D02*
X27320148Y69941600D01*
X36205148Y61071600D02*
X36033648Y61243100D01*
D43*
X32226648Y33669162D02*
X32226648Y36121442D01*
D44*
X37806009Y60070100D02*
X37830612Y60045497D01*
X29050148Y66286600D02*
X28900148Y66436600D01*
X27400148Y43046600D02*
X27400148Y43766600D01*
D43*
X23030000Y86620000D02*
X23030000Y87850000D01*
D44*
X26430004Y66100100D02*
X24744632Y66100100D01*
X36205148Y59586600D02*
X36688648Y60070100D01*
X32800148Y63186600D02*
X32950148Y63336600D01*
X34416648Y62200100D02*
X33320292Y62200100D01*
X30970148Y56671600D02*
X29940148Y56671600D01*
D43*
X6170078Y60849922D02*
X8436648Y60849922D01*
D44*
X48411648Y33432422D02*
X48411648Y34779922D01*
X29930148Y66913244D02*
X29886648Y66956744D01*
X30015212Y46851536D02*
X29180148Y47686600D01*
G04 #@! TO.N,/A4*
X20930000Y49130000D02*
X21890000Y48170000D01*
X20930000Y54994829D02*
X20930000Y49130000D01*
X23105171Y57170000D02*
X20930000Y54994829D01*
X21890000Y48170000D02*
X21890000Y45390000D01*
X26300148Y57763993D02*
X25976155Y57440000D01*
X24390000Y57440000D02*
X24120000Y57170000D01*
X26300148Y58636600D02*
X26300148Y57763993D01*
X24120000Y57170000D02*
X23105171Y57170000D01*
X25976155Y57440000D02*
X24390000Y57440000D01*
D43*
G04 #@! TO.N,GNDADC*
X53110726Y46960000D02*
X55136648Y48985922D01*
X52136648Y74985922D02*
X52136648Y66004482D01*
X52073766Y65941600D02*
X51006648Y64874482D01*
D46*
X5991600Y66955507D02*
X6150000Y66797107D01*
D44*
X23421752Y60429922D02*
X23531752Y60319922D01*
D46*
X6428400Y68958400D02*
X5991600Y68521600D01*
X12049980Y71658902D02*
X15557078Y75166000D01*
D45*
X25000148Y59936600D02*
X24353326Y59936600D01*
D44*
X21721648Y59489921D02*
X21721648Y59169922D01*
D43*
X18503308Y59321600D02*
X21569971Y59321600D01*
X41710000Y46600000D02*
X41999998Y46600000D01*
X23505178Y39744822D02*
X36121124Y39744822D01*
D44*
X22661649Y60429922D02*
X23421752Y60429922D01*
D43*
X11134908Y66690000D02*
X18503308Y59321600D01*
D46*
X8606648Y68090682D02*
X8606648Y68790682D01*
D43*
X5598400Y65878400D02*
X5598400Y64928400D01*
X4140000Y63470000D02*
X4140000Y52940000D01*
D46*
X4140000Y51970000D02*
X4140000Y52940000D01*
X5991600Y68521600D02*
X5991600Y66955507D01*
X11256648Y69030682D02*
X11256648Y71658902D01*
D43*
X52136648Y66004482D02*
X51006648Y64874482D01*
X55136648Y48985922D02*
X56900000Y50749274D01*
D46*
X5150000Y50960000D02*
X4140000Y51970000D01*
X11256648Y71658902D02*
X12049980Y71658902D01*
D43*
X44100000Y46960000D02*
X53110726Y46960000D01*
D46*
X8606648Y68090682D02*
X10316648Y68090682D01*
D43*
X41050000Y45940000D02*
X41710000Y46600000D01*
D46*
X13534570Y50960000D02*
X5150000Y50960000D01*
D43*
X56900000Y50749274D02*
X56900000Y64054908D01*
D46*
X15508648Y48985922D02*
X13534570Y50960000D01*
D43*
X9390000Y66690000D02*
X11134908Y66690000D01*
D46*
X6150000Y66430000D02*
X5598400Y65878400D01*
X8606648Y68790682D02*
X8438930Y68958400D01*
D43*
X5598400Y64928400D02*
X4140000Y63470000D01*
D44*
X22661649Y60429922D02*
X21721648Y59489921D01*
D46*
X15557078Y75166000D02*
X18440000Y75166000D01*
D43*
X14926648Y78679352D02*
X14926648Y80464922D01*
D46*
X6150000Y66797107D02*
X6150000Y66430000D01*
X8438930Y68958400D02*
X6428400Y68958400D01*
D43*
X18440000Y75166000D02*
X14926648Y78679352D01*
X41050000Y44673698D02*
X41050000Y45940000D01*
D45*
X23919074Y59932600D02*
X24646648Y59932600D01*
D43*
X55013308Y65941600D02*
X52073766Y65941600D01*
D45*
X23531752Y60319922D02*
X23919074Y59932600D01*
D43*
X56900000Y64054908D02*
X55013308Y65941600D01*
X15508648Y47741352D02*
X23505178Y39744822D01*
X36121124Y39744822D02*
X41050000Y44673698D01*
D46*
X10936648Y80754922D02*
X14636648Y80754922D01*
D43*
X9390000Y67307330D02*
X8606648Y68090682D01*
X9390000Y66690000D02*
X9390000Y67307330D01*
X43421522Y46281522D02*
X44100000Y46960000D01*
D46*
X10316648Y68090682D02*
X11256648Y69030682D01*
D43*
X15508648Y48368422D02*
X15508648Y47741352D01*
D44*
X48856648Y64934482D02*
X50946648Y64934482D01*
G04 #@! TO.N,/A5*
X19156648Y42829922D02*
X19156648Y42183352D01*
X19156648Y42183352D02*
X22566648Y38773352D01*
X20440000Y55063274D02*
X20440000Y47970000D01*
X24124708Y57723100D02*
X23911530Y57509922D01*
X25938229Y57723100D02*
X24124708Y57723100D01*
X23056648Y30950422D02*
X23056648Y30299922D01*
X26300148Y59286600D02*
X25963648Y58950100D01*
X25963648Y58950100D02*
X25963648Y57748519D01*
X20440000Y47970000D02*
X21330000Y47080000D01*
X23911530Y57509922D02*
X22886648Y57509922D01*
X22566648Y38773352D02*
X22566648Y37389922D01*
X21330000Y47080000D02*
X21330000Y45750000D01*
X22886648Y57509922D02*
X20440000Y55063274D01*
X25963648Y57748519D02*
X25938229Y57723100D01*
D46*
G04 #@! TO.N,Net-(Bank_But1-B)*
X50658648Y97987922D02*
X51156648Y97489922D01*
X50658648Y99689922D02*
X50658648Y97987922D01*
D43*
G04 #@! TO.N,+12V*
X41966648Y6059922D02*
X41966648Y11719922D01*
X41436648Y4899922D02*
X41436648Y5529922D01*
X47606648Y58739922D02*
X47606648Y59519482D01*
X38021648Y21829922D02*
X37701648Y21509922D01*
X26291648Y28539922D02*
X25631648Y29199922D01*
X59069248Y33510442D02*
X57920400Y32361594D01*
X25971648Y8054922D02*
X25916648Y7999922D01*
X59069248Y43091090D02*
X59069248Y33510442D01*
X33056648Y24199922D02*
X34091648Y24199922D01*
X35816648Y24094922D02*
X37701648Y22209922D01*
X26671648Y8054922D02*
X25971648Y8054922D01*
X27096648Y7629922D02*
X26671648Y8054922D01*
X25631648Y29199922D02*
X23546648Y29199922D01*
X34196648Y24094922D02*
X35816648Y24094922D01*
X56280416Y45879922D02*
X59069248Y43091090D01*
X51134148Y45879922D02*
X56280416Y45879922D01*
X4145400Y72550400D02*
X4125000Y72530000D01*
X26291648Y28539922D02*
X26291648Y29429922D01*
X40316648Y7224922D02*
X41586648Y5954922D01*
X9301170Y54625400D02*
X7900000Y54625400D01*
X53411648Y18664672D02*
X53026648Y18279672D01*
X51134148Y45222422D02*
X51331648Y45024922D01*
X53411648Y21184922D02*
X51546648Y23049922D01*
X51134148Y45879922D02*
X51134148Y45222422D01*
X50850000Y58422531D02*
X51744039Y58422531D01*
X15041648Y86264922D02*
X15041648Y84889922D01*
X57920400Y32361594D02*
X57920400Y30655000D01*
X38546648Y21829922D02*
X38021648Y21829922D01*
X4875000Y72550400D02*
X4145400Y72550400D01*
X47436648Y59689482D02*
X47436648Y60614922D01*
X51744039Y58422531D02*
X52421648Y57744922D01*
X51331648Y45024922D02*
X51046648Y44739922D01*
X28246648Y7629922D02*
X27096648Y7629922D01*
X15041648Y84889922D02*
X15276648Y84654922D01*
X51046648Y44739922D02*
X51046648Y43524922D01*
X53411648Y19729672D02*
X53411648Y21184922D01*
X52421648Y57744922D02*
X53336648Y56829922D01*
X26291648Y29429922D02*
X25686648Y30034922D01*
X8556648Y39404922D02*
X8556648Y38349006D01*
X8556648Y38349006D02*
X8112564Y37904922D01*
X37701648Y22209922D02*
X37701648Y21509922D01*
X11806648Y82929922D02*
X15041648Y86164922D01*
X53336648Y56829922D02*
X53336648Y56144922D01*
X10256648Y70999922D02*
X9030078Y70999922D01*
X41586648Y5679922D02*
X41966648Y6059922D01*
X41586648Y5954922D02*
X41586648Y5679922D01*
X9326648Y54599922D02*
X9301170Y54625400D01*
X53411648Y19729672D02*
X53411648Y18664672D01*
X47436648Y60614922D02*
X48006648Y61184922D01*
G04 #@! TO.N,-12VA*
X43971648Y11144922D02*
X42446648Y12669922D01*
X43971648Y10679922D02*
X43971648Y11144922D01*
X25896648Y20459922D02*
X25896648Y24584922D01*
X43536648Y39099922D02*
X43536648Y40094922D01*
X51448148Y59050982D02*
X52031648Y59634482D01*
X33986648Y4364922D02*
X33986648Y10699922D01*
X2890000Y88020000D02*
X2240000Y87370000D01*
X47471898Y14784672D02*
X47346648Y14909922D01*
X30361648Y31984922D02*
X30236648Y32109922D01*
X2240000Y47920000D02*
X3250000Y46910000D01*
X49830000Y59050982D02*
X49406648Y58627630D01*
X49830000Y59050982D02*
X51448148Y59050982D01*
X52031648Y59634482D02*
X52031648Y62111922D01*
X29851648Y28539922D02*
X29851648Y29554922D01*
X48651648Y14784672D02*
X47471898Y14784672D01*
X46740000Y51910000D02*
X46740000Y52625000D01*
X47436648Y53321648D02*
X46805000Y52690000D01*
X49406648Y58627630D02*
X49406648Y55189922D01*
X52031648Y62111922D02*
X53054648Y63134922D01*
X31026648Y27364922D02*
X29851648Y28539922D01*
X3250000Y46910000D02*
X10019486Y46910000D01*
X10301648Y82704922D02*
X9376648Y82704922D01*
X10019486Y46910000D02*
X11350000Y45579486D01*
X11321648Y86204922D02*
X11321648Y86481648D01*
X33056648Y13299922D02*
X25896648Y20459922D01*
X31586648Y31984922D02*
X30361648Y31984922D01*
X8610000Y88020000D02*
X2890000Y88020000D01*
X43551648Y40109922D02*
X45016648Y41574922D01*
X11321648Y86481648D02*
X11670000Y86830000D01*
X11350000Y45579486D02*
X11350000Y43867486D01*
X47436648Y54194922D02*
X47436648Y53321648D01*
X11350000Y43867486D02*
X12362564Y42854922D01*
X30461648Y1994922D02*
X30196648Y1729922D01*
X43916648Y9679922D02*
X43916648Y10624922D01*
X49406648Y55189922D02*
X48411648Y54194922D01*
X46216648Y9174922D02*
X45121648Y9174922D01*
X45121648Y9174922D02*
X45056648Y9109922D01*
X11321648Y86204922D02*
X11321648Y83724922D01*
X29851648Y29554922D02*
X30036648Y29739922D01*
X48411648Y54194922D02*
X47436648Y54194922D01*
X34166648Y27364922D02*
X31026648Y27364922D01*
X29851648Y28539922D02*
X25896648Y24584922D01*
X11321648Y83724922D02*
X10301648Y82704922D01*
X48651648Y14804672D02*
X47126648Y16329672D01*
X31616648Y1994922D02*
X33986648Y4364922D01*
X34166648Y27364922D02*
X35706648Y27364922D01*
X53054648Y63134922D02*
X53906648Y63134922D01*
D44*
G04 #@! TO.N,/A2*
X42460050Y55085050D02*
X42460050Y45280050D01*
X20000000Y55844067D02*
X20000000Y46370000D01*
X25313648Y58950100D02*
X25313648Y58380100D01*
X20000000Y46370000D02*
X22330000Y44040000D01*
X44285000Y56910000D02*
X42460050Y55085050D01*
X25650148Y59286600D02*
X25313648Y58950100D01*
X22479033Y58323100D02*
X20000000Y55844067D01*
X42460050Y45280050D02*
X36356522Y39176522D01*
X25256648Y58323100D02*
X22479033Y58323100D01*
X36356522Y39176522D02*
X22864108Y39176522D01*
X25313648Y58380100D02*
X25256648Y58323100D01*
X22864108Y39176522D02*
X21945316Y40095314D01*
G04 #@! TO.N,/A7*
X20295078Y84094922D02*
X17796648Y84094922D01*
D45*
X25332648Y59619100D02*
X23710900Y59619100D01*
X21090000Y69050000D02*
X20620000Y69520000D01*
X20620000Y69520000D02*
X20620000Y71240000D01*
D44*
X20620000Y74423500D02*
X21426500Y75230000D01*
X20380000Y84010000D02*
X20295078Y84094922D01*
D45*
X25650148Y59936600D02*
X25332648Y59619100D01*
D44*
X20380000Y84010000D02*
X20380000Y84130000D01*
X20620000Y71240000D02*
X20620000Y74423500D01*
D45*
X23710900Y59619100D02*
X23510000Y59820000D01*
D44*
G04 #@! TO.N,/A6*
X17440000Y96000000D02*
X11849570Y96000000D01*
X25324993Y64796965D02*
X25298858Y64823100D01*
X2633148Y103376422D02*
X3556648Y104299922D01*
X26019346Y60235598D02*
X26019346Y60217402D01*
X4849648Y98949922D02*
X2633148Y101166422D01*
X26780000Y88520000D02*
X26780000Y88720000D01*
X26780000Y88720000D02*
X23400000Y92100000D01*
X23793648Y64823100D02*
X23620148Y64996600D01*
X8899648Y98949922D02*
X4849648Y98949922D01*
X2633148Y101166422D02*
X2633148Y103376422D01*
X11849570Y96000000D02*
X8899648Y98949922D01*
X26019346Y60217402D02*
X26300148Y59936600D01*
X25298858Y64823100D02*
X23793648Y64823100D01*
X21340000Y92100000D02*
X17440000Y96000000D01*
X23400000Y92100000D02*
X21340000Y92100000D01*
D46*
X3556648Y104299922D02*
X5196648Y104299922D01*
D44*
G04 #@! TO.N,/D6*
X34079595Y56990583D02*
X33456648Y57613530D01*
X32915417Y57981331D02*
X32915417Y57912357D01*
D46*
X43809922Y102439922D02*
X42577800Y101207800D01*
D44*
X40716648Y56599922D02*
X38266648Y56599922D01*
D46*
X43876648Y104359922D02*
X43876648Y102439922D01*
D44*
X38266648Y56599922D02*
X38110748Y56755822D01*
X34791996Y56299100D02*
X34100513Y56990583D01*
X32260148Y58636600D02*
X32915417Y57981331D01*
X32915417Y57912357D02*
X33214244Y57613530D01*
X35820748Y56755822D02*
X35364026Y56299100D01*
X34100513Y56990583D02*
X34079595Y56990583D01*
X41606648Y57489922D02*
X40716648Y56599922D01*
X38110748Y56755822D02*
X35820748Y56755822D01*
X35364026Y56299100D02*
X34791996Y56299100D01*
D46*
X42577800Y101207800D02*
X42577800Y100236803D01*
D44*
X32150148Y58636600D02*
X32260148Y58636600D01*
X33214244Y57613530D02*
X33456648Y57613530D01*
G04 #@! TO.N,/D8*
X29981026Y41740000D02*
X33270000Y41740000D01*
X17376648Y48089922D02*
X17376648Y47202811D01*
X34430148Y43591112D02*
X33984612Y44036648D01*
X35078011Y56989600D02*
X35078011Y57288737D01*
X17430000Y51480000D02*
X17430000Y59320000D01*
X33270000Y41740000D02*
X34430148Y42900148D01*
X22666648Y95966648D02*
X22480000Y95780000D01*
X17430000Y59320000D02*
X17370000Y59380000D01*
X34430148Y42900148D02*
X34430148Y43591112D01*
X35078011Y57288737D02*
X34100148Y58266600D01*
X28583948Y40342922D02*
X29981026Y41740000D01*
X34100148Y58266600D02*
X34100148Y58636600D01*
X17376648Y47202811D02*
X24236538Y40342922D01*
X22666648Y97119922D02*
X22666648Y95966648D01*
X24236538Y40342922D02*
X28583948Y40342922D01*
X33984612Y44036648D02*
X33984612Y45645009D01*
G04 #@! TO.N,/A9*
X9956648Y86184922D02*
X9956648Y87309922D01*
X9956648Y87309922D02*
X10266726Y87620000D01*
X21030000Y86970000D02*
X21030000Y75168974D01*
X10266726Y87620000D02*
X15800000Y87620000D01*
D45*
X21850000Y57180000D02*
X22120000Y57180000D01*
D44*
X15800000Y87620000D02*
X15840000Y87580000D01*
D45*
X25380912Y58023100D02*
X25650148Y58292336D01*
X22120000Y57180000D02*
X22731677Y57791677D01*
D44*
X21030000Y75168974D02*
X20200000Y74338974D01*
X20200000Y66878673D02*
X21052493Y66026180D01*
X20420000Y87580000D02*
X21030000Y86970000D01*
X15840000Y87580000D02*
X20420000Y87580000D01*
D45*
X22731677Y57791677D02*
X23869021Y57791677D01*
X25650148Y58292336D02*
X25650148Y58636600D01*
D44*
X20200000Y74338974D02*
X20200000Y66878673D01*
D45*
X23869021Y57791677D02*
X24100444Y58023100D01*
X24100444Y58023100D02*
X25380912Y58023100D01*
D46*
G04 #@! TO.N,Net-(Bank_But1-POLE-A)*
X45288648Y106059922D02*
X46508648Y104839922D01*
X43876648Y106059922D02*
X45288648Y106059922D01*
D44*
G04 #@! TO.N,Net-(U1B--)*
X48006648Y62484922D02*
X46946648Y62484922D01*
X46946648Y62484922D02*
X46381648Y61919922D01*
X48006648Y61834922D02*
X48006648Y62484922D01*
G04 #@! TO.N,/D15*
X39655870Y56343500D02*
X41290000Y56343500D01*
X29070000Y19170000D02*
X29070000Y23770000D01*
X34318363Y12731637D02*
X34318363Y13921637D01*
X32655148Y11068422D02*
X32655148Y7038422D01*
X29070000Y23770000D02*
X31690000Y26390000D01*
X31690000Y26390000D02*
X31970000Y26390000D01*
X34404648Y55972100D02*
X39284470Y55972100D01*
X38800000Y38610000D02*
X38580000Y38830000D01*
X29070000Y19170000D02*
X34318363Y13921637D01*
X34318363Y12731637D02*
X32655148Y11068422D01*
X32150148Y61886600D02*
X31830104Y62206644D01*
X31830104Y62206644D02*
X31580004Y62206644D01*
X34170148Y56206600D02*
X34404648Y55972100D01*
X38800000Y36960000D02*
X38800000Y38610000D01*
X39284470Y55972100D02*
X39655870Y56343500D01*
X32655148Y7038422D02*
X31986648Y6369922D01*
G04 #@! TO.N,/D13*
X38270000Y38520000D02*
X37980000Y38810000D01*
D45*
X31842714Y61559241D02*
X32150148Y61251807D01*
D44*
X38270000Y36960000D02*
X38270000Y38520000D01*
D43*
X9506648Y23459922D02*
X10266648Y22699922D01*
D44*
X11166648Y22769922D02*
X10336648Y22769922D01*
D43*
X8684868Y23459922D02*
X9506648Y23459922D01*
D46*
G04 #@! TO.N,Net-(Bank_But1-G)*
X47908648Y104539922D02*
X47908648Y98051922D01*
X48858648Y105489922D02*
X47908648Y104539922D01*
X47908648Y98051922D02*
X47256648Y97399922D01*
G04 #@! TO.N,Net-(Bank_But1-R)*
X48996648Y97419922D02*
X48996648Y99551922D01*
D44*
G04 #@! TO.N,Net-(POT_PITCH1-Center)*
X48243500Y66276500D02*
X50970567Y66276500D01*
X47520000Y65297834D02*
X47520000Y65800000D01*
X50970567Y66276500D02*
X51410000Y66715933D01*
X51410000Y66715933D02*
X51410000Y67180000D01*
X47086424Y64934482D02*
X45369944Y63218002D01*
X51410000Y67180000D02*
X47136648Y71453352D01*
X47136648Y71453352D02*
X47136648Y74985922D01*
X47520000Y65800000D02*
X48120000Y66400000D01*
X48120000Y66400000D02*
X48243500Y66276500D01*
G04 #@! TO.N,VREF+*
X11280000Y66170000D02*
X10470000Y66170000D01*
D43*
X6835990Y69870000D02*
X4649240Y67683250D01*
X52945478Y76484522D02*
X53670000Y75760000D01*
X53670000Y68173698D02*
X57533201Y64310497D01*
D44*
X10470000Y66170000D02*
X9576500Y65276500D01*
D43*
X3750000Y64430000D02*
X3750000Y50744570D01*
X4649240Y67683250D02*
X4649240Y67080000D01*
D44*
X9023500Y65276500D02*
X7920000Y66380000D01*
D43*
X7230000Y69870000D02*
X6835990Y69870000D01*
X7360000Y74086000D02*
X7360000Y70000000D01*
X41860000Y45054908D02*
X41860000Y46010000D01*
D44*
X9576500Y65276500D02*
X9023500Y65276500D01*
X20590000Y58990000D02*
X18460000Y58990000D01*
D43*
X5160000Y67080000D02*
X5650000Y66590000D01*
X44800000Y45590000D02*
X42950000Y45590000D01*
D44*
X18460000Y58990000D02*
X11280000Y66170000D01*
D43*
X45866800Y46656800D02*
X44800000Y45590000D01*
X17257668Y45072332D02*
X17677668Y45072332D01*
X3750000Y50744570D02*
X5508648Y48985922D01*
X57533201Y64310497D02*
X57533201Y48993201D01*
X55196800Y46656800D02*
X45866800Y46656800D01*
X5508648Y48985922D02*
X7007248Y50484522D01*
D44*
X23373400Y59286600D02*
X22810000Y59850000D01*
D43*
X57533201Y48993201D02*
X55196800Y46656800D01*
X17677668Y45072332D02*
X23308378Y39441622D01*
X36246714Y39441622D02*
X41860000Y45054908D01*
X42136648Y74985922D02*
X43635248Y76484522D01*
X42950000Y45590000D02*
X42950000Y46799274D01*
X43635248Y76484522D02*
X52945478Y76484522D01*
X53670000Y75760000D02*
X53670000Y68173698D01*
X4600000Y65280000D02*
X3750000Y64430000D01*
X7360000Y70000000D02*
X7230000Y69870000D01*
X42950000Y46799274D02*
X45136648Y48985922D01*
X23308378Y39441622D02*
X36246714Y39441622D01*
X11845478Y50484522D02*
X17257668Y45072332D01*
D44*
X20760000Y58820000D02*
X20590000Y58990000D01*
D43*
X7007248Y50484522D02*
X11845478Y50484522D01*
X46210000Y44180000D02*
X44800000Y45590000D01*
D44*
X25000148Y59286600D02*
X23373400Y59286600D01*
X7920000Y66380000D02*
X6640000Y66380000D01*
D43*
X8440000Y75166000D02*
X7360000Y74086000D01*
X4649240Y67080000D02*
X5160000Y67080000D01*
X46196648Y39809922D02*
X46196648Y44166648D01*
X4649240Y67080000D02*
X4649240Y65329240D01*
X46196648Y44166648D02*
X46210000Y44180000D01*
D44*
G04 #@! TO.N,/D11*
X35326648Y81209922D02*
X36569648Y82452922D01*
X35746648Y59670100D02*
X34830148Y60586600D01*
X36569648Y86655370D02*
X36666648Y86752370D01*
X34417957Y70962043D02*
X34390000Y70990000D01*
X36666648Y86752370D02*
X36666648Y99829922D01*
X34830148Y60586600D02*
X34100148Y60586600D01*
X35746648Y59136033D02*
X35746648Y59670100D01*
X36666648Y99829922D02*
X37796648Y100959922D01*
X36569648Y82452922D02*
X36569648Y86655370D01*
X36786081Y58096600D02*
X35746648Y59136033D01*
X36786081Y58096600D02*
X37873326Y58096600D01*
X36188769Y70962043D02*
X34417957Y70962043D01*
X37873326Y58096600D02*
X40076648Y60299922D01*
G04 #@! TO.N,/D10*
X33212417Y58224331D02*
X32800148Y58636600D01*
X38570326Y57613600D02*
X40696648Y59739922D01*
X35228578Y56626100D02*
X34927444Y56626100D01*
X34714511Y56972237D02*
X33462417Y58224331D01*
X33462417Y58224331D02*
X33212417Y58224331D01*
X7237553Y101303422D02*
X20216500Y101303422D01*
X20216500Y101303422D02*
X21820000Y99699922D01*
X36216078Y57613600D02*
X38570326Y57613600D01*
X4060148Y101266422D02*
X7200553Y101266422D01*
X7200553Y101266422D02*
X7237553Y101303422D01*
X36216078Y57613600D02*
X35228578Y56626100D01*
X34714511Y56839033D02*
X34714511Y56972237D01*
X3396648Y101929922D02*
X4060148Y101266422D01*
X34927444Y56626100D02*
X34714511Y56839033D01*
G04 #@! TO.N,/D14*
X23603148Y99783422D02*
X23603148Y93633422D01*
X34160000Y87232067D02*
X34160000Y85480000D01*
X36966648Y81799922D02*
X36936648Y81799922D01*
X35212341Y62598793D02*
X34725533Y63085601D01*
X34725533Y63085601D02*
X34201147Y63085601D01*
X27588285Y89648285D02*
X31743782Y89648285D01*
X34201147Y63085601D02*
X34100148Y63186600D01*
X36936648Y81799922D02*
X36164039Y81027313D01*
X22796648Y100589922D02*
X23603148Y99783422D01*
X31743782Y89648285D02*
X34160000Y87232067D01*
X23603148Y93633422D02*
X27588285Y89648285D01*
G04 #@! TO.N,/D12*
X39116648Y101166922D02*
X34203648Y106079922D01*
X37900000Y68496570D02*
X37900000Y67990000D01*
X37293648Y82329922D02*
X37429648Y82465922D01*
D46*
X22836648Y106859922D02*
X22836648Y105259922D01*
D44*
X39116648Y89202370D02*
X39116648Y101166922D01*
X34100148Y64486600D02*
X34500148Y64486600D01*
X37429648Y87515370D02*
X39116648Y89202370D01*
X37429648Y82465922D02*
X37429648Y87515370D01*
X34203648Y106079922D02*
X23616648Y106079922D01*
X34500148Y64486600D02*
X34670148Y64316600D01*
X37456648Y68939922D02*
X37900000Y68496570D01*
X23616648Y106079922D02*
X22836648Y106859922D01*
G04 #@! TO.N,Net-(POT_SAMP1-Center)*
X9236648Y79257922D02*
X13508648Y74985922D01*
X9236648Y80754922D02*
X9236648Y79257922D01*
D46*
X7756648Y82234922D02*
X9236648Y80754922D01*
D44*
G04 #@! TO.N,/D0*
X47256648Y95536648D02*
X46560000Y94840000D01*
X32800148Y67736600D02*
X35195804Y70132256D01*
X35195804Y70132256D02*
X38956500Y70132256D01*
G04 #@! TO.N,/D1*
X28470000Y77130000D02*
X28383000Y77043000D01*
X25650148Y66436600D02*
X25336648Y66750100D01*
X48996648Y95719922D02*
X48006570Y96710000D01*
X28383000Y77043000D02*
X27820000Y77043000D01*
X48006570Y96710000D02*
X44950000Y96710000D01*
X24821160Y66750100D02*
X23660000Y67911260D01*
X25336648Y66750100D02*
X24821160Y66750100D01*
X37536500Y91466500D02*
X38460000Y92390000D01*
X30330000Y77130000D02*
X28470000Y77130000D01*
X37536500Y90450000D02*
X37536500Y91466500D01*
X23660000Y67911260D02*
X23660000Y69100000D01*
X44950000Y96710000D02*
X43670000Y95430000D01*
G04 #@! TO.N,/D3*
X17676648Y97429922D02*
X13446648Y97429922D01*
X33763648Y66123100D02*
X33450148Y66436600D01*
X35790148Y78150000D02*
X32240000Y78150000D01*
X32240000Y78150000D02*
X31986500Y77896500D01*
X21583000Y76110000D02*
X21426500Y76266500D01*
X23860000Y76110000D02*
X21583000Y76110000D01*
X19726648Y95379922D02*
X17676648Y97429922D01*
X21617752Y93542248D02*
X19780078Y95379922D01*
X25646500Y77896500D02*
X23860000Y76110000D01*
X19780078Y95379922D02*
X19726648Y95379922D01*
X21426500Y76266500D02*
X21426500Y78140000D01*
X31986500Y77896500D02*
X25646500Y77896500D01*
X34479826Y66123100D02*
X33763648Y66123100D01*
X34576648Y66219922D02*
X34479826Y66123100D01*
X22851420Y93542248D02*
X21617752Y93542248D01*
G04 #@! TO.N,GND*
X35401468Y63937921D02*
X35380147Y63916600D01*
X41246570Y61500000D02*
X40686648Y62059922D01*
X8806570Y5809922D02*
X6046648Y5809922D01*
X8536648Y5049922D02*
X9296648Y5809922D01*
X35380147Y63916600D02*
X34471160Y63916600D01*
X6471648Y7369922D02*
X7674868Y6166702D01*
X7674868Y6166702D02*
X7674868Y5049922D01*
X34471160Y63916600D02*
X34391160Y63836600D01*
X34391160Y63836600D02*
X34100148Y63836600D01*
X42060000Y61500000D02*
X41246570Y61500000D01*
X40686648Y62059922D02*
X39866648Y62059922D01*
X7674868Y5049922D02*
X8536648Y5049922D01*
G04 #@! TO.N,/D5*
X37590148Y67030148D02*
X39244998Y68684998D01*
X52856648Y97046648D02*
X52190000Y96380000D01*
X39244998Y68684998D02*
X40144998Y68684998D01*
X33773148Y64813600D02*
X37590148Y64813600D01*
X33450148Y65136600D02*
X33773148Y64813600D01*
X37590148Y64813600D02*
X37590148Y67030148D01*
X52856648Y97489922D02*
X52856648Y97046648D01*
G04 #@! TO.N,/D19*
X32783570Y67086600D02*
X32493699Y67376471D01*
G04 #@! TO.N,/D18*
X24730000Y78970000D02*
X25732822Y79972822D01*
X31463997Y79972822D02*
X31946648Y79490171D01*
X34462622Y67400100D02*
X35672444Y68609922D01*
X31946648Y79490171D02*
X32596819Y78840000D01*
X32596819Y78840000D02*
X37220148Y78840000D01*
X33763648Y67400100D02*
X34462622Y67400100D01*
X35672444Y68609922D02*
X36646648Y68609922D01*
X33450148Y67086600D02*
X33763648Y67400100D01*
X25732822Y79972822D02*
X31463997Y79972822D01*
G04 #@! TO.N,/D7*
X33514104Y44186130D02*
X34120148Y43580086D01*
X24330564Y40569922D02*
X18026648Y46873838D01*
X34120148Y42989355D02*
X33100793Y41970000D01*
X4744900Y47175100D02*
X3070000Y48850000D01*
X29890000Y41970000D02*
X28489922Y40569922D01*
X3060000Y72460000D02*
X3060000Y86560000D01*
X13140000Y45620000D02*
X11584900Y47175100D01*
X33128407Y58943681D02*
X33143067Y58943681D01*
X33143067Y58943681D02*
X33450148Y58636600D01*
X15120000Y45620000D02*
X13140000Y45620000D01*
X33514104Y45272685D02*
X33514104Y44186130D01*
X3070000Y48850000D02*
X3070000Y72450000D01*
X34120148Y43580086D02*
X34120148Y42989355D01*
X18026648Y46873838D02*
X18026648Y47499922D01*
X11584900Y47175100D02*
X4744900Y47175100D01*
X28489922Y40569922D02*
X24330564Y40569922D01*
X3060000Y88670000D02*
X4896648Y90506648D01*
X3070000Y72450000D02*
X3060000Y72460000D01*
X33100793Y41970000D02*
X29890000Y41970000D01*
X4896648Y90506648D02*
X4896648Y97399922D01*
G04 #@! TO.N,/D17*
X24730000Y86620000D02*
X30590000Y86620000D01*
X31159673Y87189673D02*
X33046468Y87189673D01*
X33435675Y64486600D02*
X33137911Y64188837D01*
X30590000Y86620000D02*
X31159673Y87189673D01*
G04 #@! TO.N,/D16*
X34963148Y79996852D02*
X34963148Y82743148D01*
X34963148Y82743148D02*
X35810000Y83590000D01*
X35110000Y79850000D02*
X34963148Y79996852D01*
X29926795Y84070000D02*
X31946648Y86089853D01*
X24730000Y84070000D02*
X29926795Y84070000D01*
X33450148Y63836600D02*
X33780148Y64166600D01*
G04 #@! TO.N,/D9*
X32150148Y68503422D02*
X32186648Y68539922D01*
X32150148Y67736600D02*
X32150148Y68503422D01*
G04 #@! TO.N,/A0*
X26950148Y59951291D02*
X26625255Y60276184D01*
D45*
X32086648Y27929922D02*
X32801648Y27929922D01*
X22266648Y49319922D02*
X23160000Y48426570D01*
X29863045Y30549922D02*
X30711648Y29701319D01*
X30711648Y29701319D02*
X30711648Y29304922D01*
X23160000Y48426570D02*
X23160000Y43570000D01*
X28130000Y30549922D02*
X29863045Y30549922D01*
X23160000Y43570000D02*
X23030000Y43440000D01*
X32801648Y27929922D02*
X33381648Y28509922D01*
X30711648Y29304922D02*
X32086648Y27929922D01*
G04 #@! TO.N,/A1*
X24730000Y57070000D02*
X26213548Y57070000D01*
X23032904Y56583666D02*
X23032904Y56776000D01*
D44*
X41360000Y71880000D02*
X45070000Y71880000D01*
X39030000Y74210000D02*
X41360000Y71880000D01*
X25550000Y74210000D02*
X39030000Y74210000D01*
D45*
X26636648Y58991551D02*
X26931697Y59286600D01*
D44*
X44740000Y64350000D02*
X44740000Y62510000D01*
X21790000Y70450000D02*
X25550000Y74210000D01*
X21790000Y67880000D02*
X21790000Y70450000D01*
X45650000Y71300000D02*
X45650000Y65260000D01*
X44740000Y62510000D02*
X45330078Y61919922D01*
X45650000Y65260000D02*
X44740000Y64350000D01*
D45*
X26213548Y57070000D02*
X26636648Y57493100D01*
D44*
X21190000Y67380000D02*
X21290000Y67380000D01*
D45*
X23166826Y56909922D02*
X24569922Y56909922D01*
X24569922Y56909922D02*
X24730000Y57070000D01*
D44*
X45070000Y71880000D02*
X45650000Y71300000D01*
X21290000Y67380000D02*
X21790000Y67880000D01*
D45*
X26636648Y57493100D02*
X26636648Y58991551D01*
X23032904Y56776000D02*
X23166826Y56909922D01*
D44*
G04 #@! TO.N,/A3*
X23252700Y60920000D02*
X20840000Y60920000D01*
X41808974Y72400000D02*
X45060000Y72400000D01*
X25650148Y60586600D02*
X25323148Y60259600D01*
X39558974Y74650000D02*
X41808974Y72400000D01*
X22020000Y74650000D02*
X39558974Y74650000D01*
X45060000Y72400000D02*
X50820000Y66640000D01*
X55042018Y65537982D02*
X56310000Y64270000D01*
X23913100Y60259600D02*
X23252700Y60920000D01*
X56310000Y60459482D02*
X56310000Y64270000D01*
X55435000Y59584482D02*
X56310000Y60459482D01*
X25363148Y60299600D02*
X25650148Y60586600D01*
X55042018Y65537982D02*
X54357982Y65537982D01*
X21410000Y74040000D02*
X22020000Y74650000D01*
X25323148Y60259600D02*
X23913100Y60259600D01*
X25363148Y60282084D02*
X25363148Y60299600D01*
X54357982Y65537982D02*
X54260000Y65440000D01*
G04 #@! TO.N,/A8*
X26008416Y60900100D02*
X24639900Y60900100D01*
X16570000Y41620000D02*
X16570000Y41221570D01*
X26034148Y60874368D02*
X26008416Y60900100D01*
X21330000Y53010000D02*
X21330000Y51770000D01*
X16570000Y41221570D02*
X17031648Y40759922D01*
X22220000Y53900000D02*
X21330000Y53010000D01*
X26300148Y60608368D02*
X26034148Y60874368D01*
X24639900Y60900100D02*
X24520000Y61020000D01*
D43*
G04 #@! TO.N,Net-(J2-SIG)*
X36650000Y38690000D02*
X35806648Y37846648D01*
X35806648Y37846648D02*
X35806648Y37409922D01*
D44*
G04 #@! TO.N,Net-(U15B-+)*
X49034648Y41574922D02*
X47896648Y40436922D01*
X47896648Y40436922D02*
X47896648Y39809922D01*
X51046648Y41574922D02*
X51046648Y40074922D01*
X51046648Y41574922D02*
X49034648Y41574922D01*
X51296648Y39824922D02*
X51296648Y38259542D01*
G04 #@! TO.N,Net-(J7-SIG)*
X13815648Y36939922D02*
X14855648Y35899922D01*
X14855648Y35899922D02*
X16156648Y35899922D01*
G04 #@! TO.N,Net-(C46-Pad1)*
X54800000Y43171570D02*
X54800000Y43840000D01*
X45940000Y55760000D02*
X45940000Y55035000D01*
X54800000Y43840000D02*
X54590000Y44050000D01*
X51246648Y43074922D02*
X51046648Y42874922D01*
X53046648Y43074922D02*
X51246648Y43074922D01*
X54846648Y43124922D02*
X53096648Y43124922D01*
G04 #@! TO.N,Net-(U15B--)*
X52196648Y42224922D02*
X51046648Y42224922D01*
X48346648Y44072922D02*
X50194648Y42224922D01*
X53046648Y41374922D02*
X52196648Y42224922D01*
X50194648Y42224922D02*
X51046648Y42224922D01*
X48346648Y45424922D02*
X48346648Y44072922D01*
X53046648Y41374922D02*
X54796648Y41374922D01*
G04 #@! TO.N,Net-(POT_LENGTH1-Center)*
X16680000Y71140000D02*
X20050000Y74510000D01*
X16680000Y69390000D02*
X16680000Y71140000D01*
X20050000Y74510000D02*
X20050000Y77041570D01*
D46*
X16916648Y81999922D02*
X16916648Y80994922D01*
X16916648Y80994922D02*
X16506648Y80584922D01*
D44*
X20050000Y77041570D02*
X16506648Y80584922D01*
D46*
G04 #@! TO.N,Net-(J13-SIG)*
X46929648Y20237672D02*
X45571648Y18879672D01*
X46929648Y21939922D02*
X46929648Y20237672D01*
G04 #@! TO.N,Net-(PLAY_BUT1-B)*
X31226648Y98509160D02*
X31226648Y97589922D01*
X36096648Y100959922D02*
X33677410Y100959922D01*
X33677410Y100959922D02*
X31226648Y98509160D01*
G04 #@! TO.N,Net-(PLAY_BUT1-R)*
X24866648Y96619922D02*
X24366648Y97119922D01*
X28456648Y96619922D02*
X24866648Y96619922D01*
X29426648Y97589922D02*
X28456648Y96619922D01*
G04 #@! TO.N,Net-(PLAY_BUT1-G)*
X27545886Y100589922D02*
X24496648Y100589922D01*
X29426648Y102470684D02*
X27545886Y100589922D01*
X29426648Y103389922D02*
X29426648Y102470684D01*
G04 #@! TO.N,Net-(PLAY_BUT1-POLE-A)*
X27330648Y102739922D02*
X24830648Y105239922D01*
D44*
G04 #@! TO.N,Net-(U1A--)*
X53906648Y61184922D02*
X53906648Y60049482D01*
X53906648Y60049482D02*
X54371648Y59584482D01*
X53906648Y61834922D02*
X53906648Y61184922D01*
G04 #@! TO.N,Net-(REV_BUT1-R)*
X7480000Y97490000D02*
X6686726Y97490000D01*
G04 #@! TO.N,/D4*
X32150148Y65786600D02*
X32440148Y66076600D01*
X24730000Y81520000D02*
X31776583Y81520000D01*
D46*
G04 #@! TO.N,Net-(J6-SIG)*
X23336648Y36939922D02*
X29343648Y36939922D01*
X21046648Y34649922D02*
X23336648Y36939922D01*
D44*
G04 #@! TO.N,/VCOM*
X48991648Y22769922D02*
X48991648Y21514922D01*
X35021648Y20779922D02*
X35751648Y21509922D01*
X34996648Y20779922D02*
X35021648Y20779922D01*
X48991648Y21514922D02*
X47896648Y20419922D01*
X53026648Y15709922D02*
X53026648Y16329672D01*
D46*
X48226648Y24059922D02*
X48991648Y23294922D01*
X47826648Y25799922D02*
X47826648Y26769922D01*
X47826648Y26769922D02*
X47761648Y26834922D01*
X47761648Y26834922D02*
X47761648Y27707422D01*
X48991648Y23294922D02*
X48991648Y22769922D01*
X47826648Y25799922D02*
X47826648Y24459922D01*
G04 #@! TO.N,GNDA*
X49926648Y24059922D02*
X49926648Y25599922D01*
D44*
X36228188Y11531462D02*
X38568188Y11531462D01*
X44895963Y28744922D02*
X48027333Y28744922D01*
X35672148Y5649422D02*
X35672148Y10975422D01*
X48411648Y27707422D02*
X49061648Y27707422D01*
X49766648Y10819922D02*
X49766648Y9384922D01*
X44116648Y14189922D02*
X46396648Y14189922D01*
X38568188Y11531462D02*
X41396648Y14359922D01*
X35672148Y10975422D02*
X36228188Y11531462D01*
X36041648Y5279922D02*
X35672148Y5649422D01*
X54200168Y29319922D02*
X54602668Y28917422D01*
X49796648Y29319922D02*
X54200168Y29319922D01*
D46*
X37136648Y6374922D02*
X36041648Y5279922D01*
D44*
X49961648Y22769922D02*
X49961648Y21874922D01*
X54602668Y28566302D02*
X54602668Y28917422D01*
X57890000Y27070000D02*
X56098970Y27070000D01*
X54602668Y28917422D02*
X54602668Y30444086D01*
D46*
X49961648Y22769922D02*
X49961648Y24024922D01*
D44*
X49961648Y21874922D02*
X49906648Y21819922D01*
X56143428Y25387422D02*
X56143428Y27025542D01*
D46*
X48705480Y9699922D02*
X49451648Y9699922D01*
D44*
X46396648Y14189922D02*
X49496648Y11089922D01*
X49496648Y11089922D02*
X49766648Y10819922D01*
X55931548Y27237422D02*
X54602668Y28566302D01*
X49061648Y27054237D02*
X49726648Y26389237D01*
X49061648Y27707422D02*
X49061648Y28584922D01*
X48027333Y28744922D02*
X48411648Y28360607D01*
X44511648Y28360607D02*
X44895963Y28744922D01*
X49061648Y28584922D02*
X49796648Y29319922D01*
D46*
X49451648Y9699922D02*
X49766648Y9384922D01*
D44*
X56098970Y27070000D02*
X55931548Y27237422D01*
X56143428Y27025542D02*
X55931548Y27237422D01*
G04 #@! TO.N,Net-(POT_START1-Center)*
X54976500Y60946500D02*
X55970000Y61940000D01*
X55970000Y63246130D02*
X55486648Y63729482D01*
X56010000Y58050000D02*
X54976500Y59083500D01*
X50136648Y48985922D02*
X56010000Y54859274D01*
X55486648Y63729482D02*
X54341648Y64874482D01*
X54341648Y64874482D02*
X52706648Y64874482D01*
X54976500Y59083500D02*
X54976500Y60946500D01*
X55970000Y61940000D02*
X55970000Y63246130D01*
X56010000Y54859274D02*
X56010000Y58050000D01*
D47*
G04 #@! TO.N,Net-(U16A--)*
X28246648Y1729922D02*
X28896648Y1729922D01*
D46*
G04 #@! TO.N,Net-(C84-Pad2)*
X28896648Y7629922D02*
X28896648Y8329922D01*
X28451648Y11099922D02*
X28451648Y9519922D01*
X28896648Y8329922D02*
X28481648Y8744922D01*
X28481648Y9489922D02*
X26841648Y9489922D01*
X28481648Y8744922D02*
X28481648Y9489922D01*
D44*
G04 #@! TO.N,/NRST*
X20893422Y61753422D02*
X22246600Y63106600D01*
X24430148Y63106600D02*
X25000148Y62536600D01*
X20248422Y61753422D02*
X20893422Y61753422D01*
X22246600Y63106600D02*
X24430148Y63106600D01*
X19590000Y61095000D02*
X20248422Y61753422D01*
D46*
G04 #@! TO.N,+5V*
X54602668Y27017422D02*
X52875168Y28744922D01*
X54443428Y25387422D02*
X54443428Y26858182D01*
X52875168Y28744922D02*
X50095963Y28744922D01*
X50095963Y28744922D02*
X49711648Y28360607D01*
X49711648Y28360607D02*
X49711648Y27707422D01*
G04 #@! TO.N,/OSC_IN*
X18006648Y64979922D02*
X18006648Y66719922D01*
D44*
X25000148Y63836600D02*
X22451970Y63836600D01*
X22451970Y63836600D02*
X20345148Y65943422D01*
D46*
X18006648Y66719922D02*
X17516648Y67209922D01*
D44*
X18480148Y65943422D02*
X18006648Y65469922D01*
X20345148Y65943422D02*
X18480148Y65943422D01*
G04 #@! TO.N,Net-(U2B-VCAP_2)*
X34316504Y65363600D02*
X34230004Y65450100D01*
X33126002Y64812454D02*
X32800148Y64486600D01*
X34230004Y65450100D02*
X33320292Y65450100D01*
X33126002Y65255810D02*
X33126002Y64812454D01*
X36490148Y65926600D02*
X35927148Y65363600D01*
X33320292Y65450100D02*
X33126002Y65255810D01*
X35927148Y65363600D02*
X34316504Y65363600D01*
G04 #@! TO.N,Net-(U2B-VCAP_1)*
X30052594Y61439046D02*
X30052594Y61324154D01*
X30052594Y61324154D02*
X30790148Y60586600D01*
G04 #@! TO.N,Net-(U2B-VDD12OTGHS)*
X34447674Y62850100D02*
X35087674Y62210100D01*
X33763648Y62850100D02*
X34447674Y62850100D01*
X35087674Y62210100D02*
X38213648Y62210100D01*
X33450148Y62536600D02*
X33763648Y62850100D01*
G04 #@! TO.N,+3.3VADC*
X13250000Y66930000D02*
X13177330Y66930000D01*
X15653578Y63156422D02*
X15203148Y63156422D01*
X18630000Y61340000D02*
X18290000Y61680000D01*
D46*
X12016648Y68090682D02*
X12016648Y69469922D01*
D44*
X22130000Y58500000D02*
X22691648Y59061648D01*
X18290000Y61680000D02*
X17130000Y61680000D01*
X14475348Y65864652D02*
X14324685Y66015315D01*
X14475348Y63884222D02*
X14475348Y65864652D01*
X15203148Y63156422D02*
X14475348Y63884222D01*
D45*
X24706826Y58929922D02*
X25000148Y58636600D01*
X22910361Y59169922D02*
X23150361Y58929922D01*
X23150361Y58929922D02*
X24706826Y58929922D01*
D44*
X17130000Y61680000D02*
X15653578Y63156422D01*
X13177330Y66930000D02*
X12016648Y68090682D01*
D46*
G04 #@! TO.N,Net-(D24-AK)*
X25686648Y31984922D02*
X24396648Y31984922D01*
X24396648Y31984922D02*
X24081648Y31669922D01*
X25383428Y32991702D02*
X25966648Y33574922D01*
X23666648Y32991702D02*
X25383428Y32991702D01*
X23666648Y32991702D02*
X23666648Y32084922D01*
X23666648Y32084922D02*
X24081648Y31669922D01*
G04 #@! TO.N,Net-(R1-Pad1)*
X34096648Y32909922D02*
X35806648Y34619922D01*
X35806648Y34619922D02*
X35806648Y35709922D01*
X34181648Y31389922D02*
X34181648Y32824922D01*
G04 #@! TO.N,Net-(C48-Pad1)*
X37871648Y19639922D02*
X38626648Y19639922D01*
X37871648Y19639922D02*
X37871648Y18664922D01*
X37051648Y21509922D02*
X37051648Y20459922D01*
X37051648Y20459922D02*
X37871648Y19639922D01*
X38626648Y19639922D02*
X39246648Y19019922D01*
X37871648Y18664922D02*
X37486648Y18279922D01*
G04 #@! TO.N,Net-(U11B--)*
X36516648Y18279922D02*
X36516648Y17129922D01*
X36171648Y19639922D02*
X36171648Y18624922D01*
X36401648Y21509922D02*
X36401648Y19869922D01*
X36171648Y18624922D02*
X36516648Y18279922D01*
D44*
G04 #@! TO.N,/BOOT0*
X29131726Y71660000D02*
X29401648Y71929922D01*
X28610000Y71660000D02*
X29131726Y71660000D01*
X28250148Y65786600D02*
X28250148Y65626600D01*
X28250148Y65626600D02*
X28040148Y65416600D01*
D46*
G04 #@! TO.N,Net-(C52-Pad1)*
X38466648Y18109922D02*
X40726648Y18109922D01*
X37366648Y17009922D02*
X38466648Y18109922D01*
G04 #@! TO.N,Net-(U11A--)*
X37701648Y27409922D02*
X37051648Y27409922D01*
X37701648Y23654922D02*
X37701648Y27409922D01*
X40726648Y20629922D02*
X37701648Y23654922D01*
X40726648Y19809922D02*
X40726648Y20629922D01*
D44*
G04 #@! TO.N,Net-(U1B-+)*
X46423024Y63134922D02*
X48006648Y63134922D01*
D46*
G04 #@! TO.N,Net-(C57-Pad1)*
X54926648Y18444672D02*
X54641648Y18729672D01*
X54926648Y17379672D02*
X56091648Y17379672D01*
X53026648Y17629672D02*
X54676648Y17629672D01*
X56091648Y17379672D02*
X56326648Y17614672D01*
X54926648Y17379672D02*
X54926648Y18444672D01*
G04 #@! TO.N,Net-(U8B--)*
X53726648Y16979672D02*
X54926648Y15779672D01*
X55361648Y15679672D02*
X56326648Y16644672D01*
X53026648Y16979672D02*
X53726648Y16979672D01*
X54926648Y15679672D02*
X55361648Y15679672D01*
X52101648Y15094672D02*
X52101648Y16754672D01*
X52341648Y14854672D02*
X52101648Y15094672D01*
X52101648Y16754672D02*
X52326648Y16979672D01*
X52326648Y16979672D02*
X53026648Y16979672D01*
G04 #@! TO.N,Net-(U13-BST)*
X14156648Y56249922D02*
X14156648Y58337922D01*
X14156648Y58337922D02*
X15022648Y59203922D01*
G04 #@! TO.N,Net-(U13-SW)*
X11536648Y55299922D02*
X12491902Y55299922D01*
X12491902Y55299922D02*
X13246648Y56054668D01*
D44*
X14690648Y60903922D02*
X13296648Y59509922D01*
D46*
X13246648Y56054668D02*
X13246648Y59435922D01*
G04 #@! TO.N,Net-(D1-AK)*
X31586648Y31334922D02*
X33156648Y31334922D01*
X28866648Y34804922D02*
X30413428Y34804922D01*
X28246648Y34184922D02*
X28246648Y32859922D01*
X29771648Y31334922D02*
X31586648Y31334922D01*
X30413428Y34804922D02*
X31276648Y35668142D01*
X28866648Y34804922D02*
X28246648Y34184922D01*
X28246648Y32859922D02*
X29771648Y31334922D01*
G04 #@! TO.N,Net-(REV_BUT1-B)*
X11746648Y97429922D02*
X11746648Y99649922D01*
D44*
G04 #@! TO.N,Net-(D26-AK)*
X8622564Y43084922D02*
X7355784Y43084922D01*
X8556648Y41354922D02*
X8556648Y42809006D01*
X4212564Y43084922D02*
X7355784Y43084922D01*
G04 #@! TO.N,Net-(D22-AK)*
X16196648Y41817922D02*
X16196648Y42471702D01*
X15083648Y40704922D02*
X16196648Y41817922D01*
X16196648Y42471702D02*
X16889868Y42471702D01*
X16889868Y42471702D02*
X17391648Y41969922D01*
D46*
G04 #@! TO.N,Net-(U3B-+)*
X16651648Y82704922D02*
X16916648Y82969922D01*
X15276648Y82704922D02*
X16651648Y82704922D01*
G04 #@! TO.N,Net-(REV_BUT1-G)*
X6426648Y101929922D02*
X9986648Y105489922D01*
X5096648Y101929922D02*
X6426648Y101929922D01*
D44*
G04 #@! TO.N,/OSC_OUT*
X24753148Y63433600D02*
X21308636Y63433600D01*
X20196826Y63570100D02*
X19506648Y62879922D01*
D46*
X19506648Y63779922D02*
X19506648Y62879922D01*
D44*
X24950148Y63236600D02*
X24753148Y63433600D01*
D46*
X19406648Y63879922D02*
X19506648Y63779922D01*
X15926648Y63879922D02*
X19406648Y63879922D01*
D44*
X21172136Y63570100D02*
X20196826Y63570100D01*
X21308636Y63433600D02*
X21172136Y63570100D01*
D46*
G04 #@! TO.N,Net-(C90-Pad1)*
X51371648Y14854672D02*
X51006648Y15219672D01*
X51006648Y15219672D02*
X51006648Y20024672D01*
G04 #@! TO.N,Net-(U8A--)*
X49306648Y20024672D02*
X47561648Y18279672D01*
X47126648Y17629672D02*
X47126648Y18279672D01*
D44*
G04 #@! TO.N,Net-(D15-AK)*
X44960000Y54115000D02*
X44520000Y53675000D01*
X45960000Y54045000D02*
X45030000Y54045000D01*
X44520000Y53675000D02*
X44520000Y53008220D01*
X47436648Y54844922D02*
X46584648Y54844922D01*
X46584648Y54844922D02*
X45960000Y54220274D01*
D46*
G04 #@! TO.N,Net-(C147-Pad1)*
X40505480Y5669922D02*
X40505480Y4654922D01*
X40316648Y7874922D02*
X39616648Y7874922D01*
X39616648Y7874922D02*
X39383907Y7642181D01*
X39383907Y6791495D02*
X40505480Y5669922D01*
X40550480Y4609922D02*
X40550480Y3609922D01*
X39383907Y7642181D02*
X39383907Y6791495D01*
G04 #@! TO.N,Net-(U12B--)*
X40316648Y8524922D02*
X39616648Y8524922D01*
X38470480Y7378754D02*
X38470480Y6704922D01*
X39616648Y8524922D02*
X38470480Y7378754D01*
X39505480Y5669922D02*
X38470480Y6704922D01*
G04 #@! TO.N,Net-(U12B-+)*
X38656648Y8634922D02*
X37306648Y7284922D01*
X39270480Y9174922D02*
X38760480Y8664922D01*
X40316648Y9174922D02*
X39270480Y9174922D01*
G04 #@! TO.N,Net-(C149-Pad1)*
X46216648Y7224922D02*
X46216648Y6949922D01*
X47406648Y4719922D02*
X47406648Y3801648D01*
X46216648Y6949922D02*
X47406648Y5759922D01*
X47406648Y5759922D02*
X47406648Y4719922D01*
G04 #@! TO.N,Net-(U12A--)*
X45291648Y5784922D02*
X45291648Y7874922D01*
D44*
X46436648Y5759922D02*
X45456648Y5759922D01*
D46*
X45291648Y7874922D02*
X46216648Y7874922D01*
G04 #@! TO.N,Net-(U12A-+)*
X47755480Y8569922D02*
X47755480Y9679922D01*
X46216648Y8524922D02*
X47710480Y8524922D01*
G04 #@! TO.N,Net-(C152-Pad1)*
X41416648Y10154922D02*
X40896648Y10674922D01*
X39580480Y4609922D02*
X38365480Y4609922D01*
X41416648Y9909922D02*
X41416648Y10154922D01*
X38071648Y5734922D02*
X38470480Y5734922D01*
X37776648Y5439922D02*
X38071648Y5734922D01*
X38360480Y4614922D02*
X38360480Y5624922D01*
G04 #@! TO.N,Net-(C152-Pad2)*
X37876648Y8999922D02*
X37981648Y8999922D01*
X37011648Y5279922D02*
X37011648Y4993754D01*
X38876648Y9674922D02*
X39856648Y10654922D01*
D44*
X38360480Y3644922D02*
X37961648Y3644922D01*
D46*
X37981648Y8999922D02*
X38656648Y9674922D01*
D44*
X37961648Y3644922D02*
X37176648Y4429922D01*
D46*
X37176648Y4429922D02*
X37176648Y5114922D01*
G04 #@! TO.N,Net-(C153-Pad1)*
X45386648Y4719922D02*
X46436648Y4719922D01*
X44416648Y5689922D02*
X45386648Y4719922D01*
X44416648Y5689922D02*
X44416648Y9319922D01*
X45046648Y9949922D02*
X46986648Y9949922D01*
X49606648Y6419922D02*
X49606648Y7239922D01*
X46436648Y4019922D02*
X46456648Y3999922D01*
X44416648Y9319922D02*
X45046648Y9949922D01*
X47476648Y10439922D02*
X47476648Y10714922D01*
X46986648Y9949922D02*
X47476648Y10439922D01*
X46436648Y4719922D02*
X46436648Y4019922D01*
G04 #@! TO.N,Net-(C153-Pad2)*
X48690480Y7554922D02*
X47651648Y7554922D01*
X45731648Y10644922D02*
X46476648Y10644922D01*
X48725480Y8569922D02*
X49611648Y8569922D01*
X45586648Y10499922D02*
X45731648Y10644922D01*
X48725480Y8569922D02*
X48725480Y7589922D01*
X48725480Y7589922D02*
X48690480Y7554922D01*
X47651648Y7554922D02*
X47526648Y7679922D01*
D43*
G04 #@! TO.N,Net-(D16-A)*
X14266648Y24329922D02*
X14936648Y23659922D01*
X14936648Y23659922D02*
X17476648Y23659922D01*
X14266648Y25969922D02*
X14266648Y24329922D01*
G04 #@! TO.N,Net-(D17-K)*
X14936648Y13499922D02*
X17476648Y13499922D01*
D44*
G04 #@! TO.N,/SWDCLK*
X40550000Y69668756D02*
X40550000Y69610000D01*
X35382304Y69668756D02*
X40550000Y69668756D01*
X40550000Y69610000D02*
X41040000Y69120000D01*
X33450148Y67736600D02*
X35382304Y69668756D01*
G04 #@! TO.N,/SWDIO*
X39908244Y69441756D02*
X40900000Y68450000D01*
X35805304Y69441756D02*
X39908244Y69441756D01*
X34100148Y67736600D02*
X35805304Y69441756D01*
G04 #@! TO.N,/UART_TX*
X23355436Y62176342D02*
X24390228Y62176342D01*
X24679970Y61886600D02*
X25000148Y61886600D01*
X24390228Y62176342D02*
X24679970Y61886600D01*
G04 #@! TO.N,/UART_RX*
X23910390Y61559600D02*
X25323148Y61559600D01*
X23756648Y61713342D02*
X23910390Y61559600D01*
X25650148Y61886600D02*
X25323148Y61559600D01*
G04 #@! TO.N,/DEBUG2*
X26950148Y66436600D02*
X27270148Y66116600D01*
G04 #@! TO.N,/DEBUG3*
X30200148Y68906600D02*
X30090148Y69016600D01*
X30200148Y67736600D02*
X30200148Y68906600D01*
G04 #@! TO.N,Net-(J8-SIG)*
X42906648Y37689922D02*
X43656648Y36939922D01*
X43296648Y40693422D02*
X43233906Y40693422D01*
X42993148Y40452664D02*
X42993148Y39536422D01*
X42993148Y39536422D02*
X42906648Y39449922D01*
X43656648Y36939922D02*
X46929648Y36939922D01*
X43233906Y40693422D02*
X42993148Y40452664D01*
X42906648Y39449922D02*
X42906648Y37689922D01*
X43296648Y41699922D02*
X43296648Y40693422D01*
G04 #@! TO.N,Net-(J9-SIG)*
X9917564Y44090838D02*
X9917564Y45484922D01*
X9896648Y44069922D02*
X9917564Y44090838D01*
X13246648Y44069922D02*
X13476648Y43839922D01*
X11920000Y44069922D02*
X13246648Y44069922D01*
G04 #@! TO.N,Net-(J11-SIG)*
X8608648Y3421922D02*
X9296648Y4109922D01*
X8608648Y1732922D02*
X8608648Y3421922D01*
D43*
G04 #@! TO.N,Net-(J12-SIG)*
X10266648Y24399922D02*
X10266648Y25488922D01*
X10266648Y25488922D02*
X8608648Y27146922D01*
D46*
G04 #@! TO.N,Net-(J14-SIG)*
X41843648Y25508876D02*
X38206088Y29146436D01*
X41843648Y21939922D02*
X41843648Y25508876D01*
G04 #@! TO.N,Net-(J15-SIG)*
X25941648Y9514922D02*
X24136648Y7709922D01*
X24136648Y7709922D02*
X24136648Y1732922D01*
X25941648Y10489922D02*
X25941648Y9514922D01*
X26741648Y11289922D02*
X25941648Y10489922D01*
D44*
G04 #@! TO.N,Net-(J16-SIG)*
X41911500Y3283500D02*
X50704710Y3283500D01*
X50704710Y3283500D02*
X52300848Y1687362D01*
G04 #@! TO.N,Net-(J17-SIG)*
X47400000Y2825000D02*
X46295000Y1720000D01*
X46295000Y1720000D02*
X36833486Y1720000D01*
G04 #@! TO.N,Net-(U15A-+)*
X44471648Y42224922D02*
X43296648Y43399922D01*
X45146648Y42224922D02*
X44471648Y42224922D01*
D46*
G04 #@! TO.N,/ROUT+*
X44226648Y25016171D02*
X44226648Y15429236D01*
X45811648Y27707422D02*
X45811648Y26601171D01*
X45811648Y26601171D02*
X44226648Y25016171D01*
X44226648Y15429236D02*
X40896648Y12099236D01*
X40896648Y12099236D02*
X40896648Y11644922D01*
G04 #@! TO.N,/ROUT-*
X45161648Y27707422D02*
X45161648Y26601171D01*
X45161648Y26601171D02*
X43826648Y25266171D01*
X43826648Y25266171D02*
X43826648Y15594922D01*
X43826648Y15594922D02*
X39856648Y11624922D01*
G04 #@! TO.N,/LOUT+*
X47236649Y12798120D02*
X47236649Y11924921D01*
X47111648Y24901648D02*
X45440443Y23230443D01*
X47111648Y27707422D02*
X47111648Y24901648D01*
X47236649Y11924921D02*
X47476648Y11684922D01*
X45440443Y23230443D02*
X45440443Y20121525D01*
X46768085Y13266684D02*
X47236649Y12798120D01*
X46768085Y13276875D02*
X46768085Y13266684D01*
G04 #@! TO.N,/LOUT-*
X46786647Y11924921D02*
X46476648Y11614922D01*
X44960000Y20260000D02*
X44770000Y20070000D01*
X44960000Y23280000D02*
X44960000Y20260000D01*
X46786647Y12611724D02*
X46786647Y11924921D01*
X46461648Y27707422D02*
X46461648Y24781648D01*
X46302549Y13095823D02*
X46786647Y12611724D01*
X46461648Y24781648D02*
X44960000Y23280000D01*
G04 #@! TO.N,Net-(R16-Pad2)*
X23111648Y31669922D02*
X21716648Y31669922D01*
X21336648Y31289922D02*
X21336648Y32739922D01*
X21716648Y31669922D02*
X21336648Y31289922D01*
D44*
G04 #@! TO.N,Net-(R17-Pad2)*
X6617564Y45744922D02*
X7957564Y45744922D01*
X8217564Y45484922D02*
X8217564Y44459922D01*
X8217564Y44459922D02*
X8727564Y43949922D01*
D46*
G04 #@! TO.N,Net-(U3A--)*
X9376648Y84654922D02*
X9376648Y84004922D01*
X9376648Y85794922D02*
X8996648Y86174922D01*
X9376648Y84654922D02*
X9376648Y85794922D01*
D44*
G04 #@! TO.N,Net-(R20-Pad2)*
X16156648Y38514922D02*
X16156648Y37599922D01*
X17051648Y39409922D02*
X16156648Y38514922D01*
X17311648Y39669922D02*
X18736648Y39669922D01*
X17051648Y39409922D02*
X17311648Y39669922D01*
D46*
G04 #@! TO.N,Net-(U3B--)*
X15276648Y84004922D02*
X16736648Y84004922D01*
X15276648Y84004922D02*
X15276648Y83354922D01*
D44*
G04 #@! TO.N,Net-(U5A--)*
X14456648Y40054922D02*
X14456648Y39404922D01*
X16061648Y40759922D02*
X15356648Y40054922D01*
X15356648Y40054922D02*
X14456648Y40054922D01*
G04 #@! TO.N,Net-(U2B-OTG_HR_REXT)*
X34440148Y62536600D02*
X35100148Y61876600D01*
X34100148Y62536600D02*
X34440148Y62536600D01*
X35100148Y61876600D02*
X36085148Y61876600D01*
D43*
G04 #@! TO.N,Net-(U15A--)*
X46646648Y44620000D02*
X46646648Y45424922D01*
D44*
X45146648Y43524922D02*
X45146648Y42874922D01*
X45050000Y44110000D02*
X45146648Y44013352D01*
X45146648Y44013352D02*
X45146648Y43524922D01*
D46*
G04 #@! TO.N,Net-(REV_BUT1-POLE-A)*
X7636648Y104839922D02*
X6356648Y104839922D01*
X6356648Y104839922D02*
X5196648Y105999922D01*
G04 #@! TO.N,Net-(U10A--)*
X31586648Y29334922D02*
X32411648Y28509922D01*
X31586648Y30684922D02*
X31586648Y30034922D01*
X31586648Y30034922D02*
X31586648Y29334922D01*
G04 #@! TO.N,Net-(U8A-+)*
X47126648Y16979672D02*
X45616648Y16979672D01*
X45551648Y16914672D02*
X45551648Y17889672D01*
D44*
G04 #@! TO.N,/I2C1_SCL*
X27600148Y67736600D02*
X27600148Y68373237D01*
X25080000Y70893385D02*
X25080000Y72440000D01*
X52311648Y33432422D02*
X52311648Y34912422D01*
X27600148Y68373237D02*
X25080000Y70893385D01*
X52196648Y35646648D02*
X52270000Y35720000D01*
X52196648Y35027422D02*
X52196648Y35646648D01*
G04 #@! TO.N,/I2C1_SDA*
X28587926Y67413227D02*
X28586648Y67411949D01*
X27973648Y66773100D02*
X27263648Y66773100D01*
X28586648Y66979744D02*
X28380004Y66773100D01*
X28380004Y66773100D02*
X28120292Y66773100D01*
X28116792Y66776600D02*
X27977148Y66776600D01*
X51638148Y35479852D02*
X50806500Y36311500D01*
X48600000Y37720000D02*
X48833078Y37486922D01*
X49768078Y37486922D02*
X50875000Y36380000D01*
X27263648Y66773100D02*
X26950148Y67086600D01*
X27977148Y66776600D02*
X27973648Y66773100D01*
X51638148Y33455922D02*
X51638148Y35479852D01*
X28120292Y66773100D02*
X28116792Y66776600D01*
X28586648Y67411949D02*
X28586648Y66979744D01*
X48833078Y37486922D02*
X49768078Y37486922D01*
D46*
G04 #@! TO.N,Net-(U11A-+)*
X36401648Y27409922D02*
X36401648Y28990876D01*
X36236088Y29156436D02*
X37226088Y29156436D01*
D44*
G04 #@! TO.N,/RIN*
X51011648Y26678352D02*
X51380000Y26310000D01*
X51011648Y27707422D02*
X51011648Y26678352D01*
X39096648Y21019922D02*
X39096648Y20139922D01*
G04 #@! TO.N,/LIN*
X50361648Y27707422D02*
X50361648Y26518352D01*
X53800000Y21713570D02*
X55611648Y19901922D01*
X53800000Y23080000D02*
X53800000Y21713570D01*
X50361648Y26518352D02*
X53800000Y23080000D01*
X55611648Y19901922D02*
X55611648Y18729672D01*
D46*
G04 #@! TO.N,Net-(U13-FB)*
X15561493Y54309922D02*
X14196648Y54309922D01*
X14156648Y54349922D02*
X14156648Y53709922D01*
X15706493Y55384922D02*
X15706493Y54454922D01*
X14156648Y53709922D02*
X13506648Y53059922D01*
X15706493Y54454922D02*
X15561493Y54309922D01*
G04 #@! TO.N,Net-(U13-EN)*
X12446648Y53165077D02*
X12446648Y54279922D01*
X12446648Y54279922D02*
X13466648Y55299922D01*
X13466648Y55299922D02*
X14156648Y55299922D01*
D44*
G04 #@! TO.N,Net-(U5B--)*
X7012564Y40054922D02*
X8556648Y40054922D01*
X8556648Y40054922D02*
X8556648Y40704922D01*
G04 #@! TO.N,/SAI_SD_B*
X24994648Y67736600D02*
X24994648Y68408774D01*
X51011648Y35424922D02*
X50966648Y35469922D01*
X24994648Y68408774D02*
X23313500Y70089922D01*
X51011648Y33432422D02*
X51011648Y35424922D01*
G04 #@! TO.N,/SAI_MCLK*
X25650148Y67736600D02*
X25650148Y69023552D01*
X47511081Y32431422D02*
X48828148Y32431422D01*
X25650148Y69023552D02*
X24525714Y70147986D01*
X49061648Y32664922D02*
X49061648Y33432422D01*
X49086648Y35169922D02*
X49086648Y33457422D01*
X48828148Y32431422D02*
X49061648Y32664922D01*
X47111648Y32830855D02*
X47511081Y32431422D01*
G04 #@! TO.N,/SD-NBL1*
X32450148Y47766600D02*
X32820148Y48136600D01*
X27286648Y67843456D02*
X27073504Y68056600D01*
X32200148Y47766600D02*
X32450148Y47766600D01*
X27286648Y67606744D02*
X27286648Y67843456D01*
X26620148Y68056600D02*
X26300148Y67736600D01*
X27073504Y68056600D02*
X26620148Y68056600D01*
X27481825Y67411567D02*
X27286648Y67606744D01*
X27939655Y67411567D02*
X27481825Y67411567D01*
D45*
G04 #@! TO.N,/SD-NBL0*
X26200148Y46566600D02*
X24713326Y46566600D01*
X26610641Y67397093D02*
X26610641Y66761634D01*
X24713326Y46566600D02*
X24706648Y46559922D01*
X26600148Y46966600D02*
X26200148Y46566600D01*
X26950148Y67736600D02*
X26610641Y67397093D01*
D44*
G04 #@! TO.N,/SD-CKE1*
X28220148Y68846600D02*
X28220148Y67766600D01*
X30627536Y47766600D02*
X30972079Y47422057D01*
G04 #@! TO.N,/CODEC_RESET*
X42889922Y70549922D02*
X43140000Y70800000D01*
D45*
X32826648Y70549922D02*
X34636648Y70549922D01*
D44*
X34636648Y70549922D02*
X42889922Y70549922D01*
D45*
X30850148Y68826600D02*
X31060148Y69036600D01*
D44*
X43926648Y28235338D02*
X45571310Y29880000D01*
D45*
X31060148Y69036600D02*
X31313326Y69036600D01*
X31313326Y69036600D02*
X32826648Y70549922D01*
X30850148Y67736600D02*
X30850148Y68826600D01*
D44*
X45571310Y29880000D02*
X53350000Y29880000D01*
G04 #@! TO.N,/SAI_FS*
X46656648Y31519922D02*
X45811648Y32364922D01*
X50361648Y35384922D02*
X50096648Y35649922D01*
X45811648Y32364922D02*
X45811648Y33432422D01*
X25321648Y67408100D02*
X25000148Y67086600D01*
X49636648Y31519922D02*
X46656648Y31519922D01*
X50361648Y33432422D02*
X50361648Y35384922D01*
X50361648Y33432422D02*
X50361648Y32244922D01*
X25321648Y68714922D02*
X25321648Y67408100D01*
X50361648Y32244922D02*
X49636648Y31519922D01*
X23946648Y70089922D02*
X25321648Y68714922D01*
G04 #@! TO.N,/SAI_SCK*
X46461648Y32177370D02*
X46769096Y31869922D01*
X49711648Y32174922D02*
X49711648Y33432422D01*
X25650148Y67086600D02*
X25963648Y67400100D01*
X49633148Y36706922D02*
X49633148Y33510922D01*
X25963648Y67400100D02*
X25963648Y69494343D01*
X46461648Y33432422D02*
X46461648Y32177370D01*
X49406648Y31869922D02*
X49711648Y32174922D01*
X25963648Y69494343D02*
X25079797Y70378194D01*
X46769096Y31869922D02*
X49406648Y31869922D01*
G04 #@! TO.N,/SAI_SD_A*
X45216648Y34739922D02*
X45216648Y33487422D01*
X26022810Y66823938D02*
X26285472Y67086600D01*
G04 #@! TO.N,/SD-NCAS*
X28000148Y47706600D02*
X27460148Y47706600D01*
X30010148Y65056600D02*
X28690148Y65056600D01*
X28690148Y65056600D02*
X28630148Y65116600D01*
X29225385Y66761363D02*
X28900148Y67086600D01*
G04 #@! TO.N,/SD-D2*
X32475175Y65296600D02*
X32475175Y64797100D01*
X38040000Y45490000D02*
X36671026Y45490000D01*
X36671026Y45490000D02*
X35712681Y44531655D01*
X27001504Y44165244D02*
X26600148Y44566600D01*
X33113648Y65656744D02*
X32907004Y65450100D01*
X27001504Y44144801D02*
X27001504Y44165244D01*
X35355203Y44531655D02*
X34750148Y43926600D01*
X38220000Y45670000D02*
X38040000Y45490000D01*
X32930004Y66750100D02*
X33113648Y66566456D01*
X32628675Y65450100D02*
X32475175Y65296600D01*
X35712681Y44531655D02*
X35355203Y44531655D01*
X32150148Y67086600D02*
X32486648Y66750100D01*
X32907004Y65450100D02*
X32628675Y65450100D01*
X32486648Y66750100D02*
X32930004Y66750100D01*
X33113648Y66566456D02*
X33113648Y65656744D01*
D45*
G04 #@! TO.N,/SD-D3*
X32150148Y66436600D02*
X31800148Y66786600D01*
X33190251Y70179922D02*
X34151018Y70179922D01*
D44*
X25800148Y45366600D02*
X25300148Y45366600D01*
D45*
X31628450Y68461724D02*
X31628450Y68618121D01*
X41146648Y58039922D02*
X40596648Y57489922D01*
X39096648Y66799922D02*
X39746648Y66149922D01*
X34151018Y70179922D02*
X34230518Y70100422D01*
X39416648Y62539922D02*
X39416648Y61656319D01*
D44*
X35618655Y44758655D02*
X34951969Y44758655D01*
X40660000Y55980000D02*
X40660000Y49800000D01*
D45*
X31800148Y68290025D02*
X31628450Y68461724D01*
X31800148Y66786600D02*
X31800148Y68290025D01*
X31628450Y68618121D02*
X33190251Y70179922D01*
X41146648Y59926319D02*
X41146648Y58039922D01*
D44*
X25300148Y45366600D02*
X25240148Y45306600D01*
D45*
X38216648Y66799922D02*
X39096648Y66799922D01*
X39646648Y62769922D02*
X39416648Y62539922D01*
X39416648Y61656319D02*
X41146648Y59926319D01*
D44*
X40660000Y49800000D02*
X35618655Y44758655D01*
G04 #@! TO.N,/SD-A0*
X25338328Y52888420D02*
X25338328Y55550987D01*
X27813648Y49780100D02*
X27813648Y50413100D01*
X27813648Y50413100D02*
X25338328Y52888420D01*
X25338328Y55550987D02*
X26020441Y56233100D01*
X25938033Y65424485D02*
X25650148Y65136600D01*
X27400148Y49366600D02*
X27813648Y49780100D01*
G04 #@! TO.N,/SD-A2*
X24440148Y52476600D02*
X26600148Y50316600D01*
X24440148Y53780667D02*
X24440148Y52476600D01*
X25650148Y63186600D02*
X25330148Y63506600D01*
D45*
X23739582Y55306988D02*
X24440148Y54606422D01*
X24440148Y54606422D02*
X24440148Y53780667D01*
D44*
G04 #@! TO.N,/SD-A1*
X26180193Y49768181D02*
X26223864Y49768181D01*
X27890148Y63546600D02*
X27286648Y64150100D01*
X26636648Y63966456D02*
X26636648Y63523100D01*
X26636648Y63523100D02*
X26300148Y63186600D01*
X23249678Y53300392D02*
X23249678Y52548578D01*
X23226648Y51150100D02*
X24540148Y49836600D01*
X27286648Y64150100D02*
X26820292Y64150100D01*
X26223864Y49768181D02*
X26600148Y49391897D01*
X26820292Y64150100D02*
X26636648Y63966456D01*
X23226648Y52525548D02*
X23226648Y51150100D01*
X27823713Y62678745D02*
X27890148Y62745180D01*
X27890148Y62745180D02*
X27890148Y63546600D01*
X23249678Y52548578D02*
X23226648Y52525548D01*
G04 #@! TO.N,/SD-CLK*
X31710100Y62850100D02*
X33113648Y62850100D01*
X31163648Y62303648D02*
X31710100Y62850100D01*
X33113648Y62850100D02*
X33450148Y63186600D01*
X31430422Y47766600D02*
X31793718Y47403304D01*
X30850000Y61310000D02*
X31163648Y61623648D01*
X31793718Y47403304D02*
X31793718Y47350078D01*
X31163648Y61623648D02*
X31163648Y62303648D01*
G04 #@! TO.N,/SD-A3*
X24950148Y52616600D02*
X27400148Y50166600D01*
X24950148Y54906158D02*
X24950148Y52616600D01*
X26084155Y62856225D02*
X25764530Y62536600D01*
X24356582Y55499724D02*
X24950148Y54906158D01*
X25764530Y62536600D02*
X25650148Y62536600D01*
X26634091Y62856225D02*
X26084155Y62856225D01*
G04 #@! TO.N,/SD-A4*
X30600148Y51249960D02*
X28604794Y53245314D01*
X27073648Y62223100D02*
X26820292Y62223100D01*
X26556792Y62486600D02*
X26350148Y62486600D01*
X27270148Y62026600D02*
X27073648Y62223100D01*
X28690328Y55256420D02*
X28020148Y55926600D01*
X28020148Y55926600D02*
X28020148Y56452533D01*
X27636648Y56836033D02*
X27636648Y56840100D01*
X27270148Y60732956D02*
X27270148Y62026600D01*
X27286648Y60716456D02*
X27270148Y60732956D01*
X30600148Y50166600D02*
X30600148Y51249960D01*
X27286648Y57190100D02*
X27286648Y60716456D01*
X27636648Y56840100D02*
X27286648Y57190100D01*
X28020148Y56452533D02*
X27636648Y56836033D01*
X26820292Y62223100D02*
X26556792Y62486600D01*
G04 #@! TO.N,/SD-NWE*
X25090148Y47666600D02*
X25190148Y47766600D01*
X27938309Y61755083D02*
X27156792Y62536600D01*
X25190148Y47766600D02*
X25800148Y47766600D01*
X27938309Y60986600D02*
X27938309Y61755083D01*
X27156792Y62536600D02*
X26950148Y62536600D01*
G04 #@! TO.N,/SD-A5*
X28692283Y53671892D02*
X28114856Y53671892D01*
X25593648Y56673600D02*
X25616648Y56696600D01*
X27603648Y55340403D02*
X26247451Y56696600D01*
X27603648Y54183100D02*
X27603648Y55340403D01*
X31400148Y50964027D02*
X28692283Y53671892D01*
X25098336Y56673600D02*
X25593648Y56673600D01*
X31400148Y50166600D02*
X31400148Y50964027D01*
X28114856Y53671892D02*
X27603648Y54183100D01*
X25616648Y56696600D02*
X26247451Y56696600D01*
X26277191Y61886600D02*
X26015923Y61625332D01*
G04 #@! TO.N,/SD-BA1*
X26199851Y48990149D02*
X26600148Y48589852D01*
D45*
X38499970Y55436600D02*
X38796648Y55139922D01*
D44*
X32711468Y56170100D02*
X29203648Y56170100D01*
X36906648Y55436600D02*
X33444968Y55436600D01*
X32464686Y62207100D02*
X32785186Y61886600D01*
X33444968Y55436600D02*
X32711468Y56170100D01*
D45*
X36906648Y55436600D02*
X38499970Y55436600D01*
D44*
X29203648Y56170100D02*
X29147148Y56226600D01*
G04 #@! TO.N,/SD-BA0*
X33450148Y61886600D02*
X33113648Y61550100D01*
X32480148Y61359956D02*
X32480148Y60916600D01*
X32670292Y61550100D02*
X32480148Y61359956D01*
X28025591Y49192043D02*
X27400148Y48566600D01*
X32370148Y55166600D02*
X30200148Y52996600D01*
X34586000Y54850000D02*
X34269400Y55166600D01*
X33113648Y61550100D02*
X32670292Y61550100D01*
X28212231Y49192043D02*
X28025591Y49192043D01*
X34269400Y55166600D02*
X32370148Y55166600D01*
X30200148Y52996600D02*
X30080148Y52996600D01*
G04 #@! TO.N,/SD-D1*
X33469537Y61236600D02*
X33746537Y61513600D01*
X25800148Y44546600D02*
X26130148Y44216600D01*
D45*
G04 #@! TO.N,/SD-A12*
X35425214Y61209922D02*
X34126826Y61209922D01*
X35449759Y61234467D02*
X35425214Y61209922D01*
D44*
X35543470Y54029922D02*
X34860148Y53346600D01*
X38846648Y54029922D02*
X35543470Y54029922D01*
X32420148Y48786600D02*
X32200148Y48566600D01*
X34860148Y53346600D02*
X32780148Y53346600D01*
X32940148Y48786600D02*
X32420148Y48786600D01*
G04 #@! TO.N,/SD-A11*
X25960148Y53396600D02*
X25960148Y52706600D01*
X29157895Y49098949D02*
X29157895Y49508853D01*
X31400148Y48566600D02*
X31030148Y48936600D01*
X28914535Y60586600D02*
X29227297Y60273838D01*
X29157895Y49508853D02*
X25960148Y52706600D01*
D45*
G04 #@! TO.N,/SD-NE1*
X31799403Y60885855D02*
X31500148Y60586600D01*
X25310148Y48566600D02*
X24290148Y47546600D01*
X24290148Y47546600D02*
X24290148Y45076600D01*
X25800148Y48566600D02*
X25310148Y48566600D01*
X31799403Y60955476D02*
X31799403Y60885855D01*
D44*
G04 #@! TO.N,/SD-D0*
X33434522Y60586600D02*
X33137799Y60883323D01*
X26600148Y43766600D02*
X26600148Y43196600D01*
X26600148Y43196600D02*
X26610148Y43186600D01*
G04 #@! TO.N,/SD-A7*
X30932854Y52149306D02*
X30932854Y52719306D01*
X28586648Y60716456D02*
X28586648Y60383100D01*
X28301309Y61001795D02*
X28586648Y60716456D01*
X30932854Y52719306D02*
X31805148Y53591600D01*
X28586648Y60383100D02*
X28250148Y60046600D01*
X31400148Y49391207D02*
X31038298Y49753057D01*
X28250148Y60046600D02*
X28250148Y59936600D01*
X28301309Y61406600D02*
X28301309Y61001795D01*
G04 #@! TO.N,/SD-A10*
X24010148Y52846600D02*
X23553648Y52390100D01*
X23553648Y52390100D02*
X23553648Y51613100D01*
X28590681Y59637133D02*
X28900148Y59946600D01*
X23553648Y51613100D02*
X25800148Y49366600D01*
X28584981Y59637133D02*
X28590681Y59637133D01*
G04 #@! TO.N,/SD-D10*
X33110522Y60261545D02*
X33125100Y60276123D01*
X34611353Y46568755D02*
X32602303Y46568755D01*
X35173541Y46006567D02*
X34611353Y46568755D01*
X32602303Y46568755D02*
X32200148Y46166600D01*
X31500148Y59936600D02*
X31825093Y60261545D01*
X31825093Y60261545D02*
X33110522Y60261545D01*
G04 #@! TO.N,/SD-D15*
X32476826Y42689922D02*
X31400148Y43766600D01*
X33306648Y42689922D02*
X32476826Y42689922D01*
X34640647Y59517127D02*
X34221174Y59936600D01*
X34221174Y59936600D02*
X34100148Y59936600D01*
X35303774Y59042974D02*
X34829621Y59517127D01*
X34829621Y59517127D02*
X34640647Y59517127D01*
X35303774Y59034484D02*
X35303774Y59042974D01*
G04 #@! TO.N,/SD-A6*
X29420148Y50646600D02*
X30600148Y49466600D01*
X28004168Y59012826D02*
X28004168Y59040620D01*
X28004168Y59040620D02*
X28250148Y59286600D01*
X26311416Y55385332D02*
X26311416Y55025332D01*
X29420148Y51916600D02*
X29420148Y50646600D01*
X26311416Y55025332D02*
X29420148Y51916600D01*
G04 #@! TO.N,/SD-A9*
X28602454Y57711044D02*
X28563648Y57749850D01*
X28885648Y51681100D02*
X28885648Y50281100D01*
X28560148Y58946600D02*
X28900148Y59286600D01*
X28560148Y58769956D02*
X28560148Y58946600D01*
X28563648Y57749850D02*
X28563648Y58766456D01*
X28563648Y58766456D02*
X28560148Y58769956D01*
X28885648Y50281100D02*
X30600148Y48566600D01*
X26431828Y54134920D02*
X28885648Y51681100D01*
G04 #@! TO.N,/SD-D5*
X29335490Y55061942D02*
X31321806Y55061942D01*
X25200148Y45846600D02*
X25520148Y46166600D01*
X25520148Y46166600D02*
X25800148Y46166600D01*
X29874955Y58961793D02*
X29550148Y59286600D01*
X29874955Y58959407D02*
X29874955Y58961793D01*
X29120148Y54846600D02*
X29335490Y55061942D01*
X31321806Y55061942D02*
X31377148Y55006600D01*
G04 #@! TO.N,/SD-D6*
X30539658Y59611564D02*
X30214694Y59286600D01*
X31830148Y54176600D02*
X31977148Y54176600D01*
X30556354Y52612806D02*
X30556354Y52902806D01*
X30556354Y52902806D02*
X31830148Y54176600D01*
X30490148Y52546600D02*
X30556354Y52612806D01*
X27000362Y46590061D02*
X26600148Y46189847D01*
G04 #@! TO.N,/SD-D8*
X31772344Y57384567D02*
X31772344Y57722352D01*
X30536648Y58973100D02*
X30850148Y59286600D01*
X31276265Y58096101D02*
X31049266Y58323100D01*
X31049266Y58323100D02*
X30720292Y58323100D01*
X31398596Y58096100D02*
X31276265Y58096101D01*
X31772344Y57722352D02*
X31398596Y58096100D01*
X33166648Y49586600D02*
X33750148Y49003100D01*
X33750148Y49003100D02*
X33750148Y48516600D01*
X30720292Y58323100D02*
X30536648Y58506744D01*
X33750148Y48516600D02*
X32200148Y46966600D01*
X30536648Y58506744D02*
X30536648Y58973100D01*
G04 #@! TO.N,/SD-D11*
X31500148Y59286600D02*
X31836648Y59623100D01*
X33603004Y59623100D02*
X31836648Y59623100D01*
X34239228Y46101311D02*
X35036648Y45303891D01*
X33080172Y45521667D02*
X33659816Y46101311D01*
X33659816Y46101311D02*
X34239228Y46101311D01*
X33775406Y59795502D02*
X33775406Y60246814D01*
X33775406Y60246814D02*
X33775121Y60247099D01*
X31780148Y45726600D02*
X31420148Y45366600D01*
X33603004Y59623100D02*
X33775406Y59795502D01*
G04 #@! TO.N,/SD-D14*
X34882955Y58099407D02*
X34882955Y58489319D01*
X33619581Y59325122D02*
X33581059Y59286600D01*
X33768670Y59325122D02*
X33619581Y59325122D01*
X32606828Y44703280D02*
X32470148Y44566600D01*
X34413648Y59156744D02*
X34413648Y59423100D01*
X34410641Y58961633D02*
X34410641Y59153737D01*
X34410641Y59153737D02*
X34413648Y59156744D01*
X33970292Y59600100D02*
X33786648Y59416456D01*
X34236648Y59600100D02*
X33970292Y59600100D01*
X33786648Y59343100D02*
X33768670Y59325122D01*
X33581059Y59286600D02*
X33450148Y59286600D01*
X34882955Y58489319D02*
X34410641Y58961633D01*
X34413648Y59423100D02*
X34236648Y59600100D01*
X33786648Y59416456D02*
X33786648Y59343100D01*
X32470148Y44566600D02*
X32200148Y44566600D01*
G04 #@! TO.N,/SD-D13*
X33775170Y58961622D02*
X34100148Y59286600D01*
X31400148Y44577972D02*
X31806208Y44984032D01*
G04 #@! TO.N,/SD-NRAS*
X28149795Y56836246D02*
X28149795Y56936952D01*
X27890148Y58276600D02*
X28250148Y58636600D01*
X26600148Y47821064D02*
X26337018Y48084194D01*
X28149795Y56936952D02*
X27890148Y57196599D01*
X27890148Y57196599D02*
X27890148Y58276600D01*
G04 #@! TO.N,/SD-A8*
X28966954Y57876387D02*
X28910148Y57933193D01*
X28910148Y57518447D02*
X28966954Y57575253D01*
X32200148Y49409738D02*
X31909845Y49700041D01*
X28910148Y57241980D02*
X28910148Y57518447D01*
X28910148Y57933193D02*
X28910148Y58626600D01*
X28966954Y57575253D02*
X28966954Y57876387D01*
X29103295Y57048833D02*
X28910148Y57241980D01*
G04 #@! TO.N,/SD-D4*
X23520148Y47046600D02*
X23520148Y50146600D01*
X29610148Y58116600D02*
X29550148Y58176600D01*
X28267148Y54476600D02*
X28077148Y54286600D01*
X30197806Y54476600D02*
X28267148Y54476600D01*
X26982682Y44984066D02*
X26600148Y45366600D01*
X27005660Y44984066D02*
X26982682Y44984066D01*
X23510148Y47036600D02*
X23520148Y47046600D01*
X29550148Y58176600D02*
X29550148Y58636600D01*
X30420148Y54698942D02*
X30197806Y54476600D01*
G04 #@! TO.N,/SD-D7*
X29246623Y53766600D02*
X30456788Y53766600D01*
X25235916Y46966600D02*
X25213648Y46944332D01*
X30456788Y53766600D02*
X31158468Y54468280D01*
X29973148Y57596600D02*
X29973148Y58409600D01*
X29973148Y58409600D02*
X30200148Y58636600D01*
X29089623Y53923600D02*
X29246623Y53766600D01*
X25800148Y46966600D02*
X25235916Y46966600D01*
G04 #@! TO.N,/SD-D9*
X31370293Y58323099D02*
X31056792Y58636600D01*
X31999344Y57694048D02*
X31999343Y57816379D01*
X31056792Y58636600D02*
X30850148Y58636600D01*
X32396648Y57140100D02*
X32135844Y57400904D01*
X32135844Y57400904D02*
X32135844Y57557548D01*
X32135844Y57557548D02*
X31999344Y57694048D01*
X31492623Y58323099D02*
X31370293Y58323099D01*
X31806445Y46572897D02*
X31400148Y46166600D01*
X32711468Y57140100D02*
X32396648Y57140100D01*
X31806445Y46583258D02*
X31806445Y46572897D01*
X33136828Y56714740D02*
X32711468Y57140100D01*
X33136828Y56673280D02*
X33136828Y56714740D01*
X31999343Y57816379D02*
X31492623Y58323099D01*
G04 #@! TO.N,/SD-D12*
X32713353Y57651575D02*
X32362843Y57651575D01*
X32754241Y46205255D02*
X32754241Y45920693D01*
X33114898Y57250030D02*
X32713353Y57651575D01*
X32226343Y57788075D02*
X32226342Y57910406D01*
X32362843Y57651575D02*
X32226343Y57788075D01*
X32754241Y45920693D02*
X32200148Y45366600D01*
X32226342Y57910406D02*
X31500148Y58636600D01*
D46*
G04 #@! TO.N,Net-(U16B--)*
X30151648Y11099922D02*
X31511648Y11099922D01*
X29546648Y8249922D02*
X30181648Y8884922D01*
X30151648Y11099922D02*
X30151648Y9519922D01*
X30181648Y8884922D02*
X30181648Y9489922D01*
D44*
G04 #@! TO.N,Net-(U1A-+)*
X55486648Y62759482D02*
X55212088Y62484922D01*
X55212088Y62484922D02*
X53906648Y62484922D01*
D46*
G04 #@! TO.N,Net-(U3A-+)*
X9376648Y83354922D02*
X7906648Y83354922D01*
D44*
G04 #@! TO.N,Net-(U14A--)*
X47436648Y56144922D02*
X47436648Y55494922D01*
X45255000Y56910000D02*
X46020078Y56144922D01*
X46020078Y56144922D02*
X47436648Y56144922D01*
G04 #@! TO.N,Net-(U14B-+)*
X54225148Y55458422D02*
X54225148Y54231422D01*
X53336648Y55494922D02*
X54188648Y55494922D01*
X54188648Y55494922D02*
X54225148Y55458422D01*
X54225148Y54231422D02*
X54188648Y54194922D01*
X54188648Y54194922D02*
X53336648Y54194922D01*
D46*
G04 #@! TO.N,Net-(U16B-+)*
X30196648Y6459922D02*
X31986648Y4669922D01*
X30196648Y7629922D02*
X30196648Y6459922D01*
G04 #@! TO.N,Net-(U10B--)*
X25686648Y30684922D02*
X24531648Y30684922D01*
X24531648Y30684922D02*
X24086648Y30239922D01*
X25686648Y31334922D02*
X25686648Y30684922D01*
D43*
G04 #@! TO.N,Net-(JP4-B)*
X56152780Y30593974D02*
X57318574Y30593974D01*
X56152780Y28416290D02*
X56601648Y27967422D01*
X56152780Y30593974D02*
X56152780Y28416290D01*
G04 #@! TO.N,Net-(JP11-B)*
X4770000Y70820000D02*
X4770000Y71904600D01*
X4770000Y70820000D02*
X4770000Y69100760D01*
G04 #@! TO.N,Net-(JP2-B)*
X7900000Y54084600D02*
X8474678Y53509922D01*
X8474678Y53509922D02*
X9456493Y53509922D01*
X10961493Y53509922D02*
X11391493Y53079922D01*
X9456493Y53509922D02*
X10961493Y53509922D01*
X11536648Y54349922D02*
X11536648Y53225077D01*
G04 #@! TO.N,Net-(JP3-B)*
X10306648Y69659922D02*
X8737408Y69659922D01*
X8484200Y71005000D02*
X8484200Y69913130D01*
G04 #@! TD*
M02*
