G04 #@! TF.GenerationSoftware,KiCad,Pcbnew,8.0.5*
G04 #@! TF.CreationDate,2024-10-10T15:49:41-07:00*
G04 #@! TF.ProjectId,Sampler-built,53616d70-6c65-4722-9d62-75696c742e6b,rev?*
G04 #@! TF.SameCoordinates,PX38444c0PY67f3540*
G04 #@! TF.FileFunction,Legend,Bot*
G04 #@! TF.FilePolarity,Positive*
%FSLAX46Y46*%
G04 Gerber Fmt 4.6, Leading zero omitted, Abs format (unit mm)*
G04 Created by KiCad (PCBNEW 8.0.5) date 2024-10-10 15:49:41*
%MOMM*%
%LPD*%
G01*
G04 APERTURE LIST*
G04 Aperture macros list*
%AMRoundRect*
0 Rectangle with rounded corners*
0 $1 Rounding radius*
0 $2 $3 $4 $5 $6 $7 $8 $9 X,Y pos of 4 corners*
0 Add a 4 corners polygon primitive as box body*
4,1,4,$2,$3,$4,$5,$6,$7,$8,$9,$2,$3,0*
0 Add four circle primitives for the rounded corners*
1,1,$1+$1,$2,$3*
1,1,$1+$1,$4,$5*
1,1,$1+$1,$6,$7*
1,1,$1+$1,$8,$9*
0 Add four rect primitives between the rounded corners*
20,1,$1+$1,$2,$3,$4,$5,0*
20,1,$1+$1,$4,$5,$6,$7,0*
20,1,$1+$1,$6,$7,$8,$9,0*
20,1,$1+$1,$8,$9,$2,$3,0*%
G04 Aperture macros list end*
%ADD10C,0.152400*%
%ADD11C,0.149860*%
%ADD12C,0.150000*%
%ADD13C,0.203200*%
%ADD14C,0.120000*%
%ADD15C,0.127000*%
%ADD16C,0.254000*%
%ADD17C,0.100000*%
%ADD18C,0.400000*%
%ADD19C,0.508000*%
%ADD20C,1.700000*%
%ADD21O,1.700000X1.700000*%
%ADD22R,1.700000X1.700000*%
%ADD23C,1.930400*%
%ADD24RoundRect,0.147500X-0.172500X0.147500X-0.172500X-0.147500X0.172500X-0.147500X0.172500X0.147500X0*%
%ADD25C,1.800000*%
%ADD26C,1.500000*%
%ADD27O,1.397000X1.092200*%
%ADD28O,1.524000X1.524000*%
%ADD29R,1.000000X1.000000*%
%ADD30C,2.540000*%
%ADD31RoundRect,0.147500X0.172500X-0.147500X0.172500X0.147500X-0.172500X0.147500X-0.172500X-0.147500X0*%
%ADD32RoundRect,0.147500X0.017678X-0.226274X0.226274X-0.017678X-0.017678X0.226274X-0.226274X0.017678X0*%
G04 APERTURE END LIST*
D10*
X-52539028Y26514908D02*
X-52539028Y25943480D01*
X-52539028Y25943480D02*
X-52481575Y25829194D01*
X-52481575Y25829194D02*
X-52366671Y25753003D01*
X-52366671Y25753003D02*
X-52194313Y25714908D01*
X-52194313Y25714908D02*
X-52079409Y25714908D01*
X-53745528Y25714908D02*
X-53056099Y25714908D01*
X-53400813Y25714908D02*
X-53400813Y26514908D01*
X-53400813Y26514908D02*
X-53285909Y26400623D01*
X-53285909Y26400623D02*
X-53171004Y26324432D01*
X-53171004Y26324432D02*
X-53056099Y26286337D01*
X-54205147Y26438718D02*
X-54262599Y26476813D01*
X-54262599Y26476813D02*
X-54377504Y26514908D01*
X-54377504Y26514908D02*
X-54664766Y26514908D01*
X-54664766Y26514908D02*
X-54779671Y26476813D01*
X-54779671Y26476813D02*
X-54837123Y26438718D01*
X-54837123Y26438718D02*
X-54894576Y26362527D01*
X-54894576Y26362527D02*
X-54894576Y26286337D01*
X-54894576Y26286337D02*
X-54837123Y26172051D01*
X-54837123Y26172051D02*
X-54147695Y25714908D01*
X-54147695Y25714908D02*
X-54894576Y25714908D01*
X-23751088Y4281468D02*
X-23751088Y3710040D01*
X-23751088Y3710040D02*
X-23693635Y3595754D01*
X-23693635Y3595754D02*
X-23578731Y3519563D01*
X-23578731Y3519563D02*
X-23406373Y3481468D01*
X-23406373Y3481468D02*
X-23291469Y3481468D01*
X-24957588Y3481468D02*
X-24268159Y3481468D01*
X-24612873Y3481468D02*
X-24612873Y4281468D01*
X-24612873Y4281468D02*
X-24497969Y4167183D01*
X-24497969Y4167183D02*
X-24383064Y4090992D01*
X-24383064Y4090992D02*
X-24268159Y4052897D01*
X-25359755Y4281468D02*
X-26164088Y4281468D01*
X-26164088Y4281468D02*
X-25647017Y3481468D01*
X-3955228Y4071468D02*
X-3955228Y3500040D01*
X-3955228Y3500040D02*
X-3897775Y3385754D01*
X-3897775Y3385754D02*
X-3782871Y3309563D01*
X-3782871Y3309563D02*
X-3610513Y3271468D01*
X-3610513Y3271468D02*
X-3495609Y3271468D01*
X-5161728Y3271468D02*
X-4472299Y3271468D01*
X-4817013Y3271468D02*
X-4817013Y4071468D01*
X-4817013Y4071468D02*
X-4702109Y3957183D01*
X-4702109Y3957183D02*
X-4587204Y3880992D01*
X-4587204Y3880992D02*
X-4472299Y3842897D01*
X-6195871Y4071468D02*
X-5966061Y4071468D01*
X-5966061Y4071468D02*
X-5851157Y4033373D01*
X-5851157Y4033373D02*
X-5793704Y3995278D01*
X-5793704Y3995278D02*
X-5678799Y3880992D01*
X-5678799Y3880992D02*
X-5621347Y3728611D01*
X-5621347Y3728611D02*
X-5621347Y3423849D01*
X-5621347Y3423849D02*
X-5678799Y3347659D01*
X-5678799Y3347659D02*
X-5736252Y3309563D01*
X-5736252Y3309563D02*
X-5851157Y3271468D01*
X-5851157Y3271468D02*
X-6080966Y3271468D01*
X-6080966Y3271468D02*
X-6195871Y3309563D01*
X-6195871Y3309563D02*
X-6253323Y3347659D01*
X-6253323Y3347659D02*
X-6310776Y3423849D01*
X-6310776Y3423849D02*
X-6310776Y3614325D01*
X-6310776Y3614325D02*
X-6253323Y3690516D01*
X-6253323Y3690516D02*
X-6195871Y3728611D01*
X-6195871Y3728611D02*
X-6080966Y3766706D01*
X-6080966Y3766706D02*
X-5851157Y3766706D01*
X-5851157Y3766706D02*
X-5736252Y3728611D01*
X-5736252Y3728611D02*
X-5678799Y3690516D01*
X-5678799Y3690516D02*
X-5621347Y3614325D01*
D11*
X-27727541Y45541771D02*
X-27696214Y45577452D01*
X-27696214Y45577452D02*
X-27664888Y45684495D01*
X-27664888Y45684495D02*
X-27664888Y45755857D01*
X-27664888Y45755857D02*
X-27696214Y45862900D01*
X-27696214Y45862900D02*
X-27758868Y45934262D01*
X-27758868Y45934262D02*
X-27821521Y45969943D01*
X-27821521Y45969943D02*
X-27946828Y46005624D01*
X-27946828Y46005624D02*
X-28040808Y46005624D01*
X-28040808Y46005624D02*
X-28166114Y45969943D01*
X-28166114Y45969943D02*
X-28228768Y45934262D01*
X-28228768Y45934262D02*
X-28291421Y45862900D01*
X-28291421Y45862900D02*
X-28322748Y45755857D01*
X-28322748Y45755857D02*
X-28322748Y45684495D01*
X-28322748Y45684495D02*
X-28291421Y45577452D01*
X-28291421Y45577452D02*
X-28260094Y45541771D01*
X-28322748Y45292005D02*
X-28322748Y44828152D01*
X-28322748Y44828152D02*
X-28072134Y45077919D01*
X-28072134Y45077919D02*
X-28072134Y44970876D01*
X-28072134Y44970876D02*
X-28040808Y44899514D01*
X-28040808Y44899514D02*
X-28009481Y44863833D01*
X-28009481Y44863833D02*
X-27946828Y44828152D01*
X-27946828Y44828152D02*
X-27790194Y44828152D01*
X-27790194Y44828152D02*
X-27727541Y44863833D01*
X-27727541Y44863833D02*
X-27696214Y44899514D01*
X-27696214Y44899514D02*
X-27664888Y44970876D01*
X-27664888Y44970876D02*
X-27664888Y45184962D01*
X-27664888Y45184962D02*
X-27696214Y45256324D01*
X-27696214Y45256324D02*
X-27727541Y45292005D01*
X-28322748Y44364300D02*
X-28322748Y44292938D01*
X-28322748Y44292938D02*
X-28291421Y44221576D01*
X-28291421Y44221576D02*
X-28260094Y44185895D01*
X-28260094Y44185895D02*
X-28197441Y44150214D01*
X-28197441Y44150214D02*
X-28072134Y44114533D01*
X-28072134Y44114533D02*
X-27915501Y44114533D01*
X-27915501Y44114533D02*
X-27790194Y44150214D01*
X-27790194Y44150214D02*
X-27727541Y44185895D01*
X-27727541Y44185895D02*
X-27696214Y44221576D01*
X-27696214Y44221576D02*
X-27664888Y44292938D01*
X-27664888Y44292938D02*
X-27664888Y44364300D01*
X-27664888Y44364300D02*
X-27696214Y44435662D01*
X-27696214Y44435662D02*
X-27727541Y44471343D01*
X-27727541Y44471343D02*
X-27790194Y44507024D01*
X-27790194Y44507024D02*
X-27915501Y44542705D01*
X-27915501Y44542705D02*
X-28072134Y44542705D01*
X-28072134Y44542705D02*
X-28197441Y44507024D01*
X-28197441Y44507024D02*
X-28260094Y44471343D01*
X-28260094Y44471343D02*
X-28291421Y44435662D01*
X-28291421Y44435662D02*
X-28322748Y44364300D01*
D12*
X-9013315Y108117614D02*
X-9156172Y108078909D01*
X-9156172Y108078909D02*
X-9203791Y108040205D01*
X-9203791Y108040205D02*
X-9251410Y107962795D01*
X-9251410Y107962795D02*
X-9251410Y107846681D01*
X-9251410Y107846681D02*
X-9203791Y107769271D01*
X-9203791Y107769271D02*
X-9156172Y107730566D01*
X-9156172Y107730566D02*
X-9060934Y107691862D01*
X-9060934Y107691862D02*
X-8679982Y107691862D01*
X-8679982Y107691862D02*
X-8679982Y108504662D01*
X-8679982Y108504662D02*
X-9013315Y108504662D01*
X-9013315Y108504662D02*
X-9108553Y108465957D01*
X-9108553Y108465957D02*
X-9156172Y108427252D01*
X-9156172Y108427252D02*
X-9203791Y108349843D01*
X-9203791Y108349843D02*
X-9203791Y108272433D01*
X-9203791Y108272433D02*
X-9156172Y108195024D01*
X-9156172Y108195024D02*
X-9108553Y108156319D01*
X-9108553Y108156319D02*
X-9013315Y108117614D01*
X-9013315Y108117614D02*
X-8679982Y108117614D01*
X-10108553Y107691862D02*
X-10108553Y108117614D01*
X-10108553Y108117614D02*
X-10060934Y108195024D01*
X-10060934Y108195024D02*
X-9965696Y108233728D01*
X-9965696Y108233728D02*
X-9775220Y108233728D01*
X-9775220Y108233728D02*
X-9679982Y108195024D01*
X-10108553Y107730566D02*
X-10013315Y107691862D01*
X-10013315Y107691862D02*
X-9775220Y107691862D01*
X-9775220Y107691862D02*
X-9679982Y107730566D01*
X-9679982Y107730566D02*
X-9632363Y107807976D01*
X-9632363Y107807976D02*
X-9632363Y107885386D01*
X-9632363Y107885386D02*
X-9679982Y107962795D01*
X-9679982Y107962795D02*
X-9775220Y108001500D01*
X-9775220Y108001500D02*
X-10013315Y108001500D01*
X-10013315Y108001500D02*
X-10108553Y108040205D01*
X-10584744Y108233728D02*
X-10584744Y107691862D01*
X-10584744Y108156319D02*
X-10632363Y108195024D01*
X-10632363Y108195024D02*
X-10727601Y108233728D01*
X-10727601Y108233728D02*
X-10870458Y108233728D01*
X-10870458Y108233728D02*
X-10965696Y108195024D01*
X-10965696Y108195024D02*
X-11013315Y108117614D01*
X-11013315Y108117614D02*
X-11013315Y107691862D01*
X-11489506Y107691862D02*
X-11489506Y108504662D01*
X-11584744Y108001500D02*
X-11870458Y107691862D01*
X-11870458Y108233728D02*
X-11489506Y107924090D01*
X-12060934Y107614452D02*
X-12822839Y107614452D01*
X-13394268Y108117614D02*
X-13537125Y108078909D01*
X-13537125Y108078909D02*
X-13584744Y108040205D01*
X-13584744Y108040205D02*
X-13632363Y107962795D01*
X-13632363Y107962795D02*
X-13632363Y107846681D01*
X-13632363Y107846681D02*
X-13584744Y107769271D01*
X-13584744Y107769271D02*
X-13537125Y107730566D01*
X-13537125Y107730566D02*
X-13441887Y107691862D01*
X-13441887Y107691862D02*
X-13060935Y107691862D01*
X-13060935Y107691862D02*
X-13060935Y108504662D01*
X-13060935Y108504662D02*
X-13394268Y108504662D01*
X-13394268Y108504662D02*
X-13489506Y108465957D01*
X-13489506Y108465957D02*
X-13537125Y108427252D01*
X-13537125Y108427252D02*
X-13584744Y108349843D01*
X-13584744Y108349843D02*
X-13584744Y108272433D01*
X-13584744Y108272433D02*
X-13537125Y108195024D01*
X-13537125Y108195024D02*
X-13489506Y108156319D01*
X-13489506Y108156319D02*
X-13394268Y108117614D01*
X-13394268Y108117614D02*
X-13060935Y108117614D01*
X-14489506Y108233728D02*
X-14489506Y107691862D01*
X-14060935Y108233728D02*
X-14060935Y107807976D01*
X-14060935Y107807976D02*
X-14108554Y107730566D01*
X-14108554Y107730566D02*
X-14203792Y107691862D01*
X-14203792Y107691862D02*
X-14346649Y107691862D01*
X-14346649Y107691862D02*
X-14441887Y107730566D01*
X-14441887Y107730566D02*
X-14489506Y107769271D01*
X-14822840Y108233728D02*
X-15203792Y108233728D01*
X-14965697Y108504662D02*
X-14965697Y107807976D01*
X-14965697Y107807976D02*
X-15013316Y107730566D01*
X-15013316Y107730566D02*
X-15108554Y107691862D01*
X-15108554Y107691862D02*
X-15203792Y107691862D01*
X-16060935Y107691862D02*
X-15489507Y107691862D01*
X-15775221Y107691862D02*
X-15775221Y108504662D01*
X-15775221Y108504662D02*
X-15679983Y108388547D01*
X-15679983Y108388547D02*
X-15584745Y108311138D01*
X-15584745Y108311138D02*
X-15489507Y108272433D01*
X-31082067Y91226410D02*
X-31253495Y91187706D01*
X-31253495Y91187706D02*
X-31539210Y91187706D01*
X-31539210Y91187706D02*
X-31653495Y91226410D01*
X-31653495Y91226410D02*
X-31710638Y91265115D01*
X-31710638Y91265115D02*
X-31767781Y91342525D01*
X-31767781Y91342525D02*
X-31767781Y91419934D01*
X-31767781Y91419934D02*
X-31710638Y91497344D01*
X-31710638Y91497344D02*
X-31653495Y91536049D01*
X-31653495Y91536049D02*
X-31539210Y91574753D01*
X-31539210Y91574753D02*
X-31310638Y91613458D01*
X-31310638Y91613458D02*
X-31196353Y91652163D01*
X-31196353Y91652163D02*
X-31139210Y91690868D01*
X-31139210Y91690868D02*
X-31082067Y91768277D01*
X-31082067Y91768277D02*
X-31082067Y91845687D01*
X-31082067Y91845687D02*
X-31139210Y91923096D01*
X-31139210Y91923096D02*
X-31196353Y91961801D01*
X-31196353Y91961801D02*
X-31310638Y92000506D01*
X-31310638Y92000506D02*
X-31596353Y92000506D01*
X-31596353Y92000506D02*
X-31767781Y91961801D01*
X-32282067Y91187706D02*
X-32282067Y92000506D01*
X-32282067Y92000506D02*
X-32567781Y92000506D01*
X-32567781Y92000506D02*
X-32739210Y91961801D01*
X-32739210Y91961801D02*
X-32853495Y91884391D01*
X-32853495Y91884391D02*
X-32910638Y91806982D01*
X-32910638Y91806982D02*
X-32967781Y91652163D01*
X-32967781Y91652163D02*
X-32967781Y91536049D01*
X-32967781Y91536049D02*
X-32910638Y91381230D01*
X-32910638Y91381230D02*
X-32853495Y91303820D01*
X-32853495Y91303820D02*
X-32739210Y91226410D01*
X-32739210Y91226410D02*
X-32567781Y91187706D01*
X-32567781Y91187706D02*
X-32282067Y91187706D01*
X-34110638Y91187706D02*
X-33424924Y91187706D01*
X-33767781Y91187706D02*
X-33767781Y92000506D01*
X-33767781Y92000506D02*
X-33653495Y91884391D01*
X-33653495Y91884391D02*
X-33539210Y91806982D01*
X-33539210Y91806982D02*
X-33424924Y91768277D01*
X-28340436Y67348412D02*
X-28309483Y67379364D01*
X-28309483Y67379364D02*
X-28278531Y67472222D01*
X-28278531Y67472222D02*
X-28278531Y67534126D01*
X-28278531Y67534126D02*
X-28309483Y67626983D01*
X-28309483Y67626983D02*
X-28371388Y67688888D01*
X-28371388Y67688888D02*
X-28433293Y67719841D01*
X-28433293Y67719841D02*
X-28557103Y67750793D01*
X-28557103Y67750793D02*
X-28649960Y67750793D01*
X-28649960Y67750793D02*
X-28773769Y67719841D01*
X-28773769Y67719841D02*
X-28835674Y67688888D01*
X-28835674Y67688888D02*
X-28897579Y67626983D01*
X-28897579Y67626983D02*
X-28928531Y67534126D01*
X-28928531Y67534126D02*
X-28928531Y67472222D01*
X-28928531Y67472222D02*
X-28897579Y67379364D01*
X-28897579Y67379364D02*
X-28866626Y67348412D01*
X-28711864Y66791269D02*
X-28278531Y66791269D01*
X-28959483Y66946031D02*
X-28495198Y67100793D01*
X-28495198Y67100793D02*
X-28495198Y66698412D01*
D10*
X-41665744Y47140499D02*
X-41665744Y47953299D01*
X-41665744Y47953299D02*
X-42125363Y47953299D01*
X-42125363Y47953299D02*
X-42240268Y47914594D01*
X-42240268Y47914594D02*
X-42297721Y47875889D01*
X-42297721Y47875889D02*
X-42355173Y47798480D01*
X-42355173Y47798480D02*
X-42355173Y47682365D01*
X-42355173Y47682365D02*
X-42297721Y47604956D01*
X-42297721Y47604956D02*
X-42240268Y47566251D01*
X-42240268Y47566251D02*
X-42125363Y47527546D01*
X-42125363Y47527546D02*
X-41665744Y47527546D01*
X-43102054Y47953299D02*
X-43331863Y47953299D01*
X-43331863Y47953299D02*
X-43446768Y47914594D01*
X-43446768Y47914594D02*
X-43561673Y47837184D01*
X-43561673Y47837184D02*
X-43619125Y47682365D01*
X-43619125Y47682365D02*
X-43619125Y47411432D01*
X-43619125Y47411432D02*
X-43561673Y47256613D01*
X-43561673Y47256613D02*
X-43446768Y47179203D01*
X-43446768Y47179203D02*
X-43331863Y47140499D01*
X-43331863Y47140499D02*
X-43102054Y47140499D01*
X-43102054Y47140499D02*
X-42987149Y47179203D01*
X-42987149Y47179203D02*
X-42872244Y47256613D01*
X-42872244Y47256613D02*
X-42814792Y47411432D01*
X-42814792Y47411432D02*
X-42814792Y47682365D01*
X-42814792Y47682365D02*
X-42872244Y47837184D01*
X-42872244Y47837184D02*
X-42987149Y47914594D01*
X-42987149Y47914594D02*
X-43102054Y47953299D01*
X-43963839Y47953299D02*
X-44653268Y47953299D01*
X-44308554Y47140499D02*
X-44308554Y47953299D01*
X-44768172Y47063089D02*
X-45687411Y47063089D01*
X-46549196Y47140499D02*
X-45974672Y47140499D01*
X-45974672Y47140499D02*
X-45974672Y47953299D01*
X-46951362Y47566251D02*
X-47353529Y47566251D01*
X-47525886Y47140499D02*
X-46951362Y47140499D01*
X-46951362Y47140499D02*
X-46951362Y47953299D01*
X-46951362Y47953299D02*
X-47525886Y47953299D01*
X-48042957Y47140499D02*
X-48042957Y47953299D01*
X-48042957Y47953299D02*
X-48732386Y47140499D01*
X-48732386Y47140499D02*
X-48732386Y47953299D01*
X-49938886Y47914594D02*
X-49823981Y47953299D01*
X-49823981Y47953299D02*
X-49651624Y47953299D01*
X-49651624Y47953299D02*
X-49479267Y47914594D01*
X-49479267Y47914594D02*
X-49364362Y47837184D01*
X-49364362Y47837184D02*
X-49306909Y47759775D01*
X-49306909Y47759775D02*
X-49249457Y47604956D01*
X-49249457Y47604956D02*
X-49249457Y47488842D01*
X-49249457Y47488842D02*
X-49306909Y47334023D01*
X-49306909Y47334023D02*
X-49364362Y47256613D01*
X-49364362Y47256613D02*
X-49479267Y47179203D01*
X-49479267Y47179203D02*
X-49651624Y47140499D01*
X-49651624Y47140499D02*
X-49766528Y47140499D01*
X-49766528Y47140499D02*
X-49938886Y47179203D01*
X-49938886Y47179203D02*
X-49996338Y47217908D01*
X-49996338Y47217908D02*
X-49996338Y47488842D01*
X-49996338Y47488842D02*
X-49766528Y47488842D01*
X-50341052Y47953299D02*
X-51030481Y47953299D01*
X-50685767Y47140499D02*
X-50685767Y47953299D01*
X-51432647Y47140499D02*
X-51432647Y47953299D01*
X-51432647Y47566251D02*
X-52122076Y47566251D01*
X-52122076Y47140499D02*
X-52122076Y47953299D01*
X-53328576Y47140499D02*
X-52639147Y47140499D01*
X-52983861Y47140499D02*
X-52983861Y47953299D01*
X-52983861Y47953299D02*
X-52868957Y47837184D01*
X-52868957Y47837184D02*
X-52754052Y47759775D01*
X-52754052Y47759775D02*
X-52639147Y47721070D01*
X-18707076Y34165275D02*
X-18707076Y33584703D01*
X-18707076Y33584703D02*
X-18649623Y33468589D01*
X-18649623Y33468589D02*
X-18534719Y33391179D01*
X-18534719Y33391179D02*
X-18362361Y33352475D01*
X-18362361Y33352475D02*
X-18247457Y33352475D01*
X-19224147Y34087865D02*
X-19281599Y34126570D01*
X-19281599Y34126570D02*
X-19396504Y34165275D01*
X-19396504Y34165275D02*
X-19683766Y34165275D01*
X-19683766Y34165275D02*
X-19798671Y34126570D01*
X-19798671Y34126570D02*
X-19856123Y34087865D01*
X-19856123Y34087865D02*
X-19913576Y34010456D01*
X-19913576Y34010456D02*
X-19913576Y33933046D01*
X-19913576Y33933046D02*
X-19856123Y33816932D01*
X-19856123Y33816932D02*
X-19166695Y33352475D01*
X-19166695Y33352475D02*
X-19913576Y33352475D01*
D12*
X-4566536Y79063374D02*
X-4566536Y79876174D01*
X-4566536Y79876174D02*
X-4947488Y79876174D01*
X-4947488Y79876174D02*
X-5042726Y79837469D01*
X-5042726Y79837469D02*
X-5090345Y79798764D01*
X-5090345Y79798764D02*
X-5137964Y79721355D01*
X-5137964Y79721355D02*
X-5137964Y79605240D01*
X-5137964Y79605240D02*
X-5090345Y79527831D01*
X-5090345Y79527831D02*
X-5042726Y79489126D01*
X-5042726Y79489126D02*
X-4947488Y79450421D01*
X-4947488Y79450421D02*
X-4566536Y79450421D01*
X-5757012Y79876174D02*
X-5947488Y79876174D01*
X-5947488Y79876174D02*
X-6042726Y79837469D01*
X-6042726Y79837469D02*
X-6137964Y79760059D01*
X-6137964Y79760059D02*
X-6185583Y79605240D01*
X-6185583Y79605240D02*
X-6185583Y79334307D01*
X-6185583Y79334307D02*
X-6137964Y79179488D01*
X-6137964Y79179488D02*
X-6042726Y79102078D01*
X-6042726Y79102078D02*
X-5947488Y79063374D01*
X-5947488Y79063374D02*
X-5757012Y79063374D01*
X-5757012Y79063374D02*
X-5661774Y79102078D01*
X-5661774Y79102078D02*
X-5566536Y79179488D01*
X-5566536Y79179488D02*
X-5518917Y79334307D01*
X-5518917Y79334307D02*
X-5518917Y79605240D01*
X-5518917Y79605240D02*
X-5566536Y79760059D01*
X-5566536Y79760059D02*
X-5661774Y79837469D01*
X-5661774Y79837469D02*
X-5757012Y79876174D01*
X-6471298Y79876174D02*
X-7042726Y79876174D01*
X-6757012Y79063374D02*
X-6757012Y79876174D01*
X-7137964Y78985964D02*
X-7899869Y78985964D01*
X-8137965Y79063374D02*
X-8137965Y79876174D01*
X-8137965Y79876174D02*
X-8518917Y79876174D01*
X-8518917Y79876174D02*
X-8614155Y79837469D01*
X-8614155Y79837469D02*
X-8661774Y79798764D01*
X-8661774Y79798764D02*
X-8709393Y79721355D01*
X-8709393Y79721355D02*
X-8709393Y79605240D01*
X-8709393Y79605240D02*
X-8661774Y79527831D01*
X-8661774Y79527831D02*
X-8614155Y79489126D01*
X-8614155Y79489126D02*
X-8518917Y79450421D01*
X-8518917Y79450421D02*
X-8137965Y79450421D01*
X-9137965Y79063374D02*
X-9137965Y79876174D01*
X-9471298Y79876174D02*
X-10042726Y79876174D01*
X-9757012Y79063374D02*
X-9757012Y79876174D01*
X-10947488Y79140783D02*
X-10899869Y79102078D01*
X-10899869Y79102078D02*
X-10757012Y79063374D01*
X-10757012Y79063374D02*
X-10661774Y79063374D01*
X-10661774Y79063374D02*
X-10518917Y79102078D01*
X-10518917Y79102078D02*
X-10423679Y79179488D01*
X-10423679Y79179488D02*
X-10376060Y79256898D01*
X-10376060Y79256898D02*
X-10328441Y79411717D01*
X-10328441Y79411717D02*
X-10328441Y79527831D01*
X-10328441Y79527831D02*
X-10376060Y79682650D01*
X-10376060Y79682650D02*
X-10423679Y79760059D01*
X-10423679Y79760059D02*
X-10518917Y79837469D01*
X-10518917Y79837469D02*
X-10661774Y79876174D01*
X-10661774Y79876174D02*
X-10757012Y79876174D01*
X-10757012Y79876174D02*
X-10899869Y79837469D01*
X-10899869Y79837469D02*
X-10947488Y79798764D01*
X-11376060Y79063374D02*
X-11376060Y79876174D01*
X-11376060Y79489126D02*
X-11947488Y79489126D01*
X-11947488Y79063374D02*
X-11947488Y79876174D01*
X-12947488Y79063374D02*
X-12376060Y79063374D01*
X-12661774Y79063374D02*
X-12661774Y79876174D01*
X-12661774Y79876174D02*
X-12566536Y79760059D01*
X-12566536Y79760059D02*
X-12471298Y79682650D01*
X-12471298Y79682650D02*
X-12376060Y79643945D01*
D13*
X-9658858Y87351360D02*
X-9562096Y87312655D01*
X-9562096Y87312655D02*
X-9271810Y87273951D01*
X-9271810Y87273951D02*
X-9078286Y87273951D01*
X-9078286Y87273951D02*
X-8788001Y87312655D01*
X-8788001Y87312655D02*
X-8594477Y87390065D01*
X-8594477Y87390065D02*
X-8497715Y87467475D01*
X-8497715Y87467475D02*
X-8400953Y87622294D01*
X-8400953Y87622294D02*
X-8400953Y87738408D01*
X-8400953Y87738408D02*
X-8497715Y87893227D01*
X-8497715Y87893227D02*
X-8594477Y87970636D01*
X-8594477Y87970636D02*
X-8788001Y88048046D01*
X-8788001Y88048046D02*
X-9078286Y88086751D01*
X-9078286Y88086751D02*
X-9271810Y88086751D01*
X-9271810Y88086751D02*
X-9562096Y88048046D01*
X-9562096Y88048046D02*
X-9658858Y88009341D01*
X-10239429Y88086751D02*
X-11400572Y88086751D01*
X-10820001Y87273951D02*
X-10820001Y88086751D01*
X-13239048Y87273951D02*
X-12561715Y87660998D01*
X-12077905Y87273951D02*
X-12077905Y88086751D01*
X-12077905Y88086751D02*
X-12852000Y88086751D01*
X-12852000Y88086751D02*
X-13045524Y88048046D01*
X-13045524Y88048046D02*
X-13142286Y88009341D01*
X-13142286Y88009341D02*
X-13239048Y87931932D01*
X-13239048Y87931932D02*
X-13239048Y87815817D01*
X-13239048Y87815817D02*
X-13142286Y87738408D01*
X-13142286Y87738408D02*
X-13045524Y87699703D01*
X-13045524Y87699703D02*
X-12852000Y87660998D01*
X-12852000Y87660998D02*
X-12077905Y87660998D01*
D10*
X-53508240Y33867433D02*
X-53508240Y33286861D01*
X-53508240Y33286861D02*
X-53450787Y33170747D01*
X-53450787Y33170747D02*
X-53335883Y33093337D01*
X-53335883Y33093337D02*
X-53163525Y33054633D01*
X-53163525Y33054633D02*
X-53048621Y33054633D01*
X-53967859Y33867433D02*
X-54772192Y33867433D01*
X-54772192Y33867433D02*
X-54255121Y33054633D01*
D11*
X-32527541Y44051771D02*
X-32496214Y44087452D01*
X-32496214Y44087452D02*
X-32464888Y44194495D01*
X-32464888Y44194495D02*
X-32464888Y44265857D01*
X-32464888Y44265857D02*
X-32496214Y44372900D01*
X-32496214Y44372900D02*
X-32558868Y44444262D01*
X-32558868Y44444262D02*
X-32621521Y44479943D01*
X-32621521Y44479943D02*
X-32746828Y44515624D01*
X-32746828Y44515624D02*
X-32840808Y44515624D01*
X-32840808Y44515624D02*
X-32966114Y44479943D01*
X-32966114Y44479943D02*
X-33028768Y44444262D01*
X-33028768Y44444262D02*
X-33091421Y44372900D01*
X-33091421Y44372900D02*
X-33122748Y44265857D01*
X-33122748Y44265857D02*
X-33122748Y44194495D01*
X-33122748Y44194495D02*
X-33091421Y44087452D01*
X-33091421Y44087452D02*
X-33060094Y44051771D01*
X-33122748Y43802005D02*
X-33122748Y43338152D01*
X-33122748Y43338152D02*
X-32872134Y43587919D01*
X-32872134Y43587919D02*
X-32872134Y43480876D01*
X-32872134Y43480876D02*
X-32840808Y43409514D01*
X-32840808Y43409514D02*
X-32809481Y43373833D01*
X-32809481Y43373833D02*
X-32746828Y43338152D01*
X-32746828Y43338152D02*
X-32590194Y43338152D01*
X-32590194Y43338152D02*
X-32527541Y43373833D01*
X-32527541Y43373833D02*
X-32496214Y43409514D01*
X-32496214Y43409514D02*
X-32464888Y43480876D01*
X-32464888Y43480876D02*
X-32464888Y43694962D01*
X-32464888Y43694962D02*
X-32496214Y43766324D01*
X-32496214Y43766324D02*
X-32527541Y43802005D01*
X-33060094Y43052705D02*
X-33091421Y43017024D01*
X-33091421Y43017024D02*
X-33122748Y42945662D01*
X-33122748Y42945662D02*
X-33122748Y42767257D01*
X-33122748Y42767257D02*
X-33091421Y42695895D01*
X-33091421Y42695895D02*
X-33060094Y42660214D01*
X-33060094Y42660214D02*
X-32997441Y42624533D01*
X-32997441Y42624533D02*
X-32934788Y42624533D01*
X-32934788Y42624533D02*
X-32840808Y42660214D01*
X-32840808Y42660214D02*
X-32464888Y43088386D01*
X-32464888Y43088386D02*
X-32464888Y42624533D01*
D10*
X-38892240Y33942433D02*
X-38892240Y33361861D01*
X-38892240Y33361861D02*
X-38834787Y33245747D01*
X-38834787Y33245747D02*
X-38719883Y33168337D01*
X-38719883Y33168337D02*
X-38547525Y33129633D01*
X-38547525Y33129633D02*
X-38432621Y33129633D01*
X-39983835Y33942433D02*
X-39754025Y33942433D01*
X-39754025Y33942433D02*
X-39639121Y33903728D01*
X-39639121Y33903728D02*
X-39581668Y33865023D01*
X-39581668Y33865023D02*
X-39466763Y33748909D01*
X-39466763Y33748909D02*
X-39409311Y33594090D01*
X-39409311Y33594090D02*
X-39409311Y33284452D01*
X-39409311Y33284452D02*
X-39466763Y33207042D01*
X-39466763Y33207042D02*
X-39524216Y33168337D01*
X-39524216Y33168337D02*
X-39639121Y33129633D01*
X-39639121Y33129633D02*
X-39868930Y33129633D01*
X-39868930Y33129633D02*
X-39983835Y33168337D01*
X-39983835Y33168337D02*
X-40041287Y33207042D01*
X-40041287Y33207042D02*
X-40098740Y33284452D01*
X-40098740Y33284452D02*
X-40098740Y33477976D01*
X-40098740Y33477976D02*
X-40041287Y33555385D01*
X-40041287Y33555385D02*
X-39983835Y33594090D01*
X-39983835Y33594090D02*
X-39868930Y33632795D01*
X-39868930Y33632795D02*
X-39639121Y33632795D01*
X-39639121Y33632795D02*
X-39524216Y33594090D01*
X-39524216Y33594090D02*
X-39466763Y33555385D01*
X-39466763Y33555385D02*
X-39409311Y33477976D01*
X-38116028Y4305908D02*
X-38116028Y3734480D01*
X-38116028Y3734480D02*
X-38058575Y3620194D01*
X-38058575Y3620194D02*
X-37943671Y3544003D01*
X-37943671Y3544003D02*
X-37771313Y3505908D01*
X-37771313Y3505908D02*
X-37656409Y3505908D01*
X-39322528Y3505908D02*
X-38633099Y3505908D01*
X-38977813Y3505908D02*
X-38977813Y4305908D01*
X-38977813Y4305908D02*
X-38862909Y4191623D01*
X-38862909Y4191623D02*
X-38748004Y4115432D01*
X-38748004Y4115432D02*
X-38633099Y4077337D01*
X-40414123Y4305908D02*
X-39839599Y4305908D01*
X-39839599Y4305908D02*
X-39782147Y3924956D01*
X-39782147Y3924956D02*
X-39839599Y3963051D01*
X-39839599Y3963051D02*
X-39954504Y4001146D01*
X-39954504Y4001146D02*
X-40241766Y4001146D01*
X-40241766Y4001146D02*
X-40356671Y3963051D01*
X-40356671Y3963051D02*
X-40414123Y3924956D01*
X-40414123Y3924956D02*
X-40471576Y3848765D01*
X-40471576Y3848765D02*
X-40471576Y3658289D01*
X-40471576Y3658289D02*
X-40414123Y3582099D01*
X-40414123Y3582099D02*
X-40356671Y3544003D01*
X-40356671Y3544003D02*
X-40241766Y3505908D01*
X-40241766Y3505908D02*
X-39954504Y3505908D01*
X-39954504Y3505908D02*
X-39839599Y3544003D01*
X-39839599Y3544003D02*
X-39782147Y3582099D01*
D12*
X-46243315Y107401862D02*
X-45909982Y107788909D01*
X-45671887Y107401862D02*
X-45671887Y108214662D01*
X-45671887Y108214662D02*
X-46052839Y108214662D01*
X-46052839Y108214662D02*
X-46148077Y108175957D01*
X-46148077Y108175957D02*
X-46195696Y108137252D01*
X-46195696Y108137252D02*
X-46243315Y108059843D01*
X-46243315Y108059843D02*
X-46243315Y107943728D01*
X-46243315Y107943728D02*
X-46195696Y107866319D01*
X-46195696Y107866319D02*
X-46148077Y107827614D01*
X-46148077Y107827614D02*
X-46052839Y107788909D01*
X-46052839Y107788909D02*
X-45671887Y107788909D01*
X-46671887Y107827614D02*
X-47005220Y107827614D01*
X-47148077Y107401862D02*
X-46671887Y107401862D01*
X-46671887Y107401862D02*
X-46671887Y108214662D01*
X-46671887Y108214662D02*
X-47148077Y108214662D01*
X-47433792Y108214662D02*
X-47767125Y107401862D01*
X-47767125Y107401862D02*
X-48100458Y108214662D01*
X-48195696Y107324452D02*
X-48957601Y107324452D01*
X-49529030Y107827614D02*
X-49671887Y107788909D01*
X-49671887Y107788909D02*
X-49719506Y107750205D01*
X-49719506Y107750205D02*
X-49767125Y107672795D01*
X-49767125Y107672795D02*
X-49767125Y107556681D01*
X-49767125Y107556681D02*
X-49719506Y107479271D01*
X-49719506Y107479271D02*
X-49671887Y107440566D01*
X-49671887Y107440566D02*
X-49576649Y107401862D01*
X-49576649Y107401862D02*
X-49195697Y107401862D01*
X-49195697Y107401862D02*
X-49195697Y108214662D01*
X-49195697Y108214662D02*
X-49529030Y108214662D01*
X-49529030Y108214662D02*
X-49624268Y108175957D01*
X-49624268Y108175957D02*
X-49671887Y108137252D01*
X-49671887Y108137252D02*
X-49719506Y108059843D01*
X-49719506Y108059843D02*
X-49719506Y107982433D01*
X-49719506Y107982433D02*
X-49671887Y107905024D01*
X-49671887Y107905024D02*
X-49624268Y107866319D01*
X-49624268Y107866319D02*
X-49529030Y107827614D01*
X-49529030Y107827614D02*
X-49195697Y107827614D01*
X-50195697Y108214662D02*
X-50195697Y107556681D01*
X-50195697Y107556681D02*
X-50243316Y107479271D01*
X-50243316Y107479271D02*
X-50290935Y107440566D01*
X-50290935Y107440566D02*
X-50386173Y107401862D01*
X-50386173Y107401862D02*
X-50576649Y107401862D01*
X-50576649Y107401862D02*
X-50671887Y107440566D01*
X-50671887Y107440566D02*
X-50719506Y107479271D01*
X-50719506Y107479271D02*
X-50767125Y107556681D01*
X-50767125Y107556681D02*
X-50767125Y108214662D01*
X-51100459Y108214662D02*
X-51671887Y108214662D01*
X-51386173Y107401862D02*
X-51386173Y108214662D01*
X-52529030Y107401862D02*
X-51957602Y107401862D01*
X-52243316Y107401862D02*
X-52243316Y108214662D01*
X-52243316Y108214662D02*
X-52148078Y108098547D01*
X-52148078Y108098547D02*
X-52052840Y108021138D01*
X-52052840Y108021138D02*
X-51957602Y107982433D01*
D11*
X-28817541Y47521771D02*
X-28786214Y47557452D01*
X-28786214Y47557452D02*
X-28754888Y47664495D01*
X-28754888Y47664495D02*
X-28754888Y47735857D01*
X-28754888Y47735857D02*
X-28786214Y47842900D01*
X-28786214Y47842900D02*
X-28848868Y47914262D01*
X-28848868Y47914262D02*
X-28911521Y47949943D01*
X-28911521Y47949943D02*
X-29036828Y47985624D01*
X-29036828Y47985624D02*
X-29130808Y47985624D01*
X-29130808Y47985624D02*
X-29256114Y47949943D01*
X-29256114Y47949943D02*
X-29318768Y47914262D01*
X-29318768Y47914262D02*
X-29381421Y47842900D01*
X-29381421Y47842900D02*
X-29412748Y47735857D01*
X-29412748Y47735857D02*
X-29412748Y47664495D01*
X-29412748Y47664495D02*
X-29381421Y47557452D01*
X-29381421Y47557452D02*
X-29350094Y47521771D01*
X-29350094Y47236324D02*
X-29381421Y47200643D01*
X-29381421Y47200643D02*
X-29412748Y47129281D01*
X-29412748Y47129281D02*
X-29412748Y46950876D01*
X-29412748Y46950876D02*
X-29381421Y46879514D01*
X-29381421Y46879514D02*
X-29350094Y46843833D01*
X-29350094Y46843833D02*
X-29287441Y46808152D01*
X-29287441Y46808152D02*
X-29224788Y46808152D01*
X-29224788Y46808152D02*
X-29130808Y46843833D01*
X-29130808Y46843833D02*
X-28754888Y47272005D01*
X-28754888Y47272005D02*
X-28754888Y46808152D01*
X-29130808Y46379981D02*
X-29162134Y46451343D01*
X-29162134Y46451343D02*
X-29193461Y46487024D01*
X-29193461Y46487024D02*
X-29256114Y46522705D01*
X-29256114Y46522705D02*
X-29287441Y46522705D01*
X-29287441Y46522705D02*
X-29350094Y46487024D01*
X-29350094Y46487024D02*
X-29381421Y46451343D01*
X-29381421Y46451343D02*
X-29412748Y46379981D01*
X-29412748Y46379981D02*
X-29412748Y46237257D01*
X-29412748Y46237257D02*
X-29381421Y46165895D01*
X-29381421Y46165895D02*
X-29350094Y46130214D01*
X-29350094Y46130214D02*
X-29287441Y46094533D01*
X-29287441Y46094533D02*
X-29256114Y46094533D01*
X-29256114Y46094533D02*
X-29193461Y46130214D01*
X-29193461Y46130214D02*
X-29162134Y46165895D01*
X-29162134Y46165895D02*
X-29130808Y46237257D01*
X-29130808Y46237257D02*
X-29130808Y46379981D01*
X-29130808Y46379981D02*
X-29099481Y46451343D01*
X-29099481Y46451343D02*
X-29068154Y46487024D01*
X-29068154Y46487024D02*
X-29005501Y46522705D01*
X-29005501Y46522705D02*
X-28880194Y46522705D01*
X-28880194Y46522705D02*
X-28817541Y46487024D01*
X-28817541Y46487024D02*
X-28786214Y46451343D01*
X-28786214Y46451343D02*
X-28754888Y46379981D01*
X-28754888Y46379981D02*
X-28754888Y46237257D01*
X-28754888Y46237257D02*
X-28786214Y46165895D01*
X-28786214Y46165895D02*
X-28817541Y46130214D01*
X-28817541Y46130214D02*
X-28880194Y46094533D01*
X-28880194Y46094533D02*
X-29005501Y46094533D01*
X-29005501Y46094533D02*
X-29068154Y46130214D01*
X-29068154Y46130214D02*
X-29099481Y46165895D01*
X-29099481Y46165895D02*
X-29130808Y46237257D01*
X-32257393Y47688371D02*
X-32226066Y47724052D01*
X-32226066Y47724052D02*
X-32194740Y47831095D01*
X-32194740Y47831095D02*
X-32194740Y47902457D01*
X-32194740Y47902457D02*
X-32226066Y48009500D01*
X-32226066Y48009500D02*
X-32288720Y48080862D01*
X-32288720Y48080862D02*
X-32351373Y48116543D01*
X-32351373Y48116543D02*
X-32476680Y48152224D01*
X-32476680Y48152224D02*
X-32570660Y48152224D01*
X-32570660Y48152224D02*
X-32695966Y48116543D01*
X-32695966Y48116543D02*
X-32758620Y48080862D01*
X-32758620Y48080862D02*
X-32821273Y48009500D01*
X-32821273Y48009500D02*
X-32852600Y47902457D01*
X-32852600Y47902457D02*
X-32852600Y47831095D01*
X-32852600Y47831095D02*
X-32821273Y47724052D01*
X-32821273Y47724052D02*
X-32789946Y47688371D01*
X-32852600Y47438605D02*
X-32852600Y46974752D01*
X-32852600Y46974752D02*
X-32601986Y47224519D01*
X-32601986Y47224519D02*
X-32601986Y47117476D01*
X-32601986Y47117476D02*
X-32570660Y47046114D01*
X-32570660Y47046114D02*
X-32539333Y47010433D01*
X-32539333Y47010433D02*
X-32476680Y46974752D01*
X-32476680Y46974752D02*
X-32320046Y46974752D01*
X-32320046Y46974752D02*
X-32257393Y47010433D01*
X-32257393Y47010433D02*
X-32226066Y47046114D01*
X-32226066Y47046114D02*
X-32194740Y47117476D01*
X-32194740Y47117476D02*
X-32194740Y47331562D01*
X-32194740Y47331562D02*
X-32226066Y47402924D01*
X-32226066Y47402924D02*
X-32257393Y47438605D01*
X-32852600Y46724986D02*
X-32852600Y46261133D01*
X-32852600Y46261133D02*
X-32601986Y46510900D01*
X-32601986Y46510900D02*
X-32601986Y46403857D01*
X-32601986Y46403857D02*
X-32570660Y46332495D01*
X-32570660Y46332495D02*
X-32539333Y46296814D01*
X-32539333Y46296814D02*
X-32476680Y46261133D01*
X-32476680Y46261133D02*
X-32320046Y46261133D01*
X-32320046Y46261133D02*
X-32257393Y46296814D01*
X-32257393Y46296814D02*
X-32226066Y46332495D01*
X-32226066Y46332495D02*
X-32194740Y46403857D01*
X-32194740Y46403857D02*
X-32194740Y46617943D01*
X-32194740Y46617943D02*
X-32226066Y46689305D01*
X-32226066Y46689305D02*
X-32257393Y46724986D01*
D10*
X-34073888Y26929275D02*
X-34073888Y26348703D01*
X-34073888Y26348703D02*
X-34016435Y26232589D01*
X-34016435Y26232589D02*
X-33901531Y26155179D01*
X-33901531Y26155179D02*
X-33729173Y26116475D01*
X-33729173Y26116475D02*
X-33614269Y26116475D01*
X-34705864Y26116475D02*
X-34935673Y26116475D01*
X-34935673Y26116475D02*
X-35050578Y26155179D01*
X-35050578Y26155179D02*
X-35108030Y26193884D01*
X-35108030Y26193884D02*
X-35222935Y26309999D01*
X-35222935Y26309999D02*
X-35280388Y26464818D01*
X-35280388Y26464818D02*
X-35280388Y26774456D01*
X-35280388Y26774456D02*
X-35222935Y26851865D01*
X-35222935Y26851865D02*
X-35165483Y26890570D01*
X-35165483Y26890570D02*
X-35050578Y26929275D01*
X-35050578Y26929275D02*
X-34820769Y26929275D01*
X-34820769Y26929275D02*
X-34705864Y26890570D01*
X-34705864Y26890570D02*
X-34648411Y26851865D01*
X-34648411Y26851865D02*
X-34590959Y26774456D01*
X-34590959Y26774456D02*
X-34590959Y26580932D01*
X-34590959Y26580932D02*
X-34648411Y26503522D01*
X-34648411Y26503522D02*
X-34705864Y26464818D01*
X-34705864Y26464818D02*
X-34820769Y26426113D01*
X-34820769Y26426113D02*
X-35050578Y26426113D01*
X-35050578Y26426113D02*
X-35165483Y26464818D01*
X-35165483Y26464818D02*
X-35222935Y26503522D01*
X-35222935Y26503522D02*
X-35280388Y26580932D01*
D12*
X-4520393Y34290783D02*
X-4520393Y33719355D01*
X-4520393Y33719355D02*
X-4463250Y33605069D01*
X-4463250Y33605069D02*
X-4348964Y33528878D01*
X-4348964Y33528878D02*
X-4177536Y33490783D01*
X-4177536Y33490783D02*
X-4063250Y33490783D01*
X-5263250Y33947926D02*
X-5148965Y33986021D01*
X-5148965Y33986021D02*
X-5091822Y34024117D01*
X-5091822Y34024117D02*
X-5034679Y34100307D01*
X-5034679Y34100307D02*
X-5034679Y34138402D01*
X-5034679Y34138402D02*
X-5091822Y34214593D01*
X-5091822Y34214593D02*
X-5148965Y34252688D01*
X-5148965Y34252688D02*
X-5263250Y34290783D01*
X-5263250Y34290783D02*
X-5491822Y34290783D01*
X-5491822Y34290783D02*
X-5606107Y34252688D01*
X-5606107Y34252688D02*
X-5663250Y34214593D01*
X-5663250Y34214593D02*
X-5720393Y34138402D01*
X-5720393Y34138402D02*
X-5720393Y34100307D01*
X-5720393Y34100307D02*
X-5663250Y34024117D01*
X-5663250Y34024117D02*
X-5606107Y33986021D01*
X-5606107Y33986021D02*
X-5491822Y33947926D01*
X-5491822Y33947926D02*
X-5263250Y33947926D01*
X-5263250Y33947926D02*
X-5148965Y33909831D01*
X-5148965Y33909831D02*
X-5091822Y33871736D01*
X-5091822Y33871736D02*
X-5034679Y33795545D01*
X-5034679Y33795545D02*
X-5034679Y33643164D01*
X-5034679Y33643164D02*
X-5091822Y33566974D01*
X-5091822Y33566974D02*
X-5148965Y33528878D01*
X-5148965Y33528878D02*
X-5263250Y33490783D01*
X-5263250Y33490783D02*
X-5491822Y33490783D01*
X-5491822Y33490783D02*
X-5606107Y33528878D01*
X-5606107Y33528878D02*
X-5663250Y33566974D01*
X-5663250Y33566974D02*
X-5720393Y33643164D01*
X-5720393Y33643164D02*
X-5720393Y33795545D01*
X-5720393Y33795545D02*
X-5663250Y33871736D01*
X-5663250Y33871736D02*
X-5606107Y33909831D01*
X-5606107Y33909831D02*
X-5491822Y33947926D01*
D10*
X-52749028Y4250275D02*
X-52749028Y3669703D01*
X-52749028Y3669703D02*
X-52691575Y3553589D01*
X-52691575Y3553589D02*
X-52576671Y3476179D01*
X-52576671Y3476179D02*
X-52404313Y3437475D01*
X-52404313Y3437475D02*
X-52289409Y3437475D01*
X-53955528Y3437475D02*
X-53266099Y3437475D01*
X-53610813Y3437475D02*
X-53610813Y4250275D01*
X-53610813Y4250275D02*
X-53495909Y4134160D01*
X-53495909Y4134160D02*
X-53381004Y4056751D01*
X-53381004Y4056751D02*
X-53266099Y4018046D01*
X-55104576Y3437475D02*
X-54415147Y3437475D01*
X-54759861Y3437475D02*
X-54759861Y4250275D01*
X-54759861Y4250275D02*
X-54644957Y4134160D01*
X-54644957Y4134160D02*
X-54530052Y4056751D01*
X-54530052Y4056751D02*
X-54415147Y4018046D01*
X-4112028Y26019275D02*
X-4112028Y25438703D01*
X-4112028Y25438703D02*
X-4054575Y25322589D01*
X-4054575Y25322589D02*
X-3939671Y25245179D01*
X-3939671Y25245179D02*
X-3767313Y25206475D01*
X-3767313Y25206475D02*
X-3652409Y25206475D01*
X-5318528Y25206475D02*
X-4629099Y25206475D01*
X-4973813Y25206475D02*
X-4973813Y26019275D01*
X-4973813Y26019275D02*
X-4858909Y25903160D01*
X-4858909Y25903160D02*
X-4744004Y25825751D01*
X-4744004Y25825751D02*
X-4629099Y25787046D01*
X-5720695Y26019275D02*
X-6467576Y26019275D01*
X-6467576Y26019275D02*
X-6065409Y25709637D01*
X-6065409Y25709637D02*
X-6237766Y25709637D01*
X-6237766Y25709637D02*
X-6352671Y25670932D01*
X-6352671Y25670932D02*
X-6410123Y25632227D01*
X-6410123Y25632227D02*
X-6467576Y25554818D01*
X-6467576Y25554818D02*
X-6467576Y25361294D01*
X-6467576Y25361294D02*
X-6410123Y25283884D01*
X-6410123Y25283884D02*
X-6352671Y25245179D01*
X-6352671Y25245179D02*
X-6237766Y25206475D01*
X-6237766Y25206475D02*
X-5893052Y25206475D01*
X-5893052Y25206475D02*
X-5778147Y25245179D01*
X-5778147Y25245179D02*
X-5720695Y25283884D01*
X-16849028Y25434908D02*
X-16849028Y24863480D01*
X-16849028Y24863480D02*
X-16791575Y24749194D01*
X-16791575Y24749194D02*
X-16676671Y24673003D01*
X-16676671Y24673003D02*
X-16504313Y24634908D01*
X-16504313Y24634908D02*
X-16389409Y24634908D01*
X-18055528Y24634908D02*
X-17366099Y24634908D01*
X-17710813Y24634908D02*
X-17710813Y25434908D01*
X-17710813Y25434908D02*
X-17595909Y25320623D01*
X-17595909Y25320623D02*
X-17481004Y25244432D01*
X-17481004Y25244432D02*
X-17366099Y25206337D01*
X-19089671Y25168242D02*
X-19089671Y24634908D01*
X-18802409Y25473003D02*
X-18515147Y24901575D01*
X-18515147Y24901575D02*
X-19262028Y24901575D01*
D12*
X-26001934Y106293862D02*
X-26001934Y107106662D01*
X-26001934Y107106662D02*
X-26382886Y107106662D01*
X-26382886Y107106662D02*
X-26478124Y107067957D01*
X-26478124Y107067957D02*
X-26525743Y107029252D01*
X-26525743Y107029252D02*
X-26573362Y106951843D01*
X-26573362Y106951843D02*
X-26573362Y106835728D01*
X-26573362Y106835728D02*
X-26525743Y106758319D01*
X-26525743Y106758319D02*
X-26478124Y106719614D01*
X-26478124Y106719614D02*
X-26382886Y106680909D01*
X-26382886Y106680909D02*
X-26001934Y106680909D01*
X-27478124Y106293862D02*
X-27001934Y106293862D01*
X-27001934Y106293862D02*
X-27001934Y107106662D01*
X-27763839Y106526090D02*
X-28240029Y106526090D01*
X-27668601Y106293862D02*
X-28001934Y107106662D01*
X-28001934Y107106662D02*
X-28335267Y106293862D01*
X-28859077Y106680909D02*
X-28859077Y106293862D01*
X-28525744Y107106662D02*
X-28859077Y106680909D01*
X-28859077Y106680909D02*
X-29192410Y107106662D01*
X-29287648Y106216452D02*
X-30049553Y106216452D01*
X-30620982Y106719614D02*
X-30763839Y106680909D01*
X-30763839Y106680909D02*
X-30811458Y106642205D01*
X-30811458Y106642205D02*
X-30859077Y106564795D01*
X-30859077Y106564795D02*
X-30859077Y106448681D01*
X-30859077Y106448681D02*
X-30811458Y106371271D01*
X-30811458Y106371271D02*
X-30763839Y106332566D01*
X-30763839Y106332566D02*
X-30668601Y106293862D01*
X-30668601Y106293862D02*
X-30287649Y106293862D01*
X-30287649Y106293862D02*
X-30287649Y107106662D01*
X-30287649Y107106662D02*
X-30620982Y107106662D01*
X-30620982Y107106662D02*
X-30716220Y107067957D01*
X-30716220Y107067957D02*
X-30763839Y107029252D01*
X-30763839Y107029252D02*
X-30811458Y106951843D01*
X-30811458Y106951843D02*
X-30811458Y106874433D01*
X-30811458Y106874433D02*
X-30763839Y106797024D01*
X-30763839Y106797024D02*
X-30716220Y106758319D01*
X-30716220Y106758319D02*
X-30620982Y106719614D01*
X-30620982Y106719614D02*
X-30287649Y106719614D01*
X-31287649Y107106662D02*
X-31287649Y106448681D01*
X-31287649Y106448681D02*
X-31335268Y106371271D01*
X-31335268Y106371271D02*
X-31382887Y106332566D01*
X-31382887Y106332566D02*
X-31478125Y106293862D01*
X-31478125Y106293862D02*
X-31668601Y106293862D01*
X-31668601Y106293862D02*
X-31763839Y106332566D01*
X-31763839Y106332566D02*
X-31811458Y106371271D01*
X-31811458Y106371271D02*
X-31859077Y106448681D01*
X-31859077Y106448681D02*
X-31859077Y107106662D01*
X-32192411Y107106662D02*
X-32763839Y107106662D01*
X-32478125Y106293862D02*
X-32478125Y107106662D01*
X-33620982Y106293862D02*
X-33049554Y106293862D01*
X-33335268Y106293862D02*
X-33335268Y107106662D01*
X-33335268Y107106662D02*
X-33240030Y106990547D01*
X-33240030Y106990547D02*
X-33144792Y106913138D01*
X-33144792Y106913138D02*
X-33049554Y106874433D01*
D14*
X-30452429Y102902976D02*
X-30545286Y102864271D01*
X-30545286Y102864271D02*
X-30576239Y102825567D01*
X-30576239Y102825567D02*
X-30607191Y102748157D01*
X-30607191Y102748157D02*
X-30607191Y102632043D01*
X-30607191Y102632043D02*
X-30576239Y102554633D01*
X-30576239Y102554633D02*
X-30545286Y102515928D01*
X-30545286Y102515928D02*
X-30483381Y102477224D01*
X-30483381Y102477224D02*
X-30235762Y102477224D01*
X-30235762Y102477224D02*
X-30235762Y103290024D01*
X-30235762Y103290024D02*
X-30452429Y103290024D01*
X-30452429Y103290024D02*
X-30514334Y103251319D01*
X-30514334Y103251319D02*
X-30545286Y103212614D01*
X-30545286Y103212614D02*
X-30576239Y103135205D01*
X-30576239Y103135205D02*
X-30576239Y103057795D01*
X-30576239Y103057795D02*
X-30545286Y102980386D01*
X-30545286Y102980386D02*
X-30514334Y102941681D01*
X-30514334Y102941681D02*
X-30452429Y102902976D01*
X-30452429Y102902976D02*
X-30235762Y102902976D01*
X-30607191Y99427224D02*
X-30390524Y99814271D01*
X-30235762Y99427224D02*
X-30235762Y100240024D01*
X-30235762Y100240024D02*
X-30483381Y100240024D01*
X-30483381Y100240024D02*
X-30545286Y100201319D01*
X-30545286Y100201319D02*
X-30576239Y100162614D01*
X-30576239Y100162614D02*
X-30607191Y100085205D01*
X-30607191Y100085205D02*
X-30607191Y99969090D01*
X-30607191Y99969090D02*
X-30576239Y99891681D01*
X-30576239Y99891681D02*
X-30545286Y99852976D01*
X-30545286Y99852976D02*
X-30483381Y99814271D01*
X-30483381Y99814271D02*
X-30235762Y99814271D01*
X-28876239Y100226319D02*
X-28814334Y100265024D01*
X-28814334Y100265024D02*
X-28721477Y100265024D01*
X-28721477Y100265024D02*
X-28628620Y100226319D01*
X-28628620Y100226319D02*
X-28566715Y100148909D01*
X-28566715Y100148909D02*
X-28535762Y100071500D01*
X-28535762Y100071500D02*
X-28504810Y99916681D01*
X-28504810Y99916681D02*
X-28504810Y99800567D01*
X-28504810Y99800567D02*
X-28535762Y99645748D01*
X-28535762Y99645748D02*
X-28566715Y99568338D01*
X-28566715Y99568338D02*
X-28628620Y99490928D01*
X-28628620Y99490928D02*
X-28721477Y99452224D01*
X-28721477Y99452224D02*
X-28783381Y99452224D01*
X-28783381Y99452224D02*
X-28876239Y99490928D01*
X-28876239Y99490928D02*
X-28907191Y99529633D01*
X-28907191Y99529633D02*
X-28907191Y99800567D01*
X-28907191Y99800567D02*
X-28783381Y99800567D01*
X-28408381Y102936862D02*
X-28903619Y102936862D01*
X-28656000Y102627224D02*
X-28656000Y103246500D01*
D11*
X-29685437Y50695300D02*
X-29638056Y50698379D01*
X-29638056Y50698379D02*
X-29540214Y50751918D01*
X-29540214Y50751918D02*
X-29489753Y50802379D01*
X-29489753Y50802379D02*
X-29436214Y50900221D01*
X-29436214Y50900221D02*
X-29430056Y50994984D01*
X-29430056Y50994984D02*
X-29449128Y51064517D01*
X-29449128Y51064517D02*
X-29512503Y51178352D01*
X-29512503Y51178352D02*
X-29578957Y51244806D01*
X-29578957Y51244806D02*
X-29692793Y51308181D01*
X-29692793Y51308181D02*
X-29762325Y51327253D01*
X-29762325Y51327253D02*
X-29857089Y51321095D01*
X-29857089Y51321095D02*
X-29954931Y51267556D01*
X-29954931Y51267556D02*
X-30005391Y51217096D01*
X-30005391Y51217096D02*
X-30058931Y51119254D01*
X-30058931Y51119254D02*
X-30062009Y51071872D01*
X-30263851Y50870030D02*
X-30311233Y50866951D01*
X-30311233Y50866951D02*
X-30383845Y50838642D01*
X-30383845Y50838642D02*
X-30509996Y50712491D01*
X-30509996Y50712491D02*
X-30538305Y50639879D01*
X-30538305Y50639879D02*
X-30541384Y50592497D01*
X-30541384Y50592497D02*
X-30522312Y50522965D01*
X-30522312Y50522965D02*
X-30478009Y50478662D01*
X-30478009Y50478662D02*
X-30386325Y50437438D01*
X-30386325Y50437438D02*
X-29817746Y50474386D01*
X-29817746Y50474386D02*
X-30145740Y50146392D01*
X-30787529Y50434958D02*
X-31140752Y50081735D01*
X-31140752Y50081735D02*
X-30448503Y49843630D01*
X-33687541Y43931771D02*
X-33656214Y43967452D01*
X-33656214Y43967452D02*
X-33624888Y44074495D01*
X-33624888Y44074495D02*
X-33624888Y44145857D01*
X-33624888Y44145857D02*
X-33656214Y44252900D01*
X-33656214Y44252900D02*
X-33718868Y44324262D01*
X-33718868Y44324262D02*
X-33781521Y44359943D01*
X-33781521Y44359943D02*
X-33906828Y44395624D01*
X-33906828Y44395624D02*
X-34000808Y44395624D01*
X-34000808Y44395624D02*
X-34126114Y44359943D01*
X-34126114Y44359943D02*
X-34188768Y44324262D01*
X-34188768Y44324262D02*
X-34251421Y44252900D01*
X-34251421Y44252900D02*
X-34282748Y44145857D01*
X-34282748Y44145857D02*
X-34282748Y44074495D01*
X-34282748Y44074495D02*
X-34251421Y43967452D01*
X-34251421Y43967452D02*
X-34220094Y43931771D01*
X-34282748Y43682005D02*
X-34282748Y43218152D01*
X-34282748Y43218152D02*
X-34032134Y43467919D01*
X-34032134Y43467919D02*
X-34032134Y43360876D01*
X-34032134Y43360876D02*
X-34000808Y43289514D01*
X-34000808Y43289514D02*
X-33969481Y43253833D01*
X-33969481Y43253833D02*
X-33906828Y43218152D01*
X-33906828Y43218152D02*
X-33750194Y43218152D01*
X-33750194Y43218152D02*
X-33687541Y43253833D01*
X-33687541Y43253833D02*
X-33656214Y43289514D01*
X-33656214Y43289514D02*
X-33624888Y43360876D01*
X-33624888Y43360876D02*
X-33624888Y43574962D01*
X-33624888Y43574962D02*
X-33656214Y43646324D01*
X-33656214Y43646324D02*
X-33687541Y43682005D01*
X-33624888Y42504533D02*
X-33624888Y42932705D01*
X-33624888Y42718619D02*
X-34282748Y42718619D01*
X-34282748Y42718619D02*
X-34188768Y42789981D01*
X-34188768Y42789981D02*
X-34126114Y42861343D01*
X-34126114Y42861343D02*
X-34094788Y42932705D01*
D10*
X-44430475Y79725857D02*
X-44430475Y80538657D01*
X-44430475Y80538657D02*
X-44890094Y80538657D01*
X-44890094Y80538657D02*
X-45004999Y80499952D01*
X-45004999Y80499952D02*
X-45062452Y80461247D01*
X-45062452Y80461247D02*
X-45119904Y80383838D01*
X-45119904Y80383838D02*
X-45119904Y80267723D01*
X-45119904Y80267723D02*
X-45062452Y80190314D01*
X-45062452Y80190314D02*
X-45004999Y80151609D01*
X-45004999Y80151609D02*
X-44890094Y80112904D01*
X-44890094Y80112904D02*
X-44430475Y80112904D01*
X-45866785Y80538657D02*
X-46096594Y80538657D01*
X-46096594Y80538657D02*
X-46211499Y80499952D01*
X-46211499Y80499952D02*
X-46326404Y80422542D01*
X-46326404Y80422542D02*
X-46383856Y80267723D01*
X-46383856Y80267723D02*
X-46383856Y79996790D01*
X-46383856Y79996790D02*
X-46326404Y79841971D01*
X-46326404Y79841971D02*
X-46211499Y79764561D01*
X-46211499Y79764561D02*
X-46096594Y79725857D01*
X-46096594Y79725857D02*
X-45866785Y79725857D01*
X-45866785Y79725857D02*
X-45751880Y79764561D01*
X-45751880Y79764561D02*
X-45636975Y79841971D01*
X-45636975Y79841971D02*
X-45579523Y79996790D01*
X-45579523Y79996790D02*
X-45579523Y80267723D01*
X-45579523Y80267723D02*
X-45636975Y80422542D01*
X-45636975Y80422542D02*
X-45751880Y80499952D01*
X-45751880Y80499952D02*
X-45866785Y80538657D01*
X-46728570Y80538657D02*
X-47417999Y80538657D01*
X-47073285Y79725857D02*
X-47073285Y80538657D01*
X-47532903Y79648447D02*
X-48452142Y79648447D01*
X-48681951Y79764561D02*
X-48854308Y79725857D01*
X-48854308Y79725857D02*
X-49141570Y79725857D01*
X-49141570Y79725857D02*
X-49256475Y79764561D01*
X-49256475Y79764561D02*
X-49313927Y79803266D01*
X-49313927Y79803266D02*
X-49371380Y79880676D01*
X-49371380Y79880676D02*
X-49371380Y79958085D01*
X-49371380Y79958085D02*
X-49313927Y80035495D01*
X-49313927Y80035495D02*
X-49256475Y80074200D01*
X-49256475Y80074200D02*
X-49141570Y80112904D01*
X-49141570Y80112904D02*
X-48911761Y80151609D01*
X-48911761Y80151609D02*
X-48796856Y80190314D01*
X-48796856Y80190314D02*
X-48739403Y80229019D01*
X-48739403Y80229019D02*
X-48681951Y80306428D01*
X-48681951Y80306428D02*
X-48681951Y80383838D01*
X-48681951Y80383838D02*
X-48739403Y80461247D01*
X-48739403Y80461247D02*
X-48796856Y80499952D01*
X-48796856Y80499952D02*
X-48911761Y80538657D01*
X-48911761Y80538657D02*
X-49199022Y80538657D01*
X-49199022Y80538657D02*
X-49371380Y80499952D01*
X-49830999Y79958085D02*
X-50405523Y79958085D01*
X-49716094Y79725857D02*
X-50118261Y80538657D01*
X-50118261Y80538657D02*
X-50520428Y79725857D01*
X-50922594Y79725857D02*
X-50922594Y80538657D01*
X-50922594Y80538657D02*
X-51324761Y79958085D01*
X-51324761Y79958085D02*
X-51726928Y80538657D01*
X-51726928Y80538657D02*
X-51726928Y79725857D01*
X-52301451Y79725857D02*
X-52301451Y80538657D01*
X-52301451Y80538657D02*
X-52761070Y80538657D01*
X-52761070Y80538657D02*
X-52875975Y80499952D01*
X-52875975Y80499952D02*
X-52933428Y80461247D01*
X-52933428Y80461247D02*
X-52990880Y80383838D01*
X-52990880Y80383838D02*
X-52990880Y80267723D01*
X-52990880Y80267723D02*
X-52933428Y80190314D01*
X-52933428Y80190314D02*
X-52875975Y80151609D01*
X-52875975Y80151609D02*
X-52761070Y80112904D01*
X-52761070Y80112904D02*
X-52301451Y80112904D01*
X-54139928Y79725857D02*
X-53450499Y79725857D01*
X-53795213Y79725857D02*
X-53795213Y80538657D01*
X-53795213Y80538657D02*
X-53680309Y80422542D01*
X-53680309Y80422542D02*
X-53565404Y80345133D01*
X-53565404Y80345133D02*
X-53450499Y80306428D01*
X-3233856Y52956973D02*
X-3233856Y54163473D01*
X-3233856Y54163473D02*
X-3693475Y54163473D01*
X-3693475Y54163473D02*
X-3808380Y54106021D01*
X-3808380Y54106021D02*
X-3865833Y54048568D01*
X-3865833Y54048568D02*
X-3923285Y53933664D01*
X-3923285Y53933664D02*
X-3923285Y53761306D01*
X-3923285Y53761306D02*
X-3865833Y53646402D01*
X-3865833Y53646402D02*
X-3808380Y53588949D01*
X-3808380Y53588949D02*
X-3693475Y53531497D01*
X-3693475Y53531497D02*
X-3233856Y53531497D01*
X-4670166Y54163473D02*
X-4899975Y54163473D01*
X-4899975Y54163473D02*
X-5014880Y54106021D01*
X-5014880Y54106021D02*
X-5129785Y53991116D01*
X-5129785Y53991116D02*
X-5187237Y53761306D01*
X-5187237Y53761306D02*
X-5187237Y53359140D01*
X-5187237Y53359140D02*
X-5129785Y53129330D01*
X-5129785Y53129330D02*
X-5014880Y53014425D01*
X-5014880Y53014425D02*
X-4899975Y52956973D01*
X-4899975Y52956973D02*
X-4670166Y52956973D01*
X-4670166Y52956973D02*
X-4555261Y53014425D01*
X-4555261Y53014425D02*
X-4440356Y53129330D01*
X-4440356Y53129330D02*
X-4382904Y53359140D01*
X-4382904Y53359140D02*
X-4382904Y53761306D01*
X-4382904Y53761306D02*
X-4440356Y53991116D01*
X-4440356Y53991116D02*
X-4555261Y54106021D01*
X-4555261Y54106021D02*
X-4670166Y54163473D01*
X-5531951Y54163473D02*
X-6221380Y54163473D01*
X-5876666Y52956973D02*
X-5876666Y54163473D01*
X-6336284Y52842068D02*
X-7255523Y52842068D01*
X-7485332Y53014425D02*
X-7657689Y52956973D01*
X-7657689Y52956973D02*
X-7944951Y52956973D01*
X-7944951Y52956973D02*
X-8059856Y53014425D01*
X-8059856Y53014425D02*
X-8117308Y53071878D01*
X-8117308Y53071878D02*
X-8174761Y53186783D01*
X-8174761Y53186783D02*
X-8174761Y53301687D01*
X-8174761Y53301687D02*
X-8117308Y53416592D01*
X-8117308Y53416592D02*
X-8059856Y53474045D01*
X-8059856Y53474045D02*
X-7944951Y53531497D01*
X-7944951Y53531497D02*
X-7715142Y53588949D01*
X-7715142Y53588949D02*
X-7600237Y53646402D01*
X-7600237Y53646402D02*
X-7542784Y53703854D01*
X-7542784Y53703854D02*
X-7485332Y53818759D01*
X-7485332Y53818759D02*
X-7485332Y53933664D01*
X-7485332Y53933664D02*
X-7542784Y54048568D01*
X-7542784Y54048568D02*
X-7600237Y54106021D01*
X-7600237Y54106021D02*
X-7715142Y54163473D01*
X-7715142Y54163473D02*
X-8002403Y54163473D01*
X-8002403Y54163473D02*
X-8174761Y54106021D01*
X-8519475Y54163473D02*
X-9208904Y54163473D01*
X-8864190Y52956973D02*
X-8864190Y54163473D01*
X-9553618Y53301687D02*
X-10128142Y53301687D01*
X-9438713Y52956973D02*
X-9840880Y54163473D01*
X-9840880Y54163473D02*
X-10243047Y52956973D01*
X-11334642Y52956973D02*
X-10932475Y53531497D01*
X-10645213Y52956973D02*
X-10645213Y54163473D01*
X-10645213Y54163473D02*
X-11104832Y54163473D01*
X-11104832Y54163473D02*
X-11219737Y54106021D01*
X-11219737Y54106021D02*
X-11277190Y54048568D01*
X-11277190Y54048568D02*
X-11334642Y53933664D01*
X-11334642Y53933664D02*
X-11334642Y53761306D01*
X-11334642Y53761306D02*
X-11277190Y53646402D01*
X-11277190Y53646402D02*
X-11219737Y53588949D01*
X-11219737Y53588949D02*
X-11104832Y53531497D01*
X-11104832Y53531497D02*
X-10645213Y53531497D01*
X-11679356Y54163473D02*
X-12368785Y54163473D01*
X-12024071Y52956973D02*
X-12024071Y54163473D01*
X-13402928Y52956973D02*
X-12713499Y52956973D01*
X-13058213Y52956973D02*
X-13058213Y54163473D01*
X-13058213Y54163473D02*
X-12943309Y53991116D01*
X-12943309Y53991116D02*
X-12828404Y53876211D01*
X-12828404Y53876211D02*
X-12713499Y53818759D01*
D14*
G04 #@! TO.C,J12*
X-51206000Y23569000D02*
X-51206000Y20569000D01*
X-49706000Y22069000D02*
X-52706000Y22069000D01*
D15*
X-49631200Y22081700D02*
G75*
G02*
X-52780800Y22081700I-1574800J0D01*
G01*
X-52780800Y22081700D02*
G75*
G02*
X-49631200Y22081700I1574800J0D01*
G01*
X-48920000Y22081700D02*
G75*
G02*
X-53492000Y22081700I-2286000J0D01*
G01*
X-53492000Y22081700D02*
G75*
G02*
X-48920000Y22081700I2286000J0D01*
G01*
D16*
X-46706000Y17763200D02*
X-55706000Y17763200D01*
X-55706000Y28271200D01*
X-46706000Y28271200D01*
X-46706000Y17763200D01*
D14*
G04 #@! TO.C,J17*
X-23658000Y7040000D02*
X-20658000Y7040000D01*
X-22158000Y5540000D02*
X-22158000Y8540000D01*
D15*
X-19872000Y7027300D02*
G75*
G02*
X-24444000Y7027300I-2286000J0D01*
G01*
X-24444000Y7027300D02*
G75*
G02*
X-19872000Y7027300I2286000J0D01*
G01*
X-20583200Y7027300D02*
G75*
G02*
X-23732800Y7027300I-1574800J0D01*
G01*
X-23732800Y7027300D02*
G75*
G02*
X-20583200Y7027300I1574800J0D01*
G01*
D16*
X-17658000Y837800D02*
X-26658000Y837800D01*
X-26658000Y11345800D01*
X-17658000Y11345800D01*
X-17658000Y837800D01*
D14*
G04 #@! TO.C,J16*
X-9130000Y7040000D02*
X-6130000Y7040000D01*
X-7630000Y5540000D02*
X-7630000Y8540000D01*
D15*
X-5344000Y7027300D02*
G75*
G02*
X-9916000Y7027300I-2286000J0D01*
G01*
X-9916000Y7027300D02*
G75*
G02*
X-5344000Y7027300I2286000J0D01*
G01*
X-6055200Y7027300D02*
G75*
G02*
X-9204800Y7027300I-1574800J0D01*
G01*
X-9204800Y7027300D02*
G75*
G02*
X-6055200Y7027300I1574800J0D01*
G01*
D16*
X-3130000Y837800D02*
X-12130000Y837800D01*
X-12130000Y11345800D01*
X-3130000Y11345800D01*
X-3130000Y837800D01*
D17*
G04 #@! TO.C,C30*
X-29374785Y43545000D02*
X-29374785Y43235000D01*
X-28594785Y43545000D02*
X-28594785Y43235000D01*
D10*
G04 #@! TO.C,Bank_But1*
X-14320000Y106904000D02*
X-14320000Y106706000D01*
X-14320000Y104674000D02*
X-14320000Y102134000D01*
X-14320000Y99904000D02*
X-14320000Y100104000D01*
X-12320000Y106904000D02*
X-14320000Y106904000D01*
X-12320000Y99904000D02*
X-14320000Y99904000D01*
X-9320000Y106904000D02*
X-7320000Y106904000D01*
X-9320000Y99904000D02*
X-7320000Y99904000D01*
X-7320000Y106904000D02*
X-7320000Y106706000D01*
X-7320000Y104674000D02*
X-7320000Y102134000D01*
X-7320000Y99904000D02*
X-7320000Y100104000D01*
X-8530475Y103404000D02*
G75*
G02*
X-13109525Y103404000I-2289525J0D01*
G01*
X-13109525Y103404000D02*
G75*
G02*
X-8530475Y103404000I2289525J0D01*
G01*
D18*
X-7742019Y107214000D02*
G75*
G02*
X-8309981Y107214000I-283981J0D01*
G01*
X-8309981Y107214000D02*
G75*
G02*
X-7742019Y107214000I283981J0D01*
G01*
D13*
G04 #@! TO.C,SD1*
X-31623000Y89496000D02*
X-31623000Y89946000D01*
X-31623000Y80896000D02*
X-31623000Y87596000D01*
X-31623000Y78546000D02*
X-31623000Y78996000D01*
X-30473000Y89396000D02*
X-30473000Y89946000D01*
X-30473000Y80796000D02*
X-30473000Y87696000D01*
X-30473000Y78546000D02*
X-30473000Y79096000D01*
X-29643000Y78546000D02*
X-29643000Y89946000D01*
X-26623000Y89946000D02*
X-31623000Y89946000D01*
X-26623000Y89946000D02*
X-26623000Y88946000D01*
X-26623000Y80646000D02*
X-26623000Y78546000D01*
X-26623000Y78546000D02*
X-31623000Y78546000D01*
D14*
G04 #@! TO.C,C4*
X-29371285Y64996678D02*
X-28171285Y64996678D01*
X-28171285Y64696678D02*
X-29371285Y64696678D01*
D15*
G04 #@! TO.C,POT_LENGTH1*
X-54760000Y52979106D02*
X-54760000Y58637000D01*
D14*
X-47760000Y61264000D02*
X-47760000Y64264000D01*
X-46260000Y62764000D02*
X-49260000Y62764000D01*
D15*
X-45022000Y64669000D02*
X-50498000Y64669000D01*
X-41213106Y52399000D02*
X-54179894Y52399000D01*
X-40760000Y58637000D02*
X-40760000Y52852106D01*
X-54179894Y52399000D02*
G75*
G02*
X-54760000Y52979106I-6J580100D01*
G01*
D13*
X-50808000Y59716000D02*
G75*
G02*
X-44712000Y59716000I3048000J3048000D01*
G01*
D15*
X-40760000Y52852106D02*
G75*
G02*
X-41213106Y52399000I-453107J1D01*
G01*
X-39632000Y62764000D02*
G75*
G02*
X-55888000Y62764000I-8128000J0D01*
G01*
X-55888000Y62764000D02*
G75*
G02*
X-39632000Y62764000I8128000J0D01*
G01*
X-43760000Y62764000D02*
G75*
G02*
X-51760000Y62764000I-4000000J0D01*
G01*
X-51760000Y62764000D02*
G75*
G02*
X-43760000Y62764000I4000000J0D01*
G01*
X-44360000Y62764000D02*
G75*
G02*
X-51160000Y62764000I-3400000J0D01*
G01*
X-51160000Y62764000D02*
G75*
G02*
X-44360000Y62764000I3400000J0D01*
G01*
D14*
G04 #@! TO.C,J2*
X-22157000Y38565000D02*
X-22157000Y35565000D01*
X-20657000Y37065000D02*
X-23657000Y37065000D01*
D15*
X-20582200Y37077700D02*
G75*
G02*
X-23731800Y37077700I-1574800J0D01*
G01*
X-23731800Y37077700D02*
G75*
G02*
X-20582200Y37077700I1574800J0D01*
G01*
X-19871000Y37077700D02*
G75*
G02*
X-24443000Y37077700I-2286000J0D01*
G01*
X-24443000Y37077700D02*
G75*
G02*
X-19871000Y37077700I2286000J0D01*
G01*
D16*
X-17657000Y32759200D02*
X-26657000Y32759200D01*
X-26657000Y43267200D01*
X-17657000Y43267200D01*
X-17657000Y32759200D01*
D15*
G04 #@! TO.C,POT_PITCH1*
X-17820000Y78972106D02*
X-17820000Y84630000D01*
D19*
X-10820000Y92057000D02*
X-10820000Y90257000D01*
D14*
X-10820000Y87257000D02*
X-10820000Y90257000D01*
X-9320000Y88757000D02*
X-12320000Y88757000D01*
D15*
X-8082000Y90662000D02*
X-13558000Y90662000D01*
X-4273106Y78392000D02*
X-17239894Y78392000D01*
X-3820000Y84630000D02*
X-3820000Y78845106D01*
X-17239894Y78392000D02*
G75*
G02*
X-17820000Y78972106I-6J580100D01*
G01*
X-3820000Y78845106D02*
G75*
G02*
X-4273106Y78392000I-453107J1D01*
G01*
X-2692000Y88757000D02*
G75*
G02*
X-18948000Y88757000I-8128000J0D01*
G01*
X-18948000Y88757000D02*
G75*
G02*
X-2692000Y88757000I8128000J0D01*
G01*
X-6820000Y88757000D02*
G75*
G02*
X-14820000Y88757000I-4000000J0D01*
G01*
X-14820000Y88757000D02*
G75*
G02*
X-6820000Y88757000I4000000J0D01*
G01*
X-7420000Y88757000D02*
G75*
G02*
X-14220000Y88757000I-3400000J0D01*
G01*
X-14220000Y88757000D02*
G75*
G02*
X-7420000Y88757000I3400000J0D01*
G01*
D14*
G04 #@! TO.C,J7*
X-51206000Y35565000D02*
X-51206000Y38565000D01*
X-49706000Y37065000D02*
X-52706000Y37065000D01*
D15*
X-48907300Y37065000D02*
G75*
G02*
X-53479300Y37065000I-2286000J0D01*
G01*
X-53479300Y37065000D02*
G75*
G02*
X-48907300Y37065000I2286000J0D01*
G01*
X-49618500Y37065000D02*
G75*
G02*
X-52768100Y37065000I-1574800J0D01*
G01*
X-52768100Y37065000D02*
G75*
G02*
X-49618500Y37065000I1574800J0D01*
G01*
D16*
X-45003800Y32565000D02*
X-55511800Y32565000D01*
X-55511800Y41565000D01*
X-45003800Y41565000D01*
X-45003800Y32565000D01*
D17*
G04 #@! TO.C,C32*
X-31087357Y43759454D02*
X-31087357Y43449454D01*
X-30307357Y43759454D02*
X-30307357Y43449454D01*
D14*
G04 #@! TO.C,J6*
X-36685000Y35565000D02*
X-36685000Y38565000D01*
X-35185000Y37065000D02*
X-38185000Y37065000D01*
D15*
X-34386300Y37065000D02*
G75*
G02*
X-38958300Y37065000I-2286000J0D01*
G01*
X-38958300Y37065000D02*
G75*
G02*
X-34386300Y37065000I2286000J0D01*
G01*
X-35097500Y37065000D02*
G75*
G02*
X-38247100Y37065000I-1574800J0D01*
G01*
X-38247100Y37065000D02*
G75*
G02*
X-35097500Y37065000I1574800J0D01*
G01*
D16*
X-30482800Y32565000D02*
X-40990800Y32565000D01*
X-40990800Y41565000D01*
X-30482800Y41565000D01*
X-30482800Y32565000D01*
D14*
G04 #@! TO.C,J15*
X-38185000Y7040000D02*
X-35185000Y7040000D01*
X-36685000Y5540000D02*
X-36685000Y8540000D01*
D15*
X-34399000Y7027300D02*
G75*
G02*
X-38971000Y7027300I-2286000J0D01*
G01*
X-38971000Y7027300D02*
G75*
G02*
X-34399000Y7027300I2286000J0D01*
G01*
X-35110200Y7027300D02*
G75*
G02*
X-38259800Y7027300I-1574800J0D01*
G01*
X-38259800Y7027300D02*
G75*
G02*
X-35110200Y7027300I1574800J0D01*
G01*
D16*
X-32185000Y837800D02*
X-41185000Y837800D01*
X-41185000Y11345800D01*
X-32185000Y11345800D01*
X-32185000Y837800D01*
D10*
G04 #@! TO.C,REV_BUT1*
X-51260000Y106904000D02*
X-51260000Y106706000D01*
X-51260000Y104674000D02*
X-51260000Y102134000D01*
X-51260000Y99904000D02*
X-51260000Y100104000D01*
X-49260000Y106904000D02*
X-51260000Y106904000D01*
X-49260000Y99904000D02*
X-51260000Y99904000D01*
X-46260000Y106904000D02*
X-44260000Y106904000D01*
X-46260000Y99904000D02*
X-44260000Y99904000D01*
X-44260000Y106904000D02*
X-44260000Y106706000D01*
X-44260000Y104674000D02*
X-44260000Y102134000D01*
X-44260000Y99904000D02*
X-44260000Y100104000D01*
X-45470475Y103404000D02*
G75*
G02*
X-50049525Y103404000I-2289525J0D01*
G01*
X-50049525Y103404000D02*
G75*
G02*
X-45470475Y103404000I2289525J0D01*
G01*
D18*
X-44682019Y107214000D02*
G75*
G02*
X-45249981Y107214000I-283981J0D01*
G01*
X-45249981Y107214000D02*
G75*
G02*
X-44682019Y107214000I283981J0D01*
G01*
D17*
G04 #@! TO.C,C28*
X-30651493Y46315710D02*
X-30651493Y46005710D01*
X-29871493Y46315710D02*
X-29871493Y46005710D01*
G04 #@! TO.C,C33*
X-31667493Y46770758D02*
X-31667493Y47080758D01*
X-30887493Y46770758D02*
X-30887493Y47080758D01*
D14*
G04 #@! TO.C,J9*
X-36685000Y23569000D02*
X-36685000Y20569000D01*
X-35185000Y22069000D02*
X-38185000Y22069000D01*
D15*
X-35110200Y22081700D02*
G75*
G02*
X-38259800Y22081700I-1574800J0D01*
G01*
X-38259800Y22081700D02*
G75*
G02*
X-35110200Y22081700I1574800J0D01*
G01*
X-34399000Y22081700D02*
G75*
G02*
X-38971000Y22081700I-2286000J0D01*
G01*
X-38971000Y22081700D02*
G75*
G02*
X-34399000Y22081700I2286000J0D01*
G01*
D16*
X-32185000Y17763200D02*
X-41185000Y17763200D01*
X-41185000Y28271200D01*
X-32185000Y28271200D01*
X-32185000Y17763200D01*
D14*
G04 #@! TO.C,J8*
X-9131000Y37065000D02*
X-6131000Y37065000D01*
X-7631000Y38565000D02*
X-7631000Y35565000D01*
D15*
X-6068900Y37065000D02*
G75*
G02*
X-9218500Y37065000I-1574800J0D01*
G01*
X-9218500Y37065000D02*
G75*
G02*
X-6068900Y37065000I1574800J0D01*
G01*
X-5357700Y37065000D02*
G75*
G02*
X-9929700Y37065000I-2286000J0D01*
G01*
X-9929700Y37065000D02*
G75*
G02*
X-5357700Y37065000I2286000J0D01*
G01*
D16*
X-3325200Y32565000D02*
X-13833200Y32565000D01*
X-13833200Y41565000D01*
X-3325200Y41565000D01*
X-3325200Y32565000D01*
D14*
G04 #@! TO.C,J11*
X-52706000Y7040000D02*
X-49706000Y7040000D01*
X-51206000Y5540000D02*
X-51206000Y8540000D01*
D15*
X-48920000Y7027300D02*
G75*
G02*
X-53492000Y7027300I-2286000J0D01*
G01*
X-53492000Y7027300D02*
G75*
G02*
X-48920000Y7027300I2286000J0D01*
G01*
X-49631200Y7027300D02*
G75*
G02*
X-52780800Y7027300I-1574800J0D01*
G01*
X-52780800Y7027300D02*
G75*
G02*
X-49631200Y7027300I1574800J0D01*
G01*
D16*
X-46706000Y837800D02*
X-55706000Y837800D01*
X-55706000Y11345800D01*
X-46706000Y11345800D01*
X-46706000Y837800D01*
D14*
G04 #@! TO.C,J13*
X-9131000Y22069000D02*
X-6131000Y22069000D01*
X-7631000Y23569000D02*
X-7631000Y20569000D01*
D15*
X-6068900Y22069000D02*
G75*
G02*
X-9218500Y22069000I-1574800J0D01*
G01*
X-9218500Y22069000D02*
G75*
G02*
X-6068900Y22069000I1574800J0D01*
G01*
X-5357700Y22069000D02*
G75*
G02*
X-9929700Y22069000I-2286000J0D01*
G01*
X-9929700Y22069000D02*
G75*
G02*
X-5357700Y22069000I2286000J0D01*
G01*
D16*
X-3325200Y17569000D02*
X-13833200Y17569000D01*
X-13833200Y26569000D01*
X-3325200Y26569000D01*
X-3325200Y17569000D01*
D14*
G04 #@! TO.C,J14*
X-22158000Y20569000D02*
X-22158000Y23569000D01*
X-20658000Y22069000D02*
X-23658000Y22069000D01*
D15*
X-19859300Y22069000D02*
G75*
G02*
X-24431300Y22069000I-2286000J0D01*
G01*
X-24431300Y22069000D02*
G75*
G02*
X-19859300Y22069000I2286000J0D01*
G01*
X-20570500Y22069000D02*
G75*
G02*
X-23720100Y22069000I-1574800J0D01*
G01*
X-23720100Y22069000D02*
G75*
G02*
X-20570500Y22069000I1574800J0D01*
G01*
D16*
X-15955800Y17569000D02*
X-26463800Y17569000D01*
X-26463800Y26569000D01*
X-15955800Y26569000D01*
X-15955800Y17569000D01*
D10*
G04 #@! TO.C,PLAY_BUT1*
X-33031000Y104872000D02*
X-33031000Y104674000D01*
X-33031000Y97872000D02*
X-33031000Y98072000D01*
X-31031000Y104872000D02*
X-33031000Y104872000D01*
X-31031000Y97872000D02*
X-33031000Y97872000D01*
X-28031000Y104872000D02*
X-26031000Y104872000D01*
X-28031000Y97872000D02*
X-26031000Y97872000D01*
X-26031000Y104872000D02*
X-26031000Y104674000D01*
X-26031000Y97872000D02*
X-26031000Y98072000D01*
X-32769499Y99975001D02*
G75*
G02*
X-32792307Y102714892I3238499J1396999D01*
G01*
X-31753499Y104102499D02*
G75*
G02*
X-31181194Y104481982I2222499J-2730499D01*
G01*
X-31181999Y98260501D02*
G75*
G02*
X-31747281Y98634241I1650949J3111429D01*
G01*
X-29911999Y104864499D02*
G75*
G02*
X-29212927Y104870791I380999J-3492499D01*
G01*
X-29150001Y97879501D02*
G75*
G02*
X-29849073Y97873209I-380998J3492481D01*
G01*
X-27880001Y104483499D02*
G75*
G02*
X-27314719Y104109759I-1650950J-3111428D01*
G01*
X-27308501Y98641501D02*
G75*
G02*
X-27880806Y98262018I-2222472J2730455D01*
G01*
X-26292501Y102768999D02*
G75*
G02*
X-26269693Y100029108I-3238497J-1396999D01*
G01*
D18*
X-26453019Y105182000D02*
G75*
G02*
X-27020981Y105182000I-283981J0D01*
G01*
X-27020981Y105182000D02*
G75*
G02*
X-26453019Y105182000I283981J0D01*
G01*
D17*
G04 #@! TO.C,C27*
X-30176658Y49082848D02*
X-29957455Y49302051D01*
X-29625115Y48531305D02*
X-29405912Y48750508D01*
G04 #@! TO.C,C31*
X-32046461Y43506350D02*
X-32046461Y43816350D01*
X-31266461Y43506350D02*
X-31266461Y43816350D01*
D15*
G04 #@! TO.C,POT_SAMP1*
X-54760000Y79141106D02*
X-54760000Y84799000D01*
D14*
X-47760000Y87426000D02*
X-47760000Y90426000D01*
X-46260000Y88926000D02*
X-49260000Y88926000D01*
D15*
X-45022000Y90831000D02*
X-50498000Y90831000D01*
X-41213106Y78561000D02*
X-54179894Y78561000D01*
X-40760000Y84799000D02*
X-40760000Y79014106D01*
X-54179894Y78561000D02*
G75*
G02*
X-54760000Y79141106I-6J580100D01*
G01*
D13*
X-50808000Y85878000D02*
G75*
G02*
X-44712000Y85878000I3048000J3048000D01*
G01*
D15*
X-40760000Y79014106D02*
G75*
G02*
X-41213106Y78561000I-453107J1D01*
G01*
X-39632000Y88926000D02*
G75*
G02*
X-55888000Y88926000I-8128000J0D01*
G01*
X-55888000Y88926000D02*
G75*
G02*
X-39632000Y88926000I8128000J0D01*
G01*
X-43760000Y88926000D02*
G75*
G02*
X-51760000Y88926000I-4000000J0D01*
G01*
X-51760000Y88926000D02*
G75*
G02*
X-43760000Y88926000I4000000J0D01*
G01*
X-44360000Y88926000D02*
G75*
G02*
X-51160000Y88926000I-3400000J0D01*
G01*
X-51160000Y88926000D02*
G75*
G02*
X-44360000Y88926000I3400000J0D01*
G01*
G04 #@! TO.C,POT_START1*
X-17820000Y58637000D02*
X-17820000Y52979106D01*
X-17239894Y52399000D02*
X-4273106Y52399000D01*
X-13558000Y64669000D02*
X-8082000Y64669000D01*
D14*
X-12320000Y62764000D02*
X-9320000Y62764000D01*
X-10820000Y64264000D02*
X-10820000Y61264000D01*
D15*
X-3820000Y52852106D02*
X-3820000Y58637000D01*
X-17239894Y52399000D02*
G75*
G02*
X-17820000Y52979106I-6J580100D01*
G01*
D13*
X-13868000Y59716000D02*
G75*
G02*
X-7772000Y59716000I3048000J3048000D01*
G01*
D15*
X-3820000Y52852106D02*
G75*
G02*
X-4273106Y52399000I-453107J1D01*
G01*
X-2692000Y62764000D02*
G75*
G02*
X-18948000Y62764000I-8128000J0D01*
G01*
X-18948000Y62764000D02*
G75*
G02*
X-2692000Y62764000I8128000J0D01*
G01*
X-6820000Y62764000D02*
G75*
G02*
X-14820000Y62764000I-4000000J0D01*
G01*
X-14820000Y62764000D02*
G75*
G02*
X-6820000Y62764000I4000000J0D01*
G01*
X-7420000Y62764000D02*
G75*
G02*
X-14220000Y62764000I-3400000J0D01*
G01*
X-14220000Y62764000D02*
G75*
G02*
X-7420000Y62764000I3400000J0D01*
G01*
G04 #@! TD*
%LPC*%
D20*
G04 #@! TO.C,J4*
X-32104785Y91900000D03*
X-32104785Y94440000D03*
D21*
X-29564785Y91900000D03*
X-29564785Y94440000D03*
X-27024785Y91900000D03*
X-27024785Y94440000D03*
D20*
X-24484785Y91900000D03*
X-24484785Y94440000D03*
G04 #@! TD*
D22*
G04 #@! TO.C,J3*
X-2524785Y80900000D03*
D21*
X-2524785Y78360000D03*
X-2524785Y75820000D03*
X-2524785Y73280000D03*
G04 #@! TD*
G04 #@! TO.C,J10*
X-42274785Y13930000D03*
X-44814785Y13930000D03*
X-42274785Y16470000D03*
X-44814785Y16470000D03*
X-42274785Y19010000D03*
X-44814785Y19010000D03*
X-42274785Y21550000D03*
X-44814785Y21550000D03*
X-42274785Y24090000D03*
X-44814785Y24090000D03*
G04 #@! TD*
D23*
G04 #@! TO.C,J12*
X-51206000Y27276000D03*
X-51206000Y16303200D03*
X-51206000Y18716200D03*
G04 #@! TD*
G04 #@! TO.C,J17*
X-22158000Y1833000D03*
X-22158000Y12805800D03*
X-22158000Y10392800D03*
G04 #@! TD*
G04 #@! TO.C,J16*
X-7630000Y1833000D03*
X-7630000Y12805800D03*
X-7630000Y10392800D03*
G04 #@! TD*
D24*
G04 #@! TO.C,C30*
X-28984785Y43875000D03*
X-28984785Y42905000D03*
G04 #@! TD*
D25*
G04 #@! TO.C,Bank_But1*
X-7570000Y105654000D03*
X-14070000Y105654000D03*
X-7570000Y101154000D03*
X-14070000Y101154000D03*
D26*
X-9920000Y106304000D03*
X-11720000Y106304000D03*
X-11720000Y100504000D03*
X-9920000Y100504000D03*
G04 #@! TD*
D27*
G04 #@! TO.C,SD1*
X-27953000Y80396249D03*
X-26853180Y81496069D03*
X-27953000Y82596143D03*
X-26853180Y83695963D03*
X-27953000Y84796037D03*
X-26853180Y85895857D03*
X-27953000Y86995931D03*
X-26853180Y88095751D03*
D28*
X-31122920Y79953400D03*
X-31122920Y88538600D03*
G04 #@! TD*
D29*
G04 #@! TO.C,C4*
X-28771285Y63996678D03*
X-28771285Y65696678D03*
G04 #@! TD*
D30*
G04 #@! TO.C,POT_LENGTH1*
X-42760000Y49810000D03*
X-47760000Y49810000D03*
X-52760000Y49810000D03*
G04 #@! TD*
D23*
G04 #@! TO.C,J2*
X-22157000Y42272000D03*
X-22157000Y31299200D03*
X-22157000Y33712200D03*
G04 #@! TD*
D30*
G04 #@! TO.C,POT_PITCH1*
X-5820000Y75803000D03*
X-10820000Y75803000D03*
X-15820000Y75803000D03*
G04 #@! TD*
D23*
G04 #@! TO.C,J7*
X-45999000Y37065000D03*
X-56971800Y37065000D03*
X-54558800Y37065000D03*
G04 #@! TD*
D24*
G04 #@! TO.C,C32*
X-30697357Y44089454D03*
X-30697357Y43119454D03*
G04 #@! TD*
D23*
G04 #@! TO.C,J6*
X-31478000Y37065000D03*
X-42450800Y37065000D03*
X-40037800Y37065000D03*
G04 #@! TD*
G04 #@! TO.C,J15*
X-36685000Y1833000D03*
X-36685000Y12805800D03*
X-36685000Y10392800D03*
G04 #@! TD*
D25*
G04 #@! TO.C,REV_BUT1*
X-44510000Y105654000D03*
X-51010000Y105654000D03*
X-44510000Y101154000D03*
X-51010000Y101154000D03*
D26*
X-46860000Y106304000D03*
X-48660000Y106304000D03*
X-48660000Y100504000D03*
X-46860000Y100504000D03*
G04 #@! TD*
D24*
G04 #@! TO.C,C28*
X-30261493Y46645710D03*
X-30261493Y45675710D03*
G04 #@! TD*
D31*
G04 #@! TO.C,C33*
X-31277493Y46440758D03*
X-31277493Y47410758D03*
G04 #@! TD*
D23*
G04 #@! TO.C,J9*
X-36685000Y27276000D03*
X-36685000Y16303200D03*
X-36685000Y18716200D03*
G04 #@! TD*
G04 #@! TO.C,J8*
X-12838000Y37065000D03*
X-1865200Y37065000D03*
X-4278200Y37065000D03*
G04 #@! TD*
G04 #@! TO.C,J11*
X-51206000Y1833000D03*
X-51206000Y12805800D03*
X-51206000Y10392800D03*
G04 #@! TD*
G04 #@! TO.C,J13*
X-12838000Y22069000D03*
X-1865200Y22069000D03*
X-4278200Y22069000D03*
G04 #@! TD*
G04 #@! TO.C,J14*
X-16951000Y22069000D03*
X-27923800Y22069000D03*
X-25510800Y22069000D03*
G04 #@! TD*
D25*
G04 #@! TO.C,PLAY_BUT1*
X-26535000Y103622000D03*
X-32527000Y103622000D03*
X-26535000Y99122000D03*
X-32527000Y99122000D03*
D26*
X-28631000Y104272000D03*
X-30431000Y104272000D03*
X-30431000Y98472000D03*
X-28631000Y98472000D03*
G04 #@! TD*
D32*
G04 #@! TO.C,C27*
X-30134232Y48573731D03*
X-29448338Y49259625D03*
G04 #@! TD*
D31*
G04 #@! TO.C,C31*
X-31656461Y43176350D03*
X-31656461Y44146350D03*
G04 #@! TD*
D30*
G04 #@! TO.C,POT_SAMP1*
X-42760000Y75972000D03*
X-47760000Y75972000D03*
X-52760000Y75972000D03*
G04 #@! TD*
G04 #@! TO.C,POT_START1*
X-5820000Y49810000D03*
X-10820000Y49810000D03*
X-15820000Y49810000D03*
G04 #@! TD*
%LPD*%
M02*
