G04 #@! TF.GenerationSoftware,KiCad,Pcbnew,7.0.1-0*
G04 #@! TF.CreationDate,2023-04-05T16:45:21-07:00*
G04 #@! TF.ProjectId,Kit-Trig-Sampler,4b69742d-5472-4696-972d-53616d706c65,rev?*
G04 #@! TF.SameCoordinates,PXb745f8PY7402318*
G04 #@! TF.FileFunction,Copper,L2,Bot*
G04 #@! TF.FilePolarity,Positive*
%FSLAX46Y46*%
G04 Gerber Fmt 4.6, Leading zero omitted, Abs format (unit mm)*
G04 Created by KiCad (PCBNEW 7.0.1-0) date 2023-04-05 16:45:21*
%MOMM*%
%LPD*%
G01*
G04 APERTURE LIST*
G04 #@! TA.AperFunction,ComponentPad*
%ADD10C,1.397000*%
G04 #@! TD*
G04 #@! TA.AperFunction,ComponentPad*
%ADD11C,1.600000*%
G04 #@! TD*
G04 #@! TA.AperFunction,ComponentPad*
%ADD12R,1.600000X1.600000*%
G04 #@! TD*
G04 #@! TA.AperFunction,ComponentPad*
%ADD13O,1.600000X1.600000*%
G04 #@! TD*
G04 #@! TA.AperFunction,ComponentPad*
%ADD14R,1.700000X1.700000*%
G04 #@! TD*
G04 #@! TA.AperFunction,ComponentPad*
%ADD15O,1.700000X1.700000*%
G04 #@! TD*
G04 #@! TA.AperFunction,ComponentPad*
%ADD16R,1.500000X1.500000*%
G04 #@! TD*
G04 #@! TA.AperFunction,ComponentPad*
%ADD17C,1.500000*%
G04 #@! TD*
G04 #@! TA.AperFunction,ComponentPad*
%ADD18C,1.930400*%
G04 #@! TD*
G04 #@! TA.AperFunction,ComponentPad*
%ADD19C,1.300000*%
G04 #@! TD*
G04 #@! TA.AperFunction,ComponentPad*
%ADD20O,1.397000X1.092200*%
G04 #@! TD*
G04 #@! TA.AperFunction,ComponentPad*
%ADD21O,1.524000X1.524000*%
G04 #@! TD*
G04 #@! TA.AperFunction,ComponentPad*
%ADD22C,2.286000*%
G04 #@! TD*
G04 #@! TA.AperFunction,ViaPad*
%ADD23C,0.800000*%
G04 #@! TD*
G04 #@! TA.AperFunction,Conductor*
%ADD24C,0.250000*%
G04 #@! TD*
G04 APERTURE END LIST*
D10*
G04 #@! TO.P,R17,1*
G04 #@! TO.N,Net-(J5-SIG)*
X35949000Y19623800D03*
G04 #@! TO.P,R17,2*
G04 #@! TO.N,/D2*
X43569000Y19623800D03*
G04 #@! TD*
D11*
G04 #@! TO.P,C7,1*
G04 #@! TO.N,+12V*
X60017200Y11643800D03*
G04 #@! TO.P,C7,2*
G04 #@! TO.N,GND*
X62608000Y11643800D03*
G04 #@! TD*
G04 #@! TO.P,C17,1*
G04 #@! TO.N,/D12*
X35017200Y93743800D03*
G04 #@! TO.P,C17,2*
G04 #@! TO.N,GND*
X37608000Y93743800D03*
G04 #@! TD*
D10*
G04 #@! TO.P,R26,1*
G04 #@! TO.N,Net-(PLAY_BUT1-POLE-A)*
X40299000Y90043800D03*
G04 #@! TO.P,R26,2*
G04 #@! TO.N,/D12*
X32679000Y90043800D03*
G04 #@! TD*
G04 #@! TO.P,R2,1*
G04 #@! TO.N,Net-(J1-SIG)*
X39089000Y44153800D03*
G04 #@! TO.P,R2,2*
G04 #@! TO.N,/A0*
X39089000Y36533800D03*
G04 #@! TD*
G04 #@! TO.P,R37,1*
G04 #@! TO.N,Net-(R37-Pad1)*
X75759000Y52983800D03*
G04 #@! TO.P,R37,2*
G04 #@! TO.N,Net-(U1B-+)*
X75759000Y60603800D03*
G04 #@! TD*
D12*
G04 #@! TO.P,D2,1,K*
G04 #@! TO.N,Net-(D2-K)*
X52999000Y16043800D03*
D13*
G04 #@! TO.P,D2,2,A*
G04 #@! TO.N,-12VA*
X45379000Y16043800D03*
G04 #@! TD*
D10*
G04 #@! TO.P,R33,1*
G04 #@! TO.N,Net-(J13-SIG)*
X43979000Y27093800D03*
G04 #@! TO.P,R33,2*
G04 #@! TO.N,/A4*
X36359000Y27093800D03*
G04 #@! TD*
D14*
G04 #@! TO.P,JC1,1,+12V*
G04 #@! TO.N,/A0*
X34340978Y30080000D03*
D15*
G04 #@! TO.P,JC1,2,+12V*
G04 #@! TO.N,/A1*
X34340978Y32620000D03*
G04 #@! TO.P,JC1,3,GND*
G04 #@! TO.N,/A2*
X31800978Y30080000D03*
G04 #@! TO.P,JC1,4,GND*
G04 #@! TO.N,/A3*
X31800978Y32620000D03*
G04 #@! TO.P,JC1,5,GND*
G04 #@! TO.N,/A4*
X29260978Y30080000D03*
G04 #@! TO.P,JC1,6,GND*
G04 #@! TO.N,/A5*
X29260978Y32620000D03*
G04 #@! TO.P,JC1,7,GND*
G04 #@! TO.N,/A6*
X26720978Y30080000D03*
G04 #@! TO.P,JC1,8,GND*
G04 #@! TO.N,/A7*
X26720978Y32620000D03*
G04 #@! TO.P,JC1,9,-12V*
G04 #@! TO.N,/A8*
X24180978Y30080000D03*
G04 #@! TO.P,JC1,10,-12V*
G04 #@! TO.N,/A9*
X24180978Y32620000D03*
G04 #@! TD*
D10*
G04 #@! TO.P,R16,1*
G04 #@! TO.N,Net-(R16-Pad1)*
X31489000Y95333800D03*
G04 #@! TO.P,R16,2*
G04 #@! TO.N,Net-(Bank_But1-B)*
X31489000Y102953800D03*
G04 #@! TD*
D11*
G04 #@! TO.P,C1,1*
G04 #@! TO.N,/A1*
X58389000Y70472000D03*
G04 #@! TO.P,C1,2*
G04 #@! TO.N,GNDADC*
X58389000Y73062800D03*
G04 #@! TD*
D12*
G04 #@! TO.P,C4,1*
G04 #@! TO.N,+12V*
X60189000Y17243800D03*
D11*
G04 #@! TO.P,C4,2*
G04 #@! TO.N,GND*
X62689000Y17243800D03*
G04 #@! TD*
D10*
G04 #@! TO.P,R5,1*
G04 #@! TO.N,GND*
X41989000Y53253800D03*
G04 #@! TO.P,R5,2*
G04 #@! TO.N,/A0*
X41989000Y45633800D03*
G04 #@! TD*
G04 #@! TO.P,R14,1*
G04 #@! TO.N,Net-(U2A--)*
X3089000Y45963800D03*
G04 #@! TO.P,R14,2*
G04 #@! TO.N,Net-(C11-Pad2)*
X3089000Y38343800D03*
G04 #@! TD*
G04 #@! TO.P,R25,1*
G04 #@! TO.N,Net-(Bank_But1-POLE-A)*
X71805800Y97104200D03*
G04 #@! TO.P,R25,2*
G04 #@! TO.N,/D6*
X71805800Y89484200D03*
G04 #@! TD*
D11*
G04 #@! TO.P,C15,1*
G04 #@! TO.N,-12VA*
X8078200Y52133800D03*
G04 #@! TO.P,C15,2*
G04 #@! TO.N,GND*
X10669000Y52133800D03*
G04 #@! TD*
D12*
G04 #@! TO.P,C19,1*
G04 #@! TO.N,+12V*
X57264000Y100818800D03*
D11*
G04 #@! TO.P,C19,2*
G04 #@! TO.N,GND*
X59764000Y100818800D03*
G04 #@! TD*
D12*
G04 #@! TO.P,C20,1*
G04 #@! TO.N,+3V3*
X47189000Y98218800D03*
D11*
G04 #@! TO.P,C20,2*
G04 #@! TO.N,GND*
X49689000Y98218800D03*
G04 #@! TD*
D12*
G04 #@! TO.P,D1,1,K*
G04 #@! TO.N,+12V*
X26479000Y15343800D03*
D13*
G04 #@! TO.P,D1,2,A*
G04 #@! TO.N,Net-(D1-A)*
X34099000Y15343800D03*
G04 #@! TD*
D11*
G04 #@! TO.P,C13,1*
G04 #@! TO.N,-12VA*
X72289000Y46115600D03*
G04 #@! TO.P,C13,2*
G04 #@! TO.N,GND*
X72289000Y43524800D03*
G04 #@! TD*
D10*
G04 #@! TO.P,R23,1*
G04 #@! TO.N,Net-(PLAY_BUT1-G)*
X54189000Y78253800D03*
G04 #@! TO.P,R23,2*
G04 #@! TO.N,/D14*
X54189000Y70633800D03*
G04 #@! TD*
D11*
G04 #@! TO.P,C9,1*
G04 #@! TO.N,/A7*
X23160800Y42743800D03*
G04 #@! TO.P,C9,2*
G04 #@! TO.N,GNDADC*
X20570000Y42743800D03*
G04 #@! TD*
D12*
G04 #@! TO.P,U1,1*
G04 #@! TO.N,Net-(U1A--)*
X60789000Y49633800D03*
D13*
G04 #@! TO.P,U1,2,-*
X63329000Y49633800D03*
G04 #@! TO.P,U1,3,+*
G04 #@! TO.N,Net-(U1A-+)*
X65869000Y49633800D03*
G04 #@! TO.P,U1,4,V-*
G04 #@! TO.N,-12VA*
X68409000Y49633800D03*
G04 #@! TO.P,U1,5,+*
G04 #@! TO.N,Net-(U1B-+)*
X68409000Y57253800D03*
G04 #@! TO.P,U1,6,-*
G04 #@! TO.N,Net-(U1B--)*
X65869000Y57253800D03*
G04 #@! TO.P,U1,7*
G04 #@! TO.N,/A2*
X63329000Y57253800D03*
G04 #@! TO.P,U1,8,V+*
G04 #@! TO.N,+12V*
X60789000Y57253800D03*
G04 #@! TD*
D10*
G04 #@! TO.P,R30,1*
G04 #@! TO.N,+3V3*
X51562000Y72415400D03*
G04 #@! TO.P,R30,2*
G04 #@! TO.N,/D4*
X43942000Y72415400D03*
G04 #@! TD*
G04 #@! TO.P,R21,1*
G04 #@! TO.N,Net-(R21-Pad1)*
X10219000Y95703800D03*
G04 #@! TO.P,R21,2*
G04 #@! TO.N,Net-(REV_BUT1-R)*
X17839000Y95703800D03*
G04 #@! TD*
G04 #@! TO.P,R20,1*
G04 #@! TO.N,Net-(J6-SIG)*
X4829000Y29753800D03*
G04 #@! TO.P,R20,2*
G04 #@! TO.N,/D13*
X12449000Y29753800D03*
G04 #@! TD*
D15*
G04 #@! TO.P,J14,1,+12V*
G04 #@! TO.N,Net-(D1-A)*
X37819000Y13823800D03*
G04 #@! TO.P,J14,2,+12V*
X40359000Y13823800D03*
G04 #@! TO.P,J14,3,GND*
G04 #@! TO.N,GND*
X37819000Y11283800D03*
G04 #@! TO.P,J14,4,GND*
X40359000Y11283800D03*
G04 #@! TO.P,J14,5,GND*
X37819000Y8743800D03*
G04 #@! TO.P,J14,6,GND*
X40359000Y8743800D03*
G04 #@! TO.P,J14,7,GND*
X37819000Y6203800D03*
G04 #@! TO.P,J14,8,GND*
X40359000Y6203800D03*
G04 #@! TO.P,J14,9,-12V*
G04 #@! TO.N,Net-(D2-K)*
X37819000Y3663800D03*
G04 #@! TO.P,J14,10,-12V*
X40359000Y3663800D03*
G04 #@! TD*
D10*
G04 #@! TO.P,R4,1*
G04 #@! TO.N,Net-(J3-SIG)*
X20289000Y39153800D03*
G04 #@! TO.P,R4,2*
G04 #@! TO.N,/A8*
X20289000Y31533800D03*
G04 #@! TD*
G04 #@! TO.P,R28,1*
G04 #@! TO.N,+3V3*
X21589000Y81333800D03*
G04 #@! TO.P,R28,2*
G04 #@! TO.N,/D18*
X21589000Y88953800D03*
G04 #@! TD*
G04 #@! TO.P,R40,1*
G04 #@! TO.N,/D5*
X27079000Y95173800D03*
G04 #@! TO.P,R40,2*
G04 #@! TO.N,Net-(R16-Pad1)*
X27079000Y102793800D03*
G04 #@! TD*
G04 #@! TO.P,R1,1*
G04 #@! TO.N,Net-(J4-SIG)*
X75639000Y33043800D03*
G04 #@! TO.P,R1,2*
G04 #@! TO.N,Net-(U1A-+)*
X75639000Y40663800D03*
G04 #@! TD*
G04 #@! TO.P,R41,1*
G04 #@! TO.N,/D7*
X18149000Y91653800D03*
G04 #@! TO.P,R41,2*
G04 #@! TO.N,Net-(R21-Pad1)*
X10529000Y91653800D03*
G04 #@! TD*
G04 #@! TO.P,R12,1*
G04 #@! TO.N,/D15*
X47099000Y32343800D03*
G04 #@! TO.P,R12,2*
G04 #@! TO.N,Net-(U2A-+)*
X39479000Y32343800D03*
G04 #@! TD*
D11*
G04 #@! TO.P,C8,1*
G04 #@! TO.N,-12VA*
X19709800Y10943800D03*
G04 #@! TO.P,C8,2*
G04 #@! TO.N,GND*
X17119000Y10943800D03*
G04 #@! TD*
D10*
G04 #@! TO.P,R27,1*
G04 #@! TO.N,+3V3*
X7061200Y96875600D03*
G04 #@! TO.P,R27,2*
G04 #@! TO.N,/A6*
X7061200Y89255600D03*
G04 #@! TD*
D11*
G04 #@! TO.P,C6,1*
G04 #@! TO.N,/A2*
X67774400Y63743800D03*
G04 #@! TO.P,C6,2*
G04 #@! TO.N,Net-(U1B--)*
X72854400Y63743800D03*
G04 #@! TD*
D10*
G04 #@! TO.P,R6,1*
G04 #@! TO.N,GND*
X38589000Y56553800D03*
G04 #@! TO.P,R6,2*
G04 #@! TO.N,/A5*
X38589000Y48933800D03*
G04 #@! TD*
G04 #@! TO.P,R9,1*
G04 #@! TO.N,GND*
X75759000Y42963800D03*
G04 #@! TO.P,R9,2*
G04 #@! TO.N,Net-(R37-Pad1)*
X75759000Y50583800D03*
G04 #@! TD*
G04 #@! TO.P,R32,1*
G04 #@! TO.N,+3V3*
X24879000Y75143800D03*
G04 #@! TO.P,R32,2*
G04 #@! TO.N,/D17*
X32499000Y75143800D03*
G04 #@! TD*
D11*
G04 #@! TO.P,C2,1*
G04 #@! TO.N,/A9*
X20017200Y71343800D03*
G04 #@! TO.P,C2,2*
G04 #@! TO.N,GNDADC*
X22608000Y71343800D03*
G04 #@! TD*
D10*
G04 #@! TO.P,R13,1*
G04 #@! TO.N,GND*
X10329000Y46143800D03*
G04 #@! TO.P,R13,2*
G04 #@! TO.N,Net-(U2A--)*
X17949000Y46143800D03*
G04 #@! TD*
G04 #@! TO.P,R19,1*
G04 #@! TO.N,/D8*
X45089000Y76663800D03*
G04 #@! TO.P,R19,2*
G04 #@! TO.N,Net-(PLAY_BUT1-R)*
X45089000Y84283800D03*
G04 #@! TD*
D12*
G04 #@! TO.P,C5,1*
G04 #@! TO.N,GND*
X17139000Y16443800D03*
D11*
G04 #@! TO.P,C5,2*
G04 #@! TO.N,-12VA*
X19639000Y16443800D03*
G04 #@! TD*
G04 #@! TO.P,C14,1*
G04 #@! TO.N,+12V*
X2489000Y60915600D03*
G04 #@! TO.P,C14,2*
G04 #@! TO.N,GND*
X2489000Y58324800D03*
G04 #@! TD*
D10*
G04 #@! TO.P,R34,1*
G04 #@! TO.N,GND*
X17189000Y21533800D03*
G04 #@! TO.P,R34,2*
G04 #@! TO.N,/A4*
X17189000Y29153800D03*
G04 #@! TD*
D14*
G04 #@! TO.P,JA1,1,+12V*
G04 #@! TO.N,-12VA*
X57531000Y91429992D03*
D15*
G04 #@! TO.P,JA1,2,+12V*
G04 #@! TO.N,VREF+*
X54991000Y91429992D03*
G04 #@! TO.P,JA1,3,GND*
G04 #@! TO.N,/D11*
X57531000Y88889992D03*
G04 #@! TO.P,JA1,4,GND*
G04 #@! TO.N,/D10*
X54991000Y88889992D03*
G04 #@! TO.P,JA1,5,GND*
G04 #@! TO.N,/D14*
X57531000Y86349992D03*
G04 #@! TO.P,JA1,6,GND*
G04 #@! TO.N,/D12*
X54991000Y86349992D03*
G04 #@! TO.P,JA1,7,GND*
G04 #@! TO.N,GND*
X57531000Y83809992D03*
G04 #@! TO.P,JA1,8,GND*
G04 #@! TO.N,GNDADC*
X54991000Y83809992D03*
G04 #@! TO.P,JA1,9,-12V*
G04 #@! TO.N,+12V*
X57531000Y81269992D03*
G04 #@! TO.P,JA1,10,-12V*
G04 #@! TO.N,/Unused(5V)*
X54991000Y81269992D03*
G04 #@! TD*
D10*
G04 #@! TO.P,R31,1*
G04 #@! TO.N,+3V3*
X49649000Y75813800D03*
G04 #@! TO.P,R31,2*
G04 #@! TO.N,/D16*
X49649000Y83433800D03*
G04 #@! TD*
D12*
G04 #@! TO.P,U2,1*
G04 #@! TO.N,Net-(C11-Pad2)*
X5989000Y55333800D03*
D13*
G04 #@! TO.P,U2,2,-*
G04 #@! TO.N,Net-(U2A--)*
X8529000Y55333800D03*
G04 #@! TO.P,U2,3,+*
G04 #@! TO.N,Net-(U2A-+)*
X11069000Y55333800D03*
G04 #@! TO.P,U2,4,V-*
G04 #@! TO.N,-12VA*
X13609000Y55333800D03*
G04 #@! TO.P,U2,5,+*
G04 #@! TO.N,GND*
X13609000Y62953800D03*
G04 #@! TO.P,U2,6,-*
G04 #@! TO.N,Net-(U2B--)*
X11069000Y62953800D03*
G04 #@! TO.P,U2,7*
X8529000Y62953800D03*
G04 #@! TO.P,U2,8,V+*
G04 #@! TO.N,+12V*
X5989000Y62953800D03*
G04 #@! TD*
D10*
G04 #@! TO.P,R7,1*
G04 #@! TO.N,GND*
X8919000Y32673800D03*
G04 #@! TO.P,R7,2*
G04 #@! TO.N,/A8*
X16539000Y32673800D03*
G04 #@! TD*
D16*
G04 #@! TO.P,U3,1,VO*
G04 #@! TO.N,+3V3*
X46724000Y104026300D03*
D17*
G04 #@! TO.P,U3,2,GND*
G04 #@! TO.N,GND*
X49264000Y104026300D03*
G04 #@! TO.P,U3,3,VI*
G04 #@! TO.N,+12V*
X51804000Y104026300D03*
G04 #@! TD*
D11*
G04 #@! TO.P,C12,1*
G04 #@! TO.N,+12V*
X60889000Y60872000D03*
G04 #@! TO.P,C12,2*
G04 #@! TO.N,GND*
X60889000Y63462800D03*
G04 #@! TD*
G04 #@! TO.P,C16,1*
G04 #@! TO.N,/D6*
X23089000Y95543800D03*
G04 #@! TO.P,C16,2*
G04 #@! TO.N,GND*
X23089000Y98134600D03*
G04 #@! TD*
D10*
G04 #@! TO.P,R11,1*
G04 #@! TO.N,Net-(U1B-+)*
X71789000Y56853800D03*
G04 #@! TO.P,R11,2*
G04 #@! TO.N,VREF+*
X71789000Y49233800D03*
G04 #@! TD*
G04 #@! TO.P,R10,1*
G04 #@! TO.N,/A2*
X65879000Y60543800D03*
G04 #@! TO.P,R10,2*
G04 #@! TO.N,Net-(U1B--)*
X73499000Y60543800D03*
G04 #@! TD*
G04 #@! TO.P,R15,1*
G04 #@! TO.N,Net-(C11-Pad2)*
X2239000Y36093800D03*
G04 #@! TO.P,R15,2*
G04 #@! TO.N,Net-(J7-SIG)*
X2239000Y28473800D03*
G04 #@! TD*
D11*
G04 #@! TO.P,C11,1*
G04 #@! TO.N,Net-(U2A--)*
X6883600Y48763800D03*
G04 #@! TO.P,C11,2*
G04 #@! TO.N,Net-(C11-Pad2)*
X1803600Y48763800D03*
G04 #@! TD*
D10*
G04 #@! TO.P,R18,1*
G04 #@! TO.N,/D11*
X51189000Y87553800D03*
G04 #@! TO.P,R18,2*
G04 #@! TO.N,Net-(PLAY_BUT1-B)*
X43569000Y87553800D03*
G04 #@! TD*
D14*
G04 #@! TO.P,JB1,1,+12V*
G04 #@! TO.N,/AUDIO_OUT2*
X60341002Y30080000D03*
D15*
G04 #@! TO.P,JB1,2,+12V*
G04 #@! TO.N,/D0*
X60341002Y32620000D03*
G04 #@! TO.P,JB1,3,GND*
G04 #@! TO.N,/AUDIO_OUT1*
X57801002Y30080000D03*
G04 #@! TO.P,JB1,4,GND*
G04 #@! TO.N,/D1*
X57801002Y32620000D03*
G04 #@! TO.P,JB1,5,GND*
G04 #@! TO.N,/AUDIO_IN2*
X55261002Y30080000D03*
G04 #@! TO.P,JB1,6,GND*
G04 #@! TO.N,/D15*
X55261002Y32620000D03*
G04 #@! TO.P,JB1,7,GND*
G04 #@! TO.N,/AUDIO_IN1*
X52721002Y30080000D03*
G04 #@! TO.P,JB1,8,GND*
G04 #@! TO.N,/D13*
X52721002Y32620000D03*
G04 #@! TO.P,JB1,9,-12V*
G04 #@! TO.N,/D3*
X50181002Y30080000D03*
G04 #@! TO.P,JB1,10,-12V*
G04 #@! TO.N,/D2*
X50181002Y32620000D03*
G04 #@! TD*
D10*
G04 #@! TO.P,R8,1*
G04 #@! TO.N,Net-(U1A--)*
X59979000Y46043800D03*
G04 #@! TO.P,R8,2*
G04 #@! TO.N,Net-(U1B--)*
X67599000Y46043800D03*
G04 #@! TD*
D11*
G04 #@! TO.P,C3,1*
G04 #@! TO.N,GND*
X76089000Y67115600D03*
G04 #@! TO.P,C3,2*
G04 #@! TO.N,Net-(U1B-+)*
X76089000Y64524800D03*
G04 #@! TD*
D14*
G04 #@! TO.P,JD1,1,+12V*
G04 #@! TO.N,/D5*
X29530980Y91429992D03*
D15*
G04 #@! TO.P,JD1,2,+12V*
G04 #@! TO.N,/D6*
X26990980Y91429992D03*
G04 #@! TO.P,JD1,3,GND*
G04 #@! TO.N,/D19*
X29530980Y88889992D03*
G04 #@! TO.P,JD1,4,GND*
G04 #@! TO.N,/D8*
X26990980Y88889992D03*
G04 #@! TO.P,JD1,5,GND*
G04 #@! TO.N,/D18*
X29530980Y86349992D03*
G04 #@! TO.P,JD1,6,GND*
G04 #@! TO.N,/D7*
X26990980Y86349992D03*
G04 #@! TO.P,JD1,7,GND*
G04 #@! TO.N,/D17*
X29530980Y83809992D03*
G04 #@! TO.P,JD1,8,GND*
G04 #@! TO.N,/D4*
X26990980Y83809992D03*
G04 #@! TO.P,JD1,9,-12V*
G04 #@! TO.N,/D16*
X29530980Y81269992D03*
G04 #@! TO.P,JD1,10,-12V*
G04 #@! TO.N,/D9*
X26990980Y81269992D03*
G04 #@! TD*
D10*
G04 #@! TO.P,R3,1*
G04 #@! TO.N,Net-(J2-SIG)*
X35189000Y54253800D03*
G04 #@! TO.P,R3,2*
G04 #@! TO.N,/A5*
X35189000Y46633800D03*
G04 #@! TD*
D11*
G04 #@! TO.P,C10,1*
G04 #@! TO.N,/A3*
X55717200Y41743800D03*
G04 #@! TO.P,C10,2*
G04 #@! TO.N,GNDADC*
X58308000Y41743800D03*
G04 #@! TD*
D18*
G04 #@! TO.P,J10,1,SIG*
G04 #@! TO.N,/AUDIO_IN1*
X55153000Y23386564D03*
G04 #@! TO.P,J10,2,SHEILD*
G04 #@! TO.N,GND*
X44180200Y23386564D03*
G04 #@! TO.P,J10,3,SW*
G04 #@! TO.N,unconnected-(J10-SW-Pad3)*
X46593200Y23386564D03*
G04 #@! TD*
D11*
G04 #@! TO.P,Bank_But1,1,UP-A*
G04 #@! TO.N,unconnected-(Bank_But1-UP-A-Pad1)*
X69939000Y104186564D03*
G04 #@! TO.P,Bank_But1,2,POLE-A*
G04 #@! TO.N,Net-(Bank_But1-POLE-A)*
X63439000Y104186564D03*
G04 #@! TO.P,Bank_But1,3,DOWN-A*
G04 #@! TO.N,unconnected-(Bank_But1-DOWN-A-Pad3)*
X69939000Y99686564D03*
G04 #@! TO.P,Bank_But1,4,UP-B*
G04 #@! TO.N,GND*
X63439000Y99686564D03*
D19*
G04 #@! TO.P,Bank_But1,5,CA*
G04 #@! TO.N,+3V3*
X67589000Y104836564D03*
G04 #@! TO.P,Bank_But1,6,G*
G04 #@! TO.N,/D0*
X65789000Y104836564D03*
G04 #@! TO.P,Bank_But1,7,R*
G04 #@! TO.N,/D1*
X65789000Y99036564D03*
G04 #@! TO.P,Bank_But1,8,B*
G04 #@! TO.N,Net-(Bank_But1-B)*
X67589000Y99036564D03*
G04 #@! TD*
D20*
G04 #@! TO.P,SD1,1,DAT2*
G04 #@! TO.N,/D18*
X40619000Y76904049D03*
G04 #@! TO.P,SD1,2,CD/DAT3*
G04 #@! TO.N,/D19*
X41718820Y78003869D03*
G04 #@! TO.P,SD1,3,CMD*
G04 #@! TO.N,/D4*
X40619000Y79103943D03*
G04 #@! TO.P,SD1,4,VDD*
G04 #@! TO.N,+3V3*
X41718820Y80203763D03*
G04 #@! TO.P,SD1,5,CLK*
G04 #@! TO.N,/D9*
X40619000Y81303837D03*
G04 #@! TO.P,SD1,6,VSS*
G04 #@! TO.N,GND*
X41718820Y82403657D03*
G04 #@! TO.P,SD1,7,DAT0*
G04 #@! TO.N,/D16*
X40619000Y83503731D03*
G04 #@! TO.P,SD1,8,DAT1*
G04 #@! TO.N,/D17*
X41718820Y84603551D03*
D21*
G04 #@! TO.P,SD1,9,SHELL1*
G04 #@! TO.N,GND*
X37449080Y76461200D03*
G04 #@! TO.P,SD1,10,SHELL2*
X37449080Y85046400D03*
G04 #@! TD*
D22*
G04 #@! TO.P,POT_LENGTH1,1,Left*
G04 #@! TO.N,GNDADC*
X31289000Y47919800D03*
G04 #@! TO.P,POT_LENGTH1,2,Center*
G04 #@! TO.N,/A7*
X26289000Y47919800D03*
G04 #@! TO.P,POT_LENGTH1,3,Right*
G04 #@! TO.N,VREF+*
X21289000Y47919800D03*
G04 #@! TD*
D18*
G04 #@! TO.P,J2,1,SIG*
G04 #@! TO.N,Net-(J2-SIG)*
X35046000Y39186564D03*
G04 #@! TO.P,J2,2,SHEILD*
G04 #@! TO.N,GND*
X24073200Y39186564D03*
G04 #@! TO.P,J2,3,SW*
X26486200Y39186564D03*
G04 #@! TD*
D22*
G04 #@! TO.P,POT_PITCH1,1,Left*
G04 #@! TO.N,GNDADC*
X71889000Y67507564D03*
G04 #@! TO.P,POT_PITCH1,2,Center*
G04 #@! TO.N,/A1*
X66889000Y67507564D03*
G04 #@! TO.P,POT_PITCH1,3,Right*
G04 #@! TO.N,VREF+*
X61889000Y67507564D03*
G04 #@! TD*
D18*
G04 #@! TO.P,J7,1,SIG*
G04 #@! TO.N,Net-(J7-SIG)*
X33266000Y7961564D03*
G04 #@! TO.P,J7,2,SHEILD*
G04 #@! TO.N,GND*
X22293200Y7961564D03*
G04 #@! TO.P,J7,3,SW*
G04 #@! TO.N,unconnected-(J7-SW-Pad3)*
X24706200Y7961564D03*
G04 #@! TD*
G04 #@! TO.P,J6,1,SIG*
G04 #@! TO.N,Net-(J6-SIG)*
X13471000Y23386564D03*
G04 #@! TO.P,J6,2,SHEILD*
G04 #@! TO.N,GND*
X2498200Y23386564D03*
G04 #@! TO.P,J6,3,SW*
X4911200Y23386564D03*
G04 #@! TD*
G04 #@! TO.P,J4,1,SIG*
G04 #@! TO.N,Net-(J4-SIG)*
X61182000Y39186564D03*
G04 #@! TO.P,J4,2,SHEILD*
G04 #@! TO.N,GND*
X72154800Y39186564D03*
G04 #@! TO.P,J4,3,SW*
X69741800Y39186564D03*
G04 #@! TD*
D11*
G04 #@! TO.P,REV_BUT1,1,UP-A*
G04 #@! TO.N,unconnected-(REV_BUT1-UP-A-Pad1)*
X14539000Y104186564D03*
G04 #@! TO.P,REV_BUT1,2,POLE-A*
G04 #@! TO.N,/A6*
X8039000Y104186564D03*
G04 #@! TO.P,REV_BUT1,3,DOWN-A*
G04 #@! TO.N,unconnected-(REV_BUT1-DOWN-A-Pad3)*
X14539000Y99686564D03*
G04 #@! TO.P,REV_BUT1,4,UP-B*
G04 #@! TO.N,GND*
X8039000Y99686564D03*
D19*
G04 #@! TO.P,REV_BUT1,5,CA*
G04 #@! TO.N,+3V3*
X12189000Y104836564D03*
G04 #@! TO.P,REV_BUT1,6,G*
G04 #@! TO.N,/D10*
X10389000Y104836564D03*
G04 #@! TO.P,REV_BUT1,7,R*
G04 #@! TO.N,Net-(REV_BUT1-R)*
X10389000Y99036564D03*
G04 #@! TO.P,REV_BUT1,8,B*
G04 #@! TO.N,/D3*
X12189000Y99036564D03*
G04 #@! TD*
D18*
G04 #@! TO.P,J5,1,SIG*
G04 #@! TO.N,Net-(J5-SIG)*
X13471000Y7961564D03*
G04 #@! TO.P,J5,2,SHEILD*
G04 #@! TO.N,GND*
X2498200Y7961564D03*
G04 #@! TO.P,J5,3,SW*
X4911200Y7961564D03*
G04 #@! TD*
G04 #@! TO.P,J9,1,SIG*
G04 #@! TO.N,/AUDIO_OUT1*
X55126000Y7961564D03*
G04 #@! TO.P,J9,2,SHEILD*
G04 #@! TO.N,GND*
X44153200Y7961564D03*
G04 #@! TO.P,J9,3,SW*
G04 #@! TO.N,unconnected-(J9-SW-Pad3)*
X46566200Y7961564D03*
G04 #@! TD*
G04 #@! TO.P,J8,1,SIG*
G04 #@! TO.N,/AUDIO_IN2*
X74921000Y23386564D03*
G04 #@! TO.P,J8,2,SHEILD*
G04 #@! TO.N,GND*
X63948200Y23386564D03*
G04 #@! TO.P,J8,3,SW*
G04 #@! TO.N,unconnected-(J8-SW-Pad3)*
X66361200Y23386564D03*
G04 #@! TD*
G04 #@! TO.P,J1,1,SIG*
G04 #@! TO.N,Net-(J1-SIG)*
X53271000Y39186564D03*
G04 #@! TO.P,J1,2,SHEILD*
G04 #@! TO.N,GND*
X42298200Y39186564D03*
G04 #@! TO.P,J1,3,SW*
X44711200Y39186564D03*
G04 #@! TD*
G04 #@! TO.P,J11,1,SIG*
G04 #@! TO.N,/AUDIO_OUT2*
X74921000Y7961564D03*
G04 #@! TO.P,J11,2,SHEILD*
G04 #@! TO.N,GND*
X63948200Y7961564D03*
G04 #@! TO.P,J11,3,SW*
G04 #@! TO.N,unconnected-(J11-SW-Pad3)*
X66361200Y7961564D03*
G04 #@! TD*
G04 #@! TO.P,J13,1,SIG*
G04 #@! TO.N,Net-(J13-SIG)*
X33239000Y23386564D03*
G04 #@! TO.P,J13,2,SHEILD*
G04 #@! TO.N,GND*
X22266200Y23386564D03*
G04 #@! TO.P,J13,3,SW*
X24679200Y23386564D03*
G04 #@! TD*
D22*
G04 #@! TO.P,POT_START1,1,Left*
G04 #@! TO.N,GNDADC*
X56689000Y47875481D03*
G04 #@! TO.P,POT_START1,2,Center*
G04 #@! TO.N,/A3*
X51689000Y47875481D03*
G04 #@! TO.P,POT_START1,3,Right*
G04 #@! TO.N,VREF+*
X46689000Y47875481D03*
G04 #@! TD*
D11*
G04 #@! TO.P,PLAY_BUT1,1,UP-A*
G04 #@! TO.N,unconnected-(PLAY_BUT1-UP-A-Pad1)*
X41985000Y101911564D03*
G04 #@! TO.P,PLAY_BUT1,2,POLE-A*
G04 #@! TO.N,Net-(PLAY_BUT1-POLE-A)*
X35993000Y101911564D03*
G04 #@! TO.P,PLAY_BUT1,3,DOWN-A*
G04 #@! TO.N,unconnected-(PLAY_BUT1-DOWN-A-Pad3)*
X41985000Y97411564D03*
G04 #@! TO.P,PLAY_BUT1,4,UP-B*
G04 #@! TO.N,GND*
X35993000Y97411564D03*
D19*
G04 #@! TO.P,PLAY_BUT1,5,CA*
G04 #@! TO.N,+3V3*
X39889000Y102561564D03*
G04 #@! TO.P,PLAY_BUT1,6,G*
G04 #@! TO.N,Net-(PLAY_BUT1-G)*
X38089000Y102561564D03*
G04 #@! TO.P,PLAY_BUT1,7,R*
G04 #@! TO.N,Net-(PLAY_BUT1-R)*
X38089000Y96761564D03*
G04 #@! TO.P,PLAY_BUT1,8,B*
G04 #@! TO.N,Net-(PLAY_BUT1-B)*
X39889000Y96761564D03*
G04 #@! TD*
D22*
G04 #@! TO.P,POT_SAMP1,1,Left*
G04 #@! TO.N,GNDADC*
X16089000Y67507564D03*
G04 #@! TO.P,POT_SAMP1,2,Center*
G04 #@! TO.N,/A9*
X11089000Y67507564D03*
G04 #@! TO.P,POT_SAMP1,3,Right*
G04 #@! TO.N,VREF+*
X6089000Y67507564D03*
G04 #@! TD*
D18*
G04 #@! TO.P,J3,1,SIG*
G04 #@! TO.N,Net-(J3-SIG)*
X16871000Y39186564D03*
G04 #@! TO.P,J3,2,SHEILD*
G04 #@! TO.N,GND*
X5898200Y39186564D03*
G04 #@! TO.P,J3,3,SW*
X8311200Y39186564D03*
G04 #@! TD*
D23*
G04 #@! TO.N,GND*
X59314000Y93743800D03*
X49439000Y95218800D03*
X37279000Y82633800D03*
X47283500Y87254800D03*
X47953500Y89819300D03*
X34031701Y81276501D03*
X48046299Y83641099D03*
G04 #@! TO.N,+3V3*
X31519000Y77973800D03*
G04 #@! TO.N,+12V*
X60389000Y83368800D03*
X63889000Y52243800D03*
X16289000Y18293300D03*
G04 #@! TO.N,-12VA*
X15849000Y46013800D03*
X63609000Y55763800D03*
X62169000Y74043800D03*
X12989000Y18043800D03*
X61889000Y27043800D03*
X56189000Y21143800D03*
G04 #@! TO.N,/A2*
X55789000Y49943800D03*
X41789000Y50743800D03*
G04 #@! TO.N,/A7*
X24389000Y45943800D03*
G04 #@! TO.N,/A6*
X22989000Y36743800D03*
X17335343Y59190143D03*
G04 #@! TO.N,/D6*
X59664500Y90918800D03*
G04 #@! TO.N,/A9*
X22189000Y45143800D03*
X24489000Y49643800D03*
G04 #@! TO.N,Net-(U1B--)*
X61189000Y53793300D03*
G04 #@! TO.N,/D13*
X39089000Y24343800D03*
X36189000Y24343800D03*
G04 #@! TO.N,/AUDIO_IN2*
X64589000Y30443800D03*
G04 #@! TO.N,Net-(J1-SIG)*
X42538899Y42243800D03*
X48121701Y39801099D03*
G04 #@! TO.N,VREF+*
X60429000Y52943800D03*
X66879000Y53736099D03*
X22689000Y55243800D03*
X57489000Y64843800D03*
X57814000Y53068800D03*
X55964500Y67043800D03*
G04 #@! TO.N,/D10*
X20189000Y93603800D03*
G04 #@! TO.N,/D14*
X56890500Y73043800D03*
G04 #@! TO.N,/D12*
X47229000Y91423800D03*
X52164500Y85153800D03*
G04 #@! TO.N,/D0*
X64389000Y35143800D03*
G04 #@! TO.N,/D1*
X69951299Y41781501D03*
G04 #@! TO.N,/D3*
X21279000Y102593800D03*
X28509000Y76733800D03*
X37359000Y62963800D03*
X45409000Y51883800D03*
G04 #@! TO.N,/A1*
X41789000Y41043800D03*
X44289000Y45043800D03*
G04 #@! TO.N,Net-(J2-SIG)*
X28295600Y47218600D03*
X28973440Y49166442D03*
G04 #@! TO.N,Net-(J4-SIG)*
X69672200Y37287200D03*
X63686900Y37481300D03*
G04 #@! TO.N,Net-(J13-SIG)*
X40399000Y23533800D03*
G04 #@! TO.N,Net-(PLAY_BUT1-G)*
X52839000Y96453800D03*
G04 #@! TO.N,Net-(U1A-+)*
X69149000Y54153800D03*
G04 #@! TO.N,/D4*
X39031701Y81011099D03*
G04 #@! TO.N,Net-(J5-SIG)*
X20249000Y9163800D03*
G04 #@! TD*
D24*
G04 #@! TO.N,GND*
X47283500Y87254800D02*
X47283500Y89149300D01*
X18775600Y93273800D02*
X23089000Y97587200D01*
X10669000Y49413800D02*
X10329000Y49073800D01*
X37509143Y82403657D02*
X37279000Y82633800D01*
X34031701Y80824673D02*
X37449080Y77407294D01*
X69741800Y39186564D02*
X72154800Y39186564D01*
X8919000Y32673800D02*
X8919000Y30653800D01*
X8719000Y95483000D02*
X8719000Y99006564D01*
X62608000Y9301764D02*
X63948200Y7961564D01*
X46170964Y5943800D02*
X61930436Y5943800D01*
X63589000Y33033764D02*
X69741800Y39186564D01*
X61930436Y5943800D02*
X63948200Y7961564D01*
X62689000Y22127364D02*
X63948200Y23386564D01*
X11853964Y16443800D02*
X4911200Y23386564D01*
X73414000Y46558800D02*
X77214000Y50358800D01*
X60889000Y63462800D02*
X59964000Y64387800D01*
X24073200Y39186564D02*
X24073200Y35328000D01*
X59964000Y64387800D02*
X59964000Y81376992D01*
X73414000Y45333800D02*
X73414000Y45308800D01*
X77214000Y65990600D02*
X76089000Y67115600D01*
X77214000Y50358800D02*
X77214000Y65990600D01*
X37279000Y82633800D02*
X37279000Y84876320D01*
X41989000Y53253800D02*
X38689000Y56553800D01*
X60389000Y86667992D02*
X57531000Y83809992D01*
X4911200Y7961564D02*
X7893436Y10943800D01*
X17139000Y16443800D02*
X17139000Y10963800D01*
X62608000Y11643800D02*
X62608000Y9301764D01*
X73414000Y45333800D02*
X73414000Y46558800D01*
X62689000Y17243800D02*
X62689000Y11724800D01*
X17139000Y16443800D02*
X11853964Y16443800D01*
X63589000Y23745764D02*
X63589000Y33033764D01*
X8719000Y95483000D02*
X8639400Y95403400D01*
X41718820Y82403657D02*
X37509143Y82403657D01*
X24073200Y35328000D02*
X21788407Y33043207D01*
X44180200Y23386564D02*
X42298200Y25268564D01*
X17189000Y21533800D02*
X19041764Y23386564D01*
X8311200Y33281600D02*
X8919000Y32673800D01*
X9729000Y93273800D02*
X18775600Y93273800D01*
X37449080Y77407294D02*
X37449080Y76461200D01*
X60389000Y92969105D02*
X60389000Y86667992D01*
X50914000Y93743800D02*
X49439000Y95218800D01*
X48046299Y83641099D02*
X47776299Y83641099D01*
X62689000Y17243800D02*
X62689000Y22127364D01*
X1364000Y59449800D02*
X1364000Y88128000D01*
X47283500Y89149300D02*
X47953500Y89819300D01*
X34031701Y81276501D02*
X34031701Y80824673D01*
X59314000Y93743800D02*
X50914000Y93743800D01*
X72154800Y39186564D02*
X72154800Y43390600D01*
X2498200Y7961564D02*
X4911200Y7961564D01*
X10329000Y49073800D02*
X10329000Y46143800D01*
X43263399Y40151763D02*
X43263399Y51979401D01*
X8311200Y39186564D02*
X8311200Y33281600D01*
X8719000Y99006564D02*
X8039000Y99686564D01*
X59314000Y93743800D02*
X59614305Y93743800D01*
X8719000Y95483000D02*
X8719000Y94283800D01*
X4911200Y26646000D02*
X8919000Y30653800D01*
X42298200Y25268564D02*
X42298200Y39186564D01*
X8311200Y44126000D02*
X10329000Y46143800D01*
X2489000Y58324800D02*
X1364000Y59449800D01*
X59964000Y81376992D02*
X57531000Y83809992D01*
X44153200Y7961564D02*
X46170964Y5943800D01*
X59614305Y93743800D02*
X60389000Y92969105D01*
X47776299Y83641099D02*
X46538857Y82403657D01*
X8719000Y94283800D02*
X9729000Y93273800D01*
X42298200Y39186564D02*
X43263399Y40151763D01*
X7893436Y10943800D02*
X17119000Y10943800D01*
X10669000Y52133800D02*
X10669000Y49413800D01*
X46538857Y82403657D02*
X41718820Y82403657D01*
X17139000Y16443800D02*
X17139000Y21483800D01*
X73414000Y45308800D02*
X75759000Y42963800D01*
X35993000Y97411564D02*
X35993000Y95358800D01*
X19041764Y23386564D02*
X24679200Y23386564D01*
X35993000Y95358800D02*
X37608000Y93743800D01*
X1364000Y88128000D02*
X8639400Y95403400D01*
X43263399Y51979401D02*
X41989000Y53253800D01*
X73414000Y44649800D02*
X73414000Y45333800D01*
X21788407Y33043207D02*
X21788407Y23864357D01*
X4911200Y23386564D02*
X2498200Y23386564D01*
X42298200Y39186564D02*
X44711200Y39186564D01*
X4911200Y23386564D02*
X4911200Y26646000D01*
X8311200Y44126000D02*
X8311200Y39186564D01*
X26486200Y39186564D02*
X24073200Y39186564D01*
X5898200Y39186564D02*
X8311200Y39186564D01*
X72289000Y43524800D02*
X73414000Y44649800D01*
G04 #@! TO.N,+3V3*
X47224000Y104026300D02*
X46724000Y104026300D01*
X67589000Y104836564D02*
X66551764Y105873800D01*
X24879000Y75143800D02*
X27194000Y77458800D01*
X49071500Y105873800D02*
X47224000Y104026300D01*
X27194000Y77458800D02*
X31004000Y77458800D01*
X66551764Y105873800D02*
X49071500Y105873800D01*
X31004000Y77458800D02*
X31519000Y77973800D01*
G04 #@! TO.N,GNDADC*
X31289000Y47875481D02*
X27282319Y43868800D01*
X15289000Y63875481D02*
X31289000Y47875481D01*
X58389000Y73062800D02*
X56166000Y75285800D01*
X21695000Y43868800D02*
X20570000Y42743800D01*
X27282319Y43868800D02*
X21695000Y43868800D01*
X22608000Y71343800D02*
X18771764Y67507564D01*
X15289000Y67507564D02*
X15289000Y63875481D01*
X18771764Y67507564D02*
X15289000Y67507564D01*
X56166000Y75285800D02*
X56166000Y82634992D01*
X56166000Y82634992D02*
X54991000Y83809992D01*
G04 #@! TO.N,/A5*
X29260978Y32620000D02*
X29260978Y40705778D01*
X29260978Y40705778D02*
X35189000Y46633800D01*
G04 #@! TO.N,+12V*
X63089000Y35643800D02*
X63089000Y25343800D01*
X60389000Y83518800D02*
X61039000Y84168800D01*
X60189000Y22443800D02*
X60189000Y17243800D01*
X9889000Y54922809D02*
X10603009Y54208800D01*
X10419000Y31013800D02*
X8409000Y29003800D01*
X60889000Y60872000D02*
X59489000Y62272000D01*
X6451600Y22881200D02*
X12189000Y17143800D01*
X65995800Y47902000D02*
X65995800Y38550600D01*
X59489000Y64043800D02*
X59514000Y64068800D01*
X4617200Y60915600D02*
X9889000Y55643800D01*
X6451600Y26946400D02*
X6451600Y22881200D01*
X64454000Y51678800D02*
X64454000Y49443800D01*
X61039000Y94318800D02*
X57264000Y98093800D01*
X10674000Y54208800D02*
X14949800Y49933000D01*
X59514000Y79286992D02*
X57531000Y81269992D01*
X65995800Y38550600D02*
X63089000Y35643800D01*
X8409000Y29003800D02*
X8409000Y28903800D01*
X61039000Y84168800D02*
X61039000Y94318800D01*
X2489000Y60915600D02*
X4617200Y60915600D01*
X9889000Y55643800D02*
X9889000Y54922809D01*
X15139500Y17143800D02*
X16289000Y18293300D01*
X12189000Y17143800D02*
X15139500Y17143800D01*
X60389000Y83368800D02*
X60389000Y83518800D01*
X28379000Y17243800D02*
X26479000Y15343800D01*
X59514000Y64068800D02*
X59514000Y79286992D01*
X14949800Y43004600D02*
X10419000Y38473800D01*
X60189000Y17243800D02*
X28379000Y17243800D01*
X63889000Y52243800D02*
X64454000Y51678800D01*
X64454000Y49443800D02*
X65995800Y47902000D01*
X59489000Y62272000D02*
X59489000Y64043800D01*
X14949800Y49933000D02*
X14949800Y43004600D01*
X57264000Y98093800D02*
X57264000Y100818800D01*
X63089000Y25343800D02*
X60189000Y22443800D01*
X10419000Y38473800D02*
X10419000Y31013800D01*
X8409000Y28903800D02*
X6451600Y26946400D01*
X10603009Y54208800D02*
X10674000Y54208800D01*
G04 #@! TO.N,-12VA*
X62204000Y56787809D02*
X63228009Y55763800D01*
X36589000Y15343800D02*
X44679000Y15343800D01*
X56189000Y21143800D02*
X61889000Y26843800D01*
X63228009Y55763800D02*
X63609000Y55763800D01*
X62169000Y74043800D02*
X60414000Y72288800D01*
X32189000Y10943800D02*
X36589000Y15343800D01*
X7089000Y26803800D02*
X10869000Y30583800D01*
X62204000Y63738791D02*
X62204000Y56787809D01*
X12989000Y18043800D02*
X12189000Y18043800D01*
X7089000Y23143800D02*
X7089000Y26803800D01*
X15564000Y45728800D02*
X15849000Y46013800D01*
X60414000Y72288800D02*
X60414000Y65528791D01*
X15564000Y42718800D02*
X15564000Y45728800D01*
X61889000Y26843800D02*
X61889000Y27043800D01*
X12189000Y18043800D02*
X7089000Y23143800D01*
X44679000Y15343800D02*
X45379000Y16043800D01*
X19709800Y10943800D02*
X32189000Y10943800D01*
X10869000Y38023800D02*
X15564000Y42718800D01*
X60414000Y65528791D02*
X62204000Y63738791D01*
X10869000Y30583800D02*
X10869000Y38023800D01*
G04 #@! TO.N,/A2*
X57969000Y51843800D02*
X58089000Y51843800D01*
X31800978Y30080000D02*
X30625978Y31255000D01*
X37589000Y46343800D02*
X41789000Y50543800D01*
X58089000Y51843800D02*
X60889000Y54643800D01*
X30625978Y39580778D02*
X37389000Y46343800D01*
X64451652Y55106452D02*
X64451652Y56606452D01*
X57689000Y51843800D02*
X57969000Y51843800D01*
X55789000Y49943800D02*
X57689000Y51843800D01*
X60889000Y54643800D02*
X63989000Y54643800D01*
X63989000Y54643800D02*
X64451652Y55106452D01*
X64451652Y56606452D02*
X63804305Y57253800D01*
X41789000Y50543800D02*
X41789000Y50743800D01*
X30625978Y31255000D02*
X30625978Y39580778D01*
X37389000Y46343800D02*
X37589000Y46343800D01*
G04 #@! TO.N,/A7*
X24389000Y45943800D02*
X24389000Y45975481D01*
X24389000Y45975481D02*
X26289000Y47875481D01*
G04 #@! TO.N,/A6*
X16574000Y44316248D02*
X22989000Y37901248D01*
X17335343Y59190143D02*
X16574000Y58428800D01*
X22989000Y37901248D02*
X22989000Y36743800D01*
X16574000Y58428800D02*
X16574000Y44316248D01*
G04 #@! TO.N,/D6*
X40722948Y91067300D02*
X39875052Y91067300D01*
X52443107Y90543800D02*
X41246448Y90543800D01*
X59664500Y90918800D02*
X59664500Y91646492D01*
X39448552Y91493800D02*
X31817172Y91493800D01*
X39875052Y91067300D02*
X39448552Y91493800D01*
X41246448Y90543800D02*
X40722948Y91067300D01*
X58706000Y92604992D02*
X54504299Y92604992D01*
X28165980Y92604992D02*
X26990980Y91429992D01*
X54504299Y92604992D02*
X52443107Y90543800D01*
X31817172Y91493800D02*
X30705980Y92604992D01*
X30705980Y92604992D02*
X28165980Y92604992D01*
X59664500Y91646492D02*
X58706000Y92604992D01*
X26990980Y91429992D02*
X23089000Y95331972D01*
G04 #@! TO.N,/A9*
X24489000Y49643800D02*
X24489000Y47143800D01*
X22489000Y45143800D02*
X22189000Y45143800D01*
X24489000Y47143800D02*
X22489000Y45143800D01*
X14125236Y71343800D02*
X10289000Y67507564D01*
X20017200Y71343800D02*
X14125236Y71343800D01*
G04 #@! TO.N,Net-(U1B--)*
X64089000Y53543800D02*
X61438500Y53543800D01*
X61438500Y53543800D02*
X61189000Y53793300D01*
X65869000Y55323800D02*
X64089000Y53543800D01*
X65869000Y57253800D02*
X65869000Y55323800D01*
G04 #@! TO.N,/D13*
X39089000Y24343800D02*
X36189000Y24343800D01*
G04 #@! TO.N,/AUDIO_IN2*
X64589000Y30443800D02*
X71646236Y23386564D01*
X71646236Y23386564D02*
X74921000Y23386564D01*
G04 #@! TO.N,Net-(J1-SIG)*
X40628899Y44153800D02*
X39089000Y44153800D01*
X48121701Y39801099D02*
X48736236Y39186564D01*
X42538899Y42243800D02*
X40628899Y44153800D01*
X48736236Y39186564D02*
X53271000Y39186564D01*
G04 #@! TO.N,/AUDIO_IN1*
X52721002Y25818562D02*
X55153000Y23386564D01*
X52721002Y30080000D02*
X52721002Y25818562D01*
G04 #@! TO.N,VREF+*
X13081800Y65151000D02*
X15689000Y62543800D01*
X22689000Y49275481D02*
X21289000Y47875481D01*
X66879000Y53736099D02*
X66236701Y53093800D01*
X46689000Y47875481D02*
X48857319Y50043800D01*
X22689000Y55243800D02*
X22689000Y49275481D01*
X15689000Y62443800D02*
X22689000Y55443800D01*
X63689000Y52943800D02*
X60429000Y52943800D01*
X63839000Y53093800D02*
X63689000Y52943800D01*
X66236701Y53093800D02*
X63839000Y53093800D01*
X5289000Y67507564D02*
X7645564Y65151000D01*
X48857319Y50043800D02*
X54789000Y50043800D01*
X55964500Y67043800D02*
X55964500Y66368300D01*
X7645564Y65151000D02*
X13081800Y65151000D01*
X55964500Y66368300D02*
X57489000Y64843800D01*
X15689000Y62543800D02*
X15689000Y62443800D01*
X54789000Y50043800D02*
X57814000Y53068800D01*
X22689000Y55443800D02*
X22689000Y55243800D01*
G04 #@! TO.N,/D11*
X57531000Y88889992D02*
X56356000Y90064992D01*
X56356000Y90064992D02*
X53700192Y90064992D01*
X53700192Y90064992D02*
X51189000Y87553800D01*
G04 #@! TO.N,/D10*
X29838873Y90243800D02*
X24799000Y90243800D01*
X21439000Y93603800D02*
X20189000Y93603800D01*
X42431552Y87243800D02*
X32838873Y87243800D01*
X43145052Y86530300D02*
X42431552Y87243800D01*
X32838873Y87243800D02*
X29838873Y90243800D01*
X52631308Y86530300D02*
X43145052Y86530300D01*
X54991000Y88889992D02*
X52631308Y86530300D01*
X24799000Y90243800D02*
X21439000Y93603800D01*
G04 #@! TO.N,/D14*
X56599000Y73043800D02*
X54189000Y70633800D01*
X56890500Y73043800D02*
X56599000Y73043800D01*
G04 #@! TO.N,/D12*
X47229000Y91423800D02*
X46709000Y91943800D01*
X46709000Y91943800D02*
X36817200Y91943800D01*
X52164500Y85153800D02*
X53794808Y85153800D01*
X36817200Y91943800D02*
X35017200Y93743800D01*
X53794808Y85153800D02*
X54991000Y86349992D01*
G04 #@! TO.N,/D0*
X74539000Y49857404D02*
X74539000Y57293800D01*
X65789000Y104836564D02*
X67564000Y103061564D01*
X64389000Y35707404D02*
X69200396Y40518800D01*
X72258011Y47675602D02*
X72357198Y47675602D01*
X71139000Y41819105D02*
X71139000Y46556591D01*
X64389000Y35143800D02*
X64389000Y35707404D01*
X72357198Y47675602D02*
X74539000Y49857404D01*
X74964000Y81368800D02*
X73489000Y82843800D01*
X74619000Y57373800D02*
X74619000Y60923800D01*
X71139000Y46556591D02*
X72258011Y47675602D01*
X69838695Y40518800D02*
X71139000Y41819105D01*
X67564000Y103061564D02*
X68154991Y103061564D01*
X74539000Y57293800D02*
X74619000Y57373800D01*
X69200396Y40518800D02*
X69838695Y40518800D01*
X73489000Y82843800D02*
X73489000Y97727555D01*
X68154991Y103061564D02*
X73489000Y97727555D01*
X74964000Y61268800D02*
X74964000Y81368800D01*
X74619000Y60923800D02*
X74964000Y61268800D01*
G04 #@! TO.N,/D1*
X65849000Y86633800D02*
X65789000Y86693800D01*
X65789000Y86693800D02*
X65789000Y99036564D01*
X70689000Y42519202D02*
X69951299Y41781501D01*
X65849000Y86633800D02*
X65849000Y71471498D01*
X65849000Y71471498D02*
X71729400Y65591098D01*
X72255500Y48210300D02*
X72156313Y48210300D01*
X71729400Y59614000D02*
X74089000Y57254400D01*
X74089000Y50043800D02*
X72255500Y48210300D01*
X72156313Y48210300D02*
X70689000Y46742987D01*
X70689000Y46742987D02*
X70689000Y42519202D01*
X71729400Y65591098D02*
X71729400Y59614000D01*
X74089000Y57254400D02*
X74089000Y50043800D01*
G04 #@! TO.N,/D3*
X46334000Y34556248D02*
X50181002Y30709246D01*
X46334000Y43188800D02*
X46334000Y34556248D01*
X45221000Y51695800D02*
X45221000Y44301800D01*
X37359000Y67883800D02*
X37359000Y62963800D01*
X45409000Y51883800D02*
X45221000Y51695800D01*
X45221000Y44301800D02*
X46334000Y43188800D01*
X14099000Y102593800D02*
X12189000Y100683800D01*
X28509000Y76733800D02*
X37359000Y67883800D01*
X21279000Y102593800D02*
X14099000Y102593800D01*
X12189000Y100683800D02*
X12189000Y99036564D01*
G04 #@! TO.N,/D2*
X51389000Y26357745D02*
X51389000Y31412002D01*
X43569000Y19623800D02*
X44655055Y19623800D01*
X44655055Y19623800D02*
X51389000Y26357745D01*
X51389000Y31412002D02*
X50181002Y32620000D01*
G04 #@! TO.N,/D19*
X40150280Y78003869D02*
X41718820Y78003869D01*
X29530980Y88623169D02*
X40150280Y78003869D01*
G04 #@! TO.N,/D18*
X40619000Y76904049D02*
X39428751Y76904049D01*
X39428751Y76904049D02*
X29982808Y86349992D01*
X28355980Y87524992D02*
X24187808Y87524992D01*
X24187808Y87524992D02*
X22759000Y88953800D01*
X22759000Y88953800D02*
X21589000Y88953800D01*
X29530980Y86349992D02*
X28355980Y87524992D01*
G04 #@! TO.N,/D7*
X18149000Y89523800D02*
X21322808Y86349992D01*
X18149000Y91653800D02*
X18149000Y89523800D01*
X21322808Y86349992D02*
X26990980Y86349992D01*
G04 #@! TO.N,/D17*
X29530980Y83809992D02*
X32499000Y80841972D01*
X32499000Y80841972D02*
X32499000Y75143800D01*
G04 #@! TO.N,/D16*
X43806890Y85307300D02*
X42003321Y83503731D01*
X49649000Y83433800D02*
X47775500Y85307300D01*
X42003321Y83503731D02*
X40619000Y83503731D01*
X47775500Y85307300D02*
X43806890Y85307300D01*
G04 #@! TO.N,/A0*
X34340978Y30080000D02*
X39089000Y34828022D01*
X39089000Y34828022D02*
X39089000Y36533800D01*
G04 #@! TO.N,/A1*
X36336200Y34615222D02*
X34340978Y32620000D01*
X58389000Y70472000D02*
X57217200Y70472000D01*
X41789000Y41043800D02*
X40889000Y41043800D01*
X40889000Y41043800D02*
X36336200Y36491000D01*
X44289000Y57543800D02*
X57217200Y70472000D01*
X44289000Y57543800D02*
X44289000Y45043800D01*
X36336200Y36491000D02*
X36336200Y34615222D01*
G04 #@! TO.N,Net-(J2-SIG)*
X28973440Y49166442D02*
X28295600Y48488602D01*
X28295600Y48488602D02*
X28295600Y47218600D01*
G04 #@! TO.N,Net-(J4-SIG)*
X61182000Y39186564D02*
X62887264Y37481300D01*
X62887264Y37481300D02*
X63686900Y37481300D01*
X71395600Y37287200D02*
X75639000Y33043800D01*
X69672200Y37287200D02*
X71395600Y37287200D01*
G04 #@! TO.N,Net-(J13-SIG)*
X40399000Y23533800D02*
X40251764Y23386564D01*
X40251764Y23386564D02*
X33239000Y23386564D01*
G04 #@! TO.N,Net-(PLAY_BUT1-G)*
X52839000Y97193800D02*
X50364000Y99668800D01*
X39744000Y99668800D02*
X38089000Y101323800D01*
X50364000Y99668800D02*
X39744000Y99668800D01*
X38089000Y101323800D02*
X38089000Y102561564D01*
X52839000Y96453800D02*
X52839000Y97193800D01*
G04 #@! TO.N,Net-(U1A-+)*
X65869000Y50873800D02*
X69149000Y54153800D01*
X65869000Y49633800D02*
X65869000Y50873800D01*
G04 #@! TO.N,Net-(REV_BUT1-R)*
X13721764Y95703800D02*
X17839000Y95703800D01*
X10389000Y99036564D02*
X13721764Y95703800D01*
G04 #@! TO.N,/D4*
X39031701Y81011099D02*
X39031701Y80691242D01*
X40619000Y79103943D02*
X42003067Y79103943D01*
X39031701Y80691242D02*
X40619000Y79103943D01*
X43942000Y77165010D02*
X43942000Y72415400D01*
X42003067Y79103943D02*
X43942000Y77165010D01*
G04 #@! TO.N,Net-(J5-SIG)*
X19046764Y7961564D02*
X20249000Y9163800D01*
X13471000Y7961564D02*
X19046764Y7961564D01*
G04 #@! TD*
M02*
