G04 #@! TF.GenerationSoftware,KiCad,Pcbnew,7.0.1-0*
G04 #@! TF.CreationDate,2023-04-05T16:45:21-07:00*
G04 #@! TF.ProjectId,Kit-Trig-Sampler,4b69742d-5472-4696-972d-53616d706c65,rev?*
G04 #@! TF.SameCoordinates,PXb745f8PY7402318*
G04 #@! TF.FileFunction,Soldermask,Top*
G04 #@! TF.FilePolarity,Negative*
%FSLAX46Y46*%
G04 Gerber Fmt 4.6, Leading zero omitted, Abs format (unit mm)*
G04 Created by KiCad (PCBNEW 7.0.1-0) date 2023-04-05 16:45:21*
%MOMM*%
%LPD*%
G01*
G04 APERTURE LIST*
%ADD10C,1.397000*%
%ADD11C,1.600000*%
%ADD12R,1.600000X1.600000*%
%ADD13O,1.600000X1.600000*%
%ADD14R,1.700000X1.700000*%
%ADD15O,1.700000X1.700000*%
%ADD16R,1.500000X1.500000*%
%ADD17C,1.500000*%
%ADD18C,1.930400*%
%ADD19C,1.800000*%
%ADD20O,1.397000X1.092200*%
%ADD21O,1.524000X1.524000*%
%ADD22C,2.540000*%
G04 APERTURE END LIST*
D10*
G04 #@! TO.C,R17*
X35949000Y19623800D03*
X43569000Y19623800D03*
G04 #@! TD*
D11*
G04 #@! TO.C,C7*
X60017200Y11643800D03*
X62608000Y11643800D03*
G04 #@! TD*
G04 #@! TO.C,C17*
X35017200Y93743800D03*
X37608000Y93743800D03*
G04 #@! TD*
D10*
G04 #@! TO.C,R26*
X40299000Y90043800D03*
X32679000Y90043800D03*
G04 #@! TD*
G04 #@! TO.C,R2*
X39089000Y44153800D03*
X39089000Y36533800D03*
G04 #@! TD*
G04 #@! TO.C,R37*
X75759000Y52983800D03*
X75759000Y60603800D03*
G04 #@! TD*
D12*
G04 #@! TO.C,D2*
X52999000Y16043800D03*
D13*
X45379000Y16043800D03*
G04 #@! TD*
D10*
G04 #@! TO.C,R33*
X43979000Y27093800D03*
X36359000Y27093800D03*
G04 #@! TD*
D14*
G04 #@! TO.C,JC1*
X34340978Y30080000D03*
D15*
X34340978Y32620000D03*
X31800978Y30080000D03*
X31800978Y32620000D03*
X29260978Y30080000D03*
X29260978Y32620000D03*
X26720978Y30080000D03*
X26720978Y32620000D03*
X24180978Y30080000D03*
X24180978Y32620000D03*
G04 #@! TD*
D10*
G04 #@! TO.C,R16*
X31489000Y95333800D03*
X31489000Y102953800D03*
G04 #@! TD*
D11*
G04 #@! TO.C,C1*
X58389000Y70472000D03*
X58389000Y73062800D03*
G04 #@! TD*
D12*
G04 #@! TO.C,C4*
X60189000Y17243800D03*
D11*
X62689000Y17243800D03*
G04 #@! TD*
D10*
G04 #@! TO.C,R5*
X41989000Y53253800D03*
X41989000Y45633800D03*
G04 #@! TD*
G04 #@! TO.C,R14*
X3089000Y45963800D03*
X3089000Y38343800D03*
G04 #@! TD*
G04 #@! TO.C,R25*
X71805800Y97104200D03*
X71805800Y89484200D03*
G04 #@! TD*
D11*
G04 #@! TO.C,C15*
X8078200Y52133800D03*
X10669000Y52133800D03*
G04 #@! TD*
D12*
G04 #@! TO.C,C19*
X57264000Y100818800D03*
D11*
X59764000Y100818800D03*
G04 #@! TD*
D12*
G04 #@! TO.C,C20*
X47189000Y98218800D03*
D11*
X49689000Y98218800D03*
G04 #@! TD*
D12*
G04 #@! TO.C,D1*
X26479000Y15343800D03*
D13*
X34099000Y15343800D03*
G04 #@! TD*
D11*
G04 #@! TO.C,C13*
X72289000Y46115600D03*
X72289000Y43524800D03*
G04 #@! TD*
D10*
G04 #@! TO.C,R23*
X54189000Y78253800D03*
X54189000Y70633800D03*
G04 #@! TD*
D11*
G04 #@! TO.C,C9*
X23160800Y42743800D03*
X20570000Y42743800D03*
G04 #@! TD*
D12*
G04 #@! TO.C,U1*
X60789000Y49633800D03*
D13*
X63329000Y49633800D03*
X65869000Y49633800D03*
X68409000Y49633800D03*
X68409000Y57253800D03*
X65869000Y57253800D03*
X63329000Y57253800D03*
X60789000Y57253800D03*
G04 #@! TD*
D10*
G04 #@! TO.C,R30*
X51562000Y72415400D03*
X43942000Y72415400D03*
G04 #@! TD*
G04 #@! TO.C,R21*
X10219000Y95703800D03*
X17839000Y95703800D03*
G04 #@! TD*
G04 #@! TO.C,R20*
X4829000Y29753800D03*
X12449000Y29753800D03*
G04 #@! TD*
D15*
G04 #@! TO.C,J14*
X37819000Y13823800D03*
X40359000Y13823800D03*
X37819000Y11283800D03*
X40359000Y11283800D03*
X37819000Y8743800D03*
X40359000Y8743800D03*
X37819000Y6203800D03*
X40359000Y6203800D03*
X37819000Y3663800D03*
X40359000Y3663800D03*
G04 #@! TD*
D10*
G04 #@! TO.C,R4*
X20289000Y39153800D03*
X20289000Y31533800D03*
G04 #@! TD*
G04 #@! TO.C,R28*
X21589000Y81333800D03*
X21589000Y88953800D03*
G04 #@! TD*
G04 #@! TO.C,R40*
X27079000Y95173800D03*
X27079000Y102793800D03*
G04 #@! TD*
G04 #@! TO.C,R1*
X75639000Y33043800D03*
X75639000Y40663800D03*
G04 #@! TD*
G04 #@! TO.C,R41*
X18149000Y91653800D03*
X10529000Y91653800D03*
G04 #@! TD*
G04 #@! TO.C,R12*
X47099000Y32343800D03*
X39479000Y32343800D03*
G04 #@! TD*
D11*
G04 #@! TO.C,C8*
X19709800Y10943800D03*
X17119000Y10943800D03*
G04 #@! TD*
D10*
G04 #@! TO.C,R27*
X7061200Y96875600D03*
X7061200Y89255600D03*
G04 #@! TD*
D11*
G04 #@! TO.C,C6*
X67774400Y63743800D03*
X72854400Y63743800D03*
G04 #@! TD*
D10*
G04 #@! TO.C,R6*
X38589000Y56553800D03*
X38589000Y48933800D03*
G04 #@! TD*
G04 #@! TO.C,R9*
X75759000Y42963800D03*
X75759000Y50583800D03*
G04 #@! TD*
G04 #@! TO.C,R32*
X24879000Y75143800D03*
X32499000Y75143800D03*
G04 #@! TD*
D11*
G04 #@! TO.C,C2*
X20017200Y71343800D03*
X22608000Y71343800D03*
G04 #@! TD*
D10*
G04 #@! TO.C,R13*
X10329000Y46143800D03*
X17949000Y46143800D03*
G04 #@! TD*
G04 #@! TO.C,R19*
X45089000Y76663800D03*
X45089000Y84283800D03*
G04 #@! TD*
D12*
G04 #@! TO.C,C5*
X17139000Y16443800D03*
D11*
X19639000Y16443800D03*
G04 #@! TD*
G04 #@! TO.C,C14*
X2489000Y60915600D03*
X2489000Y58324800D03*
G04 #@! TD*
D10*
G04 #@! TO.C,R34*
X17189000Y21533800D03*
X17189000Y29153800D03*
G04 #@! TD*
D14*
G04 #@! TO.C,JA1*
X57531000Y91429992D03*
D15*
X54991000Y91429992D03*
X57531000Y88889992D03*
X54991000Y88889992D03*
X57531000Y86349992D03*
X54991000Y86349992D03*
X57531000Y83809992D03*
X54991000Y83809992D03*
X57531000Y81269992D03*
X54991000Y81269992D03*
G04 #@! TD*
D10*
G04 #@! TO.C,R31*
X49649000Y75813800D03*
X49649000Y83433800D03*
G04 #@! TD*
D12*
G04 #@! TO.C,U2*
X5989000Y55333800D03*
D13*
X8529000Y55333800D03*
X11069000Y55333800D03*
X13609000Y55333800D03*
X13609000Y62953800D03*
X11069000Y62953800D03*
X8529000Y62953800D03*
X5989000Y62953800D03*
G04 #@! TD*
D10*
G04 #@! TO.C,R7*
X8919000Y32673800D03*
X16539000Y32673800D03*
G04 #@! TD*
D16*
G04 #@! TO.C,U3*
X46724000Y104026300D03*
D17*
X49264000Y104026300D03*
X51804000Y104026300D03*
G04 #@! TD*
D11*
G04 #@! TO.C,C12*
X60889000Y60872000D03*
X60889000Y63462800D03*
G04 #@! TD*
G04 #@! TO.C,C16*
X23089000Y95543800D03*
X23089000Y98134600D03*
G04 #@! TD*
D10*
G04 #@! TO.C,R11*
X71789000Y56853800D03*
X71789000Y49233800D03*
G04 #@! TD*
G04 #@! TO.C,R10*
X65879000Y60543800D03*
X73499000Y60543800D03*
G04 #@! TD*
G04 #@! TO.C,R15*
X2239000Y36093800D03*
X2239000Y28473800D03*
G04 #@! TD*
D11*
G04 #@! TO.C,C11*
X6883600Y48763800D03*
X1803600Y48763800D03*
G04 #@! TD*
D10*
G04 #@! TO.C,R18*
X51189000Y87553800D03*
X43569000Y87553800D03*
G04 #@! TD*
D14*
G04 #@! TO.C,JB1*
X60341002Y30080000D03*
D15*
X60341002Y32620000D03*
X57801002Y30080000D03*
X57801002Y32620000D03*
X55261002Y30080000D03*
X55261002Y32620000D03*
X52721002Y30080000D03*
X52721002Y32620000D03*
X50181002Y30080000D03*
X50181002Y32620000D03*
G04 #@! TD*
D10*
G04 #@! TO.C,R8*
X59979000Y46043800D03*
X67599000Y46043800D03*
G04 #@! TD*
D11*
G04 #@! TO.C,C3*
X76089000Y67115600D03*
X76089000Y64524800D03*
G04 #@! TD*
D14*
G04 #@! TO.C,JD1*
X29530980Y91429992D03*
D15*
X26990980Y91429992D03*
X29530980Y88889992D03*
X26990980Y88889992D03*
X29530980Y86349992D03*
X26990980Y86349992D03*
X29530980Y83809992D03*
X26990980Y83809992D03*
X29530980Y81269992D03*
X26990980Y81269992D03*
G04 #@! TD*
D10*
G04 #@! TO.C,R3*
X35189000Y54253800D03*
X35189000Y46633800D03*
G04 #@! TD*
D11*
G04 #@! TO.C,C10*
X55717200Y41743800D03*
X58308000Y41743800D03*
G04 #@! TD*
D18*
G04 #@! TO.C,J10*
X55153000Y23386564D03*
X44180200Y23386564D03*
X46593200Y23386564D03*
G04 #@! TD*
D19*
G04 #@! TO.C,Bank_But1*
X69939000Y104186564D03*
X63439000Y104186564D03*
X69939000Y99686564D03*
X63439000Y99686564D03*
D17*
X67589000Y104836564D03*
X65789000Y104836564D03*
X65789000Y99036564D03*
X67589000Y99036564D03*
G04 #@! TD*
D20*
G04 #@! TO.C,SD1*
X40619000Y76904049D03*
X41718820Y78003869D03*
X40619000Y79103943D03*
X41718820Y80203763D03*
X40619000Y81303837D03*
X41718820Y82403657D03*
X40619000Y83503731D03*
X41718820Y84603551D03*
D21*
X37449080Y76461200D03*
X37449080Y85046400D03*
G04 #@! TD*
D22*
G04 #@! TO.C,POT_LENGTH1*
X31289000Y47919800D03*
X26289000Y47919800D03*
X21289000Y47919800D03*
G04 #@! TD*
D18*
G04 #@! TO.C,J2*
X35046000Y39186564D03*
X24073200Y39186564D03*
X26486200Y39186564D03*
G04 #@! TD*
D22*
G04 #@! TO.C,POT_PITCH1*
X71889000Y67507564D03*
X66889000Y67507564D03*
X61889000Y67507564D03*
G04 #@! TD*
D18*
G04 #@! TO.C,J7*
X33266000Y7961564D03*
X22293200Y7961564D03*
X24706200Y7961564D03*
G04 #@! TD*
G04 #@! TO.C,J6*
X13471000Y23386564D03*
X2498200Y23386564D03*
X4911200Y23386564D03*
G04 #@! TD*
G04 #@! TO.C,J4*
X61182000Y39186564D03*
X72154800Y39186564D03*
X69741800Y39186564D03*
G04 #@! TD*
D19*
G04 #@! TO.C,REV_BUT1*
X14539000Y104186564D03*
X8039000Y104186564D03*
X14539000Y99686564D03*
X8039000Y99686564D03*
D17*
X12189000Y104836564D03*
X10389000Y104836564D03*
X10389000Y99036564D03*
X12189000Y99036564D03*
G04 #@! TD*
D18*
G04 #@! TO.C,J5*
X13471000Y7961564D03*
X2498200Y7961564D03*
X4911200Y7961564D03*
G04 #@! TD*
G04 #@! TO.C,J9*
X55126000Y7961564D03*
X44153200Y7961564D03*
X46566200Y7961564D03*
G04 #@! TD*
G04 #@! TO.C,J8*
X74921000Y23386564D03*
X63948200Y23386564D03*
X66361200Y23386564D03*
G04 #@! TD*
G04 #@! TO.C,J1*
X53271000Y39186564D03*
X42298200Y39186564D03*
X44711200Y39186564D03*
G04 #@! TD*
G04 #@! TO.C,J11*
X74921000Y7961564D03*
X63948200Y7961564D03*
X66361200Y7961564D03*
G04 #@! TD*
G04 #@! TO.C,J13*
X33239000Y23386564D03*
X22266200Y23386564D03*
X24679200Y23386564D03*
G04 #@! TD*
D22*
G04 #@! TO.C,POT_START1*
X56689000Y47875481D03*
X51689000Y47875481D03*
X46689000Y47875481D03*
G04 #@! TD*
D19*
G04 #@! TO.C,PLAY_BUT1*
X41985000Y101911564D03*
X35993000Y101911564D03*
X41985000Y97411564D03*
X35993000Y97411564D03*
D17*
X39889000Y102561564D03*
X38089000Y102561564D03*
X38089000Y96761564D03*
X39889000Y96761564D03*
G04 #@! TD*
D22*
G04 #@! TO.C,POT_SAMP1*
X16089000Y67507564D03*
X11089000Y67507564D03*
X6089000Y67507564D03*
G04 #@! TD*
D18*
G04 #@! TO.C,J3*
X16871000Y39186564D03*
X5898200Y39186564D03*
X8311200Y39186564D03*
G04 #@! TD*
M02*
