G04 #@! TF.GenerationSoftware,KiCad,Pcbnew,7.0.1-0*
G04 #@! TF.CreationDate,2023-04-05T16:45:21-07:00*
G04 #@! TF.ProjectId,Kit-Trig-Sampler,4b69742d-5472-4696-972d-53616d706c65,rev?*
G04 #@! TF.SameCoordinates,PXb745f8PY7402318*
G04 #@! TF.FileFunction,Copper,L1,Top*
G04 #@! TF.FilePolarity,Positive*
%FSLAX46Y46*%
G04 Gerber Fmt 4.6, Leading zero omitted, Abs format (unit mm)*
G04 Created by KiCad (PCBNEW 7.0.1-0) date 2023-04-05 16:45:21*
%MOMM*%
%LPD*%
G01*
G04 APERTURE LIST*
G04 #@! TA.AperFunction,ComponentPad*
%ADD10C,1.397000*%
G04 #@! TD*
G04 #@! TA.AperFunction,ComponentPad*
%ADD11C,1.600000*%
G04 #@! TD*
G04 #@! TA.AperFunction,ComponentPad*
%ADD12R,1.600000X1.600000*%
G04 #@! TD*
G04 #@! TA.AperFunction,ComponentPad*
%ADD13O,1.600000X1.600000*%
G04 #@! TD*
G04 #@! TA.AperFunction,ComponentPad*
%ADD14R,1.700000X1.700000*%
G04 #@! TD*
G04 #@! TA.AperFunction,ComponentPad*
%ADD15O,1.700000X1.700000*%
G04 #@! TD*
G04 #@! TA.AperFunction,ComponentPad*
%ADD16R,1.500000X1.500000*%
G04 #@! TD*
G04 #@! TA.AperFunction,ComponentPad*
%ADD17C,1.500000*%
G04 #@! TD*
G04 #@! TA.AperFunction,ComponentPad*
%ADD18C,1.930400*%
G04 #@! TD*
G04 #@! TA.AperFunction,ComponentPad*
%ADD19C,1.300000*%
G04 #@! TD*
G04 #@! TA.AperFunction,ComponentPad*
%ADD20O,1.397000X1.092200*%
G04 #@! TD*
G04 #@! TA.AperFunction,ComponentPad*
%ADD21O,1.524000X1.524000*%
G04 #@! TD*
G04 #@! TA.AperFunction,ComponentPad*
%ADD22C,2.286000*%
G04 #@! TD*
G04 #@! TA.AperFunction,ViaPad*
%ADD23C,0.800000*%
G04 #@! TD*
G04 #@! TA.AperFunction,Conductor*
%ADD24C,0.250000*%
G04 #@! TD*
G04 APERTURE END LIST*
D10*
G04 #@! TO.P,R17,1*
G04 #@! TO.N,Net-(J5-SIG)*
X35949000Y19623800D03*
G04 #@! TO.P,R17,2*
G04 #@! TO.N,/D2*
X43569000Y19623800D03*
G04 #@! TD*
D11*
G04 #@! TO.P,C7,1*
G04 #@! TO.N,+12V*
X60017200Y11643800D03*
G04 #@! TO.P,C7,2*
G04 #@! TO.N,GND*
X62608000Y11643800D03*
G04 #@! TD*
G04 #@! TO.P,C17,1*
G04 #@! TO.N,/D12*
X35017200Y93743800D03*
G04 #@! TO.P,C17,2*
G04 #@! TO.N,GND*
X37608000Y93743800D03*
G04 #@! TD*
D10*
G04 #@! TO.P,R26,1*
G04 #@! TO.N,Net-(PLAY_BUT1-POLE-A)*
X40299000Y90043800D03*
G04 #@! TO.P,R26,2*
G04 #@! TO.N,/D12*
X32679000Y90043800D03*
G04 #@! TD*
G04 #@! TO.P,R2,1*
G04 #@! TO.N,Net-(J1-SIG)*
X39089000Y44153800D03*
G04 #@! TO.P,R2,2*
G04 #@! TO.N,/A0*
X39089000Y36533800D03*
G04 #@! TD*
G04 #@! TO.P,R37,1*
G04 #@! TO.N,Net-(R37-Pad1)*
X75759000Y52983800D03*
G04 #@! TO.P,R37,2*
G04 #@! TO.N,Net-(U1B-+)*
X75759000Y60603800D03*
G04 #@! TD*
D12*
G04 #@! TO.P,D2,1,K*
G04 #@! TO.N,Net-(D2-K)*
X52999000Y16043800D03*
D13*
G04 #@! TO.P,D2,2,A*
G04 #@! TO.N,-12VA*
X45379000Y16043800D03*
G04 #@! TD*
D10*
G04 #@! TO.P,R33,1*
G04 #@! TO.N,Net-(J13-SIG)*
X43979000Y27093800D03*
G04 #@! TO.P,R33,2*
G04 #@! TO.N,/A4*
X36359000Y27093800D03*
G04 #@! TD*
D14*
G04 #@! TO.P,JC1,1,+12V*
G04 #@! TO.N,/A0*
X34340978Y30080000D03*
D15*
G04 #@! TO.P,JC1,2,+12V*
G04 #@! TO.N,/A1*
X34340978Y32620000D03*
G04 #@! TO.P,JC1,3,GND*
G04 #@! TO.N,/A2*
X31800978Y30080000D03*
G04 #@! TO.P,JC1,4,GND*
G04 #@! TO.N,/A3*
X31800978Y32620000D03*
G04 #@! TO.P,JC1,5,GND*
G04 #@! TO.N,/A4*
X29260978Y30080000D03*
G04 #@! TO.P,JC1,6,GND*
G04 #@! TO.N,/A5*
X29260978Y32620000D03*
G04 #@! TO.P,JC1,7,GND*
G04 #@! TO.N,/A6*
X26720978Y30080000D03*
G04 #@! TO.P,JC1,8,GND*
G04 #@! TO.N,/A7*
X26720978Y32620000D03*
G04 #@! TO.P,JC1,9,-12V*
G04 #@! TO.N,/A8*
X24180978Y30080000D03*
G04 #@! TO.P,JC1,10,-12V*
G04 #@! TO.N,/A9*
X24180978Y32620000D03*
G04 #@! TD*
D10*
G04 #@! TO.P,R16,1*
G04 #@! TO.N,Net-(R16-Pad1)*
X31489000Y95333800D03*
G04 #@! TO.P,R16,2*
G04 #@! TO.N,Net-(Bank_But1-B)*
X31489000Y102953800D03*
G04 #@! TD*
D11*
G04 #@! TO.P,C1,1*
G04 #@! TO.N,/A1*
X58389000Y70472000D03*
G04 #@! TO.P,C1,2*
G04 #@! TO.N,GNDADC*
X58389000Y73062800D03*
G04 #@! TD*
D12*
G04 #@! TO.P,C4,1*
G04 #@! TO.N,+12V*
X60189000Y17243800D03*
D11*
G04 #@! TO.P,C4,2*
G04 #@! TO.N,GND*
X62689000Y17243800D03*
G04 #@! TD*
D10*
G04 #@! TO.P,R5,1*
G04 #@! TO.N,GND*
X41989000Y53253800D03*
G04 #@! TO.P,R5,2*
G04 #@! TO.N,/A0*
X41989000Y45633800D03*
G04 #@! TD*
G04 #@! TO.P,R14,1*
G04 #@! TO.N,Net-(U2A--)*
X3089000Y45963800D03*
G04 #@! TO.P,R14,2*
G04 #@! TO.N,Net-(C11-Pad2)*
X3089000Y38343800D03*
G04 #@! TD*
G04 #@! TO.P,R25,1*
G04 #@! TO.N,Net-(Bank_But1-POLE-A)*
X71805800Y97104200D03*
G04 #@! TO.P,R25,2*
G04 #@! TO.N,/D6*
X71805800Y89484200D03*
G04 #@! TD*
D11*
G04 #@! TO.P,C15,1*
G04 #@! TO.N,-12VA*
X8078200Y52133800D03*
G04 #@! TO.P,C15,2*
G04 #@! TO.N,GND*
X10669000Y52133800D03*
G04 #@! TD*
D12*
G04 #@! TO.P,C19,1*
G04 #@! TO.N,+12V*
X57264000Y100818800D03*
D11*
G04 #@! TO.P,C19,2*
G04 #@! TO.N,GND*
X59764000Y100818800D03*
G04 #@! TD*
D12*
G04 #@! TO.P,C20,1*
G04 #@! TO.N,+3V3*
X47189000Y98218800D03*
D11*
G04 #@! TO.P,C20,2*
G04 #@! TO.N,GND*
X49689000Y98218800D03*
G04 #@! TD*
D12*
G04 #@! TO.P,D1,1,K*
G04 #@! TO.N,+12V*
X26479000Y15343800D03*
D13*
G04 #@! TO.P,D1,2,A*
G04 #@! TO.N,Net-(D1-A)*
X34099000Y15343800D03*
G04 #@! TD*
D11*
G04 #@! TO.P,C13,1*
G04 #@! TO.N,-12VA*
X72289000Y46115600D03*
G04 #@! TO.P,C13,2*
G04 #@! TO.N,GND*
X72289000Y43524800D03*
G04 #@! TD*
D10*
G04 #@! TO.P,R23,1*
G04 #@! TO.N,Net-(PLAY_BUT1-G)*
X54189000Y78253800D03*
G04 #@! TO.P,R23,2*
G04 #@! TO.N,/D14*
X54189000Y70633800D03*
G04 #@! TD*
D11*
G04 #@! TO.P,C9,1*
G04 #@! TO.N,/A7*
X23160800Y42743800D03*
G04 #@! TO.P,C9,2*
G04 #@! TO.N,GNDADC*
X20570000Y42743800D03*
G04 #@! TD*
D12*
G04 #@! TO.P,U1,1*
G04 #@! TO.N,Net-(U1A--)*
X60789000Y49633800D03*
D13*
G04 #@! TO.P,U1,2,-*
X63329000Y49633800D03*
G04 #@! TO.P,U1,3,+*
G04 #@! TO.N,Net-(U1A-+)*
X65869000Y49633800D03*
G04 #@! TO.P,U1,4,V-*
G04 #@! TO.N,-12VA*
X68409000Y49633800D03*
G04 #@! TO.P,U1,5,+*
G04 #@! TO.N,Net-(U1B-+)*
X68409000Y57253800D03*
G04 #@! TO.P,U1,6,-*
G04 #@! TO.N,Net-(U1B--)*
X65869000Y57253800D03*
G04 #@! TO.P,U1,7*
G04 #@! TO.N,/A2*
X63329000Y57253800D03*
G04 #@! TO.P,U1,8,V+*
G04 #@! TO.N,+12V*
X60789000Y57253800D03*
G04 #@! TD*
D10*
G04 #@! TO.P,R30,1*
G04 #@! TO.N,+3V3*
X51562000Y72415400D03*
G04 #@! TO.P,R30,2*
G04 #@! TO.N,/D4*
X43942000Y72415400D03*
G04 #@! TD*
G04 #@! TO.P,R21,1*
G04 #@! TO.N,Net-(R21-Pad1)*
X10219000Y95703800D03*
G04 #@! TO.P,R21,2*
G04 #@! TO.N,Net-(REV_BUT1-R)*
X17839000Y95703800D03*
G04 #@! TD*
G04 #@! TO.P,R20,1*
G04 #@! TO.N,Net-(J6-SIG)*
X4829000Y29753800D03*
G04 #@! TO.P,R20,2*
G04 #@! TO.N,/D13*
X12449000Y29753800D03*
G04 #@! TD*
D15*
G04 #@! TO.P,J14,1,+12V*
G04 #@! TO.N,Net-(D1-A)*
X37819000Y13823800D03*
G04 #@! TO.P,J14,2,+12V*
X40359000Y13823800D03*
G04 #@! TO.P,J14,3,GND*
G04 #@! TO.N,GND*
X37819000Y11283800D03*
G04 #@! TO.P,J14,4,GND*
X40359000Y11283800D03*
G04 #@! TO.P,J14,5,GND*
X37819000Y8743800D03*
G04 #@! TO.P,J14,6,GND*
X40359000Y8743800D03*
G04 #@! TO.P,J14,7,GND*
X37819000Y6203800D03*
G04 #@! TO.P,J14,8,GND*
X40359000Y6203800D03*
G04 #@! TO.P,J14,9,-12V*
G04 #@! TO.N,Net-(D2-K)*
X37819000Y3663800D03*
G04 #@! TO.P,J14,10,-12V*
X40359000Y3663800D03*
G04 #@! TD*
D10*
G04 #@! TO.P,R4,1*
G04 #@! TO.N,Net-(J3-SIG)*
X20289000Y39153800D03*
G04 #@! TO.P,R4,2*
G04 #@! TO.N,/A8*
X20289000Y31533800D03*
G04 #@! TD*
G04 #@! TO.P,R28,1*
G04 #@! TO.N,+3V3*
X21589000Y81333800D03*
G04 #@! TO.P,R28,2*
G04 #@! TO.N,/D18*
X21589000Y88953800D03*
G04 #@! TD*
G04 #@! TO.P,R40,1*
G04 #@! TO.N,/D5*
X27079000Y95173800D03*
G04 #@! TO.P,R40,2*
G04 #@! TO.N,Net-(R16-Pad1)*
X27079000Y102793800D03*
G04 #@! TD*
G04 #@! TO.P,R1,1*
G04 #@! TO.N,Net-(J4-SIG)*
X75639000Y33043800D03*
G04 #@! TO.P,R1,2*
G04 #@! TO.N,Net-(U1A-+)*
X75639000Y40663800D03*
G04 #@! TD*
G04 #@! TO.P,R41,1*
G04 #@! TO.N,/D7*
X18149000Y91653800D03*
G04 #@! TO.P,R41,2*
G04 #@! TO.N,Net-(R21-Pad1)*
X10529000Y91653800D03*
G04 #@! TD*
G04 #@! TO.P,R12,1*
G04 #@! TO.N,/D15*
X47099000Y32343800D03*
G04 #@! TO.P,R12,2*
G04 #@! TO.N,Net-(U2A-+)*
X39479000Y32343800D03*
G04 #@! TD*
D11*
G04 #@! TO.P,C8,1*
G04 #@! TO.N,-12VA*
X19709800Y10943800D03*
G04 #@! TO.P,C8,2*
G04 #@! TO.N,GND*
X17119000Y10943800D03*
G04 #@! TD*
D10*
G04 #@! TO.P,R27,1*
G04 #@! TO.N,+3V3*
X7061200Y96875600D03*
G04 #@! TO.P,R27,2*
G04 #@! TO.N,/A6*
X7061200Y89255600D03*
G04 #@! TD*
D11*
G04 #@! TO.P,C6,1*
G04 #@! TO.N,/A2*
X67774400Y63743800D03*
G04 #@! TO.P,C6,2*
G04 #@! TO.N,Net-(U1B--)*
X72854400Y63743800D03*
G04 #@! TD*
D10*
G04 #@! TO.P,R6,1*
G04 #@! TO.N,GND*
X38589000Y56553800D03*
G04 #@! TO.P,R6,2*
G04 #@! TO.N,/A5*
X38589000Y48933800D03*
G04 #@! TD*
G04 #@! TO.P,R9,1*
G04 #@! TO.N,GND*
X75759000Y42963800D03*
G04 #@! TO.P,R9,2*
G04 #@! TO.N,Net-(R37-Pad1)*
X75759000Y50583800D03*
G04 #@! TD*
G04 #@! TO.P,R32,1*
G04 #@! TO.N,+3V3*
X24879000Y75143800D03*
G04 #@! TO.P,R32,2*
G04 #@! TO.N,/D17*
X32499000Y75143800D03*
G04 #@! TD*
D11*
G04 #@! TO.P,C2,1*
G04 #@! TO.N,/A9*
X20017200Y71343800D03*
G04 #@! TO.P,C2,2*
G04 #@! TO.N,GNDADC*
X22608000Y71343800D03*
G04 #@! TD*
D10*
G04 #@! TO.P,R13,1*
G04 #@! TO.N,GND*
X10329000Y46143800D03*
G04 #@! TO.P,R13,2*
G04 #@! TO.N,Net-(U2A--)*
X17949000Y46143800D03*
G04 #@! TD*
G04 #@! TO.P,R19,1*
G04 #@! TO.N,/D8*
X45089000Y76663800D03*
G04 #@! TO.P,R19,2*
G04 #@! TO.N,Net-(PLAY_BUT1-R)*
X45089000Y84283800D03*
G04 #@! TD*
D12*
G04 #@! TO.P,C5,1*
G04 #@! TO.N,GND*
X17139000Y16443800D03*
D11*
G04 #@! TO.P,C5,2*
G04 #@! TO.N,-12VA*
X19639000Y16443800D03*
G04 #@! TD*
G04 #@! TO.P,C14,1*
G04 #@! TO.N,+12V*
X2489000Y60915600D03*
G04 #@! TO.P,C14,2*
G04 #@! TO.N,GND*
X2489000Y58324800D03*
G04 #@! TD*
D10*
G04 #@! TO.P,R34,1*
G04 #@! TO.N,GND*
X17189000Y21533800D03*
G04 #@! TO.P,R34,2*
G04 #@! TO.N,/A4*
X17189000Y29153800D03*
G04 #@! TD*
D14*
G04 #@! TO.P,JA1,1,+12V*
G04 #@! TO.N,-12VA*
X57531000Y91429992D03*
D15*
G04 #@! TO.P,JA1,2,+12V*
G04 #@! TO.N,VREF+*
X54991000Y91429992D03*
G04 #@! TO.P,JA1,3,GND*
G04 #@! TO.N,/D11*
X57531000Y88889992D03*
G04 #@! TO.P,JA1,4,GND*
G04 #@! TO.N,/D10*
X54991000Y88889992D03*
G04 #@! TO.P,JA1,5,GND*
G04 #@! TO.N,/D14*
X57531000Y86349992D03*
G04 #@! TO.P,JA1,6,GND*
G04 #@! TO.N,/D12*
X54991000Y86349992D03*
G04 #@! TO.P,JA1,7,GND*
G04 #@! TO.N,GND*
X57531000Y83809992D03*
G04 #@! TO.P,JA1,8,GND*
G04 #@! TO.N,GNDADC*
X54991000Y83809992D03*
G04 #@! TO.P,JA1,9,-12V*
G04 #@! TO.N,+12V*
X57531000Y81269992D03*
G04 #@! TO.P,JA1,10,-12V*
G04 #@! TO.N,/Unused(5V)*
X54991000Y81269992D03*
G04 #@! TD*
D10*
G04 #@! TO.P,R31,1*
G04 #@! TO.N,+3V3*
X49649000Y75813800D03*
G04 #@! TO.P,R31,2*
G04 #@! TO.N,/D16*
X49649000Y83433800D03*
G04 #@! TD*
D12*
G04 #@! TO.P,U2,1*
G04 #@! TO.N,Net-(C11-Pad2)*
X5989000Y55333800D03*
D13*
G04 #@! TO.P,U2,2,-*
G04 #@! TO.N,Net-(U2A--)*
X8529000Y55333800D03*
G04 #@! TO.P,U2,3,+*
G04 #@! TO.N,Net-(U2A-+)*
X11069000Y55333800D03*
G04 #@! TO.P,U2,4,V-*
G04 #@! TO.N,-12VA*
X13609000Y55333800D03*
G04 #@! TO.P,U2,5,+*
G04 #@! TO.N,GND*
X13609000Y62953800D03*
G04 #@! TO.P,U2,6,-*
G04 #@! TO.N,Net-(U2B--)*
X11069000Y62953800D03*
G04 #@! TO.P,U2,7*
X8529000Y62953800D03*
G04 #@! TO.P,U2,8,V+*
G04 #@! TO.N,+12V*
X5989000Y62953800D03*
G04 #@! TD*
D10*
G04 #@! TO.P,R7,1*
G04 #@! TO.N,GND*
X8919000Y32673800D03*
G04 #@! TO.P,R7,2*
G04 #@! TO.N,/A8*
X16539000Y32673800D03*
G04 #@! TD*
D16*
G04 #@! TO.P,U3,1,VO*
G04 #@! TO.N,+3V3*
X46724000Y104026300D03*
D17*
G04 #@! TO.P,U3,2,GND*
G04 #@! TO.N,GND*
X49264000Y104026300D03*
G04 #@! TO.P,U3,3,VI*
G04 #@! TO.N,+12V*
X51804000Y104026300D03*
G04 #@! TD*
D11*
G04 #@! TO.P,C12,1*
G04 #@! TO.N,+12V*
X60889000Y60872000D03*
G04 #@! TO.P,C12,2*
G04 #@! TO.N,GND*
X60889000Y63462800D03*
G04 #@! TD*
G04 #@! TO.P,C16,1*
G04 #@! TO.N,/D6*
X23089000Y95543800D03*
G04 #@! TO.P,C16,2*
G04 #@! TO.N,GND*
X23089000Y98134600D03*
G04 #@! TD*
D10*
G04 #@! TO.P,R11,1*
G04 #@! TO.N,Net-(U1B-+)*
X71789000Y56853800D03*
G04 #@! TO.P,R11,2*
G04 #@! TO.N,VREF+*
X71789000Y49233800D03*
G04 #@! TD*
G04 #@! TO.P,R10,1*
G04 #@! TO.N,/A2*
X65879000Y60543800D03*
G04 #@! TO.P,R10,2*
G04 #@! TO.N,Net-(U1B--)*
X73499000Y60543800D03*
G04 #@! TD*
G04 #@! TO.P,R15,1*
G04 #@! TO.N,Net-(C11-Pad2)*
X2239000Y36093800D03*
G04 #@! TO.P,R15,2*
G04 #@! TO.N,Net-(J7-SIG)*
X2239000Y28473800D03*
G04 #@! TD*
D11*
G04 #@! TO.P,C11,1*
G04 #@! TO.N,Net-(U2A--)*
X6883600Y48763800D03*
G04 #@! TO.P,C11,2*
G04 #@! TO.N,Net-(C11-Pad2)*
X1803600Y48763800D03*
G04 #@! TD*
D10*
G04 #@! TO.P,R18,1*
G04 #@! TO.N,/D11*
X51189000Y87553800D03*
G04 #@! TO.P,R18,2*
G04 #@! TO.N,Net-(PLAY_BUT1-B)*
X43569000Y87553800D03*
G04 #@! TD*
D14*
G04 #@! TO.P,JB1,1,+12V*
G04 #@! TO.N,/AUDIO_OUT2*
X60341002Y30080000D03*
D15*
G04 #@! TO.P,JB1,2,+12V*
G04 #@! TO.N,/D0*
X60341002Y32620000D03*
G04 #@! TO.P,JB1,3,GND*
G04 #@! TO.N,/AUDIO_OUT1*
X57801002Y30080000D03*
G04 #@! TO.P,JB1,4,GND*
G04 #@! TO.N,/D1*
X57801002Y32620000D03*
G04 #@! TO.P,JB1,5,GND*
G04 #@! TO.N,/AUDIO_IN2*
X55261002Y30080000D03*
G04 #@! TO.P,JB1,6,GND*
G04 #@! TO.N,/D15*
X55261002Y32620000D03*
G04 #@! TO.P,JB1,7,GND*
G04 #@! TO.N,/AUDIO_IN1*
X52721002Y30080000D03*
G04 #@! TO.P,JB1,8,GND*
G04 #@! TO.N,/D13*
X52721002Y32620000D03*
G04 #@! TO.P,JB1,9,-12V*
G04 #@! TO.N,/D3*
X50181002Y30080000D03*
G04 #@! TO.P,JB1,10,-12V*
G04 #@! TO.N,/D2*
X50181002Y32620000D03*
G04 #@! TD*
D10*
G04 #@! TO.P,R8,1*
G04 #@! TO.N,Net-(U1A--)*
X59979000Y46043800D03*
G04 #@! TO.P,R8,2*
G04 #@! TO.N,Net-(U1B--)*
X67599000Y46043800D03*
G04 #@! TD*
D11*
G04 #@! TO.P,C3,1*
G04 #@! TO.N,GND*
X76089000Y67115600D03*
G04 #@! TO.P,C3,2*
G04 #@! TO.N,Net-(U1B-+)*
X76089000Y64524800D03*
G04 #@! TD*
D14*
G04 #@! TO.P,JD1,1,+12V*
G04 #@! TO.N,/D5*
X29530980Y91429992D03*
D15*
G04 #@! TO.P,JD1,2,+12V*
G04 #@! TO.N,/D6*
X26990980Y91429992D03*
G04 #@! TO.P,JD1,3,GND*
G04 #@! TO.N,/D19*
X29530980Y88889992D03*
G04 #@! TO.P,JD1,4,GND*
G04 #@! TO.N,/D8*
X26990980Y88889992D03*
G04 #@! TO.P,JD1,5,GND*
G04 #@! TO.N,/D18*
X29530980Y86349992D03*
G04 #@! TO.P,JD1,6,GND*
G04 #@! TO.N,/D7*
X26990980Y86349992D03*
G04 #@! TO.P,JD1,7,GND*
G04 #@! TO.N,/D17*
X29530980Y83809992D03*
G04 #@! TO.P,JD1,8,GND*
G04 #@! TO.N,/D4*
X26990980Y83809992D03*
G04 #@! TO.P,JD1,9,-12V*
G04 #@! TO.N,/D16*
X29530980Y81269992D03*
G04 #@! TO.P,JD1,10,-12V*
G04 #@! TO.N,/D9*
X26990980Y81269992D03*
G04 #@! TD*
D10*
G04 #@! TO.P,R3,1*
G04 #@! TO.N,Net-(J2-SIG)*
X35189000Y54253800D03*
G04 #@! TO.P,R3,2*
G04 #@! TO.N,/A5*
X35189000Y46633800D03*
G04 #@! TD*
D11*
G04 #@! TO.P,C10,1*
G04 #@! TO.N,/A3*
X55717200Y41743800D03*
G04 #@! TO.P,C10,2*
G04 #@! TO.N,GNDADC*
X58308000Y41743800D03*
G04 #@! TD*
D18*
G04 #@! TO.P,J10,1,SIG*
G04 #@! TO.N,/AUDIO_IN1*
X55153000Y23386564D03*
G04 #@! TO.P,J10,2,SHEILD*
G04 #@! TO.N,GND*
X44180200Y23386564D03*
G04 #@! TO.P,J10,3,SW*
G04 #@! TO.N,unconnected-(J10-SW-Pad3)*
X46593200Y23386564D03*
G04 #@! TD*
D11*
G04 #@! TO.P,Bank_But1,1,UP-A*
G04 #@! TO.N,unconnected-(Bank_But1-UP-A-Pad1)*
X69939000Y104186564D03*
G04 #@! TO.P,Bank_But1,2,POLE-A*
G04 #@! TO.N,Net-(Bank_But1-POLE-A)*
X63439000Y104186564D03*
G04 #@! TO.P,Bank_But1,3,DOWN-A*
G04 #@! TO.N,unconnected-(Bank_But1-DOWN-A-Pad3)*
X69939000Y99686564D03*
G04 #@! TO.P,Bank_But1,4,UP-B*
G04 #@! TO.N,GND*
X63439000Y99686564D03*
D19*
G04 #@! TO.P,Bank_But1,5,CA*
G04 #@! TO.N,+3V3*
X67589000Y104836564D03*
G04 #@! TO.P,Bank_But1,6,G*
G04 #@! TO.N,/D0*
X65789000Y104836564D03*
G04 #@! TO.P,Bank_But1,7,R*
G04 #@! TO.N,/D1*
X65789000Y99036564D03*
G04 #@! TO.P,Bank_But1,8,B*
G04 #@! TO.N,Net-(Bank_But1-B)*
X67589000Y99036564D03*
G04 #@! TD*
D20*
G04 #@! TO.P,SD1,1,DAT2*
G04 #@! TO.N,/D18*
X40619000Y76904049D03*
G04 #@! TO.P,SD1,2,CD/DAT3*
G04 #@! TO.N,/D19*
X41718820Y78003869D03*
G04 #@! TO.P,SD1,3,CMD*
G04 #@! TO.N,/D4*
X40619000Y79103943D03*
G04 #@! TO.P,SD1,4,VDD*
G04 #@! TO.N,+3V3*
X41718820Y80203763D03*
G04 #@! TO.P,SD1,5,CLK*
G04 #@! TO.N,/D9*
X40619000Y81303837D03*
G04 #@! TO.P,SD1,6,VSS*
G04 #@! TO.N,GND*
X41718820Y82403657D03*
G04 #@! TO.P,SD1,7,DAT0*
G04 #@! TO.N,/D16*
X40619000Y83503731D03*
G04 #@! TO.P,SD1,8,DAT1*
G04 #@! TO.N,/D17*
X41718820Y84603551D03*
D21*
G04 #@! TO.P,SD1,9,SHELL1*
G04 #@! TO.N,GND*
X37449080Y76461200D03*
G04 #@! TO.P,SD1,10,SHELL2*
X37449080Y85046400D03*
G04 #@! TD*
D22*
G04 #@! TO.P,POT_LENGTH1,1,Left*
G04 #@! TO.N,GNDADC*
X31289000Y47919800D03*
G04 #@! TO.P,POT_LENGTH1,2,Center*
G04 #@! TO.N,/A7*
X26289000Y47919800D03*
G04 #@! TO.P,POT_LENGTH1,3,Right*
G04 #@! TO.N,VREF+*
X21289000Y47919800D03*
G04 #@! TD*
D18*
G04 #@! TO.P,J2,1,SIG*
G04 #@! TO.N,Net-(J2-SIG)*
X35046000Y39186564D03*
G04 #@! TO.P,J2,2,SHEILD*
G04 #@! TO.N,GND*
X24073200Y39186564D03*
G04 #@! TO.P,J2,3,SW*
X26486200Y39186564D03*
G04 #@! TD*
D22*
G04 #@! TO.P,POT_PITCH1,1,Left*
G04 #@! TO.N,GNDADC*
X71889000Y67507564D03*
G04 #@! TO.P,POT_PITCH1,2,Center*
G04 #@! TO.N,/A1*
X66889000Y67507564D03*
G04 #@! TO.P,POT_PITCH1,3,Right*
G04 #@! TO.N,VREF+*
X61889000Y67507564D03*
G04 #@! TD*
D18*
G04 #@! TO.P,J7,1,SIG*
G04 #@! TO.N,Net-(J7-SIG)*
X33266000Y7961564D03*
G04 #@! TO.P,J7,2,SHEILD*
G04 #@! TO.N,GND*
X22293200Y7961564D03*
G04 #@! TO.P,J7,3,SW*
G04 #@! TO.N,unconnected-(J7-SW-Pad3)*
X24706200Y7961564D03*
G04 #@! TD*
G04 #@! TO.P,J6,1,SIG*
G04 #@! TO.N,Net-(J6-SIG)*
X13471000Y23386564D03*
G04 #@! TO.P,J6,2,SHEILD*
G04 #@! TO.N,GND*
X2498200Y23386564D03*
G04 #@! TO.P,J6,3,SW*
X4911200Y23386564D03*
G04 #@! TD*
G04 #@! TO.P,J4,1,SIG*
G04 #@! TO.N,Net-(J4-SIG)*
X61182000Y39186564D03*
G04 #@! TO.P,J4,2,SHEILD*
G04 #@! TO.N,GND*
X72154800Y39186564D03*
G04 #@! TO.P,J4,3,SW*
X69741800Y39186564D03*
G04 #@! TD*
D11*
G04 #@! TO.P,REV_BUT1,1,UP-A*
G04 #@! TO.N,unconnected-(REV_BUT1-UP-A-Pad1)*
X14539000Y104186564D03*
G04 #@! TO.P,REV_BUT1,2,POLE-A*
G04 #@! TO.N,/A6*
X8039000Y104186564D03*
G04 #@! TO.P,REV_BUT1,3,DOWN-A*
G04 #@! TO.N,unconnected-(REV_BUT1-DOWN-A-Pad3)*
X14539000Y99686564D03*
G04 #@! TO.P,REV_BUT1,4,UP-B*
G04 #@! TO.N,GND*
X8039000Y99686564D03*
D19*
G04 #@! TO.P,REV_BUT1,5,CA*
G04 #@! TO.N,+3V3*
X12189000Y104836564D03*
G04 #@! TO.P,REV_BUT1,6,G*
G04 #@! TO.N,/D10*
X10389000Y104836564D03*
G04 #@! TO.P,REV_BUT1,7,R*
G04 #@! TO.N,Net-(REV_BUT1-R)*
X10389000Y99036564D03*
G04 #@! TO.P,REV_BUT1,8,B*
G04 #@! TO.N,/D3*
X12189000Y99036564D03*
G04 #@! TD*
D18*
G04 #@! TO.P,J5,1,SIG*
G04 #@! TO.N,Net-(J5-SIG)*
X13471000Y7961564D03*
G04 #@! TO.P,J5,2,SHEILD*
G04 #@! TO.N,GND*
X2498200Y7961564D03*
G04 #@! TO.P,J5,3,SW*
X4911200Y7961564D03*
G04 #@! TD*
G04 #@! TO.P,J9,1,SIG*
G04 #@! TO.N,/AUDIO_OUT1*
X55126000Y7961564D03*
G04 #@! TO.P,J9,2,SHEILD*
G04 #@! TO.N,GND*
X44153200Y7961564D03*
G04 #@! TO.P,J9,3,SW*
G04 #@! TO.N,unconnected-(J9-SW-Pad3)*
X46566200Y7961564D03*
G04 #@! TD*
G04 #@! TO.P,J8,1,SIG*
G04 #@! TO.N,/AUDIO_IN2*
X74921000Y23386564D03*
G04 #@! TO.P,J8,2,SHEILD*
G04 #@! TO.N,GND*
X63948200Y23386564D03*
G04 #@! TO.P,J8,3,SW*
G04 #@! TO.N,unconnected-(J8-SW-Pad3)*
X66361200Y23386564D03*
G04 #@! TD*
G04 #@! TO.P,J1,1,SIG*
G04 #@! TO.N,Net-(J1-SIG)*
X53271000Y39186564D03*
G04 #@! TO.P,J1,2,SHEILD*
G04 #@! TO.N,GND*
X42298200Y39186564D03*
G04 #@! TO.P,J1,3,SW*
X44711200Y39186564D03*
G04 #@! TD*
G04 #@! TO.P,J11,1,SIG*
G04 #@! TO.N,/AUDIO_OUT2*
X74921000Y7961564D03*
G04 #@! TO.P,J11,2,SHEILD*
G04 #@! TO.N,GND*
X63948200Y7961564D03*
G04 #@! TO.P,J11,3,SW*
G04 #@! TO.N,unconnected-(J11-SW-Pad3)*
X66361200Y7961564D03*
G04 #@! TD*
G04 #@! TO.P,J13,1,SIG*
G04 #@! TO.N,Net-(J13-SIG)*
X33239000Y23386564D03*
G04 #@! TO.P,J13,2,SHEILD*
G04 #@! TO.N,GND*
X22266200Y23386564D03*
G04 #@! TO.P,J13,3,SW*
X24679200Y23386564D03*
G04 #@! TD*
D22*
G04 #@! TO.P,POT_START1,1,Left*
G04 #@! TO.N,GNDADC*
X56689000Y47875481D03*
G04 #@! TO.P,POT_START1,2,Center*
G04 #@! TO.N,/A3*
X51689000Y47875481D03*
G04 #@! TO.P,POT_START1,3,Right*
G04 #@! TO.N,VREF+*
X46689000Y47875481D03*
G04 #@! TD*
D11*
G04 #@! TO.P,PLAY_BUT1,1,UP-A*
G04 #@! TO.N,unconnected-(PLAY_BUT1-UP-A-Pad1)*
X41985000Y101911564D03*
G04 #@! TO.P,PLAY_BUT1,2,POLE-A*
G04 #@! TO.N,Net-(PLAY_BUT1-POLE-A)*
X35993000Y101911564D03*
G04 #@! TO.P,PLAY_BUT1,3,DOWN-A*
G04 #@! TO.N,unconnected-(PLAY_BUT1-DOWN-A-Pad3)*
X41985000Y97411564D03*
G04 #@! TO.P,PLAY_BUT1,4,UP-B*
G04 #@! TO.N,GND*
X35993000Y97411564D03*
D19*
G04 #@! TO.P,PLAY_BUT1,5,CA*
G04 #@! TO.N,+3V3*
X39889000Y102561564D03*
G04 #@! TO.P,PLAY_BUT1,6,G*
G04 #@! TO.N,Net-(PLAY_BUT1-G)*
X38089000Y102561564D03*
G04 #@! TO.P,PLAY_BUT1,7,R*
G04 #@! TO.N,Net-(PLAY_BUT1-R)*
X38089000Y96761564D03*
G04 #@! TO.P,PLAY_BUT1,8,B*
G04 #@! TO.N,Net-(PLAY_BUT1-B)*
X39889000Y96761564D03*
G04 #@! TD*
D22*
G04 #@! TO.P,POT_SAMP1,1,Left*
G04 #@! TO.N,GNDADC*
X16089000Y67507564D03*
G04 #@! TO.P,POT_SAMP1,2,Center*
G04 #@! TO.N,/A9*
X11089000Y67507564D03*
G04 #@! TO.P,POT_SAMP1,3,Right*
G04 #@! TO.N,VREF+*
X6089000Y67507564D03*
G04 #@! TD*
D18*
G04 #@! TO.P,J3,1,SIG*
G04 #@! TO.N,Net-(J3-SIG)*
X16871000Y39186564D03*
G04 #@! TO.P,J3,2,SHEILD*
G04 #@! TO.N,GND*
X5898200Y39186564D03*
G04 #@! TO.P,J3,3,SW*
X8311200Y39186564D03*
G04 #@! TD*
D23*
G04 #@! TO.N,GND*
X59314000Y93743800D03*
X49439000Y95218800D03*
X37279000Y82633800D03*
X47283500Y87254800D03*
X47953500Y89819300D03*
X34031701Y81276501D03*
X48046299Y83641099D03*
G04 #@! TO.N,+3V3*
X31519000Y77973800D03*
G04 #@! TO.N,+12V*
X60389000Y83368800D03*
X63889000Y52243800D03*
X16289000Y18293300D03*
G04 #@! TO.N,-12VA*
X15849000Y46013800D03*
X63609000Y55763800D03*
X62169000Y74043800D03*
X12989000Y18043800D03*
X61889000Y27043800D03*
X56189000Y21143800D03*
G04 #@! TO.N,/A2*
X55789000Y49943800D03*
X41789000Y50743800D03*
G04 #@! TO.N,/A7*
X24389000Y45943800D03*
G04 #@! TO.N,/A6*
X22989000Y36743800D03*
X17335343Y59190143D03*
G04 #@! TO.N,/D6*
X59664500Y90918800D03*
G04 #@! TO.N,/A9*
X22189000Y45143800D03*
X24489000Y49643800D03*
G04 #@! TO.N,Net-(U1B--)*
X61189000Y53793300D03*
G04 #@! TO.N,/D13*
X39089000Y24343800D03*
X36189000Y24343800D03*
G04 #@! TO.N,/AUDIO_IN2*
X64589000Y30443800D03*
G04 #@! TO.N,Net-(J1-SIG)*
X42538899Y42243800D03*
X48121701Y39801099D03*
G04 #@! TO.N,VREF+*
X60429000Y52943800D03*
X66879000Y53736099D03*
X22689000Y55243800D03*
X57489000Y64843800D03*
X57814000Y53068800D03*
X55964500Y67043800D03*
G04 #@! TO.N,/D10*
X20189000Y93603800D03*
G04 #@! TO.N,/D14*
X56890500Y73043800D03*
G04 #@! TO.N,/D12*
X47229000Y91423800D03*
X52164500Y85153800D03*
G04 #@! TO.N,/D0*
X64389000Y35143800D03*
G04 #@! TO.N,/D1*
X69951299Y41781501D03*
G04 #@! TO.N,/D3*
X21279000Y102593800D03*
X28509000Y76733800D03*
X37359000Y62963800D03*
X45409000Y51883800D03*
G04 #@! TO.N,/A1*
X41789000Y41043800D03*
X44289000Y45043800D03*
G04 #@! TO.N,Net-(J2-SIG)*
X28295600Y47218600D03*
X28973440Y49166442D03*
G04 #@! TO.N,Net-(J4-SIG)*
X69672200Y37287200D03*
X63686900Y37481300D03*
G04 #@! TO.N,Net-(J13-SIG)*
X40399000Y23533800D03*
G04 #@! TO.N,Net-(PLAY_BUT1-G)*
X52839000Y96453800D03*
G04 #@! TO.N,Net-(U1A-+)*
X69149000Y54153800D03*
G04 #@! TO.N,/D4*
X39031701Y81011099D03*
G04 #@! TO.N,Net-(J5-SIG)*
X20249000Y9163800D03*
G04 #@! TD*
D24*
G04 #@! TO.N,GND*
X13609000Y62953800D02*
X8980000Y58324800D01*
X41141236Y7961564D02*
X40359000Y8743800D01*
X37819000Y6203800D02*
X40359000Y6203800D01*
X17119000Y10943800D02*
X20101236Y7961564D01*
X59764000Y100818800D02*
X62306764Y100818800D01*
X37819000Y11283800D02*
X37819000Y8743800D01*
X9944000Y54518800D02*
X10669000Y53793800D01*
X61914000Y56787809D02*
X61889000Y56762809D01*
X37819000Y8743800D02*
X40359000Y8743800D01*
X45089000Y17763800D02*
X43379000Y16053800D01*
X67089000Y51143800D02*
X67089000Y48724800D01*
X63439000Y99686564D02*
X63439000Y97273800D01*
X2489000Y58324800D02*
X6749000Y58324800D01*
X44153200Y7961564D02*
X41141236Y7961564D01*
X23583400Y9251764D02*
X37311036Y9251764D01*
X34031701Y81276501D02*
X35150787Y82395587D01*
X49439000Y95218800D02*
X49689000Y95468800D01*
X37040787Y82395587D02*
X37279000Y82633800D01*
X7128991Y58324800D02*
X9944000Y55509791D01*
X48046299Y83641099D02*
X47283500Y84403898D01*
X47953500Y93733300D02*
X49439000Y95218800D01*
X59314000Y93743800D02*
X59909000Y93743800D01*
X20101236Y7961564D02*
X22293200Y7961564D01*
X47953500Y89819300D02*
X47953500Y93733300D01*
X37608000Y93743800D02*
X37608000Y85205320D01*
X40359000Y6203800D02*
X40359000Y8743800D01*
X67089000Y48724800D02*
X72289000Y43524800D01*
X6749000Y58324800D02*
X7128991Y58324800D01*
X62306764Y100818800D02*
X63439000Y99686564D01*
X35150787Y82395587D02*
X37040787Y82395587D01*
X49689000Y103601300D02*
X49264000Y104026300D01*
X49689000Y95468800D02*
X49689000Y103601300D01*
X8980000Y58324800D02*
X6749000Y58324800D01*
X43379000Y16053800D02*
X43379000Y14303800D01*
X45089000Y22477764D02*
X45089000Y17763800D01*
X9944000Y55509791D02*
X9944000Y54518800D01*
X60889000Y63462800D02*
X62014000Y62337800D01*
X40359000Y11283800D02*
X37819000Y11283800D01*
X22293200Y7961564D02*
X23583400Y9251764D01*
X47283500Y84403898D02*
X47283500Y87254800D01*
X62014000Y62337800D02*
X62014000Y57819791D01*
X10669000Y52133800D02*
X10669000Y53793800D01*
X62014000Y57819791D02*
X61914000Y57719791D01*
X61889000Y56762809D02*
X61889000Y56343800D01*
X37819000Y8743800D02*
X37819000Y6203800D01*
X44180200Y23386564D02*
X45089000Y22477764D01*
X59909000Y93743800D02*
X63439000Y97273800D01*
X61889000Y56343800D02*
X67089000Y51143800D01*
X43379000Y14303800D02*
X40359000Y11283800D01*
X61914000Y57719791D02*
X61914000Y56787809D01*
X40359000Y8743800D02*
X40359000Y11283800D01*
G04 #@! TO.N,+3V3*
X21589000Y78433800D02*
X24879000Y75143800D01*
X47064000Y93668800D02*
X47064000Y101528800D01*
X51562000Y72415400D02*
X51562000Y73900800D01*
X19349000Y97676564D02*
X19349000Y83573800D01*
X42456411Y80203763D02*
X46559000Y84306352D01*
X45259037Y80203763D02*
X41718820Y80203763D01*
X46504000Y91123495D02*
X46504000Y93108800D01*
X38104536Y77973800D02*
X40334499Y80203763D01*
X49649000Y75813800D02*
X45259037Y80203763D01*
X41718820Y80203763D02*
X42456411Y80203763D01*
X51562000Y73900800D02*
X49649000Y75813800D01*
X40334499Y80203763D02*
X41718820Y80203763D01*
X39889000Y102561564D02*
X41353736Y104026300D01*
X46504000Y93108800D02*
X47064000Y93668800D01*
X9414000Y99228400D02*
X7061200Y96875600D01*
X12189000Y104836564D02*
X9414000Y102061564D01*
X41353736Y104026300D02*
X46724000Y104026300D01*
X46559000Y84306352D02*
X46559000Y91068495D01*
X46559000Y91068495D02*
X46504000Y91123495D01*
X19349000Y83573800D02*
X21589000Y81333800D01*
X9414000Y102061564D02*
X9414000Y99228400D01*
X12189000Y104836564D02*
X19349000Y97676564D01*
X46724000Y101868800D02*
X46724000Y104026300D01*
X21589000Y81333800D02*
X21589000Y78433800D01*
X31519000Y77973800D02*
X38104536Y77973800D01*
X47064000Y101528800D02*
X46724000Y101868800D01*
G04 #@! TO.N,/A4*
X29260978Y30080000D02*
X32107178Y27233800D01*
X28085978Y28905000D02*
X17437800Y28905000D01*
X29260978Y30080000D02*
X28085978Y28905000D01*
X32107178Y27233800D02*
X36219000Y27233800D01*
G04 #@! TO.N,GNDADC*
X37955500Y45610300D02*
X38289000Y45943800D01*
X42642681Y49397481D02*
X55167000Y49397481D01*
X39189000Y45943800D02*
X42642681Y49397481D01*
X67133764Y73062800D02*
X72689000Y67507564D01*
X56689000Y71362800D02*
X58389000Y73062800D01*
X38289000Y45943800D02*
X39189000Y45943800D01*
X31289000Y47543800D02*
X33222500Y45610300D01*
X56689000Y43362800D02*
X58308000Y41743800D01*
X56689000Y47875481D02*
X56689000Y71362800D01*
X58389000Y73062800D02*
X67133764Y73062800D01*
X56689000Y47875481D02*
X56689000Y43362800D01*
X55167000Y49397481D02*
X56689000Y47875481D01*
X33222500Y45610300D02*
X37955500Y45610300D01*
G04 #@! TO.N,/A5*
X36289000Y46633800D02*
X38589000Y48933800D01*
X35189000Y46633800D02*
X36289000Y46633800D01*
G04 #@! TO.N,Net-(Bank_But1-B)*
X58619000Y105713800D02*
X34249000Y105713800D01*
X67589000Y99036564D02*
X63564000Y103061564D01*
X34249000Y105713800D02*
X31489000Y102953800D01*
X61271236Y103061564D02*
X58619000Y105713800D01*
X63564000Y103061564D02*
X61271236Y103061564D01*
G04 #@! TO.N,+12V*
X4527200Y62953800D02*
X2489000Y60915600D01*
X18425896Y18293300D02*
X18975396Y17743800D01*
X51804000Y104026300D02*
X51804000Y103618800D01*
X5989000Y62953800D02*
X4527200Y62953800D01*
X57531000Y81269992D02*
X59629808Y83368800D01*
X51804000Y103618800D02*
X54604000Y100818800D01*
X59217200Y60872000D02*
X60889000Y60872000D01*
X18975396Y17743800D02*
X22889000Y17743800D01*
X58389000Y60043800D02*
X59217200Y60872000D01*
X25289000Y15343800D02*
X26479000Y15343800D01*
X59629808Y83368800D02*
X60389000Y83368800D01*
X22889000Y17743800D02*
X25289000Y15343800D01*
X58389000Y57743800D02*
X58389000Y60043800D01*
X60889000Y60872000D02*
X60889000Y57353800D01*
X63889000Y52243800D02*
X58389000Y57743800D01*
X16289000Y18293300D02*
X18425896Y18293300D01*
X54604000Y100818800D02*
X57264000Y100818800D01*
X60017200Y17272000D02*
X60017200Y11643800D01*
G04 #@! TO.N,-12VA*
X11659000Y50553800D02*
X13609000Y52503800D01*
X9658200Y50553800D02*
X11659000Y50553800D01*
X72289000Y46115600D02*
X73789000Y44615600D01*
X8078200Y52133800D02*
X9658200Y50553800D01*
X68409000Y49633800D02*
X71927200Y46115600D01*
X50479000Y21143800D02*
X56189000Y21143800D01*
X61889000Y27043800D02*
X64289000Y27043800D01*
X18514000Y17568800D02*
X19639000Y16443800D01*
X12249000Y46013800D02*
X8078200Y50184600D01*
X8078200Y50184600D02*
X8078200Y52133800D01*
X13464000Y17568800D02*
X18514000Y17568800D01*
X13609000Y52503800D02*
X13609000Y55333800D01*
X45379000Y16043800D02*
X50479000Y21143800D01*
X57531000Y91429992D02*
X62169000Y86791992D01*
X64289000Y27043800D02*
X65489000Y28243800D01*
X65489000Y30843400D02*
X65489000Y28243800D01*
X15849000Y46013800D02*
X12249000Y46013800D01*
X63609000Y55763800D02*
X72289000Y47083800D01*
X72189400Y37543800D02*
X65489000Y30843400D01*
X73789000Y44615600D02*
X73789000Y38996145D01*
X19639000Y16443800D02*
X19639000Y11014600D01*
X12989000Y18043800D02*
X13464000Y17568800D01*
X73789000Y38996145D02*
X72336655Y37543800D01*
X72289000Y47083800D02*
X72289000Y46115600D01*
X72336655Y37543800D02*
X72189400Y37543800D01*
X62169000Y86791992D02*
X62169000Y74043800D01*
G04 #@! TO.N,/A2*
X67774400Y63743800D02*
X67774400Y62439200D01*
X63329000Y57253800D02*
X65879000Y59803800D01*
X67774400Y62439200D02*
X65879000Y60543800D01*
X54989000Y50743800D02*
X55789000Y49943800D01*
X41789000Y50743800D02*
X54989000Y50743800D01*
X65879000Y59803800D02*
X65879000Y60543800D01*
G04 #@! TO.N,/A7*
X23160800Y42743800D02*
X23160800Y44715600D01*
X27789000Y39708383D02*
X27789000Y33688022D01*
X27789000Y33688022D02*
X26720978Y32620000D01*
X24753583Y42743800D02*
X27789000Y39708383D01*
X23160800Y44715600D02*
X24389000Y45943800D01*
X23160800Y42743800D02*
X24753583Y42743800D01*
G04 #@! TO.N,/A6*
X8167200Y89255600D02*
X7061200Y89255600D01*
X26720978Y30080000D02*
X25545978Y31255000D01*
X18211800Y64709914D02*
X18211800Y79211000D01*
X25545978Y34186822D02*
X22989000Y36743800D01*
X25545978Y31255000D02*
X25545978Y34186822D01*
X6037700Y90279100D02*
X7061200Y89255600D01*
X18211800Y79211000D02*
X8167200Y89255600D01*
X6037700Y102185264D02*
X6037700Y90279100D01*
X17335343Y59190143D02*
X17335343Y63833457D01*
X17335343Y63833457D02*
X18211800Y64709914D01*
X8039000Y104186564D02*
X6037700Y102185264D01*
G04 #@! TO.N,Net-(R16-Pad1)*
X31489000Y95333800D02*
X27079000Y99743800D01*
X27079000Y99743800D02*
X27079000Y102793800D01*
G04 #@! TO.N,Net-(C11-Pad2)*
X1139000Y37193800D02*
X2239000Y36093800D01*
X1139000Y46113800D02*
X1139000Y37193800D01*
X5989000Y54809200D02*
X2423600Y51243800D01*
X1803600Y48763800D02*
X1249000Y48209200D01*
X3089000Y36943800D02*
X2239000Y36093800D01*
X1249000Y48209200D02*
X1249000Y46223800D01*
X2423600Y51243800D02*
X2423600Y48988400D01*
X3089000Y38343800D02*
X3089000Y36943800D01*
X1249000Y46223800D02*
X1139000Y46113800D01*
G04 #@! TO.N,/D6*
X61735200Y90918800D02*
X61925200Y90728800D01*
X61925200Y90728800D02*
X70561200Y90728800D01*
X59664500Y90918800D02*
X61735200Y90918800D01*
X70561200Y90728800D02*
X71805800Y89484200D01*
G04 #@! TO.N,/D8*
X26990980Y88889992D02*
X25815980Y87714992D01*
X34819000Y76783800D02*
X36739000Y74863800D01*
X43289000Y74863800D02*
X45089000Y76663800D01*
X25815980Y80746820D02*
X29779000Y76783800D01*
X36739000Y74863800D02*
X43289000Y74863800D01*
X29779000Y76783800D02*
X34819000Y76783800D01*
X25815980Y87714992D02*
X25815980Y80746820D01*
G04 #@! TO.N,/A9*
X22035800Y44990600D02*
X22035800Y34765178D01*
X22189000Y45143800D02*
X22035800Y44990600D01*
X22035800Y34765178D02*
X24180978Y32620000D01*
X15089000Y59043800D02*
X24489000Y49643800D01*
X15089000Y63064791D02*
X15089000Y59043800D01*
X10646227Y67507564D02*
X15089000Y63064791D01*
G04 #@! TO.N,Net-(R21-Pad1)*
X10219000Y95703800D02*
X10219000Y91963800D01*
G04 #@! TO.N,Net-(Bank_But1-POLE-A)*
X63848009Y104186564D02*
X68732400Y99302173D01*
X68732400Y99302173D02*
X68732400Y99187000D01*
X70815200Y97104200D02*
X71805800Y97104200D01*
X68732400Y99187000D02*
X70815200Y97104200D01*
G04 #@! TO.N,Net-(U1B-+)*
X76089000Y64524800D02*
X76089000Y60933800D01*
X75759000Y60603800D02*
X72009000Y56853800D01*
X68409000Y57253800D02*
X71389000Y57253800D01*
G04 #@! TO.N,Net-(U1B--)*
X72854400Y63743800D02*
X72854400Y61188400D01*
X65869000Y57253800D02*
X69159000Y60543800D01*
X72854400Y61188400D02*
X73499000Y60543800D01*
X61189000Y53793300D02*
X64589000Y50393300D01*
X69159000Y60543800D02*
X73499000Y60543800D01*
X64589000Y49053800D02*
X67599000Y46043800D01*
X64589000Y50393300D02*
X64589000Y49053800D01*
G04 #@! TO.N,/D15*
X48699000Y33943800D02*
X53937202Y33943800D01*
X47099000Y32343800D02*
X48699000Y33943800D01*
X53937202Y33943800D02*
X55261002Y32620000D01*
G04 #@! TO.N,/D13*
X12449000Y29753800D02*
X16969000Y25233800D01*
X46464698Y28267300D02*
X49642398Y31445000D01*
X16969000Y25233800D02*
X35299000Y25233800D01*
X52721002Y32620000D02*
X51546002Y31445000D01*
X39289000Y24343800D02*
X43212500Y28267300D01*
X51546002Y31445000D02*
X49642398Y31445000D01*
X39289000Y24343800D02*
X39089000Y24343800D01*
X46464698Y28267300D02*
X43212500Y28267300D01*
X35299000Y25233800D02*
X36189000Y24343800D01*
G04 #@! TO.N,/AUDIO_IN2*
X63587800Y31445000D02*
X64589000Y30443800D01*
X56626002Y31445000D02*
X63587800Y31445000D01*
X55261002Y30080000D02*
X56626002Y31445000D01*
G04 #@! TO.N,Net-(U2A--)*
X6883600Y48763800D02*
X6883600Y53688400D01*
X16809000Y44343800D02*
X17949000Y45483800D01*
X10172230Y44343800D02*
X16809000Y44343800D01*
X3089000Y45963800D02*
X3943600Y45963800D01*
X6883600Y47632430D02*
X10172230Y44343800D01*
X6883600Y53688400D02*
X8529000Y55333800D01*
X17949000Y45483800D02*
X17949000Y46143800D01*
X3943600Y45963800D02*
X6743600Y48763800D01*
X6883600Y48763800D02*
X6883600Y47632430D01*
G04 #@! TO.N,/AUDIO_OUT1*
X56595992Y7961564D02*
X55126000Y7961564D01*
X57489000Y8854572D02*
X56595992Y7961564D01*
X57489000Y29767998D02*
X57489000Y8854572D01*
G04 #@! TO.N,Net-(D1-A)*
X35619000Y13823800D02*
X34099000Y15343800D01*
X40359000Y13823800D02*
X37819000Y13823800D01*
X37819000Y13823800D02*
X35619000Y13823800D01*
G04 #@! TO.N,Net-(D2-K)*
X37819000Y3663800D02*
X40359000Y3663800D01*
X52999000Y10653800D02*
X52999000Y16043800D01*
X46009000Y3663800D02*
X52999000Y10653800D01*
X40359000Y3663800D02*
X46009000Y3663800D01*
G04 #@! TO.N,/AUDIO_OUT2*
X60341002Y20095802D02*
X58489000Y18243800D01*
X59989000Y9343800D02*
X73538764Y9343800D01*
X58489000Y18243800D02*
X58489000Y10843800D01*
X58489000Y10843800D02*
X59989000Y9343800D01*
X73538764Y9343800D02*
X74921000Y7961564D01*
X60341002Y30080000D02*
X60341002Y20095802D01*
G04 #@! TO.N,Net-(J1-SIG)*
X48121701Y39801099D02*
X45679000Y42243800D01*
X45679000Y42243800D02*
X42538899Y42243800D01*
G04 #@! TO.N,VREF+*
X62689000Y67507564D02*
X60152764Y67507564D01*
X32244615Y44843800D02*
X37825396Y44843800D01*
X57289000Y53593800D02*
X57814000Y53068800D01*
X56166000Y90254992D02*
X56166000Y67245300D01*
X56166000Y67245300D02*
X55964500Y67043800D01*
X57289000Y64643800D02*
X57289000Y53593800D01*
X66879000Y53736099D02*
X68274529Y53736099D01*
X57814000Y53068800D02*
X57939000Y52943800D01*
X57489000Y64843800D02*
X57289000Y64643800D01*
X39639000Y45493800D02*
X42389000Y48243800D01*
X22689000Y55243800D02*
X22689000Y54399415D01*
X37825396Y44843800D02*
X38475396Y45493800D01*
X71789000Y50221628D02*
X71789000Y49233800D01*
X68274529Y53736099D02*
X71789000Y50221628D01*
X22689000Y54399415D02*
X32244615Y44843800D01*
X54991000Y91429992D02*
X56166000Y90254992D01*
X38475396Y45493800D02*
X39639000Y45493800D01*
X57939000Y52943800D02*
X60429000Y52943800D01*
X60152764Y67507564D02*
X57489000Y64843800D01*
X42389000Y48243800D02*
X46320681Y48243800D01*
G04 #@! TO.N,/D10*
X20189000Y100893800D02*
X14999000Y106083800D01*
X14999000Y106083800D02*
X11079000Y106083800D01*
X10389000Y105393800D02*
X10389000Y104836564D01*
X20189000Y93603800D02*
X20189000Y100893800D01*
X11079000Y106083800D02*
X10389000Y105393800D01*
G04 #@! TO.N,/D14*
X56890500Y74645300D02*
X61489000Y79243800D01*
X57531000Y86349992D02*
X58782808Y86349992D01*
X56890500Y74645300D02*
X56890500Y73043800D01*
X61489000Y83643800D02*
X61489000Y79243800D01*
X58782808Y86349992D02*
X61489000Y83643800D01*
G04 #@! TO.N,/D12*
X35017200Y93743800D02*
X35017200Y92382000D01*
X52164500Y85153800D02*
X50639000Y85153800D01*
X47229000Y88563800D02*
X47229000Y91423800D01*
X50639000Y85153800D02*
X47229000Y88563800D01*
X35017200Y92382000D02*
X32679000Y90043800D01*
G04 #@! TO.N,/D0*
X64389000Y35143800D02*
X61865200Y32620000D01*
X61865200Y32620000D02*
X60341002Y32620000D01*
G04 #@! TO.N,/D1*
X66424802Y41243800D02*
X57801002Y32620000D01*
X69951299Y41781501D02*
X69413598Y41243800D01*
X69413598Y41243800D02*
X66424802Y41243800D01*
G04 #@! TO.N,/D3*
X24479000Y80763800D02*
X24479000Y88933800D01*
X24479000Y88933800D02*
X21279000Y92133800D01*
X21279000Y92133800D02*
X21279000Y102593800D01*
X37359000Y59933800D02*
X45409000Y51883800D01*
X28509000Y76733800D02*
X24479000Y80763800D01*
X37359000Y62963800D02*
X37359000Y59933800D01*
G04 #@! TO.N,/D5*
X29530980Y91429992D02*
X29530980Y92721820D01*
X29530980Y92721820D02*
X27079000Y95173800D01*
G04 #@! TO.N,/D17*
X39648931Y83953731D02*
X40298751Y84603551D01*
X40298751Y84603551D02*
X41718820Y84603551D01*
X29674719Y83953731D02*
X39648931Y83953731D01*
G04 #@! TO.N,/D16*
X31764719Y83503731D02*
X40619000Y83503731D01*
X29530980Y81269992D02*
X31764719Y83503731D01*
G04 #@! TO.N,/D9*
X28824445Y79436527D02*
X26990980Y81269992D01*
X40349037Y81303837D02*
X38481727Y79436527D01*
X38481727Y79436527D02*
X28824445Y79436527D01*
G04 #@! TO.N,/A0*
X41008000Y44652800D02*
X41008000Y38452800D01*
X41989000Y45633800D02*
X41008000Y44652800D01*
X41008000Y38452800D02*
X39089000Y36533800D01*
G04 #@! TO.N,/A1*
X41789000Y42543800D02*
X44289000Y45043800D01*
X64724564Y70472000D02*
X67689000Y67507564D01*
X58389000Y70472000D02*
X64724564Y70472000D01*
X41789000Y41043800D02*
X41789000Y42543800D01*
G04 #@! TO.N,/A3*
X51689000Y47875481D02*
X51689000Y45772000D01*
X51089000Y41743800D02*
X40189000Y30843800D01*
X40189000Y30843800D02*
X35927178Y30843800D01*
X55717200Y41743800D02*
X51089000Y41743800D01*
X51689000Y45772000D02*
X55717200Y41743800D01*
X35515978Y31255000D02*
X33165978Y31255000D01*
X33165978Y31255000D02*
X31800978Y32620000D01*
X35927178Y30843800D02*
X35515978Y31255000D01*
G04 #@! TO.N,/A8*
X20289000Y31533800D02*
X17679000Y31533800D01*
X24180978Y30080000D02*
X21742800Y30080000D01*
X21742800Y30080000D02*
X20289000Y31533800D01*
X17679000Y31533800D02*
X16539000Y32673800D01*
G04 #@! TO.N,Net-(J2-SIG)*
X29328307Y52366107D02*
X31216000Y54253800D01*
X28973440Y49166442D02*
X29328307Y49521309D01*
X28295600Y45936964D02*
X28295600Y47218600D01*
X35046000Y39186564D02*
X28295600Y45936964D01*
X31216000Y54253800D02*
X35189000Y54253800D01*
X29328307Y49521309D02*
X29328307Y52366107D01*
G04 #@! TO.N,Net-(J3-SIG)*
X16871000Y39186564D02*
X20256236Y39186564D01*
G04 #@! TO.N,Net-(J4-SIG)*
X63686900Y37481300D02*
X69478100Y37481300D01*
X69478100Y37481300D02*
X69672200Y37287200D01*
G04 #@! TO.N,Net-(J7-SIG)*
X30606764Y7961564D02*
X33266000Y7961564D01*
X12189000Y5943800D02*
X28589000Y5943800D01*
X28589000Y5943800D02*
X30606764Y7961564D01*
X7099000Y23573800D02*
X7099000Y11033800D01*
X7099000Y11033800D02*
X12189000Y5943800D01*
X2239000Y28433800D02*
X7099000Y23573800D01*
G04 #@! TO.N,Net-(J13-SIG)*
X40399000Y23663800D02*
X40399000Y23533800D01*
X43829000Y27093800D02*
X40399000Y23663800D01*
G04 #@! TO.N,Net-(PLAY_BUT1-B)*
X39889000Y96761564D02*
X43879000Y92771564D01*
X43879000Y92771564D02*
X43879000Y87863800D01*
G04 #@! TO.N,Net-(PLAY_BUT1-R)*
X38089000Y96761564D02*
X42419000Y92431564D01*
X42419000Y92431564D02*
X42419000Y87083800D01*
X42419000Y87083800D02*
X45089000Y84413800D01*
G04 #@! TO.N,Net-(PLAY_BUT1-G)*
X52889000Y79553800D02*
X52889000Y96443800D01*
X54189000Y78253800D02*
X52889000Y79553800D01*
X52849000Y96443800D02*
X52839000Y96453800D01*
X52889000Y96443800D02*
X52849000Y96443800D01*
G04 #@! TO.N,Net-(PLAY_BUT1-POLE-A)*
X34149000Y96203800D02*
X34149000Y100067564D01*
X35104000Y95248800D02*
X34149000Y96203800D01*
X40489000Y92943800D02*
X40489000Y90233800D01*
X38184000Y95248800D02*
X35104000Y95248800D01*
X38184000Y95248800D02*
X40489000Y92943800D01*
X34149000Y100067564D02*
X35993000Y101911564D01*
G04 #@! TO.N,Net-(U1A-+)*
X70314305Y54153800D02*
X74479000Y49989105D01*
X74479000Y49989105D02*
X74479000Y41823800D01*
X74479000Y41823800D02*
X75639000Y40663800D01*
X69149000Y54153800D02*
X70314305Y54153800D01*
G04 #@! TO.N,Net-(U1A--)*
X59979000Y48823800D02*
X60789000Y49633800D01*
X59979000Y46043800D02*
X59979000Y48823800D01*
X63329000Y49633800D02*
X60789000Y49633800D01*
G04 #@! TO.N,Net-(R37-Pad1)*
X75759000Y52983800D02*
X75759000Y50583800D01*
G04 #@! TO.N,Net-(U2A-+)*
X15364000Y56458800D02*
X39479000Y32343800D01*
X12194000Y56458800D02*
X15364000Y56458800D01*
X11069000Y55333800D02*
X12194000Y56458800D01*
G04 #@! TO.N,/D4*
X38115594Y80094992D02*
X29007808Y80094992D01*
X39031701Y81011099D02*
X38115594Y80094992D01*
X29007808Y80094992D02*
X28179000Y80923800D01*
X28179000Y80923800D02*
X28179000Y82621972D01*
X28179000Y82621972D02*
X26990980Y83809992D01*
G04 #@! TO.N,Net-(U2B--)*
X8529000Y62953800D02*
X11069000Y62953800D01*
G04 #@! TO.N,Net-(J5-SIG)*
X22849000Y10193800D02*
X26079000Y10193800D01*
X22356964Y9701764D02*
X22849000Y10193800D01*
X20786964Y9701764D02*
X22356964Y9701764D01*
X20249000Y9163800D02*
X20786964Y9701764D01*
X26079000Y10193800D02*
X35509000Y19623800D01*
G04 #@! TO.N,Net-(J6-SIG)*
X4829000Y29753800D02*
X7103764Y29753800D01*
X7103764Y29753800D02*
X13471000Y23386564D01*
G04 #@! TD*
M02*
