%TF.GenerationSoftware,KiCad,Pcbnew,7.0.1-0*%
%TF.CreationDate,2023-04-05T16:45:23-07:00*%
%TF.ProjectId,Kit-Trig-Sampler,4b69742d-5472-4696-972d-53616d706c65,rev?*%
%TF.SameCoordinates,PXb745f8PY7402318*%
%TF.FileFunction,Drillmap*%
%TF.FilePolarity,Positive*%
%FSLAX45Y45*%
G04 Gerber Fmt 4.5, Leading zero omitted, Abs format (unit mm)*
G04 Created by KiCad (PCBNEW 7.0.1-0) date 2023-04-05 16:45:23*
%MOMM*%
%LPD*%
G01*
G04 APERTURE LIST*
%ADD10C,0.150000*%
%ADD11C,0.200000*%
%ADD12C,0.040000*%
%ADD13C,0.068580*%
%ADD14C,0.069977*%
%ADD15C,0.080000*%
%ADD16C,0.081280*%
%ADD17C,0.088900*%
%ADD18C,0.091440*%
%ADD19C,0.100000*%
%ADD20C,0.114300*%
%ADD21C,0.120000*%
G04 APERTURE END LIST*
D10*
X7797800Y0D02*
X7797800Y10922000D01*
X0Y0D02*
X7797800Y0D01*
X0Y10922000D02*
X7797800Y10922000D01*
X0Y0D02*
X0Y10922000D01*
D11*
D12*
X1278900Y1824380D02*
X1318900Y1784380D01*
X1318900Y1824380D02*
X1278900Y1784380D01*
X1564900Y4621380D02*
X1604900Y4581380D01*
X1604900Y4621380D02*
X1564900Y4581380D01*
X1608900Y1849330D02*
X1648900Y1809330D01*
X1648900Y1849330D02*
X1608900Y1809330D01*
X1713534Y5939014D02*
X1753534Y5899014D01*
X1753534Y5939014D02*
X1713534Y5899014D01*
X1998900Y9380380D02*
X2038900Y9340380D01*
X2038900Y9380380D02*
X1998900Y9340380D01*
X2004900Y936380D02*
X2044900Y896380D01*
X2044900Y936380D02*
X2004900Y896380D01*
X2107900Y10279380D02*
X2147900Y10239380D01*
X2147900Y10279380D02*
X2107900Y10239380D01*
X2198900Y4534380D02*
X2238900Y4494380D01*
X2238900Y4534380D02*
X2198900Y4494380D01*
X2248900Y5544380D02*
X2288900Y5504380D01*
X2288900Y5544380D02*
X2248900Y5504380D01*
X2278900Y3694380D02*
X2318900Y3654380D01*
X2318900Y3694380D02*
X2278900Y3654380D01*
X2418900Y4614380D02*
X2458900Y4574380D01*
X2458900Y4614380D02*
X2418900Y4574380D01*
X2428900Y4984380D02*
X2468900Y4944380D01*
X2468900Y4984380D02*
X2428900Y4944380D01*
X2809560Y4741860D02*
X2849560Y4701860D01*
X2849560Y4741860D02*
X2809560Y4701860D01*
X2830900Y7693380D02*
X2870900Y7653380D01*
X2870900Y7693380D02*
X2830900Y7653380D01*
X2877344Y4936644D02*
X2917344Y4896644D01*
X2917344Y4936644D02*
X2877344Y4896644D01*
X3131900Y7817380D02*
X3171900Y7777380D01*
X3171900Y7817380D02*
X3131900Y7777380D01*
X3383170Y8147650D02*
X3423170Y8107650D01*
X3423170Y8147650D02*
X3383170Y8107650D01*
X3598900Y2454380D02*
X3638900Y2414380D01*
X3638900Y2454380D02*
X3598900Y2414380D01*
X3707900Y8283380D02*
X3747900Y8243380D01*
X3747900Y8283380D02*
X3707900Y8243380D01*
X3715900Y6316380D02*
X3755900Y6276380D01*
X3755900Y6316380D02*
X3715900Y6276380D01*
X3883170Y8121110D02*
X3923170Y8081110D01*
X3923170Y8121110D02*
X3883170Y8081110D01*
X3888900Y2454380D02*
X3928900Y2414380D01*
X3928900Y2454380D02*
X3888900Y2414380D01*
X4019900Y2373380D02*
X4059900Y2333380D01*
X4059900Y2373380D02*
X4019900Y2333380D01*
X4158900Y5094380D02*
X4198900Y5054380D01*
X4198900Y5094380D02*
X4158900Y5054380D01*
X4158900Y4124380D02*
X4198900Y4084380D01*
X4198900Y4124380D02*
X4158900Y4084380D01*
X4233890Y4244380D02*
X4273890Y4204380D01*
X4273890Y4244380D02*
X4233890Y4204380D01*
X4408900Y4524380D02*
X4448900Y4484380D01*
X4448900Y4524380D02*
X4408900Y4484380D01*
X4520900Y5208380D02*
X4560900Y5168380D01*
X4560900Y5208380D02*
X4520900Y5168380D01*
X4702900Y9162380D02*
X4742900Y9122380D01*
X4742900Y9162380D02*
X4702900Y9122380D01*
X4708350Y8745480D02*
X4748350Y8705480D01*
X4748350Y8745480D02*
X4708350Y8705480D01*
X4775350Y9001930D02*
X4815350Y8961930D01*
X4815350Y9001930D02*
X4775350Y8961930D01*
X4784630Y8384110D02*
X4824630Y8344110D01*
X4824630Y8384110D02*
X4784630Y8344110D01*
X4792170Y4000110D02*
X4832170Y3960110D01*
X4832170Y4000110D02*
X4792170Y3960110D01*
X4923900Y9541880D02*
X4963900Y9501880D01*
X4963900Y9541880D02*
X4923900Y9501880D01*
X5196450Y8535380D02*
X5236450Y8495380D01*
X5236450Y8535380D02*
X5196450Y8495380D01*
X5263900Y9665380D02*
X5303900Y9625380D01*
X5303900Y9665380D02*
X5263900Y9625380D01*
X5558900Y5014380D02*
X5598900Y4974380D01*
X5598900Y5014380D02*
X5558900Y4974380D01*
X5576450Y6724380D02*
X5616450Y6684380D01*
X5616450Y6724380D02*
X5576450Y6684380D01*
X5598900Y2134380D02*
X5638900Y2094380D01*
X5638900Y2134380D02*
X5598900Y2094380D01*
X5669050Y7324380D02*
X5709050Y7284380D01*
X5709050Y7324380D02*
X5669050Y7284380D01*
X5728900Y6504380D02*
X5768900Y6464380D01*
X5768900Y6504380D02*
X5728900Y6464380D01*
X5761400Y5326880D02*
X5801400Y5286880D01*
X5801400Y5326880D02*
X5761400Y5286880D01*
X5911400Y9394380D02*
X5951400Y9354380D01*
X5951400Y9394380D02*
X5911400Y9354380D01*
X5946450Y9111880D02*
X5986450Y9071880D01*
X5986450Y9111880D02*
X5946450Y9071880D01*
X6018900Y8356880D02*
X6058900Y8316880D01*
X6058900Y8356880D02*
X6018900Y8316880D01*
X6022900Y5314380D02*
X6062900Y5274380D01*
X6062900Y5314380D02*
X6022900Y5274380D01*
X6098900Y5399330D02*
X6138900Y5359330D01*
X6138900Y5399330D02*
X6098900Y5359330D01*
X6168900Y2724380D02*
X6208900Y2684380D01*
X6208900Y2724380D02*
X6168900Y2684380D01*
X6196900Y7424380D02*
X6236900Y7384380D01*
X6236900Y7424380D02*
X6196900Y7384380D01*
X6340900Y5596380D02*
X6380900Y5556380D01*
X6380900Y5596380D02*
X6340900Y5556380D01*
X6348690Y3768130D02*
X6388690Y3728130D01*
X6388690Y3768130D02*
X6348690Y3728130D01*
X6368900Y5244380D02*
X6408900Y5204380D01*
X6408900Y5244380D02*
X6368900Y5204380D01*
X6418900Y3534380D02*
X6458900Y3494380D01*
X6458900Y3534380D02*
X6418900Y3494380D01*
X6438900Y3064380D02*
X6478900Y3024380D01*
X6478900Y3064380D02*
X6438900Y3024380D01*
X6667900Y5393610D02*
X6707900Y5353610D01*
X6707900Y5393610D02*
X6667900Y5353610D01*
X6894900Y5435380D02*
X6934900Y5395380D01*
X6934900Y5435380D02*
X6894900Y5395380D01*
X6947220Y3748720D02*
X6987220Y3708720D01*
X6987220Y3748720D02*
X6947220Y3708720D01*
X6975130Y4198150D02*
X7015130Y4158150D01*
X7015130Y4198150D02*
X6975130Y4158150D01*
D13*
X4096190Y8350373D02*
G75*
G03*
X4096190Y8350373I-34290J0D01*
G01*
X4096190Y8130384D02*
G75*
G03*
X4096190Y8130384I-34290J0D01*
G01*
X4096190Y7690405D02*
G75*
G03*
X4096190Y7690405I-34290J0D01*
G01*
X4206172Y8460355D02*
G75*
G03*
X4206172Y8460355I-34290J0D01*
G01*
X4206172Y8240366D02*
G75*
G03*
X4206172Y8240366I-34290J0D01*
G01*
X4206172Y8020376D02*
G75*
G03*
X4206172Y8020376I-34290J0D01*
G01*
X4206172Y7800387D02*
G75*
G03*
X4206172Y7800387I-34290J0D01*
G01*
D14*
X4061900Y7945383D02*
X4061900Y7875406D01*
X4026911Y7910394D02*
X4096888Y7910394D01*
D15*
X208644Y4848096D02*
X208644Y4904665D01*
X152076Y4904665D01*
X152076Y4848096D01*
X208644Y4848096D01*
X277185Y6063275D02*
X277185Y6119844D01*
X220615Y6119844D01*
X220615Y6063275D01*
X277185Y6063275D01*
X277185Y5804195D02*
X277185Y5860764D01*
X220615Y5860764D01*
X220615Y5804195D01*
X277185Y5804195D01*
X627185Y6267095D02*
X627185Y6323664D01*
X570616Y6323664D01*
X570616Y6267095D01*
X627185Y6267095D01*
X627185Y5505096D02*
X627185Y5561665D01*
X570616Y5561665D01*
X570616Y5505096D01*
X627185Y5505096D01*
X716644Y4848096D02*
X716644Y4904665D01*
X660076Y4904665D01*
X660076Y4848096D01*
X716644Y4848096D01*
X836104Y5185096D02*
X836104Y5241665D01*
X779535Y5241665D01*
X779535Y5185096D01*
X836104Y5185096D01*
X881184Y6267095D02*
X881184Y6323664D01*
X824615Y6323664D01*
X824615Y6267095D01*
X881184Y6267095D01*
X881184Y5505096D02*
X881184Y5561665D01*
X824615Y5561665D01*
X824615Y5505096D01*
X881184Y5505096D01*
X1067185Y10455372D02*
X1067185Y10511941D01*
X1010615Y10511941D01*
X1010615Y10455372D01*
X1067185Y10455372D01*
X1067185Y9875372D02*
X1067185Y9931941D01*
X1010615Y9931941D01*
X1010615Y9875372D01*
X1067185Y9875372D01*
X1095185Y5185096D02*
X1095185Y5241665D01*
X1038615Y5241665D01*
X1038615Y5185096D01*
X1095185Y5185096D01*
X1135185Y6267095D02*
X1135185Y6323664D01*
X1078616Y6323664D01*
X1078616Y6267095D01*
X1135185Y6267095D01*
X1135185Y5505096D02*
X1135185Y5561665D01*
X1078616Y5561665D01*
X1078616Y5505096D01*
X1135185Y5505096D01*
X1247185Y10455372D02*
X1247185Y10511941D01*
X1190616Y10511941D01*
X1190616Y10455372D01*
X1247185Y10455372D01*
X1247185Y9875372D02*
X1247185Y9931941D01*
X1190616Y9931941D01*
X1190616Y9875372D01*
X1247185Y9875372D01*
X1389185Y6267095D02*
X1389185Y6323664D01*
X1332616Y6323664D01*
X1332616Y6267095D01*
X1389185Y6267095D01*
X1389185Y5505096D02*
X1389185Y5561665D01*
X1332616Y5561665D01*
X1332616Y5505096D01*
X1389185Y5505096D01*
X1740184Y1066096D02*
X1740184Y1122665D01*
X1683615Y1122665D01*
X1683615Y1066096D01*
X1740184Y1066096D01*
X1742184Y1616095D02*
X1742184Y1672664D01*
X1685615Y1672664D01*
X1685615Y1616095D01*
X1742184Y1616095D01*
X1992184Y1616095D02*
X1992184Y1672664D01*
X1935615Y1672664D01*
X1935615Y1616095D01*
X1992184Y1616095D01*
X1999264Y1066096D02*
X1999264Y1122665D01*
X1942695Y1122665D01*
X1942695Y1066096D01*
X1999264Y1066096D01*
X2030004Y7106095D02*
X2030004Y7162664D01*
X1973435Y7162664D01*
X1973435Y7106095D01*
X2030004Y7106095D01*
X2085284Y4246096D02*
X2085284Y4302665D01*
X2028715Y4302665D01*
X2028715Y4246096D01*
X2085284Y4246096D01*
X2289085Y7106095D02*
X2289085Y7162664D01*
X2232516Y7162664D01*
X2232516Y7106095D01*
X2289085Y7106095D01*
X2337185Y9785176D02*
X2337185Y9841745D01*
X2280616Y9841745D01*
X2280616Y9785176D01*
X2337185Y9785176D01*
X2337185Y9526096D02*
X2337185Y9582665D01*
X2280616Y9582665D01*
X2280616Y9526096D01*
X2337185Y9526096D01*
X2344365Y4246096D02*
X2344365Y4302665D01*
X2287796Y4302665D01*
X2287796Y4246096D01*
X2344365Y4246096D01*
X2676185Y1506095D02*
X2676185Y1562664D01*
X2619616Y1562664D01*
X2619616Y1506095D01*
X2676185Y1506095D01*
X3438184Y1506095D02*
X3438184Y1562664D01*
X3381615Y1562664D01*
X3381615Y1506095D01*
X3438184Y1506095D01*
X3530004Y9346096D02*
X3530004Y9402665D01*
X3473435Y9402665D01*
X3473435Y9346096D01*
X3530004Y9346096D01*
X3789084Y9346096D02*
X3789084Y9402665D01*
X3732515Y9402665D01*
X3732515Y9346096D01*
X3789084Y9346096D01*
X3837184Y10227872D02*
X3837184Y10284441D01*
X3780615Y10284441D01*
X3780615Y10227872D01*
X3837184Y10227872D01*
X3837184Y9647872D02*
X3837184Y9704441D01*
X3780615Y9704441D01*
X3780615Y9647872D01*
X3837184Y9647872D01*
X4017184Y10227872D02*
X4017184Y10284441D01*
X3960615Y10284441D01*
X3960615Y10227872D01*
X4017184Y10227872D01*
X4017184Y9647872D02*
X4017184Y9704441D01*
X3960615Y9704441D01*
X3960615Y9647872D01*
X4017184Y9647872D01*
X4566185Y1576095D02*
X4566185Y1632664D01*
X4509616Y1632664D01*
X4509616Y1576095D01*
X4566185Y1576095D01*
X4700685Y10374346D02*
X4700685Y10430915D01*
X4644116Y10430915D01*
X4644116Y10374346D01*
X4700685Y10374346D01*
X4747185Y9793596D02*
X4747185Y9850165D01*
X4690616Y9850165D01*
X4690616Y9793596D01*
X4747185Y9793596D01*
X4954685Y10374346D02*
X4954685Y10430915D01*
X4898116Y10430915D01*
X4898116Y10374346D01*
X4954685Y10374346D01*
X4997185Y9793596D02*
X4997185Y9850165D01*
X4940616Y9850165D01*
X4940616Y9793596D01*
X4997185Y9793596D01*
X5208685Y10374346D02*
X5208685Y10430915D01*
X5152116Y10430915D01*
X5152116Y10374346D01*
X5208685Y10374346D01*
X5328185Y1576095D02*
X5328185Y1632664D01*
X5271616Y1632664D01*
X5271616Y1576095D01*
X5328185Y1576095D01*
X5600004Y4146095D02*
X5600004Y4202665D01*
X5543436Y4202665D01*
X5543436Y4146095D01*
X5600004Y4146095D01*
X5754684Y10053596D02*
X5754684Y10110165D01*
X5698115Y10110165D01*
X5698115Y10053596D01*
X5754684Y10053596D01*
X5859084Y4146095D02*
X5859084Y4202665D01*
X5802515Y4202665D01*
X5802515Y4146095D01*
X5859084Y4146095D01*
X5867184Y7277995D02*
X5867184Y7334564D01*
X5810615Y7334564D01*
X5810615Y7277995D01*
X5867184Y7277995D01*
X5867184Y7018915D02*
X5867184Y7075484D01*
X5810615Y7075484D01*
X5810615Y7018915D01*
X5867184Y7018915D01*
X6004684Y10053596D02*
X6004684Y10110165D01*
X5948115Y10110165D01*
X5948115Y10053596D01*
X6004684Y10053596D01*
X6030004Y1136096D02*
X6030004Y1192665D01*
X5973435Y1192665D01*
X5973435Y1136096D01*
X6030004Y1136096D01*
X6047184Y1696095D02*
X6047184Y1752664D01*
X5990615Y1752664D01*
X5990615Y1696095D01*
X6047184Y1696095D01*
X6107184Y5697095D02*
X6107184Y5753664D01*
X6050615Y5753664D01*
X6050615Y5697095D01*
X6107184Y5697095D01*
X6107184Y4935096D02*
X6107184Y4991665D01*
X6050615Y4991665D01*
X6050615Y4935096D01*
X6107184Y4935096D01*
X6117184Y6317995D02*
X6117184Y6374564D01*
X6060615Y6374564D01*
X6060615Y6317995D01*
X6117184Y6317995D01*
X6117184Y6058915D02*
X6117184Y6115484D01*
X6060615Y6115484D01*
X6060615Y6058915D01*
X6117184Y6058915D01*
X6289084Y1136096D02*
X6289084Y1192665D01*
X6232515Y1192665D01*
X6232515Y1136096D01*
X6289084Y1136096D01*
X6297184Y1696095D02*
X6297184Y1752664D01*
X6240615Y1752664D01*
X6240615Y1696095D01*
X6297184Y1696095D01*
X6361184Y5697095D02*
X6361184Y5753664D01*
X6304615Y5753664D01*
X6304615Y5697095D01*
X6361184Y5697095D01*
X6361184Y4935096D02*
X6361184Y4991665D01*
X6304615Y4991665D01*
X6304615Y4935096D01*
X6361184Y4935096D01*
X6607184Y10455372D02*
X6607184Y10511941D01*
X6550615Y10511941D01*
X6550615Y10455372D01*
X6607184Y10455372D01*
X6607184Y9875372D02*
X6607184Y9931941D01*
X6550615Y9931941D01*
X6550615Y9875372D01*
X6607184Y9875372D01*
X6615184Y5697095D02*
X6615184Y5753664D01*
X6558615Y5753664D01*
X6558615Y5697095D01*
X6615184Y5697095D01*
X6615184Y4935096D02*
X6615184Y4991665D01*
X6558615Y4991665D01*
X6558615Y4935096D01*
X6615184Y4935096D01*
X6787184Y10455372D02*
X6787184Y10511941D01*
X6730615Y10511941D01*
X6730615Y10455372D01*
X6787184Y10455372D01*
X6787184Y9875372D02*
X6787184Y9931941D01*
X6730615Y9931941D01*
X6730615Y9875372D01*
X6787184Y9875372D01*
X6805724Y6346095D02*
X6805724Y6402664D01*
X6749155Y6402664D01*
X6749155Y6346095D01*
X6805724Y6346095D01*
X6869184Y5697095D02*
X6869184Y5753664D01*
X6812615Y5753664D01*
X6812615Y5697095D01*
X6869184Y5697095D01*
X6869184Y4935096D02*
X6869184Y4991665D01*
X6812615Y4991665D01*
X6812615Y4935096D01*
X6869184Y4935096D01*
X7257184Y4583276D02*
X7257184Y4639845D01*
X7200615Y4639845D01*
X7200615Y4583276D01*
X7257184Y4583276D01*
X7257184Y4324196D02*
X7257184Y4380765D01*
X7200615Y4380765D01*
X7200615Y4324196D01*
X7257184Y4324196D01*
X7313724Y6346095D02*
X7313724Y6402664D01*
X7257155Y6402664D01*
X7257155Y6346095D01*
X7313724Y6346095D01*
X7637184Y6683275D02*
X7637184Y6739844D01*
X7580615Y6739844D01*
X7580615Y6683275D01*
X7637184Y6683275D01*
X7637184Y6424195D02*
X7637184Y6480764D01*
X7580615Y6480764D01*
X7580615Y6424195D01*
X7637184Y6424195D01*
D16*
X223900Y3568740D02*
X264540Y3609380D01*
X223900Y3650020D01*
X183260Y3609380D01*
X223900Y3568740D01*
X223900Y2806740D02*
X264540Y2847380D01*
X223900Y2888020D01*
X183260Y2847380D01*
X223900Y2806740D01*
X308900Y4555740D02*
X349540Y4596380D01*
X308900Y4637020D01*
X268260Y4596380D01*
X308900Y4555740D01*
X308900Y3793740D02*
X349540Y3834380D01*
X308900Y3875020D01*
X268260Y3834380D01*
X308900Y3793740D01*
X482900Y2934740D02*
X523540Y2975380D01*
X482900Y3016020D01*
X442260Y2975380D01*
X482900Y2934740D01*
X706120Y9646920D02*
X746760Y9687560D01*
X706120Y9728200D01*
X665480Y9687560D01*
X706120Y9646920D01*
X706120Y8884920D02*
X746760Y8925560D01*
X706120Y8966200D01*
X665480Y8925560D01*
X706120Y8884920D01*
X891900Y3226740D02*
X932540Y3267380D01*
X891900Y3308020D01*
X851260Y3267380D01*
X891900Y3226740D01*
X1021900Y9529740D02*
X1062540Y9570380D01*
X1021900Y9611020D01*
X981260Y9570380D01*
X1021900Y9529740D01*
X1032900Y4573740D02*
X1073540Y4614380D01*
X1032900Y4655020D01*
X992260Y4614380D01*
X1032900Y4573740D01*
X1052900Y9124740D02*
X1093540Y9165380D01*
X1052900Y9206020D01*
X1012260Y9165380D01*
X1052900Y9124740D01*
X1244900Y2934740D02*
X1285540Y2975380D01*
X1244900Y3016020D01*
X1204260Y2975380D01*
X1244900Y2934740D01*
X1653900Y3226740D02*
X1694540Y3267380D01*
X1653900Y3308020D01*
X1613260Y3267380D01*
X1653900Y3226740D01*
X1718900Y2874740D02*
X1759540Y2915380D01*
X1718900Y2956020D01*
X1678260Y2915380D01*
X1718900Y2874740D01*
X1718900Y2112740D02*
X1759540Y2153380D01*
X1718900Y2194020D01*
X1678260Y2153380D01*
X1718900Y2112740D01*
X1783900Y9529740D02*
X1824540Y9570380D01*
X1783900Y9611020D01*
X1743260Y9570380D01*
X1783900Y9529740D01*
X1794900Y4573740D02*
X1835540Y4614380D01*
X1794900Y4655020D01*
X1754260Y4614380D01*
X1794900Y4573740D01*
X1814900Y9124740D02*
X1855540Y9165380D01*
X1814900Y9206020D01*
X1774260Y9165380D01*
X1814900Y9124740D01*
X2028900Y3874740D02*
X2069540Y3915380D01*
X2028900Y3956020D01*
X1988260Y3915380D01*
X2028900Y3874740D01*
X2028900Y3112740D02*
X2069540Y3153380D01*
X2028900Y3194020D01*
X1988260Y3153380D01*
X2028900Y3112740D01*
X2158900Y8854740D02*
X2199540Y8895380D01*
X2158900Y8936020D01*
X2118260Y8895380D01*
X2158900Y8854740D01*
X2158900Y8092740D02*
X2199540Y8133380D01*
X2158900Y8174020D01*
X2118260Y8133380D01*
X2158900Y8092740D01*
X2487900Y7473740D02*
X2528540Y7514380D01*
X2487900Y7555020D01*
X2447260Y7514380D01*
X2487900Y7473740D01*
X2707900Y10238740D02*
X2748540Y10279380D01*
X2707900Y10320020D01*
X2667260Y10279380D01*
X2707900Y10238740D01*
X2707900Y9476740D02*
X2748540Y9517380D01*
X2707900Y9558020D01*
X2667260Y9517380D01*
X2707900Y9476740D01*
X3148900Y10254740D02*
X3189540Y10295380D01*
X3148900Y10336020D01*
X3108260Y10295380D01*
X3148900Y10254740D01*
X3148900Y9492740D02*
X3189540Y9533380D01*
X3148900Y9574020D01*
X3108260Y9533380D01*
X3148900Y9492740D01*
X3249900Y7473740D02*
X3290540Y7514380D01*
X3249900Y7555020D01*
X3209260Y7514380D01*
X3249900Y7473740D01*
X3267900Y8963740D02*
X3308540Y9004380D01*
X3267900Y9045020D01*
X3227260Y9004380D01*
X3267900Y8963740D01*
X3518900Y5384740D02*
X3559540Y5425380D01*
X3518900Y5466020D01*
X3478260Y5425380D01*
X3518900Y5384740D01*
X3518900Y4622740D02*
X3559540Y4663380D01*
X3518900Y4704020D01*
X3478260Y4663380D01*
X3518900Y4622740D01*
X3594900Y1921740D02*
X3635540Y1962380D01*
X3594900Y2003020D01*
X3554260Y1962380D01*
X3594900Y1921740D01*
X3635900Y2668740D02*
X3676540Y2709380D01*
X3635900Y2750020D01*
X3595260Y2709380D01*
X3635900Y2668740D01*
X3858900Y5614740D02*
X3899540Y5655380D01*
X3858900Y5696020D01*
X3818260Y5655380D01*
X3858900Y5614740D01*
X3858900Y4852740D02*
X3899540Y4893380D01*
X3858900Y4934020D01*
X3818260Y4893380D01*
X3858900Y4852740D01*
X3908900Y4374740D02*
X3949540Y4415380D01*
X3908900Y4456020D01*
X3868260Y4415380D01*
X3908900Y4374740D01*
X3908900Y3612740D02*
X3949540Y3653380D01*
X3908900Y3694020D01*
X3868260Y3653380D01*
X3908900Y3612740D01*
X3947900Y3193740D02*
X3988540Y3234380D01*
X3947900Y3275020D01*
X3907260Y3234380D01*
X3947900Y3193740D01*
X4029900Y8963740D02*
X4070540Y9004380D01*
X4029900Y9045020D01*
X3989260Y9004380D01*
X4029900Y8963740D01*
X4198900Y5284740D02*
X4239540Y5325380D01*
X4198900Y5366020D01*
X4158260Y5325380D01*
X4198900Y5284740D01*
X4198900Y4522740D02*
X4239540Y4563380D01*
X4198900Y4604020D01*
X4158260Y4563380D01*
X4198900Y4522740D01*
X4356900Y8714740D02*
X4397540Y8755380D01*
X4356900Y8796020D01*
X4316260Y8755380D01*
X4356900Y8714740D01*
X4356900Y1921740D02*
X4397540Y1962380D01*
X4356900Y2003020D01*
X4316260Y1962380D01*
X4356900Y1921740D01*
X4394200Y7200900D02*
X4434840Y7241540D01*
X4394200Y7282180D01*
X4353560Y7241540D01*
X4394200Y7200900D01*
X4397900Y2668740D02*
X4438540Y2709380D01*
X4397900Y2750020D01*
X4357260Y2709380D01*
X4397900Y2668740D01*
X4508900Y8387740D02*
X4549540Y8428380D01*
X4508900Y8469020D01*
X4468260Y8428380D01*
X4508900Y8387740D01*
X4508900Y7625740D02*
X4549540Y7666380D01*
X4508900Y7707020D01*
X4468260Y7666380D01*
X4508900Y7625740D01*
X4709900Y3193740D02*
X4750540Y3234380D01*
X4709900Y3275020D01*
X4669260Y3234380D01*
X4709900Y3193740D01*
X4964900Y8302740D02*
X5005540Y8343380D01*
X4964900Y8384020D01*
X4924260Y8343380D01*
X4964900Y8302740D01*
X4964900Y7540740D02*
X5005540Y7581380D01*
X4964900Y7622020D01*
X4924260Y7581380D01*
X4964900Y7540740D01*
X5118900Y8714740D02*
X5159540Y8755380D01*
X5118900Y8796020D01*
X5078260Y8755380D01*
X5118900Y8714740D01*
X5156200Y7200900D02*
X5196840Y7241540D01*
X5156200Y7282180D01*
X5115560Y7241540D01*
X5156200Y7200900D01*
X5418900Y7784740D02*
X5459540Y7825380D01*
X5418900Y7866020D01*
X5378260Y7825380D01*
X5418900Y7784740D01*
X5418900Y7022740D02*
X5459540Y7063380D01*
X5418900Y7104020D01*
X5378260Y7063380D01*
X5418900Y7022740D01*
X5997900Y4563740D02*
X6038540Y4604380D01*
X5997900Y4645020D01*
X5957260Y4604380D01*
X5997900Y4563740D01*
X6587900Y6013740D02*
X6628540Y6054380D01*
X6587900Y6095020D01*
X6547260Y6054380D01*
X6587900Y6013740D01*
X6759900Y4563740D02*
X6800540Y4604380D01*
X6759900Y4645020D01*
X6719260Y4604380D01*
X6759900Y4563740D01*
X7178900Y5644740D02*
X7219540Y5685380D01*
X7178900Y5726020D01*
X7138260Y5685380D01*
X7178900Y5644740D01*
X7178900Y4882740D02*
X7219540Y4923380D01*
X7178900Y4964020D01*
X7138260Y4923380D01*
X7178900Y4882740D01*
X7180580Y9669780D02*
X7221220Y9710420D01*
X7180580Y9751060D01*
X7139940Y9710420D01*
X7180580Y9669780D01*
X7180580Y8907780D02*
X7221220Y8948420D01*
X7180580Y8989060D01*
X7139940Y8948420D01*
X7180580Y8907780D01*
X7349900Y6013740D02*
X7390540Y6054380D01*
X7349900Y6095020D01*
X7309260Y6054380D01*
X7349900Y6013740D01*
X7563900Y4025740D02*
X7604540Y4066380D01*
X7563900Y4107020D01*
X7523260Y4066380D01*
X7563900Y4025740D01*
X7563900Y3263740D02*
X7604540Y3304380D01*
X7563900Y3345020D01*
X7523260Y3304380D01*
X7563900Y3263740D01*
X7575900Y6019740D02*
X7616540Y6060380D01*
X7575900Y6101020D01*
X7535260Y6060380D01*
X7575900Y6019740D01*
X7575900Y5257740D02*
X7616540Y5298380D01*
X7575900Y5339020D01*
X7535260Y5298380D01*
X7575900Y5257740D01*
X7575900Y5017740D02*
X7616540Y5058380D01*
X7575900Y5099020D01*
X7535260Y5058380D01*
X7575900Y5017740D01*
X7575900Y4255740D02*
X7616540Y4296380D01*
X7575900Y4337020D01*
X7535260Y4296380D01*
X7575900Y4255740D01*
D17*
X205370Y2383106D02*
X294270Y2294206D01*
X294270Y2383106D02*
X205370Y2294206D01*
X294270Y2338656D02*
G75*
G03*
X294270Y2338656I-44450J0D01*
G01*
X205370Y840606D02*
X294270Y751706D01*
X294270Y840606D02*
X205370Y751706D01*
X294270Y796156D02*
G75*
G03*
X294270Y796156I-44450J0D01*
G01*
X545370Y3963106D02*
X634270Y3874206D01*
X634270Y3963106D02*
X545370Y3874206D01*
X634270Y3918656D02*
G75*
G03*
X634270Y3918656I-44450J0D01*
G01*
X2182170Y2383106D02*
X2271070Y2294206D01*
X2271070Y2383106D02*
X2182170Y2294206D01*
X2271070Y2338656D02*
G75*
G03*
X2271070Y2338656I-44450J0D01*
G01*
X2184870Y840606D02*
X2273770Y751706D01*
X2273770Y840606D02*
X2184870Y751706D01*
X2273770Y796156D02*
G75*
G03*
X2273770Y796156I-44450J0D01*
G01*
X2362870Y3963106D02*
X2451770Y3874206D01*
X2451770Y3963106D02*
X2362870Y3874206D01*
X2451770Y3918656D02*
G75*
G03*
X2451770Y3918656I-44450J0D01*
G01*
X4185370Y3963106D02*
X4274270Y3874206D01*
X4274270Y3963106D02*
X4185370Y3874206D01*
X4274270Y3918656D02*
G75*
G03*
X4274270Y3918656I-44450J0D01*
G01*
X4370870Y840606D02*
X4459770Y751706D01*
X4459770Y840606D02*
X4370870Y751706D01*
X4459770Y796156D02*
G75*
G03*
X4459770Y796156I-44450J0D01*
G01*
X4373570Y2383106D02*
X4462470Y2294206D01*
X4462470Y2383106D02*
X4373570Y2294206D01*
X4462470Y2338656D02*
G75*
G03*
X4462470Y2338656I-44450J0D01*
G01*
X6350370Y2383106D02*
X6439270Y2294206D01*
X6439270Y2383106D02*
X6350370Y2294206D01*
X6439270Y2338656D02*
G75*
G03*
X6439270Y2338656I-44450J0D01*
G01*
X6350370Y840606D02*
X6439270Y751706D01*
X6439270Y840606D02*
X6350370Y751706D01*
X6439270Y796156D02*
G75*
G03*
X6439270Y796156I-44450J0D01*
G01*
X7171030Y3963106D02*
X7259930Y3874206D01*
X7259930Y3963106D02*
X7171030Y3874206D01*
X7259930Y3918656D02*
G75*
G03*
X7259930Y3918656I-44450J0D01*
G01*
D18*
X3699188Y8550360D02*
X3790628Y8458920D01*
X3790628Y8550360D02*
X3699188Y8458920D01*
X3744908Y8550360D02*
X3744908Y8458920D01*
X3699188Y8504640D02*
X3790628Y8504640D01*
X3699188Y7691840D02*
X3790628Y7600400D01*
X3790628Y7691840D02*
X3699188Y7600400D01*
X3744908Y7691840D02*
X3744908Y7600400D01*
X3699188Y7646120D02*
X3790628Y7646120D01*
D19*
X753900Y10468656D02*
X853900Y10368656D01*
X853900Y10468656D02*
X753900Y10368656D01*
X839256Y10383301D02*
X839256Y10454012D01*
X768544Y10454012D01*
X768544Y10383301D01*
X839256Y10383301D01*
X753900Y10018656D02*
X853900Y9918656D01*
X853900Y10018656D02*
X753900Y9918656D01*
X839256Y9933301D02*
X839256Y10004012D01*
X768544Y10004012D01*
X768544Y9933301D01*
X839256Y9933301D01*
X1403900Y10468656D02*
X1503900Y10368656D01*
X1503900Y10468656D02*
X1403900Y10368656D01*
X1489256Y10383301D02*
X1489256Y10454012D01*
X1418544Y10454012D01*
X1418544Y10383301D01*
X1489256Y10383301D01*
X1403900Y10018656D02*
X1503900Y9918656D01*
X1503900Y10018656D02*
X1403900Y9918656D01*
X1489256Y9933301D02*
X1489256Y10004012D01*
X1418544Y10004012D01*
X1418544Y9933301D01*
X1489256Y9933301D01*
X2368098Y3312000D02*
X2468098Y3212000D01*
X2468098Y3312000D02*
X2368098Y3212000D01*
X2453454Y3226644D02*
X2453454Y3297356D01*
X2382742Y3297356D01*
X2382742Y3226644D01*
X2453454Y3226644D01*
X2368098Y3058000D02*
X2468098Y2958000D01*
X2468098Y3058000D02*
X2368098Y2958000D01*
X2453454Y2972644D02*
X2453454Y3043356D01*
X2382742Y3043356D01*
X2382742Y2972644D01*
X2453454Y2972644D01*
X2622098Y3312000D02*
X2722098Y3212000D01*
X2722098Y3312000D02*
X2622098Y3212000D01*
X2707454Y3226644D02*
X2707454Y3297356D01*
X2636742Y3297356D01*
X2636742Y3226644D01*
X2707454Y3226644D01*
X2622098Y3058000D02*
X2722098Y2958000D01*
X2722098Y3058000D02*
X2622098Y2958000D01*
X2707454Y2972644D02*
X2707454Y3043356D01*
X2636742Y3043356D01*
X2636742Y2972644D01*
X2707454Y2972644D01*
X2649098Y9192999D02*
X2749098Y9092999D01*
X2749098Y9192999D02*
X2649098Y9092999D01*
X2734454Y9107644D02*
X2734454Y9178355D01*
X2663742Y9178355D01*
X2663742Y9107644D01*
X2734454Y9107644D01*
X2649098Y8938999D02*
X2749098Y8838999D01*
X2749098Y8938999D02*
X2649098Y8838999D01*
X2734454Y8853644D02*
X2734454Y8924355D01*
X2663742Y8924355D01*
X2663742Y8853644D01*
X2734454Y8853644D01*
X2649098Y8684999D02*
X2749098Y8584999D01*
X2749098Y8684999D02*
X2649098Y8584999D01*
X2734454Y8599644D02*
X2734454Y8670355D01*
X2663742Y8670355D01*
X2663742Y8599644D01*
X2734454Y8599644D01*
X2649098Y8430999D02*
X2749098Y8330999D01*
X2749098Y8430999D02*
X2649098Y8330999D01*
X2734454Y8345643D02*
X2734454Y8416355D01*
X2663742Y8416355D01*
X2663742Y8345643D01*
X2734454Y8345643D01*
X2649098Y8176999D02*
X2749098Y8076999D01*
X2749098Y8176999D02*
X2649098Y8076999D01*
X2734454Y8091643D02*
X2734454Y8162355D01*
X2663742Y8162355D01*
X2663742Y8091643D01*
X2734454Y8091643D01*
X2876098Y3312000D02*
X2976098Y3212000D01*
X2976098Y3312000D02*
X2876098Y3212000D01*
X2961453Y3226644D02*
X2961453Y3297356D01*
X2890742Y3297356D01*
X2890742Y3226644D01*
X2961453Y3226644D01*
X2876098Y3058000D02*
X2976098Y2958000D01*
X2976098Y3058000D02*
X2876098Y2958000D01*
X2961453Y2972644D02*
X2961453Y3043356D01*
X2890742Y3043356D01*
X2890742Y2972644D01*
X2961453Y2972644D01*
X2903098Y9192999D02*
X3003098Y9092999D01*
X3003098Y9192999D02*
X2903098Y9092999D01*
X2988454Y9107644D02*
X2988454Y9178355D01*
X2917742Y9178355D01*
X2917742Y9107644D01*
X2988454Y9107644D01*
X2903098Y8938999D02*
X3003098Y8838999D01*
X3003098Y8938999D02*
X2903098Y8838999D01*
X2988454Y8853644D02*
X2988454Y8924355D01*
X2917742Y8924355D01*
X2917742Y8853644D01*
X2988454Y8853644D01*
X2903098Y8684999D02*
X3003098Y8584999D01*
X3003098Y8684999D02*
X2903098Y8584999D01*
X2988454Y8599644D02*
X2988454Y8670355D01*
X2917742Y8670355D01*
X2917742Y8599644D01*
X2988454Y8599644D01*
X2903098Y8430999D02*
X3003098Y8330999D01*
X3003098Y8430999D02*
X2903098Y8330999D01*
X2988454Y8345643D02*
X2988454Y8416355D01*
X2917742Y8416355D01*
X2917742Y8345643D01*
X2988454Y8345643D01*
X2903098Y8176999D02*
X3003098Y8076999D01*
X3003098Y8176999D02*
X2903098Y8076999D01*
X2988454Y8091643D02*
X2988454Y8162355D01*
X2917742Y8162355D01*
X2917742Y8091643D01*
X2988454Y8091643D01*
X3130098Y3312000D02*
X3230098Y3212000D01*
X3230098Y3312000D02*
X3130098Y3212000D01*
X3215453Y3226644D02*
X3215453Y3297356D01*
X3144742Y3297356D01*
X3144742Y3226644D01*
X3215453Y3226644D01*
X3130098Y3058000D02*
X3230098Y2958000D01*
X3230098Y3058000D02*
X3130098Y2958000D01*
X3215453Y2972644D02*
X3215453Y3043356D01*
X3144742Y3043356D01*
X3144742Y2972644D01*
X3215453Y2972644D01*
X3384098Y3312000D02*
X3484098Y3212000D01*
X3484098Y3312000D02*
X3384098Y3212000D01*
X3469453Y3226644D02*
X3469453Y3297356D01*
X3398742Y3297356D01*
X3398742Y3226644D01*
X3469453Y3226644D01*
X3384098Y3058000D02*
X3484098Y2958000D01*
X3484098Y3058000D02*
X3384098Y2958000D01*
X3469453Y2972644D02*
X3469453Y3043356D01*
X3398742Y3043356D01*
X3398742Y2972644D01*
X3469453Y2972644D01*
X3549300Y10241156D02*
X3649300Y10141156D01*
X3649300Y10241156D02*
X3549300Y10141156D01*
X3634656Y10155801D02*
X3634656Y10226512D01*
X3563944Y10226512D01*
X3563944Y10155801D01*
X3634656Y10155801D01*
X3549300Y9791156D02*
X3649300Y9691156D01*
X3649300Y9791156D02*
X3549300Y9691156D01*
X3634656Y9705801D02*
X3634656Y9776512D01*
X3563944Y9776512D01*
X3563944Y9705801D01*
X3634656Y9705801D01*
X3731900Y1432380D02*
X3831900Y1332380D01*
X3831900Y1432380D02*
X3731900Y1332380D01*
X3817256Y1347024D02*
X3817256Y1417736D01*
X3746544Y1417736D01*
X3746544Y1347024D01*
X3817256Y1347024D01*
X3731900Y1178380D02*
X3831900Y1078380D01*
X3831900Y1178380D02*
X3731900Y1078380D01*
X3817256Y1093024D02*
X3817256Y1163736D01*
X3746544Y1163736D01*
X3746544Y1093024D01*
X3817256Y1093024D01*
X3731900Y924380D02*
X3831900Y824380D01*
X3831900Y924380D02*
X3731900Y824380D01*
X3817256Y839024D02*
X3817256Y909736D01*
X3746544Y909736D01*
X3746544Y839024D01*
X3817256Y839024D01*
X3731900Y670380D02*
X3831900Y570380D01*
X3831900Y670380D02*
X3731900Y570380D01*
X3817256Y585024D02*
X3817256Y655736D01*
X3746544Y655736D01*
X3746544Y585024D01*
X3817256Y585024D01*
X3731900Y416380D02*
X3831900Y316380D01*
X3831900Y416380D02*
X3731900Y316380D01*
X3817256Y331024D02*
X3817256Y401736D01*
X3746544Y401736D01*
X3746544Y331024D01*
X3817256Y331024D01*
X3985900Y1432380D02*
X4085900Y1332380D01*
X4085900Y1432380D02*
X3985900Y1332380D01*
X4071256Y1347024D02*
X4071256Y1417736D01*
X4000544Y1417736D01*
X4000544Y1347024D01*
X4071256Y1347024D01*
X3985900Y1178380D02*
X4085900Y1078380D01*
X4085900Y1178380D02*
X3985900Y1078380D01*
X4071256Y1093024D02*
X4071256Y1163736D01*
X4000544Y1163736D01*
X4000544Y1093024D01*
X4071256Y1093024D01*
X3985900Y924380D02*
X4085900Y824380D01*
X4085900Y924380D02*
X3985900Y824380D01*
X4071256Y839024D02*
X4071256Y909736D01*
X4000544Y909736D01*
X4000544Y839024D01*
X4071256Y839024D01*
X3985900Y670380D02*
X4085900Y570380D01*
X4085900Y670380D02*
X3985900Y570380D01*
X4071256Y585024D02*
X4071256Y655736D01*
X4000544Y655736D01*
X4000544Y585024D01*
X4071256Y585024D01*
X3985900Y416380D02*
X4085900Y316380D01*
X4085900Y416380D02*
X3985900Y316380D01*
X4071256Y331024D02*
X4071256Y401736D01*
X4000544Y401736D01*
X4000544Y331024D01*
X4071256Y331024D01*
X4148500Y10241156D02*
X4248500Y10141156D01*
X4248500Y10241156D02*
X4148500Y10141156D01*
X4233856Y10155801D02*
X4233856Y10226512D01*
X4163144Y10226512D01*
X4163144Y10155801D01*
X4233856Y10155801D01*
X4148500Y9791156D02*
X4248500Y9691156D01*
X4248500Y9791156D02*
X4148500Y9691156D01*
X4233856Y9705801D02*
X4233856Y9776512D01*
X4163144Y9776512D01*
X4163144Y9705801D01*
X4233856Y9705801D01*
X4968100Y3312000D02*
X5068100Y3212000D01*
X5068100Y3312000D02*
X4968100Y3212000D01*
X5053456Y3226644D02*
X5053456Y3297356D01*
X4982745Y3297356D01*
X4982745Y3226644D01*
X5053456Y3226644D01*
X4968100Y3058000D02*
X5068100Y2958000D01*
X5068100Y3058000D02*
X4968100Y2958000D01*
X5053456Y2972644D02*
X5053456Y3043356D01*
X4982745Y3043356D01*
X4982745Y2972644D01*
X5053456Y2972644D01*
X5222100Y3312000D02*
X5322100Y3212000D01*
X5322100Y3312000D02*
X5222100Y3212000D01*
X5307456Y3226644D02*
X5307456Y3297356D01*
X5236745Y3297356D01*
X5236745Y3226644D01*
X5307456Y3226644D01*
X5222100Y3058000D02*
X5322100Y2958000D01*
X5322100Y3058000D02*
X5222100Y2958000D01*
X5307456Y2972644D02*
X5307456Y3043356D01*
X5236745Y3043356D01*
X5236745Y2972644D01*
X5307456Y2972644D01*
X5449100Y9192999D02*
X5549100Y9092999D01*
X5549100Y9192999D02*
X5449100Y9092999D01*
X5534456Y9107644D02*
X5534456Y9178355D01*
X5463744Y9178355D01*
X5463744Y9107644D01*
X5534456Y9107644D01*
X5449100Y8938999D02*
X5549100Y8838999D01*
X5549100Y8938999D02*
X5449100Y8838999D01*
X5534456Y8853644D02*
X5534456Y8924355D01*
X5463744Y8924355D01*
X5463744Y8853644D01*
X5534456Y8853644D01*
X5449100Y8684999D02*
X5549100Y8584999D01*
X5549100Y8684999D02*
X5449100Y8584999D01*
X5534456Y8599644D02*
X5534456Y8670355D01*
X5463744Y8670355D01*
X5463744Y8599644D01*
X5534456Y8599644D01*
X5449100Y8430999D02*
X5549100Y8330999D01*
X5549100Y8430999D02*
X5449100Y8330999D01*
X5534456Y8345643D02*
X5534456Y8416355D01*
X5463744Y8416355D01*
X5463744Y8345643D01*
X5534456Y8345643D01*
X5449100Y8176999D02*
X5549100Y8076999D01*
X5549100Y8176999D02*
X5449100Y8076999D01*
X5534456Y8091643D02*
X5534456Y8162355D01*
X5463744Y8162355D01*
X5463744Y8091643D01*
X5534456Y8091643D01*
X5476100Y3312000D02*
X5576100Y3212000D01*
X5576100Y3312000D02*
X5476100Y3212000D01*
X5561456Y3226644D02*
X5561456Y3297356D01*
X5490745Y3297356D01*
X5490745Y3226644D01*
X5561456Y3226644D01*
X5476100Y3058000D02*
X5576100Y2958000D01*
X5576100Y3058000D02*
X5476100Y2958000D01*
X5561456Y2972644D02*
X5561456Y3043356D01*
X5490745Y3043356D01*
X5490745Y2972644D01*
X5561456Y2972644D01*
X5703100Y9192999D02*
X5803100Y9092999D01*
X5803100Y9192999D02*
X5703100Y9092999D01*
X5788456Y9107644D02*
X5788456Y9178355D01*
X5717744Y9178355D01*
X5717744Y9107644D01*
X5788456Y9107644D01*
X5703100Y8938999D02*
X5803100Y8838999D01*
X5803100Y8938999D02*
X5703100Y8838999D01*
X5788456Y8853644D02*
X5788456Y8924355D01*
X5717744Y8924355D01*
X5717744Y8853644D01*
X5788456Y8853644D01*
X5703100Y8684999D02*
X5803100Y8584999D01*
X5803100Y8684999D02*
X5703100Y8584999D01*
X5788456Y8599644D02*
X5788456Y8670355D01*
X5717744Y8670355D01*
X5717744Y8599644D01*
X5788456Y8599644D01*
X5703100Y8430999D02*
X5803100Y8330999D01*
X5803100Y8430999D02*
X5703100Y8330999D01*
X5788456Y8345643D02*
X5788456Y8416355D01*
X5717744Y8416355D01*
X5717744Y8345643D01*
X5788456Y8345643D01*
X5703100Y8176999D02*
X5803100Y8076999D01*
X5803100Y8176999D02*
X5703100Y8076999D01*
X5788456Y8091643D02*
X5788456Y8162355D01*
X5717744Y8162355D01*
X5717744Y8091643D01*
X5788456Y8091643D01*
X5730100Y3312000D02*
X5830100Y3212000D01*
X5830100Y3312000D02*
X5730100Y3212000D01*
X5815456Y3226644D02*
X5815456Y3297356D01*
X5744744Y3297356D01*
X5744744Y3226644D01*
X5815456Y3226644D01*
X5730100Y3058000D02*
X5830100Y2958000D01*
X5830100Y3058000D02*
X5730100Y2958000D01*
X5815456Y2972644D02*
X5815456Y3043356D01*
X5744744Y3043356D01*
X5744744Y2972644D01*
X5815456Y2972644D01*
X5984100Y3312000D02*
X6084100Y3212000D01*
X6084100Y3312000D02*
X5984100Y3212000D01*
X6069456Y3226644D02*
X6069456Y3297356D01*
X5998744Y3297356D01*
X5998744Y3226644D01*
X6069456Y3226644D01*
X5984100Y3058000D02*
X6084100Y2958000D01*
X6084100Y3058000D02*
X5984100Y2958000D01*
X6069456Y2972644D02*
X6069456Y3043356D01*
X5998744Y3043356D01*
X5998744Y2972644D01*
X6069456Y2972644D01*
X6293900Y10468656D02*
X6393900Y10368656D01*
X6393900Y10468656D02*
X6293900Y10368656D01*
X6379256Y10383301D02*
X6379256Y10454012D01*
X6308544Y10454012D01*
X6308544Y10383301D01*
X6379256Y10383301D01*
X6293900Y10018656D02*
X6393900Y9918656D01*
X6393900Y10018656D02*
X6293900Y9918656D01*
X6379256Y9933301D02*
X6379256Y10004012D01*
X6308544Y10004012D01*
X6308544Y9933301D01*
X6379256Y9933301D01*
X6943900Y10468656D02*
X7043900Y10368656D01*
X7043900Y10468656D02*
X6943900Y10368656D01*
X7029256Y10383301D02*
X7029256Y10454012D01*
X6958544Y10454012D01*
X6958544Y10383301D01*
X7029256Y10383301D01*
X6943900Y10018656D02*
X7043900Y9918656D01*
X7043900Y10018656D02*
X6943900Y9918656D01*
X7029256Y9933301D02*
X7029256Y10004012D01*
X6958544Y10004012D01*
X6958544Y9933301D01*
X7029256Y9933301D01*
D20*
X433970Y2395806D02*
X548270Y2281506D01*
X548270Y2395806D02*
X433970Y2281506D01*
X491120Y2281506D02*
X548270Y2338656D01*
X491120Y2395806D01*
X433970Y2338656D01*
X491120Y2281506D01*
X433970Y853306D02*
X548270Y739006D01*
X548270Y853306D02*
X433970Y739006D01*
X491120Y739006D02*
X548270Y796156D01*
X491120Y853306D01*
X433970Y796156D01*
X491120Y739006D01*
X773970Y3975806D02*
X888270Y3861506D01*
X888270Y3975806D02*
X773970Y3861506D01*
X831120Y3861506D02*
X888270Y3918656D01*
X831120Y3975806D01*
X773970Y3918656D01*
X831120Y3861506D01*
X1289950Y2395806D02*
X1404250Y2281506D01*
X1404250Y2395806D02*
X1289950Y2281506D01*
X1347100Y2281506D02*
X1404250Y2338656D01*
X1347100Y2395806D01*
X1289950Y2338656D01*
X1347100Y2281506D01*
X1289950Y853306D02*
X1404250Y739006D01*
X1404250Y853306D02*
X1289950Y739006D01*
X1347100Y739006D02*
X1404250Y796156D01*
X1347100Y853306D01*
X1289950Y796156D01*
X1347100Y739006D01*
X1629950Y3975806D02*
X1744250Y3861506D01*
X1744250Y3975806D02*
X1629950Y3861506D01*
X1687100Y3861506D02*
X1744250Y3918656D01*
X1687100Y3975806D01*
X1629950Y3918656D01*
X1687100Y3861506D01*
X2410770Y2395806D02*
X2525070Y2281506D01*
X2525070Y2395806D02*
X2410770Y2281506D01*
X2467920Y2281506D02*
X2525070Y2338656D01*
X2467920Y2395806D01*
X2410770Y2338656D01*
X2467920Y2281506D01*
X2413470Y853306D02*
X2527770Y739006D01*
X2527770Y853306D02*
X2413470Y739006D01*
X2470620Y739006D02*
X2527770Y796156D01*
X2470620Y853306D01*
X2413470Y796156D01*
X2470620Y739006D01*
X2591470Y3975806D02*
X2705770Y3861506D01*
X2705770Y3975806D02*
X2591470Y3861506D01*
X2648620Y3861506D02*
X2705770Y3918656D01*
X2648620Y3975806D01*
X2591470Y3918656D01*
X2648620Y3861506D01*
X3266750Y2395806D02*
X3381050Y2281506D01*
X3381050Y2395806D02*
X3266750Y2281506D01*
X3323900Y2281506D02*
X3381050Y2338656D01*
X3323900Y2395806D01*
X3266750Y2338656D01*
X3323900Y2281506D01*
X3269450Y853306D02*
X3383750Y739006D01*
X3383750Y853306D02*
X3269450Y739006D01*
X3326600Y739006D02*
X3383750Y796156D01*
X3326600Y853306D01*
X3269450Y796156D01*
X3326600Y739006D01*
X3447450Y3975806D02*
X3561750Y3861506D01*
X3561750Y3975806D02*
X3447450Y3861506D01*
X3504600Y3861506D02*
X3561750Y3918656D01*
X3504600Y3975806D01*
X3447450Y3918656D01*
X3504600Y3861506D01*
X4413970Y3975806D02*
X4528270Y3861506D01*
X4528270Y3975806D02*
X4413970Y3861506D01*
X4471120Y3861506D02*
X4528270Y3918656D01*
X4471120Y3975806D01*
X4413970Y3918656D01*
X4471120Y3861506D01*
X4599470Y853306D02*
X4713770Y739006D01*
X4713770Y853306D02*
X4599470Y739006D01*
X4656620Y739006D02*
X4713770Y796156D01*
X4656620Y853306D01*
X4599470Y796156D01*
X4656620Y739006D01*
X4602170Y2395806D02*
X4716470Y2281506D01*
X4716470Y2395806D02*
X4602170Y2281506D01*
X4659320Y2281506D02*
X4716470Y2338656D01*
X4659320Y2395806D01*
X4602170Y2338656D01*
X4659320Y2281506D01*
X5269950Y3975806D02*
X5384250Y3861506D01*
X5384250Y3975806D02*
X5269950Y3861506D01*
X5327100Y3861506D02*
X5384250Y3918656D01*
X5327100Y3975806D01*
X5269950Y3918656D01*
X5327100Y3861506D01*
X5455450Y853306D02*
X5569750Y739006D01*
X5569750Y853306D02*
X5455450Y739006D01*
X5512600Y739006D02*
X5569750Y796156D01*
X5512600Y853306D01*
X5455450Y796156D01*
X5512600Y739006D01*
X5458150Y2395806D02*
X5572450Y2281506D01*
X5572450Y2395806D02*
X5458150Y2281506D01*
X5515300Y2281506D02*
X5572450Y2338656D01*
X5515300Y2395806D01*
X5458150Y2338656D01*
X5515300Y2281506D01*
X6061050Y3975806D02*
X6175350Y3861506D01*
X6175350Y3975806D02*
X6061050Y3861506D01*
X6118200Y3861506D02*
X6175350Y3918656D01*
X6118200Y3975806D01*
X6061050Y3918656D01*
X6118200Y3861506D01*
X6578970Y2395806D02*
X6693270Y2281506D01*
X6693270Y2395806D02*
X6578970Y2281506D01*
X6636120Y2281506D02*
X6693270Y2338656D01*
X6636120Y2395806D01*
X6578970Y2338656D01*
X6636120Y2281506D01*
X6578970Y853306D02*
X6693270Y739006D01*
X6693270Y853306D02*
X6578970Y739006D01*
X6636120Y739006D02*
X6693270Y796156D01*
X6636120Y853306D01*
X6578970Y796156D01*
X6636120Y739006D01*
X6917030Y3975806D02*
X7031330Y3861506D01*
X7031330Y3975806D02*
X6917030Y3861506D01*
X6974180Y3861506D02*
X7031330Y3918656D01*
X6974180Y3975806D01*
X6917030Y3918656D01*
X6974180Y3861506D01*
X7434950Y2395806D02*
X7549250Y2281506D01*
X7549250Y2395806D02*
X7434950Y2281506D01*
X7492100Y2281506D02*
X7549250Y2338656D01*
X7492100Y2395806D01*
X7434950Y2338656D01*
X7492100Y2281506D01*
X7434950Y853306D02*
X7549250Y739006D01*
X7549250Y853306D02*
X7434950Y739006D01*
X7492100Y739006D02*
X7549250Y796156D01*
X7492100Y853306D01*
X7434950Y796156D01*
X7492100Y739006D01*
D21*
X608900Y6810756D02*
X608900Y6690756D01*
X548900Y6750756D02*
X668900Y6750756D01*
X668900Y6750756D02*
G75*
G03*
X668900Y6750756I-60000J0D01*
G01*
X1108900Y6810756D02*
X1108900Y6690756D01*
X1048900Y6750756D02*
X1168900Y6750756D01*
X1168900Y6750756D02*
G75*
G03*
X1168900Y6750756I-60000J0D01*
G01*
X1608900Y6810756D02*
X1608900Y6690756D01*
X1548900Y6750756D02*
X1668900Y6750756D01*
X1668900Y6750756D02*
G75*
G03*
X1668900Y6750756I-60000J0D01*
G01*
X2128900Y4851980D02*
X2128900Y4731980D01*
X2068900Y4791980D02*
X2188900Y4791980D01*
X2188900Y4791980D02*
G75*
G03*
X2188900Y4791980I-60000J0D01*
G01*
X2628900Y4851980D02*
X2628900Y4731980D01*
X2568900Y4791980D02*
X2688900Y4791980D01*
X2688900Y4791980D02*
G75*
G03*
X2688900Y4791980I-60000J0D01*
G01*
X3128900Y4851980D02*
X3128900Y4731980D01*
X3068900Y4791980D02*
X3188900Y4791980D01*
X3188900Y4791980D02*
G75*
G03*
X3188900Y4791980I-60000J0D01*
G01*
X4668900Y4847548D02*
X4668900Y4727548D01*
X4608900Y4787548D02*
X4728900Y4787548D01*
X4728900Y4787548D02*
G75*
G03*
X4728900Y4787548I-60000J0D01*
G01*
X5168900Y4847548D02*
X5168900Y4727548D01*
X5108900Y4787548D02*
X5228900Y4787548D01*
X5228900Y4787548D02*
G75*
G03*
X5228900Y4787548I-60000J0D01*
G01*
X5668900Y4847548D02*
X5668900Y4727548D01*
X5608900Y4787548D02*
X5728900Y4787548D01*
X5728900Y4787548D02*
G75*
G03*
X5728900Y4787548I-60000J0D01*
G01*
X6188900Y6810756D02*
X6188900Y6690756D01*
X6128900Y6750756D02*
X6248900Y6750756D01*
X6248900Y6750756D02*
G75*
G03*
X6248900Y6750756I-60000J0D01*
G01*
X6688900Y6810756D02*
X6688900Y6690756D01*
X6628900Y6750756D02*
X6748900Y6750756D01*
X6748900Y6750756D02*
G75*
G03*
X6748900Y6750756I-60000J0D01*
G01*
X7188900Y6810756D02*
X7188900Y6690756D01*
X7128900Y6750756D02*
X7248900Y6750756D01*
X7248900Y6750756D02*
G75*
G03*
X7248900Y6750756I-60000J0D01*
G01*
D11*
X240119Y-320024D02*
X240119Y-120024D01*
X240119Y-120024D02*
X287738Y-120024D01*
X287738Y-120024D02*
X316310Y-129548D01*
X316310Y-129548D02*
X335357Y-148595D01*
X335357Y-148595D02*
X344881Y-167643D01*
X344881Y-167643D02*
X354405Y-205738D01*
X354405Y-205738D02*
X354405Y-234309D01*
X354405Y-234309D02*
X344881Y-272405D01*
X344881Y-272405D02*
X335357Y-291452D01*
X335357Y-291452D02*
X316310Y-310500D01*
X316310Y-310500D02*
X287738Y-320024D01*
X287738Y-320024D02*
X240119Y-320024D01*
X440119Y-320024D02*
X440119Y-186690D01*
X440119Y-224786D02*
X449643Y-205738D01*
X449643Y-205738D02*
X459167Y-196214D01*
X459167Y-196214D02*
X478214Y-186690D01*
X478214Y-186690D02*
X497262Y-186690D01*
X563929Y-320024D02*
X563929Y-186690D01*
X563929Y-120024D02*
X554405Y-129548D01*
X554405Y-129548D02*
X563929Y-139071D01*
X563929Y-139071D02*
X573452Y-129548D01*
X573452Y-129548D02*
X563929Y-120024D01*
X563929Y-120024D02*
X563929Y-139071D01*
X687738Y-320024D02*
X668690Y-310500D01*
X668690Y-310500D02*
X659167Y-291452D01*
X659167Y-291452D02*
X659167Y-120024D01*
X792500Y-320024D02*
X773452Y-310500D01*
X773452Y-310500D02*
X763928Y-291452D01*
X763928Y-291452D02*
X763928Y-120024D01*
X1021071Y-320024D02*
X1021071Y-120024D01*
X1021071Y-120024D02*
X1087738Y-262881D01*
X1087738Y-262881D02*
X1154405Y-120024D01*
X1154405Y-120024D02*
X1154405Y-320024D01*
X1335357Y-320024D02*
X1335357Y-215262D01*
X1335357Y-215262D02*
X1325833Y-196214D01*
X1325833Y-196214D02*
X1306786Y-186690D01*
X1306786Y-186690D02*
X1268690Y-186690D01*
X1268690Y-186690D02*
X1249643Y-196214D01*
X1335357Y-310500D02*
X1316310Y-320024D01*
X1316310Y-320024D02*
X1268690Y-320024D01*
X1268690Y-320024D02*
X1249643Y-310500D01*
X1249643Y-310500D02*
X1240119Y-291452D01*
X1240119Y-291452D02*
X1240119Y-272405D01*
X1240119Y-272405D02*
X1249643Y-253357D01*
X1249643Y-253357D02*
X1268690Y-243833D01*
X1268690Y-243833D02*
X1316310Y-243833D01*
X1316310Y-243833D02*
X1335357Y-234309D01*
X1430595Y-186690D02*
X1430595Y-386690D01*
X1430595Y-196214D02*
X1449643Y-186690D01*
X1449643Y-186690D02*
X1487738Y-186690D01*
X1487738Y-186690D02*
X1506786Y-196214D01*
X1506786Y-196214D02*
X1516309Y-205738D01*
X1516309Y-205738D02*
X1525833Y-224786D01*
X1525833Y-224786D02*
X1525833Y-281929D01*
X1525833Y-281929D02*
X1516309Y-300976D01*
X1516309Y-300976D02*
X1506786Y-310500D01*
X1506786Y-310500D02*
X1487738Y-320024D01*
X1487738Y-320024D02*
X1449643Y-320024D01*
X1449643Y-320024D02*
X1430595Y-310500D01*
X1611548Y-300976D02*
X1621071Y-310500D01*
X1621071Y-310500D02*
X1611548Y-320024D01*
X1611548Y-320024D02*
X1602024Y-310500D01*
X1602024Y-310500D02*
X1611548Y-300976D01*
X1611548Y-300976D02*
X1611548Y-320024D01*
X1611548Y-196214D02*
X1621071Y-205738D01*
X1621071Y-205738D02*
X1611548Y-215262D01*
X1611548Y-215262D02*
X1602024Y-205738D01*
X1602024Y-205738D02*
X1611548Y-196214D01*
X1611548Y-196214D02*
X1611548Y-215262D01*
D12*
X-47500Y-627500D02*
X-7500Y-667500D01*
X-7500Y-627500D02*
X-47500Y-667500D01*
D11*
X278214Y-540024D02*
X297262Y-540024D01*
X297262Y-540024D02*
X316310Y-549548D01*
X316310Y-549548D02*
X325833Y-559071D01*
X325833Y-559071D02*
X335357Y-578119D01*
X335357Y-578119D02*
X344881Y-616214D01*
X344881Y-616214D02*
X344881Y-663833D01*
X344881Y-663833D02*
X335357Y-701928D01*
X335357Y-701928D02*
X325833Y-720976D01*
X325833Y-720976D02*
X316310Y-730500D01*
X316310Y-730500D02*
X297262Y-740024D01*
X297262Y-740024D02*
X278214Y-740024D01*
X278214Y-740024D02*
X259167Y-730500D01*
X259167Y-730500D02*
X249643Y-720976D01*
X249643Y-720976D02*
X240119Y-701928D01*
X240119Y-701928D02*
X230595Y-663833D01*
X230595Y-663833D02*
X230595Y-616214D01*
X230595Y-616214D02*
X240119Y-578119D01*
X240119Y-578119D02*
X249643Y-559071D01*
X249643Y-559071D02*
X259167Y-549548D01*
X259167Y-549548D02*
X278214Y-540024D01*
X430595Y-720976D02*
X440119Y-730500D01*
X440119Y-730500D02*
X430595Y-740024D01*
X430595Y-740024D02*
X421071Y-730500D01*
X421071Y-730500D02*
X430595Y-720976D01*
X430595Y-720976D02*
X430595Y-740024D01*
X611548Y-606690D02*
X611548Y-740024D01*
X563929Y-530500D02*
X516309Y-673357D01*
X516309Y-673357D02*
X640119Y-673357D01*
X754405Y-540024D02*
X773452Y-540024D01*
X773452Y-540024D02*
X792500Y-549548D01*
X792500Y-549548D02*
X802024Y-559071D01*
X802024Y-559071D02*
X811548Y-578119D01*
X811548Y-578119D02*
X821071Y-616214D01*
X821071Y-616214D02*
X821071Y-663833D01*
X821071Y-663833D02*
X811548Y-701928D01*
X811548Y-701928D02*
X802024Y-720976D01*
X802024Y-720976D02*
X792500Y-730500D01*
X792500Y-730500D02*
X773452Y-740024D01*
X773452Y-740024D02*
X754405Y-740024D01*
X754405Y-740024D02*
X735357Y-730500D01*
X735357Y-730500D02*
X725833Y-720976D01*
X725833Y-720976D02*
X716309Y-701928D01*
X716309Y-701928D02*
X706786Y-663833D01*
X706786Y-663833D02*
X706786Y-616214D01*
X706786Y-616214D02*
X716309Y-578119D01*
X716309Y-578119D02*
X725833Y-559071D01*
X725833Y-559071D02*
X735357Y-549548D01*
X735357Y-549548D02*
X754405Y-540024D01*
X944881Y-540024D02*
X963929Y-540024D01*
X963929Y-540024D02*
X982976Y-549548D01*
X982976Y-549548D02*
X992500Y-559071D01*
X992500Y-559071D02*
X1002024Y-578119D01*
X1002024Y-578119D02*
X1011548Y-616214D01*
X1011548Y-616214D02*
X1011548Y-663833D01*
X1011548Y-663833D02*
X1002024Y-701928D01*
X1002024Y-701928D02*
X992500Y-720976D01*
X992500Y-720976D02*
X982976Y-730500D01*
X982976Y-730500D02*
X963929Y-740024D01*
X963929Y-740024D02*
X944881Y-740024D01*
X944881Y-740024D02*
X925833Y-730500D01*
X925833Y-730500D02*
X916309Y-720976D01*
X916309Y-720976D02*
X906786Y-701928D01*
X906786Y-701928D02*
X897262Y-663833D01*
X897262Y-663833D02*
X897262Y-616214D01*
X897262Y-616214D02*
X906786Y-578119D01*
X906786Y-578119D02*
X916309Y-559071D01*
X916309Y-559071D02*
X925833Y-549548D01*
X925833Y-549548D02*
X944881Y-540024D01*
X1097262Y-740024D02*
X1097262Y-606690D01*
X1097262Y-625738D02*
X1106786Y-616214D01*
X1106786Y-616214D02*
X1125833Y-606690D01*
X1125833Y-606690D02*
X1154405Y-606690D01*
X1154405Y-606690D02*
X1173452Y-616214D01*
X1173452Y-616214D02*
X1182976Y-635262D01*
X1182976Y-635262D02*
X1182976Y-740024D01*
X1182976Y-635262D02*
X1192500Y-616214D01*
X1192500Y-616214D02*
X1211548Y-606690D01*
X1211548Y-606690D02*
X1240119Y-606690D01*
X1240119Y-606690D02*
X1259167Y-616214D01*
X1259167Y-616214D02*
X1268691Y-635262D01*
X1268691Y-635262D02*
X1268691Y-740024D01*
X1363929Y-740024D02*
X1363929Y-606690D01*
X1363929Y-625738D02*
X1373452Y-616214D01*
X1373452Y-616214D02*
X1392500Y-606690D01*
X1392500Y-606690D02*
X1421071Y-606690D01*
X1421071Y-606690D02*
X1440119Y-616214D01*
X1440119Y-616214D02*
X1449643Y-635262D01*
X1449643Y-635262D02*
X1449643Y-740024D01*
X1449643Y-635262D02*
X1459167Y-616214D01*
X1459167Y-616214D02*
X1478214Y-606690D01*
X1478214Y-606690D02*
X1506786Y-606690D01*
X1506786Y-606690D02*
X1525833Y-616214D01*
X1525833Y-616214D02*
X1535357Y-635262D01*
X1535357Y-635262D02*
X1535357Y-740024D01*
X1925833Y-530500D02*
X1754405Y-787643D01*
X2182976Y-540024D02*
X2202024Y-540024D01*
X2202024Y-540024D02*
X2221072Y-549548D01*
X2221072Y-549548D02*
X2230595Y-559071D01*
X2230595Y-559071D02*
X2240119Y-578119D01*
X2240119Y-578119D02*
X2249643Y-616214D01*
X2249643Y-616214D02*
X2249643Y-663833D01*
X2249643Y-663833D02*
X2240119Y-701928D01*
X2240119Y-701928D02*
X2230595Y-720976D01*
X2230595Y-720976D02*
X2221072Y-730500D01*
X2221072Y-730500D02*
X2202024Y-740024D01*
X2202024Y-740024D02*
X2182976Y-740024D01*
X2182976Y-740024D02*
X2163929Y-730500D01*
X2163929Y-730500D02*
X2154405Y-720976D01*
X2154405Y-720976D02*
X2144881Y-701928D01*
X2144881Y-701928D02*
X2135357Y-663833D01*
X2135357Y-663833D02*
X2135357Y-616214D01*
X2135357Y-616214D02*
X2144881Y-578119D01*
X2144881Y-578119D02*
X2154405Y-559071D01*
X2154405Y-559071D02*
X2163929Y-549548D01*
X2163929Y-549548D02*
X2182976Y-540024D01*
X2335357Y-720976D02*
X2344881Y-730500D01*
X2344881Y-730500D02*
X2335357Y-740024D01*
X2335357Y-740024D02*
X2325834Y-730500D01*
X2325834Y-730500D02*
X2335357Y-720976D01*
X2335357Y-720976D02*
X2335357Y-740024D01*
X2468691Y-540024D02*
X2487738Y-540024D01*
X2487738Y-540024D02*
X2506786Y-549548D01*
X2506786Y-549548D02*
X2516310Y-559071D01*
X2516310Y-559071D02*
X2525834Y-578119D01*
X2525834Y-578119D02*
X2535357Y-616214D01*
X2535357Y-616214D02*
X2535357Y-663833D01*
X2535357Y-663833D02*
X2525834Y-701928D01*
X2525834Y-701928D02*
X2516310Y-720976D01*
X2516310Y-720976D02*
X2506786Y-730500D01*
X2506786Y-730500D02*
X2487738Y-740024D01*
X2487738Y-740024D02*
X2468691Y-740024D01*
X2468691Y-740024D02*
X2449643Y-730500D01*
X2449643Y-730500D02*
X2440119Y-720976D01*
X2440119Y-720976D02*
X2430595Y-701928D01*
X2430595Y-701928D02*
X2421072Y-663833D01*
X2421072Y-663833D02*
X2421072Y-616214D01*
X2421072Y-616214D02*
X2430595Y-578119D01*
X2430595Y-578119D02*
X2440119Y-559071D01*
X2440119Y-559071D02*
X2449643Y-549548D01*
X2449643Y-549548D02*
X2468691Y-540024D01*
X2725834Y-740024D02*
X2611548Y-740024D01*
X2668691Y-740024D02*
X2668691Y-540024D01*
X2668691Y-540024D02*
X2649643Y-568595D01*
X2649643Y-568595D02*
X2630595Y-587643D01*
X2630595Y-587643D02*
X2611548Y-597167D01*
X2906786Y-540024D02*
X2811548Y-540024D01*
X2811548Y-540024D02*
X2802024Y-635262D01*
X2802024Y-635262D02*
X2811548Y-625738D01*
X2811548Y-625738D02*
X2830595Y-616214D01*
X2830595Y-616214D02*
X2878214Y-616214D01*
X2878214Y-616214D02*
X2897262Y-625738D01*
X2897262Y-625738D02*
X2906786Y-635262D01*
X2906786Y-635262D02*
X2916310Y-654310D01*
X2916310Y-654310D02*
X2916310Y-701928D01*
X2916310Y-701928D02*
X2906786Y-720976D01*
X2906786Y-720976D02*
X2897262Y-730500D01*
X2897262Y-730500D02*
X2878214Y-740024D01*
X2878214Y-740024D02*
X2830595Y-740024D01*
X2830595Y-740024D02*
X2811548Y-730500D01*
X2811548Y-730500D02*
X2802024Y-720976D01*
X2982976Y-540024D02*
X3116310Y-540024D01*
X3116310Y-540024D02*
X3030595Y-740024D01*
X3182976Y-540024D02*
X3182976Y-578119D01*
X3259167Y-540024D02*
X3259167Y-578119D01*
X3554405Y-816214D02*
X3544881Y-806690D01*
X3544881Y-806690D02*
X3525834Y-778119D01*
X3525834Y-778119D02*
X3516310Y-759071D01*
X3516310Y-759071D02*
X3506786Y-730500D01*
X3506786Y-730500D02*
X3497262Y-682881D01*
X3497262Y-682881D02*
X3497262Y-644786D01*
X3497262Y-644786D02*
X3506786Y-597167D01*
X3506786Y-597167D02*
X3516310Y-568595D01*
X3516310Y-568595D02*
X3525834Y-549548D01*
X3525834Y-549548D02*
X3544881Y-520976D01*
X3544881Y-520976D02*
X3554405Y-511452D01*
X3725834Y-540024D02*
X3630595Y-540024D01*
X3630595Y-540024D02*
X3621072Y-635262D01*
X3621072Y-635262D02*
X3630595Y-625738D01*
X3630595Y-625738D02*
X3649643Y-616214D01*
X3649643Y-616214D02*
X3697262Y-616214D01*
X3697262Y-616214D02*
X3716310Y-625738D01*
X3716310Y-625738D02*
X3725834Y-635262D01*
X3725834Y-635262D02*
X3735357Y-654310D01*
X3735357Y-654310D02*
X3735357Y-701928D01*
X3735357Y-701928D02*
X3725834Y-720976D01*
X3725834Y-720976D02*
X3716310Y-730500D01*
X3716310Y-730500D02*
X3697262Y-740024D01*
X3697262Y-740024D02*
X3649643Y-740024D01*
X3649643Y-740024D02*
X3630595Y-730500D01*
X3630595Y-730500D02*
X3621072Y-720976D01*
X3849643Y-625738D02*
X3830595Y-616214D01*
X3830595Y-616214D02*
X3821072Y-606690D01*
X3821072Y-606690D02*
X3811548Y-587643D01*
X3811548Y-587643D02*
X3811548Y-578119D01*
X3811548Y-578119D02*
X3821072Y-559071D01*
X3821072Y-559071D02*
X3830595Y-549548D01*
X3830595Y-549548D02*
X3849643Y-540024D01*
X3849643Y-540024D02*
X3887738Y-540024D01*
X3887738Y-540024D02*
X3906786Y-549548D01*
X3906786Y-549548D02*
X3916310Y-559071D01*
X3916310Y-559071D02*
X3925834Y-578119D01*
X3925834Y-578119D02*
X3925834Y-587643D01*
X3925834Y-587643D02*
X3916310Y-606690D01*
X3916310Y-606690D02*
X3906786Y-616214D01*
X3906786Y-616214D02*
X3887738Y-625738D01*
X3887738Y-625738D02*
X3849643Y-625738D01*
X3849643Y-625738D02*
X3830595Y-635262D01*
X3830595Y-635262D02*
X3821072Y-644786D01*
X3821072Y-644786D02*
X3811548Y-663833D01*
X3811548Y-663833D02*
X3811548Y-701928D01*
X3811548Y-701928D02*
X3821072Y-720976D01*
X3821072Y-720976D02*
X3830595Y-730500D01*
X3830595Y-730500D02*
X3849643Y-740024D01*
X3849643Y-740024D02*
X3887738Y-740024D01*
X3887738Y-740024D02*
X3906786Y-730500D01*
X3906786Y-730500D02*
X3916310Y-720976D01*
X3916310Y-720976D02*
X3925834Y-701928D01*
X3925834Y-701928D02*
X3925834Y-663833D01*
X3925834Y-663833D02*
X3916310Y-644786D01*
X3916310Y-644786D02*
X3906786Y-635262D01*
X3906786Y-635262D02*
X3887738Y-625738D01*
X4163929Y-740024D02*
X4163929Y-540024D01*
X4249643Y-740024D02*
X4249643Y-635262D01*
X4249643Y-635262D02*
X4240119Y-616214D01*
X4240119Y-616214D02*
X4221072Y-606690D01*
X4221072Y-606690D02*
X4192500Y-606690D01*
X4192500Y-606690D02*
X4173453Y-616214D01*
X4173453Y-616214D02*
X4163929Y-625738D01*
X4373453Y-740024D02*
X4354405Y-730500D01*
X4354405Y-730500D02*
X4344881Y-720976D01*
X4344881Y-720976D02*
X4335358Y-701928D01*
X4335358Y-701928D02*
X4335358Y-644786D01*
X4335358Y-644786D02*
X4344881Y-625738D01*
X4344881Y-625738D02*
X4354405Y-616214D01*
X4354405Y-616214D02*
X4373453Y-606690D01*
X4373453Y-606690D02*
X4402024Y-606690D01*
X4402024Y-606690D02*
X4421072Y-616214D01*
X4421072Y-616214D02*
X4430596Y-625738D01*
X4430596Y-625738D02*
X4440119Y-644786D01*
X4440119Y-644786D02*
X4440119Y-701928D01*
X4440119Y-701928D02*
X4430596Y-720976D01*
X4430596Y-720976D02*
X4421072Y-730500D01*
X4421072Y-730500D02*
X4402024Y-740024D01*
X4402024Y-740024D02*
X4373453Y-740024D01*
X4554405Y-740024D02*
X4535358Y-730500D01*
X4535358Y-730500D02*
X4525834Y-711452D01*
X4525834Y-711452D02*
X4525834Y-540024D01*
X4706786Y-730500D02*
X4687739Y-740024D01*
X4687739Y-740024D02*
X4649643Y-740024D01*
X4649643Y-740024D02*
X4630596Y-730500D01*
X4630596Y-730500D02*
X4621072Y-711452D01*
X4621072Y-711452D02*
X4621072Y-635262D01*
X4621072Y-635262D02*
X4630596Y-616214D01*
X4630596Y-616214D02*
X4649643Y-606690D01*
X4649643Y-606690D02*
X4687739Y-606690D01*
X4687739Y-606690D02*
X4706786Y-616214D01*
X4706786Y-616214D02*
X4716310Y-635262D01*
X4716310Y-635262D02*
X4716310Y-654310D01*
X4716310Y-654310D02*
X4621072Y-673357D01*
X4792500Y-730500D02*
X4811548Y-740024D01*
X4811548Y-740024D02*
X4849643Y-740024D01*
X4849643Y-740024D02*
X4868691Y-730500D01*
X4868691Y-730500D02*
X4878215Y-711452D01*
X4878215Y-711452D02*
X4878215Y-701928D01*
X4878215Y-701928D02*
X4868691Y-682881D01*
X4868691Y-682881D02*
X4849643Y-673357D01*
X4849643Y-673357D02*
X4821072Y-673357D01*
X4821072Y-673357D02*
X4802024Y-663833D01*
X4802024Y-663833D02*
X4792500Y-644786D01*
X4792500Y-644786D02*
X4792500Y-635262D01*
X4792500Y-635262D02*
X4802024Y-616214D01*
X4802024Y-616214D02*
X4821072Y-606690D01*
X4821072Y-606690D02*
X4849643Y-606690D01*
X4849643Y-606690D02*
X4868691Y-616214D01*
X4944881Y-816214D02*
X4954405Y-806690D01*
X4954405Y-806690D02*
X4973453Y-778119D01*
X4973453Y-778119D02*
X4982977Y-759071D01*
X4982977Y-759071D02*
X4992500Y-730500D01*
X4992500Y-730500D02*
X5002024Y-682881D01*
X5002024Y-682881D02*
X5002024Y-644786D01*
X5002024Y-644786D02*
X4992500Y-597167D01*
X4992500Y-597167D02*
X4982977Y-568595D01*
X4982977Y-568595D02*
X4973453Y-549548D01*
X4973453Y-549548D02*
X4954405Y-520976D01*
X4954405Y-520976D02*
X4944881Y-511452D01*
D13*
X-7500Y-911500D02*
G75*
G03*
X-7500Y-911500I-34290J0D01*
G01*
D11*
X278214Y-804024D02*
X297262Y-804024D01*
X297262Y-804024D02*
X316310Y-813548D01*
X316310Y-813548D02*
X325833Y-823071D01*
X325833Y-823071D02*
X335357Y-842119D01*
X335357Y-842119D02*
X344881Y-880214D01*
X344881Y-880214D02*
X344881Y-927833D01*
X344881Y-927833D02*
X335357Y-965928D01*
X335357Y-965928D02*
X325833Y-984976D01*
X325833Y-984976D02*
X316310Y-994500D01*
X316310Y-994500D02*
X297262Y-1004024D01*
X297262Y-1004024D02*
X278214Y-1004024D01*
X278214Y-1004024D02*
X259167Y-994500D01*
X259167Y-994500D02*
X249643Y-984976D01*
X249643Y-984976D02*
X240119Y-965928D01*
X240119Y-965928D02*
X230595Y-927833D01*
X230595Y-927833D02*
X230595Y-880214D01*
X230595Y-880214D02*
X240119Y-842119D01*
X240119Y-842119D02*
X249643Y-823071D01*
X249643Y-823071D02*
X259167Y-813548D01*
X259167Y-813548D02*
X278214Y-804024D01*
X430595Y-984976D02*
X440119Y-994500D01*
X440119Y-994500D02*
X430595Y-1004024D01*
X430595Y-1004024D02*
X421071Y-994500D01*
X421071Y-994500D02*
X430595Y-984976D01*
X430595Y-984976D02*
X430595Y-1004024D01*
X611548Y-804024D02*
X573452Y-804024D01*
X573452Y-804024D02*
X554405Y-813548D01*
X554405Y-813548D02*
X544881Y-823071D01*
X544881Y-823071D02*
X525833Y-851643D01*
X525833Y-851643D02*
X516309Y-889738D01*
X516309Y-889738D02*
X516309Y-965928D01*
X516309Y-965928D02*
X525833Y-984976D01*
X525833Y-984976D02*
X535357Y-994500D01*
X535357Y-994500D02*
X554405Y-1004024D01*
X554405Y-1004024D02*
X592500Y-1004024D01*
X592500Y-1004024D02*
X611548Y-994500D01*
X611548Y-994500D02*
X621071Y-984976D01*
X621071Y-984976D02*
X630595Y-965928D01*
X630595Y-965928D02*
X630595Y-918309D01*
X630595Y-918309D02*
X621071Y-899262D01*
X621071Y-899262D02*
X611548Y-889738D01*
X611548Y-889738D02*
X592500Y-880214D01*
X592500Y-880214D02*
X554405Y-880214D01*
X554405Y-880214D02*
X535357Y-889738D01*
X535357Y-889738D02*
X525833Y-899262D01*
X525833Y-899262D02*
X516309Y-918309D01*
X744881Y-889738D02*
X725833Y-880214D01*
X725833Y-880214D02*
X716309Y-870690D01*
X716309Y-870690D02*
X706786Y-851643D01*
X706786Y-851643D02*
X706786Y-842119D01*
X706786Y-842119D02*
X716309Y-823071D01*
X716309Y-823071D02*
X725833Y-813548D01*
X725833Y-813548D02*
X744881Y-804024D01*
X744881Y-804024D02*
X782976Y-804024D01*
X782976Y-804024D02*
X802024Y-813548D01*
X802024Y-813548D02*
X811548Y-823071D01*
X811548Y-823071D02*
X821071Y-842119D01*
X821071Y-842119D02*
X821071Y-851643D01*
X821071Y-851643D02*
X811548Y-870690D01*
X811548Y-870690D02*
X802024Y-880214D01*
X802024Y-880214D02*
X782976Y-889738D01*
X782976Y-889738D02*
X744881Y-889738D01*
X744881Y-889738D02*
X725833Y-899262D01*
X725833Y-899262D02*
X716309Y-908786D01*
X716309Y-908786D02*
X706786Y-927833D01*
X706786Y-927833D02*
X706786Y-965928D01*
X706786Y-965928D02*
X716309Y-984976D01*
X716309Y-984976D02*
X725833Y-994500D01*
X725833Y-994500D02*
X744881Y-1004024D01*
X744881Y-1004024D02*
X782976Y-1004024D01*
X782976Y-1004024D02*
X802024Y-994500D01*
X802024Y-994500D02*
X811548Y-984976D01*
X811548Y-984976D02*
X821071Y-965928D01*
X821071Y-965928D02*
X821071Y-927833D01*
X821071Y-927833D02*
X811548Y-908786D01*
X811548Y-908786D02*
X802024Y-899262D01*
X802024Y-899262D02*
X782976Y-889738D01*
X992500Y-804024D02*
X954405Y-804024D01*
X954405Y-804024D02*
X935357Y-813548D01*
X935357Y-813548D02*
X925833Y-823071D01*
X925833Y-823071D02*
X906786Y-851643D01*
X906786Y-851643D02*
X897262Y-889738D01*
X897262Y-889738D02*
X897262Y-965928D01*
X897262Y-965928D02*
X906786Y-984976D01*
X906786Y-984976D02*
X916309Y-994500D01*
X916309Y-994500D02*
X935357Y-1004024D01*
X935357Y-1004024D02*
X973452Y-1004024D01*
X973452Y-1004024D02*
X992500Y-994500D01*
X992500Y-994500D02*
X1002024Y-984976D01*
X1002024Y-984976D02*
X1011548Y-965928D01*
X1011548Y-965928D02*
X1011548Y-918309D01*
X1011548Y-918309D02*
X1002024Y-899262D01*
X1002024Y-899262D02*
X992500Y-889738D01*
X992500Y-889738D02*
X973452Y-880214D01*
X973452Y-880214D02*
X935357Y-880214D01*
X935357Y-880214D02*
X916309Y-889738D01*
X916309Y-889738D02*
X906786Y-899262D01*
X906786Y-899262D02*
X897262Y-918309D01*
X1097262Y-1004024D02*
X1097262Y-870690D01*
X1097262Y-889738D02*
X1106786Y-880214D01*
X1106786Y-880214D02*
X1125833Y-870690D01*
X1125833Y-870690D02*
X1154405Y-870690D01*
X1154405Y-870690D02*
X1173452Y-880214D01*
X1173452Y-880214D02*
X1182976Y-899262D01*
X1182976Y-899262D02*
X1182976Y-1004024D01*
X1182976Y-899262D02*
X1192500Y-880214D01*
X1192500Y-880214D02*
X1211548Y-870690D01*
X1211548Y-870690D02*
X1240119Y-870690D01*
X1240119Y-870690D02*
X1259167Y-880214D01*
X1259167Y-880214D02*
X1268691Y-899262D01*
X1268691Y-899262D02*
X1268691Y-1004024D01*
X1363929Y-1004024D02*
X1363929Y-870690D01*
X1363929Y-889738D02*
X1373452Y-880214D01*
X1373452Y-880214D02*
X1392500Y-870690D01*
X1392500Y-870690D02*
X1421071Y-870690D01*
X1421071Y-870690D02*
X1440119Y-880214D01*
X1440119Y-880214D02*
X1449643Y-899262D01*
X1449643Y-899262D02*
X1449643Y-1004024D01*
X1449643Y-899262D02*
X1459167Y-880214D01*
X1459167Y-880214D02*
X1478214Y-870690D01*
X1478214Y-870690D02*
X1506786Y-870690D01*
X1506786Y-870690D02*
X1525833Y-880214D01*
X1525833Y-880214D02*
X1535357Y-899262D01*
X1535357Y-899262D02*
X1535357Y-1004024D01*
X1925833Y-794500D02*
X1754405Y-1051643D01*
X2182976Y-804024D02*
X2202024Y-804024D01*
X2202024Y-804024D02*
X2221072Y-813548D01*
X2221072Y-813548D02*
X2230595Y-823071D01*
X2230595Y-823071D02*
X2240119Y-842119D01*
X2240119Y-842119D02*
X2249643Y-880214D01*
X2249643Y-880214D02*
X2249643Y-927833D01*
X2249643Y-927833D02*
X2240119Y-965928D01*
X2240119Y-965928D02*
X2230595Y-984976D01*
X2230595Y-984976D02*
X2221072Y-994500D01*
X2221072Y-994500D02*
X2202024Y-1004024D01*
X2202024Y-1004024D02*
X2182976Y-1004024D01*
X2182976Y-1004024D02*
X2163929Y-994500D01*
X2163929Y-994500D02*
X2154405Y-984976D01*
X2154405Y-984976D02*
X2144881Y-965928D01*
X2144881Y-965928D02*
X2135357Y-927833D01*
X2135357Y-927833D02*
X2135357Y-880214D01*
X2135357Y-880214D02*
X2144881Y-842119D01*
X2144881Y-842119D02*
X2154405Y-823071D01*
X2154405Y-823071D02*
X2163929Y-813548D01*
X2163929Y-813548D02*
X2182976Y-804024D01*
X2335357Y-984976D02*
X2344881Y-994500D01*
X2344881Y-994500D02*
X2335357Y-1004024D01*
X2335357Y-1004024D02*
X2325834Y-994500D01*
X2325834Y-994500D02*
X2335357Y-984976D01*
X2335357Y-984976D02*
X2335357Y-1004024D01*
X2468691Y-804024D02*
X2487738Y-804024D01*
X2487738Y-804024D02*
X2506786Y-813548D01*
X2506786Y-813548D02*
X2516310Y-823071D01*
X2516310Y-823071D02*
X2525834Y-842119D01*
X2525834Y-842119D02*
X2535357Y-880214D01*
X2535357Y-880214D02*
X2535357Y-927833D01*
X2535357Y-927833D02*
X2525834Y-965928D01*
X2525834Y-965928D02*
X2516310Y-984976D01*
X2516310Y-984976D02*
X2506786Y-994500D01*
X2506786Y-994500D02*
X2487738Y-1004024D01*
X2487738Y-1004024D02*
X2468691Y-1004024D01*
X2468691Y-1004024D02*
X2449643Y-994500D01*
X2449643Y-994500D02*
X2440119Y-984976D01*
X2440119Y-984976D02*
X2430595Y-965928D01*
X2430595Y-965928D02*
X2421072Y-927833D01*
X2421072Y-927833D02*
X2421072Y-880214D01*
X2421072Y-880214D02*
X2430595Y-842119D01*
X2430595Y-842119D02*
X2440119Y-823071D01*
X2440119Y-823071D02*
X2449643Y-813548D01*
X2449643Y-813548D02*
X2468691Y-804024D01*
X2611548Y-823071D02*
X2621072Y-813548D01*
X2621072Y-813548D02*
X2640119Y-804024D01*
X2640119Y-804024D02*
X2687738Y-804024D01*
X2687738Y-804024D02*
X2706786Y-813548D01*
X2706786Y-813548D02*
X2716310Y-823071D01*
X2716310Y-823071D02*
X2725834Y-842119D01*
X2725834Y-842119D02*
X2725834Y-861167D01*
X2725834Y-861167D02*
X2716310Y-889738D01*
X2716310Y-889738D02*
X2602024Y-1004024D01*
X2602024Y-1004024D02*
X2725834Y-1004024D01*
X2792500Y-804024D02*
X2925833Y-804024D01*
X2925833Y-804024D02*
X2840119Y-1004024D01*
X3040119Y-804024D02*
X3059167Y-804024D01*
X3059167Y-804024D02*
X3078214Y-813548D01*
X3078214Y-813548D02*
X3087738Y-823071D01*
X3087738Y-823071D02*
X3097262Y-842119D01*
X3097262Y-842119D02*
X3106786Y-880214D01*
X3106786Y-880214D02*
X3106786Y-927833D01*
X3106786Y-927833D02*
X3097262Y-965928D01*
X3097262Y-965928D02*
X3087738Y-984976D01*
X3087738Y-984976D02*
X3078214Y-994500D01*
X3078214Y-994500D02*
X3059167Y-1004024D01*
X3059167Y-1004024D02*
X3040119Y-1004024D01*
X3040119Y-1004024D02*
X3021072Y-994500D01*
X3021072Y-994500D02*
X3011548Y-984976D01*
X3011548Y-984976D02*
X3002024Y-965928D01*
X3002024Y-965928D02*
X2992500Y-927833D01*
X2992500Y-927833D02*
X2992500Y-880214D01*
X2992500Y-880214D02*
X3002024Y-842119D01*
X3002024Y-842119D02*
X3011548Y-823071D01*
X3011548Y-823071D02*
X3021072Y-813548D01*
X3021072Y-813548D02*
X3040119Y-804024D01*
X3182976Y-804024D02*
X3182976Y-842119D01*
X3259167Y-804024D02*
X3259167Y-842119D01*
X3554405Y-1080214D02*
X3544881Y-1070690D01*
X3544881Y-1070690D02*
X3525834Y-1042119D01*
X3525834Y-1042119D02*
X3516310Y-1023071D01*
X3516310Y-1023071D02*
X3506786Y-994500D01*
X3506786Y-994500D02*
X3497262Y-946881D01*
X3497262Y-946881D02*
X3497262Y-908786D01*
X3497262Y-908786D02*
X3506786Y-861167D01*
X3506786Y-861167D02*
X3516310Y-832595D01*
X3516310Y-832595D02*
X3525834Y-813548D01*
X3525834Y-813548D02*
X3544881Y-784976D01*
X3544881Y-784976D02*
X3554405Y-775452D01*
X3611548Y-804024D02*
X3744881Y-804024D01*
X3744881Y-804024D02*
X3659167Y-1004024D01*
X3973453Y-1004024D02*
X3973453Y-804024D01*
X4059167Y-1004024D02*
X4059167Y-899262D01*
X4059167Y-899262D02*
X4049643Y-880214D01*
X4049643Y-880214D02*
X4030596Y-870690D01*
X4030596Y-870690D02*
X4002024Y-870690D01*
X4002024Y-870690D02*
X3982976Y-880214D01*
X3982976Y-880214D02*
X3973453Y-889738D01*
X4182976Y-1004024D02*
X4163929Y-994500D01*
X4163929Y-994500D02*
X4154405Y-984976D01*
X4154405Y-984976D02*
X4144881Y-965928D01*
X4144881Y-965928D02*
X4144881Y-908786D01*
X4144881Y-908786D02*
X4154405Y-889738D01*
X4154405Y-889738D02*
X4163929Y-880214D01*
X4163929Y-880214D02*
X4182976Y-870690D01*
X4182976Y-870690D02*
X4211548Y-870690D01*
X4211548Y-870690D02*
X4230596Y-880214D01*
X4230596Y-880214D02*
X4240119Y-889738D01*
X4240119Y-889738D02*
X4249643Y-908786D01*
X4249643Y-908786D02*
X4249643Y-965928D01*
X4249643Y-965928D02*
X4240119Y-984976D01*
X4240119Y-984976D02*
X4230596Y-994500D01*
X4230596Y-994500D02*
X4211548Y-1004024D01*
X4211548Y-1004024D02*
X4182976Y-1004024D01*
X4363929Y-1004024D02*
X4344881Y-994500D01*
X4344881Y-994500D02*
X4335358Y-975452D01*
X4335358Y-975452D02*
X4335358Y-804024D01*
X4516310Y-994500D02*
X4497262Y-1004024D01*
X4497262Y-1004024D02*
X4459167Y-1004024D01*
X4459167Y-1004024D02*
X4440119Y-994500D01*
X4440119Y-994500D02*
X4430596Y-975452D01*
X4430596Y-975452D02*
X4430596Y-899262D01*
X4430596Y-899262D02*
X4440119Y-880214D01*
X4440119Y-880214D02*
X4459167Y-870690D01*
X4459167Y-870690D02*
X4497262Y-870690D01*
X4497262Y-870690D02*
X4516310Y-880214D01*
X4516310Y-880214D02*
X4525834Y-899262D01*
X4525834Y-899262D02*
X4525834Y-918309D01*
X4525834Y-918309D02*
X4430596Y-937357D01*
X4602024Y-994500D02*
X4621072Y-1004024D01*
X4621072Y-1004024D02*
X4659167Y-1004024D01*
X4659167Y-1004024D02*
X4678215Y-994500D01*
X4678215Y-994500D02*
X4687739Y-975452D01*
X4687739Y-975452D02*
X4687739Y-965928D01*
X4687739Y-965928D02*
X4678215Y-946881D01*
X4678215Y-946881D02*
X4659167Y-937357D01*
X4659167Y-937357D02*
X4630596Y-937357D01*
X4630596Y-937357D02*
X4611548Y-927833D01*
X4611548Y-927833D02*
X4602024Y-908786D01*
X4602024Y-908786D02*
X4602024Y-899262D01*
X4602024Y-899262D02*
X4611548Y-880214D01*
X4611548Y-880214D02*
X4630596Y-870690D01*
X4630596Y-870690D02*
X4659167Y-870690D01*
X4659167Y-870690D02*
X4678215Y-880214D01*
X4754405Y-1080214D02*
X4763929Y-1070690D01*
X4763929Y-1070690D02*
X4782977Y-1042119D01*
X4782977Y-1042119D02*
X4792500Y-1023071D01*
X4792500Y-1023071D02*
X4802024Y-994500D01*
X4802024Y-994500D02*
X4811548Y-946881D01*
X4811548Y-946881D02*
X4811548Y-908786D01*
X4811548Y-908786D02*
X4802024Y-861167D01*
X4802024Y-861167D02*
X4792500Y-832595D01*
X4792500Y-832595D02*
X4782977Y-813548D01*
X4782977Y-813548D02*
X4763929Y-784976D01*
X4763929Y-784976D02*
X4754405Y-775452D01*
D14*
X-42489Y-1140512D02*
X-42489Y-1210489D01*
X-77477Y-1175500D02*
X-7500Y-1175500D01*
D11*
X278214Y-1068024D02*
X297262Y-1068024D01*
X297262Y-1068024D02*
X316310Y-1077548D01*
X316310Y-1077548D02*
X325833Y-1087071D01*
X325833Y-1087071D02*
X335357Y-1106119D01*
X335357Y-1106119D02*
X344881Y-1144214D01*
X344881Y-1144214D02*
X344881Y-1191833D01*
X344881Y-1191833D02*
X335357Y-1229929D01*
X335357Y-1229929D02*
X325833Y-1248976D01*
X325833Y-1248976D02*
X316310Y-1258500D01*
X316310Y-1258500D02*
X297262Y-1268024D01*
X297262Y-1268024D02*
X278214Y-1268024D01*
X278214Y-1268024D02*
X259167Y-1258500D01*
X259167Y-1258500D02*
X249643Y-1248976D01*
X249643Y-1248976D02*
X240119Y-1229929D01*
X240119Y-1229929D02*
X230595Y-1191833D01*
X230595Y-1191833D02*
X230595Y-1144214D01*
X230595Y-1144214D02*
X240119Y-1106119D01*
X240119Y-1106119D02*
X249643Y-1087071D01*
X249643Y-1087071D02*
X259167Y-1077548D01*
X259167Y-1077548D02*
X278214Y-1068024D01*
X430595Y-1248976D02*
X440119Y-1258500D01*
X440119Y-1258500D02*
X430595Y-1268024D01*
X430595Y-1268024D02*
X421071Y-1258500D01*
X421071Y-1258500D02*
X430595Y-1248976D01*
X430595Y-1248976D02*
X430595Y-1268024D01*
X506786Y-1068024D02*
X640119Y-1068024D01*
X640119Y-1068024D02*
X554405Y-1268024D01*
X754405Y-1068024D02*
X773452Y-1068024D01*
X773452Y-1068024D02*
X792500Y-1077548D01*
X792500Y-1077548D02*
X802024Y-1087071D01*
X802024Y-1087071D02*
X811548Y-1106119D01*
X811548Y-1106119D02*
X821071Y-1144214D01*
X821071Y-1144214D02*
X821071Y-1191833D01*
X821071Y-1191833D02*
X811548Y-1229929D01*
X811548Y-1229929D02*
X802024Y-1248976D01*
X802024Y-1248976D02*
X792500Y-1258500D01*
X792500Y-1258500D02*
X773452Y-1268024D01*
X773452Y-1268024D02*
X754405Y-1268024D01*
X754405Y-1268024D02*
X735357Y-1258500D01*
X735357Y-1258500D02*
X725833Y-1248976D01*
X725833Y-1248976D02*
X716309Y-1229929D01*
X716309Y-1229929D02*
X706786Y-1191833D01*
X706786Y-1191833D02*
X706786Y-1144214D01*
X706786Y-1144214D02*
X716309Y-1106119D01*
X716309Y-1106119D02*
X725833Y-1087071D01*
X725833Y-1087071D02*
X735357Y-1077548D01*
X735357Y-1077548D02*
X754405Y-1068024D01*
X944881Y-1068024D02*
X963929Y-1068024D01*
X963929Y-1068024D02*
X982976Y-1077548D01*
X982976Y-1077548D02*
X992500Y-1087071D01*
X992500Y-1087071D02*
X1002024Y-1106119D01*
X1002024Y-1106119D02*
X1011548Y-1144214D01*
X1011548Y-1144214D02*
X1011548Y-1191833D01*
X1011548Y-1191833D02*
X1002024Y-1229929D01*
X1002024Y-1229929D02*
X992500Y-1248976D01*
X992500Y-1248976D02*
X982976Y-1258500D01*
X982976Y-1258500D02*
X963929Y-1268024D01*
X963929Y-1268024D02*
X944881Y-1268024D01*
X944881Y-1268024D02*
X925833Y-1258500D01*
X925833Y-1258500D02*
X916309Y-1248976D01*
X916309Y-1248976D02*
X906786Y-1229929D01*
X906786Y-1229929D02*
X897262Y-1191833D01*
X897262Y-1191833D02*
X897262Y-1144214D01*
X897262Y-1144214D02*
X906786Y-1106119D01*
X906786Y-1106119D02*
X916309Y-1087071D01*
X916309Y-1087071D02*
X925833Y-1077548D01*
X925833Y-1077548D02*
X944881Y-1068024D01*
X1097262Y-1268024D02*
X1097262Y-1134690D01*
X1097262Y-1153738D02*
X1106786Y-1144214D01*
X1106786Y-1144214D02*
X1125833Y-1134690D01*
X1125833Y-1134690D02*
X1154405Y-1134690D01*
X1154405Y-1134690D02*
X1173452Y-1144214D01*
X1173452Y-1144214D02*
X1182976Y-1163262D01*
X1182976Y-1163262D02*
X1182976Y-1268024D01*
X1182976Y-1163262D02*
X1192500Y-1144214D01*
X1192500Y-1144214D02*
X1211548Y-1134690D01*
X1211548Y-1134690D02*
X1240119Y-1134690D01*
X1240119Y-1134690D02*
X1259167Y-1144214D01*
X1259167Y-1144214D02*
X1268691Y-1163262D01*
X1268691Y-1163262D02*
X1268691Y-1268024D01*
X1363929Y-1268024D02*
X1363929Y-1134690D01*
X1363929Y-1153738D02*
X1373452Y-1144214D01*
X1373452Y-1144214D02*
X1392500Y-1134690D01*
X1392500Y-1134690D02*
X1421071Y-1134690D01*
X1421071Y-1134690D02*
X1440119Y-1144214D01*
X1440119Y-1144214D02*
X1449643Y-1163262D01*
X1449643Y-1163262D02*
X1449643Y-1268024D01*
X1449643Y-1163262D02*
X1459167Y-1144214D01*
X1459167Y-1144214D02*
X1478214Y-1134690D01*
X1478214Y-1134690D02*
X1506786Y-1134690D01*
X1506786Y-1134690D02*
X1525833Y-1144214D01*
X1525833Y-1144214D02*
X1535357Y-1163262D01*
X1535357Y-1163262D02*
X1535357Y-1268024D01*
X1925833Y-1058500D02*
X1754405Y-1315643D01*
X2182976Y-1068024D02*
X2202024Y-1068024D01*
X2202024Y-1068024D02*
X2221072Y-1077548D01*
X2221072Y-1077548D02*
X2230595Y-1087071D01*
X2230595Y-1087071D02*
X2240119Y-1106119D01*
X2240119Y-1106119D02*
X2249643Y-1144214D01*
X2249643Y-1144214D02*
X2249643Y-1191833D01*
X2249643Y-1191833D02*
X2240119Y-1229929D01*
X2240119Y-1229929D02*
X2230595Y-1248976D01*
X2230595Y-1248976D02*
X2221072Y-1258500D01*
X2221072Y-1258500D02*
X2202024Y-1268024D01*
X2202024Y-1268024D02*
X2182976Y-1268024D01*
X2182976Y-1268024D02*
X2163929Y-1258500D01*
X2163929Y-1258500D02*
X2154405Y-1248976D01*
X2154405Y-1248976D02*
X2144881Y-1229929D01*
X2144881Y-1229929D02*
X2135357Y-1191833D01*
X2135357Y-1191833D02*
X2135357Y-1144214D01*
X2135357Y-1144214D02*
X2144881Y-1106119D01*
X2144881Y-1106119D02*
X2154405Y-1087071D01*
X2154405Y-1087071D02*
X2163929Y-1077548D01*
X2163929Y-1077548D02*
X2182976Y-1068024D01*
X2335357Y-1248976D02*
X2344881Y-1258500D01*
X2344881Y-1258500D02*
X2335357Y-1268024D01*
X2335357Y-1268024D02*
X2325834Y-1258500D01*
X2325834Y-1258500D02*
X2335357Y-1248976D01*
X2335357Y-1248976D02*
X2335357Y-1268024D01*
X2468691Y-1068024D02*
X2487738Y-1068024D01*
X2487738Y-1068024D02*
X2506786Y-1077548D01*
X2506786Y-1077548D02*
X2516310Y-1087071D01*
X2516310Y-1087071D02*
X2525834Y-1106119D01*
X2525834Y-1106119D02*
X2535357Y-1144214D01*
X2535357Y-1144214D02*
X2535357Y-1191833D01*
X2535357Y-1191833D02*
X2525834Y-1229929D01*
X2525834Y-1229929D02*
X2516310Y-1248976D01*
X2516310Y-1248976D02*
X2506786Y-1258500D01*
X2506786Y-1258500D02*
X2487738Y-1268024D01*
X2487738Y-1268024D02*
X2468691Y-1268024D01*
X2468691Y-1268024D02*
X2449643Y-1258500D01*
X2449643Y-1258500D02*
X2440119Y-1248976D01*
X2440119Y-1248976D02*
X2430595Y-1229929D01*
X2430595Y-1229929D02*
X2421072Y-1191833D01*
X2421072Y-1191833D02*
X2421072Y-1144214D01*
X2421072Y-1144214D02*
X2430595Y-1106119D01*
X2430595Y-1106119D02*
X2440119Y-1087071D01*
X2440119Y-1087071D02*
X2449643Y-1077548D01*
X2449643Y-1077548D02*
X2468691Y-1068024D01*
X2611548Y-1087071D02*
X2621072Y-1077548D01*
X2621072Y-1077548D02*
X2640119Y-1068024D01*
X2640119Y-1068024D02*
X2687738Y-1068024D01*
X2687738Y-1068024D02*
X2706786Y-1077548D01*
X2706786Y-1077548D02*
X2716310Y-1087071D01*
X2716310Y-1087071D02*
X2725834Y-1106119D01*
X2725834Y-1106119D02*
X2725834Y-1125167D01*
X2725834Y-1125167D02*
X2716310Y-1153738D01*
X2716310Y-1153738D02*
X2602024Y-1268024D01*
X2602024Y-1268024D02*
X2725834Y-1268024D01*
X2792500Y-1068024D02*
X2925833Y-1068024D01*
X2925833Y-1068024D02*
X2840119Y-1268024D01*
X3097262Y-1068024D02*
X3002024Y-1068024D01*
X3002024Y-1068024D02*
X2992500Y-1163262D01*
X2992500Y-1163262D02*
X3002024Y-1153738D01*
X3002024Y-1153738D02*
X3021072Y-1144214D01*
X3021072Y-1144214D02*
X3068691Y-1144214D01*
X3068691Y-1144214D02*
X3087738Y-1153738D01*
X3087738Y-1153738D02*
X3097262Y-1163262D01*
X3097262Y-1163262D02*
X3106786Y-1182310D01*
X3106786Y-1182310D02*
X3106786Y-1229929D01*
X3106786Y-1229929D02*
X3097262Y-1248976D01*
X3097262Y-1248976D02*
X3087738Y-1258500D01*
X3087738Y-1258500D02*
X3068691Y-1268024D01*
X3068691Y-1268024D02*
X3021072Y-1268024D01*
X3021072Y-1268024D02*
X3002024Y-1258500D01*
X3002024Y-1258500D02*
X2992500Y-1248976D01*
X3182976Y-1068024D02*
X3182976Y-1106119D01*
X3259167Y-1068024D02*
X3259167Y-1106119D01*
X3554405Y-1344214D02*
X3544881Y-1334690D01*
X3544881Y-1334690D02*
X3525834Y-1306119D01*
X3525834Y-1306119D02*
X3516310Y-1287071D01*
X3516310Y-1287071D02*
X3506786Y-1258500D01*
X3506786Y-1258500D02*
X3497262Y-1210881D01*
X3497262Y-1210881D02*
X3497262Y-1172786D01*
X3497262Y-1172786D02*
X3506786Y-1125167D01*
X3506786Y-1125167D02*
X3516310Y-1096595D01*
X3516310Y-1096595D02*
X3525834Y-1077548D01*
X3525834Y-1077548D02*
X3544881Y-1048976D01*
X3544881Y-1048976D02*
X3554405Y-1039452D01*
X3735357Y-1268024D02*
X3621072Y-1268024D01*
X3678214Y-1268024D02*
X3678214Y-1068024D01*
X3678214Y-1068024D02*
X3659167Y-1096595D01*
X3659167Y-1096595D02*
X3640119Y-1115643D01*
X3640119Y-1115643D02*
X3621072Y-1125167D01*
X3973453Y-1268024D02*
X3973453Y-1068024D01*
X4059167Y-1268024D02*
X4059167Y-1163262D01*
X4059167Y-1163262D02*
X4049643Y-1144214D01*
X4049643Y-1144214D02*
X4030596Y-1134690D01*
X4030596Y-1134690D02*
X4002024Y-1134690D01*
X4002024Y-1134690D02*
X3982976Y-1144214D01*
X3982976Y-1144214D02*
X3973453Y-1153738D01*
X4182976Y-1268024D02*
X4163929Y-1258500D01*
X4163929Y-1258500D02*
X4154405Y-1248976D01*
X4154405Y-1248976D02*
X4144881Y-1229929D01*
X4144881Y-1229929D02*
X4144881Y-1172786D01*
X4144881Y-1172786D02*
X4154405Y-1153738D01*
X4154405Y-1153738D02*
X4163929Y-1144214D01*
X4163929Y-1144214D02*
X4182976Y-1134690D01*
X4182976Y-1134690D02*
X4211548Y-1134690D01*
X4211548Y-1134690D02*
X4230596Y-1144214D01*
X4230596Y-1144214D02*
X4240119Y-1153738D01*
X4240119Y-1153738D02*
X4249643Y-1172786D01*
X4249643Y-1172786D02*
X4249643Y-1229929D01*
X4249643Y-1229929D02*
X4240119Y-1248976D01*
X4240119Y-1248976D02*
X4230596Y-1258500D01*
X4230596Y-1258500D02*
X4211548Y-1268024D01*
X4211548Y-1268024D02*
X4182976Y-1268024D01*
X4363929Y-1268024D02*
X4344881Y-1258500D01*
X4344881Y-1258500D02*
X4335358Y-1239452D01*
X4335358Y-1239452D02*
X4335358Y-1068024D01*
X4516310Y-1258500D02*
X4497262Y-1268024D01*
X4497262Y-1268024D02*
X4459167Y-1268024D01*
X4459167Y-1268024D02*
X4440119Y-1258500D01*
X4440119Y-1258500D02*
X4430596Y-1239452D01*
X4430596Y-1239452D02*
X4430596Y-1163262D01*
X4430596Y-1163262D02*
X4440119Y-1144214D01*
X4440119Y-1144214D02*
X4459167Y-1134690D01*
X4459167Y-1134690D02*
X4497262Y-1134690D01*
X4497262Y-1134690D02*
X4516310Y-1144214D01*
X4516310Y-1144214D02*
X4525834Y-1163262D01*
X4525834Y-1163262D02*
X4525834Y-1182310D01*
X4525834Y-1182310D02*
X4430596Y-1201357D01*
X4592500Y-1344214D02*
X4602024Y-1334690D01*
X4602024Y-1334690D02*
X4621072Y-1306119D01*
X4621072Y-1306119D02*
X4630596Y-1287071D01*
X4630596Y-1287071D02*
X4640119Y-1258500D01*
X4640119Y-1258500D02*
X4649643Y-1210881D01*
X4649643Y-1210881D02*
X4649643Y-1172786D01*
X4649643Y-1172786D02*
X4640119Y-1125167D01*
X4640119Y-1125167D02*
X4630596Y-1096595D01*
X4630596Y-1096595D02*
X4621072Y-1077548D01*
X4621072Y-1077548D02*
X4602024Y-1048976D01*
X4602024Y-1048976D02*
X4592500Y-1039452D01*
D15*
X-19216Y-1467784D02*
X-19216Y-1411215D01*
X-75785Y-1411215D01*
X-75785Y-1467784D01*
X-19216Y-1467784D01*
D11*
X278214Y-1332024D02*
X297262Y-1332024D01*
X297262Y-1332024D02*
X316310Y-1341548D01*
X316310Y-1341548D02*
X325833Y-1351071D01*
X325833Y-1351071D02*
X335357Y-1370119D01*
X335357Y-1370119D02*
X344881Y-1408214D01*
X344881Y-1408214D02*
X344881Y-1455833D01*
X344881Y-1455833D02*
X335357Y-1493928D01*
X335357Y-1493928D02*
X325833Y-1512976D01*
X325833Y-1512976D02*
X316310Y-1522500D01*
X316310Y-1522500D02*
X297262Y-1532024D01*
X297262Y-1532024D02*
X278214Y-1532024D01*
X278214Y-1532024D02*
X259167Y-1522500D01*
X259167Y-1522500D02*
X249643Y-1512976D01*
X249643Y-1512976D02*
X240119Y-1493928D01*
X240119Y-1493928D02*
X230595Y-1455833D01*
X230595Y-1455833D02*
X230595Y-1408214D01*
X230595Y-1408214D02*
X240119Y-1370119D01*
X240119Y-1370119D02*
X249643Y-1351071D01*
X249643Y-1351071D02*
X259167Y-1341548D01*
X259167Y-1341548D02*
X278214Y-1332024D01*
X430595Y-1512976D02*
X440119Y-1522500D01*
X440119Y-1522500D02*
X430595Y-1532024D01*
X430595Y-1532024D02*
X421071Y-1522500D01*
X421071Y-1522500D02*
X430595Y-1512976D01*
X430595Y-1512976D02*
X430595Y-1532024D01*
X554405Y-1417738D02*
X535357Y-1408214D01*
X535357Y-1408214D02*
X525833Y-1398690D01*
X525833Y-1398690D02*
X516309Y-1379643D01*
X516309Y-1379643D02*
X516309Y-1370119D01*
X516309Y-1370119D02*
X525833Y-1351071D01*
X525833Y-1351071D02*
X535357Y-1341548D01*
X535357Y-1341548D02*
X554405Y-1332024D01*
X554405Y-1332024D02*
X592500Y-1332024D01*
X592500Y-1332024D02*
X611548Y-1341548D01*
X611548Y-1341548D02*
X621071Y-1351071D01*
X621071Y-1351071D02*
X630595Y-1370119D01*
X630595Y-1370119D02*
X630595Y-1379643D01*
X630595Y-1379643D02*
X621071Y-1398690D01*
X621071Y-1398690D02*
X611548Y-1408214D01*
X611548Y-1408214D02*
X592500Y-1417738D01*
X592500Y-1417738D02*
X554405Y-1417738D01*
X554405Y-1417738D02*
X535357Y-1427262D01*
X535357Y-1427262D02*
X525833Y-1436786D01*
X525833Y-1436786D02*
X516309Y-1455833D01*
X516309Y-1455833D02*
X516309Y-1493928D01*
X516309Y-1493928D02*
X525833Y-1512976D01*
X525833Y-1512976D02*
X535357Y-1522500D01*
X535357Y-1522500D02*
X554405Y-1532024D01*
X554405Y-1532024D02*
X592500Y-1532024D01*
X592500Y-1532024D02*
X611548Y-1522500D01*
X611548Y-1522500D02*
X621071Y-1512976D01*
X621071Y-1512976D02*
X630595Y-1493928D01*
X630595Y-1493928D02*
X630595Y-1455833D01*
X630595Y-1455833D02*
X621071Y-1436786D01*
X621071Y-1436786D02*
X611548Y-1427262D01*
X611548Y-1427262D02*
X592500Y-1417738D01*
X754405Y-1332024D02*
X773452Y-1332024D01*
X773452Y-1332024D02*
X792500Y-1341548D01*
X792500Y-1341548D02*
X802024Y-1351071D01*
X802024Y-1351071D02*
X811548Y-1370119D01*
X811548Y-1370119D02*
X821071Y-1408214D01*
X821071Y-1408214D02*
X821071Y-1455833D01*
X821071Y-1455833D02*
X811548Y-1493928D01*
X811548Y-1493928D02*
X802024Y-1512976D01*
X802024Y-1512976D02*
X792500Y-1522500D01*
X792500Y-1522500D02*
X773452Y-1532024D01*
X773452Y-1532024D02*
X754405Y-1532024D01*
X754405Y-1532024D02*
X735357Y-1522500D01*
X735357Y-1522500D02*
X725833Y-1512976D01*
X725833Y-1512976D02*
X716309Y-1493928D01*
X716309Y-1493928D02*
X706786Y-1455833D01*
X706786Y-1455833D02*
X706786Y-1408214D01*
X706786Y-1408214D02*
X716309Y-1370119D01*
X716309Y-1370119D02*
X725833Y-1351071D01*
X725833Y-1351071D02*
X735357Y-1341548D01*
X735357Y-1341548D02*
X754405Y-1332024D01*
X944881Y-1332024D02*
X963929Y-1332024D01*
X963929Y-1332024D02*
X982976Y-1341548D01*
X982976Y-1341548D02*
X992500Y-1351071D01*
X992500Y-1351071D02*
X1002024Y-1370119D01*
X1002024Y-1370119D02*
X1011548Y-1408214D01*
X1011548Y-1408214D02*
X1011548Y-1455833D01*
X1011548Y-1455833D02*
X1002024Y-1493928D01*
X1002024Y-1493928D02*
X992500Y-1512976D01*
X992500Y-1512976D02*
X982976Y-1522500D01*
X982976Y-1522500D02*
X963929Y-1532024D01*
X963929Y-1532024D02*
X944881Y-1532024D01*
X944881Y-1532024D02*
X925833Y-1522500D01*
X925833Y-1522500D02*
X916309Y-1512976D01*
X916309Y-1512976D02*
X906786Y-1493928D01*
X906786Y-1493928D02*
X897262Y-1455833D01*
X897262Y-1455833D02*
X897262Y-1408214D01*
X897262Y-1408214D02*
X906786Y-1370119D01*
X906786Y-1370119D02*
X916309Y-1351071D01*
X916309Y-1351071D02*
X925833Y-1341548D01*
X925833Y-1341548D02*
X944881Y-1332024D01*
X1097262Y-1532024D02*
X1097262Y-1398690D01*
X1097262Y-1417738D02*
X1106786Y-1408214D01*
X1106786Y-1408214D02*
X1125833Y-1398690D01*
X1125833Y-1398690D02*
X1154405Y-1398690D01*
X1154405Y-1398690D02*
X1173452Y-1408214D01*
X1173452Y-1408214D02*
X1182976Y-1427262D01*
X1182976Y-1427262D02*
X1182976Y-1532024D01*
X1182976Y-1427262D02*
X1192500Y-1408214D01*
X1192500Y-1408214D02*
X1211548Y-1398690D01*
X1211548Y-1398690D02*
X1240119Y-1398690D01*
X1240119Y-1398690D02*
X1259167Y-1408214D01*
X1259167Y-1408214D02*
X1268691Y-1427262D01*
X1268691Y-1427262D02*
X1268691Y-1532024D01*
X1363929Y-1532024D02*
X1363929Y-1398690D01*
X1363929Y-1417738D02*
X1373452Y-1408214D01*
X1373452Y-1408214D02*
X1392500Y-1398690D01*
X1392500Y-1398690D02*
X1421071Y-1398690D01*
X1421071Y-1398690D02*
X1440119Y-1408214D01*
X1440119Y-1408214D02*
X1449643Y-1427262D01*
X1449643Y-1427262D02*
X1449643Y-1532024D01*
X1449643Y-1427262D02*
X1459167Y-1408214D01*
X1459167Y-1408214D02*
X1478214Y-1398690D01*
X1478214Y-1398690D02*
X1506786Y-1398690D01*
X1506786Y-1398690D02*
X1525833Y-1408214D01*
X1525833Y-1408214D02*
X1535357Y-1427262D01*
X1535357Y-1427262D02*
X1535357Y-1532024D01*
X1925833Y-1322500D02*
X1754405Y-1579643D01*
X2182976Y-1332024D02*
X2202024Y-1332024D01*
X2202024Y-1332024D02*
X2221072Y-1341548D01*
X2221072Y-1341548D02*
X2230595Y-1351071D01*
X2230595Y-1351071D02*
X2240119Y-1370119D01*
X2240119Y-1370119D02*
X2249643Y-1408214D01*
X2249643Y-1408214D02*
X2249643Y-1455833D01*
X2249643Y-1455833D02*
X2240119Y-1493928D01*
X2240119Y-1493928D02*
X2230595Y-1512976D01*
X2230595Y-1512976D02*
X2221072Y-1522500D01*
X2221072Y-1522500D02*
X2202024Y-1532024D01*
X2202024Y-1532024D02*
X2182976Y-1532024D01*
X2182976Y-1532024D02*
X2163929Y-1522500D01*
X2163929Y-1522500D02*
X2154405Y-1512976D01*
X2154405Y-1512976D02*
X2144881Y-1493928D01*
X2144881Y-1493928D02*
X2135357Y-1455833D01*
X2135357Y-1455833D02*
X2135357Y-1408214D01*
X2135357Y-1408214D02*
X2144881Y-1370119D01*
X2144881Y-1370119D02*
X2154405Y-1351071D01*
X2154405Y-1351071D02*
X2163929Y-1341548D01*
X2163929Y-1341548D02*
X2182976Y-1332024D01*
X2335357Y-1512976D02*
X2344881Y-1522500D01*
X2344881Y-1522500D02*
X2335357Y-1532024D01*
X2335357Y-1532024D02*
X2325834Y-1522500D01*
X2325834Y-1522500D02*
X2335357Y-1512976D01*
X2335357Y-1512976D02*
X2335357Y-1532024D01*
X2468691Y-1332024D02*
X2487738Y-1332024D01*
X2487738Y-1332024D02*
X2506786Y-1341548D01*
X2506786Y-1341548D02*
X2516310Y-1351071D01*
X2516310Y-1351071D02*
X2525834Y-1370119D01*
X2525834Y-1370119D02*
X2535357Y-1408214D01*
X2535357Y-1408214D02*
X2535357Y-1455833D01*
X2535357Y-1455833D02*
X2525834Y-1493928D01*
X2525834Y-1493928D02*
X2516310Y-1512976D01*
X2516310Y-1512976D02*
X2506786Y-1522500D01*
X2506786Y-1522500D02*
X2487738Y-1532024D01*
X2487738Y-1532024D02*
X2468691Y-1532024D01*
X2468691Y-1532024D02*
X2449643Y-1522500D01*
X2449643Y-1522500D02*
X2440119Y-1512976D01*
X2440119Y-1512976D02*
X2430595Y-1493928D01*
X2430595Y-1493928D02*
X2421072Y-1455833D01*
X2421072Y-1455833D02*
X2421072Y-1408214D01*
X2421072Y-1408214D02*
X2430595Y-1370119D01*
X2430595Y-1370119D02*
X2440119Y-1351071D01*
X2440119Y-1351071D02*
X2449643Y-1341548D01*
X2449643Y-1341548D02*
X2468691Y-1332024D01*
X2602024Y-1332024D02*
X2725834Y-1332024D01*
X2725834Y-1332024D02*
X2659167Y-1408214D01*
X2659167Y-1408214D02*
X2687738Y-1408214D01*
X2687738Y-1408214D02*
X2706786Y-1417738D01*
X2706786Y-1417738D02*
X2716310Y-1427262D01*
X2716310Y-1427262D02*
X2725834Y-1446309D01*
X2725834Y-1446309D02*
X2725834Y-1493928D01*
X2725834Y-1493928D02*
X2716310Y-1512976D01*
X2716310Y-1512976D02*
X2706786Y-1522500D01*
X2706786Y-1522500D02*
X2687738Y-1532024D01*
X2687738Y-1532024D02*
X2630595Y-1532024D01*
X2630595Y-1532024D02*
X2611548Y-1522500D01*
X2611548Y-1522500D02*
X2602024Y-1512976D01*
X2916310Y-1532024D02*
X2802024Y-1532024D01*
X2859167Y-1532024D02*
X2859167Y-1332024D01*
X2859167Y-1332024D02*
X2840119Y-1360595D01*
X2840119Y-1360595D02*
X2821072Y-1379643D01*
X2821072Y-1379643D02*
X2802024Y-1389167D01*
X3097262Y-1332024D02*
X3002024Y-1332024D01*
X3002024Y-1332024D02*
X2992500Y-1427262D01*
X2992500Y-1427262D02*
X3002024Y-1417738D01*
X3002024Y-1417738D02*
X3021072Y-1408214D01*
X3021072Y-1408214D02*
X3068691Y-1408214D01*
X3068691Y-1408214D02*
X3087738Y-1417738D01*
X3087738Y-1417738D02*
X3097262Y-1427262D01*
X3097262Y-1427262D02*
X3106786Y-1446309D01*
X3106786Y-1446309D02*
X3106786Y-1493928D01*
X3106786Y-1493928D02*
X3097262Y-1512976D01*
X3097262Y-1512976D02*
X3087738Y-1522500D01*
X3087738Y-1522500D02*
X3068691Y-1532024D01*
X3068691Y-1532024D02*
X3021072Y-1532024D01*
X3021072Y-1532024D02*
X3002024Y-1522500D01*
X3002024Y-1522500D02*
X2992500Y-1512976D01*
X3182976Y-1332024D02*
X3182976Y-1370119D01*
X3259167Y-1332024D02*
X3259167Y-1370119D01*
X3554405Y-1608214D02*
X3544881Y-1598690D01*
X3544881Y-1598690D02*
X3525834Y-1570119D01*
X3525834Y-1570119D02*
X3516310Y-1551071D01*
X3516310Y-1551071D02*
X3506786Y-1522500D01*
X3506786Y-1522500D02*
X3497262Y-1474881D01*
X3497262Y-1474881D02*
X3497262Y-1436786D01*
X3497262Y-1436786D02*
X3506786Y-1389167D01*
X3506786Y-1389167D02*
X3516310Y-1360595D01*
X3516310Y-1360595D02*
X3525834Y-1341548D01*
X3525834Y-1341548D02*
X3544881Y-1312976D01*
X3544881Y-1312976D02*
X3554405Y-1303452D01*
X3611548Y-1332024D02*
X3744881Y-1332024D01*
X3744881Y-1332024D02*
X3659167Y-1532024D01*
X3802024Y-1332024D02*
X3925834Y-1332024D01*
X3925834Y-1332024D02*
X3859167Y-1408214D01*
X3859167Y-1408214D02*
X3887738Y-1408214D01*
X3887738Y-1408214D02*
X3906786Y-1417738D01*
X3906786Y-1417738D02*
X3916310Y-1427262D01*
X3916310Y-1427262D02*
X3925834Y-1446309D01*
X3925834Y-1446309D02*
X3925834Y-1493928D01*
X3925834Y-1493928D02*
X3916310Y-1512976D01*
X3916310Y-1512976D02*
X3906786Y-1522500D01*
X3906786Y-1522500D02*
X3887738Y-1532024D01*
X3887738Y-1532024D02*
X3830595Y-1532024D01*
X3830595Y-1532024D02*
X3811548Y-1522500D01*
X3811548Y-1522500D02*
X3802024Y-1512976D01*
X4163929Y-1532024D02*
X4163929Y-1332024D01*
X4249643Y-1532024D02*
X4249643Y-1427262D01*
X4249643Y-1427262D02*
X4240119Y-1408214D01*
X4240119Y-1408214D02*
X4221072Y-1398690D01*
X4221072Y-1398690D02*
X4192500Y-1398690D01*
X4192500Y-1398690D02*
X4173453Y-1408214D01*
X4173453Y-1408214D02*
X4163929Y-1417738D01*
X4373453Y-1532024D02*
X4354405Y-1522500D01*
X4354405Y-1522500D02*
X4344881Y-1512976D01*
X4344881Y-1512976D02*
X4335358Y-1493928D01*
X4335358Y-1493928D02*
X4335358Y-1436786D01*
X4335358Y-1436786D02*
X4344881Y-1417738D01*
X4344881Y-1417738D02*
X4354405Y-1408214D01*
X4354405Y-1408214D02*
X4373453Y-1398690D01*
X4373453Y-1398690D02*
X4402024Y-1398690D01*
X4402024Y-1398690D02*
X4421072Y-1408214D01*
X4421072Y-1408214D02*
X4430596Y-1417738D01*
X4430596Y-1417738D02*
X4440119Y-1436786D01*
X4440119Y-1436786D02*
X4440119Y-1493928D01*
X4440119Y-1493928D02*
X4430596Y-1512976D01*
X4430596Y-1512976D02*
X4421072Y-1522500D01*
X4421072Y-1522500D02*
X4402024Y-1532024D01*
X4402024Y-1532024D02*
X4373453Y-1532024D01*
X4554405Y-1532024D02*
X4535358Y-1522500D01*
X4535358Y-1522500D02*
X4525834Y-1503452D01*
X4525834Y-1503452D02*
X4525834Y-1332024D01*
X4706786Y-1522500D02*
X4687739Y-1532024D01*
X4687739Y-1532024D02*
X4649643Y-1532024D01*
X4649643Y-1532024D02*
X4630596Y-1522500D01*
X4630596Y-1522500D02*
X4621072Y-1503452D01*
X4621072Y-1503452D02*
X4621072Y-1427262D01*
X4621072Y-1427262D02*
X4630596Y-1408214D01*
X4630596Y-1408214D02*
X4649643Y-1398690D01*
X4649643Y-1398690D02*
X4687739Y-1398690D01*
X4687739Y-1398690D02*
X4706786Y-1408214D01*
X4706786Y-1408214D02*
X4716310Y-1427262D01*
X4716310Y-1427262D02*
X4716310Y-1446309D01*
X4716310Y-1446309D02*
X4621072Y-1465357D01*
X4792500Y-1522500D02*
X4811548Y-1532024D01*
X4811548Y-1532024D02*
X4849643Y-1532024D01*
X4849643Y-1532024D02*
X4868691Y-1522500D01*
X4868691Y-1522500D02*
X4878215Y-1503452D01*
X4878215Y-1503452D02*
X4878215Y-1493928D01*
X4878215Y-1493928D02*
X4868691Y-1474881D01*
X4868691Y-1474881D02*
X4849643Y-1465357D01*
X4849643Y-1465357D02*
X4821072Y-1465357D01*
X4821072Y-1465357D02*
X4802024Y-1455833D01*
X4802024Y-1455833D02*
X4792500Y-1436786D01*
X4792500Y-1436786D02*
X4792500Y-1427262D01*
X4792500Y-1427262D02*
X4802024Y-1408214D01*
X4802024Y-1408214D02*
X4821072Y-1398690D01*
X4821072Y-1398690D02*
X4849643Y-1398690D01*
X4849643Y-1398690D02*
X4868691Y-1408214D01*
X4944881Y-1608214D02*
X4954405Y-1598690D01*
X4954405Y-1598690D02*
X4973453Y-1570119D01*
X4973453Y-1570119D02*
X4982977Y-1551071D01*
X4982977Y-1551071D02*
X4992500Y-1522500D01*
X4992500Y-1522500D02*
X5002024Y-1474881D01*
X5002024Y-1474881D02*
X5002024Y-1436786D01*
X5002024Y-1436786D02*
X4992500Y-1389167D01*
X4992500Y-1389167D02*
X4982977Y-1360595D01*
X4982977Y-1360595D02*
X4973453Y-1341548D01*
X4973453Y-1341548D02*
X4954405Y-1312976D01*
X4954405Y-1312976D02*
X4944881Y-1303452D01*
D16*
X-48140Y-1744140D02*
X-7500Y-1703500D01*
X-48140Y-1662860D01*
X-88780Y-1703500D01*
X-48140Y-1744140D01*
D11*
X278214Y-1596024D02*
X297262Y-1596024D01*
X297262Y-1596024D02*
X316310Y-1605548D01*
X316310Y-1605548D02*
X325833Y-1615071D01*
X325833Y-1615071D02*
X335357Y-1634119D01*
X335357Y-1634119D02*
X344881Y-1672214D01*
X344881Y-1672214D02*
X344881Y-1719833D01*
X344881Y-1719833D02*
X335357Y-1757928D01*
X335357Y-1757928D02*
X325833Y-1776976D01*
X325833Y-1776976D02*
X316310Y-1786500D01*
X316310Y-1786500D02*
X297262Y-1796024D01*
X297262Y-1796024D02*
X278214Y-1796024D01*
X278214Y-1796024D02*
X259167Y-1786500D01*
X259167Y-1786500D02*
X249643Y-1776976D01*
X249643Y-1776976D02*
X240119Y-1757928D01*
X240119Y-1757928D02*
X230595Y-1719833D01*
X230595Y-1719833D02*
X230595Y-1672214D01*
X230595Y-1672214D02*
X240119Y-1634119D01*
X240119Y-1634119D02*
X249643Y-1615071D01*
X249643Y-1615071D02*
X259167Y-1605548D01*
X259167Y-1605548D02*
X278214Y-1596024D01*
X430595Y-1776976D02*
X440119Y-1786500D01*
X440119Y-1786500D02*
X430595Y-1796024D01*
X430595Y-1796024D02*
X421071Y-1786500D01*
X421071Y-1786500D02*
X430595Y-1776976D01*
X430595Y-1776976D02*
X430595Y-1796024D01*
X554405Y-1681738D02*
X535357Y-1672214D01*
X535357Y-1672214D02*
X525833Y-1662690D01*
X525833Y-1662690D02*
X516309Y-1643643D01*
X516309Y-1643643D02*
X516309Y-1634119D01*
X516309Y-1634119D02*
X525833Y-1615071D01*
X525833Y-1615071D02*
X535357Y-1605548D01*
X535357Y-1605548D02*
X554405Y-1596024D01*
X554405Y-1596024D02*
X592500Y-1596024D01*
X592500Y-1596024D02*
X611548Y-1605548D01*
X611548Y-1605548D02*
X621071Y-1615071D01*
X621071Y-1615071D02*
X630595Y-1634119D01*
X630595Y-1634119D02*
X630595Y-1643643D01*
X630595Y-1643643D02*
X621071Y-1662690D01*
X621071Y-1662690D02*
X611548Y-1672214D01*
X611548Y-1672214D02*
X592500Y-1681738D01*
X592500Y-1681738D02*
X554405Y-1681738D01*
X554405Y-1681738D02*
X535357Y-1691262D01*
X535357Y-1691262D02*
X525833Y-1700786D01*
X525833Y-1700786D02*
X516309Y-1719833D01*
X516309Y-1719833D02*
X516309Y-1757928D01*
X516309Y-1757928D02*
X525833Y-1776976D01*
X525833Y-1776976D02*
X535357Y-1786500D01*
X535357Y-1786500D02*
X554405Y-1796024D01*
X554405Y-1796024D02*
X592500Y-1796024D01*
X592500Y-1796024D02*
X611548Y-1786500D01*
X611548Y-1786500D02*
X621071Y-1776976D01*
X621071Y-1776976D02*
X630595Y-1757928D01*
X630595Y-1757928D02*
X630595Y-1719833D01*
X630595Y-1719833D02*
X621071Y-1700786D01*
X621071Y-1700786D02*
X611548Y-1691262D01*
X611548Y-1691262D02*
X592500Y-1681738D01*
X821071Y-1796024D02*
X706786Y-1796024D01*
X763928Y-1796024D02*
X763928Y-1596024D01*
X763928Y-1596024D02*
X744881Y-1624595D01*
X744881Y-1624595D02*
X725833Y-1643643D01*
X725833Y-1643643D02*
X706786Y-1653167D01*
X887738Y-1596024D02*
X1011548Y-1596024D01*
X1011548Y-1596024D02*
X944881Y-1672214D01*
X944881Y-1672214D02*
X973452Y-1672214D01*
X973452Y-1672214D02*
X992500Y-1681738D01*
X992500Y-1681738D02*
X1002024Y-1691262D01*
X1002024Y-1691262D02*
X1011548Y-1710309D01*
X1011548Y-1710309D02*
X1011548Y-1757928D01*
X1011548Y-1757928D02*
X1002024Y-1776976D01*
X1002024Y-1776976D02*
X992500Y-1786500D01*
X992500Y-1786500D02*
X973452Y-1796024D01*
X973452Y-1796024D02*
X916309Y-1796024D01*
X916309Y-1796024D02*
X897262Y-1786500D01*
X897262Y-1786500D02*
X887738Y-1776976D01*
X1097262Y-1796024D02*
X1097262Y-1662690D01*
X1097262Y-1681738D02*
X1106786Y-1672214D01*
X1106786Y-1672214D02*
X1125833Y-1662690D01*
X1125833Y-1662690D02*
X1154405Y-1662690D01*
X1154405Y-1662690D02*
X1173452Y-1672214D01*
X1173452Y-1672214D02*
X1182976Y-1691262D01*
X1182976Y-1691262D02*
X1182976Y-1796024D01*
X1182976Y-1691262D02*
X1192500Y-1672214D01*
X1192500Y-1672214D02*
X1211548Y-1662690D01*
X1211548Y-1662690D02*
X1240119Y-1662690D01*
X1240119Y-1662690D02*
X1259167Y-1672214D01*
X1259167Y-1672214D02*
X1268691Y-1691262D01*
X1268691Y-1691262D02*
X1268691Y-1796024D01*
X1363929Y-1796024D02*
X1363929Y-1662690D01*
X1363929Y-1681738D02*
X1373452Y-1672214D01*
X1373452Y-1672214D02*
X1392500Y-1662690D01*
X1392500Y-1662690D02*
X1421071Y-1662690D01*
X1421071Y-1662690D02*
X1440119Y-1672214D01*
X1440119Y-1672214D02*
X1449643Y-1691262D01*
X1449643Y-1691262D02*
X1449643Y-1796024D01*
X1449643Y-1691262D02*
X1459167Y-1672214D01*
X1459167Y-1672214D02*
X1478214Y-1662690D01*
X1478214Y-1662690D02*
X1506786Y-1662690D01*
X1506786Y-1662690D02*
X1525833Y-1672214D01*
X1525833Y-1672214D02*
X1535357Y-1691262D01*
X1535357Y-1691262D02*
X1535357Y-1796024D01*
X1925833Y-1586500D02*
X1754405Y-1843643D01*
X2182976Y-1596024D02*
X2202024Y-1596024D01*
X2202024Y-1596024D02*
X2221072Y-1605548D01*
X2221072Y-1605548D02*
X2230595Y-1615071D01*
X2230595Y-1615071D02*
X2240119Y-1634119D01*
X2240119Y-1634119D02*
X2249643Y-1672214D01*
X2249643Y-1672214D02*
X2249643Y-1719833D01*
X2249643Y-1719833D02*
X2240119Y-1757928D01*
X2240119Y-1757928D02*
X2230595Y-1776976D01*
X2230595Y-1776976D02*
X2221072Y-1786500D01*
X2221072Y-1786500D02*
X2202024Y-1796024D01*
X2202024Y-1796024D02*
X2182976Y-1796024D01*
X2182976Y-1796024D02*
X2163929Y-1786500D01*
X2163929Y-1786500D02*
X2154405Y-1776976D01*
X2154405Y-1776976D02*
X2144881Y-1757928D01*
X2144881Y-1757928D02*
X2135357Y-1719833D01*
X2135357Y-1719833D02*
X2135357Y-1672214D01*
X2135357Y-1672214D02*
X2144881Y-1634119D01*
X2144881Y-1634119D02*
X2154405Y-1615071D01*
X2154405Y-1615071D02*
X2163929Y-1605548D01*
X2163929Y-1605548D02*
X2182976Y-1596024D01*
X2335357Y-1776976D02*
X2344881Y-1786500D01*
X2344881Y-1786500D02*
X2335357Y-1796024D01*
X2335357Y-1796024D02*
X2325834Y-1786500D01*
X2325834Y-1786500D02*
X2335357Y-1776976D01*
X2335357Y-1776976D02*
X2335357Y-1796024D01*
X2468691Y-1596024D02*
X2487738Y-1596024D01*
X2487738Y-1596024D02*
X2506786Y-1605548D01*
X2506786Y-1605548D02*
X2516310Y-1615071D01*
X2516310Y-1615071D02*
X2525834Y-1634119D01*
X2525834Y-1634119D02*
X2535357Y-1672214D01*
X2535357Y-1672214D02*
X2535357Y-1719833D01*
X2535357Y-1719833D02*
X2525834Y-1757928D01*
X2525834Y-1757928D02*
X2516310Y-1776976D01*
X2516310Y-1776976D02*
X2506786Y-1786500D01*
X2506786Y-1786500D02*
X2487738Y-1796024D01*
X2487738Y-1796024D02*
X2468691Y-1796024D01*
X2468691Y-1796024D02*
X2449643Y-1786500D01*
X2449643Y-1786500D02*
X2440119Y-1776976D01*
X2440119Y-1776976D02*
X2430595Y-1757928D01*
X2430595Y-1757928D02*
X2421072Y-1719833D01*
X2421072Y-1719833D02*
X2421072Y-1672214D01*
X2421072Y-1672214D02*
X2430595Y-1634119D01*
X2430595Y-1634119D02*
X2440119Y-1615071D01*
X2440119Y-1615071D02*
X2449643Y-1605548D01*
X2449643Y-1605548D02*
X2468691Y-1596024D01*
X2602024Y-1596024D02*
X2725834Y-1596024D01*
X2725834Y-1596024D02*
X2659167Y-1672214D01*
X2659167Y-1672214D02*
X2687738Y-1672214D01*
X2687738Y-1672214D02*
X2706786Y-1681738D01*
X2706786Y-1681738D02*
X2716310Y-1691262D01*
X2716310Y-1691262D02*
X2725834Y-1710309D01*
X2725834Y-1710309D02*
X2725834Y-1757928D01*
X2725834Y-1757928D02*
X2716310Y-1776976D01*
X2716310Y-1776976D02*
X2706786Y-1786500D01*
X2706786Y-1786500D02*
X2687738Y-1796024D01*
X2687738Y-1796024D02*
X2630595Y-1796024D01*
X2630595Y-1796024D02*
X2611548Y-1786500D01*
X2611548Y-1786500D02*
X2602024Y-1776976D01*
X2802024Y-1615071D02*
X2811548Y-1605548D01*
X2811548Y-1605548D02*
X2830595Y-1596024D01*
X2830595Y-1596024D02*
X2878214Y-1596024D01*
X2878214Y-1596024D02*
X2897262Y-1605548D01*
X2897262Y-1605548D02*
X2906786Y-1615071D01*
X2906786Y-1615071D02*
X2916310Y-1634119D01*
X2916310Y-1634119D02*
X2916310Y-1653167D01*
X2916310Y-1653167D02*
X2906786Y-1681738D01*
X2906786Y-1681738D02*
X2792500Y-1796024D01*
X2792500Y-1796024D02*
X2916310Y-1796024D01*
X3040119Y-1596024D02*
X3059167Y-1596024D01*
X3059167Y-1596024D02*
X3078214Y-1605548D01*
X3078214Y-1605548D02*
X3087738Y-1615071D01*
X3087738Y-1615071D02*
X3097262Y-1634119D01*
X3097262Y-1634119D02*
X3106786Y-1672214D01*
X3106786Y-1672214D02*
X3106786Y-1719833D01*
X3106786Y-1719833D02*
X3097262Y-1757928D01*
X3097262Y-1757928D02*
X3087738Y-1776976D01*
X3087738Y-1776976D02*
X3078214Y-1786500D01*
X3078214Y-1786500D02*
X3059167Y-1796024D01*
X3059167Y-1796024D02*
X3040119Y-1796024D01*
X3040119Y-1796024D02*
X3021072Y-1786500D01*
X3021072Y-1786500D02*
X3011548Y-1776976D01*
X3011548Y-1776976D02*
X3002024Y-1757928D01*
X3002024Y-1757928D02*
X2992500Y-1719833D01*
X2992500Y-1719833D02*
X2992500Y-1672214D01*
X2992500Y-1672214D02*
X3002024Y-1634119D01*
X3002024Y-1634119D02*
X3011548Y-1615071D01*
X3011548Y-1615071D02*
X3021072Y-1605548D01*
X3021072Y-1605548D02*
X3040119Y-1596024D01*
X3182976Y-1596024D02*
X3182976Y-1634119D01*
X3259167Y-1596024D02*
X3259167Y-1634119D01*
X3554405Y-1872214D02*
X3544881Y-1862690D01*
X3544881Y-1862690D02*
X3525834Y-1834119D01*
X3525834Y-1834119D02*
X3516310Y-1815071D01*
X3516310Y-1815071D02*
X3506786Y-1786500D01*
X3506786Y-1786500D02*
X3497262Y-1738881D01*
X3497262Y-1738881D02*
X3497262Y-1700786D01*
X3497262Y-1700786D02*
X3506786Y-1653167D01*
X3506786Y-1653167D02*
X3516310Y-1624595D01*
X3516310Y-1624595D02*
X3525834Y-1605548D01*
X3525834Y-1605548D02*
X3544881Y-1576976D01*
X3544881Y-1576976D02*
X3554405Y-1567452D01*
X3716310Y-1596024D02*
X3678214Y-1596024D01*
X3678214Y-1596024D02*
X3659167Y-1605548D01*
X3659167Y-1605548D02*
X3649643Y-1615071D01*
X3649643Y-1615071D02*
X3630595Y-1643643D01*
X3630595Y-1643643D02*
X3621072Y-1681738D01*
X3621072Y-1681738D02*
X3621072Y-1757928D01*
X3621072Y-1757928D02*
X3630595Y-1776976D01*
X3630595Y-1776976D02*
X3640119Y-1786500D01*
X3640119Y-1786500D02*
X3659167Y-1796024D01*
X3659167Y-1796024D02*
X3697262Y-1796024D01*
X3697262Y-1796024D02*
X3716310Y-1786500D01*
X3716310Y-1786500D02*
X3725834Y-1776976D01*
X3725834Y-1776976D02*
X3735357Y-1757928D01*
X3735357Y-1757928D02*
X3735357Y-1710309D01*
X3735357Y-1710309D02*
X3725834Y-1691262D01*
X3725834Y-1691262D02*
X3716310Y-1681738D01*
X3716310Y-1681738D02*
X3697262Y-1672214D01*
X3697262Y-1672214D02*
X3659167Y-1672214D01*
X3659167Y-1672214D02*
X3640119Y-1681738D01*
X3640119Y-1681738D02*
X3630595Y-1691262D01*
X3630595Y-1691262D02*
X3621072Y-1710309D01*
X3849643Y-1681738D02*
X3830595Y-1672214D01*
X3830595Y-1672214D02*
X3821072Y-1662690D01*
X3821072Y-1662690D02*
X3811548Y-1643643D01*
X3811548Y-1643643D02*
X3811548Y-1634119D01*
X3811548Y-1634119D02*
X3821072Y-1615071D01*
X3821072Y-1615071D02*
X3830595Y-1605548D01*
X3830595Y-1605548D02*
X3849643Y-1596024D01*
X3849643Y-1596024D02*
X3887738Y-1596024D01*
X3887738Y-1596024D02*
X3906786Y-1605548D01*
X3906786Y-1605548D02*
X3916310Y-1615071D01*
X3916310Y-1615071D02*
X3925834Y-1634119D01*
X3925834Y-1634119D02*
X3925834Y-1643643D01*
X3925834Y-1643643D02*
X3916310Y-1662690D01*
X3916310Y-1662690D02*
X3906786Y-1672214D01*
X3906786Y-1672214D02*
X3887738Y-1681738D01*
X3887738Y-1681738D02*
X3849643Y-1681738D01*
X3849643Y-1681738D02*
X3830595Y-1691262D01*
X3830595Y-1691262D02*
X3821072Y-1700786D01*
X3821072Y-1700786D02*
X3811548Y-1719833D01*
X3811548Y-1719833D02*
X3811548Y-1757928D01*
X3811548Y-1757928D02*
X3821072Y-1776976D01*
X3821072Y-1776976D02*
X3830595Y-1786500D01*
X3830595Y-1786500D02*
X3849643Y-1796024D01*
X3849643Y-1796024D02*
X3887738Y-1796024D01*
X3887738Y-1796024D02*
X3906786Y-1786500D01*
X3906786Y-1786500D02*
X3916310Y-1776976D01*
X3916310Y-1776976D02*
X3925834Y-1757928D01*
X3925834Y-1757928D02*
X3925834Y-1719833D01*
X3925834Y-1719833D02*
X3916310Y-1700786D01*
X3916310Y-1700786D02*
X3906786Y-1691262D01*
X3906786Y-1691262D02*
X3887738Y-1681738D01*
X4163929Y-1796024D02*
X4163929Y-1596024D01*
X4249643Y-1796024D02*
X4249643Y-1691262D01*
X4249643Y-1691262D02*
X4240119Y-1672214D01*
X4240119Y-1672214D02*
X4221072Y-1662690D01*
X4221072Y-1662690D02*
X4192500Y-1662690D01*
X4192500Y-1662690D02*
X4173453Y-1672214D01*
X4173453Y-1672214D02*
X4163929Y-1681738D01*
X4373453Y-1796024D02*
X4354405Y-1786500D01*
X4354405Y-1786500D02*
X4344881Y-1776976D01*
X4344881Y-1776976D02*
X4335358Y-1757928D01*
X4335358Y-1757928D02*
X4335358Y-1700786D01*
X4335358Y-1700786D02*
X4344881Y-1681738D01*
X4344881Y-1681738D02*
X4354405Y-1672214D01*
X4354405Y-1672214D02*
X4373453Y-1662690D01*
X4373453Y-1662690D02*
X4402024Y-1662690D01*
X4402024Y-1662690D02*
X4421072Y-1672214D01*
X4421072Y-1672214D02*
X4430596Y-1681738D01*
X4430596Y-1681738D02*
X4440119Y-1700786D01*
X4440119Y-1700786D02*
X4440119Y-1757928D01*
X4440119Y-1757928D02*
X4430596Y-1776976D01*
X4430596Y-1776976D02*
X4421072Y-1786500D01*
X4421072Y-1786500D02*
X4402024Y-1796024D01*
X4402024Y-1796024D02*
X4373453Y-1796024D01*
X4554405Y-1796024D02*
X4535358Y-1786500D01*
X4535358Y-1786500D02*
X4525834Y-1767452D01*
X4525834Y-1767452D02*
X4525834Y-1596024D01*
X4706786Y-1786500D02*
X4687739Y-1796024D01*
X4687739Y-1796024D02*
X4649643Y-1796024D01*
X4649643Y-1796024D02*
X4630596Y-1786500D01*
X4630596Y-1786500D02*
X4621072Y-1767452D01*
X4621072Y-1767452D02*
X4621072Y-1691262D01*
X4621072Y-1691262D02*
X4630596Y-1672214D01*
X4630596Y-1672214D02*
X4649643Y-1662690D01*
X4649643Y-1662690D02*
X4687739Y-1662690D01*
X4687739Y-1662690D02*
X4706786Y-1672214D01*
X4706786Y-1672214D02*
X4716310Y-1691262D01*
X4716310Y-1691262D02*
X4716310Y-1710309D01*
X4716310Y-1710309D02*
X4621072Y-1729357D01*
X4792500Y-1786500D02*
X4811548Y-1796024D01*
X4811548Y-1796024D02*
X4849643Y-1796024D01*
X4849643Y-1796024D02*
X4868691Y-1786500D01*
X4868691Y-1786500D02*
X4878215Y-1767452D01*
X4878215Y-1767452D02*
X4878215Y-1757928D01*
X4878215Y-1757928D02*
X4868691Y-1738881D01*
X4868691Y-1738881D02*
X4849643Y-1729357D01*
X4849643Y-1729357D02*
X4821072Y-1729357D01*
X4821072Y-1729357D02*
X4802024Y-1719833D01*
X4802024Y-1719833D02*
X4792500Y-1700786D01*
X4792500Y-1700786D02*
X4792500Y-1691262D01*
X4792500Y-1691262D02*
X4802024Y-1672214D01*
X4802024Y-1672214D02*
X4821072Y-1662690D01*
X4821072Y-1662690D02*
X4849643Y-1662690D01*
X4849643Y-1662690D02*
X4868691Y-1672214D01*
X4944881Y-1872214D02*
X4954405Y-1862690D01*
X4954405Y-1862690D02*
X4973453Y-1834119D01*
X4973453Y-1834119D02*
X4982977Y-1815071D01*
X4982977Y-1815071D02*
X4992500Y-1786500D01*
X4992500Y-1786500D02*
X5002024Y-1738881D01*
X5002024Y-1738881D02*
X5002024Y-1700786D01*
X5002024Y-1700786D02*
X4992500Y-1653167D01*
X4992500Y-1653167D02*
X4982977Y-1624595D01*
X4982977Y-1624595D02*
X4973453Y-1605548D01*
X4973453Y-1605548D02*
X4954405Y-1576976D01*
X4954405Y-1576976D02*
X4944881Y-1567452D01*
D17*
X-96400Y-1923050D02*
X-7500Y-2011950D01*
X-7500Y-1923050D02*
X-96400Y-2011950D01*
X-7500Y-1967500D02*
G75*
G03*
X-7500Y-1967500I-44450J0D01*
G01*
D11*
X278214Y-1860024D02*
X297262Y-1860024D01*
X297262Y-1860024D02*
X316310Y-1869548D01*
X316310Y-1869548D02*
X325833Y-1879071D01*
X325833Y-1879071D02*
X335357Y-1898119D01*
X335357Y-1898119D02*
X344881Y-1936214D01*
X344881Y-1936214D02*
X344881Y-1983833D01*
X344881Y-1983833D02*
X335357Y-2021928D01*
X335357Y-2021928D02*
X325833Y-2040976D01*
X325833Y-2040976D02*
X316310Y-2050500D01*
X316310Y-2050500D02*
X297262Y-2060024D01*
X297262Y-2060024D02*
X278214Y-2060024D01*
X278214Y-2060024D02*
X259167Y-2050500D01*
X259167Y-2050500D02*
X249643Y-2040976D01*
X249643Y-2040976D02*
X240119Y-2021928D01*
X240119Y-2021928D02*
X230595Y-1983833D01*
X230595Y-1983833D02*
X230595Y-1936214D01*
X230595Y-1936214D02*
X240119Y-1898119D01*
X240119Y-1898119D02*
X249643Y-1879071D01*
X249643Y-1879071D02*
X259167Y-1869548D01*
X259167Y-1869548D02*
X278214Y-1860024D01*
X430595Y-2040976D02*
X440119Y-2050500D01*
X440119Y-2050500D02*
X430595Y-2060024D01*
X430595Y-2060024D02*
X421071Y-2050500D01*
X421071Y-2050500D02*
X430595Y-2040976D01*
X430595Y-2040976D02*
X430595Y-2060024D01*
X554405Y-1945738D02*
X535357Y-1936214D01*
X535357Y-1936214D02*
X525833Y-1926690D01*
X525833Y-1926690D02*
X516309Y-1907643D01*
X516309Y-1907643D02*
X516309Y-1898119D01*
X516309Y-1898119D02*
X525833Y-1879071D01*
X525833Y-1879071D02*
X535357Y-1869548D01*
X535357Y-1869548D02*
X554405Y-1860024D01*
X554405Y-1860024D02*
X592500Y-1860024D01*
X592500Y-1860024D02*
X611548Y-1869548D01*
X611548Y-1869548D02*
X621071Y-1879071D01*
X621071Y-1879071D02*
X630595Y-1898119D01*
X630595Y-1898119D02*
X630595Y-1907643D01*
X630595Y-1907643D02*
X621071Y-1926690D01*
X621071Y-1926690D02*
X611548Y-1936214D01*
X611548Y-1936214D02*
X592500Y-1945738D01*
X592500Y-1945738D02*
X554405Y-1945738D01*
X554405Y-1945738D02*
X535357Y-1955262D01*
X535357Y-1955262D02*
X525833Y-1964786D01*
X525833Y-1964786D02*
X516309Y-1983833D01*
X516309Y-1983833D02*
X516309Y-2021928D01*
X516309Y-2021928D02*
X525833Y-2040976D01*
X525833Y-2040976D02*
X535357Y-2050500D01*
X535357Y-2050500D02*
X554405Y-2060024D01*
X554405Y-2060024D02*
X592500Y-2060024D01*
X592500Y-2060024D02*
X611548Y-2050500D01*
X611548Y-2050500D02*
X621071Y-2040976D01*
X621071Y-2040976D02*
X630595Y-2021928D01*
X630595Y-2021928D02*
X630595Y-1983833D01*
X630595Y-1983833D02*
X621071Y-1964786D01*
X621071Y-1964786D02*
X611548Y-1955262D01*
X611548Y-1955262D02*
X592500Y-1945738D01*
X744881Y-1945738D02*
X725833Y-1936214D01*
X725833Y-1936214D02*
X716309Y-1926690D01*
X716309Y-1926690D02*
X706786Y-1907643D01*
X706786Y-1907643D02*
X706786Y-1898119D01*
X706786Y-1898119D02*
X716309Y-1879071D01*
X716309Y-1879071D02*
X725833Y-1869548D01*
X725833Y-1869548D02*
X744881Y-1860024D01*
X744881Y-1860024D02*
X782976Y-1860024D01*
X782976Y-1860024D02*
X802024Y-1869548D01*
X802024Y-1869548D02*
X811548Y-1879071D01*
X811548Y-1879071D02*
X821071Y-1898119D01*
X821071Y-1898119D02*
X821071Y-1907643D01*
X821071Y-1907643D02*
X811548Y-1926690D01*
X811548Y-1926690D02*
X802024Y-1936214D01*
X802024Y-1936214D02*
X782976Y-1945738D01*
X782976Y-1945738D02*
X744881Y-1945738D01*
X744881Y-1945738D02*
X725833Y-1955262D01*
X725833Y-1955262D02*
X716309Y-1964786D01*
X716309Y-1964786D02*
X706786Y-1983833D01*
X706786Y-1983833D02*
X706786Y-2021928D01*
X706786Y-2021928D02*
X716309Y-2040976D01*
X716309Y-2040976D02*
X725833Y-2050500D01*
X725833Y-2050500D02*
X744881Y-2060024D01*
X744881Y-2060024D02*
X782976Y-2060024D01*
X782976Y-2060024D02*
X802024Y-2050500D01*
X802024Y-2050500D02*
X811548Y-2040976D01*
X811548Y-2040976D02*
X821071Y-2021928D01*
X821071Y-2021928D02*
X821071Y-1983833D01*
X821071Y-1983833D02*
X811548Y-1964786D01*
X811548Y-1964786D02*
X802024Y-1955262D01*
X802024Y-1955262D02*
X782976Y-1945738D01*
X916309Y-2060024D02*
X954405Y-2060024D01*
X954405Y-2060024D02*
X973452Y-2050500D01*
X973452Y-2050500D02*
X982976Y-2040976D01*
X982976Y-2040976D02*
X1002024Y-2012405D01*
X1002024Y-2012405D02*
X1011548Y-1974309D01*
X1011548Y-1974309D02*
X1011548Y-1898119D01*
X1011548Y-1898119D02*
X1002024Y-1879071D01*
X1002024Y-1879071D02*
X992500Y-1869548D01*
X992500Y-1869548D02*
X973452Y-1860024D01*
X973452Y-1860024D02*
X935357Y-1860024D01*
X935357Y-1860024D02*
X916309Y-1869548D01*
X916309Y-1869548D02*
X906786Y-1879071D01*
X906786Y-1879071D02*
X897262Y-1898119D01*
X897262Y-1898119D02*
X897262Y-1945738D01*
X897262Y-1945738D02*
X906786Y-1964786D01*
X906786Y-1964786D02*
X916309Y-1974309D01*
X916309Y-1974309D02*
X935357Y-1983833D01*
X935357Y-1983833D02*
X973452Y-1983833D01*
X973452Y-1983833D02*
X992500Y-1974309D01*
X992500Y-1974309D02*
X1002024Y-1964786D01*
X1002024Y-1964786D02*
X1011548Y-1945738D01*
X1097262Y-2060024D02*
X1097262Y-1926690D01*
X1097262Y-1945738D02*
X1106786Y-1936214D01*
X1106786Y-1936214D02*
X1125833Y-1926690D01*
X1125833Y-1926690D02*
X1154405Y-1926690D01*
X1154405Y-1926690D02*
X1173452Y-1936214D01*
X1173452Y-1936214D02*
X1182976Y-1955262D01*
X1182976Y-1955262D02*
X1182976Y-2060024D01*
X1182976Y-1955262D02*
X1192500Y-1936214D01*
X1192500Y-1936214D02*
X1211548Y-1926690D01*
X1211548Y-1926690D02*
X1240119Y-1926690D01*
X1240119Y-1926690D02*
X1259167Y-1936214D01*
X1259167Y-1936214D02*
X1268691Y-1955262D01*
X1268691Y-1955262D02*
X1268691Y-2060024D01*
X1363929Y-2060024D02*
X1363929Y-1926690D01*
X1363929Y-1945738D02*
X1373452Y-1936214D01*
X1373452Y-1936214D02*
X1392500Y-1926690D01*
X1392500Y-1926690D02*
X1421071Y-1926690D01*
X1421071Y-1926690D02*
X1440119Y-1936214D01*
X1440119Y-1936214D02*
X1449643Y-1955262D01*
X1449643Y-1955262D02*
X1449643Y-2060024D01*
X1449643Y-1955262D02*
X1459167Y-1936214D01*
X1459167Y-1936214D02*
X1478214Y-1926690D01*
X1478214Y-1926690D02*
X1506786Y-1926690D01*
X1506786Y-1926690D02*
X1525833Y-1936214D01*
X1525833Y-1936214D02*
X1535357Y-1955262D01*
X1535357Y-1955262D02*
X1535357Y-2060024D01*
X1925833Y-1850500D02*
X1754405Y-2107643D01*
X2182976Y-1860024D02*
X2202024Y-1860024D01*
X2202024Y-1860024D02*
X2221072Y-1869548D01*
X2221072Y-1869548D02*
X2230595Y-1879071D01*
X2230595Y-1879071D02*
X2240119Y-1898119D01*
X2240119Y-1898119D02*
X2249643Y-1936214D01*
X2249643Y-1936214D02*
X2249643Y-1983833D01*
X2249643Y-1983833D02*
X2240119Y-2021928D01*
X2240119Y-2021928D02*
X2230595Y-2040976D01*
X2230595Y-2040976D02*
X2221072Y-2050500D01*
X2221072Y-2050500D02*
X2202024Y-2060024D01*
X2202024Y-2060024D02*
X2182976Y-2060024D01*
X2182976Y-2060024D02*
X2163929Y-2050500D01*
X2163929Y-2050500D02*
X2154405Y-2040976D01*
X2154405Y-2040976D02*
X2144881Y-2021928D01*
X2144881Y-2021928D02*
X2135357Y-1983833D01*
X2135357Y-1983833D02*
X2135357Y-1936214D01*
X2135357Y-1936214D02*
X2144881Y-1898119D01*
X2144881Y-1898119D02*
X2154405Y-1879071D01*
X2154405Y-1879071D02*
X2163929Y-1869548D01*
X2163929Y-1869548D02*
X2182976Y-1860024D01*
X2335357Y-2040976D02*
X2344881Y-2050500D01*
X2344881Y-2050500D02*
X2335357Y-2060024D01*
X2335357Y-2060024D02*
X2325834Y-2050500D01*
X2325834Y-2050500D02*
X2335357Y-2040976D01*
X2335357Y-2040976D02*
X2335357Y-2060024D01*
X2468691Y-1860024D02*
X2487738Y-1860024D01*
X2487738Y-1860024D02*
X2506786Y-1869548D01*
X2506786Y-1869548D02*
X2516310Y-1879071D01*
X2516310Y-1879071D02*
X2525834Y-1898119D01*
X2525834Y-1898119D02*
X2535357Y-1936214D01*
X2535357Y-1936214D02*
X2535357Y-1983833D01*
X2535357Y-1983833D02*
X2525834Y-2021928D01*
X2525834Y-2021928D02*
X2516310Y-2040976D01*
X2516310Y-2040976D02*
X2506786Y-2050500D01*
X2506786Y-2050500D02*
X2487738Y-2060024D01*
X2487738Y-2060024D02*
X2468691Y-2060024D01*
X2468691Y-2060024D02*
X2449643Y-2050500D01*
X2449643Y-2050500D02*
X2440119Y-2040976D01*
X2440119Y-2040976D02*
X2430595Y-2021928D01*
X2430595Y-2021928D02*
X2421072Y-1983833D01*
X2421072Y-1983833D02*
X2421072Y-1936214D01*
X2421072Y-1936214D02*
X2430595Y-1898119D01*
X2430595Y-1898119D02*
X2440119Y-1879071D01*
X2440119Y-1879071D02*
X2449643Y-1869548D01*
X2449643Y-1869548D02*
X2468691Y-1860024D01*
X2602024Y-1860024D02*
X2725834Y-1860024D01*
X2725834Y-1860024D02*
X2659167Y-1936214D01*
X2659167Y-1936214D02*
X2687738Y-1936214D01*
X2687738Y-1936214D02*
X2706786Y-1945738D01*
X2706786Y-1945738D02*
X2716310Y-1955262D01*
X2716310Y-1955262D02*
X2725834Y-1974309D01*
X2725834Y-1974309D02*
X2725834Y-2021928D01*
X2725834Y-2021928D02*
X2716310Y-2040976D01*
X2716310Y-2040976D02*
X2706786Y-2050500D01*
X2706786Y-2050500D02*
X2687738Y-2060024D01*
X2687738Y-2060024D02*
X2630595Y-2060024D01*
X2630595Y-2060024D02*
X2611548Y-2050500D01*
X2611548Y-2050500D02*
X2602024Y-2040976D01*
X2906786Y-1860024D02*
X2811548Y-1860024D01*
X2811548Y-1860024D02*
X2802024Y-1955262D01*
X2802024Y-1955262D02*
X2811548Y-1945738D01*
X2811548Y-1945738D02*
X2830595Y-1936214D01*
X2830595Y-1936214D02*
X2878214Y-1936214D01*
X2878214Y-1936214D02*
X2897262Y-1945738D01*
X2897262Y-1945738D02*
X2906786Y-1955262D01*
X2906786Y-1955262D02*
X2916310Y-1974309D01*
X2916310Y-1974309D02*
X2916310Y-2021928D01*
X2916310Y-2021928D02*
X2906786Y-2040976D01*
X2906786Y-2040976D02*
X2897262Y-2050500D01*
X2897262Y-2050500D02*
X2878214Y-2060024D01*
X2878214Y-2060024D02*
X2830595Y-2060024D01*
X2830595Y-2060024D02*
X2811548Y-2050500D01*
X2811548Y-2050500D02*
X2802024Y-2040976D01*
X3040119Y-1860024D02*
X3059167Y-1860024D01*
X3059167Y-1860024D02*
X3078214Y-1869548D01*
X3078214Y-1869548D02*
X3087738Y-1879071D01*
X3087738Y-1879071D02*
X3097262Y-1898119D01*
X3097262Y-1898119D02*
X3106786Y-1936214D01*
X3106786Y-1936214D02*
X3106786Y-1983833D01*
X3106786Y-1983833D02*
X3097262Y-2021928D01*
X3097262Y-2021928D02*
X3087738Y-2040976D01*
X3087738Y-2040976D02*
X3078214Y-2050500D01*
X3078214Y-2050500D02*
X3059167Y-2060024D01*
X3059167Y-2060024D02*
X3040119Y-2060024D01*
X3040119Y-2060024D02*
X3021072Y-2050500D01*
X3021072Y-2050500D02*
X3011548Y-2040976D01*
X3011548Y-2040976D02*
X3002024Y-2021928D01*
X3002024Y-2021928D02*
X2992500Y-1983833D01*
X2992500Y-1983833D02*
X2992500Y-1936214D01*
X2992500Y-1936214D02*
X3002024Y-1898119D01*
X3002024Y-1898119D02*
X3011548Y-1879071D01*
X3011548Y-1879071D02*
X3021072Y-1869548D01*
X3021072Y-1869548D02*
X3040119Y-1860024D01*
X3182976Y-1860024D02*
X3182976Y-1898119D01*
X3259167Y-1860024D02*
X3259167Y-1898119D01*
X3554405Y-2136214D02*
X3544881Y-2126690D01*
X3544881Y-2126690D02*
X3525834Y-2098119D01*
X3525834Y-2098119D02*
X3516310Y-2079071D01*
X3516310Y-2079071D02*
X3506786Y-2050500D01*
X3506786Y-2050500D02*
X3497262Y-2002881D01*
X3497262Y-2002881D02*
X3497262Y-1964786D01*
X3497262Y-1964786D02*
X3506786Y-1917167D01*
X3506786Y-1917167D02*
X3516310Y-1888595D01*
X3516310Y-1888595D02*
X3525834Y-1869548D01*
X3525834Y-1869548D02*
X3544881Y-1840976D01*
X3544881Y-1840976D02*
X3554405Y-1831452D01*
X3735357Y-2060024D02*
X3621072Y-2060024D01*
X3678214Y-2060024D02*
X3678214Y-1860024D01*
X3678214Y-1860024D02*
X3659167Y-1888595D01*
X3659167Y-1888595D02*
X3640119Y-1907643D01*
X3640119Y-1907643D02*
X3621072Y-1917167D01*
X3811548Y-1879071D02*
X3821072Y-1869548D01*
X3821072Y-1869548D02*
X3840119Y-1860024D01*
X3840119Y-1860024D02*
X3887738Y-1860024D01*
X3887738Y-1860024D02*
X3906786Y-1869548D01*
X3906786Y-1869548D02*
X3916310Y-1879071D01*
X3916310Y-1879071D02*
X3925834Y-1898119D01*
X3925834Y-1898119D02*
X3925834Y-1917167D01*
X3925834Y-1917167D02*
X3916310Y-1945738D01*
X3916310Y-1945738D02*
X3802024Y-2060024D01*
X3802024Y-2060024D02*
X3925834Y-2060024D01*
X4163929Y-2060024D02*
X4163929Y-1860024D01*
X4249643Y-2060024D02*
X4249643Y-1955262D01*
X4249643Y-1955262D02*
X4240119Y-1936214D01*
X4240119Y-1936214D02*
X4221072Y-1926690D01*
X4221072Y-1926690D02*
X4192500Y-1926690D01*
X4192500Y-1926690D02*
X4173453Y-1936214D01*
X4173453Y-1936214D02*
X4163929Y-1945738D01*
X4373453Y-2060024D02*
X4354405Y-2050500D01*
X4354405Y-2050500D02*
X4344881Y-2040976D01*
X4344881Y-2040976D02*
X4335358Y-2021928D01*
X4335358Y-2021928D02*
X4335358Y-1964786D01*
X4335358Y-1964786D02*
X4344881Y-1945738D01*
X4344881Y-1945738D02*
X4354405Y-1936214D01*
X4354405Y-1936214D02*
X4373453Y-1926690D01*
X4373453Y-1926690D02*
X4402024Y-1926690D01*
X4402024Y-1926690D02*
X4421072Y-1936214D01*
X4421072Y-1936214D02*
X4430596Y-1945738D01*
X4430596Y-1945738D02*
X4440119Y-1964786D01*
X4440119Y-1964786D02*
X4440119Y-2021928D01*
X4440119Y-2021928D02*
X4430596Y-2040976D01*
X4430596Y-2040976D02*
X4421072Y-2050500D01*
X4421072Y-2050500D02*
X4402024Y-2060024D01*
X4402024Y-2060024D02*
X4373453Y-2060024D01*
X4554405Y-2060024D02*
X4535358Y-2050500D01*
X4535358Y-2050500D02*
X4525834Y-2031452D01*
X4525834Y-2031452D02*
X4525834Y-1860024D01*
X4706786Y-2050500D02*
X4687739Y-2060024D01*
X4687739Y-2060024D02*
X4649643Y-2060024D01*
X4649643Y-2060024D02*
X4630596Y-2050500D01*
X4630596Y-2050500D02*
X4621072Y-2031452D01*
X4621072Y-2031452D02*
X4621072Y-1955262D01*
X4621072Y-1955262D02*
X4630596Y-1936214D01*
X4630596Y-1936214D02*
X4649643Y-1926690D01*
X4649643Y-1926690D02*
X4687739Y-1926690D01*
X4687739Y-1926690D02*
X4706786Y-1936214D01*
X4706786Y-1936214D02*
X4716310Y-1955262D01*
X4716310Y-1955262D02*
X4716310Y-1974309D01*
X4716310Y-1974309D02*
X4621072Y-1993357D01*
X4792500Y-2050500D02*
X4811548Y-2060024D01*
X4811548Y-2060024D02*
X4849643Y-2060024D01*
X4849643Y-2060024D02*
X4868691Y-2050500D01*
X4868691Y-2050500D02*
X4878215Y-2031452D01*
X4878215Y-2031452D02*
X4878215Y-2021928D01*
X4878215Y-2021928D02*
X4868691Y-2002881D01*
X4868691Y-2002881D02*
X4849643Y-1993357D01*
X4849643Y-1993357D02*
X4821072Y-1993357D01*
X4821072Y-1993357D02*
X4802024Y-1983833D01*
X4802024Y-1983833D02*
X4792500Y-1964786D01*
X4792500Y-1964786D02*
X4792500Y-1955262D01*
X4792500Y-1955262D02*
X4802024Y-1936214D01*
X4802024Y-1936214D02*
X4821072Y-1926690D01*
X4821072Y-1926690D02*
X4849643Y-1926690D01*
X4849643Y-1926690D02*
X4868691Y-1936214D01*
X4944881Y-2136214D02*
X4954405Y-2126690D01*
X4954405Y-2126690D02*
X4973453Y-2098119D01*
X4973453Y-2098119D02*
X4982977Y-2079071D01*
X4982977Y-2079071D02*
X4992500Y-2050500D01*
X4992500Y-2050500D02*
X5002024Y-2002881D01*
X5002024Y-2002881D02*
X5002024Y-1964786D01*
X5002024Y-1964786D02*
X4992500Y-1917167D01*
X4992500Y-1917167D02*
X4982977Y-1888595D01*
X4982977Y-1888595D02*
X4973453Y-1869548D01*
X4973453Y-1869548D02*
X4954405Y-1840976D01*
X4954405Y-1840976D02*
X4944881Y-1831452D01*
D18*
X-98940Y-2185780D02*
X-7500Y-2277220D01*
X-7500Y-2185780D02*
X-98940Y-2277220D01*
X-53220Y-2185780D02*
X-53220Y-2277220D01*
X-98940Y-2231500D02*
X-7500Y-2231500D01*
D11*
X278214Y-2124024D02*
X297262Y-2124024D01*
X297262Y-2124024D02*
X316310Y-2133548D01*
X316310Y-2133548D02*
X325833Y-2143071D01*
X325833Y-2143071D02*
X335357Y-2162119D01*
X335357Y-2162119D02*
X344881Y-2200214D01*
X344881Y-2200214D02*
X344881Y-2247833D01*
X344881Y-2247833D02*
X335357Y-2285929D01*
X335357Y-2285929D02*
X325833Y-2304976D01*
X325833Y-2304976D02*
X316310Y-2314500D01*
X316310Y-2314500D02*
X297262Y-2324024D01*
X297262Y-2324024D02*
X278214Y-2324024D01*
X278214Y-2324024D02*
X259167Y-2314500D01*
X259167Y-2314500D02*
X249643Y-2304976D01*
X249643Y-2304976D02*
X240119Y-2285929D01*
X240119Y-2285929D02*
X230595Y-2247833D01*
X230595Y-2247833D02*
X230595Y-2200214D01*
X230595Y-2200214D02*
X240119Y-2162119D01*
X240119Y-2162119D02*
X249643Y-2143071D01*
X249643Y-2143071D02*
X259167Y-2133548D01*
X259167Y-2133548D02*
X278214Y-2124024D01*
X430595Y-2304976D02*
X440119Y-2314500D01*
X440119Y-2314500D02*
X430595Y-2324024D01*
X430595Y-2324024D02*
X421071Y-2314500D01*
X421071Y-2314500D02*
X430595Y-2304976D01*
X430595Y-2304976D02*
X430595Y-2324024D01*
X535357Y-2324024D02*
X573452Y-2324024D01*
X573452Y-2324024D02*
X592500Y-2314500D01*
X592500Y-2314500D02*
X602024Y-2304976D01*
X602024Y-2304976D02*
X621071Y-2276405D01*
X621071Y-2276405D02*
X630595Y-2238310D01*
X630595Y-2238310D02*
X630595Y-2162119D01*
X630595Y-2162119D02*
X621071Y-2143071D01*
X621071Y-2143071D02*
X611548Y-2133548D01*
X611548Y-2133548D02*
X592500Y-2124024D01*
X592500Y-2124024D02*
X554405Y-2124024D01*
X554405Y-2124024D02*
X535357Y-2133548D01*
X535357Y-2133548D02*
X525833Y-2143071D01*
X525833Y-2143071D02*
X516309Y-2162119D01*
X516309Y-2162119D02*
X516309Y-2209738D01*
X516309Y-2209738D02*
X525833Y-2228786D01*
X525833Y-2228786D02*
X535357Y-2238310D01*
X535357Y-2238310D02*
X554405Y-2247833D01*
X554405Y-2247833D02*
X592500Y-2247833D01*
X592500Y-2247833D02*
X611548Y-2238310D01*
X611548Y-2238310D02*
X621071Y-2228786D01*
X621071Y-2228786D02*
X630595Y-2209738D01*
X821071Y-2324024D02*
X706786Y-2324024D01*
X763928Y-2324024D02*
X763928Y-2124024D01*
X763928Y-2124024D02*
X744881Y-2152595D01*
X744881Y-2152595D02*
X725833Y-2171643D01*
X725833Y-2171643D02*
X706786Y-2181167D01*
X992500Y-2190690D02*
X992500Y-2324024D01*
X944881Y-2114500D02*
X897262Y-2257357D01*
X897262Y-2257357D02*
X1021071Y-2257357D01*
X1097262Y-2324024D02*
X1097262Y-2190690D01*
X1097262Y-2209738D02*
X1106786Y-2200214D01*
X1106786Y-2200214D02*
X1125833Y-2190690D01*
X1125833Y-2190690D02*
X1154405Y-2190690D01*
X1154405Y-2190690D02*
X1173452Y-2200214D01*
X1173452Y-2200214D02*
X1182976Y-2219262D01*
X1182976Y-2219262D02*
X1182976Y-2324024D01*
X1182976Y-2219262D02*
X1192500Y-2200214D01*
X1192500Y-2200214D02*
X1211548Y-2190690D01*
X1211548Y-2190690D02*
X1240119Y-2190690D01*
X1240119Y-2190690D02*
X1259167Y-2200214D01*
X1259167Y-2200214D02*
X1268691Y-2219262D01*
X1268691Y-2219262D02*
X1268691Y-2324024D01*
X1363929Y-2324024D02*
X1363929Y-2190690D01*
X1363929Y-2209738D02*
X1373452Y-2200214D01*
X1373452Y-2200214D02*
X1392500Y-2190690D01*
X1392500Y-2190690D02*
X1421071Y-2190690D01*
X1421071Y-2190690D02*
X1440119Y-2200214D01*
X1440119Y-2200214D02*
X1449643Y-2219262D01*
X1449643Y-2219262D02*
X1449643Y-2324024D01*
X1449643Y-2219262D02*
X1459167Y-2200214D01*
X1459167Y-2200214D02*
X1478214Y-2190690D01*
X1478214Y-2190690D02*
X1506786Y-2190690D01*
X1506786Y-2190690D02*
X1525833Y-2200214D01*
X1525833Y-2200214D02*
X1535357Y-2219262D01*
X1535357Y-2219262D02*
X1535357Y-2324024D01*
X1925833Y-2114500D02*
X1754405Y-2371643D01*
X2182976Y-2124024D02*
X2202024Y-2124024D01*
X2202024Y-2124024D02*
X2221072Y-2133548D01*
X2221072Y-2133548D02*
X2230595Y-2143071D01*
X2230595Y-2143071D02*
X2240119Y-2162119D01*
X2240119Y-2162119D02*
X2249643Y-2200214D01*
X2249643Y-2200214D02*
X2249643Y-2247833D01*
X2249643Y-2247833D02*
X2240119Y-2285929D01*
X2240119Y-2285929D02*
X2230595Y-2304976D01*
X2230595Y-2304976D02*
X2221072Y-2314500D01*
X2221072Y-2314500D02*
X2202024Y-2324024D01*
X2202024Y-2324024D02*
X2182976Y-2324024D01*
X2182976Y-2324024D02*
X2163929Y-2314500D01*
X2163929Y-2314500D02*
X2154405Y-2304976D01*
X2154405Y-2304976D02*
X2144881Y-2285929D01*
X2144881Y-2285929D02*
X2135357Y-2247833D01*
X2135357Y-2247833D02*
X2135357Y-2200214D01*
X2135357Y-2200214D02*
X2144881Y-2162119D01*
X2144881Y-2162119D02*
X2154405Y-2143071D01*
X2154405Y-2143071D02*
X2163929Y-2133548D01*
X2163929Y-2133548D02*
X2182976Y-2124024D01*
X2335357Y-2304976D02*
X2344881Y-2314500D01*
X2344881Y-2314500D02*
X2335357Y-2324024D01*
X2335357Y-2324024D02*
X2325834Y-2314500D01*
X2325834Y-2314500D02*
X2335357Y-2304976D01*
X2335357Y-2304976D02*
X2335357Y-2324024D01*
X2468691Y-2124024D02*
X2487738Y-2124024D01*
X2487738Y-2124024D02*
X2506786Y-2133548D01*
X2506786Y-2133548D02*
X2516310Y-2143071D01*
X2516310Y-2143071D02*
X2525834Y-2162119D01*
X2525834Y-2162119D02*
X2535357Y-2200214D01*
X2535357Y-2200214D02*
X2535357Y-2247833D01*
X2535357Y-2247833D02*
X2525834Y-2285929D01*
X2525834Y-2285929D02*
X2516310Y-2304976D01*
X2516310Y-2304976D02*
X2506786Y-2314500D01*
X2506786Y-2314500D02*
X2487738Y-2324024D01*
X2487738Y-2324024D02*
X2468691Y-2324024D01*
X2468691Y-2324024D02*
X2449643Y-2314500D01*
X2449643Y-2314500D02*
X2440119Y-2304976D01*
X2440119Y-2304976D02*
X2430595Y-2285929D01*
X2430595Y-2285929D02*
X2421072Y-2247833D01*
X2421072Y-2247833D02*
X2421072Y-2200214D01*
X2421072Y-2200214D02*
X2430595Y-2162119D01*
X2430595Y-2162119D02*
X2440119Y-2143071D01*
X2440119Y-2143071D02*
X2449643Y-2133548D01*
X2449643Y-2133548D02*
X2468691Y-2124024D01*
X2602024Y-2124024D02*
X2725834Y-2124024D01*
X2725834Y-2124024D02*
X2659167Y-2200214D01*
X2659167Y-2200214D02*
X2687738Y-2200214D01*
X2687738Y-2200214D02*
X2706786Y-2209738D01*
X2706786Y-2209738D02*
X2716310Y-2219262D01*
X2716310Y-2219262D02*
X2725834Y-2238310D01*
X2725834Y-2238310D02*
X2725834Y-2285929D01*
X2725834Y-2285929D02*
X2716310Y-2304976D01*
X2716310Y-2304976D02*
X2706786Y-2314500D01*
X2706786Y-2314500D02*
X2687738Y-2324024D01*
X2687738Y-2324024D02*
X2630595Y-2324024D01*
X2630595Y-2324024D02*
X2611548Y-2314500D01*
X2611548Y-2314500D02*
X2602024Y-2304976D01*
X2897262Y-2124024D02*
X2859167Y-2124024D01*
X2859167Y-2124024D02*
X2840119Y-2133548D01*
X2840119Y-2133548D02*
X2830595Y-2143071D01*
X2830595Y-2143071D02*
X2811548Y-2171643D01*
X2811548Y-2171643D02*
X2802024Y-2209738D01*
X2802024Y-2209738D02*
X2802024Y-2285929D01*
X2802024Y-2285929D02*
X2811548Y-2304976D01*
X2811548Y-2304976D02*
X2821072Y-2314500D01*
X2821072Y-2314500D02*
X2840119Y-2324024D01*
X2840119Y-2324024D02*
X2878214Y-2324024D01*
X2878214Y-2324024D02*
X2897262Y-2314500D01*
X2897262Y-2314500D02*
X2906786Y-2304976D01*
X2906786Y-2304976D02*
X2916310Y-2285929D01*
X2916310Y-2285929D02*
X2916310Y-2238310D01*
X2916310Y-2238310D02*
X2906786Y-2219262D01*
X2906786Y-2219262D02*
X2897262Y-2209738D01*
X2897262Y-2209738D02*
X2878214Y-2200214D01*
X2878214Y-2200214D02*
X2840119Y-2200214D01*
X2840119Y-2200214D02*
X2821072Y-2209738D01*
X2821072Y-2209738D02*
X2811548Y-2219262D01*
X2811548Y-2219262D02*
X2802024Y-2238310D01*
X3040119Y-2124024D02*
X3059167Y-2124024D01*
X3059167Y-2124024D02*
X3078214Y-2133548D01*
X3078214Y-2133548D02*
X3087738Y-2143071D01*
X3087738Y-2143071D02*
X3097262Y-2162119D01*
X3097262Y-2162119D02*
X3106786Y-2200214D01*
X3106786Y-2200214D02*
X3106786Y-2247833D01*
X3106786Y-2247833D02*
X3097262Y-2285929D01*
X3097262Y-2285929D02*
X3087738Y-2304976D01*
X3087738Y-2304976D02*
X3078214Y-2314500D01*
X3078214Y-2314500D02*
X3059167Y-2324024D01*
X3059167Y-2324024D02*
X3040119Y-2324024D01*
X3040119Y-2324024D02*
X3021072Y-2314500D01*
X3021072Y-2314500D02*
X3011548Y-2304976D01*
X3011548Y-2304976D02*
X3002024Y-2285929D01*
X3002024Y-2285929D02*
X2992500Y-2247833D01*
X2992500Y-2247833D02*
X2992500Y-2200214D01*
X2992500Y-2200214D02*
X3002024Y-2162119D01*
X3002024Y-2162119D02*
X3011548Y-2143071D01*
X3011548Y-2143071D02*
X3021072Y-2133548D01*
X3021072Y-2133548D02*
X3040119Y-2124024D01*
X3182976Y-2124024D02*
X3182976Y-2162119D01*
X3259167Y-2124024D02*
X3259167Y-2162119D01*
X3554405Y-2400214D02*
X3544881Y-2390690D01*
X3544881Y-2390690D02*
X3525834Y-2362119D01*
X3525834Y-2362119D02*
X3516310Y-2343071D01*
X3516310Y-2343071D02*
X3506786Y-2314500D01*
X3506786Y-2314500D02*
X3497262Y-2266881D01*
X3497262Y-2266881D02*
X3497262Y-2228786D01*
X3497262Y-2228786D02*
X3506786Y-2181167D01*
X3506786Y-2181167D02*
X3516310Y-2152595D01*
X3516310Y-2152595D02*
X3525834Y-2133548D01*
X3525834Y-2133548D02*
X3544881Y-2104976D01*
X3544881Y-2104976D02*
X3554405Y-2095452D01*
X3621072Y-2143071D02*
X3630595Y-2133548D01*
X3630595Y-2133548D02*
X3649643Y-2124024D01*
X3649643Y-2124024D02*
X3697262Y-2124024D01*
X3697262Y-2124024D02*
X3716310Y-2133548D01*
X3716310Y-2133548D02*
X3725834Y-2143071D01*
X3725834Y-2143071D02*
X3735357Y-2162119D01*
X3735357Y-2162119D02*
X3735357Y-2181167D01*
X3735357Y-2181167D02*
X3725834Y-2209738D01*
X3725834Y-2209738D02*
X3611548Y-2324024D01*
X3611548Y-2324024D02*
X3735357Y-2324024D01*
X3973453Y-2324024D02*
X3973453Y-2124024D01*
X4059167Y-2324024D02*
X4059167Y-2219262D01*
X4059167Y-2219262D02*
X4049643Y-2200214D01*
X4049643Y-2200214D02*
X4030596Y-2190690D01*
X4030596Y-2190690D02*
X4002024Y-2190690D01*
X4002024Y-2190690D02*
X3982976Y-2200214D01*
X3982976Y-2200214D02*
X3973453Y-2209738D01*
X4182976Y-2324024D02*
X4163929Y-2314500D01*
X4163929Y-2314500D02*
X4154405Y-2304976D01*
X4154405Y-2304976D02*
X4144881Y-2285929D01*
X4144881Y-2285929D02*
X4144881Y-2228786D01*
X4144881Y-2228786D02*
X4154405Y-2209738D01*
X4154405Y-2209738D02*
X4163929Y-2200214D01*
X4163929Y-2200214D02*
X4182976Y-2190690D01*
X4182976Y-2190690D02*
X4211548Y-2190690D01*
X4211548Y-2190690D02*
X4230596Y-2200214D01*
X4230596Y-2200214D02*
X4240119Y-2209738D01*
X4240119Y-2209738D02*
X4249643Y-2228786D01*
X4249643Y-2228786D02*
X4249643Y-2285929D01*
X4249643Y-2285929D02*
X4240119Y-2304976D01*
X4240119Y-2304976D02*
X4230596Y-2314500D01*
X4230596Y-2314500D02*
X4211548Y-2324024D01*
X4211548Y-2324024D02*
X4182976Y-2324024D01*
X4363929Y-2324024D02*
X4344881Y-2314500D01*
X4344881Y-2314500D02*
X4335358Y-2295452D01*
X4335358Y-2295452D02*
X4335358Y-2124024D01*
X4516310Y-2314500D02*
X4497262Y-2324024D01*
X4497262Y-2324024D02*
X4459167Y-2324024D01*
X4459167Y-2324024D02*
X4440119Y-2314500D01*
X4440119Y-2314500D02*
X4430596Y-2295452D01*
X4430596Y-2295452D02*
X4430596Y-2219262D01*
X4430596Y-2219262D02*
X4440119Y-2200214D01*
X4440119Y-2200214D02*
X4459167Y-2190690D01*
X4459167Y-2190690D02*
X4497262Y-2190690D01*
X4497262Y-2190690D02*
X4516310Y-2200214D01*
X4516310Y-2200214D02*
X4525834Y-2219262D01*
X4525834Y-2219262D02*
X4525834Y-2238310D01*
X4525834Y-2238310D02*
X4430596Y-2257357D01*
X4602024Y-2314500D02*
X4621072Y-2324024D01*
X4621072Y-2324024D02*
X4659167Y-2324024D01*
X4659167Y-2324024D02*
X4678215Y-2314500D01*
X4678215Y-2314500D02*
X4687739Y-2295452D01*
X4687739Y-2295452D02*
X4687739Y-2285929D01*
X4687739Y-2285929D02*
X4678215Y-2266881D01*
X4678215Y-2266881D02*
X4659167Y-2257357D01*
X4659167Y-2257357D02*
X4630596Y-2257357D01*
X4630596Y-2257357D02*
X4611548Y-2247833D01*
X4611548Y-2247833D02*
X4602024Y-2228786D01*
X4602024Y-2228786D02*
X4602024Y-2219262D01*
X4602024Y-2219262D02*
X4611548Y-2200214D01*
X4611548Y-2200214D02*
X4630596Y-2190690D01*
X4630596Y-2190690D02*
X4659167Y-2190690D01*
X4659167Y-2190690D02*
X4678215Y-2200214D01*
X4754405Y-2400214D02*
X4763929Y-2390690D01*
X4763929Y-2390690D02*
X4782977Y-2362119D01*
X4782977Y-2362119D02*
X4792500Y-2343071D01*
X4792500Y-2343071D02*
X4802024Y-2314500D01*
X4802024Y-2314500D02*
X4811548Y-2266881D01*
X4811548Y-2266881D02*
X4811548Y-2228786D01*
X4811548Y-2228786D02*
X4802024Y-2181167D01*
X4802024Y-2181167D02*
X4792500Y-2152595D01*
X4792500Y-2152595D02*
X4782977Y-2133548D01*
X4782977Y-2133548D02*
X4763929Y-2104976D01*
X4763929Y-2104976D02*
X4754405Y-2095452D01*
D19*
X-107500Y-2445500D02*
X-7500Y-2545500D01*
X-7500Y-2445500D02*
X-107500Y-2545500D01*
X-22144Y-2530856D02*
X-22144Y-2460144D01*
X-92856Y-2460144D01*
X-92856Y-2530856D01*
X-22144Y-2530856D01*
D11*
X344881Y-2588024D02*
X230595Y-2588024D01*
X287738Y-2588024D02*
X287738Y-2388024D01*
X287738Y-2388024D02*
X268690Y-2416595D01*
X268690Y-2416595D02*
X249643Y-2435643D01*
X249643Y-2435643D02*
X230595Y-2445167D01*
X430595Y-2568976D02*
X440119Y-2578500D01*
X440119Y-2578500D02*
X430595Y-2588024D01*
X430595Y-2588024D02*
X421071Y-2578500D01*
X421071Y-2578500D02*
X430595Y-2568976D01*
X430595Y-2568976D02*
X430595Y-2588024D01*
X563929Y-2388024D02*
X582976Y-2388024D01*
X582976Y-2388024D02*
X602024Y-2397548D01*
X602024Y-2397548D02*
X611548Y-2407071D01*
X611548Y-2407071D02*
X621071Y-2426119D01*
X621071Y-2426119D02*
X630595Y-2464214D01*
X630595Y-2464214D02*
X630595Y-2511833D01*
X630595Y-2511833D02*
X621071Y-2549929D01*
X621071Y-2549929D02*
X611548Y-2568976D01*
X611548Y-2568976D02*
X602024Y-2578500D01*
X602024Y-2578500D02*
X582976Y-2588024D01*
X582976Y-2588024D02*
X563929Y-2588024D01*
X563929Y-2588024D02*
X544881Y-2578500D01*
X544881Y-2578500D02*
X535357Y-2568976D01*
X535357Y-2568976D02*
X525833Y-2549929D01*
X525833Y-2549929D02*
X516309Y-2511833D01*
X516309Y-2511833D02*
X516309Y-2464214D01*
X516309Y-2464214D02*
X525833Y-2426119D01*
X525833Y-2426119D02*
X535357Y-2407071D01*
X535357Y-2407071D02*
X544881Y-2397548D01*
X544881Y-2397548D02*
X563929Y-2388024D01*
X754405Y-2388024D02*
X773452Y-2388024D01*
X773452Y-2388024D02*
X792500Y-2397548D01*
X792500Y-2397548D02*
X802024Y-2407071D01*
X802024Y-2407071D02*
X811548Y-2426119D01*
X811548Y-2426119D02*
X821071Y-2464214D01*
X821071Y-2464214D02*
X821071Y-2511833D01*
X821071Y-2511833D02*
X811548Y-2549929D01*
X811548Y-2549929D02*
X802024Y-2568976D01*
X802024Y-2568976D02*
X792500Y-2578500D01*
X792500Y-2578500D02*
X773452Y-2588024D01*
X773452Y-2588024D02*
X754405Y-2588024D01*
X754405Y-2588024D02*
X735357Y-2578500D01*
X735357Y-2578500D02*
X725833Y-2568976D01*
X725833Y-2568976D02*
X716309Y-2549929D01*
X716309Y-2549929D02*
X706786Y-2511833D01*
X706786Y-2511833D02*
X706786Y-2464214D01*
X706786Y-2464214D02*
X716309Y-2426119D01*
X716309Y-2426119D02*
X725833Y-2407071D01*
X725833Y-2407071D02*
X735357Y-2397548D01*
X735357Y-2397548D02*
X754405Y-2388024D01*
X944881Y-2388024D02*
X963929Y-2388024D01*
X963929Y-2388024D02*
X982976Y-2397548D01*
X982976Y-2397548D02*
X992500Y-2407071D01*
X992500Y-2407071D02*
X1002024Y-2426119D01*
X1002024Y-2426119D02*
X1011548Y-2464214D01*
X1011548Y-2464214D02*
X1011548Y-2511833D01*
X1011548Y-2511833D02*
X1002024Y-2549929D01*
X1002024Y-2549929D02*
X992500Y-2568976D01*
X992500Y-2568976D02*
X982976Y-2578500D01*
X982976Y-2578500D02*
X963929Y-2588024D01*
X963929Y-2588024D02*
X944881Y-2588024D01*
X944881Y-2588024D02*
X925833Y-2578500D01*
X925833Y-2578500D02*
X916309Y-2568976D01*
X916309Y-2568976D02*
X906786Y-2549929D01*
X906786Y-2549929D02*
X897262Y-2511833D01*
X897262Y-2511833D02*
X897262Y-2464214D01*
X897262Y-2464214D02*
X906786Y-2426119D01*
X906786Y-2426119D02*
X916309Y-2407071D01*
X916309Y-2407071D02*
X925833Y-2397548D01*
X925833Y-2397548D02*
X944881Y-2388024D01*
X1097262Y-2588024D02*
X1097262Y-2454690D01*
X1097262Y-2473738D02*
X1106786Y-2464214D01*
X1106786Y-2464214D02*
X1125833Y-2454690D01*
X1125833Y-2454690D02*
X1154405Y-2454690D01*
X1154405Y-2454690D02*
X1173452Y-2464214D01*
X1173452Y-2464214D02*
X1182976Y-2483262D01*
X1182976Y-2483262D02*
X1182976Y-2588024D01*
X1182976Y-2483262D02*
X1192500Y-2464214D01*
X1192500Y-2464214D02*
X1211548Y-2454690D01*
X1211548Y-2454690D02*
X1240119Y-2454690D01*
X1240119Y-2454690D02*
X1259167Y-2464214D01*
X1259167Y-2464214D02*
X1268691Y-2483262D01*
X1268691Y-2483262D02*
X1268691Y-2588024D01*
X1363929Y-2588024D02*
X1363929Y-2454690D01*
X1363929Y-2473738D02*
X1373452Y-2464214D01*
X1373452Y-2464214D02*
X1392500Y-2454690D01*
X1392500Y-2454690D02*
X1421071Y-2454690D01*
X1421071Y-2454690D02*
X1440119Y-2464214D01*
X1440119Y-2464214D02*
X1449643Y-2483262D01*
X1449643Y-2483262D02*
X1449643Y-2588024D01*
X1449643Y-2483262D02*
X1459167Y-2464214D01*
X1459167Y-2464214D02*
X1478214Y-2454690D01*
X1478214Y-2454690D02*
X1506786Y-2454690D01*
X1506786Y-2454690D02*
X1525833Y-2464214D01*
X1525833Y-2464214D02*
X1535357Y-2483262D01*
X1535357Y-2483262D02*
X1535357Y-2588024D01*
X1925833Y-2378500D02*
X1754405Y-2635643D01*
X2182976Y-2388024D02*
X2202024Y-2388024D01*
X2202024Y-2388024D02*
X2221072Y-2397548D01*
X2221072Y-2397548D02*
X2230595Y-2407071D01*
X2230595Y-2407071D02*
X2240119Y-2426119D01*
X2240119Y-2426119D02*
X2249643Y-2464214D01*
X2249643Y-2464214D02*
X2249643Y-2511833D01*
X2249643Y-2511833D02*
X2240119Y-2549929D01*
X2240119Y-2549929D02*
X2230595Y-2568976D01*
X2230595Y-2568976D02*
X2221072Y-2578500D01*
X2221072Y-2578500D02*
X2202024Y-2588024D01*
X2202024Y-2588024D02*
X2182976Y-2588024D01*
X2182976Y-2588024D02*
X2163929Y-2578500D01*
X2163929Y-2578500D02*
X2154405Y-2568976D01*
X2154405Y-2568976D02*
X2144881Y-2549929D01*
X2144881Y-2549929D02*
X2135357Y-2511833D01*
X2135357Y-2511833D02*
X2135357Y-2464214D01*
X2135357Y-2464214D02*
X2144881Y-2426119D01*
X2144881Y-2426119D02*
X2154405Y-2407071D01*
X2154405Y-2407071D02*
X2163929Y-2397548D01*
X2163929Y-2397548D02*
X2182976Y-2388024D01*
X2335357Y-2568976D02*
X2344881Y-2578500D01*
X2344881Y-2578500D02*
X2335357Y-2588024D01*
X2335357Y-2588024D02*
X2325834Y-2578500D01*
X2325834Y-2578500D02*
X2335357Y-2568976D01*
X2335357Y-2568976D02*
X2335357Y-2588024D01*
X2468691Y-2388024D02*
X2487738Y-2388024D01*
X2487738Y-2388024D02*
X2506786Y-2397548D01*
X2506786Y-2397548D02*
X2516310Y-2407071D01*
X2516310Y-2407071D02*
X2525834Y-2426119D01*
X2525834Y-2426119D02*
X2535357Y-2464214D01*
X2535357Y-2464214D02*
X2535357Y-2511833D01*
X2535357Y-2511833D02*
X2525834Y-2549929D01*
X2525834Y-2549929D02*
X2516310Y-2568976D01*
X2516310Y-2568976D02*
X2506786Y-2578500D01*
X2506786Y-2578500D02*
X2487738Y-2588024D01*
X2487738Y-2588024D02*
X2468691Y-2588024D01*
X2468691Y-2588024D02*
X2449643Y-2578500D01*
X2449643Y-2578500D02*
X2440119Y-2568976D01*
X2440119Y-2568976D02*
X2430595Y-2549929D01*
X2430595Y-2549929D02*
X2421072Y-2511833D01*
X2421072Y-2511833D02*
X2421072Y-2464214D01*
X2421072Y-2464214D02*
X2430595Y-2426119D01*
X2430595Y-2426119D02*
X2440119Y-2407071D01*
X2440119Y-2407071D02*
X2449643Y-2397548D01*
X2449643Y-2397548D02*
X2468691Y-2388024D01*
X2602024Y-2388024D02*
X2725834Y-2388024D01*
X2725834Y-2388024D02*
X2659167Y-2464214D01*
X2659167Y-2464214D02*
X2687738Y-2464214D01*
X2687738Y-2464214D02*
X2706786Y-2473738D01*
X2706786Y-2473738D02*
X2716310Y-2483262D01*
X2716310Y-2483262D02*
X2725834Y-2502310D01*
X2725834Y-2502310D02*
X2725834Y-2549929D01*
X2725834Y-2549929D02*
X2716310Y-2568976D01*
X2716310Y-2568976D02*
X2706786Y-2578500D01*
X2706786Y-2578500D02*
X2687738Y-2588024D01*
X2687738Y-2588024D02*
X2630595Y-2588024D01*
X2630595Y-2588024D02*
X2611548Y-2578500D01*
X2611548Y-2578500D02*
X2602024Y-2568976D01*
X2821072Y-2588024D02*
X2859167Y-2588024D01*
X2859167Y-2588024D02*
X2878214Y-2578500D01*
X2878214Y-2578500D02*
X2887738Y-2568976D01*
X2887738Y-2568976D02*
X2906786Y-2540405D01*
X2906786Y-2540405D02*
X2916310Y-2502310D01*
X2916310Y-2502310D02*
X2916310Y-2426119D01*
X2916310Y-2426119D02*
X2906786Y-2407071D01*
X2906786Y-2407071D02*
X2897262Y-2397548D01*
X2897262Y-2397548D02*
X2878214Y-2388024D01*
X2878214Y-2388024D02*
X2840119Y-2388024D01*
X2840119Y-2388024D02*
X2821072Y-2397548D01*
X2821072Y-2397548D02*
X2811548Y-2407071D01*
X2811548Y-2407071D02*
X2802024Y-2426119D01*
X2802024Y-2426119D02*
X2802024Y-2473738D01*
X2802024Y-2473738D02*
X2811548Y-2492786D01*
X2811548Y-2492786D02*
X2821072Y-2502310D01*
X2821072Y-2502310D02*
X2840119Y-2511833D01*
X2840119Y-2511833D02*
X2878214Y-2511833D01*
X2878214Y-2511833D02*
X2897262Y-2502310D01*
X2897262Y-2502310D02*
X2906786Y-2492786D01*
X2906786Y-2492786D02*
X2916310Y-2473738D01*
X3087738Y-2454690D02*
X3087738Y-2588024D01*
X3040119Y-2378500D02*
X2992500Y-2521357D01*
X2992500Y-2521357D02*
X3116310Y-2521357D01*
X3182976Y-2388024D02*
X3182976Y-2426119D01*
X3259167Y-2388024D02*
X3259167Y-2426119D01*
X3554405Y-2664214D02*
X3544881Y-2654690D01*
X3544881Y-2654690D02*
X3525834Y-2626119D01*
X3525834Y-2626119D02*
X3516310Y-2607071D01*
X3516310Y-2607071D02*
X3506786Y-2578500D01*
X3506786Y-2578500D02*
X3497262Y-2530881D01*
X3497262Y-2530881D02*
X3497262Y-2492786D01*
X3497262Y-2492786D02*
X3506786Y-2445167D01*
X3506786Y-2445167D02*
X3516310Y-2416595D01*
X3516310Y-2416595D02*
X3525834Y-2397548D01*
X3525834Y-2397548D02*
X3544881Y-2368976D01*
X3544881Y-2368976D02*
X3554405Y-2359452D01*
X3716310Y-2388024D02*
X3678214Y-2388024D01*
X3678214Y-2388024D02*
X3659167Y-2397548D01*
X3659167Y-2397548D02*
X3649643Y-2407071D01*
X3649643Y-2407071D02*
X3630595Y-2435643D01*
X3630595Y-2435643D02*
X3621072Y-2473738D01*
X3621072Y-2473738D02*
X3621072Y-2549929D01*
X3621072Y-2549929D02*
X3630595Y-2568976D01*
X3630595Y-2568976D02*
X3640119Y-2578500D01*
X3640119Y-2578500D02*
X3659167Y-2588024D01*
X3659167Y-2588024D02*
X3697262Y-2588024D01*
X3697262Y-2588024D02*
X3716310Y-2578500D01*
X3716310Y-2578500D02*
X3725834Y-2568976D01*
X3725834Y-2568976D02*
X3735357Y-2549929D01*
X3735357Y-2549929D02*
X3735357Y-2502310D01*
X3735357Y-2502310D02*
X3725834Y-2483262D01*
X3725834Y-2483262D02*
X3716310Y-2473738D01*
X3716310Y-2473738D02*
X3697262Y-2464214D01*
X3697262Y-2464214D02*
X3659167Y-2464214D01*
X3659167Y-2464214D02*
X3640119Y-2473738D01*
X3640119Y-2473738D02*
X3630595Y-2483262D01*
X3630595Y-2483262D02*
X3621072Y-2502310D01*
X3811548Y-2407071D02*
X3821072Y-2397548D01*
X3821072Y-2397548D02*
X3840119Y-2388024D01*
X3840119Y-2388024D02*
X3887738Y-2388024D01*
X3887738Y-2388024D02*
X3906786Y-2397548D01*
X3906786Y-2397548D02*
X3916310Y-2407071D01*
X3916310Y-2407071D02*
X3925834Y-2426119D01*
X3925834Y-2426119D02*
X3925834Y-2445167D01*
X3925834Y-2445167D02*
X3916310Y-2473738D01*
X3916310Y-2473738D02*
X3802024Y-2588024D01*
X3802024Y-2588024D02*
X3925834Y-2588024D01*
X4163929Y-2588024D02*
X4163929Y-2388024D01*
X4249643Y-2588024D02*
X4249643Y-2483262D01*
X4249643Y-2483262D02*
X4240119Y-2464214D01*
X4240119Y-2464214D02*
X4221072Y-2454690D01*
X4221072Y-2454690D02*
X4192500Y-2454690D01*
X4192500Y-2454690D02*
X4173453Y-2464214D01*
X4173453Y-2464214D02*
X4163929Y-2473738D01*
X4373453Y-2588024D02*
X4354405Y-2578500D01*
X4354405Y-2578500D02*
X4344881Y-2568976D01*
X4344881Y-2568976D02*
X4335358Y-2549929D01*
X4335358Y-2549929D02*
X4335358Y-2492786D01*
X4335358Y-2492786D02*
X4344881Y-2473738D01*
X4344881Y-2473738D02*
X4354405Y-2464214D01*
X4354405Y-2464214D02*
X4373453Y-2454690D01*
X4373453Y-2454690D02*
X4402024Y-2454690D01*
X4402024Y-2454690D02*
X4421072Y-2464214D01*
X4421072Y-2464214D02*
X4430596Y-2473738D01*
X4430596Y-2473738D02*
X4440119Y-2492786D01*
X4440119Y-2492786D02*
X4440119Y-2549929D01*
X4440119Y-2549929D02*
X4430596Y-2568976D01*
X4430596Y-2568976D02*
X4421072Y-2578500D01*
X4421072Y-2578500D02*
X4402024Y-2588024D01*
X4402024Y-2588024D02*
X4373453Y-2588024D01*
X4554405Y-2588024D02*
X4535358Y-2578500D01*
X4535358Y-2578500D02*
X4525834Y-2559452D01*
X4525834Y-2559452D02*
X4525834Y-2388024D01*
X4706786Y-2578500D02*
X4687739Y-2588024D01*
X4687739Y-2588024D02*
X4649643Y-2588024D01*
X4649643Y-2588024D02*
X4630596Y-2578500D01*
X4630596Y-2578500D02*
X4621072Y-2559452D01*
X4621072Y-2559452D02*
X4621072Y-2483262D01*
X4621072Y-2483262D02*
X4630596Y-2464214D01*
X4630596Y-2464214D02*
X4649643Y-2454690D01*
X4649643Y-2454690D02*
X4687739Y-2454690D01*
X4687739Y-2454690D02*
X4706786Y-2464214D01*
X4706786Y-2464214D02*
X4716310Y-2483262D01*
X4716310Y-2483262D02*
X4716310Y-2502310D01*
X4716310Y-2502310D02*
X4621072Y-2521357D01*
X4792500Y-2578500D02*
X4811548Y-2588024D01*
X4811548Y-2588024D02*
X4849643Y-2588024D01*
X4849643Y-2588024D02*
X4868691Y-2578500D01*
X4868691Y-2578500D02*
X4878215Y-2559452D01*
X4878215Y-2559452D02*
X4878215Y-2549929D01*
X4878215Y-2549929D02*
X4868691Y-2530881D01*
X4868691Y-2530881D02*
X4849643Y-2521357D01*
X4849643Y-2521357D02*
X4821072Y-2521357D01*
X4821072Y-2521357D02*
X4802024Y-2511833D01*
X4802024Y-2511833D02*
X4792500Y-2492786D01*
X4792500Y-2492786D02*
X4792500Y-2483262D01*
X4792500Y-2483262D02*
X4802024Y-2464214D01*
X4802024Y-2464214D02*
X4821072Y-2454690D01*
X4821072Y-2454690D02*
X4849643Y-2454690D01*
X4849643Y-2454690D02*
X4868691Y-2464214D01*
X4944881Y-2664214D02*
X4954405Y-2654690D01*
X4954405Y-2654690D02*
X4973453Y-2626119D01*
X4973453Y-2626119D02*
X4982977Y-2607071D01*
X4982977Y-2607071D02*
X4992500Y-2578500D01*
X4992500Y-2578500D02*
X5002024Y-2530881D01*
X5002024Y-2530881D02*
X5002024Y-2492786D01*
X5002024Y-2492786D02*
X4992500Y-2445167D01*
X4992500Y-2445167D02*
X4982977Y-2416595D01*
X4982977Y-2416595D02*
X4973453Y-2397548D01*
X4973453Y-2397548D02*
X4954405Y-2368976D01*
X4954405Y-2368976D02*
X4944881Y-2359452D01*
D20*
X-121800Y-2702350D02*
X-7500Y-2816650D01*
X-7500Y-2702350D02*
X-121800Y-2816650D01*
X-64650Y-2816650D02*
X-7500Y-2759500D01*
X-64650Y-2702350D01*
X-121800Y-2759500D01*
X-64650Y-2816650D01*
D11*
X344881Y-2852024D02*
X230595Y-2852024D01*
X287738Y-2852024D02*
X287738Y-2652024D01*
X287738Y-2652024D02*
X268690Y-2680595D01*
X268690Y-2680595D02*
X249643Y-2699643D01*
X249643Y-2699643D02*
X230595Y-2709167D01*
X430595Y-2832976D02*
X440119Y-2842500D01*
X440119Y-2842500D02*
X430595Y-2852024D01*
X430595Y-2852024D02*
X421071Y-2842500D01*
X421071Y-2842500D02*
X430595Y-2832976D01*
X430595Y-2832976D02*
X430595Y-2852024D01*
X630595Y-2852024D02*
X516309Y-2852024D01*
X573452Y-2852024D02*
X573452Y-2652024D01*
X573452Y-2652024D02*
X554405Y-2680595D01*
X554405Y-2680595D02*
X535357Y-2699643D01*
X535357Y-2699643D02*
X516309Y-2709167D01*
X802024Y-2718690D02*
X802024Y-2852024D01*
X754405Y-2642500D02*
X706786Y-2785357D01*
X706786Y-2785357D02*
X830595Y-2785357D01*
X887738Y-2652024D02*
X1011548Y-2652024D01*
X1011548Y-2652024D02*
X944881Y-2728214D01*
X944881Y-2728214D02*
X973452Y-2728214D01*
X973452Y-2728214D02*
X992500Y-2737738D01*
X992500Y-2737738D02*
X1002024Y-2747262D01*
X1002024Y-2747262D02*
X1011548Y-2766310D01*
X1011548Y-2766310D02*
X1011548Y-2813928D01*
X1011548Y-2813928D02*
X1002024Y-2832976D01*
X1002024Y-2832976D02*
X992500Y-2842500D01*
X992500Y-2842500D02*
X973452Y-2852024D01*
X973452Y-2852024D02*
X916309Y-2852024D01*
X916309Y-2852024D02*
X897262Y-2842500D01*
X897262Y-2842500D02*
X887738Y-2832976D01*
X1097262Y-2852024D02*
X1097262Y-2718690D01*
X1097262Y-2737738D02*
X1106786Y-2728214D01*
X1106786Y-2728214D02*
X1125833Y-2718690D01*
X1125833Y-2718690D02*
X1154405Y-2718690D01*
X1154405Y-2718690D02*
X1173452Y-2728214D01*
X1173452Y-2728214D02*
X1182976Y-2747262D01*
X1182976Y-2747262D02*
X1182976Y-2852024D01*
X1182976Y-2747262D02*
X1192500Y-2728214D01*
X1192500Y-2728214D02*
X1211548Y-2718690D01*
X1211548Y-2718690D02*
X1240119Y-2718690D01*
X1240119Y-2718690D02*
X1259167Y-2728214D01*
X1259167Y-2728214D02*
X1268691Y-2747262D01*
X1268691Y-2747262D02*
X1268691Y-2852024D01*
X1363929Y-2852024D02*
X1363929Y-2718690D01*
X1363929Y-2737738D02*
X1373452Y-2728214D01*
X1373452Y-2728214D02*
X1392500Y-2718690D01*
X1392500Y-2718690D02*
X1421071Y-2718690D01*
X1421071Y-2718690D02*
X1440119Y-2728214D01*
X1440119Y-2728214D02*
X1449643Y-2747262D01*
X1449643Y-2747262D02*
X1449643Y-2852024D01*
X1449643Y-2747262D02*
X1459167Y-2728214D01*
X1459167Y-2728214D02*
X1478214Y-2718690D01*
X1478214Y-2718690D02*
X1506786Y-2718690D01*
X1506786Y-2718690D02*
X1525833Y-2728214D01*
X1525833Y-2728214D02*
X1535357Y-2747262D01*
X1535357Y-2747262D02*
X1535357Y-2852024D01*
X1925833Y-2642500D02*
X1754405Y-2899643D01*
X2182976Y-2652024D02*
X2202024Y-2652024D01*
X2202024Y-2652024D02*
X2221072Y-2661548D01*
X2221072Y-2661548D02*
X2230595Y-2671071D01*
X2230595Y-2671071D02*
X2240119Y-2690119D01*
X2240119Y-2690119D02*
X2249643Y-2728214D01*
X2249643Y-2728214D02*
X2249643Y-2775833D01*
X2249643Y-2775833D02*
X2240119Y-2813928D01*
X2240119Y-2813928D02*
X2230595Y-2832976D01*
X2230595Y-2832976D02*
X2221072Y-2842500D01*
X2221072Y-2842500D02*
X2202024Y-2852024D01*
X2202024Y-2852024D02*
X2182976Y-2852024D01*
X2182976Y-2852024D02*
X2163929Y-2842500D01*
X2163929Y-2842500D02*
X2154405Y-2832976D01*
X2154405Y-2832976D02*
X2144881Y-2813928D01*
X2144881Y-2813928D02*
X2135357Y-2775833D01*
X2135357Y-2775833D02*
X2135357Y-2728214D01*
X2135357Y-2728214D02*
X2144881Y-2690119D01*
X2144881Y-2690119D02*
X2154405Y-2671071D01*
X2154405Y-2671071D02*
X2163929Y-2661548D01*
X2163929Y-2661548D02*
X2182976Y-2652024D01*
X2335357Y-2832976D02*
X2344881Y-2842500D01*
X2344881Y-2842500D02*
X2335357Y-2852024D01*
X2335357Y-2852024D02*
X2325834Y-2842500D01*
X2325834Y-2842500D02*
X2335357Y-2832976D01*
X2335357Y-2832976D02*
X2335357Y-2852024D01*
X2468691Y-2652024D02*
X2487738Y-2652024D01*
X2487738Y-2652024D02*
X2506786Y-2661548D01*
X2506786Y-2661548D02*
X2516310Y-2671071D01*
X2516310Y-2671071D02*
X2525834Y-2690119D01*
X2525834Y-2690119D02*
X2535357Y-2728214D01*
X2535357Y-2728214D02*
X2535357Y-2775833D01*
X2535357Y-2775833D02*
X2525834Y-2813928D01*
X2525834Y-2813928D02*
X2516310Y-2832976D01*
X2516310Y-2832976D02*
X2506786Y-2842500D01*
X2506786Y-2842500D02*
X2487738Y-2852024D01*
X2487738Y-2852024D02*
X2468691Y-2852024D01*
X2468691Y-2852024D02*
X2449643Y-2842500D01*
X2449643Y-2842500D02*
X2440119Y-2832976D01*
X2440119Y-2832976D02*
X2430595Y-2813928D01*
X2430595Y-2813928D02*
X2421072Y-2775833D01*
X2421072Y-2775833D02*
X2421072Y-2728214D01*
X2421072Y-2728214D02*
X2430595Y-2690119D01*
X2430595Y-2690119D02*
X2440119Y-2671071D01*
X2440119Y-2671071D02*
X2449643Y-2661548D01*
X2449643Y-2661548D02*
X2468691Y-2652024D01*
X2706786Y-2718690D02*
X2706786Y-2852024D01*
X2659167Y-2642500D02*
X2611548Y-2785357D01*
X2611548Y-2785357D02*
X2735357Y-2785357D01*
X2906786Y-2652024D02*
X2811548Y-2652024D01*
X2811548Y-2652024D02*
X2802024Y-2747262D01*
X2802024Y-2747262D02*
X2811548Y-2737738D01*
X2811548Y-2737738D02*
X2830595Y-2728214D01*
X2830595Y-2728214D02*
X2878214Y-2728214D01*
X2878214Y-2728214D02*
X2897262Y-2737738D01*
X2897262Y-2737738D02*
X2906786Y-2747262D01*
X2906786Y-2747262D02*
X2916310Y-2766310D01*
X2916310Y-2766310D02*
X2916310Y-2813928D01*
X2916310Y-2813928D02*
X2906786Y-2832976D01*
X2906786Y-2832976D02*
X2897262Y-2842500D01*
X2897262Y-2842500D02*
X2878214Y-2852024D01*
X2878214Y-2852024D02*
X2830595Y-2852024D01*
X2830595Y-2852024D02*
X2811548Y-2842500D01*
X2811548Y-2842500D02*
X2802024Y-2832976D01*
X3040119Y-2652024D02*
X3059167Y-2652024D01*
X3059167Y-2652024D02*
X3078214Y-2661548D01*
X3078214Y-2661548D02*
X3087738Y-2671071D01*
X3087738Y-2671071D02*
X3097262Y-2690119D01*
X3097262Y-2690119D02*
X3106786Y-2728214D01*
X3106786Y-2728214D02*
X3106786Y-2775833D01*
X3106786Y-2775833D02*
X3097262Y-2813928D01*
X3097262Y-2813928D02*
X3087738Y-2832976D01*
X3087738Y-2832976D02*
X3078214Y-2842500D01*
X3078214Y-2842500D02*
X3059167Y-2852024D01*
X3059167Y-2852024D02*
X3040119Y-2852024D01*
X3040119Y-2852024D02*
X3021072Y-2842500D01*
X3021072Y-2842500D02*
X3011548Y-2832976D01*
X3011548Y-2832976D02*
X3002024Y-2813928D01*
X3002024Y-2813928D02*
X2992500Y-2775833D01*
X2992500Y-2775833D02*
X2992500Y-2728214D01*
X2992500Y-2728214D02*
X3002024Y-2690119D01*
X3002024Y-2690119D02*
X3011548Y-2671071D01*
X3011548Y-2671071D02*
X3021072Y-2661548D01*
X3021072Y-2661548D02*
X3040119Y-2652024D01*
X3182976Y-2652024D02*
X3182976Y-2690119D01*
X3259167Y-2652024D02*
X3259167Y-2690119D01*
X3554405Y-2928214D02*
X3544881Y-2918690D01*
X3544881Y-2918690D02*
X3525834Y-2890119D01*
X3525834Y-2890119D02*
X3516310Y-2871071D01*
X3516310Y-2871071D02*
X3506786Y-2842500D01*
X3506786Y-2842500D02*
X3497262Y-2794881D01*
X3497262Y-2794881D02*
X3497262Y-2756786D01*
X3497262Y-2756786D02*
X3506786Y-2709167D01*
X3506786Y-2709167D02*
X3516310Y-2680595D01*
X3516310Y-2680595D02*
X3525834Y-2661548D01*
X3525834Y-2661548D02*
X3544881Y-2632976D01*
X3544881Y-2632976D02*
X3554405Y-2623452D01*
X3621072Y-2671071D02*
X3630595Y-2661548D01*
X3630595Y-2661548D02*
X3649643Y-2652024D01*
X3649643Y-2652024D02*
X3697262Y-2652024D01*
X3697262Y-2652024D02*
X3716310Y-2661548D01*
X3716310Y-2661548D02*
X3725834Y-2671071D01*
X3725834Y-2671071D02*
X3735357Y-2690119D01*
X3735357Y-2690119D02*
X3735357Y-2709167D01*
X3735357Y-2709167D02*
X3725834Y-2737738D01*
X3725834Y-2737738D02*
X3611548Y-2852024D01*
X3611548Y-2852024D02*
X3735357Y-2852024D01*
X3906786Y-2718690D02*
X3906786Y-2852024D01*
X3859167Y-2642500D02*
X3811548Y-2785357D01*
X3811548Y-2785357D02*
X3935357Y-2785357D01*
X4163929Y-2852024D02*
X4163929Y-2652024D01*
X4249643Y-2852024D02*
X4249643Y-2747262D01*
X4249643Y-2747262D02*
X4240119Y-2728214D01*
X4240119Y-2728214D02*
X4221072Y-2718690D01*
X4221072Y-2718690D02*
X4192500Y-2718690D01*
X4192500Y-2718690D02*
X4173453Y-2728214D01*
X4173453Y-2728214D02*
X4163929Y-2737738D01*
X4373453Y-2852024D02*
X4354405Y-2842500D01*
X4354405Y-2842500D02*
X4344881Y-2832976D01*
X4344881Y-2832976D02*
X4335358Y-2813928D01*
X4335358Y-2813928D02*
X4335358Y-2756786D01*
X4335358Y-2756786D02*
X4344881Y-2737738D01*
X4344881Y-2737738D02*
X4354405Y-2728214D01*
X4354405Y-2728214D02*
X4373453Y-2718690D01*
X4373453Y-2718690D02*
X4402024Y-2718690D01*
X4402024Y-2718690D02*
X4421072Y-2728214D01*
X4421072Y-2728214D02*
X4430596Y-2737738D01*
X4430596Y-2737738D02*
X4440119Y-2756786D01*
X4440119Y-2756786D02*
X4440119Y-2813928D01*
X4440119Y-2813928D02*
X4430596Y-2832976D01*
X4430596Y-2832976D02*
X4421072Y-2842500D01*
X4421072Y-2842500D02*
X4402024Y-2852024D01*
X4402024Y-2852024D02*
X4373453Y-2852024D01*
X4554405Y-2852024D02*
X4535358Y-2842500D01*
X4535358Y-2842500D02*
X4525834Y-2823452D01*
X4525834Y-2823452D02*
X4525834Y-2652024D01*
X4706786Y-2842500D02*
X4687739Y-2852024D01*
X4687739Y-2852024D02*
X4649643Y-2852024D01*
X4649643Y-2852024D02*
X4630596Y-2842500D01*
X4630596Y-2842500D02*
X4621072Y-2823452D01*
X4621072Y-2823452D02*
X4621072Y-2747262D01*
X4621072Y-2747262D02*
X4630596Y-2728214D01*
X4630596Y-2728214D02*
X4649643Y-2718690D01*
X4649643Y-2718690D02*
X4687739Y-2718690D01*
X4687739Y-2718690D02*
X4706786Y-2728214D01*
X4706786Y-2728214D02*
X4716310Y-2747262D01*
X4716310Y-2747262D02*
X4716310Y-2766310D01*
X4716310Y-2766310D02*
X4621072Y-2785357D01*
X4792500Y-2842500D02*
X4811548Y-2852024D01*
X4811548Y-2852024D02*
X4849643Y-2852024D01*
X4849643Y-2852024D02*
X4868691Y-2842500D01*
X4868691Y-2842500D02*
X4878215Y-2823452D01*
X4878215Y-2823452D02*
X4878215Y-2813928D01*
X4878215Y-2813928D02*
X4868691Y-2794881D01*
X4868691Y-2794881D02*
X4849643Y-2785357D01*
X4849643Y-2785357D02*
X4821072Y-2785357D01*
X4821072Y-2785357D02*
X4802024Y-2775833D01*
X4802024Y-2775833D02*
X4792500Y-2756786D01*
X4792500Y-2756786D02*
X4792500Y-2747262D01*
X4792500Y-2747262D02*
X4802024Y-2728214D01*
X4802024Y-2728214D02*
X4821072Y-2718690D01*
X4821072Y-2718690D02*
X4849643Y-2718690D01*
X4849643Y-2718690D02*
X4868691Y-2728214D01*
X4944881Y-2928214D02*
X4954405Y-2918690D01*
X4954405Y-2918690D02*
X4973453Y-2890119D01*
X4973453Y-2890119D02*
X4982977Y-2871071D01*
X4982977Y-2871071D02*
X4992500Y-2842500D01*
X4992500Y-2842500D02*
X5002024Y-2794881D01*
X5002024Y-2794881D02*
X5002024Y-2756786D01*
X5002024Y-2756786D02*
X4992500Y-2709167D01*
X4992500Y-2709167D02*
X4982977Y-2680595D01*
X4982977Y-2680595D02*
X4973453Y-2661548D01*
X4973453Y-2661548D02*
X4954405Y-2632976D01*
X4954405Y-2632976D02*
X4944881Y-2623452D01*
D21*
X-67500Y-2963500D02*
X-67500Y-3083500D01*
X-127500Y-3023500D02*
X-7500Y-3023500D01*
X-7500Y-3023500D02*
G75*
G03*
X-7500Y-3023500I-60000J0D01*
G01*
D11*
X344881Y-3116024D02*
X230595Y-3116024D01*
X287738Y-3116024D02*
X287738Y-2916024D01*
X287738Y-2916024D02*
X268690Y-2944595D01*
X268690Y-2944595D02*
X249643Y-2963643D01*
X249643Y-2963643D02*
X230595Y-2973167D01*
X430595Y-3096976D02*
X440119Y-3106500D01*
X440119Y-3106500D02*
X430595Y-3116024D01*
X430595Y-3116024D02*
X421071Y-3106500D01*
X421071Y-3106500D02*
X430595Y-3096976D01*
X430595Y-3096976D02*
X430595Y-3116024D01*
X516309Y-2935071D02*
X525833Y-2925548D01*
X525833Y-2925548D02*
X544881Y-2916024D01*
X544881Y-2916024D02*
X592500Y-2916024D01*
X592500Y-2916024D02*
X611548Y-2925548D01*
X611548Y-2925548D02*
X621071Y-2935071D01*
X621071Y-2935071D02*
X630595Y-2954119D01*
X630595Y-2954119D02*
X630595Y-2973167D01*
X630595Y-2973167D02*
X621071Y-3001738D01*
X621071Y-3001738D02*
X506786Y-3116024D01*
X506786Y-3116024D02*
X630595Y-3116024D01*
X754405Y-2916024D02*
X773452Y-2916024D01*
X773452Y-2916024D02*
X792500Y-2925548D01*
X792500Y-2925548D02*
X802024Y-2935071D01*
X802024Y-2935071D02*
X811548Y-2954119D01*
X811548Y-2954119D02*
X821071Y-2992214D01*
X821071Y-2992214D02*
X821071Y-3039833D01*
X821071Y-3039833D02*
X811548Y-3077928D01*
X811548Y-3077928D02*
X802024Y-3096976D01*
X802024Y-3096976D02*
X792500Y-3106500D01*
X792500Y-3106500D02*
X773452Y-3116024D01*
X773452Y-3116024D02*
X754405Y-3116024D01*
X754405Y-3116024D02*
X735357Y-3106500D01*
X735357Y-3106500D02*
X725833Y-3096976D01*
X725833Y-3096976D02*
X716309Y-3077928D01*
X716309Y-3077928D02*
X706786Y-3039833D01*
X706786Y-3039833D02*
X706786Y-2992214D01*
X706786Y-2992214D02*
X716309Y-2954119D01*
X716309Y-2954119D02*
X725833Y-2935071D01*
X725833Y-2935071D02*
X735357Y-2925548D01*
X735357Y-2925548D02*
X754405Y-2916024D01*
X944881Y-2916024D02*
X963929Y-2916024D01*
X963929Y-2916024D02*
X982976Y-2925548D01*
X982976Y-2925548D02*
X992500Y-2935071D01*
X992500Y-2935071D02*
X1002024Y-2954119D01*
X1002024Y-2954119D02*
X1011548Y-2992214D01*
X1011548Y-2992214D02*
X1011548Y-3039833D01*
X1011548Y-3039833D02*
X1002024Y-3077928D01*
X1002024Y-3077928D02*
X992500Y-3096976D01*
X992500Y-3096976D02*
X982976Y-3106500D01*
X982976Y-3106500D02*
X963929Y-3116024D01*
X963929Y-3116024D02*
X944881Y-3116024D01*
X944881Y-3116024D02*
X925833Y-3106500D01*
X925833Y-3106500D02*
X916309Y-3096976D01*
X916309Y-3096976D02*
X906786Y-3077928D01*
X906786Y-3077928D02*
X897262Y-3039833D01*
X897262Y-3039833D02*
X897262Y-2992214D01*
X897262Y-2992214D02*
X906786Y-2954119D01*
X906786Y-2954119D02*
X916309Y-2935071D01*
X916309Y-2935071D02*
X925833Y-2925548D01*
X925833Y-2925548D02*
X944881Y-2916024D01*
X1097262Y-3116024D02*
X1097262Y-2982690D01*
X1097262Y-3001738D02*
X1106786Y-2992214D01*
X1106786Y-2992214D02*
X1125833Y-2982690D01*
X1125833Y-2982690D02*
X1154405Y-2982690D01*
X1154405Y-2982690D02*
X1173452Y-2992214D01*
X1173452Y-2992214D02*
X1182976Y-3011262D01*
X1182976Y-3011262D02*
X1182976Y-3116024D01*
X1182976Y-3011262D02*
X1192500Y-2992214D01*
X1192500Y-2992214D02*
X1211548Y-2982690D01*
X1211548Y-2982690D02*
X1240119Y-2982690D01*
X1240119Y-2982690D02*
X1259167Y-2992214D01*
X1259167Y-2992214D02*
X1268691Y-3011262D01*
X1268691Y-3011262D02*
X1268691Y-3116024D01*
X1363929Y-3116024D02*
X1363929Y-2982690D01*
X1363929Y-3001738D02*
X1373452Y-2992214D01*
X1373452Y-2992214D02*
X1392500Y-2982690D01*
X1392500Y-2982690D02*
X1421071Y-2982690D01*
X1421071Y-2982690D02*
X1440119Y-2992214D01*
X1440119Y-2992214D02*
X1449643Y-3011262D01*
X1449643Y-3011262D02*
X1449643Y-3116024D01*
X1449643Y-3011262D02*
X1459167Y-2992214D01*
X1459167Y-2992214D02*
X1478214Y-2982690D01*
X1478214Y-2982690D02*
X1506786Y-2982690D01*
X1506786Y-2982690D02*
X1525833Y-2992214D01*
X1525833Y-2992214D02*
X1535357Y-3011262D01*
X1535357Y-3011262D02*
X1535357Y-3116024D01*
X1925833Y-2906500D02*
X1754405Y-3163643D01*
X2182976Y-2916024D02*
X2202024Y-2916024D01*
X2202024Y-2916024D02*
X2221072Y-2925548D01*
X2221072Y-2925548D02*
X2230595Y-2935071D01*
X2230595Y-2935071D02*
X2240119Y-2954119D01*
X2240119Y-2954119D02*
X2249643Y-2992214D01*
X2249643Y-2992214D02*
X2249643Y-3039833D01*
X2249643Y-3039833D02*
X2240119Y-3077928D01*
X2240119Y-3077928D02*
X2230595Y-3096976D01*
X2230595Y-3096976D02*
X2221072Y-3106500D01*
X2221072Y-3106500D02*
X2202024Y-3116024D01*
X2202024Y-3116024D02*
X2182976Y-3116024D01*
X2182976Y-3116024D02*
X2163929Y-3106500D01*
X2163929Y-3106500D02*
X2154405Y-3096976D01*
X2154405Y-3096976D02*
X2144881Y-3077928D01*
X2144881Y-3077928D02*
X2135357Y-3039833D01*
X2135357Y-3039833D02*
X2135357Y-2992214D01*
X2135357Y-2992214D02*
X2144881Y-2954119D01*
X2144881Y-2954119D02*
X2154405Y-2935071D01*
X2154405Y-2935071D02*
X2163929Y-2925548D01*
X2163929Y-2925548D02*
X2182976Y-2916024D01*
X2335357Y-3096976D02*
X2344881Y-3106500D01*
X2344881Y-3106500D02*
X2335357Y-3116024D01*
X2335357Y-3116024D02*
X2325834Y-3106500D01*
X2325834Y-3106500D02*
X2335357Y-3096976D01*
X2335357Y-3096976D02*
X2335357Y-3116024D01*
X2468691Y-2916024D02*
X2487738Y-2916024D01*
X2487738Y-2916024D02*
X2506786Y-2925548D01*
X2506786Y-2925548D02*
X2516310Y-2935071D01*
X2516310Y-2935071D02*
X2525834Y-2954119D01*
X2525834Y-2954119D02*
X2535357Y-2992214D01*
X2535357Y-2992214D02*
X2535357Y-3039833D01*
X2535357Y-3039833D02*
X2525834Y-3077928D01*
X2525834Y-3077928D02*
X2516310Y-3096976D01*
X2516310Y-3096976D02*
X2506786Y-3106500D01*
X2506786Y-3106500D02*
X2487738Y-3116024D01*
X2487738Y-3116024D02*
X2468691Y-3116024D01*
X2468691Y-3116024D02*
X2449643Y-3106500D01*
X2449643Y-3106500D02*
X2440119Y-3096976D01*
X2440119Y-3096976D02*
X2430595Y-3077928D01*
X2430595Y-3077928D02*
X2421072Y-3039833D01*
X2421072Y-3039833D02*
X2421072Y-2992214D01*
X2421072Y-2992214D02*
X2430595Y-2954119D01*
X2430595Y-2954119D02*
X2440119Y-2935071D01*
X2440119Y-2935071D02*
X2449643Y-2925548D01*
X2449643Y-2925548D02*
X2468691Y-2916024D01*
X2706786Y-2982690D02*
X2706786Y-3116024D01*
X2659167Y-2906500D02*
X2611548Y-3049357D01*
X2611548Y-3049357D02*
X2735357Y-3049357D01*
X2792500Y-2916024D02*
X2925833Y-2916024D01*
X2925833Y-2916024D02*
X2840119Y-3116024D01*
X2992500Y-2935071D02*
X3002024Y-2925548D01*
X3002024Y-2925548D02*
X3021072Y-2916024D01*
X3021072Y-2916024D02*
X3068691Y-2916024D01*
X3068691Y-2916024D02*
X3087738Y-2925548D01*
X3087738Y-2925548D02*
X3097262Y-2935071D01*
X3097262Y-2935071D02*
X3106786Y-2954119D01*
X3106786Y-2954119D02*
X3106786Y-2973167D01*
X3106786Y-2973167D02*
X3097262Y-3001738D01*
X3097262Y-3001738D02*
X2982976Y-3116024D01*
X2982976Y-3116024D02*
X3106786Y-3116024D01*
X3182976Y-2916024D02*
X3182976Y-2954119D01*
X3259167Y-2916024D02*
X3259167Y-2954119D01*
X3554405Y-3192214D02*
X3544881Y-3182690D01*
X3544881Y-3182690D02*
X3525834Y-3154119D01*
X3525834Y-3154119D02*
X3516310Y-3135071D01*
X3516310Y-3135071D02*
X3506786Y-3106500D01*
X3506786Y-3106500D02*
X3497262Y-3058881D01*
X3497262Y-3058881D02*
X3497262Y-3020786D01*
X3497262Y-3020786D02*
X3506786Y-2973167D01*
X3506786Y-2973167D02*
X3516310Y-2944595D01*
X3516310Y-2944595D02*
X3525834Y-2925548D01*
X3525834Y-2925548D02*
X3544881Y-2896976D01*
X3544881Y-2896976D02*
X3554405Y-2887452D01*
X3735357Y-3116024D02*
X3621072Y-3116024D01*
X3678214Y-3116024D02*
X3678214Y-2916024D01*
X3678214Y-2916024D02*
X3659167Y-2944595D01*
X3659167Y-2944595D02*
X3640119Y-2963643D01*
X3640119Y-2963643D02*
X3621072Y-2973167D01*
X3811548Y-2935071D02*
X3821072Y-2925548D01*
X3821072Y-2925548D02*
X3840119Y-2916024D01*
X3840119Y-2916024D02*
X3887738Y-2916024D01*
X3887738Y-2916024D02*
X3906786Y-2925548D01*
X3906786Y-2925548D02*
X3916310Y-2935071D01*
X3916310Y-2935071D02*
X3925834Y-2954119D01*
X3925834Y-2954119D02*
X3925834Y-2973167D01*
X3925834Y-2973167D02*
X3916310Y-3001738D01*
X3916310Y-3001738D02*
X3802024Y-3116024D01*
X3802024Y-3116024D02*
X3925834Y-3116024D01*
X4163929Y-3116024D02*
X4163929Y-2916024D01*
X4249643Y-3116024D02*
X4249643Y-3011262D01*
X4249643Y-3011262D02*
X4240119Y-2992214D01*
X4240119Y-2992214D02*
X4221072Y-2982690D01*
X4221072Y-2982690D02*
X4192500Y-2982690D01*
X4192500Y-2982690D02*
X4173453Y-2992214D01*
X4173453Y-2992214D02*
X4163929Y-3001738D01*
X4373453Y-3116024D02*
X4354405Y-3106500D01*
X4354405Y-3106500D02*
X4344881Y-3096976D01*
X4344881Y-3096976D02*
X4335358Y-3077928D01*
X4335358Y-3077928D02*
X4335358Y-3020786D01*
X4335358Y-3020786D02*
X4344881Y-3001738D01*
X4344881Y-3001738D02*
X4354405Y-2992214D01*
X4354405Y-2992214D02*
X4373453Y-2982690D01*
X4373453Y-2982690D02*
X4402024Y-2982690D01*
X4402024Y-2982690D02*
X4421072Y-2992214D01*
X4421072Y-2992214D02*
X4430596Y-3001738D01*
X4430596Y-3001738D02*
X4440119Y-3020786D01*
X4440119Y-3020786D02*
X4440119Y-3077928D01*
X4440119Y-3077928D02*
X4430596Y-3096976D01*
X4430596Y-3096976D02*
X4421072Y-3106500D01*
X4421072Y-3106500D02*
X4402024Y-3116024D01*
X4402024Y-3116024D02*
X4373453Y-3116024D01*
X4554405Y-3116024D02*
X4535358Y-3106500D01*
X4535358Y-3106500D02*
X4525834Y-3087452D01*
X4525834Y-3087452D02*
X4525834Y-2916024D01*
X4706786Y-3106500D02*
X4687739Y-3116024D01*
X4687739Y-3116024D02*
X4649643Y-3116024D01*
X4649643Y-3116024D02*
X4630596Y-3106500D01*
X4630596Y-3106500D02*
X4621072Y-3087452D01*
X4621072Y-3087452D02*
X4621072Y-3011262D01*
X4621072Y-3011262D02*
X4630596Y-2992214D01*
X4630596Y-2992214D02*
X4649643Y-2982690D01*
X4649643Y-2982690D02*
X4687739Y-2982690D01*
X4687739Y-2982690D02*
X4706786Y-2992214D01*
X4706786Y-2992214D02*
X4716310Y-3011262D01*
X4716310Y-3011262D02*
X4716310Y-3030309D01*
X4716310Y-3030309D02*
X4621072Y-3049357D01*
X4792500Y-3106500D02*
X4811548Y-3116024D01*
X4811548Y-3116024D02*
X4849643Y-3116024D01*
X4849643Y-3116024D02*
X4868691Y-3106500D01*
X4868691Y-3106500D02*
X4878215Y-3087452D01*
X4878215Y-3087452D02*
X4878215Y-3077928D01*
X4878215Y-3077928D02*
X4868691Y-3058881D01*
X4868691Y-3058881D02*
X4849643Y-3049357D01*
X4849643Y-3049357D02*
X4821072Y-3049357D01*
X4821072Y-3049357D02*
X4802024Y-3039833D01*
X4802024Y-3039833D02*
X4792500Y-3020786D01*
X4792500Y-3020786D02*
X4792500Y-3011262D01*
X4792500Y-3011262D02*
X4802024Y-2992214D01*
X4802024Y-2992214D02*
X4821072Y-2982690D01*
X4821072Y-2982690D02*
X4849643Y-2982690D01*
X4849643Y-2982690D02*
X4868691Y-2992214D01*
X4944881Y-3192214D02*
X4954405Y-3182690D01*
X4954405Y-3182690D02*
X4973453Y-3154119D01*
X4973453Y-3154119D02*
X4982977Y-3135071D01*
X4982977Y-3135071D02*
X4992500Y-3106500D01*
X4992500Y-3106500D02*
X5002024Y-3058881D01*
X5002024Y-3058881D02*
X5002024Y-3020786D01*
X5002024Y-3020786D02*
X4992500Y-2973167D01*
X4992500Y-2973167D02*
X4982977Y-2944595D01*
X4982977Y-2944595D02*
X4973453Y-2925548D01*
X4973453Y-2925548D02*
X4954405Y-2896976D01*
X4954405Y-2896976D02*
X4944881Y-2887452D01*
M02*
