M48
; DRILL file {KiCad 7.0.1-0} date 2023 April 05, Wednesday 16:45:23
; FORMAT={-:-/ absolute / metric / decimal}
; #@! TF.CreationDate,2023-04-05T16:45:23-07:00
; #@! TF.GenerationSoftware,Kicad,Pcbnew,7.0.1-0
; #@! TF.FileFunction,MixedPlating,1,2
FMAT,2
METRIC
; #@! TA.AperFunction,Plated,PTH,ViaDrill
T1C0.400
; #@! TA.AperFunction,Plated,PTH,ComponentDrill
T2C0.686
; #@! TA.AperFunction,Plated,PTH,ComponentDrill
T3C0.700
; #@! TA.AperFunction,Plated,PTH,ComponentDrill
T4C0.800
; #@! TA.AperFunction,Plated,PTH,ComponentDrill
T5C0.813
; #@! TA.AperFunction,Plated,PTH,ComponentDrill
T6C0.889
; #@! TA.AperFunction,Plated,PTH,ComponentDrill
T7C0.914
; #@! TA.AperFunction,Plated,PTH,ComponentDrill
T8C1.000
; #@! TA.AperFunction,Plated,PTH,ComponentDrill
T9C1.143
; #@! TA.AperFunction,Plated,PTH,ComponentDrill
T10C1.200
%
G90
G05
T1
X12.989Y18.044
X15.849Y46.014
X16.289Y18.293
X17.335Y59.19
X20.189Y93.604
X20.249Y9.164
X21.279Y102.594
X22.189Y45.144
X22.689Y55.244
X22.989Y36.744
X24.389Y45.944
X24.489Y49.644
X28.296Y47.219
X28.509Y76.734
X28.973Y49.166
X31.519Y77.974
X34.032Y81.277
X36.189Y24.344
X37.279Y82.634
X37.359Y62.964
X39.032Y81.011
X39.089Y24.344
X40.399Y23.534
X41.789Y50.744
X41.789Y41.044
X42.539Y42.244
X44.289Y45.044
X45.409Y51.884
X47.229Y91.424
X47.283Y87.255
X47.953Y89.819
X48.046Y83.641
X48.122Y39.801
X49.439Y95.219
X52.164Y85.154
X52.839Y96.454
X55.789Y49.944
X55.964Y67.044
X56.189Y21.144
X56.89Y73.044
X57.489Y64.844
X57.814Y53.069
X59.314Y93.744
X59.664Y90.919
X60.389Y83.369
X60.429Y52.944
X61.189Y53.793
X61.889Y27.044
X62.169Y74.044
X63.609Y55.764
X63.687Y37.481
X63.889Y52.244
X64.389Y35.144
X64.589Y30.444
X66.879Y53.736
X69.149Y54.154
X69.672Y37.287
X69.951Y41.782
T2
X40.619Y83.504
X40.619Y81.304
X40.619Y76.904
X41.719Y84.604
X41.719Y82.404
X41.719Y80.204
X41.719Y78.004
T3
X40.619Y79.104
T4
X1.804Y48.764
X2.489Y60.916
X2.489Y58.325
X5.989Y62.954
X5.989Y55.334
X6.884Y48.764
X8.078Y52.134
X8.529Y62.954
X8.529Y55.334
X10.389Y104.837
X10.389Y99.037
X10.669Y52.134
X11.069Y62.954
X11.069Y55.334
X12.189Y104.837
X12.189Y99.037
X13.609Y62.954
X13.609Y55.334
X17.119Y10.944
X17.139Y16.444
X19.639Y16.444
X19.71Y10.944
X20.017Y71.344
X20.57Y42.744
X22.608Y71.344
X23.089Y98.135
X23.089Y95.544
X23.161Y42.744
X26.479Y15.344
X34.099Y15.344
X35.017Y93.744
X37.608Y93.744
X38.089Y102.562
X38.089Y96.762
X39.889Y102.562
X39.889Y96.762
X45.379Y16.044
X46.724Y104.026
X47.189Y98.219
X49.264Y104.026
X49.689Y98.219
X51.804Y104.026
X52.999Y16.044
X55.717Y41.744
X57.264Y100.819
X58.308Y41.744
X58.389Y73.063
X58.389Y70.472
X59.764Y100.819
X60.017Y11.644
X60.189Y17.244
X60.789Y57.254
X60.789Y49.634
X60.889Y63.463
X60.889Y60.872
X62.608Y11.644
X62.689Y17.244
X63.329Y57.254
X63.329Y49.634
X65.789Y104.837
X65.789Y99.037
X65.869Y57.254
X65.869Y49.634
X67.589Y104.837
X67.589Y99.037
X67.774Y63.744
X68.409Y57.254
X68.409Y49.634
X72.289Y46.116
X72.289Y43.525
X72.854Y63.744
X76.089Y67.116
X76.089Y64.525
T5
X2.239Y36.094
X2.239Y28.474
X3.089Y45.964
X3.089Y38.344
X4.829Y29.754
X7.061Y96.876
X7.061Y89.256
X8.919Y32.674
X10.219Y95.704
X10.329Y46.144
X10.529Y91.654
X12.449Y29.754
X16.539Y32.674
X17.189Y29.154
X17.189Y21.534
X17.839Y95.704
X17.949Y46.144
X18.149Y91.654
X20.289Y39.154
X20.289Y31.534
X21.589Y88.954
X21.589Y81.334
X24.879Y75.144
X27.079Y102.794
X27.079Y95.174
X31.489Y102.954
X31.489Y95.334
X32.499Y75.144
X32.679Y90.044
X35.189Y54.254
X35.189Y46.634
X35.949Y19.624
X36.359Y27.094
X38.589Y56.554
X38.589Y48.934
X39.089Y44.154
X39.089Y36.534
X39.479Y32.344
X40.299Y90.044
X41.989Y53.254
X41.989Y45.634
X43.569Y87.554
X43.569Y19.624
X43.942Y72.415
X43.979Y27.094
X45.089Y84.284
X45.089Y76.664
X47.099Y32.344
X49.649Y83.434
X49.649Y75.814
X51.189Y87.554
X51.562Y72.415
X54.189Y78.254
X54.189Y70.634
X59.979Y46.044
X65.879Y60.544
X67.599Y46.044
X71.789Y56.854
X71.789Y49.234
X71.806Y97.104
X71.806Y89.484
X73.499Y60.544
X75.639Y40.664
X75.639Y33.044
X75.759Y60.604
X75.759Y52.984
X75.759Y50.584
X75.759Y42.964
T6
X2.498Y23.387
X2.498Y7.962
X5.898Y39.187
X22.266Y23.387
X22.293Y7.962
X24.073Y39.187
X42.298Y39.187
X44.153Y7.962
X44.18Y23.387
X63.948Y23.387
X63.948Y7.962
X72.155Y39.187
T7
X37.449Y85.046
X37.449Y76.461
T8
X8.039Y104.187
X8.039Y99.687
X14.539Y104.187
X14.539Y99.687
X24.181Y32.62
X24.181Y30.08
X26.721Y32.62
X26.721Y30.08
X26.991Y91.43
X26.991Y88.89
X26.991Y86.35
X26.991Y83.81
X26.991Y81.27
X29.261Y32.62
X29.261Y30.08
X29.531Y91.43
X29.531Y88.89
X29.531Y86.35
X29.531Y83.81
X29.531Y81.27
X31.801Y32.62
X31.801Y30.08
X34.341Y32.62
X34.341Y30.08
X35.993Y101.912
X35.993Y97.412
X37.819Y13.824
X37.819Y11.284
X37.819Y8.744
X37.819Y6.204
X37.819Y3.664
X40.359Y13.824
X40.359Y11.284
X40.359Y8.744
X40.359Y6.204
X40.359Y3.664
X41.985Y101.912
X41.985Y97.412
X50.181Y32.62
X50.181Y30.08
X52.721Y32.62
X52.721Y30.08
X54.991Y91.43
X54.991Y88.89
X54.991Y86.35
X54.991Y83.81
X54.991Y81.27
X55.261Y32.62
X55.261Y30.08
X57.531Y91.43
X57.531Y88.89
X57.531Y86.35
X57.531Y83.81
X57.531Y81.27
X57.801Y32.62
X57.801Y30.08
X60.341Y32.62
X60.341Y30.08
X63.439Y104.187
X63.439Y99.687
X69.939Y104.187
X69.939Y99.687
T9
X4.911Y23.387
X4.911Y7.962
X8.311Y39.187
X13.471Y23.387
X13.471Y7.962
X16.871Y39.187
X24.679Y23.387
X24.706Y7.962
X26.486Y39.187
X33.239Y23.387
X33.266Y7.962
X35.046Y39.187
X44.711Y39.187
X46.566Y7.962
X46.593Y23.387
X53.271Y39.187
X55.126Y7.962
X55.153Y23.387
X61.182Y39.187
X66.361Y23.387
X66.361Y7.962
X69.742Y39.187
X74.921Y23.387
X74.921Y7.962
T10
X6.089Y67.508
X11.089Y67.508
X16.089Y67.508
X21.289Y47.92
X26.289Y47.92
X31.289Y47.92
X46.689Y47.875
X51.689Y47.875
X56.689Y47.875
X61.889Y67.508
X66.889Y67.508
X71.889Y67.508
T0
M30
