G04 #@! TF.GenerationSoftware,KiCad,Pcbnew,7.0.1-0*
G04 #@! TF.CreationDate,2023-04-05T16:04:36-07:00*
G04 #@! TF.ProjectId,Kit-Trig-Sampler,4b69742d-5472-4696-972d-53616d706c65,rev?*
G04 #@! TF.SameCoordinates,PXb71b00PY73f50f0*
G04 #@! TF.FileFunction,Copper,L2,Bot*
G04 #@! TF.FilePolarity,Positive*
%FSLAX46Y46*%
G04 Gerber Fmt 4.6, Leading zero omitted, Abs format (unit mm)*
G04 Created by KiCad (PCBNEW 7.0.1-0) date 2023-04-05 16:04:36*
%MOMM*%
%LPD*%
G01*
G04 APERTURE LIST*
G04 #@! TA.AperFunction,ComponentPad*
%ADD10R,1.700000X1.700000*%
G04 #@! TD*
G04 #@! TA.AperFunction,ComponentPad*
%ADD11O,1.700000X1.700000*%
G04 #@! TD*
G04 #@! TA.AperFunction,ComponentPad*
%ADD12C,1.930400*%
G04 #@! TD*
G04 #@! TA.AperFunction,ComponentPad*
%ADD13C,1.600000*%
G04 #@! TD*
G04 #@! TA.AperFunction,ComponentPad*
%ADD14C,1.300000*%
G04 #@! TD*
G04 #@! TA.AperFunction,ComponentPad*
%ADD15O,1.397000X1.092200*%
G04 #@! TD*
G04 #@! TA.AperFunction,ComponentPad*
%ADD16O,1.524000X1.524000*%
G04 #@! TD*
G04 #@! TA.AperFunction,ComponentPad*
%ADD17C,2.286000*%
G04 #@! TD*
G04 #@! TA.AperFunction,ViaPad*
%ADD18C,0.800000*%
G04 #@! TD*
G04 #@! TA.AperFunction,Conductor*
%ADD19C,0.250000*%
G04 #@! TD*
G04 APERTURE END LIST*
D10*
G04 #@! TO.P,JC1,1,+12V*
G04 #@! TO.N,/A0*
X34351978Y30026200D03*
D11*
G04 #@! TO.P,JC1,2,+12V*
G04 #@! TO.N,/A1*
X34351978Y32566200D03*
G04 #@! TO.P,JC1,3,GND*
G04 #@! TO.N,/A2*
X31811978Y30026200D03*
G04 #@! TO.P,JC1,4,GND*
G04 #@! TO.N,/A3*
X31811978Y32566200D03*
G04 #@! TO.P,JC1,5,GND*
G04 #@! TO.N,/A4*
X29271978Y30026200D03*
G04 #@! TO.P,JC1,6,GND*
G04 #@! TO.N,/A5*
X29271978Y32566200D03*
G04 #@! TO.P,JC1,7,GND*
G04 #@! TO.N,/A6*
X26731978Y30026200D03*
G04 #@! TO.P,JC1,8,GND*
G04 #@! TO.N,/A7*
X26731978Y32566200D03*
G04 #@! TO.P,JC1,9,-12V*
G04 #@! TO.N,/A8*
X24191978Y30026200D03*
G04 #@! TO.P,JC1,10,-12V*
G04 #@! TO.N,/A9*
X24191978Y32566200D03*
G04 #@! TD*
G04 #@! TO.P,J14,1,+12V*
G04 #@! TO.N,Net-(D1-A)*
X37830000Y13770000D03*
G04 #@! TO.P,J14,2,+12V*
X40370000Y13770000D03*
G04 #@! TO.P,J14,3,GND*
G04 #@! TO.N,GND*
X37830000Y11230000D03*
G04 #@! TO.P,J14,4,GND*
X40370000Y11230000D03*
G04 #@! TO.P,J14,5,GND*
X37830000Y8690000D03*
G04 #@! TO.P,J14,6,GND*
X40370000Y8690000D03*
G04 #@! TO.P,J14,7,GND*
X37830000Y6150000D03*
G04 #@! TO.P,J14,8,GND*
X40370000Y6150000D03*
G04 #@! TO.P,J14,9,-12V*
G04 #@! TO.N,Net-(D2-K)*
X37830000Y3610000D03*
G04 #@! TO.P,J14,10,-12V*
X40370000Y3610000D03*
G04 #@! TD*
D10*
G04 #@! TO.P,JA1,1,+12V*
G04 #@! TO.N,-12VA*
X57542000Y91376192D03*
D11*
G04 #@! TO.P,JA1,2,+12V*
G04 #@! TO.N,VREF+*
X55002000Y91376192D03*
G04 #@! TO.P,JA1,3,GND*
G04 #@! TO.N,/D11*
X57542000Y88836192D03*
G04 #@! TO.P,JA1,4,GND*
G04 #@! TO.N,/D10*
X55002000Y88836192D03*
G04 #@! TO.P,JA1,5,GND*
G04 #@! TO.N,/D14*
X57542000Y86296192D03*
G04 #@! TO.P,JA1,6,GND*
G04 #@! TO.N,/D12*
X55002000Y86296192D03*
G04 #@! TO.P,JA1,7,GND*
G04 #@! TO.N,GND*
X57542000Y83756192D03*
G04 #@! TO.P,JA1,8,GND*
G04 #@! TO.N,GNDADC*
X55002000Y83756192D03*
G04 #@! TO.P,JA1,9,-12V*
G04 #@! TO.N,+12V*
X57542000Y81216192D03*
G04 #@! TO.P,JA1,10,-12V*
G04 #@! TO.N,/Unused(5V)*
X55002000Y81216192D03*
G04 #@! TD*
D10*
G04 #@! TO.P,JB1,1,+12V*
G04 #@! TO.N,/AUDIO_OUT2*
X60352002Y30026200D03*
D11*
G04 #@! TO.P,JB1,2,+12V*
G04 #@! TO.N,/D0*
X60352002Y32566200D03*
G04 #@! TO.P,JB1,3,GND*
G04 #@! TO.N,/AUDIO_OUT1*
X57812002Y30026200D03*
G04 #@! TO.P,JB1,4,GND*
G04 #@! TO.N,/D1*
X57812002Y32566200D03*
G04 #@! TO.P,JB1,5,GND*
G04 #@! TO.N,/AUDIO_IN2*
X55272002Y30026200D03*
G04 #@! TO.P,JB1,6,GND*
G04 #@! TO.N,/D15*
X55272002Y32566200D03*
G04 #@! TO.P,JB1,7,GND*
G04 #@! TO.N,/AUDIO_IN1*
X52732002Y30026200D03*
G04 #@! TO.P,JB1,8,GND*
G04 #@! TO.N,/D13*
X52732002Y32566200D03*
G04 #@! TO.P,JB1,9,-12V*
G04 #@! TO.N,/D3*
X50192002Y30026200D03*
G04 #@! TO.P,JB1,10,-12V*
G04 #@! TO.N,/D2*
X50192002Y32566200D03*
G04 #@! TD*
D10*
G04 #@! TO.P,JD1,1,+12V*
G04 #@! TO.N,/D5*
X29541980Y91376192D03*
D11*
G04 #@! TO.P,JD1,2,+12V*
G04 #@! TO.N,/D6*
X27001980Y91376192D03*
G04 #@! TO.P,JD1,3,GND*
G04 #@! TO.N,/D19*
X29541980Y88836192D03*
G04 #@! TO.P,JD1,4,GND*
G04 #@! TO.N,/D8*
X27001980Y88836192D03*
G04 #@! TO.P,JD1,5,GND*
G04 #@! TO.N,/D18*
X29541980Y86296192D03*
G04 #@! TO.P,JD1,6,GND*
G04 #@! TO.N,/D7*
X27001980Y86296192D03*
G04 #@! TO.P,JD1,7,GND*
G04 #@! TO.N,/D17*
X29541980Y83756192D03*
G04 #@! TO.P,JD1,8,GND*
G04 #@! TO.N,/D4*
X27001980Y83756192D03*
G04 #@! TO.P,JD1,9,-12V*
G04 #@! TO.N,/D16*
X29541980Y81216192D03*
G04 #@! TO.P,JD1,10,-12V*
G04 #@! TO.N,/D9*
X27001980Y81216192D03*
G04 #@! TD*
D12*
G04 #@! TO.P,J10,1,SIG*
G04 #@! TO.N,/AUDIO_IN1*
X55164000Y23332764D03*
G04 #@! TO.P,J10,2,SHEILD*
G04 #@! TO.N,GND*
X44191200Y23332764D03*
G04 #@! TO.P,J10,3,SW*
G04 #@! TO.N,unconnected-(J10-SW-Pad3)*
X46604200Y23332764D03*
G04 #@! TD*
D13*
G04 #@! TO.P,Bank_But1,1,UP-A*
G04 #@! TO.N,unconnected-(Bank_But1-UP-A-Pad1)*
X69950000Y104132764D03*
G04 #@! TO.P,Bank_But1,2,POLE-A*
G04 #@! TO.N,Net-(Bank_But1-POLE-A)*
X63450000Y104132764D03*
G04 #@! TO.P,Bank_But1,3,DOWN-A*
G04 #@! TO.N,unconnected-(Bank_But1-DOWN-A-Pad3)*
X69950000Y99632764D03*
G04 #@! TO.P,Bank_But1,4,UP-B*
G04 #@! TO.N,GND*
X63450000Y99632764D03*
D14*
G04 #@! TO.P,Bank_But1,5,CA*
G04 #@! TO.N,+3V3*
X67600000Y104782764D03*
G04 #@! TO.P,Bank_But1,6,G*
G04 #@! TO.N,/D0*
X65800000Y104782764D03*
G04 #@! TO.P,Bank_But1,7,R*
G04 #@! TO.N,/D1*
X65800000Y98982764D03*
G04 #@! TO.P,Bank_But1,8,B*
G04 #@! TO.N,Net-(Bank_But1-B)*
X67600000Y98982764D03*
G04 #@! TD*
D15*
G04 #@! TO.P,SD1,1,DAT2*
G04 #@! TO.N,/D18*
X40630000Y76850249D03*
G04 #@! TO.P,SD1,2,CD/DAT3*
G04 #@! TO.N,/D19*
X41729820Y77950069D03*
G04 #@! TO.P,SD1,3,CMD*
G04 #@! TO.N,/D4*
X40630000Y79050143D03*
G04 #@! TO.P,SD1,4,VDD*
G04 #@! TO.N,+3V3*
X41729820Y80149963D03*
G04 #@! TO.P,SD1,5,CLK*
G04 #@! TO.N,/D9*
X40630000Y81250037D03*
G04 #@! TO.P,SD1,6,VSS*
G04 #@! TO.N,GND*
X41729820Y82349857D03*
G04 #@! TO.P,SD1,7,DAT0*
G04 #@! TO.N,/D16*
X40630000Y83449931D03*
G04 #@! TO.P,SD1,8,DAT1*
G04 #@! TO.N,/D17*
X41729820Y84549751D03*
D16*
G04 #@! TO.P,SD1,9,SHELL1*
G04 #@! TO.N,GND*
X37460080Y76407400D03*
G04 #@! TO.P,SD1,10,SHELL2*
X37460080Y84992600D03*
G04 #@! TD*
D17*
G04 #@! TO.P,POT_LENGTH1,1,Left*
G04 #@! TO.N,GNDADC*
X31300000Y47866000D03*
G04 #@! TO.P,POT_LENGTH1,2,Center*
G04 #@! TO.N,/A7*
X26300000Y47866000D03*
G04 #@! TO.P,POT_LENGTH1,3,Right*
G04 #@! TO.N,VREF+*
X21300000Y47866000D03*
G04 #@! TD*
D12*
G04 #@! TO.P,J2,1,SIG*
G04 #@! TO.N,Net-(J2-SIG)*
X35057000Y39132764D03*
G04 #@! TO.P,J2,2,SHEILD*
G04 #@! TO.N,GND*
X24084200Y39132764D03*
G04 #@! TO.P,J2,3,SW*
X26497200Y39132764D03*
G04 #@! TD*
D17*
G04 #@! TO.P,POT_PITCH1,1,Left*
G04 #@! TO.N,GNDADC*
X71900000Y67453764D03*
G04 #@! TO.P,POT_PITCH1,2,Center*
G04 #@! TO.N,/A1*
X66900000Y67453764D03*
G04 #@! TO.P,POT_PITCH1,3,Right*
G04 #@! TO.N,VREF+*
X61900000Y67453764D03*
G04 #@! TD*
D12*
G04 #@! TO.P,J7,1,SIG*
G04 #@! TO.N,Net-(J7-SIG)*
X33277000Y7907764D03*
G04 #@! TO.P,J7,2,SHEILD*
G04 #@! TO.N,GND*
X22304200Y7907764D03*
G04 #@! TO.P,J7,3,SW*
G04 #@! TO.N,unconnected-(J7-SW-Pad3)*
X24717200Y7907764D03*
G04 #@! TD*
G04 #@! TO.P,J6,1,SIG*
G04 #@! TO.N,Net-(J6-SIG)*
X13482000Y23332764D03*
G04 #@! TO.P,J6,2,SHEILD*
G04 #@! TO.N,GND*
X2509200Y23332764D03*
G04 #@! TO.P,J6,3,SW*
X4922200Y23332764D03*
G04 #@! TD*
G04 #@! TO.P,J4,1,SIG*
G04 #@! TO.N,Net-(J4-SIG)*
X61193000Y39132764D03*
G04 #@! TO.P,J4,2,SHEILD*
G04 #@! TO.N,GND*
X72165800Y39132764D03*
G04 #@! TO.P,J4,3,SW*
X69752800Y39132764D03*
G04 #@! TD*
D13*
G04 #@! TO.P,REV_BUT1,1,UP-A*
G04 #@! TO.N,unconnected-(REV_BUT1-UP-A-Pad1)*
X14550000Y104132764D03*
G04 #@! TO.P,REV_BUT1,2,POLE-A*
G04 #@! TO.N,/A6*
X8050000Y104132764D03*
G04 #@! TO.P,REV_BUT1,3,DOWN-A*
G04 #@! TO.N,unconnected-(REV_BUT1-DOWN-A-Pad3)*
X14550000Y99632764D03*
G04 #@! TO.P,REV_BUT1,4,UP-B*
G04 #@! TO.N,GND*
X8050000Y99632764D03*
D14*
G04 #@! TO.P,REV_BUT1,5,CA*
G04 #@! TO.N,+3V3*
X12200000Y104782764D03*
G04 #@! TO.P,REV_BUT1,6,G*
G04 #@! TO.N,/D10*
X10400000Y104782764D03*
G04 #@! TO.P,REV_BUT1,7,R*
G04 #@! TO.N,Net-(REV_BUT1-R)*
X10400000Y98982764D03*
G04 #@! TO.P,REV_BUT1,8,B*
G04 #@! TO.N,/D3*
X12200000Y98982764D03*
G04 #@! TD*
D12*
G04 #@! TO.P,J5,1,SIG*
G04 #@! TO.N,Net-(J5-SIG)*
X13482000Y7907764D03*
G04 #@! TO.P,J5,2,SHEILD*
G04 #@! TO.N,GND*
X2509200Y7907764D03*
G04 #@! TO.P,J5,3,SW*
X4922200Y7907764D03*
G04 #@! TD*
G04 #@! TO.P,J9,1,SIG*
G04 #@! TO.N,/AUDIO_OUT1*
X55137000Y7907764D03*
G04 #@! TO.P,J9,2,SHEILD*
G04 #@! TO.N,GND*
X44164200Y7907764D03*
G04 #@! TO.P,J9,3,SW*
G04 #@! TO.N,unconnected-(J9-SW-Pad3)*
X46577200Y7907764D03*
G04 #@! TD*
G04 #@! TO.P,J8,1,SIG*
G04 #@! TO.N,/AUDIO_IN2*
X74932000Y23332764D03*
G04 #@! TO.P,J8,2,SHEILD*
G04 #@! TO.N,GND*
X63959200Y23332764D03*
G04 #@! TO.P,J8,3,SW*
G04 #@! TO.N,unconnected-(J8-SW-Pad3)*
X66372200Y23332764D03*
G04 #@! TD*
G04 #@! TO.P,J1,1,SIG*
G04 #@! TO.N,Net-(J1-SIG)*
X53282000Y39132764D03*
G04 #@! TO.P,J1,2,SHEILD*
G04 #@! TO.N,GND*
X42309200Y39132764D03*
G04 #@! TO.P,J1,3,SW*
X44722200Y39132764D03*
G04 #@! TD*
G04 #@! TO.P,J11,1,SIG*
G04 #@! TO.N,/AUDIO_OUT2*
X74932000Y7907764D03*
G04 #@! TO.P,J11,2,SHEILD*
G04 #@! TO.N,GND*
X63959200Y7907764D03*
G04 #@! TO.P,J11,3,SW*
G04 #@! TO.N,unconnected-(J11-SW-Pad3)*
X66372200Y7907764D03*
G04 #@! TD*
G04 #@! TO.P,J13,1,SIG*
G04 #@! TO.N,Net-(J13-SIG)*
X33250000Y23332764D03*
G04 #@! TO.P,J13,2,SHEILD*
G04 #@! TO.N,GND*
X22277200Y23332764D03*
G04 #@! TO.P,J13,3,SW*
X24690200Y23332764D03*
G04 #@! TD*
D17*
G04 #@! TO.P,POT_START1,1,Left*
G04 #@! TO.N,GNDADC*
X56700000Y47821681D03*
G04 #@! TO.P,POT_START1,2,Center*
G04 #@! TO.N,/A3*
X51700000Y47821681D03*
G04 #@! TO.P,POT_START1,3,Right*
G04 #@! TO.N,VREF+*
X46700000Y47821681D03*
G04 #@! TD*
D13*
G04 #@! TO.P,PLAY_BUT1,1,UP-A*
G04 #@! TO.N,unconnected-(PLAY_BUT1-UP-A-Pad1)*
X41996000Y101857764D03*
G04 #@! TO.P,PLAY_BUT1,2,POLE-A*
G04 #@! TO.N,Net-(PLAY_BUT1-POLE-A)*
X36004000Y101857764D03*
G04 #@! TO.P,PLAY_BUT1,3,DOWN-A*
G04 #@! TO.N,unconnected-(PLAY_BUT1-DOWN-A-Pad3)*
X41996000Y97357764D03*
G04 #@! TO.P,PLAY_BUT1,4,UP-B*
G04 #@! TO.N,GND*
X36004000Y97357764D03*
D14*
G04 #@! TO.P,PLAY_BUT1,5,CA*
G04 #@! TO.N,+3V3*
X39900000Y102507764D03*
G04 #@! TO.P,PLAY_BUT1,6,G*
G04 #@! TO.N,Net-(PLAY_BUT1-G)*
X38100000Y102507764D03*
G04 #@! TO.P,PLAY_BUT1,7,R*
G04 #@! TO.N,Net-(PLAY_BUT1-R)*
X38100000Y96707764D03*
G04 #@! TO.P,PLAY_BUT1,8,B*
G04 #@! TO.N,Net-(PLAY_BUT1-B)*
X39900000Y96707764D03*
G04 #@! TD*
D17*
G04 #@! TO.P,POT_SAMP1,1,Left*
G04 #@! TO.N,GNDADC*
X16100000Y67453764D03*
G04 #@! TO.P,POT_SAMP1,2,Center*
G04 #@! TO.N,/A9*
X11100000Y67453764D03*
G04 #@! TO.P,POT_SAMP1,3,Right*
G04 #@! TO.N,VREF+*
X6100000Y67453764D03*
G04 #@! TD*
D12*
G04 #@! TO.P,J3,1,SIG*
G04 #@! TO.N,Net-(J3-SIG)*
X16882000Y39132764D03*
G04 #@! TO.P,J3,2,SHEILD*
G04 #@! TO.N,GND*
X5909200Y39132764D03*
G04 #@! TO.P,J3,3,SW*
X8322200Y39132764D03*
G04 #@! TD*
D18*
G04 #@! TO.N,GND*
X41480000Y51520000D03*
X37240000Y81950000D03*
X60350000Y87390000D03*
X60857701Y64922299D03*
X11780000Y10820000D03*
X39680000Y28000000D03*
X63180000Y56170000D03*
X20140000Y32760000D03*
X43910000Y78660000D03*
X50630000Y15620000D03*
X47280000Y38780000D03*
X25410000Y15720000D03*
X22730000Y11350000D03*
X31260000Y103995500D03*
X25310000Y18860000D03*
X65525602Y41304398D03*
X40660000Y24800000D03*
X47250000Y17980000D03*
X59850000Y50070000D03*
G04 #@! TO.N,+3V3*
X22550000Y77520000D03*
X44280000Y83360000D03*
G04 #@! TO.N,GNDADC*
X66210000Y74620000D03*
X66150000Y65290000D03*
G04 #@! TO.N,+12V*
X17000000Y10090000D03*
X65030000Y52770000D03*
X65030000Y61730000D03*
X63710000Y50060000D03*
X51640000Y77110000D03*
X64040000Y41610000D03*
X41590000Y16240000D03*
G04 #@! TO.N,/D15*
X19330000Y16540000D03*
G04 #@! TO.N,/D13*
X20415000Y26225000D03*
G04 #@! TO.N,/AUDIO_IN2*
X61820000Y27210000D03*
G04 #@! TO.N,/D11*
X56440000Y95090000D03*
G04 #@! TO.N,/D10*
X32690000Y92005500D03*
G04 #@! TO.N,/D14*
X59320000Y95220000D03*
G04 #@! TO.N,/D12*
X53720000Y96170000D03*
G04 #@! TO.N,/D19*
X34110000Y78270000D03*
X34550000Y81800000D03*
G04 #@! TO.N,/A1*
X52600000Y44410000D03*
G04 #@! TO.N,Net-(J4-SIG)*
X66750000Y44540000D03*
X64450000Y44640000D03*
G04 #@! TO.N,Net-(J5-SIG)*
X23190000Y18100000D03*
G04 #@! TD*
D19*
G04 #@! TO.N,GND*
X36004000Y97357764D02*
X36004000Y99251500D01*
X63675000Y40885000D02*
X59850000Y44710000D01*
X8867764Y7907764D02*
X11780000Y10820000D01*
X65525602Y41304398D02*
X65106204Y40885000D01*
X59850000Y44710000D02*
X59850000Y50070000D01*
X59542412Y81755780D02*
X57542000Y83756192D01*
X42309200Y50690800D02*
X41480000Y51520000D01*
X25410000Y18760000D02*
X25310000Y18860000D01*
X43910000Y80169677D02*
X41729820Y82349857D01*
X44722200Y39132764D02*
X42309200Y39132764D01*
X24084200Y36704200D02*
X20140000Y32760000D01*
X37460080Y82170080D02*
X37240000Y81950000D01*
X25410000Y15720000D02*
X25410000Y18760000D01*
X42309200Y30629200D02*
X42309200Y39132764D01*
X42309200Y39132764D02*
X42309200Y50690800D01*
X46927236Y39132764D02*
X47280000Y38780000D01*
X60350000Y87390000D02*
X63450000Y90490000D01*
X24084200Y39132764D02*
X24084200Y36704200D01*
X37460080Y84992600D02*
X37460080Y82170080D01*
X37639857Y82349857D02*
X37240000Y81950000D01*
X44722200Y39132764D02*
X46927236Y39132764D01*
X60857701Y64922299D02*
X59542412Y66237588D01*
X59542412Y66237588D02*
X59542412Y81755780D01*
X41729820Y82349857D02*
X37639857Y82349857D01*
X47250000Y17980000D02*
X48270000Y17980000D01*
X36004000Y99251500D02*
X31260000Y103995500D01*
X65106204Y40885000D02*
X63675000Y40885000D01*
X63180000Y56170000D02*
X59850000Y52840000D01*
X22730000Y11350000D02*
X25410000Y14030000D01*
X63450000Y90490000D02*
X63450000Y99632764D01*
X43910000Y78660000D02*
X43910000Y80169677D01*
X42127236Y23332764D02*
X40660000Y24800000D01*
X44191200Y23332764D02*
X42127236Y23332764D01*
X48270000Y17980000D02*
X50630000Y15620000D01*
X25410000Y14030000D02*
X25410000Y15720000D01*
X39680000Y28000000D02*
X42309200Y30629200D01*
X4922200Y7907764D02*
X8867764Y7907764D01*
X59850000Y52840000D02*
X59850000Y50070000D01*
X36004000Y86448680D02*
X37460080Y84992600D01*
X36004000Y97357764D02*
X36004000Y86448680D01*
G04 #@! TO.N,+3V3*
X39900000Y98086623D02*
X39900000Y102507764D01*
X40875000Y94075000D02*
X40875000Y97111623D01*
X39900000Y102507764D02*
X43150000Y105757764D01*
X35627764Y106780000D02*
X20700000Y106780000D01*
X40875000Y97111623D02*
X39900000Y98086623D01*
X20670000Y106750000D02*
X14167236Y106750000D01*
X42990000Y77090000D02*
X41220400Y75320400D01*
X44280000Y83360000D02*
X44280000Y90670000D01*
X41729820Y80149963D02*
X42990000Y78889783D01*
X20700000Y106780000D02*
X20670000Y106750000D01*
X42990000Y78889783D02*
X42990000Y77090000D01*
X14167236Y106750000D02*
X12200000Y104782764D01*
X44280000Y90670000D02*
X40875000Y94075000D01*
X24749600Y75320400D02*
X22550000Y77520000D01*
X41220400Y75320400D02*
X24749600Y75320400D01*
X39900000Y102507764D02*
X35627764Y106780000D01*
X66625000Y105757764D02*
X67600000Y104782764D01*
X43150000Y105757764D02*
X66625000Y105757764D01*
G04 #@! TO.N,GNDADC*
X66150000Y65290000D02*
X66150000Y64420000D01*
X62110000Y82550000D02*
X59728808Y84931192D01*
X56177000Y84931192D02*
X55002000Y83756192D01*
X59728808Y84931192D02*
X56177000Y84931192D01*
X62110000Y78720000D02*
X62110000Y82550000D01*
X56700000Y54970000D02*
X66150000Y64420000D01*
X56700000Y54970000D02*
X56700000Y47821681D01*
X66210000Y74620000D02*
X62110000Y78720000D01*
G04 #@! TO.N,+12V*
X53880000Y79350000D02*
X55675808Y79350000D01*
X65030000Y52770000D02*
X65030000Y51380000D01*
X51640000Y77110000D02*
X53880000Y79350000D01*
X65030000Y61730000D02*
X65030000Y52770000D01*
X30490000Y16240000D02*
X41590000Y16240000D01*
X17000000Y10090000D02*
X24340000Y10090000D01*
X24340000Y10090000D02*
X30490000Y16240000D01*
X65030000Y51380000D02*
X63710000Y50060000D01*
X55675808Y79350000D02*
X57542000Y81216192D01*
X63710000Y41940000D02*
X63710000Y50060000D01*
X64040000Y41610000D02*
X63710000Y41940000D01*
G04 #@! TO.N,/A6*
X26731978Y30026200D02*
X24705778Y28000000D01*
X2880000Y36230000D02*
X2880000Y98962764D01*
X11110000Y28000000D02*
X2880000Y36230000D01*
X2880000Y98962764D02*
X8050000Y104132764D01*
X24705778Y28000000D02*
X11110000Y28000000D01*
G04 #@! TO.N,/D15*
X53907002Y31201200D02*
X55272002Y32566200D01*
X19330000Y16990000D02*
X22010000Y19670000D01*
X19330000Y16540000D02*
X19330000Y16990000D01*
X53907002Y27187002D02*
X53907002Y31201200D01*
X22010000Y19670000D02*
X46390000Y19670000D01*
X46390000Y19670000D02*
X53907002Y27187002D01*
G04 #@! TO.N,/D13*
X48740000Y26840000D02*
X51367002Y29467002D01*
X52732002Y31687901D02*
X52732002Y32566200D01*
X21030000Y26840000D02*
X48740000Y26840000D01*
X51367002Y29467002D02*
X51367002Y30322901D01*
X51367002Y30322901D02*
X52732002Y31687901D01*
X20415000Y26225000D02*
X21030000Y26840000D01*
G04 #@! TO.N,/AUDIO_IN2*
X61820000Y27210000D02*
X67910000Y27210000D01*
X67910000Y27210000D02*
X71787236Y23332764D01*
X71787236Y23332764D02*
X74932000Y23332764D01*
G04 #@! TO.N,/AUDIO_OUT1*
X57812002Y30026200D02*
X57812002Y10582766D01*
X57812002Y10582766D02*
X55137000Y7907764D01*
G04 #@! TO.N,/AUDIO_OUT2*
X60352002Y30026200D02*
X60352002Y22487762D01*
X60352002Y22487762D02*
X74932000Y7907764D01*
G04 #@! TO.N,VREF+*
X21300000Y47866000D02*
X21300000Y49720000D01*
X41271681Y53250000D02*
X46700000Y47821681D01*
X21300000Y49720000D02*
X24830000Y53250000D01*
X24830000Y53250000D02*
X41271681Y53250000D01*
X6100000Y67453764D02*
X6100000Y66220000D01*
X6100000Y66220000D02*
X21300000Y51020000D01*
X21300000Y51020000D02*
X21300000Y47866000D01*
G04 #@! TO.N,/D11*
X56440000Y95090000D02*
X56190000Y94840000D01*
X56190000Y90188192D02*
X57542000Y88836192D01*
X56190000Y94840000D02*
X56190000Y90188192D01*
G04 #@! TO.N,/D10*
X10400000Y104782764D02*
X12175000Y103007764D01*
X12175000Y103007764D02*
X21687736Y103007764D01*
X21687736Y103007764D02*
X32690000Y92005500D01*
G04 #@! TO.N,/D14*
X59450000Y95090000D02*
X59450000Y88204192D01*
X59450000Y88204192D02*
X57542000Y86296192D01*
X59320000Y95220000D02*
X59450000Y95090000D01*
G04 #@! TO.N,/D12*
X53720000Y96170000D02*
X53540000Y95990000D01*
X53540000Y87758192D02*
X55002000Y86296192D01*
X53540000Y95990000D02*
X53540000Y87758192D01*
G04 #@! TO.N,/D0*
X72106200Y32566200D02*
X77220000Y37680000D01*
X65800000Y102190000D02*
X65800000Y104782764D01*
X77220000Y90770000D02*
X65800000Y102190000D01*
X60352002Y32566200D02*
X72106200Y32566200D01*
X77220000Y37680000D02*
X77220000Y90770000D01*
G04 #@! TO.N,/D1*
X76300000Y62857698D02*
X76410000Y62967698D01*
X59321200Y33741200D02*
X71891200Y33741200D01*
X58146200Y32566200D02*
X59321200Y33741200D01*
X76410000Y88372764D02*
X65800000Y98982764D01*
X76410000Y62967698D02*
X76410000Y88372764D01*
X71891200Y33741200D02*
X76300000Y38150000D01*
X76300000Y38150000D02*
X76300000Y62857698D01*
G04 #@! TO.N,/D3*
X50192002Y30026200D02*
X51557002Y31391200D01*
X51557002Y31391200D02*
X51557002Y45412998D01*
X51557002Y45412998D02*
X12200000Y84770000D01*
X12200000Y84770000D02*
X12200000Y98982764D01*
G04 #@! TO.N,/D19*
X34110000Y78270000D02*
X34210000Y78170000D01*
X32810000Y85568172D02*
X29541980Y88836192D01*
X34210000Y78170000D02*
X41509889Y78170000D01*
X34550000Y81800000D02*
X32810000Y83540000D01*
X32810000Y83540000D02*
X32810000Y85568172D01*
G04 #@! TO.N,/D18*
X39985849Y77494400D02*
X40630000Y76850249D01*
X25030000Y83520000D02*
X25030000Y80150000D01*
X25030000Y80150000D02*
X27685600Y77494400D01*
X28205788Y84960000D02*
X26470000Y84960000D01*
X29541980Y86296192D02*
X28205788Y84960000D01*
X27685600Y77494400D02*
X39985849Y77494400D01*
X26470000Y84960000D02*
X25030000Y83520000D01*
G04 #@! TO.N,/D9*
X27001980Y81216192D02*
X28308172Y79910000D01*
X28308172Y79910000D02*
X39289963Y79910000D01*
X39289963Y79910000D02*
X40630000Y81250037D01*
G04 #@! TO.N,/A1*
X53840000Y56880000D02*
X64413764Y67453764D01*
X64413764Y67453764D02*
X66900000Y67453764D01*
X52600000Y44410000D02*
X53840000Y45650000D01*
X53840000Y45650000D02*
X53840000Y56880000D01*
G04 #@! TO.N,Net-(J4-SIG)*
X64450000Y44640000D02*
X66650000Y44640000D01*
X66650000Y44640000D02*
X66750000Y44540000D01*
G04 #@! TO.N,/D4*
X25480000Y82234212D02*
X25480000Y80380000D01*
X26865000Y78995000D02*
X40574857Y78995000D01*
X25480000Y80380000D02*
X26865000Y78995000D01*
X27001980Y83756192D02*
X25480000Y82234212D01*
G04 #@! TO.N,Net-(J5-SIG)*
X23190000Y18100000D02*
X23190000Y17615764D01*
X23190000Y17615764D02*
X13482000Y7907764D01*
G04 #@! TD*
M02*
