M48
; DRILL file {KiCad 7.0.1-0} date 2023 April 06, Thursday 10:22:04
; FORMAT={-:-/ absolute / metric / decimal}
; #@! TF.CreationDate,2023-04-06T10:22:04-07:00
; #@! TF.GenerationSoftware,Kicad,Pcbnew,7.0.1-0
; #@! TF.FileFunction,MixedPlating,1,2
FMAT,2
METRIC
; #@! TA.AperFunction,Plated,PTH,ViaDrill
T1C0.400
; #@! TA.AperFunction,Plated,PTH,ComponentDrill
T2C0.686
; #@! TA.AperFunction,Plated,PTH,ComponentDrill
T3C0.700
; #@! TA.AperFunction,Plated,PTH,ComponentDrill
T4C0.800
; #@! TA.AperFunction,Plated,PTH,ComponentDrill
T5C0.889
; #@! TA.AperFunction,Plated,PTH,ComponentDrill
T6C0.914
; #@! TA.AperFunction,Plated,PTH,ComponentDrill
T7C1.000
; #@! TA.AperFunction,Plated,PTH,ComponentDrill
T8C1.143
; #@! TA.AperFunction,Plated,PTH,ComponentDrill
T9C1.200
%
G90
G05
T1
X11.78Y10.82
X17.0Y10.09
X19.33Y16.54
X20.14Y32.76
X20.415Y26.225
X22.55Y77.52
X22.73Y11.35
X23.19Y18.1
X25.31Y18.86
X25.41Y15.72
X31.26Y103.995
X32.69Y92.005
X34.11Y78.27
X34.55Y81.8
X37.24Y81.95
X39.68Y28.0
X40.66Y24.8
X41.48Y51.52
X41.59Y16.24
X43.91Y78.66
X44.28Y83.36
X47.25Y17.98
X47.28Y38.78
X50.63Y15.62
X51.64Y77.11
X52.6Y44.41
X53.72Y96.17
X56.44Y95.09
X59.32Y95.22
X59.85Y50.07
X60.35Y87.39
X60.858Y64.922
X61.82Y27.21
X63.18Y56.17
X63.71Y50.06
X64.04Y41.61
X64.45Y44.64
X65.03Y61.73
X65.03Y52.77
X65.526Y41.304
X66.15Y65.29
X66.21Y74.62
X66.75Y44.54
T2
X40.63Y83.45
X40.63Y81.25
X40.63Y76.85
X41.73Y84.55
X41.73Y82.35
X41.73Y80.15
X41.73Y77.95
T3
X40.63Y79.05
T4
X10.4Y104.783
X10.4Y98.983
X12.2Y104.783
X12.2Y98.983
X38.1Y102.508
X38.1Y96.708
X39.9Y102.508
X39.9Y96.708
X65.8Y104.783
X65.8Y98.983
X67.6Y104.783
X67.6Y98.983
T5
X2.509Y23.333
X2.509Y7.908
X5.909Y39.133
X22.277Y23.333
X22.304Y7.908
X24.084Y39.133
X42.309Y39.133
X44.164Y7.908
X44.191Y23.333
X63.959Y23.333
X63.959Y7.908
X72.166Y39.133
T6
X37.46Y84.993
X37.46Y76.407
T7
X8.05Y104.133
X8.05Y99.633
X14.55Y104.133
X14.55Y99.633
X24.192Y32.566
X24.192Y30.026
X26.732Y32.566
X26.732Y30.026
X27.002Y91.376
X27.002Y88.836
X27.002Y86.296
X27.002Y83.756
X27.002Y81.216
X29.272Y32.566
X29.272Y30.026
X29.542Y91.376
X29.542Y88.836
X29.542Y86.296
X29.542Y83.756
X29.542Y81.216
X31.812Y32.566
X31.812Y30.026
X34.352Y32.566
X34.352Y30.026
X36.004Y101.858
X36.004Y97.358
X37.83Y13.77
X37.83Y11.23
X37.83Y8.69
X37.83Y6.15
X37.83Y3.61
X40.37Y13.77
X40.37Y11.23
X40.37Y8.69
X40.37Y6.15
X40.37Y3.61
X41.996Y101.858
X41.996Y97.358
X50.192Y32.566
X50.192Y30.026
X52.732Y32.566
X52.732Y30.026
X55.002Y91.376
X55.002Y88.836
X55.002Y86.296
X55.002Y83.756
X55.002Y81.216
X55.272Y32.566
X55.272Y30.026
X57.542Y91.376
X57.542Y88.836
X57.542Y86.296
X57.542Y83.756
X57.542Y81.216
X57.812Y32.566
X57.812Y30.026
X60.352Y32.566
X60.352Y30.026
X63.45Y104.133
X63.45Y99.633
X69.95Y104.133
X69.95Y99.633
T8
X4.922Y23.333
X4.922Y7.908
X8.322Y39.133
X13.482Y23.333
X13.482Y7.908
X16.882Y39.133
X24.69Y23.333
X24.717Y7.908
X26.497Y39.133
X33.25Y23.333
X33.277Y7.908
X35.057Y39.133
X44.722Y39.133
X46.577Y7.908
X46.604Y23.333
X53.282Y39.133
X55.137Y7.908
X55.164Y23.333
X61.193Y39.133
X66.372Y23.333
X66.372Y7.908
X69.753Y39.133
X74.932Y23.333
X74.932Y7.908
T9
X6.1Y67.454
X11.1Y67.454
X16.1Y67.454
X21.3Y47.866
X26.3Y47.866
X31.3Y47.866
X46.7Y47.822
X51.7Y47.822
X56.7Y47.822
X61.9Y67.454
X66.9Y67.454
X71.9Y67.454
T0
M30
