%TF.GenerationSoftware,KiCad,Pcbnew,7.0.1-0*%
%TF.CreationDate,2023-03-29T06:15:44-07:00*%
%TF.ProjectId,Kit-Sampler-faceplate,4b69742d-5361-46d7-906c-65722d666163,rev?*%
%TF.SameCoordinates,PXa25a80PY7d1f400*%
%TF.FileFunction,Drillmap*%
%TF.FilePolarity,Positive*%
%FSLAX45Y45*%
G04 Gerber Fmt 4.5, Leading zero omitted, Abs format (unit mm)*
G04 Created by KiCad (PCBNEW 7.0.1-0) date 2023-03-29 06:15:44*
%MOMM*%
%LPD*%
G01*
G04 APERTURE LIST*
%ADD10C,0.100000*%
%ADD11C,0.150000*%
%ADD12C,0.200000*%
%ADD13C,0.317500*%
%ADD14C,0.566420*%
%ADD15C,0.660400*%
%ADD16C,0.711200*%
%ADD17C,0.774700*%
G04 APERTURE END LIST*
D10*
X-9000Y12841620D02*
X-9000Y-8380D01*
X8081000Y12841620D02*
X8081000Y-8380D01*
D11*
X3882850Y8310100D02*
X4194000Y8310100D01*
X4194000Y8310100D02*
X4194000Y9669000D01*
X4194000Y9669000D02*
X3882850Y9669000D01*
D10*
X-9000Y12841620D02*
X8081000Y12841620D01*
D11*
X3882850Y9669000D02*
X3882850Y8310100D01*
D10*
X-9000Y-8380D02*
X8081000Y-8380D01*
D12*
D13*
X581550Y12700650D02*
X899050Y12383150D01*
X899050Y12700650D02*
X581550Y12383150D01*
D12*
X581550Y12383150D02*
X899050Y12383150D01*
X899050Y12383150D02*
G75*
G03*
X899050Y12700650I0J158750D01*
G01*
X899050Y12700650D02*
X581550Y12700650D01*
X581550Y12700650D02*
G75*
G03*
X581550Y12383150I0J-158750D01*
G01*
D13*
X581550Y450090D02*
X899050Y132590D01*
X899050Y450090D02*
X581550Y132590D01*
D12*
X581550Y132590D02*
X899050Y132590D01*
X899050Y132590D02*
G75*
G03*
X899050Y450090I0J158750D01*
G01*
X899050Y450090D02*
X581550Y450090D01*
X581550Y450090D02*
G75*
G03*
X581550Y132590I0J-158750D01*
G01*
D13*
X7172950Y12700650D02*
X7490450Y12383150D01*
X7490450Y12700650D02*
X7172950Y12383150D01*
D12*
X7172950Y12383150D02*
X7490450Y12383150D01*
X7490450Y12383150D02*
G75*
G03*
X7490450Y12700650I0J158750D01*
G01*
X7490450Y12700650D02*
X7172950Y12700650D01*
X7172950Y12700650D02*
G75*
G03*
X7172950Y12383150I0J-158750D01*
G01*
D13*
X7172950Y450090D02*
X7490450Y132590D01*
X7490450Y450090D02*
X7172950Y132590D01*
D12*
X7172950Y132590D02*
X7490450Y132590D01*
X7490450Y132590D02*
G75*
G03*
X7490450Y450090I0J158750D01*
G01*
X7490450Y450090D02*
X7172950Y450090D01*
X7172950Y450090D02*
G75*
G03*
X7172950Y132590I0J-158750D01*
G01*
D14*
X1549210Y11149276D02*
G75*
G03*
X1549210Y11149276I-283210J0D01*
G01*
X7089210Y11149276D02*
G75*
G03*
X7089210Y11149276I-283210J0D01*
G01*
D15*
X963500Y3624476D02*
X963500Y2964076D01*
X633300Y3294276D02*
X1293700Y3294276D01*
X963500Y2081976D02*
X963500Y1421576D01*
X633300Y1751776D02*
X1293700Y1751776D01*
X1296000Y5204476D02*
X1296000Y4544076D01*
X965800Y4874276D02*
X1626200Y4874276D01*
X2940300Y3624476D02*
X2940300Y2964076D01*
X2610100Y3294276D02*
X3270500Y3294276D01*
X2943000Y2081976D02*
X2943000Y1421576D01*
X2612800Y1751776D02*
X3273200Y1751776D01*
X3128500Y5204476D02*
X3128500Y4544076D01*
X2798300Y4874276D02*
X3458700Y4874276D01*
X4951000Y5204476D02*
X4951000Y4544076D01*
X4620800Y4874276D02*
X5281200Y4874276D01*
X5129000Y2081976D02*
X5129000Y1421576D01*
X4798800Y1751776D02*
X5459200Y1751776D01*
X5131700Y3624476D02*
X5131700Y2964076D01*
X4801500Y3294276D02*
X5461900Y3294276D01*
X6768500Y5204476D02*
X6768500Y4544076D01*
X6438300Y4874276D02*
X7098700Y4874276D01*
X7108500Y3624476D02*
X7108500Y2964076D01*
X6778300Y3294276D02*
X7438700Y3294276D01*
X7108500Y2081976D02*
X7108500Y1421576D01*
X6778300Y1751776D02*
X7438700Y1751776D01*
D16*
X1497450Y8750327D02*
X1497450Y9253226D01*
X994550Y9253226D01*
X994550Y8750327D01*
X1497450Y8750327D01*
X3017450Y6787118D02*
X3017450Y7290018D01*
X2514550Y7290018D01*
X2514550Y6787118D01*
X3017450Y6787118D01*
X5557450Y6791550D02*
X5557450Y7294450D01*
X5054550Y7294450D01*
X5054550Y6791550D01*
X5557450Y6791550D01*
X7077450Y8750327D02*
X7077450Y9253226D01*
X6574550Y9253226D01*
X6574550Y8750327D01*
X7077450Y8750327D01*
D17*
X4036000Y10534426D02*
X4423350Y10921776D01*
X4036000Y11309126D01*
X3648650Y10921776D01*
X4036000Y10534426D01*
D12*
X233619Y-325904D02*
X233619Y-125904D01*
X233619Y-125904D02*
X281238Y-125904D01*
X281238Y-125904D02*
X309810Y-135428D01*
X309810Y-135428D02*
X328857Y-154475D01*
X328857Y-154475D02*
X338381Y-173523D01*
X338381Y-173523D02*
X347905Y-211618D01*
X347905Y-211618D02*
X347905Y-240189D01*
X347905Y-240189D02*
X338381Y-278285D01*
X338381Y-278285D02*
X328857Y-297332D01*
X328857Y-297332D02*
X309810Y-316380D01*
X309810Y-316380D02*
X281238Y-325904D01*
X281238Y-325904D02*
X233619Y-325904D01*
X433619Y-325904D02*
X433619Y-192570D01*
X433619Y-230666D02*
X443143Y-211618D01*
X443143Y-211618D02*
X452667Y-202094D01*
X452667Y-202094D02*
X471714Y-192570D01*
X471714Y-192570D02*
X490762Y-192570D01*
X557429Y-325904D02*
X557429Y-192570D01*
X557429Y-125904D02*
X547905Y-135428D01*
X547905Y-135428D02*
X557429Y-144951D01*
X557429Y-144951D02*
X566952Y-135428D01*
X566952Y-135428D02*
X557429Y-125904D01*
X557429Y-125904D02*
X557429Y-144951D01*
X681238Y-325904D02*
X662190Y-316380D01*
X662190Y-316380D02*
X652667Y-297332D01*
X652667Y-297332D02*
X652667Y-125904D01*
X786000Y-325904D02*
X766952Y-316380D01*
X766952Y-316380D02*
X757428Y-297332D01*
X757428Y-297332D02*
X757428Y-125904D01*
X1014571Y-325904D02*
X1014571Y-125904D01*
X1014571Y-125904D02*
X1081238Y-268761D01*
X1081238Y-268761D02*
X1147905Y-125904D01*
X1147905Y-125904D02*
X1147905Y-325904D01*
X1328857Y-325904D02*
X1328857Y-221142D01*
X1328857Y-221142D02*
X1319333Y-202094D01*
X1319333Y-202094D02*
X1300286Y-192570D01*
X1300286Y-192570D02*
X1262190Y-192570D01*
X1262190Y-192570D02*
X1243143Y-202094D01*
X1328857Y-316380D02*
X1309810Y-325904D01*
X1309810Y-325904D02*
X1262190Y-325904D01*
X1262190Y-325904D02*
X1243143Y-316380D01*
X1243143Y-316380D02*
X1233619Y-297332D01*
X1233619Y-297332D02*
X1233619Y-278285D01*
X1233619Y-278285D02*
X1243143Y-259237D01*
X1243143Y-259237D02*
X1262190Y-249713D01*
X1262190Y-249713D02*
X1309810Y-249713D01*
X1309810Y-249713D02*
X1328857Y-240189D01*
X1424095Y-192570D02*
X1424095Y-392570D01*
X1424095Y-202094D02*
X1443143Y-192570D01*
X1443143Y-192570D02*
X1481238Y-192570D01*
X1481238Y-192570D02*
X1500286Y-202094D01*
X1500286Y-202094D02*
X1509809Y-211618D01*
X1509809Y-211618D02*
X1519333Y-230666D01*
X1519333Y-230666D02*
X1519333Y-287809D01*
X1519333Y-287809D02*
X1509809Y-306856D01*
X1509809Y-306856D02*
X1500286Y-316380D01*
X1500286Y-316380D02*
X1481238Y-325904D01*
X1481238Y-325904D02*
X1443143Y-325904D01*
X1443143Y-325904D02*
X1424095Y-316380D01*
X1605048Y-306856D02*
X1614571Y-316380D01*
X1614571Y-316380D02*
X1605048Y-325904D01*
X1605048Y-325904D02*
X1595524Y-316380D01*
X1595524Y-316380D02*
X1605048Y-306856D01*
X1605048Y-306856D02*
X1605048Y-325904D01*
X1605048Y-202094D02*
X1614571Y-211618D01*
X1614571Y-211618D02*
X1605048Y-221142D01*
X1605048Y-221142D02*
X1595524Y-211618D01*
X1595524Y-211618D02*
X1605048Y-202094D01*
X1605048Y-202094D02*
X1605048Y-221142D01*
X-214000Y-553380D02*
X-14000Y-753380D01*
X-14000Y-553380D02*
X-214000Y-753380D01*
X214571Y-545904D02*
X338381Y-545904D01*
X338381Y-545904D02*
X271714Y-622094D01*
X271714Y-622094D02*
X300286Y-622094D01*
X300286Y-622094D02*
X319333Y-631618D01*
X319333Y-631618D02*
X328857Y-641142D01*
X328857Y-641142D02*
X338381Y-660190D01*
X338381Y-660190D02*
X338381Y-707808D01*
X338381Y-707808D02*
X328857Y-726856D01*
X328857Y-726856D02*
X319333Y-736380D01*
X319333Y-736380D02*
X300286Y-745904D01*
X300286Y-745904D02*
X243143Y-745904D01*
X243143Y-745904D02*
X224095Y-736380D01*
X224095Y-736380D02*
X214571Y-726856D01*
X424095Y-726856D02*
X433619Y-736380D01*
X433619Y-736380D02*
X424095Y-745904D01*
X424095Y-745904D02*
X414571Y-736380D01*
X414571Y-736380D02*
X424095Y-726856D01*
X424095Y-726856D02*
X424095Y-745904D01*
X624095Y-745904D02*
X509809Y-745904D01*
X566952Y-745904D02*
X566952Y-545904D01*
X566952Y-545904D02*
X547905Y-574475D01*
X547905Y-574475D02*
X528857Y-593523D01*
X528857Y-593523D02*
X509809Y-603047D01*
X690762Y-545904D02*
X824095Y-545904D01*
X824095Y-545904D02*
X738381Y-745904D01*
X995524Y-545904D02*
X900286Y-545904D01*
X900286Y-545904D02*
X890762Y-641142D01*
X890762Y-641142D02*
X900286Y-631618D01*
X900286Y-631618D02*
X919333Y-622094D01*
X919333Y-622094D02*
X966952Y-622094D01*
X966952Y-622094D02*
X986000Y-631618D01*
X986000Y-631618D02*
X995524Y-641142D01*
X995524Y-641142D02*
X1005048Y-660190D01*
X1005048Y-660190D02*
X1005048Y-707808D01*
X1005048Y-707808D02*
X995524Y-726856D01*
X995524Y-726856D02*
X986000Y-736380D01*
X986000Y-736380D02*
X966952Y-745904D01*
X966952Y-745904D02*
X919333Y-745904D01*
X919333Y-745904D02*
X900286Y-736380D01*
X900286Y-736380D02*
X890762Y-726856D01*
X1090762Y-745904D02*
X1090762Y-612570D01*
X1090762Y-631618D02*
X1100286Y-622094D01*
X1100286Y-622094D02*
X1119333Y-612570D01*
X1119333Y-612570D02*
X1147905Y-612570D01*
X1147905Y-612570D02*
X1166952Y-622094D01*
X1166952Y-622094D02*
X1176476Y-641142D01*
X1176476Y-641142D02*
X1176476Y-745904D01*
X1176476Y-641142D02*
X1186000Y-622094D01*
X1186000Y-622094D02*
X1205048Y-612570D01*
X1205048Y-612570D02*
X1233619Y-612570D01*
X1233619Y-612570D02*
X1252667Y-622094D01*
X1252667Y-622094D02*
X1262191Y-641142D01*
X1262191Y-641142D02*
X1262191Y-745904D01*
X1357429Y-745904D02*
X1357429Y-612570D01*
X1357429Y-631618D02*
X1366952Y-622094D01*
X1366952Y-622094D02*
X1386000Y-612570D01*
X1386000Y-612570D02*
X1414571Y-612570D01*
X1414571Y-612570D02*
X1433619Y-622094D01*
X1433619Y-622094D02*
X1443143Y-641142D01*
X1443143Y-641142D02*
X1443143Y-745904D01*
X1443143Y-641142D02*
X1452667Y-622094D01*
X1452667Y-622094D02*
X1471714Y-612570D01*
X1471714Y-612570D02*
X1500286Y-612570D01*
X1500286Y-612570D02*
X1519333Y-622094D01*
X1519333Y-622094D02*
X1528857Y-641142D01*
X1528857Y-641142D02*
X1528857Y-745904D01*
X1919333Y-536380D02*
X1747905Y-793523D01*
X2176476Y-545904D02*
X2195524Y-545904D01*
X2195524Y-545904D02*
X2214572Y-555428D01*
X2214572Y-555428D02*
X2224095Y-564951D01*
X2224095Y-564951D02*
X2233619Y-583999D01*
X2233619Y-583999D02*
X2243143Y-622094D01*
X2243143Y-622094D02*
X2243143Y-669713D01*
X2243143Y-669713D02*
X2233619Y-707808D01*
X2233619Y-707808D02*
X2224095Y-726856D01*
X2224095Y-726856D02*
X2214572Y-736380D01*
X2214572Y-736380D02*
X2195524Y-745904D01*
X2195524Y-745904D02*
X2176476Y-745904D01*
X2176476Y-745904D02*
X2157429Y-736380D01*
X2157429Y-736380D02*
X2147905Y-726856D01*
X2147905Y-726856D02*
X2138381Y-707808D01*
X2138381Y-707808D02*
X2128857Y-669713D01*
X2128857Y-669713D02*
X2128857Y-622094D01*
X2128857Y-622094D02*
X2138381Y-583999D01*
X2138381Y-583999D02*
X2147905Y-564951D01*
X2147905Y-564951D02*
X2157429Y-555428D01*
X2157429Y-555428D02*
X2176476Y-545904D01*
X2328857Y-726856D02*
X2338381Y-736380D01*
X2338381Y-736380D02*
X2328857Y-745904D01*
X2328857Y-745904D02*
X2319334Y-736380D01*
X2319334Y-736380D02*
X2328857Y-726856D01*
X2328857Y-726856D02*
X2328857Y-745904D01*
X2528857Y-745904D02*
X2414572Y-745904D01*
X2471714Y-745904D02*
X2471714Y-545904D01*
X2471714Y-545904D02*
X2452667Y-574475D01*
X2452667Y-574475D02*
X2433619Y-593523D01*
X2433619Y-593523D02*
X2414572Y-603047D01*
X2605048Y-564951D02*
X2614572Y-555428D01*
X2614572Y-555428D02*
X2633619Y-545904D01*
X2633619Y-545904D02*
X2681238Y-545904D01*
X2681238Y-545904D02*
X2700286Y-555428D01*
X2700286Y-555428D02*
X2709810Y-564951D01*
X2709810Y-564951D02*
X2719334Y-583999D01*
X2719334Y-583999D02*
X2719334Y-603047D01*
X2719334Y-603047D02*
X2709810Y-631618D01*
X2709810Y-631618D02*
X2595524Y-745904D01*
X2595524Y-745904D02*
X2719334Y-745904D01*
X2900286Y-545904D02*
X2805048Y-545904D01*
X2805048Y-545904D02*
X2795524Y-641142D01*
X2795524Y-641142D02*
X2805048Y-631618D01*
X2805048Y-631618D02*
X2824095Y-622094D01*
X2824095Y-622094D02*
X2871714Y-622094D01*
X2871714Y-622094D02*
X2890762Y-631618D01*
X2890762Y-631618D02*
X2900286Y-641142D01*
X2900286Y-641142D02*
X2909810Y-660190D01*
X2909810Y-660190D02*
X2909810Y-707808D01*
X2909810Y-707808D02*
X2900286Y-726856D01*
X2900286Y-726856D02*
X2890762Y-736380D01*
X2890762Y-736380D02*
X2871714Y-745904D01*
X2871714Y-745904D02*
X2824095Y-745904D01*
X2824095Y-745904D02*
X2805048Y-736380D01*
X2805048Y-736380D02*
X2795524Y-726856D01*
X3033619Y-545904D02*
X3052667Y-545904D01*
X3052667Y-545904D02*
X3071714Y-555428D01*
X3071714Y-555428D02*
X3081238Y-564951D01*
X3081238Y-564951D02*
X3090762Y-583999D01*
X3090762Y-583999D02*
X3100286Y-622094D01*
X3100286Y-622094D02*
X3100286Y-669713D01*
X3100286Y-669713D02*
X3090762Y-707808D01*
X3090762Y-707808D02*
X3081238Y-726856D01*
X3081238Y-726856D02*
X3071714Y-736380D01*
X3071714Y-736380D02*
X3052667Y-745904D01*
X3052667Y-745904D02*
X3033619Y-745904D01*
X3033619Y-745904D02*
X3014572Y-736380D01*
X3014572Y-736380D02*
X3005048Y-726856D01*
X3005048Y-726856D02*
X2995524Y-707808D01*
X2995524Y-707808D02*
X2986000Y-669713D01*
X2986000Y-669713D02*
X2986000Y-622094D01*
X2986000Y-622094D02*
X2995524Y-583999D01*
X2995524Y-583999D02*
X3005048Y-564951D01*
X3005048Y-564951D02*
X3014572Y-555428D01*
X3014572Y-555428D02*
X3033619Y-545904D01*
X3176476Y-545904D02*
X3176476Y-583999D01*
X3252667Y-545904D02*
X3252667Y-583999D01*
X3547905Y-822094D02*
X3538381Y-812570D01*
X3538381Y-812570D02*
X3519334Y-783999D01*
X3519334Y-783999D02*
X3509810Y-764951D01*
X3509810Y-764951D02*
X3500286Y-736380D01*
X3500286Y-736380D02*
X3490762Y-688761D01*
X3490762Y-688761D02*
X3490762Y-650666D01*
X3490762Y-650666D02*
X3500286Y-603047D01*
X3500286Y-603047D02*
X3509810Y-574475D01*
X3509810Y-574475D02*
X3519334Y-555428D01*
X3519334Y-555428D02*
X3538381Y-526856D01*
X3538381Y-526856D02*
X3547905Y-517332D01*
X3662191Y-545904D02*
X3681238Y-545904D01*
X3681238Y-545904D02*
X3700286Y-555428D01*
X3700286Y-555428D02*
X3709810Y-564951D01*
X3709810Y-564951D02*
X3719334Y-583999D01*
X3719334Y-583999D02*
X3728857Y-622094D01*
X3728857Y-622094D02*
X3728857Y-669713D01*
X3728857Y-669713D02*
X3719334Y-707808D01*
X3719334Y-707808D02*
X3709810Y-726856D01*
X3709810Y-726856D02*
X3700286Y-736380D01*
X3700286Y-736380D02*
X3681238Y-745904D01*
X3681238Y-745904D02*
X3662191Y-745904D01*
X3662191Y-745904D02*
X3643143Y-736380D01*
X3643143Y-736380D02*
X3633619Y-726856D01*
X3633619Y-726856D02*
X3624095Y-707808D01*
X3624095Y-707808D02*
X3614572Y-669713D01*
X3614572Y-669713D02*
X3614572Y-622094D01*
X3614572Y-622094D02*
X3624095Y-583999D01*
X3624095Y-583999D02*
X3633619Y-564951D01*
X3633619Y-564951D02*
X3643143Y-555428D01*
X3643143Y-555428D02*
X3662191Y-545904D01*
X3966953Y-745904D02*
X3966953Y-545904D01*
X4052667Y-745904D02*
X4052667Y-641142D01*
X4052667Y-641142D02*
X4043143Y-622094D01*
X4043143Y-622094D02*
X4024096Y-612570D01*
X4024096Y-612570D02*
X3995524Y-612570D01*
X3995524Y-612570D02*
X3976476Y-622094D01*
X3976476Y-622094D02*
X3966953Y-631618D01*
X4176476Y-745904D02*
X4157429Y-736380D01*
X4157429Y-736380D02*
X4147905Y-726856D01*
X4147905Y-726856D02*
X4138381Y-707808D01*
X4138381Y-707808D02*
X4138381Y-650666D01*
X4138381Y-650666D02*
X4147905Y-631618D01*
X4147905Y-631618D02*
X4157429Y-622094D01*
X4157429Y-622094D02*
X4176476Y-612570D01*
X4176476Y-612570D02*
X4205048Y-612570D01*
X4205048Y-612570D02*
X4224096Y-622094D01*
X4224096Y-622094D02*
X4233619Y-631618D01*
X4233619Y-631618D02*
X4243143Y-650666D01*
X4243143Y-650666D02*
X4243143Y-707808D01*
X4243143Y-707808D02*
X4233619Y-726856D01*
X4233619Y-726856D02*
X4224096Y-736380D01*
X4224096Y-736380D02*
X4205048Y-745904D01*
X4205048Y-745904D02*
X4176476Y-745904D01*
X4357429Y-745904D02*
X4338381Y-736380D01*
X4338381Y-736380D02*
X4328858Y-717332D01*
X4328858Y-717332D02*
X4328858Y-545904D01*
X4509810Y-736380D02*
X4490762Y-745904D01*
X4490762Y-745904D02*
X4452667Y-745904D01*
X4452667Y-745904D02*
X4433619Y-736380D01*
X4433619Y-736380D02*
X4424096Y-717332D01*
X4424096Y-717332D02*
X4424096Y-641142D01*
X4424096Y-641142D02*
X4433619Y-622094D01*
X4433619Y-622094D02*
X4452667Y-612570D01*
X4452667Y-612570D02*
X4490762Y-612570D01*
X4490762Y-612570D02*
X4509810Y-622094D01*
X4509810Y-622094D02*
X4519334Y-641142D01*
X4519334Y-641142D02*
X4519334Y-660190D01*
X4519334Y-660190D02*
X4424096Y-679237D01*
X4595524Y-736380D02*
X4614572Y-745904D01*
X4614572Y-745904D02*
X4652667Y-745904D01*
X4652667Y-745904D02*
X4671715Y-736380D01*
X4671715Y-736380D02*
X4681239Y-717332D01*
X4681239Y-717332D02*
X4681239Y-707808D01*
X4681239Y-707808D02*
X4671715Y-688761D01*
X4671715Y-688761D02*
X4652667Y-679237D01*
X4652667Y-679237D02*
X4624096Y-679237D01*
X4624096Y-679237D02*
X4605048Y-669713D01*
X4605048Y-669713D02*
X4595524Y-650666D01*
X4595524Y-650666D02*
X4595524Y-641142D01*
X4595524Y-641142D02*
X4605048Y-622094D01*
X4605048Y-622094D02*
X4624096Y-612570D01*
X4624096Y-612570D02*
X4652667Y-612570D01*
X4652667Y-612570D02*
X4671715Y-622094D01*
X4919334Y-669713D02*
X5071715Y-669713D01*
X4995524Y-745904D02*
X4995524Y-593523D01*
X5405048Y-612570D02*
X5405048Y-745904D01*
X5357429Y-536380D02*
X5309810Y-679237D01*
X5309810Y-679237D02*
X5433620Y-679237D01*
X5652667Y-736380D02*
X5671715Y-745904D01*
X5671715Y-745904D02*
X5709810Y-745904D01*
X5709810Y-745904D02*
X5728858Y-736380D01*
X5728858Y-736380D02*
X5738381Y-717332D01*
X5738381Y-717332D02*
X5738381Y-707808D01*
X5738381Y-707808D02*
X5728858Y-688761D01*
X5728858Y-688761D02*
X5709810Y-679237D01*
X5709810Y-679237D02*
X5681239Y-679237D01*
X5681239Y-679237D02*
X5662191Y-669713D01*
X5662191Y-669713D02*
X5652667Y-650666D01*
X5652667Y-650666D02*
X5652667Y-641142D01*
X5652667Y-641142D02*
X5662191Y-622094D01*
X5662191Y-622094D02*
X5681239Y-612570D01*
X5681239Y-612570D02*
X5709810Y-612570D01*
X5709810Y-612570D02*
X5728858Y-622094D01*
X5852667Y-745904D02*
X5833620Y-736380D01*
X5833620Y-736380D02*
X5824096Y-717332D01*
X5824096Y-717332D02*
X5824096Y-545904D01*
X5957429Y-745904D02*
X5938381Y-736380D01*
X5938381Y-736380D02*
X5928858Y-726856D01*
X5928858Y-726856D02*
X5919334Y-707808D01*
X5919334Y-707808D02*
X5919334Y-650666D01*
X5919334Y-650666D02*
X5928858Y-631618D01*
X5928858Y-631618D02*
X5938381Y-622094D01*
X5938381Y-622094D02*
X5957429Y-612570D01*
X5957429Y-612570D02*
X5986001Y-612570D01*
X5986001Y-612570D02*
X6005048Y-622094D01*
X6005048Y-622094D02*
X6014572Y-631618D01*
X6014572Y-631618D02*
X6024096Y-650666D01*
X6024096Y-650666D02*
X6024096Y-707808D01*
X6024096Y-707808D02*
X6014572Y-726856D01*
X6014572Y-726856D02*
X6005048Y-736380D01*
X6005048Y-736380D02*
X5986001Y-745904D01*
X5986001Y-745904D02*
X5957429Y-745904D01*
X6081239Y-612570D02*
X6157429Y-612570D01*
X6109810Y-545904D02*
X6109810Y-717332D01*
X6109810Y-717332D02*
X6119334Y-736380D01*
X6119334Y-736380D02*
X6138381Y-745904D01*
X6138381Y-745904D02*
X6157429Y-745904D01*
X6214572Y-736380D02*
X6233620Y-745904D01*
X6233620Y-745904D02*
X6271715Y-745904D01*
X6271715Y-745904D02*
X6290762Y-736380D01*
X6290762Y-736380D02*
X6300286Y-717332D01*
X6300286Y-717332D02*
X6300286Y-707808D01*
X6300286Y-707808D02*
X6290762Y-688761D01*
X6290762Y-688761D02*
X6271715Y-679237D01*
X6271715Y-679237D02*
X6243143Y-679237D01*
X6243143Y-679237D02*
X6224096Y-669713D01*
X6224096Y-669713D02*
X6214572Y-650666D01*
X6214572Y-650666D02*
X6214572Y-641142D01*
X6214572Y-641142D02*
X6224096Y-622094D01*
X6224096Y-622094D02*
X6243143Y-612570D01*
X6243143Y-612570D02*
X6271715Y-612570D01*
X6271715Y-612570D02*
X6290762Y-622094D01*
X6366953Y-822094D02*
X6376477Y-812570D01*
X6376477Y-812570D02*
X6395524Y-783999D01*
X6395524Y-783999D02*
X6405048Y-764951D01*
X6405048Y-764951D02*
X6414572Y-736380D01*
X6414572Y-736380D02*
X6424096Y-688761D01*
X6424096Y-688761D02*
X6424096Y-650666D01*
X6424096Y-650666D02*
X6414572Y-603047D01*
X6414572Y-603047D02*
X6405048Y-574475D01*
X6405048Y-574475D02*
X6395524Y-555428D01*
X6395524Y-555428D02*
X6376477Y-526856D01*
X6376477Y-526856D02*
X6366953Y-517332D01*
X-14000Y-973380D02*
G75*
G03*
X-14000Y-973380I-100000J0D01*
G01*
X328857Y-865904D02*
X233619Y-865904D01*
X233619Y-865904D02*
X224095Y-961142D01*
X224095Y-961142D02*
X233619Y-951618D01*
X233619Y-951618D02*
X252667Y-942094D01*
X252667Y-942094D02*
X300286Y-942094D01*
X300286Y-942094D02*
X319333Y-951618D01*
X319333Y-951618D02*
X328857Y-961142D01*
X328857Y-961142D02*
X338381Y-980189D01*
X338381Y-980189D02*
X338381Y-1027808D01*
X338381Y-1027808D02*
X328857Y-1046856D01*
X328857Y-1046856D02*
X319333Y-1056380D01*
X319333Y-1056380D02*
X300286Y-1065904D01*
X300286Y-1065904D02*
X252667Y-1065904D01*
X252667Y-1065904D02*
X233619Y-1056380D01*
X233619Y-1056380D02*
X224095Y-1046856D01*
X424095Y-1046856D02*
X433619Y-1056380D01*
X433619Y-1056380D02*
X424095Y-1065904D01*
X424095Y-1065904D02*
X414571Y-1056380D01*
X414571Y-1056380D02*
X424095Y-1046856D01*
X424095Y-1046856D02*
X424095Y-1065904D01*
X605048Y-865904D02*
X566952Y-865904D01*
X566952Y-865904D02*
X547905Y-875428D01*
X547905Y-875428D02*
X538381Y-884951D01*
X538381Y-884951D02*
X519333Y-913523D01*
X519333Y-913523D02*
X509809Y-951618D01*
X509809Y-951618D02*
X509809Y-1027808D01*
X509809Y-1027808D02*
X519333Y-1046856D01*
X519333Y-1046856D02*
X528857Y-1056380D01*
X528857Y-1056380D02*
X547905Y-1065904D01*
X547905Y-1065904D02*
X586000Y-1065904D01*
X586000Y-1065904D02*
X605048Y-1056380D01*
X605048Y-1056380D02*
X614571Y-1046856D01*
X614571Y-1046856D02*
X624095Y-1027808D01*
X624095Y-1027808D02*
X624095Y-980189D01*
X624095Y-980189D02*
X614571Y-961142D01*
X614571Y-961142D02*
X605048Y-951618D01*
X605048Y-951618D02*
X586000Y-942094D01*
X586000Y-942094D02*
X547905Y-942094D01*
X547905Y-942094D02*
X528857Y-951618D01*
X528857Y-951618D02*
X519333Y-961142D01*
X519333Y-961142D02*
X509809Y-980189D01*
X795524Y-865904D02*
X757428Y-865904D01*
X757428Y-865904D02*
X738381Y-875428D01*
X738381Y-875428D02*
X728857Y-884951D01*
X728857Y-884951D02*
X709809Y-913523D01*
X709809Y-913523D02*
X700286Y-951618D01*
X700286Y-951618D02*
X700286Y-1027808D01*
X700286Y-1027808D02*
X709809Y-1046856D01*
X709809Y-1046856D02*
X719333Y-1056380D01*
X719333Y-1056380D02*
X738381Y-1065904D01*
X738381Y-1065904D02*
X776476Y-1065904D01*
X776476Y-1065904D02*
X795524Y-1056380D01*
X795524Y-1056380D02*
X805048Y-1046856D01*
X805048Y-1046856D02*
X814571Y-1027808D01*
X814571Y-1027808D02*
X814571Y-980189D01*
X814571Y-980189D02*
X805048Y-961142D01*
X805048Y-961142D02*
X795524Y-951618D01*
X795524Y-951618D02*
X776476Y-942094D01*
X776476Y-942094D02*
X738381Y-942094D01*
X738381Y-942094D02*
X719333Y-951618D01*
X719333Y-951618D02*
X709809Y-961142D01*
X709809Y-961142D02*
X700286Y-980189D01*
X986000Y-932570D02*
X986000Y-1065904D01*
X938381Y-856380D02*
X890762Y-999237D01*
X890762Y-999237D02*
X1014571Y-999237D01*
X1090762Y-1065904D02*
X1090762Y-932570D01*
X1090762Y-951618D02*
X1100286Y-942094D01*
X1100286Y-942094D02*
X1119333Y-932570D01*
X1119333Y-932570D02*
X1147905Y-932570D01*
X1147905Y-932570D02*
X1166952Y-942094D01*
X1166952Y-942094D02*
X1176476Y-961142D01*
X1176476Y-961142D02*
X1176476Y-1065904D01*
X1176476Y-961142D02*
X1186000Y-942094D01*
X1186000Y-942094D02*
X1205048Y-932570D01*
X1205048Y-932570D02*
X1233619Y-932570D01*
X1233619Y-932570D02*
X1252667Y-942094D01*
X1252667Y-942094D02*
X1262191Y-961142D01*
X1262191Y-961142D02*
X1262191Y-1065904D01*
X1357429Y-1065904D02*
X1357429Y-932570D01*
X1357429Y-951618D02*
X1366952Y-942094D01*
X1366952Y-942094D02*
X1386000Y-932570D01*
X1386000Y-932570D02*
X1414571Y-932570D01*
X1414571Y-932570D02*
X1433619Y-942094D01*
X1433619Y-942094D02*
X1443143Y-961142D01*
X1443143Y-961142D02*
X1443143Y-1065904D01*
X1443143Y-961142D02*
X1452667Y-942094D01*
X1452667Y-942094D02*
X1471714Y-932570D01*
X1471714Y-932570D02*
X1500286Y-932570D01*
X1500286Y-932570D02*
X1519333Y-942094D01*
X1519333Y-942094D02*
X1528857Y-961142D01*
X1528857Y-961142D02*
X1528857Y-1065904D01*
X1919333Y-856380D02*
X1747905Y-1113523D01*
X2176476Y-865904D02*
X2195524Y-865904D01*
X2195524Y-865904D02*
X2214572Y-875428D01*
X2214572Y-875428D02*
X2224095Y-884951D01*
X2224095Y-884951D02*
X2233619Y-903999D01*
X2233619Y-903999D02*
X2243143Y-942094D01*
X2243143Y-942094D02*
X2243143Y-989713D01*
X2243143Y-989713D02*
X2233619Y-1027808D01*
X2233619Y-1027808D02*
X2224095Y-1046856D01*
X2224095Y-1046856D02*
X2214572Y-1056380D01*
X2214572Y-1056380D02*
X2195524Y-1065904D01*
X2195524Y-1065904D02*
X2176476Y-1065904D01*
X2176476Y-1065904D02*
X2157429Y-1056380D01*
X2157429Y-1056380D02*
X2147905Y-1046856D01*
X2147905Y-1046856D02*
X2138381Y-1027808D01*
X2138381Y-1027808D02*
X2128857Y-989713D01*
X2128857Y-989713D02*
X2128857Y-942094D01*
X2128857Y-942094D02*
X2138381Y-903999D01*
X2138381Y-903999D02*
X2147905Y-884951D01*
X2147905Y-884951D02*
X2157429Y-875428D01*
X2157429Y-875428D02*
X2176476Y-865904D01*
X2328857Y-1046856D02*
X2338381Y-1056380D01*
X2338381Y-1056380D02*
X2328857Y-1065904D01*
X2328857Y-1065904D02*
X2319334Y-1056380D01*
X2319334Y-1056380D02*
X2328857Y-1046856D01*
X2328857Y-1046856D02*
X2328857Y-1065904D01*
X2414572Y-884951D02*
X2424095Y-875428D01*
X2424095Y-875428D02*
X2443143Y-865904D01*
X2443143Y-865904D02*
X2490762Y-865904D01*
X2490762Y-865904D02*
X2509810Y-875428D01*
X2509810Y-875428D02*
X2519334Y-884951D01*
X2519334Y-884951D02*
X2528857Y-903999D01*
X2528857Y-903999D02*
X2528857Y-923047D01*
X2528857Y-923047D02*
X2519334Y-951618D01*
X2519334Y-951618D02*
X2405048Y-1065904D01*
X2405048Y-1065904D02*
X2528857Y-1065904D01*
X2605048Y-884951D02*
X2614572Y-875428D01*
X2614572Y-875428D02*
X2633619Y-865904D01*
X2633619Y-865904D02*
X2681238Y-865904D01*
X2681238Y-865904D02*
X2700286Y-875428D01*
X2700286Y-875428D02*
X2709810Y-884951D01*
X2709810Y-884951D02*
X2719334Y-903999D01*
X2719334Y-903999D02*
X2719334Y-923047D01*
X2719334Y-923047D02*
X2709810Y-951618D01*
X2709810Y-951618D02*
X2595524Y-1065904D01*
X2595524Y-1065904D02*
X2719334Y-1065904D01*
X2786000Y-865904D02*
X2909810Y-865904D01*
X2909810Y-865904D02*
X2843143Y-942094D01*
X2843143Y-942094D02*
X2871714Y-942094D01*
X2871714Y-942094D02*
X2890762Y-951618D01*
X2890762Y-951618D02*
X2900286Y-961142D01*
X2900286Y-961142D02*
X2909810Y-980189D01*
X2909810Y-980189D02*
X2909810Y-1027808D01*
X2909810Y-1027808D02*
X2900286Y-1046856D01*
X2900286Y-1046856D02*
X2890762Y-1056380D01*
X2890762Y-1056380D02*
X2871714Y-1065904D01*
X2871714Y-1065904D02*
X2814572Y-1065904D01*
X2814572Y-1065904D02*
X2795524Y-1056380D01*
X2795524Y-1056380D02*
X2786000Y-1046856D01*
X3033619Y-865904D02*
X3052667Y-865904D01*
X3052667Y-865904D02*
X3071714Y-875428D01*
X3071714Y-875428D02*
X3081238Y-884951D01*
X3081238Y-884951D02*
X3090762Y-903999D01*
X3090762Y-903999D02*
X3100286Y-942094D01*
X3100286Y-942094D02*
X3100286Y-989713D01*
X3100286Y-989713D02*
X3090762Y-1027808D01*
X3090762Y-1027808D02*
X3081238Y-1046856D01*
X3081238Y-1046856D02*
X3071714Y-1056380D01*
X3071714Y-1056380D02*
X3052667Y-1065904D01*
X3052667Y-1065904D02*
X3033619Y-1065904D01*
X3033619Y-1065904D02*
X3014572Y-1056380D01*
X3014572Y-1056380D02*
X3005048Y-1046856D01*
X3005048Y-1046856D02*
X2995524Y-1027808D01*
X2995524Y-1027808D02*
X2986000Y-989713D01*
X2986000Y-989713D02*
X2986000Y-942094D01*
X2986000Y-942094D02*
X2995524Y-903999D01*
X2995524Y-903999D02*
X3005048Y-884951D01*
X3005048Y-884951D02*
X3014572Y-875428D01*
X3014572Y-875428D02*
X3033619Y-865904D01*
X3176476Y-865904D02*
X3176476Y-903999D01*
X3252667Y-865904D02*
X3252667Y-903999D01*
X3547905Y-1142094D02*
X3538381Y-1132570D01*
X3538381Y-1132570D02*
X3519334Y-1103999D01*
X3519334Y-1103999D02*
X3509810Y-1084951D01*
X3509810Y-1084951D02*
X3500286Y-1056380D01*
X3500286Y-1056380D02*
X3490762Y-1008761D01*
X3490762Y-1008761D02*
X3490762Y-970666D01*
X3490762Y-970666D02*
X3500286Y-923047D01*
X3500286Y-923047D02*
X3509810Y-894475D01*
X3509810Y-894475D02*
X3519334Y-875428D01*
X3519334Y-875428D02*
X3538381Y-846856D01*
X3538381Y-846856D02*
X3547905Y-837332D01*
X3614572Y-884951D02*
X3624095Y-875428D01*
X3624095Y-875428D02*
X3643143Y-865904D01*
X3643143Y-865904D02*
X3690762Y-865904D01*
X3690762Y-865904D02*
X3709810Y-875428D01*
X3709810Y-875428D02*
X3719334Y-884951D01*
X3719334Y-884951D02*
X3728857Y-903999D01*
X3728857Y-903999D02*
X3728857Y-923047D01*
X3728857Y-923047D02*
X3719334Y-951618D01*
X3719334Y-951618D02*
X3605048Y-1065904D01*
X3605048Y-1065904D02*
X3728857Y-1065904D01*
X3966953Y-1065904D02*
X3966953Y-865904D01*
X4052667Y-1065904D02*
X4052667Y-961142D01*
X4052667Y-961142D02*
X4043143Y-942094D01*
X4043143Y-942094D02*
X4024096Y-932570D01*
X4024096Y-932570D02*
X3995524Y-932570D01*
X3995524Y-932570D02*
X3976476Y-942094D01*
X3976476Y-942094D02*
X3966953Y-951618D01*
X4176476Y-1065904D02*
X4157429Y-1056380D01*
X4157429Y-1056380D02*
X4147905Y-1046856D01*
X4147905Y-1046856D02*
X4138381Y-1027808D01*
X4138381Y-1027808D02*
X4138381Y-970666D01*
X4138381Y-970666D02*
X4147905Y-951618D01*
X4147905Y-951618D02*
X4157429Y-942094D01*
X4157429Y-942094D02*
X4176476Y-932570D01*
X4176476Y-932570D02*
X4205048Y-932570D01*
X4205048Y-932570D02*
X4224096Y-942094D01*
X4224096Y-942094D02*
X4233619Y-951618D01*
X4233619Y-951618D02*
X4243143Y-970666D01*
X4243143Y-970666D02*
X4243143Y-1027808D01*
X4243143Y-1027808D02*
X4233619Y-1046856D01*
X4233619Y-1046856D02*
X4224096Y-1056380D01*
X4224096Y-1056380D02*
X4205048Y-1065904D01*
X4205048Y-1065904D02*
X4176476Y-1065904D01*
X4357429Y-1065904D02*
X4338381Y-1056380D01*
X4338381Y-1056380D02*
X4328858Y-1037332D01*
X4328858Y-1037332D02*
X4328858Y-865904D01*
X4509810Y-1056380D02*
X4490762Y-1065904D01*
X4490762Y-1065904D02*
X4452667Y-1065904D01*
X4452667Y-1065904D02*
X4433619Y-1056380D01*
X4433619Y-1056380D02*
X4424096Y-1037332D01*
X4424096Y-1037332D02*
X4424096Y-961142D01*
X4424096Y-961142D02*
X4433619Y-942094D01*
X4433619Y-942094D02*
X4452667Y-932570D01*
X4452667Y-932570D02*
X4490762Y-932570D01*
X4490762Y-932570D02*
X4509810Y-942094D01*
X4509810Y-942094D02*
X4519334Y-961142D01*
X4519334Y-961142D02*
X4519334Y-980189D01*
X4519334Y-980189D02*
X4424096Y-999237D01*
X4595524Y-1056380D02*
X4614572Y-1065904D01*
X4614572Y-1065904D02*
X4652667Y-1065904D01*
X4652667Y-1065904D02*
X4671715Y-1056380D01*
X4671715Y-1056380D02*
X4681239Y-1037332D01*
X4681239Y-1037332D02*
X4681239Y-1027808D01*
X4681239Y-1027808D02*
X4671715Y-1008761D01*
X4671715Y-1008761D02*
X4652667Y-999237D01*
X4652667Y-999237D02*
X4624096Y-999237D01*
X4624096Y-999237D02*
X4605048Y-989713D01*
X4605048Y-989713D02*
X4595524Y-970666D01*
X4595524Y-970666D02*
X4595524Y-961142D01*
X4595524Y-961142D02*
X4605048Y-942094D01*
X4605048Y-942094D02*
X4624096Y-932570D01*
X4624096Y-932570D02*
X4652667Y-932570D01*
X4652667Y-932570D02*
X4671715Y-942094D01*
X4747905Y-1142094D02*
X4757429Y-1132570D01*
X4757429Y-1132570D02*
X4776477Y-1103999D01*
X4776477Y-1103999D02*
X4786000Y-1084951D01*
X4786000Y-1084951D02*
X4795524Y-1056380D01*
X4795524Y-1056380D02*
X4805048Y-1008761D01*
X4805048Y-1008761D02*
X4805048Y-970666D01*
X4805048Y-970666D02*
X4795524Y-923047D01*
X4795524Y-923047D02*
X4786000Y-894475D01*
X4786000Y-894475D02*
X4776477Y-875428D01*
X4776477Y-875428D02*
X4757429Y-846856D01*
X4757429Y-846856D02*
X4747905Y-837332D01*
X-114000Y-1193380D02*
X-114000Y-1393380D01*
X-214000Y-1293380D02*
X-14000Y-1293380D01*
X319333Y-1185904D02*
X281238Y-1185904D01*
X281238Y-1185904D02*
X262190Y-1195428D01*
X262190Y-1195428D02*
X252667Y-1204951D01*
X252667Y-1204951D02*
X233619Y-1233523D01*
X233619Y-1233523D02*
X224095Y-1271618D01*
X224095Y-1271618D02*
X224095Y-1347809D01*
X224095Y-1347809D02*
X233619Y-1366856D01*
X233619Y-1366856D02*
X243143Y-1376380D01*
X243143Y-1376380D02*
X262190Y-1385904D01*
X262190Y-1385904D02*
X300286Y-1385904D01*
X300286Y-1385904D02*
X319333Y-1376380D01*
X319333Y-1376380D02*
X328857Y-1366856D01*
X328857Y-1366856D02*
X338381Y-1347809D01*
X338381Y-1347809D02*
X338381Y-1300190D01*
X338381Y-1300190D02*
X328857Y-1281142D01*
X328857Y-1281142D02*
X319333Y-1271618D01*
X319333Y-1271618D02*
X300286Y-1262094D01*
X300286Y-1262094D02*
X262190Y-1262094D01*
X262190Y-1262094D02*
X243143Y-1271618D01*
X243143Y-1271618D02*
X233619Y-1281142D01*
X233619Y-1281142D02*
X224095Y-1300190D01*
X424095Y-1366856D02*
X433619Y-1376380D01*
X433619Y-1376380D02*
X424095Y-1385904D01*
X424095Y-1385904D02*
X414571Y-1376380D01*
X414571Y-1376380D02*
X424095Y-1366856D01*
X424095Y-1366856D02*
X424095Y-1385904D01*
X605048Y-1185904D02*
X566952Y-1185904D01*
X566952Y-1185904D02*
X547905Y-1195428D01*
X547905Y-1195428D02*
X538381Y-1204951D01*
X538381Y-1204951D02*
X519333Y-1233523D01*
X519333Y-1233523D02*
X509809Y-1271618D01*
X509809Y-1271618D02*
X509809Y-1347809D01*
X509809Y-1347809D02*
X519333Y-1366856D01*
X519333Y-1366856D02*
X528857Y-1376380D01*
X528857Y-1376380D02*
X547905Y-1385904D01*
X547905Y-1385904D02*
X586000Y-1385904D01*
X586000Y-1385904D02*
X605048Y-1376380D01*
X605048Y-1376380D02*
X614571Y-1366856D01*
X614571Y-1366856D02*
X624095Y-1347809D01*
X624095Y-1347809D02*
X624095Y-1300190D01*
X624095Y-1300190D02*
X614571Y-1281142D01*
X614571Y-1281142D02*
X605048Y-1271618D01*
X605048Y-1271618D02*
X586000Y-1262094D01*
X586000Y-1262094D02*
X547905Y-1262094D01*
X547905Y-1262094D02*
X528857Y-1271618D01*
X528857Y-1271618D02*
X519333Y-1281142D01*
X519333Y-1281142D02*
X509809Y-1300190D01*
X747905Y-1185904D02*
X766952Y-1185904D01*
X766952Y-1185904D02*
X786000Y-1195428D01*
X786000Y-1195428D02*
X795524Y-1204951D01*
X795524Y-1204951D02*
X805048Y-1223999D01*
X805048Y-1223999D02*
X814571Y-1262094D01*
X814571Y-1262094D02*
X814571Y-1309713D01*
X814571Y-1309713D02*
X805048Y-1347809D01*
X805048Y-1347809D02*
X795524Y-1366856D01*
X795524Y-1366856D02*
X786000Y-1376380D01*
X786000Y-1376380D02*
X766952Y-1385904D01*
X766952Y-1385904D02*
X747905Y-1385904D01*
X747905Y-1385904D02*
X728857Y-1376380D01*
X728857Y-1376380D02*
X719333Y-1366856D01*
X719333Y-1366856D02*
X709809Y-1347809D01*
X709809Y-1347809D02*
X700286Y-1309713D01*
X700286Y-1309713D02*
X700286Y-1262094D01*
X700286Y-1262094D02*
X709809Y-1223999D01*
X709809Y-1223999D02*
X719333Y-1204951D01*
X719333Y-1204951D02*
X728857Y-1195428D01*
X728857Y-1195428D02*
X747905Y-1185904D01*
X986000Y-1252570D02*
X986000Y-1385904D01*
X938381Y-1176380D02*
X890762Y-1319237D01*
X890762Y-1319237D02*
X1014571Y-1319237D01*
X1090762Y-1385904D02*
X1090762Y-1252570D01*
X1090762Y-1271618D02*
X1100286Y-1262094D01*
X1100286Y-1262094D02*
X1119333Y-1252570D01*
X1119333Y-1252570D02*
X1147905Y-1252570D01*
X1147905Y-1252570D02*
X1166952Y-1262094D01*
X1166952Y-1262094D02*
X1176476Y-1281142D01*
X1176476Y-1281142D02*
X1176476Y-1385904D01*
X1176476Y-1281142D02*
X1186000Y-1262094D01*
X1186000Y-1262094D02*
X1205048Y-1252570D01*
X1205048Y-1252570D02*
X1233619Y-1252570D01*
X1233619Y-1252570D02*
X1252667Y-1262094D01*
X1252667Y-1262094D02*
X1262191Y-1281142D01*
X1262191Y-1281142D02*
X1262191Y-1385904D01*
X1357429Y-1385904D02*
X1357429Y-1252570D01*
X1357429Y-1271618D02*
X1366952Y-1262094D01*
X1366952Y-1262094D02*
X1386000Y-1252570D01*
X1386000Y-1252570D02*
X1414571Y-1252570D01*
X1414571Y-1252570D02*
X1433619Y-1262094D01*
X1433619Y-1262094D02*
X1443143Y-1281142D01*
X1443143Y-1281142D02*
X1443143Y-1385904D01*
X1443143Y-1281142D02*
X1452667Y-1262094D01*
X1452667Y-1262094D02*
X1471714Y-1252570D01*
X1471714Y-1252570D02*
X1500286Y-1252570D01*
X1500286Y-1252570D02*
X1519333Y-1262094D01*
X1519333Y-1262094D02*
X1528857Y-1281142D01*
X1528857Y-1281142D02*
X1528857Y-1385904D01*
X1919333Y-1176380D02*
X1747905Y-1433523D01*
X2176476Y-1185904D02*
X2195524Y-1185904D01*
X2195524Y-1185904D02*
X2214572Y-1195428D01*
X2214572Y-1195428D02*
X2224095Y-1204951D01*
X2224095Y-1204951D02*
X2233619Y-1223999D01*
X2233619Y-1223999D02*
X2243143Y-1262094D01*
X2243143Y-1262094D02*
X2243143Y-1309713D01*
X2243143Y-1309713D02*
X2233619Y-1347809D01*
X2233619Y-1347809D02*
X2224095Y-1366856D01*
X2224095Y-1366856D02*
X2214572Y-1376380D01*
X2214572Y-1376380D02*
X2195524Y-1385904D01*
X2195524Y-1385904D02*
X2176476Y-1385904D01*
X2176476Y-1385904D02*
X2157429Y-1376380D01*
X2157429Y-1376380D02*
X2147905Y-1366856D01*
X2147905Y-1366856D02*
X2138381Y-1347809D01*
X2138381Y-1347809D02*
X2128857Y-1309713D01*
X2128857Y-1309713D02*
X2128857Y-1262094D01*
X2128857Y-1262094D02*
X2138381Y-1223999D01*
X2138381Y-1223999D02*
X2147905Y-1204951D01*
X2147905Y-1204951D02*
X2157429Y-1195428D01*
X2157429Y-1195428D02*
X2176476Y-1185904D01*
X2328857Y-1366856D02*
X2338381Y-1376380D01*
X2338381Y-1376380D02*
X2328857Y-1385904D01*
X2328857Y-1385904D02*
X2319334Y-1376380D01*
X2319334Y-1376380D02*
X2328857Y-1366856D01*
X2328857Y-1366856D02*
X2328857Y-1385904D01*
X2414572Y-1204951D02*
X2424095Y-1195428D01*
X2424095Y-1195428D02*
X2443143Y-1185904D01*
X2443143Y-1185904D02*
X2490762Y-1185904D01*
X2490762Y-1185904D02*
X2509810Y-1195428D01*
X2509810Y-1195428D02*
X2519334Y-1204951D01*
X2519334Y-1204951D02*
X2528857Y-1223999D01*
X2528857Y-1223999D02*
X2528857Y-1243047D01*
X2528857Y-1243047D02*
X2519334Y-1271618D01*
X2519334Y-1271618D02*
X2405048Y-1385904D01*
X2405048Y-1385904D02*
X2528857Y-1385904D01*
X2700286Y-1185904D02*
X2662191Y-1185904D01*
X2662191Y-1185904D02*
X2643143Y-1195428D01*
X2643143Y-1195428D02*
X2633619Y-1204951D01*
X2633619Y-1204951D02*
X2614572Y-1233523D01*
X2614572Y-1233523D02*
X2605048Y-1271618D01*
X2605048Y-1271618D02*
X2605048Y-1347809D01*
X2605048Y-1347809D02*
X2614572Y-1366856D01*
X2614572Y-1366856D02*
X2624095Y-1376380D01*
X2624095Y-1376380D02*
X2643143Y-1385904D01*
X2643143Y-1385904D02*
X2681238Y-1385904D01*
X2681238Y-1385904D02*
X2700286Y-1376380D01*
X2700286Y-1376380D02*
X2709810Y-1366856D01*
X2709810Y-1366856D02*
X2719334Y-1347809D01*
X2719334Y-1347809D02*
X2719334Y-1300190D01*
X2719334Y-1300190D02*
X2709810Y-1281142D01*
X2709810Y-1281142D02*
X2700286Y-1271618D01*
X2700286Y-1271618D02*
X2681238Y-1262094D01*
X2681238Y-1262094D02*
X2643143Y-1262094D01*
X2643143Y-1262094D02*
X2624095Y-1271618D01*
X2624095Y-1271618D02*
X2614572Y-1281142D01*
X2614572Y-1281142D02*
X2605048Y-1300190D01*
X2843143Y-1185904D02*
X2862191Y-1185904D01*
X2862191Y-1185904D02*
X2881238Y-1195428D01*
X2881238Y-1195428D02*
X2890762Y-1204951D01*
X2890762Y-1204951D02*
X2900286Y-1223999D01*
X2900286Y-1223999D02*
X2909810Y-1262094D01*
X2909810Y-1262094D02*
X2909810Y-1309713D01*
X2909810Y-1309713D02*
X2900286Y-1347809D01*
X2900286Y-1347809D02*
X2890762Y-1366856D01*
X2890762Y-1366856D02*
X2881238Y-1376380D01*
X2881238Y-1376380D02*
X2862191Y-1385904D01*
X2862191Y-1385904D02*
X2843143Y-1385904D01*
X2843143Y-1385904D02*
X2824095Y-1376380D01*
X2824095Y-1376380D02*
X2814572Y-1366856D01*
X2814572Y-1366856D02*
X2805048Y-1347809D01*
X2805048Y-1347809D02*
X2795524Y-1309713D01*
X2795524Y-1309713D02*
X2795524Y-1262094D01*
X2795524Y-1262094D02*
X2805048Y-1223999D01*
X2805048Y-1223999D02*
X2814572Y-1204951D01*
X2814572Y-1204951D02*
X2824095Y-1195428D01*
X2824095Y-1195428D02*
X2843143Y-1185904D01*
X3033619Y-1185904D02*
X3052667Y-1185904D01*
X3052667Y-1185904D02*
X3071714Y-1195428D01*
X3071714Y-1195428D02*
X3081238Y-1204951D01*
X3081238Y-1204951D02*
X3090762Y-1223999D01*
X3090762Y-1223999D02*
X3100286Y-1262094D01*
X3100286Y-1262094D02*
X3100286Y-1309713D01*
X3100286Y-1309713D02*
X3090762Y-1347809D01*
X3090762Y-1347809D02*
X3081238Y-1366856D01*
X3081238Y-1366856D02*
X3071714Y-1376380D01*
X3071714Y-1376380D02*
X3052667Y-1385904D01*
X3052667Y-1385904D02*
X3033619Y-1385904D01*
X3033619Y-1385904D02*
X3014572Y-1376380D01*
X3014572Y-1376380D02*
X3005048Y-1366856D01*
X3005048Y-1366856D02*
X2995524Y-1347809D01*
X2995524Y-1347809D02*
X2986000Y-1309713D01*
X2986000Y-1309713D02*
X2986000Y-1262094D01*
X2986000Y-1262094D02*
X2995524Y-1223999D01*
X2995524Y-1223999D02*
X3005048Y-1204951D01*
X3005048Y-1204951D02*
X3014572Y-1195428D01*
X3014572Y-1195428D02*
X3033619Y-1185904D01*
X3176476Y-1185904D02*
X3176476Y-1223999D01*
X3252667Y-1185904D02*
X3252667Y-1223999D01*
X3547905Y-1462094D02*
X3538381Y-1452570D01*
X3538381Y-1452570D02*
X3519334Y-1423999D01*
X3519334Y-1423999D02*
X3509810Y-1404951D01*
X3509810Y-1404951D02*
X3500286Y-1376380D01*
X3500286Y-1376380D02*
X3490762Y-1328761D01*
X3490762Y-1328761D02*
X3490762Y-1290666D01*
X3490762Y-1290666D02*
X3500286Y-1243047D01*
X3500286Y-1243047D02*
X3509810Y-1214475D01*
X3509810Y-1214475D02*
X3519334Y-1195428D01*
X3519334Y-1195428D02*
X3538381Y-1166856D01*
X3538381Y-1166856D02*
X3547905Y-1157332D01*
X3728857Y-1385904D02*
X3614572Y-1385904D01*
X3671714Y-1385904D02*
X3671714Y-1185904D01*
X3671714Y-1185904D02*
X3652667Y-1214475D01*
X3652667Y-1214475D02*
X3633619Y-1233523D01*
X3633619Y-1233523D02*
X3614572Y-1243047D01*
X3805048Y-1204951D02*
X3814572Y-1195428D01*
X3814572Y-1195428D02*
X3833619Y-1185904D01*
X3833619Y-1185904D02*
X3881238Y-1185904D01*
X3881238Y-1185904D02*
X3900286Y-1195428D01*
X3900286Y-1195428D02*
X3909810Y-1204951D01*
X3909810Y-1204951D02*
X3919334Y-1223999D01*
X3919334Y-1223999D02*
X3919334Y-1243047D01*
X3919334Y-1243047D02*
X3909810Y-1271618D01*
X3909810Y-1271618D02*
X3795524Y-1385904D01*
X3795524Y-1385904D02*
X3919334Y-1385904D01*
X4157429Y-1385904D02*
X4157429Y-1185904D01*
X4243143Y-1385904D02*
X4243143Y-1281142D01*
X4243143Y-1281142D02*
X4233619Y-1262094D01*
X4233619Y-1262094D02*
X4214572Y-1252570D01*
X4214572Y-1252570D02*
X4186000Y-1252570D01*
X4186000Y-1252570D02*
X4166953Y-1262094D01*
X4166953Y-1262094D02*
X4157429Y-1271618D01*
X4366953Y-1385904D02*
X4347905Y-1376380D01*
X4347905Y-1376380D02*
X4338381Y-1366856D01*
X4338381Y-1366856D02*
X4328858Y-1347809D01*
X4328858Y-1347809D02*
X4328858Y-1290666D01*
X4328858Y-1290666D02*
X4338381Y-1271618D01*
X4338381Y-1271618D02*
X4347905Y-1262094D01*
X4347905Y-1262094D02*
X4366953Y-1252570D01*
X4366953Y-1252570D02*
X4395524Y-1252570D01*
X4395524Y-1252570D02*
X4414572Y-1262094D01*
X4414572Y-1262094D02*
X4424096Y-1271618D01*
X4424096Y-1271618D02*
X4433619Y-1290666D01*
X4433619Y-1290666D02*
X4433619Y-1347809D01*
X4433619Y-1347809D02*
X4424096Y-1366856D01*
X4424096Y-1366856D02*
X4414572Y-1376380D01*
X4414572Y-1376380D02*
X4395524Y-1385904D01*
X4395524Y-1385904D02*
X4366953Y-1385904D01*
X4547905Y-1385904D02*
X4528858Y-1376380D01*
X4528858Y-1376380D02*
X4519334Y-1357332D01*
X4519334Y-1357332D02*
X4519334Y-1185904D01*
X4700286Y-1376380D02*
X4681239Y-1385904D01*
X4681239Y-1385904D02*
X4643143Y-1385904D01*
X4643143Y-1385904D02*
X4624096Y-1376380D01*
X4624096Y-1376380D02*
X4614572Y-1357332D01*
X4614572Y-1357332D02*
X4614572Y-1281142D01*
X4614572Y-1281142D02*
X4624096Y-1262094D01*
X4624096Y-1262094D02*
X4643143Y-1252570D01*
X4643143Y-1252570D02*
X4681239Y-1252570D01*
X4681239Y-1252570D02*
X4700286Y-1262094D01*
X4700286Y-1262094D02*
X4709810Y-1281142D01*
X4709810Y-1281142D02*
X4709810Y-1300190D01*
X4709810Y-1300190D02*
X4614572Y-1319237D01*
X4786000Y-1376380D02*
X4805048Y-1385904D01*
X4805048Y-1385904D02*
X4843143Y-1385904D01*
X4843143Y-1385904D02*
X4862191Y-1376380D01*
X4862191Y-1376380D02*
X4871715Y-1357332D01*
X4871715Y-1357332D02*
X4871715Y-1347809D01*
X4871715Y-1347809D02*
X4862191Y-1328761D01*
X4862191Y-1328761D02*
X4843143Y-1319237D01*
X4843143Y-1319237D02*
X4814572Y-1319237D01*
X4814572Y-1319237D02*
X4795524Y-1309713D01*
X4795524Y-1309713D02*
X4786000Y-1290666D01*
X4786000Y-1290666D02*
X4786000Y-1281142D01*
X4786000Y-1281142D02*
X4795524Y-1262094D01*
X4795524Y-1262094D02*
X4814572Y-1252570D01*
X4814572Y-1252570D02*
X4843143Y-1252570D01*
X4843143Y-1252570D02*
X4862191Y-1262094D01*
X4938381Y-1462094D02*
X4947905Y-1452570D01*
X4947905Y-1452570D02*
X4966953Y-1423999D01*
X4966953Y-1423999D02*
X4976477Y-1404951D01*
X4976477Y-1404951D02*
X4986000Y-1376380D01*
X4986000Y-1376380D02*
X4995524Y-1328761D01*
X4995524Y-1328761D02*
X4995524Y-1290666D01*
X4995524Y-1290666D02*
X4986000Y-1243047D01*
X4986000Y-1243047D02*
X4976477Y-1214475D01*
X4976477Y-1214475D02*
X4966953Y-1195428D01*
X4966953Y-1195428D02*
X4947905Y-1166856D01*
X4947905Y-1166856D02*
X4938381Y-1157332D01*
X-43289Y-1684091D02*
X-43289Y-1542669D01*
X-184711Y-1542669D01*
X-184711Y-1684091D01*
X-43289Y-1684091D01*
X214571Y-1505904D02*
X347905Y-1505904D01*
X347905Y-1505904D02*
X262190Y-1705904D01*
X424095Y-1686856D02*
X433619Y-1696380D01*
X433619Y-1696380D02*
X424095Y-1705904D01*
X424095Y-1705904D02*
X414571Y-1696380D01*
X414571Y-1696380D02*
X424095Y-1686856D01*
X424095Y-1686856D02*
X424095Y-1705904D01*
X624095Y-1705904D02*
X509809Y-1705904D01*
X566952Y-1705904D02*
X566952Y-1505904D01*
X566952Y-1505904D02*
X547905Y-1534475D01*
X547905Y-1534475D02*
X528857Y-1553523D01*
X528857Y-1553523D02*
X509809Y-1563047D01*
X814571Y-1705904D02*
X700286Y-1705904D01*
X757428Y-1705904D02*
X757428Y-1505904D01*
X757428Y-1505904D02*
X738381Y-1534475D01*
X738381Y-1534475D02*
X719333Y-1553523D01*
X719333Y-1553523D02*
X700286Y-1563047D01*
X890762Y-1524951D02*
X900286Y-1515428D01*
X900286Y-1515428D02*
X919333Y-1505904D01*
X919333Y-1505904D02*
X966952Y-1505904D01*
X966952Y-1505904D02*
X986000Y-1515428D01*
X986000Y-1515428D02*
X995524Y-1524951D01*
X995524Y-1524951D02*
X1005048Y-1543999D01*
X1005048Y-1543999D02*
X1005048Y-1563047D01*
X1005048Y-1563047D02*
X995524Y-1591618D01*
X995524Y-1591618D02*
X881238Y-1705904D01*
X881238Y-1705904D02*
X1005048Y-1705904D01*
X1090762Y-1705904D02*
X1090762Y-1572570D01*
X1090762Y-1591618D02*
X1100286Y-1582094D01*
X1100286Y-1582094D02*
X1119333Y-1572570D01*
X1119333Y-1572570D02*
X1147905Y-1572570D01*
X1147905Y-1572570D02*
X1166952Y-1582094D01*
X1166952Y-1582094D02*
X1176476Y-1601142D01*
X1176476Y-1601142D02*
X1176476Y-1705904D01*
X1176476Y-1601142D02*
X1186000Y-1582094D01*
X1186000Y-1582094D02*
X1205048Y-1572570D01*
X1205048Y-1572570D02*
X1233619Y-1572570D01*
X1233619Y-1572570D02*
X1252667Y-1582094D01*
X1252667Y-1582094D02*
X1262191Y-1601142D01*
X1262191Y-1601142D02*
X1262191Y-1705904D01*
X1357429Y-1705904D02*
X1357429Y-1572570D01*
X1357429Y-1591618D02*
X1366952Y-1582094D01*
X1366952Y-1582094D02*
X1386000Y-1572570D01*
X1386000Y-1572570D02*
X1414571Y-1572570D01*
X1414571Y-1572570D02*
X1433619Y-1582094D01*
X1433619Y-1582094D02*
X1443143Y-1601142D01*
X1443143Y-1601142D02*
X1443143Y-1705904D01*
X1443143Y-1601142D02*
X1452667Y-1582094D01*
X1452667Y-1582094D02*
X1471714Y-1572570D01*
X1471714Y-1572570D02*
X1500286Y-1572570D01*
X1500286Y-1572570D02*
X1519333Y-1582094D01*
X1519333Y-1582094D02*
X1528857Y-1601142D01*
X1528857Y-1601142D02*
X1528857Y-1705904D01*
X1919333Y-1496380D02*
X1747905Y-1753523D01*
X2176476Y-1505904D02*
X2195524Y-1505904D01*
X2195524Y-1505904D02*
X2214572Y-1515428D01*
X2214572Y-1515428D02*
X2224095Y-1524951D01*
X2224095Y-1524951D02*
X2233619Y-1543999D01*
X2233619Y-1543999D02*
X2243143Y-1582094D01*
X2243143Y-1582094D02*
X2243143Y-1629713D01*
X2243143Y-1629713D02*
X2233619Y-1667808D01*
X2233619Y-1667808D02*
X2224095Y-1686856D01*
X2224095Y-1686856D02*
X2214572Y-1696380D01*
X2214572Y-1696380D02*
X2195524Y-1705904D01*
X2195524Y-1705904D02*
X2176476Y-1705904D01*
X2176476Y-1705904D02*
X2157429Y-1696380D01*
X2157429Y-1696380D02*
X2147905Y-1686856D01*
X2147905Y-1686856D02*
X2138381Y-1667808D01*
X2138381Y-1667808D02*
X2128857Y-1629713D01*
X2128857Y-1629713D02*
X2128857Y-1582094D01*
X2128857Y-1582094D02*
X2138381Y-1543999D01*
X2138381Y-1543999D02*
X2147905Y-1524951D01*
X2147905Y-1524951D02*
X2157429Y-1515428D01*
X2157429Y-1515428D02*
X2176476Y-1505904D01*
X2328857Y-1686856D02*
X2338381Y-1696380D01*
X2338381Y-1696380D02*
X2328857Y-1705904D01*
X2328857Y-1705904D02*
X2319334Y-1696380D01*
X2319334Y-1696380D02*
X2328857Y-1686856D01*
X2328857Y-1686856D02*
X2328857Y-1705904D01*
X2414572Y-1524951D02*
X2424095Y-1515428D01*
X2424095Y-1515428D02*
X2443143Y-1505904D01*
X2443143Y-1505904D02*
X2490762Y-1505904D01*
X2490762Y-1505904D02*
X2509810Y-1515428D01*
X2509810Y-1515428D02*
X2519334Y-1524951D01*
X2519334Y-1524951D02*
X2528857Y-1543999D01*
X2528857Y-1543999D02*
X2528857Y-1563047D01*
X2528857Y-1563047D02*
X2519334Y-1591618D01*
X2519334Y-1591618D02*
X2405048Y-1705904D01*
X2405048Y-1705904D02*
X2528857Y-1705904D01*
X2643143Y-1591618D02*
X2624095Y-1582094D01*
X2624095Y-1582094D02*
X2614572Y-1572570D01*
X2614572Y-1572570D02*
X2605048Y-1553523D01*
X2605048Y-1553523D02*
X2605048Y-1543999D01*
X2605048Y-1543999D02*
X2614572Y-1524951D01*
X2614572Y-1524951D02*
X2624095Y-1515428D01*
X2624095Y-1515428D02*
X2643143Y-1505904D01*
X2643143Y-1505904D02*
X2681238Y-1505904D01*
X2681238Y-1505904D02*
X2700286Y-1515428D01*
X2700286Y-1515428D02*
X2709810Y-1524951D01*
X2709810Y-1524951D02*
X2719334Y-1543999D01*
X2719334Y-1543999D02*
X2719334Y-1553523D01*
X2719334Y-1553523D02*
X2709810Y-1572570D01*
X2709810Y-1572570D02*
X2700286Y-1582094D01*
X2700286Y-1582094D02*
X2681238Y-1591618D01*
X2681238Y-1591618D02*
X2643143Y-1591618D01*
X2643143Y-1591618D02*
X2624095Y-1601142D01*
X2624095Y-1601142D02*
X2614572Y-1610666D01*
X2614572Y-1610666D02*
X2605048Y-1629713D01*
X2605048Y-1629713D02*
X2605048Y-1667808D01*
X2605048Y-1667808D02*
X2614572Y-1686856D01*
X2614572Y-1686856D02*
X2624095Y-1696380D01*
X2624095Y-1696380D02*
X2643143Y-1705904D01*
X2643143Y-1705904D02*
X2681238Y-1705904D01*
X2681238Y-1705904D02*
X2700286Y-1696380D01*
X2700286Y-1696380D02*
X2709810Y-1686856D01*
X2709810Y-1686856D02*
X2719334Y-1667808D01*
X2719334Y-1667808D02*
X2719334Y-1629713D01*
X2719334Y-1629713D02*
X2709810Y-1610666D01*
X2709810Y-1610666D02*
X2700286Y-1601142D01*
X2700286Y-1601142D02*
X2681238Y-1591618D01*
X2843143Y-1505904D02*
X2862191Y-1505904D01*
X2862191Y-1505904D02*
X2881238Y-1515428D01*
X2881238Y-1515428D02*
X2890762Y-1524951D01*
X2890762Y-1524951D02*
X2900286Y-1543999D01*
X2900286Y-1543999D02*
X2909810Y-1582094D01*
X2909810Y-1582094D02*
X2909810Y-1629713D01*
X2909810Y-1629713D02*
X2900286Y-1667808D01*
X2900286Y-1667808D02*
X2890762Y-1686856D01*
X2890762Y-1686856D02*
X2881238Y-1696380D01*
X2881238Y-1696380D02*
X2862191Y-1705904D01*
X2862191Y-1705904D02*
X2843143Y-1705904D01*
X2843143Y-1705904D02*
X2824095Y-1696380D01*
X2824095Y-1696380D02*
X2814572Y-1686856D01*
X2814572Y-1686856D02*
X2805048Y-1667808D01*
X2805048Y-1667808D02*
X2795524Y-1629713D01*
X2795524Y-1629713D02*
X2795524Y-1582094D01*
X2795524Y-1582094D02*
X2805048Y-1543999D01*
X2805048Y-1543999D02*
X2814572Y-1524951D01*
X2814572Y-1524951D02*
X2824095Y-1515428D01*
X2824095Y-1515428D02*
X2843143Y-1505904D01*
X3033619Y-1505904D02*
X3052667Y-1505904D01*
X3052667Y-1505904D02*
X3071714Y-1515428D01*
X3071714Y-1515428D02*
X3081238Y-1524951D01*
X3081238Y-1524951D02*
X3090762Y-1543999D01*
X3090762Y-1543999D02*
X3100286Y-1582094D01*
X3100286Y-1582094D02*
X3100286Y-1629713D01*
X3100286Y-1629713D02*
X3090762Y-1667808D01*
X3090762Y-1667808D02*
X3081238Y-1686856D01*
X3081238Y-1686856D02*
X3071714Y-1696380D01*
X3071714Y-1696380D02*
X3052667Y-1705904D01*
X3052667Y-1705904D02*
X3033619Y-1705904D01*
X3033619Y-1705904D02*
X3014572Y-1696380D01*
X3014572Y-1696380D02*
X3005048Y-1686856D01*
X3005048Y-1686856D02*
X2995524Y-1667808D01*
X2995524Y-1667808D02*
X2986000Y-1629713D01*
X2986000Y-1629713D02*
X2986000Y-1582094D01*
X2986000Y-1582094D02*
X2995524Y-1543999D01*
X2995524Y-1543999D02*
X3005048Y-1524951D01*
X3005048Y-1524951D02*
X3014572Y-1515428D01*
X3014572Y-1515428D02*
X3033619Y-1505904D01*
X3176476Y-1505904D02*
X3176476Y-1543999D01*
X3252667Y-1505904D02*
X3252667Y-1543999D01*
X3547905Y-1782094D02*
X3538381Y-1772570D01*
X3538381Y-1772570D02*
X3519334Y-1743999D01*
X3519334Y-1743999D02*
X3509810Y-1724951D01*
X3509810Y-1724951D02*
X3500286Y-1696380D01*
X3500286Y-1696380D02*
X3490762Y-1648761D01*
X3490762Y-1648761D02*
X3490762Y-1610666D01*
X3490762Y-1610666D02*
X3500286Y-1563047D01*
X3500286Y-1563047D02*
X3509810Y-1534475D01*
X3509810Y-1534475D02*
X3519334Y-1515428D01*
X3519334Y-1515428D02*
X3538381Y-1486856D01*
X3538381Y-1486856D02*
X3547905Y-1477332D01*
X3709810Y-1572570D02*
X3709810Y-1705904D01*
X3662191Y-1496380D02*
X3614572Y-1639237D01*
X3614572Y-1639237D02*
X3738381Y-1639237D01*
X3966953Y-1705904D02*
X3966953Y-1505904D01*
X4052667Y-1705904D02*
X4052667Y-1601142D01*
X4052667Y-1601142D02*
X4043143Y-1582094D01*
X4043143Y-1582094D02*
X4024096Y-1572570D01*
X4024096Y-1572570D02*
X3995524Y-1572570D01*
X3995524Y-1572570D02*
X3976476Y-1582094D01*
X3976476Y-1582094D02*
X3966953Y-1591618D01*
X4176476Y-1705904D02*
X4157429Y-1696380D01*
X4157429Y-1696380D02*
X4147905Y-1686856D01*
X4147905Y-1686856D02*
X4138381Y-1667808D01*
X4138381Y-1667808D02*
X4138381Y-1610666D01*
X4138381Y-1610666D02*
X4147905Y-1591618D01*
X4147905Y-1591618D02*
X4157429Y-1582094D01*
X4157429Y-1582094D02*
X4176476Y-1572570D01*
X4176476Y-1572570D02*
X4205048Y-1572570D01*
X4205048Y-1572570D02*
X4224096Y-1582094D01*
X4224096Y-1582094D02*
X4233619Y-1591618D01*
X4233619Y-1591618D02*
X4243143Y-1610666D01*
X4243143Y-1610666D02*
X4243143Y-1667808D01*
X4243143Y-1667808D02*
X4233619Y-1686856D01*
X4233619Y-1686856D02*
X4224096Y-1696380D01*
X4224096Y-1696380D02*
X4205048Y-1705904D01*
X4205048Y-1705904D02*
X4176476Y-1705904D01*
X4357429Y-1705904D02*
X4338381Y-1696380D01*
X4338381Y-1696380D02*
X4328858Y-1677332D01*
X4328858Y-1677332D02*
X4328858Y-1505904D01*
X4509810Y-1696380D02*
X4490762Y-1705904D01*
X4490762Y-1705904D02*
X4452667Y-1705904D01*
X4452667Y-1705904D02*
X4433619Y-1696380D01*
X4433619Y-1696380D02*
X4424096Y-1677332D01*
X4424096Y-1677332D02*
X4424096Y-1601142D01*
X4424096Y-1601142D02*
X4433619Y-1582094D01*
X4433619Y-1582094D02*
X4452667Y-1572570D01*
X4452667Y-1572570D02*
X4490762Y-1572570D01*
X4490762Y-1572570D02*
X4509810Y-1582094D01*
X4509810Y-1582094D02*
X4519334Y-1601142D01*
X4519334Y-1601142D02*
X4519334Y-1620189D01*
X4519334Y-1620189D02*
X4424096Y-1639237D01*
X4595524Y-1696380D02*
X4614572Y-1705904D01*
X4614572Y-1705904D02*
X4652667Y-1705904D01*
X4652667Y-1705904D02*
X4671715Y-1696380D01*
X4671715Y-1696380D02*
X4681239Y-1677332D01*
X4681239Y-1677332D02*
X4681239Y-1667808D01*
X4681239Y-1667808D02*
X4671715Y-1648761D01*
X4671715Y-1648761D02*
X4652667Y-1639237D01*
X4652667Y-1639237D02*
X4624096Y-1639237D01*
X4624096Y-1639237D02*
X4605048Y-1629713D01*
X4605048Y-1629713D02*
X4595524Y-1610666D01*
X4595524Y-1610666D02*
X4595524Y-1601142D01*
X4595524Y-1601142D02*
X4605048Y-1582094D01*
X4605048Y-1582094D02*
X4624096Y-1572570D01*
X4624096Y-1572570D02*
X4652667Y-1572570D01*
X4652667Y-1572570D02*
X4671715Y-1582094D01*
X4747905Y-1782094D02*
X4757429Y-1772570D01*
X4757429Y-1772570D02*
X4776477Y-1743999D01*
X4776477Y-1743999D02*
X4786000Y-1724951D01*
X4786000Y-1724951D02*
X4795524Y-1696380D01*
X4795524Y-1696380D02*
X4805048Y-1648761D01*
X4805048Y-1648761D02*
X4805048Y-1610666D01*
X4805048Y-1610666D02*
X4795524Y-1563047D01*
X4795524Y-1563047D02*
X4786000Y-1534475D01*
X4786000Y-1534475D02*
X4776477Y-1515428D01*
X4776477Y-1515428D02*
X4757429Y-1486856D01*
X4757429Y-1486856D02*
X4747905Y-1477332D01*
X-114000Y-2033380D02*
X-14000Y-1933380D01*
X-114000Y-1833380D01*
X-214000Y-1933380D01*
X-114000Y-2033380D01*
X214571Y-1825904D02*
X347905Y-1825904D01*
X347905Y-1825904D02*
X262190Y-2025904D01*
X424095Y-2006856D02*
X433619Y-2016380D01*
X433619Y-2016380D02*
X424095Y-2025904D01*
X424095Y-2025904D02*
X414571Y-2016380D01*
X414571Y-2016380D02*
X424095Y-2006856D01*
X424095Y-2006856D02*
X424095Y-2025904D01*
X500286Y-1825904D02*
X633619Y-1825904D01*
X633619Y-1825904D02*
X547905Y-2025904D01*
X795524Y-1892570D02*
X795524Y-2025904D01*
X747905Y-1816380D02*
X700286Y-1959237D01*
X700286Y-1959237D02*
X824095Y-1959237D01*
X881238Y-1825904D02*
X1014571Y-1825904D01*
X1014571Y-1825904D02*
X928857Y-2025904D01*
X1090762Y-2025904D02*
X1090762Y-1892570D01*
X1090762Y-1911618D02*
X1100286Y-1902094D01*
X1100286Y-1902094D02*
X1119333Y-1892570D01*
X1119333Y-1892570D02*
X1147905Y-1892570D01*
X1147905Y-1892570D02*
X1166952Y-1902094D01*
X1166952Y-1902094D02*
X1176476Y-1921142D01*
X1176476Y-1921142D02*
X1176476Y-2025904D01*
X1176476Y-1921142D02*
X1186000Y-1902094D01*
X1186000Y-1902094D02*
X1205048Y-1892570D01*
X1205048Y-1892570D02*
X1233619Y-1892570D01*
X1233619Y-1892570D02*
X1252667Y-1902094D01*
X1252667Y-1902094D02*
X1262191Y-1921142D01*
X1262191Y-1921142D02*
X1262191Y-2025904D01*
X1357429Y-2025904D02*
X1357429Y-1892570D01*
X1357429Y-1911618D02*
X1366952Y-1902094D01*
X1366952Y-1902094D02*
X1386000Y-1892570D01*
X1386000Y-1892570D02*
X1414571Y-1892570D01*
X1414571Y-1892570D02*
X1433619Y-1902094D01*
X1433619Y-1902094D02*
X1443143Y-1921142D01*
X1443143Y-1921142D02*
X1443143Y-2025904D01*
X1443143Y-1921142D02*
X1452667Y-1902094D01*
X1452667Y-1902094D02*
X1471714Y-1892570D01*
X1471714Y-1892570D02*
X1500286Y-1892570D01*
X1500286Y-1892570D02*
X1519333Y-1902094D01*
X1519333Y-1902094D02*
X1528857Y-1921142D01*
X1528857Y-1921142D02*
X1528857Y-2025904D01*
X1919333Y-1816380D02*
X1747905Y-2073523D01*
X2176476Y-1825904D02*
X2195524Y-1825904D01*
X2195524Y-1825904D02*
X2214572Y-1835428D01*
X2214572Y-1835428D02*
X2224095Y-1844951D01*
X2224095Y-1844951D02*
X2233619Y-1863999D01*
X2233619Y-1863999D02*
X2243143Y-1902094D01*
X2243143Y-1902094D02*
X2243143Y-1949713D01*
X2243143Y-1949713D02*
X2233619Y-1987808D01*
X2233619Y-1987808D02*
X2224095Y-2006856D01*
X2224095Y-2006856D02*
X2214572Y-2016380D01*
X2214572Y-2016380D02*
X2195524Y-2025904D01*
X2195524Y-2025904D02*
X2176476Y-2025904D01*
X2176476Y-2025904D02*
X2157429Y-2016380D01*
X2157429Y-2016380D02*
X2147905Y-2006856D01*
X2147905Y-2006856D02*
X2138381Y-1987808D01*
X2138381Y-1987808D02*
X2128857Y-1949713D01*
X2128857Y-1949713D02*
X2128857Y-1902094D01*
X2128857Y-1902094D02*
X2138381Y-1863999D01*
X2138381Y-1863999D02*
X2147905Y-1844951D01*
X2147905Y-1844951D02*
X2157429Y-1835428D01*
X2157429Y-1835428D02*
X2176476Y-1825904D01*
X2328857Y-2006856D02*
X2338381Y-2016380D01*
X2338381Y-2016380D02*
X2328857Y-2025904D01*
X2328857Y-2025904D02*
X2319334Y-2016380D01*
X2319334Y-2016380D02*
X2328857Y-2006856D01*
X2328857Y-2006856D02*
X2328857Y-2025904D01*
X2405048Y-1825904D02*
X2528857Y-1825904D01*
X2528857Y-1825904D02*
X2462191Y-1902094D01*
X2462191Y-1902094D02*
X2490762Y-1902094D01*
X2490762Y-1902094D02*
X2509810Y-1911618D01*
X2509810Y-1911618D02*
X2519334Y-1921142D01*
X2519334Y-1921142D02*
X2528857Y-1940189D01*
X2528857Y-1940189D02*
X2528857Y-1987808D01*
X2528857Y-1987808D02*
X2519334Y-2006856D01*
X2519334Y-2006856D02*
X2509810Y-2016380D01*
X2509810Y-2016380D02*
X2490762Y-2025904D01*
X2490762Y-2025904D02*
X2433619Y-2025904D01*
X2433619Y-2025904D02*
X2414572Y-2016380D01*
X2414572Y-2016380D02*
X2405048Y-2006856D01*
X2652667Y-1825904D02*
X2671715Y-1825904D01*
X2671715Y-1825904D02*
X2690762Y-1835428D01*
X2690762Y-1835428D02*
X2700286Y-1844951D01*
X2700286Y-1844951D02*
X2709810Y-1863999D01*
X2709810Y-1863999D02*
X2719334Y-1902094D01*
X2719334Y-1902094D02*
X2719334Y-1949713D01*
X2719334Y-1949713D02*
X2709810Y-1987808D01*
X2709810Y-1987808D02*
X2700286Y-2006856D01*
X2700286Y-2006856D02*
X2690762Y-2016380D01*
X2690762Y-2016380D02*
X2671715Y-2025904D01*
X2671715Y-2025904D02*
X2652667Y-2025904D01*
X2652667Y-2025904D02*
X2633619Y-2016380D01*
X2633619Y-2016380D02*
X2624095Y-2006856D01*
X2624095Y-2006856D02*
X2614572Y-1987808D01*
X2614572Y-1987808D02*
X2605048Y-1949713D01*
X2605048Y-1949713D02*
X2605048Y-1902094D01*
X2605048Y-1902094D02*
X2614572Y-1863999D01*
X2614572Y-1863999D02*
X2624095Y-1844951D01*
X2624095Y-1844951D02*
X2633619Y-1835428D01*
X2633619Y-1835428D02*
X2652667Y-1825904D01*
X2900286Y-1825904D02*
X2805048Y-1825904D01*
X2805048Y-1825904D02*
X2795524Y-1921142D01*
X2795524Y-1921142D02*
X2805048Y-1911618D01*
X2805048Y-1911618D02*
X2824095Y-1902094D01*
X2824095Y-1902094D02*
X2871714Y-1902094D01*
X2871714Y-1902094D02*
X2890762Y-1911618D01*
X2890762Y-1911618D02*
X2900286Y-1921142D01*
X2900286Y-1921142D02*
X2909810Y-1940189D01*
X2909810Y-1940189D02*
X2909810Y-1987808D01*
X2909810Y-1987808D02*
X2900286Y-2006856D01*
X2900286Y-2006856D02*
X2890762Y-2016380D01*
X2890762Y-2016380D02*
X2871714Y-2025904D01*
X2871714Y-2025904D02*
X2824095Y-2025904D01*
X2824095Y-2025904D02*
X2805048Y-2016380D01*
X2805048Y-2016380D02*
X2795524Y-2006856D01*
X3033619Y-1825904D02*
X3052667Y-1825904D01*
X3052667Y-1825904D02*
X3071714Y-1835428D01*
X3071714Y-1835428D02*
X3081238Y-1844951D01*
X3081238Y-1844951D02*
X3090762Y-1863999D01*
X3090762Y-1863999D02*
X3100286Y-1902094D01*
X3100286Y-1902094D02*
X3100286Y-1949713D01*
X3100286Y-1949713D02*
X3090762Y-1987808D01*
X3090762Y-1987808D02*
X3081238Y-2006856D01*
X3081238Y-2006856D02*
X3071714Y-2016380D01*
X3071714Y-2016380D02*
X3052667Y-2025904D01*
X3052667Y-2025904D02*
X3033619Y-2025904D01*
X3033619Y-2025904D02*
X3014572Y-2016380D01*
X3014572Y-2016380D02*
X3005048Y-2006856D01*
X3005048Y-2006856D02*
X2995524Y-1987808D01*
X2995524Y-1987808D02*
X2986000Y-1949713D01*
X2986000Y-1949713D02*
X2986000Y-1902094D01*
X2986000Y-1902094D02*
X2995524Y-1863999D01*
X2995524Y-1863999D02*
X3005048Y-1844951D01*
X3005048Y-1844951D02*
X3014572Y-1835428D01*
X3014572Y-1835428D02*
X3033619Y-1825904D01*
X3176476Y-1825904D02*
X3176476Y-1863999D01*
X3252667Y-1825904D02*
X3252667Y-1863999D01*
X3547905Y-2102094D02*
X3538381Y-2092570D01*
X3538381Y-2092570D02*
X3519334Y-2063999D01*
X3519334Y-2063999D02*
X3509810Y-2044951D01*
X3509810Y-2044951D02*
X3500286Y-2016380D01*
X3500286Y-2016380D02*
X3490762Y-1968761D01*
X3490762Y-1968761D02*
X3490762Y-1930666D01*
X3490762Y-1930666D02*
X3500286Y-1883047D01*
X3500286Y-1883047D02*
X3509810Y-1854475D01*
X3509810Y-1854475D02*
X3519334Y-1835428D01*
X3519334Y-1835428D02*
X3538381Y-1806856D01*
X3538381Y-1806856D02*
X3547905Y-1797332D01*
X3728857Y-2025904D02*
X3614572Y-2025904D01*
X3671714Y-2025904D02*
X3671714Y-1825904D01*
X3671714Y-1825904D02*
X3652667Y-1854475D01*
X3652667Y-1854475D02*
X3633619Y-1873523D01*
X3633619Y-1873523D02*
X3614572Y-1883047D01*
X3966953Y-2025904D02*
X3966953Y-1825904D01*
X4052667Y-2025904D02*
X4052667Y-1921142D01*
X4052667Y-1921142D02*
X4043143Y-1902094D01*
X4043143Y-1902094D02*
X4024096Y-1892570D01*
X4024096Y-1892570D02*
X3995524Y-1892570D01*
X3995524Y-1892570D02*
X3976476Y-1902094D01*
X3976476Y-1902094D02*
X3966953Y-1911618D01*
X4176476Y-2025904D02*
X4157429Y-2016380D01*
X4157429Y-2016380D02*
X4147905Y-2006856D01*
X4147905Y-2006856D02*
X4138381Y-1987808D01*
X4138381Y-1987808D02*
X4138381Y-1930666D01*
X4138381Y-1930666D02*
X4147905Y-1911618D01*
X4147905Y-1911618D02*
X4157429Y-1902094D01*
X4157429Y-1902094D02*
X4176476Y-1892570D01*
X4176476Y-1892570D02*
X4205048Y-1892570D01*
X4205048Y-1892570D02*
X4224096Y-1902094D01*
X4224096Y-1902094D02*
X4233619Y-1911618D01*
X4233619Y-1911618D02*
X4243143Y-1930666D01*
X4243143Y-1930666D02*
X4243143Y-1987808D01*
X4243143Y-1987808D02*
X4233619Y-2006856D01*
X4233619Y-2006856D02*
X4224096Y-2016380D01*
X4224096Y-2016380D02*
X4205048Y-2025904D01*
X4205048Y-2025904D02*
X4176476Y-2025904D01*
X4357429Y-2025904D02*
X4338381Y-2016380D01*
X4338381Y-2016380D02*
X4328858Y-1997332D01*
X4328858Y-1997332D02*
X4328858Y-1825904D01*
X4509810Y-2016380D02*
X4490762Y-2025904D01*
X4490762Y-2025904D02*
X4452667Y-2025904D01*
X4452667Y-2025904D02*
X4433619Y-2016380D01*
X4433619Y-2016380D02*
X4424096Y-1997332D01*
X4424096Y-1997332D02*
X4424096Y-1921142D01*
X4424096Y-1921142D02*
X4433619Y-1902094D01*
X4433619Y-1902094D02*
X4452667Y-1892570D01*
X4452667Y-1892570D02*
X4490762Y-1892570D01*
X4490762Y-1892570D02*
X4509810Y-1902094D01*
X4509810Y-1902094D02*
X4519334Y-1921142D01*
X4519334Y-1921142D02*
X4519334Y-1940189D01*
X4519334Y-1940189D02*
X4424096Y-1959237D01*
X4586000Y-2102094D02*
X4595524Y-2092570D01*
X4595524Y-2092570D02*
X4614572Y-2063999D01*
X4614572Y-2063999D02*
X4624096Y-2044951D01*
X4624096Y-2044951D02*
X4633619Y-2016380D01*
X4633619Y-2016380D02*
X4643143Y-1968761D01*
X4643143Y-1968761D02*
X4643143Y-1930666D01*
X4643143Y-1930666D02*
X4633619Y-1883047D01*
X4633619Y-1883047D02*
X4624096Y-1854475D01*
X4624096Y-1854475D02*
X4614572Y-1835428D01*
X4614572Y-1835428D02*
X4595524Y-1806856D01*
X4595524Y-1806856D02*
X4586000Y-1797332D01*
M02*
