G04 #@! TF.GenerationSoftware,KiCad,Pcbnew,(7.0.0-0)*
G04 #@! TF.CreationDate,2023-03-22T15:58:19-07:00*
G04 #@! TF.ProjectId,Kit-Trig-Sampler-FACEPLATE,4b69742d-5472-4696-972d-53616d706c65,rev?*
G04 #@! TF.SameCoordinates,PXa661c0PY7cdd488*
G04 #@! TF.FileFunction,Copper,L2,Bot*
G04 #@! TF.FilePolarity,Positive*
%FSLAX46Y46*%
G04 Gerber Fmt 4.6, Leading zero omitted, Abs format (unit mm)*
G04 Created by KiCad (PCBNEW (7.0.0-0)) date 2023-03-22 15:58:19*
%MOMM*%
%LPD*%
G01*
G04 APERTURE LIST*
G04 #@! TA.AperFunction,SMDPad,CuDef*
%ADD10R,79.700000X8.000000*%
G04 #@! TD*
G04 #@! TA.AperFunction,ComponentPad*
%ADD11C,7.620000*%
G04 #@! TD*
G04 #@! TA.AperFunction,ComponentPad*
%ADD12C,7.874000*%
G04 #@! TD*
G04 #@! TA.AperFunction,ComponentPad*
%ADD13O,7.366000X4.191000*%
G04 #@! TD*
G04 #@! TA.AperFunction,ComponentPad*
%ADD14C,5.969000*%
G04 #@! TD*
G04 #@! TA.AperFunction,ComponentPad*
%ADD15C,8.051800*%
G04 #@! TD*
G04 APERTURE END LIST*
D10*
X40155999Y123559799D03*
X39935999Y4239799D03*
D11*
X9371000Y32672564D03*
D12*
X52796000Y70159800D03*
D13*
X7138999Y125148799D03*
D14*
X67796000Y111222564D03*
D11*
X12696000Y48472564D03*
X29139000Y32672564D03*
D12*
X12196000Y89747564D03*
D15*
X40096000Y108947564D03*
D11*
X9371000Y17247564D03*
D12*
X67996000Y89747564D03*
D11*
X49246000Y48472564D03*
X70821000Y32672564D03*
D13*
X73052999Y125148799D03*
D11*
X31021000Y48472564D03*
D12*
X27396000Y70115481D03*
D13*
X73052999Y2643199D03*
D11*
X51026000Y17247564D03*
X51053000Y32672564D03*
X29166000Y17247564D03*
D13*
X7138999Y2643199D03*
D11*
X67421000Y48472564D03*
X70821000Y17247564D03*
D14*
X12396000Y111222564D03*
G04 #@! TA.AperFunction,Conductor*
G36*
X80130000Y127775387D02*
G01*
X80175387Y127730000D01*
X80192000Y127668000D01*
X80192000Y124000D01*
X80175387Y62000D01*
X80130000Y16613D01*
X80068000Y0D01*
X124000Y0D01*
X62000Y16613D01*
X16613Y62000D01*
X0Y124000D01*
X0Y83209800D01*
X38875459Y83209800D01*
X38875500Y83209701D01*
X38875617Y83209417D01*
X38876000Y83209259D01*
X38876099Y83209300D01*
X41265901Y83209300D01*
X41266000Y83209259D01*
X41266383Y83209417D01*
X41266500Y83209701D01*
X41266541Y83209800D01*
X41266500Y83209899D01*
X41266500Y96079701D01*
X41266541Y96079800D01*
X41266383Y96080183D01*
X41266099Y96080300D01*
X41266000Y96080341D01*
X41265901Y96080300D01*
X38876099Y96080300D01*
X38876000Y96080341D01*
X38875901Y96080300D01*
X38875617Y96080183D01*
X38875459Y96079800D01*
X38875500Y96079701D01*
X38875500Y83209899D01*
X38875459Y83209800D01*
X0Y83209800D01*
X0Y127668000D01*
X16613Y127730000D01*
X62000Y127775387D01*
X124000Y127792000D01*
X80068000Y127792000D01*
X80130000Y127775387D01*
G37*
G04 #@! TD.AperFunction*
M02*
