M48
; DRILL file {KiCad (7.0.0-0)} date Wednesday, March 22, 2023 at 03:58:20 PM
; FORMAT={-:-/ absolute / metric / decimal}
; #@! TF.CreationDate,2023-03-22T15:58:20-07:00
; #@! TF.GenerationSoftware,Kicad,Pcbnew,(7.0.0-0)
; #@! TF.FileFunction,MixedPlating,1,2
FMAT,2
METRIC
; #@! TA.AperFunction,Plated,PTH,ComponentDrill
T1C3.175
; #@! TA.AperFunction,Plated,PTH,ComponentDrill
T2C5.664
; #@! TA.AperFunction,Plated,PTH,ComponentDrill
T3C6.604
; #@! TA.AperFunction,Plated,PTH,ComponentDrill
T4C7.112
; #@! TA.AperFunction,Plated,PTH,ComponentDrill
T5C7.747
%
G90
G05
T2
X12.396Y111.223
X67.796Y111.223
T3
X9.371Y32.673
X9.371Y17.248
X12.696Y48.473
X29.139Y32.673
X29.166Y17.248
X31.021Y48.473
X49.246Y48.473
X51.026Y17.248
X51.053Y32.673
X67.421Y48.473
X70.821Y32.673
X70.821Y17.248
T4
X12.196Y89.748
X27.396Y70.115
X52.796Y70.16
X67.996Y89.748
T5
X40.096Y108.948
T1
X5.551Y125.149G85X8.726Y125.149
G05
X5.551Y2.643G85X8.726Y2.643
G05
X71.465Y125.149G85X74.641Y125.149
G05
X71.465Y2.643G85X74.641Y2.643
G05
T0
M30
