%TF.GenerationSoftware,KiCad,Pcbnew,(7.0.0-0)*%
%TF.CreationDate,2023-03-22T15:46:25-07:00*%
%TF.ProjectId,Kit-Trig-Sampler-FACEPLATE,4b69742d-5472-4696-972d-53616d706c65,rev?*%
%TF.SameCoordinates,PXa661c0PY7cdd488*%
%TF.FileFunction,Drillmap*%
%TF.FilePolarity,Positive*%
%FSLAX45Y45*%
G04 Gerber Fmt 4.5, Leading zero omitted, Abs format (unit mm)*
G04 Created by KiCad (PCBNEW (7.0.0-0)) date 2023-03-22 15:46:25*
%MOMM*%
%LPD*%
G01*
G04 APERTURE LIST*
%ADD10C,0.100000*%
%ADD11C,0.200000*%
%ADD12C,0.317500*%
%ADD13C,0.566420*%
%ADD14C,0.660400*%
%ADD15C,0.711200*%
%ADD16C,0.774700*%
G04 APERTURE END LIST*
D10*
X-35400Y-35400D02*
X8054600Y-35400D01*
X8054600Y12814600D02*
X8054600Y-35400D01*
X-35400Y12814600D02*
X-35400Y-35400D01*
X-35400Y12814600D02*
X8054600Y12814600D01*
X3887600Y9607980D02*
X4126600Y9607980D01*
X4126600Y9607980D02*
X4126600Y8320980D01*
X4126600Y8320980D02*
X3887600Y8320980D01*
X3887600Y8320980D02*
X3887600Y9607980D01*
D11*
D12*
X555150Y12673630D02*
X872650Y12356130D01*
X872650Y12673630D02*
X555150Y12356130D01*
D11*
X555150Y12356130D02*
X872650Y12356130D01*
X872650Y12356130D02*
G75*
G03*
X872650Y12673630I0J158750D01*
G01*
X872650Y12673630D02*
X555150Y12673630D01*
X555150Y12673630D02*
G75*
G03*
X555150Y12356130I0J-158750D01*
G01*
D12*
X555150Y423070D02*
X872650Y105570D01*
X872650Y423070D02*
X555150Y105570D01*
D11*
X555150Y105570D02*
X872650Y105570D01*
X872650Y105570D02*
G75*
G03*
X872650Y423070I0J158750D01*
G01*
X872650Y423070D02*
X555150Y423070D01*
X555150Y423070D02*
G75*
G03*
X555150Y105570I0J-158750D01*
G01*
D12*
X7146550Y12673630D02*
X7464050Y12356130D01*
X7464050Y12673630D02*
X7146550Y12356130D01*
D11*
X7146550Y12356130D02*
X7464050Y12356130D01*
X7464050Y12356130D02*
G75*
G03*
X7464050Y12673630I0J158750D01*
G01*
X7464050Y12673630D02*
X7146550Y12673630D01*
X7146550Y12673630D02*
G75*
G03*
X7146550Y12356130I0J-158750D01*
G01*
D12*
X7146550Y423070D02*
X7464050Y105570D01*
X7464050Y423070D02*
X7146550Y105570D01*
D11*
X7146550Y105570D02*
X7464050Y105570D01*
X7464050Y105570D02*
G75*
G03*
X7464050Y423070I0J158750D01*
G01*
X7464050Y423070D02*
X7146550Y423070D01*
X7146550Y423070D02*
G75*
G03*
X7146550Y105570I0J-158750D01*
G01*
D13*
X1522810Y11122256D02*
G75*
G03*
X1522810Y11122256I-283210J0D01*
G01*
X7062810Y11122256D02*
G75*
G03*
X7062810Y11122256I-283210J0D01*
G01*
D14*
X937100Y3597456D02*
X937100Y2937056D01*
X606900Y3267256D02*
X1267300Y3267256D01*
X937100Y2054956D02*
X937100Y1394556D01*
X606900Y1724756D02*
X1267300Y1724756D01*
X1269600Y5177456D02*
X1269600Y4517056D01*
X939400Y4847256D02*
X1599800Y4847256D01*
X2913900Y3597456D02*
X2913900Y2937056D01*
X2583700Y3267256D02*
X3244100Y3267256D01*
X2916600Y2054956D02*
X2916600Y1394556D01*
X2586400Y1724756D02*
X3246800Y1724756D01*
X3102100Y5177456D02*
X3102100Y4517056D01*
X2771900Y4847256D02*
X3432300Y4847256D01*
X4924600Y5177456D02*
X4924600Y4517056D01*
X4594400Y4847256D02*
X5254800Y4847256D01*
X5102600Y2054956D02*
X5102600Y1394556D01*
X4772400Y1724756D02*
X5432800Y1724756D01*
X5105300Y3597456D02*
X5105300Y2937056D01*
X4775100Y3267256D02*
X5435500Y3267256D01*
X6742100Y5177456D02*
X6742100Y4517056D01*
X6411900Y4847256D02*
X7072300Y4847256D01*
X7082100Y3597456D02*
X7082100Y2937056D01*
X6751900Y3267256D02*
X7412300Y3267256D01*
X7082100Y2054956D02*
X7082100Y1394556D01*
X6751900Y1724756D02*
X7412300Y1724756D01*
D15*
X1471050Y8723307D02*
X1471050Y9226206D01*
X968150Y9226206D01*
X968150Y8723307D01*
X1471050Y8723307D01*
X2991050Y6760098D02*
X2991050Y7262998D01*
X2488150Y7262998D01*
X2488150Y6760098D01*
X2991050Y6760098D01*
X5531050Y6764530D02*
X5531050Y7267430D01*
X5028150Y7267430D01*
X5028150Y6764530D01*
X5531050Y6764530D01*
X7051050Y8723307D02*
X7051050Y9226206D01*
X6548150Y9226206D01*
X6548150Y8723307D01*
X7051050Y8723307D01*
D16*
X4009600Y10507406D02*
X4396950Y10894756D01*
X4009600Y11282106D01*
X3622250Y10894756D01*
X4009600Y10507406D01*
D11*
X207219Y-333876D02*
X207219Y-133876D01*
X207219Y-133876D02*
X254838Y-133876D01*
X254838Y-133876D02*
X283410Y-143400D01*
X283410Y-143400D02*
X302457Y-162448D01*
X302457Y-162448D02*
X311981Y-181495D01*
X311981Y-181495D02*
X321505Y-219590D01*
X321505Y-219590D02*
X321505Y-248162D01*
X321505Y-248162D02*
X311981Y-286257D01*
X311981Y-286257D02*
X302457Y-305305D01*
X302457Y-305305D02*
X283410Y-324352D01*
X283410Y-324352D02*
X254838Y-333876D01*
X254838Y-333876D02*
X207219Y-333876D01*
X407219Y-333876D02*
X407219Y-200543D01*
X407219Y-238638D02*
X416743Y-219590D01*
X416743Y-219590D02*
X426267Y-210067D01*
X426267Y-210067D02*
X445314Y-200543D01*
X445314Y-200543D02*
X464362Y-200543D01*
X531029Y-333876D02*
X531029Y-200543D01*
X531029Y-133876D02*
X521505Y-143400D01*
X521505Y-143400D02*
X531029Y-152924D01*
X531029Y-152924D02*
X540552Y-143400D01*
X540552Y-143400D02*
X531029Y-133876D01*
X531029Y-133876D02*
X531029Y-152924D01*
X654838Y-333876D02*
X635790Y-324352D01*
X635790Y-324352D02*
X626267Y-305305D01*
X626267Y-305305D02*
X626267Y-133876D01*
X759600Y-333876D02*
X740552Y-324352D01*
X740552Y-324352D02*
X731028Y-305305D01*
X731028Y-305305D02*
X731028Y-133876D01*
X955790Y-333876D02*
X955790Y-133876D01*
X955790Y-133876D02*
X1022457Y-276733D01*
X1022457Y-276733D02*
X1089124Y-133876D01*
X1089124Y-133876D02*
X1089124Y-333876D01*
X1270076Y-333876D02*
X1270076Y-229114D01*
X1270076Y-229114D02*
X1260552Y-210067D01*
X1260552Y-210067D02*
X1241505Y-200543D01*
X1241505Y-200543D02*
X1203409Y-200543D01*
X1203409Y-200543D02*
X1184362Y-210067D01*
X1270076Y-324352D02*
X1251029Y-333876D01*
X1251029Y-333876D02*
X1203409Y-333876D01*
X1203409Y-333876D02*
X1184362Y-324352D01*
X1184362Y-324352D02*
X1174838Y-305305D01*
X1174838Y-305305D02*
X1174838Y-286257D01*
X1174838Y-286257D02*
X1184362Y-267210D01*
X1184362Y-267210D02*
X1203409Y-257686D01*
X1203409Y-257686D02*
X1251029Y-257686D01*
X1251029Y-257686D02*
X1270076Y-248162D01*
X1365314Y-200543D02*
X1365314Y-400543D01*
X1365314Y-210067D02*
X1384362Y-200543D01*
X1384362Y-200543D02*
X1422457Y-200543D01*
X1422457Y-200543D02*
X1441505Y-210067D01*
X1441505Y-210067D02*
X1451028Y-219590D01*
X1451028Y-219590D02*
X1460552Y-238638D01*
X1460552Y-238638D02*
X1460552Y-295781D01*
X1460552Y-295781D02*
X1451028Y-314829D01*
X1451028Y-314829D02*
X1441505Y-324352D01*
X1441505Y-324352D02*
X1422457Y-333876D01*
X1422457Y-333876D02*
X1384362Y-333876D01*
X1384362Y-333876D02*
X1365314Y-324352D01*
X1546267Y-314829D02*
X1555790Y-324352D01*
X1555790Y-324352D02*
X1546267Y-333876D01*
X1546267Y-333876D02*
X1536743Y-324352D01*
X1536743Y-324352D02*
X1546267Y-314829D01*
X1546267Y-314829D02*
X1546267Y-333876D01*
X1546267Y-210067D02*
X1555790Y-219590D01*
X1555790Y-219590D02*
X1546267Y-229114D01*
X1546267Y-229114D02*
X1536743Y-219590D01*
X1536743Y-219590D02*
X1546267Y-210067D01*
X1546267Y-210067D02*
X1546267Y-229114D01*
X-240400Y-580400D02*
X-40400Y-780400D01*
X-40400Y-580400D02*
X-240400Y-780400D01*
X188171Y-553876D02*
X311981Y-553876D01*
X311981Y-553876D02*
X245314Y-630067D01*
X245314Y-630067D02*
X273886Y-630067D01*
X273886Y-630067D02*
X292933Y-639590D01*
X292933Y-639590D02*
X302457Y-649114D01*
X302457Y-649114D02*
X311981Y-668162D01*
X311981Y-668162D02*
X311981Y-715781D01*
X311981Y-715781D02*
X302457Y-734828D01*
X302457Y-734828D02*
X292933Y-744352D01*
X292933Y-744352D02*
X273886Y-753876D01*
X273886Y-753876D02*
X216743Y-753876D01*
X216743Y-753876D02*
X197695Y-744352D01*
X197695Y-744352D02*
X188171Y-734828D01*
X397695Y-734828D02*
X407219Y-744352D01*
X407219Y-744352D02*
X397695Y-753876D01*
X397695Y-753876D02*
X388171Y-744352D01*
X388171Y-744352D02*
X397695Y-734828D01*
X397695Y-734828D02*
X397695Y-753876D01*
X597695Y-753876D02*
X483409Y-753876D01*
X540552Y-753876D02*
X540552Y-553876D01*
X540552Y-553876D02*
X521505Y-582448D01*
X521505Y-582448D02*
X502457Y-601495D01*
X502457Y-601495D02*
X483409Y-611019D01*
X664362Y-553876D02*
X797695Y-553876D01*
X797695Y-553876D02*
X711981Y-753876D01*
X969124Y-553876D02*
X873886Y-553876D01*
X873886Y-553876D02*
X864362Y-649114D01*
X864362Y-649114D02*
X873886Y-639590D01*
X873886Y-639590D02*
X892933Y-630067D01*
X892933Y-630067D02*
X940552Y-630067D01*
X940552Y-630067D02*
X959600Y-639590D01*
X959600Y-639590D02*
X969124Y-649114D01*
X969124Y-649114D02*
X978648Y-668162D01*
X978648Y-668162D02*
X978648Y-715781D01*
X978648Y-715781D02*
X969124Y-734828D01*
X969124Y-734828D02*
X959600Y-744352D01*
X959600Y-744352D02*
X940552Y-753876D01*
X940552Y-753876D02*
X892933Y-753876D01*
X892933Y-753876D02*
X873886Y-744352D01*
X873886Y-744352D02*
X864362Y-734828D01*
X1064362Y-753876D02*
X1064362Y-620543D01*
X1064362Y-639590D02*
X1073886Y-630067D01*
X1073886Y-630067D02*
X1092933Y-620543D01*
X1092933Y-620543D02*
X1121505Y-620543D01*
X1121505Y-620543D02*
X1140552Y-630067D01*
X1140552Y-630067D02*
X1150076Y-649114D01*
X1150076Y-649114D02*
X1150076Y-753876D01*
X1150076Y-649114D02*
X1159600Y-630067D01*
X1159600Y-630067D02*
X1178648Y-620543D01*
X1178648Y-620543D02*
X1207219Y-620543D01*
X1207219Y-620543D02*
X1226267Y-630067D01*
X1226267Y-630067D02*
X1235791Y-649114D01*
X1235791Y-649114D02*
X1235791Y-753876D01*
X1331029Y-753876D02*
X1331029Y-620543D01*
X1331029Y-639590D02*
X1340552Y-630067D01*
X1340552Y-630067D02*
X1359600Y-620543D01*
X1359600Y-620543D02*
X1388172Y-620543D01*
X1388172Y-620543D02*
X1407219Y-630067D01*
X1407219Y-630067D02*
X1416743Y-649114D01*
X1416743Y-649114D02*
X1416743Y-753876D01*
X1416743Y-649114D02*
X1426267Y-630067D01*
X1426267Y-630067D02*
X1445314Y-620543D01*
X1445314Y-620543D02*
X1473886Y-620543D01*
X1473886Y-620543D02*
X1492933Y-630067D01*
X1492933Y-630067D02*
X1502457Y-649114D01*
X1502457Y-649114D02*
X1502457Y-753876D01*
X1860552Y-544352D02*
X1689124Y-801495D01*
X2085314Y-553876D02*
X2104362Y-553876D01*
X2104362Y-553876D02*
X2123410Y-563400D01*
X2123410Y-563400D02*
X2132933Y-572924D01*
X2132933Y-572924D02*
X2142457Y-591971D01*
X2142457Y-591971D02*
X2151981Y-630067D01*
X2151981Y-630067D02*
X2151981Y-677686D01*
X2151981Y-677686D02*
X2142457Y-715781D01*
X2142457Y-715781D02*
X2132933Y-734828D01*
X2132933Y-734828D02*
X2123410Y-744352D01*
X2123410Y-744352D02*
X2104362Y-753876D01*
X2104362Y-753876D02*
X2085314Y-753876D01*
X2085314Y-753876D02*
X2066267Y-744352D01*
X2066267Y-744352D02*
X2056743Y-734828D01*
X2056743Y-734828D02*
X2047219Y-715781D01*
X2047219Y-715781D02*
X2037695Y-677686D01*
X2037695Y-677686D02*
X2037695Y-630067D01*
X2037695Y-630067D02*
X2047219Y-591971D01*
X2047219Y-591971D02*
X2056743Y-572924D01*
X2056743Y-572924D02*
X2066267Y-563400D01*
X2066267Y-563400D02*
X2085314Y-553876D01*
X2237695Y-734828D02*
X2247219Y-744352D01*
X2247219Y-744352D02*
X2237695Y-753876D01*
X2237695Y-753876D02*
X2228172Y-744352D01*
X2228172Y-744352D02*
X2237695Y-734828D01*
X2237695Y-734828D02*
X2237695Y-753876D01*
X2437695Y-753876D02*
X2323410Y-753876D01*
X2380552Y-753876D02*
X2380552Y-553876D01*
X2380552Y-553876D02*
X2361505Y-582448D01*
X2361505Y-582448D02*
X2342457Y-601495D01*
X2342457Y-601495D02*
X2323410Y-611019D01*
X2513886Y-572924D02*
X2523410Y-563400D01*
X2523410Y-563400D02*
X2542457Y-553876D01*
X2542457Y-553876D02*
X2590076Y-553876D01*
X2590076Y-553876D02*
X2609124Y-563400D01*
X2609124Y-563400D02*
X2618648Y-572924D01*
X2618648Y-572924D02*
X2628172Y-591971D01*
X2628172Y-591971D02*
X2628172Y-611019D01*
X2628172Y-611019D02*
X2618648Y-639590D01*
X2618648Y-639590D02*
X2504362Y-753876D01*
X2504362Y-753876D02*
X2628172Y-753876D01*
X2809124Y-553876D02*
X2713886Y-553876D01*
X2713886Y-553876D02*
X2704362Y-649114D01*
X2704362Y-649114D02*
X2713886Y-639590D01*
X2713886Y-639590D02*
X2732933Y-630067D01*
X2732933Y-630067D02*
X2780553Y-630067D01*
X2780553Y-630067D02*
X2799600Y-639590D01*
X2799600Y-639590D02*
X2809124Y-649114D01*
X2809124Y-649114D02*
X2818648Y-668162D01*
X2818648Y-668162D02*
X2818648Y-715781D01*
X2818648Y-715781D02*
X2809124Y-734828D01*
X2809124Y-734828D02*
X2799600Y-744352D01*
X2799600Y-744352D02*
X2780553Y-753876D01*
X2780553Y-753876D02*
X2732933Y-753876D01*
X2732933Y-753876D02*
X2713886Y-744352D01*
X2713886Y-744352D02*
X2704362Y-734828D01*
X2942457Y-553876D02*
X2961505Y-553876D01*
X2961505Y-553876D02*
X2980552Y-563400D01*
X2980552Y-563400D02*
X2990076Y-572924D01*
X2990076Y-572924D02*
X2999600Y-591971D01*
X2999600Y-591971D02*
X3009124Y-630067D01*
X3009124Y-630067D02*
X3009124Y-677686D01*
X3009124Y-677686D02*
X2999600Y-715781D01*
X2999600Y-715781D02*
X2990076Y-734828D01*
X2990076Y-734828D02*
X2980552Y-744352D01*
X2980552Y-744352D02*
X2961505Y-753876D01*
X2961505Y-753876D02*
X2942457Y-753876D01*
X2942457Y-753876D02*
X2923410Y-744352D01*
X2923410Y-744352D02*
X2913886Y-734828D01*
X2913886Y-734828D02*
X2904362Y-715781D01*
X2904362Y-715781D02*
X2894838Y-677686D01*
X2894838Y-677686D02*
X2894838Y-630067D01*
X2894838Y-630067D02*
X2904362Y-591971D01*
X2904362Y-591971D02*
X2913886Y-572924D01*
X2913886Y-572924D02*
X2923410Y-563400D01*
X2923410Y-563400D02*
X2942457Y-553876D01*
X3085314Y-553876D02*
X3085314Y-591971D01*
X3161505Y-553876D02*
X3161505Y-591971D01*
X3424362Y-830067D02*
X3414838Y-820543D01*
X3414838Y-820543D02*
X3395791Y-791971D01*
X3395791Y-791971D02*
X3386267Y-772924D01*
X3386267Y-772924D02*
X3376743Y-744352D01*
X3376743Y-744352D02*
X3367219Y-696733D01*
X3367219Y-696733D02*
X3367219Y-658638D01*
X3367219Y-658638D02*
X3376743Y-611019D01*
X3376743Y-611019D02*
X3386267Y-582448D01*
X3386267Y-582448D02*
X3395791Y-563400D01*
X3395791Y-563400D02*
X3414838Y-534829D01*
X3414838Y-534829D02*
X3424362Y-525305D01*
X3538648Y-553876D02*
X3557695Y-553876D01*
X3557695Y-553876D02*
X3576743Y-563400D01*
X3576743Y-563400D02*
X3586267Y-572924D01*
X3586267Y-572924D02*
X3595791Y-591971D01*
X3595791Y-591971D02*
X3605314Y-630067D01*
X3605314Y-630067D02*
X3605314Y-677686D01*
X3605314Y-677686D02*
X3595791Y-715781D01*
X3595791Y-715781D02*
X3586267Y-734828D01*
X3586267Y-734828D02*
X3576743Y-744352D01*
X3576743Y-744352D02*
X3557695Y-753876D01*
X3557695Y-753876D02*
X3538648Y-753876D01*
X3538648Y-753876D02*
X3519600Y-744352D01*
X3519600Y-744352D02*
X3510076Y-734828D01*
X3510076Y-734828D02*
X3500552Y-715781D01*
X3500552Y-715781D02*
X3491029Y-677686D01*
X3491029Y-677686D02*
X3491029Y-630067D01*
X3491029Y-630067D02*
X3500552Y-591971D01*
X3500552Y-591971D02*
X3510076Y-572924D01*
X3510076Y-572924D02*
X3519600Y-563400D01*
X3519600Y-563400D02*
X3538648Y-553876D01*
X3811029Y-753876D02*
X3811029Y-553876D01*
X3896743Y-753876D02*
X3896743Y-649114D01*
X3896743Y-649114D02*
X3887219Y-630067D01*
X3887219Y-630067D02*
X3868172Y-620543D01*
X3868172Y-620543D02*
X3839600Y-620543D01*
X3839600Y-620543D02*
X3820552Y-630067D01*
X3820552Y-630067D02*
X3811029Y-639590D01*
X4020552Y-753876D02*
X4001505Y-744352D01*
X4001505Y-744352D02*
X3991981Y-734828D01*
X3991981Y-734828D02*
X3982457Y-715781D01*
X3982457Y-715781D02*
X3982457Y-658638D01*
X3982457Y-658638D02*
X3991981Y-639590D01*
X3991981Y-639590D02*
X4001505Y-630067D01*
X4001505Y-630067D02*
X4020552Y-620543D01*
X4020552Y-620543D02*
X4049124Y-620543D01*
X4049124Y-620543D02*
X4068172Y-630067D01*
X4068172Y-630067D02*
X4077695Y-639590D01*
X4077695Y-639590D02*
X4087219Y-658638D01*
X4087219Y-658638D02*
X4087219Y-715781D01*
X4087219Y-715781D02*
X4077695Y-734828D01*
X4077695Y-734828D02*
X4068172Y-744352D01*
X4068172Y-744352D02*
X4049124Y-753876D01*
X4049124Y-753876D02*
X4020552Y-753876D01*
X4201505Y-753876D02*
X4182457Y-744352D01*
X4182457Y-744352D02*
X4172933Y-725305D01*
X4172933Y-725305D02*
X4172933Y-553876D01*
X4353886Y-744352D02*
X4334838Y-753876D01*
X4334838Y-753876D02*
X4296743Y-753876D01*
X4296743Y-753876D02*
X4277695Y-744352D01*
X4277695Y-744352D02*
X4268172Y-725305D01*
X4268172Y-725305D02*
X4268172Y-649114D01*
X4268172Y-649114D02*
X4277695Y-630067D01*
X4277695Y-630067D02*
X4296743Y-620543D01*
X4296743Y-620543D02*
X4334838Y-620543D01*
X4334838Y-620543D02*
X4353886Y-630067D01*
X4353886Y-630067D02*
X4363410Y-649114D01*
X4363410Y-649114D02*
X4363410Y-668162D01*
X4363410Y-668162D02*
X4268172Y-687210D01*
X4439600Y-744352D02*
X4458648Y-753876D01*
X4458648Y-753876D02*
X4496743Y-753876D01*
X4496743Y-753876D02*
X4515791Y-744352D01*
X4515791Y-744352D02*
X4525315Y-725305D01*
X4525315Y-725305D02*
X4525315Y-715781D01*
X4525315Y-715781D02*
X4515791Y-696733D01*
X4515791Y-696733D02*
X4496743Y-687210D01*
X4496743Y-687210D02*
X4468172Y-687210D01*
X4468172Y-687210D02*
X4449124Y-677686D01*
X4449124Y-677686D02*
X4439600Y-658638D01*
X4439600Y-658638D02*
X4439600Y-649114D01*
X4439600Y-649114D02*
X4449124Y-630067D01*
X4449124Y-630067D02*
X4468172Y-620543D01*
X4468172Y-620543D02*
X4496743Y-620543D01*
X4496743Y-620543D02*
X4515791Y-630067D01*
X4731029Y-677686D02*
X4883410Y-677686D01*
X4807219Y-753876D02*
X4807219Y-601495D01*
X5184362Y-620543D02*
X5184362Y-753876D01*
X5136743Y-544352D02*
X5089124Y-687210D01*
X5089124Y-687210D02*
X5212934Y-687210D01*
X5399600Y-744352D02*
X5418648Y-753876D01*
X5418648Y-753876D02*
X5456743Y-753876D01*
X5456743Y-753876D02*
X5475791Y-744352D01*
X5475791Y-744352D02*
X5485315Y-725305D01*
X5485315Y-725305D02*
X5485315Y-715781D01*
X5485315Y-715781D02*
X5475791Y-696733D01*
X5475791Y-696733D02*
X5456743Y-687210D01*
X5456743Y-687210D02*
X5428172Y-687210D01*
X5428172Y-687210D02*
X5409124Y-677686D01*
X5409124Y-677686D02*
X5399600Y-658638D01*
X5399600Y-658638D02*
X5399600Y-649114D01*
X5399600Y-649114D02*
X5409124Y-630067D01*
X5409124Y-630067D02*
X5428172Y-620543D01*
X5428172Y-620543D02*
X5456743Y-620543D01*
X5456743Y-620543D02*
X5475791Y-630067D01*
X5599600Y-753876D02*
X5580553Y-744352D01*
X5580553Y-744352D02*
X5571029Y-725305D01*
X5571029Y-725305D02*
X5571029Y-553876D01*
X5704362Y-753876D02*
X5685314Y-744352D01*
X5685314Y-744352D02*
X5675791Y-734828D01*
X5675791Y-734828D02*
X5666267Y-715781D01*
X5666267Y-715781D02*
X5666267Y-658638D01*
X5666267Y-658638D02*
X5675791Y-639590D01*
X5675791Y-639590D02*
X5685314Y-630067D01*
X5685314Y-630067D02*
X5704362Y-620543D01*
X5704362Y-620543D02*
X5732934Y-620543D01*
X5732934Y-620543D02*
X5751981Y-630067D01*
X5751981Y-630067D02*
X5761505Y-639590D01*
X5761505Y-639590D02*
X5771029Y-658638D01*
X5771029Y-658638D02*
X5771029Y-715781D01*
X5771029Y-715781D02*
X5761505Y-734828D01*
X5761505Y-734828D02*
X5751981Y-744352D01*
X5751981Y-744352D02*
X5732934Y-753876D01*
X5732934Y-753876D02*
X5704362Y-753876D01*
X5828172Y-620543D02*
X5904362Y-620543D01*
X5856743Y-553876D02*
X5856743Y-725305D01*
X5856743Y-725305D02*
X5866267Y-744352D01*
X5866267Y-744352D02*
X5885314Y-753876D01*
X5885314Y-753876D02*
X5904362Y-753876D01*
X5961505Y-744352D02*
X5980553Y-753876D01*
X5980553Y-753876D02*
X6018648Y-753876D01*
X6018648Y-753876D02*
X6037695Y-744352D01*
X6037695Y-744352D02*
X6047219Y-725305D01*
X6047219Y-725305D02*
X6047219Y-715781D01*
X6047219Y-715781D02*
X6037695Y-696733D01*
X6037695Y-696733D02*
X6018648Y-687210D01*
X6018648Y-687210D02*
X5990076Y-687210D01*
X5990076Y-687210D02*
X5971029Y-677686D01*
X5971029Y-677686D02*
X5961505Y-658638D01*
X5961505Y-658638D02*
X5961505Y-649114D01*
X5961505Y-649114D02*
X5971029Y-630067D01*
X5971029Y-630067D02*
X5990076Y-620543D01*
X5990076Y-620543D02*
X6018648Y-620543D01*
X6018648Y-620543D02*
X6037695Y-630067D01*
X6113886Y-830067D02*
X6123410Y-820543D01*
X6123410Y-820543D02*
X6142457Y-791971D01*
X6142457Y-791971D02*
X6151981Y-772924D01*
X6151981Y-772924D02*
X6161505Y-744352D01*
X6161505Y-744352D02*
X6171029Y-696733D01*
X6171029Y-696733D02*
X6171029Y-658638D01*
X6171029Y-658638D02*
X6161505Y-611019D01*
X6161505Y-611019D02*
X6151981Y-582448D01*
X6151981Y-582448D02*
X6142457Y-563400D01*
X6142457Y-563400D02*
X6123410Y-534829D01*
X6123410Y-534829D02*
X6113886Y-525305D01*
X-40400Y-1000400D02*
G75*
G03*
X-40400Y-1000400I-100000J0D01*
G01*
X302457Y-873876D02*
X207219Y-873876D01*
X207219Y-873876D02*
X197695Y-969114D01*
X197695Y-969114D02*
X207219Y-959590D01*
X207219Y-959590D02*
X226267Y-950067D01*
X226267Y-950067D02*
X273886Y-950067D01*
X273886Y-950067D02*
X292933Y-959590D01*
X292933Y-959590D02*
X302457Y-969114D01*
X302457Y-969114D02*
X311981Y-988162D01*
X311981Y-988162D02*
X311981Y-1035781D01*
X311981Y-1035781D02*
X302457Y-1054829D01*
X302457Y-1054829D02*
X292933Y-1064352D01*
X292933Y-1064352D02*
X273886Y-1073876D01*
X273886Y-1073876D02*
X226267Y-1073876D01*
X226267Y-1073876D02*
X207219Y-1064352D01*
X207219Y-1064352D02*
X197695Y-1054829D01*
X397695Y-1054829D02*
X407219Y-1064352D01*
X407219Y-1064352D02*
X397695Y-1073876D01*
X397695Y-1073876D02*
X388171Y-1064352D01*
X388171Y-1064352D02*
X397695Y-1054829D01*
X397695Y-1054829D02*
X397695Y-1073876D01*
X578648Y-873876D02*
X540552Y-873876D01*
X540552Y-873876D02*
X521505Y-883400D01*
X521505Y-883400D02*
X511981Y-892924D01*
X511981Y-892924D02*
X492933Y-921495D01*
X492933Y-921495D02*
X483409Y-959590D01*
X483409Y-959590D02*
X483409Y-1035781D01*
X483409Y-1035781D02*
X492933Y-1054829D01*
X492933Y-1054829D02*
X502457Y-1064352D01*
X502457Y-1064352D02*
X521505Y-1073876D01*
X521505Y-1073876D02*
X559600Y-1073876D01*
X559600Y-1073876D02*
X578648Y-1064352D01*
X578648Y-1064352D02*
X588171Y-1054829D01*
X588171Y-1054829D02*
X597695Y-1035781D01*
X597695Y-1035781D02*
X597695Y-988162D01*
X597695Y-988162D02*
X588171Y-969114D01*
X588171Y-969114D02*
X578648Y-959590D01*
X578648Y-959590D02*
X559600Y-950067D01*
X559600Y-950067D02*
X521505Y-950067D01*
X521505Y-950067D02*
X502457Y-959590D01*
X502457Y-959590D02*
X492933Y-969114D01*
X492933Y-969114D02*
X483409Y-988162D01*
X769124Y-873876D02*
X731028Y-873876D01*
X731028Y-873876D02*
X711981Y-883400D01*
X711981Y-883400D02*
X702457Y-892924D01*
X702457Y-892924D02*
X683410Y-921495D01*
X683410Y-921495D02*
X673886Y-959590D01*
X673886Y-959590D02*
X673886Y-1035781D01*
X673886Y-1035781D02*
X683410Y-1054829D01*
X683410Y-1054829D02*
X692933Y-1064352D01*
X692933Y-1064352D02*
X711981Y-1073876D01*
X711981Y-1073876D02*
X750076Y-1073876D01*
X750076Y-1073876D02*
X769124Y-1064352D01*
X769124Y-1064352D02*
X778648Y-1054829D01*
X778648Y-1054829D02*
X788171Y-1035781D01*
X788171Y-1035781D02*
X788171Y-988162D01*
X788171Y-988162D02*
X778648Y-969114D01*
X778648Y-969114D02*
X769124Y-959590D01*
X769124Y-959590D02*
X750076Y-950067D01*
X750076Y-950067D02*
X711981Y-950067D01*
X711981Y-950067D02*
X692933Y-959590D01*
X692933Y-959590D02*
X683410Y-969114D01*
X683410Y-969114D02*
X673886Y-988162D01*
X959600Y-940543D02*
X959600Y-1073876D01*
X911981Y-864352D02*
X864362Y-1007209D01*
X864362Y-1007209D02*
X988171Y-1007209D01*
X1064362Y-1073876D02*
X1064362Y-940543D01*
X1064362Y-959590D02*
X1073886Y-950067D01*
X1073886Y-950067D02*
X1092933Y-940543D01*
X1092933Y-940543D02*
X1121505Y-940543D01*
X1121505Y-940543D02*
X1140552Y-950067D01*
X1140552Y-950067D02*
X1150076Y-969114D01*
X1150076Y-969114D02*
X1150076Y-1073876D01*
X1150076Y-969114D02*
X1159600Y-950067D01*
X1159600Y-950067D02*
X1178648Y-940543D01*
X1178648Y-940543D02*
X1207219Y-940543D01*
X1207219Y-940543D02*
X1226267Y-950067D01*
X1226267Y-950067D02*
X1235791Y-969114D01*
X1235791Y-969114D02*
X1235791Y-1073876D01*
X1331029Y-1073876D02*
X1331029Y-940543D01*
X1331029Y-959590D02*
X1340552Y-950067D01*
X1340552Y-950067D02*
X1359600Y-940543D01*
X1359600Y-940543D02*
X1388172Y-940543D01*
X1388172Y-940543D02*
X1407219Y-950067D01*
X1407219Y-950067D02*
X1416743Y-969114D01*
X1416743Y-969114D02*
X1416743Y-1073876D01*
X1416743Y-969114D02*
X1426267Y-950067D01*
X1426267Y-950067D02*
X1445314Y-940543D01*
X1445314Y-940543D02*
X1473886Y-940543D01*
X1473886Y-940543D02*
X1492933Y-950067D01*
X1492933Y-950067D02*
X1502457Y-969114D01*
X1502457Y-969114D02*
X1502457Y-1073876D01*
X1860552Y-864352D02*
X1689124Y-1121495D01*
X2085314Y-873876D02*
X2104362Y-873876D01*
X2104362Y-873876D02*
X2123410Y-883400D01*
X2123410Y-883400D02*
X2132933Y-892924D01*
X2132933Y-892924D02*
X2142457Y-911971D01*
X2142457Y-911971D02*
X2151981Y-950067D01*
X2151981Y-950067D02*
X2151981Y-997686D01*
X2151981Y-997686D02*
X2142457Y-1035781D01*
X2142457Y-1035781D02*
X2132933Y-1054829D01*
X2132933Y-1054829D02*
X2123410Y-1064352D01*
X2123410Y-1064352D02*
X2104362Y-1073876D01*
X2104362Y-1073876D02*
X2085314Y-1073876D01*
X2085314Y-1073876D02*
X2066267Y-1064352D01*
X2066267Y-1064352D02*
X2056743Y-1054829D01*
X2056743Y-1054829D02*
X2047219Y-1035781D01*
X2047219Y-1035781D02*
X2037695Y-997686D01*
X2037695Y-997686D02*
X2037695Y-950067D01*
X2037695Y-950067D02*
X2047219Y-911971D01*
X2047219Y-911971D02*
X2056743Y-892924D01*
X2056743Y-892924D02*
X2066267Y-883400D01*
X2066267Y-883400D02*
X2085314Y-873876D01*
X2237695Y-1054829D02*
X2247219Y-1064352D01*
X2247219Y-1064352D02*
X2237695Y-1073876D01*
X2237695Y-1073876D02*
X2228172Y-1064352D01*
X2228172Y-1064352D02*
X2237695Y-1054829D01*
X2237695Y-1054829D02*
X2237695Y-1073876D01*
X2323410Y-892924D02*
X2332933Y-883400D01*
X2332933Y-883400D02*
X2351981Y-873876D01*
X2351981Y-873876D02*
X2399600Y-873876D01*
X2399600Y-873876D02*
X2418648Y-883400D01*
X2418648Y-883400D02*
X2428172Y-892924D01*
X2428172Y-892924D02*
X2437695Y-911971D01*
X2437695Y-911971D02*
X2437695Y-931019D01*
X2437695Y-931019D02*
X2428172Y-959590D01*
X2428172Y-959590D02*
X2313886Y-1073876D01*
X2313886Y-1073876D02*
X2437695Y-1073876D01*
X2513886Y-892924D02*
X2523410Y-883400D01*
X2523410Y-883400D02*
X2542457Y-873876D01*
X2542457Y-873876D02*
X2590076Y-873876D01*
X2590076Y-873876D02*
X2609124Y-883400D01*
X2609124Y-883400D02*
X2618648Y-892924D01*
X2618648Y-892924D02*
X2628172Y-911971D01*
X2628172Y-911971D02*
X2628172Y-931019D01*
X2628172Y-931019D02*
X2618648Y-959590D01*
X2618648Y-959590D02*
X2504362Y-1073876D01*
X2504362Y-1073876D02*
X2628172Y-1073876D01*
X2694838Y-873876D02*
X2818648Y-873876D01*
X2818648Y-873876D02*
X2751981Y-950067D01*
X2751981Y-950067D02*
X2780553Y-950067D01*
X2780553Y-950067D02*
X2799600Y-959590D01*
X2799600Y-959590D02*
X2809124Y-969114D01*
X2809124Y-969114D02*
X2818648Y-988162D01*
X2818648Y-988162D02*
X2818648Y-1035781D01*
X2818648Y-1035781D02*
X2809124Y-1054829D01*
X2809124Y-1054829D02*
X2799600Y-1064352D01*
X2799600Y-1064352D02*
X2780553Y-1073876D01*
X2780553Y-1073876D02*
X2723410Y-1073876D01*
X2723410Y-1073876D02*
X2704362Y-1064352D01*
X2704362Y-1064352D02*
X2694838Y-1054829D01*
X2942457Y-873876D02*
X2961505Y-873876D01*
X2961505Y-873876D02*
X2980552Y-883400D01*
X2980552Y-883400D02*
X2990076Y-892924D01*
X2990076Y-892924D02*
X2999600Y-911971D01*
X2999600Y-911971D02*
X3009124Y-950067D01*
X3009124Y-950067D02*
X3009124Y-997686D01*
X3009124Y-997686D02*
X2999600Y-1035781D01*
X2999600Y-1035781D02*
X2990076Y-1054829D01*
X2990076Y-1054829D02*
X2980552Y-1064352D01*
X2980552Y-1064352D02*
X2961505Y-1073876D01*
X2961505Y-1073876D02*
X2942457Y-1073876D01*
X2942457Y-1073876D02*
X2923410Y-1064352D01*
X2923410Y-1064352D02*
X2913886Y-1054829D01*
X2913886Y-1054829D02*
X2904362Y-1035781D01*
X2904362Y-1035781D02*
X2894838Y-997686D01*
X2894838Y-997686D02*
X2894838Y-950067D01*
X2894838Y-950067D02*
X2904362Y-911971D01*
X2904362Y-911971D02*
X2913886Y-892924D01*
X2913886Y-892924D02*
X2923410Y-883400D01*
X2923410Y-883400D02*
X2942457Y-873876D01*
X3085314Y-873876D02*
X3085314Y-911971D01*
X3161505Y-873876D02*
X3161505Y-911971D01*
X3424362Y-1150067D02*
X3414838Y-1140543D01*
X3414838Y-1140543D02*
X3395791Y-1111971D01*
X3395791Y-1111971D02*
X3386267Y-1092924D01*
X3386267Y-1092924D02*
X3376743Y-1064352D01*
X3376743Y-1064352D02*
X3367219Y-1016733D01*
X3367219Y-1016733D02*
X3367219Y-978638D01*
X3367219Y-978638D02*
X3376743Y-931019D01*
X3376743Y-931019D02*
X3386267Y-902448D01*
X3386267Y-902448D02*
X3395791Y-883400D01*
X3395791Y-883400D02*
X3414838Y-854828D01*
X3414838Y-854828D02*
X3424362Y-845305D01*
X3491029Y-892924D02*
X3500552Y-883400D01*
X3500552Y-883400D02*
X3519600Y-873876D01*
X3519600Y-873876D02*
X3567219Y-873876D01*
X3567219Y-873876D02*
X3586267Y-883400D01*
X3586267Y-883400D02*
X3595791Y-892924D01*
X3595791Y-892924D02*
X3605314Y-911971D01*
X3605314Y-911971D02*
X3605314Y-931019D01*
X3605314Y-931019D02*
X3595791Y-959590D01*
X3595791Y-959590D02*
X3481505Y-1073876D01*
X3481505Y-1073876D02*
X3605314Y-1073876D01*
X3811029Y-1073876D02*
X3811029Y-873876D01*
X3896743Y-1073876D02*
X3896743Y-969114D01*
X3896743Y-969114D02*
X3887219Y-950067D01*
X3887219Y-950067D02*
X3868172Y-940543D01*
X3868172Y-940543D02*
X3839600Y-940543D01*
X3839600Y-940543D02*
X3820552Y-950067D01*
X3820552Y-950067D02*
X3811029Y-959590D01*
X4020552Y-1073876D02*
X4001505Y-1064352D01*
X4001505Y-1064352D02*
X3991981Y-1054829D01*
X3991981Y-1054829D02*
X3982457Y-1035781D01*
X3982457Y-1035781D02*
X3982457Y-978638D01*
X3982457Y-978638D02*
X3991981Y-959590D01*
X3991981Y-959590D02*
X4001505Y-950067D01*
X4001505Y-950067D02*
X4020552Y-940543D01*
X4020552Y-940543D02*
X4049124Y-940543D01*
X4049124Y-940543D02*
X4068172Y-950067D01*
X4068172Y-950067D02*
X4077695Y-959590D01*
X4077695Y-959590D02*
X4087219Y-978638D01*
X4087219Y-978638D02*
X4087219Y-1035781D01*
X4087219Y-1035781D02*
X4077695Y-1054829D01*
X4077695Y-1054829D02*
X4068172Y-1064352D01*
X4068172Y-1064352D02*
X4049124Y-1073876D01*
X4049124Y-1073876D02*
X4020552Y-1073876D01*
X4201505Y-1073876D02*
X4182457Y-1064352D01*
X4182457Y-1064352D02*
X4172933Y-1045305D01*
X4172933Y-1045305D02*
X4172933Y-873876D01*
X4353886Y-1064352D02*
X4334838Y-1073876D01*
X4334838Y-1073876D02*
X4296743Y-1073876D01*
X4296743Y-1073876D02*
X4277695Y-1064352D01*
X4277695Y-1064352D02*
X4268172Y-1045305D01*
X4268172Y-1045305D02*
X4268172Y-969114D01*
X4268172Y-969114D02*
X4277695Y-950067D01*
X4277695Y-950067D02*
X4296743Y-940543D01*
X4296743Y-940543D02*
X4334838Y-940543D01*
X4334838Y-940543D02*
X4353886Y-950067D01*
X4353886Y-950067D02*
X4363410Y-969114D01*
X4363410Y-969114D02*
X4363410Y-988162D01*
X4363410Y-988162D02*
X4268172Y-1007209D01*
X4439600Y-1064352D02*
X4458648Y-1073876D01*
X4458648Y-1073876D02*
X4496743Y-1073876D01*
X4496743Y-1073876D02*
X4515791Y-1064352D01*
X4515791Y-1064352D02*
X4525315Y-1045305D01*
X4525315Y-1045305D02*
X4525315Y-1035781D01*
X4525315Y-1035781D02*
X4515791Y-1016733D01*
X4515791Y-1016733D02*
X4496743Y-1007209D01*
X4496743Y-1007209D02*
X4468172Y-1007209D01*
X4468172Y-1007209D02*
X4449124Y-997686D01*
X4449124Y-997686D02*
X4439600Y-978638D01*
X4439600Y-978638D02*
X4439600Y-969114D01*
X4439600Y-969114D02*
X4449124Y-950067D01*
X4449124Y-950067D02*
X4468172Y-940543D01*
X4468172Y-940543D02*
X4496743Y-940543D01*
X4496743Y-940543D02*
X4515791Y-950067D01*
X4591981Y-1150067D02*
X4601505Y-1140543D01*
X4601505Y-1140543D02*
X4620553Y-1111971D01*
X4620553Y-1111971D02*
X4630076Y-1092924D01*
X4630076Y-1092924D02*
X4639600Y-1064352D01*
X4639600Y-1064352D02*
X4649124Y-1016733D01*
X4649124Y-1016733D02*
X4649124Y-978638D01*
X4649124Y-978638D02*
X4639600Y-931019D01*
X4639600Y-931019D02*
X4630076Y-902448D01*
X4630076Y-902448D02*
X4620553Y-883400D01*
X4620553Y-883400D02*
X4601505Y-854828D01*
X4601505Y-854828D02*
X4591981Y-845305D01*
X-140400Y-1220400D02*
X-140400Y-1420400D01*
X-240400Y-1320400D02*
X-40400Y-1320400D01*
X292933Y-1193876D02*
X254838Y-1193876D01*
X254838Y-1193876D02*
X235790Y-1203400D01*
X235790Y-1203400D02*
X226267Y-1212924D01*
X226267Y-1212924D02*
X207219Y-1241495D01*
X207219Y-1241495D02*
X197695Y-1279590D01*
X197695Y-1279590D02*
X197695Y-1355781D01*
X197695Y-1355781D02*
X207219Y-1374829D01*
X207219Y-1374829D02*
X216743Y-1384352D01*
X216743Y-1384352D02*
X235790Y-1393876D01*
X235790Y-1393876D02*
X273886Y-1393876D01*
X273886Y-1393876D02*
X292933Y-1384352D01*
X292933Y-1384352D02*
X302457Y-1374829D01*
X302457Y-1374829D02*
X311981Y-1355781D01*
X311981Y-1355781D02*
X311981Y-1308162D01*
X311981Y-1308162D02*
X302457Y-1289114D01*
X302457Y-1289114D02*
X292933Y-1279590D01*
X292933Y-1279590D02*
X273886Y-1270067D01*
X273886Y-1270067D02*
X235790Y-1270067D01*
X235790Y-1270067D02*
X216743Y-1279590D01*
X216743Y-1279590D02*
X207219Y-1289114D01*
X207219Y-1289114D02*
X197695Y-1308162D01*
X397695Y-1374829D02*
X407219Y-1384352D01*
X407219Y-1384352D02*
X397695Y-1393876D01*
X397695Y-1393876D02*
X388171Y-1384352D01*
X388171Y-1384352D02*
X397695Y-1374829D01*
X397695Y-1374829D02*
X397695Y-1393876D01*
X578648Y-1193876D02*
X540552Y-1193876D01*
X540552Y-1193876D02*
X521505Y-1203400D01*
X521505Y-1203400D02*
X511981Y-1212924D01*
X511981Y-1212924D02*
X492933Y-1241495D01*
X492933Y-1241495D02*
X483409Y-1279590D01*
X483409Y-1279590D02*
X483409Y-1355781D01*
X483409Y-1355781D02*
X492933Y-1374829D01*
X492933Y-1374829D02*
X502457Y-1384352D01*
X502457Y-1384352D02*
X521505Y-1393876D01*
X521505Y-1393876D02*
X559600Y-1393876D01*
X559600Y-1393876D02*
X578648Y-1384352D01*
X578648Y-1384352D02*
X588171Y-1374829D01*
X588171Y-1374829D02*
X597695Y-1355781D01*
X597695Y-1355781D02*
X597695Y-1308162D01*
X597695Y-1308162D02*
X588171Y-1289114D01*
X588171Y-1289114D02*
X578648Y-1279590D01*
X578648Y-1279590D02*
X559600Y-1270067D01*
X559600Y-1270067D02*
X521505Y-1270067D01*
X521505Y-1270067D02*
X502457Y-1279590D01*
X502457Y-1279590D02*
X492933Y-1289114D01*
X492933Y-1289114D02*
X483409Y-1308162D01*
X721505Y-1193876D02*
X740552Y-1193876D01*
X740552Y-1193876D02*
X759600Y-1203400D01*
X759600Y-1203400D02*
X769124Y-1212924D01*
X769124Y-1212924D02*
X778648Y-1231971D01*
X778648Y-1231971D02*
X788171Y-1270067D01*
X788171Y-1270067D02*
X788171Y-1317686D01*
X788171Y-1317686D02*
X778648Y-1355781D01*
X778648Y-1355781D02*
X769124Y-1374829D01*
X769124Y-1374829D02*
X759600Y-1384352D01*
X759600Y-1384352D02*
X740552Y-1393876D01*
X740552Y-1393876D02*
X721505Y-1393876D01*
X721505Y-1393876D02*
X702457Y-1384352D01*
X702457Y-1384352D02*
X692933Y-1374829D01*
X692933Y-1374829D02*
X683410Y-1355781D01*
X683410Y-1355781D02*
X673886Y-1317686D01*
X673886Y-1317686D02*
X673886Y-1270067D01*
X673886Y-1270067D02*
X683410Y-1231971D01*
X683410Y-1231971D02*
X692933Y-1212924D01*
X692933Y-1212924D02*
X702457Y-1203400D01*
X702457Y-1203400D02*
X721505Y-1193876D01*
X959600Y-1260543D02*
X959600Y-1393876D01*
X911981Y-1184352D02*
X864362Y-1327210D01*
X864362Y-1327210D02*
X988171Y-1327210D01*
X1064362Y-1393876D02*
X1064362Y-1260543D01*
X1064362Y-1279590D02*
X1073886Y-1270067D01*
X1073886Y-1270067D02*
X1092933Y-1260543D01*
X1092933Y-1260543D02*
X1121505Y-1260543D01*
X1121505Y-1260543D02*
X1140552Y-1270067D01*
X1140552Y-1270067D02*
X1150076Y-1289114D01*
X1150076Y-1289114D02*
X1150076Y-1393876D01*
X1150076Y-1289114D02*
X1159600Y-1270067D01*
X1159600Y-1270067D02*
X1178648Y-1260543D01*
X1178648Y-1260543D02*
X1207219Y-1260543D01*
X1207219Y-1260543D02*
X1226267Y-1270067D01*
X1226267Y-1270067D02*
X1235791Y-1289114D01*
X1235791Y-1289114D02*
X1235791Y-1393876D01*
X1331029Y-1393876D02*
X1331029Y-1260543D01*
X1331029Y-1279590D02*
X1340552Y-1270067D01*
X1340552Y-1270067D02*
X1359600Y-1260543D01*
X1359600Y-1260543D02*
X1388172Y-1260543D01*
X1388172Y-1260543D02*
X1407219Y-1270067D01*
X1407219Y-1270067D02*
X1416743Y-1289114D01*
X1416743Y-1289114D02*
X1416743Y-1393876D01*
X1416743Y-1289114D02*
X1426267Y-1270067D01*
X1426267Y-1270067D02*
X1445314Y-1260543D01*
X1445314Y-1260543D02*
X1473886Y-1260543D01*
X1473886Y-1260543D02*
X1492933Y-1270067D01*
X1492933Y-1270067D02*
X1502457Y-1289114D01*
X1502457Y-1289114D02*
X1502457Y-1393876D01*
X1860552Y-1184352D02*
X1689124Y-1441495D01*
X2085314Y-1193876D02*
X2104362Y-1193876D01*
X2104362Y-1193876D02*
X2123410Y-1203400D01*
X2123410Y-1203400D02*
X2132933Y-1212924D01*
X2132933Y-1212924D02*
X2142457Y-1231971D01*
X2142457Y-1231971D02*
X2151981Y-1270067D01*
X2151981Y-1270067D02*
X2151981Y-1317686D01*
X2151981Y-1317686D02*
X2142457Y-1355781D01*
X2142457Y-1355781D02*
X2132933Y-1374829D01*
X2132933Y-1374829D02*
X2123410Y-1384352D01*
X2123410Y-1384352D02*
X2104362Y-1393876D01*
X2104362Y-1393876D02*
X2085314Y-1393876D01*
X2085314Y-1393876D02*
X2066267Y-1384352D01*
X2066267Y-1384352D02*
X2056743Y-1374829D01*
X2056743Y-1374829D02*
X2047219Y-1355781D01*
X2047219Y-1355781D02*
X2037695Y-1317686D01*
X2037695Y-1317686D02*
X2037695Y-1270067D01*
X2037695Y-1270067D02*
X2047219Y-1231971D01*
X2047219Y-1231971D02*
X2056743Y-1212924D01*
X2056743Y-1212924D02*
X2066267Y-1203400D01*
X2066267Y-1203400D02*
X2085314Y-1193876D01*
X2237695Y-1374829D02*
X2247219Y-1384352D01*
X2247219Y-1384352D02*
X2237695Y-1393876D01*
X2237695Y-1393876D02*
X2228172Y-1384352D01*
X2228172Y-1384352D02*
X2237695Y-1374829D01*
X2237695Y-1374829D02*
X2237695Y-1393876D01*
X2323410Y-1212924D02*
X2332933Y-1203400D01*
X2332933Y-1203400D02*
X2351981Y-1193876D01*
X2351981Y-1193876D02*
X2399600Y-1193876D01*
X2399600Y-1193876D02*
X2418648Y-1203400D01*
X2418648Y-1203400D02*
X2428172Y-1212924D01*
X2428172Y-1212924D02*
X2437695Y-1231971D01*
X2437695Y-1231971D02*
X2437695Y-1251019D01*
X2437695Y-1251019D02*
X2428172Y-1279590D01*
X2428172Y-1279590D02*
X2313886Y-1393876D01*
X2313886Y-1393876D02*
X2437695Y-1393876D01*
X2609124Y-1193876D02*
X2571029Y-1193876D01*
X2571029Y-1193876D02*
X2551981Y-1203400D01*
X2551981Y-1203400D02*
X2542457Y-1212924D01*
X2542457Y-1212924D02*
X2523410Y-1241495D01*
X2523410Y-1241495D02*
X2513886Y-1279590D01*
X2513886Y-1279590D02*
X2513886Y-1355781D01*
X2513886Y-1355781D02*
X2523410Y-1374829D01*
X2523410Y-1374829D02*
X2532933Y-1384352D01*
X2532933Y-1384352D02*
X2551981Y-1393876D01*
X2551981Y-1393876D02*
X2590076Y-1393876D01*
X2590076Y-1393876D02*
X2609124Y-1384352D01*
X2609124Y-1384352D02*
X2618648Y-1374829D01*
X2618648Y-1374829D02*
X2628172Y-1355781D01*
X2628172Y-1355781D02*
X2628172Y-1308162D01*
X2628172Y-1308162D02*
X2618648Y-1289114D01*
X2618648Y-1289114D02*
X2609124Y-1279590D01*
X2609124Y-1279590D02*
X2590076Y-1270067D01*
X2590076Y-1270067D02*
X2551981Y-1270067D01*
X2551981Y-1270067D02*
X2532933Y-1279590D01*
X2532933Y-1279590D02*
X2523410Y-1289114D01*
X2523410Y-1289114D02*
X2513886Y-1308162D01*
X2751981Y-1193876D02*
X2771029Y-1193876D01*
X2771029Y-1193876D02*
X2790076Y-1203400D01*
X2790076Y-1203400D02*
X2799600Y-1212924D01*
X2799600Y-1212924D02*
X2809124Y-1231971D01*
X2809124Y-1231971D02*
X2818648Y-1270067D01*
X2818648Y-1270067D02*
X2818648Y-1317686D01*
X2818648Y-1317686D02*
X2809124Y-1355781D01*
X2809124Y-1355781D02*
X2799600Y-1374829D01*
X2799600Y-1374829D02*
X2790076Y-1384352D01*
X2790076Y-1384352D02*
X2771029Y-1393876D01*
X2771029Y-1393876D02*
X2751981Y-1393876D01*
X2751981Y-1393876D02*
X2732933Y-1384352D01*
X2732933Y-1384352D02*
X2723410Y-1374829D01*
X2723410Y-1374829D02*
X2713886Y-1355781D01*
X2713886Y-1355781D02*
X2704362Y-1317686D01*
X2704362Y-1317686D02*
X2704362Y-1270067D01*
X2704362Y-1270067D02*
X2713886Y-1231971D01*
X2713886Y-1231971D02*
X2723410Y-1212924D01*
X2723410Y-1212924D02*
X2732933Y-1203400D01*
X2732933Y-1203400D02*
X2751981Y-1193876D01*
X2942457Y-1193876D02*
X2961505Y-1193876D01*
X2961505Y-1193876D02*
X2980552Y-1203400D01*
X2980552Y-1203400D02*
X2990076Y-1212924D01*
X2990076Y-1212924D02*
X2999600Y-1231971D01*
X2999600Y-1231971D02*
X3009124Y-1270067D01*
X3009124Y-1270067D02*
X3009124Y-1317686D01*
X3009124Y-1317686D02*
X2999600Y-1355781D01*
X2999600Y-1355781D02*
X2990076Y-1374829D01*
X2990076Y-1374829D02*
X2980552Y-1384352D01*
X2980552Y-1384352D02*
X2961505Y-1393876D01*
X2961505Y-1393876D02*
X2942457Y-1393876D01*
X2942457Y-1393876D02*
X2923410Y-1384352D01*
X2923410Y-1384352D02*
X2913886Y-1374829D01*
X2913886Y-1374829D02*
X2904362Y-1355781D01*
X2904362Y-1355781D02*
X2894838Y-1317686D01*
X2894838Y-1317686D02*
X2894838Y-1270067D01*
X2894838Y-1270067D02*
X2904362Y-1231971D01*
X2904362Y-1231971D02*
X2913886Y-1212924D01*
X2913886Y-1212924D02*
X2923410Y-1203400D01*
X2923410Y-1203400D02*
X2942457Y-1193876D01*
X3085314Y-1193876D02*
X3085314Y-1231971D01*
X3161505Y-1193876D02*
X3161505Y-1231971D01*
X3424362Y-1470067D02*
X3414838Y-1460543D01*
X3414838Y-1460543D02*
X3395791Y-1431971D01*
X3395791Y-1431971D02*
X3386267Y-1412924D01*
X3386267Y-1412924D02*
X3376743Y-1384352D01*
X3376743Y-1384352D02*
X3367219Y-1336733D01*
X3367219Y-1336733D02*
X3367219Y-1298638D01*
X3367219Y-1298638D02*
X3376743Y-1251019D01*
X3376743Y-1251019D02*
X3386267Y-1222448D01*
X3386267Y-1222448D02*
X3395791Y-1203400D01*
X3395791Y-1203400D02*
X3414838Y-1174829D01*
X3414838Y-1174829D02*
X3424362Y-1165305D01*
X3605314Y-1393876D02*
X3491029Y-1393876D01*
X3548171Y-1393876D02*
X3548171Y-1193876D01*
X3548171Y-1193876D02*
X3529124Y-1222448D01*
X3529124Y-1222448D02*
X3510076Y-1241495D01*
X3510076Y-1241495D02*
X3491029Y-1251019D01*
X3681505Y-1212924D02*
X3691029Y-1203400D01*
X3691029Y-1203400D02*
X3710076Y-1193876D01*
X3710076Y-1193876D02*
X3757695Y-1193876D01*
X3757695Y-1193876D02*
X3776743Y-1203400D01*
X3776743Y-1203400D02*
X3786267Y-1212924D01*
X3786267Y-1212924D02*
X3795791Y-1231971D01*
X3795791Y-1231971D02*
X3795791Y-1251019D01*
X3795791Y-1251019D02*
X3786267Y-1279590D01*
X3786267Y-1279590D02*
X3671981Y-1393876D01*
X3671981Y-1393876D02*
X3795791Y-1393876D01*
X4001505Y-1393876D02*
X4001505Y-1193876D01*
X4087219Y-1393876D02*
X4087219Y-1289114D01*
X4087219Y-1289114D02*
X4077695Y-1270067D01*
X4077695Y-1270067D02*
X4058648Y-1260543D01*
X4058648Y-1260543D02*
X4030076Y-1260543D01*
X4030076Y-1260543D02*
X4011029Y-1270067D01*
X4011029Y-1270067D02*
X4001505Y-1279590D01*
X4211029Y-1393876D02*
X4191981Y-1384352D01*
X4191981Y-1384352D02*
X4182457Y-1374829D01*
X4182457Y-1374829D02*
X4172933Y-1355781D01*
X4172933Y-1355781D02*
X4172933Y-1298638D01*
X4172933Y-1298638D02*
X4182457Y-1279590D01*
X4182457Y-1279590D02*
X4191981Y-1270067D01*
X4191981Y-1270067D02*
X4211029Y-1260543D01*
X4211029Y-1260543D02*
X4239600Y-1260543D01*
X4239600Y-1260543D02*
X4258648Y-1270067D01*
X4258648Y-1270067D02*
X4268172Y-1279590D01*
X4268172Y-1279590D02*
X4277695Y-1298638D01*
X4277695Y-1298638D02*
X4277695Y-1355781D01*
X4277695Y-1355781D02*
X4268172Y-1374829D01*
X4268172Y-1374829D02*
X4258648Y-1384352D01*
X4258648Y-1384352D02*
X4239600Y-1393876D01*
X4239600Y-1393876D02*
X4211029Y-1393876D01*
X4391981Y-1393876D02*
X4372934Y-1384352D01*
X4372934Y-1384352D02*
X4363410Y-1365305D01*
X4363410Y-1365305D02*
X4363410Y-1193876D01*
X4544362Y-1384352D02*
X4525315Y-1393876D01*
X4525315Y-1393876D02*
X4487219Y-1393876D01*
X4487219Y-1393876D02*
X4468172Y-1384352D01*
X4468172Y-1384352D02*
X4458648Y-1365305D01*
X4458648Y-1365305D02*
X4458648Y-1289114D01*
X4458648Y-1289114D02*
X4468172Y-1270067D01*
X4468172Y-1270067D02*
X4487219Y-1260543D01*
X4487219Y-1260543D02*
X4525315Y-1260543D01*
X4525315Y-1260543D02*
X4544362Y-1270067D01*
X4544362Y-1270067D02*
X4553886Y-1289114D01*
X4553886Y-1289114D02*
X4553886Y-1308162D01*
X4553886Y-1308162D02*
X4458648Y-1327210D01*
X4630076Y-1384352D02*
X4649124Y-1393876D01*
X4649124Y-1393876D02*
X4687219Y-1393876D01*
X4687219Y-1393876D02*
X4706267Y-1384352D01*
X4706267Y-1384352D02*
X4715791Y-1365305D01*
X4715791Y-1365305D02*
X4715791Y-1355781D01*
X4715791Y-1355781D02*
X4706267Y-1336733D01*
X4706267Y-1336733D02*
X4687219Y-1327210D01*
X4687219Y-1327210D02*
X4658648Y-1327210D01*
X4658648Y-1327210D02*
X4639600Y-1317686D01*
X4639600Y-1317686D02*
X4630076Y-1298638D01*
X4630076Y-1298638D02*
X4630076Y-1289114D01*
X4630076Y-1289114D02*
X4639600Y-1270067D01*
X4639600Y-1270067D02*
X4658648Y-1260543D01*
X4658648Y-1260543D02*
X4687219Y-1260543D01*
X4687219Y-1260543D02*
X4706267Y-1270067D01*
X4782457Y-1470067D02*
X4791981Y-1460543D01*
X4791981Y-1460543D02*
X4811029Y-1431971D01*
X4811029Y-1431971D02*
X4820553Y-1412924D01*
X4820553Y-1412924D02*
X4830076Y-1384352D01*
X4830076Y-1384352D02*
X4839600Y-1336733D01*
X4839600Y-1336733D02*
X4839600Y-1298638D01*
X4839600Y-1298638D02*
X4830076Y-1251019D01*
X4830076Y-1251019D02*
X4820553Y-1222448D01*
X4820553Y-1222448D02*
X4811029Y-1203400D01*
X4811029Y-1203400D02*
X4791981Y-1174829D01*
X4791981Y-1174829D02*
X4782457Y-1165305D01*
X-69689Y-1711111D02*
X-69689Y-1569689D01*
X-211111Y-1569689D01*
X-211111Y-1711111D01*
X-69689Y-1711111D01*
X188171Y-1513876D02*
X321505Y-1513876D01*
X321505Y-1513876D02*
X235790Y-1713876D01*
X397695Y-1694828D02*
X407219Y-1704352D01*
X407219Y-1704352D02*
X397695Y-1713876D01*
X397695Y-1713876D02*
X388171Y-1704352D01*
X388171Y-1704352D02*
X397695Y-1694828D01*
X397695Y-1694828D02*
X397695Y-1713876D01*
X597695Y-1713876D02*
X483409Y-1713876D01*
X540552Y-1713876D02*
X540552Y-1513876D01*
X540552Y-1513876D02*
X521505Y-1542448D01*
X521505Y-1542448D02*
X502457Y-1561495D01*
X502457Y-1561495D02*
X483409Y-1571019D01*
X788171Y-1713876D02*
X673886Y-1713876D01*
X731028Y-1713876D02*
X731028Y-1513876D01*
X731028Y-1513876D02*
X711981Y-1542448D01*
X711981Y-1542448D02*
X692933Y-1561495D01*
X692933Y-1561495D02*
X673886Y-1571019D01*
X864362Y-1532924D02*
X873886Y-1523400D01*
X873886Y-1523400D02*
X892933Y-1513876D01*
X892933Y-1513876D02*
X940552Y-1513876D01*
X940552Y-1513876D02*
X959600Y-1523400D01*
X959600Y-1523400D02*
X969124Y-1532924D01*
X969124Y-1532924D02*
X978648Y-1551971D01*
X978648Y-1551971D02*
X978648Y-1571019D01*
X978648Y-1571019D02*
X969124Y-1599590D01*
X969124Y-1599590D02*
X854838Y-1713876D01*
X854838Y-1713876D02*
X978648Y-1713876D01*
X1064362Y-1713876D02*
X1064362Y-1580543D01*
X1064362Y-1599590D02*
X1073886Y-1590067D01*
X1073886Y-1590067D02*
X1092933Y-1580543D01*
X1092933Y-1580543D02*
X1121505Y-1580543D01*
X1121505Y-1580543D02*
X1140552Y-1590067D01*
X1140552Y-1590067D02*
X1150076Y-1609114D01*
X1150076Y-1609114D02*
X1150076Y-1713876D01*
X1150076Y-1609114D02*
X1159600Y-1590067D01*
X1159600Y-1590067D02*
X1178648Y-1580543D01*
X1178648Y-1580543D02*
X1207219Y-1580543D01*
X1207219Y-1580543D02*
X1226267Y-1590067D01*
X1226267Y-1590067D02*
X1235791Y-1609114D01*
X1235791Y-1609114D02*
X1235791Y-1713876D01*
X1331029Y-1713876D02*
X1331029Y-1580543D01*
X1331029Y-1599590D02*
X1340552Y-1590067D01*
X1340552Y-1590067D02*
X1359600Y-1580543D01*
X1359600Y-1580543D02*
X1388172Y-1580543D01*
X1388172Y-1580543D02*
X1407219Y-1590067D01*
X1407219Y-1590067D02*
X1416743Y-1609114D01*
X1416743Y-1609114D02*
X1416743Y-1713876D01*
X1416743Y-1609114D02*
X1426267Y-1590067D01*
X1426267Y-1590067D02*
X1445314Y-1580543D01*
X1445314Y-1580543D02*
X1473886Y-1580543D01*
X1473886Y-1580543D02*
X1492933Y-1590067D01*
X1492933Y-1590067D02*
X1502457Y-1609114D01*
X1502457Y-1609114D02*
X1502457Y-1713876D01*
X1860552Y-1504352D02*
X1689124Y-1761495D01*
X2085314Y-1513876D02*
X2104362Y-1513876D01*
X2104362Y-1513876D02*
X2123410Y-1523400D01*
X2123410Y-1523400D02*
X2132933Y-1532924D01*
X2132933Y-1532924D02*
X2142457Y-1551971D01*
X2142457Y-1551971D02*
X2151981Y-1590067D01*
X2151981Y-1590067D02*
X2151981Y-1637686D01*
X2151981Y-1637686D02*
X2142457Y-1675781D01*
X2142457Y-1675781D02*
X2132933Y-1694828D01*
X2132933Y-1694828D02*
X2123410Y-1704352D01*
X2123410Y-1704352D02*
X2104362Y-1713876D01*
X2104362Y-1713876D02*
X2085314Y-1713876D01*
X2085314Y-1713876D02*
X2066267Y-1704352D01*
X2066267Y-1704352D02*
X2056743Y-1694828D01*
X2056743Y-1694828D02*
X2047219Y-1675781D01*
X2047219Y-1675781D02*
X2037695Y-1637686D01*
X2037695Y-1637686D02*
X2037695Y-1590067D01*
X2037695Y-1590067D02*
X2047219Y-1551971D01*
X2047219Y-1551971D02*
X2056743Y-1532924D01*
X2056743Y-1532924D02*
X2066267Y-1523400D01*
X2066267Y-1523400D02*
X2085314Y-1513876D01*
X2237695Y-1694828D02*
X2247219Y-1704352D01*
X2247219Y-1704352D02*
X2237695Y-1713876D01*
X2237695Y-1713876D02*
X2228172Y-1704352D01*
X2228172Y-1704352D02*
X2237695Y-1694828D01*
X2237695Y-1694828D02*
X2237695Y-1713876D01*
X2323410Y-1532924D02*
X2332933Y-1523400D01*
X2332933Y-1523400D02*
X2351981Y-1513876D01*
X2351981Y-1513876D02*
X2399600Y-1513876D01*
X2399600Y-1513876D02*
X2418648Y-1523400D01*
X2418648Y-1523400D02*
X2428172Y-1532924D01*
X2428172Y-1532924D02*
X2437695Y-1551971D01*
X2437695Y-1551971D02*
X2437695Y-1571019D01*
X2437695Y-1571019D02*
X2428172Y-1599590D01*
X2428172Y-1599590D02*
X2313886Y-1713876D01*
X2313886Y-1713876D02*
X2437695Y-1713876D01*
X2551981Y-1599590D02*
X2532933Y-1590067D01*
X2532933Y-1590067D02*
X2523410Y-1580543D01*
X2523410Y-1580543D02*
X2513886Y-1561495D01*
X2513886Y-1561495D02*
X2513886Y-1551971D01*
X2513886Y-1551971D02*
X2523410Y-1532924D01*
X2523410Y-1532924D02*
X2532933Y-1523400D01*
X2532933Y-1523400D02*
X2551981Y-1513876D01*
X2551981Y-1513876D02*
X2590076Y-1513876D01*
X2590076Y-1513876D02*
X2609124Y-1523400D01*
X2609124Y-1523400D02*
X2618648Y-1532924D01*
X2618648Y-1532924D02*
X2628172Y-1551971D01*
X2628172Y-1551971D02*
X2628172Y-1561495D01*
X2628172Y-1561495D02*
X2618648Y-1580543D01*
X2618648Y-1580543D02*
X2609124Y-1590067D01*
X2609124Y-1590067D02*
X2590076Y-1599590D01*
X2590076Y-1599590D02*
X2551981Y-1599590D01*
X2551981Y-1599590D02*
X2532933Y-1609114D01*
X2532933Y-1609114D02*
X2523410Y-1618638D01*
X2523410Y-1618638D02*
X2513886Y-1637686D01*
X2513886Y-1637686D02*
X2513886Y-1675781D01*
X2513886Y-1675781D02*
X2523410Y-1694828D01*
X2523410Y-1694828D02*
X2532933Y-1704352D01*
X2532933Y-1704352D02*
X2551981Y-1713876D01*
X2551981Y-1713876D02*
X2590076Y-1713876D01*
X2590076Y-1713876D02*
X2609124Y-1704352D01*
X2609124Y-1704352D02*
X2618648Y-1694828D01*
X2618648Y-1694828D02*
X2628172Y-1675781D01*
X2628172Y-1675781D02*
X2628172Y-1637686D01*
X2628172Y-1637686D02*
X2618648Y-1618638D01*
X2618648Y-1618638D02*
X2609124Y-1609114D01*
X2609124Y-1609114D02*
X2590076Y-1599590D01*
X2751981Y-1513876D02*
X2771029Y-1513876D01*
X2771029Y-1513876D02*
X2790076Y-1523400D01*
X2790076Y-1523400D02*
X2799600Y-1532924D01*
X2799600Y-1532924D02*
X2809124Y-1551971D01*
X2809124Y-1551971D02*
X2818648Y-1590067D01*
X2818648Y-1590067D02*
X2818648Y-1637686D01*
X2818648Y-1637686D02*
X2809124Y-1675781D01*
X2809124Y-1675781D02*
X2799600Y-1694828D01*
X2799600Y-1694828D02*
X2790076Y-1704352D01*
X2790076Y-1704352D02*
X2771029Y-1713876D01*
X2771029Y-1713876D02*
X2751981Y-1713876D01*
X2751981Y-1713876D02*
X2732933Y-1704352D01*
X2732933Y-1704352D02*
X2723410Y-1694828D01*
X2723410Y-1694828D02*
X2713886Y-1675781D01*
X2713886Y-1675781D02*
X2704362Y-1637686D01*
X2704362Y-1637686D02*
X2704362Y-1590067D01*
X2704362Y-1590067D02*
X2713886Y-1551971D01*
X2713886Y-1551971D02*
X2723410Y-1532924D01*
X2723410Y-1532924D02*
X2732933Y-1523400D01*
X2732933Y-1523400D02*
X2751981Y-1513876D01*
X2942457Y-1513876D02*
X2961505Y-1513876D01*
X2961505Y-1513876D02*
X2980552Y-1523400D01*
X2980552Y-1523400D02*
X2990076Y-1532924D01*
X2990076Y-1532924D02*
X2999600Y-1551971D01*
X2999600Y-1551971D02*
X3009124Y-1590067D01*
X3009124Y-1590067D02*
X3009124Y-1637686D01*
X3009124Y-1637686D02*
X2999600Y-1675781D01*
X2999600Y-1675781D02*
X2990076Y-1694828D01*
X2990076Y-1694828D02*
X2980552Y-1704352D01*
X2980552Y-1704352D02*
X2961505Y-1713876D01*
X2961505Y-1713876D02*
X2942457Y-1713876D01*
X2942457Y-1713876D02*
X2923410Y-1704352D01*
X2923410Y-1704352D02*
X2913886Y-1694828D01*
X2913886Y-1694828D02*
X2904362Y-1675781D01*
X2904362Y-1675781D02*
X2894838Y-1637686D01*
X2894838Y-1637686D02*
X2894838Y-1590067D01*
X2894838Y-1590067D02*
X2904362Y-1551971D01*
X2904362Y-1551971D02*
X2913886Y-1532924D01*
X2913886Y-1532924D02*
X2923410Y-1523400D01*
X2923410Y-1523400D02*
X2942457Y-1513876D01*
X3085314Y-1513876D02*
X3085314Y-1551971D01*
X3161505Y-1513876D02*
X3161505Y-1551971D01*
X3424362Y-1790067D02*
X3414838Y-1780543D01*
X3414838Y-1780543D02*
X3395791Y-1751971D01*
X3395791Y-1751971D02*
X3386267Y-1732924D01*
X3386267Y-1732924D02*
X3376743Y-1704352D01*
X3376743Y-1704352D02*
X3367219Y-1656733D01*
X3367219Y-1656733D02*
X3367219Y-1618638D01*
X3367219Y-1618638D02*
X3376743Y-1571019D01*
X3376743Y-1571019D02*
X3386267Y-1542448D01*
X3386267Y-1542448D02*
X3395791Y-1523400D01*
X3395791Y-1523400D02*
X3414838Y-1494828D01*
X3414838Y-1494828D02*
X3424362Y-1485305D01*
X3586267Y-1580543D02*
X3586267Y-1713876D01*
X3538648Y-1504352D02*
X3491029Y-1647209D01*
X3491029Y-1647209D02*
X3614838Y-1647209D01*
X3811029Y-1713876D02*
X3811029Y-1513876D01*
X3896743Y-1713876D02*
X3896743Y-1609114D01*
X3896743Y-1609114D02*
X3887219Y-1590067D01*
X3887219Y-1590067D02*
X3868172Y-1580543D01*
X3868172Y-1580543D02*
X3839600Y-1580543D01*
X3839600Y-1580543D02*
X3820552Y-1590067D01*
X3820552Y-1590067D02*
X3811029Y-1599590D01*
X4020552Y-1713876D02*
X4001505Y-1704352D01*
X4001505Y-1704352D02*
X3991981Y-1694828D01*
X3991981Y-1694828D02*
X3982457Y-1675781D01*
X3982457Y-1675781D02*
X3982457Y-1618638D01*
X3982457Y-1618638D02*
X3991981Y-1599590D01*
X3991981Y-1599590D02*
X4001505Y-1590067D01*
X4001505Y-1590067D02*
X4020552Y-1580543D01*
X4020552Y-1580543D02*
X4049124Y-1580543D01*
X4049124Y-1580543D02*
X4068172Y-1590067D01*
X4068172Y-1590067D02*
X4077695Y-1599590D01*
X4077695Y-1599590D02*
X4087219Y-1618638D01*
X4087219Y-1618638D02*
X4087219Y-1675781D01*
X4087219Y-1675781D02*
X4077695Y-1694828D01*
X4077695Y-1694828D02*
X4068172Y-1704352D01*
X4068172Y-1704352D02*
X4049124Y-1713876D01*
X4049124Y-1713876D02*
X4020552Y-1713876D01*
X4201505Y-1713876D02*
X4182457Y-1704352D01*
X4182457Y-1704352D02*
X4172933Y-1685305D01*
X4172933Y-1685305D02*
X4172933Y-1513876D01*
X4353886Y-1704352D02*
X4334838Y-1713876D01*
X4334838Y-1713876D02*
X4296743Y-1713876D01*
X4296743Y-1713876D02*
X4277695Y-1704352D01*
X4277695Y-1704352D02*
X4268172Y-1685305D01*
X4268172Y-1685305D02*
X4268172Y-1609114D01*
X4268172Y-1609114D02*
X4277695Y-1590067D01*
X4277695Y-1590067D02*
X4296743Y-1580543D01*
X4296743Y-1580543D02*
X4334838Y-1580543D01*
X4334838Y-1580543D02*
X4353886Y-1590067D01*
X4353886Y-1590067D02*
X4363410Y-1609114D01*
X4363410Y-1609114D02*
X4363410Y-1628162D01*
X4363410Y-1628162D02*
X4268172Y-1647209D01*
X4439600Y-1704352D02*
X4458648Y-1713876D01*
X4458648Y-1713876D02*
X4496743Y-1713876D01*
X4496743Y-1713876D02*
X4515791Y-1704352D01*
X4515791Y-1704352D02*
X4525315Y-1685305D01*
X4525315Y-1685305D02*
X4525315Y-1675781D01*
X4525315Y-1675781D02*
X4515791Y-1656733D01*
X4515791Y-1656733D02*
X4496743Y-1647209D01*
X4496743Y-1647209D02*
X4468172Y-1647209D01*
X4468172Y-1647209D02*
X4449124Y-1637686D01*
X4449124Y-1637686D02*
X4439600Y-1618638D01*
X4439600Y-1618638D02*
X4439600Y-1609114D01*
X4439600Y-1609114D02*
X4449124Y-1590067D01*
X4449124Y-1590067D02*
X4468172Y-1580543D01*
X4468172Y-1580543D02*
X4496743Y-1580543D01*
X4496743Y-1580543D02*
X4515791Y-1590067D01*
X4591981Y-1790067D02*
X4601505Y-1780543D01*
X4601505Y-1780543D02*
X4620553Y-1751971D01*
X4620553Y-1751971D02*
X4630076Y-1732924D01*
X4630076Y-1732924D02*
X4639600Y-1704352D01*
X4639600Y-1704352D02*
X4649124Y-1656733D01*
X4649124Y-1656733D02*
X4649124Y-1618638D01*
X4649124Y-1618638D02*
X4639600Y-1571019D01*
X4639600Y-1571019D02*
X4630076Y-1542448D01*
X4630076Y-1542448D02*
X4620553Y-1523400D01*
X4620553Y-1523400D02*
X4601505Y-1494828D01*
X4601505Y-1494828D02*
X4591981Y-1485305D01*
X-140400Y-2060400D02*
X-40400Y-1960400D01*
X-140400Y-1860400D01*
X-240400Y-1960400D01*
X-140400Y-2060400D01*
X188171Y-1833876D02*
X321505Y-1833876D01*
X321505Y-1833876D02*
X235790Y-2033876D01*
X397695Y-2014828D02*
X407219Y-2024352D01*
X407219Y-2024352D02*
X397695Y-2033876D01*
X397695Y-2033876D02*
X388171Y-2024352D01*
X388171Y-2024352D02*
X397695Y-2014828D01*
X397695Y-2014828D02*
X397695Y-2033876D01*
X473886Y-1833876D02*
X607219Y-1833876D01*
X607219Y-1833876D02*
X521505Y-2033876D01*
X769124Y-1900543D02*
X769124Y-2033876D01*
X721505Y-1824352D02*
X673886Y-1967209D01*
X673886Y-1967209D02*
X797695Y-1967209D01*
X854838Y-1833876D02*
X988171Y-1833876D01*
X988171Y-1833876D02*
X902457Y-2033876D01*
X1064362Y-2033876D02*
X1064362Y-1900543D01*
X1064362Y-1919590D02*
X1073886Y-1910067D01*
X1073886Y-1910067D02*
X1092933Y-1900543D01*
X1092933Y-1900543D02*
X1121505Y-1900543D01*
X1121505Y-1900543D02*
X1140552Y-1910067D01*
X1140552Y-1910067D02*
X1150076Y-1929114D01*
X1150076Y-1929114D02*
X1150076Y-2033876D01*
X1150076Y-1929114D02*
X1159600Y-1910067D01*
X1159600Y-1910067D02*
X1178648Y-1900543D01*
X1178648Y-1900543D02*
X1207219Y-1900543D01*
X1207219Y-1900543D02*
X1226267Y-1910067D01*
X1226267Y-1910067D02*
X1235791Y-1929114D01*
X1235791Y-1929114D02*
X1235791Y-2033876D01*
X1331029Y-2033876D02*
X1331029Y-1900543D01*
X1331029Y-1919590D02*
X1340552Y-1910067D01*
X1340552Y-1910067D02*
X1359600Y-1900543D01*
X1359600Y-1900543D02*
X1388172Y-1900543D01*
X1388172Y-1900543D02*
X1407219Y-1910067D01*
X1407219Y-1910067D02*
X1416743Y-1929114D01*
X1416743Y-1929114D02*
X1416743Y-2033876D01*
X1416743Y-1929114D02*
X1426267Y-1910067D01*
X1426267Y-1910067D02*
X1445314Y-1900543D01*
X1445314Y-1900543D02*
X1473886Y-1900543D01*
X1473886Y-1900543D02*
X1492933Y-1910067D01*
X1492933Y-1910067D02*
X1502457Y-1929114D01*
X1502457Y-1929114D02*
X1502457Y-2033876D01*
X1860552Y-1824352D02*
X1689124Y-2081495D01*
X2085314Y-1833876D02*
X2104362Y-1833876D01*
X2104362Y-1833876D02*
X2123410Y-1843400D01*
X2123410Y-1843400D02*
X2132933Y-1852924D01*
X2132933Y-1852924D02*
X2142457Y-1871971D01*
X2142457Y-1871971D02*
X2151981Y-1910067D01*
X2151981Y-1910067D02*
X2151981Y-1957686D01*
X2151981Y-1957686D02*
X2142457Y-1995781D01*
X2142457Y-1995781D02*
X2132933Y-2014828D01*
X2132933Y-2014828D02*
X2123410Y-2024352D01*
X2123410Y-2024352D02*
X2104362Y-2033876D01*
X2104362Y-2033876D02*
X2085314Y-2033876D01*
X2085314Y-2033876D02*
X2066267Y-2024352D01*
X2066267Y-2024352D02*
X2056743Y-2014828D01*
X2056743Y-2014828D02*
X2047219Y-1995781D01*
X2047219Y-1995781D02*
X2037695Y-1957686D01*
X2037695Y-1957686D02*
X2037695Y-1910067D01*
X2037695Y-1910067D02*
X2047219Y-1871971D01*
X2047219Y-1871971D02*
X2056743Y-1852924D01*
X2056743Y-1852924D02*
X2066267Y-1843400D01*
X2066267Y-1843400D02*
X2085314Y-1833876D01*
X2237695Y-2014828D02*
X2247219Y-2024352D01*
X2247219Y-2024352D02*
X2237695Y-2033876D01*
X2237695Y-2033876D02*
X2228172Y-2024352D01*
X2228172Y-2024352D02*
X2237695Y-2014828D01*
X2237695Y-2014828D02*
X2237695Y-2033876D01*
X2313886Y-1833876D02*
X2437695Y-1833876D01*
X2437695Y-1833876D02*
X2371029Y-1910067D01*
X2371029Y-1910067D02*
X2399600Y-1910067D01*
X2399600Y-1910067D02*
X2418648Y-1919590D01*
X2418648Y-1919590D02*
X2428172Y-1929114D01*
X2428172Y-1929114D02*
X2437695Y-1948162D01*
X2437695Y-1948162D02*
X2437695Y-1995781D01*
X2437695Y-1995781D02*
X2428172Y-2014828D01*
X2428172Y-2014828D02*
X2418648Y-2024352D01*
X2418648Y-2024352D02*
X2399600Y-2033876D01*
X2399600Y-2033876D02*
X2342457Y-2033876D01*
X2342457Y-2033876D02*
X2323410Y-2024352D01*
X2323410Y-2024352D02*
X2313886Y-2014828D01*
X2561505Y-1833876D02*
X2580553Y-1833876D01*
X2580553Y-1833876D02*
X2599600Y-1843400D01*
X2599600Y-1843400D02*
X2609124Y-1852924D01*
X2609124Y-1852924D02*
X2618648Y-1871971D01*
X2618648Y-1871971D02*
X2628172Y-1910067D01*
X2628172Y-1910067D02*
X2628172Y-1957686D01*
X2628172Y-1957686D02*
X2618648Y-1995781D01*
X2618648Y-1995781D02*
X2609124Y-2014828D01*
X2609124Y-2014828D02*
X2599600Y-2024352D01*
X2599600Y-2024352D02*
X2580553Y-2033876D01*
X2580553Y-2033876D02*
X2561505Y-2033876D01*
X2561505Y-2033876D02*
X2542457Y-2024352D01*
X2542457Y-2024352D02*
X2532933Y-2014828D01*
X2532933Y-2014828D02*
X2523410Y-1995781D01*
X2523410Y-1995781D02*
X2513886Y-1957686D01*
X2513886Y-1957686D02*
X2513886Y-1910067D01*
X2513886Y-1910067D02*
X2523410Y-1871971D01*
X2523410Y-1871971D02*
X2532933Y-1852924D01*
X2532933Y-1852924D02*
X2542457Y-1843400D01*
X2542457Y-1843400D02*
X2561505Y-1833876D01*
X2809124Y-1833876D02*
X2713886Y-1833876D01*
X2713886Y-1833876D02*
X2704362Y-1929114D01*
X2704362Y-1929114D02*
X2713886Y-1919590D01*
X2713886Y-1919590D02*
X2732933Y-1910067D01*
X2732933Y-1910067D02*
X2780553Y-1910067D01*
X2780553Y-1910067D02*
X2799600Y-1919590D01*
X2799600Y-1919590D02*
X2809124Y-1929114D01*
X2809124Y-1929114D02*
X2818648Y-1948162D01*
X2818648Y-1948162D02*
X2818648Y-1995781D01*
X2818648Y-1995781D02*
X2809124Y-2014828D01*
X2809124Y-2014828D02*
X2799600Y-2024352D01*
X2799600Y-2024352D02*
X2780553Y-2033876D01*
X2780553Y-2033876D02*
X2732933Y-2033876D01*
X2732933Y-2033876D02*
X2713886Y-2024352D01*
X2713886Y-2024352D02*
X2704362Y-2014828D01*
X2942457Y-1833876D02*
X2961505Y-1833876D01*
X2961505Y-1833876D02*
X2980552Y-1843400D01*
X2980552Y-1843400D02*
X2990076Y-1852924D01*
X2990076Y-1852924D02*
X2999600Y-1871971D01*
X2999600Y-1871971D02*
X3009124Y-1910067D01*
X3009124Y-1910067D02*
X3009124Y-1957686D01*
X3009124Y-1957686D02*
X2999600Y-1995781D01*
X2999600Y-1995781D02*
X2990076Y-2014828D01*
X2990076Y-2014828D02*
X2980552Y-2024352D01*
X2980552Y-2024352D02*
X2961505Y-2033876D01*
X2961505Y-2033876D02*
X2942457Y-2033876D01*
X2942457Y-2033876D02*
X2923410Y-2024352D01*
X2923410Y-2024352D02*
X2913886Y-2014828D01*
X2913886Y-2014828D02*
X2904362Y-1995781D01*
X2904362Y-1995781D02*
X2894838Y-1957686D01*
X2894838Y-1957686D02*
X2894838Y-1910067D01*
X2894838Y-1910067D02*
X2904362Y-1871971D01*
X2904362Y-1871971D02*
X2913886Y-1852924D01*
X2913886Y-1852924D02*
X2923410Y-1843400D01*
X2923410Y-1843400D02*
X2942457Y-1833876D01*
X3085314Y-1833876D02*
X3085314Y-1871971D01*
X3161505Y-1833876D02*
X3161505Y-1871971D01*
X3424362Y-2110067D02*
X3414838Y-2100543D01*
X3414838Y-2100543D02*
X3395791Y-2071971D01*
X3395791Y-2071971D02*
X3386267Y-2052924D01*
X3386267Y-2052924D02*
X3376743Y-2024352D01*
X3376743Y-2024352D02*
X3367219Y-1976733D01*
X3367219Y-1976733D02*
X3367219Y-1938638D01*
X3367219Y-1938638D02*
X3376743Y-1891019D01*
X3376743Y-1891019D02*
X3386267Y-1862448D01*
X3386267Y-1862448D02*
X3395791Y-1843400D01*
X3395791Y-1843400D02*
X3414838Y-1814828D01*
X3414838Y-1814828D02*
X3424362Y-1805305D01*
X3605314Y-2033876D02*
X3491029Y-2033876D01*
X3548171Y-2033876D02*
X3548171Y-1833876D01*
X3548171Y-1833876D02*
X3529124Y-1862448D01*
X3529124Y-1862448D02*
X3510076Y-1881495D01*
X3510076Y-1881495D02*
X3491029Y-1891019D01*
X3811029Y-2033876D02*
X3811029Y-1833876D01*
X3896743Y-2033876D02*
X3896743Y-1929114D01*
X3896743Y-1929114D02*
X3887219Y-1910067D01*
X3887219Y-1910067D02*
X3868172Y-1900543D01*
X3868172Y-1900543D02*
X3839600Y-1900543D01*
X3839600Y-1900543D02*
X3820552Y-1910067D01*
X3820552Y-1910067D02*
X3811029Y-1919590D01*
X4020552Y-2033876D02*
X4001505Y-2024352D01*
X4001505Y-2024352D02*
X3991981Y-2014828D01*
X3991981Y-2014828D02*
X3982457Y-1995781D01*
X3982457Y-1995781D02*
X3982457Y-1938638D01*
X3982457Y-1938638D02*
X3991981Y-1919590D01*
X3991981Y-1919590D02*
X4001505Y-1910067D01*
X4001505Y-1910067D02*
X4020552Y-1900543D01*
X4020552Y-1900543D02*
X4049124Y-1900543D01*
X4049124Y-1900543D02*
X4068172Y-1910067D01*
X4068172Y-1910067D02*
X4077695Y-1919590D01*
X4077695Y-1919590D02*
X4087219Y-1938638D01*
X4087219Y-1938638D02*
X4087219Y-1995781D01*
X4087219Y-1995781D02*
X4077695Y-2014828D01*
X4077695Y-2014828D02*
X4068172Y-2024352D01*
X4068172Y-2024352D02*
X4049124Y-2033876D01*
X4049124Y-2033876D02*
X4020552Y-2033876D01*
X4201505Y-2033876D02*
X4182457Y-2024352D01*
X4182457Y-2024352D02*
X4172933Y-2005305D01*
X4172933Y-2005305D02*
X4172933Y-1833876D01*
X4353886Y-2024352D02*
X4334838Y-2033876D01*
X4334838Y-2033876D02*
X4296743Y-2033876D01*
X4296743Y-2033876D02*
X4277695Y-2024352D01*
X4277695Y-2024352D02*
X4268172Y-2005305D01*
X4268172Y-2005305D02*
X4268172Y-1929114D01*
X4268172Y-1929114D02*
X4277695Y-1910067D01*
X4277695Y-1910067D02*
X4296743Y-1900543D01*
X4296743Y-1900543D02*
X4334838Y-1900543D01*
X4334838Y-1900543D02*
X4353886Y-1910067D01*
X4353886Y-1910067D02*
X4363410Y-1929114D01*
X4363410Y-1929114D02*
X4363410Y-1948162D01*
X4363410Y-1948162D02*
X4268172Y-1967209D01*
X4430076Y-2110067D02*
X4439600Y-2100543D01*
X4439600Y-2100543D02*
X4458648Y-2071971D01*
X4458648Y-2071971D02*
X4468172Y-2052924D01*
X4468172Y-2052924D02*
X4477695Y-2024352D01*
X4477695Y-2024352D02*
X4487219Y-1976733D01*
X4487219Y-1976733D02*
X4487219Y-1938638D01*
X4487219Y-1938638D02*
X4477695Y-1891019D01*
X4477695Y-1891019D02*
X4468172Y-1862448D01*
X4468172Y-1862448D02*
X4458648Y-1843400D01*
X4458648Y-1843400D02*
X4439600Y-1814828D01*
X4439600Y-1814828D02*
X4430076Y-1805305D01*
M02*
