M48
; DRILL file {KiCad 8.0.5} date 2024-10-24T15:03:55-0700
; FORMAT={-:-/ absolute / metric / decimal}
; #@! TF.CreationDate,2024-10-24T15:03:55-07:00
; #@! TF.GenerationSoftware,Kicad,Pcbnew,8.0.5
; #@! TF.FileFunction,MixedPlating,1,4
FMAT,2
METRIC
; #@! TA.AperFunction,Plated,PTH,ComponentDrill
T1C3.175
; #@! TA.AperFunction,Plated,PTH,ComponentDrill
T2C5.664
; #@! TA.AperFunction,Plated,PTH,ComponentDrill
T3C6.604
; #@! TA.AperFunction,Plated,PTH,ComponentDrill
T4C7.112
; #@! TA.AperFunction,Plated,PTH,ComponentDrill
T5C7.747
%
G90
G05
T2
X8.3Y112.25
X52.3Y112.25
T3
X8.43Y16.79
X8.431Y46.815
X8.431Y31.819
X22.957Y46.815
X22.958Y31.819
X22.958Y16.79
X37.485Y46.815
X37.485Y31.819
X37.485Y16.79
X52.006Y46.815
X52.006Y31.819
X52.006Y16.79
T4
X11.62Y92.731
X15.94Y68.128
X42.56Y68.128
X48.615Y93.159
T5
X30.331Y109.479
T1
X5.905Y125.503G85X9.08Y125.503
G05
X5.905Y2.997G85X9.08Y2.997
G05
X51.52Y125.503G85X54.694Y125.503
G05
X51.52Y2.997G85X54.694Y2.997
G05
M30
