%TF.GenerationSoftware,KiCad,Pcbnew,8.0.5*%
%TF.CreationDate,2024-10-11T08:36:45-07:00*%
%TF.ProjectId,Sampler-built-FACEPLATE,53616d70-6c65-4722-9d62-75696c742d46,rev?*%
%TF.SameCoordinates,PXff8daa79PY77b0550*%
%TF.FileFunction,Drillmap*%
%TF.FilePolarity,Positive*%
%FSLAX45Y45*%
G04 Gerber Fmt 4.5, Leading zero omitted, Abs format (unit mm)*
G04 Created by KiCad (PCBNEW 8.0.5) date 2024-10-11 08:36:45*
%MOMM*%
%LPD*%
G01*
G04 APERTURE LIST*
%ADD10C,0.100000*%
%ADD11C,0.050000*%
%ADD12C,0.200000*%
%ADD13C,0.317500*%
%ADD14C,0.566420*%
%ADD15C,0.660400*%
%ADD16C,0.711200*%
%ADD17C,0.774700*%
G04 APERTURE END LIST*
D10*
X0Y0D02*
X6060000Y0D01*
X6060000Y12850000D02*
X6060000Y0D01*
X0Y12850000D02*
X0Y0D01*
X0Y12850000D02*
X6060000Y12850000D01*
D11*
X2867200Y10040100D02*
X3177200Y10040100D01*
X2867200Y8679100D02*
X2867200Y10039100D01*
X3178200Y10039100D02*
X3178200Y8680100D01*
X3178200Y8679100D02*
X2867200Y8679100D01*
D12*
D13*
X590550Y12709030D02*
X908050Y12391530D01*
X908050Y12709030D02*
X590550Y12391530D01*
D10*
X590550Y12391530D02*
X908050Y12391530D01*
X908050Y12709030D02*
G75*
G02*
X908050Y12391530I0J-158750D01*
G01*
X908050Y12709030D02*
X590550Y12709030D01*
X590550Y12709030D02*
G75*
G03*
X590550Y12391530I0J-158750D01*
G01*
D13*
X590550Y458470D02*
X908050Y140970D01*
X908050Y458470D02*
X590550Y140970D01*
D10*
X590550Y140970D02*
X908050Y140970D01*
X908050Y458470D02*
G75*
G02*
X908050Y140970I0J-158750D01*
G01*
X908050Y458470D02*
X590550Y458470D01*
X590550Y458470D02*
G75*
G03*
X590550Y140970I0J-158750D01*
G01*
D13*
X5151950Y12709030D02*
X5469450Y12391530D01*
X5469450Y12709030D02*
X5151950Y12391530D01*
D10*
X5151950Y12391530D02*
X5469450Y12391530D01*
X5469450Y12709030D02*
G75*
G02*
X5469450Y12391530I0J-158750D01*
G01*
X5469450Y12709030D02*
X5151950Y12709030D01*
X5151950Y12709030D02*
G75*
G03*
X5151950Y12391530I0J-158750D01*
G01*
D13*
X5151950Y458470D02*
X5469450Y140970D01*
X5469450Y458470D02*
X5151950Y140970D01*
D10*
X5151950Y140970D02*
X5469450Y140970D01*
X5469450Y458470D02*
G75*
G02*
X5469450Y140970I0J-158750D01*
G01*
X5469450Y458470D02*
X5151950Y458470D01*
X5151950Y458470D02*
G75*
G03*
X5151950Y140970I0J-158750D01*
G01*
D14*
X1445210Y11315400D02*
G75*
G02*
X878790Y11315400I-283210J0D01*
G01*
X878790Y11315400D02*
G75*
G02*
X1445210Y11315400I283210J0D01*
G01*
X5139210Y11315400D02*
G75*
G02*
X4572790Y11315400I-283210J0D01*
G01*
X4572790Y11315400D02*
G75*
G02*
X5139210Y11315400I283210J0D01*
G01*
D15*
X843000Y2009200D02*
X843000Y1348800D01*
X512800Y1679000D02*
X1173200Y1679000D01*
X843100Y5011700D02*
X843100Y4351300D01*
X512900Y4681500D02*
X1173300Y4681500D01*
X843100Y3512100D02*
X843100Y2851700D01*
X512900Y3181900D02*
X1173300Y3181900D01*
X2295700Y5011700D02*
X2295700Y4351300D01*
X1965500Y4681500D02*
X2625900Y4681500D01*
X2295800Y3512100D02*
X2295800Y2851700D01*
X1965600Y3181900D02*
X2626000Y3181900D01*
X2295800Y2009200D02*
X2295800Y1348800D01*
X1965600Y1679000D02*
X2626000Y1679000D01*
X3748500Y5011700D02*
X3748500Y4351300D01*
X3418300Y4681500D02*
X4078700Y4681500D01*
X3748500Y3512100D02*
X3748500Y2851700D01*
X3418300Y3181900D02*
X4078700Y3181900D01*
X3748500Y2009200D02*
X3748500Y1348800D01*
X3418300Y1679000D02*
X4078700Y1679000D01*
X5200600Y5011700D02*
X5200600Y4351300D01*
X4870400Y4681500D02*
X5530800Y4681500D01*
X5200600Y3512100D02*
X5200600Y2851700D01*
X4870400Y3181900D02*
X5530800Y3181900D01*
X5200600Y2009200D02*
X5200600Y1348800D01*
X4870400Y1679000D02*
X5530800Y1679000D01*
D16*
X1413450Y9599250D02*
X1413450Y10102150D01*
X910550Y10102150D01*
X910550Y9599250D01*
X1413450Y9599250D01*
X1413450Y6999950D02*
X1413450Y7502850D01*
X910550Y7502850D01*
X910550Y6999950D01*
X1413450Y6999950D01*
X5107450Y9616150D02*
X5107450Y10119050D01*
X4604550Y10119050D01*
X4604550Y9616150D01*
X5107450Y9616150D01*
X5107450Y6999950D02*
X5107450Y7502850D01*
X4604550Y7502850D01*
X4604550Y6999950D01*
X5107450Y6999950D01*
D17*
X3033100Y10724850D02*
X3420450Y11112200D01*
X3033100Y11499550D01*
X2645750Y11112200D01*
X3033100Y10724850D01*
D12*
X255777Y-316484D02*
X255777Y-116484D01*
X255777Y-116484D02*
X303396Y-116484D01*
X303396Y-116484D02*
X331967Y-126008D01*
X331967Y-126008D02*
X351015Y-145055D01*
X351015Y-145055D02*
X360539Y-164103D01*
X360539Y-164103D02*
X370063Y-202198D01*
X370063Y-202198D02*
X370063Y-230769D01*
X370063Y-230769D02*
X360539Y-268865D01*
X360539Y-268865D02*
X351015Y-287912D01*
X351015Y-287912D02*
X331967Y-306960D01*
X331967Y-306960D02*
X303396Y-316484D01*
X303396Y-316484D02*
X255777Y-316484D01*
X455777Y-316484D02*
X455777Y-183150D01*
X455777Y-221246D02*
X465301Y-202198D01*
X465301Y-202198D02*
X474824Y-192674D01*
X474824Y-192674D02*
X493872Y-183150D01*
X493872Y-183150D02*
X512920Y-183150D01*
X579586Y-316484D02*
X579586Y-183150D01*
X579586Y-116484D02*
X570063Y-126008D01*
X570063Y-126008D02*
X579586Y-135531D01*
X579586Y-135531D02*
X589110Y-126008D01*
X589110Y-126008D02*
X579586Y-116484D01*
X579586Y-116484D02*
X579586Y-135531D01*
X703396Y-316484D02*
X684348Y-306960D01*
X684348Y-306960D02*
X674825Y-287912D01*
X674825Y-287912D02*
X674825Y-116484D01*
X808158Y-316484D02*
X789110Y-306960D01*
X789110Y-306960D02*
X779586Y-287912D01*
X779586Y-287912D02*
X779586Y-116484D01*
X1036729Y-316484D02*
X1036729Y-116484D01*
X1036729Y-116484D02*
X1103396Y-259341D01*
X1103396Y-259341D02*
X1170063Y-116484D01*
X1170063Y-116484D02*
X1170063Y-316484D01*
X1351015Y-316484D02*
X1351015Y-211722D01*
X1351015Y-211722D02*
X1341491Y-192674D01*
X1341491Y-192674D02*
X1322444Y-183150D01*
X1322444Y-183150D02*
X1284348Y-183150D01*
X1284348Y-183150D02*
X1265301Y-192674D01*
X1351015Y-306960D02*
X1331967Y-316484D01*
X1331967Y-316484D02*
X1284348Y-316484D01*
X1284348Y-316484D02*
X1265301Y-306960D01*
X1265301Y-306960D02*
X1255777Y-287912D01*
X1255777Y-287912D02*
X1255777Y-268865D01*
X1255777Y-268865D02*
X1265301Y-249817D01*
X1265301Y-249817D02*
X1284348Y-240293D01*
X1284348Y-240293D02*
X1331967Y-240293D01*
X1331967Y-240293D02*
X1351015Y-230769D01*
X1446253Y-183150D02*
X1446253Y-383150D01*
X1446253Y-192674D02*
X1465301Y-183150D01*
X1465301Y-183150D02*
X1503396Y-183150D01*
X1503396Y-183150D02*
X1522443Y-192674D01*
X1522443Y-192674D02*
X1531967Y-202198D01*
X1531967Y-202198D02*
X1541491Y-221246D01*
X1541491Y-221246D02*
X1541491Y-278389D01*
X1541491Y-278389D02*
X1531967Y-297436D01*
X1531967Y-297436D02*
X1522443Y-306960D01*
X1522443Y-306960D02*
X1503396Y-316484D01*
X1503396Y-316484D02*
X1465301Y-316484D01*
X1465301Y-316484D02*
X1446253Y-306960D01*
X1627205Y-297436D02*
X1636729Y-306960D01*
X1636729Y-306960D02*
X1627205Y-316484D01*
X1627205Y-316484D02*
X1617682Y-306960D01*
X1617682Y-306960D02*
X1627205Y-297436D01*
X1627205Y-297436D02*
X1627205Y-316484D01*
X1627205Y-192674D02*
X1636729Y-202198D01*
X1636729Y-202198D02*
X1627205Y-211722D01*
X1627205Y-211722D02*
X1617682Y-202198D01*
X1617682Y-202198D02*
X1627205Y-192674D01*
X1627205Y-192674D02*
X1627205Y-211722D01*
X-205000Y-545000D02*
X-5000Y-745000D01*
X-5000Y-545000D02*
X-205000Y-745000D01*
X236729Y-536484D02*
X360539Y-536484D01*
X360539Y-536484D02*
X293872Y-612674D01*
X293872Y-612674D02*
X322444Y-612674D01*
X322444Y-612674D02*
X341491Y-622198D01*
X341491Y-622198D02*
X351015Y-631722D01*
X351015Y-631722D02*
X360539Y-650770D01*
X360539Y-650770D02*
X360539Y-698389D01*
X360539Y-698389D02*
X351015Y-717436D01*
X351015Y-717436D02*
X341491Y-726960D01*
X341491Y-726960D02*
X322444Y-736484D01*
X322444Y-736484D02*
X265301Y-736484D01*
X265301Y-736484D02*
X246253Y-726960D01*
X246253Y-726960D02*
X236729Y-717436D01*
X446253Y-717436D02*
X455777Y-726960D01*
X455777Y-726960D02*
X446253Y-736484D01*
X446253Y-736484D02*
X436729Y-726960D01*
X436729Y-726960D02*
X446253Y-717436D01*
X446253Y-717436D02*
X446253Y-736484D01*
X646253Y-736484D02*
X531967Y-736484D01*
X589110Y-736484D02*
X589110Y-536484D01*
X589110Y-536484D02*
X570063Y-565055D01*
X570063Y-565055D02*
X551015Y-584103D01*
X551015Y-584103D02*
X531967Y-593627D01*
X712920Y-536484D02*
X846253Y-536484D01*
X846253Y-536484D02*
X760539Y-736484D01*
X1017682Y-536484D02*
X922443Y-536484D01*
X922443Y-536484D02*
X912920Y-631722D01*
X912920Y-631722D02*
X922443Y-622198D01*
X922443Y-622198D02*
X941491Y-612674D01*
X941491Y-612674D02*
X989110Y-612674D01*
X989110Y-612674D02*
X1008158Y-622198D01*
X1008158Y-622198D02*
X1017682Y-631722D01*
X1017682Y-631722D02*
X1027205Y-650770D01*
X1027205Y-650770D02*
X1027205Y-698389D01*
X1027205Y-698389D02*
X1017682Y-717436D01*
X1017682Y-717436D02*
X1008158Y-726960D01*
X1008158Y-726960D02*
X989110Y-736484D01*
X989110Y-736484D02*
X941491Y-736484D01*
X941491Y-736484D02*
X922443Y-726960D01*
X922443Y-726960D02*
X912920Y-717436D01*
X1112920Y-736484D02*
X1112920Y-603150D01*
X1112920Y-622198D02*
X1122444Y-612674D01*
X1122444Y-612674D02*
X1141491Y-603150D01*
X1141491Y-603150D02*
X1170063Y-603150D01*
X1170063Y-603150D02*
X1189110Y-612674D01*
X1189110Y-612674D02*
X1198634Y-631722D01*
X1198634Y-631722D02*
X1198634Y-736484D01*
X1198634Y-631722D02*
X1208158Y-612674D01*
X1208158Y-612674D02*
X1227205Y-603150D01*
X1227205Y-603150D02*
X1255777Y-603150D01*
X1255777Y-603150D02*
X1274825Y-612674D01*
X1274825Y-612674D02*
X1284348Y-631722D01*
X1284348Y-631722D02*
X1284348Y-736484D01*
X1379586Y-736484D02*
X1379586Y-603150D01*
X1379586Y-622198D02*
X1389110Y-612674D01*
X1389110Y-612674D02*
X1408158Y-603150D01*
X1408158Y-603150D02*
X1436729Y-603150D01*
X1436729Y-603150D02*
X1455777Y-612674D01*
X1455777Y-612674D02*
X1465301Y-631722D01*
X1465301Y-631722D02*
X1465301Y-736484D01*
X1465301Y-631722D02*
X1474824Y-612674D01*
X1474824Y-612674D02*
X1493872Y-603150D01*
X1493872Y-603150D02*
X1522443Y-603150D01*
X1522443Y-603150D02*
X1541491Y-612674D01*
X1541491Y-612674D02*
X1551015Y-631722D01*
X1551015Y-631722D02*
X1551015Y-736484D01*
X1941491Y-526960D02*
X1770063Y-784103D01*
X2198634Y-536484D02*
X2217682Y-536484D01*
X2217682Y-536484D02*
X2236729Y-546008D01*
X2236729Y-546008D02*
X2246253Y-555531D01*
X2246253Y-555531D02*
X2255777Y-574579D01*
X2255777Y-574579D02*
X2265301Y-612674D01*
X2265301Y-612674D02*
X2265301Y-660293D01*
X2265301Y-660293D02*
X2255777Y-698389D01*
X2255777Y-698389D02*
X2246253Y-717436D01*
X2246253Y-717436D02*
X2236729Y-726960D01*
X2236729Y-726960D02*
X2217682Y-736484D01*
X2217682Y-736484D02*
X2198634Y-736484D01*
X2198634Y-736484D02*
X2179587Y-726960D01*
X2179587Y-726960D02*
X2170063Y-717436D01*
X2170063Y-717436D02*
X2160539Y-698389D01*
X2160539Y-698389D02*
X2151015Y-660293D01*
X2151015Y-660293D02*
X2151015Y-612674D01*
X2151015Y-612674D02*
X2160539Y-574579D01*
X2160539Y-574579D02*
X2170063Y-555531D01*
X2170063Y-555531D02*
X2179587Y-546008D01*
X2179587Y-546008D02*
X2198634Y-536484D01*
X2351015Y-717436D02*
X2360539Y-726960D01*
X2360539Y-726960D02*
X2351015Y-736484D01*
X2351015Y-736484D02*
X2341491Y-726960D01*
X2341491Y-726960D02*
X2351015Y-717436D01*
X2351015Y-717436D02*
X2351015Y-736484D01*
X2551015Y-736484D02*
X2436729Y-736484D01*
X2493872Y-736484D02*
X2493872Y-536484D01*
X2493872Y-536484D02*
X2474825Y-565055D01*
X2474825Y-565055D02*
X2455777Y-584103D01*
X2455777Y-584103D02*
X2436729Y-593627D01*
X2627206Y-555531D02*
X2636729Y-546008D01*
X2636729Y-546008D02*
X2655777Y-536484D01*
X2655777Y-536484D02*
X2703396Y-536484D01*
X2703396Y-536484D02*
X2722444Y-546008D01*
X2722444Y-546008D02*
X2731968Y-555531D01*
X2731968Y-555531D02*
X2741491Y-574579D01*
X2741491Y-574579D02*
X2741491Y-593627D01*
X2741491Y-593627D02*
X2731968Y-622198D01*
X2731968Y-622198D02*
X2617682Y-736484D01*
X2617682Y-736484D02*
X2741491Y-736484D01*
X2922444Y-536484D02*
X2827206Y-536484D01*
X2827206Y-536484D02*
X2817682Y-631722D01*
X2817682Y-631722D02*
X2827206Y-622198D01*
X2827206Y-622198D02*
X2846253Y-612674D01*
X2846253Y-612674D02*
X2893872Y-612674D01*
X2893872Y-612674D02*
X2912920Y-622198D01*
X2912920Y-622198D02*
X2922444Y-631722D01*
X2922444Y-631722D02*
X2931967Y-650770D01*
X2931967Y-650770D02*
X2931967Y-698389D01*
X2931967Y-698389D02*
X2922444Y-717436D01*
X2922444Y-717436D02*
X2912920Y-726960D01*
X2912920Y-726960D02*
X2893872Y-736484D01*
X2893872Y-736484D02*
X2846253Y-736484D01*
X2846253Y-736484D02*
X2827206Y-726960D01*
X2827206Y-726960D02*
X2817682Y-717436D01*
X3055777Y-536484D02*
X3074825Y-536484D01*
X3074825Y-536484D02*
X3093872Y-546008D01*
X3093872Y-546008D02*
X3103396Y-555531D01*
X3103396Y-555531D02*
X3112920Y-574579D01*
X3112920Y-574579D02*
X3122444Y-612674D01*
X3122444Y-612674D02*
X3122444Y-660293D01*
X3122444Y-660293D02*
X3112920Y-698389D01*
X3112920Y-698389D02*
X3103396Y-717436D01*
X3103396Y-717436D02*
X3093872Y-726960D01*
X3093872Y-726960D02*
X3074825Y-736484D01*
X3074825Y-736484D02*
X3055777Y-736484D01*
X3055777Y-736484D02*
X3036729Y-726960D01*
X3036729Y-726960D02*
X3027206Y-717436D01*
X3027206Y-717436D02*
X3017682Y-698389D01*
X3017682Y-698389D02*
X3008158Y-660293D01*
X3008158Y-660293D02*
X3008158Y-612674D01*
X3008158Y-612674D02*
X3017682Y-574579D01*
X3017682Y-574579D02*
X3027206Y-555531D01*
X3027206Y-555531D02*
X3036729Y-546008D01*
X3036729Y-546008D02*
X3055777Y-536484D01*
X3198634Y-536484D02*
X3198634Y-574579D01*
X3274825Y-536484D02*
X3274825Y-574579D01*
X3570063Y-812674D02*
X3560539Y-803150D01*
X3560539Y-803150D02*
X3541491Y-774579D01*
X3541491Y-774579D02*
X3531968Y-755531D01*
X3531968Y-755531D02*
X3522444Y-726960D01*
X3522444Y-726960D02*
X3512920Y-679341D01*
X3512920Y-679341D02*
X3512920Y-641246D01*
X3512920Y-641246D02*
X3522444Y-593627D01*
X3522444Y-593627D02*
X3531968Y-565055D01*
X3531968Y-565055D02*
X3541491Y-546008D01*
X3541491Y-546008D02*
X3560539Y-517436D01*
X3560539Y-517436D02*
X3570063Y-507912D01*
X3684348Y-536484D02*
X3703396Y-536484D01*
X3703396Y-536484D02*
X3722444Y-546008D01*
X3722444Y-546008D02*
X3731968Y-555531D01*
X3731968Y-555531D02*
X3741491Y-574579D01*
X3741491Y-574579D02*
X3751015Y-612674D01*
X3751015Y-612674D02*
X3751015Y-660293D01*
X3751015Y-660293D02*
X3741491Y-698389D01*
X3741491Y-698389D02*
X3731968Y-717436D01*
X3731968Y-717436D02*
X3722444Y-726960D01*
X3722444Y-726960D02*
X3703396Y-736484D01*
X3703396Y-736484D02*
X3684348Y-736484D01*
X3684348Y-736484D02*
X3665301Y-726960D01*
X3665301Y-726960D02*
X3655777Y-717436D01*
X3655777Y-717436D02*
X3646253Y-698389D01*
X3646253Y-698389D02*
X3636729Y-660293D01*
X3636729Y-660293D02*
X3636729Y-612674D01*
X3636729Y-612674D02*
X3646253Y-574579D01*
X3646253Y-574579D02*
X3655777Y-555531D01*
X3655777Y-555531D02*
X3665301Y-546008D01*
X3665301Y-546008D02*
X3684348Y-536484D01*
X3989110Y-736484D02*
X3989110Y-536484D01*
X4074825Y-736484D02*
X4074825Y-631722D01*
X4074825Y-631722D02*
X4065301Y-612674D01*
X4065301Y-612674D02*
X4046253Y-603150D01*
X4046253Y-603150D02*
X4017682Y-603150D01*
X4017682Y-603150D02*
X3998634Y-612674D01*
X3998634Y-612674D02*
X3989110Y-622198D01*
X4198634Y-736484D02*
X4179587Y-726960D01*
X4179587Y-726960D02*
X4170063Y-717436D01*
X4170063Y-717436D02*
X4160539Y-698389D01*
X4160539Y-698389D02*
X4160539Y-641246D01*
X4160539Y-641246D02*
X4170063Y-622198D01*
X4170063Y-622198D02*
X4179587Y-612674D01*
X4179587Y-612674D02*
X4198634Y-603150D01*
X4198634Y-603150D02*
X4227206Y-603150D01*
X4227206Y-603150D02*
X4246253Y-612674D01*
X4246253Y-612674D02*
X4255777Y-622198D01*
X4255777Y-622198D02*
X4265301Y-641246D01*
X4265301Y-641246D02*
X4265301Y-698389D01*
X4265301Y-698389D02*
X4255777Y-717436D01*
X4255777Y-717436D02*
X4246253Y-726960D01*
X4246253Y-726960D02*
X4227206Y-736484D01*
X4227206Y-736484D02*
X4198634Y-736484D01*
X4379587Y-736484D02*
X4360539Y-726960D01*
X4360539Y-726960D02*
X4351015Y-707912D01*
X4351015Y-707912D02*
X4351015Y-536484D01*
X4531968Y-726960D02*
X4512920Y-736484D01*
X4512920Y-736484D02*
X4474825Y-736484D01*
X4474825Y-736484D02*
X4455777Y-726960D01*
X4455777Y-726960D02*
X4446253Y-707912D01*
X4446253Y-707912D02*
X4446253Y-631722D01*
X4446253Y-631722D02*
X4455777Y-612674D01*
X4455777Y-612674D02*
X4474825Y-603150D01*
X4474825Y-603150D02*
X4512920Y-603150D01*
X4512920Y-603150D02*
X4531968Y-612674D01*
X4531968Y-612674D02*
X4541492Y-631722D01*
X4541492Y-631722D02*
X4541492Y-650770D01*
X4541492Y-650770D02*
X4446253Y-669817D01*
X4617682Y-726960D02*
X4636730Y-736484D01*
X4636730Y-736484D02*
X4674825Y-736484D01*
X4674825Y-736484D02*
X4693873Y-726960D01*
X4693873Y-726960D02*
X4703396Y-707912D01*
X4703396Y-707912D02*
X4703396Y-698389D01*
X4703396Y-698389D02*
X4693873Y-679341D01*
X4693873Y-679341D02*
X4674825Y-669817D01*
X4674825Y-669817D02*
X4646253Y-669817D01*
X4646253Y-669817D02*
X4627206Y-660293D01*
X4627206Y-660293D02*
X4617682Y-641246D01*
X4617682Y-641246D02*
X4617682Y-631722D01*
X4617682Y-631722D02*
X4627206Y-612674D01*
X4627206Y-612674D02*
X4646253Y-603150D01*
X4646253Y-603150D02*
X4674825Y-603150D01*
X4674825Y-603150D02*
X4693873Y-612674D01*
X4941492Y-660293D02*
X5093873Y-660293D01*
X5017682Y-736484D02*
X5017682Y-584103D01*
X5427206Y-603150D02*
X5427206Y-736484D01*
X5379587Y-526960D02*
X5331968Y-669817D01*
X5331968Y-669817D02*
X5455777Y-669817D01*
X5674825Y-726960D02*
X5693873Y-736484D01*
X5693873Y-736484D02*
X5731968Y-736484D01*
X5731968Y-736484D02*
X5751015Y-726960D01*
X5751015Y-726960D02*
X5760539Y-707912D01*
X5760539Y-707912D02*
X5760539Y-698389D01*
X5760539Y-698389D02*
X5751015Y-679341D01*
X5751015Y-679341D02*
X5731968Y-669817D01*
X5731968Y-669817D02*
X5703396Y-669817D01*
X5703396Y-669817D02*
X5684349Y-660293D01*
X5684349Y-660293D02*
X5674825Y-641246D01*
X5674825Y-641246D02*
X5674825Y-631722D01*
X5674825Y-631722D02*
X5684349Y-612674D01*
X5684349Y-612674D02*
X5703396Y-603150D01*
X5703396Y-603150D02*
X5731968Y-603150D01*
X5731968Y-603150D02*
X5751015Y-612674D01*
X5874825Y-736484D02*
X5855777Y-726960D01*
X5855777Y-726960D02*
X5846254Y-707912D01*
X5846254Y-707912D02*
X5846254Y-536484D01*
X5979587Y-736484D02*
X5960539Y-726960D01*
X5960539Y-726960D02*
X5951015Y-717436D01*
X5951015Y-717436D02*
X5941492Y-698389D01*
X5941492Y-698389D02*
X5941492Y-641246D01*
X5941492Y-641246D02*
X5951015Y-622198D01*
X5951015Y-622198D02*
X5960539Y-612674D01*
X5960539Y-612674D02*
X5979587Y-603150D01*
X5979587Y-603150D02*
X6008158Y-603150D01*
X6008158Y-603150D02*
X6027206Y-612674D01*
X6027206Y-612674D02*
X6036730Y-622198D01*
X6036730Y-622198D02*
X6046254Y-641246D01*
X6046254Y-641246D02*
X6046254Y-698389D01*
X6046254Y-698389D02*
X6036730Y-717436D01*
X6036730Y-717436D02*
X6027206Y-726960D01*
X6027206Y-726960D02*
X6008158Y-736484D01*
X6008158Y-736484D02*
X5979587Y-736484D01*
X6103396Y-603150D02*
X6179587Y-603150D01*
X6131968Y-536484D02*
X6131968Y-707912D01*
X6131968Y-707912D02*
X6141492Y-726960D01*
X6141492Y-726960D02*
X6160539Y-736484D01*
X6160539Y-736484D02*
X6179587Y-736484D01*
X6236730Y-726960D02*
X6255777Y-736484D01*
X6255777Y-736484D02*
X6293873Y-736484D01*
X6293873Y-736484D02*
X6312920Y-726960D01*
X6312920Y-726960D02*
X6322444Y-707912D01*
X6322444Y-707912D02*
X6322444Y-698389D01*
X6322444Y-698389D02*
X6312920Y-679341D01*
X6312920Y-679341D02*
X6293873Y-669817D01*
X6293873Y-669817D02*
X6265301Y-669817D01*
X6265301Y-669817D02*
X6246254Y-660293D01*
X6246254Y-660293D02*
X6236730Y-641246D01*
X6236730Y-641246D02*
X6236730Y-631722D01*
X6236730Y-631722D02*
X6246254Y-612674D01*
X6246254Y-612674D02*
X6265301Y-603150D01*
X6265301Y-603150D02*
X6293873Y-603150D01*
X6293873Y-603150D02*
X6312920Y-612674D01*
X6389111Y-812674D02*
X6398635Y-803150D01*
X6398635Y-803150D02*
X6417682Y-774579D01*
X6417682Y-774579D02*
X6427206Y-755531D01*
X6427206Y-755531D02*
X6436730Y-726960D01*
X6436730Y-726960D02*
X6446254Y-679341D01*
X6446254Y-679341D02*
X6446254Y-641246D01*
X6446254Y-641246D02*
X6436730Y-593627D01*
X6436730Y-593627D02*
X6427206Y-565055D01*
X6427206Y-565055D02*
X6417682Y-546008D01*
X6417682Y-546008D02*
X6398635Y-517436D01*
X6398635Y-517436D02*
X6389111Y-507912D01*
X-5000Y-965000D02*
G75*
G02*
X-205000Y-965000I-100000J0D01*
G01*
X-205000Y-965000D02*
G75*
G02*
X-5000Y-965000I100000J0D01*
G01*
X351015Y-856484D02*
X255777Y-856484D01*
X255777Y-856484D02*
X246253Y-951722D01*
X246253Y-951722D02*
X255777Y-942198D01*
X255777Y-942198D02*
X274825Y-932674D01*
X274825Y-932674D02*
X322444Y-932674D01*
X322444Y-932674D02*
X341491Y-942198D01*
X341491Y-942198D02*
X351015Y-951722D01*
X351015Y-951722D02*
X360539Y-970769D01*
X360539Y-970769D02*
X360539Y-1018388D01*
X360539Y-1018388D02*
X351015Y-1037436D01*
X351015Y-1037436D02*
X341491Y-1046960D01*
X341491Y-1046960D02*
X322444Y-1056484D01*
X322444Y-1056484D02*
X274825Y-1056484D01*
X274825Y-1056484D02*
X255777Y-1046960D01*
X255777Y-1046960D02*
X246253Y-1037436D01*
X446253Y-1037436D02*
X455777Y-1046960D01*
X455777Y-1046960D02*
X446253Y-1056484D01*
X446253Y-1056484D02*
X436729Y-1046960D01*
X436729Y-1046960D02*
X446253Y-1037436D01*
X446253Y-1037436D02*
X446253Y-1056484D01*
X627206Y-856484D02*
X589110Y-856484D01*
X589110Y-856484D02*
X570063Y-866008D01*
X570063Y-866008D02*
X560539Y-875531D01*
X560539Y-875531D02*
X541491Y-904103D01*
X541491Y-904103D02*
X531967Y-942198D01*
X531967Y-942198D02*
X531967Y-1018388D01*
X531967Y-1018388D02*
X541491Y-1037436D01*
X541491Y-1037436D02*
X551015Y-1046960D01*
X551015Y-1046960D02*
X570063Y-1056484D01*
X570063Y-1056484D02*
X608158Y-1056484D01*
X608158Y-1056484D02*
X627206Y-1046960D01*
X627206Y-1046960D02*
X636729Y-1037436D01*
X636729Y-1037436D02*
X646253Y-1018388D01*
X646253Y-1018388D02*
X646253Y-970769D01*
X646253Y-970769D02*
X636729Y-951722D01*
X636729Y-951722D02*
X627206Y-942198D01*
X627206Y-942198D02*
X608158Y-932674D01*
X608158Y-932674D02*
X570063Y-932674D01*
X570063Y-932674D02*
X551015Y-942198D01*
X551015Y-942198D02*
X541491Y-951722D01*
X541491Y-951722D02*
X531967Y-970769D01*
X817682Y-856484D02*
X779586Y-856484D01*
X779586Y-856484D02*
X760539Y-866008D01*
X760539Y-866008D02*
X751015Y-875531D01*
X751015Y-875531D02*
X731967Y-904103D01*
X731967Y-904103D02*
X722444Y-942198D01*
X722444Y-942198D02*
X722444Y-1018388D01*
X722444Y-1018388D02*
X731967Y-1037436D01*
X731967Y-1037436D02*
X741491Y-1046960D01*
X741491Y-1046960D02*
X760539Y-1056484D01*
X760539Y-1056484D02*
X798634Y-1056484D01*
X798634Y-1056484D02*
X817682Y-1046960D01*
X817682Y-1046960D02*
X827205Y-1037436D01*
X827205Y-1037436D02*
X836729Y-1018388D01*
X836729Y-1018388D02*
X836729Y-970769D01*
X836729Y-970769D02*
X827205Y-951722D01*
X827205Y-951722D02*
X817682Y-942198D01*
X817682Y-942198D02*
X798634Y-932674D01*
X798634Y-932674D02*
X760539Y-932674D01*
X760539Y-932674D02*
X741491Y-942198D01*
X741491Y-942198D02*
X731967Y-951722D01*
X731967Y-951722D02*
X722444Y-970769D01*
X1008158Y-923150D02*
X1008158Y-1056484D01*
X960539Y-846960D02*
X912920Y-989817D01*
X912920Y-989817D02*
X1036729Y-989817D01*
X1112920Y-1056484D02*
X1112920Y-923150D01*
X1112920Y-942198D02*
X1122444Y-932674D01*
X1122444Y-932674D02*
X1141491Y-923150D01*
X1141491Y-923150D02*
X1170063Y-923150D01*
X1170063Y-923150D02*
X1189110Y-932674D01*
X1189110Y-932674D02*
X1198634Y-951722D01*
X1198634Y-951722D02*
X1198634Y-1056484D01*
X1198634Y-951722D02*
X1208158Y-932674D01*
X1208158Y-932674D02*
X1227205Y-923150D01*
X1227205Y-923150D02*
X1255777Y-923150D01*
X1255777Y-923150D02*
X1274825Y-932674D01*
X1274825Y-932674D02*
X1284348Y-951722D01*
X1284348Y-951722D02*
X1284348Y-1056484D01*
X1379586Y-1056484D02*
X1379586Y-923150D01*
X1379586Y-942198D02*
X1389110Y-932674D01*
X1389110Y-932674D02*
X1408158Y-923150D01*
X1408158Y-923150D02*
X1436729Y-923150D01*
X1436729Y-923150D02*
X1455777Y-932674D01*
X1455777Y-932674D02*
X1465301Y-951722D01*
X1465301Y-951722D02*
X1465301Y-1056484D01*
X1465301Y-951722D02*
X1474824Y-932674D01*
X1474824Y-932674D02*
X1493872Y-923150D01*
X1493872Y-923150D02*
X1522443Y-923150D01*
X1522443Y-923150D02*
X1541491Y-932674D01*
X1541491Y-932674D02*
X1551015Y-951722D01*
X1551015Y-951722D02*
X1551015Y-1056484D01*
X1941491Y-846960D02*
X1770063Y-1104103D01*
X2198634Y-856484D02*
X2217682Y-856484D01*
X2217682Y-856484D02*
X2236729Y-866008D01*
X2236729Y-866008D02*
X2246253Y-875531D01*
X2246253Y-875531D02*
X2255777Y-894579D01*
X2255777Y-894579D02*
X2265301Y-932674D01*
X2265301Y-932674D02*
X2265301Y-980293D01*
X2265301Y-980293D02*
X2255777Y-1018388D01*
X2255777Y-1018388D02*
X2246253Y-1037436D01*
X2246253Y-1037436D02*
X2236729Y-1046960D01*
X2236729Y-1046960D02*
X2217682Y-1056484D01*
X2217682Y-1056484D02*
X2198634Y-1056484D01*
X2198634Y-1056484D02*
X2179587Y-1046960D01*
X2179587Y-1046960D02*
X2170063Y-1037436D01*
X2170063Y-1037436D02*
X2160539Y-1018388D01*
X2160539Y-1018388D02*
X2151015Y-980293D01*
X2151015Y-980293D02*
X2151015Y-932674D01*
X2151015Y-932674D02*
X2160539Y-894579D01*
X2160539Y-894579D02*
X2170063Y-875531D01*
X2170063Y-875531D02*
X2179587Y-866008D01*
X2179587Y-866008D02*
X2198634Y-856484D01*
X2351015Y-1037436D02*
X2360539Y-1046960D01*
X2360539Y-1046960D02*
X2351015Y-1056484D01*
X2351015Y-1056484D02*
X2341491Y-1046960D01*
X2341491Y-1046960D02*
X2351015Y-1037436D01*
X2351015Y-1037436D02*
X2351015Y-1056484D01*
X2436729Y-875531D02*
X2446253Y-866008D01*
X2446253Y-866008D02*
X2465301Y-856484D01*
X2465301Y-856484D02*
X2512920Y-856484D01*
X2512920Y-856484D02*
X2531968Y-866008D01*
X2531968Y-866008D02*
X2541491Y-875531D01*
X2541491Y-875531D02*
X2551015Y-894579D01*
X2551015Y-894579D02*
X2551015Y-913627D01*
X2551015Y-913627D02*
X2541491Y-942198D01*
X2541491Y-942198D02*
X2427206Y-1056484D01*
X2427206Y-1056484D02*
X2551015Y-1056484D01*
X2627206Y-875531D02*
X2636729Y-866008D01*
X2636729Y-866008D02*
X2655777Y-856484D01*
X2655777Y-856484D02*
X2703396Y-856484D01*
X2703396Y-856484D02*
X2722444Y-866008D01*
X2722444Y-866008D02*
X2731968Y-875531D01*
X2731968Y-875531D02*
X2741491Y-894579D01*
X2741491Y-894579D02*
X2741491Y-913627D01*
X2741491Y-913627D02*
X2731968Y-942198D01*
X2731968Y-942198D02*
X2617682Y-1056484D01*
X2617682Y-1056484D02*
X2741491Y-1056484D01*
X2808158Y-856484D02*
X2931967Y-856484D01*
X2931967Y-856484D02*
X2865301Y-932674D01*
X2865301Y-932674D02*
X2893872Y-932674D01*
X2893872Y-932674D02*
X2912920Y-942198D01*
X2912920Y-942198D02*
X2922444Y-951722D01*
X2922444Y-951722D02*
X2931967Y-970769D01*
X2931967Y-970769D02*
X2931967Y-1018388D01*
X2931967Y-1018388D02*
X2922444Y-1037436D01*
X2922444Y-1037436D02*
X2912920Y-1046960D01*
X2912920Y-1046960D02*
X2893872Y-1056484D01*
X2893872Y-1056484D02*
X2836729Y-1056484D01*
X2836729Y-1056484D02*
X2817682Y-1046960D01*
X2817682Y-1046960D02*
X2808158Y-1037436D01*
X3055777Y-856484D02*
X3074825Y-856484D01*
X3074825Y-856484D02*
X3093872Y-866008D01*
X3093872Y-866008D02*
X3103396Y-875531D01*
X3103396Y-875531D02*
X3112920Y-894579D01*
X3112920Y-894579D02*
X3122444Y-932674D01*
X3122444Y-932674D02*
X3122444Y-980293D01*
X3122444Y-980293D02*
X3112920Y-1018388D01*
X3112920Y-1018388D02*
X3103396Y-1037436D01*
X3103396Y-1037436D02*
X3093872Y-1046960D01*
X3093872Y-1046960D02*
X3074825Y-1056484D01*
X3074825Y-1056484D02*
X3055777Y-1056484D01*
X3055777Y-1056484D02*
X3036729Y-1046960D01*
X3036729Y-1046960D02*
X3027206Y-1037436D01*
X3027206Y-1037436D02*
X3017682Y-1018388D01*
X3017682Y-1018388D02*
X3008158Y-980293D01*
X3008158Y-980293D02*
X3008158Y-932674D01*
X3008158Y-932674D02*
X3017682Y-894579D01*
X3017682Y-894579D02*
X3027206Y-875531D01*
X3027206Y-875531D02*
X3036729Y-866008D01*
X3036729Y-866008D02*
X3055777Y-856484D01*
X3198634Y-856484D02*
X3198634Y-894579D01*
X3274825Y-856484D02*
X3274825Y-894579D01*
X3570063Y-1132674D02*
X3560539Y-1123150D01*
X3560539Y-1123150D02*
X3541491Y-1094579D01*
X3541491Y-1094579D02*
X3531968Y-1075531D01*
X3531968Y-1075531D02*
X3522444Y-1046960D01*
X3522444Y-1046960D02*
X3512920Y-999341D01*
X3512920Y-999341D02*
X3512920Y-961246D01*
X3512920Y-961246D02*
X3522444Y-913627D01*
X3522444Y-913627D02*
X3531968Y-885055D01*
X3531968Y-885055D02*
X3541491Y-866008D01*
X3541491Y-866008D02*
X3560539Y-837436D01*
X3560539Y-837436D02*
X3570063Y-827912D01*
X3636729Y-875531D02*
X3646253Y-866008D01*
X3646253Y-866008D02*
X3665301Y-856484D01*
X3665301Y-856484D02*
X3712920Y-856484D01*
X3712920Y-856484D02*
X3731968Y-866008D01*
X3731968Y-866008D02*
X3741491Y-875531D01*
X3741491Y-875531D02*
X3751015Y-894579D01*
X3751015Y-894579D02*
X3751015Y-913627D01*
X3751015Y-913627D02*
X3741491Y-942198D01*
X3741491Y-942198D02*
X3627206Y-1056484D01*
X3627206Y-1056484D02*
X3751015Y-1056484D01*
X3989110Y-1056484D02*
X3989110Y-856484D01*
X4074825Y-1056484D02*
X4074825Y-951722D01*
X4074825Y-951722D02*
X4065301Y-932674D01*
X4065301Y-932674D02*
X4046253Y-923150D01*
X4046253Y-923150D02*
X4017682Y-923150D01*
X4017682Y-923150D02*
X3998634Y-932674D01*
X3998634Y-932674D02*
X3989110Y-942198D01*
X4198634Y-1056484D02*
X4179587Y-1046960D01*
X4179587Y-1046960D02*
X4170063Y-1037436D01*
X4170063Y-1037436D02*
X4160539Y-1018388D01*
X4160539Y-1018388D02*
X4160539Y-961246D01*
X4160539Y-961246D02*
X4170063Y-942198D01*
X4170063Y-942198D02*
X4179587Y-932674D01*
X4179587Y-932674D02*
X4198634Y-923150D01*
X4198634Y-923150D02*
X4227206Y-923150D01*
X4227206Y-923150D02*
X4246253Y-932674D01*
X4246253Y-932674D02*
X4255777Y-942198D01*
X4255777Y-942198D02*
X4265301Y-961246D01*
X4265301Y-961246D02*
X4265301Y-1018388D01*
X4265301Y-1018388D02*
X4255777Y-1037436D01*
X4255777Y-1037436D02*
X4246253Y-1046960D01*
X4246253Y-1046960D02*
X4227206Y-1056484D01*
X4227206Y-1056484D02*
X4198634Y-1056484D01*
X4379587Y-1056484D02*
X4360539Y-1046960D01*
X4360539Y-1046960D02*
X4351015Y-1027912D01*
X4351015Y-1027912D02*
X4351015Y-856484D01*
X4531968Y-1046960D02*
X4512920Y-1056484D01*
X4512920Y-1056484D02*
X4474825Y-1056484D01*
X4474825Y-1056484D02*
X4455777Y-1046960D01*
X4455777Y-1046960D02*
X4446253Y-1027912D01*
X4446253Y-1027912D02*
X4446253Y-951722D01*
X4446253Y-951722D02*
X4455777Y-932674D01*
X4455777Y-932674D02*
X4474825Y-923150D01*
X4474825Y-923150D02*
X4512920Y-923150D01*
X4512920Y-923150D02*
X4531968Y-932674D01*
X4531968Y-932674D02*
X4541492Y-951722D01*
X4541492Y-951722D02*
X4541492Y-970769D01*
X4541492Y-970769D02*
X4446253Y-989817D01*
X4617682Y-1046960D02*
X4636730Y-1056484D01*
X4636730Y-1056484D02*
X4674825Y-1056484D01*
X4674825Y-1056484D02*
X4693873Y-1046960D01*
X4693873Y-1046960D02*
X4703396Y-1027912D01*
X4703396Y-1027912D02*
X4703396Y-1018388D01*
X4703396Y-1018388D02*
X4693873Y-999341D01*
X4693873Y-999341D02*
X4674825Y-989817D01*
X4674825Y-989817D02*
X4646253Y-989817D01*
X4646253Y-989817D02*
X4627206Y-980293D01*
X4627206Y-980293D02*
X4617682Y-961246D01*
X4617682Y-961246D02*
X4617682Y-951722D01*
X4617682Y-951722D02*
X4627206Y-932674D01*
X4627206Y-932674D02*
X4646253Y-923150D01*
X4646253Y-923150D02*
X4674825Y-923150D01*
X4674825Y-923150D02*
X4693873Y-932674D01*
X4770063Y-1132674D02*
X4779587Y-1123150D01*
X4779587Y-1123150D02*
X4798634Y-1094579D01*
X4798634Y-1094579D02*
X4808158Y-1075531D01*
X4808158Y-1075531D02*
X4817682Y-1046960D01*
X4817682Y-1046960D02*
X4827206Y-999341D01*
X4827206Y-999341D02*
X4827206Y-961246D01*
X4827206Y-961246D02*
X4817682Y-913627D01*
X4817682Y-913627D02*
X4808158Y-885055D01*
X4808158Y-885055D02*
X4798634Y-866008D01*
X4798634Y-866008D02*
X4779587Y-837436D01*
X4779587Y-837436D02*
X4770063Y-827912D01*
X-105000Y-1185000D02*
X-105000Y-1385000D01*
X-205000Y-1285000D02*
X-5000Y-1285000D01*
X341491Y-1176484D02*
X303396Y-1176484D01*
X303396Y-1176484D02*
X284348Y-1186008D01*
X284348Y-1186008D02*
X274825Y-1195531D01*
X274825Y-1195531D02*
X255777Y-1224103D01*
X255777Y-1224103D02*
X246253Y-1262198D01*
X246253Y-1262198D02*
X246253Y-1338389D01*
X246253Y-1338389D02*
X255777Y-1357436D01*
X255777Y-1357436D02*
X265301Y-1366960D01*
X265301Y-1366960D02*
X284348Y-1376484D01*
X284348Y-1376484D02*
X322444Y-1376484D01*
X322444Y-1376484D02*
X341491Y-1366960D01*
X341491Y-1366960D02*
X351015Y-1357436D01*
X351015Y-1357436D02*
X360539Y-1338389D01*
X360539Y-1338389D02*
X360539Y-1290770D01*
X360539Y-1290770D02*
X351015Y-1271722D01*
X351015Y-1271722D02*
X341491Y-1262198D01*
X341491Y-1262198D02*
X322444Y-1252674D01*
X322444Y-1252674D02*
X284348Y-1252674D01*
X284348Y-1252674D02*
X265301Y-1262198D01*
X265301Y-1262198D02*
X255777Y-1271722D01*
X255777Y-1271722D02*
X246253Y-1290770D01*
X446253Y-1357436D02*
X455777Y-1366960D01*
X455777Y-1366960D02*
X446253Y-1376484D01*
X446253Y-1376484D02*
X436729Y-1366960D01*
X436729Y-1366960D02*
X446253Y-1357436D01*
X446253Y-1357436D02*
X446253Y-1376484D01*
X627206Y-1176484D02*
X589110Y-1176484D01*
X589110Y-1176484D02*
X570063Y-1186008D01*
X570063Y-1186008D02*
X560539Y-1195531D01*
X560539Y-1195531D02*
X541491Y-1224103D01*
X541491Y-1224103D02*
X531967Y-1262198D01*
X531967Y-1262198D02*
X531967Y-1338389D01*
X531967Y-1338389D02*
X541491Y-1357436D01*
X541491Y-1357436D02*
X551015Y-1366960D01*
X551015Y-1366960D02*
X570063Y-1376484D01*
X570063Y-1376484D02*
X608158Y-1376484D01*
X608158Y-1376484D02*
X627206Y-1366960D01*
X627206Y-1366960D02*
X636729Y-1357436D01*
X636729Y-1357436D02*
X646253Y-1338389D01*
X646253Y-1338389D02*
X646253Y-1290770D01*
X646253Y-1290770D02*
X636729Y-1271722D01*
X636729Y-1271722D02*
X627206Y-1262198D01*
X627206Y-1262198D02*
X608158Y-1252674D01*
X608158Y-1252674D02*
X570063Y-1252674D01*
X570063Y-1252674D02*
X551015Y-1262198D01*
X551015Y-1262198D02*
X541491Y-1271722D01*
X541491Y-1271722D02*
X531967Y-1290770D01*
X770062Y-1176484D02*
X789110Y-1176484D01*
X789110Y-1176484D02*
X808158Y-1186008D01*
X808158Y-1186008D02*
X817682Y-1195531D01*
X817682Y-1195531D02*
X827205Y-1214579D01*
X827205Y-1214579D02*
X836729Y-1252674D01*
X836729Y-1252674D02*
X836729Y-1300293D01*
X836729Y-1300293D02*
X827205Y-1338389D01*
X827205Y-1338389D02*
X817682Y-1357436D01*
X817682Y-1357436D02*
X808158Y-1366960D01*
X808158Y-1366960D02*
X789110Y-1376484D01*
X789110Y-1376484D02*
X770062Y-1376484D01*
X770062Y-1376484D02*
X751015Y-1366960D01*
X751015Y-1366960D02*
X741491Y-1357436D01*
X741491Y-1357436D02*
X731967Y-1338389D01*
X731967Y-1338389D02*
X722444Y-1300293D01*
X722444Y-1300293D02*
X722444Y-1252674D01*
X722444Y-1252674D02*
X731967Y-1214579D01*
X731967Y-1214579D02*
X741491Y-1195531D01*
X741491Y-1195531D02*
X751015Y-1186008D01*
X751015Y-1186008D02*
X770062Y-1176484D01*
X1008158Y-1243150D02*
X1008158Y-1376484D01*
X960539Y-1166960D02*
X912920Y-1309817D01*
X912920Y-1309817D02*
X1036729Y-1309817D01*
X1112920Y-1376484D02*
X1112920Y-1243150D01*
X1112920Y-1262198D02*
X1122444Y-1252674D01*
X1122444Y-1252674D02*
X1141491Y-1243150D01*
X1141491Y-1243150D02*
X1170063Y-1243150D01*
X1170063Y-1243150D02*
X1189110Y-1252674D01*
X1189110Y-1252674D02*
X1198634Y-1271722D01*
X1198634Y-1271722D02*
X1198634Y-1376484D01*
X1198634Y-1271722D02*
X1208158Y-1252674D01*
X1208158Y-1252674D02*
X1227205Y-1243150D01*
X1227205Y-1243150D02*
X1255777Y-1243150D01*
X1255777Y-1243150D02*
X1274825Y-1252674D01*
X1274825Y-1252674D02*
X1284348Y-1271722D01*
X1284348Y-1271722D02*
X1284348Y-1376484D01*
X1379586Y-1376484D02*
X1379586Y-1243150D01*
X1379586Y-1262198D02*
X1389110Y-1252674D01*
X1389110Y-1252674D02*
X1408158Y-1243150D01*
X1408158Y-1243150D02*
X1436729Y-1243150D01*
X1436729Y-1243150D02*
X1455777Y-1252674D01*
X1455777Y-1252674D02*
X1465301Y-1271722D01*
X1465301Y-1271722D02*
X1465301Y-1376484D01*
X1465301Y-1271722D02*
X1474824Y-1252674D01*
X1474824Y-1252674D02*
X1493872Y-1243150D01*
X1493872Y-1243150D02*
X1522443Y-1243150D01*
X1522443Y-1243150D02*
X1541491Y-1252674D01*
X1541491Y-1252674D02*
X1551015Y-1271722D01*
X1551015Y-1271722D02*
X1551015Y-1376484D01*
X1941491Y-1166960D02*
X1770063Y-1424103D01*
X2198634Y-1176484D02*
X2217682Y-1176484D01*
X2217682Y-1176484D02*
X2236729Y-1186008D01*
X2236729Y-1186008D02*
X2246253Y-1195531D01*
X2246253Y-1195531D02*
X2255777Y-1214579D01*
X2255777Y-1214579D02*
X2265301Y-1252674D01*
X2265301Y-1252674D02*
X2265301Y-1300293D01*
X2265301Y-1300293D02*
X2255777Y-1338389D01*
X2255777Y-1338389D02*
X2246253Y-1357436D01*
X2246253Y-1357436D02*
X2236729Y-1366960D01*
X2236729Y-1366960D02*
X2217682Y-1376484D01*
X2217682Y-1376484D02*
X2198634Y-1376484D01*
X2198634Y-1376484D02*
X2179587Y-1366960D01*
X2179587Y-1366960D02*
X2170063Y-1357436D01*
X2170063Y-1357436D02*
X2160539Y-1338389D01*
X2160539Y-1338389D02*
X2151015Y-1300293D01*
X2151015Y-1300293D02*
X2151015Y-1252674D01*
X2151015Y-1252674D02*
X2160539Y-1214579D01*
X2160539Y-1214579D02*
X2170063Y-1195531D01*
X2170063Y-1195531D02*
X2179587Y-1186008D01*
X2179587Y-1186008D02*
X2198634Y-1176484D01*
X2351015Y-1357436D02*
X2360539Y-1366960D01*
X2360539Y-1366960D02*
X2351015Y-1376484D01*
X2351015Y-1376484D02*
X2341491Y-1366960D01*
X2341491Y-1366960D02*
X2351015Y-1357436D01*
X2351015Y-1357436D02*
X2351015Y-1376484D01*
X2436729Y-1195531D02*
X2446253Y-1186008D01*
X2446253Y-1186008D02*
X2465301Y-1176484D01*
X2465301Y-1176484D02*
X2512920Y-1176484D01*
X2512920Y-1176484D02*
X2531968Y-1186008D01*
X2531968Y-1186008D02*
X2541491Y-1195531D01*
X2541491Y-1195531D02*
X2551015Y-1214579D01*
X2551015Y-1214579D02*
X2551015Y-1233627D01*
X2551015Y-1233627D02*
X2541491Y-1262198D01*
X2541491Y-1262198D02*
X2427206Y-1376484D01*
X2427206Y-1376484D02*
X2551015Y-1376484D01*
X2722444Y-1176484D02*
X2684348Y-1176484D01*
X2684348Y-1176484D02*
X2665301Y-1186008D01*
X2665301Y-1186008D02*
X2655777Y-1195531D01*
X2655777Y-1195531D02*
X2636729Y-1224103D01*
X2636729Y-1224103D02*
X2627206Y-1262198D01*
X2627206Y-1262198D02*
X2627206Y-1338389D01*
X2627206Y-1338389D02*
X2636729Y-1357436D01*
X2636729Y-1357436D02*
X2646253Y-1366960D01*
X2646253Y-1366960D02*
X2665301Y-1376484D01*
X2665301Y-1376484D02*
X2703396Y-1376484D01*
X2703396Y-1376484D02*
X2722444Y-1366960D01*
X2722444Y-1366960D02*
X2731968Y-1357436D01*
X2731968Y-1357436D02*
X2741491Y-1338389D01*
X2741491Y-1338389D02*
X2741491Y-1290770D01*
X2741491Y-1290770D02*
X2731968Y-1271722D01*
X2731968Y-1271722D02*
X2722444Y-1262198D01*
X2722444Y-1262198D02*
X2703396Y-1252674D01*
X2703396Y-1252674D02*
X2665301Y-1252674D01*
X2665301Y-1252674D02*
X2646253Y-1262198D01*
X2646253Y-1262198D02*
X2636729Y-1271722D01*
X2636729Y-1271722D02*
X2627206Y-1290770D01*
X2865301Y-1176484D02*
X2884348Y-1176484D01*
X2884348Y-1176484D02*
X2903396Y-1186008D01*
X2903396Y-1186008D02*
X2912920Y-1195531D01*
X2912920Y-1195531D02*
X2922444Y-1214579D01*
X2922444Y-1214579D02*
X2931967Y-1252674D01*
X2931967Y-1252674D02*
X2931967Y-1300293D01*
X2931967Y-1300293D02*
X2922444Y-1338389D01*
X2922444Y-1338389D02*
X2912920Y-1357436D01*
X2912920Y-1357436D02*
X2903396Y-1366960D01*
X2903396Y-1366960D02*
X2884348Y-1376484D01*
X2884348Y-1376484D02*
X2865301Y-1376484D01*
X2865301Y-1376484D02*
X2846253Y-1366960D01*
X2846253Y-1366960D02*
X2836729Y-1357436D01*
X2836729Y-1357436D02*
X2827206Y-1338389D01*
X2827206Y-1338389D02*
X2817682Y-1300293D01*
X2817682Y-1300293D02*
X2817682Y-1252674D01*
X2817682Y-1252674D02*
X2827206Y-1214579D01*
X2827206Y-1214579D02*
X2836729Y-1195531D01*
X2836729Y-1195531D02*
X2846253Y-1186008D01*
X2846253Y-1186008D02*
X2865301Y-1176484D01*
X3055777Y-1176484D02*
X3074825Y-1176484D01*
X3074825Y-1176484D02*
X3093872Y-1186008D01*
X3093872Y-1186008D02*
X3103396Y-1195531D01*
X3103396Y-1195531D02*
X3112920Y-1214579D01*
X3112920Y-1214579D02*
X3122444Y-1252674D01*
X3122444Y-1252674D02*
X3122444Y-1300293D01*
X3122444Y-1300293D02*
X3112920Y-1338389D01*
X3112920Y-1338389D02*
X3103396Y-1357436D01*
X3103396Y-1357436D02*
X3093872Y-1366960D01*
X3093872Y-1366960D02*
X3074825Y-1376484D01*
X3074825Y-1376484D02*
X3055777Y-1376484D01*
X3055777Y-1376484D02*
X3036729Y-1366960D01*
X3036729Y-1366960D02*
X3027206Y-1357436D01*
X3027206Y-1357436D02*
X3017682Y-1338389D01*
X3017682Y-1338389D02*
X3008158Y-1300293D01*
X3008158Y-1300293D02*
X3008158Y-1252674D01*
X3008158Y-1252674D02*
X3017682Y-1214579D01*
X3017682Y-1214579D02*
X3027206Y-1195531D01*
X3027206Y-1195531D02*
X3036729Y-1186008D01*
X3036729Y-1186008D02*
X3055777Y-1176484D01*
X3198634Y-1176484D02*
X3198634Y-1214579D01*
X3274825Y-1176484D02*
X3274825Y-1214579D01*
X3570063Y-1452674D02*
X3560539Y-1443150D01*
X3560539Y-1443150D02*
X3541491Y-1414579D01*
X3541491Y-1414579D02*
X3531968Y-1395531D01*
X3531968Y-1395531D02*
X3522444Y-1366960D01*
X3522444Y-1366960D02*
X3512920Y-1319341D01*
X3512920Y-1319341D02*
X3512920Y-1281246D01*
X3512920Y-1281246D02*
X3522444Y-1233627D01*
X3522444Y-1233627D02*
X3531968Y-1205055D01*
X3531968Y-1205055D02*
X3541491Y-1186008D01*
X3541491Y-1186008D02*
X3560539Y-1157436D01*
X3560539Y-1157436D02*
X3570063Y-1147912D01*
X3751015Y-1376484D02*
X3636729Y-1376484D01*
X3693872Y-1376484D02*
X3693872Y-1176484D01*
X3693872Y-1176484D02*
X3674825Y-1205055D01*
X3674825Y-1205055D02*
X3655777Y-1224103D01*
X3655777Y-1224103D02*
X3636729Y-1233627D01*
X3827206Y-1195531D02*
X3836729Y-1186008D01*
X3836729Y-1186008D02*
X3855777Y-1176484D01*
X3855777Y-1176484D02*
X3903396Y-1176484D01*
X3903396Y-1176484D02*
X3922444Y-1186008D01*
X3922444Y-1186008D02*
X3931968Y-1195531D01*
X3931968Y-1195531D02*
X3941491Y-1214579D01*
X3941491Y-1214579D02*
X3941491Y-1233627D01*
X3941491Y-1233627D02*
X3931968Y-1262198D01*
X3931968Y-1262198D02*
X3817682Y-1376484D01*
X3817682Y-1376484D02*
X3941491Y-1376484D01*
X4179587Y-1376484D02*
X4179587Y-1176484D01*
X4265301Y-1376484D02*
X4265301Y-1271722D01*
X4265301Y-1271722D02*
X4255777Y-1252674D01*
X4255777Y-1252674D02*
X4236730Y-1243150D01*
X4236730Y-1243150D02*
X4208158Y-1243150D01*
X4208158Y-1243150D02*
X4189110Y-1252674D01*
X4189110Y-1252674D02*
X4179587Y-1262198D01*
X4389111Y-1376484D02*
X4370063Y-1366960D01*
X4370063Y-1366960D02*
X4360539Y-1357436D01*
X4360539Y-1357436D02*
X4351015Y-1338389D01*
X4351015Y-1338389D02*
X4351015Y-1281246D01*
X4351015Y-1281246D02*
X4360539Y-1262198D01*
X4360539Y-1262198D02*
X4370063Y-1252674D01*
X4370063Y-1252674D02*
X4389111Y-1243150D01*
X4389111Y-1243150D02*
X4417682Y-1243150D01*
X4417682Y-1243150D02*
X4436730Y-1252674D01*
X4436730Y-1252674D02*
X4446253Y-1262198D01*
X4446253Y-1262198D02*
X4455777Y-1281246D01*
X4455777Y-1281246D02*
X4455777Y-1338389D01*
X4455777Y-1338389D02*
X4446253Y-1357436D01*
X4446253Y-1357436D02*
X4436730Y-1366960D01*
X4436730Y-1366960D02*
X4417682Y-1376484D01*
X4417682Y-1376484D02*
X4389111Y-1376484D01*
X4570063Y-1376484D02*
X4551015Y-1366960D01*
X4551015Y-1366960D02*
X4541492Y-1347912D01*
X4541492Y-1347912D02*
X4541492Y-1176484D01*
X4722444Y-1366960D02*
X4703396Y-1376484D01*
X4703396Y-1376484D02*
X4665301Y-1376484D01*
X4665301Y-1376484D02*
X4646253Y-1366960D01*
X4646253Y-1366960D02*
X4636730Y-1347912D01*
X4636730Y-1347912D02*
X4636730Y-1271722D01*
X4636730Y-1271722D02*
X4646253Y-1252674D01*
X4646253Y-1252674D02*
X4665301Y-1243150D01*
X4665301Y-1243150D02*
X4703396Y-1243150D01*
X4703396Y-1243150D02*
X4722444Y-1252674D01*
X4722444Y-1252674D02*
X4731968Y-1271722D01*
X4731968Y-1271722D02*
X4731968Y-1290770D01*
X4731968Y-1290770D02*
X4636730Y-1309817D01*
X4808158Y-1366960D02*
X4827206Y-1376484D01*
X4827206Y-1376484D02*
X4865301Y-1376484D01*
X4865301Y-1376484D02*
X4884349Y-1366960D01*
X4884349Y-1366960D02*
X4893873Y-1347912D01*
X4893873Y-1347912D02*
X4893873Y-1338389D01*
X4893873Y-1338389D02*
X4884349Y-1319341D01*
X4884349Y-1319341D02*
X4865301Y-1309817D01*
X4865301Y-1309817D02*
X4836730Y-1309817D01*
X4836730Y-1309817D02*
X4817682Y-1300293D01*
X4817682Y-1300293D02*
X4808158Y-1281246D01*
X4808158Y-1281246D02*
X4808158Y-1271722D01*
X4808158Y-1271722D02*
X4817682Y-1252674D01*
X4817682Y-1252674D02*
X4836730Y-1243150D01*
X4836730Y-1243150D02*
X4865301Y-1243150D01*
X4865301Y-1243150D02*
X4884349Y-1252674D01*
X4960539Y-1452674D02*
X4970063Y-1443150D01*
X4970063Y-1443150D02*
X4989111Y-1414579D01*
X4989111Y-1414579D02*
X4998634Y-1395531D01*
X4998634Y-1395531D02*
X5008158Y-1366960D01*
X5008158Y-1366960D02*
X5017682Y-1319341D01*
X5017682Y-1319341D02*
X5017682Y-1281246D01*
X5017682Y-1281246D02*
X5008158Y-1233627D01*
X5008158Y-1233627D02*
X4998634Y-1205055D01*
X4998634Y-1205055D02*
X4989111Y-1186008D01*
X4989111Y-1186008D02*
X4970063Y-1157436D01*
X4970063Y-1157436D02*
X4960539Y-1147912D01*
X-34289Y-1675711D02*
X-34289Y-1534289D01*
X-175711Y-1534289D01*
X-175711Y-1675711D01*
X-34289Y-1675711D01*
X236729Y-1496484D02*
X370063Y-1496484D01*
X370063Y-1496484D02*
X284348Y-1696484D01*
X446253Y-1677436D02*
X455777Y-1686960D01*
X455777Y-1686960D02*
X446253Y-1696484D01*
X446253Y-1696484D02*
X436729Y-1686960D01*
X436729Y-1686960D02*
X446253Y-1677436D01*
X446253Y-1677436D02*
X446253Y-1696484D01*
X646253Y-1696484D02*
X531967Y-1696484D01*
X589110Y-1696484D02*
X589110Y-1496484D01*
X589110Y-1496484D02*
X570063Y-1525055D01*
X570063Y-1525055D02*
X551015Y-1544103D01*
X551015Y-1544103D02*
X531967Y-1553627D01*
X836729Y-1696484D02*
X722444Y-1696484D01*
X779586Y-1696484D02*
X779586Y-1496484D01*
X779586Y-1496484D02*
X760539Y-1525055D01*
X760539Y-1525055D02*
X741491Y-1544103D01*
X741491Y-1544103D02*
X722444Y-1553627D01*
X912920Y-1515531D02*
X922443Y-1506008D01*
X922443Y-1506008D02*
X941491Y-1496484D01*
X941491Y-1496484D02*
X989110Y-1496484D01*
X989110Y-1496484D02*
X1008158Y-1506008D01*
X1008158Y-1506008D02*
X1017682Y-1515531D01*
X1017682Y-1515531D02*
X1027205Y-1534579D01*
X1027205Y-1534579D02*
X1027205Y-1553627D01*
X1027205Y-1553627D02*
X1017682Y-1582198D01*
X1017682Y-1582198D02*
X903396Y-1696484D01*
X903396Y-1696484D02*
X1027205Y-1696484D01*
X1112920Y-1696484D02*
X1112920Y-1563150D01*
X1112920Y-1582198D02*
X1122444Y-1572674D01*
X1122444Y-1572674D02*
X1141491Y-1563150D01*
X1141491Y-1563150D02*
X1170063Y-1563150D01*
X1170063Y-1563150D02*
X1189110Y-1572674D01*
X1189110Y-1572674D02*
X1198634Y-1591722D01*
X1198634Y-1591722D02*
X1198634Y-1696484D01*
X1198634Y-1591722D02*
X1208158Y-1572674D01*
X1208158Y-1572674D02*
X1227205Y-1563150D01*
X1227205Y-1563150D02*
X1255777Y-1563150D01*
X1255777Y-1563150D02*
X1274825Y-1572674D01*
X1274825Y-1572674D02*
X1284348Y-1591722D01*
X1284348Y-1591722D02*
X1284348Y-1696484D01*
X1379586Y-1696484D02*
X1379586Y-1563150D01*
X1379586Y-1582198D02*
X1389110Y-1572674D01*
X1389110Y-1572674D02*
X1408158Y-1563150D01*
X1408158Y-1563150D02*
X1436729Y-1563150D01*
X1436729Y-1563150D02*
X1455777Y-1572674D01*
X1455777Y-1572674D02*
X1465301Y-1591722D01*
X1465301Y-1591722D02*
X1465301Y-1696484D01*
X1465301Y-1591722D02*
X1474824Y-1572674D01*
X1474824Y-1572674D02*
X1493872Y-1563150D01*
X1493872Y-1563150D02*
X1522443Y-1563150D01*
X1522443Y-1563150D02*
X1541491Y-1572674D01*
X1541491Y-1572674D02*
X1551015Y-1591722D01*
X1551015Y-1591722D02*
X1551015Y-1696484D01*
X1941491Y-1486960D02*
X1770063Y-1744103D01*
X2198634Y-1496484D02*
X2217682Y-1496484D01*
X2217682Y-1496484D02*
X2236729Y-1506008D01*
X2236729Y-1506008D02*
X2246253Y-1515531D01*
X2246253Y-1515531D02*
X2255777Y-1534579D01*
X2255777Y-1534579D02*
X2265301Y-1572674D01*
X2265301Y-1572674D02*
X2265301Y-1620293D01*
X2265301Y-1620293D02*
X2255777Y-1658388D01*
X2255777Y-1658388D02*
X2246253Y-1677436D01*
X2246253Y-1677436D02*
X2236729Y-1686960D01*
X2236729Y-1686960D02*
X2217682Y-1696484D01*
X2217682Y-1696484D02*
X2198634Y-1696484D01*
X2198634Y-1696484D02*
X2179587Y-1686960D01*
X2179587Y-1686960D02*
X2170063Y-1677436D01*
X2170063Y-1677436D02*
X2160539Y-1658388D01*
X2160539Y-1658388D02*
X2151015Y-1620293D01*
X2151015Y-1620293D02*
X2151015Y-1572674D01*
X2151015Y-1572674D02*
X2160539Y-1534579D01*
X2160539Y-1534579D02*
X2170063Y-1515531D01*
X2170063Y-1515531D02*
X2179587Y-1506008D01*
X2179587Y-1506008D02*
X2198634Y-1496484D01*
X2351015Y-1677436D02*
X2360539Y-1686960D01*
X2360539Y-1686960D02*
X2351015Y-1696484D01*
X2351015Y-1696484D02*
X2341491Y-1686960D01*
X2341491Y-1686960D02*
X2351015Y-1677436D01*
X2351015Y-1677436D02*
X2351015Y-1696484D01*
X2436729Y-1515531D02*
X2446253Y-1506008D01*
X2446253Y-1506008D02*
X2465301Y-1496484D01*
X2465301Y-1496484D02*
X2512920Y-1496484D01*
X2512920Y-1496484D02*
X2531968Y-1506008D01*
X2531968Y-1506008D02*
X2541491Y-1515531D01*
X2541491Y-1515531D02*
X2551015Y-1534579D01*
X2551015Y-1534579D02*
X2551015Y-1553627D01*
X2551015Y-1553627D02*
X2541491Y-1582198D01*
X2541491Y-1582198D02*
X2427206Y-1696484D01*
X2427206Y-1696484D02*
X2551015Y-1696484D01*
X2665301Y-1582198D02*
X2646253Y-1572674D01*
X2646253Y-1572674D02*
X2636729Y-1563150D01*
X2636729Y-1563150D02*
X2627206Y-1544103D01*
X2627206Y-1544103D02*
X2627206Y-1534579D01*
X2627206Y-1534579D02*
X2636729Y-1515531D01*
X2636729Y-1515531D02*
X2646253Y-1506008D01*
X2646253Y-1506008D02*
X2665301Y-1496484D01*
X2665301Y-1496484D02*
X2703396Y-1496484D01*
X2703396Y-1496484D02*
X2722444Y-1506008D01*
X2722444Y-1506008D02*
X2731968Y-1515531D01*
X2731968Y-1515531D02*
X2741491Y-1534579D01*
X2741491Y-1534579D02*
X2741491Y-1544103D01*
X2741491Y-1544103D02*
X2731968Y-1563150D01*
X2731968Y-1563150D02*
X2722444Y-1572674D01*
X2722444Y-1572674D02*
X2703396Y-1582198D01*
X2703396Y-1582198D02*
X2665301Y-1582198D01*
X2665301Y-1582198D02*
X2646253Y-1591722D01*
X2646253Y-1591722D02*
X2636729Y-1601246D01*
X2636729Y-1601246D02*
X2627206Y-1620293D01*
X2627206Y-1620293D02*
X2627206Y-1658388D01*
X2627206Y-1658388D02*
X2636729Y-1677436D01*
X2636729Y-1677436D02*
X2646253Y-1686960D01*
X2646253Y-1686960D02*
X2665301Y-1696484D01*
X2665301Y-1696484D02*
X2703396Y-1696484D01*
X2703396Y-1696484D02*
X2722444Y-1686960D01*
X2722444Y-1686960D02*
X2731968Y-1677436D01*
X2731968Y-1677436D02*
X2741491Y-1658388D01*
X2741491Y-1658388D02*
X2741491Y-1620293D01*
X2741491Y-1620293D02*
X2731968Y-1601246D01*
X2731968Y-1601246D02*
X2722444Y-1591722D01*
X2722444Y-1591722D02*
X2703396Y-1582198D01*
X2865301Y-1496484D02*
X2884348Y-1496484D01*
X2884348Y-1496484D02*
X2903396Y-1506008D01*
X2903396Y-1506008D02*
X2912920Y-1515531D01*
X2912920Y-1515531D02*
X2922444Y-1534579D01*
X2922444Y-1534579D02*
X2931967Y-1572674D01*
X2931967Y-1572674D02*
X2931967Y-1620293D01*
X2931967Y-1620293D02*
X2922444Y-1658388D01*
X2922444Y-1658388D02*
X2912920Y-1677436D01*
X2912920Y-1677436D02*
X2903396Y-1686960D01*
X2903396Y-1686960D02*
X2884348Y-1696484D01*
X2884348Y-1696484D02*
X2865301Y-1696484D01*
X2865301Y-1696484D02*
X2846253Y-1686960D01*
X2846253Y-1686960D02*
X2836729Y-1677436D01*
X2836729Y-1677436D02*
X2827206Y-1658388D01*
X2827206Y-1658388D02*
X2817682Y-1620293D01*
X2817682Y-1620293D02*
X2817682Y-1572674D01*
X2817682Y-1572674D02*
X2827206Y-1534579D01*
X2827206Y-1534579D02*
X2836729Y-1515531D01*
X2836729Y-1515531D02*
X2846253Y-1506008D01*
X2846253Y-1506008D02*
X2865301Y-1496484D01*
X3055777Y-1496484D02*
X3074825Y-1496484D01*
X3074825Y-1496484D02*
X3093872Y-1506008D01*
X3093872Y-1506008D02*
X3103396Y-1515531D01*
X3103396Y-1515531D02*
X3112920Y-1534579D01*
X3112920Y-1534579D02*
X3122444Y-1572674D01*
X3122444Y-1572674D02*
X3122444Y-1620293D01*
X3122444Y-1620293D02*
X3112920Y-1658388D01*
X3112920Y-1658388D02*
X3103396Y-1677436D01*
X3103396Y-1677436D02*
X3093872Y-1686960D01*
X3093872Y-1686960D02*
X3074825Y-1696484D01*
X3074825Y-1696484D02*
X3055777Y-1696484D01*
X3055777Y-1696484D02*
X3036729Y-1686960D01*
X3036729Y-1686960D02*
X3027206Y-1677436D01*
X3027206Y-1677436D02*
X3017682Y-1658388D01*
X3017682Y-1658388D02*
X3008158Y-1620293D01*
X3008158Y-1620293D02*
X3008158Y-1572674D01*
X3008158Y-1572674D02*
X3017682Y-1534579D01*
X3017682Y-1534579D02*
X3027206Y-1515531D01*
X3027206Y-1515531D02*
X3036729Y-1506008D01*
X3036729Y-1506008D02*
X3055777Y-1496484D01*
X3198634Y-1496484D02*
X3198634Y-1534579D01*
X3274825Y-1496484D02*
X3274825Y-1534579D01*
X3570063Y-1772674D02*
X3560539Y-1763150D01*
X3560539Y-1763150D02*
X3541491Y-1734579D01*
X3541491Y-1734579D02*
X3531968Y-1715531D01*
X3531968Y-1715531D02*
X3522444Y-1686960D01*
X3522444Y-1686960D02*
X3512920Y-1639341D01*
X3512920Y-1639341D02*
X3512920Y-1601246D01*
X3512920Y-1601246D02*
X3522444Y-1553627D01*
X3522444Y-1553627D02*
X3531968Y-1525055D01*
X3531968Y-1525055D02*
X3541491Y-1506008D01*
X3541491Y-1506008D02*
X3560539Y-1477436D01*
X3560539Y-1477436D02*
X3570063Y-1467912D01*
X3731968Y-1563150D02*
X3731968Y-1696484D01*
X3684348Y-1486960D02*
X3636729Y-1629817D01*
X3636729Y-1629817D02*
X3760539Y-1629817D01*
X3989110Y-1696484D02*
X3989110Y-1496484D01*
X4074825Y-1696484D02*
X4074825Y-1591722D01*
X4074825Y-1591722D02*
X4065301Y-1572674D01*
X4065301Y-1572674D02*
X4046253Y-1563150D01*
X4046253Y-1563150D02*
X4017682Y-1563150D01*
X4017682Y-1563150D02*
X3998634Y-1572674D01*
X3998634Y-1572674D02*
X3989110Y-1582198D01*
X4198634Y-1696484D02*
X4179587Y-1686960D01*
X4179587Y-1686960D02*
X4170063Y-1677436D01*
X4170063Y-1677436D02*
X4160539Y-1658388D01*
X4160539Y-1658388D02*
X4160539Y-1601246D01*
X4160539Y-1601246D02*
X4170063Y-1582198D01*
X4170063Y-1582198D02*
X4179587Y-1572674D01*
X4179587Y-1572674D02*
X4198634Y-1563150D01*
X4198634Y-1563150D02*
X4227206Y-1563150D01*
X4227206Y-1563150D02*
X4246253Y-1572674D01*
X4246253Y-1572674D02*
X4255777Y-1582198D01*
X4255777Y-1582198D02*
X4265301Y-1601246D01*
X4265301Y-1601246D02*
X4265301Y-1658388D01*
X4265301Y-1658388D02*
X4255777Y-1677436D01*
X4255777Y-1677436D02*
X4246253Y-1686960D01*
X4246253Y-1686960D02*
X4227206Y-1696484D01*
X4227206Y-1696484D02*
X4198634Y-1696484D01*
X4379587Y-1696484D02*
X4360539Y-1686960D01*
X4360539Y-1686960D02*
X4351015Y-1667912D01*
X4351015Y-1667912D02*
X4351015Y-1496484D01*
X4531968Y-1686960D02*
X4512920Y-1696484D01*
X4512920Y-1696484D02*
X4474825Y-1696484D01*
X4474825Y-1696484D02*
X4455777Y-1686960D01*
X4455777Y-1686960D02*
X4446253Y-1667912D01*
X4446253Y-1667912D02*
X4446253Y-1591722D01*
X4446253Y-1591722D02*
X4455777Y-1572674D01*
X4455777Y-1572674D02*
X4474825Y-1563150D01*
X4474825Y-1563150D02*
X4512920Y-1563150D01*
X4512920Y-1563150D02*
X4531968Y-1572674D01*
X4531968Y-1572674D02*
X4541492Y-1591722D01*
X4541492Y-1591722D02*
X4541492Y-1610769D01*
X4541492Y-1610769D02*
X4446253Y-1629817D01*
X4617682Y-1686960D02*
X4636730Y-1696484D01*
X4636730Y-1696484D02*
X4674825Y-1696484D01*
X4674825Y-1696484D02*
X4693873Y-1686960D01*
X4693873Y-1686960D02*
X4703396Y-1667912D01*
X4703396Y-1667912D02*
X4703396Y-1658388D01*
X4703396Y-1658388D02*
X4693873Y-1639341D01*
X4693873Y-1639341D02*
X4674825Y-1629817D01*
X4674825Y-1629817D02*
X4646253Y-1629817D01*
X4646253Y-1629817D02*
X4627206Y-1620293D01*
X4627206Y-1620293D02*
X4617682Y-1601246D01*
X4617682Y-1601246D02*
X4617682Y-1591722D01*
X4617682Y-1591722D02*
X4627206Y-1572674D01*
X4627206Y-1572674D02*
X4646253Y-1563150D01*
X4646253Y-1563150D02*
X4674825Y-1563150D01*
X4674825Y-1563150D02*
X4693873Y-1572674D01*
X4770063Y-1772674D02*
X4779587Y-1763150D01*
X4779587Y-1763150D02*
X4798634Y-1734579D01*
X4798634Y-1734579D02*
X4808158Y-1715531D01*
X4808158Y-1715531D02*
X4817682Y-1686960D01*
X4817682Y-1686960D02*
X4827206Y-1639341D01*
X4827206Y-1639341D02*
X4827206Y-1601246D01*
X4827206Y-1601246D02*
X4817682Y-1553627D01*
X4817682Y-1553627D02*
X4808158Y-1525055D01*
X4808158Y-1525055D02*
X4798634Y-1506008D01*
X4798634Y-1506008D02*
X4779587Y-1477436D01*
X4779587Y-1477436D02*
X4770063Y-1467912D01*
X-105000Y-2025000D02*
X-5000Y-1925000D01*
X-105000Y-1825000D01*
X-205000Y-1925000D01*
X-105000Y-2025000D01*
X236729Y-1816484D02*
X370063Y-1816484D01*
X370063Y-1816484D02*
X284348Y-2016484D01*
X446253Y-1997436D02*
X455777Y-2006960D01*
X455777Y-2006960D02*
X446253Y-2016484D01*
X446253Y-2016484D02*
X436729Y-2006960D01*
X436729Y-2006960D02*
X446253Y-1997436D01*
X446253Y-1997436D02*
X446253Y-2016484D01*
X522444Y-1816484D02*
X655777Y-1816484D01*
X655777Y-1816484D02*
X570063Y-2016484D01*
X817682Y-1883150D02*
X817682Y-2016484D01*
X770062Y-1806960D02*
X722444Y-1949817D01*
X722444Y-1949817D02*
X846253Y-1949817D01*
X903396Y-1816484D02*
X1036729Y-1816484D01*
X1036729Y-1816484D02*
X951015Y-2016484D01*
X1112920Y-2016484D02*
X1112920Y-1883150D01*
X1112920Y-1902198D02*
X1122444Y-1892674D01*
X1122444Y-1892674D02*
X1141491Y-1883150D01*
X1141491Y-1883150D02*
X1170063Y-1883150D01*
X1170063Y-1883150D02*
X1189110Y-1892674D01*
X1189110Y-1892674D02*
X1198634Y-1911722D01*
X1198634Y-1911722D02*
X1198634Y-2016484D01*
X1198634Y-1911722D02*
X1208158Y-1892674D01*
X1208158Y-1892674D02*
X1227205Y-1883150D01*
X1227205Y-1883150D02*
X1255777Y-1883150D01*
X1255777Y-1883150D02*
X1274825Y-1892674D01*
X1274825Y-1892674D02*
X1284348Y-1911722D01*
X1284348Y-1911722D02*
X1284348Y-2016484D01*
X1379586Y-2016484D02*
X1379586Y-1883150D01*
X1379586Y-1902198D02*
X1389110Y-1892674D01*
X1389110Y-1892674D02*
X1408158Y-1883150D01*
X1408158Y-1883150D02*
X1436729Y-1883150D01*
X1436729Y-1883150D02*
X1455777Y-1892674D01*
X1455777Y-1892674D02*
X1465301Y-1911722D01*
X1465301Y-1911722D02*
X1465301Y-2016484D01*
X1465301Y-1911722D02*
X1474824Y-1892674D01*
X1474824Y-1892674D02*
X1493872Y-1883150D01*
X1493872Y-1883150D02*
X1522443Y-1883150D01*
X1522443Y-1883150D02*
X1541491Y-1892674D01*
X1541491Y-1892674D02*
X1551015Y-1911722D01*
X1551015Y-1911722D02*
X1551015Y-2016484D01*
X1941491Y-1806960D02*
X1770063Y-2064103D01*
X2198634Y-1816484D02*
X2217682Y-1816484D01*
X2217682Y-1816484D02*
X2236729Y-1826008D01*
X2236729Y-1826008D02*
X2246253Y-1835531D01*
X2246253Y-1835531D02*
X2255777Y-1854579D01*
X2255777Y-1854579D02*
X2265301Y-1892674D01*
X2265301Y-1892674D02*
X2265301Y-1940293D01*
X2265301Y-1940293D02*
X2255777Y-1978388D01*
X2255777Y-1978388D02*
X2246253Y-1997436D01*
X2246253Y-1997436D02*
X2236729Y-2006960D01*
X2236729Y-2006960D02*
X2217682Y-2016484D01*
X2217682Y-2016484D02*
X2198634Y-2016484D01*
X2198634Y-2016484D02*
X2179587Y-2006960D01*
X2179587Y-2006960D02*
X2170063Y-1997436D01*
X2170063Y-1997436D02*
X2160539Y-1978388D01*
X2160539Y-1978388D02*
X2151015Y-1940293D01*
X2151015Y-1940293D02*
X2151015Y-1892674D01*
X2151015Y-1892674D02*
X2160539Y-1854579D01*
X2160539Y-1854579D02*
X2170063Y-1835531D01*
X2170063Y-1835531D02*
X2179587Y-1826008D01*
X2179587Y-1826008D02*
X2198634Y-1816484D01*
X2351015Y-1997436D02*
X2360539Y-2006960D01*
X2360539Y-2006960D02*
X2351015Y-2016484D01*
X2351015Y-2016484D02*
X2341491Y-2006960D01*
X2341491Y-2006960D02*
X2351015Y-1997436D01*
X2351015Y-1997436D02*
X2351015Y-2016484D01*
X2427206Y-1816484D02*
X2551015Y-1816484D01*
X2551015Y-1816484D02*
X2484348Y-1892674D01*
X2484348Y-1892674D02*
X2512920Y-1892674D01*
X2512920Y-1892674D02*
X2531968Y-1902198D01*
X2531968Y-1902198D02*
X2541491Y-1911722D01*
X2541491Y-1911722D02*
X2551015Y-1930769D01*
X2551015Y-1930769D02*
X2551015Y-1978388D01*
X2551015Y-1978388D02*
X2541491Y-1997436D01*
X2541491Y-1997436D02*
X2531968Y-2006960D01*
X2531968Y-2006960D02*
X2512920Y-2016484D01*
X2512920Y-2016484D02*
X2455777Y-2016484D01*
X2455777Y-2016484D02*
X2436729Y-2006960D01*
X2436729Y-2006960D02*
X2427206Y-1997436D01*
X2674825Y-1816484D02*
X2693872Y-1816484D01*
X2693872Y-1816484D02*
X2712920Y-1826008D01*
X2712920Y-1826008D02*
X2722444Y-1835531D01*
X2722444Y-1835531D02*
X2731968Y-1854579D01*
X2731968Y-1854579D02*
X2741491Y-1892674D01*
X2741491Y-1892674D02*
X2741491Y-1940293D01*
X2741491Y-1940293D02*
X2731968Y-1978388D01*
X2731968Y-1978388D02*
X2722444Y-1997436D01*
X2722444Y-1997436D02*
X2712920Y-2006960D01*
X2712920Y-2006960D02*
X2693872Y-2016484D01*
X2693872Y-2016484D02*
X2674825Y-2016484D01*
X2674825Y-2016484D02*
X2655777Y-2006960D01*
X2655777Y-2006960D02*
X2646253Y-1997436D01*
X2646253Y-1997436D02*
X2636729Y-1978388D01*
X2636729Y-1978388D02*
X2627206Y-1940293D01*
X2627206Y-1940293D02*
X2627206Y-1892674D01*
X2627206Y-1892674D02*
X2636729Y-1854579D01*
X2636729Y-1854579D02*
X2646253Y-1835531D01*
X2646253Y-1835531D02*
X2655777Y-1826008D01*
X2655777Y-1826008D02*
X2674825Y-1816484D01*
X2922444Y-1816484D02*
X2827206Y-1816484D01*
X2827206Y-1816484D02*
X2817682Y-1911722D01*
X2817682Y-1911722D02*
X2827206Y-1902198D01*
X2827206Y-1902198D02*
X2846253Y-1892674D01*
X2846253Y-1892674D02*
X2893872Y-1892674D01*
X2893872Y-1892674D02*
X2912920Y-1902198D01*
X2912920Y-1902198D02*
X2922444Y-1911722D01*
X2922444Y-1911722D02*
X2931967Y-1930769D01*
X2931967Y-1930769D02*
X2931967Y-1978388D01*
X2931967Y-1978388D02*
X2922444Y-1997436D01*
X2922444Y-1997436D02*
X2912920Y-2006960D01*
X2912920Y-2006960D02*
X2893872Y-2016484D01*
X2893872Y-2016484D02*
X2846253Y-2016484D01*
X2846253Y-2016484D02*
X2827206Y-2006960D01*
X2827206Y-2006960D02*
X2817682Y-1997436D01*
X3055777Y-1816484D02*
X3074825Y-1816484D01*
X3074825Y-1816484D02*
X3093872Y-1826008D01*
X3093872Y-1826008D02*
X3103396Y-1835531D01*
X3103396Y-1835531D02*
X3112920Y-1854579D01*
X3112920Y-1854579D02*
X3122444Y-1892674D01*
X3122444Y-1892674D02*
X3122444Y-1940293D01*
X3122444Y-1940293D02*
X3112920Y-1978388D01*
X3112920Y-1978388D02*
X3103396Y-1997436D01*
X3103396Y-1997436D02*
X3093872Y-2006960D01*
X3093872Y-2006960D02*
X3074825Y-2016484D01*
X3074825Y-2016484D02*
X3055777Y-2016484D01*
X3055777Y-2016484D02*
X3036729Y-2006960D01*
X3036729Y-2006960D02*
X3027206Y-1997436D01*
X3027206Y-1997436D02*
X3017682Y-1978388D01*
X3017682Y-1978388D02*
X3008158Y-1940293D01*
X3008158Y-1940293D02*
X3008158Y-1892674D01*
X3008158Y-1892674D02*
X3017682Y-1854579D01*
X3017682Y-1854579D02*
X3027206Y-1835531D01*
X3027206Y-1835531D02*
X3036729Y-1826008D01*
X3036729Y-1826008D02*
X3055777Y-1816484D01*
X3198634Y-1816484D02*
X3198634Y-1854579D01*
X3274825Y-1816484D02*
X3274825Y-1854579D01*
X3570063Y-2092674D02*
X3560539Y-2083150D01*
X3560539Y-2083150D02*
X3541491Y-2054579D01*
X3541491Y-2054579D02*
X3531968Y-2035531D01*
X3531968Y-2035531D02*
X3522444Y-2006960D01*
X3522444Y-2006960D02*
X3512920Y-1959341D01*
X3512920Y-1959341D02*
X3512920Y-1921246D01*
X3512920Y-1921246D02*
X3522444Y-1873627D01*
X3522444Y-1873627D02*
X3531968Y-1845055D01*
X3531968Y-1845055D02*
X3541491Y-1826008D01*
X3541491Y-1826008D02*
X3560539Y-1797436D01*
X3560539Y-1797436D02*
X3570063Y-1787912D01*
X3751015Y-2016484D02*
X3636729Y-2016484D01*
X3693872Y-2016484D02*
X3693872Y-1816484D01*
X3693872Y-1816484D02*
X3674825Y-1845055D01*
X3674825Y-1845055D02*
X3655777Y-1864103D01*
X3655777Y-1864103D02*
X3636729Y-1873627D01*
X3989110Y-2016484D02*
X3989110Y-1816484D01*
X4074825Y-2016484D02*
X4074825Y-1911722D01*
X4074825Y-1911722D02*
X4065301Y-1892674D01*
X4065301Y-1892674D02*
X4046253Y-1883150D01*
X4046253Y-1883150D02*
X4017682Y-1883150D01*
X4017682Y-1883150D02*
X3998634Y-1892674D01*
X3998634Y-1892674D02*
X3989110Y-1902198D01*
X4198634Y-2016484D02*
X4179587Y-2006960D01*
X4179587Y-2006960D02*
X4170063Y-1997436D01*
X4170063Y-1997436D02*
X4160539Y-1978388D01*
X4160539Y-1978388D02*
X4160539Y-1921246D01*
X4160539Y-1921246D02*
X4170063Y-1902198D01*
X4170063Y-1902198D02*
X4179587Y-1892674D01*
X4179587Y-1892674D02*
X4198634Y-1883150D01*
X4198634Y-1883150D02*
X4227206Y-1883150D01*
X4227206Y-1883150D02*
X4246253Y-1892674D01*
X4246253Y-1892674D02*
X4255777Y-1902198D01*
X4255777Y-1902198D02*
X4265301Y-1921246D01*
X4265301Y-1921246D02*
X4265301Y-1978388D01*
X4265301Y-1978388D02*
X4255777Y-1997436D01*
X4255777Y-1997436D02*
X4246253Y-2006960D01*
X4246253Y-2006960D02*
X4227206Y-2016484D01*
X4227206Y-2016484D02*
X4198634Y-2016484D01*
X4379587Y-2016484D02*
X4360539Y-2006960D01*
X4360539Y-2006960D02*
X4351015Y-1987912D01*
X4351015Y-1987912D02*
X4351015Y-1816484D01*
X4531968Y-2006960D02*
X4512920Y-2016484D01*
X4512920Y-2016484D02*
X4474825Y-2016484D01*
X4474825Y-2016484D02*
X4455777Y-2006960D01*
X4455777Y-2006960D02*
X4446253Y-1987912D01*
X4446253Y-1987912D02*
X4446253Y-1911722D01*
X4446253Y-1911722D02*
X4455777Y-1892674D01*
X4455777Y-1892674D02*
X4474825Y-1883150D01*
X4474825Y-1883150D02*
X4512920Y-1883150D01*
X4512920Y-1883150D02*
X4531968Y-1892674D01*
X4531968Y-1892674D02*
X4541492Y-1911722D01*
X4541492Y-1911722D02*
X4541492Y-1930769D01*
X4541492Y-1930769D02*
X4446253Y-1949817D01*
X4608158Y-2092674D02*
X4617682Y-2083150D01*
X4617682Y-2083150D02*
X4636730Y-2054579D01*
X4636730Y-2054579D02*
X4646253Y-2035531D01*
X4646253Y-2035531D02*
X4655777Y-2006960D01*
X4655777Y-2006960D02*
X4665301Y-1959341D01*
X4665301Y-1959341D02*
X4665301Y-1921246D01*
X4665301Y-1921246D02*
X4655777Y-1873627D01*
X4655777Y-1873627D02*
X4646253Y-1845055D01*
X4646253Y-1845055D02*
X4636730Y-1826008D01*
X4636730Y-1826008D02*
X4617682Y-1797436D01*
X4617682Y-1797436D02*
X4608158Y-1787912D01*
M02*
