G04 #@! TF.GenerationSoftware,KiCad,Pcbnew,7.0.5-0*
G04 #@! TF.CreationDate,2024-05-01T14:30:59-07:00*
G04 #@! TF.ProjectId,Sampler-built-FACEPLATE,53616d70-6c65-4722-9d62-75696c742d46,rev?*
G04 #@! TF.SameCoordinates,PX8165000PY80deb90*
G04 #@! TF.FileFunction,Copper,L4,Bot*
G04 #@! TF.FilePolarity,Positive*
%FSLAX46Y46*%
G04 Gerber Fmt 4.6, Leading zero omitted, Abs format (unit mm)*
G04 Created by KiCad (PCBNEW 7.0.5-0) date 2024-05-01 14:30:59*
%MOMM*%
%LPD*%
G01*
G04 APERTURE LIST*
G04 #@! TA.AperFunction,SMDPad,CuDef*
%ADD10R,60.000000X8.000000*%
G04 #@! TD*
G04 #@! TA.AperFunction,ComponentPad*
%ADD11C,7.874000*%
G04 #@! TD*
G04 #@! TA.AperFunction,ComponentPad*
%ADD12C,8.051800*%
G04 #@! TD*
G04 #@! TA.AperFunction,ComponentPad*
%ADD13C,7.620000*%
G04 #@! TD*
G04 #@! TA.AperFunction,ComponentPad*
%ADD14C,5.969000*%
G04 #@! TD*
G04 #@! TA.AperFunction,ComponentPad*
%ADD15O,7.366000X4.191000*%
G04 #@! TD*
G04 APERTURE END LIST*
D10*
X30290000Y4160000D03*
X30410000Y123950000D03*
D11*
X47080000Y97720000D03*
D12*
X30193352Y110089922D03*
D13*
X23883352Y31539922D03*
D11*
X10383352Y71539922D03*
D13*
X8383352Y31539922D03*
X51911352Y16539922D03*
X8383352Y46539922D03*
X36383352Y31539922D03*
D14*
X49633352Y112189922D03*
D13*
X36383352Y16539922D03*
X36383352Y46539922D03*
X51911352Y46539922D03*
D11*
X13383352Y97539922D03*
D13*
X23883352Y46539922D03*
D11*
X50011352Y71539922D03*
D14*
X10761352Y112189922D03*
D13*
X8219152Y16494362D03*
X23719152Y16494362D03*
X51911352Y31539922D03*
D15*
X53052000Y2947200D03*
X7438000Y2947200D03*
X53052000Y125452800D03*
X7438000Y125452800D03*
G04 #@! TA.AperFunction,Conductor*
G36*
X59987539Y127929815D02*
G01*
X60033294Y127877011D01*
X60044500Y127825500D01*
X60044500Y574500D01*
X60024815Y507461D01*
X59972011Y461706D01*
X59920500Y450500D01*
X569500Y450500D01*
X502461Y470185D01*
X456706Y522989D01*
X445500Y574500D01*
X445500Y85668037D01*
X28239500Y85668037D01*
X28247190Y85641846D01*
X28250947Y85624577D01*
X28252331Y85614959D01*
X28254835Y85597543D01*
X28266173Y85572717D01*
X28272355Y85556142D01*
X28280046Y85529949D01*
X28280047Y85529947D01*
X28294806Y85506981D01*
X28303282Y85491459D01*
X28314623Y85466627D01*
X28326437Y85452993D01*
X28332496Y85446000D01*
X28343095Y85431840D01*
X28357853Y85408877D01*
X28357857Y85408872D01*
X28378488Y85390994D01*
X28390992Y85378490D01*
X28408871Y85357858D01*
X28408872Y85357857D01*
X28431844Y85343095D01*
X28445996Y85332500D01*
X28466627Y85314623D01*
X28489899Y85303995D01*
X28491451Y85303286D01*
X28506978Y85294808D01*
X28529947Y85280047D01*
X28556136Y85272357D01*
X28572713Y85266174D01*
X28597538Y85254837D01*
X28597539Y85254837D01*
X28597543Y85254835D01*
X28624564Y85250950D01*
X28641846Y85247191D01*
X28668039Y85239500D01*
X31885796Y85239500D01*
X31885799Y85239500D01*
X31992457Y85254835D01*
X32123373Y85314623D01*
X32232143Y85408872D01*
X32309953Y85529947D01*
X32325869Y85584155D01*
X32332047Y85600718D01*
X32335165Y85607543D01*
X32336232Y85614972D01*
X32339994Y85632261D01*
X32350500Y85668039D01*
X32350500Y99375796D01*
X32350500Y99375799D01*
X32335165Y99482457D01*
X32304051Y99550586D01*
X32303053Y99553263D01*
X32296872Y99566801D01*
X32295490Y99569330D01*
X32275377Y99613373D01*
X32243667Y99649968D01*
X32233065Y99664132D01*
X32222144Y99681127D01*
X32222140Y99681131D01*
X32206870Y99694362D01*
X32194359Y99706873D01*
X32181128Y99722143D01*
X32164128Y99733068D01*
X32149965Y99743670D01*
X32113372Y99775378D01*
X32113370Y99775379D01*
X32069318Y99795497D01*
X32066798Y99796873D01*
X32053307Y99803034D01*
X32050612Y99804040D01*
X31982457Y99835165D01*
X31982452Y99835166D01*
X31929728Y99842747D01*
X31875799Y99850500D01*
X28704201Y99850500D01*
X28690794Y99848573D01*
X28597543Y99835166D01*
X28466628Y99775378D01*
X28466626Y99775377D01*
X28423334Y99737864D01*
X28357861Y99681131D01*
X28357856Y99681127D01*
X28280048Y99560055D01*
X28280046Y99560051D01*
X28264129Y99505848D01*
X28257953Y99489288D01*
X28254837Y99482465D01*
X28254835Y99482458D01*
X28254835Y99482457D01*
X28253767Y99475030D01*
X28250008Y99457754D01*
X28239500Y99421964D01*
X28239500Y85668037D01*
X445500Y85668037D01*
X445500Y127825500D01*
X465185Y127892539D01*
X517989Y127938294D01*
X569500Y127949500D01*
X59920500Y127949500D01*
X59987539Y127929815D01*
G37*
G04 #@! TD.AperFunction*
M02*
