%TF.GenerationSoftware,KiCad,Pcbnew,7.0.6-0*%
%TF.CreationDate,2024-04-10T15:20:05-07:00*%
%TF.ProjectId,Sampler-built,53616d70-6c65-4722-9d62-75696c742e6b,rev?*%
%TF.SameCoordinates,PXb71b00PY73f50f0*%
%TF.FileFunction,Drillmap*%
%TF.FilePolarity,Positive*%
%FSLAX45Y45*%
G04 Gerber Fmt 4.5, Leading zero omitted, Abs format (unit mm)*
G04 Created by KiCad (PCBNEW 7.0.6-0) date 2024-04-10 15:20:05*
%MOMM*%
%LPD*%
G01*
G04 APERTURE LIST*
%ADD10C,0.100000*%
%ADD11C,0.200000*%
%ADD12C,0.317500*%
%ADD13C,0.566420*%
%ADD14C,0.660400*%
%ADD15C,0.711200*%
%ADD16C,0.774700*%
G04 APERTURE END LIST*
D10*
X18422500Y11491000D02*
X18422500Y-1359000D01*
X12362500Y11491000D02*
X12362500Y-1359000D01*
X12362500Y11491000D02*
X18422500Y11491000D01*
X12362500Y-1359000D02*
X18422500Y-1359000D01*
D11*
D12*
X12953050Y11350030D02*
X13270550Y11032530D01*
X13270550Y11350030D02*
X12953050Y11032530D01*
D11*
X12953050Y11032530D02*
X13270550Y11032530D01*
X13270550Y11032530D02*
G75*
G03*
X13270550Y11350030I0J158750D01*
G01*
X13270550Y11350030D02*
X12953050Y11350030D01*
X12953050Y11350030D02*
G75*
G03*
X12953050Y11032530I0J-158750D01*
G01*
D12*
X12953050Y-900530D02*
X13270550Y-1218030D01*
X13270550Y-900530D02*
X12953050Y-1218030D01*
D11*
X12953050Y-1218030D02*
X13270550Y-1218030D01*
X13270550Y-1218030D02*
G75*
G03*
X13270550Y-900530I0J158750D01*
G01*
X13270550Y-900530D02*
X12953050Y-900530D01*
X12953050Y-900530D02*
G75*
G03*
X12953050Y-1218030I0J-158750D01*
G01*
D12*
X17514450Y11350030D02*
X17831950Y11032530D01*
X17831950Y11350030D02*
X17514450Y11032530D01*
D11*
X17514450Y11032530D02*
X17831950Y11032530D01*
X17831950Y11032530D02*
G75*
G03*
X17831950Y11350030I0J158750D01*
G01*
X17831950Y11350030D02*
X17514450Y11350030D01*
X17514450Y11350030D02*
G75*
G03*
X17514450Y11032530I0J-158750D01*
G01*
D12*
X17514450Y-900530D02*
X17831950Y-1218030D01*
X17831950Y-900530D02*
X17514450Y-1218030D01*
D11*
X17514450Y-1218030D02*
X17831950Y-1218030D01*
X17831950Y-1218030D02*
G75*
G03*
X17831950Y-900530I0J158750D01*
G01*
X17831950Y-900530D02*
X17514450Y-900530D01*
X17514450Y-900530D02*
G75*
G03*
X17514450Y-1218030I0J-158750D01*
G01*
D13*
X13727345Y9864992D02*
G75*
G03*
X13727345Y9864992I-283210J0D01*
G01*
X17614545Y9864992D02*
G75*
G03*
X17614545Y9864992I-283210J0D01*
G01*
D14*
X13189915Y625636D02*
X13189915Y-34764D01*
X12859715Y295436D02*
X13520115Y295436D01*
X13206335Y3630192D02*
X13206335Y2969792D01*
X12876135Y3299992D02*
X13536535Y3299992D01*
X13206335Y2130192D02*
X13206335Y1469792D01*
X12876135Y1799992D02*
X13536535Y1799992D01*
X14739915Y625636D02*
X14739915Y-34764D01*
X14409715Y295436D02*
X15070115Y295436D01*
X14756335Y3630192D02*
X14756335Y2969792D01*
X14426135Y3299992D02*
X15086535Y3299992D01*
X14756335Y2130192D02*
X14756335Y1469792D01*
X14426135Y1799992D02*
X15086535Y1799992D01*
X16006335Y3630192D02*
X16006335Y2969792D01*
X15676135Y3299992D02*
X16336535Y3299992D01*
X16006335Y2130192D02*
X16006335Y1469792D01*
X15676135Y1799992D02*
X16336535Y1799992D01*
X16006335Y630192D02*
X16006335Y-30208D01*
X15676135Y299992D02*
X16336535Y299992D01*
X17559135Y3630192D02*
X17559135Y2969792D01*
X17228935Y3299992D02*
X17889335Y3299992D01*
X17559135Y2130192D02*
X17559135Y1469792D01*
X17228935Y1799992D02*
X17889335Y1799992D01*
X17559135Y630192D02*
X17559135Y-30208D01*
X17228935Y299992D02*
X17889335Y299992D01*
D15*
X13657785Y5548543D02*
X13657785Y6051442D01*
X13154886Y6051442D01*
X13154886Y5548543D01*
X13657785Y5548543D01*
X13957785Y8148543D02*
X13957785Y8651442D01*
X13454886Y8651442D01*
X13454886Y8148543D01*
X13957785Y8148543D01*
X17327450Y8166550D02*
X17327450Y8669450D01*
X16824550Y8669450D01*
X16824550Y8166550D01*
X17327450Y8166550D01*
X17620585Y5548543D02*
X17620585Y6051442D01*
X17117686Y6051442D01*
X17117686Y5548543D01*
X17620585Y5548543D01*
D16*
X15387335Y9267642D02*
X15774685Y9654992D01*
X15387335Y10042342D01*
X14999985Y9654992D01*
X15387335Y9267642D01*
D11*
X12618277Y-1675484D02*
X12618277Y-1475484D01*
X12618277Y-1475484D02*
X12665896Y-1475484D01*
X12665896Y-1475484D02*
X12694467Y-1485008D01*
X12694467Y-1485008D02*
X12713515Y-1504055D01*
X12713515Y-1504055D02*
X12723039Y-1523103D01*
X12723039Y-1523103D02*
X12732562Y-1561198D01*
X12732562Y-1561198D02*
X12732562Y-1589769D01*
X12732562Y-1589769D02*
X12723039Y-1627865D01*
X12723039Y-1627865D02*
X12713515Y-1646912D01*
X12713515Y-1646912D02*
X12694467Y-1665960D01*
X12694467Y-1665960D02*
X12665896Y-1675484D01*
X12665896Y-1675484D02*
X12618277Y-1675484D01*
X12818277Y-1675484D02*
X12818277Y-1542150D01*
X12818277Y-1580246D02*
X12827801Y-1561198D01*
X12827801Y-1561198D02*
X12837324Y-1551674D01*
X12837324Y-1551674D02*
X12856372Y-1542150D01*
X12856372Y-1542150D02*
X12875420Y-1542150D01*
X12942086Y-1675484D02*
X12942086Y-1542150D01*
X12942086Y-1475484D02*
X12932562Y-1485008D01*
X12932562Y-1485008D02*
X12942086Y-1494531D01*
X12942086Y-1494531D02*
X12951610Y-1485008D01*
X12951610Y-1485008D02*
X12942086Y-1475484D01*
X12942086Y-1475484D02*
X12942086Y-1494531D01*
X13065896Y-1675484D02*
X13046848Y-1665960D01*
X13046848Y-1665960D02*
X13037324Y-1646912D01*
X13037324Y-1646912D02*
X13037324Y-1475484D01*
X13170658Y-1675484D02*
X13151610Y-1665960D01*
X13151610Y-1665960D02*
X13142086Y-1646912D01*
X13142086Y-1646912D02*
X13142086Y-1475484D01*
X13399229Y-1675484D02*
X13399229Y-1475484D01*
X13399229Y-1475484D02*
X13465896Y-1618341D01*
X13465896Y-1618341D02*
X13532562Y-1475484D01*
X13532562Y-1475484D02*
X13532562Y-1675484D01*
X13713515Y-1675484D02*
X13713515Y-1570722D01*
X13713515Y-1570722D02*
X13703991Y-1551674D01*
X13703991Y-1551674D02*
X13684943Y-1542150D01*
X13684943Y-1542150D02*
X13646848Y-1542150D01*
X13646848Y-1542150D02*
X13627801Y-1551674D01*
X13713515Y-1665960D02*
X13694467Y-1675484D01*
X13694467Y-1675484D02*
X13646848Y-1675484D01*
X13646848Y-1675484D02*
X13627801Y-1665960D01*
X13627801Y-1665960D02*
X13618277Y-1646912D01*
X13618277Y-1646912D02*
X13618277Y-1627865D01*
X13618277Y-1627865D02*
X13627801Y-1608817D01*
X13627801Y-1608817D02*
X13646848Y-1599293D01*
X13646848Y-1599293D02*
X13694467Y-1599293D01*
X13694467Y-1599293D02*
X13713515Y-1589769D01*
X13808753Y-1542150D02*
X13808753Y-1742150D01*
X13808753Y-1551674D02*
X13827801Y-1542150D01*
X13827801Y-1542150D02*
X13865896Y-1542150D01*
X13865896Y-1542150D02*
X13884943Y-1551674D01*
X13884943Y-1551674D02*
X13894467Y-1561198D01*
X13894467Y-1561198D02*
X13903991Y-1580246D01*
X13903991Y-1580246D02*
X13903991Y-1637388D01*
X13903991Y-1637388D02*
X13894467Y-1656436D01*
X13894467Y-1656436D02*
X13884943Y-1665960D01*
X13884943Y-1665960D02*
X13865896Y-1675484D01*
X13865896Y-1675484D02*
X13827801Y-1675484D01*
X13827801Y-1675484D02*
X13808753Y-1665960D01*
X13989705Y-1656436D02*
X13999229Y-1665960D01*
X13999229Y-1665960D02*
X13989705Y-1675484D01*
X13989705Y-1675484D02*
X13980182Y-1665960D01*
X13980182Y-1665960D02*
X13989705Y-1656436D01*
X13989705Y-1656436D02*
X13989705Y-1675484D01*
X13989705Y-1551674D02*
X13999229Y-1561198D01*
X13999229Y-1561198D02*
X13989705Y-1570722D01*
X13989705Y-1570722D02*
X13980182Y-1561198D01*
X13980182Y-1561198D02*
X13989705Y-1551674D01*
X13989705Y-1551674D02*
X13989705Y-1570722D01*
X12157500Y-1904000D02*
X12357500Y-2104000D01*
X12357500Y-1904000D02*
X12157500Y-2104000D01*
X12599229Y-1895484D02*
X12723039Y-1895484D01*
X12723039Y-1895484D02*
X12656372Y-1971674D01*
X12656372Y-1971674D02*
X12684943Y-1971674D01*
X12684943Y-1971674D02*
X12703991Y-1981198D01*
X12703991Y-1981198D02*
X12713515Y-1990722D01*
X12713515Y-1990722D02*
X12723039Y-2009769D01*
X12723039Y-2009769D02*
X12723039Y-2057388D01*
X12723039Y-2057388D02*
X12713515Y-2076436D01*
X12713515Y-2076436D02*
X12703991Y-2085960D01*
X12703991Y-2085960D02*
X12684943Y-2095484D01*
X12684943Y-2095484D02*
X12627801Y-2095484D01*
X12627801Y-2095484D02*
X12608753Y-2085960D01*
X12608753Y-2085960D02*
X12599229Y-2076436D01*
X12808753Y-2076436D02*
X12818277Y-2085960D01*
X12818277Y-2085960D02*
X12808753Y-2095484D01*
X12808753Y-2095484D02*
X12799229Y-2085960D01*
X12799229Y-2085960D02*
X12808753Y-2076436D01*
X12808753Y-2076436D02*
X12808753Y-2095484D01*
X13008753Y-2095484D02*
X12894467Y-2095484D01*
X12951610Y-2095484D02*
X12951610Y-1895484D01*
X12951610Y-1895484D02*
X12932562Y-1924055D01*
X12932562Y-1924055D02*
X12913515Y-1943103D01*
X12913515Y-1943103D02*
X12894467Y-1952627D01*
X13075420Y-1895484D02*
X13208753Y-1895484D01*
X13208753Y-1895484D02*
X13123039Y-2095484D01*
X13380182Y-1895484D02*
X13284943Y-1895484D01*
X13284943Y-1895484D02*
X13275420Y-1990722D01*
X13275420Y-1990722D02*
X13284943Y-1981198D01*
X13284943Y-1981198D02*
X13303991Y-1971674D01*
X13303991Y-1971674D02*
X13351610Y-1971674D01*
X13351610Y-1971674D02*
X13370658Y-1981198D01*
X13370658Y-1981198D02*
X13380182Y-1990722D01*
X13380182Y-1990722D02*
X13389705Y-2009769D01*
X13389705Y-2009769D02*
X13389705Y-2057388D01*
X13389705Y-2057388D02*
X13380182Y-2076436D01*
X13380182Y-2076436D02*
X13370658Y-2085960D01*
X13370658Y-2085960D02*
X13351610Y-2095484D01*
X13351610Y-2095484D02*
X13303991Y-2095484D01*
X13303991Y-2095484D02*
X13284943Y-2085960D01*
X13284943Y-2085960D02*
X13275420Y-2076436D01*
X13475420Y-2095484D02*
X13475420Y-1962150D01*
X13475420Y-1981198D02*
X13484943Y-1971674D01*
X13484943Y-1971674D02*
X13503991Y-1962150D01*
X13503991Y-1962150D02*
X13532563Y-1962150D01*
X13532563Y-1962150D02*
X13551610Y-1971674D01*
X13551610Y-1971674D02*
X13561134Y-1990722D01*
X13561134Y-1990722D02*
X13561134Y-2095484D01*
X13561134Y-1990722D02*
X13570658Y-1971674D01*
X13570658Y-1971674D02*
X13589705Y-1962150D01*
X13589705Y-1962150D02*
X13618277Y-1962150D01*
X13618277Y-1962150D02*
X13637324Y-1971674D01*
X13637324Y-1971674D02*
X13646848Y-1990722D01*
X13646848Y-1990722D02*
X13646848Y-2095484D01*
X13742086Y-2095484D02*
X13742086Y-1962150D01*
X13742086Y-1981198D02*
X13751610Y-1971674D01*
X13751610Y-1971674D02*
X13770658Y-1962150D01*
X13770658Y-1962150D02*
X13799229Y-1962150D01*
X13799229Y-1962150D02*
X13818277Y-1971674D01*
X13818277Y-1971674D02*
X13827801Y-1990722D01*
X13827801Y-1990722D02*
X13827801Y-2095484D01*
X13827801Y-1990722D02*
X13837324Y-1971674D01*
X13837324Y-1971674D02*
X13856372Y-1962150D01*
X13856372Y-1962150D02*
X13884943Y-1962150D01*
X13884943Y-1962150D02*
X13903991Y-1971674D01*
X13903991Y-1971674D02*
X13913515Y-1990722D01*
X13913515Y-1990722D02*
X13913515Y-2095484D01*
X14303991Y-1885960D02*
X14132563Y-2143103D01*
X14561134Y-1895484D02*
X14580182Y-1895484D01*
X14580182Y-1895484D02*
X14599229Y-1905008D01*
X14599229Y-1905008D02*
X14608753Y-1914531D01*
X14608753Y-1914531D02*
X14618277Y-1933579D01*
X14618277Y-1933579D02*
X14627801Y-1971674D01*
X14627801Y-1971674D02*
X14627801Y-2019293D01*
X14627801Y-2019293D02*
X14618277Y-2057388D01*
X14618277Y-2057388D02*
X14608753Y-2076436D01*
X14608753Y-2076436D02*
X14599229Y-2085960D01*
X14599229Y-2085960D02*
X14580182Y-2095484D01*
X14580182Y-2095484D02*
X14561134Y-2095484D01*
X14561134Y-2095484D02*
X14542086Y-2085960D01*
X14542086Y-2085960D02*
X14532563Y-2076436D01*
X14532563Y-2076436D02*
X14523039Y-2057388D01*
X14523039Y-2057388D02*
X14513515Y-2019293D01*
X14513515Y-2019293D02*
X14513515Y-1971674D01*
X14513515Y-1971674D02*
X14523039Y-1933579D01*
X14523039Y-1933579D02*
X14532563Y-1914531D01*
X14532563Y-1914531D02*
X14542086Y-1905008D01*
X14542086Y-1905008D02*
X14561134Y-1895484D01*
X14713515Y-2076436D02*
X14723039Y-2085960D01*
X14723039Y-2085960D02*
X14713515Y-2095484D01*
X14713515Y-2095484D02*
X14703991Y-2085960D01*
X14703991Y-2085960D02*
X14713515Y-2076436D01*
X14713515Y-2076436D02*
X14713515Y-2095484D01*
X14913515Y-2095484D02*
X14799229Y-2095484D01*
X14856372Y-2095484D02*
X14856372Y-1895484D01*
X14856372Y-1895484D02*
X14837325Y-1924055D01*
X14837325Y-1924055D02*
X14818277Y-1943103D01*
X14818277Y-1943103D02*
X14799229Y-1952627D01*
X14989706Y-1914531D02*
X14999229Y-1905008D01*
X14999229Y-1905008D02*
X15018277Y-1895484D01*
X15018277Y-1895484D02*
X15065896Y-1895484D01*
X15065896Y-1895484D02*
X15084944Y-1905008D01*
X15084944Y-1905008D02*
X15094467Y-1914531D01*
X15094467Y-1914531D02*
X15103991Y-1933579D01*
X15103991Y-1933579D02*
X15103991Y-1952627D01*
X15103991Y-1952627D02*
X15094467Y-1981198D01*
X15094467Y-1981198D02*
X14980182Y-2095484D01*
X14980182Y-2095484D02*
X15103991Y-2095484D01*
X15284944Y-1895484D02*
X15189706Y-1895484D01*
X15189706Y-1895484D02*
X15180182Y-1990722D01*
X15180182Y-1990722D02*
X15189706Y-1981198D01*
X15189706Y-1981198D02*
X15208753Y-1971674D01*
X15208753Y-1971674D02*
X15256372Y-1971674D01*
X15256372Y-1971674D02*
X15275420Y-1981198D01*
X15275420Y-1981198D02*
X15284944Y-1990722D01*
X15284944Y-1990722D02*
X15294467Y-2009769D01*
X15294467Y-2009769D02*
X15294467Y-2057388D01*
X15294467Y-2057388D02*
X15284944Y-2076436D01*
X15284944Y-2076436D02*
X15275420Y-2085960D01*
X15275420Y-2085960D02*
X15256372Y-2095484D01*
X15256372Y-2095484D02*
X15208753Y-2095484D01*
X15208753Y-2095484D02*
X15189706Y-2085960D01*
X15189706Y-2085960D02*
X15180182Y-2076436D01*
X15418277Y-1895484D02*
X15437325Y-1895484D01*
X15437325Y-1895484D02*
X15456372Y-1905008D01*
X15456372Y-1905008D02*
X15465896Y-1914531D01*
X15465896Y-1914531D02*
X15475420Y-1933579D01*
X15475420Y-1933579D02*
X15484944Y-1971674D01*
X15484944Y-1971674D02*
X15484944Y-2019293D01*
X15484944Y-2019293D02*
X15475420Y-2057388D01*
X15475420Y-2057388D02*
X15465896Y-2076436D01*
X15465896Y-2076436D02*
X15456372Y-2085960D01*
X15456372Y-2085960D02*
X15437325Y-2095484D01*
X15437325Y-2095484D02*
X15418277Y-2095484D01*
X15418277Y-2095484D02*
X15399229Y-2085960D01*
X15399229Y-2085960D02*
X15389706Y-2076436D01*
X15389706Y-2076436D02*
X15380182Y-2057388D01*
X15380182Y-2057388D02*
X15370658Y-2019293D01*
X15370658Y-2019293D02*
X15370658Y-1971674D01*
X15370658Y-1971674D02*
X15380182Y-1933579D01*
X15380182Y-1933579D02*
X15389706Y-1914531D01*
X15389706Y-1914531D02*
X15399229Y-1905008D01*
X15399229Y-1905008D02*
X15418277Y-1895484D01*
X15561134Y-1895484D02*
X15561134Y-1933579D01*
X15637325Y-1895484D02*
X15637325Y-1933579D01*
X15932563Y-2171674D02*
X15923039Y-2162150D01*
X15923039Y-2162150D02*
X15903991Y-2133579D01*
X15903991Y-2133579D02*
X15894468Y-2114531D01*
X15894468Y-2114531D02*
X15884944Y-2085960D01*
X15884944Y-2085960D02*
X15875420Y-2038341D01*
X15875420Y-2038341D02*
X15875420Y-2000246D01*
X15875420Y-2000246D02*
X15884944Y-1952627D01*
X15884944Y-1952627D02*
X15894468Y-1924055D01*
X15894468Y-1924055D02*
X15903991Y-1905008D01*
X15903991Y-1905008D02*
X15923039Y-1876436D01*
X15923039Y-1876436D02*
X15932563Y-1866912D01*
X16046848Y-1895484D02*
X16065896Y-1895484D01*
X16065896Y-1895484D02*
X16084944Y-1905008D01*
X16084944Y-1905008D02*
X16094468Y-1914531D01*
X16094468Y-1914531D02*
X16103991Y-1933579D01*
X16103991Y-1933579D02*
X16113515Y-1971674D01*
X16113515Y-1971674D02*
X16113515Y-2019293D01*
X16113515Y-2019293D02*
X16103991Y-2057388D01*
X16103991Y-2057388D02*
X16094468Y-2076436D01*
X16094468Y-2076436D02*
X16084944Y-2085960D01*
X16084944Y-2085960D02*
X16065896Y-2095484D01*
X16065896Y-2095484D02*
X16046848Y-2095484D01*
X16046848Y-2095484D02*
X16027801Y-2085960D01*
X16027801Y-2085960D02*
X16018277Y-2076436D01*
X16018277Y-2076436D02*
X16008753Y-2057388D01*
X16008753Y-2057388D02*
X15999229Y-2019293D01*
X15999229Y-2019293D02*
X15999229Y-1971674D01*
X15999229Y-1971674D02*
X16008753Y-1933579D01*
X16008753Y-1933579D02*
X16018277Y-1914531D01*
X16018277Y-1914531D02*
X16027801Y-1905008D01*
X16027801Y-1905008D02*
X16046848Y-1895484D01*
X16351610Y-2095484D02*
X16351610Y-1895484D01*
X16437325Y-2095484D02*
X16437325Y-1990722D01*
X16437325Y-1990722D02*
X16427801Y-1971674D01*
X16427801Y-1971674D02*
X16408753Y-1962150D01*
X16408753Y-1962150D02*
X16380182Y-1962150D01*
X16380182Y-1962150D02*
X16361134Y-1971674D01*
X16361134Y-1971674D02*
X16351610Y-1981198D01*
X16561134Y-2095484D02*
X16542087Y-2085960D01*
X16542087Y-2085960D02*
X16532563Y-2076436D01*
X16532563Y-2076436D02*
X16523039Y-2057388D01*
X16523039Y-2057388D02*
X16523039Y-2000246D01*
X16523039Y-2000246D02*
X16532563Y-1981198D01*
X16532563Y-1981198D02*
X16542087Y-1971674D01*
X16542087Y-1971674D02*
X16561134Y-1962150D01*
X16561134Y-1962150D02*
X16589706Y-1962150D01*
X16589706Y-1962150D02*
X16608753Y-1971674D01*
X16608753Y-1971674D02*
X16618277Y-1981198D01*
X16618277Y-1981198D02*
X16627801Y-2000246D01*
X16627801Y-2000246D02*
X16627801Y-2057388D01*
X16627801Y-2057388D02*
X16618277Y-2076436D01*
X16618277Y-2076436D02*
X16608753Y-2085960D01*
X16608753Y-2085960D02*
X16589706Y-2095484D01*
X16589706Y-2095484D02*
X16561134Y-2095484D01*
X16742087Y-2095484D02*
X16723039Y-2085960D01*
X16723039Y-2085960D02*
X16713515Y-2066912D01*
X16713515Y-2066912D02*
X16713515Y-1895484D01*
X16894468Y-2085960D02*
X16875420Y-2095484D01*
X16875420Y-2095484D02*
X16837325Y-2095484D01*
X16837325Y-2095484D02*
X16818277Y-2085960D01*
X16818277Y-2085960D02*
X16808753Y-2066912D01*
X16808753Y-2066912D02*
X16808753Y-1990722D01*
X16808753Y-1990722D02*
X16818277Y-1971674D01*
X16818277Y-1971674D02*
X16837325Y-1962150D01*
X16837325Y-1962150D02*
X16875420Y-1962150D01*
X16875420Y-1962150D02*
X16894468Y-1971674D01*
X16894468Y-1971674D02*
X16903992Y-1990722D01*
X16903992Y-1990722D02*
X16903992Y-2009769D01*
X16903992Y-2009769D02*
X16808753Y-2028817D01*
X16980182Y-2085960D02*
X16999230Y-2095484D01*
X16999230Y-2095484D02*
X17037325Y-2095484D01*
X17037325Y-2095484D02*
X17056373Y-2085960D01*
X17056373Y-2085960D02*
X17065896Y-2066912D01*
X17065896Y-2066912D02*
X17065896Y-2057388D01*
X17065896Y-2057388D02*
X17056373Y-2038341D01*
X17056373Y-2038341D02*
X17037325Y-2028817D01*
X17037325Y-2028817D02*
X17008753Y-2028817D01*
X17008753Y-2028817D02*
X16989706Y-2019293D01*
X16989706Y-2019293D02*
X16980182Y-2000246D01*
X16980182Y-2000246D02*
X16980182Y-1990722D01*
X16980182Y-1990722D02*
X16989706Y-1971674D01*
X16989706Y-1971674D02*
X17008753Y-1962150D01*
X17008753Y-1962150D02*
X17037325Y-1962150D01*
X17037325Y-1962150D02*
X17056373Y-1971674D01*
X17303992Y-2019293D02*
X17456373Y-2019293D01*
X17380182Y-2095484D02*
X17380182Y-1943103D01*
X17789706Y-1962150D02*
X17789706Y-2095484D01*
X17742087Y-1885960D02*
X17694468Y-2028817D01*
X17694468Y-2028817D02*
X17818277Y-2028817D01*
X18037325Y-2085960D02*
X18056373Y-2095484D01*
X18056373Y-2095484D02*
X18094468Y-2095484D01*
X18094468Y-2095484D02*
X18113516Y-2085960D01*
X18113516Y-2085960D02*
X18123039Y-2066912D01*
X18123039Y-2066912D02*
X18123039Y-2057388D01*
X18123039Y-2057388D02*
X18113516Y-2038341D01*
X18113516Y-2038341D02*
X18094468Y-2028817D01*
X18094468Y-2028817D02*
X18065896Y-2028817D01*
X18065896Y-2028817D02*
X18046849Y-2019293D01*
X18046849Y-2019293D02*
X18037325Y-2000246D01*
X18037325Y-2000246D02*
X18037325Y-1990722D01*
X18037325Y-1990722D02*
X18046849Y-1971674D01*
X18046849Y-1971674D02*
X18065896Y-1962150D01*
X18065896Y-1962150D02*
X18094468Y-1962150D01*
X18094468Y-1962150D02*
X18113516Y-1971674D01*
X18237325Y-2095484D02*
X18218277Y-2085960D01*
X18218277Y-2085960D02*
X18208754Y-2066912D01*
X18208754Y-2066912D02*
X18208754Y-1895484D01*
X18342087Y-2095484D02*
X18323039Y-2085960D01*
X18323039Y-2085960D02*
X18313516Y-2076436D01*
X18313516Y-2076436D02*
X18303992Y-2057388D01*
X18303992Y-2057388D02*
X18303992Y-2000246D01*
X18303992Y-2000246D02*
X18313516Y-1981198D01*
X18313516Y-1981198D02*
X18323039Y-1971674D01*
X18323039Y-1971674D02*
X18342087Y-1962150D01*
X18342087Y-1962150D02*
X18370658Y-1962150D01*
X18370658Y-1962150D02*
X18389706Y-1971674D01*
X18389706Y-1971674D02*
X18399230Y-1981198D01*
X18399230Y-1981198D02*
X18408754Y-2000246D01*
X18408754Y-2000246D02*
X18408754Y-2057388D01*
X18408754Y-2057388D02*
X18399230Y-2076436D01*
X18399230Y-2076436D02*
X18389706Y-2085960D01*
X18389706Y-2085960D02*
X18370658Y-2095484D01*
X18370658Y-2095484D02*
X18342087Y-2095484D01*
X18465897Y-1962150D02*
X18542087Y-1962150D01*
X18494468Y-1895484D02*
X18494468Y-2066912D01*
X18494468Y-2066912D02*
X18503992Y-2085960D01*
X18503992Y-2085960D02*
X18523039Y-2095484D01*
X18523039Y-2095484D02*
X18542087Y-2095484D01*
X18599230Y-2085960D02*
X18618277Y-2095484D01*
X18618277Y-2095484D02*
X18656373Y-2095484D01*
X18656373Y-2095484D02*
X18675420Y-2085960D01*
X18675420Y-2085960D02*
X18684944Y-2066912D01*
X18684944Y-2066912D02*
X18684944Y-2057388D01*
X18684944Y-2057388D02*
X18675420Y-2038341D01*
X18675420Y-2038341D02*
X18656373Y-2028817D01*
X18656373Y-2028817D02*
X18627801Y-2028817D01*
X18627801Y-2028817D02*
X18608754Y-2019293D01*
X18608754Y-2019293D02*
X18599230Y-2000246D01*
X18599230Y-2000246D02*
X18599230Y-1990722D01*
X18599230Y-1990722D02*
X18608754Y-1971674D01*
X18608754Y-1971674D02*
X18627801Y-1962150D01*
X18627801Y-1962150D02*
X18656373Y-1962150D01*
X18656373Y-1962150D02*
X18675420Y-1971674D01*
X18751611Y-2171674D02*
X18761135Y-2162150D01*
X18761135Y-2162150D02*
X18780182Y-2133579D01*
X18780182Y-2133579D02*
X18789706Y-2114531D01*
X18789706Y-2114531D02*
X18799230Y-2085960D01*
X18799230Y-2085960D02*
X18808754Y-2038341D01*
X18808754Y-2038341D02*
X18808754Y-2000246D01*
X18808754Y-2000246D02*
X18799230Y-1952627D01*
X18799230Y-1952627D02*
X18789706Y-1924055D01*
X18789706Y-1924055D02*
X18780182Y-1905008D01*
X18780182Y-1905008D02*
X18761135Y-1876436D01*
X18761135Y-1876436D02*
X18751611Y-1866912D01*
X12357500Y-2324000D02*
G75*
G03*
X12357500Y-2324000I-100000J0D01*
G01*
X12713515Y-2215484D02*
X12618277Y-2215484D01*
X12618277Y-2215484D02*
X12608753Y-2310722D01*
X12608753Y-2310722D02*
X12618277Y-2301198D01*
X12618277Y-2301198D02*
X12637324Y-2291674D01*
X12637324Y-2291674D02*
X12684943Y-2291674D01*
X12684943Y-2291674D02*
X12703991Y-2301198D01*
X12703991Y-2301198D02*
X12713515Y-2310722D01*
X12713515Y-2310722D02*
X12723039Y-2329770D01*
X12723039Y-2329770D02*
X12723039Y-2377389D01*
X12723039Y-2377389D02*
X12713515Y-2396436D01*
X12713515Y-2396436D02*
X12703991Y-2405960D01*
X12703991Y-2405960D02*
X12684943Y-2415484D01*
X12684943Y-2415484D02*
X12637324Y-2415484D01*
X12637324Y-2415484D02*
X12618277Y-2405960D01*
X12618277Y-2405960D02*
X12608753Y-2396436D01*
X12808753Y-2396436D02*
X12818277Y-2405960D01*
X12818277Y-2405960D02*
X12808753Y-2415484D01*
X12808753Y-2415484D02*
X12799229Y-2405960D01*
X12799229Y-2405960D02*
X12808753Y-2396436D01*
X12808753Y-2396436D02*
X12808753Y-2415484D01*
X12989705Y-2215484D02*
X12951610Y-2215484D01*
X12951610Y-2215484D02*
X12932562Y-2225008D01*
X12932562Y-2225008D02*
X12923039Y-2234531D01*
X12923039Y-2234531D02*
X12903991Y-2263103D01*
X12903991Y-2263103D02*
X12894467Y-2301198D01*
X12894467Y-2301198D02*
X12894467Y-2377389D01*
X12894467Y-2377389D02*
X12903991Y-2396436D01*
X12903991Y-2396436D02*
X12913515Y-2405960D01*
X12913515Y-2405960D02*
X12932562Y-2415484D01*
X12932562Y-2415484D02*
X12970658Y-2415484D01*
X12970658Y-2415484D02*
X12989705Y-2405960D01*
X12989705Y-2405960D02*
X12999229Y-2396436D01*
X12999229Y-2396436D02*
X13008753Y-2377389D01*
X13008753Y-2377389D02*
X13008753Y-2329770D01*
X13008753Y-2329770D02*
X12999229Y-2310722D01*
X12999229Y-2310722D02*
X12989705Y-2301198D01*
X12989705Y-2301198D02*
X12970658Y-2291674D01*
X12970658Y-2291674D02*
X12932562Y-2291674D01*
X12932562Y-2291674D02*
X12913515Y-2301198D01*
X12913515Y-2301198D02*
X12903991Y-2310722D01*
X12903991Y-2310722D02*
X12894467Y-2329770D01*
X13180182Y-2215484D02*
X13142086Y-2215484D01*
X13142086Y-2215484D02*
X13123039Y-2225008D01*
X13123039Y-2225008D02*
X13113515Y-2234531D01*
X13113515Y-2234531D02*
X13094467Y-2263103D01*
X13094467Y-2263103D02*
X13084943Y-2301198D01*
X13084943Y-2301198D02*
X13084943Y-2377389D01*
X13084943Y-2377389D02*
X13094467Y-2396436D01*
X13094467Y-2396436D02*
X13103991Y-2405960D01*
X13103991Y-2405960D02*
X13123039Y-2415484D01*
X13123039Y-2415484D02*
X13161134Y-2415484D01*
X13161134Y-2415484D02*
X13180182Y-2405960D01*
X13180182Y-2405960D02*
X13189705Y-2396436D01*
X13189705Y-2396436D02*
X13199229Y-2377389D01*
X13199229Y-2377389D02*
X13199229Y-2329770D01*
X13199229Y-2329770D02*
X13189705Y-2310722D01*
X13189705Y-2310722D02*
X13180182Y-2301198D01*
X13180182Y-2301198D02*
X13161134Y-2291674D01*
X13161134Y-2291674D02*
X13123039Y-2291674D01*
X13123039Y-2291674D02*
X13103991Y-2301198D01*
X13103991Y-2301198D02*
X13094467Y-2310722D01*
X13094467Y-2310722D02*
X13084943Y-2329770D01*
X13370658Y-2282150D02*
X13370658Y-2415484D01*
X13323039Y-2205960D02*
X13275420Y-2348817D01*
X13275420Y-2348817D02*
X13399229Y-2348817D01*
X13475420Y-2415484D02*
X13475420Y-2282150D01*
X13475420Y-2301198D02*
X13484943Y-2291674D01*
X13484943Y-2291674D02*
X13503991Y-2282150D01*
X13503991Y-2282150D02*
X13532563Y-2282150D01*
X13532563Y-2282150D02*
X13551610Y-2291674D01*
X13551610Y-2291674D02*
X13561134Y-2310722D01*
X13561134Y-2310722D02*
X13561134Y-2415484D01*
X13561134Y-2310722D02*
X13570658Y-2291674D01*
X13570658Y-2291674D02*
X13589705Y-2282150D01*
X13589705Y-2282150D02*
X13618277Y-2282150D01*
X13618277Y-2282150D02*
X13637324Y-2291674D01*
X13637324Y-2291674D02*
X13646848Y-2310722D01*
X13646848Y-2310722D02*
X13646848Y-2415484D01*
X13742086Y-2415484D02*
X13742086Y-2282150D01*
X13742086Y-2301198D02*
X13751610Y-2291674D01*
X13751610Y-2291674D02*
X13770658Y-2282150D01*
X13770658Y-2282150D02*
X13799229Y-2282150D01*
X13799229Y-2282150D02*
X13818277Y-2291674D01*
X13818277Y-2291674D02*
X13827801Y-2310722D01*
X13827801Y-2310722D02*
X13827801Y-2415484D01*
X13827801Y-2310722D02*
X13837324Y-2291674D01*
X13837324Y-2291674D02*
X13856372Y-2282150D01*
X13856372Y-2282150D02*
X13884943Y-2282150D01*
X13884943Y-2282150D02*
X13903991Y-2291674D01*
X13903991Y-2291674D02*
X13913515Y-2310722D01*
X13913515Y-2310722D02*
X13913515Y-2415484D01*
X14303991Y-2205960D02*
X14132563Y-2463103D01*
X14561134Y-2215484D02*
X14580182Y-2215484D01*
X14580182Y-2215484D02*
X14599229Y-2225008D01*
X14599229Y-2225008D02*
X14608753Y-2234531D01*
X14608753Y-2234531D02*
X14618277Y-2253579D01*
X14618277Y-2253579D02*
X14627801Y-2291674D01*
X14627801Y-2291674D02*
X14627801Y-2339293D01*
X14627801Y-2339293D02*
X14618277Y-2377389D01*
X14618277Y-2377389D02*
X14608753Y-2396436D01*
X14608753Y-2396436D02*
X14599229Y-2405960D01*
X14599229Y-2405960D02*
X14580182Y-2415484D01*
X14580182Y-2415484D02*
X14561134Y-2415484D01*
X14561134Y-2415484D02*
X14542086Y-2405960D01*
X14542086Y-2405960D02*
X14532563Y-2396436D01*
X14532563Y-2396436D02*
X14523039Y-2377389D01*
X14523039Y-2377389D02*
X14513515Y-2339293D01*
X14513515Y-2339293D02*
X14513515Y-2291674D01*
X14513515Y-2291674D02*
X14523039Y-2253579D01*
X14523039Y-2253579D02*
X14532563Y-2234531D01*
X14532563Y-2234531D02*
X14542086Y-2225008D01*
X14542086Y-2225008D02*
X14561134Y-2215484D01*
X14713515Y-2396436D02*
X14723039Y-2405960D01*
X14723039Y-2405960D02*
X14713515Y-2415484D01*
X14713515Y-2415484D02*
X14703991Y-2405960D01*
X14703991Y-2405960D02*
X14713515Y-2396436D01*
X14713515Y-2396436D02*
X14713515Y-2415484D01*
X14799229Y-2234531D02*
X14808753Y-2225008D01*
X14808753Y-2225008D02*
X14827801Y-2215484D01*
X14827801Y-2215484D02*
X14875420Y-2215484D01*
X14875420Y-2215484D02*
X14894467Y-2225008D01*
X14894467Y-2225008D02*
X14903991Y-2234531D01*
X14903991Y-2234531D02*
X14913515Y-2253579D01*
X14913515Y-2253579D02*
X14913515Y-2272627D01*
X14913515Y-2272627D02*
X14903991Y-2301198D01*
X14903991Y-2301198D02*
X14789706Y-2415484D01*
X14789706Y-2415484D02*
X14913515Y-2415484D01*
X14989706Y-2234531D02*
X14999229Y-2225008D01*
X14999229Y-2225008D02*
X15018277Y-2215484D01*
X15018277Y-2215484D02*
X15065896Y-2215484D01*
X15065896Y-2215484D02*
X15084944Y-2225008D01*
X15084944Y-2225008D02*
X15094467Y-2234531D01*
X15094467Y-2234531D02*
X15103991Y-2253579D01*
X15103991Y-2253579D02*
X15103991Y-2272627D01*
X15103991Y-2272627D02*
X15094467Y-2301198D01*
X15094467Y-2301198D02*
X14980182Y-2415484D01*
X14980182Y-2415484D02*
X15103991Y-2415484D01*
X15170658Y-2215484D02*
X15294467Y-2215484D01*
X15294467Y-2215484D02*
X15227801Y-2291674D01*
X15227801Y-2291674D02*
X15256372Y-2291674D01*
X15256372Y-2291674D02*
X15275420Y-2301198D01*
X15275420Y-2301198D02*
X15284944Y-2310722D01*
X15284944Y-2310722D02*
X15294467Y-2329770D01*
X15294467Y-2329770D02*
X15294467Y-2377389D01*
X15294467Y-2377389D02*
X15284944Y-2396436D01*
X15284944Y-2396436D02*
X15275420Y-2405960D01*
X15275420Y-2405960D02*
X15256372Y-2415484D01*
X15256372Y-2415484D02*
X15199229Y-2415484D01*
X15199229Y-2415484D02*
X15180182Y-2405960D01*
X15180182Y-2405960D02*
X15170658Y-2396436D01*
X15418277Y-2215484D02*
X15437325Y-2215484D01*
X15437325Y-2215484D02*
X15456372Y-2225008D01*
X15456372Y-2225008D02*
X15465896Y-2234531D01*
X15465896Y-2234531D02*
X15475420Y-2253579D01*
X15475420Y-2253579D02*
X15484944Y-2291674D01*
X15484944Y-2291674D02*
X15484944Y-2339293D01*
X15484944Y-2339293D02*
X15475420Y-2377389D01*
X15475420Y-2377389D02*
X15465896Y-2396436D01*
X15465896Y-2396436D02*
X15456372Y-2405960D01*
X15456372Y-2405960D02*
X15437325Y-2415484D01*
X15437325Y-2415484D02*
X15418277Y-2415484D01*
X15418277Y-2415484D02*
X15399229Y-2405960D01*
X15399229Y-2405960D02*
X15389706Y-2396436D01*
X15389706Y-2396436D02*
X15380182Y-2377389D01*
X15380182Y-2377389D02*
X15370658Y-2339293D01*
X15370658Y-2339293D02*
X15370658Y-2291674D01*
X15370658Y-2291674D02*
X15380182Y-2253579D01*
X15380182Y-2253579D02*
X15389706Y-2234531D01*
X15389706Y-2234531D02*
X15399229Y-2225008D01*
X15399229Y-2225008D02*
X15418277Y-2215484D01*
X15561134Y-2215484D02*
X15561134Y-2253579D01*
X15637325Y-2215484D02*
X15637325Y-2253579D01*
X15932563Y-2491674D02*
X15923039Y-2482150D01*
X15923039Y-2482150D02*
X15903991Y-2453579D01*
X15903991Y-2453579D02*
X15894468Y-2434531D01*
X15894468Y-2434531D02*
X15884944Y-2405960D01*
X15884944Y-2405960D02*
X15875420Y-2358341D01*
X15875420Y-2358341D02*
X15875420Y-2320246D01*
X15875420Y-2320246D02*
X15884944Y-2272627D01*
X15884944Y-2272627D02*
X15894468Y-2244055D01*
X15894468Y-2244055D02*
X15903991Y-2225008D01*
X15903991Y-2225008D02*
X15923039Y-2196436D01*
X15923039Y-2196436D02*
X15932563Y-2186912D01*
X15999229Y-2234531D02*
X16008753Y-2225008D01*
X16008753Y-2225008D02*
X16027801Y-2215484D01*
X16027801Y-2215484D02*
X16075420Y-2215484D01*
X16075420Y-2215484D02*
X16094468Y-2225008D01*
X16094468Y-2225008D02*
X16103991Y-2234531D01*
X16103991Y-2234531D02*
X16113515Y-2253579D01*
X16113515Y-2253579D02*
X16113515Y-2272627D01*
X16113515Y-2272627D02*
X16103991Y-2301198D01*
X16103991Y-2301198D02*
X15989706Y-2415484D01*
X15989706Y-2415484D02*
X16113515Y-2415484D01*
X16351610Y-2415484D02*
X16351610Y-2215484D01*
X16437325Y-2415484D02*
X16437325Y-2310722D01*
X16437325Y-2310722D02*
X16427801Y-2291674D01*
X16427801Y-2291674D02*
X16408753Y-2282150D01*
X16408753Y-2282150D02*
X16380182Y-2282150D01*
X16380182Y-2282150D02*
X16361134Y-2291674D01*
X16361134Y-2291674D02*
X16351610Y-2301198D01*
X16561134Y-2415484D02*
X16542087Y-2405960D01*
X16542087Y-2405960D02*
X16532563Y-2396436D01*
X16532563Y-2396436D02*
X16523039Y-2377389D01*
X16523039Y-2377389D02*
X16523039Y-2320246D01*
X16523039Y-2320246D02*
X16532563Y-2301198D01*
X16532563Y-2301198D02*
X16542087Y-2291674D01*
X16542087Y-2291674D02*
X16561134Y-2282150D01*
X16561134Y-2282150D02*
X16589706Y-2282150D01*
X16589706Y-2282150D02*
X16608753Y-2291674D01*
X16608753Y-2291674D02*
X16618277Y-2301198D01*
X16618277Y-2301198D02*
X16627801Y-2320246D01*
X16627801Y-2320246D02*
X16627801Y-2377389D01*
X16627801Y-2377389D02*
X16618277Y-2396436D01*
X16618277Y-2396436D02*
X16608753Y-2405960D01*
X16608753Y-2405960D02*
X16589706Y-2415484D01*
X16589706Y-2415484D02*
X16561134Y-2415484D01*
X16742087Y-2415484D02*
X16723039Y-2405960D01*
X16723039Y-2405960D02*
X16713515Y-2386912D01*
X16713515Y-2386912D02*
X16713515Y-2215484D01*
X16894468Y-2405960D02*
X16875420Y-2415484D01*
X16875420Y-2415484D02*
X16837325Y-2415484D01*
X16837325Y-2415484D02*
X16818277Y-2405960D01*
X16818277Y-2405960D02*
X16808753Y-2386912D01*
X16808753Y-2386912D02*
X16808753Y-2310722D01*
X16808753Y-2310722D02*
X16818277Y-2291674D01*
X16818277Y-2291674D02*
X16837325Y-2282150D01*
X16837325Y-2282150D02*
X16875420Y-2282150D01*
X16875420Y-2282150D02*
X16894468Y-2291674D01*
X16894468Y-2291674D02*
X16903992Y-2310722D01*
X16903992Y-2310722D02*
X16903992Y-2329770D01*
X16903992Y-2329770D02*
X16808753Y-2348817D01*
X16980182Y-2405960D02*
X16999230Y-2415484D01*
X16999230Y-2415484D02*
X17037325Y-2415484D01*
X17037325Y-2415484D02*
X17056373Y-2405960D01*
X17056373Y-2405960D02*
X17065896Y-2386912D01*
X17065896Y-2386912D02*
X17065896Y-2377389D01*
X17065896Y-2377389D02*
X17056373Y-2358341D01*
X17056373Y-2358341D02*
X17037325Y-2348817D01*
X17037325Y-2348817D02*
X17008753Y-2348817D01*
X17008753Y-2348817D02*
X16989706Y-2339293D01*
X16989706Y-2339293D02*
X16980182Y-2320246D01*
X16980182Y-2320246D02*
X16980182Y-2310722D01*
X16980182Y-2310722D02*
X16989706Y-2291674D01*
X16989706Y-2291674D02*
X17008753Y-2282150D01*
X17008753Y-2282150D02*
X17037325Y-2282150D01*
X17037325Y-2282150D02*
X17056373Y-2291674D01*
X17132563Y-2491674D02*
X17142087Y-2482150D01*
X17142087Y-2482150D02*
X17161134Y-2453579D01*
X17161134Y-2453579D02*
X17170658Y-2434531D01*
X17170658Y-2434531D02*
X17180182Y-2405960D01*
X17180182Y-2405960D02*
X17189706Y-2358341D01*
X17189706Y-2358341D02*
X17189706Y-2320246D01*
X17189706Y-2320246D02*
X17180182Y-2272627D01*
X17180182Y-2272627D02*
X17170658Y-2244055D01*
X17170658Y-2244055D02*
X17161134Y-2225008D01*
X17161134Y-2225008D02*
X17142087Y-2196436D01*
X17142087Y-2196436D02*
X17132563Y-2186912D01*
X12257500Y-2544000D02*
X12257500Y-2744000D01*
X12157500Y-2644000D02*
X12357500Y-2644000D01*
X12703991Y-2535484D02*
X12665896Y-2535484D01*
X12665896Y-2535484D02*
X12646848Y-2545008D01*
X12646848Y-2545008D02*
X12637324Y-2554531D01*
X12637324Y-2554531D02*
X12618277Y-2583103D01*
X12618277Y-2583103D02*
X12608753Y-2621198D01*
X12608753Y-2621198D02*
X12608753Y-2697389D01*
X12608753Y-2697389D02*
X12618277Y-2716436D01*
X12618277Y-2716436D02*
X12627801Y-2725960D01*
X12627801Y-2725960D02*
X12646848Y-2735484D01*
X12646848Y-2735484D02*
X12684943Y-2735484D01*
X12684943Y-2735484D02*
X12703991Y-2725960D01*
X12703991Y-2725960D02*
X12713515Y-2716436D01*
X12713515Y-2716436D02*
X12723039Y-2697389D01*
X12723039Y-2697389D02*
X12723039Y-2649770D01*
X12723039Y-2649770D02*
X12713515Y-2630722D01*
X12713515Y-2630722D02*
X12703991Y-2621198D01*
X12703991Y-2621198D02*
X12684943Y-2611674D01*
X12684943Y-2611674D02*
X12646848Y-2611674D01*
X12646848Y-2611674D02*
X12627801Y-2621198D01*
X12627801Y-2621198D02*
X12618277Y-2630722D01*
X12618277Y-2630722D02*
X12608753Y-2649770D01*
X12808753Y-2716436D02*
X12818277Y-2725960D01*
X12818277Y-2725960D02*
X12808753Y-2735484D01*
X12808753Y-2735484D02*
X12799229Y-2725960D01*
X12799229Y-2725960D02*
X12808753Y-2716436D01*
X12808753Y-2716436D02*
X12808753Y-2735484D01*
X12989705Y-2535484D02*
X12951610Y-2535484D01*
X12951610Y-2535484D02*
X12932562Y-2545008D01*
X12932562Y-2545008D02*
X12923039Y-2554531D01*
X12923039Y-2554531D02*
X12903991Y-2583103D01*
X12903991Y-2583103D02*
X12894467Y-2621198D01*
X12894467Y-2621198D02*
X12894467Y-2697389D01*
X12894467Y-2697389D02*
X12903991Y-2716436D01*
X12903991Y-2716436D02*
X12913515Y-2725960D01*
X12913515Y-2725960D02*
X12932562Y-2735484D01*
X12932562Y-2735484D02*
X12970658Y-2735484D01*
X12970658Y-2735484D02*
X12989705Y-2725960D01*
X12989705Y-2725960D02*
X12999229Y-2716436D01*
X12999229Y-2716436D02*
X13008753Y-2697389D01*
X13008753Y-2697389D02*
X13008753Y-2649770D01*
X13008753Y-2649770D02*
X12999229Y-2630722D01*
X12999229Y-2630722D02*
X12989705Y-2621198D01*
X12989705Y-2621198D02*
X12970658Y-2611674D01*
X12970658Y-2611674D02*
X12932562Y-2611674D01*
X12932562Y-2611674D02*
X12913515Y-2621198D01*
X12913515Y-2621198D02*
X12903991Y-2630722D01*
X12903991Y-2630722D02*
X12894467Y-2649770D01*
X13132562Y-2535484D02*
X13151610Y-2535484D01*
X13151610Y-2535484D02*
X13170658Y-2545008D01*
X13170658Y-2545008D02*
X13180182Y-2554531D01*
X13180182Y-2554531D02*
X13189705Y-2573579D01*
X13189705Y-2573579D02*
X13199229Y-2611674D01*
X13199229Y-2611674D02*
X13199229Y-2659293D01*
X13199229Y-2659293D02*
X13189705Y-2697389D01*
X13189705Y-2697389D02*
X13180182Y-2716436D01*
X13180182Y-2716436D02*
X13170658Y-2725960D01*
X13170658Y-2725960D02*
X13151610Y-2735484D01*
X13151610Y-2735484D02*
X13132562Y-2735484D01*
X13132562Y-2735484D02*
X13113515Y-2725960D01*
X13113515Y-2725960D02*
X13103991Y-2716436D01*
X13103991Y-2716436D02*
X13094467Y-2697389D01*
X13094467Y-2697389D02*
X13084943Y-2659293D01*
X13084943Y-2659293D02*
X13084943Y-2611674D01*
X13084943Y-2611674D02*
X13094467Y-2573579D01*
X13094467Y-2573579D02*
X13103991Y-2554531D01*
X13103991Y-2554531D02*
X13113515Y-2545008D01*
X13113515Y-2545008D02*
X13132562Y-2535484D01*
X13370658Y-2602150D02*
X13370658Y-2735484D01*
X13323039Y-2525960D02*
X13275420Y-2668817D01*
X13275420Y-2668817D02*
X13399229Y-2668817D01*
X13475420Y-2735484D02*
X13475420Y-2602150D01*
X13475420Y-2621198D02*
X13484943Y-2611674D01*
X13484943Y-2611674D02*
X13503991Y-2602150D01*
X13503991Y-2602150D02*
X13532563Y-2602150D01*
X13532563Y-2602150D02*
X13551610Y-2611674D01*
X13551610Y-2611674D02*
X13561134Y-2630722D01*
X13561134Y-2630722D02*
X13561134Y-2735484D01*
X13561134Y-2630722D02*
X13570658Y-2611674D01*
X13570658Y-2611674D02*
X13589705Y-2602150D01*
X13589705Y-2602150D02*
X13618277Y-2602150D01*
X13618277Y-2602150D02*
X13637324Y-2611674D01*
X13637324Y-2611674D02*
X13646848Y-2630722D01*
X13646848Y-2630722D02*
X13646848Y-2735484D01*
X13742086Y-2735484D02*
X13742086Y-2602150D01*
X13742086Y-2621198D02*
X13751610Y-2611674D01*
X13751610Y-2611674D02*
X13770658Y-2602150D01*
X13770658Y-2602150D02*
X13799229Y-2602150D01*
X13799229Y-2602150D02*
X13818277Y-2611674D01*
X13818277Y-2611674D02*
X13827801Y-2630722D01*
X13827801Y-2630722D02*
X13827801Y-2735484D01*
X13827801Y-2630722D02*
X13837324Y-2611674D01*
X13837324Y-2611674D02*
X13856372Y-2602150D01*
X13856372Y-2602150D02*
X13884943Y-2602150D01*
X13884943Y-2602150D02*
X13903991Y-2611674D01*
X13903991Y-2611674D02*
X13913515Y-2630722D01*
X13913515Y-2630722D02*
X13913515Y-2735484D01*
X14303991Y-2525960D02*
X14132563Y-2783103D01*
X14561134Y-2535484D02*
X14580182Y-2535484D01*
X14580182Y-2535484D02*
X14599229Y-2545008D01*
X14599229Y-2545008D02*
X14608753Y-2554531D01*
X14608753Y-2554531D02*
X14618277Y-2573579D01*
X14618277Y-2573579D02*
X14627801Y-2611674D01*
X14627801Y-2611674D02*
X14627801Y-2659293D01*
X14627801Y-2659293D02*
X14618277Y-2697389D01*
X14618277Y-2697389D02*
X14608753Y-2716436D01*
X14608753Y-2716436D02*
X14599229Y-2725960D01*
X14599229Y-2725960D02*
X14580182Y-2735484D01*
X14580182Y-2735484D02*
X14561134Y-2735484D01*
X14561134Y-2735484D02*
X14542086Y-2725960D01*
X14542086Y-2725960D02*
X14532563Y-2716436D01*
X14532563Y-2716436D02*
X14523039Y-2697389D01*
X14523039Y-2697389D02*
X14513515Y-2659293D01*
X14513515Y-2659293D02*
X14513515Y-2611674D01*
X14513515Y-2611674D02*
X14523039Y-2573579D01*
X14523039Y-2573579D02*
X14532563Y-2554531D01*
X14532563Y-2554531D02*
X14542086Y-2545008D01*
X14542086Y-2545008D02*
X14561134Y-2535484D01*
X14713515Y-2716436D02*
X14723039Y-2725960D01*
X14723039Y-2725960D02*
X14713515Y-2735484D01*
X14713515Y-2735484D02*
X14703991Y-2725960D01*
X14703991Y-2725960D02*
X14713515Y-2716436D01*
X14713515Y-2716436D02*
X14713515Y-2735484D01*
X14799229Y-2554531D02*
X14808753Y-2545008D01*
X14808753Y-2545008D02*
X14827801Y-2535484D01*
X14827801Y-2535484D02*
X14875420Y-2535484D01*
X14875420Y-2535484D02*
X14894467Y-2545008D01*
X14894467Y-2545008D02*
X14903991Y-2554531D01*
X14903991Y-2554531D02*
X14913515Y-2573579D01*
X14913515Y-2573579D02*
X14913515Y-2592627D01*
X14913515Y-2592627D02*
X14903991Y-2621198D01*
X14903991Y-2621198D02*
X14789706Y-2735484D01*
X14789706Y-2735484D02*
X14913515Y-2735484D01*
X15084944Y-2535484D02*
X15046848Y-2535484D01*
X15046848Y-2535484D02*
X15027801Y-2545008D01*
X15027801Y-2545008D02*
X15018277Y-2554531D01*
X15018277Y-2554531D02*
X14999229Y-2583103D01*
X14999229Y-2583103D02*
X14989706Y-2621198D01*
X14989706Y-2621198D02*
X14989706Y-2697389D01*
X14989706Y-2697389D02*
X14999229Y-2716436D01*
X14999229Y-2716436D02*
X15008753Y-2725960D01*
X15008753Y-2725960D02*
X15027801Y-2735484D01*
X15027801Y-2735484D02*
X15065896Y-2735484D01*
X15065896Y-2735484D02*
X15084944Y-2725960D01*
X15084944Y-2725960D02*
X15094467Y-2716436D01*
X15094467Y-2716436D02*
X15103991Y-2697389D01*
X15103991Y-2697389D02*
X15103991Y-2649770D01*
X15103991Y-2649770D02*
X15094467Y-2630722D01*
X15094467Y-2630722D02*
X15084944Y-2621198D01*
X15084944Y-2621198D02*
X15065896Y-2611674D01*
X15065896Y-2611674D02*
X15027801Y-2611674D01*
X15027801Y-2611674D02*
X15008753Y-2621198D01*
X15008753Y-2621198D02*
X14999229Y-2630722D01*
X14999229Y-2630722D02*
X14989706Y-2649770D01*
X15227801Y-2535484D02*
X15246848Y-2535484D01*
X15246848Y-2535484D02*
X15265896Y-2545008D01*
X15265896Y-2545008D02*
X15275420Y-2554531D01*
X15275420Y-2554531D02*
X15284944Y-2573579D01*
X15284944Y-2573579D02*
X15294467Y-2611674D01*
X15294467Y-2611674D02*
X15294467Y-2659293D01*
X15294467Y-2659293D02*
X15284944Y-2697389D01*
X15284944Y-2697389D02*
X15275420Y-2716436D01*
X15275420Y-2716436D02*
X15265896Y-2725960D01*
X15265896Y-2725960D02*
X15246848Y-2735484D01*
X15246848Y-2735484D02*
X15227801Y-2735484D01*
X15227801Y-2735484D02*
X15208753Y-2725960D01*
X15208753Y-2725960D02*
X15199229Y-2716436D01*
X15199229Y-2716436D02*
X15189706Y-2697389D01*
X15189706Y-2697389D02*
X15180182Y-2659293D01*
X15180182Y-2659293D02*
X15180182Y-2611674D01*
X15180182Y-2611674D02*
X15189706Y-2573579D01*
X15189706Y-2573579D02*
X15199229Y-2554531D01*
X15199229Y-2554531D02*
X15208753Y-2545008D01*
X15208753Y-2545008D02*
X15227801Y-2535484D01*
X15418277Y-2535484D02*
X15437325Y-2535484D01*
X15437325Y-2535484D02*
X15456372Y-2545008D01*
X15456372Y-2545008D02*
X15465896Y-2554531D01*
X15465896Y-2554531D02*
X15475420Y-2573579D01*
X15475420Y-2573579D02*
X15484944Y-2611674D01*
X15484944Y-2611674D02*
X15484944Y-2659293D01*
X15484944Y-2659293D02*
X15475420Y-2697389D01*
X15475420Y-2697389D02*
X15465896Y-2716436D01*
X15465896Y-2716436D02*
X15456372Y-2725960D01*
X15456372Y-2725960D02*
X15437325Y-2735484D01*
X15437325Y-2735484D02*
X15418277Y-2735484D01*
X15418277Y-2735484D02*
X15399229Y-2725960D01*
X15399229Y-2725960D02*
X15389706Y-2716436D01*
X15389706Y-2716436D02*
X15380182Y-2697389D01*
X15380182Y-2697389D02*
X15370658Y-2659293D01*
X15370658Y-2659293D02*
X15370658Y-2611674D01*
X15370658Y-2611674D02*
X15380182Y-2573579D01*
X15380182Y-2573579D02*
X15389706Y-2554531D01*
X15389706Y-2554531D02*
X15399229Y-2545008D01*
X15399229Y-2545008D02*
X15418277Y-2535484D01*
X15561134Y-2535484D02*
X15561134Y-2573579D01*
X15637325Y-2535484D02*
X15637325Y-2573579D01*
X15932563Y-2811674D02*
X15923039Y-2802150D01*
X15923039Y-2802150D02*
X15903991Y-2773579D01*
X15903991Y-2773579D02*
X15894468Y-2754531D01*
X15894468Y-2754531D02*
X15884944Y-2725960D01*
X15884944Y-2725960D02*
X15875420Y-2678341D01*
X15875420Y-2678341D02*
X15875420Y-2640246D01*
X15875420Y-2640246D02*
X15884944Y-2592627D01*
X15884944Y-2592627D02*
X15894468Y-2564055D01*
X15894468Y-2564055D02*
X15903991Y-2545008D01*
X15903991Y-2545008D02*
X15923039Y-2516436D01*
X15923039Y-2516436D02*
X15932563Y-2506912D01*
X16113515Y-2735484D02*
X15999229Y-2735484D01*
X16056372Y-2735484D02*
X16056372Y-2535484D01*
X16056372Y-2535484D02*
X16037325Y-2564055D01*
X16037325Y-2564055D02*
X16018277Y-2583103D01*
X16018277Y-2583103D02*
X15999229Y-2592627D01*
X16189706Y-2554531D02*
X16199229Y-2545008D01*
X16199229Y-2545008D02*
X16218277Y-2535484D01*
X16218277Y-2535484D02*
X16265896Y-2535484D01*
X16265896Y-2535484D02*
X16284944Y-2545008D01*
X16284944Y-2545008D02*
X16294468Y-2554531D01*
X16294468Y-2554531D02*
X16303991Y-2573579D01*
X16303991Y-2573579D02*
X16303991Y-2592627D01*
X16303991Y-2592627D02*
X16294468Y-2621198D01*
X16294468Y-2621198D02*
X16180182Y-2735484D01*
X16180182Y-2735484D02*
X16303991Y-2735484D01*
X16542087Y-2735484D02*
X16542087Y-2535484D01*
X16627801Y-2735484D02*
X16627801Y-2630722D01*
X16627801Y-2630722D02*
X16618277Y-2611674D01*
X16618277Y-2611674D02*
X16599230Y-2602150D01*
X16599230Y-2602150D02*
X16570658Y-2602150D01*
X16570658Y-2602150D02*
X16551610Y-2611674D01*
X16551610Y-2611674D02*
X16542087Y-2621198D01*
X16751610Y-2735484D02*
X16732563Y-2725960D01*
X16732563Y-2725960D02*
X16723039Y-2716436D01*
X16723039Y-2716436D02*
X16713515Y-2697389D01*
X16713515Y-2697389D02*
X16713515Y-2640246D01*
X16713515Y-2640246D02*
X16723039Y-2621198D01*
X16723039Y-2621198D02*
X16732563Y-2611674D01*
X16732563Y-2611674D02*
X16751610Y-2602150D01*
X16751610Y-2602150D02*
X16780182Y-2602150D01*
X16780182Y-2602150D02*
X16799230Y-2611674D01*
X16799230Y-2611674D02*
X16808753Y-2621198D01*
X16808753Y-2621198D02*
X16818277Y-2640246D01*
X16818277Y-2640246D02*
X16818277Y-2697389D01*
X16818277Y-2697389D02*
X16808753Y-2716436D01*
X16808753Y-2716436D02*
X16799230Y-2725960D01*
X16799230Y-2725960D02*
X16780182Y-2735484D01*
X16780182Y-2735484D02*
X16751610Y-2735484D01*
X16932563Y-2735484D02*
X16913515Y-2725960D01*
X16913515Y-2725960D02*
X16903992Y-2706912D01*
X16903992Y-2706912D02*
X16903992Y-2535484D01*
X17084944Y-2725960D02*
X17065896Y-2735484D01*
X17065896Y-2735484D02*
X17027801Y-2735484D01*
X17027801Y-2735484D02*
X17008753Y-2725960D01*
X17008753Y-2725960D02*
X16999230Y-2706912D01*
X16999230Y-2706912D02*
X16999230Y-2630722D01*
X16999230Y-2630722D02*
X17008753Y-2611674D01*
X17008753Y-2611674D02*
X17027801Y-2602150D01*
X17027801Y-2602150D02*
X17065896Y-2602150D01*
X17065896Y-2602150D02*
X17084944Y-2611674D01*
X17084944Y-2611674D02*
X17094468Y-2630722D01*
X17094468Y-2630722D02*
X17094468Y-2649770D01*
X17094468Y-2649770D02*
X16999230Y-2668817D01*
X17170658Y-2725960D02*
X17189706Y-2735484D01*
X17189706Y-2735484D02*
X17227801Y-2735484D01*
X17227801Y-2735484D02*
X17246849Y-2725960D01*
X17246849Y-2725960D02*
X17256373Y-2706912D01*
X17256373Y-2706912D02*
X17256373Y-2697389D01*
X17256373Y-2697389D02*
X17246849Y-2678341D01*
X17246849Y-2678341D02*
X17227801Y-2668817D01*
X17227801Y-2668817D02*
X17199230Y-2668817D01*
X17199230Y-2668817D02*
X17180182Y-2659293D01*
X17180182Y-2659293D02*
X17170658Y-2640246D01*
X17170658Y-2640246D02*
X17170658Y-2630722D01*
X17170658Y-2630722D02*
X17180182Y-2611674D01*
X17180182Y-2611674D02*
X17199230Y-2602150D01*
X17199230Y-2602150D02*
X17227801Y-2602150D01*
X17227801Y-2602150D02*
X17246849Y-2611674D01*
X17323039Y-2811674D02*
X17332563Y-2802150D01*
X17332563Y-2802150D02*
X17351611Y-2773579D01*
X17351611Y-2773579D02*
X17361134Y-2754531D01*
X17361134Y-2754531D02*
X17370658Y-2725960D01*
X17370658Y-2725960D02*
X17380182Y-2678341D01*
X17380182Y-2678341D02*
X17380182Y-2640246D01*
X17380182Y-2640246D02*
X17370658Y-2592627D01*
X17370658Y-2592627D02*
X17361134Y-2564055D01*
X17361134Y-2564055D02*
X17351611Y-2545008D01*
X17351611Y-2545008D02*
X17332563Y-2516436D01*
X17332563Y-2516436D02*
X17323039Y-2506912D01*
X12328211Y-3034711D02*
X12328211Y-2893289D01*
X12186789Y-2893289D01*
X12186789Y-3034711D01*
X12328211Y-3034711D01*
X12599229Y-2855484D02*
X12732562Y-2855484D01*
X12732562Y-2855484D02*
X12646848Y-3055484D01*
X12808753Y-3036436D02*
X12818277Y-3045960D01*
X12818277Y-3045960D02*
X12808753Y-3055484D01*
X12808753Y-3055484D02*
X12799229Y-3045960D01*
X12799229Y-3045960D02*
X12808753Y-3036436D01*
X12808753Y-3036436D02*
X12808753Y-3055484D01*
X13008753Y-3055484D02*
X12894467Y-3055484D01*
X12951610Y-3055484D02*
X12951610Y-2855484D01*
X12951610Y-2855484D02*
X12932562Y-2884055D01*
X12932562Y-2884055D02*
X12913515Y-2903103D01*
X12913515Y-2903103D02*
X12894467Y-2912627D01*
X13199229Y-3055484D02*
X13084943Y-3055484D01*
X13142086Y-3055484D02*
X13142086Y-2855484D01*
X13142086Y-2855484D02*
X13123039Y-2884055D01*
X13123039Y-2884055D02*
X13103991Y-2903103D01*
X13103991Y-2903103D02*
X13084943Y-2912627D01*
X13275420Y-2874531D02*
X13284943Y-2865008D01*
X13284943Y-2865008D02*
X13303991Y-2855484D01*
X13303991Y-2855484D02*
X13351610Y-2855484D01*
X13351610Y-2855484D02*
X13370658Y-2865008D01*
X13370658Y-2865008D02*
X13380182Y-2874531D01*
X13380182Y-2874531D02*
X13389705Y-2893579D01*
X13389705Y-2893579D02*
X13389705Y-2912627D01*
X13389705Y-2912627D02*
X13380182Y-2941198D01*
X13380182Y-2941198D02*
X13265896Y-3055484D01*
X13265896Y-3055484D02*
X13389705Y-3055484D01*
X13475420Y-3055484D02*
X13475420Y-2922150D01*
X13475420Y-2941198D02*
X13484943Y-2931674D01*
X13484943Y-2931674D02*
X13503991Y-2922150D01*
X13503991Y-2922150D02*
X13532563Y-2922150D01*
X13532563Y-2922150D02*
X13551610Y-2931674D01*
X13551610Y-2931674D02*
X13561134Y-2950722D01*
X13561134Y-2950722D02*
X13561134Y-3055484D01*
X13561134Y-2950722D02*
X13570658Y-2931674D01*
X13570658Y-2931674D02*
X13589705Y-2922150D01*
X13589705Y-2922150D02*
X13618277Y-2922150D01*
X13618277Y-2922150D02*
X13637324Y-2931674D01*
X13637324Y-2931674D02*
X13646848Y-2950722D01*
X13646848Y-2950722D02*
X13646848Y-3055484D01*
X13742086Y-3055484D02*
X13742086Y-2922150D01*
X13742086Y-2941198D02*
X13751610Y-2931674D01*
X13751610Y-2931674D02*
X13770658Y-2922150D01*
X13770658Y-2922150D02*
X13799229Y-2922150D01*
X13799229Y-2922150D02*
X13818277Y-2931674D01*
X13818277Y-2931674D02*
X13827801Y-2950722D01*
X13827801Y-2950722D02*
X13827801Y-3055484D01*
X13827801Y-2950722D02*
X13837324Y-2931674D01*
X13837324Y-2931674D02*
X13856372Y-2922150D01*
X13856372Y-2922150D02*
X13884943Y-2922150D01*
X13884943Y-2922150D02*
X13903991Y-2931674D01*
X13903991Y-2931674D02*
X13913515Y-2950722D01*
X13913515Y-2950722D02*
X13913515Y-3055484D01*
X14303991Y-2845960D02*
X14132563Y-3103103D01*
X14561134Y-2855484D02*
X14580182Y-2855484D01*
X14580182Y-2855484D02*
X14599229Y-2865008D01*
X14599229Y-2865008D02*
X14608753Y-2874531D01*
X14608753Y-2874531D02*
X14618277Y-2893579D01*
X14618277Y-2893579D02*
X14627801Y-2931674D01*
X14627801Y-2931674D02*
X14627801Y-2979293D01*
X14627801Y-2979293D02*
X14618277Y-3017388D01*
X14618277Y-3017388D02*
X14608753Y-3036436D01*
X14608753Y-3036436D02*
X14599229Y-3045960D01*
X14599229Y-3045960D02*
X14580182Y-3055484D01*
X14580182Y-3055484D02*
X14561134Y-3055484D01*
X14561134Y-3055484D02*
X14542086Y-3045960D01*
X14542086Y-3045960D02*
X14532563Y-3036436D01*
X14532563Y-3036436D02*
X14523039Y-3017388D01*
X14523039Y-3017388D02*
X14513515Y-2979293D01*
X14513515Y-2979293D02*
X14513515Y-2931674D01*
X14513515Y-2931674D02*
X14523039Y-2893579D01*
X14523039Y-2893579D02*
X14532563Y-2874531D01*
X14532563Y-2874531D02*
X14542086Y-2865008D01*
X14542086Y-2865008D02*
X14561134Y-2855484D01*
X14713515Y-3036436D02*
X14723039Y-3045960D01*
X14723039Y-3045960D02*
X14713515Y-3055484D01*
X14713515Y-3055484D02*
X14703991Y-3045960D01*
X14703991Y-3045960D02*
X14713515Y-3036436D01*
X14713515Y-3036436D02*
X14713515Y-3055484D01*
X14799229Y-2874531D02*
X14808753Y-2865008D01*
X14808753Y-2865008D02*
X14827801Y-2855484D01*
X14827801Y-2855484D02*
X14875420Y-2855484D01*
X14875420Y-2855484D02*
X14894467Y-2865008D01*
X14894467Y-2865008D02*
X14903991Y-2874531D01*
X14903991Y-2874531D02*
X14913515Y-2893579D01*
X14913515Y-2893579D02*
X14913515Y-2912627D01*
X14913515Y-2912627D02*
X14903991Y-2941198D01*
X14903991Y-2941198D02*
X14789706Y-3055484D01*
X14789706Y-3055484D02*
X14913515Y-3055484D01*
X15027801Y-2941198D02*
X15008753Y-2931674D01*
X15008753Y-2931674D02*
X14999229Y-2922150D01*
X14999229Y-2922150D02*
X14989706Y-2903103D01*
X14989706Y-2903103D02*
X14989706Y-2893579D01*
X14989706Y-2893579D02*
X14999229Y-2874531D01*
X14999229Y-2874531D02*
X15008753Y-2865008D01*
X15008753Y-2865008D02*
X15027801Y-2855484D01*
X15027801Y-2855484D02*
X15065896Y-2855484D01*
X15065896Y-2855484D02*
X15084944Y-2865008D01*
X15084944Y-2865008D02*
X15094467Y-2874531D01*
X15094467Y-2874531D02*
X15103991Y-2893579D01*
X15103991Y-2893579D02*
X15103991Y-2903103D01*
X15103991Y-2903103D02*
X15094467Y-2922150D01*
X15094467Y-2922150D02*
X15084944Y-2931674D01*
X15084944Y-2931674D02*
X15065896Y-2941198D01*
X15065896Y-2941198D02*
X15027801Y-2941198D01*
X15027801Y-2941198D02*
X15008753Y-2950722D01*
X15008753Y-2950722D02*
X14999229Y-2960246D01*
X14999229Y-2960246D02*
X14989706Y-2979293D01*
X14989706Y-2979293D02*
X14989706Y-3017388D01*
X14989706Y-3017388D02*
X14999229Y-3036436D01*
X14999229Y-3036436D02*
X15008753Y-3045960D01*
X15008753Y-3045960D02*
X15027801Y-3055484D01*
X15027801Y-3055484D02*
X15065896Y-3055484D01*
X15065896Y-3055484D02*
X15084944Y-3045960D01*
X15084944Y-3045960D02*
X15094467Y-3036436D01*
X15094467Y-3036436D02*
X15103991Y-3017388D01*
X15103991Y-3017388D02*
X15103991Y-2979293D01*
X15103991Y-2979293D02*
X15094467Y-2960246D01*
X15094467Y-2960246D02*
X15084944Y-2950722D01*
X15084944Y-2950722D02*
X15065896Y-2941198D01*
X15227801Y-2855484D02*
X15246848Y-2855484D01*
X15246848Y-2855484D02*
X15265896Y-2865008D01*
X15265896Y-2865008D02*
X15275420Y-2874531D01*
X15275420Y-2874531D02*
X15284944Y-2893579D01*
X15284944Y-2893579D02*
X15294467Y-2931674D01*
X15294467Y-2931674D02*
X15294467Y-2979293D01*
X15294467Y-2979293D02*
X15284944Y-3017388D01*
X15284944Y-3017388D02*
X15275420Y-3036436D01*
X15275420Y-3036436D02*
X15265896Y-3045960D01*
X15265896Y-3045960D02*
X15246848Y-3055484D01*
X15246848Y-3055484D02*
X15227801Y-3055484D01*
X15227801Y-3055484D02*
X15208753Y-3045960D01*
X15208753Y-3045960D02*
X15199229Y-3036436D01*
X15199229Y-3036436D02*
X15189706Y-3017388D01*
X15189706Y-3017388D02*
X15180182Y-2979293D01*
X15180182Y-2979293D02*
X15180182Y-2931674D01*
X15180182Y-2931674D02*
X15189706Y-2893579D01*
X15189706Y-2893579D02*
X15199229Y-2874531D01*
X15199229Y-2874531D02*
X15208753Y-2865008D01*
X15208753Y-2865008D02*
X15227801Y-2855484D01*
X15418277Y-2855484D02*
X15437325Y-2855484D01*
X15437325Y-2855484D02*
X15456372Y-2865008D01*
X15456372Y-2865008D02*
X15465896Y-2874531D01*
X15465896Y-2874531D02*
X15475420Y-2893579D01*
X15475420Y-2893579D02*
X15484944Y-2931674D01*
X15484944Y-2931674D02*
X15484944Y-2979293D01*
X15484944Y-2979293D02*
X15475420Y-3017388D01*
X15475420Y-3017388D02*
X15465896Y-3036436D01*
X15465896Y-3036436D02*
X15456372Y-3045960D01*
X15456372Y-3045960D02*
X15437325Y-3055484D01*
X15437325Y-3055484D02*
X15418277Y-3055484D01*
X15418277Y-3055484D02*
X15399229Y-3045960D01*
X15399229Y-3045960D02*
X15389706Y-3036436D01*
X15389706Y-3036436D02*
X15380182Y-3017388D01*
X15380182Y-3017388D02*
X15370658Y-2979293D01*
X15370658Y-2979293D02*
X15370658Y-2931674D01*
X15370658Y-2931674D02*
X15380182Y-2893579D01*
X15380182Y-2893579D02*
X15389706Y-2874531D01*
X15389706Y-2874531D02*
X15399229Y-2865008D01*
X15399229Y-2865008D02*
X15418277Y-2855484D01*
X15561134Y-2855484D02*
X15561134Y-2893579D01*
X15637325Y-2855484D02*
X15637325Y-2893579D01*
X15932563Y-3131674D02*
X15923039Y-3122150D01*
X15923039Y-3122150D02*
X15903991Y-3093579D01*
X15903991Y-3093579D02*
X15894468Y-3074531D01*
X15894468Y-3074531D02*
X15884944Y-3045960D01*
X15884944Y-3045960D02*
X15875420Y-2998341D01*
X15875420Y-2998341D02*
X15875420Y-2960246D01*
X15875420Y-2960246D02*
X15884944Y-2912627D01*
X15884944Y-2912627D02*
X15894468Y-2884055D01*
X15894468Y-2884055D02*
X15903991Y-2865008D01*
X15903991Y-2865008D02*
X15923039Y-2836436D01*
X15923039Y-2836436D02*
X15932563Y-2826912D01*
X16094468Y-2922150D02*
X16094468Y-3055484D01*
X16046848Y-2845960D02*
X15999229Y-2988817D01*
X15999229Y-2988817D02*
X16123039Y-2988817D01*
X16351610Y-3055484D02*
X16351610Y-2855484D01*
X16437325Y-3055484D02*
X16437325Y-2950722D01*
X16437325Y-2950722D02*
X16427801Y-2931674D01*
X16427801Y-2931674D02*
X16408753Y-2922150D01*
X16408753Y-2922150D02*
X16380182Y-2922150D01*
X16380182Y-2922150D02*
X16361134Y-2931674D01*
X16361134Y-2931674D02*
X16351610Y-2941198D01*
X16561134Y-3055484D02*
X16542087Y-3045960D01*
X16542087Y-3045960D02*
X16532563Y-3036436D01*
X16532563Y-3036436D02*
X16523039Y-3017388D01*
X16523039Y-3017388D02*
X16523039Y-2960246D01*
X16523039Y-2960246D02*
X16532563Y-2941198D01*
X16532563Y-2941198D02*
X16542087Y-2931674D01*
X16542087Y-2931674D02*
X16561134Y-2922150D01*
X16561134Y-2922150D02*
X16589706Y-2922150D01*
X16589706Y-2922150D02*
X16608753Y-2931674D01*
X16608753Y-2931674D02*
X16618277Y-2941198D01*
X16618277Y-2941198D02*
X16627801Y-2960246D01*
X16627801Y-2960246D02*
X16627801Y-3017388D01*
X16627801Y-3017388D02*
X16618277Y-3036436D01*
X16618277Y-3036436D02*
X16608753Y-3045960D01*
X16608753Y-3045960D02*
X16589706Y-3055484D01*
X16589706Y-3055484D02*
X16561134Y-3055484D01*
X16742087Y-3055484D02*
X16723039Y-3045960D01*
X16723039Y-3045960D02*
X16713515Y-3026912D01*
X16713515Y-3026912D02*
X16713515Y-2855484D01*
X16894468Y-3045960D02*
X16875420Y-3055484D01*
X16875420Y-3055484D02*
X16837325Y-3055484D01*
X16837325Y-3055484D02*
X16818277Y-3045960D01*
X16818277Y-3045960D02*
X16808753Y-3026912D01*
X16808753Y-3026912D02*
X16808753Y-2950722D01*
X16808753Y-2950722D02*
X16818277Y-2931674D01*
X16818277Y-2931674D02*
X16837325Y-2922150D01*
X16837325Y-2922150D02*
X16875420Y-2922150D01*
X16875420Y-2922150D02*
X16894468Y-2931674D01*
X16894468Y-2931674D02*
X16903992Y-2950722D01*
X16903992Y-2950722D02*
X16903992Y-2969769D01*
X16903992Y-2969769D02*
X16808753Y-2988817D01*
X16980182Y-3045960D02*
X16999230Y-3055484D01*
X16999230Y-3055484D02*
X17037325Y-3055484D01*
X17037325Y-3055484D02*
X17056373Y-3045960D01*
X17056373Y-3045960D02*
X17065896Y-3026912D01*
X17065896Y-3026912D02*
X17065896Y-3017388D01*
X17065896Y-3017388D02*
X17056373Y-2998341D01*
X17056373Y-2998341D02*
X17037325Y-2988817D01*
X17037325Y-2988817D02*
X17008753Y-2988817D01*
X17008753Y-2988817D02*
X16989706Y-2979293D01*
X16989706Y-2979293D02*
X16980182Y-2960246D01*
X16980182Y-2960246D02*
X16980182Y-2950722D01*
X16980182Y-2950722D02*
X16989706Y-2931674D01*
X16989706Y-2931674D02*
X17008753Y-2922150D01*
X17008753Y-2922150D02*
X17037325Y-2922150D01*
X17037325Y-2922150D02*
X17056373Y-2931674D01*
X17132563Y-3131674D02*
X17142087Y-3122150D01*
X17142087Y-3122150D02*
X17161134Y-3093579D01*
X17161134Y-3093579D02*
X17170658Y-3074531D01*
X17170658Y-3074531D02*
X17180182Y-3045960D01*
X17180182Y-3045960D02*
X17189706Y-2998341D01*
X17189706Y-2998341D02*
X17189706Y-2960246D01*
X17189706Y-2960246D02*
X17180182Y-2912627D01*
X17180182Y-2912627D02*
X17170658Y-2884055D01*
X17170658Y-2884055D02*
X17161134Y-2865008D01*
X17161134Y-2865008D02*
X17142087Y-2836436D01*
X17142087Y-2836436D02*
X17132563Y-2826912D01*
X12257500Y-3384000D02*
X12357500Y-3284000D01*
X12257500Y-3184000D01*
X12157500Y-3284000D01*
X12257500Y-3384000D01*
X12599229Y-3175484D02*
X12732562Y-3175484D01*
X12732562Y-3175484D02*
X12646848Y-3375484D01*
X12808753Y-3356436D02*
X12818277Y-3365960D01*
X12818277Y-3365960D02*
X12808753Y-3375484D01*
X12808753Y-3375484D02*
X12799229Y-3365960D01*
X12799229Y-3365960D02*
X12808753Y-3356436D01*
X12808753Y-3356436D02*
X12808753Y-3375484D01*
X12884943Y-3175484D02*
X13018277Y-3175484D01*
X13018277Y-3175484D02*
X12932562Y-3375484D01*
X13180182Y-3242150D02*
X13180182Y-3375484D01*
X13132562Y-3165960D02*
X13084943Y-3308817D01*
X13084943Y-3308817D02*
X13208753Y-3308817D01*
X13265896Y-3175484D02*
X13399229Y-3175484D01*
X13399229Y-3175484D02*
X13313515Y-3375484D01*
X13475420Y-3375484D02*
X13475420Y-3242150D01*
X13475420Y-3261198D02*
X13484943Y-3251674D01*
X13484943Y-3251674D02*
X13503991Y-3242150D01*
X13503991Y-3242150D02*
X13532563Y-3242150D01*
X13532563Y-3242150D02*
X13551610Y-3251674D01*
X13551610Y-3251674D02*
X13561134Y-3270722D01*
X13561134Y-3270722D02*
X13561134Y-3375484D01*
X13561134Y-3270722D02*
X13570658Y-3251674D01*
X13570658Y-3251674D02*
X13589705Y-3242150D01*
X13589705Y-3242150D02*
X13618277Y-3242150D01*
X13618277Y-3242150D02*
X13637324Y-3251674D01*
X13637324Y-3251674D02*
X13646848Y-3270722D01*
X13646848Y-3270722D02*
X13646848Y-3375484D01*
X13742086Y-3375484D02*
X13742086Y-3242150D01*
X13742086Y-3261198D02*
X13751610Y-3251674D01*
X13751610Y-3251674D02*
X13770658Y-3242150D01*
X13770658Y-3242150D02*
X13799229Y-3242150D01*
X13799229Y-3242150D02*
X13818277Y-3251674D01*
X13818277Y-3251674D02*
X13827801Y-3270722D01*
X13827801Y-3270722D02*
X13827801Y-3375484D01*
X13827801Y-3270722D02*
X13837324Y-3251674D01*
X13837324Y-3251674D02*
X13856372Y-3242150D01*
X13856372Y-3242150D02*
X13884943Y-3242150D01*
X13884943Y-3242150D02*
X13903991Y-3251674D01*
X13903991Y-3251674D02*
X13913515Y-3270722D01*
X13913515Y-3270722D02*
X13913515Y-3375484D01*
X14303991Y-3165960D02*
X14132563Y-3423103D01*
X14561134Y-3175484D02*
X14580182Y-3175484D01*
X14580182Y-3175484D02*
X14599229Y-3185008D01*
X14599229Y-3185008D02*
X14608753Y-3194531D01*
X14608753Y-3194531D02*
X14618277Y-3213579D01*
X14618277Y-3213579D02*
X14627801Y-3251674D01*
X14627801Y-3251674D02*
X14627801Y-3299293D01*
X14627801Y-3299293D02*
X14618277Y-3337388D01*
X14618277Y-3337388D02*
X14608753Y-3356436D01*
X14608753Y-3356436D02*
X14599229Y-3365960D01*
X14599229Y-3365960D02*
X14580182Y-3375484D01*
X14580182Y-3375484D02*
X14561134Y-3375484D01*
X14561134Y-3375484D02*
X14542086Y-3365960D01*
X14542086Y-3365960D02*
X14532563Y-3356436D01*
X14532563Y-3356436D02*
X14523039Y-3337388D01*
X14523039Y-3337388D02*
X14513515Y-3299293D01*
X14513515Y-3299293D02*
X14513515Y-3251674D01*
X14513515Y-3251674D02*
X14523039Y-3213579D01*
X14523039Y-3213579D02*
X14532563Y-3194531D01*
X14532563Y-3194531D02*
X14542086Y-3185008D01*
X14542086Y-3185008D02*
X14561134Y-3175484D01*
X14713515Y-3356436D02*
X14723039Y-3365960D01*
X14723039Y-3365960D02*
X14713515Y-3375484D01*
X14713515Y-3375484D02*
X14703991Y-3365960D01*
X14703991Y-3365960D02*
X14713515Y-3356436D01*
X14713515Y-3356436D02*
X14713515Y-3375484D01*
X14789706Y-3175484D02*
X14913515Y-3175484D01*
X14913515Y-3175484D02*
X14846848Y-3251674D01*
X14846848Y-3251674D02*
X14875420Y-3251674D01*
X14875420Y-3251674D02*
X14894467Y-3261198D01*
X14894467Y-3261198D02*
X14903991Y-3270722D01*
X14903991Y-3270722D02*
X14913515Y-3289769D01*
X14913515Y-3289769D02*
X14913515Y-3337388D01*
X14913515Y-3337388D02*
X14903991Y-3356436D01*
X14903991Y-3356436D02*
X14894467Y-3365960D01*
X14894467Y-3365960D02*
X14875420Y-3375484D01*
X14875420Y-3375484D02*
X14818277Y-3375484D01*
X14818277Y-3375484D02*
X14799229Y-3365960D01*
X14799229Y-3365960D02*
X14789706Y-3356436D01*
X15037325Y-3175484D02*
X15056372Y-3175484D01*
X15056372Y-3175484D02*
X15075420Y-3185008D01*
X15075420Y-3185008D02*
X15084944Y-3194531D01*
X15084944Y-3194531D02*
X15094467Y-3213579D01*
X15094467Y-3213579D02*
X15103991Y-3251674D01*
X15103991Y-3251674D02*
X15103991Y-3299293D01*
X15103991Y-3299293D02*
X15094467Y-3337388D01*
X15094467Y-3337388D02*
X15084944Y-3356436D01*
X15084944Y-3356436D02*
X15075420Y-3365960D01*
X15075420Y-3365960D02*
X15056372Y-3375484D01*
X15056372Y-3375484D02*
X15037325Y-3375484D01*
X15037325Y-3375484D02*
X15018277Y-3365960D01*
X15018277Y-3365960D02*
X15008753Y-3356436D01*
X15008753Y-3356436D02*
X14999229Y-3337388D01*
X14999229Y-3337388D02*
X14989706Y-3299293D01*
X14989706Y-3299293D02*
X14989706Y-3251674D01*
X14989706Y-3251674D02*
X14999229Y-3213579D01*
X14999229Y-3213579D02*
X15008753Y-3194531D01*
X15008753Y-3194531D02*
X15018277Y-3185008D01*
X15018277Y-3185008D02*
X15037325Y-3175484D01*
X15284944Y-3175484D02*
X15189706Y-3175484D01*
X15189706Y-3175484D02*
X15180182Y-3270722D01*
X15180182Y-3270722D02*
X15189706Y-3261198D01*
X15189706Y-3261198D02*
X15208753Y-3251674D01*
X15208753Y-3251674D02*
X15256372Y-3251674D01*
X15256372Y-3251674D02*
X15275420Y-3261198D01*
X15275420Y-3261198D02*
X15284944Y-3270722D01*
X15284944Y-3270722D02*
X15294467Y-3289769D01*
X15294467Y-3289769D02*
X15294467Y-3337388D01*
X15294467Y-3337388D02*
X15284944Y-3356436D01*
X15284944Y-3356436D02*
X15275420Y-3365960D01*
X15275420Y-3365960D02*
X15256372Y-3375484D01*
X15256372Y-3375484D02*
X15208753Y-3375484D01*
X15208753Y-3375484D02*
X15189706Y-3365960D01*
X15189706Y-3365960D02*
X15180182Y-3356436D01*
X15418277Y-3175484D02*
X15437325Y-3175484D01*
X15437325Y-3175484D02*
X15456372Y-3185008D01*
X15456372Y-3185008D02*
X15465896Y-3194531D01*
X15465896Y-3194531D02*
X15475420Y-3213579D01*
X15475420Y-3213579D02*
X15484944Y-3251674D01*
X15484944Y-3251674D02*
X15484944Y-3299293D01*
X15484944Y-3299293D02*
X15475420Y-3337388D01*
X15475420Y-3337388D02*
X15465896Y-3356436D01*
X15465896Y-3356436D02*
X15456372Y-3365960D01*
X15456372Y-3365960D02*
X15437325Y-3375484D01*
X15437325Y-3375484D02*
X15418277Y-3375484D01*
X15418277Y-3375484D02*
X15399229Y-3365960D01*
X15399229Y-3365960D02*
X15389706Y-3356436D01*
X15389706Y-3356436D02*
X15380182Y-3337388D01*
X15380182Y-3337388D02*
X15370658Y-3299293D01*
X15370658Y-3299293D02*
X15370658Y-3251674D01*
X15370658Y-3251674D02*
X15380182Y-3213579D01*
X15380182Y-3213579D02*
X15389706Y-3194531D01*
X15389706Y-3194531D02*
X15399229Y-3185008D01*
X15399229Y-3185008D02*
X15418277Y-3175484D01*
X15561134Y-3175484D02*
X15561134Y-3213579D01*
X15637325Y-3175484D02*
X15637325Y-3213579D01*
X15932563Y-3451674D02*
X15923039Y-3442150D01*
X15923039Y-3442150D02*
X15903991Y-3413579D01*
X15903991Y-3413579D02*
X15894468Y-3394531D01*
X15894468Y-3394531D02*
X15884944Y-3365960D01*
X15884944Y-3365960D02*
X15875420Y-3318341D01*
X15875420Y-3318341D02*
X15875420Y-3280246D01*
X15875420Y-3280246D02*
X15884944Y-3232627D01*
X15884944Y-3232627D02*
X15894468Y-3204055D01*
X15894468Y-3204055D02*
X15903991Y-3185008D01*
X15903991Y-3185008D02*
X15923039Y-3156436D01*
X15923039Y-3156436D02*
X15932563Y-3146912D01*
X16113515Y-3375484D02*
X15999229Y-3375484D01*
X16056372Y-3375484D02*
X16056372Y-3175484D01*
X16056372Y-3175484D02*
X16037325Y-3204055D01*
X16037325Y-3204055D02*
X16018277Y-3223103D01*
X16018277Y-3223103D02*
X15999229Y-3232627D01*
X16351610Y-3375484D02*
X16351610Y-3175484D01*
X16437325Y-3375484D02*
X16437325Y-3270722D01*
X16437325Y-3270722D02*
X16427801Y-3251674D01*
X16427801Y-3251674D02*
X16408753Y-3242150D01*
X16408753Y-3242150D02*
X16380182Y-3242150D01*
X16380182Y-3242150D02*
X16361134Y-3251674D01*
X16361134Y-3251674D02*
X16351610Y-3261198D01*
X16561134Y-3375484D02*
X16542087Y-3365960D01*
X16542087Y-3365960D02*
X16532563Y-3356436D01*
X16532563Y-3356436D02*
X16523039Y-3337388D01*
X16523039Y-3337388D02*
X16523039Y-3280246D01*
X16523039Y-3280246D02*
X16532563Y-3261198D01*
X16532563Y-3261198D02*
X16542087Y-3251674D01*
X16542087Y-3251674D02*
X16561134Y-3242150D01*
X16561134Y-3242150D02*
X16589706Y-3242150D01*
X16589706Y-3242150D02*
X16608753Y-3251674D01*
X16608753Y-3251674D02*
X16618277Y-3261198D01*
X16618277Y-3261198D02*
X16627801Y-3280246D01*
X16627801Y-3280246D02*
X16627801Y-3337388D01*
X16627801Y-3337388D02*
X16618277Y-3356436D01*
X16618277Y-3356436D02*
X16608753Y-3365960D01*
X16608753Y-3365960D02*
X16589706Y-3375484D01*
X16589706Y-3375484D02*
X16561134Y-3375484D01*
X16742087Y-3375484D02*
X16723039Y-3365960D01*
X16723039Y-3365960D02*
X16713515Y-3346912D01*
X16713515Y-3346912D02*
X16713515Y-3175484D01*
X16894468Y-3365960D02*
X16875420Y-3375484D01*
X16875420Y-3375484D02*
X16837325Y-3375484D01*
X16837325Y-3375484D02*
X16818277Y-3365960D01*
X16818277Y-3365960D02*
X16808753Y-3346912D01*
X16808753Y-3346912D02*
X16808753Y-3270722D01*
X16808753Y-3270722D02*
X16818277Y-3251674D01*
X16818277Y-3251674D02*
X16837325Y-3242150D01*
X16837325Y-3242150D02*
X16875420Y-3242150D01*
X16875420Y-3242150D02*
X16894468Y-3251674D01*
X16894468Y-3251674D02*
X16903992Y-3270722D01*
X16903992Y-3270722D02*
X16903992Y-3289769D01*
X16903992Y-3289769D02*
X16808753Y-3308817D01*
X16970658Y-3451674D02*
X16980182Y-3442150D01*
X16980182Y-3442150D02*
X16999230Y-3413579D01*
X16999230Y-3413579D02*
X17008753Y-3394531D01*
X17008753Y-3394531D02*
X17018277Y-3365960D01*
X17018277Y-3365960D02*
X17027801Y-3318341D01*
X17027801Y-3318341D02*
X17027801Y-3280246D01*
X17027801Y-3280246D02*
X17018277Y-3232627D01*
X17018277Y-3232627D02*
X17008753Y-3204055D01*
X17008753Y-3204055D02*
X16999230Y-3185008D01*
X16999230Y-3185008D02*
X16980182Y-3156436D01*
X16980182Y-3156436D02*
X16970658Y-3146912D01*
M02*
