G04 #@! TF.GenerationSoftware,KiCad,Pcbnew,7.0.6-0*
G04 #@! TF.CreationDate,2024-04-10T15:20:03-07:00*
G04 #@! TF.ProjectId,Sampler-built,53616d70-6c65-4722-9d62-75696c742e6b,rev?*
G04 #@! TF.SameCoordinates,PXb71b00PY73f50f0*
G04 #@! TF.FileFunction,Copper,L4,Bot*
G04 #@! TF.FilePolarity,Positive*
%FSLAX46Y46*%
G04 Gerber Fmt 4.6, Leading zero omitted, Abs format (unit mm)*
G04 Created by KiCad (PCBNEW 7.0.6-0) date 2024-04-10 15:20:03*
%MOMM*%
%LPD*%
G01*
G04 APERTURE LIST*
G04 #@! TA.AperFunction,SMDPad,CuDef*
%ADD10R,60.000000X8.000000*%
G04 #@! TD*
G04 #@! TA.AperFunction,ComponentPad*
%ADD11C,7.874000*%
G04 #@! TD*
G04 #@! TA.AperFunction,ComponentPad*
%ADD12C,8.051800*%
G04 #@! TD*
G04 #@! TA.AperFunction,ComponentPad*
%ADD13C,7.620000*%
G04 #@! TD*
G04 #@! TA.AperFunction,ComponentPad*
%ADD14C,5.969000*%
G04 #@! TD*
G04 #@! TA.AperFunction,ComponentPad*
%ADD15O,7.366000X4.191000*%
G04 #@! TD*
G04 APERTURE END LIST*
D10*
G04 #@! TO.P,,1*
G04 #@! TO.N,GND*
X153950000Y-9250000D03*
G04 #@! TD*
G04 #@! TO.P,REF\u002A\u002A,1*
G04 #@! TO.N,GND*
X153910000Y110670000D03*
G04 #@! TD*
D11*
G04 #@! TO.P,REF\u002A\u002A,1*
G04 #@! TO.N,GND*
X170760000Y84180000D03*
G04 #@! TD*
D12*
G04 #@! TO.P,LOCK1,1*
G04 #@! TO.N,GND*
X153873352Y96549922D03*
G04 #@! TD*
D13*
G04 #@! TO.P,REF\u002A\u002A,1*
G04 #@! TO.N,GND*
X147563352Y17999922D03*
G04 #@! TD*
D11*
G04 #@! TO.P,REF\u002A\u002A,1*
G04 #@! TO.N,GND*
X134063352Y57999922D03*
G04 #@! TD*
D13*
G04 #@! TO.P,REF\u002A\u002A,1*
G04 #@! TO.N,GND*
X132063352Y17999922D03*
G04 #@! TD*
G04 #@! TO.P,REF\u002A\u002A,1*
G04 #@! TO.N,GND*
X175591352Y2999922D03*
G04 #@! TD*
G04 #@! TO.P,REF\u002A\u002A,1*
G04 #@! TO.N,GND*
X132063352Y32999922D03*
G04 #@! TD*
G04 #@! TO.P,REF\u002A\u002A,1*
G04 #@! TO.N,GND*
X160063352Y17999922D03*
G04 #@! TD*
D14*
G04 #@! TO.P,REF\u002A\u002A,1*
G04 #@! TO.N,GND*
X173313352Y98649922D03*
G04 #@! TD*
D13*
G04 #@! TO.P,REF\u002A\u002A,1*
G04 #@! TO.N,GND*
X160063352Y2999922D03*
G04 #@! TD*
G04 #@! TO.P,REF\u002A\u002A,1*
G04 #@! TO.N,GND*
X160063352Y32999922D03*
G04 #@! TD*
G04 #@! TO.P,REF\u002A\u002A,1*
G04 #@! TO.N,GND*
X175591352Y32999922D03*
G04 #@! TD*
D11*
G04 #@! TO.P,REF\u002A\u002A,1*
G04 #@! TO.N,GND*
X137063352Y83999922D03*
G04 #@! TD*
D13*
G04 #@! TO.P,REF\u002A\u002A,1*
G04 #@! TO.N,GND*
X147563352Y32999922D03*
G04 #@! TD*
D11*
G04 #@! TO.P,REF\u002A\u002A,1*
G04 #@! TO.N,GND*
X173691352Y57999922D03*
G04 #@! TD*
D14*
G04 #@! TO.P,REF\u002A\u002A,1*
G04 #@! TO.N,GND*
X134441352Y98649922D03*
G04 #@! TD*
D13*
G04 #@! TO.P,REF\u002A\u002A,1*
G04 #@! TO.N,GND*
X131899152Y2954362D03*
G04 #@! TD*
G04 #@! TO.P,REF\u002A\u002A,1*
G04 #@! TO.N,GND*
X147399152Y2954362D03*
G04 #@! TD*
G04 #@! TO.P,REF\u002A\u002A,1*
G04 #@! TO.N,GND*
X175591352Y17999922D03*
G04 #@! TD*
D15*
G04 #@! TO.P,REF\u002A\u002A,1*
G04 #@! TO.N,GND*
X176732000Y-10592800D03*
G04 #@! TD*
G04 #@! TO.P,REF\u002A\u002A,1*
G04 #@! TO.N,GND*
X131118000Y-10592800D03*
G04 #@! TD*
G04 #@! TO.P,REF\u002A\u002A,1*
G04 #@! TO.N,GND*
X176732000Y111912800D03*
G04 #@! TD*
G04 #@! TO.P,REF\u002A\u002A,1*
G04 #@! TO.N,GND*
X131118000Y111912800D03*
G04 #@! TD*
G04 #@! TA.AperFunction,Conductor*
G04 #@! TO.N,GND*
G36*
X183814039Y114536315D02*
G01*
X183859794Y114483511D01*
X183871000Y114432000D01*
X183871000Y-13112000D01*
X183851315Y-13179039D01*
X183798511Y-13224794D01*
X183747000Y-13236000D01*
X124103000Y-13236000D01*
X124035961Y-13216315D01*
X123990206Y-13163511D01*
X123979000Y-13112000D01*
X123979000Y114432000D01*
X123998685Y114499039D01*
X124051489Y114544794D01*
X124103000Y114556000D01*
X183747000Y114556000D01*
X183814039Y114536315D01*
G37*
G04 #@! TD.AperFunction*
G04 #@! TD*
M02*
