M48
; DRILL file {KiCad 7.0.6-0} date 2024 April 10, Wednesday 15:20:06
; FORMAT={-:-/ absolute / inch / decimal}
; #@! TF.CreationDate,2024-04-10T15:20:06-07:00
; #@! TF.GenerationSoftware,Kicad,Pcbnew,7.0.6-0
; #@! TF.FileFunction,MixedPlating,1,4
FMAT,2
INCH
; #@! TA.AperFunction,Plated,PTH,ComponentDrill
T1C0.1250
; #@! TA.AperFunction,Plated,PTH,ComponentDrill
T2C0.2230
; #@! TA.AperFunction,Plated,PTH,ComponentDrill
T3C0.2600
; #@! TA.AperFunction,Plated,PTH,ComponentDrill
T4C0.2800
; #@! TA.AperFunction,Plated,PTH,ComponentDrill
T5C0.3050
%
G90
G05
T2
X5.293Y3.8839
X6.8234Y3.8839
T3
X5.1929Y0.1163
X5.1993Y1.2992
X5.1993Y0.7087
X5.8031Y0.1163
X5.8096Y1.2992
X5.8096Y0.7087
X6.3017Y1.2992
X6.3017Y0.7087
X6.3017Y0.1181
X6.913Y1.2992
X6.913Y0.7087
X6.913Y0.1181
T4
X5.2781Y2.2835
X5.3962Y3.3071
X6.7228Y3.3142
X6.8382Y2.2835
T5
X6.058Y3.8012
T1
G00X5.0996Y4.406
M15
G01X5.2246Y4.406
M16
G05
G00X5.0996Y-0.417
M15
G01X5.2246Y-0.417
M16
G05
G00X6.8955Y4.406
M15
G01X7.0205Y4.406
M16
G05
G00X6.8955Y-0.417
M15
G01X7.0205Y-0.417
M16
G05
T0
M30
