G04 #@! TF.GenerationSoftware,KiCad,Pcbnew,(7.0.0-0)*
G04 #@! TF.CreationDate,2023-03-17T15:47:15-07:00*
G04 #@! TF.ProjectId,Kit-Trig-Sampler-FACEPLATE,4b69742d-5472-4696-972d-53616d706c65,rev?*
G04 #@! TF.SameCoordinates,Original*
G04 #@! TF.FileFunction,Copper,L2,Bot*
G04 #@! TF.FilePolarity,Positive*
%FSLAX46Y46*%
G04 Gerber Fmt 4.6, Leading zero omitted, Abs format (unit mm)*
G04 Created by KiCad (PCBNEW (7.0.0-0)) date 2023-03-17 15:47:15*
%MOMM*%
%LPD*%
G01*
G04 APERTURE LIST*
G04 #@! TA.AperFunction,ComponentPad*
%ADD10C,7.620000*%
G04 #@! TD*
G04 #@! TA.AperFunction,ComponentPad*
%ADD11C,7.874000*%
G04 #@! TD*
G04 #@! TA.AperFunction,ComponentPad*
%ADD12O,7.366000X4.191000*%
G04 #@! TD*
G04 #@! TA.AperFunction,ComponentPad*
%ADD13C,5.969000*%
G04 #@! TD*
G04 #@! TA.AperFunction,ComponentPad*
%ADD14C,8.051800*%
G04 #@! TD*
G04 APERTURE END LIST*
D10*
X20275000Y-98257236D03*
D11*
X63700000Y-60770000D03*
D12*
X18042999Y-5780999D03*
D13*
X78700000Y-19707236D03*
D10*
X23600000Y-82457236D03*
X40043000Y-98257236D03*
D11*
X23100000Y-41182236D03*
D14*
X51000000Y-21982236D03*
D10*
X20275000Y-113682236D03*
D11*
X78900000Y-41182236D03*
D10*
X60150000Y-82457236D03*
X81725000Y-98257236D03*
D12*
X83956999Y-5780999D03*
D10*
X41925000Y-82457236D03*
D11*
X38300000Y-60814319D03*
D12*
X83956999Y-128286599D03*
D10*
X61930000Y-113682236D03*
X61957000Y-98257236D03*
X40070000Y-113682236D03*
D12*
X18042999Y-128286599D03*
D10*
X78325000Y-82457236D03*
X81725000Y-113682236D03*
D13*
X23300000Y-19707236D03*
G04 #@! TA.AperFunction,Conductor*
G36*
X91034000Y-3154413D02*
G01*
X91079387Y-3199800D01*
X91096000Y-3261800D01*
X91096000Y-130805800D01*
X91079387Y-130867800D01*
X91034000Y-130913187D01*
X90972000Y-130929800D01*
X11028000Y-130929800D01*
X10966000Y-130913187D01*
X10920613Y-130867800D01*
X10904000Y-130805800D01*
X10904000Y-47720000D01*
X49779459Y-47720000D01*
X49779500Y-47720099D01*
X49779617Y-47720383D01*
X49780000Y-47720541D01*
X49780099Y-47720500D01*
X52169901Y-47720500D01*
X52170000Y-47720541D01*
X52170383Y-47720383D01*
X52170500Y-47720099D01*
X52170541Y-47720000D01*
X52170500Y-47719901D01*
X52170500Y-34850099D01*
X52170541Y-34850000D01*
X52170383Y-34849617D01*
X52170099Y-34849500D01*
X52170000Y-34849459D01*
X52169901Y-34849500D01*
X49780099Y-34849500D01*
X49780000Y-34849459D01*
X49779901Y-34849500D01*
X49779617Y-34849617D01*
X49779459Y-34850000D01*
X49779500Y-34850099D01*
X49779500Y-47719901D01*
X49779459Y-47720000D01*
X10904000Y-47720000D01*
X10904000Y-3261800D01*
X10920613Y-3199800D01*
X10966000Y-3154413D01*
X11028000Y-3137800D01*
X90972000Y-3137800D01*
X91034000Y-3154413D01*
G37*
G04 #@! TD.AperFunction*
M02*
