M48
; DRILL file {KiCad 7.0.6-0} date 2024 April 10, Wednesday 13:52:42
; FORMAT={-:-/ absolute / inch / decimal}
; #@! TF.CreationDate,2024-04-10T13:52:42-07:00
; #@! TF.GenerationSoftware,Kicad,Pcbnew,7.0.6-0
; #@! TF.FileFunction,MixedPlating,1,4
FMAT,2
INCH
; #@! TA.AperFunction,Plated,PTH,ViaDrill
T1C0.0079
; #@! TA.AperFunction,Plated,PTH,ComponentDrill
T2C0.0270
; #@! TA.AperFunction,Plated,PTH,ComponentDrill
T3C0.0275
; #@! TA.AperFunction,Plated,PTH,ComponentDrill
T4C0.0315
; #@! TA.AperFunction,Plated,PTH,ComponentDrill
T5C0.0350
; #@! TA.AperFunction,Plated,PTH,ComponentDrill
T6C0.0360
; #@! TA.AperFunction,Plated,PTH,ComponentDrill
T7C0.0394
; #@! TA.AperFunction,Plated,PTH,ComponentDrill
T8C0.0450
; #@! TA.AperFunction,Plated,PTH,ComponentDrill
T9C0.0472
%
G90
G05
T1
X4.9886Y3.3358
X4.9886Y3.2528
X5.0129Y4.0571
X5.0152Y1.6453
X5.0398Y2.66
X5.0802Y2.1583
X5.082Y2.2243
X5.0906Y2.4665
X5.0971Y1.4583
X5.1064Y2.172
X5.1083Y1.5063
X5.1091Y2.2232
X5.1292Y2.1708
X5.1295Y2.4583
X5.1303Y2.4929
X5.137Y2.6713
X5.1394Y2.2213
X5.1412Y1.2201
X5.1551Y2.2913
X5.1571Y2.3228
X5.1626Y3.6831
X5.1736Y2.1717
X5.1744Y2.2169
X5.1815Y1.928
X5.1976Y2.2193
X5.2012Y2.1744
X5.2071Y3.3102
X5.2105Y2.0358
X5.2264Y2.2189
X5.2276Y2.1693
X5.2353Y1.9945
X5.2369Y2.0354
X5.2577Y1.5799
X5.2613Y2.0362
X5.2719Y2.6402
X5.2956Y1.6196
X5.3077Y0.7413
X5.3276Y3.2634
X5.3294Y2.0831
X5.3329Y3.1098
X5.3374Y1.5799
X5.35Y1.6063
X5.3786Y1.4563
X5.3822Y3.2388
X5.3898Y2.4799
X5.3987Y1.5709
X5.4321Y2.4439
X5.4492Y2.4732
X5.4634Y1.6409
X5.4731Y1.9346
X5.4786Y0.9905
X5.4861Y2.0968
X5.5248Y2.5768
X5.552Y2.1827
X5.5522Y1.7382
X5.5543Y1.8717
X5.5778Y1.715
X5.581Y1.4535
X5.6016Y2.2598
X5.6223Y1.5311
X5.6373Y0.3681
X5.6605Y2.2252
X5.6764Y2.4567
X5.6854Y2.1606
X5.6886Y2.2433
X5.6969Y2.4443
X5.7024Y2.4976
X5.7031Y1.9783
X5.7055Y2.5217
X5.7079Y1.6461
X5.7272Y3.7701
X5.7283Y2.0961
X5.7321Y1.4234
X5.737Y1.6445
X5.7377Y2.2693
X5.7386Y2.4508
X5.7394Y2.148
X5.7447Y1.7866
X5.7472Y1.5787
X5.7531Y3.6157
X5.7566Y1.3169
X5.7661Y2.2012
X5.7748Y1.5551
X5.7749Y2.0726
X5.7759Y1.0634
X5.7766Y2.0071
X5.7835Y1.9433
X5.7846Y2.889
X5.786Y2.6043
X5.7876Y2.2928
X5.7937Y2.2
X5.7937Y1.6967
X5.7941Y1.8192
X5.7947Y1.2705
X5.7951Y0.9945
X5.7961Y2.4703
X5.798Y2.4038
X5.7996Y2.5654
X5.8027Y2.0223
X5.8034Y2.2745
X5.8109Y2.6043
X5.8134Y1.9255
X5.8244Y1.6196
X5.827Y2.0299
X5.8314Y2.2484
X5.8337Y2.6066
X5.8343Y1.807
X5.8408Y1.6779
X5.8453Y2.9591
X5.8461Y2.926
X5.8555Y2.6157
X5.8555Y2.6969
X5.8559Y1.7215
X5.8562Y2.0761
X5.8602Y1.6499
X5.8608Y1.6931
X5.8618Y1.6286
X5.8625Y1.5751
X5.8652Y2.3963
X5.8653Y2.345
X5.8747Y1.8363
X5.8825Y1.4689
X5.8833Y4.0531
X5.8885Y0.1598
X5.8893Y2.4206
X5.8902Y1.9471
X5.891Y2.4735
X5.8924Y2.2711
X5.8925Y2.2164
X5.8925Y2.0588
X5.8969Y1.5857
X5.8996Y1.7731
X5.8996Y1.8038
X5.904Y2.0254
X5.905Y1.738
X5.907Y1.9779
X5.9132Y2.5516
X5.9158Y1.5451
X5.9163Y2.2176
X5.9164Y2.4733
X5.9167Y2.3195
X5.9194Y2.6294
X5.9312Y1.5829
X5.9313Y1.6159
X5.9315Y1.6782
X5.9414Y1.076
X5.9417Y2.4479
X5.9488Y1.5377
X5.9551Y3.313
X5.9571Y2.6591
X5.9634Y2.8781
X5.9635Y2.3125
X5.9663Y1.5883
X5.9677Y2.4987
X5.968Y2.2459
X5.9705Y1.7231
X5.9706Y2.1682
X5.9721Y2.4203
X5.9735Y1.9821
X5.9756Y1.0476
X5.9764Y2.0825
X5.9788Y1.7816
X5.9791Y2.5554
X5.9823Y2.2625
X5.9935Y2.1924
X5.9936Y2.4989
X5.9942Y2.117
X5.9943Y1.9412
X5.9945Y2.6661
X5.9953Y2.4085
X5.9977Y2.0203
X6.0026Y1.6278
X6.0039Y1.7499
X6.0115Y1.6841
X6.0134Y1.9679
X6.0139Y2.0909
X6.0146Y2.0042
X6.0156Y2.0585
X6.0161Y1.7779
X6.0161Y2.0332
X6.0169Y1.7223
X6.0185Y2.1664
X6.0188Y2.2179
X6.0189Y2.4731
X6.026Y1.5419
X6.0314Y2.9035
X6.0339Y2.1329
X6.0399Y1.5674
X6.0443Y2.1661
X6.0482Y2.1125
X6.0496Y2.4062
X6.0498Y1.6449
X6.0507Y1.0157
X6.0513Y2.2637
X6.0524Y1.9314
X6.0528Y2.5621
X6.0531Y2.9709
X6.0544Y1.6238
X6.0581Y1.1965
X6.0585Y1.1091
X6.0658Y1.9984
X6.0685Y1.9136
X6.0701Y2.1918
X6.0719Y2.9571
X6.0825Y-0.0384
X6.0827Y2.2587
X6.0859Y1.898
X6.0869Y3.202
X6.0886Y1.7097
X6.0898Y1.7715
X6.0901Y1.8037
X6.0948Y1.9893
X6.0955Y0.1433
X6.1016Y2.3814
X6.1034Y1.9117
X6.1034Y2.0105
X6.1034Y1.8794
X6.1039Y3.0689
X6.1095Y2.5983
X6.1114Y2.294
X6.1163Y3.146
X6.119Y2.1041
X6.1193Y1.6451
X6.1198Y1.7091
X6.1201Y2.2447
X6.1203Y1.9548
X6.1203Y1.6156
X6.1203Y1.6789
X6.1209Y2.2685
X6.1244Y1.8016
X6.1268Y0.8839
X6.1271Y1.9778
X6.1353Y2.5433
X6.1453Y2.4463
X6.1463Y2.3444
X6.1467Y2.3967
X6.1469Y2.294
X6.1469Y2.2432
X6.1474Y2.4975
X6.1518Y1.6049
X6.1576Y1.664
X6.1585Y3.0646
X6.1587Y1.9451
X6.1602Y1.74
X6.165Y1.7656
X6.1696Y0.7976
X6.1696Y0.3685
X6.1705Y1.6371
X6.1713Y3.2134
X6.1718Y2.0988
X6.1722Y2.2176
X6.1724Y2.1655
X6.1727Y2.0761
X6.1727Y2.2419
X6.1728Y2.372
X6.1739Y1.7971
X6.1794Y1.5256
X6.1876Y1.6273
X6.1906Y0.8656
X6.1919Y1.5568
X6.1976Y2.1662
X6.1978Y2.2172
X6.1979Y2.2685
X6.198Y2.3711
X6.2061Y1.6419
X6.2062Y0.2661
X6.2134Y2.0577
X6.2158Y2.6047
X6.222Y2.6398
X6.2294Y2.452
X6.2298Y2.0043
X6.2327Y3.3346
X6.2331Y2.377
X6.2362Y1.5743
X6.2415Y2.1323
X6.2442Y1.607
X6.2459Y0.663
X6.2475Y1.6285
X6.2491Y2.0886
X6.251Y1.2094
X6.2529Y1.6562
X6.2544Y2.3094
X6.258Y2.1691
X6.2583Y2.3381
X6.2589Y3.0421
X6.2589Y2.9193
X6.2619Y2.3621
X6.2638Y2.2557
X6.2906Y2.4807
X6.2919Y3.0349
X6.2929Y2.6387
X6.3109Y2.5461
X6.311Y1.3681
X6.3235Y3.0654
X6.3318Y0.0193
X6.3364Y3.0862
X6.3428Y2.5591
X6.3459Y3.4059
X6.3554Y0.0591
X6.3575Y2.2089
X6.3593Y0.1992
X6.3602Y2.5217
X6.3634Y1.3728
X6.3727Y2.4748
X6.3728Y1.6429
X6.3748Y1.3
X6.3823Y3.4823
X6.3825Y0.3547
X6.3857Y0.7043
X6.387Y1.3736
X6.3896Y2.4094
X6.3955Y2.0157
X6.3957Y1.3
X6.3975Y1.972
X6.4018Y2.606
X6.4073Y0.6724
X6.4085Y2.2516
X6.429Y2.3161
X6.4329Y2.4492
X6.4377Y2.2882
X6.4459Y2.2189
X6.4486Y2.549
X6.4664Y2.1083
X6.4689Y2.0488
X6.4703Y2.1968
X6.4783Y2.5398
X6.4839Y2.5661
X6.4937Y2.0631
X6.4979Y0.4102
X6.4987Y0.235
X6.4995Y0.0378
X6.5062Y2.1083
X6.5161Y1.6563
X6.5203Y0.3063
X6.5217Y1.6795
X6.524Y2.2661
X6.5392Y0.3437
X6.5444Y3.7912
X6.5499Y0.3024
X6.5591Y1.6398
X6.5665Y2.6323
X6.5776Y1.667
X6.5822Y1.3842
X6.5858Y1.8846
X6.5874Y3.602
X6.5971Y0.226
X6.605Y0.4035
X6.6114Y2.0142
X6.6205Y1.2772
X6.6307Y0.635
X6.6417Y1.5815
X6.642Y0.2035
X6.6483Y1.2126
X6.6571Y0.6371
X6.6629Y0.2583
X6.6768Y2.0402
X6.691Y0.3605
X6.6971Y0.0024
X6.7012Y3.5787
X6.7046Y1.6016
X6.7083Y1.8886
X6.7094Y0.3676
X6.7322Y0.4319
X6.7366Y1.726
X6.7392Y0.1472
X6.7424Y2.1575
X6.7424Y1.8937
X6.7538Y0.6488
X6.7762Y2.1669
X6.7773Y1.259
X6.7815Y1.3299
X6.8007Y1.2295
X6.814Y1.4528
X6.8168Y0.2815
X6.8199Y1.5764
X6.8211Y0.0976
X6.8222Y1.29
X6.8329Y0.7039
X6.8404Y1.2484
X6.8445Y2.1854
X6.8546Y0.5807
X6.8689Y2.4685
X6.8701Y2.145
X6.8709Y2.1183
X6.8747Y1.2413
X6.8813Y1.6512
X6.8909Y0.8807
X6.8975Y0.7524
X6.9133Y0.5839
X6.9228Y3.6394
X6.926Y1.2512
X6.9282Y0.8732
X6.9558Y0.4634
X6.9638Y1.1945
X6.9685Y1.0213
X7.0043Y2.4213
X7.0173Y1.5791
X7.1024Y0.974
T2
X5.955Y3.2028
X5.955Y3.1161
X5.955Y3.0295
X5.955Y2.9429
X5.9983Y3.2461
X5.9983Y3.0728
X5.9983Y2.9862
T3
X5.9983Y3.1594
T4
X5.2613Y3.998
X5.2613Y3.7697
X5.3322Y3.998
X5.3322Y3.7697
X6.0266Y3.9154
X6.0266Y3.687
X6.0975Y3.9154
X6.0975Y3.687
X6.7917Y3.998
X6.7917Y3.7697
X6.8625Y3.998
X6.8625Y3.7697
T5
X4.98Y1.2992
X5.207Y0.4817
X5.207Y0.3451
X5.5914Y1.2992
X5.8184Y0.4817
X5.8184Y0.3451
X6.0835Y0.7087
X6.3105Y1.0722
X6.317Y0.3433
X6.9272Y0.3433
X7.1477Y1.2992
X7.1477Y0.7087
T6
X6.1231Y3.2635
X6.1231Y2.9255
T7
X5.1688Y3.9724
X5.1688Y3.7953
X5.4247Y3.9724
X5.4247Y3.7953
X5.4562Y0.7764
X5.4562Y0.6764
X5.4562Y0.5764
X5.4562Y0.4764
X5.4562Y0.3764
X5.5562Y0.7764
X5.5562Y0.6764
X5.5562Y0.5764
X5.5562Y0.4764
X5.5562Y0.3764
X5.9441Y3.8898
X5.9441Y3.7126
X5.9566Y3.5461
X5.9566Y3.4461
X6.0566Y3.5461
X6.0566Y3.4461
X6.1566Y3.5461
X6.1566Y3.4461
X6.18Y3.8898
X6.18Y3.7126
X6.2566Y3.5461
X6.2566Y3.4461
X6.6992Y3.9724
X6.6992Y3.7953
X6.9551Y3.9724
X6.9551Y3.7953
X7.1211Y3.013
X7.1211Y2.913
X7.1211Y2.813
X7.1211Y2.713
T8
X5.075Y1.2992
X5.207Y0.9137
X5.207Y0.5767
X5.207Y0.2501
X5.207Y-0.0869
X5.412Y1.2992
X5.6864Y1.2992
X5.8184Y0.9137
X5.8184Y0.5767
X5.8184Y0.2501
X5.8184Y-0.0869
X6.0234Y1.2992
X6.1785Y0.7087
X6.3105Y1.5042
X6.3105Y1.1672
X6.317Y0.2483
X6.317Y-0.0887
X6.5155Y0.7087
X6.7157Y1.2992
X6.7157Y0.7087
X6.9272Y0.2483
X6.9272Y-0.0887
X7.0527Y1.2992
X7.0527Y0.7087
T9
X5.085Y1.7735
X5.2004Y2.8042
X5.2818Y1.7735
X5.3972Y2.8042
X5.4787Y1.7735
X5.5941Y2.8042
X6.527Y2.7971
X6.6451Y1.7735
X6.7239Y2.7971
X6.842Y1.7735
X6.9207Y2.7971
X7.0388Y1.7735
T0
M30
