G04 #@! TF.GenerationSoftware,KiCad,Pcbnew,7.0.6-0*
G04 #@! TF.CreationDate,2024-04-10T13:52:38-07:00*
G04 #@! TF.ProjectId,Sampler-built,53616d70-6c65-4722-9d62-75696c742e6b,rev?*
G04 #@! TF.SameCoordinates,PXb71b00PY73f50f0*
G04 #@! TF.FileFunction,Soldermask,Bot*
G04 #@! TF.FilePolarity,Negative*
%FSLAX46Y46*%
G04 Gerber Fmt 4.6, Leading zero omitted, Abs format (unit mm)*
G04 Created by KiCad (PCBNEW 7.0.6-0) date 2024-04-10 13:52:38*
%MOMM*%
%LPD*%
G01*
G04 APERTURE LIST*
G04 Aperture macros list*
%AMRoundRect*
0 Rectangle with rounded corners*
0 $1 Rounding radius*
0 $2 $3 $4 $5 $6 $7 $8 $9 X,Y pos of 4 corners*
0 Add a 4 corners polygon primitive as box body*
4,1,4,$2,$3,$4,$5,$6,$7,$8,$9,$2,$3,0*
0 Add four circle primitives for the rounded corners*
1,1,$1+$1,$2,$3*
1,1,$1+$1,$4,$5*
1,1,$1+$1,$6,$7*
1,1,$1+$1,$8,$9*
0 Add four rect primitives between the rounded corners*
20,1,$1+$1,$2,$3,$4,$5,0*
20,1,$1+$1,$4,$5,$6,$7,0*
20,1,$1+$1,$6,$7,$8,$9,0*
20,1,$1+$1,$8,$9,$2,$3,0*%
G04 Aperture macros list end*
%ADD10C,1.700000*%
%ADD11O,1.700000X1.700000*%
%ADD12R,1.700000X1.700000*%
%ADD13C,1.930400*%
%ADD14RoundRect,0.147500X-0.172500X0.147500X-0.172500X-0.147500X0.172500X-0.147500X0.172500X0.147500X0*%
%ADD15C,1.800000*%
%ADD16C,1.500000*%
%ADD17O,1.397000X1.092200*%
%ADD18O,1.524000X1.524000*%
%ADD19R,1.000000X1.000000*%
%ADD20C,2.540000*%
%ADD21RoundRect,0.147500X0.172500X-0.147500X0.172500X0.147500X-0.172500X0.147500X-0.172500X-0.147500X0*%
%ADD22RoundRect,0.147500X0.017678X-0.226274X0.226274X-0.017678X-0.017678X0.226274X-0.226274X0.017678X0*%
G04 APERTURE END LIST*
D10*
G04 #@! TO.C,J4*
X151296648Y87529922D03*
X151296648Y90069922D03*
D11*
X153836648Y87529922D03*
X153836648Y90069922D03*
X156376648Y87529922D03*
X156376648Y90069922D03*
D10*
X158916648Y87529922D03*
X158916648Y90069922D03*
G04 #@! TD*
D12*
G04 #@! TO.C,J3*
X180876648Y76529922D03*
D11*
X180876648Y73989922D03*
X180876648Y71449922D03*
X180876648Y68909922D03*
G04 #@! TD*
G04 #@! TO.C,J10*
X141126648Y9559922D03*
X138586648Y9559922D03*
X141126648Y12099922D03*
X138586648Y12099922D03*
X141126648Y14639922D03*
X138586648Y14639922D03*
X141126648Y17179922D03*
X138586648Y17179922D03*
X141126648Y19719922D03*
X138586648Y19719922D03*
G04 #@! TD*
D13*
G04 #@! TO.C,J12*
X132258648Y23206922D03*
X132258648Y12234122D03*
X132258648Y14647122D03*
G04 #@! TD*
G04 #@! TO.C,J17*
X160450848Y-2252638D03*
X160450848Y8720162D03*
X160450848Y6307162D03*
G04 #@! TD*
G04 #@! TO.C,J16*
X175950848Y-2252638D03*
X175950848Y8720162D03*
X175950848Y6307162D03*
G04 #@! TD*
D14*
G04 #@! TO.C,C30*
X154416648Y39504922D03*
X154416648Y38534922D03*
G04 #@! TD*
D15*
G04 #@! TO.C,Bank_But1*
X176658648Y100899922D03*
X170158648Y100899922D03*
X176658648Y96399922D03*
X170158648Y96399922D03*
D16*
X174308648Y101549922D03*
X172508648Y101549922D03*
X172508648Y95749922D03*
X174308648Y95749922D03*
G04 #@! TD*
D17*
G04 #@! TO.C,SD1*
X152356648Y82449673D03*
X151256828Y81349853D03*
X152356648Y80249779D03*
X151256828Y79149959D03*
X152356648Y78049885D03*
X151256828Y76950065D03*
X152356648Y75849991D03*
X151256828Y74750171D03*
D18*
X155526568Y82892522D03*
X155526568Y74307322D03*
G04 #@! TD*
D19*
G04 #@! TO.C,C4*
X154630148Y59626600D03*
X154630148Y61326600D03*
G04 #@! TD*
D20*
G04 #@! TO.C,POT_LENGTH1*
X139158648Y45045922D03*
X134158648Y45045922D03*
X129158648Y45045922D03*
G04 #@! TD*
D13*
G04 #@! TO.C,J2*
X160286648Y38206922D03*
X160286648Y27234122D03*
X160286648Y29647122D03*
G04 #@! TD*
D20*
G04 #@! TO.C,POT_PITCH1*
X175786648Y71045922D03*
X170786648Y71045922D03*
X165786648Y71045922D03*
G04 #@! TD*
D13*
G04 #@! TO.C,J7*
X137465648Y32999922D03*
X126492848Y32999922D03*
X128905848Y32999922D03*
G04 #@! TD*
D14*
G04 #@! TO.C,C32*
X152704076Y39719376D03*
X152704076Y38749376D03*
G04 #@! TD*
D13*
G04 #@! TO.C,J6*
X152993648Y32999922D03*
X142020848Y32999922D03*
X144433848Y32999922D03*
G04 #@! TD*
G04 #@! TO.C,J15*
X147786648Y-2207078D03*
X147786648Y8765722D03*
X147786648Y6352722D03*
G04 #@! TD*
D15*
G04 #@! TO.C,REV_BUT1*
X137786648Y100899922D03*
X131286648Y100899922D03*
X137786648Y96399922D03*
X131286648Y96399922D03*
D16*
X135436648Y101549922D03*
X133636648Y101549922D03*
X133636648Y95749922D03*
X135436648Y95749922D03*
G04 #@! TD*
D14*
G04 #@! TO.C,C28*
X153139940Y42275632D03*
X153139940Y41305632D03*
G04 #@! TD*
D21*
G04 #@! TO.C,C33*
X152123940Y42070680D03*
X152123940Y43040680D03*
G04 #@! TD*
D13*
G04 #@! TO.C,J9*
X147786648Y23206922D03*
X147786648Y12234122D03*
X147786648Y14647122D03*
G04 #@! TD*
G04 #@! TO.C,J8*
X170579648Y32999922D03*
X181552448Y32999922D03*
X179139448Y32999922D03*
G04 #@! TD*
G04 #@! TO.C,J11*
X132258648Y-2207078D03*
X132258648Y8765722D03*
X132258648Y6352722D03*
G04 #@! TD*
G04 #@! TO.C,J13*
X170579648Y17999922D03*
X181552448Y17999922D03*
X179139448Y17999922D03*
G04 #@! TD*
D20*
G04 #@! TO.C,POT_START1*
X178786648Y45045922D03*
X173786648Y45045922D03*
X168786648Y45045922D03*
G04 #@! TD*
D13*
G04 #@! TO.C,J14*
X165493648Y17999922D03*
X154520848Y17999922D03*
X156933848Y17999922D03*
G04 #@! TD*
D15*
G04 #@! TO.C,PLAY_BUT1*
X156972648Y98799922D03*
X150980648Y98799922D03*
X156972648Y94299922D03*
X150980648Y94299922D03*
D16*
X154876648Y99449922D03*
X153076648Y99449922D03*
X153076648Y93649922D03*
X154876648Y93649922D03*
G04 #@! TD*
D22*
G04 #@! TO.C,C27*
X153267201Y44203653D03*
X153953095Y44889547D03*
G04 #@! TD*
D21*
G04 #@! TO.C,C31*
X151744972Y38806272D03*
X151744972Y39776272D03*
G04 #@! TD*
D20*
G04 #@! TO.C,POT_SAMP1*
X142090000Y71226000D03*
X137090000Y71226000D03*
X132090000Y71226000D03*
G04 #@! TD*
M02*
