G04 #@! TF.GenerationSoftware,KiCad,Pcbnew,7.0.6-0*
G04 #@! TF.CreationDate,2024-04-11T12:12:25-07:00*
G04 #@! TF.ProjectId,Sampler-built,53616d70-6c65-4722-9d62-75696c742e6b,rev?*
G04 #@! TF.SameCoordinates,PXb71b00PY73f50f0*
G04 #@! TF.FileFunction,Legend,Bot*
G04 #@! TF.FilePolarity,Positive*
%FSLAX46Y46*%
G04 Gerber Fmt 4.6, Leading zero omitted, Abs format (unit mm)*
G04 Created by KiCad (PCBNEW 7.0.6-0) date 2024-04-11 12:12:25*
%MOMM*%
%LPD*%
G01*
G04 APERTURE LIST*
G04 Aperture macros list*
%AMRoundRect*
0 Rectangle with rounded corners*
0 $1 Rounding radius*
0 $2 $3 $4 $5 $6 $7 $8 $9 X,Y pos of 4 corners*
0 Add a 4 corners polygon primitive as box body*
4,1,4,$2,$3,$4,$5,$6,$7,$8,$9,$2,$3,0*
0 Add four circle primitives for the rounded corners*
1,1,$1+$1,$2,$3*
1,1,$1+$1,$4,$5*
1,1,$1+$1,$6,$7*
1,1,$1+$1,$8,$9*
0 Add four rect primitives between the rounded corners*
20,1,$1+$1,$2,$3,$4,$5,0*
20,1,$1+$1,$4,$5,$6,$7,0*
20,1,$1+$1,$6,$7,$8,$9,0*
20,1,$1+$1,$8,$9,$2,$3,0*%
G04 Aperture macros list end*
%ADD10C,0.152400*%
%ADD11C,0.149860*%
%ADD12C,0.150000*%
%ADD13C,0.203200*%
%ADD14C,0.120000*%
%ADD15C,0.127000*%
%ADD16C,0.254000*%
%ADD17C,0.100000*%
%ADD18C,0.400000*%
%ADD19C,0.508000*%
%ADD20C,1.700000*%
%ADD21O,1.700000X1.700000*%
%ADD22R,1.700000X1.700000*%
%ADD23C,1.930400*%
%ADD24RoundRect,0.147500X-0.172500X0.147500X-0.172500X-0.147500X0.172500X-0.147500X0.172500X0.147500X0*%
%ADD25C,1.800000*%
%ADD26C,1.500000*%
%ADD27O,1.397000X1.092200*%
%ADD28O,1.524000X1.524000*%
%ADD29R,1.000000X1.000000*%
%ADD30C,2.540000*%
%ADD31RoundRect,0.147500X0.172500X-0.147500X0.172500X0.147500X-0.172500X0.147500X-0.172500X-0.147500X0*%
%ADD32RoundRect,0.147500X0.017678X-0.226274X0.226274X-0.017678X-0.017678X0.226274X-0.226274X0.017678X0*%
G04 APERTURE END LIST*
D10*
X130925620Y22445830D02*
X130925620Y21874402D01*
X130925620Y21874402D02*
X130983073Y21760116D01*
X130983073Y21760116D02*
X131097977Y21683925D01*
X131097977Y21683925D02*
X131270335Y21645830D01*
X131270335Y21645830D02*
X131385239Y21645830D01*
X129719120Y21645830D02*
X130408549Y21645830D01*
X130063835Y21645830D02*
X130063835Y22445830D01*
X130063835Y22445830D02*
X130178739Y22331545D01*
X130178739Y22331545D02*
X130293644Y22255354D01*
X130293644Y22255354D02*
X130408549Y22217259D01*
X129259501Y22369640D02*
X129202049Y22407735D01*
X129202049Y22407735D02*
X129087144Y22445830D01*
X129087144Y22445830D02*
X128799882Y22445830D01*
X128799882Y22445830D02*
X128684977Y22407735D01*
X128684977Y22407735D02*
X128627525Y22369640D01*
X128627525Y22369640D02*
X128570072Y22293449D01*
X128570072Y22293449D02*
X128570072Y22217259D01*
X128570072Y22217259D02*
X128627525Y22102973D01*
X128627525Y22102973D02*
X129316953Y21645830D01*
X129316953Y21645830D02*
X128570072Y21645830D01*
X158857760Y195830D02*
X158857760Y-375598D01*
X158857760Y-375598D02*
X158915213Y-489884D01*
X158915213Y-489884D02*
X159030117Y-566075D01*
X159030117Y-566075D02*
X159202475Y-604170D01*
X159202475Y-604170D02*
X159317379Y-604170D01*
X157651260Y-604170D02*
X158340689Y-604170D01*
X157995975Y-604170D02*
X157995975Y195830D01*
X157995975Y195830D02*
X158110879Y81545D01*
X158110879Y81545D02*
X158225784Y5354D01*
X158225784Y5354D02*
X158340689Y-32741D01*
X157249093Y195830D02*
X156444760Y195830D01*
X156444760Y195830D02*
X156961831Y-604170D01*
X179625620Y-14170D02*
X179625620Y-585598D01*
X179625620Y-585598D02*
X179683073Y-699884D01*
X179683073Y-699884D02*
X179797977Y-776075D01*
X179797977Y-776075D02*
X179970335Y-814170D01*
X179970335Y-814170D02*
X180085239Y-814170D01*
X178419120Y-814170D02*
X179108549Y-814170D01*
X178763835Y-814170D02*
X178763835Y-14170D01*
X178763835Y-14170D02*
X178878739Y-128455D01*
X178878739Y-128455D02*
X178993644Y-204646D01*
X178993644Y-204646D02*
X179108549Y-242741D01*
X177384977Y-14170D02*
X177614787Y-14170D01*
X177614787Y-14170D02*
X177729691Y-52265D01*
X177729691Y-52265D02*
X177787144Y-90360D01*
X177787144Y-90360D02*
X177902049Y-204646D01*
X177902049Y-204646D02*
X177959501Y-357027D01*
X177959501Y-357027D02*
X177959501Y-661789D01*
X177959501Y-661789D02*
X177902049Y-737979D01*
X177902049Y-737979D02*
X177844596Y-776075D01*
X177844596Y-776075D02*
X177729691Y-814170D01*
X177729691Y-814170D02*
X177499882Y-814170D01*
X177499882Y-814170D02*
X177384977Y-776075D01*
X177384977Y-776075D02*
X177327525Y-737979D01*
X177327525Y-737979D02*
X177270072Y-661789D01*
X177270072Y-661789D02*
X177270072Y-471313D01*
X177270072Y-471313D02*
X177327525Y-395122D01*
X177327525Y-395122D02*
X177384977Y-357027D01*
X177384977Y-357027D02*
X177499882Y-318932D01*
X177499882Y-318932D02*
X177729691Y-318932D01*
X177729691Y-318932D02*
X177844596Y-357027D01*
X177844596Y-357027D02*
X177902049Y-395122D01*
X177902049Y-395122D02*
X177959501Y-471313D01*
D11*
X155673892Y41171693D02*
X155705219Y41207374D01*
X155705219Y41207374D02*
X155736545Y41314417D01*
X155736545Y41314417D02*
X155736545Y41385779D01*
X155736545Y41385779D02*
X155705219Y41492822D01*
X155705219Y41492822D02*
X155642565Y41564184D01*
X155642565Y41564184D02*
X155579912Y41599865D01*
X155579912Y41599865D02*
X155454605Y41635546D01*
X155454605Y41635546D02*
X155360625Y41635546D01*
X155360625Y41635546D02*
X155235319Y41599865D01*
X155235319Y41599865D02*
X155172665Y41564184D01*
X155172665Y41564184D02*
X155110012Y41492822D01*
X155110012Y41492822D02*
X155078685Y41385779D01*
X155078685Y41385779D02*
X155078685Y41314417D01*
X155078685Y41314417D02*
X155110012Y41207374D01*
X155110012Y41207374D02*
X155141339Y41171693D01*
X155078685Y40921927D02*
X155078685Y40458074D01*
X155078685Y40458074D02*
X155329299Y40707841D01*
X155329299Y40707841D02*
X155329299Y40600798D01*
X155329299Y40600798D02*
X155360625Y40529436D01*
X155360625Y40529436D02*
X155391952Y40493755D01*
X155391952Y40493755D02*
X155454605Y40458074D01*
X155454605Y40458074D02*
X155611239Y40458074D01*
X155611239Y40458074D02*
X155673892Y40493755D01*
X155673892Y40493755D02*
X155705219Y40529436D01*
X155705219Y40529436D02*
X155736545Y40600798D01*
X155736545Y40600798D02*
X155736545Y40814884D01*
X155736545Y40814884D02*
X155705219Y40886246D01*
X155705219Y40886246D02*
X155673892Y40921927D01*
X155078685Y39994222D02*
X155078685Y39922860D01*
X155078685Y39922860D02*
X155110012Y39851498D01*
X155110012Y39851498D02*
X155141339Y39815817D01*
X155141339Y39815817D02*
X155203992Y39780136D01*
X155203992Y39780136D02*
X155329299Y39744455D01*
X155329299Y39744455D02*
X155485932Y39744455D01*
X155485932Y39744455D02*
X155611239Y39780136D01*
X155611239Y39780136D02*
X155673892Y39815817D01*
X155673892Y39815817D02*
X155705219Y39851498D01*
X155705219Y39851498D02*
X155736545Y39922860D01*
X155736545Y39922860D02*
X155736545Y39994222D01*
X155736545Y39994222D02*
X155705219Y40065584D01*
X155705219Y40065584D02*
X155673892Y40101265D01*
X155673892Y40101265D02*
X155611239Y40136946D01*
X155611239Y40136946D02*
X155485932Y40172627D01*
X155485932Y40172627D02*
X155329299Y40172627D01*
X155329299Y40172627D02*
X155203992Y40136946D01*
X155203992Y40136946D02*
X155141339Y40101265D01*
X155141339Y40101265D02*
X155110012Y40065584D01*
X155110012Y40065584D02*
X155078685Y39994222D01*
D12*
X176773333Y103897536D02*
X176630476Y103858831D01*
X176630476Y103858831D02*
X176582857Y103820127D01*
X176582857Y103820127D02*
X176535238Y103742717D01*
X176535238Y103742717D02*
X176535238Y103626603D01*
X176535238Y103626603D02*
X176582857Y103549193D01*
X176582857Y103549193D02*
X176630476Y103510488D01*
X176630476Y103510488D02*
X176725714Y103471784D01*
X176725714Y103471784D02*
X177106666Y103471784D01*
X177106666Y103471784D02*
X177106666Y104284584D01*
X177106666Y104284584D02*
X176773333Y104284584D01*
X176773333Y104284584D02*
X176678095Y104245879D01*
X176678095Y104245879D02*
X176630476Y104207174D01*
X176630476Y104207174D02*
X176582857Y104129765D01*
X176582857Y104129765D02*
X176582857Y104052355D01*
X176582857Y104052355D02*
X176630476Y103974946D01*
X176630476Y103974946D02*
X176678095Y103936241D01*
X176678095Y103936241D02*
X176773333Y103897536D01*
X176773333Y103897536D02*
X177106666Y103897536D01*
X175678095Y103471784D02*
X175678095Y103897536D01*
X175678095Y103897536D02*
X175725714Y103974946D01*
X175725714Y103974946D02*
X175820952Y104013650D01*
X175820952Y104013650D02*
X176011428Y104013650D01*
X176011428Y104013650D02*
X176106666Y103974946D01*
X175678095Y103510488D02*
X175773333Y103471784D01*
X175773333Y103471784D02*
X176011428Y103471784D01*
X176011428Y103471784D02*
X176106666Y103510488D01*
X176106666Y103510488D02*
X176154285Y103587898D01*
X176154285Y103587898D02*
X176154285Y103665308D01*
X176154285Y103665308D02*
X176106666Y103742717D01*
X176106666Y103742717D02*
X176011428Y103781422D01*
X176011428Y103781422D02*
X175773333Y103781422D01*
X175773333Y103781422D02*
X175678095Y103820127D01*
X175201904Y104013650D02*
X175201904Y103471784D01*
X175201904Y103936241D02*
X175154285Y103974946D01*
X175154285Y103974946D02*
X175059047Y104013650D01*
X175059047Y104013650D02*
X174916190Y104013650D01*
X174916190Y104013650D02*
X174820952Y103974946D01*
X174820952Y103974946D02*
X174773333Y103897536D01*
X174773333Y103897536D02*
X174773333Y103471784D01*
X174297142Y103471784D02*
X174297142Y104284584D01*
X174201904Y103781422D02*
X173916190Y103471784D01*
X173916190Y104013650D02*
X174297142Y103704012D01*
X173725714Y103394374D02*
X172963809Y103394374D01*
X172392380Y103897536D02*
X172249523Y103858831D01*
X172249523Y103858831D02*
X172201904Y103820127D01*
X172201904Y103820127D02*
X172154285Y103742717D01*
X172154285Y103742717D02*
X172154285Y103626603D01*
X172154285Y103626603D02*
X172201904Y103549193D01*
X172201904Y103549193D02*
X172249523Y103510488D01*
X172249523Y103510488D02*
X172344761Y103471784D01*
X172344761Y103471784D02*
X172725713Y103471784D01*
X172725713Y103471784D02*
X172725713Y104284584D01*
X172725713Y104284584D02*
X172392380Y104284584D01*
X172392380Y104284584D02*
X172297142Y104245879D01*
X172297142Y104245879D02*
X172249523Y104207174D01*
X172249523Y104207174D02*
X172201904Y104129765D01*
X172201904Y104129765D02*
X172201904Y104052355D01*
X172201904Y104052355D02*
X172249523Y103974946D01*
X172249523Y103974946D02*
X172297142Y103936241D01*
X172297142Y103936241D02*
X172392380Y103897536D01*
X172392380Y103897536D02*
X172725713Y103897536D01*
X171297142Y104013650D02*
X171297142Y103471784D01*
X171725713Y104013650D02*
X171725713Y103587898D01*
X171725713Y103587898D02*
X171678094Y103510488D01*
X171678094Y103510488D02*
X171582856Y103471784D01*
X171582856Y103471784D02*
X171439999Y103471784D01*
X171439999Y103471784D02*
X171344761Y103510488D01*
X171344761Y103510488D02*
X171297142Y103549193D01*
X170963808Y104013650D02*
X170582856Y104013650D01*
X170820951Y104284584D02*
X170820951Y103587898D01*
X170820951Y103587898D02*
X170773332Y103510488D01*
X170773332Y103510488D02*
X170678094Y103471784D01*
X170678094Y103471784D02*
X170582856Y103471784D01*
X169725713Y103471784D02*
X170297141Y103471784D01*
X170011427Y103471784D02*
X170011427Y104284584D01*
X170011427Y104284584D02*
X170106665Y104168469D01*
X170106665Y104168469D02*
X170201903Y104091060D01*
X170201903Y104091060D02*
X170297141Y104052355D01*
X158514285Y70960488D02*
X158342857Y70921784D01*
X158342857Y70921784D02*
X158057142Y70921784D01*
X158057142Y70921784D02*
X157942857Y70960488D01*
X157942857Y70960488D02*
X157885714Y70999193D01*
X157885714Y70999193D02*
X157828571Y71076603D01*
X157828571Y71076603D02*
X157828571Y71154012D01*
X157828571Y71154012D02*
X157885714Y71231422D01*
X157885714Y71231422D02*
X157942857Y71270127D01*
X157942857Y71270127D02*
X158057142Y71308831D01*
X158057142Y71308831D02*
X158285714Y71347536D01*
X158285714Y71347536D02*
X158399999Y71386241D01*
X158399999Y71386241D02*
X158457142Y71424946D01*
X158457142Y71424946D02*
X158514285Y71502355D01*
X158514285Y71502355D02*
X158514285Y71579765D01*
X158514285Y71579765D02*
X158457142Y71657174D01*
X158457142Y71657174D02*
X158399999Y71695879D01*
X158399999Y71695879D02*
X158285714Y71734584D01*
X158285714Y71734584D02*
X157999999Y71734584D01*
X157999999Y71734584D02*
X157828571Y71695879D01*
X157314285Y70921784D02*
X157314285Y71734584D01*
X157314285Y71734584D02*
X157028571Y71734584D01*
X157028571Y71734584D02*
X156857142Y71695879D01*
X156857142Y71695879D02*
X156742857Y71618469D01*
X156742857Y71618469D02*
X156685714Y71541060D01*
X156685714Y71541060D02*
X156628571Y71386241D01*
X156628571Y71386241D02*
X156628571Y71270127D01*
X156628571Y71270127D02*
X156685714Y71115308D01*
X156685714Y71115308D02*
X156742857Y71037898D01*
X156742857Y71037898D02*
X156857142Y70960488D01*
X156857142Y70960488D02*
X157028571Y70921784D01*
X157028571Y70921784D02*
X157314285Y70921784D01*
X155485714Y70921784D02*
X156171428Y70921784D01*
X155828571Y70921784D02*
X155828571Y71734584D01*
X155828571Y71734584D02*
X155942857Y71618469D01*
X155942857Y71618469D02*
X156057142Y71541060D01*
X156057142Y71541060D02*
X156171428Y71502355D01*
X155060997Y62978334D02*
X155091950Y63009286D01*
X155091950Y63009286D02*
X155122902Y63102144D01*
X155122902Y63102144D02*
X155122902Y63164048D01*
X155122902Y63164048D02*
X155091950Y63256905D01*
X155091950Y63256905D02*
X155030045Y63318810D01*
X155030045Y63318810D02*
X154968140Y63349763D01*
X154968140Y63349763D02*
X154844330Y63380715D01*
X154844330Y63380715D02*
X154751473Y63380715D01*
X154751473Y63380715D02*
X154627664Y63349763D01*
X154627664Y63349763D02*
X154565759Y63318810D01*
X154565759Y63318810D02*
X154503854Y63256905D01*
X154503854Y63256905D02*
X154472902Y63164048D01*
X154472902Y63164048D02*
X154472902Y63102144D01*
X154472902Y63102144D02*
X154503854Y63009286D01*
X154503854Y63009286D02*
X154534807Y62978334D01*
X154689569Y62421191D02*
X155122902Y62421191D01*
X154441950Y62575953D02*
X154906235Y62730715D01*
X154906235Y62730715D02*
X154906235Y62328334D01*
D10*
X140252904Y42376421D02*
X140252904Y43189221D01*
X140252904Y43189221D02*
X139793285Y43189221D01*
X139793285Y43189221D02*
X139678380Y43150516D01*
X139678380Y43150516D02*
X139620927Y43111811D01*
X139620927Y43111811D02*
X139563475Y43034402D01*
X139563475Y43034402D02*
X139563475Y42918287D01*
X139563475Y42918287D02*
X139620927Y42840878D01*
X139620927Y42840878D02*
X139678380Y42802173D01*
X139678380Y42802173D02*
X139793285Y42763468D01*
X139793285Y42763468D02*
X140252904Y42763468D01*
X138816594Y43189221D02*
X138586785Y43189221D01*
X138586785Y43189221D02*
X138471880Y43150516D01*
X138471880Y43150516D02*
X138356975Y43073106D01*
X138356975Y43073106D02*
X138299523Y42918287D01*
X138299523Y42918287D02*
X138299523Y42647354D01*
X138299523Y42647354D02*
X138356975Y42492535D01*
X138356975Y42492535D02*
X138471880Y42415125D01*
X138471880Y42415125D02*
X138586785Y42376421D01*
X138586785Y42376421D02*
X138816594Y42376421D01*
X138816594Y42376421D02*
X138931499Y42415125D01*
X138931499Y42415125D02*
X139046404Y42492535D01*
X139046404Y42492535D02*
X139103856Y42647354D01*
X139103856Y42647354D02*
X139103856Y42918287D01*
X139103856Y42918287D02*
X139046404Y43073106D01*
X139046404Y43073106D02*
X138931499Y43150516D01*
X138931499Y43150516D02*
X138816594Y43189221D01*
X137954809Y43189221D02*
X137265380Y43189221D01*
X137610094Y42376421D02*
X137610094Y43189221D01*
X137150476Y42299011D02*
X136231237Y42299011D01*
X135369452Y42376421D02*
X135943976Y42376421D01*
X135943976Y42376421D02*
X135943976Y43189221D01*
X134967286Y42802173D02*
X134565119Y42802173D01*
X134392762Y42376421D02*
X134967286Y42376421D01*
X134967286Y42376421D02*
X134967286Y43189221D01*
X134967286Y43189221D02*
X134392762Y43189221D01*
X133875691Y42376421D02*
X133875691Y43189221D01*
X133875691Y43189221D02*
X133186262Y42376421D01*
X133186262Y42376421D02*
X133186262Y43189221D01*
X131979762Y43150516D02*
X132094667Y43189221D01*
X132094667Y43189221D02*
X132267024Y43189221D01*
X132267024Y43189221D02*
X132439381Y43150516D01*
X132439381Y43150516D02*
X132554286Y43073106D01*
X132554286Y43073106D02*
X132611739Y42995697D01*
X132611739Y42995697D02*
X132669191Y42840878D01*
X132669191Y42840878D02*
X132669191Y42724764D01*
X132669191Y42724764D02*
X132611739Y42569945D01*
X132611739Y42569945D02*
X132554286Y42492535D01*
X132554286Y42492535D02*
X132439381Y42415125D01*
X132439381Y42415125D02*
X132267024Y42376421D01*
X132267024Y42376421D02*
X132152120Y42376421D01*
X132152120Y42376421D02*
X131979762Y42415125D01*
X131979762Y42415125D02*
X131922310Y42453830D01*
X131922310Y42453830D02*
X131922310Y42724764D01*
X131922310Y42724764D02*
X132152120Y42724764D01*
X131577596Y43189221D02*
X130888167Y43189221D01*
X131232881Y42376421D02*
X131232881Y43189221D01*
X130486001Y42376421D02*
X130486001Y43189221D01*
X130486001Y42802173D02*
X129796572Y42802173D01*
X129796572Y42376421D02*
X129796572Y43189221D01*
X128590072Y42376421D02*
X129279501Y42376421D01*
X128934787Y42376421D02*
X128934787Y43189221D01*
X128934787Y43189221D02*
X129049691Y43073106D01*
X129049691Y43073106D02*
X129164596Y42995697D01*
X129164596Y42995697D02*
X129279501Y42956992D01*
X163736572Y30100197D02*
X163736572Y29519625D01*
X163736572Y29519625D02*
X163794025Y29403511D01*
X163794025Y29403511D02*
X163908929Y29326101D01*
X163908929Y29326101D02*
X164081287Y29287397D01*
X164081287Y29287397D02*
X164196191Y29287397D01*
X163219501Y30022787D02*
X163162049Y30061492D01*
X163162049Y30061492D02*
X163047144Y30100197D01*
X163047144Y30100197D02*
X162759882Y30100197D01*
X162759882Y30100197D02*
X162644977Y30061492D01*
X162644977Y30061492D02*
X162587525Y30022787D01*
X162587525Y30022787D02*
X162530072Y29945378D01*
X162530072Y29945378D02*
X162530072Y29867968D01*
X162530072Y29867968D02*
X162587525Y29751854D01*
X162587525Y29751854D02*
X163276953Y29287397D01*
X163276953Y29287397D02*
X162530072Y29287397D01*
D12*
X177040112Y74306296D02*
X177040112Y75119096D01*
X177040112Y75119096D02*
X176659160Y75119096D01*
X176659160Y75119096D02*
X176563922Y75080391D01*
X176563922Y75080391D02*
X176516303Y75041686D01*
X176516303Y75041686D02*
X176468684Y74964277D01*
X176468684Y74964277D02*
X176468684Y74848162D01*
X176468684Y74848162D02*
X176516303Y74770753D01*
X176516303Y74770753D02*
X176563922Y74732048D01*
X176563922Y74732048D02*
X176659160Y74693343D01*
X176659160Y74693343D02*
X177040112Y74693343D01*
X175849636Y75119096D02*
X175659160Y75119096D01*
X175659160Y75119096D02*
X175563922Y75080391D01*
X175563922Y75080391D02*
X175468684Y75002981D01*
X175468684Y75002981D02*
X175421065Y74848162D01*
X175421065Y74848162D02*
X175421065Y74577229D01*
X175421065Y74577229D02*
X175468684Y74422410D01*
X175468684Y74422410D02*
X175563922Y74345000D01*
X175563922Y74345000D02*
X175659160Y74306296D01*
X175659160Y74306296D02*
X175849636Y74306296D01*
X175849636Y74306296D02*
X175944874Y74345000D01*
X175944874Y74345000D02*
X176040112Y74422410D01*
X176040112Y74422410D02*
X176087731Y74577229D01*
X176087731Y74577229D02*
X176087731Y74848162D01*
X176087731Y74848162D02*
X176040112Y75002981D01*
X176040112Y75002981D02*
X175944874Y75080391D01*
X175944874Y75080391D02*
X175849636Y75119096D01*
X175135350Y75119096D02*
X174563922Y75119096D01*
X174849636Y74306296D02*
X174849636Y75119096D01*
X174468684Y74228886D02*
X173706779Y74228886D01*
X173468683Y74306296D02*
X173468683Y75119096D01*
X173468683Y75119096D02*
X173087731Y75119096D01*
X173087731Y75119096D02*
X172992493Y75080391D01*
X172992493Y75080391D02*
X172944874Y75041686D01*
X172944874Y75041686D02*
X172897255Y74964277D01*
X172897255Y74964277D02*
X172897255Y74848162D01*
X172897255Y74848162D02*
X172944874Y74770753D01*
X172944874Y74770753D02*
X172992493Y74732048D01*
X172992493Y74732048D02*
X173087731Y74693343D01*
X173087731Y74693343D02*
X173468683Y74693343D01*
X172468683Y74306296D02*
X172468683Y75119096D01*
X172135350Y75119096D02*
X171563922Y75119096D01*
X171849636Y74306296D02*
X171849636Y75119096D01*
X170659160Y74383705D02*
X170706779Y74345000D01*
X170706779Y74345000D02*
X170849636Y74306296D01*
X170849636Y74306296D02*
X170944874Y74306296D01*
X170944874Y74306296D02*
X171087731Y74345000D01*
X171087731Y74345000D02*
X171182969Y74422410D01*
X171182969Y74422410D02*
X171230588Y74499820D01*
X171230588Y74499820D02*
X171278207Y74654639D01*
X171278207Y74654639D02*
X171278207Y74770753D01*
X171278207Y74770753D02*
X171230588Y74925572D01*
X171230588Y74925572D02*
X171182969Y75002981D01*
X171182969Y75002981D02*
X171087731Y75080391D01*
X171087731Y75080391D02*
X170944874Y75119096D01*
X170944874Y75119096D02*
X170849636Y75119096D01*
X170849636Y75119096D02*
X170706779Y75080391D01*
X170706779Y75080391D02*
X170659160Y75041686D01*
X170230588Y74306296D02*
X170230588Y75119096D01*
X170230588Y74732048D02*
X169659160Y74732048D01*
X169659160Y74306296D02*
X169659160Y75119096D01*
X168659160Y74306296D02*
X169230588Y74306296D01*
X168944874Y74306296D02*
X168944874Y75119096D01*
X168944874Y75119096D02*
X169040112Y75002981D01*
X169040112Y75002981D02*
X169135350Y74925572D01*
X169135350Y74925572D02*
X169230588Y74886867D01*
D13*
X171947790Y82594282D02*
X172044552Y82555577D01*
X172044552Y82555577D02*
X172334838Y82516873D01*
X172334838Y82516873D02*
X172528362Y82516873D01*
X172528362Y82516873D02*
X172818647Y82555577D01*
X172818647Y82555577D02*
X173012171Y82632987D01*
X173012171Y82632987D02*
X173108933Y82710397D01*
X173108933Y82710397D02*
X173205695Y82865216D01*
X173205695Y82865216D02*
X173205695Y82981330D01*
X173205695Y82981330D02*
X173108933Y83136149D01*
X173108933Y83136149D02*
X173012171Y83213558D01*
X173012171Y83213558D02*
X172818647Y83290968D01*
X172818647Y83290968D02*
X172528362Y83329673D01*
X172528362Y83329673D02*
X172334838Y83329673D01*
X172334838Y83329673D02*
X172044552Y83290968D01*
X172044552Y83290968D02*
X171947790Y83252263D01*
X171367219Y83329673D02*
X170206076Y83329673D01*
X170786647Y82516873D02*
X170786647Y83329673D01*
X168367600Y82516873D02*
X169044933Y82903920D01*
X169528743Y82516873D02*
X169528743Y83329673D01*
X169528743Y83329673D02*
X168754648Y83329673D01*
X168754648Y83329673D02*
X168561124Y83290968D01*
X168561124Y83290968D02*
X168464362Y83252263D01*
X168464362Y83252263D02*
X168367600Y83174854D01*
X168367600Y83174854D02*
X168367600Y83058739D01*
X168367600Y83058739D02*
X168464362Y82981330D01*
X168464362Y82981330D02*
X168561124Y82942625D01*
X168561124Y82942625D02*
X168754648Y82903920D01*
X168754648Y82903920D02*
X169528743Y82903920D01*
D10*
X129956408Y29802355D02*
X129956408Y29221783D01*
X129956408Y29221783D02*
X130013861Y29105669D01*
X130013861Y29105669D02*
X130128765Y29028259D01*
X130128765Y29028259D02*
X130301123Y28989555D01*
X130301123Y28989555D02*
X130416027Y28989555D01*
X129496789Y29802355D02*
X128692456Y29802355D01*
X128692456Y29802355D02*
X129209527Y28989555D01*
D11*
X150873892Y39681693D02*
X150905219Y39717374D01*
X150905219Y39717374D02*
X150936545Y39824417D01*
X150936545Y39824417D02*
X150936545Y39895779D01*
X150936545Y39895779D02*
X150905219Y40002822D01*
X150905219Y40002822D02*
X150842565Y40074184D01*
X150842565Y40074184D02*
X150779912Y40109865D01*
X150779912Y40109865D02*
X150654605Y40145546D01*
X150654605Y40145546D02*
X150560625Y40145546D01*
X150560625Y40145546D02*
X150435319Y40109865D01*
X150435319Y40109865D02*
X150372665Y40074184D01*
X150372665Y40074184D02*
X150310012Y40002822D01*
X150310012Y40002822D02*
X150278685Y39895779D01*
X150278685Y39895779D02*
X150278685Y39824417D01*
X150278685Y39824417D02*
X150310012Y39717374D01*
X150310012Y39717374D02*
X150341339Y39681693D01*
X150278685Y39431927D02*
X150278685Y38968074D01*
X150278685Y38968074D02*
X150529299Y39217841D01*
X150529299Y39217841D02*
X150529299Y39110798D01*
X150529299Y39110798D02*
X150560625Y39039436D01*
X150560625Y39039436D02*
X150591952Y39003755D01*
X150591952Y39003755D02*
X150654605Y38968074D01*
X150654605Y38968074D02*
X150811239Y38968074D01*
X150811239Y38968074D02*
X150873892Y39003755D01*
X150873892Y39003755D02*
X150905219Y39039436D01*
X150905219Y39039436D02*
X150936545Y39110798D01*
X150936545Y39110798D02*
X150936545Y39324884D01*
X150936545Y39324884D02*
X150905219Y39396246D01*
X150905219Y39396246D02*
X150873892Y39431927D01*
X150341339Y38682627D02*
X150310012Y38646946D01*
X150310012Y38646946D02*
X150278685Y38575584D01*
X150278685Y38575584D02*
X150278685Y38397179D01*
X150278685Y38397179D02*
X150310012Y38325817D01*
X150310012Y38325817D02*
X150341339Y38290136D01*
X150341339Y38290136D02*
X150403992Y38254455D01*
X150403992Y38254455D02*
X150466645Y38254455D01*
X150466645Y38254455D02*
X150560625Y38290136D01*
X150560625Y38290136D02*
X150936545Y38718308D01*
X150936545Y38718308D02*
X150936545Y38254455D01*
D10*
X145579408Y29877355D02*
X145579408Y29296783D01*
X145579408Y29296783D02*
X145636861Y29180669D01*
X145636861Y29180669D02*
X145751765Y29103259D01*
X145751765Y29103259D02*
X145924123Y29064555D01*
X145924123Y29064555D02*
X146039027Y29064555D01*
X144487813Y29877355D02*
X144717623Y29877355D01*
X144717623Y29877355D02*
X144832527Y29838650D01*
X144832527Y29838650D02*
X144889980Y29799945D01*
X144889980Y29799945D02*
X145004885Y29683831D01*
X145004885Y29683831D02*
X145062337Y29529012D01*
X145062337Y29529012D02*
X145062337Y29219374D01*
X145062337Y29219374D02*
X145004885Y29141964D01*
X145004885Y29141964D02*
X144947432Y29103259D01*
X144947432Y29103259D02*
X144832527Y29064555D01*
X144832527Y29064555D02*
X144602718Y29064555D01*
X144602718Y29064555D02*
X144487813Y29103259D01*
X144487813Y29103259D02*
X144430361Y29141964D01*
X144430361Y29141964D02*
X144372908Y29219374D01*
X144372908Y29219374D02*
X144372908Y29412898D01*
X144372908Y29412898D02*
X144430361Y29490307D01*
X144430361Y29490307D02*
X144487813Y29529012D01*
X144487813Y29529012D02*
X144602718Y29567717D01*
X144602718Y29567717D02*
X144832527Y29567717D01*
X144832527Y29567717D02*
X144947432Y29529012D01*
X144947432Y29529012D02*
X145004885Y29490307D01*
X145004885Y29490307D02*
X145062337Y29412898D01*
X146355620Y265830D02*
X146355620Y-305598D01*
X146355620Y-305598D02*
X146413073Y-419884D01*
X146413073Y-419884D02*
X146527977Y-496075D01*
X146527977Y-496075D02*
X146700335Y-534170D01*
X146700335Y-534170D02*
X146815239Y-534170D01*
X145149120Y-534170D02*
X145838549Y-534170D01*
X145493835Y-534170D02*
X145493835Y265830D01*
X145493835Y265830D02*
X145608739Y151545D01*
X145608739Y151545D02*
X145723644Y75354D01*
X145723644Y75354D02*
X145838549Y37259D01*
X144057525Y265830D02*
X144632049Y265830D01*
X144632049Y265830D02*
X144689501Y-115122D01*
X144689501Y-115122D02*
X144632049Y-77027D01*
X144632049Y-77027D02*
X144517144Y-38932D01*
X144517144Y-38932D02*
X144229882Y-38932D01*
X144229882Y-38932D02*
X144114977Y-77027D01*
X144114977Y-77027D02*
X144057525Y-115122D01*
X144057525Y-115122D02*
X144000072Y-191313D01*
X144000072Y-191313D02*
X144000072Y-381789D01*
X144000072Y-381789D02*
X144057525Y-457979D01*
X144057525Y-457979D02*
X144114977Y-496075D01*
X144114977Y-496075D02*
X144229882Y-534170D01*
X144229882Y-534170D02*
X144517144Y-534170D01*
X144517144Y-534170D02*
X144632049Y-496075D01*
X144632049Y-496075D02*
X144689501Y-457979D01*
D12*
X137763333Y103441784D02*
X138096666Y103828831D01*
X138334761Y103441784D02*
X138334761Y104254584D01*
X138334761Y104254584D02*
X137953809Y104254584D01*
X137953809Y104254584D02*
X137858571Y104215879D01*
X137858571Y104215879D02*
X137810952Y104177174D01*
X137810952Y104177174D02*
X137763333Y104099765D01*
X137763333Y104099765D02*
X137763333Y103983650D01*
X137763333Y103983650D02*
X137810952Y103906241D01*
X137810952Y103906241D02*
X137858571Y103867536D01*
X137858571Y103867536D02*
X137953809Y103828831D01*
X137953809Y103828831D02*
X138334761Y103828831D01*
X137334761Y103867536D02*
X137001428Y103867536D01*
X136858571Y103441784D02*
X137334761Y103441784D01*
X137334761Y103441784D02*
X137334761Y104254584D01*
X137334761Y104254584D02*
X136858571Y104254584D01*
X136572856Y104254584D02*
X136239523Y103441784D01*
X136239523Y103441784D02*
X135906190Y104254584D01*
X135810952Y103364374D02*
X135049047Y103364374D01*
X134477618Y103867536D02*
X134334761Y103828831D01*
X134334761Y103828831D02*
X134287142Y103790127D01*
X134287142Y103790127D02*
X134239523Y103712717D01*
X134239523Y103712717D02*
X134239523Y103596603D01*
X134239523Y103596603D02*
X134287142Y103519193D01*
X134287142Y103519193D02*
X134334761Y103480488D01*
X134334761Y103480488D02*
X134429999Y103441784D01*
X134429999Y103441784D02*
X134810951Y103441784D01*
X134810951Y103441784D02*
X134810951Y104254584D01*
X134810951Y104254584D02*
X134477618Y104254584D01*
X134477618Y104254584D02*
X134382380Y104215879D01*
X134382380Y104215879D02*
X134334761Y104177174D01*
X134334761Y104177174D02*
X134287142Y104099765D01*
X134287142Y104099765D02*
X134287142Y104022355D01*
X134287142Y104022355D02*
X134334761Y103944946D01*
X134334761Y103944946D02*
X134382380Y103906241D01*
X134382380Y103906241D02*
X134477618Y103867536D01*
X134477618Y103867536D02*
X134810951Y103867536D01*
X133810951Y104254584D02*
X133810951Y103596603D01*
X133810951Y103596603D02*
X133763332Y103519193D01*
X133763332Y103519193D02*
X133715713Y103480488D01*
X133715713Y103480488D02*
X133620475Y103441784D01*
X133620475Y103441784D02*
X133429999Y103441784D01*
X133429999Y103441784D02*
X133334761Y103480488D01*
X133334761Y103480488D02*
X133287142Y103519193D01*
X133287142Y103519193D02*
X133239523Y103596603D01*
X133239523Y103596603D02*
X133239523Y104254584D01*
X132906189Y104254584D02*
X132334761Y104254584D01*
X132620475Y103441784D02*
X132620475Y104254584D01*
X131477618Y103441784D02*
X132049046Y103441784D01*
X131763332Y103441784D02*
X131763332Y104254584D01*
X131763332Y104254584D02*
X131858570Y104138469D01*
X131858570Y104138469D02*
X131953808Y104061060D01*
X131953808Y104061060D02*
X132049046Y104022355D01*
D11*
X154583892Y43151693D02*
X154615219Y43187374D01*
X154615219Y43187374D02*
X154646545Y43294417D01*
X154646545Y43294417D02*
X154646545Y43365779D01*
X154646545Y43365779D02*
X154615219Y43472822D01*
X154615219Y43472822D02*
X154552565Y43544184D01*
X154552565Y43544184D02*
X154489912Y43579865D01*
X154489912Y43579865D02*
X154364605Y43615546D01*
X154364605Y43615546D02*
X154270625Y43615546D01*
X154270625Y43615546D02*
X154145319Y43579865D01*
X154145319Y43579865D02*
X154082665Y43544184D01*
X154082665Y43544184D02*
X154020012Y43472822D01*
X154020012Y43472822D02*
X153988685Y43365779D01*
X153988685Y43365779D02*
X153988685Y43294417D01*
X153988685Y43294417D02*
X154020012Y43187374D01*
X154020012Y43187374D02*
X154051339Y43151693D01*
X154051339Y42866246D02*
X154020012Y42830565D01*
X154020012Y42830565D02*
X153988685Y42759203D01*
X153988685Y42759203D02*
X153988685Y42580798D01*
X153988685Y42580798D02*
X154020012Y42509436D01*
X154020012Y42509436D02*
X154051339Y42473755D01*
X154051339Y42473755D02*
X154113992Y42438074D01*
X154113992Y42438074D02*
X154176645Y42438074D01*
X154176645Y42438074D02*
X154270625Y42473755D01*
X154270625Y42473755D02*
X154646545Y42901927D01*
X154646545Y42901927D02*
X154646545Y42438074D01*
X154270625Y42009903D02*
X154239299Y42081265D01*
X154239299Y42081265D02*
X154207972Y42116946D01*
X154207972Y42116946D02*
X154145319Y42152627D01*
X154145319Y42152627D02*
X154113992Y42152627D01*
X154113992Y42152627D02*
X154051339Y42116946D01*
X154051339Y42116946D02*
X154020012Y42081265D01*
X154020012Y42081265D02*
X153988685Y42009903D01*
X153988685Y42009903D02*
X153988685Y41867179D01*
X153988685Y41867179D02*
X154020012Y41795817D01*
X154020012Y41795817D02*
X154051339Y41760136D01*
X154051339Y41760136D02*
X154113992Y41724455D01*
X154113992Y41724455D02*
X154145319Y41724455D01*
X154145319Y41724455D02*
X154207972Y41760136D01*
X154207972Y41760136D02*
X154239299Y41795817D01*
X154239299Y41795817D02*
X154270625Y41867179D01*
X154270625Y41867179D02*
X154270625Y42009903D01*
X154270625Y42009903D02*
X154301952Y42081265D01*
X154301952Y42081265D02*
X154333279Y42116946D01*
X154333279Y42116946D02*
X154395932Y42152627D01*
X154395932Y42152627D02*
X154521239Y42152627D01*
X154521239Y42152627D02*
X154583892Y42116946D01*
X154583892Y42116946D02*
X154615219Y42081265D01*
X154615219Y42081265D02*
X154646545Y42009903D01*
X154646545Y42009903D02*
X154646545Y41867179D01*
X154646545Y41867179D02*
X154615219Y41795817D01*
X154615219Y41795817D02*
X154583892Y41760136D01*
X154583892Y41760136D02*
X154521239Y41724455D01*
X154521239Y41724455D02*
X154395932Y41724455D01*
X154395932Y41724455D02*
X154333279Y41760136D01*
X154333279Y41760136D02*
X154301952Y41795817D01*
X154301952Y41795817D02*
X154270625Y41867179D01*
X151144040Y43318293D02*
X151175367Y43353974D01*
X151175367Y43353974D02*
X151206693Y43461017D01*
X151206693Y43461017D02*
X151206693Y43532379D01*
X151206693Y43532379D02*
X151175367Y43639422D01*
X151175367Y43639422D02*
X151112713Y43710784D01*
X151112713Y43710784D02*
X151050060Y43746465D01*
X151050060Y43746465D02*
X150924753Y43782146D01*
X150924753Y43782146D02*
X150830773Y43782146D01*
X150830773Y43782146D02*
X150705467Y43746465D01*
X150705467Y43746465D02*
X150642813Y43710784D01*
X150642813Y43710784D02*
X150580160Y43639422D01*
X150580160Y43639422D02*
X150548833Y43532379D01*
X150548833Y43532379D02*
X150548833Y43461017D01*
X150548833Y43461017D02*
X150580160Y43353974D01*
X150580160Y43353974D02*
X150611487Y43318293D01*
X150548833Y43068527D02*
X150548833Y42604674D01*
X150548833Y42604674D02*
X150799447Y42854441D01*
X150799447Y42854441D02*
X150799447Y42747398D01*
X150799447Y42747398D02*
X150830773Y42676036D01*
X150830773Y42676036D02*
X150862100Y42640355D01*
X150862100Y42640355D02*
X150924753Y42604674D01*
X150924753Y42604674D02*
X151081387Y42604674D01*
X151081387Y42604674D02*
X151144040Y42640355D01*
X151144040Y42640355D02*
X151175367Y42676036D01*
X151175367Y42676036D02*
X151206693Y42747398D01*
X151206693Y42747398D02*
X151206693Y42961484D01*
X151206693Y42961484D02*
X151175367Y43032846D01*
X151175367Y43032846D02*
X151144040Y43068527D01*
X150548833Y42354908D02*
X150548833Y41891055D01*
X150548833Y41891055D02*
X150799447Y42140822D01*
X150799447Y42140822D02*
X150799447Y42033779D01*
X150799447Y42033779D02*
X150830773Y41962417D01*
X150830773Y41962417D02*
X150862100Y41926736D01*
X150862100Y41926736D02*
X150924753Y41891055D01*
X150924753Y41891055D02*
X151081387Y41891055D01*
X151081387Y41891055D02*
X151144040Y41926736D01*
X151144040Y41926736D02*
X151175367Y41962417D01*
X151175367Y41962417D02*
X151206693Y42033779D01*
X151206693Y42033779D02*
X151206693Y42247865D01*
X151206693Y42247865D02*
X151175367Y42319227D01*
X151175367Y42319227D02*
X151144040Y42354908D01*
D10*
X150397760Y22860197D02*
X150397760Y22279625D01*
X150397760Y22279625D02*
X150455213Y22163511D01*
X150455213Y22163511D02*
X150570117Y22086101D01*
X150570117Y22086101D02*
X150742475Y22047397D01*
X150742475Y22047397D02*
X150857379Y22047397D01*
X149765784Y22047397D02*
X149535975Y22047397D01*
X149535975Y22047397D02*
X149421070Y22086101D01*
X149421070Y22086101D02*
X149363618Y22124806D01*
X149363618Y22124806D02*
X149248713Y22240921D01*
X149248713Y22240921D02*
X149191260Y22395740D01*
X149191260Y22395740D02*
X149191260Y22705378D01*
X149191260Y22705378D02*
X149248713Y22782787D01*
X149248713Y22782787D02*
X149306165Y22821492D01*
X149306165Y22821492D02*
X149421070Y22860197D01*
X149421070Y22860197D02*
X149650879Y22860197D01*
X149650879Y22860197D02*
X149765784Y22821492D01*
X149765784Y22821492D02*
X149823237Y22782787D01*
X149823237Y22782787D02*
X149880689Y22705378D01*
X149880689Y22705378D02*
X149880689Y22511854D01*
X149880689Y22511854D02*
X149823237Y22434444D01*
X149823237Y22434444D02*
X149765784Y22395740D01*
X149765784Y22395740D02*
X149650879Y22357035D01*
X149650879Y22357035D02*
X149421070Y22357035D01*
X149421070Y22357035D02*
X149306165Y22395740D01*
X149306165Y22395740D02*
X149248713Y22434444D01*
X149248713Y22434444D02*
X149191260Y22511854D01*
D12*
X178897255Y30225705D02*
X178897255Y29654277D01*
X178897255Y29654277D02*
X178954398Y29539991D01*
X178954398Y29539991D02*
X179068684Y29463800D01*
X179068684Y29463800D02*
X179240112Y29425705D01*
X179240112Y29425705D02*
X179354398Y29425705D01*
X178154398Y29882848D02*
X178268683Y29920943D01*
X178268683Y29920943D02*
X178325826Y29959039D01*
X178325826Y29959039D02*
X178382969Y30035229D01*
X178382969Y30035229D02*
X178382969Y30073324D01*
X178382969Y30073324D02*
X178325826Y30149515D01*
X178325826Y30149515D02*
X178268683Y30187610D01*
X178268683Y30187610D02*
X178154398Y30225705D01*
X178154398Y30225705D02*
X177925826Y30225705D01*
X177925826Y30225705D02*
X177811541Y30187610D01*
X177811541Y30187610D02*
X177754398Y30149515D01*
X177754398Y30149515D02*
X177697255Y30073324D01*
X177697255Y30073324D02*
X177697255Y30035229D01*
X177697255Y30035229D02*
X177754398Y29959039D01*
X177754398Y29959039D02*
X177811541Y29920943D01*
X177811541Y29920943D02*
X177925826Y29882848D01*
X177925826Y29882848D02*
X178154398Y29882848D01*
X178154398Y29882848D02*
X178268683Y29844753D01*
X178268683Y29844753D02*
X178325826Y29806658D01*
X178325826Y29806658D02*
X178382969Y29730467D01*
X178382969Y29730467D02*
X178382969Y29578086D01*
X178382969Y29578086D02*
X178325826Y29501896D01*
X178325826Y29501896D02*
X178268683Y29463800D01*
X178268683Y29463800D02*
X178154398Y29425705D01*
X178154398Y29425705D02*
X177925826Y29425705D01*
X177925826Y29425705D02*
X177811541Y29463800D01*
X177811541Y29463800D02*
X177754398Y29501896D01*
X177754398Y29501896D02*
X177697255Y29578086D01*
X177697255Y29578086D02*
X177697255Y29730467D01*
X177697255Y29730467D02*
X177754398Y29806658D01*
X177754398Y29806658D02*
X177811541Y29844753D01*
X177811541Y29844753D02*
X177925826Y29882848D01*
D10*
X130715620Y210197D02*
X130715620Y-370375D01*
X130715620Y-370375D02*
X130773073Y-486489D01*
X130773073Y-486489D02*
X130887977Y-563899D01*
X130887977Y-563899D02*
X131060335Y-602603D01*
X131060335Y-602603D02*
X131175239Y-602603D01*
X129509120Y-602603D02*
X130198549Y-602603D01*
X129853835Y-602603D02*
X129853835Y210197D01*
X129853835Y210197D02*
X129968739Y94082D01*
X129968739Y94082D02*
X130083644Y16673D01*
X130083644Y16673D02*
X130198549Y-22032D01*
X128360072Y-602603D02*
X129049501Y-602603D01*
X128704787Y-602603D02*
X128704787Y210197D01*
X128704787Y210197D02*
X128819691Y94082D01*
X128819691Y94082D02*
X128934596Y16673D01*
X128934596Y16673D02*
X129049501Y-22032D01*
X179305620Y21950197D02*
X179305620Y21369625D01*
X179305620Y21369625D02*
X179363073Y21253511D01*
X179363073Y21253511D02*
X179477977Y21176101D01*
X179477977Y21176101D02*
X179650335Y21137397D01*
X179650335Y21137397D02*
X179765239Y21137397D01*
X178099120Y21137397D02*
X178788549Y21137397D01*
X178443835Y21137397D02*
X178443835Y21950197D01*
X178443835Y21950197D02*
X178558739Y21834082D01*
X178558739Y21834082D02*
X178673644Y21756673D01*
X178673644Y21756673D02*
X178788549Y21717968D01*
X177696953Y21950197D02*
X176950072Y21950197D01*
X176950072Y21950197D02*
X177352239Y21640559D01*
X177352239Y21640559D02*
X177179882Y21640559D01*
X177179882Y21640559D02*
X177064977Y21601854D01*
X177064977Y21601854D02*
X177007525Y21563149D01*
X177007525Y21563149D02*
X176950072Y21485740D01*
X176950072Y21485740D02*
X176950072Y21292216D01*
X176950072Y21292216D02*
X177007525Y21214806D01*
X177007525Y21214806D02*
X177064977Y21176101D01*
X177064977Y21176101D02*
X177179882Y21137397D01*
X177179882Y21137397D02*
X177524596Y21137397D01*
X177524596Y21137397D02*
X177639501Y21176101D01*
X177639501Y21176101D02*
X177696953Y21214806D01*
X180829144Y42376421D02*
X180829144Y43189221D01*
X180829144Y43189221D02*
X180369525Y43189221D01*
X180369525Y43189221D02*
X180254620Y43150516D01*
X180254620Y43150516D02*
X180197167Y43111811D01*
X180197167Y43111811D02*
X180139715Y43034402D01*
X180139715Y43034402D02*
X180139715Y42918287D01*
X180139715Y42918287D02*
X180197167Y42840878D01*
X180197167Y42840878D02*
X180254620Y42802173D01*
X180254620Y42802173D02*
X180369525Y42763468D01*
X180369525Y42763468D02*
X180829144Y42763468D01*
X179392834Y43189221D02*
X179163025Y43189221D01*
X179163025Y43189221D02*
X179048120Y43150516D01*
X179048120Y43150516D02*
X178933215Y43073106D01*
X178933215Y43073106D02*
X178875763Y42918287D01*
X178875763Y42918287D02*
X178875763Y42647354D01*
X178875763Y42647354D02*
X178933215Y42492535D01*
X178933215Y42492535D02*
X179048120Y42415125D01*
X179048120Y42415125D02*
X179163025Y42376421D01*
X179163025Y42376421D02*
X179392834Y42376421D01*
X179392834Y42376421D02*
X179507739Y42415125D01*
X179507739Y42415125D02*
X179622644Y42492535D01*
X179622644Y42492535D02*
X179680096Y42647354D01*
X179680096Y42647354D02*
X179680096Y42918287D01*
X179680096Y42918287D02*
X179622644Y43073106D01*
X179622644Y43073106D02*
X179507739Y43150516D01*
X179507739Y43150516D02*
X179392834Y43189221D01*
X178531049Y43189221D02*
X177841620Y43189221D01*
X178186334Y42376421D02*
X178186334Y43189221D01*
X177726716Y42299011D02*
X176807477Y42299011D01*
X176577668Y42415125D02*
X176405311Y42376421D01*
X176405311Y42376421D02*
X176118049Y42376421D01*
X176118049Y42376421D02*
X176003144Y42415125D01*
X176003144Y42415125D02*
X175945692Y42453830D01*
X175945692Y42453830D02*
X175888239Y42531240D01*
X175888239Y42531240D02*
X175888239Y42608649D01*
X175888239Y42608649D02*
X175945692Y42686059D01*
X175945692Y42686059D02*
X176003144Y42724764D01*
X176003144Y42724764D02*
X176118049Y42763468D01*
X176118049Y42763468D02*
X176347858Y42802173D01*
X176347858Y42802173D02*
X176462763Y42840878D01*
X176462763Y42840878D02*
X176520216Y42879583D01*
X176520216Y42879583D02*
X176577668Y42956992D01*
X176577668Y42956992D02*
X176577668Y43034402D01*
X176577668Y43034402D02*
X176520216Y43111811D01*
X176520216Y43111811D02*
X176462763Y43150516D01*
X176462763Y43150516D02*
X176347858Y43189221D01*
X176347858Y43189221D02*
X176060597Y43189221D01*
X176060597Y43189221D02*
X175888239Y43150516D01*
X175543525Y43189221D02*
X174854096Y43189221D01*
X175198810Y42376421D02*
X175198810Y43189221D01*
X174509382Y42608649D02*
X173934858Y42608649D01*
X174624287Y42376421D02*
X174222120Y43189221D01*
X174222120Y43189221D02*
X173819953Y42376421D01*
X172728358Y42376421D02*
X173130525Y42763468D01*
X173417787Y42376421D02*
X173417787Y43189221D01*
X173417787Y43189221D02*
X172958168Y43189221D01*
X172958168Y43189221D02*
X172843263Y43150516D01*
X172843263Y43150516D02*
X172785810Y43111811D01*
X172785810Y43111811D02*
X172728358Y43034402D01*
X172728358Y43034402D02*
X172728358Y42918287D01*
X172728358Y42918287D02*
X172785810Y42840878D01*
X172785810Y42840878D02*
X172843263Y42802173D01*
X172843263Y42802173D02*
X172958168Y42763468D01*
X172958168Y42763468D02*
X173417787Y42763468D01*
X172383644Y43189221D02*
X171694215Y43189221D01*
X172038929Y42376421D02*
X172038929Y43189221D01*
X170660072Y42376421D02*
X171349501Y42376421D01*
X171004787Y42376421D02*
X171004787Y43189221D01*
X171004787Y43189221D02*
X171119691Y43073106D01*
X171119691Y43073106D02*
X171234596Y42995697D01*
X171234596Y42995697D02*
X171349501Y42956992D01*
X165595620Y21365830D02*
X165595620Y20794402D01*
X165595620Y20794402D02*
X165653073Y20680116D01*
X165653073Y20680116D02*
X165767977Y20603925D01*
X165767977Y20603925D02*
X165940335Y20565830D01*
X165940335Y20565830D02*
X166055239Y20565830D01*
X164389120Y20565830D02*
X165078549Y20565830D01*
X164733835Y20565830D02*
X164733835Y21365830D01*
X164733835Y21365830D02*
X164848739Y21251545D01*
X164848739Y21251545D02*
X164963644Y21175354D01*
X164963644Y21175354D02*
X165078549Y21137259D01*
X163354977Y21099164D02*
X163354977Y20565830D01*
X163642239Y21403925D02*
X163929501Y20832497D01*
X163929501Y20832497D02*
X163182620Y20832497D01*
D12*
X157505714Y101471784D02*
X157505714Y102284584D01*
X157505714Y102284584D02*
X157124762Y102284584D01*
X157124762Y102284584D02*
X157029524Y102245879D01*
X157029524Y102245879D02*
X156981905Y102207174D01*
X156981905Y102207174D02*
X156934286Y102129765D01*
X156934286Y102129765D02*
X156934286Y102013650D01*
X156934286Y102013650D02*
X156981905Y101936241D01*
X156981905Y101936241D02*
X157029524Y101897536D01*
X157029524Y101897536D02*
X157124762Y101858831D01*
X157124762Y101858831D02*
X157505714Y101858831D01*
X156029524Y101471784D02*
X156505714Y101471784D01*
X156505714Y101471784D02*
X156505714Y102284584D01*
X155743809Y101704012D02*
X155267619Y101704012D01*
X155839047Y101471784D02*
X155505714Y102284584D01*
X155505714Y102284584D02*
X155172381Y101471784D01*
X154648571Y101858831D02*
X154648571Y101471784D01*
X154981904Y102284584D02*
X154648571Y101858831D01*
X154648571Y101858831D02*
X154315238Y102284584D01*
X154220000Y101394374D02*
X153458095Y101394374D01*
X152886666Y101897536D02*
X152743809Y101858831D01*
X152743809Y101858831D02*
X152696190Y101820127D01*
X152696190Y101820127D02*
X152648571Y101742717D01*
X152648571Y101742717D02*
X152648571Y101626603D01*
X152648571Y101626603D02*
X152696190Y101549193D01*
X152696190Y101549193D02*
X152743809Y101510488D01*
X152743809Y101510488D02*
X152839047Y101471784D01*
X152839047Y101471784D02*
X153219999Y101471784D01*
X153219999Y101471784D02*
X153219999Y102284584D01*
X153219999Y102284584D02*
X152886666Y102284584D01*
X152886666Y102284584D02*
X152791428Y102245879D01*
X152791428Y102245879D02*
X152743809Y102207174D01*
X152743809Y102207174D02*
X152696190Y102129765D01*
X152696190Y102129765D02*
X152696190Y102052355D01*
X152696190Y102052355D02*
X152743809Y101974946D01*
X152743809Y101974946D02*
X152791428Y101936241D01*
X152791428Y101936241D02*
X152886666Y101897536D01*
X152886666Y101897536D02*
X153219999Y101897536D01*
X152219999Y102284584D02*
X152219999Y101626603D01*
X152219999Y101626603D02*
X152172380Y101549193D01*
X152172380Y101549193D02*
X152124761Y101510488D01*
X152124761Y101510488D02*
X152029523Y101471784D01*
X152029523Y101471784D02*
X151839047Y101471784D01*
X151839047Y101471784D02*
X151743809Y101510488D01*
X151743809Y101510488D02*
X151696190Y101549193D01*
X151696190Y101549193D02*
X151648571Y101626603D01*
X151648571Y101626603D02*
X151648571Y102284584D01*
X151315237Y102284584D02*
X150743809Y102284584D01*
X151029523Y101471784D02*
X151029523Y102284584D01*
X149886666Y101471784D02*
X150458094Y101471784D01*
X150172380Y101471784D02*
X150172380Y102284584D01*
X150172380Y102284584D02*
X150267618Y102168469D01*
X150267618Y102168469D02*
X150362856Y102091060D01*
X150362856Y102091060D02*
X150458094Y102052355D01*
D14*
X153055219Y98080898D02*
X152962362Y98042193D01*
X152962362Y98042193D02*
X152931409Y98003489D01*
X152931409Y98003489D02*
X152900457Y97926079D01*
X152900457Y97926079D02*
X152900457Y97809965D01*
X152900457Y97809965D02*
X152931409Y97732555D01*
X152931409Y97732555D02*
X152962362Y97693850D01*
X152962362Y97693850D02*
X153024267Y97655146D01*
X153024267Y97655146D02*
X153271886Y97655146D01*
X153271886Y97655146D02*
X153271886Y98467946D01*
X153271886Y98467946D02*
X153055219Y98467946D01*
X153055219Y98467946D02*
X152993314Y98429241D01*
X152993314Y98429241D02*
X152962362Y98390536D01*
X152962362Y98390536D02*
X152931409Y98313127D01*
X152931409Y98313127D02*
X152931409Y98235717D01*
X152931409Y98235717D02*
X152962362Y98158308D01*
X152962362Y98158308D02*
X152993314Y98119603D01*
X152993314Y98119603D02*
X153055219Y98080898D01*
X153055219Y98080898D02*
X153271886Y98080898D01*
X152900457Y94605146D02*
X153117124Y94992193D01*
X153271886Y94605146D02*
X153271886Y95417946D01*
X153271886Y95417946D02*
X153024267Y95417946D01*
X153024267Y95417946D02*
X152962362Y95379241D01*
X152962362Y95379241D02*
X152931409Y95340536D01*
X152931409Y95340536D02*
X152900457Y95263127D01*
X152900457Y95263127D02*
X152900457Y95147012D01*
X152900457Y95147012D02*
X152931409Y95069603D01*
X152931409Y95069603D02*
X152962362Y95030898D01*
X152962362Y95030898D02*
X153024267Y94992193D01*
X153024267Y94992193D02*
X153271886Y94992193D01*
X154631409Y95404241D02*
X154693314Y95442946D01*
X154693314Y95442946D02*
X154786171Y95442946D01*
X154786171Y95442946D02*
X154879028Y95404241D01*
X154879028Y95404241D02*
X154940933Y95326831D01*
X154940933Y95326831D02*
X154971886Y95249422D01*
X154971886Y95249422D02*
X155002838Y95094603D01*
X155002838Y95094603D02*
X155002838Y94978489D01*
X155002838Y94978489D02*
X154971886Y94823670D01*
X154971886Y94823670D02*
X154940933Y94746260D01*
X154940933Y94746260D02*
X154879028Y94668850D01*
X154879028Y94668850D02*
X154786171Y94630146D01*
X154786171Y94630146D02*
X154724267Y94630146D01*
X154724267Y94630146D02*
X154631409Y94668850D01*
X154631409Y94668850D02*
X154600457Y94707555D01*
X154600457Y94707555D02*
X154600457Y94978489D01*
X154600457Y94978489D02*
X154724267Y94978489D01*
X155099267Y98114784D02*
X154604029Y98114784D01*
X154851648Y97805146D02*
X154851648Y98424422D01*
D11*
X153715996Y46325222D02*
X153763377Y46328301D01*
X153763377Y46328301D02*
X153861219Y46381840D01*
X153861219Y46381840D02*
X153911680Y46432301D01*
X153911680Y46432301D02*
X153965219Y46530143D01*
X153965219Y46530143D02*
X153971377Y46624906D01*
X153971377Y46624906D02*
X153952305Y46694439D01*
X153952305Y46694439D02*
X153888930Y46808274D01*
X153888930Y46808274D02*
X153822476Y46874728D01*
X153822476Y46874728D02*
X153708640Y46938103D01*
X153708640Y46938103D02*
X153639108Y46957175D01*
X153639108Y46957175D02*
X153544344Y46951017D01*
X153544344Y46951017D02*
X153446502Y46897478D01*
X153446502Y46897478D02*
X153396042Y46847018D01*
X153396042Y46847018D02*
X153342502Y46749176D01*
X153342502Y46749176D02*
X153339424Y46701794D01*
X153137582Y46499952D02*
X153090200Y46496873D01*
X153090200Y46496873D02*
X153017588Y46468564D01*
X153017588Y46468564D02*
X152891437Y46342413D01*
X152891437Y46342413D02*
X152863128Y46269801D01*
X152863128Y46269801D02*
X152860049Y46222419D01*
X152860049Y46222419D02*
X152879121Y46152887D01*
X152879121Y46152887D02*
X152923424Y46108584D01*
X152923424Y46108584D02*
X153015108Y46067360D01*
X153015108Y46067360D02*
X153583687Y46104308D01*
X153583687Y46104308D02*
X153255693Y45776314D01*
X152613904Y46064880D02*
X152260681Y45711657D01*
X152260681Y45711657D02*
X152952930Y45473552D01*
X149713892Y39561693D02*
X149745219Y39597374D01*
X149745219Y39597374D02*
X149776545Y39704417D01*
X149776545Y39704417D02*
X149776545Y39775779D01*
X149776545Y39775779D02*
X149745219Y39882822D01*
X149745219Y39882822D02*
X149682565Y39954184D01*
X149682565Y39954184D02*
X149619912Y39989865D01*
X149619912Y39989865D02*
X149494605Y40025546D01*
X149494605Y40025546D02*
X149400625Y40025546D01*
X149400625Y40025546D02*
X149275319Y39989865D01*
X149275319Y39989865D02*
X149212665Y39954184D01*
X149212665Y39954184D02*
X149150012Y39882822D01*
X149150012Y39882822D02*
X149118685Y39775779D01*
X149118685Y39775779D02*
X149118685Y39704417D01*
X149118685Y39704417D02*
X149150012Y39597374D01*
X149150012Y39597374D02*
X149181339Y39561693D01*
X149118685Y39311927D02*
X149118685Y38848074D01*
X149118685Y38848074D02*
X149369299Y39097841D01*
X149369299Y39097841D02*
X149369299Y38990798D01*
X149369299Y38990798D02*
X149400625Y38919436D01*
X149400625Y38919436D02*
X149431952Y38883755D01*
X149431952Y38883755D02*
X149494605Y38848074D01*
X149494605Y38848074D02*
X149651239Y38848074D01*
X149651239Y38848074D02*
X149713892Y38883755D01*
X149713892Y38883755D02*
X149745219Y38919436D01*
X149745219Y38919436D02*
X149776545Y38990798D01*
X149776545Y38990798D02*
X149776545Y39204884D01*
X149776545Y39204884D02*
X149745219Y39276246D01*
X149745219Y39276246D02*
X149713892Y39311927D01*
X149776545Y38134455D02*
X149776545Y38562627D01*
X149776545Y38348541D02*
X149118685Y38348541D01*
X149118685Y38348541D02*
X149212665Y38419903D01*
X149212665Y38419903D02*
X149275319Y38491265D01*
X149275319Y38491265D02*
X149306645Y38562627D01*
D10*
X140419525Y74979857D02*
X140419525Y75792657D01*
X140419525Y75792657D02*
X139959906Y75792657D01*
X139959906Y75792657D02*
X139845001Y75753952D01*
X139845001Y75753952D02*
X139787548Y75715247D01*
X139787548Y75715247D02*
X139730096Y75637838D01*
X139730096Y75637838D02*
X139730096Y75521723D01*
X139730096Y75521723D02*
X139787548Y75444314D01*
X139787548Y75444314D02*
X139845001Y75405609D01*
X139845001Y75405609D02*
X139959906Y75366904D01*
X139959906Y75366904D02*
X140419525Y75366904D01*
X138983215Y75792657D02*
X138753406Y75792657D01*
X138753406Y75792657D02*
X138638501Y75753952D01*
X138638501Y75753952D02*
X138523596Y75676542D01*
X138523596Y75676542D02*
X138466144Y75521723D01*
X138466144Y75521723D02*
X138466144Y75250790D01*
X138466144Y75250790D02*
X138523596Y75095971D01*
X138523596Y75095971D02*
X138638501Y75018561D01*
X138638501Y75018561D02*
X138753406Y74979857D01*
X138753406Y74979857D02*
X138983215Y74979857D01*
X138983215Y74979857D02*
X139098120Y75018561D01*
X139098120Y75018561D02*
X139213025Y75095971D01*
X139213025Y75095971D02*
X139270477Y75250790D01*
X139270477Y75250790D02*
X139270477Y75521723D01*
X139270477Y75521723D02*
X139213025Y75676542D01*
X139213025Y75676542D02*
X139098120Y75753952D01*
X139098120Y75753952D02*
X138983215Y75792657D01*
X138121430Y75792657D02*
X137432001Y75792657D01*
X137776715Y74979857D02*
X137776715Y75792657D01*
X137317097Y74902447D02*
X136397858Y74902447D01*
X136168049Y75018561D02*
X135995692Y74979857D01*
X135995692Y74979857D02*
X135708430Y74979857D01*
X135708430Y74979857D02*
X135593525Y75018561D01*
X135593525Y75018561D02*
X135536073Y75057266D01*
X135536073Y75057266D02*
X135478620Y75134676D01*
X135478620Y75134676D02*
X135478620Y75212085D01*
X135478620Y75212085D02*
X135536073Y75289495D01*
X135536073Y75289495D02*
X135593525Y75328200D01*
X135593525Y75328200D02*
X135708430Y75366904D01*
X135708430Y75366904D02*
X135938239Y75405609D01*
X135938239Y75405609D02*
X136053144Y75444314D01*
X136053144Y75444314D02*
X136110597Y75483019D01*
X136110597Y75483019D02*
X136168049Y75560428D01*
X136168049Y75560428D02*
X136168049Y75637838D01*
X136168049Y75637838D02*
X136110597Y75715247D01*
X136110597Y75715247D02*
X136053144Y75753952D01*
X136053144Y75753952D02*
X135938239Y75792657D01*
X135938239Y75792657D02*
X135650978Y75792657D01*
X135650978Y75792657D02*
X135478620Y75753952D01*
X135019001Y75212085D02*
X134444477Y75212085D01*
X135133906Y74979857D02*
X134731739Y75792657D01*
X134731739Y75792657D02*
X134329572Y74979857D01*
X133927406Y74979857D02*
X133927406Y75792657D01*
X133927406Y75792657D02*
X133525239Y75212085D01*
X133525239Y75212085D02*
X133123072Y75792657D01*
X133123072Y75792657D02*
X133123072Y74979857D01*
X132548549Y74979857D02*
X132548549Y75792657D01*
X132548549Y75792657D02*
X132088930Y75792657D01*
X132088930Y75792657D02*
X131974025Y75753952D01*
X131974025Y75753952D02*
X131916572Y75715247D01*
X131916572Y75715247D02*
X131859120Y75637838D01*
X131859120Y75637838D02*
X131859120Y75521723D01*
X131859120Y75521723D02*
X131916572Y75444314D01*
X131916572Y75444314D02*
X131974025Y75405609D01*
X131974025Y75405609D02*
X132088930Y75366904D01*
X132088930Y75366904D02*
X132548549Y75366904D01*
X130710072Y74979857D02*
X131399501Y74979857D01*
X131054787Y74979857D02*
X131054787Y75792657D01*
X131054787Y75792657D02*
X131169691Y75676542D01*
X131169691Y75676542D02*
X131284596Y75599133D01*
X131284596Y75599133D02*
X131399501Y75560428D01*
D14*
G04 #@! TO.C,J12*
X132258648Y19499922D02*
X132258648Y16499922D01*
X133758648Y17999922D02*
X130758648Y17999922D01*
D15*
X133833448Y18012622D02*
G75*
G03*
X133833448Y18012622I-1574800J0D01*
G01*
X134544648Y18012622D02*
G75*
G03*
X134544648Y18012622I-2286000J0D01*
G01*
D16*
X136758648Y13694122D02*
X127758648Y13694122D01*
X127758648Y24202122D01*
X136758648Y24202122D01*
X136758648Y13694122D01*
D14*
G04 #@! TO.C,J17*
X160450848Y1454362D02*
X160450848Y4454362D01*
X158950848Y2954362D02*
X161950848Y2954362D01*
D15*
X162025648Y2941662D02*
G75*
G03*
X162025648Y2941662I-1574800J0D01*
G01*
X162736848Y2941662D02*
G75*
G03*
X162736848Y2941662I-2286000J0D01*
G01*
D16*
X164950848Y-3247838D02*
X155950848Y-3247838D01*
X155950848Y7260162D01*
X164950848Y7260162D01*
X164950848Y-3247838D01*
D14*
G04 #@! TO.C,J16*
X175950848Y1454362D02*
X175950848Y4454362D01*
X174450848Y2954362D02*
X177450848Y2954362D01*
D15*
X177525648Y2941662D02*
G75*
G03*
X177525648Y2941662I-1574800J0D01*
G01*
X178236848Y2941662D02*
G75*
G03*
X178236848Y2941662I-2286000J0D01*
G01*
D16*
X180450848Y-3247838D02*
X171450848Y-3247838D01*
X171450848Y7260162D01*
X180450848Y7260162D01*
X180450848Y-3247838D01*
D17*
G04 #@! TO.C,C30*
X154806648Y39174922D02*
X154806648Y38864922D01*
X154026648Y39174922D02*
X154026648Y38864922D01*
D10*
G04 #@! TO.C,Bank_But1*
X176908648Y95149922D02*
X176908648Y95349922D01*
X176908648Y99919922D02*
X176908648Y97379922D01*
X176908648Y102149922D02*
X176908648Y101951922D01*
X174908648Y95149922D02*
X176908648Y95149922D01*
X174908648Y102149922D02*
X176908648Y102149922D01*
X171908648Y95149922D02*
X169908648Y95149922D01*
X171908648Y102149922D02*
X169908648Y102149922D01*
X169908648Y95149922D02*
X169908648Y95349922D01*
X169908648Y99919922D02*
X169908648Y97379922D01*
X169908648Y102149922D02*
X169908648Y101951922D01*
D18*
X176486629Y102459922D02*
G75*
G03*
X176486629Y102459922I-283981J0D01*
G01*
D10*
X175698173Y98649922D02*
G75*
G03*
X175698173Y98649922I-2289525J0D01*
G01*
D13*
G04 #@! TO.C,SD1*
X156026648Y84299922D02*
X156026648Y83849922D01*
X154876648Y84299922D02*
X154876648Y83749922D01*
X154046648Y84299922D02*
X154046648Y72899922D01*
X151026648Y84299922D02*
X156026648Y84299922D01*
X151026648Y82199922D02*
X151026648Y84299922D01*
X154876648Y82049922D02*
X154876648Y75149922D01*
X156026648Y81949922D02*
X156026648Y75249922D01*
X154876648Y73449922D02*
X154876648Y72899922D01*
X156026648Y73349922D02*
X156026648Y72899922D01*
X151026648Y72899922D02*
X151026648Y73899922D01*
X151026648Y72899922D02*
X156026648Y72899922D01*
D14*
G04 #@! TO.C,C4*
X155230148Y60326600D02*
X154030148Y60326600D01*
X154030148Y60626600D02*
X155230148Y60626600D01*
D15*
G04 #@! TO.C,POT_LENGTH1*
X141158648Y53872922D02*
X141158648Y48088028D01*
X140705542Y47634922D02*
X127738754Y47634922D01*
X136896648Y59904922D02*
X131420648Y59904922D01*
D14*
X135658648Y57999922D02*
X132658648Y57999922D01*
X134158648Y56499922D02*
X134158648Y59499922D01*
D15*
X127158648Y48215028D02*
X127158648Y53872922D01*
X140705542Y47634922D02*
G75*
G03*
X141158648Y48088028I-1J453107D01*
G01*
D13*
X137206647Y54951923D02*
G75*
G03*
X131110649Y54951923I-3047999J3047999D01*
G01*
D15*
X127158648Y48215028D02*
G75*
G03*
X127738754Y47634922I580100J-6D01*
G01*
X137558648Y57999922D02*
G75*
G03*
X137558648Y57999922I-3400000J0D01*
G01*
X138158648Y57999922D02*
G75*
G03*
X138158648Y57999922I-4000000J0D01*
G01*
X142286648Y57999922D02*
G75*
G03*
X142286648Y57999922I-8128000J0D01*
G01*
D14*
G04 #@! TO.C,J2*
X160286648Y34499922D02*
X160286648Y31499922D01*
X161786648Y32999922D02*
X158786648Y32999922D01*
D15*
X161861448Y33012622D02*
G75*
G03*
X161861448Y33012622I-1574800J0D01*
G01*
X162572648Y33012622D02*
G75*
G03*
X162572648Y33012622I-2286000J0D01*
G01*
D16*
X164786648Y28694122D02*
X155786648Y28694122D01*
X155786648Y39202122D01*
X164786648Y39202122D01*
X164786648Y28694122D01*
D15*
G04 #@! TO.C,POT_PITCH1*
X177786648Y79872922D02*
X177786648Y74088028D01*
X177333542Y73634922D02*
X164366754Y73634922D01*
X173524648Y85904922D02*
X168048648Y85904922D01*
D14*
X172286648Y83999922D02*
X169286648Y83999922D01*
X170786648Y82499922D02*
X170786648Y85499922D01*
D19*
X170786648Y87299922D02*
X170786648Y85499922D01*
D15*
X163786648Y74215028D02*
X163786648Y79872922D01*
X177333542Y73634922D02*
G75*
G03*
X177786648Y74088028I-1J453107D01*
G01*
X163786648Y74215028D02*
G75*
G03*
X164366754Y73634922I580100J-6D01*
G01*
X174186648Y83999922D02*
G75*
G03*
X174186648Y83999922I-3400000J0D01*
G01*
X174786648Y83999922D02*
G75*
G03*
X174786648Y83999922I-4000000J0D01*
G01*
X178914648Y83999922D02*
G75*
G03*
X178914648Y83999922I-8128000J0D01*
G01*
D14*
G04 #@! TO.C,J7*
X133758648Y32999922D02*
X130758648Y32999922D01*
X132258648Y31499922D02*
X132258648Y34499922D01*
D15*
X133846148Y32999922D02*
G75*
G03*
X133846148Y32999922I-1574800J0D01*
G01*
X134557348Y32999922D02*
G75*
G03*
X134557348Y32999922I-2286000J0D01*
G01*
D16*
X138460848Y28499922D02*
X127952848Y28499922D01*
X127952848Y37499922D01*
X138460848Y37499922D01*
X138460848Y28499922D01*
D17*
G04 #@! TO.C,C32*
X153094076Y39389376D02*
X153094076Y39079376D01*
X152314076Y39389376D02*
X152314076Y39079376D01*
D14*
G04 #@! TO.C,J6*
X149286648Y32999922D02*
X146286648Y32999922D01*
X147786648Y31499922D02*
X147786648Y34499922D01*
D15*
X149374148Y32999922D02*
G75*
G03*
X149374148Y32999922I-1574800J0D01*
G01*
X150085348Y32999922D02*
G75*
G03*
X150085348Y32999922I-2286000J0D01*
G01*
D16*
X153988848Y28499922D02*
X143480848Y28499922D01*
X143480848Y37499922D01*
X153988848Y37499922D01*
X153988848Y28499922D01*
D14*
G04 #@! TO.C,J15*
X147786648Y1499922D02*
X147786648Y4499922D01*
X146286648Y2999922D02*
X149286648Y2999922D01*
D15*
X149361448Y2987222D02*
G75*
G03*
X149361448Y2987222I-1574800J0D01*
G01*
X150072648Y2987222D02*
G75*
G03*
X150072648Y2987222I-2286000J0D01*
G01*
D16*
X152286648Y-3202278D02*
X143286648Y-3202278D01*
X143286648Y7305722D01*
X152286648Y7305722D01*
X152286648Y-3202278D01*
D10*
G04 #@! TO.C,REV_BUT1*
X138036648Y95149922D02*
X138036648Y95349922D01*
X138036648Y99919922D02*
X138036648Y97379922D01*
X138036648Y102149922D02*
X138036648Y101951922D01*
X136036648Y95149922D02*
X138036648Y95149922D01*
X136036648Y102149922D02*
X138036648Y102149922D01*
X133036648Y95149922D02*
X131036648Y95149922D01*
X133036648Y102149922D02*
X131036648Y102149922D01*
X131036648Y95149922D02*
X131036648Y95349922D01*
X131036648Y99919922D02*
X131036648Y97379922D01*
X131036648Y102149922D02*
X131036648Y101951922D01*
D18*
X137614629Y102459922D02*
G75*
G03*
X137614629Y102459922I-283981J0D01*
G01*
D10*
X136826173Y98649922D02*
G75*
G03*
X136826173Y98649922I-2289525J0D01*
G01*
D17*
G04 #@! TO.C,C28*
X153529940Y41945632D02*
X153529940Y41635632D01*
X152749940Y41945632D02*
X152749940Y41635632D01*
G04 #@! TO.C,C33*
X151733940Y42400680D02*
X151733940Y42710680D01*
X152513940Y42400680D02*
X152513940Y42710680D01*
D14*
G04 #@! TO.C,J9*
X147786648Y19499922D02*
X147786648Y16499922D01*
X149286648Y17999922D02*
X146286648Y17999922D01*
D15*
X149361448Y18012622D02*
G75*
G03*
X149361448Y18012622I-1574800J0D01*
G01*
X150072648Y18012622D02*
G75*
G03*
X150072648Y18012622I-2286000J0D01*
G01*
D16*
X152286648Y13694122D02*
X143286648Y13694122D01*
X143286648Y24202122D01*
X152286648Y24202122D01*
X152286648Y13694122D01*
D14*
G04 #@! TO.C,J8*
X174286648Y32999922D02*
X177286648Y32999922D01*
X175786648Y34499922D02*
X175786648Y31499922D01*
D15*
X177348748Y32999922D02*
G75*
G03*
X177348748Y32999922I-1574800J0D01*
G01*
X178059948Y32999922D02*
G75*
G03*
X178059948Y32999922I-2286000J0D01*
G01*
D16*
X180092448Y28499922D02*
X169584448Y28499922D01*
X169584448Y37499922D01*
X180092448Y37499922D01*
X180092448Y28499922D01*
D14*
G04 #@! TO.C,J11*
X132258648Y1499922D02*
X132258648Y4499922D01*
X130758648Y2999922D02*
X133758648Y2999922D01*
D15*
X133833448Y2987222D02*
G75*
G03*
X133833448Y2987222I-1574800J0D01*
G01*
X134544648Y2987222D02*
G75*
G03*
X134544648Y2987222I-2286000J0D01*
G01*
D16*
X136758648Y-3202278D02*
X127758648Y-3202278D01*
X127758648Y7305722D01*
X136758648Y7305722D01*
X136758648Y-3202278D01*
D14*
G04 #@! TO.C,J13*
X174286648Y17999922D02*
X177286648Y17999922D01*
X175786648Y19499922D02*
X175786648Y16499922D01*
D15*
X177348748Y17999922D02*
G75*
G03*
X177348748Y17999922I-1574800J0D01*
G01*
X178059948Y17999922D02*
G75*
G03*
X178059948Y17999922I-2286000J0D01*
G01*
D16*
X180092448Y13499922D02*
X169584448Y13499922D01*
X169584448Y22499922D01*
X180092448Y22499922D01*
X180092448Y13499922D01*
D15*
G04 #@! TO.C,POT_START1*
X180786648Y53872922D02*
X180786648Y48088028D01*
X180333542Y47634922D02*
X167366754Y47634922D01*
X176524648Y59904922D02*
X171048648Y59904922D01*
D14*
X175286648Y57999922D02*
X172286648Y57999922D01*
X173786648Y56499922D02*
X173786648Y59499922D01*
D15*
X166786648Y48215028D02*
X166786648Y53872922D01*
X180333542Y47634922D02*
G75*
G03*
X180786648Y48088028I-1J453107D01*
G01*
D13*
X176834647Y54951923D02*
G75*
G03*
X170738649Y54951923I-3047999J3047999D01*
G01*
D15*
X166786648Y48215028D02*
G75*
G03*
X167366754Y47634922I580100J-6D01*
G01*
X177186648Y57999922D02*
G75*
G03*
X177186648Y57999922I-3400000J0D01*
G01*
X177786648Y57999922D02*
G75*
G03*
X177786648Y57999922I-4000000J0D01*
G01*
X181914648Y57999922D02*
G75*
G03*
X181914648Y57999922I-8128000J0D01*
G01*
D14*
G04 #@! TO.C,J14*
X161786648Y17999922D02*
X158786648Y17999922D01*
X160286648Y16499922D02*
X160286648Y19499922D01*
D15*
X161874148Y17999922D02*
G75*
G03*
X161874148Y17999922I-1574800J0D01*
G01*
X162585348Y17999922D02*
G75*
G03*
X162585348Y17999922I-2286000J0D01*
G01*
D16*
X166488848Y13499922D02*
X155980848Y13499922D01*
X155980848Y22499922D01*
X166488848Y22499922D01*
X166488848Y13499922D01*
D10*
G04 #@! TO.C,PLAY_BUT1*
X157476648Y93049922D02*
X157476648Y93249922D01*
X157476648Y100049922D02*
X157476648Y99851922D01*
X155476648Y93049922D02*
X157476648Y93049922D01*
X155476648Y100049922D02*
X157476648Y100049922D01*
X152476648Y93049922D02*
X150476648Y93049922D01*
X152476648Y100049922D02*
X150476648Y100049922D01*
X150476648Y93049922D02*
X150476648Y93249922D01*
X150476648Y100049922D02*
X150476648Y99851922D01*
X157237955Y95207030D02*
G75*
G03*
X157215147Y97946921I-3261305J1342892D01*
G01*
X155626842Y93439940D02*
G75*
G03*
X156199147Y93819423I-1650167J3109938D01*
G01*
X156192929Y99287681D02*
G75*
G03*
X155627647Y99661421I-2216232J-2737688D01*
G01*
X153658575Y93051131D02*
G75*
G03*
X154357647Y93057423I318074J3498773D01*
G01*
X154294721Y100048713D02*
G75*
G03*
X153595649Y100042421I-318073J-3498791D01*
G01*
X151760367Y93812163D02*
G75*
G03*
X152325649Y93438424I2216231J2737689D01*
G01*
X152326454Y99659903D02*
G75*
G03*
X151754149Y99280421I1650194J-3109981D01*
G01*
X150715342Y97892814D02*
G75*
G03*
X150738150Y95152923I3261306J-1342892D01*
G01*
D18*
X157054629Y100359922D02*
G75*
G03*
X157054629Y100359922I-283981J0D01*
G01*
D17*
G04 #@! TO.C,C27*
X153224775Y44712770D02*
X153443978Y44931973D01*
X153776318Y44161227D02*
X153995521Y44380430D01*
G04 #@! TO.C,C31*
X151354972Y39136272D02*
X151354972Y39446272D01*
X152134972Y39136272D02*
X152134972Y39446272D01*
D15*
G04 #@! TO.C,POT_SAMP1*
X144090000Y80053000D02*
X144090000Y74268106D01*
X143636894Y73815000D02*
X130670106Y73815000D01*
X139828000Y86085000D02*
X134352000Y86085000D01*
D14*
X138590000Y84180000D02*
X135590000Y84180000D01*
X137090000Y82680000D02*
X137090000Y85680000D01*
D15*
X130090000Y74395106D02*
X130090000Y80053000D01*
X143636894Y73815000D02*
G75*
G03*
X144090000Y74268106I-1J453107D01*
G01*
D13*
X140137999Y81132001D02*
G75*
G03*
X134042001Y81132001I-3047999J3047999D01*
G01*
D15*
X130090000Y74395106D02*
G75*
G03*
X130670106Y73815000I580100J-6D01*
G01*
X140490000Y84180000D02*
G75*
G03*
X140490000Y84180000I-3400000J0D01*
G01*
X141090000Y84180000D02*
G75*
G03*
X141090000Y84180000I-4000000J0D01*
G01*
X145218000Y84180000D02*
G75*
G03*
X145218000Y84180000I-8128000J0D01*
G01*
G04 #@! TD*
%LPC*%
D20*
G04 #@! TO.C,J4*
X151296648Y87529922D03*
X151296648Y90069922D03*
D21*
X153836648Y87529922D03*
X153836648Y90069922D03*
X156376648Y87529922D03*
X156376648Y90069922D03*
D20*
X158916648Y87529922D03*
X158916648Y90069922D03*
G04 #@! TD*
D22*
G04 #@! TO.C,J3*
X180876648Y76529922D03*
D21*
X180876648Y73989922D03*
X180876648Y71449922D03*
X180876648Y68909922D03*
G04 #@! TD*
G04 #@! TO.C,J10*
X141126648Y9559922D03*
X138586648Y9559922D03*
X141126648Y12099922D03*
X138586648Y12099922D03*
X141126648Y14639922D03*
X138586648Y14639922D03*
X141126648Y17179922D03*
X138586648Y17179922D03*
X141126648Y19719922D03*
X138586648Y19719922D03*
G04 #@! TD*
D23*
G04 #@! TO.C,J12*
X132258648Y23206922D03*
X132258648Y12234122D03*
X132258648Y14647122D03*
G04 #@! TD*
G04 #@! TO.C,J17*
X160450848Y-2252638D03*
X160450848Y8720162D03*
X160450848Y6307162D03*
G04 #@! TD*
G04 #@! TO.C,J16*
X175950848Y-2252638D03*
X175950848Y8720162D03*
X175950848Y6307162D03*
G04 #@! TD*
D24*
G04 #@! TO.C,C30*
X154416648Y39504922D03*
X154416648Y38534922D03*
G04 #@! TD*
D25*
G04 #@! TO.C,Bank_But1*
X176658648Y100899922D03*
X170158648Y100899922D03*
X176658648Y96399922D03*
X170158648Y96399922D03*
D26*
X174308648Y101549922D03*
X172508648Y101549922D03*
X172508648Y95749922D03*
X174308648Y95749922D03*
G04 #@! TD*
D27*
G04 #@! TO.C,SD1*
X152356648Y82449673D03*
X151256828Y81349853D03*
X152356648Y80249779D03*
X151256828Y79149959D03*
X152356648Y78049885D03*
X151256828Y76950065D03*
X152356648Y75849991D03*
X151256828Y74750171D03*
D28*
X155526568Y82892522D03*
X155526568Y74307322D03*
G04 #@! TD*
D29*
G04 #@! TO.C,C4*
X154630148Y59626600D03*
X154630148Y61326600D03*
G04 #@! TD*
D30*
G04 #@! TO.C,POT_LENGTH1*
X139158648Y45045922D03*
X134158648Y45045922D03*
X129158648Y45045922D03*
G04 #@! TD*
D23*
G04 #@! TO.C,J2*
X160286648Y38206922D03*
X160286648Y27234122D03*
X160286648Y29647122D03*
G04 #@! TD*
D30*
G04 #@! TO.C,POT_PITCH1*
X175786648Y71045922D03*
X170786648Y71045922D03*
X165786648Y71045922D03*
G04 #@! TD*
D23*
G04 #@! TO.C,J7*
X137465648Y32999922D03*
X126492848Y32999922D03*
X128905848Y32999922D03*
G04 #@! TD*
D24*
G04 #@! TO.C,C32*
X152704076Y39719376D03*
X152704076Y38749376D03*
G04 #@! TD*
D23*
G04 #@! TO.C,J6*
X152993648Y32999922D03*
X142020848Y32999922D03*
X144433848Y32999922D03*
G04 #@! TD*
G04 #@! TO.C,J15*
X147786648Y-2207078D03*
X147786648Y8765722D03*
X147786648Y6352722D03*
G04 #@! TD*
D25*
G04 #@! TO.C,REV_BUT1*
X137786648Y100899922D03*
X131286648Y100899922D03*
X137786648Y96399922D03*
X131286648Y96399922D03*
D26*
X135436648Y101549922D03*
X133636648Y101549922D03*
X133636648Y95749922D03*
X135436648Y95749922D03*
G04 #@! TD*
D24*
G04 #@! TO.C,C28*
X153139940Y42275632D03*
X153139940Y41305632D03*
G04 #@! TD*
D31*
G04 #@! TO.C,C33*
X152123940Y42070680D03*
X152123940Y43040680D03*
G04 #@! TD*
D23*
G04 #@! TO.C,J9*
X147786648Y23206922D03*
X147786648Y12234122D03*
X147786648Y14647122D03*
G04 #@! TD*
G04 #@! TO.C,J8*
X170579648Y32999922D03*
X181552448Y32999922D03*
X179139448Y32999922D03*
G04 #@! TD*
G04 #@! TO.C,J11*
X132258648Y-2207078D03*
X132258648Y8765722D03*
X132258648Y6352722D03*
G04 #@! TD*
G04 #@! TO.C,J13*
X170579648Y17999922D03*
X181552448Y17999922D03*
X179139448Y17999922D03*
G04 #@! TD*
D30*
G04 #@! TO.C,POT_START1*
X178786648Y45045922D03*
X173786648Y45045922D03*
X168786648Y45045922D03*
G04 #@! TD*
D23*
G04 #@! TO.C,J14*
X165493648Y17999922D03*
X154520848Y17999922D03*
X156933848Y17999922D03*
G04 #@! TD*
D25*
G04 #@! TO.C,PLAY_BUT1*
X156972648Y98799922D03*
X150980648Y98799922D03*
X156972648Y94299922D03*
X150980648Y94299922D03*
D26*
X154876648Y99449922D03*
X153076648Y99449922D03*
X153076648Y93649922D03*
X154876648Y93649922D03*
G04 #@! TD*
D32*
G04 #@! TO.C,C27*
X153267201Y44203653D03*
X153953095Y44889547D03*
G04 #@! TD*
D31*
G04 #@! TO.C,C31*
X151744972Y38806272D03*
X151744972Y39776272D03*
G04 #@! TD*
D30*
G04 #@! TO.C,POT_SAMP1*
X142090000Y71226000D03*
X137090000Y71226000D03*
X132090000Y71226000D03*
G04 #@! TD*
%LPD*%
M02*
