G04 #@! TF.GenerationSoftware,KiCad,Pcbnew,7.0.6-0*
G04 #@! TF.CreationDate,2024-04-11T12:12:25-07:00*
G04 #@! TF.ProjectId,Sampler-built,53616d70-6c65-4722-9d62-75696c742e6b,rev?*
G04 #@! TF.SameCoordinates,PXb71b00PY73f50f0*
G04 #@! TF.FileFunction,Copper,L1,Top*
G04 #@! TF.FilePolarity,Positive*
%FSLAX46Y46*%
G04 Gerber Fmt 4.6, Leading zero omitted, Abs format (unit mm)*
G04 Created by KiCad (PCBNEW 7.0.6-0) date 2024-04-11 12:12:25*
%MOMM*%
%LPD*%
G01*
G04 APERTURE LIST*
G04 Aperture macros list*
%AMRoundRect*
0 Rectangle with rounded corners*
0 $1 Rounding radius*
0 $2 $3 $4 $5 $6 $7 $8 $9 X,Y pos of 4 corners*
0 Add a 4 corners polygon primitive as box body*
4,1,4,$2,$3,$4,$5,$6,$7,$8,$9,$2,$3,0*
0 Add four circle primitives for the rounded corners*
1,1,$1+$1,$2,$3*
1,1,$1+$1,$4,$5*
1,1,$1+$1,$6,$7*
1,1,$1+$1,$8,$9*
0 Add four rect primitives between the rounded corners*
20,1,$1+$1,$2,$3,$4,$5,0*
20,1,$1+$1,$4,$5,$6,$7,0*
20,1,$1+$1,$6,$7,$8,$9,0*
20,1,$1+$1,$8,$9,$2,$3,0*%
G04 Aperture macros list end*
G04 #@! TA.AperFunction,SMDPad,CuDef*
%ADD10R,1.200000X0.900000*%
G04 #@! TD*
G04 #@! TA.AperFunction,SMDPad,CuDef*
%ADD11RoundRect,0.147500X0.147500X0.172500X-0.147500X0.172500X-0.147500X-0.172500X0.147500X-0.172500X0*%
G04 #@! TD*
G04 #@! TA.AperFunction,SMDPad,CuDef*
%ADD12R,1.000000X1.000000*%
G04 #@! TD*
G04 #@! TA.AperFunction,SMDPad,CuDef*
%ADD13RoundRect,0.147500X0.172500X-0.147500X0.172500X0.147500X-0.172500X0.147500X-0.172500X-0.147500X0*%
G04 #@! TD*
G04 #@! TA.AperFunction,SMDPad,CuDef*
%ADD14R,0.700000X1.300000*%
G04 #@! TD*
G04 #@! TA.AperFunction,SMDPad,CuDef*
%ADD15R,1.450000X0.450000*%
G04 #@! TD*
G04 #@! TA.AperFunction,SMDPad,CuDef*
%ADD16RoundRect,0.147500X-0.172500X0.147500X-0.172500X-0.147500X0.172500X-0.147500X0.172500X0.147500X0*%
G04 #@! TD*
G04 #@! TA.AperFunction,SMDPad,CuDef*
%ADD17C,0.500000*%
G04 #@! TD*
G04 #@! TA.AperFunction,SMDPad,CuDef*
%ADD18RoundRect,0.147500X-0.147500X-0.172500X0.147500X-0.172500X0.147500X0.172500X-0.147500X0.172500X0*%
G04 #@! TD*
G04 #@! TA.AperFunction,SMDPad,CuDef*
%ADD19R,3.000000X1.600000*%
G04 #@! TD*
G04 #@! TA.AperFunction,SMDPad,CuDef*
%ADD20R,1.700000X0.900000*%
G04 #@! TD*
G04 #@! TA.AperFunction,ComponentPad*
%ADD21C,1.700000*%
G04 #@! TD*
G04 #@! TA.AperFunction,ComponentPad*
%ADD22O,1.700000X1.700000*%
G04 #@! TD*
G04 #@! TA.AperFunction,SMDPad,CuDef*
%ADD23R,0.800100X0.800100*%
G04 #@! TD*
G04 #@! TA.AperFunction,SMDPad,CuDef*
%ADD24R,1.150000X1.400000*%
G04 #@! TD*
G04 #@! TA.AperFunction,ComponentPad*
%ADD25R,1.700000X1.700000*%
G04 #@! TD*
G04 #@! TA.AperFunction,SMDPad,CuDef*
%ADD26R,1.220000X0.650000*%
G04 #@! TD*
G04 #@! TA.AperFunction,SMDPad,CuDef*
%ADD27C,0.300000*%
G04 #@! TD*
G04 #@! TA.AperFunction,SMDPad,CuDef*
%ADD28R,0.450000X1.450000*%
G04 #@! TD*
G04 #@! TA.AperFunction,SMDPad,CuDef*
%ADD29R,1.600000X3.000000*%
G04 #@! TD*
G04 #@! TA.AperFunction,SMDPad,CuDef*
%ADD30R,1.200000X3.700000*%
G04 #@! TD*
G04 #@! TA.AperFunction,SMDPad,CuDef*
%ADD31R,0.900000X1.700000*%
G04 #@! TD*
G04 #@! TA.AperFunction,SMDPad,CuDef*
%ADD32RoundRect,0.100000X-0.100000X0.637500X-0.100000X-0.637500X0.100000X-0.637500X0.100000X0.637500X0*%
G04 #@! TD*
G04 #@! TA.AperFunction,ComponentPad*
%ADD33C,1.930400*%
G04 #@! TD*
G04 #@! TA.AperFunction,ComponentPad*
%ADD34C,1.600000*%
G04 #@! TD*
G04 #@! TA.AperFunction,ComponentPad*
%ADD35C,1.300000*%
G04 #@! TD*
G04 #@! TA.AperFunction,ComponentPad*
%ADD36O,1.397000X1.092200*%
G04 #@! TD*
G04 #@! TA.AperFunction,ComponentPad*
%ADD37O,1.524000X1.524000*%
G04 #@! TD*
G04 #@! TA.AperFunction,ComponentPad*
%ADD38C,2.286000*%
G04 #@! TD*
G04 #@! TA.AperFunction,ViaPad*
%ADD39C,0.400000*%
G04 #@! TD*
G04 #@! TA.AperFunction,Conductor*
%ADD40C,0.203200*%
G04 #@! TD*
G04 #@! TA.AperFunction,Conductor*
%ADD41C,0.127000*%
G04 #@! TD*
G04 #@! TA.AperFunction,Conductor*
%ADD42C,0.200000*%
G04 #@! TD*
G04 #@! TA.AperFunction,Conductor*
%ADD43C,0.100000*%
G04 #@! TD*
G04 #@! TA.AperFunction,Conductor*
%ADD44C,0.250000*%
G04 #@! TD*
G04 APERTURE END LIST*
G04 #@! TA.AperFunction,EtchedComponent*
G04 #@! TO.C,NT2*
G36*
X133290000Y61750000D02*
G01*
X132790000Y61750000D01*
X132790000Y62750000D01*
X133290000Y62750000D01*
X133290000Y61750000D01*
G37*
G04 #@! TD.AperFunction*
G04 #@! TA.AperFunction,EtchedComponent*
G04 #@! TO.C,NT1*
G36*
X181820000Y22100000D02*
G01*
X181320000Y22100000D01*
X181320000Y23100000D01*
X181820000Y23100000D01*
X181820000Y22100000D01*
G37*
G04 #@! TD.AperFunction*
G04 #@! TD*
D10*
G04 #@! TO.P,D16,1,K*
G04 #@! TO.N,+12V*
X137916648Y25329922D03*
G04 #@! TO.P,D16,2,A*
G04 #@! TO.N,Net-(D16-A)*
X137916648Y22029922D03*
G04 #@! TD*
D11*
G04 #@! TO.P,C61,1*
G04 #@! TO.N,+12V*
X138691648Y82324922D03*
G04 #@! TO.P,C61,2*
G04 #@! TO.N,GND*
X137721648Y82324922D03*
G04 #@! TD*
D12*
G04 #@! TO.P,R3,1*
G04 #@! TO.N,/D0*
X170906648Y91759922D03*
G04 #@! TO.P,R3,2*
G04 #@! TO.N,Net-(Bank_But1-G)*
X170906648Y93459922D03*
G04 #@! TD*
D13*
G04 #@! TO.P,C1,1*
G04 #@! TO.N,+3V3*
X152010148Y66011600D03*
G04 #@! TO.P,C1,2*
G04 #@! TO.N,GND*
X152010148Y66981600D03*
G04 #@! TD*
D12*
G04 #@! TO.P,R57,1*
G04 #@! TO.N,Net-(U15B-+)*
X171546648Y35869922D03*
G04 #@! TO.P,R57,2*
G04 #@! TO.N,VREF+*
X169846648Y35869922D03*
G04 #@! TD*
D14*
G04 #@! TO.P,C44,1*
G04 #@! TO.N,/VCOM*
X171476648Y21859922D03*
G04 #@! TO.P,C44,2*
G04 #@! TO.N,GNDA*
X173376648Y21859922D03*
G04 #@! TD*
D12*
G04 #@! TO.P,R59,1*
G04 #@! TO.N,Net-(J12-SIG)*
X133916648Y20459922D03*
G04 #@! TO.P,R59,2*
G04 #@! TO.N,/D13*
X133916648Y18759922D03*
G04 #@! TD*
G04 #@! TO.P,R61,1*
G04 #@! TO.N,GND*
X155541648Y5079922D03*
G04 #@! TO.P,R61,2*
G04 #@! TO.N,Net-(U16B--)*
X155541648Y6779922D03*
G04 #@! TD*
D15*
G04 #@! TO.P,U15,1*
G04 #@! TO.N,Net-(U15A--)*
X168796648Y39584922D03*
G04 #@! TO.P,U15,2,-*
X168796648Y38934922D03*
G04 #@! TO.P,U15,3,+*
G04 #@! TO.N,Net-(U15A-+)*
X168796648Y38284922D03*
G04 #@! TO.P,U15,4,V-*
G04 #@! TO.N,-12VA*
X168796648Y37634922D03*
G04 #@! TO.P,U15,5,+*
G04 #@! TO.N,Net-(U15B-+)*
X174696648Y37634922D03*
G04 #@! TO.P,U15,6,-*
G04 #@! TO.N,Net-(U15B--)*
X174696648Y38284922D03*
G04 #@! TO.P,U15,7*
G04 #@! TO.N,Net-(C46-Pad1)*
X174696648Y38934922D03*
G04 #@! TO.P,U15,8,V+*
G04 #@! TO.N,+12V*
X174696648Y39584922D03*
G04 #@! TD*
D12*
G04 #@! TO.P,C45,1*
G04 #@! TO.N,/VCOM*
X171876648Y20119922D03*
G04 #@! TO.P,C45,2*
G04 #@! TO.N,GNDA*
X173576648Y20119922D03*
G04 #@! TD*
D16*
G04 #@! TO.P,R42,1*
G04 #@! TO.N,Net-(C57-Pad1)*
X179976648Y13674672D03*
G04 #@! TO.P,R42,2*
G04 #@! TO.N,Net-(U8B--)*
X179976648Y12704672D03*
G04 #@! TD*
D12*
G04 #@! TO.P,C25,1*
G04 #@! TO.N,+12V*
X129306648Y28009922D03*
G04 #@! TO.P,C25,2*
G04 #@! TO.N,GND*
X129306648Y29709922D03*
G04 #@! TD*
G04 #@! TO.P,C47,1*
G04 #@! TO.N,/D6*
X167526648Y98499922D03*
G04 #@! TO.P,C47,2*
G04 #@! TO.N,GND*
X167526648Y96799922D03*
G04 #@! TD*
D11*
G04 #@! TO.P,R161,1*
G04 #@! TO.N,Net-(C149-Pad1)*
X171056648Y779922D03*
G04 #@! TO.P,R161,2*
G04 #@! TO.N,Net-(C153-Pad1)*
X170086648Y779922D03*
G04 #@! TD*
D12*
G04 #@! TO.P,C79,1*
G04 #@! TO.N,Net-(POT_SAMP1-Center)*
X132886648Y76814922D03*
G04 #@! TO.P,C79,2*
G04 #@! TO.N,GNDADC*
X134586648Y76814922D03*
G04 #@! TD*
G04 #@! TO.P,C55,1*
G04 #@! TO.N,+12V*
X128420000Y66880000D03*
G04 #@! TO.P,C55,2*
G04 #@! TO.N,GND*
X130120000Y66880000D03*
G04 #@! TD*
D17*
G04 #@! TO.P,NT2,1,1*
G04 #@! TO.N,GNDADC*
X133040000Y62750000D03*
G04 #@! TO.P,NT2,2,2*
G04 #@! TO.N,GND*
X133040000Y61750000D03*
G04 #@! TD*
D16*
G04 #@! TO.P,C36,1*
G04 #@! TO.N,+3V3*
X146290148Y58451600D03*
G04 #@! TO.P,C36,2*
G04 #@! TO.N,GND*
X146290148Y57481600D03*
G04 #@! TD*
D12*
G04 #@! TO.P,C65,1*
G04 #@! TO.N,Net-(POT_START1-Center)*
X176356648Y60934482D03*
G04 #@! TO.P,C65,2*
G04 #@! TO.N,GNDADC*
X174656648Y60934482D03*
G04 #@! TD*
G04 #@! TO.P,R71,1*
G04 #@! TO.N,/D8*
X146316648Y93179922D03*
G04 #@! TO.P,R71,2*
G04 #@! TO.N,Net-(PLAY_BUT1-R)*
X148016648Y93179922D03*
G04 #@! TD*
D18*
G04 #@! TO.P,R52,1*
G04 #@! TO.N,Net-(U11A-+)*
X160886088Y25206436D03*
G04 #@! TO.P,R52,2*
G04 #@! TO.N,Net-(J14-SIG)*
X161856088Y25206436D03*
G04 #@! TD*
G04 #@! TO.P,C88,1*
G04 #@! TO.N,-12VA*
X170455000Y48750000D03*
G04 #@! TO.P,C88,2*
G04 #@! TO.N,GND*
X171425000Y48750000D03*
G04 #@! TD*
D19*
G04 #@! TO.P,C24,1*
G04 #@! TO.N,GND*
X145146648Y18879922D03*
G04 #@! TO.P,C24,2*
G04 #@! TO.N,-12VA*
X149546648Y18879922D03*
G04 #@! TD*
D12*
G04 #@! TO.P,R74,1*
G04 #@! TO.N,Net-(PLAY_BUT1-POLE-A)*
X148206648Y101299922D03*
G04 #@! TO.P,R74,2*
G04 #@! TO.N,/D12*
X146506648Y101299922D03*
G04 #@! TD*
D11*
G04 #@! TO.P,R55,1*
G04 #@! TO.N,/LIN*
X179261648Y14789672D03*
G04 #@! TO.P,R55,2*
G04 #@! TO.N,Net-(C57-Pad1)*
X178291648Y14789672D03*
G04 #@! TD*
D16*
G04 #@! TO.P,R49,1*
G04 #@! TO.N,Net-(U8A-+)*
X169201648Y12974672D03*
G04 #@! TO.P,R49,2*
G04 #@! TO.N,GND*
X169201648Y12004672D03*
G04 #@! TD*
D18*
G04 #@! TO.P,R41,1*
G04 #@! TO.N,Net-(U1A--)*
X178115000Y55644482D03*
G04 #@! TO.P,R41,2*
G04 #@! TO.N,/A7*
X179085000Y55644482D03*
G04 #@! TD*
D20*
G04 #@! TO.P,C67,1*
G04 #@! TO.N,+12V*
X133106493Y49569922D03*
G04 #@! TO.P,C67,2*
G04 #@! TO.N,GND*
X133106493Y52469922D03*
G04 #@! TD*
D21*
G04 #@! TO.P,J4,1,Pin_1*
G04 #@! TO.N,/UART_TX*
X151296648Y87529922D03*
G04 #@! TO.P,J4,2,Pin_2*
G04 #@! TO.N,GND*
X151296648Y90069922D03*
D22*
G04 #@! TO.P,J4,3,Pin_3*
G04 #@! TO.N,/UART_RX*
X153836648Y87529922D03*
G04 #@! TO.P,J4,4,Pin_4*
G04 #@! TO.N,GND*
X153836648Y90069922D03*
G04 #@! TO.P,J4,5,Pin_5*
G04 #@! TO.N,/DEBUG2*
X156376648Y87529922D03*
G04 #@! TO.P,J4,6,Pin_6*
G04 #@! TO.N,GND*
X156376648Y90069922D03*
D21*
G04 #@! TO.P,J4,7,Pin_7*
G04 #@! TO.N,/DEBUG3*
X158916648Y87529922D03*
G04 #@! TO.P,J4,8,Pin_8*
G04 #@! TO.N,GND*
X158916648Y90069922D03*
G04 #@! TD*
D18*
G04 #@! TO.P,C13,1*
G04 #@! TO.N,+3V3*
X159855148Y55646600D03*
G04 #@! TO.P,C13,2*
G04 #@! TO.N,GND*
X160825148Y55646600D03*
G04 #@! TD*
D11*
G04 #@! TO.P,R12,1*
G04 #@! TO.N,Net-(U1B--)*
X170031648Y57979922D03*
G04 #@! TO.P,R12,2*
G04 #@! TO.N,/A1*
X169061648Y57979922D03*
G04 #@! TD*
D16*
G04 #@! TO.P,R40,1*
G04 #@! TO.N,Net-(POT_START1-Center)*
X179136648Y59789482D03*
G04 #@! TO.P,R40,2*
G04 #@! TO.N,Net-(U1A-+)*
X179136648Y58819482D03*
G04 #@! TD*
D12*
G04 #@! TO.P,R21,1*
G04 #@! TO.N,GND*
X157746648Y30669922D03*
G04 #@! TO.P,R21,2*
G04 #@! TO.N,Net-(R1-Pad1)*
X157746648Y28969922D03*
G04 #@! TD*
D23*
G04 #@! TO.P,D15,1,Anode*
G04 #@! TO.N,GND*
X167220000Y47069240D03*
G04 #@! TO.P,D15,2,cathode*
G04 #@! TO.N,+3V3*
X169120000Y47069240D03*
G04 #@! TO.P,D15,3,AK*
G04 #@! TO.N,Net-(D15-AK)*
X168170000Y49068220D03*
G04 #@! TD*
D11*
G04 #@! TO.P,C6,1*
G04 #@! TO.N,+3.3VADC*
X146341648Y55229922D03*
G04 #@! TO.P,C6,2*
G04 #@! TO.N,GNDADC*
X145371648Y55229922D03*
G04 #@! TD*
D18*
G04 #@! TO.P,R30,1*
G04 #@! TO.N,Net-(R16-Pad2)*
X146761648Y27729922D03*
G04 #@! TO.P,R30,2*
G04 #@! TO.N,Net-(D24-AK)*
X147731648Y27729922D03*
G04 #@! TD*
G04 #@! TO.P,C8,1*
G04 #@! TO.N,/VCOM*
X172641648Y18829922D03*
G04 #@! TO.P,C8,2*
G04 #@! TO.N,GNDA*
X173611648Y18829922D03*
G04 #@! TD*
G04 #@! TO.P,R66,1*
G04 #@! TO.N,+12V*
X135041493Y49139922D03*
G04 #@! TO.P,R66,2*
G04 #@! TO.N,Net-(U13-EN)*
X136011493Y49139922D03*
G04 #@! TD*
D23*
G04 #@! TO.P,U6,1,VI*
G04 #@! TO.N,+12V*
X128299240Y65040000D03*
G04 #@! TO.P,U6,2,VO*
G04 #@! TO.N,VREF+*
X128299240Y63140000D03*
G04 #@! TO.P,U6,3,GND*
G04 #@! TO.N,GND*
X130298220Y64090000D03*
G04 #@! TD*
D11*
G04 #@! TO.P,R162,1*
G04 #@! TO.N,Net-(U12A--)*
X169036648Y1749922D03*
G04 #@! TO.P,R162,2*
G04 #@! TO.N,Net-(C153-Pad1)*
X168066648Y1749922D03*
G04 #@! TD*
D18*
G04 #@! TO.P,C73,1*
G04 #@! TO.N,+12V*
X149941648Y24599922D03*
G04 #@! TO.P,C73,2*
G04 #@! TO.N,GND*
X150911648Y24599922D03*
G04 #@! TD*
D12*
G04 #@! TO.P,C90,1*
G04 #@! TO.N,Net-(C90-Pad1)*
X174656648Y16084672D03*
G04 #@! TO.P,C90,2*
G04 #@! TO.N,Net-(U8A--)*
X172956648Y16084672D03*
G04 #@! TD*
D23*
G04 #@! TO.P,D24,1,Anode*
G04 #@! TO.N,GND*
X148266648Y31050682D03*
G04 #@! TO.P,D24,2,cathode*
G04 #@! TO.N,+3V3*
X146366648Y31050682D03*
G04 #@! TO.P,D24,3,AK*
G04 #@! TO.N,Net-(D24-AK)*
X147316648Y29051702D03*
G04 #@! TD*
D11*
G04 #@! TO.P,R65,1*
G04 #@! TO.N,+3V3*
X138126648Y49119922D03*
G04 #@! TO.P,R65,2*
G04 #@! TO.N,Net-(U13-FB)*
X137156648Y49119922D03*
G04 #@! TD*
G04 #@! TO.P,C87,1*
G04 #@! TO.N,+12V*
X176071648Y53804922D03*
G04 #@! TO.P,C87,2*
G04 #@! TO.N,GND*
X175101648Y53804922D03*
G04 #@! TD*
D12*
G04 #@! TO.P,C22,1*
G04 #@! TO.N,/OSC_IN*
X141166648Y63269922D03*
G04 #@! TO.P,C22,2*
G04 #@! TO.N,GND*
X139466648Y63269922D03*
G04 #@! TD*
D18*
G04 #@! TO.P,R160,1*
G04 #@! TO.N,GNDA*
X159691648Y1339922D03*
G04 #@! TO.P,R160,2*
G04 #@! TO.N,Net-(C152-Pad2)*
X160661648Y1339922D03*
G04 #@! TD*
D16*
G04 #@! TO.P,R164,1*
G04 #@! TO.N,GNDA*
X173416648Y5444922D03*
G04 #@! TO.P,R164,2*
G04 #@! TO.N,Net-(C153-Pad2)*
X173416648Y4474922D03*
G04 #@! TD*
D13*
G04 #@! TO.P,R44,1*
G04 #@! TO.N,Net-(U8A-+)*
X169221648Y13969672D03*
G04 #@! TO.P,R44,2*
G04 #@! TO.N,Net-(J13-SIG)*
X169221648Y14939672D03*
G04 #@! TD*
D20*
G04 #@! TO.P,C70,1*
G04 #@! TO.N,+3V3*
X132100000Y57220000D03*
G04 #@! TO.P,C70,2*
G04 #@! TO.N,GND*
X132100000Y54320000D03*
G04 #@! TD*
D18*
G04 #@! TO.P,C59,1*
G04 #@! TO.N,+12V*
X171111648Y55724482D03*
G04 #@! TO.P,C59,2*
G04 #@! TO.N,GND*
X172081648Y55724482D03*
G04 #@! TD*
D16*
G04 #@! TO.P,R7,1*
G04 #@! TO.N,/ROUT-*
X163506648Y7684922D03*
G04 #@! TO.P,R7,2*
G04 #@! TO.N,Net-(C152-Pad2)*
X163506648Y6714922D03*
G04 #@! TD*
D12*
G04 #@! TO.P,C83,1*
G04 #@! TO.N,Net-(POT_PITCH1-Center)*
X170806648Y60994482D03*
G04 #@! TO.P,C83,2*
G04 #@! TO.N,GNDADC*
X172506648Y60994482D03*
G04 #@! TD*
G04 #@! TO.P,R73,1*
G04 #@! TO.N,Net-(Bank_But1-POLE-A)*
X167526648Y102119922D03*
G04 #@! TO.P,R73,2*
G04 #@! TO.N,/D6*
X167526648Y100419922D03*
G04 #@! TD*
D18*
G04 #@! TO.P,R23,1*
G04 #@! TO.N,Net-(U3B--)*
X140476648Y80154922D03*
G04 #@! TO.P,R23,2*
G04 #@! TO.N,/A3*
X141446648Y80154922D03*
G04 #@! TD*
D16*
G04 #@! TO.P,R14,1*
G04 #@! TO.N,/LOUT-*
X170126648Y7674922D03*
G04 #@! TO.P,R14,2*
G04 #@! TO.N,Net-(C153-Pad2)*
X170126648Y6704922D03*
G04 #@! TD*
D12*
G04 #@! TO.P,C57,1*
G04 #@! TO.N,Net-(C57-Pad1)*
X178576648Y13439672D03*
G04 #@! TO.P,C57,2*
G04 #@! TO.N,Net-(U8B--)*
X178576648Y11739672D03*
G04 #@! TD*
G04 #@! TO.P,C49,1*
G04 #@! TO.N,+12V*
X179802780Y26653974D03*
G04 #@! TO.P,C49,2*
G04 #@! TO.N,GNDA*
X178102780Y26653974D03*
G04 #@! TD*
D16*
G04 #@! TO.P,R18,1*
G04 #@! TO.N,Net-(C46-Pad1)*
X169610000Y51075000D03*
G04 #@! TO.P,R18,2*
G04 #@! TO.N,Net-(D15-AK)*
X169610000Y50105000D03*
G04 #@! TD*
D12*
G04 #@! TO.P,C66,1*
G04 #@! TO.N,Net-(POT_LENGTH1-Center)*
X140156648Y76644922D03*
G04 #@! TO.P,C66,2*
G04 #@! TO.N,GNDADC*
X138456648Y76644922D03*
G04 #@! TD*
D11*
G04 #@! TO.P,C60,1*
G04 #@! TO.N,-12VA*
X175681648Y55694482D03*
G04 #@! TO.P,C60,2*
G04 #@! TO.N,GND*
X174711648Y55694482D03*
G04 #@! TD*
D12*
G04 #@! TO.P,R5,1*
G04 #@! TO.N,/D1*
X172646648Y91779922D03*
G04 #@! TO.P,R5,2*
G04 #@! TO.N,Net-(Bank_But1-R)*
X172646648Y93479922D03*
G04 #@! TD*
D23*
G04 #@! TO.P,D1,1,Anode*
G04 #@! TO.N,GND*
X153976648Y29729162D03*
G04 #@! TO.P,D1,2,cathode*
G04 #@! TO.N,+3V3*
X155876648Y29729162D03*
G04 #@! TO.P,D1,3,AK*
G04 #@! TO.N,Net-(D1-AK)*
X154926648Y31728142D03*
G04 #@! TD*
D16*
G04 #@! TO.P,C11,1*
G04 #@! TO.N,+3V3*
X155020148Y52731600D03*
G04 #@! TO.P,C11,2*
G04 #@! TO.N,GND*
X155020148Y51761600D03*
G04 #@! TD*
D18*
G04 #@! TO.P,R47,1*
G04 #@! TO.N,/I2C1_SCL*
X175846648Y31087422D03*
G04 #@! TO.P,R47,2*
G04 #@! TO.N,+3V3*
X176816648Y31087422D03*
G04 #@! TD*
D12*
G04 #@! TO.P,C39,1*
G04 #@! TO.N,/A6*
X127206648Y100359922D03*
G04 #@! TO.P,C39,2*
G04 #@! TO.N,GND*
X127206648Y102059922D03*
G04 #@! TD*
G04 #@! TO.P,C26,1*
G04 #@! TO.N,-12VA*
X145136648Y22739922D03*
G04 #@! TO.P,C26,2*
G04 #@! TO.N,GND*
X143436648Y22739922D03*
G04 #@! TD*
G04 #@! TO.P,R29,1*
G04 #@! TO.N,GND*
X173246648Y35884922D03*
G04 #@! TO.P,R29,2*
G04 #@! TO.N,Net-(U15B-+)*
X174946648Y35884922D03*
G04 #@! TD*
G04 #@! TO.P,C46,1*
G04 #@! TO.N,Net-(C46-Pad1)*
X178496648Y39184922D03*
G04 #@! TO.P,C46,2*
G04 #@! TO.N,Net-(U15B--)*
X178496648Y37484922D03*
G04 #@! TD*
G04 #@! TO.P,R79,1*
G04 #@! TO.N,+3V3*
X147136648Y79449922D03*
G04 #@! TO.P,R79,2*
G04 #@! TO.N,/D16*
X148836648Y79449922D03*
G04 #@! TD*
G04 #@! TO.P,C2,1*
G04 #@! TO.N,Net-(U2B-VCAP_2)*
X160140148Y61986600D03*
G04 #@! TO.P,C2,2*
G04 #@! TO.N,GND*
X160140148Y63686600D03*
G04 #@! TD*
D18*
G04 #@! TO.P,R48,1*
G04 #@! TO.N,/I2C1_SDA*
X174525000Y32440000D03*
G04 #@! TO.P,R48,2*
G04 #@! TO.N,+3V3*
X175495000Y32440000D03*
G04 #@! TD*
D24*
G04 #@! TO.P,Y1,1,1*
G04 #@! TO.N,/OSC_IN*
X141656648Y61039922D03*
G04 #@! TO.P,Y1,2,2*
G04 #@! TO.N,/OSC_OUT*
X143156648Y58939922D03*
G04 #@! TO.P,Y1,3,3*
G04 #@! TO.N,unconnected-(Y1-Pad3)*
X141656648Y58939922D03*
G04 #@! TO.P,Y1,4,4*
G04 #@! TO.N,unconnected-(Y1-Pad4)*
X143156648Y61039922D03*
G04 #@! TD*
D12*
G04 #@! TO.P,R68,1*
G04 #@! TO.N,/D7*
X128546648Y93459922D03*
G04 #@! TO.P,R68,2*
G04 #@! TO.N,Net-(REV_BUT1-R)*
X130246648Y93459922D03*
G04 #@! TD*
D11*
G04 #@! TO.P,C35,1*
G04 #@! TO.N,+12V*
X174981648Y41084922D03*
G04 #@! TO.P,C35,2*
G04 #@! TO.N,GND*
X174011648Y41084922D03*
G04 #@! TD*
D23*
G04 #@! TO.P,D22,1,Anode*
G04 #@! TO.N,GND*
X140796648Y40530682D03*
G04 #@! TO.P,D22,2,cathode*
G04 #@! TO.N,+3V3*
X138896648Y40530682D03*
G04 #@! TO.P,D22,3,AK*
G04 #@! TO.N,Net-(D22-AK)*
X139846648Y38531702D03*
G04 #@! TD*
D11*
G04 #@! TO.P,C17,1*
G04 #@! TO.N,+3V3*
X146715148Y61686600D03*
G04 #@! TO.P,C17,2*
G04 #@! TO.N,GND*
X145745148Y61686600D03*
G04 #@! TD*
D12*
G04 #@! TO.P,R80,1*
G04 #@! TO.N,+3V3*
X147136648Y76899922D03*
G04 #@! TO.P,R80,2*
G04 #@! TO.N,/D17*
X148836648Y76899922D03*
G04 #@! TD*
D11*
G04 #@! TO.P,C64,1*
G04 #@! TO.N,-12VA*
X136012564Y38914922D03*
G04 #@! TO.P,C64,2*
G04 #@! TO.N,GND*
X135042564Y38914922D03*
G04 #@! TD*
D16*
G04 #@! TO.P,C76,1*
G04 #@! TO.N,-12VA*
X157816648Y23424922D03*
G04 #@! TO.P,C76,2*
G04 #@! TO.N,GND*
X157816648Y22454922D03*
G04 #@! TD*
D12*
G04 #@! TO.P,C42,1*
G04 #@! TO.N,GND*
X173255768Y34310422D03*
G04 #@! TO.P,C42,2*
G04 #@! TO.N,Net-(U15B-+)*
X174955768Y34310422D03*
G04 #@! TD*
D15*
G04 #@! TO.P,U10,1*
G04 #@! TO.N,Net-(U10A--)*
X155236648Y26094922D03*
G04 #@! TO.P,U10,2,-*
X155236648Y26744922D03*
G04 #@! TO.P,U10,3,+*
G04 #@! TO.N,Net-(D1-AK)*
X155236648Y27394922D03*
G04 #@! TO.P,U10,4,V-*
G04 #@! TO.N,-12VA*
X155236648Y28044922D03*
G04 #@! TO.P,U10,5,+*
G04 #@! TO.N,Net-(D24-AK)*
X149336648Y28044922D03*
G04 #@! TO.P,U10,6,-*
G04 #@! TO.N,Net-(U10B--)*
X149336648Y27394922D03*
G04 #@! TO.P,U10,7*
X149336648Y26744922D03*
G04 #@! TO.P,U10,8,V+*
G04 #@! TO.N,+12V*
X149336648Y26094922D03*
G04 #@! TD*
D11*
G04 #@! TO.P,C150,1*
G04 #@! TO.N,GNDA*
X172355480Y5759922D03*
G04 #@! TO.P,C150,2*
G04 #@! TO.N,Net-(U12A-+)*
X171385480Y5759922D03*
G04 #@! TD*
D18*
G04 #@! TO.P,R2,1*
G04 #@! TO.N,Net-(U10A--)*
X156061648Y24569922D03*
G04 #@! TO.P,R2,2*
G04 #@! TO.N,/A0*
X157031648Y24569922D03*
G04 #@! TD*
D11*
G04 #@! TO.P,R50,1*
G04 #@! TO.N,Net-(C48-Pad1)*
X161136648Y14339922D03*
G04 #@! TO.P,R50,2*
G04 #@! TO.N,Net-(U11B--)*
X160166648Y14339922D03*
G04 #@! TD*
D18*
G04 #@! TO.P,R152,1*
G04 #@! TO.N,Net-(J17-SIG)*
X163290480Y-390078D03*
G04 #@! TO.P,R152,2*
G04 #@! TO.N,Net-(C147-Pad1)*
X164260480Y-390078D03*
G04 #@! TD*
D25*
G04 #@! TO.P,J3,1,Pin_1*
G04 #@! TO.N,+3V3*
X180876648Y76529922D03*
D22*
G04 #@! TO.P,J3,2,Pin_2*
G04 #@! TO.N,/SWDCLK*
X180876648Y73989922D03*
G04 #@! TO.P,J3,3,Pin_3*
G04 #@! TO.N,GND*
X180876648Y71449922D03*
G04 #@! TO.P,J3,4,Pin_4*
G04 #@! TO.N,/SWDIO*
X180876648Y68909922D03*
G04 #@! TD*
D18*
G04 #@! TO.P,R11,1*
G04 #@! TO.N,Net-(POT_PITCH1-Center)*
X169019944Y59278002D03*
G04 #@! TO.P,R11,2*
G04 #@! TO.N,Net-(U1B-+)*
X169989944Y59278002D03*
G04 #@! TD*
D26*
G04 #@! TO.P,U13,1,GND*
G04 #@! TO.N,GND*
X135186648Y52309922D03*
G04 #@! TO.P,U13,2,SW*
G04 #@! TO.N,Net-(U13-SW)*
X135186648Y51359922D03*
G04 #@! TO.P,U13,3,IN*
G04 #@! TO.N,+12V*
X135186648Y50409922D03*
G04 #@! TO.P,U13,4,FB*
G04 #@! TO.N,Net-(U13-FB)*
X137806648Y50409922D03*
G04 #@! TO.P,U13,5,EN*
G04 #@! TO.N,Net-(U13-EN)*
X137806648Y51359922D03*
G04 #@! TO.P,U13,6,BST*
G04 #@! TO.N,Net-(U13-BST)*
X137806648Y52309922D03*
G04 #@! TD*
D12*
G04 #@! TO.P,R20,1*
G04 #@! TO.N,Net-(J7-SIG)*
X139806648Y31959922D03*
G04 #@! TO.P,R20,2*
G04 #@! TO.N,Net-(R20-Pad2)*
X139806648Y33659922D03*
G04 #@! TD*
G04 #@! TO.P,C51,1*
G04 #@! TO.N,+5V*
X178093428Y21447422D03*
G04 #@! TO.P,C51,2*
G04 #@! TO.N,GNDA*
X179793428Y21447422D03*
G04 #@! TD*
D18*
G04 #@! TO.P,R51,1*
G04 #@! TO.N,Net-(U11B--)*
X160046648Y13069922D03*
G04 #@! TO.P,R51,2*
G04 #@! TO.N,Net-(C52-Pad1)*
X161016648Y13069922D03*
G04 #@! TD*
D27*
G04 #@! TO.P,U2,A1,PE3*
G04 #@! TO.N,/SAI_SD_B*
X148650148Y63796600D03*
G04 #@! TO.P,U2,A2,PE2*
G04 #@! TO.N,/SAI_MCLK*
X149300148Y63796600D03*
G04 #@! TO.P,U2,A3,PE1*
G04 #@! TO.N,/SD-NBL1*
X149950148Y63796600D03*
G04 #@! TO.P,U2,A4,PE0*
G04 #@! TO.N,/SD-NBL0*
X150600148Y63796600D03*
G04 #@! TO.P,U2,A5,PB8*
G04 #@! TO.N,/I2C1_SCL*
X151250148Y63796600D03*
G04 #@! TO.P,U2,A6,PB5*
G04 #@! TO.N,/SD-CKE1*
X151900148Y63796600D03*
G04 #@! TO.P,U2,A7,PG14*
G04 #@! TO.N,unconnected-(U2A-PG14-PadA7)*
X152550148Y63796600D03*
G04 #@! TO.P,U2,A8,PG13*
G04 #@! TO.N,unconnected-(U2A-PG13-PadA8)*
X153200148Y63796600D03*
G04 #@! TO.P,U2,A9,PB4*
G04 #@! TO.N,/DEBUG3*
X153850148Y63796600D03*
G04 #@! TO.P,U2,A10,PB3*
G04 #@! TO.N,/CODEC_RESET*
X154500148Y63796600D03*
G04 #@! TO.P,U2,A11,PD7*
G04 #@! TO.N,unconnected-(U2A-PD7-PadA11)*
X155150148Y63796600D03*
G04 #@! TO.P,U2,A12,PC12*
G04 #@! TO.N,/D9*
X155800148Y63796600D03*
G04 #@! TO.P,U2,A13,PA15*
G04 #@! TO.N,/D0*
X156450148Y63796600D03*
G04 #@! TO.P,U2,A14,PA14*
G04 #@! TO.N,/SWDCLK*
X157100148Y63796600D03*
G04 #@! TO.P,U2,A15,PA13*
G04 #@! TO.N,/SWDIO*
X157750148Y63796600D03*
G04 #@! TO.P,U2,B1,PE4*
G04 #@! TO.N,/SAI_FS*
X148650148Y63146600D03*
G04 #@! TO.P,U2,B2,PE5*
G04 #@! TO.N,/SAI_SCK*
X149300148Y63146600D03*
G04 #@! TO.P,U2,B3,PE6*
G04 #@! TO.N,/SAI_SD_A*
X149950148Y63146600D03*
G04 #@! TO.P,U2,B4,PB9*
G04 #@! TO.N,/I2C1_SDA*
X150600148Y63146600D03*
G04 #@! TO.P,U2,B5,PB7*
G04 #@! TO.N,unconnected-(U2A-PB7-PadB5)*
X151250148Y63146600D03*
G04 #@! TO.P,U2,B6,PB6*
G04 #@! TO.N,unconnected-(U2A-PB6-PadB6)*
X151900148Y63146600D03*
G04 #@! TO.P,U2,B7,PG15*
G04 #@! TO.N,/SD-NCAS*
X152550148Y63146600D03*
G04 #@! TO.P,U2,B8,PG12*
G04 #@! TO.N,unconnected-(U2A-PG12-PadB8)*
X153200148Y63146600D03*
G04 #@! TO.P,U2,B9,PG11*
G04 #@! TO.N,unconnected-(U2A-PG11-PadB9)*
X153850148Y63146600D03*
G04 #@! TO.P,U2,B10,PG10*
G04 #@! TO.N,unconnected-(U2A-PG10-PadB10)*
X154500148Y63146600D03*
G04 #@! TO.P,U2,B11,PD6*
G04 #@! TO.N,unconnected-(U2A-PD6-PadB11)*
X155150148Y63146600D03*
G04 #@! TO.P,U2,B12,PD0*
G04 #@! TO.N,/SD-D2*
X155800148Y63146600D03*
G04 #@! TO.P,U2,B13,PC11*
G04 #@! TO.N,/D19*
X156450148Y63146600D03*
G04 #@! TO.P,U2,B14,PC10*
G04 #@! TO.N,/D18*
X157100148Y63146600D03*
G04 #@! TO.P,U2,B15,PA12*
G04 #@! TO.N,unconnected-(U2A-PA12-PadB15)*
X157750148Y63146600D03*
G04 #@! TO.P,U2,C1,VBAT*
G04 #@! TO.N,unconnected-(U2B-VBAT-PadC1)*
X148650148Y62496600D03*
G04 #@! TO.P,U2,C2,PI7*
G04 #@! TO.N,/D1*
X149300148Y62496600D03*
G04 #@! TO.P,U2,C3,PI6*
G04 #@! TO.N,unconnected-(U2A-PI6-PadC3)*
X149950148Y62496600D03*
G04 #@! TO.P,U2,C4,PI5*
G04 #@! TO.N,/DEBUG2*
X150600148Y62496600D03*
G04 #@! TO.P,U2,C5,VDD*
G04 #@! TO.N,+3V3*
X151250148Y62496600D03*
G04 #@! TO.P,U2,C6,PDR_ON*
X151900148Y62496600D03*
G04 #@! TO.P,U2,C7,VDD*
X152550148Y62496600D03*
G04 #@! TO.P,U2,C8,VDDSDMMC*
X153200148Y62496600D03*
G04 #@! TO.P,U2,C9,VDD*
X153850148Y62496600D03*
G04 #@! TO.P,U2,C10,PG9*
G04 #@! TO.N,unconnected-(U2A-PG9-PadC10)*
X154500148Y62496600D03*
G04 #@! TO.P,U2,C11,PD5*
G04 #@! TO.N,unconnected-(U2A-PD5-PadC11)*
X155150148Y62496600D03*
G04 #@! TO.P,U2,C12,PD1*
G04 #@! TO.N,/SD-D3*
X155800148Y62496600D03*
G04 #@! TO.P,U2,C13,PI3*
G04 #@! TO.N,unconnected-(U2A-PI3-PadC13)*
X156450148Y62496600D03*
G04 #@! TO.P,U2,C14,PI2*
G04 #@! TO.N,/D3*
X157100148Y62496600D03*
G04 #@! TO.P,U2,C15,PA11*
G04 #@! TO.N,unconnected-(U2A-PA11-PadC15)*
X157750148Y62496600D03*
G04 #@! TO.P,U2,D1,PC13*
G04 #@! TO.N,unconnected-(U2A-PC13-PadD1)*
X148650148Y61846600D03*
G04 #@! TO.P,U2,D2,PI8*
G04 #@! TO.N,unconnected-(U2A-PI8-PadD2)*
X149300148Y61846600D03*
G04 #@! TO.P,U2,D3,PI9*
G04 #@! TO.N,unconnected-(U2A-PI9-PadD3)*
X149950148Y61846600D03*
G04 #@! TO.P,U2,D4,PI4*
G04 #@! TO.N,unconnected-(U2A-PI4-PadD4)*
X150600148Y61846600D03*
G04 #@! TO.P,U2,D5,VSS*
G04 #@! TO.N,GND*
X151250148Y61846600D03*
G04 #@! TO.P,U2,D6,BOOT*
G04 #@! TO.N,/BOOT0*
X151900148Y61846600D03*
G04 #@! TO.P,U2,D7,VSS*
G04 #@! TO.N,GND*
X152550148Y61846600D03*
G04 #@! TO.P,U2,D8,VSS*
X153200148Y61846600D03*
G04 #@! TO.P,U2,D9,VSS*
X153850148Y61846600D03*
G04 #@! TO.P,U2,D10,PD4*
G04 #@! TO.N,unconnected-(U2A-PD4-PadD10)*
X154500148Y61846600D03*
G04 #@! TO.P,U2,D11,PD3*
G04 #@! TO.N,unconnected-(U2A-PD3-PadD11)*
X155150148Y61846600D03*
G04 #@! TO.P,U2,D12,PD2*
G04 #@! TO.N,/D4*
X155800148Y61846600D03*
G04 #@! TO.P,U2,D13,PH15*
G04 #@! TO.N,unconnected-(U2A-PH15-PadD13)*
X156450148Y61846600D03*
G04 #@! TO.P,U2,D14,PI1*
G04 #@! TO.N,unconnected-(U2A-PI1-PadD14)*
X157100148Y61846600D03*
G04 #@! TO.P,U2,D15,PA10*
G04 #@! TO.N,unconnected-(U2A-PA10-PadD15)*
X157750148Y61846600D03*
G04 #@! TO.P,U2,E1,PC14*
G04 #@! TO.N,unconnected-(U2A-PC14-PadE1)*
X148650148Y61196600D03*
G04 #@! TO.P,U2,E2,PF0*
G04 #@! TO.N,/SD-A0*
X149300148Y61196600D03*
G04 #@! TO.P,U2,E3,PI10*
G04 #@! TO.N,unconnected-(U2A-PI10-PadE3)*
X149950148Y61196600D03*
G04 #@! TO.P,U2,E4,PI11*
G04 #@! TO.N,unconnected-(U2A-PI11-PadE4)*
X150600148Y61196600D03*
G04 #@! TO.P,U2,E12,PH13*
G04 #@! TO.N,unconnected-(U2A-PH13-PadE12)*
X155800148Y61196600D03*
G04 #@! TO.P,U2,E13,PH14*
G04 #@! TO.N,unconnected-(U2A-PH14-PadE13)*
X156450148Y61196600D03*
G04 #@! TO.P,U2,E14,PI0*
G04 #@! TO.N,/D5*
X157100148Y61196600D03*
G04 #@! TO.P,U2,E15,PA9*
G04 #@! TO.N,unconnected-(U2A-PA9-PadE15)*
X157750148Y61196600D03*
G04 #@! TO.P,U2,F1,PC15*
G04 #@! TO.N,unconnected-(U2A-PC15-PadF1)*
X148650148Y60546600D03*
G04 #@! TO.P,U2,F2,VSS*
G04 #@! TO.N,GND*
X149300148Y60546600D03*
G04 #@! TO.P,U2,F3,VDD*
G04 #@! TO.N,+3V3*
X149950148Y60546600D03*
G04 #@! TO.P,U2,F4,PH2*
G04 #@! TO.N,unconnected-(U2A-PH2-PadF4)*
X150600148Y60546600D03*
G04 #@! TO.P,U2,F6,VSS*
G04 #@! TO.N,GND*
X151900148Y60546600D03*
G04 #@! TO.P,U2,F7,VSS*
X152550148Y60546600D03*
G04 #@! TO.P,U2,F8,VSS*
X153200148Y60546600D03*
G04 #@! TO.P,U2,F9,VSS*
X153850148Y60546600D03*
G04 #@! TO.P,U2,F10,VSS*
X154500148Y60546600D03*
G04 #@! TO.P,U2,F12,VSS*
X155800148Y60546600D03*
G04 #@! TO.P,U2,F13,VCAP_2*
G04 #@! TO.N,Net-(U2B-VCAP_2)*
X156450148Y60546600D03*
G04 #@! TO.P,U2,F14,PC9*
G04 #@! TO.N,/D17*
X157100148Y60546600D03*
G04 #@! TO.P,U2,F15,PA8*
G04 #@! TO.N,/D12*
X157750148Y60546600D03*
G04 #@! TO.P,U2,G1,PH0*
G04 #@! TO.N,/OSC_IN*
X148650148Y59896600D03*
G04 #@! TO.P,U2,G2,VSS*
G04 #@! TO.N,GND*
X149300148Y59896600D03*
G04 #@! TO.P,U2,G3,VDD*
G04 #@! TO.N,+3V3*
X149950148Y59896600D03*
G04 #@! TO.P,U2,G4,PH3*
G04 #@! TO.N,unconnected-(U2A-PH3-PadG4)*
X150600148Y59896600D03*
G04 #@! TO.P,U2,G6,VSS*
G04 #@! TO.N,GND*
X151900148Y59896600D03*
G04 #@! TO.P,U2,G7,VSS*
X152550148Y59896600D03*
G04 #@! TO.P,U2,G8,VSS*
X153200148Y59896600D03*
G04 #@! TO.P,U2,G9,VSS*
X153850148Y59896600D03*
G04 #@! TO.P,U2,G10,VSS*
X154500148Y59896600D03*
G04 #@! TO.P,U2,G12,VSS*
X155800148Y59896600D03*
G04 #@! TO.P,U2,G13,VDD*
G04 #@! TO.N,+3V3*
X156450148Y59896600D03*
G04 #@! TO.P,U2,G14,PC8*
G04 #@! TO.N,/D16*
X157100148Y59896600D03*
G04 #@! TO.P,U2,G15,PC7*
G04 #@! TO.N,/D2*
X157750148Y59896600D03*
G04 #@! TO.P,U2,H1,PH1*
G04 #@! TO.N,/OSC_OUT*
X148650148Y59246600D03*
G04 #@! TO.P,U2,H2,PF2*
G04 #@! TO.N,/SD-A2*
X149300148Y59246600D03*
G04 #@! TO.P,U2,H3,PF1*
G04 #@! TO.N,/SD-A1*
X149950148Y59246600D03*
G04 #@! TO.P,U2,H4,PH4*
G04 #@! TO.N,unconnected-(U2A-PH4-PadH4)*
X150600148Y59246600D03*
G04 #@! TO.P,U2,H6,VSS*
G04 #@! TO.N,GND*
X151900148Y59246600D03*
G04 #@! TO.P,U2,H7,VSS*
X152550148Y59246600D03*
G04 #@! TO.P,U2,H8,VSS*
X153200148Y59246600D03*
G04 #@! TO.P,U2,H9,VSS*
X153850148Y59246600D03*
G04 #@! TO.P,U2,H10,VSS*
X154500148Y59246600D03*
G04 #@! TO.P,U2,H12,VSS*
X155800148Y59246600D03*
G04 #@! TO.P,U2,H13,VDDUSB*
G04 #@! TO.N,+3V3*
X156450148Y59246600D03*
G04 #@! TO.P,U2,H14,PG8*
G04 #@! TO.N,/SD-CLK*
X157100148Y59246600D03*
G04 #@! TO.P,U2,H15,PC6*
G04 #@! TO.N,/D14*
X157750148Y59246600D03*
G04 #@! TO.P,U2,J1,NRST*
G04 #@! TO.N,/NRST*
X148650148Y58596600D03*
G04 #@! TO.P,U2,J2,PF3*
G04 #@! TO.N,/SD-A3*
X149300148Y58596600D03*
G04 #@! TO.P,U2,J3,PF4*
G04 #@! TO.N,/SD-A4*
X149950148Y58596600D03*
G04 #@! TO.P,U2,J4,PH5*
G04 #@! TO.N,/SD-NWE*
X150600148Y58596600D03*
G04 #@! TO.P,U2,J6,VSS*
G04 #@! TO.N,GND*
X151900148Y58596600D03*
G04 #@! TO.P,U2,J7,VSS*
X152550148Y58596600D03*
G04 #@! TO.P,U2,J8,VSS*
X153200148Y58596600D03*
G04 #@! TO.P,U2,J9,VSS*
X153850148Y58596600D03*
G04 #@! TO.P,U2,J10,VSS*
X154500148Y58596600D03*
G04 #@! TO.P,U2,J12,VDD*
G04 #@! TO.N,+3V3*
X155800148Y58596600D03*
G04 #@! TO.P,U2,J13,VDD*
X156450148Y58596600D03*
G04 #@! TO.P,U2,J14,VDD12OTGHS*
G04 #@! TO.N,Net-(U2B-VDD12OTGHS)*
X157100148Y58596600D03*
G04 #@! TO.P,U2,J15,OTG_HR_REXT*
G04 #@! TO.N,Net-(U2B-OTG_HR_REXT)*
X157750148Y58596600D03*
G04 #@! TO.P,U2,K1,PF7*
G04 #@! TO.N,/UART_TX*
X148650148Y57946600D03*
G04 #@! TO.P,U2,K2,PF6*
G04 #@! TO.N,/UART_RX*
X149300148Y57946600D03*
G04 #@! TO.P,U2,K3,PF5*
G04 #@! TO.N,/SD-A5*
X149950148Y57946600D03*
G04 #@! TO.P,U2,K4,VDD*
G04 #@! TO.N,+3V3*
X150600148Y57946600D03*
G04 #@! TO.P,U2,K6,VSS*
G04 #@! TO.N,GND*
X151900148Y57946600D03*
G04 #@! TO.P,U2,K7,VSS*
X152550148Y57946600D03*
G04 #@! TO.P,U2,K8,VSS*
X153200148Y57946600D03*
G04 #@! TO.P,U2,K9,VSS*
X153850148Y57946600D03*
G04 #@! TO.P,U2,K10,VSS*
X154500148Y57946600D03*
G04 #@! TO.P,U2,K12,PH12*
G04 #@! TO.N,/D15*
X155800148Y57946600D03*
G04 #@! TO.P,U2,K13,PG5*
G04 #@! TO.N,/SD-BA1*
X156450148Y57946600D03*
G04 #@! TO.P,U2,K14,PG4*
G04 #@! TO.N,/SD-BA0*
X157100148Y57946600D03*
G04 #@! TO.P,U2,K15,PG3*
G04 #@! TO.N,unconnected-(U2A-PG3-PadK15)*
X157750148Y57946600D03*
G04 #@! TO.P,U2,L1,PF10*
G04 #@! TO.N,unconnected-(U2A-PF10-PadL1)*
X148650148Y57296600D03*
G04 #@! TO.P,U2,L2,PF9*
G04 #@! TO.N,unconnected-(U2A-PF9-PadL2)*
X149300148Y57296600D03*
G04 #@! TO.P,U2,L3,PF8*
G04 #@! TO.N,unconnected-(U2A-PF8-PadL3)*
X149950148Y57296600D03*
G04 #@! TO.P,U2,L4,BYPASS_REG*
G04 #@! TO.N,unconnected-(U2B-BYPASS_REG-PadL4)*
X150600148Y57296600D03*
G04 #@! TO.P,U2,L12,PH11*
G04 #@! TO.N,/D13*
X155800148Y57296600D03*
G04 #@! TO.P,U2,L13,PH10*
G04 #@! TO.N,unconnected-(U2A-PH10-PadL13)*
X156450148Y57296600D03*
G04 #@! TO.P,U2,L14,PD15*
G04 #@! TO.N,/SD-D1*
X157100148Y57296600D03*
G04 #@! TO.P,U2,L15,PG2*
G04 #@! TO.N,/SD-A12*
X157750148Y57296600D03*
G04 #@! TO.P,U2,M1,VSSA*
G04 #@! TO.N,GND*
X148650148Y56646600D03*
G04 #@! TO.P,U2,M2,PC0*
G04 #@! TO.N,/A3*
X149300148Y56646600D03*
G04 #@! TO.P,U2,M3,PC1*
G04 #@! TO.N,/A8*
X149950148Y56646600D03*
G04 #@! TO.P,U2,M4,PC2*
G04 #@! TO.N,unconnected-(U2A-PC2-PadM4)*
X150600148Y56646600D03*
G04 #@! TO.P,U2,M5,PC3*
G04 #@! TO.N,unconnected-(U2A-PC3-PadM5)*
X151250148Y56646600D03*
G04 #@! TO.P,U2,M6,PB2*
G04 #@! TO.N,unconnected-(U2A-PB2-PadM6)*
X151900148Y56646600D03*
G04 #@! TO.P,U2,M7,PG1*
G04 #@! TO.N,/SD-A11*
X152550148Y56646600D03*
G04 #@! TO.P,U2,M8,VSS*
G04 #@! TO.N,GND*
X153200148Y56646600D03*
G04 #@! TO.P,U2,M9,VSS*
X153850148Y56646600D03*
G04 #@! TO.P,U2,M10,VCAP_1*
G04 #@! TO.N,Net-(U2B-VCAP_1)*
X154500148Y56646600D03*
G04 #@! TO.P,U2,M11,PH6*
G04 #@! TO.N,/SD-NE1*
X155150148Y56646600D03*
G04 #@! TO.P,U2,M12,PH8*
G04 #@! TO.N,unconnected-(U2A-PH8-PadM12)*
X155800148Y56646600D03*
G04 #@! TO.P,U2,M13,PH9*
G04 #@! TO.N,unconnected-(U2A-PH9-PadM13)*
X156450148Y56646600D03*
G04 #@! TO.P,U2,M14,PD14*
G04 #@! TO.N,/SD-D0*
X157100148Y56646600D03*
G04 #@! TO.P,U2,M15,PD13*
G04 #@! TO.N,/D11*
X157750148Y56646600D03*
G04 #@! TO.P,U2,N1,VREF-*
G04 #@! TO.N,GNDADC*
X148650148Y55996600D03*
G04 #@! TO.P,U2,N2,PA1*
G04 #@! TO.N,/A7*
X149300148Y55996600D03*
G04 #@! TO.P,U2,N3,PA0*
G04 #@! TO.N,/A6*
X149950148Y55996600D03*
G04 #@! TO.P,U2,N4,PA4*
G04 #@! TO.N,/A0*
X150600148Y55996600D03*
G04 #@! TO.P,U2,N5,PC4*
G04 #@! TO.N,unconnected-(U2A-PC4-PadN5)*
X151250148Y55996600D03*
G04 #@! TO.P,U2,N6,PF13*
G04 #@! TO.N,/SD-A7*
X151900148Y55996600D03*
G04 #@! TO.P,U2,N7,PG0*
G04 #@! TO.N,/SD-A10*
X152550148Y55996600D03*
G04 #@! TO.P,U2,N8,VDD*
G04 #@! TO.N,+3V3*
X153200148Y55996600D03*
G04 #@! TO.P,U2,N9,VDD*
X153850148Y55996600D03*
G04 #@! TO.P,U2,N10,VDD*
X154500148Y55996600D03*
G04 #@! TO.P,U2,N11,PE13*
G04 #@! TO.N,/SD-D10*
X155150148Y55996600D03*
G04 #@! TO.P,U2,N12,PH7*
G04 #@! TO.N,unconnected-(U2A-PH7-PadN12)*
X155800148Y55996600D03*
G04 #@! TO.P,U2,N13,PD12*
G04 #@! TO.N,unconnected-(U2A-PD12-PadN13)*
X156450148Y55996600D03*
G04 #@! TO.P,U2,N14,PD11*
G04 #@! TO.N,unconnected-(U2A-PD11-PadN14)*
X157100148Y55996600D03*
G04 #@! TO.P,U2,N15,PD10*
G04 #@! TO.N,/SD-D15*
X157750148Y55996600D03*
G04 #@! TO.P,U2,P1,VREF+*
G04 #@! TO.N,VREF+*
X148650148Y55346600D03*
G04 #@! TO.P,U2,P2,PA2*
G04 #@! TO.N,/A2*
X149300148Y55346600D03*
G04 #@! TO.P,U2,P3,PA6*
G04 #@! TO.N,/A5*
X149950148Y55346600D03*
G04 #@! TO.P,U2,P4,PA5*
G04 #@! TO.N,/A1*
X150600148Y55346600D03*
G04 #@! TO.P,U2,P5,PC5*
G04 #@! TO.N,unconnected-(U2A-PC5-PadP5)*
X151250148Y55346600D03*
G04 #@! TO.P,U2,P6,PF12*
G04 #@! TO.N,/SD-A6*
X151900148Y55346600D03*
G04 #@! TO.P,U2,P7,PF15*
G04 #@! TO.N,/SD-A9*
X152550148Y55346600D03*
G04 #@! TO.P,U2,P8,PE8*
G04 #@! TO.N,/SD-D5*
X153200148Y55346600D03*
G04 #@! TO.P,U2,P9,PE9*
G04 #@! TO.N,/SD-D6*
X153850148Y55346600D03*
G04 #@! TO.P,U2,P10,PE11*
G04 #@! TO.N,/SD-D8*
X154500148Y55346600D03*
G04 #@! TO.P,U2,P11,PE14*
G04 #@! TO.N,/SD-D11*
X155150148Y55346600D03*
G04 #@! TO.P,U2,P12,PB12*
G04 #@! TO.N,unconnected-(U2A-PB12-PadP12)*
X155800148Y55346600D03*
G04 #@! TO.P,U2,P13,PB13*
G04 #@! TO.N,unconnected-(U2A-PB13-PadP13)*
X156450148Y55346600D03*
G04 #@! TO.P,U2,P14,PD9*
G04 #@! TO.N,/SD-D14*
X157100148Y55346600D03*
G04 #@! TO.P,U2,P15,PD8*
G04 #@! TO.N,/SD-D13*
X157750148Y55346600D03*
G04 #@! TO.P,U2,R1,VDDA*
G04 #@! TO.N,+3.3VADC*
X148650148Y54696600D03*
G04 #@! TO.P,U2,R2,PA3*
G04 #@! TO.N,/A9*
X149300148Y54696600D03*
G04 #@! TO.P,U2,R3,PA7*
G04 #@! TO.N,/A4*
X149950148Y54696600D03*
G04 #@! TO.P,U2,R4,PB1*
G04 #@! TO.N,unconnected-(U2A-PB1-PadR4)*
X150600148Y54696600D03*
G04 #@! TO.P,U2,R5,PB0*
G04 #@! TO.N,unconnected-(U2A-PB0-PadR5)*
X151250148Y54696600D03*
G04 #@! TO.P,U2,R6,PF11*
G04 #@! TO.N,/SD-NRAS*
X151900148Y54696600D03*
G04 #@! TO.P,U2,R7,PF14*
G04 #@! TO.N,/SD-A8*
X152550148Y54696600D03*
G04 #@! TO.P,U2,R8,PE7*
G04 #@! TO.N,/SD-D4*
X153200148Y54696600D03*
G04 #@! TO.P,U2,R9,PE10*
G04 #@! TO.N,/SD-D7*
X153850148Y54696600D03*
G04 #@! TO.P,U2,R10,PE12*
G04 #@! TO.N,/SD-D9*
X154500148Y54696600D03*
G04 #@! TO.P,U2,R11,PE15*
G04 #@! TO.N,/SD-D12*
X155150148Y54696600D03*
G04 #@! TO.P,U2,R12,PB10*
G04 #@! TO.N,/D6*
X155800148Y54696600D03*
G04 #@! TO.P,U2,R13,PB11*
G04 #@! TO.N,/D10*
X156450148Y54696600D03*
G04 #@! TO.P,U2,R14,PB14*
G04 #@! TO.N,/D7*
X157100148Y54696600D03*
G04 #@! TO.P,U2,R15,PB15*
G04 #@! TO.N,/D8*
X157750148Y54696600D03*
G04 #@! TD*
D28*
G04 #@! TO.P,U11,1*
G04 #@! TO.N,Net-(U11A--)*
X161351648Y23469922D03*
G04 #@! TO.P,U11,2,-*
X160701648Y23469922D03*
G04 #@! TO.P,U11,3,+*
G04 #@! TO.N,Net-(U11A-+)*
X160051648Y23469922D03*
G04 #@! TO.P,U11,4,V-*
G04 #@! TO.N,-12VA*
X159401648Y23469922D03*
G04 #@! TO.P,U11,5,+*
G04 #@! TO.N,/VCOM*
X159401648Y17569922D03*
G04 #@! TO.P,U11,6,-*
G04 #@! TO.N,Net-(U11B--)*
X160051648Y17569922D03*
G04 #@! TO.P,U11,7*
G04 #@! TO.N,Net-(C48-Pad1)*
X160701648Y17569922D03*
G04 #@! TO.P,U11,8,V+*
G04 #@! TO.N,+12V*
X161351648Y17569922D03*
G04 #@! TD*
D13*
G04 #@! TO.P,R22,1*
G04 #@! TO.N,Net-(POT_LENGTH1-Center)*
X140566648Y78059922D03*
G04 #@! TO.P,R22,2*
G04 #@! TO.N,Net-(U3B-+)*
X140566648Y79029922D03*
G04 #@! TD*
G04 #@! TO.P,C3,1*
G04 #@! TO.N,+3V3*
X154030148Y66021600D03*
G04 #@! TO.P,C3,2*
G04 #@! TO.N,GND*
X154030148Y66991600D03*
G04 #@! TD*
D16*
G04 #@! TO.P,C38,1*
G04 #@! TO.N,+12V*
X150321648Y4114922D03*
G04 #@! TO.P,C38,2*
G04 #@! TO.N,GND*
X150321648Y3144922D03*
G04 #@! TD*
D15*
G04 #@! TO.P,U12,1*
G04 #@! TO.N,Net-(C149-Pad1)*
X169866648Y3284922D03*
G04 #@! TO.P,U12,2,-*
G04 #@! TO.N,Net-(U12A--)*
X169866648Y3934922D03*
G04 #@! TO.P,U12,3,+*
G04 #@! TO.N,Net-(U12A-+)*
X169866648Y4584922D03*
G04 #@! TO.P,U12,4,V-*
G04 #@! TO.N,-12VA*
X169866648Y5234922D03*
G04 #@! TO.P,U12,5,+*
G04 #@! TO.N,Net-(U12B-+)*
X163966648Y5234922D03*
G04 #@! TO.P,U12,6,-*
G04 #@! TO.N,Net-(U12B--)*
X163966648Y4584922D03*
G04 #@! TO.P,U12,7*
G04 #@! TO.N,Net-(C147-Pad1)*
X163966648Y3934922D03*
G04 #@! TO.P,U12,8,V+*
G04 #@! TO.N,+12V*
X163966648Y3284922D03*
G04 #@! TD*
D18*
G04 #@! TO.P,C72,1*
G04 #@! TO.N,-12VA*
X172301648Y10844672D03*
G04 #@! TO.P,C72,2*
G04 #@! TO.N,GND*
X173271648Y10844672D03*
G04 #@! TD*
D12*
G04 #@! TO.P,R24,1*
G04 #@! TO.N,GND*
X145366648Y25569922D03*
G04 #@! TO.P,R24,2*
G04 #@! TO.N,Net-(R16-Pad2)*
X145366648Y27269922D03*
G04 #@! TD*
G04 #@! TO.P,C52,1*
G04 #@! TO.N,Net-(C52-Pad1)*
X164376648Y14169922D03*
G04 #@! TO.P,C52,2*
G04 #@! TO.N,Net-(U11A--)*
X164376648Y15869922D03*
G04 #@! TD*
G04 #@! TO.P,R77,1*
G04 #@! TO.N,+3V3*
X147136648Y84549922D03*
G04 #@! TO.P,R77,2*
G04 #@! TO.N,/D18*
X148836648Y84549922D03*
G04 #@! TD*
G04 #@! TO.P,C58,1*
G04 #@! TO.N,Net-(U13-BST)*
X138672648Y55263922D03*
G04 #@! TO.P,C58,2*
G04 #@! TO.N,Net-(U13-SW)*
X138672648Y56963922D03*
G04 #@! TD*
D18*
G04 #@! TO.P,C9,1*
G04 #@! TO.N,+3V3*
X159745148Y59016600D03*
G04 #@! TO.P,C9,2*
G04 #@! TO.N,GND*
X160715148Y59016600D03*
G04 #@! TD*
G04 #@! TO.P,C29,1*
G04 #@! TO.N,+3V3*
X155685148Y48576600D03*
G04 #@! TO.P,C29,2*
G04 #@! TO.N,GND*
X156655148Y48576600D03*
G04 #@! TD*
D29*
G04 #@! TO.P,C21,1*
G04 #@! TO.N,+12V*
X133106648Y26589922D03*
G04 #@! TO.P,C21,2*
G04 #@! TO.N,GND*
X133106648Y30989922D03*
G04 #@! TD*
D13*
G04 #@! TO.P,C97,1*
G04 #@! TO.N,Net-(D15-AK)*
X168610000Y50175000D03*
G04 #@! TO.P,C97,2*
G04 #@! TO.N,GND*
X168610000Y51145000D03*
G04 #@! TD*
D12*
G04 #@! TO.P,R13,1*
G04 #@! TO.N,/D3*
X137096648Y93489922D03*
G04 #@! TO.P,R13,2*
G04 #@! TO.N,Net-(REV_BUT1-B)*
X135396648Y93489922D03*
G04 #@! TD*
G04 #@! TO.P,R26,1*
G04 #@! TO.N,GND*
X144086648Y35729922D03*
G04 #@! TO.P,R26,2*
G04 #@! TO.N,Net-(R20-Pad2)*
X142386648Y35729922D03*
G04 #@! TD*
D11*
G04 #@! TO.P,C18,1*
G04 #@! TO.N,+3V3*
X146690148Y62746600D03*
G04 #@! TO.P,C18,2*
G04 #@! TO.N,GND*
X145720148Y62746600D03*
G04 #@! TD*
D12*
G04 #@! TO.P,C54,1*
G04 #@! TO.N,/D12*
X146486648Y102919922D03*
G04 #@! TO.P,C54,2*
G04 #@! TO.N,GND*
X148186648Y102919922D03*
G04 #@! TD*
D16*
G04 #@! TO.P,C10,1*
G04 #@! TO.N,+3V3*
X156060148Y52741600D03*
G04 #@! TO.P,C10,2*
G04 #@! TO.N,GND*
X156060148Y51771600D03*
G04 #@! TD*
G04 #@! TO.P,R33,1*
G04 #@! TO.N,Net-(R17-Pad2)*
X132377564Y40009922D03*
G04 #@! TO.P,R33,2*
G04 #@! TO.N,Net-(D26-AK)*
X132377564Y39039922D03*
G04 #@! TD*
D12*
G04 #@! TO.P,R63,1*
G04 #@! TO.N,Net-(C84-Pad2)*
X150391648Y5649922D03*
G04 #@! TO.P,R63,2*
G04 #@! TO.N,Net-(J15-SIG)*
X150391648Y7349922D03*
G04 #@! TD*
D28*
G04 #@! TO.P,U16,1*
G04 #@! TO.N,Net-(U16A--)*
X151896648Y-2210078D03*
G04 #@! TO.P,U16,2,-*
X152546648Y-2210078D03*
G04 #@! TO.P,U16,3,+*
G04 #@! TO.N,GND*
X153196648Y-2210078D03*
G04 #@! TO.P,U16,4,V-*
G04 #@! TO.N,-12VA*
X153846648Y-2210078D03*
G04 #@! TO.P,U16,5,+*
G04 #@! TO.N,Net-(U16B-+)*
X153846648Y3689922D03*
G04 #@! TO.P,U16,6,-*
G04 #@! TO.N,Net-(U16B--)*
X153196648Y3689922D03*
G04 #@! TO.P,U16,7*
G04 #@! TO.N,Net-(C84-Pad2)*
X152546648Y3689922D03*
G04 #@! TO.P,U16,8,V+*
G04 #@! TO.N,+12V*
X151896648Y3689922D03*
G04 #@! TD*
D11*
G04 #@! TO.P,C19,1*
G04 #@! TO.N,/D2*
X130121648Y3429922D03*
G04 #@! TO.P,C19,2*
G04 #@! TO.N,GND*
X129151648Y3429922D03*
G04 #@! TD*
G04 #@! TO.P,R81,1*
G04 #@! TO.N,Net-(U10B--)*
X147736648Y26299922D03*
G04 #@! TO.P,R81,2*
G04 #@! TO.N,/A5*
X146766648Y26299922D03*
G04 #@! TD*
D18*
G04 #@! TO.P,C62,1*
G04 #@! TO.N,-12VA*
X134971648Y82264922D03*
G04 #@! TO.P,C62,2*
G04 #@! TO.N,GND*
X135941648Y82264922D03*
G04 #@! TD*
D16*
G04 #@! TO.P,R158,1*
G04 #@! TO.N,Net-(U12B--)*
X162120480Y2764922D03*
G04 #@! TO.P,R158,2*
G04 #@! TO.N,Net-(C152-Pad1)*
X162120480Y1794922D03*
G04 #@! TD*
D18*
G04 #@! TO.P,C14,1*
G04 #@! TO.N,+3V3*
X159745148Y60056600D03*
G04 #@! TO.P,C14,2*
G04 #@! TO.N,GND*
X160715148Y60056600D03*
G04 #@! TD*
D16*
G04 #@! TO.P,C152,1*
G04 #@! TO.N,Net-(C152-Pad1)*
X162010480Y674922D03*
G04 #@! TO.P,C152,2*
G04 #@! TO.N,Net-(C152-Pad2)*
X162010480Y-295078D03*
G04 #@! TD*
D15*
G04 #@! TO.P,U1,1*
G04 #@! TO.N,Net-(U1A--)*
X177556648Y57244922D03*
G04 #@! TO.P,U1,2,-*
X177556648Y57894922D03*
G04 #@! TO.P,U1,3,+*
G04 #@! TO.N,Net-(U1A-+)*
X177556648Y58544922D03*
G04 #@! TO.P,U1,4,V-*
G04 #@! TO.N,-12VA*
X177556648Y59194922D03*
G04 #@! TO.P,U1,5,+*
G04 #@! TO.N,Net-(U1B-+)*
X171656648Y59194922D03*
G04 #@! TO.P,U1,6,-*
G04 #@! TO.N,Net-(U1B--)*
X171656648Y58544922D03*
G04 #@! TO.P,U1,7*
X171656648Y57894922D03*
G04 #@! TO.P,U1,8,V+*
G04 #@! TO.N,+12V*
X171656648Y57244922D03*
G04 #@! TD*
D12*
G04 #@! TO.P,R9,1*
G04 #@! TO.N,Net-(J8-SIG)*
X166946648Y37759922D03*
G04 #@! TO.P,R9,2*
G04 #@! TO.N,Net-(U15A-+)*
X166946648Y39459922D03*
G04 #@! TD*
G04 #@! TO.P,R64,1*
G04 #@! TO.N,/D5*
X176506648Y93549922D03*
G04 #@! TO.P,R64,2*
G04 #@! TO.N,Net-(Bank_But1-B)*
X174806648Y93549922D03*
G04 #@! TD*
D13*
G04 #@! TO.P,R67,1*
G04 #@! TO.N,Net-(U13-FB)*
X139356493Y51444922D03*
G04 #@! TO.P,R67,2*
G04 #@! TO.N,GND*
X139356493Y52414922D03*
G04 #@! TD*
D11*
G04 #@! TO.P,R4,1*
G04 #@! TO.N,GND*
X160855148Y57786600D03*
G04 #@! TO.P,R4,2*
G04 #@! TO.N,Net-(U2B-OTG_HR_REXT)*
X159885148Y57786600D03*
G04 #@! TD*
D23*
G04 #@! TO.P,V2,1,VI*
G04 #@! TO.N,+12V*
X133956648Y65719922D03*
G04 #@! TO.P,V2,2,VO*
G04 #@! TO.N,+3.3VADC*
X135856648Y65719922D03*
G04 #@! TO.P,V2,3,GND*
G04 #@! TO.N,GNDADC*
X134906648Y67718902D03*
G04 #@! TD*
D11*
G04 #@! TO.P,R27,1*
G04 #@! TO.N,Net-(R20-Pad2)*
X140701648Y35469922D03*
G04 #@! TO.P,R27,2*
G04 #@! TO.N,Net-(D22-AK)*
X139731648Y35469922D03*
G04 #@! TD*
D13*
G04 #@! TO.P,C7,1*
G04 #@! TO.N,+3V3*
X150970148Y66001600D03*
G04 #@! TO.P,C7,2*
G04 #@! TO.N,GND*
X150970148Y66971600D03*
G04 #@! TD*
D11*
G04 #@! TO.P,C78,1*
G04 #@! TO.N,-12VA*
X167621648Y6739922D03*
G04 #@! TO.P,C78,2*
G04 #@! TO.N,GND*
X166651648Y6739922D03*
G04 #@! TD*
D12*
G04 #@! TO.P,R35,1*
G04 #@! TO.N,/D10*
X127046648Y97989922D03*
G04 #@! TO.P,R35,2*
G04 #@! TO.N,Net-(REV_BUT1-G)*
X128746648Y97989922D03*
G04 #@! TD*
D11*
G04 #@! TO.P,R34,1*
G04 #@! TO.N,Net-(U5B--)*
X130472564Y36304922D03*
G04 #@! TO.P,R34,2*
G04 #@! TO.N,/A8*
X129502564Y36304922D03*
G04 #@! TD*
D12*
G04 #@! TO.P,R56,1*
G04 #@! TO.N,Net-(C46-Pad1)*
X176696648Y39134922D03*
G04 #@! TO.P,R56,2*
G04 #@! TO.N,Net-(U15B--)*
X176696648Y37434922D03*
G04 #@! TD*
D13*
G04 #@! TO.P,C85,1*
G04 #@! TO.N,Net-(D26-AK)*
X127737564Y39019922D03*
G04 #@! TO.P,C85,2*
G04 #@! TO.N,GND*
X127737564Y39989922D03*
G04 #@! TD*
D12*
G04 #@! TO.P,C48,1*
G04 #@! TO.N,Net-(C48-Pad1)*
X161521648Y15699922D03*
G04 #@! TO.P,C48,2*
G04 #@! TO.N,Net-(U11B--)*
X159821648Y15699922D03*
G04 #@! TD*
G04 #@! TO.P,R36,1*
G04 #@! TO.N,/A6*
X128846648Y100359922D03*
G04 #@! TO.P,R36,2*
G04 #@! TO.N,Net-(REV_BUT1-POLE-A)*
X128846648Y102059922D03*
G04 #@! TD*
D13*
G04 #@! TO.P,R159,1*
G04 #@! TO.N,Net-(U12B-+)*
X162306648Y4764922D03*
G04 #@! TO.P,R159,2*
G04 #@! TO.N,Net-(C152-Pad2)*
X162306648Y5734922D03*
G04 #@! TD*
G04 #@! TO.P,C50,1*
G04 #@! TO.N,+3V3*
X153090148Y66001600D03*
G04 #@! TO.P,C50,2*
G04 #@! TO.N,GND*
X153090148Y66971600D03*
G04 #@! TD*
D30*
G04 #@! TO.P,L1,1,1*
G04 #@! TO.N,Net-(U13-SW)*
X136946648Y55569922D03*
G04 #@! TO.P,L1,2,2*
G04 #@! TO.N,+3V3*
X134146648Y55569922D03*
G04 #@! TD*
D16*
G04 #@! TO.P,C12,1*
G04 #@! TO.N,+3V3*
X153460148Y52731600D03*
G04 #@! TO.P,C12,2*
G04 #@! TO.N,GND*
X153460148Y51761600D03*
G04 #@! TD*
D17*
G04 #@! TO.P,NT1,1,1*
G04 #@! TO.N,GNDA*
X181570000Y23100000D03*
G04 #@! TO.P,NT1,2,2*
G04 #@! TO.N,GND*
X181570000Y22100000D03*
G04 #@! TD*
D16*
G04 #@! TO.P,R6,1*
G04 #@! TO.N,/ROUT+*
X164546648Y7704922D03*
G04 #@! TO.P,R6,2*
G04 #@! TO.N,Net-(C152-Pad1)*
X164546648Y6734922D03*
G04 #@! TD*
D11*
G04 #@! TO.P,R8,1*
G04 #@! TO.N,GND*
X154021648Y67989922D03*
G04 #@! TO.P,R8,2*
G04 #@! TO.N,/BOOT0*
X153051648Y67989922D03*
G04 #@! TD*
D12*
G04 #@! TO.P,R60,1*
G04 #@! TO.N,/D15*
X155636648Y2429922D03*
G04 #@! TO.P,R60,2*
G04 #@! TO.N,Net-(U16B-+)*
X155636648Y729922D03*
G04 #@! TD*
D15*
G04 #@! TO.P,U3,1*
G04 #@! TO.N,Net-(U3A--)*
X133026648Y80714922D03*
G04 #@! TO.P,U3,2,-*
X133026648Y80064922D03*
G04 #@! TO.P,U3,3,+*
G04 #@! TO.N,Net-(U3A-+)*
X133026648Y79414922D03*
G04 #@! TO.P,U3,4,V-*
G04 #@! TO.N,-12VA*
X133026648Y78764922D03*
G04 #@! TO.P,U3,5,+*
G04 #@! TO.N,Net-(U3B-+)*
X138926648Y78764922D03*
G04 #@! TO.P,U3,6,-*
G04 #@! TO.N,Net-(U3B--)*
X138926648Y79414922D03*
G04 #@! TO.P,U3,7*
X138926648Y80064922D03*
G04 #@! TO.P,U3,8,V+*
G04 #@! TO.N,+12V*
X138926648Y80714922D03*
G04 #@! TD*
D12*
G04 #@! TO.P,R15,1*
G04 #@! TO.N,Net-(J2-SIG)*
X159456648Y33469922D03*
G04 #@! TO.P,R15,2*
G04 #@! TO.N,Net-(R1-Pad1)*
X159456648Y31769922D03*
G04 #@! TD*
D13*
G04 #@! TO.P,C15,1*
G04 #@! TO.N,GND*
X143240000Y56185000D03*
G04 #@! TO.P,C15,2*
G04 #@! TO.N,/NRST*
X143240000Y57155000D03*
G04 #@! TD*
D22*
G04 #@! TO.P,J10,1,-12V*
G04 #@! TO.N,Net-(D17-K)*
X141126648Y9559922D03*
G04 #@! TO.P,J10,2,-12V*
X138586648Y9559922D03*
G04 #@! TO.P,J10,3,GND*
G04 #@! TO.N,GND*
X141126648Y12099922D03*
G04 #@! TO.P,J10,4,GND*
X138586648Y12099922D03*
G04 #@! TO.P,J10,5,GND*
X141126648Y14639922D03*
G04 #@! TO.P,J10,6,GND*
X138586648Y14639922D03*
G04 #@! TO.P,J10,7,GND*
X141126648Y17179922D03*
G04 #@! TO.P,J10,8,GND*
X138586648Y17179922D03*
G04 #@! TO.P,J10,9,+12V*
G04 #@! TO.N,Net-(D16-A)*
X141126648Y19719922D03*
G04 #@! TO.P,J10,10,+12V*
X138586648Y19719922D03*
G04 #@! TD*
D18*
G04 #@! TO.P,C77,1*
G04 #@! TO.N,+12V*
X165236648Y1739922D03*
G04 #@! TO.P,C77,2*
G04 #@! TO.N,GND*
X166206648Y1739922D03*
G04 #@! TD*
D11*
G04 #@! TO.P,R157,1*
G04 #@! TO.N,Net-(C147-Pad1)*
X164200480Y669922D03*
G04 #@! TO.P,R157,2*
G04 #@! TO.N,Net-(C152-Pad1)*
X163230480Y669922D03*
G04 #@! TD*
D16*
G04 #@! TO.P,C82,1*
G04 #@! TO.N,Net-(D1-AK)*
X152516648Y30864922D03*
G04 #@! TO.P,C82,2*
G04 #@! TO.N,GND*
X152516648Y29894922D03*
G04 #@! TD*
D11*
G04 #@! TO.P,C149,1*
G04 #@! TO.N,Net-(C149-Pad1)*
X171056648Y1819922D03*
G04 #@! TO.P,C149,2*
G04 #@! TO.N,Net-(U12A--)*
X170086648Y1819922D03*
G04 #@! TD*
D18*
G04 #@! TO.P,C86,1*
G04 #@! TO.N,Net-(D22-AK)*
X141041648Y38029922D03*
G04 #@! TO.P,C86,2*
G04 #@! TO.N,GND*
X142011648Y38029922D03*
G04 #@! TD*
D16*
G04 #@! TO.P,R54,1*
G04 #@! TO.N,/RIN*
X162896648Y16049922D03*
G04 #@! TO.P,R54,2*
G04 #@! TO.N,Net-(C48-Pad1)*
X162896648Y15079922D03*
G04 #@! TD*
D12*
G04 #@! TO.P,C56,1*
G04 #@! TO.N,VREF+*
X128250000Y61340000D03*
G04 #@! TO.P,C56,2*
G04 #@! TO.N,GND*
X129950000Y61340000D03*
G04 #@! TD*
G04 #@! TO.P,R25,1*
G04 #@! TO.N,GND*
X128567564Y41804922D03*
G04 #@! TO.P,R25,2*
G04 #@! TO.N,Net-(R17-Pad2)*
X130267564Y41804922D03*
G04 #@! TD*
D23*
G04 #@! TO.P,D3,1,Anode*
G04 #@! TO.N,GND*
X130335888Y20469922D03*
G04 #@! TO.P,D3,2,cathode*
G04 #@! TO.N,+3V3*
X130335888Y18569922D03*
G04 #@! TO.P,D3,3,AK*
G04 #@! TO.N,/D13*
X132334868Y19519922D03*
G04 #@! TD*
D18*
G04 #@! TO.P,R28,1*
G04 #@! TO.N,Net-(U5A--)*
X139711648Y36819922D03*
G04 #@! TO.P,R28,2*
G04 #@! TO.N,/A4*
X140681648Y36819922D03*
G04 #@! TD*
D20*
G04 #@! TO.P,C68,1*
G04 #@! TO.N,+3V3*
X129765052Y57198378D03*
G04 #@! TO.P,C68,2*
G04 #@! TO.N,GND*
X129765052Y54298378D03*
G04 #@! TD*
D23*
G04 #@! TO.P,D7,1,Anode*
G04 #@! TO.N,GND*
X129325888Y2059922D03*
G04 #@! TO.P,D7,2,cathode*
G04 #@! TO.N,+3V3*
X129325888Y159922D03*
G04 #@! TO.P,D7,3,AK*
G04 #@! TO.N,/D2*
X131324868Y1109922D03*
G04 #@! TD*
D15*
G04 #@! TO.P,U5,1*
G04 #@! TO.N,Net-(U5A--)*
X138106648Y35464922D03*
G04 #@! TO.P,U5,2,-*
X138106648Y36114922D03*
G04 #@! TO.P,U5,3,+*
G04 #@! TO.N,Net-(D22-AK)*
X138106648Y36764922D03*
G04 #@! TO.P,U5,4,V-*
G04 #@! TO.N,-12VA*
X138106648Y37414922D03*
G04 #@! TO.P,U5,5,+*
G04 #@! TO.N,Net-(D26-AK)*
X132206648Y37414922D03*
G04 #@! TO.P,U5,6,-*
G04 #@! TO.N,Net-(U5B--)*
X132206648Y36764922D03*
G04 #@! TO.P,U5,7*
X132206648Y36114922D03*
G04 #@! TO.P,U5,8,V+*
G04 #@! TO.N,+12V*
X132206648Y35464922D03*
G04 #@! TD*
D18*
G04 #@! TO.P,C53,1*
G04 #@! TO.N,+3V3*
X159855148Y56716600D03*
G04 #@! TO.P,C53,2*
G04 #@! TO.N,GND*
X160825148Y56716600D03*
G04 #@! TD*
D23*
G04 #@! TO.P,D26,1,Anode*
G04 #@! TO.N,GND*
X129006804Y40094922D03*
G04 #@! TO.P,D26,2,cathode*
G04 #@! TO.N,+3V3*
X129006804Y38194922D03*
G04 #@! TO.P,D26,3,AK*
G04 #@! TO.N,Net-(D26-AK)*
X131005784Y39144922D03*
G04 #@! TD*
D13*
G04 #@! TO.P,R45,1*
G04 #@! TO.N,Net-(POT_SAMP1-Center)*
X131406648Y78294922D03*
G04 #@! TO.P,R45,2*
G04 #@! TO.N,Net-(U3A-+)*
X131406648Y79264922D03*
G04 #@! TD*
D12*
G04 #@! TO.P,R17,1*
G04 #@! TO.N,Net-(J9-SIG)*
X133567564Y41544922D03*
G04 #@! TO.P,R17,2*
G04 #@! TO.N,Net-(R17-Pad2)*
X131867564Y41544922D03*
G04 #@! TD*
D17*
G04 #@! TO.P,U4,A1,GND*
G04 #@! TO.N,GND*
X155850148Y39826600D03*
G04 #@! TO.P,U4,A2,DQ15*
G04 #@! TO.N,/SD-D15*
X155050148Y39826600D03*
G04 #@! TO.P,U4,A3,GNDQ*
G04 #@! TO.N,GND*
X154250148Y39826600D03*
G04 #@! TO.P,U4,A7,VDDQ*
G04 #@! TO.N,+3V3*
X151050148Y39826600D03*
G04 #@! TO.P,U4,A8,DQ0*
G04 #@! TO.N,/SD-D0*
X150250148Y39826600D03*
G04 #@! TO.P,U4,A9,VDD*
G04 #@! TO.N,+3V3*
X149450148Y39826600D03*
G04 #@! TO.P,U4,B1,DQ14*
G04 #@! TO.N,/SD-D14*
X155850148Y40626600D03*
G04 #@! TO.P,U4,B2,DQ13*
G04 #@! TO.N,/SD-D13*
X155050148Y40626600D03*
G04 #@! TO.P,U4,B3,VDDQ*
G04 #@! TO.N,+3V3*
X154250148Y40626600D03*
G04 #@! TO.P,U4,B7,GNDQ*
G04 #@! TO.N,GND*
X151050148Y40626600D03*
G04 #@! TO.P,U4,B8,DQ2*
G04 #@! TO.N,/SD-D2*
X150250148Y40626600D03*
G04 #@! TO.P,U4,B9,DQ1*
G04 #@! TO.N,/SD-D1*
X149450148Y40626600D03*
G04 #@! TO.P,U4,C1,DQ12*
G04 #@! TO.N,/SD-D12*
X155850148Y41426600D03*
G04 #@! TO.P,U4,C2,DQ11*
G04 #@! TO.N,/SD-D11*
X155050148Y41426600D03*
G04 #@! TO.P,U4,C3,GNDQ*
G04 #@! TO.N,GND*
X154250148Y41426600D03*
G04 #@! TO.P,U4,C7,VDDQ*
G04 #@! TO.N,+3V3*
X151050148Y41426600D03*
G04 #@! TO.P,U4,C8,DQ4*
G04 #@! TO.N,/SD-D4*
X150250148Y41426600D03*
G04 #@! TO.P,U4,C9,DQ3*
G04 #@! TO.N,/SD-D3*
X149450148Y41426600D03*
G04 #@! TO.P,U4,D1,DQ10*
G04 #@! TO.N,/SD-D10*
X155850148Y42226600D03*
G04 #@! TO.P,U4,D2,DQ9*
G04 #@! TO.N,/SD-D9*
X155050148Y42226600D03*
G04 #@! TO.P,U4,D3,VDDQ*
G04 #@! TO.N,+3V3*
X154250148Y42226600D03*
G04 #@! TO.P,U4,D7,GNDQ*
G04 #@! TO.N,GND*
X151050148Y42226600D03*
G04 #@! TO.P,U4,D8,DQ6*
G04 #@! TO.N,/SD-D6*
X150250148Y42226600D03*
G04 #@! TO.P,U4,D9,DQ5*
G04 #@! TO.N,/SD-D5*
X149450148Y42226600D03*
G04 #@! TO.P,U4,E1,DQ8*
G04 #@! TO.N,/SD-D8*
X155850148Y43026600D03*
G04 #@! TO.P,U4,E2,NC*
G04 #@! TO.N,unconnected-(U4-NC-PadE2)*
X155050148Y43026600D03*
G04 #@! TO.P,U4,E3,GND*
G04 #@! TO.N,GND*
X154250148Y43026600D03*
G04 #@! TO.P,U4,E7,VDD*
G04 #@! TO.N,+3V3*
X151050148Y43026600D03*
G04 #@! TO.P,U4,E8,DQML*
G04 #@! TO.N,/SD-NBL0*
X150250148Y43026600D03*
G04 #@! TO.P,U4,E9,DQ7*
G04 #@! TO.N,/SD-D7*
X149450148Y43026600D03*
G04 #@! TO.P,U4,F1,DQMH*
G04 #@! TO.N,/SD-NBL1*
X155850148Y43826600D03*
G04 #@! TO.P,U4,F2,CLK*
G04 #@! TO.N,/SD-CLK*
X155050148Y43826600D03*
G04 #@! TO.P,U4,F3,CKE*
G04 #@! TO.N,/SD-CKE1*
X154250148Y43826600D03*
G04 #@! TO.P,U4,F7,~{CAS}*
G04 #@! TO.N,/SD-NCAS*
X151050148Y43826600D03*
G04 #@! TO.P,U4,F8,~{RAS}*
G04 #@! TO.N,/SD-NRAS*
X150250148Y43826600D03*
G04 #@! TO.P,U4,F9,~{WE}*
G04 #@! TO.N,/SD-NWE*
X149450148Y43826600D03*
G04 #@! TO.P,U4,G1,A12/NC*
G04 #@! TO.N,/SD-A12*
X155850148Y44626600D03*
G04 #@! TO.P,U4,G2,A11*
G04 #@! TO.N,/SD-A11*
X155050148Y44626600D03*
G04 #@! TO.P,U4,G3,A9*
G04 #@! TO.N,/SD-A9*
X154250148Y44626600D03*
G04 #@! TO.P,U4,G7,BA0*
G04 #@! TO.N,/SD-BA0*
X151050148Y44626600D03*
G04 #@! TO.P,U4,G8,BA1*
G04 #@! TO.N,/SD-BA1*
X150250148Y44626600D03*
G04 #@! TO.P,U4,G9,~{CS}*
G04 #@! TO.N,/SD-NE1*
X149450148Y44626600D03*
G04 #@! TO.P,U4,H1,A8*
G04 #@! TO.N,/SD-A8*
X155850148Y45426600D03*
G04 #@! TO.P,U4,H2,A7*
G04 #@! TO.N,/SD-A7*
X155050148Y45426600D03*
G04 #@! TO.P,U4,H3,A6*
G04 #@! TO.N,/SD-A6*
X154250148Y45426600D03*
G04 #@! TO.P,U4,H7,A0*
G04 #@! TO.N,/SD-A0*
X151050148Y45426600D03*
G04 #@! TO.P,U4,H8,A1*
G04 #@! TO.N,/SD-A1*
X150250148Y45426600D03*
G04 #@! TO.P,U4,H9,A10*
G04 #@! TO.N,/SD-A10*
X149450148Y45426600D03*
G04 #@! TO.P,U4,J1,GND*
G04 #@! TO.N,GND*
X155850148Y46226600D03*
G04 #@! TO.P,U4,J2,A5*
G04 #@! TO.N,/SD-A5*
X155050148Y46226600D03*
G04 #@! TO.P,U4,J3,A4*
G04 #@! TO.N,/SD-A4*
X154250148Y46226600D03*
G04 #@! TO.P,U4,J7,A3*
G04 #@! TO.N,/SD-A3*
X151050148Y46226600D03*
G04 #@! TO.P,U4,J8,A2*
G04 #@! TO.N,/SD-A2*
X150250148Y46226600D03*
G04 #@! TO.P,U4,J9,VDD*
G04 #@! TO.N,+3V3*
X149450148Y46226600D03*
G04 #@! TD*
D13*
G04 #@! TO.P,C40,1*
G04 #@! TO.N,-12VA*
X155266648Y-1945078D03*
G04 #@! TO.P,C40,2*
G04 #@! TO.N,GND*
X155266648Y-975078D03*
G04 #@! TD*
D10*
G04 #@! TO.P,D17,1,K*
G04 #@! TO.N,Net-(D17-K)*
X143926648Y10849922D03*
G04 #@! TO.P,D17,2,A*
G04 #@! TO.N,-12VA*
X143926648Y14149922D03*
G04 #@! TD*
D11*
G04 #@! TO.P,C71,1*
G04 #@! TO.N,+12V*
X177061648Y15789672D03*
G04 #@! TO.P,C71,2*
G04 #@! TO.N,GND*
X176091648Y15789672D03*
G04 #@! TD*
D12*
G04 #@! TO.P,C84,1*
G04 #@! TO.N,Net-(U16B--)*
X153831648Y5549922D03*
G04 #@! TO.P,C84,2*
G04 #@! TO.N,Net-(C84-Pad2)*
X152131648Y5549922D03*
G04 #@! TD*
D11*
G04 #@! TO.P,R1,1*
G04 #@! TO.N,Net-(R1-Pad1)*
X157831648Y27449922D03*
G04 #@! TO.P,R1,2*
G04 #@! TO.N,Net-(D1-AK)*
X156861648Y27449922D03*
G04 #@! TD*
D18*
G04 #@! TO.P,R46,1*
G04 #@! TO.N,Net-(U3A--)*
X132646648Y82234922D03*
G04 #@! TO.P,R46,2*
G04 #@! TO.N,/A9*
X133616648Y82234922D03*
G04 #@! TD*
D31*
G04 #@! TO.P,C43,1*
G04 #@! TO.N,+3V3*
X146406600Y74699079D03*
G04 #@! TO.P,C43,2*
G04 #@! TO.N,GND*
X149306600Y74699079D03*
G04 #@! TD*
D12*
G04 #@! TO.P,R58,1*
G04 #@! TO.N,Net-(J11-SIG)*
X132946648Y169922D03*
G04 #@! TO.P,R58,2*
G04 #@! TO.N,/D2*
X132946648Y1869922D03*
G04 #@! TD*
G04 #@! TO.P,C81,1*
G04 #@! TO.N,+12V*
X132256648Y65850682D03*
G04 #@! TO.P,C81,2*
G04 #@! TO.N,GNDADC*
X132256648Y64150682D03*
G04 #@! TD*
D15*
G04 #@! TO.P,U8,1*
G04 #@! TO.N,Net-(U8A--)*
X170776648Y14339672D03*
G04 #@! TO.P,U8,2,-*
X170776648Y13689672D03*
G04 #@! TO.P,U8,3,+*
G04 #@! TO.N,Net-(U8A-+)*
X170776648Y13039672D03*
G04 #@! TO.P,U8,4,V-*
G04 #@! TO.N,-12VA*
X170776648Y12389672D03*
G04 #@! TO.P,U8,5,+*
G04 #@! TO.N,/VCOM*
X176676648Y12389672D03*
G04 #@! TO.P,U8,6,-*
G04 #@! TO.N,Net-(U8B--)*
X176676648Y13039672D03*
G04 #@! TO.P,U8,7*
G04 #@! TO.N,Net-(C57-Pad1)*
X176676648Y13689672D03*
G04 #@! TO.P,U8,8,V+*
G04 #@! TO.N,+12V*
X176676648Y14339672D03*
G04 #@! TD*
D12*
G04 #@! TO.P,R75,1*
G04 #@! TO.N,Net-(PLAY_BUT1-G)*
X148146648Y96649922D03*
G04 #@! TO.P,R75,2*
G04 #@! TO.N,/D14*
X146446648Y96649922D03*
G04 #@! TD*
G04 #@! TO.P,R32,1*
G04 #@! TO.N,Net-(U15A--)*
X170296648Y41484922D03*
G04 #@! TO.P,R32,2*
G04 #@! TO.N,Net-(U15B--)*
X171996648Y41484922D03*
G04 #@! TD*
D11*
G04 #@! TO.P,C41,1*
G04 #@! TO.N,+3V3*
X171781648Y31119922D03*
G04 #@! TO.P,C41,2*
G04 #@! TO.N,GND*
X170811648Y31119922D03*
G04 #@! TD*
D12*
G04 #@! TO.P,C80,1*
G04 #@! TO.N,+3.3VADC*
X135666648Y64150682D03*
G04 #@! TO.P,C80,2*
G04 #@! TO.N,GNDADC*
X133966648Y64150682D03*
G04 #@! TD*
D11*
G04 #@! TO.P,C153,1*
G04 #@! TO.N,Net-(C153-Pad1)*
X173236648Y3319922D03*
G04 #@! TO.P,C153,2*
G04 #@! TO.N,Net-(C153-Pad2)*
X172266648Y3319922D03*
G04 #@! TD*
D23*
G04 #@! TO.P,V1,1,GND*
G04 #@! TO.N,GNDA*
X178252668Y24977422D03*
G04 #@! TO.P,V1,2,VO*
G04 #@! TO.N,+5V*
X178252668Y23077422D03*
G04 #@! TO.P,V1,3,VI*
G04 #@! TO.N,+12V*
X180251648Y24027422D03*
G04 #@! TD*
D13*
G04 #@! TO.P,C75,1*
G04 #@! TO.N,+12V*
X157846648Y20154922D03*
G04 #@! TO.P,C75,2*
G04 #@! TO.N,GND*
X157846648Y21124922D03*
G04 #@! TD*
G04 #@! TO.P,C34,1*
G04 #@! TO.N,Net-(D24-AK)*
X149616648Y29634922D03*
G04 #@! TO.P,C34,2*
G04 #@! TO.N,GND*
X149616648Y30604922D03*
G04 #@! TD*
D12*
G04 #@! TO.P,C23,1*
G04 #@! TO.N,/OSC_OUT*
X139516648Y59879922D03*
G04 #@! TO.P,C23,2*
G04 #@! TO.N,GND*
X139516648Y61579922D03*
G04 #@! TD*
D11*
G04 #@! TO.P,R43,1*
G04 #@! TO.N,Net-(U8B--)*
X175991648Y10914672D03*
G04 #@! TO.P,R43,2*
G04 #@! TO.N,Net-(C90-Pad1)*
X175021648Y10914672D03*
G04 #@! TD*
D14*
G04 #@! TO.P,C69,1*
G04 #@! TO.N,+3V3*
X129710000Y59100000D03*
G04 #@! TO.P,C69,2*
G04 #@! TO.N,GND*
X131610000Y59100000D03*
G04 #@! TD*
D13*
G04 #@! TO.P,C148,1*
G04 #@! TO.N,GNDA*
X160786648Y2484922D03*
G04 #@! TO.P,C148,2*
G04 #@! TO.N,Net-(U12B-+)*
X160786648Y3454922D03*
G04 #@! TD*
D12*
G04 #@! TO.P,R16,1*
G04 #@! TO.N,Net-(J6-SIG)*
X144696648Y30709922D03*
G04 #@! TO.P,R16,2*
G04 #@! TO.N,Net-(R16-Pad2)*
X144696648Y29009922D03*
G04 #@! TD*
D32*
G04 #@! TO.P,U9,1,MC/SCL/FMT*
G04 #@! TO.N,/I2C1_SCL*
X175961648Y29492422D03*
G04 #@! TO.P,U9,2,MD/SDA/DEMP*
G04 #@! TO.N,/I2C1_SDA*
X175311648Y29492422D03*
G04 #@! TO.P,U9,3,DOUT*
G04 #@! TO.N,/SAI_SD_B*
X174661648Y29492422D03*
G04 #@! TO.P,U9,4,LRCK1*
G04 #@! TO.N,/SAI_FS*
X174011648Y29492422D03*
G04 #@! TO.P,U9,5,BCK1*
G04 #@! TO.N,/SAI_SCK*
X173361648Y29492422D03*
G04 #@! TO.P,U9,6,SCKI1*
G04 #@! TO.N,/SAI_MCLK*
X172711648Y29492422D03*
G04 #@! TO.P,U9,7,VDD*
G04 #@! TO.N,+3V3*
X172061648Y29492422D03*
G04 #@! TO.P,U9,8,DGND*
G04 #@! TO.N,GND*
X171411648Y29492422D03*
G04 #@! TO.P,U9,9,SCKI2*
G04 #@! TO.N,/SAI_MCLK*
X170761648Y29492422D03*
G04 #@! TO.P,U9,10,BCK2*
G04 #@! TO.N,/SAI_SCK*
X170111648Y29492422D03*
G04 #@! TO.P,U9,11,LRCK2*
G04 #@! TO.N,/SAI_FS*
X169461648Y29492422D03*
G04 #@! TO.P,U9,12,DIN*
G04 #@! TO.N,/SAI_SD_A*
X168811648Y29492422D03*
G04 #@! TO.P,U9,13,ZEROR*
G04 #@! TO.N,unconnected-(U9-ZEROR-Pad13)*
X168161648Y29492422D03*
G04 #@! TO.P,U9,14,ZEROL*
G04 #@! TO.N,unconnected-(U9-ZEROL-Pad14)*
X167511648Y29492422D03*
G04 #@! TO.P,U9,15,~{RST}*
G04 #@! TO.N,/CODEC_RESET*
X167511648Y23767422D03*
G04 #@! TO.P,U9,16,SGND*
G04 #@! TO.N,GNDA*
X168161648Y23767422D03*
G04 #@! TO.P,U9,17,VOUTR-*
G04 #@! TO.N,/ROUT-*
X168811648Y23767422D03*
G04 #@! TO.P,U9,18,VOUTR+*
G04 #@! TO.N,/ROUT+*
X169461648Y23767422D03*
G04 #@! TO.P,U9,19,VOUTL-*
G04 #@! TO.N,/LOUT-*
X170111648Y23767422D03*
G04 #@! TO.P,U9,20,VOUTL+*
G04 #@! TO.N,/LOUT+*
X170761648Y23767422D03*
G04 #@! TO.P,U9,21,VCOM*
G04 #@! TO.N,/VCOM*
X171411648Y23767422D03*
G04 #@! TO.P,U9,22,AGND2*
G04 #@! TO.N,GNDA*
X172061648Y23767422D03*
G04 #@! TO.P,U9,23,AGND1*
X172711648Y23767422D03*
G04 #@! TO.P,U9,24,VCC*
G04 #@! TO.N,+5V*
X173361648Y23767422D03*
G04 #@! TO.P,U9,25,VINL*
G04 #@! TO.N,/LIN*
X174011648Y23767422D03*
G04 #@! TO.P,U9,26,VINR*
G04 #@! TO.N,/RIN*
X174661648Y23767422D03*
G04 #@! TO.P,U9,27,~{MS}/ADR/IFMD*
G04 #@! TO.N,GND*
X175311648Y23767422D03*
G04 #@! TO.P,U9,28,MODE*
X175961648Y23767422D03*
G04 #@! TD*
D11*
G04 #@! TO.P,R19,1*
G04 #@! TO.N,Net-(U14A--)*
X168905000Y52970000D03*
G04 #@! TO.P,R19,2*
G04 #@! TO.N,/A2*
X167935000Y52970000D03*
G04 #@! TD*
G04 #@! TO.P,C74,1*
G04 #@! TO.N,-12VA*
X153501648Y24599922D03*
G04 #@! TO.P,C74,2*
G04 #@! TO.N,GND*
X152531648Y24599922D03*
G04 #@! TD*
D12*
G04 #@! TO.P,R78,1*
G04 #@! TO.N,+3V3*
X147136648Y81999922D03*
G04 #@! TO.P,R78,2*
G04 #@! TO.N,/D4*
X148836648Y81999922D03*
G04 #@! TD*
G04 #@! TO.P,R70,1*
G04 #@! TO.N,/D11*
X161446648Y97019922D03*
G04 #@! TO.P,R70,2*
G04 #@! TO.N,Net-(PLAY_BUT1-B)*
X159746648Y97019922D03*
G04 #@! TD*
D18*
G04 #@! TO.P,R163,1*
G04 #@! TO.N,Net-(U12A-+)*
X171405480Y4629922D03*
G04 #@! TO.P,R163,2*
G04 #@! TO.N,Net-(C153-Pad2)*
X172375480Y4629922D03*
G04 #@! TD*
D12*
G04 #@! TO.P,C5,1*
G04 #@! TO.N,GND*
X162170148Y60276600D03*
G04 #@! TO.P,C5,2*
G04 #@! TO.N,Net-(U2B-VDD12OTGHS)*
X162170148Y58576600D03*
G04 #@! TD*
D16*
G04 #@! TO.P,R10,1*
G04 #@! TO.N,/LOUT+*
X171126648Y7744922D03*
G04 #@! TO.P,R10,2*
G04 #@! TO.N,Net-(C153-Pad1)*
X171126648Y6774922D03*
G04 #@! TD*
D12*
G04 #@! TO.P,R62,1*
G04 #@! TO.N,Net-(U16B--)*
X153801648Y7159922D03*
G04 #@! TO.P,R62,2*
G04 #@! TO.N,Net-(C84-Pad2)*
X152101648Y7159922D03*
G04 #@! TD*
D18*
G04 #@! TO.P,C63,1*
G04 #@! TO.N,+12V*
X131762564Y33964922D03*
G04 #@! TO.P,C63,2*
G04 #@! TO.N,GND*
X132732564Y33964922D03*
G04 #@! TD*
D13*
G04 #@! TO.P,R153,1*
G04 #@! TO.N,Net-(J16-SIG)*
X172041648Y924922D03*
G04 #@! TO.P,R153,2*
G04 #@! TO.N,Net-(C149-Pad1)*
X172041648Y1894922D03*
G04 #@! TD*
D18*
G04 #@! TO.P,C37,1*
G04 #@! TO.N,-12VA*
X167201648Y36169922D03*
G04 #@! TO.P,C37,2*
G04 #@! TO.N,GND*
X168171648Y36169922D03*
G04 #@! TD*
D15*
G04 #@! TO.P,U14,1*
G04 #@! TO.N,Net-(U14A--)*
X171086648Y52204922D03*
G04 #@! TO.P,U14,2,-*
X171086648Y51554922D03*
G04 #@! TO.P,U14,3,+*
G04 #@! TO.N,Net-(D15-AK)*
X171086648Y50904922D03*
G04 #@! TO.P,U14,4,V-*
G04 #@! TO.N,-12VA*
X171086648Y50254922D03*
G04 #@! TO.P,U14,5,+*
G04 #@! TO.N,Net-(U14B-+)*
X176986648Y50254922D03*
G04 #@! TO.P,U14,6,-*
G04 #@! TO.N,GND*
X176986648Y50904922D03*
G04 #@! TO.P,U14,7*
G04 #@! TO.N,Net-(U14B-+)*
X176986648Y51554922D03*
G04 #@! TO.P,U14,8,V+*
G04 #@! TO.N,+12V*
X176986648Y52204922D03*
G04 #@! TD*
D11*
G04 #@! TO.P,C147,1*
G04 #@! TO.N,Net-(C147-Pad1)*
X164155480Y1729922D03*
G04 #@! TO.P,C147,2*
G04 #@! TO.N,Net-(U12B--)*
X163185480Y1729922D03*
G04 #@! TD*
G04 #@! TO.P,R53,1*
G04 #@! TO.N,Net-(U11A-+)*
X159886088Y25216436D03*
G04 #@! TO.P,R53,2*
G04 #@! TO.N,GND*
X158916088Y25216436D03*
G04 #@! TD*
D33*
G04 #@! TO.P,J12,1,SIG*
G04 #@! TO.N,Net-(J12-SIG)*
X132258648Y23206922D03*
G04 #@! TO.P,J12,2,SHEILD*
G04 #@! TO.N,GND*
X132258648Y12234122D03*
G04 #@! TO.P,J12,3,SW*
X132258648Y14647122D03*
G04 #@! TD*
G04 #@! TO.P,J17,1,SIG*
G04 #@! TO.N,Net-(J17-SIG)*
X160450848Y-2252638D03*
G04 #@! TO.P,J17,2,SHEILD*
G04 #@! TO.N,GND*
X160450848Y8720162D03*
G04 #@! TO.P,J17,3,SW*
G04 #@! TO.N,unconnected-(J17-SW-Pad3)*
X160450848Y6307162D03*
G04 #@! TD*
G04 #@! TO.P,J16,1,SIG*
G04 #@! TO.N,Net-(J16-SIG)*
X175950848Y-2252638D03*
G04 #@! TO.P,J16,2,SHEILD*
G04 #@! TO.N,GND*
X175950848Y8720162D03*
G04 #@! TO.P,J16,3,SW*
G04 #@! TO.N,unconnected-(J16-SW-Pad3)*
X175950848Y6307162D03*
G04 #@! TD*
D34*
G04 #@! TO.P,Bank_But1,1,UP-A*
G04 #@! TO.N,unconnected-(Bank_But1-UP-A-Pad1)*
X176658648Y100899922D03*
G04 #@! TO.P,Bank_But1,2,POLE-A*
G04 #@! TO.N,Net-(Bank_But1-POLE-A)*
X170158648Y100899922D03*
G04 #@! TO.P,Bank_But1,3,DOWN-A*
G04 #@! TO.N,unconnected-(Bank_But1-DOWN-A-Pad3)*
X176658648Y96399922D03*
G04 #@! TO.P,Bank_But1,4,UP-B*
G04 #@! TO.N,GND*
X170158648Y96399922D03*
D35*
G04 #@! TO.P,Bank_But1,5,CA*
G04 #@! TO.N,+3V3*
X174308648Y101549922D03*
G04 #@! TO.P,Bank_But1,6,G*
G04 #@! TO.N,Net-(Bank_But1-G)*
X172508648Y101549922D03*
G04 #@! TO.P,Bank_But1,7,R*
G04 #@! TO.N,Net-(Bank_But1-R)*
X172508648Y95749922D03*
G04 #@! TO.P,Bank_But1,8,B*
G04 #@! TO.N,Net-(Bank_But1-B)*
X174308648Y95749922D03*
G04 #@! TD*
D36*
G04 #@! TO.P,SD1,1,DAT2*
G04 #@! TO.N,/D18*
X152356648Y82449673D03*
G04 #@! TO.P,SD1,2,CD/DAT3*
G04 #@! TO.N,/D19*
X151256828Y81349853D03*
G04 #@! TO.P,SD1,3,CMD*
G04 #@! TO.N,/D4*
X152356648Y80249779D03*
G04 #@! TO.P,SD1,4,VDD*
G04 #@! TO.N,+3V3*
X151256828Y79149959D03*
G04 #@! TO.P,SD1,5,CLK*
G04 #@! TO.N,/D9*
X152356648Y78049885D03*
G04 #@! TO.P,SD1,6,VSS*
G04 #@! TO.N,GND*
X151256828Y76950065D03*
G04 #@! TO.P,SD1,7,DAT0*
G04 #@! TO.N,/D16*
X152356648Y75849991D03*
G04 #@! TO.P,SD1,8,DAT1*
G04 #@! TO.N,/D17*
X151256828Y74750171D03*
D37*
G04 #@! TO.P,SD1,9,SHELL1*
G04 #@! TO.N,GND*
X155526568Y82892522D03*
G04 #@! TO.P,SD1,10,SHELL2*
X155526568Y74307322D03*
G04 #@! TD*
D38*
G04 #@! TO.P,POT_LENGTH1,1,Left*
G04 #@! TO.N,GNDADC*
X139158648Y45045922D03*
G04 #@! TO.P,POT_LENGTH1,2,Center*
G04 #@! TO.N,Net-(POT_LENGTH1-Center)*
X134158648Y45045922D03*
G04 #@! TO.P,POT_LENGTH1,3,Right*
G04 #@! TO.N,VREF+*
X129158648Y45045922D03*
G04 #@! TD*
D33*
G04 #@! TO.P,J2,1,SIG*
G04 #@! TO.N,Net-(J2-SIG)*
X160286648Y38206922D03*
G04 #@! TO.P,J2,2,SHEILD*
G04 #@! TO.N,GND*
X160286648Y27234122D03*
G04 #@! TO.P,J2,3,SW*
X160286648Y29647122D03*
G04 #@! TD*
D38*
G04 #@! TO.P,POT_PITCH1,1,Left*
G04 #@! TO.N,GNDADC*
X175786648Y71045922D03*
G04 #@! TO.P,POT_PITCH1,2,Center*
G04 #@! TO.N,Net-(POT_PITCH1-Center)*
X170786648Y71045922D03*
G04 #@! TO.P,POT_PITCH1,3,Right*
G04 #@! TO.N,VREF+*
X165786648Y71045922D03*
G04 #@! TD*
D33*
G04 #@! TO.P,J7,1,SIG*
G04 #@! TO.N,Net-(J7-SIG)*
X137465648Y32999922D03*
G04 #@! TO.P,J7,2,SHEILD*
G04 #@! TO.N,GND*
X126492848Y32999922D03*
G04 #@! TO.P,J7,3,SW*
X128905848Y32999922D03*
G04 #@! TD*
G04 #@! TO.P,J6,1,SIG*
G04 #@! TO.N,Net-(J6-SIG)*
X152993648Y32999922D03*
G04 #@! TO.P,J6,2,SHEILD*
G04 #@! TO.N,GND*
X142020848Y32999922D03*
G04 #@! TO.P,J6,3,SW*
X144433848Y32999922D03*
G04 #@! TD*
G04 #@! TO.P,J15,1,SIG*
G04 #@! TO.N,Net-(J15-SIG)*
X147786648Y-2207078D03*
G04 #@! TO.P,J15,2,SHEILD*
G04 #@! TO.N,GND*
X147786648Y8765722D03*
G04 #@! TO.P,J15,3,SW*
G04 #@! TO.N,unconnected-(J15-SW-Pad3)*
X147786648Y6352722D03*
G04 #@! TD*
D34*
G04 #@! TO.P,REV_BUT1,1,UP-A*
G04 #@! TO.N,unconnected-(REV_BUT1-UP-A-Pad1)*
X137786648Y100899922D03*
G04 #@! TO.P,REV_BUT1,2,POLE-A*
G04 #@! TO.N,Net-(REV_BUT1-POLE-A)*
X131286648Y100899922D03*
G04 #@! TO.P,REV_BUT1,3,DOWN-A*
G04 #@! TO.N,unconnected-(REV_BUT1-DOWN-A-Pad3)*
X137786648Y96399922D03*
G04 #@! TO.P,REV_BUT1,4,UP-B*
G04 #@! TO.N,GND*
X131286648Y96399922D03*
D35*
G04 #@! TO.P,REV_BUT1,5,CA*
G04 #@! TO.N,+3V3*
X135436648Y101549922D03*
G04 #@! TO.P,REV_BUT1,6,G*
G04 #@! TO.N,Net-(REV_BUT1-G)*
X133636648Y101549922D03*
G04 #@! TO.P,REV_BUT1,7,R*
G04 #@! TO.N,Net-(REV_BUT1-R)*
X133636648Y95749922D03*
G04 #@! TO.P,REV_BUT1,8,B*
G04 #@! TO.N,Net-(REV_BUT1-B)*
X135436648Y95749922D03*
G04 #@! TD*
D33*
G04 #@! TO.P,J9,1,SIG*
G04 #@! TO.N,Net-(J9-SIG)*
X147786648Y23206922D03*
G04 #@! TO.P,J9,2,SHEILD*
G04 #@! TO.N,GND*
X147786648Y12234122D03*
G04 #@! TO.P,J9,3,SW*
X147786648Y14647122D03*
G04 #@! TD*
G04 #@! TO.P,J8,1,SIG*
G04 #@! TO.N,Net-(J8-SIG)*
X170579648Y32999922D03*
G04 #@! TO.P,J8,2,SHEILD*
G04 #@! TO.N,GND*
X181552448Y32999922D03*
G04 #@! TO.P,J8,3,SW*
X179139448Y32999922D03*
G04 #@! TD*
G04 #@! TO.P,J11,1,SIG*
G04 #@! TO.N,Net-(J11-SIG)*
X132258648Y-2207078D03*
G04 #@! TO.P,J11,2,SHEILD*
G04 #@! TO.N,GND*
X132258648Y8765722D03*
G04 #@! TO.P,J11,3,SW*
X132258648Y6352722D03*
G04 #@! TD*
G04 #@! TO.P,J13,1,SIG*
G04 #@! TO.N,Net-(J13-SIG)*
X170579648Y17999922D03*
G04 #@! TO.P,J13,2,SHEILD*
G04 #@! TO.N,GND*
X181552448Y17999922D03*
G04 #@! TO.P,J13,3,SW*
X179139448Y17999922D03*
G04 #@! TD*
D38*
G04 #@! TO.P,POT_START1,1,Left*
G04 #@! TO.N,GNDADC*
X178786648Y45045922D03*
G04 #@! TO.P,POT_START1,2,Center*
G04 #@! TO.N,Net-(POT_START1-Center)*
X173786648Y45045922D03*
G04 #@! TO.P,POT_START1,3,Right*
G04 #@! TO.N,VREF+*
X168786648Y45045922D03*
G04 #@! TD*
D33*
G04 #@! TO.P,J14,1,SIG*
G04 #@! TO.N,Net-(J14-SIG)*
X165493648Y17999922D03*
G04 #@! TO.P,J14,2,SHEILD*
G04 #@! TO.N,GND*
X154520848Y17999922D03*
G04 #@! TO.P,J14,3,SW*
X156933848Y17999922D03*
G04 #@! TD*
D34*
G04 #@! TO.P,PLAY_BUT1,1,UP-A*
G04 #@! TO.N,unconnected-(PLAY_BUT1-UP-A-Pad1)*
X156972648Y98799922D03*
G04 #@! TO.P,PLAY_BUT1,2,POLE-A*
G04 #@! TO.N,Net-(PLAY_BUT1-POLE-A)*
X150980648Y98799922D03*
G04 #@! TO.P,PLAY_BUT1,3,DOWN-A*
G04 #@! TO.N,unconnected-(PLAY_BUT1-DOWN-A-Pad3)*
X156972648Y94299922D03*
G04 #@! TO.P,PLAY_BUT1,4,UP-B*
G04 #@! TO.N,GND*
X150980648Y94299922D03*
D35*
G04 #@! TO.P,PLAY_BUT1,5,CA*
G04 #@! TO.N,+3V3*
X154876648Y99449922D03*
G04 #@! TO.P,PLAY_BUT1,6,G*
G04 #@! TO.N,Net-(PLAY_BUT1-G)*
X153076648Y99449922D03*
G04 #@! TO.P,PLAY_BUT1,7,R*
G04 #@! TO.N,Net-(PLAY_BUT1-R)*
X153076648Y93649922D03*
G04 #@! TO.P,PLAY_BUT1,8,B*
G04 #@! TO.N,Net-(PLAY_BUT1-B)*
X154876648Y93649922D03*
G04 #@! TD*
D38*
G04 #@! TO.P,POT_SAMP1,1,Left*
G04 #@! TO.N,GNDADC*
X142090000Y71226000D03*
G04 #@! TO.P,POT_SAMP1,2,Center*
G04 #@! TO.N,Net-(POT_SAMP1-Center)*
X137090000Y71226000D03*
G04 #@! TO.P,POT_SAMP1,3,Right*
G04 #@! TO.N,VREF+*
X132090000Y71226000D03*
G04 #@! TD*
D39*
G04 #@! TO.N,GND*
X130940000Y58200000D03*
X156117073Y59548450D03*
X131410000Y55160000D03*
X158776648Y30719922D03*
X133636648Y51719922D03*
X138409685Y62820315D03*
X132346570Y51710000D03*
X130281700Y55138300D03*
X166366648Y7679922D03*
X151310000Y67540000D03*
X130310000Y63320000D03*
X152691884Y42777168D03*
X152810149Y51643849D03*
X162116648Y9009922D03*
X132780000Y55100000D03*
X173076648Y36899922D03*
X157242383Y21986500D03*
X151544820Y40342832D03*
X153876648Y30389922D03*
X172116648Y55039922D03*
X173226648Y40039922D03*
X135366648Y52909922D03*
X154980148Y60486600D03*
X148490000Y74320000D03*
X162776648Y57189922D03*
X143776500Y56520000D03*
X127326648Y103049922D03*
X154826648Y3639922D03*
X150911648Y27329922D03*
X127386648Y41789922D03*
X159780000Y63010000D03*
X139346648Y53259922D03*
X149436648Y102949922D03*
X175596648Y14829922D03*
X130480000Y67850000D03*
X154496648Y-975078D03*
X162296648Y61199922D03*
X133016648Y51699922D03*
X157274273Y39541587D03*
X132110000Y55230000D03*
X175976648Y22179922D03*
X153781798Y41245040D03*
X153060753Y39164582D03*
X145760000Y62250000D03*
X136706648Y82264922D03*
X173850000Y55510000D03*
X130990000Y59000000D03*
X167280000Y47870000D03*
X174106648Y14749922D03*
X155027148Y47736600D03*
X145736562Y57639836D03*
X129701700Y55168300D03*
X167930000Y51160000D03*
X129036648Y54819922D03*
X152500148Y44446600D03*
X148470000Y75160000D03*
X174520000Y53804922D03*
X130586648Y30989922D03*
X171257148Y48100000D03*
G04 #@! TO.N,+3V3*
X155180148Y65996600D03*
X147220148Y62746600D03*
X147186648Y32269922D03*
X152870148Y55026600D03*
X132020000Y56370000D03*
X161480612Y56105497D03*
X148907284Y40008568D03*
X150352208Y66786780D03*
X146930000Y73380000D03*
X129750000Y38260000D03*
X153665212Y41781488D03*
X155026648Y48556600D03*
X152466112Y41346010D03*
X139016648Y49139922D03*
X135890000Y40800000D03*
X131430000Y56310000D03*
X171110000Y43840000D03*
X152830148Y43746600D03*
X130540000Y56420000D03*
X129081700Y56498300D03*
X132750000Y56360000D03*
X131610000Y48970000D03*
X149216148Y46643048D03*
X129771700Y56468300D03*
X176880000Y30340000D03*
X158960148Y59386600D03*
X149416648Y37309922D03*
X172144510Y31979637D03*
X151100148Y39056600D03*
X168160000Y32440000D03*
X153413498Y39811210D03*
G04 #@! TO.N,/A4*
X141756648Y36919922D03*
X145720000Y41770000D03*
G04 #@! TO.N,GNDADC*
X167071522Y42341522D03*
X165649998Y42660000D03*
G04 #@! TO.N,/A5*
X146216648Y33449922D03*
X146706648Y27010422D03*
X142806648Y38889922D03*
X144980000Y41810000D03*
G04 #@! TO.N,+12V*
X174500000Y54482531D03*
X171256648Y54799922D03*
X133906648Y67059922D03*
X156706648Y20259922D03*
X162196648Y17889922D03*
X175196648Y19109922D03*
X165086648Y959922D03*
X165616648Y7779922D03*
X149566648Y4059922D03*
X135456648Y78989922D03*
X139156648Y25159922D03*
X147196648Y25259922D03*
X128010000Y67563651D03*
X180400000Y24740000D03*
X132976648Y50659922D03*
X174784148Y41939922D03*
X134509257Y41137313D03*
G04 #@! TO.N,-12VA*
X135320000Y82890000D03*
X167566648Y5739922D03*
X170996648Y10969922D03*
X167186648Y35159922D03*
X157636648Y6759922D03*
X153886648Y28169922D03*
X166096648Y8729922D03*
X168706648Y5169922D03*
X170390000Y47970000D03*
X156706648Y9359922D03*
X132260000Y84080000D03*
X153686648Y25799922D03*
G04 #@! TO.N,/A2*
X145595316Y36155314D03*
X145980000Y40100000D03*
G04 #@! TO.N,/A7*
X177910000Y61500000D03*
X174470000Y62700000D03*
X144920000Y64050000D03*
X147160000Y55880000D03*
G04 #@! TO.N,/A6*
X147270148Y61056600D03*
X151260000Y84150000D03*
X149669346Y56295598D03*
X148974993Y60866600D03*
G04 #@! TO.N,/D6*
X165256648Y53549922D03*
X166227800Y96296803D03*
G04 #@! TO.N,/D8*
X141020000Y55440000D03*
X157634612Y41705009D03*
X158728011Y53049600D03*
X141026648Y44149922D03*
X146130000Y91840000D03*
X141080000Y47540000D03*
G04 #@! TO.N,/A9*
X145500000Y53240000D03*
X144702493Y62086180D03*
G04 #@! TO.N,/D15*
X155620000Y22450000D03*
X162450000Y33020000D03*
X162230000Y34890000D03*
X164940000Y52403500D03*
X157820148Y52266600D03*
X155230004Y58266644D03*
G04 #@! TO.N,/D13*
X161630000Y34870000D03*
X155470000Y57619241D03*
X161920000Y33020000D03*
X134816648Y18829922D03*
G04 #@! TO.N,VREF+*
X144410000Y54880000D03*
X129300000Y62650000D03*
X166600000Y41650000D03*
X130290000Y62440000D03*
X165510000Y42070000D03*
X146460000Y55910000D03*
G04 #@! TO.N,/D11*
X163726648Y56359922D03*
X159838769Y67022043D03*
X158040000Y67050000D03*
X158976648Y77269922D03*
G04 #@! TO.N,/D10*
X145470000Y95759922D03*
X164346648Y55799922D03*
G04 #@! TO.N,/D14*
X160616648Y77859922D03*
X156750000Y81620000D03*
X159814039Y77087313D03*
X158862341Y58658793D03*
G04 #@! TO.N,/D12*
X160943648Y78389922D03*
X161550000Y64050000D03*
X158320148Y60376600D03*
X161106648Y64999922D03*
G04 #@! TO.N,/D0*
X170210000Y90900000D03*
X162606500Y66192256D03*
G04 #@! TO.N,/D1*
X153750000Y75460000D03*
X155040000Y77950000D03*
X162110000Y88450000D03*
X147310000Y65160000D03*
X158310000Y84700000D03*
X151470000Y73103000D03*
X161186500Y86510000D03*
X167320000Y91490000D03*
G04 #@! TO.N,/D3*
X158226648Y62279922D03*
X154606648Y81329922D03*
G04 #@! TO.N,/D2*
X143186648Y9350000D03*
X165710000Y57560000D03*
X159051468Y59997921D03*
X163516648Y58119922D03*
G04 #@! TO.N,/D5*
X175840000Y92440000D03*
X163794998Y64744998D03*
G04 #@! TO.N,/D19*
X156143699Y63436471D03*
G04 #@! TO.N,/D18*
X160296648Y64669922D03*
G04 #@! TO.N,/D7*
X156778407Y55003681D03*
X141676648Y43559922D03*
X157164104Y41332685D03*
X138770000Y41680000D03*
X126710000Y82620000D03*
X126710000Y84730000D03*
G04 #@! TO.N,/D17*
X156787911Y60248837D03*
G04 #@! TO.N,/D16*
X158976648Y74149922D03*
X157430148Y60226600D03*
G04 #@! TO.N,/D9*
X155836648Y64599922D03*
G04 #@! TO.N,/A0*
X145916648Y45379922D03*
X151780000Y26609922D03*
X146680000Y39500000D03*
X150275255Y56326600D03*
G04 #@! TO.N,/A1*
X146682904Y52643666D03*
X144840000Y63440000D03*
G04 #@! TO.N,/A3*
X144180000Y62400000D03*
X144490000Y56980000D03*
G04 #@! TO.N,/A8*
X144860000Y50250000D03*
X148117148Y57109600D03*
X129466648Y37039922D03*
X146726648Y50979922D03*
G04 #@! TO.N,Net-(J2-SIG)*
X160300000Y34750000D03*
G04 #@! TO.N,Net-(C46-Pad1)*
X169590000Y51820000D03*
X178240000Y40110000D03*
G04 #@! TO.N,Net-(POT_LENGTH1-Center)*
X140330000Y65450000D03*
G04 #@! TO.N,Net-(REV_BUT1-R)*
X131130000Y93550000D03*
G04 #@! TO.N,/D4*
X156090148Y62136600D03*
X155354039Y79907313D03*
G04 #@! TO.N,/VCOM*
X176676648Y11769922D03*
X171546648Y16479922D03*
X158646648Y16839922D03*
G04 #@! TO.N,GNDA*
X165046648Y10419922D03*
X173556648Y17879922D03*
X173146648Y7149922D03*
X167766648Y10249922D03*
G04 #@! TO.N,Net-(U2B-VCAP_1)*
X153702594Y57499046D03*
G04 #@! TO.N,+3.3VADC*
X145780000Y54560000D03*
X137974685Y62075315D03*
X142280000Y57400000D03*
X136900000Y62990000D03*
G04 #@! TO.N,/BOOT0*
X151690148Y61476600D03*
X152260000Y67720000D03*
G04 #@! TO.N,Net-(C152-Pad1)*
X165066648Y5969922D03*
X161426648Y1499922D03*
G04 #@! TO.N,Net-(C152-Pad2)*
X161526648Y5059922D03*
X160826648Y489922D03*
G04 #@! TO.N,Net-(C153-Pad1)*
X170106648Y59922D03*
X173256648Y2479922D03*
G04 #@! TO.N,Net-(C153-Pad2)*
X171176648Y3739922D03*
X169236648Y6559922D03*
G04 #@! TO.N,/SWDCLK*
X164690000Y65180000D03*
G04 #@! TO.N,/SWDIO*
X164550000Y64510000D03*
G04 #@! TO.N,/UART_TX*
X147005436Y58236342D03*
G04 #@! TO.N,/UART_RX*
X147406648Y57773342D03*
G04 #@! TO.N,/DEBUG2*
X150920148Y62176600D03*
G04 #@! TO.N,/DEBUG3*
X153740148Y65076600D03*
X156426648Y77839922D03*
X153196648Y73749922D03*
X154226648Y75109922D03*
G04 #@! TO.N,Net-(J9-SIG)*
X135570000Y40129922D03*
X133546648Y40129922D03*
X137126648Y39899922D03*
X136616648Y36989922D03*
G04 #@! TO.N,/LOUT+*
X170418085Y9336875D03*
X169090443Y16181525D03*
G04 #@! TO.N,/LOUT-*
X169952549Y9155823D03*
X168420000Y16130000D03*
G04 #@! TO.N,Net-(U15A--)*
X168700000Y40170000D03*
X170296648Y40680000D03*
G04 #@! TO.N,/I2C1_SCL*
X175920000Y31780000D03*
X148730000Y68500000D03*
G04 #@! TO.N,/I2C1_SDA*
X172250000Y33780000D03*
X152237926Y63473227D03*
G04 #@! TO.N,/RIN*
X162746648Y17079922D03*
X175030000Y22370000D03*
G04 #@! TO.N,/SAI_SD_B*
X174616648Y31529922D03*
X146963500Y66149922D03*
G04 #@! TO.N,/SAI_MCLK*
X148175714Y66207986D03*
X172736648Y31229922D03*
G04 #@! TO.N,/SD-NBL1*
X156470148Y44196600D03*
X151580148Y63466600D03*
G04 #@! TO.N,/SD-NBL0*
X150276648Y62821634D03*
X148356648Y42619922D03*
G04 #@! TO.N,/SD-CKE1*
X154650148Y43426600D03*
X151870148Y64906600D03*
G04 #@! TO.N,/CODEC_RESET*
X177000000Y25940000D03*
X166790000Y66860000D03*
G04 #@! TO.N,/SAI_FS*
X173746648Y31709922D03*
X147596648Y66149922D03*
G04 #@! TO.N,/SAI_SCK*
X148729797Y66438194D03*
X173283148Y32766922D03*
G04 #@! TO.N,/SAI_SD_A*
X168866648Y30799922D03*
X150195162Y64810000D03*
X149630148Y62826600D03*
G04 #@! TO.N,/SD-NCAS*
X153660148Y61116600D03*
X152880148Y62816600D03*
X152280148Y61176600D03*
X151650148Y43766600D03*
G04 #@! TO.N,/SD-D2*
X158400148Y39986600D03*
X150651504Y40204801D03*
X161870000Y41730000D03*
X156125175Y60876600D03*
G04 #@! TO.N,/SD-D3*
X163296648Y58829922D03*
X148890148Y41366600D03*
X164246648Y53549922D03*
X158601969Y40818655D03*
X157880518Y66160422D03*
X163396648Y62209922D03*
X164310000Y52040000D03*
X161866648Y62859922D03*
G04 #@! TO.N,/SD-A0*
X149670441Y52293100D03*
X149588033Y61484485D03*
G04 #@! TO.N,/SD-A2*
X147389582Y51366988D03*
X148977832Y59564212D03*
G04 #@! TO.N,/SD-A1*
X149850148Y45816600D03*
X151473713Y58738745D03*
X148190148Y45896600D03*
X146899678Y49360392D03*
G04 #@! TO.N,/SD-CLK*
X154500000Y57370000D03*
X155443718Y43410078D03*
G04 #@! TO.N,/SD-A3*
X150284091Y58916225D03*
X148006582Y51559724D03*
G04 #@! TO.N,/SD-A4*
X152340328Y51316420D03*
X152254794Y49305314D03*
G04 #@! TO.N,/SD-NWE*
X151588309Y57046600D03*
X148740148Y43726600D03*
G04 #@! TO.N,/SD-A5*
X149665923Y57685332D03*
X148748336Y52733600D03*
G04 #@! TO.N,/SD-BA1*
X149849851Y45036600D03*
X152797148Y52286600D03*
X162446648Y51199922D03*
X156130148Y58266600D03*
G04 #@! TO.N,/SD-BA0*
X158236000Y50910000D03*
X156130148Y56976600D03*
X153730148Y49056600D03*
X151862231Y45252043D03*
G04 #@! TO.N,/SD-D1*
X149780148Y40276600D03*
X157426648Y57619922D03*
G04 #@! TO.N,/SD-A12*
X159099759Y57294467D03*
X156430148Y49406600D03*
X156590148Y44846600D03*
X162496648Y50089922D03*
G04 #@! TO.N,/SD-A11*
X149610148Y49456600D03*
X154680148Y44996600D03*
X152807895Y45158949D03*
X152877297Y56333838D03*
G04 #@! TO.N,/SD-NE1*
X147940148Y41136600D03*
X155449403Y57015476D03*
G04 #@! TO.N,/SD-D0*
X156787799Y56943323D03*
X150260148Y39246600D03*
G04 #@! TO.N,/SD-A7*
X155455148Y49651600D03*
X154582854Y48209306D03*
X151951309Y57466600D03*
X154688298Y45813057D03*
G04 #@! TO.N,/SD-A10*
X152234981Y55686600D03*
X147660148Y48906600D03*
G04 #@! TO.N,/SD-D10*
X158823541Y42066567D03*
X156775100Y56326600D03*
G04 #@! TO.N,/SD-D15*
X156956648Y38749922D03*
X158953774Y55094484D03*
G04 #@! TO.N,/SD-A6*
X151654168Y55072826D03*
X149961416Y51445332D03*
G04 #@! TO.N,/SD-A9*
X150038468Y50238280D03*
X152252454Y53771044D03*
G04 #@! TO.N,/SD-D5*
X148850148Y41906600D03*
X152770148Y50906600D03*
X155027148Y51066600D03*
X153524955Y55019407D03*
G04 #@! TO.N,/SD-D6*
X150660148Y42626600D03*
X154180148Y55671564D03*
X155627148Y50236600D03*
X154140148Y48606600D03*
G04 #@! TO.N,/SD-D8*
X155422344Y53444567D03*
X156816648Y45646600D03*
G04 #@! TO.N,/SD-D11*
X158686648Y41363891D03*
X155430148Y41786600D03*
X157425121Y56316600D03*
X156730172Y41581667D03*
G04 #@! TO.N,/SD-D14*
X158532955Y54159407D03*
X156256828Y40763280D03*
G04 #@! TO.N,/SD-D13*
X155456208Y41036600D03*
X157420148Y55021622D03*
G04 #@! TO.N,/SD-NRAS*
X149987018Y44144194D03*
X151799795Y52896246D03*
G04 #@! TO.N,/SD-A8*
X155559845Y45760041D03*
X152753295Y53108833D03*
G04 #@! TO.N,/SD-D4*
X151727148Y50346600D03*
X150655660Y41044066D03*
X153260148Y54176600D03*
X147160148Y43096600D03*
X154070148Y50758942D03*
X147170148Y46206600D03*
G04 #@! TO.N,/SD-D7*
X152739623Y49983600D03*
X153623148Y53656600D03*
X148863648Y43004332D03*
X154808468Y50528280D03*
G04 #@! TO.N,/SD-D9*
X155456445Y42643258D03*
X156786828Y52733280D03*
G04 #@! TO.N,/SD-D12*
X156764898Y53310030D03*
X156404241Y42265255D03*
G04 #@! TD*
D40*
G04 #@! TO.N,GND*
X139466648Y63269922D02*
X138859292Y63269922D01*
D41*
X155800148Y59865375D02*
X156117073Y59548450D01*
D42*
X139356493Y52414922D02*
X139356493Y53250077D01*
D40*
X133106493Y52469922D02*
X133106493Y51789767D01*
X152272022Y39615630D02*
X151544820Y40342832D01*
D41*
X153200148Y60546600D02*
X152550148Y60546600D01*
D42*
X181253428Y21783428D02*
X181253428Y18298942D01*
D41*
X152550148Y59896600D02*
X151900148Y59896600D01*
D42*
X153976648Y29729162D02*
X152682408Y29729162D01*
X139466648Y63269922D02*
X139466648Y61629922D01*
X149103787Y23979922D02*
X150291648Y23979922D01*
D40*
X152691884Y42059364D02*
X152691884Y42777168D01*
D41*
X153200148Y61846600D02*
X152550148Y61846600D01*
D42*
X153731648Y-975078D02*
X154496648Y-975078D01*
D41*
X154500148Y59896600D02*
X153850148Y59896600D01*
D40*
X152755638Y39615630D02*
X152272022Y39615630D01*
D41*
X168171648Y36169922D02*
X170031148Y34310422D01*
X176134648Y50904922D02*
X176986648Y50904922D01*
X159780000Y63201940D02*
X159780000Y63010000D01*
X153850148Y60546600D02*
X153850148Y59896600D01*
X171425000Y48267852D02*
X171257148Y48100000D01*
X152500148Y44446600D02*
X152822267Y44446600D01*
D40*
X143441500Y56185000D02*
X143776500Y56520000D01*
D42*
X166651648Y6739922D02*
X166651648Y2184922D01*
D41*
X153460148Y51761600D02*
X155020148Y51761600D01*
D40*
X130335888Y20469922D02*
X130335888Y19866672D01*
X142835200Y43841160D02*
X139196360Y47480000D01*
D41*
X161660148Y55456600D02*
X161850148Y55646600D01*
D40*
X132100000Y54420000D02*
X132780000Y55100000D01*
D42*
X149170888Y31050682D02*
X149616648Y30604922D01*
D41*
X154500148Y60546600D02*
X154920148Y60546600D01*
X153850148Y59896600D02*
X153200148Y59896600D01*
D40*
X167220000Y47810000D02*
X167280000Y47870000D01*
D41*
X171808348Y34128770D02*
X171808348Y32116622D01*
D40*
X132100000Y54470000D02*
X131410000Y55160000D01*
D41*
X174520000Y53804922D02*
X174520000Y52519570D01*
D40*
X132100000Y55220000D02*
X132100000Y54320000D01*
X153510148Y39166600D02*
X152785348Y38441800D01*
D41*
X152550148Y59246600D02*
X151900148Y59246600D01*
X161015148Y55456600D02*
X161660148Y55456600D01*
X153836648Y90069922D02*
X156376648Y90069922D01*
D40*
X162170148Y61073422D02*
X162296648Y61199922D01*
D42*
X166651648Y2184922D02*
X166206648Y1739922D01*
X181570000Y22100000D02*
X181253428Y21783428D01*
D40*
X130120000Y66880000D02*
X130120000Y67490000D01*
D41*
X142826648Y18879922D02*
X141126648Y17179922D01*
D40*
X143436648Y22739922D02*
X143436648Y20589922D01*
D42*
X148266648Y31050682D02*
X149170888Y31050682D01*
D40*
X152807411Y39563857D02*
X153204668Y39166600D01*
D41*
X155660148Y60406600D02*
X155800148Y60546600D01*
X155660148Y60036600D02*
X155660148Y60406600D01*
X153850148Y61846600D02*
X153200148Y61846600D01*
X132732564Y33964922D02*
X135042564Y36274922D01*
D40*
X143436648Y20589922D02*
X145146648Y18879922D01*
X157746648Y30669922D02*
X158726648Y30669922D01*
X130335888Y19866672D02*
X132258648Y17943912D01*
X149406648Y102919922D02*
X149436648Y102949922D01*
D42*
X154021648Y67989922D02*
X154021648Y67000100D01*
D41*
X160825148Y56716600D02*
X160825148Y57756600D01*
D40*
X141126648Y14639922D02*
X138586648Y14639922D01*
D41*
X153850148Y60546600D02*
X154050148Y60746600D01*
D40*
X167220000Y47069240D02*
X167220000Y47810000D01*
X130298220Y64090000D02*
X130298220Y63331780D01*
D41*
X148650148Y56646600D02*
X147839970Y56646600D01*
D40*
X129765052Y54324948D02*
X128991700Y55098300D01*
D41*
X153200148Y59896600D02*
X153200148Y59246600D01*
D40*
X130120000Y67490000D02*
X130480000Y67850000D01*
D41*
X175101648Y53804922D02*
X174520000Y53804922D01*
X154500148Y58596600D02*
X154500148Y57946600D01*
X154500148Y58596600D02*
X153850148Y58596600D01*
D40*
X133106493Y51789767D02*
X133016648Y51699922D01*
D41*
X153850148Y57946600D02*
X153850148Y58596600D01*
D40*
X129950000Y61340000D02*
X129950000Y60760000D01*
X175961648Y22194922D02*
X175976648Y22179922D01*
D42*
X169201648Y12004672D02*
X169201648Y11554922D01*
D40*
X148186648Y102919922D02*
X149406648Y102919922D01*
D41*
X126492848Y32999922D02*
X128905848Y32999922D01*
X145760000Y61877840D02*
X145760000Y62250000D01*
X156376648Y90069922D02*
X158916648Y90069922D01*
X147404740Y60233100D02*
X145760000Y61877840D01*
D40*
X158916088Y25216436D02*
X158916088Y25863562D01*
D41*
X153200148Y60546600D02*
X153850148Y60546600D01*
X133106648Y33590838D02*
X133106648Y30989922D01*
D43*
X131610000Y58870000D02*
X130940000Y58200000D01*
D41*
X173255768Y34310422D02*
X171990000Y34310422D01*
X128567564Y41804922D02*
X127401648Y41804922D01*
X154500148Y57946600D02*
X153850148Y57946600D01*
D40*
X153346648Y39166600D02*
X153510148Y39166600D01*
D41*
X155800148Y59896600D02*
X155800148Y59246600D01*
X154500148Y59896600D02*
X154500148Y59246600D01*
X151261052Y40626600D02*
X151544820Y40342832D01*
D42*
X139356493Y53250077D02*
X139346648Y53259922D01*
D40*
X129791778Y54648378D02*
X130281700Y55138300D01*
X154068588Y41245040D02*
X154250148Y41426600D01*
X141126648Y17179922D02*
X141126648Y14639922D01*
D42*
X152531648Y24599922D02*
X150911648Y24599922D01*
D41*
X128567564Y40534162D02*
X129006804Y40094922D01*
X147839970Y56646600D02*
X147004970Y57481600D01*
D40*
X168610000Y51145000D02*
X167945000Y51145000D01*
D43*
X161451826Y57189922D02*
X162776648Y57189922D01*
D41*
X147004970Y57481600D02*
X146290148Y57481600D01*
X152550148Y57946600D02*
X151900148Y57946600D01*
D42*
X150291648Y23979922D02*
X150911648Y24599922D01*
D40*
X129765052Y54298378D02*
X129765052Y55104948D01*
X131740000Y47480000D02*
X129826648Y49393352D01*
D41*
X142011648Y38029922D02*
X144086648Y35954922D01*
D40*
X130298220Y63331780D02*
X130310000Y63320000D01*
X132800000Y61750000D02*
X130460000Y64090000D01*
D41*
X155815148Y47736600D02*
X155027148Y47736600D01*
X173850000Y55510000D02*
X174034482Y55694482D01*
X176091648Y15789672D02*
X176091648Y15324922D01*
D40*
X132258648Y17943912D02*
X132258648Y14647122D01*
D42*
X170531898Y10224672D02*
X172651648Y10224672D01*
D40*
X135186648Y52309922D02*
X133603648Y52309922D01*
D41*
X153080148Y66981600D02*
X152010148Y66981600D01*
X153850148Y59246600D02*
X153200148Y59246600D01*
X171808348Y32116622D02*
X170811648Y31119922D01*
D42*
X154441648Y-975078D02*
X154496648Y-975078D01*
D41*
X153850148Y58596600D02*
X153850148Y59246600D01*
X145605148Y62095148D02*
X145760000Y62250000D01*
D40*
X142835200Y42150194D02*
X142835200Y43841160D01*
D42*
X153976648Y29729162D02*
X153976648Y30289922D01*
D41*
X171411648Y29492422D02*
X171411648Y30519922D01*
X156490148Y48376600D02*
X156490148Y46866600D01*
D40*
X151050148Y42226600D02*
X152141316Y42226600D01*
D41*
X152550148Y58596600D02*
X151900148Y58596600D01*
X153200148Y58596600D02*
X153200148Y59246600D01*
X173246648Y36729922D02*
X173246648Y35884922D01*
X175961648Y23767422D02*
X175311648Y23767422D01*
D40*
X153781798Y41245040D02*
X152807411Y40270653D01*
D41*
X160935148Y60276600D02*
X160715148Y60056600D01*
D40*
X153781798Y41245040D02*
X153506208Y41245040D01*
X129950000Y60760000D02*
X131610000Y59100000D01*
D41*
X130990000Y59000000D02*
X131510000Y59000000D01*
X152236648Y62160100D02*
X151563648Y62160100D01*
X153200148Y57946600D02*
X152550148Y57946600D01*
X155020148Y51761600D02*
X156050148Y51761600D01*
D40*
X139196360Y47480000D02*
X131740000Y47480000D01*
D41*
X127401648Y41804922D02*
X127386648Y41789922D01*
D42*
X150911648Y29309922D02*
X150911648Y24599922D01*
D40*
X138586648Y12099922D02*
X141126648Y12099922D01*
D42*
X153196648Y-2210078D02*
X153196648Y-1510078D01*
D41*
X148986648Y60233100D02*
X147404740Y60233100D01*
X149300148Y59896600D02*
X149300148Y60546600D01*
X153200148Y57946600D02*
X153200148Y56646600D01*
X135042564Y36274922D02*
X135042564Y38914922D01*
D40*
X129765052Y54648378D02*
X129791778Y54648378D01*
D42*
X169201648Y11554922D02*
X170531898Y10224672D01*
D41*
X153200148Y57946600D02*
X153200148Y58596600D01*
D42*
X155541648Y4354922D02*
X154826648Y3639922D01*
D40*
X175961648Y23767422D02*
X175961648Y22194922D01*
D42*
X150321648Y3144922D02*
X154441648Y-975078D01*
D41*
X154050148Y60746600D02*
X154050148Y61646600D01*
X166651648Y6739922D02*
X166651648Y7394922D01*
X154050148Y61646600D02*
X153850148Y61846600D01*
D40*
X127206648Y102929922D02*
X127326648Y103049922D01*
D43*
X157710805Y22454922D02*
X157242383Y21986500D01*
D40*
X150970148Y67200148D02*
X151310000Y67540000D01*
X167945000Y51145000D02*
X167930000Y51160000D01*
D41*
X142020848Y32999922D02*
X144433848Y32999922D01*
X173076648Y36899922D02*
X173246648Y36729922D01*
X152550148Y58596600D02*
X152550148Y59246600D01*
X162170148Y60276600D02*
X160935148Y60276600D01*
D40*
X152807411Y40270653D02*
X152807411Y39563857D01*
D41*
X145605148Y61546600D02*
X145605148Y62095148D01*
X149300148Y60546600D02*
X148986648Y60233100D01*
D42*
X145366648Y25569922D02*
X146416648Y24519922D01*
D40*
X150970148Y66971600D02*
X150970148Y67200148D01*
D41*
X152550148Y60546600D02*
X152550148Y59896600D01*
X140796648Y40530682D02*
X140796648Y39244922D01*
X152010148Y66981600D02*
X150980148Y66981600D01*
X153200148Y59246600D02*
X152550148Y59246600D01*
X173271648Y13914922D02*
X173271648Y10844672D01*
D40*
X127206648Y102059922D02*
X127206648Y102929922D01*
X153204668Y39166600D02*
X153346648Y39166600D01*
D41*
X156655148Y48576600D02*
X155815148Y47736600D01*
D40*
X158726648Y30669922D02*
X158776648Y30719922D01*
D42*
X153976648Y30289922D02*
X153876648Y30389922D01*
D41*
X151900148Y59896600D02*
X151900148Y59246600D01*
D40*
X133106493Y52250077D02*
X133636648Y51719922D01*
D42*
X172651648Y10224672D02*
X173271648Y10844672D01*
D41*
X154500148Y59896600D02*
X154500148Y60546600D01*
X153200148Y56646600D02*
X153850148Y56646600D01*
X152550148Y61846600D02*
X152236648Y62160100D01*
D40*
X132110000Y55230000D02*
X132100000Y55220000D01*
D41*
X176091648Y15324922D02*
X175596648Y14829922D01*
X153850148Y58596600D02*
X153200148Y58596600D01*
X167526648Y96799922D02*
X169758648Y96799922D01*
X174520000Y52519570D02*
X176134648Y50904922D01*
D40*
X138586648Y14639922D02*
X138586648Y17179922D01*
X133040000Y61750000D02*
X132800000Y61750000D01*
D41*
X173246648Y35884922D02*
X173246648Y34319542D01*
X145894798Y57481600D02*
X145736562Y57639836D01*
D40*
X129151648Y3429922D02*
X132074448Y6352722D01*
D41*
X149306600Y74699079D02*
X148869079Y74699079D01*
D40*
X129826648Y49393352D02*
X129826648Y54003352D01*
X162170148Y60276600D02*
X162170148Y61073422D01*
X152141316Y42226600D02*
X152691884Y42777168D01*
D41*
X171425000Y48750000D02*
X171425000Y48267852D01*
X145146648Y18879922D02*
X142826648Y18879922D01*
D40*
X133106648Y30989922D02*
X130586648Y30989922D01*
X152785348Y38441800D02*
X146543594Y38441800D01*
D41*
X154500148Y60546600D02*
X153850148Y60546600D01*
X152550148Y59246600D02*
X152550148Y59896600D01*
D40*
X143240000Y56185000D02*
X143441500Y56185000D01*
D41*
X148869079Y74699079D02*
X148490000Y74320000D01*
X161850148Y55646600D02*
X161850148Y56546600D01*
X160715148Y60056600D02*
X160715148Y59016600D01*
D42*
X149616648Y30604922D02*
X150911648Y29309922D01*
D41*
X151050148Y40626600D02*
X151261052Y40626600D01*
X140796648Y39244922D02*
X142011648Y38029922D01*
X154030148Y66991600D02*
X153110148Y66991600D01*
X171990000Y34310422D02*
X171808348Y34128770D01*
D42*
X129325888Y2059922D02*
X129325888Y3255682D01*
X154496648Y-975078D02*
X155266648Y-975078D01*
D41*
X166651648Y7394922D02*
X166366648Y7679922D01*
X161850148Y56546600D02*
X161680148Y56716600D01*
D40*
X153781798Y41245040D02*
X154068588Y41245040D01*
D41*
X153200148Y59896600D02*
X152550148Y59896600D01*
X151900148Y57946600D02*
X151900148Y58596600D01*
D42*
X157816648Y22454922D02*
X157816648Y21154922D01*
D41*
X161680148Y56716600D02*
X160825148Y56716600D01*
X170031148Y34310422D02*
X173255768Y34310422D01*
X154500148Y59246600D02*
X154500148Y58596600D01*
X151900148Y59246600D02*
X151900148Y58596600D01*
D42*
X153196648Y-1510078D02*
X153731648Y-975078D01*
D40*
X138859292Y63269922D02*
X138409685Y62820315D01*
D41*
X152550148Y60546600D02*
X151900148Y60546600D01*
D42*
X146416648Y24519922D02*
X148563787Y24519922D01*
D40*
X133106492Y52469922D02*
X132346570Y51710000D01*
D41*
X151563648Y62160100D02*
X151250148Y61846600D01*
X152810149Y51643849D02*
X153342397Y51643849D01*
X154500148Y59246600D02*
X153850148Y59246600D01*
X174034482Y55694482D02*
X174711648Y55694482D01*
X155800148Y59896600D02*
X155660148Y60036600D01*
D42*
X155541648Y5079922D02*
X155541648Y4354922D01*
D41*
X153200148Y60546600D02*
X153200148Y59896600D01*
D40*
X146543594Y38441800D02*
X142835200Y42150194D01*
X152807411Y39563857D02*
X152755638Y39615630D01*
D41*
X153850148Y59246600D02*
X153850148Y59896600D01*
X160547982Y63969922D02*
X159780000Y63201940D01*
D40*
X138586648Y14639922D02*
X138586648Y12099922D01*
D41*
X172081648Y55724482D02*
X172081648Y55074922D01*
X153850148Y57946600D02*
X153200148Y57946600D01*
X174011648Y40824922D02*
X173226648Y40039922D01*
X171411648Y30519922D02*
X170811648Y31119922D01*
D40*
X153346648Y39166600D02*
X153590148Y39166600D01*
D42*
X135941648Y82264922D02*
X137661648Y82264922D01*
D40*
X141126648Y12099922D02*
X141126648Y14639922D01*
X158916088Y25863562D02*
X160286648Y27234122D01*
D41*
X152550148Y57946600D02*
X152550148Y58596600D01*
X128567564Y41804922D02*
X128567564Y40534162D01*
D40*
X138586648Y17179922D02*
X141126648Y17179922D01*
D41*
X155979388Y39955840D02*
X156860020Y39955840D01*
D40*
X129765052Y55104948D02*
X129701700Y55168300D01*
D42*
X148563787Y24519922D02*
X149103787Y23979922D01*
D41*
X152822267Y44446600D02*
X154250148Y43018719D01*
X154920148Y60546600D02*
X154980148Y60486600D01*
D40*
X135366648Y52909922D02*
X135366648Y52489922D01*
D41*
X144086648Y35729922D02*
X144086648Y33347122D01*
D40*
X130586648Y30989922D02*
X129306648Y29709922D01*
X153590148Y39166600D02*
X154250148Y39826600D01*
D41*
X129006804Y40094922D02*
X127842564Y40094922D01*
X174011648Y41084922D02*
X174011648Y40824922D01*
D40*
X153506208Y41245040D02*
X152691884Y42059364D01*
D41*
X172081648Y55074922D02*
X172116648Y55039922D01*
D43*
X160855148Y57786600D02*
X161451826Y57189922D01*
D41*
X132732564Y33964922D02*
X133106648Y33590838D01*
X146290148Y57481600D02*
X145894798Y57481600D01*
X151900148Y60546600D02*
X151900148Y59896600D01*
X174106648Y14749922D02*
X173271648Y13914922D01*
X151296648Y90069922D02*
X153836648Y90069922D01*
X145720148Y62746600D02*
X145720148Y61711600D01*
X156860020Y39955840D02*
X157274273Y39541587D01*
X156490148Y46866600D02*
X155850148Y46226600D01*
X153200148Y58596600D02*
X152550148Y58596600D01*
X148930921Y74699079D02*
X148470000Y75160000D01*
D43*
X160286648Y29647122D02*
X160286648Y27234122D01*
D41*
X153590148Y39166600D02*
X153510148Y39166600D01*
D40*
G04 #@! TO.N,+3V3*
X131610000Y48970000D02*
X132540078Y48039922D01*
X132100000Y56980000D02*
X131430000Y56310000D01*
D42*
X146406600Y73903400D02*
X146930000Y73380000D01*
X149563165Y80249922D02*
X147936648Y80249922D01*
D40*
X136159318Y40530682D02*
X135890000Y40800000D01*
D41*
X158960148Y59386600D02*
X159375148Y59386600D01*
X172061648Y30839922D02*
X171781648Y31119922D01*
D40*
X128555048Y930762D02*
X128555048Y16789082D01*
D41*
X156370148Y58676600D02*
X156450148Y58596600D01*
D40*
X143148400Y42405784D02*
X143148400Y42315784D01*
D41*
X153665212Y41781488D02*
X153665212Y42911536D01*
X152219444Y43456872D02*
X151789172Y43026600D01*
X158033634Y59583100D02*
X156786648Y59583100D01*
X152942928Y55759649D02*
X152942928Y55715233D01*
X149450148Y46409048D02*
X149216148Y46643048D01*
D40*
X132100000Y56450000D02*
X132020000Y56370000D01*
D41*
X159426648Y57560100D02*
X159296648Y57690100D01*
D40*
X129325888Y159922D02*
X128555048Y930762D01*
D43*
X148986648Y58306600D02*
X148963148Y58283100D01*
D41*
X153850148Y62496600D02*
X154186648Y62833100D01*
D40*
X147186648Y31870682D02*
X146366648Y31050682D01*
D41*
X154030148Y66021600D02*
X155155148Y66021600D01*
D40*
X132100000Y57220000D02*
X132100000Y56450000D01*
D41*
X154630148Y52741600D02*
X156335148Y52741600D01*
D40*
X129755052Y57171652D02*
X129081700Y56498300D01*
X130335888Y18569922D02*
X129836648Y18569922D01*
D41*
X146538470Y58699922D02*
X148084378Y58699922D01*
X153536648Y63666744D02*
X153536648Y64420100D01*
X158974147Y59372601D02*
X158244133Y59372601D01*
X152886648Y55029990D02*
X152884148Y55027490D01*
D40*
X130546700Y56423300D02*
X130543300Y56423300D01*
X124821648Y34009766D02*
X129006804Y38194922D01*
D41*
X152550148Y62496600D02*
X151900148Y62496600D01*
D40*
X128555048Y16789082D02*
X130335888Y18569922D01*
X158015758Y32471522D02*
X168128478Y32471522D01*
X138126648Y49119922D02*
X138996648Y49119922D01*
X147186648Y32269922D02*
X147623448Y31833122D01*
D43*
X148963148Y58283100D02*
X148501200Y58283100D01*
D41*
X153080148Y66011600D02*
X152010148Y66011600D01*
D40*
X147186648Y32269922D02*
X147186648Y31870682D01*
D41*
X156786648Y59583100D02*
X156450148Y59246600D01*
X151050148Y41426600D02*
X152385522Y41426600D01*
X154250148Y40626600D02*
X153434758Y39811210D01*
D40*
X129836648Y18569922D02*
X124821648Y23584922D01*
D41*
X160338648Y56130100D02*
X161456009Y56130100D01*
X153580148Y63319956D02*
X153580148Y63623244D01*
D40*
X172144510Y31824510D02*
X172144510Y31979637D01*
X131610000Y48970000D02*
X130878248Y49701752D01*
X130543300Y56423300D02*
X130540000Y56420000D01*
D41*
X154030148Y66021600D02*
X153110148Y66021600D01*
D40*
X129771622Y57198378D02*
X130546700Y56423300D01*
D41*
X153179879Y55996600D02*
X152942928Y55759649D01*
X154186648Y62833100D02*
X154186648Y65865100D01*
X159426648Y57452306D02*
X159426648Y57560100D01*
X159855148Y56716600D02*
X159855148Y57131600D01*
X150410148Y57946600D02*
X150600148Y57946600D01*
X158244133Y59372601D02*
X158033634Y59583100D01*
X176000000Y32440000D02*
X176816648Y31623352D01*
X155800148Y58596600D02*
X155880148Y58676600D01*
D40*
X129710000Y58473570D02*
X129810000Y58373570D01*
D42*
X147136648Y79449922D02*
X147136648Y76899922D01*
D41*
X153050148Y62346600D02*
X152700148Y62346600D01*
X152886648Y55066600D02*
X152886648Y55029990D01*
X153200148Y62496600D02*
X153050148Y62346600D01*
X151789172Y43026600D02*
X151050148Y43026600D01*
X149450148Y39826600D02*
X149089252Y39826600D01*
X149170292Y58910100D02*
X148986648Y58726456D01*
X154110324Y42226600D02*
X153665212Y41781488D01*
D40*
X130878248Y56081752D02*
X130540000Y56420000D01*
D41*
X151900148Y62496600D02*
X151250148Y62496600D01*
D42*
X147136648Y76899922D02*
X147136648Y75429127D01*
D41*
X153200148Y62496600D02*
X153580148Y62876600D01*
X148986648Y58726456D02*
X148986648Y58306600D01*
D40*
X138996648Y49119922D02*
X139016648Y49139922D01*
D41*
X152540420Y43456872D02*
X152219444Y43456872D01*
X155880148Y58676600D02*
X156370148Y58676600D01*
D40*
X132836648Y56879922D02*
X134146648Y55569922D01*
D41*
X156600148Y59746600D02*
X156450148Y59896600D01*
D42*
X146406600Y74699079D02*
X146406600Y73903400D01*
D41*
X153434758Y39811210D02*
X153413498Y39811210D01*
D40*
X129771700Y57191730D02*
X129771700Y56468300D01*
X143148400Y42315784D02*
X146619184Y38845000D01*
D41*
X149950148Y60546600D02*
X150263648Y60860100D01*
D40*
X171781648Y31274922D02*
X171781648Y31461648D01*
D41*
X151295148Y66001600D02*
X151300148Y66006600D01*
X154500148Y55976600D02*
X154270148Y56206600D01*
X146715148Y61686600D02*
X146715148Y62721600D01*
D40*
X155876648Y30332412D02*
X158015758Y32471522D01*
D41*
X153090148Y64866600D02*
X153090148Y66001600D01*
X152886648Y55066600D02*
X152886648Y53630100D01*
X176816648Y31623352D02*
X176816648Y31087422D01*
X155073056Y48510192D02*
X155026648Y48556600D01*
X150263648Y60860100D02*
X150263648Y61976456D01*
X148394632Y62160100D02*
X147808132Y62746600D01*
X152010148Y66011600D02*
X150980148Y66011600D01*
X175495000Y32440000D02*
X176000000Y32440000D01*
X149950148Y59896600D02*
X149950148Y60546600D01*
X154270148Y56206600D02*
X154060148Y56206600D01*
X153536648Y63016744D02*
X153536648Y63276456D01*
X150352208Y66786780D02*
X150352208Y66619540D01*
X146690148Y62746600D02*
X147220148Y62746600D01*
X155751556Y48510192D02*
X155073056Y48510192D01*
X153536648Y64420100D02*
X153090148Y64866600D01*
D40*
X154647603Y32652397D02*
X155405693Y32652397D01*
D41*
X153460148Y53056600D02*
X153460148Y52731600D01*
X159745148Y59016600D02*
X159745148Y60056600D01*
D40*
X171110000Y43840000D02*
X171110000Y45079240D01*
D41*
X159575854Y57303100D02*
X159426648Y57452306D01*
D40*
X147623448Y31833122D02*
X153828328Y31833122D01*
D42*
X147136648Y81999922D02*
X147136648Y79449922D01*
D40*
X171110000Y45079240D02*
X169120000Y47069240D01*
D41*
X152886648Y55658953D02*
X152886648Y55066600D01*
X152942928Y55715233D02*
X152886648Y55658953D01*
X148986648Y58306600D02*
X149010148Y58283100D01*
X150073648Y58283100D02*
X149010148Y58283100D01*
D40*
X153828328Y31833122D02*
X154647603Y32652397D01*
D42*
X147136648Y84549922D02*
X147136648Y81999922D01*
D41*
X150970148Y66001600D02*
X151295148Y66001600D01*
D40*
X129810000Y58373570D02*
X129810000Y56920000D01*
D41*
X147808132Y62746600D02*
X146690148Y62746600D01*
X154630148Y52741600D02*
X154620148Y52731600D01*
X153200148Y55996600D02*
X153850148Y55996600D01*
X159683648Y57303100D02*
X159575854Y57303100D01*
X150263648Y61976456D02*
X150080004Y62160100D01*
X146290148Y58451600D02*
X146538470Y58699922D01*
D40*
X143138400Y42415784D02*
X143148400Y42405784D01*
D41*
X158636648Y57690100D02*
X158066648Y58260100D01*
D40*
X171781648Y31461648D02*
X172144510Y31824510D01*
D41*
X153536648Y63276456D02*
X153580148Y63319956D01*
X149407004Y58910100D02*
X149170292Y58910100D01*
X149613648Y59560100D02*
X149613648Y59116744D01*
X152830148Y43746600D02*
X152540420Y43456872D01*
X151345148Y66001600D02*
X150970148Y66001600D01*
D40*
X143138400Y44108170D02*
X143138400Y42415784D01*
D41*
X151100148Y39056600D02*
X151050148Y39106600D01*
D42*
X147936648Y80249922D02*
X147136648Y79449922D01*
D41*
X159296648Y57690100D02*
X158636648Y57690100D01*
X153580148Y62876600D02*
X153580148Y62973244D01*
D40*
X138896648Y40530682D02*
X136159318Y40530682D01*
D41*
X159375148Y59386600D02*
X159745148Y59016600D01*
X149613648Y59116744D02*
X149407004Y58910100D01*
X156936792Y58226600D02*
X156820148Y58226600D01*
D40*
X168128478Y32471522D02*
X168160000Y32440000D01*
D41*
X149089252Y39826600D02*
X148907284Y40008568D01*
D43*
X148501200Y58283100D02*
X148084378Y58699922D01*
D40*
X130878248Y49701752D02*
X130878248Y56081752D01*
D41*
X153580148Y63623244D02*
X153536648Y63666744D01*
D40*
X155405693Y32652397D02*
X155876648Y32181442D01*
D41*
X149950148Y59896600D02*
X149613648Y59560100D01*
X156970292Y58260100D02*
X156936792Y58226600D01*
X159855148Y56716600D02*
X159855148Y55646600D01*
X150073648Y58283100D02*
X150410148Y57946600D01*
D40*
X176880000Y30340000D02*
X176880000Y31024070D01*
X146619184Y38845000D02*
X150888548Y38845000D01*
D41*
X156600148Y59396600D02*
X156600148Y59746600D01*
D40*
X155876648Y29729162D02*
X155876648Y30332412D01*
D41*
X156820148Y58226600D02*
X156450148Y58596600D01*
D40*
X132540078Y48039922D02*
X139206648Y48039922D01*
D41*
X154060148Y56206600D02*
X153850148Y55996600D01*
D40*
X129710000Y59100000D02*
X129710000Y58473570D01*
X139206648Y48039922D02*
X143138400Y44108170D01*
X129750000Y38260000D02*
X129071882Y38260000D01*
X124821648Y23584922D02*
X124821648Y34009766D01*
D41*
X155155148Y66021600D02*
X155180148Y65996600D01*
X152385522Y41426600D02*
X152466112Y41346010D01*
D40*
X132100000Y57010000D02*
X132750000Y56360000D01*
D41*
X152886648Y53630100D02*
X153460148Y53056600D01*
D40*
X150888548Y38845000D02*
X151100148Y39056600D01*
D41*
X150352208Y66619540D02*
X150970148Y66001600D01*
X159855148Y57131600D02*
X159683648Y57303100D01*
D40*
X155876648Y29729162D02*
X155876648Y32181442D01*
D42*
X147136648Y75429127D02*
X146406600Y74699079D01*
D41*
X161456009Y56130100D02*
X161480612Y56105497D01*
X152700148Y62346600D02*
X152550148Y62496600D01*
X151050148Y39106600D02*
X151050148Y39826600D01*
X150080004Y62160100D02*
X148394632Y62160100D01*
X159855148Y55646600D02*
X160338648Y56130100D01*
X156450148Y59246600D02*
X156600148Y59396600D01*
X158066648Y58260100D02*
X156970292Y58260100D01*
X154620148Y52731600D02*
X153590148Y52731600D01*
D40*
X129820078Y56909922D02*
X132086648Y56909922D01*
D41*
X172061648Y29492422D02*
X172061648Y30839922D01*
X153580148Y62973244D02*
X153536648Y63016744D01*
D42*
X150663128Y79149959D02*
X149563165Y80249922D01*
D41*
X153665212Y42911536D02*
X152830148Y43746600D01*
G04 #@! TO.N,/A4*
X145480000Y42010000D02*
X145720000Y41770000D01*
D43*
X149712493Y53483100D02*
X147898972Y53483100D01*
X147685794Y53269922D02*
X146673470Y53269922D01*
D41*
X145480000Y48472503D02*
X145480000Y42010000D01*
D43*
X149950148Y53720755D02*
X149712493Y53483100D01*
X149950148Y54696600D02*
X149950148Y53720755D01*
D41*
X144813148Y51409600D02*
X144350000Y50946452D01*
D43*
X147898972Y53483100D02*
X147685794Y53269922D01*
D41*
X141756648Y36919922D02*
X140781648Y36919922D01*
X144350000Y49602503D02*
X145480000Y48472503D01*
D43*
X146673470Y53269922D02*
X144813148Y51409600D01*
D41*
X144350000Y50946452D02*
X144350000Y49602503D01*
D40*
G04 #@! TO.N,GNDADC*
X176760726Y43020000D02*
X178786648Y45045922D01*
X175786648Y71045922D02*
X175786648Y62064482D01*
X175723766Y62001600D02*
X174656648Y60934482D01*
D42*
X129641600Y63015507D02*
X129800000Y62857107D01*
D41*
X147071752Y56489922D02*
X147181752Y56379922D01*
X145371649Y55229921D02*
X145371650Y55229921D01*
D42*
X130078400Y65018400D02*
X129641600Y64581600D01*
X135699980Y67718902D02*
X139207078Y71226000D01*
D43*
X148650148Y55996600D02*
X148003326Y55996600D01*
D41*
X145371648Y55549921D02*
X145371648Y55229922D01*
D40*
X142153308Y55381600D02*
X145219971Y55381600D01*
D41*
X145371648Y55229922D02*
X145371649Y55229921D01*
D40*
X165360000Y42660000D02*
X165649998Y42660000D01*
X147155178Y35804822D02*
X159771124Y35804822D01*
D41*
X146630000Y56489922D02*
X147071752Y56489922D01*
D40*
X134784908Y62750000D02*
X142153308Y55381600D01*
D42*
X132256648Y64150682D02*
X132256648Y64850682D01*
D40*
X129248400Y61938400D02*
X129248400Y60988400D01*
X127790000Y59530000D02*
X127790000Y49000000D01*
D42*
X127790000Y48030000D02*
X127790000Y49000000D01*
X129641600Y64581600D02*
X129641600Y63015507D01*
X134906648Y65090682D02*
X134906648Y67718902D01*
D40*
X175786648Y62064482D02*
X174656648Y60934482D01*
X178786648Y45045922D02*
X180550000Y46809274D01*
D42*
X128800000Y47020000D02*
X127790000Y48030000D01*
X134906648Y67718902D02*
X135699980Y67718902D01*
D40*
X167750000Y43020000D02*
X176760726Y43020000D01*
D42*
X132256648Y64150682D02*
X133966648Y64150682D01*
D40*
X164700000Y42000000D02*
X165360000Y42660000D01*
D42*
X137184570Y47020000D02*
X128800000Y47020000D01*
D40*
X180550000Y46809274D02*
X180550000Y60114908D01*
D42*
X139158648Y45045922D02*
X137184570Y47020000D01*
D40*
X133040000Y62750000D02*
X134784908Y62750000D01*
D42*
X129800000Y62490000D02*
X129248400Y61938400D01*
X132256648Y64850682D02*
X132088930Y65018400D01*
D40*
X129248400Y60988400D02*
X127790000Y59530000D01*
D41*
X146311649Y56489922D02*
X145371648Y55549921D01*
D42*
X139207078Y71226000D02*
X142090000Y71226000D01*
D40*
X138576648Y74739352D02*
X138576648Y76524922D01*
X145219971Y55381600D02*
X145371650Y55229921D01*
D42*
X129800000Y62857107D02*
X129800000Y62490000D01*
X132088930Y65018400D02*
X130078400Y65018400D01*
D40*
X142090000Y71226000D02*
X138576648Y74739352D01*
X164700000Y40733698D02*
X164700000Y42000000D01*
D43*
X147569074Y55992600D02*
X148296648Y55992600D01*
D41*
X146630000Y56489922D02*
X146311649Y56489922D01*
D40*
X178663308Y62001600D02*
X175723766Y62001600D01*
D43*
X147181752Y56379922D02*
X147569074Y55992600D01*
D40*
X180550000Y60114908D02*
X178663308Y62001600D01*
X139158648Y43801352D02*
X147155178Y35804822D01*
X159771124Y35804822D02*
X164700000Y40733698D01*
D42*
X134586648Y76814922D02*
X138286648Y76814922D01*
D40*
X133040000Y63367330D02*
X132256648Y64150682D01*
X133040000Y62750000D02*
X133040000Y63367330D01*
X167071522Y42341522D02*
X167750000Y43020000D01*
D42*
X133966648Y64150682D02*
X134906648Y65090682D01*
D40*
X139158648Y44428422D02*
X139158648Y43801352D01*
D41*
X172506648Y60994482D02*
X174596648Y60994482D01*
G04 #@! TO.N,/A5*
X142806648Y38889922D02*
X142806648Y38243352D01*
X142806648Y38243352D02*
X146216648Y34833352D01*
X144090000Y51123274D02*
X144090000Y44030000D01*
X147774708Y53783100D02*
X147561530Y53569922D01*
X149588229Y53783100D02*
X147774708Y53783100D01*
X146706648Y27010422D02*
X146706648Y26359922D01*
X149950148Y55346600D02*
X149613648Y55010100D01*
X149613648Y55010100D02*
X149613648Y53808519D01*
X144090000Y44030000D02*
X144980000Y43140000D01*
X147561530Y53569922D02*
X146536648Y53569922D01*
X146216648Y34833352D02*
X146216648Y33449922D01*
X144980000Y43140000D02*
X144980000Y41810000D01*
X146536648Y53569922D02*
X144090000Y51123274D01*
X149613648Y53808519D02*
X149588229Y53783100D01*
D42*
G04 #@! TO.N,Net-(Bank_But1-B)*
X174308648Y94047922D02*
X174806648Y93549922D01*
X174308648Y95749922D02*
X174308648Y94047922D01*
D40*
G04 #@! TO.N,+12V*
X165616648Y2119922D02*
X165616648Y7779922D01*
X165086648Y959922D02*
X165086648Y1589922D01*
X171256648Y54799922D02*
X171256648Y55579482D01*
X161671648Y17889922D02*
X161351648Y17569922D01*
X149941648Y24599922D02*
X149281648Y25259922D01*
X149621648Y4114922D02*
X149566648Y4059922D01*
X182719248Y39151090D02*
X182719248Y29570442D01*
X156706648Y20259922D02*
X157741648Y20259922D01*
X159466648Y20154922D02*
X161351648Y18269922D01*
X150321648Y4114922D02*
X149621648Y4114922D01*
X150746648Y3689922D02*
X150321648Y4114922D01*
X149281648Y25259922D02*
X147196648Y25259922D01*
X157846648Y20154922D02*
X159466648Y20154922D01*
X179802780Y26653974D02*
X179802780Y24476290D01*
X180400000Y24740000D02*
X180400000Y24175774D01*
X179930416Y41939922D02*
X182719248Y39151090D01*
X174784148Y41939922D02*
X179930416Y41939922D01*
X132976648Y50659922D02*
X132976648Y49699767D01*
X149941648Y24599922D02*
X149941648Y25489922D01*
X163966648Y3284922D02*
X165236648Y2014922D01*
X132206648Y35464922D02*
X133058648Y35464922D01*
X177061648Y14724672D02*
X176676648Y14339672D01*
X174784148Y41282422D02*
X174981648Y41084922D01*
X128543148Y30899577D02*
X128543148Y28773422D01*
X179802780Y24476290D02*
X180251648Y24027422D01*
X182719248Y29570442D02*
X179802780Y26653974D01*
X134484064Y41112120D02*
X134509257Y41137313D01*
X177061648Y17244922D02*
X175196648Y19109922D01*
X174784148Y41939922D02*
X174784148Y41282422D01*
X139156648Y25159922D02*
X138086648Y25159922D01*
X131608493Y33964922D02*
X128543148Y30899577D01*
X128420000Y66880000D02*
X128420000Y67153651D01*
X135186648Y50409922D02*
X135186648Y49285077D01*
X133106493Y49569922D02*
X134346648Y49569922D01*
X174500000Y54482531D02*
X175394039Y54482531D01*
X134366648Y25329922D02*
X133106648Y26589922D01*
X138691648Y82324922D02*
X138691648Y80949922D01*
X132256648Y65850682D02*
X133825888Y65850682D01*
X162196648Y17889922D02*
X161671648Y17889922D01*
X171086648Y55749482D02*
X171086648Y56674922D01*
X175394039Y54482531D02*
X176071648Y53804922D01*
X174981648Y41084922D02*
X174696648Y40799922D01*
X151896648Y3689922D02*
X150746648Y3689922D01*
X137916648Y25329922D02*
X134366648Y25329922D01*
X138691648Y80949922D02*
X138926648Y80714922D01*
X174696648Y40799922D02*
X174696648Y39584922D01*
X131686648Y28009922D02*
X133106648Y26589922D01*
X177061648Y15789672D02*
X177061648Y17244922D01*
X128420000Y67153651D02*
X128010000Y67563651D01*
X176071648Y53804922D02*
X176986648Y52889922D01*
X149941648Y25489922D02*
X149336648Y26094922D01*
X128420000Y66880000D02*
X128420000Y65160760D01*
X132206648Y35464922D02*
X132206648Y34409006D01*
X133058648Y35464922D02*
X134484064Y36890338D01*
X132206648Y34409006D02*
X131762564Y33964922D01*
X161351648Y18269922D02*
X161351648Y17569922D01*
X135456648Y78989922D02*
X138691648Y82224922D01*
X129306648Y28009922D02*
X131686648Y28009922D01*
X176986648Y52889922D02*
X176986648Y52204922D01*
X133906648Y67059922D02*
X133906648Y65769922D01*
X134484064Y36890338D02*
X134484064Y41112120D01*
X128543148Y28773422D02*
X129306648Y28009922D01*
X165236648Y1739922D02*
X165616648Y2119922D01*
X165236648Y2014922D02*
X165236648Y1739922D01*
X134346648Y49569922D02*
X135186648Y50409922D01*
X177061648Y15789672D02*
X177061648Y14724672D01*
X171086648Y56674922D02*
X171656648Y57244922D01*
D42*
G04 #@! TO.N,-12VA*
X167621648Y7204922D02*
X166096648Y8729922D01*
X167621648Y6739922D02*
X167621648Y7204922D01*
X149546648Y16519922D02*
X149546648Y18879922D01*
X167186648Y35159922D02*
X167186648Y36154922D01*
D40*
X144816648Y14149922D02*
X149546648Y18879922D01*
D41*
X175098148Y55110982D02*
X175681648Y55694482D01*
D42*
X157636648Y424922D02*
X157636648Y6759922D01*
D41*
X126540000Y84080000D02*
X125890000Y83430000D01*
D42*
X171121898Y10844672D02*
X170996648Y10969922D01*
X154011648Y28044922D02*
X153886648Y28169922D01*
D41*
X125890000Y43980000D02*
X126900000Y42970000D01*
X173480000Y55110982D02*
X173056648Y54687630D01*
D40*
X143926648Y14149922D02*
X144816648Y14149922D01*
D41*
X173480000Y55110982D02*
X175098148Y55110982D01*
X175681648Y55694482D02*
X175681648Y58171922D01*
D42*
X153501648Y24599922D02*
X153501648Y25614922D01*
X172301648Y10844672D02*
X171121898Y10844672D01*
X170390000Y47970000D02*
X170390000Y48685000D01*
D41*
X171086648Y49381648D02*
X170455000Y48750000D01*
X125890000Y83430000D02*
X125890000Y43980000D01*
X173056648Y54687630D02*
X173056648Y51249922D01*
X175681648Y58171922D02*
X176704648Y59194922D01*
D43*
X154676648Y23424922D02*
X153501648Y24599922D01*
D41*
X126900000Y42970000D02*
X133669486Y42970000D01*
D42*
X133951648Y78764922D02*
X133026648Y78764922D01*
D41*
X133669486Y42970000D02*
X135000000Y41639486D01*
D42*
X149546648Y20644922D02*
X149546648Y18879922D01*
D41*
X134971648Y82264922D02*
X134971648Y82541648D01*
D42*
X156706648Y9359922D02*
X149546648Y16519922D01*
X155236648Y28044922D02*
X154011648Y28044922D01*
D41*
X132260000Y84080000D02*
X126540000Y84080000D01*
X167201648Y36169922D02*
X168666648Y37634922D01*
X134971648Y82541648D02*
X135320000Y82890000D01*
X135000000Y41639486D02*
X135000000Y39927486D01*
X171086648Y50254922D02*
X171086648Y49381648D01*
X136012564Y38914922D02*
X137512564Y37414922D01*
X135000000Y39927486D02*
X136012564Y38914922D01*
D42*
X154111648Y-1945078D02*
X153846648Y-2210078D01*
X167566648Y5739922D02*
X167566648Y6684922D01*
D41*
X173056648Y51249922D02*
X172061648Y50254922D01*
D40*
X148996648Y18879922D02*
X145136648Y22739922D01*
D42*
X169866648Y5234922D02*
X168771648Y5234922D01*
X168771648Y5234922D02*
X168706648Y5169922D01*
D41*
X135866648Y38769006D02*
X135866648Y32009922D01*
D42*
X134971648Y82264922D02*
X134971648Y79784922D01*
X153501648Y25614922D02*
X153686648Y25799922D01*
D41*
X172061648Y50254922D02*
X171086648Y50254922D01*
D43*
X157816648Y23424922D02*
X154676648Y23424922D01*
D42*
X153501648Y24599922D02*
X149546648Y20644922D01*
X134971648Y79784922D02*
X133951648Y78764922D01*
X172301648Y10864672D02*
X170776648Y12389672D01*
X155266648Y-1945078D02*
X154111648Y-1945078D01*
X155266648Y-1945078D02*
X157636648Y424922D01*
X157816648Y23424922D02*
X159356648Y23424922D01*
D41*
X176704648Y59194922D02*
X177556648Y59194922D01*
X135866648Y32009922D02*
X145136648Y22739922D01*
G04 #@! TO.N,/A2*
X166110050Y51145050D02*
X166110050Y41340050D01*
X143650000Y51904067D02*
X143650000Y42430000D01*
X148963648Y55010100D02*
X148963648Y54440100D01*
X143650000Y42430000D02*
X145980000Y40100000D01*
X167935000Y52970000D02*
X166110050Y51145050D01*
X149300148Y55346600D02*
X148963648Y55010100D01*
X146129033Y54383100D02*
X143650000Y51904067D01*
X166110050Y41340050D02*
X160006522Y35236522D01*
X148906648Y54383100D02*
X146129033Y54383100D01*
X160006522Y35236522D02*
X146514108Y35236522D01*
X148963648Y54440100D02*
X148906648Y54383100D01*
X146514108Y35236522D02*
X145595316Y36155314D01*
G04 #@! TO.N,/A7*
X148980000Y70710000D02*
X163208974Y70710000D01*
D43*
X148982648Y55679100D02*
X147360900Y55679100D01*
D41*
X168710000Y68460000D02*
X174470000Y62700000D01*
X163208974Y70710000D02*
X165458974Y68460000D01*
X144920000Y66650000D02*
X148980000Y70710000D01*
X178920000Y61370000D02*
X178692018Y61597982D01*
X179960000Y56519482D02*
X179960000Y59800000D01*
D43*
X149300148Y55996600D02*
X148982648Y55679100D01*
D41*
X144920000Y64050000D02*
X144920000Y66650000D01*
X179085000Y55644482D02*
X179960000Y56519482D01*
D43*
X147360900Y55679100D02*
X147160000Y55880000D01*
D41*
X179960000Y59800000D02*
X179960000Y60330000D01*
X178692018Y61597982D02*
X178007982Y61597982D01*
X179960000Y60330000D02*
X178920000Y61370000D01*
X165458974Y68460000D02*
X168710000Y68460000D01*
X178007982Y61597982D02*
X177910000Y61500000D01*
G04 #@! TO.N,/A6*
X148974993Y60856965D02*
X148948858Y60883100D01*
X126283148Y99436422D02*
X127206648Y100359922D01*
X151060000Y84150000D02*
X151260000Y84150000D01*
X149669346Y56295598D02*
X149669346Y56277402D01*
X126283148Y97226422D02*
X126283148Y99436422D01*
X141090000Y92060000D02*
X135499570Y92060000D01*
X147050000Y88160000D02*
X151060000Y84150000D01*
X147443648Y60883100D02*
X147270148Y61056600D01*
X144990000Y88160000D02*
X147050000Y88160000D01*
X141090000Y92060000D02*
X144990000Y88160000D01*
X149669346Y56277402D02*
X149950148Y55996600D01*
X132549648Y95009922D02*
X128499648Y95009922D01*
X128499648Y95009922D02*
X126283148Y97226422D01*
X148948858Y60883100D02*
X147443648Y60883100D01*
X135499570Y92060000D02*
X132549648Y95009922D01*
D42*
X127206648Y100359922D02*
X128846648Y100359922D01*
D41*
G04 #@! TO.N,/D6*
X157729595Y53050583D02*
X157106648Y53673530D01*
X156565417Y54041331D02*
X156565417Y53972357D01*
D42*
X167459922Y98499922D02*
X166227800Y97267800D01*
D41*
X164366648Y52659922D02*
X161916648Y52659922D01*
D42*
X167526648Y98499922D02*
X167459922Y98499922D01*
X167526648Y100419922D02*
X167526648Y98499922D01*
D41*
X161916648Y52659922D02*
X161760748Y52815822D01*
X158441996Y52359100D02*
X157750513Y53050583D01*
X155910148Y54696600D02*
X156565417Y54041331D01*
X156565417Y53972357D02*
X156864244Y53673530D01*
X159470748Y52815822D02*
X159014026Y52359100D01*
X157750513Y53050583D02*
X157729595Y53050583D01*
X165256648Y53549922D02*
X164366648Y52659922D01*
X161760748Y52815822D02*
X159470748Y52815822D01*
X159014026Y52359100D02*
X158441996Y52359100D01*
D42*
X166227800Y97267800D02*
X166227800Y96296803D01*
D41*
X155800148Y54696600D02*
X155910148Y54696600D01*
X156864244Y53673530D02*
X157106648Y53673530D01*
G04 #@! TO.N,/D8*
X153631026Y37800000D02*
X156920000Y37800000D01*
X141026648Y44149922D02*
X141026648Y43262811D01*
X158080148Y39651112D02*
X157634612Y40096648D01*
X158728011Y53049600D02*
X158728011Y53348737D01*
X141080000Y47540000D02*
X141080000Y55380000D01*
X156920000Y37800000D02*
X158080148Y38960148D01*
X146316648Y92026648D02*
X146130000Y91840000D01*
X141080000Y55380000D02*
X141020000Y55440000D01*
X158080148Y38960148D02*
X158080148Y39651112D01*
X158728011Y53348737D02*
X157750148Y54326600D01*
X152233948Y36402922D02*
X153631026Y37800000D01*
X157750148Y54326600D02*
X157750148Y54696600D01*
X141026648Y43262811D02*
X147886538Y36402922D01*
X146316648Y93179922D02*
X146316648Y92026648D01*
X147886538Y36402922D02*
X152233948Y36402922D01*
X157634612Y40096648D02*
X157634612Y41705009D01*
D43*
G04 #@! TO.N,/A9*
X145500000Y53240000D02*
X145770000Y53240000D01*
D41*
X139870000Y83680000D02*
X144693000Y78857000D01*
X133606648Y82244922D02*
X133606648Y83369922D01*
X133606648Y83369922D02*
X133916726Y83680000D01*
D43*
X149030912Y54083100D02*
X149300148Y54352336D01*
X145770000Y53240000D02*
X146381677Y53851677D01*
D41*
X144270000Y64610000D02*
X144270000Y63255488D01*
X144270000Y63255488D02*
X144702493Y62822995D01*
X144702493Y62822995D02*
X144702493Y62086180D01*
X133916726Y83680000D02*
X139870000Y83680000D01*
D43*
X146381677Y53851677D02*
X147519021Y53851677D01*
D41*
X144693000Y65033000D02*
X144270000Y64610000D01*
D43*
X149300148Y54352336D02*
X149300148Y54696600D01*
D41*
X144693000Y78857000D02*
X144693000Y65033000D01*
D43*
X147519021Y53851677D02*
X147750444Y54083100D01*
X147750444Y54083100D02*
X149030912Y54083100D01*
D42*
G04 #@! TO.N,Net-(Bank_But1-POLE-A)*
X168938648Y102119922D02*
X170158648Y100899922D01*
X167526648Y102119922D02*
X168938648Y102119922D01*
D41*
G04 #@! TO.N,Net-(U1B--)*
X171656648Y58544922D02*
X170596648Y58544922D01*
X170596648Y58544922D02*
X170031648Y57979922D01*
X171656648Y57894922D02*
X171656648Y58544922D01*
G04 #@! TO.N,/D15*
X163305870Y52403500D02*
X164940000Y52403500D01*
X152720000Y15230000D02*
X152720000Y19830000D01*
X157968363Y8791637D02*
X157968363Y9981637D01*
X156305148Y7128422D02*
X156305148Y3098422D01*
X152720000Y19830000D02*
X155340000Y22450000D01*
X155340000Y22450000D02*
X155620000Y22450000D01*
X158054648Y52032100D02*
X162934470Y52032100D01*
X162450000Y34670000D02*
X162230000Y34890000D01*
X152720000Y15230000D02*
X157968363Y9981637D01*
X157968363Y8791637D02*
X156305148Y7128422D01*
X155800148Y57946600D02*
X155480104Y58266644D01*
X155480104Y58266644D02*
X155230004Y58266644D01*
X157820148Y52266600D02*
X158054648Y52032100D01*
X162450000Y33020000D02*
X162450000Y34670000D01*
X162934470Y52032100D02*
X163305870Y52403500D01*
X156305148Y3098422D02*
X155636648Y2429922D01*
G04 #@! TO.N,/D13*
X161920000Y34580000D02*
X161630000Y34870000D01*
D43*
X155492714Y57619241D02*
X155800148Y57311807D01*
D41*
X161920000Y33020000D02*
X161920000Y34580000D01*
D40*
X133156648Y19519922D02*
X133916648Y18759922D01*
D41*
X134816648Y18829922D02*
X133986648Y18829922D01*
D40*
X132334868Y19519922D02*
X133156648Y19519922D01*
D42*
G04 #@! TO.N,Net-(Bank_But1-G)*
X171558648Y100599922D02*
X171558648Y94111922D01*
X172508648Y101549922D02*
X171558648Y100599922D01*
X171558648Y94111922D02*
X170906648Y93459922D01*
G04 #@! TO.N,Net-(Bank_But1-R)*
X172646648Y93479922D02*
X172646648Y95611922D01*
D41*
G04 #@! TO.N,Net-(POT_PITCH1-Center)*
X171893500Y62336500D02*
X174620567Y62336500D01*
X171170000Y61357834D02*
X171170000Y61860000D01*
X174620567Y62336500D02*
X175060000Y62775933D01*
X175060000Y62775933D02*
X175060000Y63240000D01*
X170736424Y60994482D02*
X169019944Y59278002D01*
X175060000Y63240000D02*
X170786648Y67513352D01*
X170786648Y67513352D02*
X170786648Y71045922D01*
X171170000Y61860000D02*
X171770000Y62460000D01*
X171770000Y62460000D02*
X171893500Y62336500D01*
G04 #@! TO.N,VREF+*
X134930000Y62230000D02*
X134120000Y62230000D01*
D40*
X130485990Y65930000D02*
X128299240Y63743250D01*
X176595478Y72544522D02*
X177320000Y71820000D01*
X177320000Y64233698D02*
X181183201Y60370497D01*
D41*
X134120000Y62230000D02*
X133226500Y61336500D01*
D40*
X127400000Y60490000D02*
X127400000Y46804570D01*
X128299240Y63743250D02*
X128299240Y63140000D01*
D41*
X132673500Y61336500D02*
X131570000Y62440000D01*
D40*
X130880000Y65930000D02*
X130485990Y65930000D01*
X131010000Y70146000D02*
X131010000Y66060000D01*
X165510000Y41114908D02*
X165510000Y42070000D01*
D41*
X133226500Y61336500D02*
X132673500Y61336500D01*
X144240000Y55050000D02*
X142110000Y55050000D01*
D40*
X128810000Y63140000D02*
X129300000Y62650000D01*
X168450000Y41650000D02*
X166600000Y41650000D01*
D41*
X142110000Y55050000D02*
X134930000Y62230000D01*
D40*
X169516800Y42716800D02*
X168450000Y41650000D01*
X140907668Y41132332D02*
X141327668Y41132332D01*
X127400000Y46804570D02*
X129158648Y45045922D01*
X181183201Y60370497D02*
X181183201Y45053201D01*
X178846800Y42716800D02*
X169516800Y42716800D01*
X129158648Y45045922D02*
X130657248Y46544522D01*
D41*
X147023400Y55346600D02*
X146460000Y55910000D01*
D40*
X181183201Y45053201D02*
X178846800Y42716800D01*
X141327668Y41132332D02*
X146958378Y35501622D01*
X159896714Y35501622D02*
X165510000Y41114908D01*
X165786648Y71045922D02*
X167285248Y72544522D01*
X166600000Y41650000D02*
X166600000Y42859274D01*
X167285248Y72544522D02*
X176595478Y72544522D01*
X177320000Y71820000D02*
X177320000Y64233698D01*
X128250000Y61340000D02*
X127400000Y60490000D01*
X131010000Y66060000D02*
X130880000Y65930000D01*
X166600000Y42859274D02*
X168786648Y45045922D01*
X146958378Y35501622D02*
X159896714Y35501622D01*
X135495478Y46544522D02*
X140907668Y41132332D01*
D41*
X144410000Y54880000D02*
X144240000Y55050000D01*
D40*
X130657248Y46544522D02*
X135495478Y46544522D01*
X169860000Y40240000D02*
X168450000Y41650000D01*
D41*
X148650148Y55346600D02*
X147023400Y55346600D01*
X131570000Y62440000D02*
X130290000Y62440000D01*
D40*
X132090000Y71226000D02*
X131010000Y70146000D01*
X128299240Y63140000D02*
X128810000Y63140000D01*
X169846648Y35869922D02*
X169846648Y40226648D01*
X128299240Y63140000D02*
X128299240Y61389240D01*
X169846648Y40226648D02*
X169860000Y40240000D01*
D41*
G04 #@! TO.N,/D11*
X158976648Y77269922D02*
X160219648Y78512922D01*
X159396648Y55730100D02*
X158480148Y56646600D01*
X160219648Y82715370D02*
X160316648Y82812370D01*
X158067957Y67022043D02*
X158040000Y67050000D01*
X160316648Y82812370D02*
X160316648Y95889922D01*
X158480148Y56646600D02*
X157750148Y56646600D01*
X159396648Y55196033D02*
X159396648Y55730100D01*
X160316648Y95889922D02*
X161446648Y97019922D01*
X160219648Y78512922D02*
X160219648Y82715370D01*
X160436081Y54156600D02*
X159396648Y55196033D01*
X160436081Y54156600D02*
X161523326Y54156600D01*
X159838769Y67022043D02*
X158067957Y67022043D01*
X161523326Y54156600D02*
X163726648Y56359922D01*
G04 #@! TO.N,/D10*
X156862417Y54284331D02*
X156450148Y54696600D01*
X162220326Y53673600D02*
X164346648Y55799922D01*
X158878578Y52686100D02*
X158577444Y52686100D01*
X158364511Y53032237D02*
X157112417Y54284331D01*
X157112417Y54284331D02*
X156862417Y54284331D01*
X130887553Y97363422D02*
X143866500Y97363422D01*
X143866500Y97363422D02*
X145470000Y95759922D01*
X159866078Y53673600D02*
X162220326Y53673600D01*
X127710148Y97326422D02*
X130850553Y97326422D01*
X130850553Y97326422D02*
X130887553Y97363422D01*
X159866078Y53673600D02*
X158878578Y52686100D01*
X158364511Y52899033D02*
X158364511Y53032237D01*
X127046648Y97989922D02*
X127710148Y97326422D01*
X158577444Y52686100D02*
X158364511Y52899033D01*
G04 #@! TO.N,/D14*
X147253148Y95843422D02*
X147253148Y89693422D01*
X147253148Y89693422D02*
X155326570Y81620000D01*
X160616648Y77859922D02*
X160586648Y77859922D01*
X158862341Y58658793D02*
X158375533Y59145601D01*
X158375533Y59145601D02*
X157851147Y59145601D01*
X157851147Y59145601D02*
X157750148Y59246600D01*
X160586648Y77859922D02*
X159814039Y77087313D01*
X146446648Y96649922D02*
X147253148Y95843422D01*
X155326570Y81620000D02*
X156750000Y81620000D01*
G04 #@! TO.N,/D12*
X162766648Y97226922D02*
X157853648Y102139922D01*
X161550000Y64556570D02*
X161550000Y64050000D01*
X160943648Y78389922D02*
X161079648Y78525922D01*
D42*
X146486648Y102919922D02*
X146486648Y101319922D01*
D41*
X162766648Y85262370D02*
X162766648Y97226922D01*
X157750148Y60546600D02*
X158150148Y60546600D01*
X161079648Y83575370D02*
X162766648Y85262370D01*
X161079648Y78525922D02*
X161079648Y83575370D01*
X157853648Y102139922D02*
X147266648Y102139922D01*
X158150148Y60546600D02*
X158320148Y60376600D01*
X161106648Y64999922D02*
X161550000Y64556570D01*
X147266648Y102139922D02*
X146486648Y102919922D01*
G04 #@! TO.N,Net-(POT_SAMP1-Center)*
X132886648Y75317922D02*
X137158648Y71045922D01*
X132886648Y76814922D02*
X132886648Y75317922D01*
D42*
X131406648Y78294922D02*
X132886648Y76814922D01*
D41*
G04 #@! TO.N,/D0*
X170906648Y91596648D02*
X170210000Y90900000D01*
X170906648Y91759922D02*
X170906648Y91596648D01*
X156450148Y63796600D02*
X158845804Y66192256D01*
X158845804Y66192256D02*
X162606500Y66192256D01*
G04 #@! TO.N,/D1*
X155040000Y77950000D02*
X158310000Y81220000D01*
X151470000Y73103000D02*
X151470000Y73180000D01*
X149300148Y62496600D02*
X148986648Y62810100D01*
X151470000Y73180000D02*
X153750000Y75460000D01*
X158310000Y81220000D02*
X158310000Y84700000D01*
X172646648Y91779922D02*
X171656570Y92770000D01*
X171656570Y92770000D02*
X168600000Y92770000D01*
X148471160Y62810100D02*
X147310000Y63971260D01*
X148986648Y62810100D02*
X148471160Y62810100D01*
X161186500Y87526500D02*
X162110000Y88450000D01*
X161186500Y86510000D02*
X161186500Y87526500D01*
X147310000Y63971260D02*
X147310000Y65160000D01*
X168600000Y92770000D02*
X167320000Y91490000D01*
G04 #@! TO.N,/D3*
X143376648Y91439922D02*
X144090078Y91439922D01*
X144090078Y91439922D02*
X145927752Y89602248D01*
X157413648Y62183100D02*
X157100148Y62496600D01*
X146501420Y89602248D02*
X154606648Y81497020D01*
X154606648Y81497020D02*
X154606648Y81329922D01*
X141326648Y93489922D02*
X143376648Y91439922D01*
X137096648Y93489922D02*
X141326648Y93489922D01*
X158129826Y62183100D02*
X157413648Y62183100D01*
X145927752Y89602248D02*
X146501420Y89602248D01*
X158226648Y62279922D02*
X158129826Y62183100D01*
G04 #@! TO.N,/D2*
X159051468Y59997921D02*
X159030147Y59976600D01*
X164896570Y57560000D02*
X164336648Y58119922D01*
X135706570Y1869922D02*
X132946648Y1869922D01*
D42*
X132186648Y1109922D02*
X132946648Y1869922D01*
D41*
X143186648Y9350000D02*
X135706570Y1869922D01*
X159030147Y59976600D02*
X158121160Y59976600D01*
D42*
X130121648Y3429922D02*
X131324868Y2226702D01*
X131324868Y2226702D02*
X131324868Y1109922D01*
D41*
X158121160Y59976600D02*
X158041160Y59896600D01*
X158041160Y59896600D02*
X157750148Y59896600D01*
X165710000Y57560000D02*
X164896570Y57560000D01*
X164336648Y58119922D02*
X163516648Y58119922D01*
D42*
X131324868Y1109922D02*
X132186648Y1109922D01*
D41*
G04 #@! TO.N,/D5*
X161240148Y63090148D02*
X162894998Y64744998D01*
X176506648Y93106648D02*
X175840000Y92440000D01*
X162894998Y64744998D02*
X163794998Y64744998D01*
X157423148Y60873600D02*
X161240148Y60873600D01*
X157100148Y61196600D02*
X157423148Y60873600D01*
X161240148Y60873600D02*
X161240148Y63090148D01*
X176506648Y93549922D02*
X176506648Y93106648D01*
G04 #@! TO.N,/D19*
X156433570Y63146600D02*
X156143699Y63436471D01*
D40*
G04 #@! TO.N,/D18*
X150256399Y84549922D02*
X152356648Y82449673D01*
X148836648Y84549922D02*
X150256399Y84549922D01*
D41*
X158112622Y63460100D02*
X159322444Y64669922D01*
X157413648Y63460100D02*
X158112622Y63460100D01*
X159322444Y64669922D02*
X160296648Y64669922D01*
X157100148Y63146600D02*
X157413648Y63460100D01*
G04 #@! TO.N,/D7*
X157164104Y40246130D02*
X157770148Y39640086D01*
X147980564Y36629922D02*
X141676648Y42933838D01*
X157770148Y39049355D02*
X156750793Y38030000D01*
X128394900Y43235100D02*
X126720000Y44910000D01*
X153540000Y38030000D02*
X152139922Y36629922D01*
X126710000Y68520000D02*
X126710000Y82620000D01*
X136790000Y41680000D02*
X135234900Y43235100D01*
X156778407Y55003681D02*
X156793067Y55003681D01*
X156793067Y55003681D02*
X157100148Y54696600D01*
X138770000Y41680000D02*
X136790000Y41680000D01*
X157164104Y41332685D02*
X157164104Y40246130D01*
X126720000Y44910000D02*
X126720000Y68510000D01*
X157770148Y39640086D02*
X157770148Y39049355D01*
X141676648Y42933838D02*
X141676648Y43559922D01*
X135234900Y43235100D02*
X128394900Y43235100D01*
X152139922Y36629922D02*
X147980564Y36629922D01*
X126710000Y84730000D02*
X128546648Y86566648D01*
X126720000Y68510000D02*
X126710000Y68520000D01*
X156750793Y38030000D02*
X153540000Y38030000D01*
X128546648Y86566648D02*
X128546648Y93459922D01*
D40*
G04 #@! TO.N,/D17*
X149107077Y76899922D02*
X151256828Y74750171D01*
D41*
X157085675Y60546600D02*
X156787911Y60248837D01*
D40*
G04 #@! TO.N,/D16*
X150256728Y78029842D02*
X150256728Y76598936D01*
D41*
X158976648Y74149922D02*
X157706648Y74149922D01*
D40*
X148836648Y79449922D02*
X150256728Y78029842D01*
X150256728Y76598936D02*
X151005673Y75849991D01*
D41*
X156006579Y75849991D02*
X152356648Y75849991D01*
X157706648Y74149922D02*
X156006579Y75849991D01*
D40*
X151005673Y75849991D02*
X152356648Y75849991D01*
D41*
X157100148Y59896600D02*
X157430148Y60226600D01*
G04 #@! TO.N,/D9*
X155800148Y64563422D02*
X155836648Y64599922D01*
X155800148Y63796600D02*
X155800148Y64563422D01*
G04 #@! TO.N,/A0*
X150600148Y56011291D02*
X150275255Y56336184D01*
D43*
X155736648Y23989922D02*
X156451648Y23989922D01*
X145916648Y45379922D02*
X146810000Y44486570D01*
X153513045Y26609922D02*
X154361648Y25761319D01*
X154361648Y25761319D02*
X154361648Y25364922D01*
X146810000Y44486570D02*
X146810000Y39630000D01*
X151780000Y26609922D02*
X153513045Y26609922D01*
X146810000Y39630000D02*
X146680000Y39500000D01*
X156451648Y23989922D02*
X157031648Y24569922D01*
X154361648Y25364922D02*
X155736648Y23989922D01*
D41*
G04 #@! TO.N,/A1*
X168390000Y60410000D02*
X168390000Y58570000D01*
D43*
X146682904Y52836000D02*
X146816826Y52969922D01*
D41*
X168980078Y57979922D02*
X169061648Y57979922D01*
X162680000Y70270000D02*
X165010000Y67940000D01*
X171950000Y63970000D02*
X168390000Y60410000D01*
D43*
X150286648Y53553100D02*
X150286648Y55051551D01*
X146816826Y52969922D02*
X147810058Y52969922D01*
X147810058Y52969922D02*
X148023236Y53183100D01*
D41*
X171950000Y64710000D02*
X171950000Y63970000D01*
X145440000Y63940000D02*
X145440000Y66510000D01*
X168720000Y67940000D02*
X171950000Y64710000D01*
D43*
X148023236Y53183100D02*
X149916648Y53183100D01*
X149916648Y53183100D02*
X150286648Y53553100D01*
X146682904Y52643666D02*
X146682904Y52836000D01*
D41*
X149200000Y70270000D02*
X162680000Y70270000D01*
X165010000Y67940000D02*
X168720000Y67940000D01*
D43*
X150286648Y55051551D02*
X150581697Y55346600D01*
D41*
X144840000Y63440000D02*
X144940000Y63440000D01*
X168390000Y58570000D02*
X168980078Y57979922D01*
X145440000Y66510000D02*
X149200000Y70270000D01*
X144940000Y63440000D02*
X145440000Y63940000D01*
G04 #@! TO.N,/A3*
X146902700Y56980000D02*
X144490000Y56980000D01*
X143930000Y64740000D02*
X143930000Y63130000D01*
X143930000Y63130000D02*
X144140000Y62920000D01*
X149300148Y56646600D02*
X148973148Y56319600D01*
X147563100Y56319600D02*
X146902700Y56980000D01*
X144340000Y77271570D02*
X144340000Y65150000D01*
X144340000Y65150000D02*
X143930000Y64740000D01*
X149013148Y56359600D02*
X149300148Y56646600D01*
X141451648Y80159922D02*
X144340000Y77271570D01*
X148973148Y56319600D02*
X147563100Y56319600D01*
X144140000Y62920000D02*
X144140000Y62410000D01*
X149013148Y56342084D02*
X149013148Y56359600D01*
D43*
G04 #@! TO.N,/A8*
X129466648Y37039922D02*
X129466648Y36340838D01*
X144860000Y50250000D02*
X145996726Y50250000D01*
D41*
X149950148Y56646600D02*
X149613648Y56983100D01*
X148243648Y56983100D02*
X148117148Y57109600D01*
D43*
X145996726Y50250000D02*
X146726648Y50979922D01*
D41*
X149613648Y56983100D02*
X148243648Y56983100D01*
D40*
G04 #@! TO.N,Net-(J2-SIG)*
X160300000Y34750000D02*
X159456648Y33906648D01*
X159456648Y33906648D02*
X159456648Y33469922D01*
D41*
G04 #@! TO.N,Net-(U15B-+)*
X172684648Y37634922D02*
X171546648Y36496922D01*
X171546648Y36496922D02*
X171546648Y35869922D01*
X174696648Y37634922D02*
X174696648Y36134922D01*
X174696648Y37634922D02*
X172684648Y37634922D01*
X174946648Y35884922D02*
X174946648Y34319542D01*
G04 #@! TO.N,Net-(J7-SIG)*
X137465648Y32999922D02*
X138505648Y31959922D01*
X138505648Y31959922D02*
X139806648Y31959922D01*
G04 #@! TO.N,Net-(C46-Pad1)*
X178450000Y39231570D02*
X178450000Y39900000D01*
X169590000Y51820000D02*
X169590000Y51095000D01*
X178450000Y39900000D02*
X178240000Y40110000D01*
X174896648Y39134922D02*
X174696648Y38934922D01*
X176696648Y39134922D02*
X174896648Y39134922D01*
X178496648Y39184922D02*
X176746648Y39184922D01*
G04 #@! TO.N,Net-(U15B--)*
X175846648Y38284922D02*
X174696648Y38284922D01*
X171996648Y40132922D02*
X173844648Y38284922D01*
X176696648Y37434922D02*
X175846648Y38284922D01*
X173844648Y38284922D02*
X174696648Y38284922D01*
X171996648Y41484922D02*
X171996648Y40132922D01*
X176696648Y37434922D02*
X178446648Y37434922D01*
G04 #@! TO.N,Net-(POT_LENGTH1-Center)*
X140330000Y67200000D02*
X143700000Y70570000D01*
X140330000Y65450000D02*
X140330000Y67200000D01*
X143700000Y70570000D02*
X143700000Y73101570D01*
D42*
X140566648Y78059922D02*
X140566648Y77054922D01*
X140566648Y77054922D02*
X140156648Y76644922D01*
D41*
X143700000Y73101570D02*
X140156648Y76644922D01*
D42*
G04 #@! TO.N,Net-(J13-SIG)*
X170579648Y16297672D02*
X169221648Y14939672D01*
X170579648Y17999922D02*
X170579648Y16297672D01*
G04 #@! TO.N,Net-(PLAY_BUT1-B)*
X154876648Y94569160D02*
X154876648Y93649922D01*
X159746648Y97019922D02*
X157327410Y97019922D01*
X157327410Y97019922D02*
X154876648Y94569160D01*
G04 #@! TO.N,Net-(PLAY_BUT1-R)*
X148516648Y92679922D02*
X148016648Y93179922D01*
X152106648Y92679922D02*
X148516648Y92679922D01*
X153076648Y93649922D02*
X152106648Y92679922D01*
G04 #@! TO.N,Net-(PLAY_BUT1-G)*
X151195886Y96649922D02*
X148146648Y96649922D01*
X153076648Y98530684D02*
X151195886Y96649922D01*
X153076648Y99449922D02*
X153076648Y98530684D01*
G04 #@! TO.N,Net-(PLAY_BUT1-POLE-A)*
X150980648Y98799922D02*
X148480648Y101299922D01*
D41*
G04 #@! TO.N,Net-(U1A--)*
X177556648Y57244922D02*
X177556648Y56109482D01*
X177556648Y56109482D02*
X178021648Y55644482D01*
X177556648Y57894922D02*
X177556648Y57244922D01*
G04 #@! TO.N,Net-(REV_BUT1-R)*
X131130000Y93550000D02*
X130336726Y93550000D01*
D40*
G04 #@! TO.N,/D4*
X148836648Y81999922D02*
X150586791Y80249779D01*
X150586791Y80249779D02*
X152356648Y80249779D01*
D41*
X155800148Y61846600D02*
X156090148Y62136600D01*
X155354039Y79907313D02*
X155011573Y80249779D01*
X155011573Y80249779D02*
X152356648Y80249779D01*
D42*
G04 #@! TO.N,Net-(J6-SIG)*
X146986648Y32999922D02*
X152993648Y32999922D01*
X144696648Y30709922D02*
X146986648Y32999922D01*
D41*
G04 #@! TO.N,/VCOM*
X172641648Y18829922D02*
X172641648Y17574922D01*
X158671648Y16839922D02*
X159401648Y17569922D01*
X158646648Y16839922D02*
X158671648Y16839922D01*
X172641648Y17574922D02*
X171546648Y16479922D01*
X176676648Y11769922D02*
X176676648Y12389672D01*
D42*
X171876648Y20119922D02*
X172641648Y19354922D01*
X171476648Y21859922D02*
X171476648Y22829922D01*
X171476648Y22829922D02*
X171411648Y22894922D01*
X171411648Y22894922D02*
X171411648Y23767422D01*
X172641648Y19354922D02*
X172641648Y18829922D01*
X171476648Y21859922D02*
X171476648Y20519922D01*
G04 #@! TO.N,GNDA*
X173576648Y20119922D02*
X173576648Y21659922D01*
D41*
X159878188Y7591462D02*
X162218188Y7591462D01*
X168545963Y24804922D02*
X171677333Y24804922D01*
X159322148Y1709422D02*
X159322148Y7035422D01*
X172061648Y23767422D02*
X172711648Y23767422D01*
X173416648Y6879922D02*
X173416648Y5444922D01*
X167766648Y10249922D02*
X170046648Y10249922D01*
X162218188Y7591462D02*
X165046648Y10419922D01*
X159322148Y7035422D02*
X159878188Y7591462D01*
X159691648Y1339922D02*
X159322148Y1709422D01*
X177850168Y25379922D02*
X178252668Y24977422D01*
X173446648Y25379922D02*
X177850168Y25379922D01*
D42*
X160786648Y2434922D02*
X159691648Y1339922D01*
D41*
X173611648Y18829922D02*
X173611648Y17934922D01*
X178252668Y24626302D02*
X178252668Y24977422D01*
X181540000Y23130000D02*
X179748970Y23130000D01*
X178252668Y24977422D02*
X178252668Y26504086D01*
D42*
X173611648Y18829922D02*
X173611648Y20084922D01*
D41*
X173611648Y17934922D02*
X173556648Y17879922D01*
X179793428Y21447422D02*
X179793428Y23085542D01*
D42*
X172355480Y5759922D02*
X173101648Y5759922D01*
D41*
X170046648Y10249922D02*
X173146648Y7149922D01*
X173146648Y7149922D02*
X173416648Y6879922D01*
X179581548Y23297422D02*
X178252668Y24626302D01*
X172711648Y23114237D02*
X173376648Y22449237D01*
X172711648Y23767422D02*
X172711648Y24644922D01*
X171677333Y24804922D02*
X172061648Y24420607D01*
X168161648Y24420607D02*
X168545963Y24804922D01*
X172711648Y24644922D02*
X173446648Y25379922D01*
D42*
X173101648Y5759922D02*
X173416648Y5444922D01*
D41*
X179748970Y23130000D02*
X179581548Y23297422D01*
X179793428Y23085542D02*
X179581548Y23297422D01*
X173376648Y22449237D02*
X173376648Y21859922D01*
G04 #@! TO.N,Net-(POT_START1-Center)*
X178626500Y57006500D02*
X179620000Y58000000D01*
X179620000Y59306130D02*
X179136648Y59789482D01*
X179660000Y54110000D02*
X178626500Y55143500D01*
X173786648Y45045922D02*
X179660000Y50919274D01*
X179136648Y59789482D02*
X177991648Y60934482D01*
X177991648Y60934482D02*
X176356648Y60934482D01*
X178626500Y55143500D02*
X178626500Y57006500D01*
X179620000Y58000000D02*
X179620000Y59306130D01*
X179660000Y50919274D02*
X179660000Y54110000D01*
D44*
G04 #@! TO.N,Net-(U16A--)*
X151896648Y-2210078D02*
X152546648Y-2210078D01*
D42*
G04 #@! TO.N,Net-(C84-Pad2)*
X152546648Y3689922D02*
X152546648Y4389922D01*
X152101648Y7159922D02*
X152101648Y5579922D01*
X152546648Y4389922D02*
X152131648Y4804922D01*
X152131648Y5549922D02*
X150491648Y5549922D01*
X152131648Y4804922D02*
X152131648Y5549922D01*
D41*
G04 #@! TO.N,/NRST*
X144543422Y57813422D02*
X145896600Y59166600D01*
X148080148Y59166600D02*
X148650148Y58596600D01*
X143898422Y57813422D02*
X144543422Y57813422D01*
X145896600Y59166600D02*
X148080148Y59166600D01*
X143240000Y57155000D02*
X143898422Y57813422D01*
D42*
G04 #@! TO.N,+5V*
X178252668Y23077422D02*
X176525168Y24804922D01*
X178093428Y21447422D02*
X178093428Y22918182D01*
X176525168Y24804922D02*
X173745963Y24804922D01*
X173745963Y24804922D02*
X173361648Y24420607D01*
X173361648Y24420607D02*
X173361648Y23767422D01*
G04 #@! TO.N,/OSC_IN*
X141656648Y61039922D02*
X141656648Y62779922D01*
D41*
X148650148Y59896600D02*
X146101970Y59896600D01*
X146101970Y59896600D02*
X143995148Y62003422D01*
D42*
X141656648Y62779922D02*
X141166648Y63269922D01*
D41*
X142130148Y62003422D02*
X141656648Y61529922D01*
X143995148Y62003422D02*
X142130148Y62003422D01*
G04 #@! TO.N,Net-(U2B-VCAP_2)*
X157966504Y61423600D02*
X157880004Y61510100D01*
X156776002Y60872454D02*
X156450148Y60546600D01*
X157880004Y61510100D02*
X156970292Y61510100D01*
X156776002Y61315810D02*
X156776002Y60872454D01*
X160140148Y61986600D02*
X159577148Y61423600D01*
X156970292Y61510100D02*
X156776002Y61315810D01*
X159577148Y61423600D02*
X157966504Y61423600D01*
G04 #@! TO.N,Net-(U2B-VCAP_1)*
X153702594Y57499046D02*
X153702594Y57384154D01*
X153702594Y57384154D02*
X154440148Y56646600D01*
G04 #@! TO.N,Net-(U2B-VDD12OTGHS)*
X158097674Y58910100D02*
X158737674Y58270100D01*
X157413648Y58910100D02*
X158097674Y58910100D01*
X158737674Y58270100D02*
X161863648Y58270100D01*
X157100148Y58596600D02*
X157413648Y58910100D01*
G04 #@! TO.N,+3.3VADC*
X136900000Y62990000D02*
X136827330Y62990000D01*
X139303578Y59216422D02*
X138853148Y59216422D01*
X142280000Y57400000D02*
X141940000Y57740000D01*
D42*
X135666648Y64150682D02*
X135666648Y65529922D01*
D41*
X145780000Y54560000D02*
X146341648Y55121648D01*
X141940000Y57740000D02*
X140780000Y57740000D01*
X138125348Y61924652D02*
X137974685Y62075315D01*
X138125348Y59944222D02*
X138125348Y61924652D01*
X138853148Y59216422D02*
X138125348Y59944222D01*
D43*
X148356826Y54989922D02*
X148650148Y54696600D01*
X146560361Y55229922D02*
X146800361Y54989922D01*
X146800361Y54989922D02*
X148356826Y54989922D01*
D41*
X140780000Y57740000D02*
X139303578Y59216422D01*
X136827330Y62990000D02*
X135666648Y64150682D01*
D42*
G04 #@! TO.N,Net-(D24-AK)*
X149336648Y28044922D02*
X148046648Y28044922D01*
X148046648Y28044922D02*
X147731648Y27729922D01*
X149033428Y29051702D02*
X149616648Y29634922D01*
X147316648Y29051702D02*
X149033428Y29051702D01*
X147316648Y29051702D02*
X147316648Y28144922D01*
X147316648Y28144922D02*
X147731648Y27729922D01*
G04 #@! TO.N,Net-(R1-Pad1)*
X157746648Y28969922D02*
X159456648Y30679922D01*
X159456648Y30679922D02*
X159456648Y31769922D01*
X157831648Y27449922D02*
X157831648Y28884922D01*
G04 #@! TO.N,Net-(C48-Pad1)*
X161521648Y15699922D02*
X162276648Y15699922D01*
X161521648Y15699922D02*
X161521648Y14724922D01*
X160701648Y17569922D02*
X160701648Y16519922D01*
X160701648Y16519922D02*
X161521648Y15699922D01*
X162276648Y15699922D02*
X162896648Y15079922D01*
X161521648Y14724922D02*
X161136648Y14339922D01*
G04 #@! TO.N,Net-(U11B--)*
X160166648Y14339922D02*
X160166648Y13189922D01*
X159821648Y15699922D02*
X159821648Y14684922D01*
X160051648Y17569922D02*
X160051648Y15929922D01*
X159821648Y14684922D02*
X160166648Y14339922D01*
D41*
G04 #@! TO.N,/BOOT0*
X152781726Y67720000D02*
X153051648Y67989922D01*
X152260000Y67720000D02*
X152781726Y67720000D01*
X151900148Y61846600D02*
X151900148Y61686600D01*
X151900148Y61686600D02*
X151690148Y61476600D01*
D42*
G04 #@! TO.N,Net-(C52-Pad1)*
X162116648Y14169922D02*
X164376648Y14169922D01*
X161016648Y13069922D02*
X162116648Y14169922D01*
G04 #@! TO.N,Net-(U11A--)*
X161351648Y23469922D02*
X160701648Y23469922D01*
X161351648Y19714922D02*
X161351648Y23469922D01*
X164376648Y16689922D02*
X161351648Y19714922D01*
X164376648Y15869922D02*
X164376648Y16689922D01*
D41*
G04 #@! TO.N,Net-(U1B-+)*
X170073024Y59194922D02*
X171656648Y59194922D01*
D42*
G04 #@! TO.N,Net-(C57-Pad1)*
X178576648Y14504672D02*
X178291648Y14789672D01*
X178576648Y13439672D02*
X179741648Y13439672D01*
X176676648Y13689672D02*
X178326648Y13689672D01*
X179741648Y13439672D02*
X179976648Y13674672D01*
X178576648Y13439672D02*
X178576648Y14504672D01*
G04 #@! TO.N,Net-(U8B--)*
X177376648Y13039672D02*
X178576648Y11839672D01*
X179011648Y11739672D02*
X179976648Y12704672D01*
X176676648Y13039672D02*
X177376648Y13039672D01*
X178576648Y11739672D02*
X179011648Y11739672D01*
X175751648Y11154672D02*
X175751648Y12814672D01*
X175991648Y10914672D02*
X175751648Y11154672D01*
X175751648Y12814672D02*
X175976648Y13039672D01*
X175976648Y13039672D02*
X176676648Y13039672D01*
G04 #@! TO.N,Net-(U13-BST)*
X137806648Y52309922D02*
X137806648Y54397922D01*
X137806648Y54397922D02*
X138672648Y55263922D01*
G04 #@! TO.N,Net-(U13-SW)*
X135186648Y51359922D02*
X136141902Y51359922D01*
X136141902Y51359922D02*
X136896648Y52114668D01*
D41*
X138340648Y56963922D02*
X136946648Y55569922D01*
D42*
X136896648Y52114668D02*
X136896648Y55495922D01*
G04 #@! TO.N,Net-(D1-AK)*
X155236648Y27394922D02*
X156806648Y27394922D01*
X152516648Y30864922D02*
X154063428Y30864922D01*
X151896648Y30244922D02*
X151896648Y28919922D01*
X153421648Y27394922D02*
X155236648Y27394922D01*
X154063428Y30864922D02*
X154926648Y31728142D01*
X152516648Y30864922D02*
X151896648Y30244922D01*
X151896648Y28919922D02*
X153421648Y27394922D01*
G04 #@! TO.N,Net-(REV_BUT1-B)*
X135396648Y93489922D02*
X135396648Y95709922D01*
D41*
G04 #@! TO.N,Net-(D26-AK)*
X132272564Y39144922D02*
X131005784Y39144922D01*
X132206648Y37414922D02*
X132206648Y38869006D01*
X127862564Y39144922D02*
X131005784Y39144922D01*
G04 #@! TO.N,Net-(D22-AK)*
X139846648Y37877922D02*
X139846648Y38531702D01*
X138733648Y36764922D02*
X139846648Y37877922D01*
X137126648Y36636922D02*
X137254648Y36764922D01*
X139731648Y35469922D02*
X139001648Y34739922D01*
X139846648Y38531702D02*
X140539868Y38531702D01*
X137254648Y36764922D02*
X138106648Y36764922D01*
X137126648Y35167922D02*
X137126648Y36636922D01*
X140539868Y38531702D02*
X141041648Y38029922D01*
X139001648Y34739922D02*
X137554648Y34739922D01*
X137554648Y34739922D02*
X137126648Y35167922D01*
D42*
G04 #@! TO.N,Net-(U3B-+)*
X140301648Y78764922D02*
X140566648Y79029922D01*
X138926648Y78764922D02*
X140301648Y78764922D01*
G04 #@! TO.N,Net-(REV_BUT1-G)*
X130076648Y97989922D02*
X133636648Y101549922D01*
X128746648Y97989922D02*
X130076648Y97989922D01*
D41*
G04 #@! TO.N,/OSC_OUT*
X148403148Y59493600D02*
X144958636Y59493600D01*
X143846826Y59630100D02*
X143156648Y58939922D01*
D42*
X143156648Y59839922D02*
X143156648Y58939922D01*
D41*
X148600148Y59296600D02*
X148403148Y59493600D01*
D42*
X143056648Y59939922D02*
X143156648Y59839922D01*
X139576648Y59939922D02*
X143056648Y59939922D01*
D41*
X144822136Y59630100D02*
X143846826Y59630100D01*
X144958636Y59493600D02*
X144822136Y59630100D01*
D42*
G04 #@! TO.N,Net-(C90-Pad1)*
X175021648Y10914672D02*
X174656648Y11279672D01*
X174656648Y11279672D02*
X174656648Y16084672D01*
G04 #@! TO.N,Net-(U8A--)*
X172956648Y16084672D02*
X171211648Y14339672D01*
X170776648Y13689672D02*
X170776648Y14339672D01*
D41*
G04 #@! TO.N,Net-(D15-AK)*
X168610000Y50175000D02*
X168170000Y49735000D01*
X169610000Y50105000D02*
X168680000Y50105000D01*
X168170000Y49735000D02*
X168170000Y49068220D01*
X171086648Y50904922D02*
X170234648Y50904922D01*
X170234648Y50904922D02*
X169610000Y50280274D01*
D42*
G04 #@! TO.N,Net-(C147-Pad1)*
X164155480Y1729922D02*
X164155480Y714922D01*
X163966648Y3934922D02*
X163266648Y3934922D01*
X163266648Y3934922D02*
X163033907Y3702181D01*
X163033907Y2851495D02*
X164155480Y1729922D01*
X164200480Y669922D02*
X164200480Y-330078D01*
X163033907Y3702181D02*
X163033907Y2851495D01*
G04 #@! TO.N,Net-(U12B--)*
X163966648Y4584922D02*
X163266648Y4584922D01*
X162120480Y3438754D02*
X162120480Y2764922D01*
X163266648Y4584922D02*
X162120480Y3438754D01*
X163155480Y1729922D02*
X162120480Y2764922D01*
G04 #@! TO.N,Net-(U12B-+)*
X162306648Y4694922D02*
X160956648Y3344922D01*
X162920480Y5234922D02*
X162410480Y4724922D01*
X163966648Y5234922D02*
X162920480Y5234922D01*
G04 #@! TO.N,Net-(C149-Pad1)*
X172041648Y1894922D02*
X171131648Y1894922D01*
X169866648Y3284922D02*
X169866648Y3009922D01*
X169866648Y3009922D02*
X171056648Y1819922D01*
X171056648Y1819922D02*
X171056648Y779922D01*
G04 #@! TO.N,Net-(U12A--)*
X168941648Y1844922D02*
X168941648Y3934922D01*
D41*
X170086648Y1819922D02*
X169106648Y1819922D01*
D42*
X168941648Y3934922D02*
X169866648Y3934922D01*
G04 #@! TO.N,Net-(U12A-+)*
X171405480Y4629922D02*
X171405480Y5739922D01*
X169866648Y4584922D02*
X171360480Y4584922D01*
G04 #@! TO.N,Net-(C152-Pad1)*
X165066648Y6214922D02*
X164546648Y6734922D01*
X163230480Y669922D02*
X162015480Y669922D01*
X165066648Y5969922D02*
X165066648Y6214922D01*
X161721648Y1794922D02*
X162120480Y1794922D01*
X161426648Y1499922D02*
X161721648Y1794922D01*
X162010480Y674922D02*
X162010480Y1684922D01*
G04 #@! TO.N,Net-(C152-Pad2)*
X161526648Y5059922D02*
X161631648Y5059922D01*
X160661648Y1339922D02*
X160661648Y1053754D01*
X162526648Y5734922D02*
X163506648Y6714922D01*
D41*
X162010480Y-295078D02*
X161611648Y-295078D01*
D42*
X161631648Y5059922D02*
X162306648Y5734922D01*
D41*
X161611648Y-295078D02*
X160826648Y489922D01*
D42*
X160826648Y489922D02*
X160826648Y1174922D01*
G04 #@! TO.N,Net-(C153-Pad1)*
X169036648Y779922D02*
X170086648Y779922D01*
X168066648Y1749922D02*
X169036648Y779922D01*
X168066648Y1749922D02*
X168066648Y5379922D01*
X168696648Y6009922D02*
X170636648Y6009922D01*
X173256648Y2479922D02*
X173256648Y3299922D01*
X170086648Y79922D02*
X170106648Y59922D01*
X168066648Y5379922D02*
X168696648Y6009922D01*
X171126648Y6499922D02*
X171126648Y6774922D01*
X170636648Y6009922D02*
X171126648Y6499922D01*
X170086648Y779922D02*
X170086648Y79922D01*
G04 #@! TO.N,Net-(C153-Pad2)*
X172340480Y3614922D02*
X171301648Y3614922D01*
X169381648Y6704922D02*
X170126648Y6704922D01*
X172375480Y4629922D02*
X173261648Y4629922D01*
X169236648Y6559922D02*
X169381648Y6704922D01*
X172375480Y4629922D02*
X172375480Y3649922D01*
X172375480Y3649922D02*
X172340480Y3614922D01*
X171301648Y3614922D02*
X171176648Y3739922D01*
D40*
G04 #@! TO.N,Net-(D16-A)*
X137916648Y20389922D02*
X138586648Y19719922D01*
X138586648Y19719922D02*
X141126648Y19719922D01*
X137916648Y22029922D02*
X137916648Y20389922D01*
G04 #@! TO.N,Net-(D17-K)*
X142636648Y9559922D02*
X143926648Y10849922D01*
X141126648Y9559922D02*
X142636648Y9559922D01*
X138586648Y9559922D02*
X141126648Y9559922D01*
D41*
G04 #@! TO.N,/SWDCLK*
X164200000Y65728756D02*
X164200000Y65670000D01*
X159032304Y65728756D02*
X164200000Y65728756D01*
X164200000Y65670000D02*
X164690000Y65180000D01*
X157100148Y63796600D02*
X159032304Y65728756D01*
G04 #@! TO.N,/SWDIO*
X163558244Y65501756D02*
X164550000Y64510000D01*
X159455304Y65501756D02*
X163558244Y65501756D01*
X157750148Y63796600D02*
X159455304Y65501756D01*
G04 #@! TO.N,/UART_TX*
X147005436Y58236342D02*
X148040228Y58236342D01*
X148329970Y57946600D02*
X148650148Y57946600D01*
X148040228Y58236342D02*
X148329970Y57946600D01*
G04 #@! TO.N,/UART_RX*
X147560390Y57619600D02*
X148973148Y57619600D01*
X147406648Y57773342D02*
X147560390Y57619600D01*
X149300148Y57946600D02*
X148973148Y57619600D01*
G04 #@! TO.N,/DEBUG2*
X150600148Y62496600D02*
X150920148Y62176600D01*
G04 #@! TO.N,/DEBUG3*
X156426648Y77839922D02*
X158916648Y80329922D01*
X158916648Y80329922D02*
X158916648Y87529922D01*
X153196648Y73749922D02*
X153196648Y74079922D01*
X153850148Y64966600D02*
X153740148Y65076600D01*
X153196648Y74079922D02*
X154226648Y75109922D01*
X153850148Y63796600D02*
X153850148Y64966600D01*
G04 #@! TO.N,Net-(J8-SIG)*
X166556648Y33749922D02*
X167306648Y32999922D01*
X166946648Y36753422D02*
X166883906Y36753422D01*
X166643148Y36512664D02*
X166643148Y35596422D01*
X166643148Y35596422D02*
X166556648Y35509922D01*
X167306648Y32999922D02*
X170579648Y32999922D01*
X166883906Y36753422D02*
X166643148Y36512664D01*
X166556648Y35509922D02*
X166556648Y33749922D01*
X166946648Y37759922D02*
X166946648Y36753422D01*
G04 #@! TO.N,Net-(J9-SIG)*
X133567564Y40150838D02*
X133567564Y41544922D01*
X133546648Y40129922D02*
X133567564Y40150838D01*
X146679648Y23206922D02*
X145616648Y24269922D01*
X136896648Y40129922D02*
X137126648Y39899922D01*
X136196648Y36569922D02*
X136616648Y36989922D01*
X145616648Y24269922D02*
X144376648Y24269922D01*
X135570000Y40129922D02*
X136896648Y40129922D01*
X144376648Y24269922D02*
X136196648Y32449922D01*
X136196648Y32449922D02*
X136196648Y36569922D01*
X147786648Y23206922D02*
X146679648Y23206922D01*
D42*
G04 #@! TO.N,Net-(J11-SIG)*
X132946648Y-1519078D02*
X132258648Y-2207078D01*
X132946648Y169922D02*
X132946648Y-1519078D01*
D40*
G04 #@! TO.N,Net-(J12-SIG)*
X133916648Y20459922D02*
X133916648Y21548922D01*
X133916648Y21548922D02*
X132258648Y23206922D01*
D42*
G04 #@! TO.N,Net-(J14-SIG)*
X165493648Y21568876D02*
X161856088Y25206436D01*
X165493648Y17999922D02*
X165493648Y21568876D01*
G04 #@! TO.N,Net-(J15-SIG)*
X149591648Y5574922D02*
X147786648Y3769922D01*
X147786648Y3769922D02*
X147786648Y-2207078D01*
X149591648Y6549922D02*
X149591648Y5574922D01*
X150391648Y7349922D02*
X149591648Y6549922D01*
G04 #@! TO.N,Net-(J16-SIG)*
X172773288Y924922D02*
X172041648Y924922D01*
X175950848Y-2252638D02*
X172773288Y924922D01*
D41*
G04 #@! TO.N,Net-(J17-SIG)*
X161427920Y-2252638D02*
X160450848Y-2252638D01*
X163290480Y-390078D02*
X161427920Y-2252638D01*
G04 #@! TO.N,Net-(U15A-+)*
X168121648Y38284922D02*
X166946648Y39459922D01*
X168796648Y38284922D02*
X168121648Y38284922D01*
D42*
G04 #@! TO.N,/ROUT+*
X167876648Y21076171D02*
X167876648Y11489236D01*
X169461648Y23767422D02*
X169461648Y22661171D01*
X169461648Y22661171D02*
X167876648Y21076171D01*
X167876648Y11489236D02*
X164546648Y8159236D01*
X164546648Y8159236D02*
X164546648Y7704922D01*
G04 #@! TO.N,/ROUT-*
X168811648Y23767422D02*
X168811648Y22661171D01*
X168811648Y22661171D02*
X167476648Y21326171D01*
X167476648Y21326171D02*
X167476648Y11654922D01*
X167476648Y11654922D02*
X163506648Y7684922D01*
G04 #@! TO.N,/LOUT+*
X170886649Y8858120D02*
X170886649Y7984921D01*
X170761648Y20961648D02*
X169090443Y19290443D01*
X170761648Y23767422D02*
X170761648Y20961648D01*
X170886649Y7984921D02*
X171126648Y7744922D01*
X169090443Y19290443D02*
X169090443Y16181525D01*
X170418085Y9326684D02*
X170886649Y8858120D01*
X170418085Y9336875D02*
X170418085Y9326684D01*
G04 #@! TO.N,/LOUT-*
X170436647Y7984921D02*
X170126648Y7674922D01*
X168610000Y16320000D02*
X168420000Y16130000D01*
X168610000Y19340000D02*
X168610000Y16320000D01*
X170436647Y8671724D02*
X170436647Y7984921D01*
X170111648Y23767422D02*
X170111648Y20841648D01*
X169952549Y9155823D02*
X170436647Y8671724D01*
X170111648Y20841648D02*
X168610000Y19340000D01*
G04 #@! TO.N,Net-(R16-Pad2)*
X146761648Y27729922D02*
X145366648Y27729922D01*
X144986648Y27349922D02*
X144986648Y28799922D01*
X145366648Y27729922D02*
X144986648Y27349922D01*
D41*
G04 #@! TO.N,Net-(R17-Pad2)*
X130267564Y41804922D02*
X131607564Y41804922D01*
X131867564Y41544922D02*
X131867564Y40519922D01*
X131867564Y40519922D02*
X132377564Y40009922D01*
D42*
G04 #@! TO.N,Net-(U3A--)*
X133026648Y80714922D02*
X133026648Y80064922D01*
X133026648Y81854922D02*
X132646648Y82234922D01*
X133026648Y80714922D02*
X133026648Y81854922D01*
D41*
G04 #@! TO.N,Net-(R20-Pad2)*
X139806648Y34574922D02*
X139806648Y33659922D01*
X140701648Y35469922D02*
X139806648Y34574922D01*
X140961648Y35729922D02*
X142386648Y35729922D01*
X140701648Y35469922D02*
X140961648Y35729922D01*
D42*
G04 #@! TO.N,Net-(U3B--)*
X138926648Y80064922D02*
X140386648Y80064922D01*
X138926648Y80064922D02*
X138926648Y79414922D01*
D41*
G04 #@! TO.N,Net-(U5A--)*
X138106648Y36114922D02*
X138106648Y35464922D01*
X139711648Y36819922D02*
X139006648Y36114922D01*
X139006648Y36114922D02*
X138106648Y36114922D01*
G04 #@! TO.N,Net-(U2B-OTG_HR_REXT)*
X158090148Y58596600D02*
X158750148Y57936600D01*
X157750148Y58596600D02*
X158090148Y58596600D01*
X158750148Y57936600D02*
X159735148Y57936600D01*
D40*
G04 #@! TO.N,Net-(U15A--)*
X170296648Y40680000D02*
X170296648Y41484922D01*
D41*
X168796648Y39584922D02*
X168796648Y38934922D01*
X168700000Y40170000D02*
X168796648Y40073352D01*
X168796648Y40073352D02*
X168796648Y39584922D01*
D42*
G04 #@! TO.N,Net-(REV_BUT1-POLE-A)*
X131286648Y100899922D02*
X130006648Y100899922D01*
X130006648Y100899922D02*
X128846648Y102059922D01*
G04 #@! TO.N,Net-(U10A--)*
X155236648Y25394922D02*
X156061648Y24569922D01*
X155236648Y26744922D02*
X155236648Y26094922D01*
X155236648Y26094922D02*
X155236648Y25394922D01*
G04 #@! TO.N,Net-(U8A-+)*
X170776648Y13039672D02*
X169266648Y13039672D01*
X169201648Y12974672D02*
X169201648Y13949672D01*
D41*
G04 #@! TO.N,/I2C1_SCL*
X151250148Y63796600D02*
X151250148Y64433237D01*
X148730000Y66953385D02*
X148730000Y68500000D01*
X175961648Y29492422D02*
X175961648Y30972422D01*
X151250148Y64433237D02*
X148730000Y66953385D01*
X175846648Y31706648D02*
X175920000Y31780000D01*
X175846648Y31087422D02*
X175846648Y31706648D01*
G04 #@! TO.N,/I2C1_SDA*
X152237926Y63473227D02*
X152236648Y63471949D01*
X151623648Y62833100D02*
X150913648Y62833100D01*
X152236648Y63039744D02*
X152030004Y62833100D01*
X152030004Y62833100D02*
X151770292Y62833100D01*
X151766792Y62836600D02*
X151627148Y62836600D01*
X175288148Y31539852D02*
X174456500Y32371500D01*
X172250000Y33780000D02*
X172483078Y33546922D01*
X173418078Y33546922D02*
X174525000Y32440000D01*
X150913648Y62833100D02*
X150600148Y63146600D01*
X151627148Y62836600D02*
X151623648Y62833100D01*
X175288148Y29515922D02*
X175288148Y31539852D01*
X151770292Y62833100D02*
X151766792Y62836600D01*
X152236648Y63471949D02*
X152236648Y63039744D01*
X172483078Y33546922D02*
X173418078Y33546922D01*
D42*
G04 #@! TO.N,Net-(U11A-+)*
X160051648Y23469922D02*
X160051648Y25050876D01*
X159886088Y25216436D02*
X160876088Y25216436D01*
D41*
G04 #@! TO.N,/RIN*
X174661648Y22738352D02*
X175030000Y22370000D01*
X174661648Y23767422D02*
X174661648Y22738352D01*
X162746648Y17079922D02*
X162746648Y16199922D01*
G04 #@! TO.N,/LIN*
X174011648Y23767422D02*
X174011648Y22578352D01*
X177450000Y17773570D02*
X179261648Y15961922D01*
X177450000Y19140000D02*
X177450000Y17773570D01*
X174011648Y22578352D02*
X177450000Y19140000D01*
X179261648Y15961922D02*
X179261648Y14789672D01*
D42*
G04 #@! TO.N,Net-(U13-FB)*
X139211493Y50369922D02*
X137846648Y50369922D01*
X137806648Y50409922D02*
X137806648Y49769922D01*
X139356493Y51444922D02*
X139356493Y50514922D01*
X137806648Y49769922D02*
X137156648Y49119922D01*
X139356493Y50514922D02*
X139211493Y50369922D01*
G04 #@! TO.N,Net-(U13-EN)*
X136096648Y49225077D02*
X136096648Y50339922D01*
X136096648Y50339922D02*
X137116648Y51359922D01*
X137116648Y51359922D02*
X137806648Y51359922D01*
D41*
G04 #@! TO.N,Net-(U5B--)*
X130662564Y36114922D02*
X132206648Y36114922D01*
X132206648Y36114922D02*
X132206648Y36764922D01*
G04 #@! TO.N,/SAI_SD_B*
X148644648Y63796600D02*
X148644648Y64468774D01*
X174661648Y31484922D02*
X174616648Y31529922D01*
X148644648Y64468774D02*
X146963500Y66149922D01*
X174661648Y29492422D02*
X174661648Y31484922D01*
G04 #@! TO.N,/SAI_MCLK*
X149300148Y63796600D02*
X149300148Y65083552D01*
X171161081Y28491422D02*
X172478148Y28491422D01*
X149300148Y65083552D02*
X148175714Y66207986D01*
X172711648Y28724922D02*
X172711648Y29492422D01*
X172736648Y31229922D02*
X172736648Y29517422D01*
X172478148Y28491422D02*
X172711648Y28724922D01*
X170761648Y28890855D02*
X171161081Y28491422D01*
G04 #@! TO.N,/SD-NBL1*
X156100148Y43826600D02*
X156470148Y44196600D01*
X150936648Y63903456D02*
X150723504Y64116600D01*
X155850148Y43826600D02*
X156100148Y43826600D01*
X150936648Y63666744D02*
X150936648Y63903456D01*
X150270148Y64116600D02*
X149950148Y63796600D01*
X150723504Y64116600D02*
X150270148Y64116600D01*
X151131825Y63471567D02*
X150936648Y63666744D01*
X151589655Y63471567D02*
X151131825Y63471567D01*
D43*
G04 #@! TO.N,/SD-NBL0*
X149850148Y42626600D02*
X148363326Y42626600D01*
X150260641Y63457093D02*
X150260641Y62821634D01*
X148363326Y42626600D02*
X148356648Y42619922D01*
X150250148Y43026600D02*
X149850148Y42626600D01*
X150600148Y63796600D02*
X150260641Y63457093D01*
D41*
G04 #@! TO.N,/SD-CKE1*
X151870148Y64906600D02*
X151870148Y63826600D01*
X154277536Y43826600D02*
X154622079Y43482057D01*
G04 #@! TO.N,/CODEC_RESET*
X166539922Y66609922D02*
X166790000Y66860000D01*
D43*
X156476648Y66609922D02*
X158286648Y66609922D01*
D41*
X158286648Y66609922D02*
X166539922Y66609922D01*
D43*
X154500148Y64886600D02*
X154710148Y65096600D01*
D41*
X167576648Y24295338D02*
X169221310Y25940000D01*
D43*
X154710148Y65096600D02*
X154963326Y65096600D01*
X154963326Y65096600D02*
X156476648Y66609922D01*
X154500148Y63796600D02*
X154500148Y64886600D01*
D41*
X169221310Y25940000D02*
X177000000Y25940000D01*
X167576648Y23832422D02*
X167576648Y24295338D01*
G04 #@! TO.N,/SAI_FS*
X170306648Y27579922D02*
X169461648Y28424922D01*
X174011648Y31444922D02*
X173746648Y31709922D01*
X169461648Y28424922D02*
X169461648Y29492422D01*
X148971648Y63468100D02*
X148650148Y63146600D01*
X173286648Y27579922D02*
X170306648Y27579922D01*
X174011648Y29492422D02*
X174011648Y31444922D01*
X174011648Y29492422D02*
X174011648Y28304922D01*
X148971648Y64774922D02*
X148971648Y63468100D01*
X174011648Y28304922D02*
X173286648Y27579922D01*
X147596648Y66149922D02*
X148971648Y64774922D01*
G04 #@! TO.N,/SAI_SCK*
X170111648Y28237370D02*
X170419096Y27929922D01*
X173361648Y28234922D02*
X173361648Y29492422D01*
X149300148Y63146600D02*
X149613648Y63460100D01*
X173283148Y32766922D02*
X173283148Y29570922D01*
X149613648Y63460100D02*
X149613648Y65554343D01*
X170111648Y29492422D02*
X170111648Y28237370D01*
X173056648Y27929922D02*
X173361648Y28234922D01*
X149613648Y65554343D02*
X148729797Y66438194D01*
X170419096Y27929922D02*
X173056648Y27929922D01*
G04 #@! TO.N,/SAI_SD_A*
X168866648Y30799922D02*
X168866648Y29547422D01*
X149672810Y62883938D02*
X149935472Y63146600D01*
G04 #@! TO.N,/SD-NCAS*
X151650148Y43766600D02*
X151110148Y43766600D01*
X153660148Y61116600D02*
X152340148Y61116600D01*
X152340148Y61116600D02*
X152280148Y61176600D01*
X152875385Y62821363D02*
X152550148Y63146600D01*
G04 #@! TO.N,/SD-D2*
X156125175Y61356600D02*
X156125175Y60857100D01*
X161690000Y41550000D02*
X160321026Y41550000D01*
X160321026Y41550000D02*
X159362681Y40591655D01*
X150651504Y40225244D02*
X150250148Y40626600D01*
X156763648Y61716744D02*
X156557004Y61510100D01*
X150651504Y40204801D02*
X150651504Y40225244D01*
X159005203Y40591655D02*
X158400148Y39986600D01*
X161870000Y41730000D02*
X161690000Y41550000D01*
X156580004Y62810100D02*
X156763648Y62626456D01*
X156278675Y61510100D02*
X156125175Y61356600D01*
X159362681Y40591655D02*
X159005203Y40591655D01*
X155800148Y63146600D02*
X156136648Y62810100D01*
X156557004Y61510100D02*
X156278675Y61510100D01*
X156136648Y62810100D02*
X156580004Y62810100D01*
X156763648Y62626456D02*
X156763648Y61716744D01*
D43*
G04 #@! TO.N,/SD-D3*
X155800148Y62496600D02*
X155450148Y62846600D01*
X156840251Y66239922D02*
X157801018Y66239922D01*
D41*
X149450148Y41426600D02*
X148950148Y41426600D01*
D43*
X155278450Y64521724D02*
X155278450Y64678121D01*
X164796648Y54099922D02*
X164246648Y53549922D01*
X162746648Y62859922D02*
X163396648Y62209922D01*
X157801018Y66239922D02*
X157880518Y66160422D01*
X163066648Y58599922D02*
X163066648Y57716319D01*
D41*
X159268655Y40818655D02*
X158601969Y40818655D01*
X164310000Y52040000D02*
X164310000Y45860000D01*
D43*
X155450148Y64350025D02*
X155278450Y64521724D01*
X155450148Y62846600D02*
X155450148Y64350025D01*
X155278450Y64678121D02*
X156840251Y66239922D01*
X164796648Y55986319D02*
X164796648Y54099922D01*
D41*
X148950148Y41426600D02*
X148890148Y41366600D01*
D43*
X161866648Y62859922D02*
X162746648Y62859922D01*
X163296648Y58829922D02*
X163066648Y58599922D01*
X163066648Y57716319D02*
X164796648Y55986319D01*
D41*
X164310000Y45860000D02*
X159268655Y40818655D01*
G04 #@! TO.N,/SD-A0*
X148988328Y48948420D02*
X148988328Y51610987D01*
X151463648Y45840100D02*
X151463648Y46473100D01*
X151463648Y46473100D02*
X148988328Y48948420D01*
X148988328Y51610987D02*
X149670441Y52293100D01*
X149588033Y61484485D02*
X149300148Y61196600D01*
X151050148Y45426600D02*
X151463648Y45840100D01*
G04 #@! TO.N,/SD-A2*
X148090148Y48536600D02*
X150250148Y46376600D01*
X148090148Y49840667D02*
X148090148Y48536600D01*
X149300148Y59246600D02*
X148980148Y59566600D01*
D43*
X147389582Y51366988D02*
X148090148Y50666422D01*
X148090148Y50666422D02*
X148090148Y49840667D01*
D41*
G04 #@! TO.N,/SD-A1*
X149830193Y45828181D02*
X149873864Y45828181D01*
X151540148Y59606600D02*
X150936648Y60210100D01*
X150286648Y60026456D02*
X150286648Y59583100D01*
X150286648Y59583100D02*
X149950148Y59246600D01*
X146899678Y49360392D02*
X146899678Y48608578D01*
X146876648Y47210100D02*
X148190148Y45896600D01*
X150936648Y60210100D02*
X150470292Y60210100D01*
X149873864Y45828181D02*
X150250148Y45451897D01*
X150470292Y60210100D02*
X150286648Y60026456D01*
X146876648Y48585548D02*
X146876648Y47210100D01*
X151473713Y58738745D02*
X151540148Y58805180D01*
X151540148Y58805180D02*
X151540148Y59606600D01*
X146899678Y48608578D02*
X146876648Y48585548D01*
G04 #@! TO.N,/SD-CLK*
X155360100Y58910100D02*
X156763648Y58910100D01*
X154813648Y58363648D02*
X155360100Y58910100D01*
X156763648Y58910100D02*
X157100148Y59246600D01*
X155080422Y43826600D02*
X155443718Y43463304D01*
X154500000Y57370000D02*
X154813648Y57683648D01*
X155443718Y43463304D02*
X155443718Y43410078D01*
X154813648Y57683648D02*
X154813648Y58363648D01*
G04 #@! TO.N,/SD-A3*
X148600148Y48676600D02*
X151050148Y46226600D01*
X148600148Y50966158D02*
X148600148Y48676600D01*
X149734155Y58916225D02*
X149414530Y58596600D01*
X148006582Y51559724D02*
X148600148Y50966158D01*
X149414530Y58596600D02*
X149300148Y58596600D01*
X150284091Y58916225D02*
X149734155Y58916225D01*
G04 #@! TO.N,/SD-A4*
X154250148Y47309960D02*
X152254794Y49305314D01*
X150723648Y58283100D02*
X150470292Y58283100D01*
X150206792Y58546600D02*
X150000148Y58546600D01*
X150920148Y58086600D02*
X150723648Y58283100D01*
X152340328Y51316420D02*
X151670148Y51986600D01*
X151670148Y51986600D02*
X151670148Y52512533D01*
X151286648Y52896033D02*
X151286648Y52900100D01*
X150920148Y56792956D02*
X150920148Y58086600D01*
X150936648Y56776456D02*
X150920148Y56792956D01*
X154250148Y46226600D02*
X154250148Y47309960D01*
X150936648Y53250100D02*
X150936648Y56776456D01*
X151286648Y52900100D02*
X150936648Y53250100D01*
X151670148Y52512533D02*
X151286648Y52896033D01*
X150470292Y58283100D02*
X150206792Y58546600D01*
G04 #@! TO.N,/SD-NWE*
X148740148Y43726600D02*
X148840148Y43826600D01*
X151588309Y57815083D02*
X150806792Y58596600D01*
X148840148Y43826600D02*
X149450148Y43826600D01*
X151588309Y57046600D02*
X151588309Y57815083D01*
X150806792Y58596600D02*
X150600148Y58596600D01*
G04 #@! TO.N,/SD-A5*
X152342283Y49731892D02*
X151764856Y49731892D01*
X149243648Y52733600D02*
X149266648Y52756600D01*
X151253648Y51400403D02*
X149897451Y52756600D01*
X151253648Y50243100D02*
X151253648Y51400403D01*
X155050148Y47024027D02*
X152342283Y49731892D01*
X148748336Y52733600D02*
X149243648Y52733600D01*
X155050148Y46226600D02*
X155050148Y47024027D01*
X151764856Y49731892D02*
X151253648Y50243100D01*
X149266648Y52756600D02*
X149897451Y52756600D01*
X149927191Y57946600D02*
X149665923Y57685332D01*
G04 #@! TO.N,/SD-BA1*
X149849851Y45050149D02*
X150250148Y44649852D01*
D43*
X162149970Y51496600D02*
X162446648Y51199922D01*
D41*
X156361468Y52230100D02*
X152853648Y52230100D01*
X160556648Y51496600D02*
X157094968Y51496600D01*
X156114686Y58267100D02*
X156435186Y57946600D01*
X157094968Y51496600D02*
X156361468Y52230100D01*
D43*
X160556648Y51496600D02*
X162149970Y51496600D01*
D41*
X152853648Y52230100D02*
X152797148Y52286600D01*
G04 #@! TO.N,/SD-BA0*
X157100148Y57946600D02*
X156763648Y57610100D01*
X156130148Y57419956D02*
X156130148Y56976600D01*
X156320292Y57610100D02*
X156130148Y57419956D01*
X151675591Y45252043D02*
X151050148Y44626600D01*
X156020148Y51226600D02*
X153850148Y49056600D01*
X158236000Y50910000D02*
X157919400Y51226600D01*
X156763648Y57610100D02*
X156320292Y57610100D01*
X151862231Y45252043D02*
X151675591Y45252043D01*
X157919400Y51226600D02*
X156020148Y51226600D01*
X153850148Y49056600D02*
X153730148Y49056600D01*
G04 #@! TO.N,/SD-D1*
X157119537Y57296600D02*
X157396537Y57573600D01*
X149450148Y40606600D02*
X149780148Y40276600D01*
D43*
G04 #@! TO.N,/SD-A12*
X159075214Y57269922D02*
X157776826Y57269922D01*
X159099759Y57294467D02*
X159075214Y57269922D01*
D41*
X159193470Y50089922D02*
X158510148Y49406600D01*
X162496648Y50089922D02*
X159193470Y50089922D01*
X156070148Y44846600D02*
X155850148Y44626600D01*
X158510148Y49406600D02*
X156430148Y49406600D01*
X156590148Y44846600D02*
X156070148Y44846600D01*
G04 #@! TO.N,/SD-A11*
X149610148Y49456600D02*
X149610148Y48766600D01*
X152807895Y45158949D02*
X152807895Y45568853D01*
X155050148Y44626600D02*
X154680148Y44996600D01*
X152564535Y56646600D02*
X152877297Y56333838D01*
X152807895Y45568853D02*
X149610148Y48766600D01*
D43*
G04 #@! TO.N,/SD-NE1*
X155449403Y56945855D02*
X155150148Y56646600D01*
X148960148Y44626600D02*
X147940148Y43606600D01*
X147940148Y43606600D02*
X147940148Y41136600D01*
X149450148Y44626600D02*
X148960148Y44626600D01*
X155449403Y57015476D02*
X155449403Y56945855D01*
D41*
G04 #@! TO.N,/SD-D0*
X157084522Y56646600D02*
X156787799Y56943323D01*
X150250148Y39826600D02*
X150250148Y39256600D01*
X150250148Y39256600D02*
X150260148Y39246600D01*
G04 #@! TO.N,/SD-A7*
X154582854Y48209306D02*
X154582854Y48779306D01*
X152236648Y56776456D02*
X152236648Y56443100D01*
X151951309Y57061795D02*
X152236648Y56776456D01*
X154582854Y48779306D02*
X155455148Y49651600D01*
X152236648Y56443100D02*
X151900148Y56106600D01*
X155050148Y45451207D02*
X154688298Y45813057D01*
X151900148Y56106600D02*
X151900148Y55996600D01*
X151951309Y57466600D02*
X151951309Y57061795D01*
G04 #@! TO.N,/SD-A10*
X147660148Y48906600D02*
X147203648Y48450100D01*
X147203648Y48450100D02*
X147203648Y47673100D01*
X152240681Y55697133D02*
X152550148Y56006600D01*
X147203648Y47673100D02*
X149450148Y45426600D01*
X152234981Y55697133D02*
X152240681Y55697133D01*
G04 #@! TO.N,/SD-D10*
X156760522Y56321545D02*
X156775100Y56336123D01*
X158261353Y42628755D02*
X156252303Y42628755D01*
X158823541Y42066567D02*
X158261353Y42628755D01*
X156252303Y42628755D02*
X155850148Y42226600D01*
X155150148Y55996600D02*
X155475093Y56321545D01*
X155475093Y56321545D02*
X156760522Y56321545D01*
G04 #@! TO.N,/SD-D15*
X156126826Y38749922D02*
X155050148Y39826600D01*
X156956648Y38749922D02*
X156126826Y38749922D01*
X158290647Y55577127D02*
X157871174Y55996600D01*
X157871174Y55996600D02*
X157750148Y55996600D01*
X158953774Y55102974D02*
X158479621Y55577127D01*
X158479621Y55577127D02*
X158290647Y55577127D01*
X158953774Y55094484D02*
X158953774Y55102974D01*
G04 #@! TO.N,/SD-A6*
X153070148Y46706600D02*
X154250148Y45526600D01*
X151654168Y55072826D02*
X151654168Y55100620D01*
X151654168Y55100620D02*
X151900148Y55346600D01*
X149961416Y51445332D02*
X149961416Y51085332D01*
X153070148Y47976600D02*
X153070148Y46706600D01*
X149961416Y51085332D02*
X153070148Y47976600D01*
G04 #@! TO.N,/SD-A9*
X152252454Y53771044D02*
X152213648Y53809850D01*
X152535648Y47741100D02*
X152535648Y46341100D01*
X152210148Y55006600D02*
X152550148Y55346600D01*
X152210148Y54829956D02*
X152210148Y55006600D01*
X152213648Y53809850D02*
X152213648Y54826456D01*
X152213648Y54826456D02*
X152210148Y54829956D01*
X152535648Y46341100D02*
X154250148Y44626600D01*
X150081828Y50194920D02*
X152535648Y47741100D01*
G04 #@! TO.N,/SD-D5*
X152985490Y51121942D02*
X154971806Y51121942D01*
X148850148Y41906600D02*
X149170148Y42226600D01*
X149170148Y42226600D02*
X149450148Y42226600D01*
X153524955Y55021793D02*
X153200148Y55346600D01*
X153524955Y55019407D02*
X153524955Y55021793D01*
X152770148Y50906600D02*
X152985490Y51121942D01*
X154971806Y51121942D02*
X155027148Y51066600D01*
G04 #@! TO.N,/SD-D6*
X154189658Y55671564D02*
X153864694Y55346600D01*
X155480148Y50236600D02*
X155627148Y50236600D01*
X154206354Y48672806D02*
X154206354Y48962806D01*
X154206354Y48962806D02*
X155480148Y50236600D01*
X154140148Y48606600D02*
X154206354Y48672806D01*
X150650362Y42650061D02*
X150250148Y42249847D01*
G04 #@! TO.N,/SD-D8*
X155422344Y53444567D02*
X155422344Y53782352D01*
X154186648Y55033100D02*
X154500148Y55346600D01*
X154926265Y54156101D02*
X154699266Y54383100D01*
X154699266Y54383100D02*
X154370292Y54383100D01*
X155048596Y54156100D02*
X154926265Y54156101D01*
X155422344Y53782352D02*
X155048596Y54156100D01*
X156816648Y45646600D02*
X157400148Y45063100D01*
X157400148Y45063100D02*
X157400148Y44576600D01*
X154370292Y54383100D02*
X154186648Y54566744D01*
X157400148Y44576600D02*
X155850148Y43026600D01*
X154186648Y54566744D02*
X154186648Y55033100D01*
G04 #@! TO.N,/SD-D11*
X155150148Y55346600D02*
X155486648Y55683100D01*
X157253004Y55683100D02*
X155486648Y55683100D01*
X157889228Y42161311D02*
X158686648Y41363891D01*
X156730172Y41581667D02*
X157309816Y42161311D01*
X157309816Y42161311D02*
X157889228Y42161311D01*
X157425406Y55855502D02*
X157425406Y56306814D01*
X157425406Y56306814D02*
X157425121Y56307099D01*
X155430148Y41786600D02*
X155070148Y41426600D01*
X157253004Y55683100D02*
X157425406Y55855502D01*
G04 #@! TO.N,/SD-D14*
X158532955Y54159407D02*
X158532955Y54549319D01*
X157269581Y55385122D02*
X157231059Y55346600D01*
X157418670Y55385122D02*
X157269581Y55385122D01*
X156256828Y40763280D02*
X156120148Y40626600D01*
X158063648Y55216744D02*
X158063648Y55483100D01*
X158060641Y55021633D02*
X158060641Y55213737D01*
X158060641Y55213737D02*
X158063648Y55216744D01*
X157620292Y55660100D02*
X157436648Y55476456D01*
X157886648Y55660100D02*
X157620292Y55660100D01*
X157436648Y55403100D02*
X157418670Y55385122D01*
X157231059Y55346600D02*
X157100148Y55346600D01*
X158532955Y54549319D02*
X158060641Y55021633D01*
X158063648Y55483100D02*
X157886648Y55660100D01*
X157436648Y55476456D02*
X157436648Y55403100D01*
X156120148Y40626600D02*
X155850148Y40626600D01*
G04 #@! TO.N,/SD-D13*
X157425170Y55021622D02*
X157750148Y55346600D01*
X155050148Y40637972D02*
X155456208Y41044032D01*
G04 #@! TO.N,/SD-NRAS*
X151799795Y52896246D02*
X151799795Y52996952D01*
X151540148Y54336600D02*
X151900148Y54696600D01*
X150250148Y43881064D02*
X149987018Y44144194D01*
X151799795Y52996952D02*
X151540148Y53256599D01*
X151540148Y53256599D02*
X151540148Y54336600D01*
G04 #@! TO.N,/SD-A8*
X152616954Y53936387D02*
X152560148Y53993193D01*
X152560148Y53578447D02*
X152616954Y53635253D01*
X155850148Y45469738D02*
X155559845Y45760041D01*
X152560148Y53301980D02*
X152560148Y53578447D01*
X152560148Y53993193D02*
X152560148Y54686600D01*
X152616954Y53635253D02*
X152616954Y53936387D01*
X152753295Y53108833D02*
X152560148Y53301980D01*
G04 #@! TO.N,/SD-D4*
X147170148Y43106600D02*
X147170148Y46206600D01*
X153260148Y54176600D02*
X153200148Y54236600D01*
X151917148Y50536600D02*
X151727148Y50346600D01*
X153847806Y50536600D02*
X151917148Y50536600D01*
X150632682Y41044066D02*
X150250148Y41426600D01*
X150655660Y41044066D02*
X150632682Y41044066D01*
X147160148Y43096600D02*
X147170148Y43106600D01*
X153200148Y54236600D02*
X153200148Y54696600D01*
X154070148Y50758942D02*
X153847806Y50536600D01*
G04 #@! TO.N,/SD-D7*
X152896623Y49826600D02*
X154106788Y49826600D01*
X148885916Y43026600D02*
X148863648Y43004332D01*
X154106788Y49826600D02*
X154808468Y50528280D01*
X153623148Y53656600D02*
X153623148Y54469600D01*
X153623148Y54469600D02*
X153850148Y54696600D01*
X152739623Y49983600D02*
X152896623Y49826600D01*
X149450148Y43026600D02*
X148885916Y43026600D01*
G04 #@! TO.N,/SD-D9*
X155020293Y54383099D02*
X154706792Y54696600D01*
X155649344Y53754048D02*
X155649343Y53876379D01*
X154706792Y54696600D02*
X154500148Y54696600D01*
X156046648Y53200100D02*
X155785844Y53460904D01*
X155785844Y53460904D02*
X155785844Y53617548D01*
X155785844Y53617548D02*
X155649344Y53754048D01*
X155142623Y54383099D02*
X155020293Y54383099D01*
X155456445Y42632897D02*
X155050148Y42226600D01*
X156361468Y53200100D02*
X156046648Y53200100D01*
X155456445Y42643258D02*
X155456445Y42632897D01*
X156786828Y52774740D02*
X156361468Y53200100D01*
X156786828Y52733280D02*
X156786828Y52774740D01*
X155649343Y53876379D02*
X155142623Y54383099D01*
G04 #@! TO.N,/SD-D12*
X156363353Y53711575D02*
X156012843Y53711575D01*
X156404241Y42265255D02*
X156404241Y41980693D01*
X156764898Y53310030D02*
X156363353Y53711575D01*
X155876343Y53848075D02*
X155876342Y53970406D01*
X156012843Y53711575D02*
X155876343Y53848075D01*
X156404241Y41980693D02*
X155850148Y41426600D01*
X155876342Y53970406D02*
X155150148Y54696600D01*
D42*
G04 #@! TO.N,Net-(U16B--)*
X153801648Y7159922D02*
X155161648Y7159922D01*
X153196648Y4309922D02*
X153831648Y4944922D01*
X153801648Y7159922D02*
X153801648Y5579922D01*
X153831648Y4944922D02*
X153831648Y5549922D01*
D41*
G04 #@! TO.N,Net-(U1A-+)*
X179136648Y58819482D02*
X178862088Y58544922D01*
X178862088Y58544922D02*
X177556648Y58544922D01*
D42*
G04 #@! TO.N,Net-(U3A-+)*
X133026648Y79414922D02*
X131556648Y79414922D01*
D41*
G04 #@! TO.N,Net-(U14A--)*
X171086648Y52204922D02*
X171086648Y51554922D01*
X168905000Y52970000D02*
X169670078Y52204922D01*
X169670078Y52204922D02*
X171086648Y52204922D01*
G04 #@! TO.N,Net-(U14B-+)*
X177875148Y51518422D02*
X177875148Y50291422D01*
X176986648Y51554922D02*
X177838648Y51554922D01*
X177838648Y51554922D02*
X177875148Y51518422D01*
X177875148Y50291422D02*
X177838648Y50254922D01*
X177838648Y50254922D02*
X176986648Y50254922D01*
D42*
G04 #@! TO.N,Net-(U16B-+)*
X153846648Y2519922D02*
X155636648Y729922D01*
X153846648Y3689922D02*
X153846648Y2519922D01*
G04 #@! TO.N,Net-(U10B--)*
X149336648Y26744922D02*
X148181648Y26744922D01*
X148181648Y26744922D02*
X147736648Y26299922D01*
X149336648Y27394922D02*
X149336648Y26744922D01*
G04 #@! TD*
M02*
