M48
; DRILL file {KiCad 8.0.5} date 2024-11-14T10:29:36-0800
; FORMAT={-:-/ absolute / metric / decimal}
; #@! TF.CreationDate,2024-11-14T10:29:36-08:00
; #@! TF.GenerationSoftware,Kicad,Pcbnew,8.0.5
; #@! TF.FileFunction,MixedPlating,1,4
FMAT,2
METRIC
; #@! TA.AperFunction,Plated,PTH,ViaDrill
T1C0.200
; #@! TA.AperFunction,Plated,PTH,ComponentDrill
T2C0.686
; #@! TA.AperFunction,Plated,PTH,ComponentDrill
T3C0.700
; #@! TA.AperFunction,Plated,PTH,ComponentDrill
T4C0.800
; #@! TA.AperFunction,Plated,PTH,ComponentDrill
T5C0.889
; #@! TA.AperFunction,Plated,PTH,ComponentDrill
T6C0.914
; #@! TA.AperFunction,Plated,PTH,ComponentDrill
T7C1.000
; #@! TA.AperFunction,Plated,PTH,ComponentDrill
T8C1.143
; #@! TA.AperFunction,Plated,PTH,ComponentDrill
T9C1.200
%
G90
G05
T1
X-57.33Y40.24
X-56.28Y97.42
X-56.28Y43.91
X-55.23Y54.62
X-55.22Y60.1
X-54.19Y43.54
X-53.83Y40.98
X-53.603Y55.6
X-53.307Y7.17
X-53.307Y5.47
X-53.275Y56.898
X-52.699Y37.954
X-52.655Y55.568
X-52.585Y56.868
X-52.38Y36.46
X-52.075Y55.538
X-51.817Y56.82
X-51.725Y41.053
X-51.67Y106.52
X-51.417Y58.6
X-51.367Y59.4
X-51.03Y38.04
X-50.947Y55.56
X-50.927Y56.71
X-50.56Y82.41
X-50.463Y36.144
X-50.337Y56.77
X-50.247Y55.63
X-50.01Y52.11
X-49.991Y3.25
X-49.607Y56.76
X-49.577Y55.5
X-49.52Y68.7
X-49.38Y51.06
X-49.34Y52.1
X-49.0Y107.727
X-48.875Y52.275
X-48.6Y40.28
X-48.585Y23.2
X-48.531Y6.92
X-48.529Y45.987
X-47.945Y83.36
X-47.761Y4.69
X-47.637Y36.35
X-46.695Y86.635
X-46.651Y10.46
X-46.566Y53.164
X-44.992Y67.19
X-44.99Y66.36
X-44.927Y28.96
X-44.51Y39.69
X-43.855Y58.995
X-43.04Y40.18
X-43.01Y53.66
X-42.9Y79.9
X-41.73Y49.1
X-41.651Y30.71
X-41.136Y13.497
X-41.121Y61.77
X-40.0Y59.136
X-39.775Y47.375
X-39.66Y44.2
X-39.625Y60.89
X-39.536Y92.145
X-39.404Y42.19
X-39.371Y84.35
X-39.36Y40.2
X-39.278Y47.163
X-39.147Y29.11
X-38.991Y59.136
X-38.938Y41.278
X-38.911Y61.35
X-38.699Y66.456
X-38.673Y46.212
X-38.661Y69.48
X-38.63Y105.906
X-38.561Y67.81
X-38.48Y47.57
X-38.401Y7.46
X-38.341Y74.47
X-38.325Y78.57
X-38.325Y75.66
X-38.059Y52.2
X-37.973Y98.557
X-37.901Y57.61
X-37.665Y62.01
X-37.641Y66.62
X-37.621Y58.93
X-37.431Y3.81
X-37.34Y85.59
X-37.169Y54.33
X-37.164Y37.65
X-37.138Y41.643
X-37.122Y49.75
X-36.99Y105.906
X-36.98Y95.86
X-36.941Y60.28
X-36.77Y98.65
X-36.721Y83.22
X-36.695Y31.38
X-36.66Y57.07
X-36.471Y77.75
X-36.396Y62.606
X-36.248Y70.52
X-36.241Y60.25
X-36.24Y53.69
X-36.215Y36.64
X-36.205Y29.63
X-36.181Y67.117
X-36.131Y65.427
X-36.107Y34.71
X-36.091Y69.53
X-35.995Y62.143
X-35.868Y47.678
X-35.868Y50.577
X-35.757Y41.102
X-35.649Y55.737
X-35.648Y70.52
X-35.378Y53.277
X-35.231Y61.45
X-35.2Y43.17
X-35.2Y38.34
X-35.134Y56.032
X-35.07Y105.97
X-35.053Y70.602
X-34.86Y45.413
X-34.848Y50.267
X-34.671Y72.87
X-34.59Y37.6
X-34.526Y70.887
X-34.426Y65.237
X-34.424Y63.934
X-34.298Y48.097
X-34.29Y57.104
X-34.148Y45.737
X-34.131Y44.379
X-34.098Y47.494
X-34.08Y46.877
X-34.08Y46.277
X-33.822Y51.013
X-33.813Y65.855
X-33.771Y67.197
X-33.736Y62.055
X-33.732Y60.666
X-33.484Y41.55
X-33.428Y53.827
X-33.368Y56.663
X-33.258Y44.647
X-33.25Y76.7
X-33.206Y69.18
X-33.189Y49.407
X-33.188Y50.187
X-33.126Y60.697
X-33.125Y67.192
X-33.117Y63.286
X-33.077Y55.815
X-33.057Y6.63
X-33.052Y48.514
X-33.0Y54.608
X-32.778Y43.617
X-32.49Y31.7
X-32.481Y66.547
X-32.387Y44.575
X-32.383Y45.414
X-32.378Y46.997
X-32.147Y8.06
X-32.091Y71.91
X-31.938Y43.427
X-31.928Y63.109
X-31.821Y67.837
X-31.813Y61.417
X-31.763Y57.266
X-31.747Y59.443
X-31.711Y65.847
X-31.621Y30.98
X-31.531Y69.277
X-31.494Y44.713
X-31.45Y61.837
X-31.388Y48.137
X-31.311Y54.717
X-31.176Y49.622
X-31.166Y60.057
X-31.164Y67.843
X-31.149Y58.141
X-31.141Y72.09
X-31.121Y65.547
X-30.784Y53.675
X-30.72Y56.51
X-30.698Y55.686
X-30.648Y57.479
X-30.572Y45.716
X-30.538Y48.817
X-30.531Y59.397
X-30.524Y60.704
X-30.521Y67.187
X-30.347Y47.147
X-30.299Y54.354
X-30.268Y55.277
X-30.231Y49.529
X-30.228Y56.014
X-30.208Y48.117
X-30.141Y58.547
X-29.978Y43.535
X-29.876Y59.389
X-29.778Y58.027
X-29.741Y65.487
X-29.715Y30.17
X-29.699Y61.869
X-29.661Y69.447
X-29.625Y44.181
X-29.525Y34.76
X-29.515Y32.54
X-29.421Y77.56
X-29.373Y46.152
X-29.308Y53.427
X-29.257Y45.615
X-29.221Y60.042
X-29.186Y55.02
X-28.905Y3.395
X-28.901Y61.74
X-28.898Y52.977
X-28.575Y8.01
X-28.456Y52.579
X-28.421Y64.857
X-28.419Y55.42
X-28.411Y1.57
X-28.388Y47.797
X-28.358Y49.367
X-28.35Y50.183
X-28.334Y54.886
X-28.324Y70.47
X-28.171Y62.637
X-28.012Y52.927
X-28.011Y52.107
X-27.979Y57.815
X-27.952Y61.386
X-27.931Y61.989
X-27.781Y26.82
X-27.608Y46.157
X-27.595Y47.78
X-27.583Y54.022
X-27.582Y45.407
X-27.582Y47.013
X-27.479Y50.13
X-27.411Y54.607
X-27.402Y68.902
X-27.311Y66.507
X-27.284Y63.919
X-27.276Y65.247
X-27.271Y62.637
X-27.271Y61.347
X-27.258Y67.807
X-26.782Y45.133
X-26.695Y13.73
X-26.637Y57.68
X-26.634Y46.635
X-26.626Y60.697
X-26.623Y59.374
X-26.615Y57.145
X-26.614Y61.313
X-26.614Y64.619
X-26.568Y48.567
X-26.537Y24.43
X-26.45Y53.777
X-26.448Y49.217
X-26.308Y45.952
X-26.159Y26.357
X-26.082Y43.12
X-25.981Y59.392
X-25.978Y49.9
X-25.976Y60.687
X-25.975Y61.99
X-25.971Y64.597
X-25.874Y45.703
X-25.765Y11.13
X-25.764Y43.912
X-25.521Y70.531
X-25.361Y71.42
X-25.175Y66.65
X-25.152Y56.18
X-25.081Y64.747
X-24.868Y58.529
X-24.82Y47.53
X-24.803Y55.28
X-24.638Y44.357
X-24.617Y28.64
X-24.539Y63.029
X-24.448Y59.465
X-24.441Y63.757
X-24.437Y45.189
X-24.352Y45.734
X-24.35Y64.368
X-24.326Y57.344
X-24.302Y61.665
X-24.215Y46.437
X-23.961Y78.58
X-23.837Y20.99
X-23.7Y71.433
X-23.621Y67.38
X-23.32Y79.84
X-23.105Y69.04
X-23.101Y39.12
X-22.69Y98.47
X-22.69Y87.46
X-22.531Y79.27
X-22.315Y87.95
X-22.295Y69.37
X-22.067Y3.76
X-21.921Y60.476
X-21.88Y39.222
X-21.851Y68.42
X-21.827Y23.28
X-21.68Y70.562
X-21.535Y67.23
X-21.481Y37.39
X-21.39Y46.66
X-21.288Y39.323
X-21.207Y5.86
X-21.105Y65.57
X-20.951Y37.39
X-20.907Y9.3
X-20.64Y38.66
X-20.625Y61.56
X-20.592Y55.57
X-20.542Y54.46
X-20.406Y33.88
X-20.147Y21.45
X-20.105Y63.2
X-20.07Y68.91
X-20.005Y66.58
X-19.94Y49.75
X-19.885Y62.49
X-19.675Y60.73
X-19.64Y88.81
X-19.63Y87.33
X-19.63Y81.66
X-19.62Y72.73
X-19.091Y56.41
X-19.055Y60.17
X-18.99Y57.755
X-18.82Y59.02
X-18.508Y70.902
X-18.461Y56.774
X-18.355Y14.79
X-18.353Y70.427
X-18.335Y9.96
X-18.145Y57.92
X-18.04Y69.99
X-17.893Y61.93
X-17.891Y46.44
X-17.751Y47.03
X-17.494Y12.202
X-16.895Y13.1
X-16.828Y46.48
X-16.47Y38.0
X-16.41Y48.32
X-16.121Y52.24
X-16.087Y11.45
X-15.635Y14.62
X-15.567Y9.32
X-15.241Y36.602
X-15.08Y103.52
X-14.94Y73.2
X-14.927Y20.12
X-14.695Y9.42
X-14.58Y36.62
X-14.535Y35.17
X-14.527Y58.76
X-14.371Y20.172
X-13.557Y56.74
X-13.449Y13.526
X-13.295Y4.43
X-13.207Y58.69
X-13.14Y42.95
X-13.111Y47.982
X-13.037Y57.87
X-13.011Y52.34
X-12.983Y13.707
X-12.68Y67.67
X-12.55Y95.72
X-12.405Y15.34
X-12.144Y52.47
X-11.878Y59.143
X-11.855Y20.85
X-11.724Y46.679
X-11.247Y58.6
X-11.154Y36.16
X-11.151Y38.15
X-10.855Y35.409
X-10.255Y11.52
X-10.15Y47.77
X-10.118Y37.137
X-9.845Y22.25
X-9.77Y58.19
X-9.655Y36.08
X-9.357Y6.6
X-9.295Y19.12
X-9.1Y43.47
X-9.02Y14.196
X-8.785Y35.9
X-8.57Y61.73
X-8.371Y26.74
X-8.205Y23.48
X-7.9Y56.72
X-7.805Y19.2
X-7.74Y46.42
X-7.657Y64.93
X-7.425Y26.55
X-7.367Y21.02
X-7.167Y35.82
X-6.725Y16.14
X-6.521Y34.71
X-6.401Y30.31
X-6.253Y44.224
X-5.87Y96.25
X-5.491Y65.87
X-4.555Y47.087
X-4.16Y57.06
X-1.901Y30.21
X-1.507Y56.03
T2
X-27.953Y86.131
X-27.953Y83.931
X-27.953Y79.531
X-26.853Y87.231
X-26.853Y85.031
X-26.853Y82.831
X-26.853Y80.631
T3
X-27.953Y81.731
T4
X-52.4Y105.4
X-52.4Y99.6
X-50.6Y105.4
X-50.6Y99.6
X-30.431Y102.629
X-30.431Y96.829
X-28.631Y102.629
X-28.631Y96.829
X-8.4Y105.4
X-8.4Y99.6
X-6.6Y105.4
X-6.6Y99.6
T5
X-56.972Y37.065
X-51.206Y16.303
X-51.206Y12.806
X-42.451Y37.065
X-36.685Y16.303
X-36.685Y12.806
X-27.924Y22.069
X-22.158Y12.806
X-22.157Y31.299
X-7.63Y12.806
X-1.865Y37.065
X-1.865Y22.069
T6
X-31.123Y87.674
X-31.123Y79.088
T7
X-54.75Y104.75
X-54.75Y100.25
X-48.25Y104.75
X-48.25Y100.25
X-44.815Y24.09
X-44.815Y21.55
X-44.815Y19.01
X-44.815Y16.47
X-44.815Y13.93
X-42.275Y24.09
X-42.275Y21.55
X-42.275Y19.01
X-42.275Y16.47
X-42.275Y13.93
X-32.527Y101.979
X-32.527Y97.479
X-32.17Y94.06
X-32.17Y91.52
X-29.63Y94.06
X-29.63Y91.52
X-27.09Y94.06
X-27.09Y91.52
X-26.535Y101.979
X-26.535Y97.479
X-24.55Y94.06
X-24.55Y91.52
X-10.75Y104.75
X-10.75Y100.25
X-4.25Y104.75
X-4.25Y100.25
X-2.09Y77.68
X-2.09Y75.14
X-2.09Y72.6
X-2.09Y70.06
T8
X-54.559Y37.065
X-51.206Y27.276
X-51.206Y18.716
X-51.206Y10.393
X-51.206Y1.833
X-45.999Y37.065
X-40.038Y37.065
X-36.685Y27.276
X-36.685Y18.716
X-36.685Y10.393
X-36.685Y1.833
X-31.478Y37.065
X-25.511Y22.069
X-22.158Y10.393
X-22.158Y1.833
X-22.157Y42.272
X-22.157Y33.712
X-16.951Y22.069
X-12.838Y37.065
X-12.838Y22.069
X-7.63Y10.393
X-7.63Y1.833
X-4.278Y37.065
X-4.278Y22.069
T9
X-52.815Y70.455
X-47.815Y70.455
X-46.76Y45.424
X-42.815Y70.455
X-41.76Y45.424
X-36.76Y45.424
X-20.14Y45.424
X-15.82Y70.027
X-15.14Y45.424
X-10.82Y70.027
X-10.14Y45.424
X-5.82Y70.027
M30
