%TF.GenerationSoftware,KiCad,Pcbnew,8.0.5*%
%TF.CreationDate,2024-11-14T10:29:37-08:00*%
%TF.ProjectId,Sampler-built,53616d70-6c65-4722-9d62-75696c742e6b,rev?*%
%TF.SameCoordinates,PX38444c0PY67f3540*%
%TF.FileFunction,Drillmap*%
%TF.FilePolarity,Positive*%
%FSLAX45Y45*%
G04 Gerber Fmt 4.5, Leading zero omitted, Abs format (unit mm)*
G04 Created by KiCad (PCBNEW 8.0.5) date 2024-11-14 10:29:37*
%MOMM*%
%LPD*%
G01*
G04 APERTURE LIST*
%ADD10C,0.150000*%
%ADD11C,0.200000*%
%ADD12C,0.100000*%
%ADD13C,0.114300*%
%ADD14C,0.120000*%
G04 APERTURE END LIST*
D10*
X-5900000Y10900000D02*
X0Y10900000D01*
X0Y0D01*
X-5900000Y0D01*
X-5900000Y10900000D01*
D11*
D12*
X-5743000Y4034000D02*
X-5723000Y4014000D01*
X-5723000Y4034000D02*
X-5743000Y4014000D01*
X-5638000Y9752000D02*
X-5618000Y9732000D01*
X-5618000Y9752000D02*
X-5638000Y9732000D01*
X-5638000Y4401000D02*
X-5618000Y4381000D01*
X-5618000Y4401000D02*
X-5638000Y4381000D01*
X-5533000Y5472000D02*
X-5513000Y5452000D01*
X-5513000Y5472000D02*
X-5533000Y5452000D01*
X-5532000Y6020000D02*
X-5512000Y6000000D01*
X-5512000Y6020000D02*
X-5532000Y6000000D01*
X-5429000Y4364000D02*
X-5409000Y4344000D01*
X-5409000Y4364000D02*
X-5429000Y4344000D01*
X-5393000Y4108000D02*
X-5373000Y4088000D01*
X-5373000Y4108000D02*
X-5393000Y4088000D01*
X-5370288Y5570008D02*
X-5350288Y5550008D01*
X-5350288Y5570008D02*
X-5370288Y5550008D01*
X-5340665Y727008D02*
X-5320665Y707008D01*
X-5320665Y727008D02*
X-5340665Y707008D01*
X-5340665Y557008D02*
X-5320665Y537008D01*
X-5320665Y557008D02*
X-5340665Y537008D01*
X-5337495Y5699838D02*
X-5317495Y5679838D01*
X-5317495Y5699838D02*
X-5337495Y5679838D01*
X-5279930Y3805381D02*
X-5259930Y3785381D01*
X-5259930Y3805381D02*
X-5279930Y3785381D01*
X-5275495Y5566838D02*
X-5255495Y5546838D01*
X-5255495Y5566838D02*
X-5275495Y5546838D01*
X-5268495Y5696838D02*
X-5248495Y5676838D01*
X-5248495Y5696838D02*
X-5268495Y5676838D01*
X-5247983Y3656008D02*
X-5227983Y3636008D01*
X-5227983Y3656008D02*
X-5247983Y3636008D01*
X-5217495Y5563838D02*
X-5197495Y5543838D01*
X-5197495Y5563838D02*
X-5217495Y5543838D01*
X-5191665Y5692008D02*
X-5171665Y5672008D01*
X-5171665Y5692008D02*
X-5191665Y5672008D01*
X-5182536Y4115350D02*
X-5162536Y4095350D01*
X-5162536Y4115350D02*
X-5182536Y4095350D01*
X-5177000Y10662000D02*
X-5157000Y10642000D01*
X-5157000Y10662000D02*
X-5177000Y10642000D01*
X-5151665Y5870008D02*
X-5131665Y5850008D01*
X-5131665Y5870008D02*
X-5151665Y5850008D01*
X-5146665Y5950008D02*
X-5126665Y5930008D01*
X-5126665Y5950008D02*
X-5146665Y5930008D01*
X-5113000Y3814000D02*
X-5093000Y3794000D01*
X-5093000Y3814000D02*
X-5113000Y3794000D01*
X-5104665Y5566008D02*
X-5084665Y5546008D01*
X-5084665Y5566008D02*
X-5104665Y5546008D01*
X-5102665Y5681008D02*
X-5082665Y5661008D01*
X-5082665Y5681008D02*
X-5102665Y5661008D01*
X-5066000Y8251000D02*
X-5046000Y8231000D01*
X-5046000Y8251000D02*
X-5066000Y8231000D01*
X-5056256Y3624446D02*
X-5036256Y3604446D01*
X-5036256Y3624446D02*
X-5056256Y3604446D01*
X-5043665Y5687008D02*
X-5023665Y5667008D01*
X-5023665Y5687008D02*
X-5043665Y5667008D01*
X-5034665Y5573008D02*
X-5014665Y5553008D01*
X-5014665Y5573008D02*
X-5034665Y5553008D01*
X-5011008Y5221008D02*
X-4991008Y5201008D01*
X-4991008Y5221008D02*
X-5011008Y5201008D01*
X-5009143Y335008D02*
X-4989143Y315008D01*
X-4989143Y335008D02*
X-5009143Y315008D01*
X-4970665Y5686008D02*
X-4950665Y5666008D01*
X-4950665Y5686008D02*
X-4970665Y5666008D01*
X-4967665Y5560008D02*
X-4947665Y5540008D01*
X-4947665Y5560008D02*
X-4967665Y5540008D01*
X-4962000Y6880000D02*
X-4942000Y6860000D01*
X-4942000Y6880000D02*
X-4962000Y6860000D01*
X-4948000Y5116000D02*
X-4928000Y5096000D01*
X-4928000Y5116000D02*
X-4948000Y5096000D01*
X-4944000Y5220000D02*
X-4924000Y5200000D01*
X-4924000Y5220000D02*
X-4944000Y5200000D01*
X-4910000Y10782650D02*
X-4890000Y10762650D01*
X-4890000Y10782650D02*
X-4910000Y10762650D01*
X-4897469Y5237469D02*
X-4877469Y5217469D01*
X-4877469Y5237469D02*
X-4897469Y5217469D01*
X-4870000Y4038000D02*
X-4850000Y4018000D01*
X-4850000Y4038000D02*
X-4870000Y4018000D01*
X-4868479Y2330000D02*
X-4848479Y2310000D01*
X-4848479Y2330000D02*
X-4868479Y2310000D01*
X-4863143Y702008D02*
X-4843143Y682008D01*
X-4843143Y702008D02*
X-4863143Y682008D01*
X-4862949Y4608703D02*
X-4842949Y4588703D01*
X-4842949Y4608703D02*
X-4862949Y4588703D01*
X-4804479Y8346000D02*
X-4784479Y8326000D01*
X-4784479Y8346000D02*
X-4804479Y8326000D01*
X-4786143Y479008D02*
X-4766143Y459008D01*
X-4766143Y479008D02*
X-4786143Y459008D01*
X-4773665Y3645008D02*
X-4753665Y3625008D01*
X-4753665Y3645008D02*
X-4773665Y3625008D01*
X-4679479Y8673500D02*
X-4659479Y8653500D01*
X-4659479Y8673500D02*
X-4679479Y8653500D01*
X-4675143Y1056008D02*
X-4655143Y1036008D01*
X-4655143Y1056008D02*
X-4675143Y1036008D01*
X-4666649Y5326414D02*
X-4646649Y5306414D01*
X-4646649Y5326414D02*
X-4666649Y5306414D01*
X-4509175Y6729039D02*
X-4489175Y6709039D01*
X-4489175Y6729039D02*
X-4509175Y6709039D01*
X-4509000Y6646000D02*
X-4489000Y6626000D01*
X-4489000Y6646000D02*
X-4509000Y6626000D01*
X-4502665Y2906008D02*
X-4482665Y2886008D01*
X-4482665Y2906008D02*
X-4502665Y2886008D01*
X-4461000Y3979000D02*
X-4441000Y3959000D01*
X-4441000Y3979000D02*
X-4461000Y3959000D01*
X-4395500Y5909500D02*
X-4375500Y5889500D01*
X-4375500Y5909500D02*
X-4395500Y5889500D01*
X-4314000Y4028000D02*
X-4294000Y4008000D01*
X-4294000Y4028000D02*
X-4314000Y4008000D01*
X-4311000Y5376000D02*
X-4291000Y5356000D01*
X-4291000Y5376000D02*
X-4311000Y5356000D01*
X-4300000Y8000000D02*
X-4280000Y7980000D01*
X-4280000Y8000000D02*
X-4300000Y7980000D01*
X-4183000Y4920000D02*
X-4163000Y4900000D01*
X-4163000Y4920000D02*
X-4183000Y4900000D01*
X-4175143Y3081008D02*
X-4155143Y3061008D01*
X-4155143Y3081008D02*
X-4175143Y3061008D01*
X-4123573Y1359658D02*
X-4103573Y1339658D01*
X-4103573Y1359658D02*
X-4123573Y1339658D01*
X-4122143Y6187008D02*
X-4102143Y6167008D01*
X-4102143Y6187008D02*
X-4122143Y6167008D01*
X-4010000Y5923650D02*
X-3990000Y5903650D01*
X-3990000Y5923650D02*
X-4010000Y5903650D01*
X-3987531Y4747469D02*
X-3967531Y4727469D01*
X-3967531Y4747469D02*
X-3987531Y4727469D01*
X-3976000Y4430000D02*
X-3956000Y4410000D01*
X-3956000Y4430000D02*
X-3976000Y4410000D01*
X-3972493Y6099008D02*
X-3952493Y6079008D01*
X-3952493Y6099008D02*
X-3972493Y6079008D01*
X-3963650Y9224529D02*
X-3943650Y9204529D01*
X-3943650Y9224529D02*
X-3963650Y9204529D01*
X-3950350Y4229000D02*
X-3930350Y4209000D01*
X-3930350Y4229000D02*
X-3950350Y4209000D01*
X-3947143Y8445000D02*
X-3927143Y8425000D01*
X-3927143Y8445000D02*
X-3947143Y8425000D01*
X-3946000Y4030000D02*
X-3926000Y4010000D01*
X-3926000Y4030000D02*
X-3946000Y4010000D01*
X-3937772Y4726329D02*
X-3917772Y4706329D01*
X-3917772Y4726329D02*
X-3937772Y4706329D01*
X-3924665Y2921008D02*
X-3904665Y2901008D01*
X-3904665Y2921008D02*
X-3924665Y2901008D01*
X-3909143Y5923650D02*
X-3889143Y5903650D01*
X-3889143Y5923650D02*
X-3909143Y5903650D01*
X-3903774Y4137774D02*
X-3883774Y4117774D01*
X-3883774Y4137774D02*
X-3903774Y4117774D01*
X-3901143Y6145008D02*
X-3881143Y6125008D01*
X-3881143Y6145008D02*
X-3901143Y6125008D01*
X-3879894Y6655626D02*
X-3859894Y6635626D01*
X-3859894Y6655626D02*
X-3879894Y6635626D01*
X-3877298Y4631235D02*
X-3857298Y4611235D01*
X-3857298Y4631235D02*
X-3877298Y4611235D01*
X-3876143Y6958008D02*
X-3856143Y6938008D01*
X-3856143Y6958008D02*
X-3876143Y6938008D01*
X-3873000Y10600650D02*
X-3853000Y10580650D01*
X-3853000Y10600650D02*
X-3873000Y10580650D01*
X-3866143Y6791008D02*
X-3846143Y6771008D01*
X-3846143Y6791008D02*
X-3866143Y6771008D01*
X-3858000Y4767000D02*
X-3838000Y4747000D01*
X-3838000Y4767000D02*
X-3858000Y4747000D01*
X-3850143Y756008D02*
X-3830143Y736008D01*
X-3830143Y756008D02*
X-3850143Y736008D01*
X-3844143Y7457008D02*
X-3824143Y7437008D01*
X-3824143Y7457008D02*
X-3844143Y7437008D01*
X-3842493Y7867008D02*
X-3822493Y7847008D01*
X-3822493Y7867008D02*
X-3842493Y7847008D01*
X-3842493Y7576008D02*
X-3822493Y7556008D01*
X-3822493Y7576008D02*
X-3842493Y7556008D01*
X-3815855Y5230008D02*
X-3795855Y5210008D01*
X-3795855Y5230008D02*
X-3815855Y5210008D01*
X-3807274Y9865726D02*
X-3787274Y9845726D01*
X-3787274Y9865726D02*
X-3807274Y9845726D01*
X-3800143Y5771008D02*
X-3780143Y5751008D01*
X-3780143Y5771008D02*
X-3800143Y5751008D01*
X-3776487Y6210991D02*
X-3756487Y6190991D01*
X-3756487Y6210991D02*
X-3776487Y6190991D01*
X-3774143Y6672008D02*
X-3754143Y6652008D01*
X-3754143Y6672008D02*
X-3774143Y6652008D01*
X-3772143Y5903008D02*
X-3752143Y5883008D01*
X-3752143Y5903008D02*
X-3772143Y5883008D01*
X-3753143Y391008D02*
X-3733143Y371008D01*
X-3733143Y391008D02*
X-3753143Y371008D01*
X-3744000Y8569000D02*
X-3724000Y8549000D01*
X-3724000Y8569000D02*
X-3744000Y8549000D01*
X-3726855Y5443008D02*
X-3706855Y5423008D01*
X-3706855Y5443008D02*
X-3726855Y5423008D01*
X-3726365Y3775000D02*
X-3706365Y3755000D01*
X-3706365Y3775000D02*
X-3726365Y3755000D01*
X-3723789Y4174280D02*
X-3703789Y4154280D01*
X-3703789Y4174280D02*
X-3723789Y4154280D01*
X-3722190Y4985000D02*
X-3702190Y4965000D01*
X-3702190Y4985000D02*
X-3722190Y4965000D01*
X-3709000Y10600650D02*
X-3689000Y10580650D01*
X-3689000Y10600650D02*
X-3709000Y10580650D01*
X-3708000Y9596000D02*
X-3688000Y9576000D01*
X-3688000Y9596000D02*
X-3708000Y9576000D01*
X-3704143Y6038008D02*
X-3684143Y6018008D01*
X-3684143Y6038008D02*
X-3704143Y6018008D01*
X-3687000Y9875000D02*
X-3667000Y9855000D01*
X-3667000Y9875000D02*
X-3687000Y9855000D01*
X-3682143Y8332000D02*
X-3662143Y8312000D01*
X-3662143Y8332000D02*
X-3682143Y8312000D01*
X-3679478Y3148050D02*
X-3659478Y3128050D01*
X-3659478Y3148050D02*
X-3679478Y3128050D01*
X-3676000Y5717000D02*
X-3656000Y5697000D01*
X-3656000Y5717000D02*
X-3676000Y5697000D01*
X-3657143Y7785008D02*
X-3637143Y7765008D01*
X-3637143Y7785008D02*
X-3657143Y7765008D01*
X-3649600Y6270642D02*
X-3629600Y6250642D01*
X-3629600Y6270642D02*
X-3649600Y6250642D01*
X-3634778Y7062000D02*
X-3614778Y7042000D01*
X-3614778Y7062000D02*
X-3634778Y7042000D01*
X-3634143Y6035008D02*
X-3614143Y6015008D01*
X-3614143Y6035008D02*
X-3634143Y6015008D01*
X-3634000Y5379000D02*
X-3614000Y5359000D01*
X-3614000Y5379000D02*
X-3634000Y5359000D01*
X-3631478Y3674000D02*
X-3611478Y3654000D01*
X-3611478Y3674000D02*
X-3631478Y3654000D01*
X-3630478Y2973000D02*
X-3610478Y2953000D01*
X-3610478Y2973000D02*
X-3630478Y2953000D01*
X-3628128Y6721668D02*
X-3608128Y6701668D01*
X-3608128Y6721668D02*
X-3628128Y6701668D01*
X-3623128Y6552668D02*
X-3603128Y6532668D01*
X-3603128Y6552668D02*
X-3623128Y6532668D01*
X-3620665Y3481008D02*
X-3600665Y3461008D01*
X-3600665Y3481008D02*
X-3620665Y3461008D01*
X-3619143Y6963008D02*
X-3599143Y6943008D01*
X-3599143Y6963008D02*
X-3619143Y6943008D01*
X-3609478Y6224342D02*
X-3589478Y6204342D01*
X-3589478Y6224342D02*
X-3609478Y6204342D01*
X-3596840Y4777828D02*
X-3576840Y4757828D01*
X-3576840Y4777828D02*
X-3596840Y4757828D01*
X-3596840Y5067668D02*
X-3576840Y5047668D01*
X-3576840Y5067668D02*
X-3596840Y5047668D01*
X-3585733Y4120218D02*
X-3565733Y4100218D01*
X-3565733Y4120218D02*
X-3585733Y4100218D01*
X-3574897Y5583707D02*
X-3554897Y5563707D01*
X-3554897Y5583707D02*
X-3574897Y5563707D01*
X-3574778Y7062000D02*
X-3554778Y7042000D01*
X-3554778Y7062000D02*
X-3574778Y7042000D01*
X-3547840Y5337668D02*
X-3527840Y5317668D01*
X-3527840Y5337668D02*
X-3547840Y5317668D01*
X-3533143Y6155008D02*
X-3513143Y6135008D01*
X-3513143Y6155008D02*
X-3533143Y6135008D01*
X-3530000Y4327000D02*
X-3510000Y4307000D01*
X-3510000Y4327000D02*
X-3530000Y4307000D01*
X-3530000Y3844000D02*
X-3510000Y3824000D01*
X-3510000Y3844000D02*
X-3530000Y3824000D01*
X-3523428Y5613212D02*
X-3503428Y5593212D01*
X-3503428Y5613212D02*
X-3523428Y5593212D01*
X-3517000Y10607000D02*
X-3497000Y10587000D01*
X-3497000Y10607000D02*
X-3517000Y10587000D01*
X-3515338Y7070177D02*
X-3495338Y7050177D01*
X-3495338Y7070177D02*
X-3515338Y7050177D01*
X-3496000Y4551303D02*
X-3476000Y4531303D01*
X-3476000Y4551303D02*
X-3496000Y4531303D01*
X-3494840Y5036668D02*
X-3474840Y5016668D01*
X-3474840Y5036668D02*
X-3494840Y5016668D01*
X-3477143Y7297008D02*
X-3457143Y7277008D01*
X-3457143Y7297008D02*
X-3477143Y7277008D01*
X-3469000Y3770000D02*
X-3449000Y3750000D01*
X-3449000Y3770000D02*
X-3469000Y3750000D01*
X-3462564Y7098725D02*
X-3442564Y7078725D01*
X-3442564Y7098725D02*
X-3462564Y7078725D01*
X-3452644Y6533668D02*
X-3432644Y6513668D01*
X-3432644Y6533668D02*
X-3452644Y6513668D01*
X-3452360Y6403429D02*
X-3432360Y6383429D01*
X-3432360Y6403429D02*
X-3452360Y6383429D01*
X-3439840Y4819668D02*
X-3419840Y4799668D01*
X-3419840Y4819668D02*
X-3439840Y4799668D01*
X-3439021Y5720368D02*
X-3419021Y5700368D01*
X-3419021Y5720368D02*
X-3439021Y5700368D01*
X-3424840Y4583668D02*
X-3404840Y4563668D01*
X-3404840Y4583668D02*
X-3424840Y4563668D01*
X-3423126Y4447865D02*
X-3403126Y4427865D01*
X-3403126Y4447865D02*
X-3423126Y4427865D01*
X-3419763Y4759419D02*
X-3399763Y4739419D01*
X-3399763Y4759419D02*
X-3419763Y4739419D01*
X-3418000Y4697668D02*
X-3398000Y4677668D01*
X-3398000Y4697668D02*
X-3418000Y4677668D01*
X-3418000Y4637668D02*
X-3398000Y4617668D01*
X-3398000Y4637668D02*
X-3418000Y4617668D01*
X-3392240Y5111313D02*
X-3372240Y5091313D01*
X-3372240Y5111313D02*
X-3392240Y5091313D01*
X-3391340Y6595456D02*
X-3371340Y6575456D01*
X-3371340Y6595456D02*
X-3391340Y6575456D01*
X-3387128Y6729668D02*
X-3367128Y6709668D01*
X-3367128Y6729668D02*
X-3387128Y6709668D01*
X-3383551Y6215541D02*
X-3363551Y6195541D01*
X-3363551Y6215541D02*
X-3383551Y6195541D01*
X-3383209Y6076568D02*
X-3363209Y6056568D01*
X-3363209Y6076568D02*
X-3383209Y6056568D01*
X-3358376Y4165008D02*
X-3338376Y4145008D01*
X-3338376Y4165008D02*
X-3358376Y4145008D01*
X-3352840Y5392668D02*
X-3332840Y5372668D01*
X-3332840Y5392668D02*
X-3352840Y5372668D01*
X-3346811Y5676318D02*
X-3326811Y5656318D01*
X-3326811Y5676318D02*
X-3346811Y5656318D01*
X-3335840Y4474668D02*
X-3315840Y4454668D01*
X-3315840Y4474668D02*
X-3335840Y4454668D01*
X-3335000Y7680000D02*
X-3315000Y7660000D01*
X-3315000Y7680000D02*
X-3335000Y7660000D01*
X-3330627Y6928008D02*
X-3310627Y6908008D01*
X-3310627Y6928008D02*
X-3330627Y6908008D01*
X-3328870Y4950668D02*
X-3308870Y4930668D01*
X-3308870Y4950668D02*
X-3328870Y4930668D01*
X-3328840Y5028668D02*
X-3308840Y5008668D01*
X-3308840Y5028668D02*
X-3328840Y5008668D01*
X-3322618Y6079668D02*
X-3302618Y6059668D01*
X-3302618Y6079668D02*
X-3322618Y6059668D01*
X-3322478Y6729171D02*
X-3302478Y6709171D01*
X-3302478Y6729171D02*
X-3322478Y6709171D01*
X-3321734Y6338630D02*
X-3301734Y6318630D01*
X-3301734Y6338630D02*
X-3321734Y6318630D01*
X-3317713Y5591541D02*
X-3297713Y5571541D01*
X-3297713Y5591541D02*
X-3317713Y5571541D01*
X-3315665Y673008D02*
X-3295665Y653008D01*
X-3295665Y673008D02*
X-3315665Y653008D01*
X-3315153Y4861427D02*
X-3295153Y4841427D01*
X-3295153Y4861427D02*
X-3315153Y4841427D01*
X-3310008Y5470836D02*
X-3290008Y5450836D01*
X-3290008Y5470836D02*
X-3310008Y5450836D01*
X-3287840Y4371668D02*
X-3267840Y4351668D01*
X-3267840Y4371668D02*
X-3287840Y4351668D01*
X-3258978Y3180000D02*
X-3238978Y3160000D01*
X-3238978Y3180000D02*
X-3258978Y3160000D01*
X-3258128Y6664668D02*
X-3238128Y6644668D01*
X-3238128Y6664668D02*
X-3258128Y6644668D01*
X-3248704Y4467488D02*
X-3228704Y4447488D01*
X-3228704Y4467488D02*
X-3248704Y4447488D01*
X-3248289Y4551414D02*
X-3228289Y4531414D01*
X-3228289Y4551414D02*
X-3248289Y4531414D01*
X-3247840Y4709668D02*
X-3227840Y4689668D01*
X-3227840Y4709668D02*
X-3247840Y4689668D01*
X-3224665Y816000D02*
X-3204665Y796000D01*
X-3204665Y816000D02*
X-3224665Y796000D01*
X-3219143Y7201008D02*
X-3199143Y7181008D01*
X-3199143Y7201008D02*
X-3219143Y7181008D01*
X-3203840Y4352668D02*
X-3183840Y4332668D01*
X-3183840Y4352668D02*
X-3203840Y4332668D01*
X-3202772Y6320882D02*
X-3182772Y6300882D01*
X-3182772Y6320882D02*
X-3202772Y6300882D01*
X-3192128Y6793668D02*
X-3172128Y6773668D01*
X-3172128Y6793668D02*
X-3192128Y6773668D01*
X-3191312Y6151668D02*
X-3171312Y6131668D01*
X-3171312Y6151668D02*
X-3191312Y6131668D01*
X-3186350Y5736632D02*
X-3166350Y5716632D01*
X-3166350Y5736632D02*
X-3186350Y5716632D01*
X-3184726Y5954290D02*
X-3164726Y5934290D01*
X-3164726Y5954290D02*
X-3184726Y5934290D01*
X-3181128Y6594668D02*
X-3161128Y6574668D01*
X-3161128Y6594668D02*
X-3181128Y6574668D01*
X-3172143Y3108000D02*
X-3152143Y3088000D01*
X-3152143Y3108000D02*
X-3172143Y3088000D01*
X-3163128Y6937668D02*
X-3143128Y6917668D01*
X-3143128Y6937668D02*
X-3163128Y6917668D01*
X-3159373Y4481291D02*
X-3139373Y4461291D01*
X-3139373Y4481291D02*
X-3159373Y4461291D01*
X-3155012Y6193668D02*
X-3135012Y6173668D01*
X-3135012Y6193668D02*
X-3155012Y6173668D01*
X-3148840Y4823668D02*
X-3128840Y4803668D01*
X-3128840Y4823668D02*
X-3148840Y4803668D01*
X-3141140Y5481668D02*
X-3121140Y5461668D01*
X-3121140Y5481668D02*
X-3141140Y5461668D01*
X-3127632Y4972212D02*
X-3107632Y4952212D01*
X-3107632Y4972212D02*
X-3127632Y4952212D01*
X-3126645Y6015668D02*
X-3106645Y5995668D01*
X-3106645Y6015668D02*
X-3126645Y5995668D01*
X-3126351Y6794330D02*
X-3106351Y6774330D01*
X-3106351Y6794330D02*
X-3126351Y6774330D01*
X-3124898Y5824112D02*
X-3104898Y5804112D01*
X-3104898Y5824112D02*
X-3124898Y5804112D01*
X-3124143Y7219008D02*
X-3104143Y7199008D01*
X-3104143Y7219008D02*
X-3124143Y7199008D01*
X-3122128Y6564668D02*
X-3102128Y6544668D01*
X-3102128Y6564668D02*
X-3122128Y6544668D01*
X-3088375Y5377539D02*
X-3068375Y5357539D01*
X-3068375Y5377539D02*
X-3088375Y5357539D01*
X-3082000Y5661000D02*
X-3062000Y5641000D01*
X-3062000Y5661000D02*
X-3082000Y5641000D01*
X-3079822Y5578650D02*
X-3059822Y5558650D01*
X-3059822Y5578650D02*
X-3079822Y5558650D01*
X-3074814Y5757891D02*
X-3054814Y5737891D01*
X-3054814Y5757891D02*
X-3074814Y5737891D01*
X-3067244Y4581609D02*
X-3047244Y4561609D01*
X-3047244Y4581609D02*
X-3067244Y4561609D01*
X-3063840Y4891668D02*
X-3043840Y4871668D01*
X-3043840Y4891668D02*
X-3063840Y4871668D01*
X-3063128Y5949668D02*
X-3043128Y5929668D01*
X-3043128Y5949668D02*
X-3063128Y5929668D01*
X-3062414Y6080392D02*
X-3042414Y6060392D01*
X-3042414Y6080392D02*
X-3062414Y6060392D01*
X-3062128Y6728668D02*
X-3042128Y6708668D01*
X-3042128Y6728668D02*
X-3062128Y6708668D01*
X-3044666Y4724725D02*
X-3024666Y4704725D01*
X-3024666Y4724725D02*
X-3044666Y4704725D01*
X-3039892Y5445368D02*
X-3019892Y5425368D01*
X-3019892Y5445368D02*
X-3039892Y5425368D01*
X-3036840Y5537668D02*
X-3016840Y5517668D01*
X-3016840Y5537668D02*
X-3036840Y5517668D01*
X-3033065Y4962903D02*
X-3013065Y4942903D01*
X-3013065Y4962903D02*
X-3033065Y4942903D01*
X-3032840Y5611393D02*
X-3012840Y5591393D01*
X-3012840Y5611393D02*
X-3032840Y5591393D01*
X-3030840Y4821668D02*
X-3010840Y4801668D01*
X-3010840Y4821668D02*
X-3030840Y4801668D01*
X-3024128Y5864668D02*
X-3004128Y5844668D01*
X-3004128Y5864668D02*
X-3024128Y5844668D01*
X-3007779Y4363466D02*
X-2987779Y4343466D01*
X-2987779Y4363466D02*
X-3007779Y4343466D01*
X-2997648Y5948948D02*
X-2977648Y5928948D01*
X-2977648Y5948948D02*
X-2997648Y5928948D01*
X-2987828Y5812668D02*
X-2967828Y5792668D01*
X-2967828Y5812668D02*
X-2987828Y5792668D01*
X-2984128Y6558668D02*
X-2964128Y6538668D01*
X-2964128Y6558668D02*
X-2984128Y6538668D01*
X-2981478Y3027000D02*
X-2961478Y3007000D01*
X-2961478Y3027000D02*
X-2981478Y3007000D01*
X-2979884Y6196912D02*
X-2959884Y6176912D01*
X-2959884Y6196912D02*
X-2979884Y6176912D01*
X-2976128Y6954668D02*
X-2956128Y6934668D01*
X-2956128Y6954668D02*
X-2976128Y6934668D01*
X-2972505Y4428129D02*
X-2952505Y4408129D01*
X-2952505Y4428129D02*
X-2972505Y4408129D01*
X-2962478Y3486000D02*
X-2942478Y3466000D01*
X-2942478Y3486000D02*
X-2962478Y3466000D01*
X-2961478Y3264000D02*
X-2941478Y3244000D01*
X-2941478Y3264000D02*
X-2961478Y3244000D01*
X-2952143Y7766008D02*
X-2932143Y7746008D01*
X-2932143Y7766008D02*
X-2952143Y7746008D01*
X-2947334Y4625157D02*
X-2927334Y4605157D01*
X-2927334Y4625157D02*
X-2947334Y4605157D01*
X-2940840Y5352668D02*
X-2920840Y5332668D01*
X-2920840Y5352668D02*
X-2940840Y5332668D01*
X-2935675Y4571512D02*
X-2915675Y4551512D01*
X-2915675Y4571512D02*
X-2935675Y4551512D01*
X-2932128Y6014164D02*
X-2912128Y5994164D01*
X-2912128Y6014164D02*
X-2932128Y5994164D01*
X-2928556Y5512043D02*
X-2908556Y5492043D01*
X-2908556Y5512043D02*
X-2928556Y5492043D01*
X-2900478Y349500D02*
X-2880478Y329500D01*
X-2880478Y349500D02*
X-2900478Y329500D01*
X-2900143Y6184008D02*
X-2880143Y6164008D01*
X-2880143Y6184008D02*
X-2900143Y6164008D01*
X-2899840Y5307668D02*
X-2879840Y5287668D01*
X-2879840Y5307668D02*
X-2899840Y5287668D01*
X-2867478Y811000D02*
X-2847478Y791000D01*
X-2847478Y811000D02*
X-2867478Y791000D01*
X-2855569Y5267938D02*
X-2835569Y5247938D01*
X-2835569Y5267938D02*
X-2855569Y5247938D01*
X-2852128Y6495668D02*
X-2832128Y6475668D01*
X-2832128Y6495668D02*
X-2852128Y6475668D01*
X-2851878Y5551972D02*
X-2831878Y5531972D01*
X-2831878Y5551972D02*
X-2851878Y5531972D01*
X-2851143Y167008D02*
X-2831143Y147008D01*
X-2831143Y167008D02*
X-2851143Y147008D01*
X-2848840Y4789668D02*
X-2828840Y4769668D01*
X-2828840Y4789668D02*
X-2848840Y4769668D01*
X-2845840Y4946668D02*
X-2825840Y4926668D01*
X-2825840Y4946668D02*
X-2845840Y4926668D01*
X-2845025Y5028314D02*
X-2825025Y5008314D01*
X-2825025Y5028314D02*
X-2845025Y5008314D01*
X-2843417Y5498581D02*
X-2823417Y5478581D01*
X-2823417Y5498581D02*
X-2843417Y5478581D01*
X-2842448Y7056988D02*
X-2822448Y7036988D01*
X-2822448Y7056988D02*
X-2842448Y7036988D01*
X-2827143Y6273672D02*
X-2807143Y6253672D01*
X-2807143Y6273672D02*
X-2827143Y6253672D01*
X-2811190Y5302668D02*
X-2791190Y5282668D01*
X-2791190Y5302668D02*
X-2811190Y5282668D01*
X-2811140Y5220668D02*
X-2791140Y5200668D01*
X-2791140Y5220668D02*
X-2811140Y5200668D01*
X-2807909Y5791464D02*
X-2787909Y5771464D01*
X-2787909Y5791464D02*
X-2807909Y5771464D01*
X-2805203Y6148555D02*
X-2785203Y6128555D01*
X-2785203Y6148555D02*
X-2805203Y6128555D01*
X-2803143Y6208932D02*
X-2783143Y6188932D01*
X-2783143Y6208932D02*
X-2803143Y6188932D01*
X-2788143Y2692008D02*
X-2768143Y2672008D01*
X-2768143Y2692008D02*
X-2788143Y2672008D01*
X-2770840Y4625668D02*
X-2750840Y4605668D01*
X-2750840Y4625668D02*
X-2770840Y4605668D01*
X-2769483Y4788016D02*
X-2749483Y4768016D01*
X-2749483Y4788016D02*
X-2769483Y4768016D01*
X-2768340Y5412168D02*
X-2748340Y5392168D01*
X-2748340Y5412168D02*
X-2768340Y5392168D01*
X-2768234Y4550668D02*
X-2748234Y4530668D01*
X-2748234Y4550668D02*
X-2768234Y4530668D01*
X-2768210Y4711334D02*
X-2748210Y4691334D01*
X-2748210Y4711334D02*
X-2768210Y4691334D01*
X-2757870Y5023012D02*
X-2737870Y5003012D01*
X-2737870Y5023012D02*
X-2757870Y5003012D01*
X-2751140Y5470668D02*
X-2731140Y5450668D01*
X-2731140Y5470668D02*
X-2751140Y5450668D01*
X-2750173Y6900188D02*
X-2730173Y6880188D01*
X-2730173Y6900188D02*
X-2750173Y6880188D01*
X-2741129Y6660668D02*
X-2721129Y6640668D01*
X-2721129Y6660668D02*
X-2741129Y6640668D01*
X-2738436Y6401853D02*
X-2718436Y6381853D01*
X-2718436Y6401853D02*
X-2738436Y6381853D01*
X-2737626Y6534668D02*
X-2717626Y6514668D01*
X-2717626Y6534668D02*
X-2737626Y6514668D01*
X-2737129Y6273668D02*
X-2717129Y6253668D01*
X-2717129Y6273668D02*
X-2737129Y6253668D01*
X-2737129Y6144668D02*
X-2717129Y6124668D01*
X-2717129Y6144668D02*
X-2737129Y6124668D01*
X-2735773Y6790655D02*
X-2715773Y6770655D01*
X-2715773Y6790655D02*
X-2735773Y6770655D01*
X-2688172Y4523336D02*
X-2668172Y4503336D01*
X-2668172Y4523336D02*
X-2688172Y4503336D01*
X-2679479Y1383000D02*
X-2659479Y1363000D01*
X-2659479Y1383000D02*
X-2679479Y1363000D01*
X-2673654Y5778011D02*
X-2653654Y5758011D01*
X-2653654Y5778011D02*
X-2673654Y5758011D01*
X-2673431Y4673533D02*
X-2653431Y4653533D01*
X-2653431Y4673533D02*
X-2673431Y4653533D01*
X-2672633Y6079668D02*
X-2652633Y6059668D01*
X-2652633Y6079668D02*
X-2672633Y6059668D01*
X-2672303Y5947376D02*
X-2652303Y5927376D01*
X-2652303Y5947376D02*
X-2672303Y5927376D01*
X-2671461Y5724482D02*
X-2651461Y5704482D01*
X-2651461Y5724482D02*
X-2671461Y5704482D01*
X-2671363Y6141340D02*
X-2651363Y6121340D01*
X-2651363Y6141340D02*
X-2671363Y6121340D01*
X-2671352Y6471891D02*
X-2651352Y6451891D01*
X-2651352Y6471891D02*
X-2671352Y6451891D01*
X-2666840Y4866668D02*
X-2646840Y4846668D01*
X-2646840Y4866668D02*
X-2666840Y4846668D01*
X-2663665Y2453008D02*
X-2643665Y2433008D01*
X-2643665Y2453008D02*
X-2663665Y2433008D01*
X-2655000Y5387668D02*
X-2635000Y5367668D01*
X-2635000Y5387668D02*
X-2655000Y5367668D01*
X-2654840Y4931668D02*
X-2634840Y4911668D01*
X-2634840Y4931668D02*
X-2654840Y4911668D01*
X-2640838Y4605175D02*
X-2620838Y4585175D01*
X-2620838Y4605175D02*
X-2640838Y4585175D01*
X-2625905Y2645658D02*
X-2605905Y2625658D01*
X-2605905Y2645658D02*
X-2625905Y2625658D01*
X-2618190Y4322000D02*
X-2598190Y4302000D01*
X-2598190Y4322000D02*
X-2618190Y4302000D01*
X-2608129Y5949170D02*
X-2588129Y5929170D01*
X-2588129Y5949170D02*
X-2608129Y5929170D01*
X-2607752Y5000000D02*
X-2587752Y4980000D01*
X-2587752Y5000000D02*
X-2607752Y4980000D01*
X-2607631Y6078668D02*
X-2587631Y6058668D01*
X-2587631Y6078668D02*
X-2607631Y6058668D01*
X-2607479Y6209000D02*
X-2587479Y6189000D01*
X-2587479Y6209000D02*
X-2607479Y6189000D01*
X-2607129Y6469668D02*
X-2587129Y6449668D01*
X-2587129Y6469668D02*
X-2607129Y6449668D01*
X-2597444Y4580276D02*
X-2577444Y4560276D01*
X-2577444Y4580276D02*
X-2597444Y4560276D01*
X-2586479Y1123000D02*
X-2566479Y1103000D01*
X-2566479Y1123000D02*
X-2586479Y1103000D01*
X-2586428Y4401167D02*
X-2566428Y4381167D01*
X-2566428Y4401167D02*
X-2586428Y4381167D01*
X-2562092Y7063050D02*
X-2542092Y7043050D01*
X-2542092Y7063050D02*
X-2562092Y7043050D01*
X-2546143Y7152008D02*
X-2526143Y7132008D01*
X-2526143Y7152008D02*
X-2546143Y7132008D01*
X-2527479Y6675000D02*
X-2507479Y6655000D01*
X-2507479Y6675000D02*
X-2527479Y6655000D01*
X-2525173Y5628040D02*
X-2505173Y5608040D01*
X-2505173Y5628040D02*
X-2525173Y5608040D01*
X-2518129Y6484668D02*
X-2498129Y6464668D01*
X-2498129Y6484668D02*
X-2518129Y6464668D01*
X-2496848Y5862948D02*
X-2476848Y5842948D01*
X-2476848Y5862948D02*
X-2496848Y5842948D01*
X-2492000Y4763000D02*
X-2472000Y4743000D01*
X-2472000Y4763000D02*
X-2492000Y4743000D01*
X-2490255Y5538008D02*
X-2470255Y5518008D01*
X-2470255Y5538008D02*
X-2490255Y5518008D01*
X-2473840Y4445668D02*
X-2453840Y4425668D01*
X-2453840Y4445668D02*
X-2473840Y4425668D01*
X-2471665Y2874008D02*
X-2451665Y2854008D01*
X-2451665Y2874008D02*
X-2471665Y2854008D01*
X-2463909Y6312887D02*
X-2443909Y6292887D01*
X-2443909Y6312887D02*
X-2463909Y6292887D01*
X-2454766Y5956456D02*
X-2434766Y5936456D01*
X-2434766Y5956456D02*
X-2454766Y5936456D01*
X-2454129Y6385668D02*
X-2434129Y6365668D01*
X-2434129Y6385668D02*
X-2454129Y6365668D01*
X-2453658Y4528873D02*
X-2433658Y4508873D01*
X-2433658Y4528873D02*
X-2453658Y4508873D01*
X-2445190Y4583397D02*
X-2425190Y4563397D01*
X-2425190Y4583397D02*
X-2445190Y4563397D01*
X-2444997Y6446800D02*
X-2424997Y6426800D01*
X-2424997Y6446800D02*
X-2444997Y6426800D01*
X-2442588Y5744412D02*
X-2422588Y5724412D01*
X-2422588Y5744412D02*
X-2442588Y5724412D01*
X-2440167Y6176454D02*
X-2420167Y6156454D01*
X-2420167Y6176454D02*
X-2440167Y6156454D01*
X-2431501Y4653665D02*
X-2411501Y4633665D01*
X-2411501Y4653665D02*
X-2431501Y4633665D01*
X-2406129Y7868008D02*
X-2386129Y7848008D01*
X-2386129Y7868008D02*
X-2406129Y7848008D01*
X-2393665Y2109008D02*
X-2373665Y2089008D01*
X-2373665Y2109008D02*
X-2393665Y2089008D01*
X-2380014Y7153350D02*
X-2360014Y7133350D01*
X-2360014Y7153350D02*
X-2380014Y7133350D01*
X-2372143Y6748008D02*
X-2352143Y6728008D01*
X-2352143Y6748008D02*
X-2372143Y6728008D01*
X-2342000Y7994000D02*
X-2322000Y7974000D01*
X-2322000Y7994000D02*
X-2342000Y7974000D01*
X-2320479Y6914000D02*
X-2300479Y6894000D01*
X-2300479Y6914000D02*
X-2320479Y6894000D01*
X-2320143Y3922008D02*
X-2300143Y3902008D01*
X-2300143Y3922008D02*
X-2320143Y3902008D01*
X-2279000Y9857001D02*
X-2259000Y9837001D01*
X-2259000Y9857001D02*
X-2279000Y9837001D01*
X-2279000Y8756000D02*
X-2259000Y8736000D01*
X-2259000Y8756000D02*
X-2279000Y8736000D01*
X-2263129Y7937008D02*
X-2243129Y7917008D01*
X-2243129Y7937008D02*
X-2263129Y7917008D01*
X-2241493Y8805000D02*
X-2221493Y8785000D01*
X-2221493Y8805000D02*
X-2241493Y8785000D01*
X-2239479Y6947000D02*
X-2219479Y6927000D01*
X-2219479Y6947000D02*
X-2239479Y6927000D01*
X-2216665Y386008D02*
X-2196665Y366008D01*
X-2196665Y386008D02*
X-2216665Y366008D01*
X-2202082Y6057557D02*
X-2182082Y6037557D01*
X-2182082Y6057557D02*
X-2202082Y6037557D01*
X-2197964Y3932156D02*
X-2177964Y3912156D01*
X-2177964Y3932156D02*
X-2197964Y3912156D01*
X-2195143Y6852008D02*
X-2175143Y6832008D01*
X-2175143Y6852008D02*
X-2195143Y6832008D01*
X-2192665Y2338008D02*
X-2172665Y2318008D01*
X-2172665Y2338008D02*
X-2192665Y2318008D01*
X-2178000Y7066233D02*
X-2158000Y7046233D01*
X-2158000Y7066233D02*
X-2178000Y7046233D01*
X-2163479Y6733000D02*
X-2143479Y6713000D01*
X-2143479Y6733000D02*
X-2163479Y6713000D01*
X-2158143Y3749008D02*
X-2138143Y3729008D01*
X-2138143Y3749008D02*
X-2158143Y3729008D01*
X-2149000Y4676000D02*
X-2129000Y4656000D01*
X-2129000Y4676000D02*
X-2149000Y4656000D01*
X-2138823Y3942275D02*
X-2118823Y3922275D01*
X-2118823Y3942275D02*
X-2138823Y3922275D01*
X-2130665Y596008D02*
X-2110665Y576008D01*
X-2110665Y596008D02*
X-2130665Y576008D01*
X-2120479Y6567000D02*
X-2100479Y6547000D01*
X-2100479Y6567000D02*
X-2120479Y6547000D01*
X-2105143Y3749008D02*
X-2085143Y3729008D01*
X-2085143Y3749008D02*
X-2105143Y3729008D01*
X-2100665Y940008D02*
X-2080665Y920008D01*
X-2080665Y940008D02*
X-2100665Y920008D01*
X-2074000Y3876000D02*
X-2054000Y3856000D01*
X-2054000Y3876000D02*
X-2074000Y3856000D01*
X-2072478Y6166000D02*
X-2052478Y6146000D01*
X-2052478Y6166000D02*
X-2072478Y6146000D01*
X-2069190Y5567000D02*
X-2049190Y5547000D01*
X-2049190Y5567000D02*
X-2069190Y5547000D01*
X-2064190Y5456000D02*
X-2044190Y5436000D01*
X-2044190Y5456000D02*
X-2064190Y5436000D01*
X-2050650Y3398000D02*
X-2030650Y3378000D01*
X-2030650Y3398000D02*
X-2050650Y3378000D01*
X-2024665Y2155008D02*
X-2004665Y2135008D01*
X-2004665Y2155008D02*
X-2024665Y2135008D01*
X-2020478Y6330000D02*
X-2000478Y6310000D01*
X-2000478Y6330000D02*
X-2020478Y6310000D01*
X-2017000Y6901000D02*
X-1997000Y6881000D01*
X-1997000Y6901000D02*
X-2017000Y6881000D01*
X-2010478Y6668000D02*
X-1990478Y6648000D01*
X-1990478Y6668000D02*
X-2010478Y6648000D01*
X-2004000Y4985000D02*
X-1984000Y4965000D01*
X-1984000Y4985000D02*
X-2004000Y4965000D01*
X-1998478Y6259000D02*
X-1978478Y6239000D01*
X-1978478Y6259000D02*
X-1998478Y6239000D01*
X-1977478Y6083000D02*
X-1957478Y6063000D01*
X-1957478Y6083000D02*
X-1977478Y6063000D01*
X-1974000Y8891000D02*
X-1954000Y8871000D01*
X-1954000Y8891000D02*
X-1974000Y8871000D01*
X-1973000Y8743000D02*
X-1953000Y8723000D01*
X-1953000Y8743000D02*
X-1973000Y8723000D01*
X-1973000Y8176000D02*
X-1953000Y8156000D01*
X-1953000Y8176000D02*
X-1973000Y8156000D01*
X-1972000Y7283000D02*
X-1952000Y7263000D01*
X-1952000Y7283000D02*
X-1972000Y7263000D01*
X-1919143Y5651008D02*
X-1899143Y5631008D01*
X-1899143Y5651008D02*
X-1919143Y5631008D01*
X-1915478Y6027000D02*
X-1895478Y6007000D01*
X-1895478Y6027000D02*
X-1915478Y6007000D01*
X-1908965Y5785486D02*
X-1888965Y5765486D01*
X-1888965Y5785486D02*
X-1908965Y5765486D01*
X-1892050Y5912000D02*
X-1872050Y5892000D01*
X-1872050Y5912000D02*
X-1892050Y5892000D01*
X-1860774Y7100226D02*
X-1840774Y7080226D01*
X-1840774Y7100226D02*
X-1860774Y7080226D01*
X-1856143Y5687358D02*
X-1836143Y5667358D01*
X-1836143Y5687358D02*
X-1856143Y5667358D01*
X-1845478Y1489000D02*
X-1825478Y1469000D01*
X-1825478Y1489000D02*
X-1845478Y1469000D01*
X-1845274Y7052726D02*
X-1825274Y7032726D01*
X-1825274Y7052726D02*
X-1845274Y7032726D01*
X-1843478Y1006008D02*
X-1823478Y986008D01*
X-1823478Y1006008D02*
X-1843478Y986008D01*
X-1824478Y5802000D02*
X-1804478Y5782000D01*
X-1804478Y5802000D02*
X-1824478Y5782000D01*
X-1814000Y7009000D02*
X-1794000Y6989000D01*
X-1794000Y7009000D02*
X-1814000Y6989000D01*
X-1799350Y6203008D02*
X-1779350Y6183008D01*
X-1779350Y6203008D02*
X-1799350Y6183008D01*
X-1799143Y4654008D02*
X-1779143Y4634008D01*
X-1779143Y4654008D02*
X-1799143Y4634008D01*
X-1785143Y4713008D02*
X-1765143Y4693008D01*
X-1765143Y4713008D02*
X-1785143Y4693008D01*
X-1759439Y1230233D02*
X-1739439Y1210233D01*
X-1739439Y1230233D02*
X-1759439Y1210233D01*
X-1699505Y1320000D02*
X-1679505Y1300000D01*
X-1679505Y1320000D02*
X-1699505Y1300000D01*
X-1692788Y4658000D02*
X-1672788Y4638000D01*
X-1672788Y4658000D02*
X-1692788Y4638000D01*
X-1657000Y3810000D02*
X-1637000Y3790000D01*
X-1637000Y3810000D02*
X-1657000Y3790000D01*
X-1651000Y4842000D02*
X-1631000Y4822000D01*
X-1631000Y4842000D02*
X-1651000Y4822000D01*
X-1622143Y5234008D02*
X-1602143Y5214008D01*
X-1602143Y5234008D02*
X-1622143Y5214008D01*
X-1618665Y1155008D02*
X-1598665Y1135008D01*
X-1598665Y1155008D02*
X-1618665Y1135008D01*
X-1573478Y1472000D02*
X-1553478Y1452000D01*
X-1553478Y1472000D02*
X-1573478Y1452000D01*
X-1566665Y942008D02*
X-1546665Y922008D01*
X-1546665Y942008D02*
X-1566665Y922008D01*
X-1534143Y3670150D02*
X-1514143Y3650150D01*
X-1514143Y3670150D02*
X-1534143Y3650150D01*
X-1518000Y10362000D02*
X-1498000Y10342000D01*
X-1498000Y10362000D02*
X-1518000Y10342000D01*
X-1504000Y7330000D02*
X-1484000Y7310000D01*
X-1484000Y7330000D02*
X-1504000Y7310000D01*
X-1502665Y2022008D02*
X-1482665Y2002008D01*
X-1482665Y2022008D02*
X-1502665Y2002008D01*
X-1479478Y952008D02*
X-1459478Y932008D01*
X-1459478Y952008D02*
X-1479478Y932008D01*
X-1468000Y3672000D02*
X-1448000Y3652000D01*
X-1448000Y3672000D02*
X-1468000Y3652000D01*
X-1463478Y3527000D02*
X-1443478Y3507000D01*
X-1443478Y3527000D02*
X-1463478Y3507000D01*
X-1462665Y5886008D02*
X-1442665Y5866008D01*
X-1442665Y5886008D02*
X-1462665Y5866008D01*
X-1447099Y2027160D02*
X-1427099Y2007160D01*
X-1427099Y2027160D02*
X-1447099Y2007160D01*
X-1365665Y5684008D02*
X-1345665Y5664008D01*
X-1345665Y5684008D02*
X-1365665Y5664008D01*
X-1354888Y1362590D02*
X-1334888Y1342590D01*
X-1334888Y1362590D02*
X-1354888Y1342590D01*
X-1339479Y453000D02*
X-1319479Y433000D01*
X-1319479Y453000D02*
X-1339479Y433000D01*
X-1330665Y5879008D02*
X-1310665Y5859008D01*
X-1310665Y5879008D02*
X-1330665Y5859008D01*
X-1324000Y4305000D02*
X-1304000Y4285000D01*
X-1304000Y4305000D02*
X-1324000Y4285000D01*
X-1321143Y4808246D02*
X-1301143Y4788246D01*
X-1301143Y4808246D02*
X-1321143Y4788246D01*
X-1313665Y5797008D02*
X-1293665Y5777008D01*
X-1293665Y5797008D02*
X-1313665Y5777008D01*
X-1311143Y5244008D02*
X-1291143Y5224008D01*
X-1291143Y5244008D02*
X-1311143Y5224008D01*
X-1308335Y1380695D02*
X-1288335Y1360695D01*
X-1288335Y1380695D02*
X-1308335Y1360695D01*
X-1278000Y6777000D02*
X-1258000Y6757000D01*
X-1258000Y6777000D02*
X-1278000Y6757000D01*
X-1265000Y9582000D02*
X-1245000Y9562000D01*
X-1245000Y9582000D02*
X-1265000Y9562000D01*
X-1250479Y1544000D02*
X-1230479Y1524000D01*
X-1230479Y1544000D02*
X-1250479Y1524000D01*
X-1224429Y5257008D02*
X-1204429Y5237008D01*
X-1204429Y5257008D02*
X-1224429Y5237008D01*
X-1197824Y5924259D02*
X-1177824Y5904259D01*
X-1177824Y5924259D02*
X-1197824Y5904259D01*
X-1195479Y2095000D02*
X-1175479Y2075000D01*
X-1175479Y2095000D02*
X-1195479Y2075000D01*
X-1182363Y4677912D02*
X-1162363Y4657912D01*
X-1162363Y4677912D02*
X-1182363Y4657912D01*
X-1134665Y5870008D02*
X-1114665Y5850008D01*
X-1114665Y5870008D02*
X-1134665Y5850008D01*
X-1125411Y3626008D02*
X-1105411Y3606008D01*
X-1105411Y3626008D02*
X-1125411Y3606008D01*
X-1125143Y3825008D02*
X-1105143Y3805008D01*
X-1105143Y3825008D02*
X-1125143Y3805008D01*
X-1095541Y3550938D02*
X-1075541Y3530938D01*
X-1075541Y3550938D02*
X-1095541Y3530938D01*
X-1035478Y1162000D02*
X-1015478Y1142000D01*
X-1015478Y1162000D02*
X-1035478Y1142000D01*
X-1025000Y4787000D02*
X-1005000Y4767000D01*
X-1005000Y4787000D02*
X-1025000Y4767000D01*
X-1021828Y3723700D02*
X-1001828Y3703700D01*
X-1001828Y3723700D02*
X-1021828Y3703700D01*
X-994478Y2235000D02*
X-974478Y2215000D01*
X-974478Y2235000D02*
X-994478Y2215000D01*
X-987000Y5829000D02*
X-967000Y5809000D01*
X-967000Y5829000D02*
X-987000Y5809000D01*
X-975478Y3618000D02*
X-955478Y3598000D01*
X-955478Y3618000D02*
X-975478Y3598000D01*
X-945665Y670008D02*
X-925665Y650008D01*
X-925665Y670008D02*
X-945665Y650008D01*
X-939478Y1922000D02*
X-919478Y1902000D01*
X-919478Y1922000D02*
X-939478Y1902000D01*
X-920000Y4357000D02*
X-900000Y4337000D01*
X-900000Y4357000D02*
X-920000Y4337000D01*
X-912046Y1429626D02*
X-892046Y1409626D01*
X-892046Y1429626D02*
X-912046Y1409626D01*
X-888478Y3600000D02*
X-868478Y3580000D01*
X-868478Y3600000D02*
X-888478Y3580000D01*
X-867000Y6183000D02*
X-847000Y6163000D01*
X-847000Y6183000D02*
X-867000Y6163000D01*
X-847143Y2684008D02*
X-827143Y2664008D01*
X-827143Y2684008D02*
X-847143Y2664008D01*
X-830478Y2358000D02*
X-810478Y2338000D01*
X-810478Y2358000D02*
X-830478Y2338000D01*
X-800000Y5682000D02*
X-780000Y5662000D01*
X-780000Y5682000D02*
X-800000Y5662000D01*
X-790478Y1930000D02*
X-770478Y1910000D01*
X-770478Y1930000D02*
X-790478Y1910000D01*
X-784000Y4652000D02*
X-764000Y4632000D01*
X-764000Y4652000D02*
X-784000Y4632000D01*
X-775665Y6503008D02*
X-755665Y6483008D01*
X-755665Y6503008D02*
X-775665Y6483008D01*
X-752478Y2665000D02*
X-732478Y2645000D01*
X-732478Y2665000D02*
X-752478Y2645000D01*
X-746665Y2112008D02*
X-726665Y2092008D01*
X-726665Y2112008D02*
X-746665Y2092008D01*
X-726665Y3592008D02*
X-706665Y3572008D01*
X-706665Y3592008D02*
X-726665Y3572008D01*
X-682479Y1624000D02*
X-662479Y1604000D01*
X-662479Y1624000D02*
X-682479Y1604000D01*
X-662143Y3481008D02*
X-642143Y3461008D01*
X-642143Y3481008D02*
X-662143Y3461008D01*
X-650143Y3041008D02*
X-630143Y3021008D01*
X-630143Y3041008D02*
X-650143Y3021008D01*
X-635301Y4432364D02*
X-615301Y4412364D01*
X-615301Y4432364D02*
X-635301Y4412364D01*
X-597000Y9635000D02*
X-577000Y9615000D01*
X-577000Y9635000D02*
X-597000Y9615000D01*
X-559143Y6597008D02*
X-539143Y6577008D01*
X-539143Y6597008D02*
X-559143Y6577008D01*
X-465463Y4718688D02*
X-445463Y4698688D01*
X-445463Y4718688D02*
X-465463Y4698688D01*
X-426000Y5716000D02*
X-406000Y5696000D01*
X-406000Y5716000D02*
X-426000Y5696000D01*
X-200143Y3031008D02*
X-180143Y3011008D01*
X-180143Y3031008D02*
X-200143Y3011008D01*
X-160665Y5613008D02*
X-140665Y5593008D01*
X-140665Y5613008D02*
X-160665Y5593008D01*
X-2761010Y8613093D02*
G75*
G02*
X-2829590Y8613093I-34290J0D01*
G01*
X-2829590Y8613093D02*
G75*
G02*
X-2761010Y8613093I34290J0D01*
G01*
X-2761010Y8393104D02*
G75*
G02*
X-2829590Y8393104I-34290J0D01*
G01*
X-2829590Y8393104D02*
G75*
G02*
X-2761010Y8393104I34290J0D01*
G01*
X-2761010Y7953125D02*
G75*
G02*
X-2829590Y7953125I-34290J0D01*
G01*
X-2829590Y7953125D02*
G75*
G02*
X-2761010Y7953125I34290J0D01*
G01*
X-2651028Y8723075D02*
G75*
G02*
X-2719608Y8723075I-34290J0D01*
G01*
X-2719608Y8723075D02*
G75*
G02*
X-2651028Y8723075I34290J0D01*
G01*
X-2651028Y8503086D02*
G75*
G02*
X-2719608Y8503086I-34290J0D01*
G01*
X-2719608Y8503086D02*
G75*
G02*
X-2651028Y8503086I34290J0D01*
G01*
X-2651028Y8283096D02*
G75*
G02*
X-2719608Y8283096I-34290J0D01*
G01*
X-2719608Y8283096D02*
G75*
G02*
X-2651028Y8283096I34290J0D01*
G01*
X-2651028Y8063107D02*
G75*
G02*
X-2719608Y8063107I-34290J0D01*
G01*
X-2719608Y8063107D02*
G75*
G02*
X-2651028Y8063107I34290J0D01*
G01*
X-2795300Y8208103D02*
X-2795300Y8138126D01*
X-2830288Y8173114D02*
X-2760312Y8173114D01*
X-5211716Y10511716D02*
X-5211716Y10568285D01*
X-5268285Y10568285D01*
X-5268285Y10511716D01*
X-5211716Y10511716D01*
X-5211716Y9931716D02*
X-5211716Y9988285D01*
X-5268285Y9988285D01*
X-5268285Y9931716D01*
X-5211716Y9931716D01*
X-5031716Y10511716D02*
X-5031716Y10568285D01*
X-5088285Y10568285D01*
X-5088285Y10511716D01*
X-5031716Y10511716D01*
X-5031716Y9931716D02*
X-5031716Y9988285D01*
X-5088285Y9988285D01*
X-5088285Y9931716D01*
X-5031716Y9931716D01*
X-3014815Y10234616D02*
X-3014815Y10291185D01*
X-3071384Y10291185D01*
X-3071384Y10234616D01*
X-3014815Y10234616D01*
X-3014815Y9654616D02*
X-3014815Y9711185D01*
X-3071384Y9711185D01*
X-3071384Y9654616D01*
X-3014815Y9654616D01*
X-2834815Y10234616D02*
X-2834815Y10291185D01*
X-2891384Y10291185D01*
X-2891384Y10234616D01*
X-2834815Y10234616D01*
X-2834815Y9654616D02*
X-2834815Y9711185D01*
X-2891384Y9711185D01*
X-2891384Y9654616D01*
X-2834815Y9654616D01*
X-811715Y10511716D02*
X-811715Y10568285D01*
X-868284Y10568285D01*
X-868284Y10511716D01*
X-811715Y10511716D01*
X-811715Y9931716D02*
X-811715Y9988285D01*
X-868284Y9988285D01*
X-868284Y9931716D01*
X-811715Y9931716D01*
X-631716Y10511716D02*
X-631716Y10568285D01*
X-688285Y10568285D01*
X-688285Y10511716D01*
X-631716Y10511716D01*
X-631716Y9931716D02*
X-631716Y9988285D01*
X-688285Y9988285D01*
X-688285Y9931716D01*
X-631716Y9931716D01*
X-5697180Y3662050D02*
X-5652730Y3706500D01*
X-5697180Y3750950D01*
X-5741630Y3706500D01*
X-5697180Y3662050D01*
X-5120600Y1585870D02*
X-5076150Y1630320D01*
X-5120600Y1674770D01*
X-5165050Y1630320D01*
X-5120600Y1585870D01*
X-5120600Y1236130D02*
X-5076150Y1280580D01*
X-5120600Y1325030D01*
X-5165050Y1280580D01*
X-5120600Y1236130D01*
X-4245080Y3662050D02*
X-4200630Y3706500D01*
X-4245080Y3750950D01*
X-4289530Y3706500D01*
X-4245080Y3662050D01*
X-3668500Y1585870D02*
X-3624050Y1630320D01*
X-3668500Y1674770D01*
X-3712950Y1630320D01*
X-3668500Y1585870D01*
X-3668500Y1236130D02*
X-3624050Y1280580D01*
X-3668500Y1325030D01*
X-3712950Y1280580D01*
X-3668500Y1236130D01*
X-2792380Y2162450D02*
X-2747930Y2206900D01*
X-2792380Y2251350D01*
X-2836830Y2206900D01*
X-2792380Y2162450D01*
X-2215800Y1236130D02*
X-2171350Y1280580D01*
X-2215800Y1325030D01*
X-2260250Y1280580D01*
X-2215800Y1236130D01*
X-2215700Y3085470D02*
X-2171250Y3129920D01*
X-2215700Y3174370D01*
X-2260150Y3129920D01*
X-2215700Y3085470D01*
X-763000Y1236130D02*
X-718550Y1280580D01*
X-763000Y1325030D01*
X-807450Y1280580D01*
X-763000Y1236130D01*
X-186520Y3662050D02*
X-142070Y3706500D01*
X-186520Y3750950D01*
X-230970Y3706500D01*
X-186520Y3662050D01*
X-186520Y2162450D02*
X-142070Y2206900D01*
X-186520Y2251350D01*
X-230970Y2206900D01*
X-186520Y2162450D01*
X-3158012Y8813080D02*
X-3066572Y8721640D01*
X-3066572Y8813080D02*
X-3158012Y8721640D01*
X-3066572Y8767360D02*
G75*
G02*
X-3158012Y8767360I-45720J0D01*
G01*
X-3158012Y8767360D02*
G75*
G02*
X-3066572Y8767360I45720J0D01*
G01*
X-3158012Y7954560D02*
X-3066572Y7863120D01*
X-3066572Y7954560D02*
X-3158012Y7863120D01*
X-3066572Y7908840D02*
G75*
G02*
X-3158012Y7908840I-45720J0D01*
G01*
X-3158012Y7908840D02*
G75*
G02*
X-3066572Y7908840I45720J0D01*
G01*
X-5525000Y10525000D02*
X-5425000Y10425000D01*
X-5425000Y10525000D02*
X-5525000Y10425000D01*
X-5475000Y10525000D02*
X-5475000Y10425000D01*
X-5525000Y10475000D02*
X-5425000Y10475000D01*
X-5525000Y10075000D02*
X-5425000Y9975000D01*
X-5425000Y10075000D02*
X-5525000Y9975000D01*
X-5475000Y10075000D02*
X-5475000Y9975000D01*
X-5525000Y10025000D02*
X-5425000Y10025000D01*
X-4875000Y10525000D02*
X-4775000Y10425000D01*
X-4775000Y10525000D02*
X-4875000Y10425000D01*
X-4825000Y10525000D02*
X-4825000Y10425000D01*
X-4875000Y10475000D02*
X-4775000Y10475000D01*
X-4875000Y10075000D02*
X-4775000Y9975000D01*
X-4775000Y10075000D02*
X-4875000Y9975000D01*
X-4825000Y10075000D02*
X-4825000Y9975000D01*
X-4875000Y10025000D02*
X-4775000Y10025000D01*
X-4531479Y2459000D02*
X-4431479Y2359000D01*
X-4431479Y2459000D02*
X-4531479Y2359000D01*
X-4481479Y2459000D02*
X-4481479Y2359000D01*
X-4531479Y2409000D02*
X-4431479Y2409000D01*
X-4531479Y2205000D02*
X-4431479Y2105000D01*
X-4431479Y2205000D02*
X-4531479Y2105000D01*
X-4481479Y2205000D02*
X-4481479Y2105000D01*
X-4531479Y2155000D02*
X-4431479Y2155000D01*
X-4531479Y1951000D02*
X-4431479Y1851000D01*
X-4431479Y1951000D02*
X-4531479Y1851000D01*
X-4481479Y1951000D02*
X-4481479Y1851000D01*
X-4531479Y1901000D02*
X-4431479Y1901000D01*
X-4531479Y1697000D02*
X-4431479Y1597000D01*
X-4431479Y1697000D02*
X-4531479Y1597000D01*
X-4481479Y1697000D02*
X-4481479Y1597000D01*
X-4531479Y1647000D02*
X-4431479Y1647000D01*
X-4531479Y1443000D02*
X-4431479Y1343000D01*
X-4431479Y1443000D02*
X-4531479Y1343000D01*
X-4481479Y1443000D02*
X-4481479Y1343000D01*
X-4531479Y1393000D02*
X-4431479Y1393000D01*
X-4277479Y2459000D02*
X-4177478Y2359000D01*
X-4177478Y2459000D02*
X-4277479Y2359000D01*
X-4227479Y2459000D02*
X-4227479Y2359000D01*
X-4277479Y2409000D02*
X-4177478Y2409000D01*
X-4277479Y2205000D02*
X-4177478Y2105000D01*
X-4177478Y2205000D02*
X-4277479Y2105000D01*
X-4227479Y2205000D02*
X-4227479Y2105000D01*
X-4277479Y2155000D02*
X-4177478Y2155000D01*
X-4277479Y1951000D02*
X-4177478Y1851000D01*
X-4177478Y1951000D02*
X-4277479Y1851000D01*
X-4227479Y1951000D02*
X-4227479Y1851000D01*
X-4277479Y1901000D02*
X-4177478Y1901000D01*
X-4277479Y1697000D02*
X-4177478Y1597000D01*
X-4177478Y1697000D02*
X-4277479Y1597000D01*
X-4227479Y1697000D02*
X-4227479Y1597000D01*
X-4277479Y1647000D02*
X-4177478Y1647000D01*
X-4277479Y1443000D02*
X-4177478Y1343000D01*
X-4177478Y1443000D02*
X-4277479Y1343000D01*
X-4227479Y1443000D02*
X-4227479Y1343000D01*
X-4277479Y1393000D02*
X-4177478Y1393000D01*
X-3302700Y10247900D02*
X-3202700Y10147900D01*
X-3202700Y10247900D02*
X-3302700Y10147900D01*
X-3252700Y10247900D02*
X-3252700Y10147900D01*
X-3302700Y10197900D02*
X-3202700Y10197900D01*
X-3302700Y9797900D02*
X-3202700Y9697900D01*
X-3202700Y9797900D02*
X-3302700Y9697900D01*
X-3252700Y9797900D02*
X-3252700Y9697900D01*
X-3302700Y9747900D02*
X-3202700Y9747900D01*
X-3267000Y9456000D02*
X-3167000Y9356000D01*
X-3167000Y9456000D02*
X-3267000Y9356000D01*
X-3217000Y9456000D02*
X-3217000Y9356000D01*
X-3267000Y9406000D02*
X-3167000Y9406000D01*
X-3267000Y9202000D02*
X-3167000Y9102000D01*
X-3167000Y9202000D02*
X-3267000Y9102000D01*
X-3217000Y9202000D02*
X-3217000Y9102000D01*
X-3267000Y9152000D02*
X-3167000Y9152000D01*
X-3013000Y9456000D02*
X-2913000Y9356000D01*
X-2913000Y9456000D02*
X-3013000Y9356000D01*
X-2963000Y9456000D02*
X-2963000Y9356000D01*
X-3013000Y9406000D02*
X-2913000Y9406000D01*
X-3013000Y9202000D02*
X-2913000Y9102000D01*
X-2913000Y9202000D02*
X-3013000Y9102000D01*
X-2963000Y9202000D02*
X-2963000Y9102000D01*
X-3013000Y9152000D02*
X-2913000Y9152000D01*
X-2759000Y9456000D02*
X-2659000Y9356000D01*
X-2659000Y9456000D02*
X-2759000Y9356000D01*
X-2709000Y9456000D02*
X-2709000Y9356000D01*
X-2759000Y9406000D02*
X-2659000Y9406000D01*
X-2759000Y9202000D02*
X-2659000Y9102000D01*
X-2659000Y9202000D02*
X-2759000Y9102000D01*
X-2709000Y9202000D02*
X-2709000Y9102000D01*
X-2759000Y9152000D02*
X-2659000Y9152000D01*
X-2703500Y10247900D02*
X-2603500Y10147900D01*
X-2603500Y10247900D02*
X-2703500Y10147900D01*
X-2653500Y10247900D02*
X-2653500Y10147900D01*
X-2703500Y10197900D02*
X-2603500Y10197900D01*
X-2703500Y9797900D02*
X-2603500Y9697900D01*
X-2603500Y9797900D02*
X-2703500Y9697900D01*
X-2653500Y9797900D02*
X-2653500Y9697900D01*
X-2703500Y9747900D02*
X-2603500Y9747900D01*
X-2505000Y9456000D02*
X-2405000Y9356000D01*
X-2405000Y9456000D02*
X-2505000Y9356000D01*
X-2455000Y9456000D02*
X-2455000Y9356000D01*
X-2505000Y9406000D02*
X-2405000Y9406000D01*
X-2505000Y9202000D02*
X-2405000Y9102000D01*
X-2405000Y9202000D02*
X-2505000Y9102000D01*
X-2455000Y9202000D02*
X-2455000Y9102000D01*
X-2505000Y9152000D02*
X-2405000Y9152000D01*
X-1125000Y10525000D02*
X-1025000Y10425000D01*
X-1025000Y10525000D02*
X-1125000Y10425000D01*
X-1075000Y10525000D02*
X-1075000Y10425000D01*
X-1125000Y10475000D02*
X-1025000Y10475000D01*
X-1125000Y10075000D02*
X-1025000Y9975000D01*
X-1025000Y10075000D02*
X-1125000Y9975000D01*
X-1075000Y10075000D02*
X-1075000Y9975000D01*
X-1125000Y10025000D02*
X-1025000Y10025000D01*
X-475000Y10525000D02*
X-375000Y10425000D01*
X-375000Y10525000D02*
X-475000Y10425000D01*
X-425000Y10525000D02*
X-425000Y10425000D01*
X-475000Y10475000D02*
X-375000Y10475000D01*
X-475000Y10075000D02*
X-375000Y9975000D01*
X-375000Y10075000D02*
X-475000Y9975000D01*
X-425000Y10075000D02*
X-425000Y9975000D01*
X-475000Y10025000D02*
X-375000Y10025000D01*
X-259000Y7818000D02*
X-159000Y7718000D01*
X-159000Y7818000D02*
X-259000Y7718000D01*
X-209000Y7818000D02*
X-209000Y7718000D01*
X-259000Y7768000D02*
X-159000Y7768000D01*
X-259000Y7564000D02*
X-159000Y7464000D01*
X-159000Y7564000D02*
X-259000Y7464000D01*
X-209000Y7564000D02*
X-209000Y7464000D01*
X-259000Y7514000D02*
X-159000Y7514000D01*
X-259000Y7310000D02*
X-159000Y7210000D01*
X-159000Y7310000D02*
X-259000Y7210000D01*
X-209000Y7310000D02*
X-209000Y7210000D01*
X-259000Y7260000D02*
X-159000Y7260000D01*
X-259000Y7056000D02*
X-159000Y6956000D01*
X-159000Y7056000D02*
X-259000Y6956000D01*
X-209000Y7056000D02*
X-209000Y6956000D01*
X-259000Y7006000D02*
X-159000Y7006000D01*
D13*
X-5513030Y3763650D02*
X-5398730Y3649350D01*
X-5398730Y3763650D02*
X-5513030Y3649350D01*
X-5415469Y3666088D02*
X-5415469Y3746911D01*
X-5496292Y3746911D01*
X-5496292Y3666088D01*
X-5415469Y3666088D01*
X-5177750Y2784750D02*
X-5063450Y2670450D01*
X-5063450Y2784750D02*
X-5177750Y2670450D01*
X-5080189Y2687189D02*
X-5080189Y2768012D01*
X-5161012Y2768012D01*
X-5161012Y2687189D01*
X-5080189Y2687189D01*
X-5177750Y1928770D02*
X-5063450Y1814470D01*
X-5063450Y1928770D02*
X-5177750Y1814470D01*
X-5080189Y1831208D02*
X-5080189Y1912031D01*
X-5161012Y1912031D01*
X-5161012Y1831208D01*
X-5080189Y1831208D01*
X-5177750Y1096430D02*
X-5063450Y982130D01*
X-5063450Y1096430D02*
X-5177750Y982130D01*
X-5080189Y998868D02*
X-5080189Y1079692D01*
X-5161012Y1079692D01*
X-5161012Y998868D01*
X-5080189Y998868D01*
X-5177750Y240450D02*
X-5063450Y126150D01*
X-5063450Y240450D02*
X-5177750Y126150D01*
X-5080189Y142889D02*
X-5080189Y223711D01*
X-5161012Y223711D01*
X-5161012Y142889D01*
X-5080189Y142889D01*
X-4657050Y3763650D02*
X-4542750Y3649350D01*
X-4542750Y3763650D02*
X-4657050Y3649350D01*
X-4559489Y3666088D02*
X-4559489Y3746911D01*
X-4640312Y3746911D01*
X-4640312Y3666088D01*
X-4559489Y3666088D01*
X-4060930Y3763650D02*
X-3946630Y3649350D01*
X-3946630Y3763650D02*
X-4060930Y3649350D01*
X-3963368Y3666088D02*
X-3963368Y3746911D01*
X-4044191Y3746911D01*
X-4044191Y3666088D01*
X-3963368Y3666088D01*
X-3725650Y2784750D02*
X-3611350Y2670450D01*
X-3611350Y2784750D02*
X-3725650Y2670450D01*
X-3628088Y2687189D02*
X-3628088Y2768012D01*
X-3708911Y2768012D01*
X-3708911Y2687189D01*
X-3628088Y2687189D01*
X-3725650Y1928770D02*
X-3611350Y1814470D01*
X-3611350Y1928770D02*
X-3725650Y1814470D01*
X-3628088Y1831208D02*
X-3628088Y1912031D01*
X-3708911Y1912031D01*
X-3708911Y1831208D01*
X-3628088Y1831208D01*
X-3725650Y1096430D02*
X-3611350Y982130D01*
X-3611350Y1096430D02*
X-3725650Y982130D01*
X-3628088Y998868D02*
X-3628088Y1079692D01*
X-3708911Y1079692D01*
X-3708911Y998868D01*
X-3628088Y998868D01*
X-3725650Y240450D02*
X-3611350Y126150D01*
X-3611350Y240450D02*
X-3725650Y126150D01*
X-3628088Y142889D02*
X-3628088Y223711D01*
X-3708911Y223711D01*
X-3708911Y142889D01*
X-3628088Y142889D01*
X-3204950Y3763650D02*
X-3090650Y3649350D01*
X-3090650Y3763650D02*
X-3204950Y3649350D01*
X-3107388Y3666088D02*
X-3107388Y3746911D01*
X-3188211Y3746911D01*
X-3188211Y3666088D01*
X-3107388Y3666088D01*
X-2608230Y2264050D02*
X-2493930Y2149750D01*
X-2493930Y2264050D02*
X-2608230Y2149750D01*
X-2510669Y2166489D02*
X-2510669Y2247312D01*
X-2591492Y2247312D01*
X-2591492Y2166489D01*
X-2510669Y2166489D01*
X-2272950Y1096430D02*
X-2158650Y982130D01*
X-2158650Y1096430D02*
X-2272950Y982130D01*
X-2175389Y998868D02*
X-2175389Y1079692D01*
X-2256212Y1079692D01*
X-2256212Y998868D01*
X-2175389Y998868D01*
X-2272950Y240450D02*
X-2158650Y126150D01*
X-2158650Y240450D02*
X-2272950Y126150D01*
X-2175389Y142889D02*
X-2175389Y223711D01*
X-2256212Y223711D01*
X-2256212Y142889D01*
X-2175389Y142889D01*
X-2272850Y4284350D02*
X-2158550Y4170050D01*
X-2158550Y4284350D02*
X-2272850Y4170050D01*
X-2175289Y4186788D02*
X-2175289Y4267612D01*
X-2256112Y4267612D01*
X-2256112Y4186788D01*
X-2175289Y4186788D01*
X-2272850Y3428370D02*
X-2158550Y3314070D01*
X-2158550Y3428370D02*
X-2272850Y3314070D01*
X-2175289Y3330808D02*
X-2175289Y3411631D01*
X-2256112Y3411631D01*
X-2256112Y3330808D01*
X-2175289Y3330808D01*
X-1752250Y2264050D02*
X-1637950Y2149750D01*
X-1637950Y2264050D02*
X-1752250Y2149750D01*
X-1654688Y2166489D02*
X-1654688Y2247312D01*
X-1735511Y2247312D01*
X-1735511Y2166489D01*
X-1654688Y2166489D01*
X-1340950Y3763650D02*
X-1226650Y3649350D01*
X-1226650Y3763650D02*
X-1340950Y3649350D01*
X-1243389Y3666088D02*
X-1243389Y3746911D01*
X-1324212Y3746911D01*
X-1324212Y3666088D01*
X-1243389Y3666088D01*
X-1340950Y2264050D02*
X-1226650Y2149750D01*
X-1226650Y2264050D02*
X-1340950Y2149750D01*
X-1243389Y2166489D02*
X-1243389Y2247312D01*
X-1324212Y2247312D01*
X-1324212Y2166489D01*
X-1243389Y2166489D01*
X-820150Y1096430D02*
X-705850Y982130D01*
X-705850Y1096430D02*
X-820150Y982130D01*
X-722588Y998868D02*
X-722588Y1079692D01*
X-803411Y1079692D01*
X-803411Y998868D01*
X-722588Y998868D01*
X-820150Y240450D02*
X-705850Y126150D01*
X-705850Y240450D02*
X-820150Y126150D01*
X-722588Y142889D02*
X-722588Y223711D01*
X-803411Y223711D01*
X-803411Y142889D01*
X-722588Y142889D01*
X-484970Y3763650D02*
X-370670Y3649350D01*
X-370670Y3763650D02*
X-484970Y3649350D01*
X-387408Y3666088D02*
X-387408Y3746911D01*
X-468231Y3746911D01*
X-468231Y3666088D01*
X-387408Y3666088D01*
X-484970Y2264050D02*
X-370670Y2149750D01*
X-370670Y2264050D02*
X-484970Y2149750D01*
X-387408Y2166489D02*
X-387408Y2247312D01*
X-468231Y2247312D01*
X-468231Y2166489D01*
X-387408Y2166489D01*
D14*
X-5341500Y7105500D02*
X-5221500Y6985500D01*
X-5221500Y7105500D02*
X-5341500Y6985500D01*
X-5281500Y6985500D02*
X-5221500Y7045500D01*
X-5281500Y7105500D01*
X-5341500Y7045500D01*
X-5281500Y6985500D01*
X-4841500Y7105500D02*
X-4721500Y6985500D01*
X-4721500Y7105500D02*
X-4841500Y6985500D01*
X-4781500Y6985500D02*
X-4721500Y7045500D01*
X-4781500Y7105500D01*
X-4841500Y7045500D01*
X-4781500Y6985500D01*
X-4736000Y4602400D02*
X-4616000Y4482400D01*
X-4616000Y4602400D02*
X-4736000Y4482400D01*
X-4676000Y4482400D02*
X-4616000Y4542400D01*
X-4676000Y4602400D01*
X-4736000Y4542400D01*
X-4676000Y4482400D01*
X-4341500Y7105500D02*
X-4221500Y6985500D01*
X-4221500Y7105500D02*
X-4341500Y6985500D01*
X-4281500Y6985500D02*
X-4221500Y7045500D01*
X-4281500Y7105500D01*
X-4341500Y7045500D01*
X-4281500Y6985500D01*
X-4236000Y4602400D02*
X-4116000Y4482400D01*
X-4116000Y4602400D02*
X-4236000Y4482400D01*
X-4176000Y4482400D02*
X-4116000Y4542400D01*
X-4176000Y4602400D01*
X-4236000Y4542400D01*
X-4176000Y4482400D01*
X-3736000Y4602400D02*
X-3616000Y4482400D01*
X-3616000Y4602400D02*
X-3736000Y4482400D01*
X-3676000Y4482400D02*
X-3616000Y4542400D01*
X-3676000Y4602400D01*
X-3736000Y4542400D01*
X-3676000Y4482400D01*
X-2074000Y4602400D02*
X-1954000Y4482400D01*
X-1954000Y4602400D02*
X-2074000Y4482400D01*
X-2014000Y4482400D02*
X-1954000Y4542400D01*
X-2014000Y4602400D01*
X-2074000Y4542400D01*
X-2014000Y4482400D01*
X-1642000Y7062700D02*
X-1522000Y6942700D01*
X-1522000Y7062700D02*
X-1642000Y6942700D01*
X-1582000Y6942700D02*
X-1522000Y7002700D01*
X-1582000Y7062700D01*
X-1642000Y7002700D01*
X-1582000Y6942700D01*
X-1574000Y4602400D02*
X-1454000Y4482400D01*
X-1454000Y4602400D02*
X-1574000Y4482400D01*
X-1514000Y4482400D02*
X-1454000Y4542400D01*
X-1514000Y4602400D01*
X-1574000Y4542400D01*
X-1514000Y4482400D01*
X-1142000Y7062700D02*
X-1022000Y6942700D01*
X-1022000Y7062700D02*
X-1142000Y6942700D01*
X-1082000Y6942700D02*
X-1022000Y7002700D01*
X-1082000Y7062700D01*
X-1142000Y7002700D01*
X-1082000Y6942700D01*
X-1074000Y4602400D02*
X-954000Y4482400D01*
X-954000Y4602400D02*
X-1074000Y4482400D01*
X-1014000Y4482400D02*
X-954000Y4542400D01*
X-1014000Y4602400D01*
X-1074000Y4542400D01*
X-1014000Y4482400D01*
X-642000Y7062700D02*
X-522000Y6942700D01*
X-522000Y7062700D02*
X-642000Y6942700D01*
X-582000Y6942700D02*
X-522000Y7002700D01*
X-582000Y7062700D01*
X-642000Y7002700D01*
X-582000Y6942700D01*
D11*
X-5646723Y-318984D02*
X-5646723Y-118984D01*
X-5646723Y-118984D02*
X-5599104Y-118984D01*
X-5599104Y-118984D02*
X-5570533Y-128508D01*
X-5570533Y-128508D02*
X-5551485Y-147555D01*
X-5551485Y-147555D02*
X-5541961Y-166603D01*
X-5541961Y-166603D02*
X-5532438Y-204698D01*
X-5532438Y-204698D02*
X-5532438Y-233269D01*
X-5532438Y-233269D02*
X-5541961Y-271365D01*
X-5541961Y-271365D02*
X-5551485Y-290412D01*
X-5551485Y-290412D02*
X-5570533Y-309460D01*
X-5570533Y-309460D02*
X-5599104Y-318984D01*
X-5599104Y-318984D02*
X-5646723Y-318984D01*
X-5446723Y-318984D02*
X-5446723Y-185650D01*
X-5446723Y-223746D02*
X-5437199Y-204698D01*
X-5437199Y-204698D02*
X-5427676Y-195174D01*
X-5427676Y-195174D02*
X-5408628Y-185650D01*
X-5408628Y-185650D02*
X-5389580Y-185650D01*
X-5322914Y-318984D02*
X-5322914Y-185650D01*
X-5322914Y-118984D02*
X-5332438Y-128508D01*
X-5332438Y-128508D02*
X-5322914Y-138031D01*
X-5322914Y-138031D02*
X-5313390Y-128508D01*
X-5313390Y-128508D02*
X-5322914Y-118984D01*
X-5322914Y-118984D02*
X-5322914Y-138031D01*
X-5199104Y-318984D02*
X-5218152Y-309460D01*
X-5218152Y-309460D02*
X-5227676Y-290412D01*
X-5227676Y-290412D02*
X-5227676Y-118984D01*
X-5094342Y-318984D02*
X-5113390Y-309460D01*
X-5113390Y-309460D02*
X-5122914Y-290412D01*
X-5122914Y-290412D02*
X-5122914Y-118984D01*
X-4865771Y-318984D02*
X-4865771Y-118984D01*
X-4865771Y-118984D02*
X-4799104Y-261841D01*
X-4799104Y-261841D02*
X-4732438Y-118984D01*
X-4732438Y-118984D02*
X-4732438Y-318984D01*
X-4551485Y-318984D02*
X-4551485Y-214222D01*
X-4551485Y-214222D02*
X-4561009Y-195174D01*
X-4561009Y-195174D02*
X-4580057Y-185650D01*
X-4580057Y-185650D02*
X-4618152Y-185650D01*
X-4618152Y-185650D02*
X-4637199Y-195174D01*
X-4551485Y-309460D02*
X-4570533Y-318984D01*
X-4570533Y-318984D02*
X-4618152Y-318984D01*
X-4618152Y-318984D02*
X-4637199Y-309460D01*
X-4637199Y-309460D02*
X-4646723Y-290412D01*
X-4646723Y-290412D02*
X-4646723Y-271365D01*
X-4646723Y-271365D02*
X-4637199Y-252317D01*
X-4637199Y-252317D02*
X-4618152Y-242793D01*
X-4618152Y-242793D02*
X-4570533Y-242793D01*
X-4570533Y-242793D02*
X-4551485Y-233269D01*
X-4456247Y-185650D02*
X-4456247Y-385650D01*
X-4456247Y-195174D02*
X-4437199Y-185650D01*
X-4437199Y-185650D02*
X-4399104Y-185650D01*
X-4399104Y-185650D02*
X-4380057Y-195174D01*
X-4380057Y-195174D02*
X-4370533Y-204698D01*
X-4370533Y-204698D02*
X-4361009Y-223746D01*
X-4361009Y-223746D02*
X-4361009Y-280889D01*
X-4361009Y-280889D02*
X-4370533Y-299936D01*
X-4370533Y-299936D02*
X-4380057Y-309460D01*
X-4380057Y-309460D02*
X-4399104Y-318984D01*
X-4399104Y-318984D02*
X-4437199Y-318984D01*
X-4437199Y-318984D02*
X-4456247Y-309460D01*
X-4275295Y-299936D02*
X-4265771Y-309460D01*
X-4265771Y-309460D02*
X-4275295Y-318984D01*
X-4275295Y-318984D02*
X-4284818Y-309460D01*
X-4284818Y-309460D02*
X-4275295Y-299936D01*
X-4275295Y-299936D02*
X-4275295Y-318984D01*
X-4275295Y-195174D02*
X-4265771Y-204698D01*
X-4265771Y-204698D02*
X-4275295Y-214222D01*
X-4275295Y-214222D02*
X-4284818Y-204698D01*
X-4284818Y-204698D02*
X-4275295Y-195174D01*
X-4275295Y-195174D02*
X-4275295Y-214222D01*
D12*
X-5927500Y-637500D02*
X-5907500Y-657500D01*
X-5907500Y-637500D02*
X-5927500Y-657500D01*
D11*
X-5608628Y-538984D02*
X-5589580Y-538984D01*
X-5589580Y-538984D02*
X-5570533Y-548508D01*
X-5570533Y-548508D02*
X-5561009Y-558031D01*
X-5561009Y-558031D02*
X-5551485Y-577079D01*
X-5551485Y-577079D02*
X-5541961Y-615174D01*
X-5541961Y-615174D02*
X-5541961Y-662793D01*
X-5541961Y-662793D02*
X-5551485Y-700888D01*
X-5551485Y-700888D02*
X-5561009Y-719936D01*
X-5561009Y-719936D02*
X-5570533Y-729460D01*
X-5570533Y-729460D02*
X-5589580Y-738984D01*
X-5589580Y-738984D02*
X-5608628Y-738984D01*
X-5608628Y-738984D02*
X-5627676Y-729460D01*
X-5627676Y-729460D02*
X-5637199Y-719936D01*
X-5637199Y-719936D02*
X-5646723Y-700888D01*
X-5646723Y-700888D02*
X-5656247Y-662793D01*
X-5656247Y-662793D02*
X-5656247Y-615174D01*
X-5656247Y-615174D02*
X-5646723Y-577079D01*
X-5646723Y-577079D02*
X-5637199Y-558031D01*
X-5637199Y-558031D02*
X-5627676Y-548508D01*
X-5627676Y-548508D02*
X-5608628Y-538984D01*
X-5456247Y-719936D02*
X-5446723Y-729460D01*
X-5446723Y-729460D02*
X-5456247Y-738984D01*
X-5456247Y-738984D02*
X-5465771Y-729460D01*
X-5465771Y-729460D02*
X-5456247Y-719936D01*
X-5456247Y-719936D02*
X-5456247Y-738984D01*
X-5370533Y-558031D02*
X-5361009Y-548508D01*
X-5361009Y-548508D02*
X-5341961Y-538984D01*
X-5341961Y-538984D02*
X-5294342Y-538984D01*
X-5294342Y-538984D02*
X-5275295Y-548508D01*
X-5275295Y-548508D02*
X-5265771Y-558031D01*
X-5265771Y-558031D02*
X-5256247Y-577079D01*
X-5256247Y-577079D02*
X-5256247Y-596127D01*
X-5256247Y-596127D02*
X-5265771Y-624698D01*
X-5265771Y-624698D02*
X-5380057Y-738984D01*
X-5380057Y-738984D02*
X-5256247Y-738984D01*
X-5132438Y-538984D02*
X-5113390Y-538984D01*
X-5113390Y-538984D02*
X-5094342Y-548508D01*
X-5094342Y-548508D02*
X-5084818Y-558031D01*
X-5084818Y-558031D02*
X-5075295Y-577079D01*
X-5075295Y-577079D02*
X-5065771Y-615174D01*
X-5065771Y-615174D02*
X-5065771Y-662793D01*
X-5065771Y-662793D02*
X-5075295Y-700888D01*
X-5075295Y-700888D02*
X-5084818Y-719936D01*
X-5084818Y-719936D02*
X-5094342Y-729460D01*
X-5094342Y-729460D02*
X-5113390Y-738984D01*
X-5113390Y-738984D02*
X-5132438Y-738984D01*
X-5132438Y-738984D02*
X-5151485Y-729460D01*
X-5151485Y-729460D02*
X-5161009Y-719936D01*
X-5161009Y-719936D02*
X-5170533Y-700888D01*
X-5170533Y-700888D02*
X-5180057Y-662793D01*
X-5180057Y-662793D02*
X-5180057Y-615174D01*
X-5180057Y-615174D02*
X-5170533Y-577079D01*
X-5170533Y-577079D02*
X-5161009Y-558031D01*
X-5161009Y-558031D02*
X-5151485Y-548508D01*
X-5151485Y-548508D02*
X-5132438Y-538984D01*
X-4941961Y-538984D02*
X-4922914Y-538984D01*
X-4922914Y-538984D02*
X-4903866Y-548508D01*
X-4903866Y-548508D02*
X-4894342Y-558031D01*
X-4894342Y-558031D02*
X-4884818Y-577079D01*
X-4884818Y-577079D02*
X-4875295Y-615174D01*
X-4875295Y-615174D02*
X-4875295Y-662793D01*
X-4875295Y-662793D02*
X-4884818Y-700888D01*
X-4884818Y-700888D02*
X-4894342Y-719936D01*
X-4894342Y-719936D02*
X-4903866Y-729460D01*
X-4903866Y-729460D02*
X-4922914Y-738984D01*
X-4922914Y-738984D02*
X-4941961Y-738984D01*
X-4941961Y-738984D02*
X-4961009Y-729460D01*
X-4961009Y-729460D02*
X-4970533Y-719936D01*
X-4970533Y-719936D02*
X-4980057Y-700888D01*
X-4980057Y-700888D02*
X-4989580Y-662793D01*
X-4989580Y-662793D02*
X-4989580Y-615174D01*
X-4989580Y-615174D02*
X-4980057Y-577079D01*
X-4980057Y-577079D02*
X-4970533Y-558031D01*
X-4970533Y-558031D02*
X-4961009Y-548508D01*
X-4961009Y-548508D02*
X-4941961Y-538984D01*
X-4789580Y-738984D02*
X-4789580Y-605650D01*
X-4789580Y-624698D02*
X-4780057Y-615174D01*
X-4780057Y-615174D02*
X-4761009Y-605650D01*
X-4761009Y-605650D02*
X-4732437Y-605650D01*
X-4732437Y-605650D02*
X-4713390Y-615174D01*
X-4713390Y-615174D02*
X-4703866Y-634222D01*
X-4703866Y-634222D02*
X-4703866Y-738984D01*
X-4703866Y-634222D02*
X-4694342Y-615174D01*
X-4694342Y-615174D02*
X-4675295Y-605650D01*
X-4675295Y-605650D02*
X-4646723Y-605650D01*
X-4646723Y-605650D02*
X-4627676Y-615174D01*
X-4627676Y-615174D02*
X-4618152Y-634222D01*
X-4618152Y-634222D02*
X-4618152Y-738984D01*
X-4522914Y-738984D02*
X-4522914Y-605650D01*
X-4522914Y-624698D02*
X-4513390Y-615174D01*
X-4513390Y-615174D02*
X-4494342Y-605650D01*
X-4494342Y-605650D02*
X-4465771Y-605650D01*
X-4465771Y-605650D02*
X-4446723Y-615174D01*
X-4446723Y-615174D02*
X-4437199Y-634222D01*
X-4437199Y-634222D02*
X-4437199Y-738984D01*
X-4437199Y-634222D02*
X-4427676Y-615174D01*
X-4427676Y-615174D02*
X-4408628Y-605650D01*
X-4408628Y-605650D02*
X-4380057Y-605650D01*
X-4380057Y-605650D02*
X-4361009Y-615174D01*
X-4361009Y-615174D02*
X-4351485Y-634222D01*
X-4351485Y-634222D02*
X-4351485Y-738984D01*
X-3961009Y-529460D02*
X-4132437Y-786603D01*
X-3703866Y-538984D02*
X-3684818Y-538984D01*
X-3684818Y-538984D02*
X-3665771Y-548508D01*
X-3665771Y-548508D02*
X-3656247Y-558031D01*
X-3656247Y-558031D02*
X-3646723Y-577079D01*
X-3646723Y-577079D02*
X-3637199Y-615174D01*
X-3637199Y-615174D02*
X-3637199Y-662793D01*
X-3637199Y-662793D02*
X-3646723Y-700888D01*
X-3646723Y-700888D02*
X-3656247Y-719936D01*
X-3656247Y-719936D02*
X-3665771Y-729460D01*
X-3665771Y-729460D02*
X-3684818Y-738984D01*
X-3684818Y-738984D02*
X-3703866Y-738984D01*
X-3703866Y-738984D02*
X-3722913Y-729460D01*
X-3722913Y-729460D02*
X-3732437Y-719936D01*
X-3732437Y-719936D02*
X-3741961Y-700888D01*
X-3741961Y-700888D02*
X-3751485Y-662793D01*
X-3751485Y-662793D02*
X-3751485Y-615174D01*
X-3751485Y-615174D02*
X-3741961Y-577079D01*
X-3741961Y-577079D02*
X-3732437Y-558031D01*
X-3732437Y-558031D02*
X-3722913Y-548508D01*
X-3722913Y-548508D02*
X-3703866Y-538984D01*
X-3551485Y-719936D02*
X-3541961Y-729460D01*
X-3541961Y-729460D02*
X-3551485Y-738984D01*
X-3551485Y-738984D02*
X-3561009Y-729460D01*
X-3561009Y-729460D02*
X-3551485Y-719936D01*
X-3551485Y-719936D02*
X-3551485Y-738984D01*
X-3418152Y-538984D02*
X-3399104Y-538984D01*
X-3399104Y-538984D02*
X-3380056Y-548508D01*
X-3380056Y-548508D02*
X-3370532Y-558031D01*
X-3370532Y-558031D02*
X-3361009Y-577079D01*
X-3361009Y-577079D02*
X-3351485Y-615174D01*
X-3351485Y-615174D02*
X-3351485Y-662793D01*
X-3351485Y-662793D02*
X-3361009Y-700888D01*
X-3361009Y-700888D02*
X-3370532Y-719936D01*
X-3370532Y-719936D02*
X-3380056Y-729460D01*
X-3380056Y-729460D02*
X-3399104Y-738984D01*
X-3399104Y-738984D02*
X-3418152Y-738984D01*
X-3418152Y-738984D02*
X-3437199Y-729460D01*
X-3437199Y-729460D02*
X-3446723Y-719936D01*
X-3446723Y-719936D02*
X-3456247Y-700888D01*
X-3456247Y-700888D02*
X-3465771Y-662793D01*
X-3465771Y-662793D02*
X-3465771Y-615174D01*
X-3465771Y-615174D02*
X-3456247Y-577079D01*
X-3456247Y-577079D02*
X-3446723Y-558031D01*
X-3446723Y-558031D02*
X-3437199Y-548508D01*
X-3437199Y-548508D02*
X-3418152Y-538984D01*
X-3227675Y-538984D02*
X-3208628Y-538984D01*
X-3208628Y-538984D02*
X-3189580Y-548508D01*
X-3189580Y-548508D02*
X-3180056Y-558031D01*
X-3180056Y-558031D02*
X-3170532Y-577079D01*
X-3170532Y-577079D02*
X-3161009Y-615174D01*
X-3161009Y-615174D02*
X-3161009Y-662793D01*
X-3161009Y-662793D02*
X-3170532Y-700888D01*
X-3170532Y-700888D02*
X-3180056Y-719936D01*
X-3180056Y-719936D02*
X-3189580Y-729460D01*
X-3189580Y-729460D02*
X-3208628Y-738984D01*
X-3208628Y-738984D02*
X-3227675Y-738984D01*
X-3227675Y-738984D02*
X-3246723Y-729460D01*
X-3246723Y-729460D02*
X-3256247Y-719936D01*
X-3256247Y-719936D02*
X-3265771Y-700888D01*
X-3265771Y-700888D02*
X-3275294Y-662793D01*
X-3275294Y-662793D02*
X-3275294Y-615174D01*
X-3275294Y-615174D02*
X-3265771Y-577079D01*
X-3265771Y-577079D02*
X-3256247Y-558031D01*
X-3256247Y-558031D02*
X-3246723Y-548508D01*
X-3246723Y-548508D02*
X-3227675Y-538984D01*
X-3094342Y-538984D02*
X-2961009Y-538984D01*
X-2961009Y-538984D02*
X-3046723Y-738984D01*
X-2875294Y-738984D02*
X-2837199Y-738984D01*
X-2837199Y-738984D02*
X-2818151Y-729460D01*
X-2818151Y-729460D02*
X-2808628Y-719936D01*
X-2808628Y-719936D02*
X-2789580Y-691365D01*
X-2789580Y-691365D02*
X-2780056Y-653270D01*
X-2780056Y-653270D02*
X-2780056Y-577079D01*
X-2780056Y-577079D02*
X-2789580Y-558031D01*
X-2789580Y-558031D02*
X-2799104Y-548508D01*
X-2799104Y-548508D02*
X-2818151Y-538984D01*
X-2818151Y-538984D02*
X-2856247Y-538984D01*
X-2856247Y-538984D02*
X-2875294Y-548508D01*
X-2875294Y-548508D02*
X-2884818Y-558031D01*
X-2884818Y-558031D02*
X-2894342Y-577079D01*
X-2894342Y-577079D02*
X-2894342Y-624698D01*
X-2894342Y-624698D02*
X-2884818Y-643746D01*
X-2884818Y-643746D02*
X-2875294Y-653270D01*
X-2875294Y-653270D02*
X-2856247Y-662793D01*
X-2856247Y-662793D02*
X-2818151Y-662793D01*
X-2818151Y-662793D02*
X-2799104Y-653270D01*
X-2799104Y-653270D02*
X-2789580Y-643746D01*
X-2789580Y-643746D02*
X-2780056Y-624698D01*
X-2703866Y-538984D02*
X-2703866Y-577079D01*
X-2627675Y-538984D02*
X-2627675Y-577079D01*
X-2332437Y-815174D02*
X-2341961Y-805650D01*
X-2341961Y-805650D02*
X-2361009Y-777079D01*
X-2361009Y-777079D02*
X-2370532Y-758031D01*
X-2370532Y-758031D02*
X-2380056Y-729460D01*
X-2380056Y-729460D02*
X-2389580Y-681841D01*
X-2389580Y-681841D02*
X-2389580Y-643746D01*
X-2389580Y-643746D02*
X-2380056Y-596127D01*
X-2380056Y-596127D02*
X-2370532Y-567555D01*
X-2370532Y-567555D02*
X-2361009Y-548508D01*
X-2361009Y-548508D02*
X-2341961Y-519936D01*
X-2341961Y-519936D02*
X-2332437Y-510412D01*
X-2170532Y-605650D02*
X-2170532Y-738984D01*
X-2218152Y-529460D02*
X-2265771Y-672317D01*
X-2265771Y-672317D02*
X-2141961Y-672317D01*
X-2075294Y-558031D02*
X-2065770Y-548508D01*
X-2065770Y-548508D02*
X-2046723Y-538984D01*
X-2046723Y-538984D02*
X-1999104Y-538984D01*
X-1999104Y-538984D02*
X-1980056Y-548508D01*
X-1980056Y-548508D02*
X-1970532Y-558031D01*
X-1970532Y-558031D02*
X-1961009Y-577079D01*
X-1961009Y-577079D02*
X-1961009Y-596127D01*
X-1961009Y-596127D02*
X-1970532Y-624698D01*
X-1970532Y-624698D02*
X-2084818Y-738984D01*
X-2084818Y-738984D02*
X-1961009Y-738984D01*
X-1837199Y-538984D02*
X-1818151Y-538984D01*
X-1818151Y-538984D02*
X-1799104Y-548508D01*
X-1799104Y-548508D02*
X-1789580Y-558031D01*
X-1789580Y-558031D02*
X-1780056Y-577079D01*
X-1780056Y-577079D02*
X-1770532Y-615174D01*
X-1770532Y-615174D02*
X-1770532Y-662793D01*
X-1770532Y-662793D02*
X-1780056Y-700888D01*
X-1780056Y-700888D02*
X-1789580Y-719936D01*
X-1789580Y-719936D02*
X-1799104Y-729460D01*
X-1799104Y-729460D02*
X-1818151Y-738984D01*
X-1818151Y-738984D02*
X-1837199Y-738984D01*
X-1837199Y-738984D02*
X-1856247Y-729460D01*
X-1856247Y-729460D02*
X-1865770Y-719936D01*
X-1865770Y-719936D02*
X-1875294Y-700888D01*
X-1875294Y-700888D02*
X-1884818Y-662793D01*
X-1884818Y-662793D02*
X-1884818Y-615174D01*
X-1884818Y-615174D02*
X-1875294Y-577079D01*
X-1875294Y-577079D02*
X-1865770Y-558031D01*
X-1865770Y-558031D02*
X-1856247Y-548508D01*
X-1856247Y-548508D02*
X-1837199Y-538984D01*
X-1532437Y-738984D02*
X-1532437Y-538984D01*
X-1446723Y-738984D02*
X-1446723Y-634222D01*
X-1446723Y-634222D02*
X-1456247Y-615174D01*
X-1456247Y-615174D02*
X-1475294Y-605650D01*
X-1475294Y-605650D02*
X-1503866Y-605650D01*
X-1503866Y-605650D02*
X-1522913Y-615174D01*
X-1522913Y-615174D02*
X-1532437Y-624698D01*
X-1322913Y-738984D02*
X-1341961Y-729460D01*
X-1341961Y-729460D02*
X-1351485Y-719936D01*
X-1351485Y-719936D02*
X-1361009Y-700888D01*
X-1361009Y-700888D02*
X-1361009Y-643746D01*
X-1361009Y-643746D02*
X-1351485Y-624698D01*
X-1351485Y-624698D02*
X-1341961Y-615174D01*
X-1341961Y-615174D02*
X-1322913Y-605650D01*
X-1322913Y-605650D02*
X-1294342Y-605650D01*
X-1294342Y-605650D02*
X-1275294Y-615174D01*
X-1275294Y-615174D02*
X-1265770Y-624698D01*
X-1265770Y-624698D02*
X-1256247Y-643746D01*
X-1256247Y-643746D02*
X-1256247Y-700888D01*
X-1256247Y-700888D02*
X-1265770Y-719936D01*
X-1265770Y-719936D02*
X-1275294Y-729460D01*
X-1275294Y-729460D02*
X-1294342Y-738984D01*
X-1294342Y-738984D02*
X-1322913Y-738984D01*
X-1141961Y-738984D02*
X-1161009Y-729460D01*
X-1161009Y-729460D02*
X-1170532Y-710412D01*
X-1170532Y-710412D02*
X-1170532Y-538984D01*
X-989580Y-729460D02*
X-1008627Y-738984D01*
X-1008627Y-738984D02*
X-1046723Y-738984D01*
X-1046723Y-738984D02*
X-1065770Y-729460D01*
X-1065770Y-729460D02*
X-1075294Y-710412D01*
X-1075294Y-710412D02*
X-1075294Y-634222D01*
X-1075294Y-634222D02*
X-1065770Y-615174D01*
X-1065770Y-615174D02*
X-1046723Y-605650D01*
X-1046723Y-605650D02*
X-1008627Y-605650D01*
X-1008627Y-605650D02*
X-989580Y-615174D01*
X-989580Y-615174D02*
X-980056Y-634222D01*
X-980056Y-634222D02*
X-980056Y-653270D01*
X-980056Y-653270D02*
X-1075294Y-672317D01*
X-903866Y-729460D02*
X-884818Y-738984D01*
X-884818Y-738984D02*
X-846723Y-738984D01*
X-846723Y-738984D02*
X-827675Y-729460D01*
X-827675Y-729460D02*
X-818151Y-710412D01*
X-818151Y-710412D02*
X-818151Y-700888D01*
X-818151Y-700888D02*
X-827675Y-681841D01*
X-827675Y-681841D02*
X-846723Y-672317D01*
X-846723Y-672317D02*
X-875294Y-672317D01*
X-875294Y-672317D02*
X-894342Y-662793D01*
X-894342Y-662793D02*
X-903866Y-643746D01*
X-903866Y-643746D02*
X-903866Y-634222D01*
X-903866Y-634222D02*
X-894342Y-615174D01*
X-894342Y-615174D02*
X-875294Y-605650D01*
X-875294Y-605650D02*
X-846723Y-605650D01*
X-846723Y-605650D02*
X-827675Y-615174D01*
X-751485Y-815174D02*
X-741961Y-805650D01*
X-741961Y-805650D02*
X-722913Y-777079D01*
X-722913Y-777079D02*
X-713389Y-758031D01*
X-713389Y-758031D02*
X-703866Y-729460D01*
X-703866Y-729460D02*
X-694342Y-681841D01*
X-694342Y-681841D02*
X-694342Y-643746D01*
X-694342Y-643746D02*
X-703866Y-596127D01*
X-703866Y-596127D02*
X-713389Y-567555D01*
X-713389Y-567555D02*
X-722913Y-548508D01*
X-722913Y-548508D02*
X-741961Y-519936D01*
X-741961Y-519936D02*
X-751485Y-510412D01*
D12*
X-5907500Y-911500D02*
G75*
G02*
X-5976080Y-911500I-34290J0D01*
G01*
X-5976080Y-911500D02*
G75*
G02*
X-5907500Y-911500I34290J0D01*
G01*
D11*
X-5608628Y-802984D02*
X-5589580Y-802984D01*
X-5589580Y-802984D02*
X-5570533Y-812508D01*
X-5570533Y-812508D02*
X-5561009Y-822031D01*
X-5561009Y-822031D02*
X-5551485Y-841079D01*
X-5551485Y-841079D02*
X-5541961Y-879174D01*
X-5541961Y-879174D02*
X-5541961Y-926793D01*
X-5541961Y-926793D02*
X-5551485Y-964888D01*
X-5551485Y-964888D02*
X-5561009Y-983936D01*
X-5561009Y-983936D02*
X-5570533Y-993460D01*
X-5570533Y-993460D02*
X-5589580Y-1002984D01*
X-5589580Y-1002984D02*
X-5608628Y-1002984D01*
X-5608628Y-1002984D02*
X-5627676Y-993460D01*
X-5627676Y-993460D02*
X-5637199Y-983936D01*
X-5637199Y-983936D02*
X-5646723Y-964888D01*
X-5646723Y-964888D02*
X-5656247Y-926793D01*
X-5656247Y-926793D02*
X-5656247Y-879174D01*
X-5656247Y-879174D02*
X-5646723Y-841079D01*
X-5646723Y-841079D02*
X-5637199Y-822031D01*
X-5637199Y-822031D02*
X-5627676Y-812508D01*
X-5627676Y-812508D02*
X-5608628Y-802984D01*
X-5456247Y-983936D02*
X-5446723Y-993460D01*
X-5446723Y-993460D02*
X-5456247Y-1002984D01*
X-5456247Y-1002984D02*
X-5465771Y-993460D01*
X-5465771Y-993460D02*
X-5456247Y-983936D01*
X-5456247Y-983936D02*
X-5456247Y-1002984D01*
X-5275295Y-802984D02*
X-5313390Y-802984D01*
X-5313390Y-802984D02*
X-5332438Y-812508D01*
X-5332438Y-812508D02*
X-5341961Y-822031D01*
X-5341961Y-822031D02*
X-5361009Y-850603D01*
X-5361009Y-850603D02*
X-5370533Y-888698D01*
X-5370533Y-888698D02*
X-5370533Y-964888D01*
X-5370533Y-964888D02*
X-5361009Y-983936D01*
X-5361009Y-983936D02*
X-5351485Y-993460D01*
X-5351485Y-993460D02*
X-5332438Y-1002984D01*
X-5332438Y-1002984D02*
X-5294342Y-1002984D01*
X-5294342Y-1002984D02*
X-5275295Y-993460D01*
X-5275295Y-993460D02*
X-5265771Y-983936D01*
X-5265771Y-983936D02*
X-5256247Y-964888D01*
X-5256247Y-964888D02*
X-5256247Y-917269D01*
X-5256247Y-917269D02*
X-5265771Y-898222D01*
X-5265771Y-898222D02*
X-5275295Y-888698D01*
X-5275295Y-888698D02*
X-5294342Y-879174D01*
X-5294342Y-879174D02*
X-5332438Y-879174D01*
X-5332438Y-879174D02*
X-5351485Y-888698D01*
X-5351485Y-888698D02*
X-5361009Y-898222D01*
X-5361009Y-898222D02*
X-5370533Y-917269D01*
X-5141961Y-888698D02*
X-5161009Y-879174D01*
X-5161009Y-879174D02*
X-5170533Y-869650D01*
X-5170533Y-869650D02*
X-5180057Y-850603D01*
X-5180057Y-850603D02*
X-5180057Y-841079D01*
X-5180057Y-841079D02*
X-5170533Y-822031D01*
X-5170533Y-822031D02*
X-5161009Y-812508D01*
X-5161009Y-812508D02*
X-5141961Y-802984D01*
X-5141961Y-802984D02*
X-5103866Y-802984D01*
X-5103866Y-802984D02*
X-5084818Y-812508D01*
X-5084818Y-812508D02*
X-5075295Y-822031D01*
X-5075295Y-822031D02*
X-5065771Y-841079D01*
X-5065771Y-841079D02*
X-5065771Y-850603D01*
X-5065771Y-850603D02*
X-5075295Y-869650D01*
X-5075295Y-869650D02*
X-5084818Y-879174D01*
X-5084818Y-879174D02*
X-5103866Y-888698D01*
X-5103866Y-888698D02*
X-5141961Y-888698D01*
X-5141961Y-888698D02*
X-5161009Y-898222D01*
X-5161009Y-898222D02*
X-5170533Y-907746D01*
X-5170533Y-907746D02*
X-5180057Y-926793D01*
X-5180057Y-926793D02*
X-5180057Y-964888D01*
X-5180057Y-964888D02*
X-5170533Y-983936D01*
X-5170533Y-983936D02*
X-5161009Y-993460D01*
X-5161009Y-993460D02*
X-5141961Y-1002984D01*
X-5141961Y-1002984D02*
X-5103866Y-1002984D01*
X-5103866Y-1002984D02*
X-5084818Y-993460D01*
X-5084818Y-993460D02*
X-5075295Y-983936D01*
X-5075295Y-983936D02*
X-5065771Y-964888D01*
X-5065771Y-964888D02*
X-5065771Y-926793D01*
X-5065771Y-926793D02*
X-5075295Y-907746D01*
X-5075295Y-907746D02*
X-5084818Y-898222D01*
X-5084818Y-898222D02*
X-5103866Y-888698D01*
X-4894342Y-802984D02*
X-4932438Y-802984D01*
X-4932438Y-802984D02*
X-4951485Y-812508D01*
X-4951485Y-812508D02*
X-4961009Y-822031D01*
X-4961009Y-822031D02*
X-4980057Y-850603D01*
X-4980057Y-850603D02*
X-4989580Y-888698D01*
X-4989580Y-888698D02*
X-4989580Y-964888D01*
X-4989580Y-964888D02*
X-4980057Y-983936D01*
X-4980057Y-983936D02*
X-4970533Y-993460D01*
X-4970533Y-993460D02*
X-4951485Y-1002984D01*
X-4951485Y-1002984D02*
X-4913390Y-1002984D01*
X-4913390Y-1002984D02*
X-4894342Y-993460D01*
X-4894342Y-993460D02*
X-4884818Y-983936D01*
X-4884818Y-983936D02*
X-4875295Y-964888D01*
X-4875295Y-964888D02*
X-4875295Y-917269D01*
X-4875295Y-917269D02*
X-4884818Y-898222D01*
X-4884818Y-898222D02*
X-4894342Y-888698D01*
X-4894342Y-888698D02*
X-4913390Y-879174D01*
X-4913390Y-879174D02*
X-4951485Y-879174D01*
X-4951485Y-879174D02*
X-4970533Y-888698D01*
X-4970533Y-888698D02*
X-4980057Y-898222D01*
X-4980057Y-898222D02*
X-4989580Y-917269D01*
X-4789580Y-1002984D02*
X-4789580Y-869650D01*
X-4789580Y-888698D02*
X-4780057Y-879174D01*
X-4780057Y-879174D02*
X-4761009Y-869650D01*
X-4761009Y-869650D02*
X-4732437Y-869650D01*
X-4732437Y-869650D02*
X-4713390Y-879174D01*
X-4713390Y-879174D02*
X-4703866Y-898222D01*
X-4703866Y-898222D02*
X-4703866Y-1002984D01*
X-4703866Y-898222D02*
X-4694342Y-879174D01*
X-4694342Y-879174D02*
X-4675295Y-869650D01*
X-4675295Y-869650D02*
X-4646723Y-869650D01*
X-4646723Y-869650D02*
X-4627676Y-879174D01*
X-4627676Y-879174D02*
X-4618152Y-898222D01*
X-4618152Y-898222D02*
X-4618152Y-1002984D01*
X-4522914Y-1002984D02*
X-4522914Y-869650D01*
X-4522914Y-888698D02*
X-4513390Y-879174D01*
X-4513390Y-879174D02*
X-4494342Y-869650D01*
X-4494342Y-869650D02*
X-4465771Y-869650D01*
X-4465771Y-869650D02*
X-4446723Y-879174D01*
X-4446723Y-879174D02*
X-4437199Y-898222D01*
X-4437199Y-898222D02*
X-4437199Y-1002984D01*
X-4437199Y-898222D02*
X-4427676Y-879174D01*
X-4427676Y-879174D02*
X-4408628Y-869650D01*
X-4408628Y-869650D02*
X-4380057Y-869650D01*
X-4380057Y-869650D02*
X-4361009Y-879174D01*
X-4361009Y-879174D02*
X-4351485Y-898222D01*
X-4351485Y-898222D02*
X-4351485Y-1002984D01*
X-3961009Y-793460D02*
X-4132437Y-1050603D01*
X-3703866Y-802984D02*
X-3684818Y-802984D01*
X-3684818Y-802984D02*
X-3665771Y-812508D01*
X-3665771Y-812508D02*
X-3656247Y-822031D01*
X-3656247Y-822031D02*
X-3646723Y-841079D01*
X-3646723Y-841079D02*
X-3637199Y-879174D01*
X-3637199Y-879174D02*
X-3637199Y-926793D01*
X-3637199Y-926793D02*
X-3646723Y-964888D01*
X-3646723Y-964888D02*
X-3656247Y-983936D01*
X-3656247Y-983936D02*
X-3665771Y-993460D01*
X-3665771Y-993460D02*
X-3684818Y-1002984D01*
X-3684818Y-1002984D02*
X-3703866Y-1002984D01*
X-3703866Y-1002984D02*
X-3722913Y-993460D01*
X-3722913Y-993460D02*
X-3732437Y-983936D01*
X-3732437Y-983936D02*
X-3741961Y-964888D01*
X-3741961Y-964888D02*
X-3751485Y-926793D01*
X-3751485Y-926793D02*
X-3751485Y-879174D01*
X-3751485Y-879174D02*
X-3741961Y-841079D01*
X-3741961Y-841079D02*
X-3732437Y-822031D01*
X-3732437Y-822031D02*
X-3722913Y-812508D01*
X-3722913Y-812508D02*
X-3703866Y-802984D01*
X-3551485Y-983936D02*
X-3541961Y-993460D01*
X-3541961Y-993460D02*
X-3551485Y-1002984D01*
X-3551485Y-1002984D02*
X-3561009Y-993460D01*
X-3561009Y-993460D02*
X-3551485Y-983936D01*
X-3551485Y-983936D02*
X-3551485Y-1002984D01*
X-3418152Y-802984D02*
X-3399104Y-802984D01*
X-3399104Y-802984D02*
X-3380056Y-812508D01*
X-3380056Y-812508D02*
X-3370532Y-822031D01*
X-3370532Y-822031D02*
X-3361009Y-841079D01*
X-3361009Y-841079D02*
X-3351485Y-879174D01*
X-3351485Y-879174D02*
X-3351485Y-926793D01*
X-3351485Y-926793D02*
X-3361009Y-964888D01*
X-3361009Y-964888D02*
X-3370532Y-983936D01*
X-3370532Y-983936D02*
X-3380056Y-993460D01*
X-3380056Y-993460D02*
X-3399104Y-1002984D01*
X-3399104Y-1002984D02*
X-3418152Y-1002984D01*
X-3418152Y-1002984D02*
X-3437199Y-993460D01*
X-3437199Y-993460D02*
X-3446723Y-983936D01*
X-3446723Y-983936D02*
X-3456247Y-964888D01*
X-3456247Y-964888D02*
X-3465771Y-926793D01*
X-3465771Y-926793D02*
X-3465771Y-879174D01*
X-3465771Y-879174D02*
X-3456247Y-841079D01*
X-3456247Y-841079D02*
X-3446723Y-822031D01*
X-3446723Y-822031D02*
X-3437199Y-812508D01*
X-3437199Y-812508D02*
X-3418152Y-802984D01*
X-3275294Y-822031D02*
X-3265771Y-812508D01*
X-3265771Y-812508D02*
X-3246723Y-802984D01*
X-3246723Y-802984D02*
X-3199104Y-802984D01*
X-3199104Y-802984D02*
X-3180056Y-812508D01*
X-3180056Y-812508D02*
X-3170532Y-822031D01*
X-3170532Y-822031D02*
X-3161009Y-841079D01*
X-3161009Y-841079D02*
X-3161009Y-860127D01*
X-3161009Y-860127D02*
X-3170532Y-888698D01*
X-3170532Y-888698D02*
X-3284818Y-1002984D01*
X-3284818Y-1002984D02*
X-3161009Y-1002984D01*
X-3094342Y-802984D02*
X-2961009Y-802984D01*
X-2961009Y-802984D02*
X-3046723Y-1002984D01*
X-2846723Y-802984D02*
X-2827675Y-802984D01*
X-2827675Y-802984D02*
X-2808628Y-812508D01*
X-2808628Y-812508D02*
X-2799104Y-822031D01*
X-2799104Y-822031D02*
X-2789580Y-841079D01*
X-2789580Y-841079D02*
X-2780056Y-879174D01*
X-2780056Y-879174D02*
X-2780056Y-926793D01*
X-2780056Y-926793D02*
X-2789580Y-964888D01*
X-2789580Y-964888D02*
X-2799104Y-983936D01*
X-2799104Y-983936D02*
X-2808628Y-993460D01*
X-2808628Y-993460D02*
X-2827675Y-1002984D01*
X-2827675Y-1002984D02*
X-2846723Y-1002984D01*
X-2846723Y-1002984D02*
X-2865771Y-993460D01*
X-2865771Y-993460D02*
X-2875294Y-983936D01*
X-2875294Y-983936D02*
X-2884818Y-964888D01*
X-2884818Y-964888D02*
X-2894342Y-926793D01*
X-2894342Y-926793D02*
X-2894342Y-879174D01*
X-2894342Y-879174D02*
X-2884818Y-841079D01*
X-2884818Y-841079D02*
X-2875294Y-822031D01*
X-2875294Y-822031D02*
X-2865771Y-812508D01*
X-2865771Y-812508D02*
X-2846723Y-802984D01*
X-2703866Y-802984D02*
X-2703866Y-841079D01*
X-2627675Y-802984D02*
X-2627675Y-841079D01*
X-2332437Y-1079174D02*
X-2341961Y-1069650D01*
X-2341961Y-1069650D02*
X-2361009Y-1041079D01*
X-2361009Y-1041079D02*
X-2370532Y-1022031D01*
X-2370532Y-1022031D02*
X-2380056Y-993460D01*
X-2380056Y-993460D02*
X-2389580Y-945841D01*
X-2389580Y-945841D02*
X-2389580Y-907746D01*
X-2389580Y-907746D02*
X-2380056Y-860127D01*
X-2380056Y-860127D02*
X-2370532Y-831555D01*
X-2370532Y-831555D02*
X-2361009Y-812508D01*
X-2361009Y-812508D02*
X-2341961Y-783936D01*
X-2341961Y-783936D02*
X-2332437Y-774412D01*
X-2275294Y-802984D02*
X-2141961Y-802984D01*
X-2141961Y-802984D02*
X-2227675Y-1002984D01*
X-1913389Y-1002984D02*
X-1913389Y-802984D01*
X-1827675Y-1002984D02*
X-1827675Y-898222D01*
X-1827675Y-898222D02*
X-1837199Y-879174D01*
X-1837199Y-879174D02*
X-1856247Y-869650D01*
X-1856247Y-869650D02*
X-1884818Y-869650D01*
X-1884818Y-869650D02*
X-1903866Y-879174D01*
X-1903866Y-879174D02*
X-1913389Y-888698D01*
X-1703866Y-1002984D02*
X-1722913Y-993460D01*
X-1722913Y-993460D02*
X-1732437Y-983936D01*
X-1732437Y-983936D02*
X-1741961Y-964888D01*
X-1741961Y-964888D02*
X-1741961Y-907746D01*
X-1741961Y-907746D02*
X-1732437Y-888698D01*
X-1732437Y-888698D02*
X-1722913Y-879174D01*
X-1722913Y-879174D02*
X-1703866Y-869650D01*
X-1703866Y-869650D02*
X-1675294Y-869650D01*
X-1675294Y-869650D02*
X-1656247Y-879174D01*
X-1656247Y-879174D02*
X-1646723Y-888698D01*
X-1646723Y-888698D02*
X-1637199Y-907746D01*
X-1637199Y-907746D02*
X-1637199Y-964888D01*
X-1637199Y-964888D02*
X-1646723Y-983936D01*
X-1646723Y-983936D02*
X-1656247Y-993460D01*
X-1656247Y-993460D02*
X-1675294Y-1002984D01*
X-1675294Y-1002984D02*
X-1703866Y-1002984D01*
X-1522913Y-1002984D02*
X-1541961Y-993460D01*
X-1541961Y-993460D02*
X-1551485Y-974412D01*
X-1551485Y-974412D02*
X-1551485Y-802984D01*
X-1370532Y-993460D02*
X-1389580Y-1002984D01*
X-1389580Y-1002984D02*
X-1427675Y-1002984D01*
X-1427675Y-1002984D02*
X-1446723Y-993460D01*
X-1446723Y-993460D02*
X-1456247Y-974412D01*
X-1456247Y-974412D02*
X-1456247Y-898222D01*
X-1456247Y-898222D02*
X-1446723Y-879174D01*
X-1446723Y-879174D02*
X-1427675Y-869650D01*
X-1427675Y-869650D02*
X-1389580Y-869650D01*
X-1389580Y-869650D02*
X-1370532Y-879174D01*
X-1370532Y-879174D02*
X-1361009Y-898222D01*
X-1361009Y-898222D02*
X-1361009Y-917269D01*
X-1361009Y-917269D02*
X-1456247Y-936317D01*
X-1284818Y-993460D02*
X-1265770Y-1002984D01*
X-1265770Y-1002984D02*
X-1227675Y-1002984D01*
X-1227675Y-1002984D02*
X-1208628Y-993460D01*
X-1208628Y-993460D02*
X-1199104Y-974412D01*
X-1199104Y-974412D02*
X-1199104Y-964888D01*
X-1199104Y-964888D02*
X-1208628Y-945841D01*
X-1208628Y-945841D02*
X-1227675Y-936317D01*
X-1227675Y-936317D02*
X-1256247Y-936317D01*
X-1256247Y-936317D02*
X-1275294Y-926793D01*
X-1275294Y-926793D02*
X-1284818Y-907746D01*
X-1284818Y-907746D02*
X-1284818Y-898222D01*
X-1284818Y-898222D02*
X-1275294Y-879174D01*
X-1275294Y-879174D02*
X-1256247Y-869650D01*
X-1256247Y-869650D02*
X-1227675Y-869650D01*
X-1227675Y-869650D02*
X-1208628Y-879174D01*
X-1132437Y-1079174D02*
X-1122913Y-1069650D01*
X-1122913Y-1069650D02*
X-1103866Y-1041079D01*
X-1103866Y-1041079D02*
X-1094342Y-1022031D01*
X-1094342Y-1022031D02*
X-1084818Y-993460D01*
X-1084818Y-993460D02*
X-1075294Y-945841D01*
X-1075294Y-945841D02*
X-1075294Y-907746D01*
X-1075294Y-907746D02*
X-1084818Y-860127D01*
X-1084818Y-860127D02*
X-1094342Y-831555D01*
X-1094342Y-831555D02*
X-1103866Y-812508D01*
X-1103866Y-812508D02*
X-1122913Y-783936D01*
X-1122913Y-783936D02*
X-1132437Y-774412D01*
D12*
X-5942488Y-1140512D02*
X-5942488Y-1210489D01*
X-5977477Y-1175500D02*
X-5907500Y-1175500D01*
D11*
X-5608628Y-1066984D02*
X-5589580Y-1066984D01*
X-5589580Y-1066984D02*
X-5570533Y-1076508D01*
X-5570533Y-1076508D02*
X-5561009Y-1086031D01*
X-5561009Y-1086031D02*
X-5551485Y-1105079D01*
X-5551485Y-1105079D02*
X-5541961Y-1143174D01*
X-5541961Y-1143174D02*
X-5541961Y-1190793D01*
X-5541961Y-1190793D02*
X-5551485Y-1228889D01*
X-5551485Y-1228889D02*
X-5561009Y-1247936D01*
X-5561009Y-1247936D02*
X-5570533Y-1257460D01*
X-5570533Y-1257460D02*
X-5589580Y-1266984D01*
X-5589580Y-1266984D02*
X-5608628Y-1266984D01*
X-5608628Y-1266984D02*
X-5627676Y-1257460D01*
X-5627676Y-1257460D02*
X-5637199Y-1247936D01*
X-5637199Y-1247936D02*
X-5646723Y-1228889D01*
X-5646723Y-1228889D02*
X-5656247Y-1190793D01*
X-5656247Y-1190793D02*
X-5656247Y-1143174D01*
X-5656247Y-1143174D02*
X-5646723Y-1105079D01*
X-5646723Y-1105079D02*
X-5637199Y-1086031D01*
X-5637199Y-1086031D02*
X-5627676Y-1076508D01*
X-5627676Y-1076508D02*
X-5608628Y-1066984D01*
X-5456247Y-1247936D02*
X-5446723Y-1257460D01*
X-5446723Y-1257460D02*
X-5456247Y-1266984D01*
X-5456247Y-1266984D02*
X-5465771Y-1257460D01*
X-5465771Y-1257460D02*
X-5456247Y-1247936D01*
X-5456247Y-1247936D02*
X-5456247Y-1266984D01*
X-5380057Y-1066984D02*
X-5246723Y-1066984D01*
X-5246723Y-1066984D02*
X-5332438Y-1266984D01*
X-5132438Y-1066984D02*
X-5113390Y-1066984D01*
X-5113390Y-1066984D02*
X-5094342Y-1076508D01*
X-5094342Y-1076508D02*
X-5084818Y-1086031D01*
X-5084818Y-1086031D02*
X-5075295Y-1105079D01*
X-5075295Y-1105079D02*
X-5065771Y-1143174D01*
X-5065771Y-1143174D02*
X-5065771Y-1190793D01*
X-5065771Y-1190793D02*
X-5075295Y-1228889D01*
X-5075295Y-1228889D02*
X-5084818Y-1247936D01*
X-5084818Y-1247936D02*
X-5094342Y-1257460D01*
X-5094342Y-1257460D02*
X-5113390Y-1266984D01*
X-5113390Y-1266984D02*
X-5132438Y-1266984D01*
X-5132438Y-1266984D02*
X-5151485Y-1257460D01*
X-5151485Y-1257460D02*
X-5161009Y-1247936D01*
X-5161009Y-1247936D02*
X-5170533Y-1228889D01*
X-5170533Y-1228889D02*
X-5180057Y-1190793D01*
X-5180057Y-1190793D02*
X-5180057Y-1143174D01*
X-5180057Y-1143174D02*
X-5170533Y-1105079D01*
X-5170533Y-1105079D02*
X-5161009Y-1086031D01*
X-5161009Y-1086031D02*
X-5151485Y-1076508D01*
X-5151485Y-1076508D02*
X-5132438Y-1066984D01*
X-4941961Y-1066984D02*
X-4922914Y-1066984D01*
X-4922914Y-1066984D02*
X-4903866Y-1076508D01*
X-4903866Y-1076508D02*
X-4894342Y-1086031D01*
X-4894342Y-1086031D02*
X-4884818Y-1105079D01*
X-4884818Y-1105079D02*
X-4875295Y-1143174D01*
X-4875295Y-1143174D02*
X-4875295Y-1190793D01*
X-4875295Y-1190793D02*
X-4884818Y-1228889D01*
X-4884818Y-1228889D02*
X-4894342Y-1247936D01*
X-4894342Y-1247936D02*
X-4903866Y-1257460D01*
X-4903866Y-1257460D02*
X-4922914Y-1266984D01*
X-4922914Y-1266984D02*
X-4941961Y-1266984D01*
X-4941961Y-1266984D02*
X-4961009Y-1257460D01*
X-4961009Y-1257460D02*
X-4970533Y-1247936D01*
X-4970533Y-1247936D02*
X-4980057Y-1228889D01*
X-4980057Y-1228889D02*
X-4989580Y-1190793D01*
X-4989580Y-1190793D02*
X-4989580Y-1143174D01*
X-4989580Y-1143174D02*
X-4980057Y-1105079D01*
X-4980057Y-1105079D02*
X-4970533Y-1086031D01*
X-4970533Y-1086031D02*
X-4961009Y-1076508D01*
X-4961009Y-1076508D02*
X-4941961Y-1066984D01*
X-4789580Y-1266984D02*
X-4789580Y-1133650D01*
X-4789580Y-1152698D02*
X-4780057Y-1143174D01*
X-4780057Y-1143174D02*
X-4761009Y-1133650D01*
X-4761009Y-1133650D02*
X-4732437Y-1133650D01*
X-4732437Y-1133650D02*
X-4713390Y-1143174D01*
X-4713390Y-1143174D02*
X-4703866Y-1162222D01*
X-4703866Y-1162222D02*
X-4703866Y-1266984D01*
X-4703866Y-1162222D02*
X-4694342Y-1143174D01*
X-4694342Y-1143174D02*
X-4675295Y-1133650D01*
X-4675295Y-1133650D02*
X-4646723Y-1133650D01*
X-4646723Y-1133650D02*
X-4627676Y-1143174D01*
X-4627676Y-1143174D02*
X-4618152Y-1162222D01*
X-4618152Y-1162222D02*
X-4618152Y-1266984D01*
X-4522914Y-1266984D02*
X-4522914Y-1133650D01*
X-4522914Y-1152698D02*
X-4513390Y-1143174D01*
X-4513390Y-1143174D02*
X-4494342Y-1133650D01*
X-4494342Y-1133650D02*
X-4465771Y-1133650D01*
X-4465771Y-1133650D02*
X-4446723Y-1143174D01*
X-4446723Y-1143174D02*
X-4437199Y-1162222D01*
X-4437199Y-1162222D02*
X-4437199Y-1266984D01*
X-4437199Y-1162222D02*
X-4427676Y-1143174D01*
X-4427676Y-1143174D02*
X-4408628Y-1133650D01*
X-4408628Y-1133650D02*
X-4380057Y-1133650D01*
X-4380057Y-1133650D02*
X-4361009Y-1143174D01*
X-4361009Y-1143174D02*
X-4351485Y-1162222D01*
X-4351485Y-1162222D02*
X-4351485Y-1266984D01*
X-3961009Y-1057460D02*
X-4132437Y-1314603D01*
X-3703866Y-1066984D02*
X-3684818Y-1066984D01*
X-3684818Y-1066984D02*
X-3665771Y-1076508D01*
X-3665771Y-1076508D02*
X-3656247Y-1086031D01*
X-3656247Y-1086031D02*
X-3646723Y-1105079D01*
X-3646723Y-1105079D02*
X-3637199Y-1143174D01*
X-3637199Y-1143174D02*
X-3637199Y-1190793D01*
X-3637199Y-1190793D02*
X-3646723Y-1228889D01*
X-3646723Y-1228889D02*
X-3656247Y-1247936D01*
X-3656247Y-1247936D02*
X-3665771Y-1257460D01*
X-3665771Y-1257460D02*
X-3684818Y-1266984D01*
X-3684818Y-1266984D02*
X-3703866Y-1266984D01*
X-3703866Y-1266984D02*
X-3722913Y-1257460D01*
X-3722913Y-1257460D02*
X-3732437Y-1247936D01*
X-3732437Y-1247936D02*
X-3741961Y-1228889D01*
X-3741961Y-1228889D02*
X-3751485Y-1190793D01*
X-3751485Y-1190793D02*
X-3751485Y-1143174D01*
X-3751485Y-1143174D02*
X-3741961Y-1105079D01*
X-3741961Y-1105079D02*
X-3732437Y-1086031D01*
X-3732437Y-1086031D02*
X-3722913Y-1076508D01*
X-3722913Y-1076508D02*
X-3703866Y-1066984D01*
X-3551485Y-1247936D02*
X-3541961Y-1257460D01*
X-3541961Y-1257460D02*
X-3551485Y-1266984D01*
X-3551485Y-1266984D02*
X-3561009Y-1257460D01*
X-3561009Y-1257460D02*
X-3551485Y-1247936D01*
X-3551485Y-1247936D02*
X-3551485Y-1266984D01*
X-3418152Y-1066984D02*
X-3399104Y-1066984D01*
X-3399104Y-1066984D02*
X-3380056Y-1076508D01*
X-3380056Y-1076508D02*
X-3370532Y-1086031D01*
X-3370532Y-1086031D02*
X-3361009Y-1105079D01*
X-3361009Y-1105079D02*
X-3351485Y-1143174D01*
X-3351485Y-1143174D02*
X-3351485Y-1190793D01*
X-3351485Y-1190793D02*
X-3361009Y-1228889D01*
X-3361009Y-1228889D02*
X-3370532Y-1247936D01*
X-3370532Y-1247936D02*
X-3380056Y-1257460D01*
X-3380056Y-1257460D02*
X-3399104Y-1266984D01*
X-3399104Y-1266984D02*
X-3418152Y-1266984D01*
X-3418152Y-1266984D02*
X-3437199Y-1257460D01*
X-3437199Y-1257460D02*
X-3446723Y-1247936D01*
X-3446723Y-1247936D02*
X-3456247Y-1228889D01*
X-3456247Y-1228889D02*
X-3465771Y-1190793D01*
X-3465771Y-1190793D02*
X-3465771Y-1143174D01*
X-3465771Y-1143174D02*
X-3456247Y-1105079D01*
X-3456247Y-1105079D02*
X-3446723Y-1086031D01*
X-3446723Y-1086031D02*
X-3437199Y-1076508D01*
X-3437199Y-1076508D02*
X-3418152Y-1066984D01*
X-3275294Y-1086031D02*
X-3265771Y-1076508D01*
X-3265771Y-1076508D02*
X-3246723Y-1066984D01*
X-3246723Y-1066984D02*
X-3199104Y-1066984D01*
X-3199104Y-1066984D02*
X-3180056Y-1076508D01*
X-3180056Y-1076508D02*
X-3170532Y-1086031D01*
X-3170532Y-1086031D02*
X-3161009Y-1105079D01*
X-3161009Y-1105079D02*
X-3161009Y-1124127D01*
X-3161009Y-1124127D02*
X-3170532Y-1152698D01*
X-3170532Y-1152698D02*
X-3284818Y-1266984D01*
X-3284818Y-1266984D02*
X-3161009Y-1266984D01*
X-3094342Y-1066984D02*
X-2961009Y-1066984D01*
X-2961009Y-1066984D02*
X-3046723Y-1266984D01*
X-2789580Y-1066984D02*
X-2884818Y-1066984D01*
X-2884818Y-1066984D02*
X-2894342Y-1162222D01*
X-2894342Y-1162222D02*
X-2884818Y-1152698D01*
X-2884818Y-1152698D02*
X-2865771Y-1143174D01*
X-2865771Y-1143174D02*
X-2818151Y-1143174D01*
X-2818151Y-1143174D02*
X-2799104Y-1152698D01*
X-2799104Y-1152698D02*
X-2789580Y-1162222D01*
X-2789580Y-1162222D02*
X-2780056Y-1181270D01*
X-2780056Y-1181270D02*
X-2780056Y-1228889D01*
X-2780056Y-1228889D02*
X-2789580Y-1247936D01*
X-2789580Y-1247936D02*
X-2799104Y-1257460D01*
X-2799104Y-1257460D02*
X-2818151Y-1266984D01*
X-2818151Y-1266984D02*
X-2865771Y-1266984D01*
X-2865771Y-1266984D02*
X-2884818Y-1257460D01*
X-2884818Y-1257460D02*
X-2894342Y-1247936D01*
X-2703866Y-1066984D02*
X-2703866Y-1105079D01*
X-2627675Y-1066984D02*
X-2627675Y-1105079D01*
X-2332437Y-1343174D02*
X-2341961Y-1333650D01*
X-2341961Y-1333650D02*
X-2361009Y-1305079D01*
X-2361009Y-1305079D02*
X-2370532Y-1286031D01*
X-2370532Y-1286031D02*
X-2380056Y-1257460D01*
X-2380056Y-1257460D02*
X-2389580Y-1209841D01*
X-2389580Y-1209841D02*
X-2389580Y-1171746D01*
X-2389580Y-1171746D02*
X-2380056Y-1124127D01*
X-2380056Y-1124127D02*
X-2370532Y-1095555D01*
X-2370532Y-1095555D02*
X-2361009Y-1076508D01*
X-2361009Y-1076508D02*
X-2341961Y-1047936D01*
X-2341961Y-1047936D02*
X-2332437Y-1038412D01*
X-2151485Y-1266984D02*
X-2265771Y-1266984D01*
X-2208628Y-1266984D02*
X-2208628Y-1066984D01*
X-2208628Y-1066984D02*
X-2227675Y-1095555D01*
X-2227675Y-1095555D02*
X-2246723Y-1114603D01*
X-2246723Y-1114603D02*
X-2265771Y-1124127D01*
X-1913389Y-1266984D02*
X-1913389Y-1066984D01*
X-1827675Y-1266984D02*
X-1827675Y-1162222D01*
X-1827675Y-1162222D02*
X-1837199Y-1143174D01*
X-1837199Y-1143174D02*
X-1856247Y-1133650D01*
X-1856247Y-1133650D02*
X-1884818Y-1133650D01*
X-1884818Y-1133650D02*
X-1903866Y-1143174D01*
X-1903866Y-1143174D02*
X-1913389Y-1152698D01*
X-1703866Y-1266984D02*
X-1722913Y-1257460D01*
X-1722913Y-1257460D02*
X-1732437Y-1247936D01*
X-1732437Y-1247936D02*
X-1741961Y-1228889D01*
X-1741961Y-1228889D02*
X-1741961Y-1171746D01*
X-1741961Y-1171746D02*
X-1732437Y-1152698D01*
X-1732437Y-1152698D02*
X-1722913Y-1143174D01*
X-1722913Y-1143174D02*
X-1703866Y-1133650D01*
X-1703866Y-1133650D02*
X-1675294Y-1133650D01*
X-1675294Y-1133650D02*
X-1656247Y-1143174D01*
X-1656247Y-1143174D02*
X-1646723Y-1152698D01*
X-1646723Y-1152698D02*
X-1637199Y-1171746D01*
X-1637199Y-1171746D02*
X-1637199Y-1228889D01*
X-1637199Y-1228889D02*
X-1646723Y-1247936D01*
X-1646723Y-1247936D02*
X-1656247Y-1257460D01*
X-1656247Y-1257460D02*
X-1675294Y-1266984D01*
X-1675294Y-1266984D02*
X-1703866Y-1266984D01*
X-1522913Y-1266984D02*
X-1541961Y-1257460D01*
X-1541961Y-1257460D02*
X-1551485Y-1238412D01*
X-1551485Y-1238412D02*
X-1551485Y-1066984D01*
X-1370532Y-1257460D02*
X-1389580Y-1266984D01*
X-1389580Y-1266984D02*
X-1427675Y-1266984D01*
X-1427675Y-1266984D02*
X-1446723Y-1257460D01*
X-1446723Y-1257460D02*
X-1456247Y-1238412D01*
X-1456247Y-1238412D02*
X-1456247Y-1162222D01*
X-1456247Y-1162222D02*
X-1446723Y-1143174D01*
X-1446723Y-1143174D02*
X-1427675Y-1133650D01*
X-1427675Y-1133650D02*
X-1389580Y-1133650D01*
X-1389580Y-1133650D02*
X-1370532Y-1143174D01*
X-1370532Y-1143174D02*
X-1361009Y-1162222D01*
X-1361009Y-1162222D02*
X-1361009Y-1181270D01*
X-1361009Y-1181270D02*
X-1456247Y-1200317D01*
X-1294342Y-1343174D02*
X-1284818Y-1333650D01*
X-1284818Y-1333650D02*
X-1265770Y-1305079D01*
X-1265770Y-1305079D02*
X-1256247Y-1286031D01*
X-1256247Y-1286031D02*
X-1246723Y-1257460D01*
X-1246723Y-1257460D02*
X-1237199Y-1209841D01*
X-1237199Y-1209841D02*
X-1237199Y-1171746D01*
X-1237199Y-1171746D02*
X-1246723Y-1124127D01*
X-1246723Y-1124127D02*
X-1256247Y-1095555D01*
X-1256247Y-1095555D02*
X-1265770Y-1076508D01*
X-1265770Y-1076508D02*
X-1284818Y-1047936D01*
X-1284818Y-1047936D02*
X-1294342Y-1038412D01*
D12*
X-5919215Y-1467784D02*
X-5919215Y-1411215D01*
X-5975784Y-1411215D01*
X-5975784Y-1467784D01*
X-5919215Y-1467784D01*
D11*
X-5608628Y-1330984D02*
X-5589580Y-1330984D01*
X-5589580Y-1330984D02*
X-5570533Y-1340508D01*
X-5570533Y-1340508D02*
X-5561009Y-1350031D01*
X-5561009Y-1350031D02*
X-5551485Y-1369079D01*
X-5551485Y-1369079D02*
X-5541961Y-1407174D01*
X-5541961Y-1407174D02*
X-5541961Y-1454793D01*
X-5541961Y-1454793D02*
X-5551485Y-1492888D01*
X-5551485Y-1492888D02*
X-5561009Y-1511936D01*
X-5561009Y-1511936D02*
X-5570533Y-1521460D01*
X-5570533Y-1521460D02*
X-5589580Y-1530984D01*
X-5589580Y-1530984D02*
X-5608628Y-1530984D01*
X-5608628Y-1530984D02*
X-5627676Y-1521460D01*
X-5627676Y-1521460D02*
X-5637199Y-1511936D01*
X-5637199Y-1511936D02*
X-5646723Y-1492888D01*
X-5646723Y-1492888D02*
X-5656247Y-1454793D01*
X-5656247Y-1454793D02*
X-5656247Y-1407174D01*
X-5656247Y-1407174D02*
X-5646723Y-1369079D01*
X-5646723Y-1369079D02*
X-5637199Y-1350031D01*
X-5637199Y-1350031D02*
X-5627676Y-1340508D01*
X-5627676Y-1340508D02*
X-5608628Y-1330984D01*
X-5456247Y-1511936D02*
X-5446723Y-1521460D01*
X-5446723Y-1521460D02*
X-5456247Y-1530984D01*
X-5456247Y-1530984D02*
X-5465771Y-1521460D01*
X-5465771Y-1521460D02*
X-5456247Y-1511936D01*
X-5456247Y-1511936D02*
X-5456247Y-1530984D01*
X-5332438Y-1416698D02*
X-5351485Y-1407174D01*
X-5351485Y-1407174D02*
X-5361009Y-1397650D01*
X-5361009Y-1397650D02*
X-5370533Y-1378603D01*
X-5370533Y-1378603D02*
X-5370533Y-1369079D01*
X-5370533Y-1369079D02*
X-5361009Y-1350031D01*
X-5361009Y-1350031D02*
X-5351485Y-1340508D01*
X-5351485Y-1340508D02*
X-5332438Y-1330984D01*
X-5332438Y-1330984D02*
X-5294342Y-1330984D01*
X-5294342Y-1330984D02*
X-5275295Y-1340508D01*
X-5275295Y-1340508D02*
X-5265771Y-1350031D01*
X-5265771Y-1350031D02*
X-5256247Y-1369079D01*
X-5256247Y-1369079D02*
X-5256247Y-1378603D01*
X-5256247Y-1378603D02*
X-5265771Y-1397650D01*
X-5265771Y-1397650D02*
X-5275295Y-1407174D01*
X-5275295Y-1407174D02*
X-5294342Y-1416698D01*
X-5294342Y-1416698D02*
X-5332438Y-1416698D01*
X-5332438Y-1416698D02*
X-5351485Y-1426222D01*
X-5351485Y-1426222D02*
X-5361009Y-1435746D01*
X-5361009Y-1435746D02*
X-5370533Y-1454793D01*
X-5370533Y-1454793D02*
X-5370533Y-1492888D01*
X-5370533Y-1492888D02*
X-5361009Y-1511936D01*
X-5361009Y-1511936D02*
X-5351485Y-1521460D01*
X-5351485Y-1521460D02*
X-5332438Y-1530984D01*
X-5332438Y-1530984D02*
X-5294342Y-1530984D01*
X-5294342Y-1530984D02*
X-5275295Y-1521460D01*
X-5275295Y-1521460D02*
X-5265771Y-1511936D01*
X-5265771Y-1511936D02*
X-5256247Y-1492888D01*
X-5256247Y-1492888D02*
X-5256247Y-1454793D01*
X-5256247Y-1454793D02*
X-5265771Y-1435746D01*
X-5265771Y-1435746D02*
X-5275295Y-1426222D01*
X-5275295Y-1426222D02*
X-5294342Y-1416698D01*
X-5132438Y-1330984D02*
X-5113390Y-1330984D01*
X-5113390Y-1330984D02*
X-5094342Y-1340508D01*
X-5094342Y-1340508D02*
X-5084818Y-1350031D01*
X-5084818Y-1350031D02*
X-5075295Y-1369079D01*
X-5075295Y-1369079D02*
X-5065771Y-1407174D01*
X-5065771Y-1407174D02*
X-5065771Y-1454793D01*
X-5065771Y-1454793D02*
X-5075295Y-1492888D01*
X-5075295Y-1492888D02*
X-5084818Y-1511936D01*
X-5084818Y-1511936D02*
X-5094342Y-1521460D01*
X-5094342Y-1521460D02*
X-5113390Y-1530984D01*
X-5113390Y-1530984D02*
X-5132438Y-1530984D01*
X-5132438Y-1530984D02*
X-5151485Y-1521460D01*
X-5151485Y-1521460D02*
X-5161009Y-1511936D01*
X-5161009Y-1511936D02*
X-5170533Y-1492888D01*
X-5170533Y-1492888D02*
X-5180057Y-1454793D01*
X-5180057Y-1454793D02*
X-5180057Y-1407174D01*
X-5180057Y-1407174D02*
X-5170533Y-1369079D01*
X-5170533Y-1369079D02*
X-5161009Y-1350031D01*
X-5161009Y-1350031D02*
X-5151485Y-1340508D01*
X-5151485Y-1340508D02*
X-5132438Y-1330984D01*
X-4941961Y-1330984D02*
X-4922914Y-1330984D01*
X-4922914Y-1330984D02*
X-4903866Y-1340508D01*
X-4903866Y-1340508D02*
X-4894342Y-1350031D01*
X-4894342Y-1350031D02*
X-4884818Y-1369079D01*
X-4884818Y-1369079D02*
X-4875295Y-1407174D01*
X-4875295Y-1407174D02*
X-4875295Y-1454793D01*
X-4875295Y-1454793D02*
X-4884818Y-1492888D01*
X-4884818Y-1492888D02*
X-4894342Y-1511936D01*
X-4894342Y-1511936D02*
X-4903866Y-1521460D01*
X-4903866Y-1521460D02*
X-4922914Y-1530984D01*
X-4922914Y-1530984D02*
X-4941961Y-1530984D01*
X-4941961Y-1530984D02*
X-4961009Y-1521460D01*
X-4961009Y-1521460D02*
X-4970533Y-1511936D01*
X-4970533Y-1511936D02*
X-4980057Y-1492888D01*
X-4980057Y-1492888D02*
X-4989580Y-1454793D01*
X-4989580Y-1454793D02*
X-4989580Y-1407174D01*
X-4989580Y-1407174D02*
X-4980057Y-1369079D01*
X-4980057Y-1369079D02*
X-4970533Y-1350031D01*
X-4970533Y-1350031D02*
X-4961009Y-1340508D01*
X-4961009Y-1340508D02*
X-4941961Y-1330984D01*
X-4789580Y-1530984D02*
X-4789580Y-1397650D01*
X-4789580Y-1416698D02*
X-4780057Y-1407174D01*
X-4780057Y-1407174D02*
X-4761009Y-1397650D01*
X-4761009Y-1397650D02*
X-4732437Y-1397650D01*
X-4732437Y-1397650D02*
X-4713390Y-1407174D01*
X-4713390Y-1407174D02*
X-4703866Y-1426222D01*
X-4703866Y-1426222D02*
X-4703866Y-1530984D01*
X-4703866Y-1426222D02*
X-4694342Y-1407174D01*
X-4694342Y-1407174D02*
X-4675295Y-1397650D01*
X-4675295Y-1397650D02*
X-4646723Y-1397650D01*
X-4646723Y-1397650D02*
X-4627676Y-1407174D01*
X-4627676Y-1407174D02*
X-4618152Y-1426222D01*
X-4618152Y-1426222D02*
X-4618152Y-1530984D01*
X-4522914Y-1530984D02*
X-4522914Y-1397650D01*
X-4522914Y-1416698D02*
X-4513390Y-1407174D01*
X-4513390Y-1407174D02*
X-4494342Y-1397650D01*
X-4494342Y-1397650D02*
X-4465771Y-1397650D01*
X-4465771Y-1397650D02*
X-4446723Y-1407174D01*
X-4446723Y-1407174D02*
X-4437199Y-1426222D01*
X-4437199Y-1426222D02*
X-4437199Y-1530984D01*
X-4437199Y-1426222D02*
X-4427676Y-1407174D01*
X-4427676Y-1407174D02*
X-4408628Y-1397650D01*
X-4408628Y-1397650D02*
X-4380057Y-1397650D01*
X-4380057Y-1397650D02*
X-4361009Y-1407174D01*
X-4361009Y-1407174D02*
X-4351485Y-1426222D01*
X-4351485Y-1426222D02*
X-4351485Y-1530984D01*
X-3961009Y-1321460D02*
X-4132437Y-1578603D01*
X-3703866Y-1330984D02*
X-3684818Y-1330984D01*
X-3684818Y-1330984D02*
X-3665771Y-1340508D01*
X-3665771Y-1340508D02*
X-3656247Y-1350031D01*
X-3656247Y-1350031D02*
X-3646723Y-1369079D01*
X-3646723Y-1369079D02*
X-3637199Y-1407174D01*
X-3637199Y-1407174D02*
X-3637199Y-1454793D01*
X-3637199Y-1454793D02*
X-3646723Y-1492888D01*
X-3646723Y-1492888D02*
X-3656247Y-1511936D01*
X-3656247Y-1511936D02*
X-3665771Y-1521460D01*
X-3665771Y-1521460D02*
X-3684818Y-1530984D01*
X-3684818Y-1530984D02*
X-3703866Y-1530984D01*
X-3703866Y-1530984D02*
X-3722913Y-1521460D01*
X-3722913Y-1521460D02*
X-3732437Y-1511936D01*
X-3732437Y-1511936D02*
X-3741961Y-1492888D01*
X-3741961Y-1492888D02*
X-3751485Y-1454793D01*
X-3751485Y-1454793D02*
X-3751485Y-1407174D01*
X-3751485Y-1407174D02*
X-3741961Y-1369079D01*
X-3741961Y-1369079D02*
X-3732437Y-1350031D01*
X-3732437Y-1350031D02*
X-3722913Y-1340508D01*
X-3722913Y-1340508D02*
X-3703866Y-1330984D01*
X-3551485Y-1511936D02*
X-3541961Y-1521460D01*
X-3541961Y-1521460D02*
X-3551485Y-1530984D01*
X-3551485Y-1530984D02*
X-3561009Y-1521460D01*
X-3561009Y-1521460D02*
X-3551485Y-1511936D01*
X-3551485Y-1511936D02*
X-3551485Y-1530984D01*
X-3418152Y-1330984D02*
X-3399104Y-1330984D01*
X-3399104Y-1330984D02*
X-3380056Y-1340508D01*
X-3380056Y-1340508D02*
X-3370532Y-1350031D01*
X-3370532Y-1350031D02*
X-3361009Y-1369079D01*
X-3361009Y-1369079D02*
X-3351485Y-1407174D01*
X-3351485Y-1407174D02*
X-3351485Y-1454793D01*
X-3351485Y-1454793D02*
X-3361009Y-1492888D01*
X-3361009Y-1492888D02*
X-3370532Y-1511936D01*
X-3370532Y-1511936D02*
X-3380056Y-1521460D01*
X-3380056Y-1521460D02*
X-3399104Y-1530984D01*
X-3399104Y-1530984D02*
X-3418152Y-1530984D01*
X-3418152Y-1530984D02*
X-3437199Y-1521460D01*
X-3437199Y-1521460D02*
X-3446723Y-1511936D01*
X-3446723Y-1511936D02*
X-3456247Y-1492888D01*
X-3456247Y-1492888D02*
X-3465771Y-1454793D01*
X-3465771Y-1454793D02*
X-3465771Y-1407174D01*
X-3465771Y-1407174D02*
X-3456247Y-1369079D01*
X-3456247Y-1369079D02*
X-3446723Y-1350031D01*
X-3446723Y-1350031D02*
X-3437199Y-1340508D01*
X-3437199Y-1340508D02*
X-3418152Y-1330984D01*
X-3284818Y-1330984D02*
X-3161009Y-1330984D01*
X-3161009Y-1330984D02*
X-3227675Y-1407174D01*
X-3227675Y-1407174D02*
X-3199104Y-1407174D01*
X-3199104Y-1407174D02*
X-3180056Y-1416698D01*
X-3180056Y-1416698D02*
X-3170532Y-1426222D01*
X-3170532Y-1426222D02*
X-3161009Y-1445269D01*
X-3161009Y-1445269D02*
X-3161009Y-1492888D01*
X-3161009Y-1492888D02*
X-3170532Y-1511936D01*
X-3170532Y-1511936D02*
X-3180056Y-1521460D01*
X-3180056Y-1521460D02*
X-3199104Y-1530984D01*
X-3199104Y-1530984D02*
X-3256247Y-1530984D01*
X-3256247Y-1530984D02*
X-3275294Y-1521460D01*
X-3275294Y-1521460D02*
X-3284818Y-1511936D01*
X-2970532Y-1530984D02*
X-3084818Y-1530984D01*
X-3027675Y-1530984D02*
X-3027675Y-1330984D01*
X-3027675Y-1330984D02*
X-3046723Y-1359555D01*
X-3046723Y-1359555D02*
X-3065771Y-1378603D01*
X-3065771Y-1378603D02*
X-3084818Y-1388127D01*
X-2789580Y-1330984D02*
X-2884818Y-1330984D01*
X-2884818Y-1330984D02*
X-2894342Y-1426222D01*
X-2894342Y-1426222D02*
X-2884818Y-1416698D01*
X-2884818Y-1416698D02*
X-2865771Y-1407174D01*
X-2865771Y-1407174D02*
X-2818151Y-1407174D01*
X-2818151Y-1407174D02*
X-2799104Y-1416698D01*
X-2799104Y-1416698D02*
X-2789580Y-1426222D01*
X-2789580Y-1426222D02*
X-2780056Y-1445269D01*
X-2780056Y-1445269D02*
X-2780056Y-1492888D01*
X-2780056Y-1492888D02*
X-2789580Y-1511936D01*
X-2789580Y-1511936D02*
X-2799104Y-1521460D01*
X-2799104Y-1521460D02*
X-2818151Y-1530984D01*
X-2818151Y-1530984D02*
X-2865771Y-1530984D01*
X-2865771Y-1530984D02*
X-2884818Y-1521460D01*
X-2884818Y-1521460D02*
X-2894342Y-1511936D01*
X-2703866Y-1330984D02*
X-2703866Y-1369079D01*
X-2627675Y-1330984D02*
X-2627675Y-1369079D01*
X-2332437Y-1607174D02*
X-2341961Y-1597650D01*
X-2341961Y-1597650D02*
X-2361009Y-1569079D01*
X-2361009Y-1569079D02*
X-2370532Y-1550031D01*
X-2370532Y-1550031D02*
X-2380056Y-1521460D01*
X-2380056Y-1521460D02*
X-2389580Y-1473841D01*
X-2389580Y-1473841D02*
X-2389580Y-1435746D01*
X-2389580Y-1435746D02*
X-2380056Y-1388127D01*
X-2380056Y-1388127D02*
X-2370532Y-1359555D01*
X-2370532Y-1359555D02*
X-2361009Y-1340508D01*
X-2361009Y-1340508D02*
X-2341961Y-1311936D01*
X-2341961Y-1311936D02*
X-2332437Y-1302412D01*
X-2151485Y-1530984D02*
X-2265771Y-1530984D01*
X-2208628Y-1530984D02*
X-2208628Y-1330984D01*
X-2208628Y-1330984D02*
X-2227675Y-1359555D01*
X-2227675Y-1359555D02*
X-2246723Y-1378603D01*
X-2246723Y-1378603D02*
X-2265771Y-1388127D01*
X-2075294Y-1350031D02*
X-2065770Y-1340508D01*
X-2065770Y-1340508D02*
X-2046723Y-1330984D01*
X-2046723Y-1330984D02*
X-1999104Y-1330984D01*
X-1999104Y-1330984D02*
X-1980056Y-1340508D01*
X-1980056Y-1340508D02*
X-1970532Y-1350031D01*
X-1970532Y-1350031D02*
X-1961009Y-1369079D01*
X-1961009Y-1369079D02*
X-1961009Y-1388127D01*
X-1961009Y-1388127D02*
X-1970532Y-1416698D01*
X-1970532Y-1416698D02*
X-2084818Y-1530984D01*
X-2084818Y-1530984D02*
X-1961009Y-1530984D01*
X-1722913Y-1530984D02*
X-1722913Y-1330984D01*
X-1637199Y-1530984D02*
X-1637199Y-1426222D01*
X-1637199Y-1426222D02*
X-1646723Y-1407174D01*
X-1646723Y-1407174D02*
X-1665770Y-1397650D01*
X-1665770Y-1397650D02*
X-1694342Y-1397650D01*
X-1694342Y-1397650D02*
X-1713389Y-1407174D01*
X-1713389Y-1407174D02*
X-1722913Y-1416698D01*
X-1513389Y-1530984D02*
X-1532437Y-1521460D01*
X-1532437Y-1521460D02*
X-1541961Y-1511936D01*
X-1541961Y-1511936D02*
X-1551485Y-1492888D01*
X-1551485Y-1492888D02*
X-1551485Y-1435746D01*
X-1551485Y-1435746D02*
X-1541961Y-1416698D01*
X-1541961Y-1416698D02*
X-1532437Y-1407174D01*
X-1532437Y-1407174D02*
X-1513389Y-1397650D01*
X-1513389Y-1397650D02*
X-1484818Y-1397650D01*
X-1484818Y-1397650D02*
X-1465770Y-1407174D01*
X-1465770Y-1407174D02*
X-1456247Y-1416698D01*
X-1456247Y-1416698D02*
X-1446723Y-1435746D01*
X-1446723Y-1435746D02*
X-1446723Y-1492888D01*
X-1446723Y-1492888D02*
X-1456247Y-1511936D01*
X-1456247Y-1511936D02*
X-1465770Y-1521460D01*
X-1465770Y-1521460D02*
X-1484818Y-1530984D01*
X-1484818Y-1530984D02*
X-1513389Y-1530984D01*
X-1332437Y-1530984D02*
X-1351485Y-1521460D01*
X-1351485Y-1521460D02*
X-1361009Y-1502412D01*
X-1361009Y-1502412D02*
X-1361009Y-1330984D01*
X-1180056Y-1521460D02*
X-1199104Y-1530984D01*
X-1199104Y-1530984D02*
X-1237199Y-1530984D01*
X-1237199Y-1530984D02*
X-1256247Y-1521460D01*
X-1256247Y-1521460D02*
X-1265770Y-1502412D01*
X-1265770Y-1502412D02*
X-1265770Y-1426222D01*
X-1265770Y-1426222D02*
X-1256247Y-1407174D01*
X-1256247Y-1407174D02*
X-1237199Y-1397650D01*
X-1237199Y-1397650D02*
X-1199104Y-1397650D01*
X-1199104Y-1397650D02*
X-1180056Y-1407174D01*
X-1180056Y-1407174D02*
X-1170532Y-1426222D01*
X-1170532Y-1426222D02*
X-1170532Y-1445269D01*
X-1170532Y-1445269D02*
X-1265770Y-1464317D01*
X-1094342Y-1521460D02*
X-1075294Y-1530984D01*
X-1075294Y-1530984D02*
X-1037199Y-1530984D01*
X-1037199Y-1530984D02*
X-1018151Y-1521460D01*
X-1018151Y-1521460D02*
X-1008627Y-1502412D01*
X-1008627Y-1502412D02*
X-1008627Y-1492888D01*
X-1008627Y-1492888D02*
X-1018151Y-1473841D01*
X-1018151Y-1473841D02*
X-1037199Y-1464317D01*
X-1037199Y-1464317D02*
X-1065770Y-1464317D01*
X-1065770Y-1464317D02*
X-1084818Y-1454793D01*
X-1084818Y-1454793D02*
X-1094342Y-1435746D01*
X-1094342Y-1435746D02*
X-1094342Y-1426222D01*
X-1094342Y-1426222D02*
X-1084818Y-1407174D01*
X-1084818Y-1407174D02*
X-1065770Y-1397650D01*
X-1065770Y-1397650D02*
X-1037199Y-1397650D01*
X-1037199Y-1397650D02*
X-1018151Y-1407174D01*
X-941961Y-1607174D02*
X-932437Y-1597650D01*
X-932437Y-1597650D02*
X-913389Y-1569079D01*
X-913389Y-1569079D02*
X-903866Y-1550031D01*
X-903866Y-1550031D02*
X-894342Y-1521460D01*
X-894342Y-1521460D02*
X-884818Y-1473841D01*
X-884818Y-1473841D02*
X-884818Y-1435746D01*
X-884818Y-1435746D02*
X-894342Y-1388127D01*
X-894342Y-1388127D02*
X-903866Y-1359555D01*
X-903866Y-1359555D02*
X-913389Y-1340508D01*
X-913389Y-1340508D02*
X-932437Y-1311936D01*
X-932437Y-1311936D02*
X-941961Y-1302412D01*
D12*
X-5951950Y-1747950D02*
X-5907500Y-1703500D01*
X-5951950Y-1659050D01*
X-5996400Y-1703500D01*
X-5951950Y-1747950D01*
D11*
X-5608628Y-1594984D02*
X-5589580Y-1594984D01*
X-5589580Y-1594984D02*
X-5570533Y-1604508D01*
X-5570533Y-1604508D02*
X-5561009Y-1614031D01*
X-5561009Y-1614031D02*
X-5551485Y-1633079D01*
X-5551485Y-1633079D02*
X-5541961Y-1671174D01*
X-5541961Y-1671174D02*
X-5541961Y-1718793D01*
X-5541961Y-1718793D02*
X-5551485Y-1756888D01*
X-5551485Y-1756888D02*
X-5561009Y-1775936D01*
X-5561009Y-1775936D02*
X-5570533Y-1785460D01*
X-5570533Y-1785460D02*
X-5589580Y-1794984D01*
X-5589580Y-1794984D02*
X-5608628Y-1794984D01*
X-5608628Y-1794984D02*
X-5627676Y-1785460D01*
X-5627676Y-1785460D02*
X-5637199Y-1775936D01*
X-5637199Y-1775936D02*
X-5646723Y-1756888D01*
X-5646723Y-1756888D02*
X-5656247Y-1718793D01*
X-5656247Y-1718793D02*
X-5656247Y-1671174D01*
X-5656247Y-1671174D02*
X-5646723Y-1633079D01*
X-5646723Y-1633079D02*
X-5637199Y-1614031D01*
X-5637199Y-1614031D02*
X-5627676Y-1604508D01*
X-5627676Y-1604508D02*
X-5608628Y-1594984D01*
X-5456247Y-1775936D02*
X-5446723Y-1785460D01*
X-5446723Y-1785460D02*
X-5456247Y-1794984D01*
X-5456247Y-1794984D02*
X-5465771Y-1785460D01*
X-5465771Y-1785460D02*
X-5456247Y-1775936D01*
X-5456247Y-1775936D02*
X-5456247Y-1794984D01*
X-5332438Y-1680698D02*
X-5351485Y-1671174D01*
X-5351485Y-1671174D02*
X-5361009Y-1661650D01*
X-5361009Y-1661650D02*
X-5370533Y-1642603D01*
X-5370533Y-1642603D02*
X-5370533Y-1633079D01*
X-5370533Y-1633079D02*
X-5361009Y-1614031D01*
X-5361009Y-1614031D02*
X-5351485Y-1604508D01*
X-5351485Y-1604508D02*
X-5332438Y-1594984D01*
X-5332438Y-1594984D02*
X-5294342Y-1594984D01*
X-5294342Y-1594984D02*
X-5275295Y-1604508D01*
X-5275295Y-1604508D02*
X-5265771Y-1614031D01*
X-5265771Y-1614031D02*
X-5256247Y-1633079D01*
X-5256247Y-1633079D02*
X-5256247Y-1642603D01*
X-5256247Y-1642603D02*
X-5265771Y-1661650D01*
X-5265771Y-1661650D02*
X-5275295Y-1671174D01*
X-5275295Y-1671174D02*
X-5294342Y-1680698D01*
X-5294342Y-1680698D02*
X-5332438Y-1680698D01*
X-5332438Y-1680698D02*
X-5351485Y-1690222D01*
X-5351485Y-1690222D02*
X-5361009Y-1699746D01*
X-5361009Y-1699746D02*
X-5370533Y-1718793D01*
X-5370533Y-1718793D02*
X-5370533Y-1756888D01*
X-5370533Y-1756888D02*
X-5361009Y-1775936D01*
X-5361009Y-1775936D02*
X-5351485Y-1785460D01*
X-5351485Y-1785460D02*
X-5332438Y-1794984D01*
X-5332438Y-1794984D02*
X-5294342Y-1794984D01*
X-5294342Y-1794984D02*
X-5275295Y-1785460D01*
X-5275295Y-1785460D02*
X-5265771Y-1775936D01*
X-5265771Y-1775936D02*
X-5256247Y-1756888D01*
X-5256247Y-1756888D02*
X-5256247Y-1718793D01*
X-5256247Y-1718793D02*
X-5265771Y-1699746D01*
X-5265771Y-1699746D02*
X-5275295Y-1690222D01*
X-5275295Y-1690222D02*
X-5294342Y-1680698D01*
X-5141961Y-1680698D02*
X-5161009Y-1671174D01*
X-5161009Y-1671174D02*
X-5170533Y-1661650D01*
X-5170533Y-1661650D02*
X-5180057Y-1642603D01*
X-5180057Y-1642603D02*
X-5180057Y-1633079D01*
X-5180057Y-1633079D02*
X-5170533Y-1614031D01*
X-5170533Y-1614031D02*
X-5161009Y-1604508D01*
X-5161009Y-1604508D02*
X-5141961Y-1594984D01*
X-5141961Y-1594984D02*
X-5103866Y-1594984D01*
X-5103866Y-1594984D02*
X-5084818Y-1604508D01*
X-5084818Y-1604508D02*
X-5075295Y-1614031D01*
X-5075295Y-1614031D02*
X-5065771Y-1633079D01*
X-5065771Y-1633079D02*
X-5065771Y-1642603D01*
X-5065771Y-1642603D02*
X-5075295Y-1661650D01*
X-5075295Y-1661650D02*
X-5084818Y-1671174D01*
X-5084818Y-1671174D02*
X-5103866Y-1680698D01*
X-5103866Y-1680698D02*
X-5141961Y-1680698D01*
X-5141961Y-1680698D02*
X-5161009Y-1690222D01*
X-5161009Y-1690222D02*
X-5170533Y-1699746D01*
X-5170533Y-1699746D02*
X-5180057Y-1718793D01*
X-5180057Y-1718793D02*
X-5180057Y-1756888D01*
X-5180057Y-1756888D02*
X-5170533Y-1775936D01*
X-5170533Y-1775936D02*
X-5161009Y-1785460D01*
X-5161009Y-1785460D02*
X-5141961Y-1794984D01*
X-5141961Y-1794984D02*
X-5103866Y-1794984D01*
X-5103866Y-1794984D02*
X-5084818Y-1785460D01*
X-5084818Y-1785460D02*
X-5075295Y-1775936D01*
X-5075295Y-1775936D02*
X-5065771Y-1756888D01*
X-5065771Y-1756888D02*
X-5065771Y-1718793D01*
X-5065771Y-1718793D02*
X-5075295Y-1699746D01*
X-5075295Y-1699746D02*
X-5084818Y-1690222D01*
X-5084818Y-1690222D02*
X-5103866Y-1680698D01*
X-4970533Y-1794984D02*
X-4932438Y-1794984D01*
X-4932438Y-1794984D02*
X-4913390Y-1785460D01*
X-4913390Y-1785460D02*
X-4903866Y-1775936D01*
X-4903866Y-1775936D02*
X-4884818Y-1747365D01*
X-4884818Y-1747365D02*
X-4875295Y-1709269D01*
X-4875295Y-1709269D02*
X-4875295Y-1633079D01*
X-4875295Y-1633079D02*
X-4884818Y-1614031D01*
X-4884818Y-1614031D02*
X-4894342Y-1604508D01*
X-4894342Y-1604508D02*
X-4913390Y-1594984D01*
X-4913390Y-1594984D02*
X-4951485Y-1594984D01*
X-4951485Y-1594984D02*
X-4970533Y-1604508D01*
X-4970533Y-1604508D02*
X-4980057Y-1614031D01*
X-4980057Y-1614031D02*
X-4989580Y-1633079D01*
X-4989580Y-1633079D02*
X-4989580Y-1680698D01*
X-4989580Y-1680698D02*
X-4980057Y-1699746D01*
X-4980057Y-1699746D02*
X-4970533Y-1709269D01*
X-4970533Y-1709269D02*
X-4951485Y-1718793D01*
X-4951485Y-1718793D02*
X-4913390Y-1718793D01*
X-4913390Y-1718793D02*
X-4894342Y-1709269D01*
X-4894342Y-1709269D02*
X-4884818Y-1699746D01*
X-4884818Y-1699746D02*
X-4875295Y-1680698D01*
X-4789580Y-1794984D02*
X-4789580Y-1661650D01*
X-4789580Y-1680698D02*
X-4780057Y-1671174D01*
X-4780057Y-1671174D02*
X-4761009Y-1661650D01*
X-4761009Y-1661650D02*
X-4732437Y-1661650D01*
X-4732437Y-1661650D02*
X-4713390Y-1671174D01*
X-4713390Y-1671174D02*
X-4703866Y-1690222D01*
X-4703866Y-1690222D02*
X-4703866Y-1794984D01*
X-4703866Y-1690222D02*
X-4694342Y-1671174D01*
X-4694342Y-1671174D02*
X-4675295Y-1661650D01*
X-4675295Y-1661650D02*
X-4646723Y-1661650D01*
X-4646723Y-1661650D02*
X-4627676Y-1671174D01*
X-4627676Y-1671174D02*
X-4618152Y-1690222D01*
X-4618152Y-1690222D02*
X-4618152Y-1794984D01*
X-4522914Y-1794984D02*
X-4522914Y-1661650D01*
X-4522914Y-1680698D02*
X-4513390Y-1671174D01*
X-4513390Y-1671174D02*
X-4494342Y-1661650D01*
X-4494342Y-1661650D02*
X-4465771Y-1661650D01*
X-4465771Y-1661650D02*
X-4446723Y-1671174D01*
X-4446723Y-1671174D02*
X-4437199Y-1690222D01*
X-4437199Y-1690222D02*
X-4437199Y-1794984D01*
X-4437199Y-1690222D02*
X-4427676Y-1671174D01*
X-4427676Y-1671174D02*
X-4408628Y-1661650D01*
X-4408628Y-1661650D02*
X-4380057Y-1661650D01*
X-4380057Y-1661650D02*
X-4361009Y-1671174D01*
X-4361009Y-1671174D02*
X-4351485Y-1690222D01*
X-4351485Y-1690222D02*
X-4351485Y-1794984D01*
X-3961009Y-1585460D02*
X-4132437Y-1842603D01*
X-3703866Y-1594984D02*
X-3684818Y-1594984D01*
X-3684818Y-1594984D02*
X-3665771Y-1604508D01*
X-3665771Y-1604508D02*
X-3656247Y-1614031D01*
X-3656247Y-1614031D02*
X-3646723Y-1633079D01*
X-3646723Y-1633079D02*
X-3637199Y-1671174D01*
X-3637199Y-1671174D02*
X-3637199Y-1718793D01*
X-3637199Y-1718793D02*
X-3646723Y-1756888D01*
X-3646723Y-1756888D02*
X-3656247Y-1775936D01*
X-3656247Y-1775936D02*
X-3665771Y-1785460D01*
X-3665771Y-1785460D02*
X-3684818Y-1794984D01*
X-3684818Y-1794984D02*
X-3703866Y-1794984D01*
X-3703866Y-1794984D02*
X-3722913Y-1785460D01*
X-3722913Y-1785460D02*
X-3732437Y-1775936D01*
X-3732437Y-1775936D02*
X-3741961Y-1756888D01*
X-3741961Y-1756888D02*
X-3751485Y-1718793D01*
X-3751485Y-1718793D02*
X-3751485Y-1671174D01*
X-3751485Y-1671174D02*
X-3741961Y-1633079D01*
X-3741961Y-1633079D02*
X-3732437Y-1614031D01*
X-3732437Y-1614031D02*
X-3722913Y-1604508D01*
X-3722913Y-1604508D02*
X-3703866Y-1594984D01*
X-3551485Y-1775936D02*
X-3541961Y-1785460D01*
X-3541961Y-1785460D02*
X-3551485Y-1794984D01*
X-3551485Y-1794984D02*
X-3561009Y-1785460D01*
X-3561009Y-1785460D02*
X-3551485Y-1775936D01*
X-3551485Y-1775936D02*
X-3551485Y-1794984D01*
X-3418152Y-1594984D02*
X-3399104Y-1594984D01*
X-3399104Y-1594984D02*
X-3380056Y-1604508D01*
X-3380056Y-1604508D02*
X-3370532Y-1614031D01*
X-3370532Y-1614031D02*
X-3361009Y-1633079D01*
X-3361009Y-1633079D02*
X-3351485Y-1671174D01*
X-3351485Y-1671174D02*
X-3351485Y-1718793D01*
X-3351485Y-1718793D02*
X-3361009Y-1756888D01*
X-3361009Y-1756888D02*
X-3370532Y-1775936D01*
X-3370532Y-1775936D02*
X-3380056Y-1785460D01*
X-3380056Y-1785460D02*
X-3399104Y-1794984D01*
X-3399104Y-1794984D02*
X-3418152Y-1794984D01*
X-3418152Y-1794984D02*
X-3437199Y-1785460D01*
X-3437199Y-1785460D02*
X-3446723Y-1775936D01*
X-3446723Y-1775936D02*
X-3456247Y-1756888D01*
X-3456247Y-1756888D02*
X-3465771Y-1718793D01*
X-3465771Y-1718793D02*
X-3465771Y-1671174D01*
X-3465771Y-1671174D02*
X-3456247Y-1633079D01*
X-3456247Y-1633079D02*
X-3446723Y-1614031D01*
X-3446723Y-1614031D02*
X-3437199Y-1604508D01*
X-3437199Y-1604508D02*
X-3418152Y-1594984D01*
X-3284818Y-1594984D02*
X-3161009Y-1594984D01*
X-3161009Y-1594984D02*
X-3227675Y-1671174D01*
X-3227675Y-1671174D02*
X-3199104Y-1671174D01*
X-3199104Y-1671174D02*
X-3180056Y-1680698D01*
X-3180056Y-1680698D02*
X-3170532Y-1690222D01*
X-3170532Y-1690222D02*
X-3161009Y-1709269D01*
X-3161009Y-1709269D02*
X-3161009Y-1756888D01*
X-3161009Y-1756888D02*
X-3170532Y-1775936D01*
X-3170532Y-1775936D02*
X-3180056Y-1785460D01*
X-3180056Y-1785460D02*
X-3199104Y-1794984D01*
X-3199104Y-1794984D02*
X-3256247Y-1794984D01*
X-3256247Y-1794984D02*
X-3275294Y-1785460D01*
X-3275294Y-1785460D02*
X-3284818Y-1775936D01*
X-2980056Y-1594984D02*
X-3075294Y-1594984D01*
X-3075294Y-1594984D02*
X-3084818Y-1690222D01*
X-3084818Y-1690222D02*
X-3075294Y-1680698D01*
X-3075294Y-1680698D02*
X-3056247Y-1671174D01*
X-3056247Y-1671174D02*
X-3008628Y-1671174D01*
X-3008628Y-1671174D02*
X-2989580Y-1680698D01*
X-2989580Y-1680698D02*
X-2980056Y-1690222D01*
X-2980056Y-1690222D02*
X-2970532Y-1709269D01*
X-2970532Y-1709269D02*
X-2970532Y-1756888D01*
X-2970532Y-1756888D02*
X-2980056Y-1775936D01*
X-2980056Y-1775936D02*
X-2989580Y-1785460D01*
X-2989580Y-1785460D02*
X-3008628Y-1794984D01*
X-3008628Y-1794984D02*
X-3056247Y-1794984D01*
X-3056247Y-1794984D02*
X-3075294Y-1785460D01*
X-3075294Y-1785460D02*
X-3084818Y-1775936D01*
X-2846723Y-1594984D02*
X-2827675Y-1594984D01*
X-2827675Y-1594984D02*
X-2808628Y-1604508D01*
X-2808628Y-1604508D02*
X-2799104Y-1614031D01*
X-2799104Y-1614031D02*
X-2789580Y-1633079D01*
X-2789580Y-1633079D02*
X-2780056Y-1671174D01*
X-2780056Y-1671174D02*
X-2780056Y-1718793D01*
X-2780056Y-1718793D02*
X-2789580Y-1756888D01*
X-2789580Y-1756888D02*
X-2799104Y-1775936D01*
X-2799104Y-1775936D02*
X-2808628Y-1785460D01*
X-2808628Y-1785460D02*
X-2827675Y-1794984D01*
X-2827675Y-1794984D02*
X-2846723Y-1794984D01*
X-2846723Y-1794984D02*
X-2865771Y-1785460D01*
X-2865771Y-1785460D02*
X-2875294Y-1775936D01*
X-2875294Y-1775936D02*
X-2884818Y-1756888D01*
X-2884818Y-1756888D02*
X-2894342Y-1718793D01*
X-2894342Y-1718793D02*
X-2894342Y-1671174D01*
X-2894342Y-1671174D02*
X-2884818Y-1633079D01*
X-2884818Y-1633079D02*
X-2875294Y-1614031D01*
X-2875294Y-1614031D02*
X-2865771Y-1604508D01*
X-2865771Y-1604508D02*
X-2846723Y-1594984D01*
X-2703866Y-1594984D02*
X-2703866Y-1633079D01*
X-2627675Y-1594984D02*
X-2627675Y-1633079D01*
X-2332437Y-1871174D02*
X-2341961Y-1861650D01*
X-2341961Y-1861650D02*
X-2361009Y-1833079D01*
X-2361009Y-1833079D02*
X-2370532Y-1814031D01*
X-2370532Y-1814031D02*
X-2380056Y-1785460D01*
X-2380056Y-1785460D02*
X-2389580Y-1737841D01*
X-2389580Y-1737841D02*
X-2389580Y-1699746D01*
X-2389580Y-1699746D02*
X-2380056Y-1652127D01*
X-2380056Y-1652127D02*
X-2370532Y-1623555D01*
X-2370532Y-1623555D02*
X-2361009Y-1604508D01*
X-2361009Y-1604508D02*
X-2341961Y-1575936D01*
X-2341961Y-1575936D02*
X-2332437Y-1566412D01*
X-2151485Y-1794984D02*
X-2265771Y-1794984D01*
X-2208628Y-1794984D02*
X-2208628Y-1594984D01*
X-2208628Y-1594984D02*
X-2227675Y-1623555D01*
X-2227675Y-1623555D02*
X-2246723Y-1642603D01*
X-2246723Y-1642603D02*
X-2265771Y-1652127D01*
X-2075294Y-1614031D02*
X-2065770Y-1604508D01*
X-2065770Y-1604508D02*
X-2046723Y-1594984D01*
X-2046723Y-1594984D02*
X-1999104Y-1594984D01*
X-1999104Y-1594984D02*
X-1980056Y-1604508D01*
X-1980056Y-1604508D02*
X-1970532Y-1614031D01*
X-1970532Y-1614031D02*
X-1961009Y-1633079D01*
X-1961009Y-1633079D02*
X-1961009Y-1652127D01*
X-1961009Y-1652127D02*
X-1970532Y-1680698D01*
X-1970532Y-1680698D02*
X-2084818Y-1794984D01*
X-2084818Y-1794984D02*
X-1961009Y-1794984D01*
X-1722913Y-1794984D02*
X-1722913Y-1594984D01*
X-1637199Y-1794984D02*
X-1637199Y-1690222D01*
X-1637199Y-1690222D02*
X-1646723Y-1671174D01*
X-1646723Y-1671174D02*
X-1665770Y-1661650D01*
X-1665770Y-1661650D02*
X-1694342Y-1661650D01*
X-1694342Y-1661650D02*
X-1713389Y-1671174D01*
X-1713389Y-1671174D02*
X-1722913Y-1680698D01*
X-1513389Y-1794984D02*
X-1532437Y-1785460D01*
X-1532437Y-1785460D02*
X-1541961Y-1775936D01*
X-1541961Y-1775936D02*
X-1551485Y-1756888D01*
X-1551485Y-1756888D02*
X-1551485Y-1699746D01*
X-1551485Y-1699746D02*
X-1541961Y-1680698D01*
X-1541961Y-1680698D02*
X-1532437Y-1671174D01*
X-1532437Y-1671174D02*
X-1513389Y-1661650D01*
X-1513389Y-1661650D02*
X-1484818Y-1661650D01*
X-1484818Y-1661650D02*
X-1465770Y-1671174D01*
X-1465770Y-1671174D02*
X-1456247Y-1680698D01*
X-1456247Y-1680698D02*
X-1446723Y-1699746D01*
X-1446723Y-1699746D02*
X-1446723Y-1756888D01*
X-1446723Y-1756888D02*
X-1456247Y-1775936D01*
X-1456247Y-1775936D02*
X-1465770Y-1785460D01*
X-1465770Y-1785460D02*
X-1484818Y-1794984D01*
X-1484818Y-1794984D02*
X-1513389Y-1794984D01*
X-1332437Y-1794984D02*
X-1351485Y-1785460D01*
X-1351485Y-1785460D02*
X-1361009Y-1766412D01*
X-1361009Y-1766412D02*
X-1361009Y-1594984D01*
X-1180056Y-1785460D02*
X-1199104Y-1794984D01*
X-1199104Y-1794984D02*
X-1237199Y-1794984D01*
X-1237199Y-1794984D02*
X-1256247Y-1785460D01*
X-1256247Y-1785460D02*
X-1265770Y-1766412D01*
X-1265770Y-1766412D02*
X-1265770Y-1690222D01*
X-1265770Y-1690222D02*
X-1256247Y-1671174D01*
X-1256247Y-1671174D02*
X-1237199Y-1661650D01*
X-1237199Y-1661650D02*
X-1199104Y-1661650D01*
X-1199104Y-1661650D02*
X-1180056Y-1671174D01*
X-1180056Y-1671174D02*
X-1170532Y-1690222D01*
X-1170532Y-1690222D02*
X-1170532Y-1709269D01*
X-1170532Y-1709269D02*
X-1265770Y-1728317D01*
X-1094342Y-1785460D02*
X-1075294Y-1794984D01*
X-1075294Y-1794984D02*
X-1037199Y-1794984D01*
X-1037199Y-1794984D02*
X-1018151Y-1785460D01*
X-1018151Y-1785460D02*
X-1008627Y-1766412D01*
X-1008627Y-1766412D02*
X-1008627Y-1756888D01*
X-1008627Y-1756888D02*
X-1018151Y-1737841D01*
X-1018151Y-1737841D02*
X-1037199Y-1728317D01*
X-1037199Y-1728317D02*
X-1065770Y-1728317D01*
X-1065770Y-1728317D02*
X-1084818Y-1718793D01*
X-1084818Y-1718793D02*
X-1094342Y-1699746D01*
X-1094342Y-1699746D02*
X-1094342Y-1690222D01*
X-1094342Y-1690222D02*
X-1084818Y-1671174D01*
X-1084818Y-1671174D02*
X-1065770Y-1661650D01*
X-1065770Y-1661650D02*
X-1037199Y-1661650D01*
X-1037199Y-1661650D02*
X-1018151Y-1671174D01*
X-941961Y-1871174D02*
X-932437Y-1861650D01*
X-932437Y-1861650D02*
X-913389Y-1833079D01*
X-913389Y-1833079D02*
X-903866Y-1814031D01*
X-903866Y-1814031D02*
X-894342Y-1785460D01*
X-894342Y-1785460D02*
X-884818Y-1737841D01*
X-884818Y-1737841D02*
X-884818Y-1699746D01*
X-884818Y-1699746D02*
X-894342Y-1652127D01*
X-894342Y-1652127D02*
X-903866Y-1623555D01*
X-903866Y-1623555D02*
X-913389Y-1604508D01*
X-913389Y-1604508D02*
X-932437Y-1575936D01*
X-932437Y-1575936D02*
X-941961Y-1566412D01*
D12*
X-5998940Y-1921780D02*
X-5907500Y-2013220D01*
X-5907500Y-1921780D02*
X-5998940Y-2013220D01*
X-5907500Y-1967500D02*
G75*
G02*
X-5998940Y-1967500I-45720J0D01*
G01*
X-5998940Y-1967500D02*
G75*
G02*
X-5907500Y-1967500I45720J0D01*
G01*
D11*
X-5608628Y-1858984D02*
X-5589580Y-1858984D01*
X-5589580Y-1858984D02*
X-5570533Y-1868508D01*
X-5570533Y-1868508D02*
X-5561009Y-1878031D01*
X-5561009Y-1878031D02*
X-5551485Y-1897079D01*
X-5551485Y-1897079D02*
X-5541961Y-1935174D01*
X-5541961Y-1935174D02*
X-5541961Y-1982793D01*
X-5541961Y-1982793D02*
X-5551485Y-2020888D01*
X-5551485Y-2020888D02*
X-5561009Y-2039936D01*
X-5561009Y-2039936D02*
X-5570533Y-2049460D01*
X-5570533Y-2049460D02*
X-5589580Y-2058984D01*
X-5589580Y-2058984D02*
X-5608628Y-2058984D01*
X-5608628Y-2058984D02*
X-5627676Y-2049460D01*
X-5627676Y-2049460D02*
X-5637199Y-2039936D01*
X-5637199Y-2039936D02*
X-5646723Y-2020888D01*
X-5646723Y-2020888D02*
X-5656247Y-1982793D01*
X-5656247Y-1982793D02*
X-5656247Y-1935174D01*
X-5656247Y-1935174D02*
X-5646723Y-1897079D01*
X-5646723Y-1897079D02*
X-5637199Y-1878031D01*
X-5637199Y-1878031D02*
X-5627676Y-1868508D01*
X-5627676Y-1868508D02*
X-5608628Y-1858984D01*
X-5456247Y-2039936D02*
X-5446723Y-2049460D01*
X-5446723Y-2049460D02*
X-5456247Y-2058984D01*
X-5456247Y-2058984D02*
X-5465771Y-2049460D01*
X-5465771Y-2049460D02*
X-5456247Y-2039936D01*
X-5456247Y-2039936D02*
X-5456247Y-2058984D01*
X-5351485Y-2058984D02*
X-5313390Y-2058984D01*
X-5313390Y-2058984D02*
X-5294342Y-2049460D01*
X-5294342Y-2049460D02*
X-5284818Y-2039936D01*
X-5284818Y-2039936D02*
X-5265771Y-2011365D01*
X-5265771Y-2011365D02*
X-5256247Y-1973269D01*
X-5256247Y-1973269D02*
X-5256247Y-1897079D01*
X-5256247Y-1897079D02*
X-5265771Y-1878031D01*
X-5265771Y-1878031D02*
X-5275295Y-1868508D01*
X-5275295Y-1868508D02*
X-5294342Y-1858984D01*
X-5294342Y-1858984D02*
X-5332438Y-1858984D01*
X-5332438Y-1858984D02*
X-5351485Y-1868508D01*
X-5351485Y-1868508D02*
X-5361009Y-1878031D01*
X-5361009Y-1878031D02*
X-5370533Y-1897079D01*
X-5370533Y-1897079D02*
X-5370533Y-1944698D01*
X-5370533Y-1944698D02*
X-5361009Y-1963746D01*
X-5361009Y-1963746D02*
X-5351485Y-1973269D01*
X-5351485Y-1973269D02*
X-5332438Y-1982793D01*
X-5332438Y-1982793D02*
X-5294342Y-1982793D01*
X-5294342Y-1982793D02*
X-5275295Y-1973269D01*
X-5275295Y-1973269D02*
X-5265771Y-1963746D01*
X-5265771Y-1963746D02*
X-5256247Y-1944698D01*
X-5065771Y-2058984D02*
X-5180057Y-2058984D01*
X-5122914Y-2058984D02*
X-5122914Y-1858984D01*
X-5122914Y-1858984D02*
X-5141961Y-1887555D01*
X-5141961Y-1887555D02*
X-5161009Y-1906603D01*
X-5161009Y-1906603D02*
X-5180057Y-1916127D01*
X-4894342Y-1925650D02*
X-4894342Y-2058984D01*
X-4941961Y-1849460D02*
X-4989580Y-1992317D01*
X-4989580Y-1992317D02*
X-4865771Y-1992317D01*
X-4789580Y-2058984D02*
X-4789580Y-1925650D01*
X-4789580Y-1944698D02*
X-4780057Y-1935174D01*
X-4780057Y-1935174D02*
X-4761009Y-1925650D01*
X-4761009Y-1925650D02*
X-4732437Y-1925650D01*
X-4732437Y-1925650D02*
X-4713390Y-1935174D01*
X-4713390Y-1935174D02*
X-4703866Y-1954222D01*
X-4703866Y-1954222D02*
X-4703866Y-2058984D01*
X-4703866Y-1954222D02*
X-4694342Y-1935174D01*
X-4694342Y-1935174D02*
X-4675295Y-1925650D01*
X-4675295Y-1925650D02*
X-4646723Y-1925650D01*
X-4646723Y-1925650D02*
X-4627676Y-1935174D01*
X-4627676Y-1935174D02*
X-4618152Y-1954222D01*
X-4618152Y-1954222D02*
X-4618152Y-2058984D01*
X-4522914Y-2058984D02*
X-4522914Y-1925650D01*
X-4522914Y-1944698D02*
X-4513390Y-1935174D01*
X-4513390Y-1935174D02*
X-4494342Y-1925650D01*
X-4494342Y-1925650D02*
X-4465771Y-1925650D01*
X-4465771Y-1925650D02*
X-4446723Y-1935174D01*
X-4446723Y-1935174D02*
X-4437199Y-1954222D01*
X-4437199Y-1954222D02*
X-4437199Y-2058984D01*
X-4437199Y-1954222D02*
X-4427676Y-1935174D01*
X-4427676Y-1935174D02*
X-4408628Y-1925650D01*
X-4408628Y-1925650D02*
X-4380057Y-1925650D01*
X-4380057Y-1925650D02*
X-4361009Y-1935174D01*
X-4361009Y-1935174D02*
X-4351485Y-1954222D01*
X-4351485Y-1954222D02*
X-4351485Y-2058984D01*
X-3961009Y-1849460D02*
X-4132437Y-2106603D01*
X-3703866Y-1858984D02*
X-3684818Y-1858984D01*
X-3684818Y-1858984D02*
X-3665771Y-1868508D01*
X-3665771Y-1868508D02*
X-3656247Y-1878031D01*
X-3656247Y-1878031D02*
X-3646723Y-1897079D01*
X-3646723Y-1897079D02*
X-3637199Y-1935174D01*
X-3637199Y-1935174D02*
X-3637199Y-1982793D01*
X-3637199Y-1982793D02*
X-3646723Y-2020888D01*
X-3646723Y-2020888D02*
X-3656247Y-2039936D01*
X-3656247Y-2039936D02*
X-3665771Y-2049460D01*
X-3665771Y-2049460D02*
X-3684818Y-2058984D01*
X-3684818Y-2058984D02*
X-3703866Y-2058984D01*
X-3703866Y-2058984D02*
X-3722913Y-2049460D01*
X-3722913Y-2049460D02*
X-3732437Y-2039936D01*
X-3732437Y-2039936D02*
X-3741961Y-2020888D01*
X-3741961Y-2020888D02*
X-3751485Y-1982793D01*
X-3751485Y-1982793D02*
X-3751485Y-1935174D01*
X-3751485Y-1935174D02*
X-3741961Y-1897079D01*
X-3741961Y-1897079D02*
X-3732437Y-1878031D01*
X-3732437Y-1878031D02*
X-3722913Y-1868508D01*
X-3722913Y-1868508D02*
X-3703866Y-1858984D01*
X-3551485Y-2039936D02*
X-3541961Y-2049460D01*
X-3541961Y-2049460D02*
X-3551485Y-2058984D01*
X-3551485Y-2058984D02*
X-3561009Y-2049460D01*
X-3561009Y-2049460D02*
X-3551485Y-2039936D01*
X-3551485Y-2039936D02*
X-3551485Y-2058984D01*
X-3418152Y-1858984D02*
X-3399104Y-1858984D01*
X-3399104Y-1858984D02*
X-3380056Y-1868508D01*
X-3380056Y-1868508D02*
X-3370532Y-1878031D01*
X-3370532Y-1878031D02*
X-3361009Y-1897079D01*
X-3361009Y-1897079D02*
X-3351485Y-1935174D01*
X-3351485Y-1935174D02*
X-3351485Y-1982793D01*
X-3351485Y-1982793D02*
X-3361009Y-2020888D01*
X-3361009Y-2020888D02*
X-3370532Y-2039936D01*
X-3370532Y-2039936D02*
X-3380056Y-2049460D01*
X-3380056Y-2049460D02*
X-3399104Y-2058984D01*
X-3399104Y-2058984D02*
X-3418152Y-2058984D01*
X-3418152Y-2058984D02*
X-3437199Y-2049460D01*
X-3437199Y-2049460D02*
X-3446723Y-2039936D01*
X-3446723Y-2039936D02*
X-3456247Y-2020888D01*
X-3456247Y-2020888D02*
X-3465771Y-1982793D01*
X-3465771Y-1982793D02*
X-3465771Y-1935174D01*
X-3465771Y-1935174D02*
X-3456247Y-1897079D01*
X-3456247Y-1897079D02*
X-3446723Y-1878031D01*
X-3446723Y-1878031D02*
X-3437199Y-1868508D01*
X-3437199Y-1868508D02*
X-3418152Y-1858984D01*
X-3284818Y-1858984D02*
X-3161009Y-1858984D01*
X-3161009Y-1858984D02*
X-3227675Y-1935174D01*
X-3227675Y-1935174D02*
X-3199104Y-1935174D01*
X-3199104Y-1935174D02*
X-3180056Y-1944698D01*
X-3180056Y-1944698D02*
X-3170532Y-1954222D01*
X-3170532Y-1954222D02*
X-3161009Y-1973269D01*
X-3161009Y-1973269D02*
X-3161009Y-2020888D01*
X-3161009Y-2020888D02*
X-3170532Y-2039936D01*
X-3170532Y-2039936D02*
X-3180056Y-2049460D01*
X-3180056Y-2049460D02*
X-3199104Y-2058984D01*
X-3199104Y-2058984D02*
X-3256247Y-2058984D01*
X-3256247Y-2058984D02*
X-3275294Y-2049460D01*
X-3275294Y-2049460D02*
X-3284818Y-2039936D01*
X-2989580Y-1858984D02*
X-3027675Y-1858984D01*
X-3027675Y-1858984D02*
X-3046723Y-1868508D01*
X-3046723Y-1868508D02*
X-3056247Y-1878031D01*
X-3056247Y-1878031D02*
X-3075294Y-1906603D01*
X-3075294Y-1906603D02*
X-3084818Y-1944698D01*
X-3084818Y-1944698D02*
X-3084818Y-2020888D01*
X-3084818Y-2020888D02*
X-3075294Y-2039936D01*
X-3075294Y-2039936D02*
X-3065771Y-2049460D01*
X-3065771Y-2049460D02*
X-3046723Y-2058984D01*
X-3046723Y-2058984D02*
X-3008628Y-2058984D01*
X-3008628Y-2058984D02*
X-2989580Y-2049460D01*
X-2989580Y-2049460D02*
X-2980056Y-2039936D01*
X-2980056Y-2039936D02*
X-2970532Y-2020888D01*
X-2970532Y-2020888D02*
X-2970532Y-1973269D01*
X-2970532Y-1973269D02*
X-2980056Y-1954222D01*
X-2980056Y-1954222D02*
X-2989580Y-1944698D01*
X-2989580Y-1944698D02*
X-3008628Y-1935174D01*
X-3008628Y-1935174D02*
X-3046723Y-1935174D01*
X-3046723Y-1935174D02*
X-3065771Y-1944698D01*
X-3065771Y-1944698D02*
X-3075294Y-1954222D01*
X-3075294Y-1954222D02*
X-3084818Y-1973269D01*
X-2846723Y-1858984D02*
X-2827675Y-1858984D01*
X-2827675Y-1858984D02*
X-2808628Y-1868508D01*
X-2808628Y-1868508D02*
X-2799104Y-1878031D01*
X-2799104Y-1878031D02*
X-2789580Y-1897079D01*
X-2789580Y-1897079D02*
X-2780056Y-1935174D01*
X-2780056Y-1935174D02*
X-2780056Y-1982793D01*
X-2780056Y-1982793D02*
X-2789580Y-2020888D01*
X-2789580Y-2020888D02*
X-2799104Y-2039936D01*
X-2799104Y-2039936D02*
X-2808628Y-2049460D01*
X-2808628Y-2049460D02*
X-2827675Y-2058984D01*
X-2827675Y-2058984D02*
X-2846723Y-2058984D01*
X-2846723Y-2058984D02*
X-2865771Y-2049460D01*
X-2865771Y-2049460D02*
X-2875294Y-2039936D01*
X-2875294Y-2039936D02*
X-2884818Y-2020888D01*
X-2884818Y-2020888D02*
X-2894342Y-1982793D01*
X-2894342Y-1982793D02*
X-2894342Y-1935174D01*
X-2894342Y-1935174D02*
X-2884818Y-1897079D01*
X-2884818Y-1897079D02*
X-2875294Y-1878031D01*
X-2875294Y-1878031D02*
X-2865771Y-1868508D01*
X-2865771Y-1868508D02*
X-2846723Y-1858984D01*
X-2703866Y-1858984D02*
X-2703866Y-1897079D01*
X-2627675Y-1858984D02*
X-2627675Y-1897079D01*
X-2332437Y-2135174D02*
X-2341961Y-2125650D01*
X-2341961Y-2125650D02*
X-2361009Y-2097079D01*
X-2361009Y-2097079D02*
X-2370532Y-2078031D01*
X-2370532Y-2078031D02*
X-2380056Y-2049460D01*
X-2380056Y-2049460D02*
X-2389580Y-2001841D01*
X-2389580Y-2001841D02*
X-2389580Y-1963746D01*
X-2389580Y-1963746D02*
X-2380056Y-1916127D01*
X-2380056Y-1916127D02*
X-2370532Y-1887555D01*
X-2370532Y-1887555D02*
X-2361009Y-1868508D01*
X-2361009Y-1868508D02*
X-2341961Y-1839936D01*
X-2341961Y-1839936D02*
X-2332437Y-1830412D01*
X-2265771Y-1878031D02*
X-2256247Y-1868508D01*
X-2256247Y-1868508D02*
X-2237199Y-1858984D01*
X-2237199Y-1858984D02*
X-2189580Y-1858984D01*
X-2189580Y-1858984D02*
X-2170532Y-1868508D01*
X-2170532Y-1868508D02*
X-2161009Y-1878031D01*
X-2161009Y-1878031D02*
X-2151485Y-1897079D01*
X-2151485Y-1897079D02*
X-2151485Y-1916127D01*
X-2151485Y-1916127D02*
X-2161009Y-1944698D01*
X-2161009Y-1944698D02*
X-2275294Y-2058984D01*
X-2275294Y-2058984D02*
X-2151485Y-2058984D01*
X-1913389Y-2058984D02*
X-1913389Y-1858984D01*
X-1827675Y-2058984D02*
X-1827675Y-1954222D01*
X-1827675Y-1954222D02*
X-1837199Y-1935174D01*
X-1837199Y-1935174D02*
X-1856247Y-1925650D01*
X-1856247Y-1925650D02*
X-1884818Y-1925650D01*
X-1884818Y-1925650D02*
X-1903866Y-1935174D01*
X-1903866Y-1935174D02*
X-1913389Y-1944698D01*
X-1703866Y-2058984D02*
X-1722913Y-2049460D01*
X-1722913Y-2049460D02*
X-1732437Y-2039936D01*
X-1732437Y-2039936D02*
X-1741961Y-2020888D01*
X-1741961Y-2020888D02*
X-1741961Y-1963746D01*
X-1741961Y-1963746D02*
X-1732437Y-1944698D01*
X-1732437Y-1944698D02*
X-1722913Y-1935174D01*
X-1722913Y-1935174D02*
X-1703866Y-1925650D01*
X-1703866Y-1925650D02*
X-1675294Y-1925650D01*
X-1675294Y-1925650D02*
X-1656247Y-1935174D01*
X-1656247Y-1935174D02*
X-1646723Y-1944698D01*
X-1646723Y-1944698D02*
X-1637199Y-1963746D01*
X-1637199Y-1963746D02*
X-1637199Y-2020888D01*
X-1637199Y-2020888D02*
X-1646723Y-2039936D01*
X-1646723Y-2039936D02*
X-1656247Y-2049460D01*
X-1656247Y-2049460D02*
X-1675294Y-2058984D01*
X-1675294Y-2058984D02*
X-1703866Y-2058984D01*
X-1522913Y-2058984D02*
X-1541961Y-2049460D01*
X-1541961Y-2049460D02*
X-1551485Y-2030412D01*
X-1551485Y-2030412D02*
X-1551485Y-1858984D01*
X-1370532Y-2049460D02*
X-1389580Y-2058984D01*
X-1389580Y-2058984D02*
X-1427675Y-2058984D01*
X-1427675Y-2058984D02*
X-1446723Y-2049460D01*
X-1446723Y-2049460D02*
X-1456247Y-2030412D01*
X-1456247Y-2030412D02*
X-1456247Y-1954222D01*
X-1456247Y-1954222D02*
X-1446723Y-1935174D01*
X-1446723Y-1935174D02*
X-1427675Y-1925650D01*
X-1427675Y-1925650D02*
X-1389580Y-1925650D01*
X-1389580Y-1925650D02*
X-1370532Y-1935174D01*
X-1370532Y-1935174D02*
X-1361009Y-1954222D01*
X-1361009Y-1954222D02*
X-1361009Y-1973269D01*
X-1361009Y-1973269D02*
X-1456247Y-1992317D01*
X-1284818Y-2049460D02*
X-1265770Y-2058984D01*
X-1265770Y-2058984D02*
X-1227675Y-2058984D01*
X-1227675Y-2058984D02*
X-1208628Y-2049460D01*
X-1208628Y-2049460D02*
X-1199104Y-2030412D01*
X-1199104Y-2030412D02*
X-1199104Y-2020888D01*
X-1199104Y-2020888D02*
X-1208628Y-2001841D01*
X-1208628Y-2001841D02*
X-1227675Y-1992317D01*
X-1227675Y-1992317D02*
X-1256247Y-1992317D01*
X-1256247Y-1992317D02*
X-1275294Y-1982793D01*
X-1275294Y-1982793D02*
X-1284818Y-1963746D01*
X-1284818Y-1963746D02*
X-1284818Y-1954222D01*
X-1284818Y-1954222D02*
X-1275294Y-1935174D01*
X-1275294Y-1935174D02*
X-1256247Y-1925650D01*
X-1256247Y-1925650D02*
X-1227675Y-1925650D01*
X-1227675Y-1925650D02*
X-1208628Y-1935174D01*
X-1132437Y-2135174D02*
X-1122913Y-2125650D01*
X-1122913Y-2125650D02*
X-1103866Y-2097079D01*
X-1103866Y-2097079D02*
X-1094342Y-2078031D01*
X-1094342Y-2078031D02*
X-1084818Y-2049460D01*
X-1084818Y-2049460D02*
X-1075294Y-2001841D01*
X-1075294Y-2001841D02*
X-1075294Y-1963746D01*
X-1075294Y-1963746D02*
X-1084818Y-1916127D01*
X-1084818Y-1916127D02*
X-1094342Y-1887555D01*
X-1094342Y-1887555D02*
X-1103866Y-1868508D01*
X-1103866Y-1868508D02*
X-1122913Y-1839936D01*
X-1122913Y-1839936D02*
X-1132437Y-1830412D01*
D12*
X-6007500Y-2181500D02*
X-5907500Y-2281500D01*
X-5907500Y-2181500D02*
X-6007500Y-2281500D01*
X-5957500Y-2181500D02*
X-5957500Y-2281500D01*
X-6007500Y-2231500D02*
X-5907500Y-2231500D01*
D11*
X-5541961Y-2322984D02*
X-5656247Y-2322984D01*
X-5599104Y-2322984D02*
X-5599104Y-2122984D01*
X-5599104Y-2122984D02*
X-5618152Y-2151555D01*
X-5618152Y-2151555D02*
X-5637199Y-2170603D01*
X-5637199Y-2170603D02*
X-5656247Y-2180127D01*
X-5456247Y-2303936D02*
X-5446723Y-2313460D01*
X-5446723Y-2313460D02*
X-5456247Y-2322984D01*
X-5456247Y-2322984D02*
X-5465771Y-2313460D01*
X-5465771Y-2313460D02*
X-5456247Y-2303936D01*
X-5456247Y-2303936D02*
X-5456247Y-2322984D01*
X-5322914Y-2122984D02*
X-5303866Y-2122984D01*
X-5303866Y-2122984D02*
X-5284818Y-2132508D01*
X-5284818Y-2132508D02*
X-5275295Y-2142031D01*
X-5275295Y-2142031D02*
X-5265771Y-2161079D01*
X-5265771Y-2161079D02*
X-5256247Y-2199174D01*
X-5256247Y-2199174D02*
X-5256247Y-2246793D01*
X-5256247Y-2246793D02*
X-5265771Y-2284889D01*
X-5265771Y-2284889D02*
X-5275295Y-2303936D01*
X-5275295Y-2303936D02*
X-5284818Y-2313460D01*
X-5284818Y-2313460D02*
X-5303866Y-2322984D01*
X-5303866Y-2322984D02*
X-5322914Y-2322984D01*
X-5322914Y-2322984D02*
X-5341961Y-2313460D01*
X-5341961Y-2313460D02*
X-5351485Y-2303936D01*
X-5351485Y-2303936D02*
X-5361009Y-2284889D01*
X-5361009Y-2284889D02*
X-5370533Y-2246793D01*
X-5370533Y-2246793D02*
X-5370533Y-2199174D01*
X-5370533Y-2199174D02*
X-5361009Y-2161079D01*
X-5361009Y-2161079D02*
X-5351485Y-2142031D01*
X-5351485Y-2142031D02*
X-5341961Y-2132508D01*
X-5341961Y-2132508D02*
X-5322914Y-2122984D01*
X-5132438Y-2122984D02*
X-5113390Y-2122984D01*
X-5113390Y-2122984D02*
X-5094342Y-2132508D01*
X-5094342Y-2132508D02*
X-5084818Y-2142031D01*
X-5084818Y-2142031D02*
X-5075295Y-2161079D01*
X-5075295Y-2161079D02*
X-5065771Y-2199174D01*
X-5065771Y-2199174D02*
X-5065771Y-2246793D01*
X-5065771Y-2246793D02*
X-5075295Y-2284889D01*
X-5075295Y-2284889D02*
X-5084818Y-2303936D01*
X-5084818Y-2303936D02*
X-5094342Y-2313460D01*
X-5094342Y-2313460D02*
X-5113390Y-2322984D01*
X-5113390Y-2322984D02*
X-5132438Y-2322984D01*
X-5132438Y-2322984D02*
X-5151485Y-2313460D01*
X-5151485Y-2313460D02*
X-5161009Y-2303936D01*
X-5161009Y-2303936D02*
X-5170533Y-2284889D01*
X-5170533Y-2284889D02*
X-5180057Y-2246793D01*
X-5180057Y-2246793D02*
X-5180057Y-2199174D01*
X-5180057Y-2199174D02*
X-5170533Y-2161079D01*
X-5170533Y-2161079D02*
X-5161009Y-2142031D01*
X-5161009Y-2142031D02*
X-5151485Y-2132508D01*
X-5151485Y-2132508D02*
X-5132438Y-2122984D01*
X-4941961Y-2122984D02*
X-4922914Y-2122984D01*
X-4922914Y-2122984D02*
X-4903866Y-2132508D01*
X-4903866Y-2132508D02*
X-4894342Y-2142031D01*
X-4894342Y-2142031D02*
X-4884818Y-2161079D01*
X-4884818Y-2161079D02*
X-4875295Y-2199174D01*
X-4875295Y-2199174D02*
X-4875295Y-2246793D01*
X-4875295Y-2246793D02*
X-4884818Y-2284889D01*
X-4884818Y-2284889D02*
X-4894342Y-2303936D01*
X-4894342Y-2303936D02*
X-4903866Y-2313460D01*
X-4903866Y-2313460D02*
X-4922914Y-2322984D01*
X-4922914Y-2322984D02*
X-4941961Y-2322984D01*
X-4941961Y-2322984D02*
X-4961009Y-2313460D01*
X-4961009Y-2313460D02*
X-4970533Y-2303936D01*
X-4970533Y-2303936D02*
X-4980057Y-2284889D01*
X-4980057Y-2284889D02*
X-4989580Y-2246793D01*
X-4989580Y-2246793D02*
X-4989580Y-2199174D01*
X-4989580Y-2199174D02*
X-4980057Y-2161079D01*
X-4980057Y-2161079D02*
X-4970533Y-2142031D01*
X-4970533Y-2142031D02*
X-4961009Y-2132508D01*
X-4961009Y-2132508D02*
X-4941961Y-2122984D01*
X-4789580Y-2322984D02*
X-4789580Y-2189650D01*
X-4789580Y-2208698D02*
X-4780057Y-2199174D01*
X-4780057Y-2199174D02*
X-4761009Y-2189650D01*
X-4761009Y-2189650D02*
X-4732437Y-2189650D01*
X-4732437Y-2189650D02*
X-4713390Y-2199174D01*
X-4713390Y-2199174D02*
X-4703866Y-2218222D01*
X-4703866Y-2218222D02*
X-4703866Y-2322984D01*
X-4703866Y-2218222D02*
X-4694342Y-2199174D01*
X-4694342Y-2199174D02*
X-4675295Y-2189650D01*
X-4675295Y-2189650D02*
X-4646723Y-2189650D01*
X-4646723Y-2189650D02*
X-4627676Y-2199174D01*
X-4627676Y-2199174D02*
X-4618152Y-2218222D01*
X-4618152Y-2218222D02*
X-4618152Y-2322984D01*
X-4522914Y-2322984D02*
X-4522914Y-2189650D01*
X-4522914Y-2208698D02*
X-4513390Y-2199174D01*
X-4513390Y-2199174D02*
X-4494342Y-2189650D01*
X-4494342Y-2189650D02*
X-4465771Y-2189650D01*
X-4465771Y-2189650D02*
X-4446723Y-2199174D01*
X-4446723Y-2199174D02*
X-4437199Y-2218222D01*
X-4437199Y-2218222D02*
X-4437199Y-2322984D01*
X-4437199Y-2218222D02*
X-4427676Y-2199174D01*
X-4427676Y-2199174D02*
X-4408628Y-2189650D01*
X-4408628Y-2189650D02*
X-4380057Y-2189650D01*
X-4380057Y-2189650D02*
X-4361009Y-2199174D01*
X-4361009Y-2199174D02*
X-4351485Y-2218222D01*
X-4351485Y-2218222D02*
X-4351485Y-2322984D01*
X-3961009Y-2113460D02*
X-4132437Y-2370603D01*
X-3703866Y-2122984D02*
X-3684818Y-2122984D01*
X-3684818Y-2122984D02*
X-3665771Y-2132508D01*
X-3665771Y-2132508D02*
X-3656247Y-2142031D01*
X-3656247Y-2142031D02*
X-3646723Y-2161079D01*
X-3646723Y-2161079D02*
X-3637199Y-2199174D01*
X-3637199Y-2199174D02*
X-3637199Y-2246793D01*
X-3637199Y-2246793D02*
X-3646723Y-2284889D01*
X-3646723Y-2284889D02*
X-3656247Y-2303936D01*
X-3656247Y-2303936D02*
X-3665771Y-2313460D01*
X-3665771Y-2313460D02*
X-3684818Y-2322984D01*
X-3684818Y-2322984D02*
X-3703866Y-2322984D01*
X-3703866Y-2322984D02*
X-3722913Y-2313460D01*
X-3722913Y-2313460D02*
X-3732437Y-2303936D01*
X-3732437Y-2303936D02*
X-3741961Y-2284889D01*
X-3741961Y-2284889D02*
X-3751485Y-2246793D01*
X-3751485Y-2246793D02*
X-3751485Y-2199174D01*
X-3751485Y-2199174D02*
X-3741961Y-2161079D01*
X-3741961Y-2161079D02*
X-3732437Y-2142031D01*
X-3732437Y-2142031D02*
X-3722913Y-2132508D01*
X-3722913Y-2132508D02*
X-3703866Y-2122984D01*
X-3551485Y-2303936D02*
X-3541961Y-2313460D01*
X-3541961Y-2313460D02*
X-3551485Y-2322984D01*
X-3551485Y-2322984D02*
X-3561009Y-2313460D01*
X-3561009Y-2313460D02*
X-3551485Y-2303936D01*
X-3551485Y-2303936D02*
X-3551485Y-2322984D01*
X-3418152Y-2122984D02*
X-3399104Y-2122984D01*
X-3399104Y-2122984D02*
X-3380056Y-2132508D01*
X-3380056Y-2132508D02*
X-3370532Y-2142031D01*
X-3370532Y-2142031D02*
X-3361009Y-2161079D01*
X-3361009Y-2161079D02*
X-3351485Y-2199174D01*
X-3351485Y-2199174D02*
X-3351485Y-2246793D01*
X-3351485Y-2246793D02*
X-3361009Y-2284889D01*
X-3361009Y-2284889D02*
X-3370532Y-2303936D01*
X-3370532Y-2303936D02*
X-3380056Y-2313460D01*
X-3380056Y-2313460D02*
X-3399104Y-2322984D01*
X-3399104Y-2322984D02*
X-3418152Y-2322984D01*
X-3418152Y-2322984D02*
X-3437199Y-2313460D01*
X-3437199Y-2313460D02*
X-3446723Y-2303936D01*
X-3446723Y-2303936D02*
X-3456247Y-2284889D01*
X-3456247Y-2284889D02*
X-3465771Y-2246793D01*
X-3465771Y-2246793D02*
X-3465771Y-2199174D01*
X-3465771Y-2199174D02*
X-3456247Y-2161079D01*
X-3456247Y-2161079D02*
X-3446723Y-2142031D01*
X-3446723Y-2142031D02*
X-3437199Y-2132508D01*
X-3437199Y-2132508D02*
X-3418152Y-2122984D01*
X-3284818Y-2122984D02*
X-3161009Y-2122984D01*
X-3161009Y-2122984D02*
X-3227675Y-2199174D01*
X-3227675Y-2199174D02*
X-3199104Y-2199174D01*
X-3199104Y-2199174D02*
X-3180056Y-2208698D01*
X-3180056Y-2208698D02*
X-3170532Y-2218222D01*
X-3170532Y-2218222D02*
X-3161009Y-2237270D01*
X-3161009Y-2237270D02*
X-3161009Y-2284889D01*
X-3161009Y-2284889D02*
X-3170532Y-2303936D01*
X-3170532Y-2303936D02*
X-3180056Y-2313460D01*
X-3180056Y-2313460D02*
X-3199104Y-2322984D01*
X-3199104Y-2322984D02*
X-3256247Y-2322984D01*
X-3256247Y-2322984D02*
X-3275294Y-2313460D01*
X-3275294Y-2313460D02*
X-3284818Y-2303936D01*
X-3065771Y-2322984D02*
X-3027675Y-2322984D01*
X-3027675Y-2322984D02*
X-3008628Y-2313460D01*
X-3008628Y-2313460D02*
X-2999104Y-2303936D01*
X-2999104Y-2303936D02*
X-2980056Y-2275365D01*
X-2980056Y-2275365D02*
X-2970532Y-2237270D01*
X-2970532Y-2237270D02*
X-2970532Y-2161079D01*
X-2970532Y-2161079D02*
X-2980056Y-2142031D01*
X-2980056Y-2142031D02*
X-2989580Y-2132508D01*
X-2989580Y-2132508D02*
X-3008628Y-2122984D01*
X-3008628Y-2122984D02*
X-3046723Y-2122984D01*
X-3046723Y-2122984D02*
X-3065771Y-2132508D01*
X-3065771Y-2132508D02*
X-3075294Y-2142031D01*
X-3075294Y-2142031D02*
X-3084818Y-2161079D01*
X-3084818Y-2161079D02*
X-3084818Y-2208698D01*
X-3084818Y-2208698D02*
X-3075294Y-2227746D01*
X-3075294Y-2227746D02*
X-3065771Y-2237270D01*
X-3065771Y-2237270D02*
X-3046723Y-2246793D01*
X-3046723Y-2246793D02*
X-3008628Y-2246793D01*
X-3008628Y-2246793D02*
X-2989580Y-2237270D01*
X-2989580Y-2237270D02*
X-2980056Y-2227746D01*
X-2980056Y-2227746D02*
X-2970532Y-2208698D01*
X-2799104Y-2189650D02*
X-2799104Y-2322984D01*
X-2846723Y-2113460D02*
X-2894342Y-2256317D01*
X-2894342Y-2256317D02*
X-2770533Y-2256317D01*
X-2703866Y-2122984D02*
X-2703866Y-2161079D01*
X-2627675Y-2122984D02*
X-2627675Y-2161079D01*
X-2332437Y-2399174D02*
X-2341961Y-2389650D01*
X-2341961Y-2389650D02*
X-2361009Y-2361079D01*
X-2361009Y-2361079D02*
X-2370532Y-2342031D01*
X-2370532Y-2342031D02*
X-2380056Y-2313460D01*
X-2380056Y-2313460D02*
X-2389580Y-2265841D01*
X-2389580Y-2265841D02*
X-2389580Y-2227746D01*
X-2389580Y-2227746D02*
X-2380056Y-2180127D01*
X-2380056Y-2180127D02*
X-2370532Y-2151555D01*
X-2370532Y-2151555D02*
X-2361009Y-2132508D01*
X-2361009Y-2132508D02*
X-2341961Y-2103936D01*
X-2341961Y-2103936D02*
X-2332437Y-2094412D01*
X-2275294Y-2122984D02*
X-2151485Y-2122984D01*
X-2151485Y-2122984D02*
X-2218152Y-2199174D01*
X-2218152Y-2199174D02*
X-2189580Y-2199174D01*
X-2189580Y-2199174D02*
X-2170532Y-2208698D01*
X-2170532Y-2208698D02*
X-2161009Y-2218222D01*
X-2161009Y-2218222D02*
X-2151485Y-2237270D01*
X-2151485Y-2237270D02*
X-2151485Y-2284889D01*
X-2151485Y-2284889D02*
X-2161009Y-2303936D01*
X-2161009Y-2303936D02*
X-2170532Y-2313460D01*
X-2170532Y-2313460D02*
X-2189580Y-2322984D01*
X-2189580Y-2322984D02*
X-2246723Y-2322984D01*
X-2246723Y-2322984D02*
X-2265771Y-2313460D01*
X-2265771Y-2313460D02*
X-2275294Y-2303936D01*
X-1980056Y-2189650D02*
X-1980056Y-2322984D01*
X-2027675Y-2113460D02*
X-2075294Y-2256317D01*
X-2075294Y-2256317D02*
X-1951485Y-2256317D01*
X-1722913Y-2322984D02*
X-1722913Y-2122984D01*
X-1637199Y-2322984D02*
X-1637199Y-2218222D01*
X-1637199Y-2218222D02*
X-1646723Y-2199174D01*
X-1646723Y-2199174D02*
X-1665770Y-2189650D01*
X-1665770Y-2189650D02*
X-1694342Y-2189650D01*
X-1694342Y-2189650D02*
X-1713389Y-2199174D01*
X-1713389Y-2199174D02*
X-1722913Y-2208698D01*
X-1513389Y-2322984D02*
X-1532437Y-2313460D01*
X-1532437Y-2313460D02*
X-1541961Y-2303936D01*
X-1541961Y-2303936D02*
X-1551485Y-2284889D01*
X-1551485Y-2284889D02*
X-1551485Y-2227746D01*
X-1551485Y-2227746D02*
X-1541961Y-2208698D01*
X-1541961Y-2208698D02*
X-1532437Y-2199174D01*
X-1532437Y-2199174D02*
X-1513389Y-2189650D01*
X-1513389Y-2189650D02*
X-1484818Y-2189650D01*
X-1484818Y-2189650D02*
X-1465770Y-2199174D01*
X-1465770Y-2199174D02*
X-1456247Y-2208698D01*
X-1456247Y-2208698D02*
X-1446723Y-2227746D01*
X-1446723Y-2227746D02*
X-1446723Y-2284889D01*
X-1446723Y-2284889D02*
X-1456247Y-2303936D01*
X-1456247Y-2303936D02*
X-1465770Y-2313460D01*
X-1465770Y-2313460D02*
X-1484818Y-2322984D01*
X-1484818Y-2322984D02*
X-1513389Y-2322984D01*
X-1332437Y-2322984D02*
X-1351485Y-2313460D01*
X-1351485Y-2313460D02*
X-1361009Y-2294412D01*
X-1361009Y-2294412D02*
X-1361009Y-2122984D01*
X-1180056Y-2313460D02*
X-1199104Y-2322984D01*
X-1199104Y-2322984D02*
X-1237199Y-2322984D01*
X-1237199Y-2322984D02*
X-1256247Y-2313460D01*
X-1256247Y-2313460D02*
X-1265770Y-2294412D01*
X-1265770Y-2294412D02*
X-1265770Y-2218222D01*
X-1265770Y-2218222D02*
X-1256247Y-2199174D01*
X-1256247Y-2199174D02*
X-1237199Y-2189650D01*
X-1237199Y-2189650D02*
X-1199104Y-2189650D01*
X-1199104Y-2189650D02*
X-1180056Y-2199174D01*
X-1180056Y-2199174D02*
X-1170532Y-2218222D01*
X-1170532Y-2218222D02*
X-1170532Y-2237270D01*
X-1170532Y-2237270D02*
X-1265770Y-2256317D01*
X-1094342Y-2313460D02*
X-1075294Y-2322984D01*
X-1075294Y-2322984D02*
X-1037199Y-2322984D01*
X-1037199Y-2322984D02*
X-1018151Y-2313460D01*
X-1018151Y-2313460D02*
X-1008627Y-2294412D01*
X-1008627Y-2294412D02*
X-1008627Y-2284889D01*
X-1008627Y-2284889D02*
X-1018151Y-2265841D01*
X-1018151Y-2265841D02*
X-1037199Y-2256317D01*
X-1037199Y-2256317D02*
X-1065770Y-2256317D01*
X-1065770Y-2256317D02*
X-1084818Y-2246793D01*
X-1084818Y-2246793D02*
X-1094342Y-2227746D01*
X-1094342Y-2227746D02*
X-1094342Y-2218222D01*
X-1094342Y-2218222D02*
X-1084818Y-2199174D01*
X-1084818Y-2199174D02*
X-1065770Y-2189650D01*
X-1065770Y-2189650D02*
X-1037199Y-2189650D01*
X-1037199Y-2189650D02*
X-1018151Y-2199174D01*
X-941961Y-2399174D02*
X-932437Y-2389650D01*
X-932437Y-2389650D02*
X-913389Y-2361079D01*
X-913389Y-2361079D02*
X-903866Y-2342031D01*
X-903866Y-2342031D02*
X-894342Y-2313460D01*
X-894342Y-2313460D02*
X-884818Y-2265841D01*
X-884818Y-2265841D02*
X-884818Y-2227746D01*
X-884818Y-2227746D02*
X-894342Y-2180127D01*
X-894342Y-2180127D02*
X-903866Y-2151555D01*
X-903866Y-2151555D02*
X-913389Y-2132508D01*
X-913389Y-2132508D02*
X-932437Y-2103936D01*
X-932437Y-2103936D02*
X-941961Y-2094412D01*
D13*
X-6021800Y-2438350D02*
X-5907500Y-2552650D01*
X-5907500Y-2438350D02*
X-6021800Y-2552650D01*
X-5924238Y-2535912D02*
X-5924238Y-2455089D01*
X-6005061Y-2455089D01*
X-6005061Y-2535912D01*
X-5924238Y-2535912D01*
D11*
X-5541961Y-2586984D02*
X-5656247Y-2586984D01*
X-5599104Y-2586984D02*
X-5599104Y-2386984D01*
X-5599104Y-2386984D02*
X-5618152Y-2415555D01*
X-5618152Y-2415555D02*
X-5637199Y-2434603D01*
X-5637199Y-2434603D02*
X-5656247Y-2444127D01*
X-5456247Y-2567936D02*
X-5446723Y-2577460D01*
X-5446723Y-2577460D02*
X-5456247Y-2586984D01*
X-5456247Y-2586984D02*
X-5465771Y-2577460D01*
X-5465771Y-2577460D02*
X-5456247Y-2567936D01*
X-5456247Y-2567936D02*
X-5456247Y-2586984D01*
X-5256247Y-2586984D02*
X-5370533Y-2586984D01*
X-5313390Y-2586984D02*
X-5313390Y-2386984D01*
X-5313390Y-2386984D02*
X-5332438Y-2415555D01*
X-5332438Y-2415555D02*
X-5351485Y-2434603D01*
X-5351485Y-2434603D02*
X-5370533Y-2444127D01*
X-5084818Y-2453650D02*
X-5084818Y-2586984D01*
X-5132438Y-2377460D02*
X-5180057Y-2520317D01*
X-5180057Y-2520317D02*
X-5056247Y-2520317D01*
X-4999104Y-2386984D02*
X-4875295Y-2386984D01*
X-4875295Y-2386984D02*
X-4941961Y-2463174D01*
X-4941961Y-2463174D02*
X-4913390Y-2463174D01*
X-4913390Y-2463174D02*
X-4894342Y-2472698D01*
X-4894342Y-2472698D02*
X-4884818Y-2482222D01*
X-4884818Y-2482222D02*
X-4875295Y-2501270D01*
X-4875295Y-2501270D02*
X-4875295Y-2548889D01*
X-4875295Y-2548889D02*
X-4884818Y-2567936D01*
X-4884818Y-2567936D02*
X-4894342Y-2577460D01*
X-4894342Y-2577460D02*
X-4913390Y-2586984D01*
X-4913390Y-2586984D02*
X-4970533Y-2586984D01*
X-4970533Y-2586984D02*
X-4989580Y-2577460D01*
X-4989580Y-2577460D02*
X-4999104Y-2567936D01*
X-4789580Y-2586984D02*
X-4789580Y-2453650D01*
X-4789580Y-2472698D02*
X-4780057Y-2463174D01*
X-4780057Y-2463174D02*
X-4761009Y-2453650D01*
X-4761009Y-2453650D02*
X-4732437Y-2453650D01*
X-4732437Y-2453650D02*
X-4713390Y-2463174D01*
X-4713390Y-2463174D02*
X-4703866Y-2482222D01*
X-4703866Y-2482222D02*
X-4703866Y-2586984D01*
X-4703866Y-2482222D02*
X-4694342Y-2463174D01*
X-4694342Y-2463174D02*
X-4675295Y-2453650D01*
X-4675295Y-2453650D02*
X-4646723Y-2453650D01*
X-4646723Y-2453650D02*
X-4627676Y-2463174D01*
X-4627676Y-2463174D02*
X-4618152Y-2482222D01*
X-4618152Y-2482222D02*
X-4618152Y-2586984D01*
X-4522914Y-2586984D02*
X-4522914Y-2453650D01*
X-4522914Y-2472698D02*
X-4513390Y-2463174D01*
X-4513390Y-2463174D02*
X-4494342Y-2453650D01*
X-4494342Y-2453650D02*
X-4465771Y-2453650D01*
X-4465771Y-2453650D02*
X-4446723Y-2463174D01*
X-4446723Y-2463174D02*
X-4437199Y-2482222D01*
X-4437199Y-2482222D02*
X-4437199Y-2586984D01*
X-4437199Y-2482222D02*
X-4427676Y-2463174D01*
X-4427676Y-2463174D02*
X-4408628Y-2453650D01*
X-4408628Y-2453650D02*
X-4380057Y-2453650D01*
X-4380057Y-2453650D02*
X-4361009Y-2463174D01*
X-4361009Y-2463174D02*
X-4351485Y-2482222D01*
X-4351485Y-2482222D02*
X-4351485Y-2586984D01*
X-3961009Y-2377460D02*
X-4132437Y-2634603D01*
X-3703866Y-2386984D02*
X-3684818Y-2386984D01*
X-3684818Y-2386984D02*
X-3665771Y-2396508D01*
X-3665771Y-2396508D02*
X-3656247Y-2406031D01*
X-3656247Y-2406031D02*
X-3646723Y-2425079D01*
X-3646723Y-2425079D02*
X-3637199Y-2463174D01*
X-3637199Y-2463174D02*
X-3637199Y-2510793D01*
X-3637199Y-2510793D02*
X-3646723Y-2548889D01*
X-3646723Y-2548889D02*
X-3656247Y-2567936D01*
X-3656247Y-2567936D02*
X-3665771Y-2577460D01*
X-3665771Y-2577460D02*
X-3684818Y-2586984D01*
X-3684818Y-2586984D02*
X-3703866Y-2586984D01*
X-3703866Y-2586984D02*
X-3722913Y-2577460D01*
X-3722913Y-2577460D02*
X-3732437Y-2567936D01*
X-3732437Y-2567936D02*
X-3741961Y-2548889D01*
X-3741961Y-2548889D02*
X-3751485Y-2510793D01*
X-3751485Y-2510793D02*
X-3751485Y-2463174D01*
X-3751485Y-2463174D02*
X-3741961Y-2425079D01*
X-3741961Y-2425079D02*
X-3732437Y-2406031D01*
X-3732437Y-2406031D02*
X-3722913Y-2396508D01*
X-3722913Y-2396508D02*
X-3703866Y-2386984D01*
X-3551485Y-2567936D02*
X-3541961Y-2577460D01*
X-3541961Y-2577460D02*
X-3551485Y-2586984D01*
X-3551485Y-2586984D02*
X-3561009Y-2577460D01*
X-3561009Y-2577460D02*
X-3551485Y-2567936D01*
X-3551485Y-2567936D02*
X-3551485Y-2586984D01*
X-3418152Y-2386984D02*
X-3399104Y-2386984D01*
X-3399104Y-2386984D02*
X-3380056Y-2396508D01*
X-3380056Y-2396508D02*
X-3370532Y-2406031D01*
X-3370532Y-2406031D02*
X-3361009Y-2425079D01*
X-3361009Y-2425079D02*
X-3351485Y-2463174D01*
X-3351485Y-2463174D02*
X-3351485Y-2510793D01*
X-3351485Y-2510793D02*
X-3361009Y-2548889D01*
X-3361009Y-2548889D02*
X-3370532Y-2567936D01*
X-3370532Y-2567936D02*
X-3380056Y-2577460D01*
X-3380056Y-2577460D02*
X-3399104Y-2586984D01*
X-3399104Y-2586984D02*
X-3418152Y-2586984D01*
X-3418152Y-2586984D02*
X-3437199Y-2577460D01*
X-3437199Y-2577460D02*
X-3446723Y-2567936D01*
X-3446723Y-2567936D02*
X-3456247Y-2548889D01*
X-3456247Y-2548889D02*
X-3465771Y-2510793D01*
X-3465771Y-2510793D02*
X-3465771Y-2463174D01*
X-3465771Y-2463174D02*
X-3456247Y-2425079D01*
X-3456247Y-2425079D02*
X-3446723Y-2406031D01*
X-3446723Y-2406031D02*
X-3437199Y-2396508D01*
X-3437199Y-2396508D02*
X-3418152Y-2386984D01*
X-3180056Y-2453650D02*
X-3180056Y-2586984D01*
X-3227675Y-2377460D02*
X-3275294Y-2520317D01*
X-3275294Y-2520317D02*
X-3151485Y-2520317D01*
X-2980056Y-2386984D02*
X-3075294Y-2386984D01*
X-3075294Y-2386984D02*
X-3084818Y-2482222D01*
X-3084818Y-2482222D02*
X-3075294Y-2472698D01*
X-3075294Y-2472698D02*
X-3056247Y-2463174D01*
X-3056247Y-2463174D02*
X-3008628Y-2463174D01*
X-3008628Y-2463174D02*
X-2989580Y-2472698D01*
X-2989580Y-2472698D02*
X-2980056Y-2482222D01*
X-2980056Y-2482222D02*
X-2970532Y-2501270D01*
X-2970532Y-2501270D02*
X-2970532Y-2548889D01*
X-2970532Y-2548889D02*
X-2980056Y-2567936D01*
X-2980056Y-2567936D02*
X-2989580Y-2577460D01*
X-2989580Y-2577460D02*
X-3008628Y-2586984D01*
X-3008628Y-2586984D02*
X-3056247Y-2586984D01*
X-3056247Y-2586984D02*
X-3075294Y-2577460D01*
X-3075294Y-2577460D02*
X-3084818Y-2567936D01*
X-2846723Y-2386984D02*
X-2827675Y-2386984D01*
X-2827675Y-2386984D02*
X-2808628Y-2396508D01*
X-2808628Y-2396508D02*
X-2799104Y-2406031D01*
X-2799104Y-2406031D02*
X-2789580Y-2425079D01*
X-2789580Y-2425079D02*
X-2780056Y-2463174D01*
X-2780056Y-2463174D02*
X-2780056Y-2510793D01*
X-2780056Y-2510793D02*
X-2789580Y-2548889D01*
X-2789580Y-2548889D02*
X-2799104Y-2567936D01*
X-2799104Y-2567936D02*
X-2808628Y-2577460D01*
X-2808628Y-2577460D02*
X-2827675Y-2586984D01*
X-2827675Y-2586984D02*
X-2846723Y-2586984D01*
X-2846723Y-2586984D02*
X-2865771Y-2577460D01*
X-2865771Y-2577460D02*
X-2875294Y-2567936D01*
X-2875294Y-2567936D02*
X-2884818Y-2548889D01*
X-2884818Y-2548889D02*
X-2894342Y-2510793D01*
X-2894342Y-2510793D02*
X-2894342Y-2463174D01*
X-2894342Y-2463174D02*
X-2884818Y-2425079D01*
X-2884818Y-2425079D02*
X-2875294Y-2406031D01*
X-2875294Y-2406031D02*
X-2865771Y-2396508D01*
X-2865771Y-2396508D02*
X-2846723Y-2386984D01*
X-2703866Y-2386984D02*
X-2703866Y-2425079D01*
X-2627675Y-2386984D02*
X-2627675Y-2425079D01*
X-2332437Y-2663174D02*
X-2341961Y-2653650D01*
X-2341961Y-2653650D02*
X-2361009Y-2625079D01*
X-2361009Y-2625079D02*
X-2370532Y-2606031D01*
X-2370532Y-2606031D02*
X-2380056Y-2577460D01*
X-2380056Y-2577460D02*
X-2389580Y-2529841D01*
X-2389580Y-2529841D02*
X-2389580Y-2491746D01*
X-2389580Y-2491746D02*
X-2380056Y-2444127D01*
X-2380056Y-2444127D02*
X-2370532Y-2415555D01*
X-2370532Y-2415555D02*
X-2361009Y-2396508D01*
X-2361009Y-2396508D02*
X-2341961Y-2367936D01*
X-2341961Y-2367936D02*
X-2332437Y-2358412D01*
X-2265771Y-2406031D02*
X-2256247Y-2396508D01*
X-2256247Y-2396508D02*
X-2237199Y-2386984D01*
X-2237199Y-2386984D02*
X-2189580Y-2386984D01*
X-2189580Y-2386984D02*
X-2170532Y-2396508D01*
X-2170532Y-2396508D02*
X-2161009Y-2406031D01*
X-2161009Y-2406031D02*
X-2151485Y-2425079D01*
X-2151485Y-2425079D02*
X-2151485Y-2444127D01*
X-2151485Y-2444127D02*
X-2161009Y-2472698D01*
X-2161009Y-2472698D02*
X-2275294Y-2586984D01*
X-2275294Y-2586984D02*
X-2151485Y-2586984D01*
X-1980056Y-2453650D02*
X-1980056Y-2586984D01*
X-2027675Y-2377460D02*
X-2075294Y-2520317D01*
X-2075294Y-2520317D02*
X-1951485Y-2520317D01*
X-1722913Y-2586984D02*
X-1722913Y-2386984D01*
X-1637199Y-2586984D02*
X-1637199Y-2482222D01*
X-1637199Y-2482222D02*
X-1646723Y-2463174D01*
X-1646723Y-2463174D02*
X-1665770Y-2453650D01*
X-1665770Y-2453650D02*
X-1694342Y-2453650D01*
X-1694342Y-2453650D02*
X-1713389Y-2463174D01*
X-1713389Y-2463174D02*
X-1722913Y-2472698D01*
X-1513389Y-2586984D02*
X-1532437Y-2577460D01*
X-1532437Y-2577460D02*
X-1541961Y-2567936D01*
X-1541961Y-2567936D02*
X-1551485Y-2548889D01*
X-1551485Y-2548889D02*
X-1551485Y-2491746D01*
X-1551485Y-2491746D02*
X-1541961Y-2472698D01*
X-1541961Y-2472698D02*
X-1532437Y-2463174D01*
X-1532437Y-2463174D02*
X-1513389Y-2453650D01*
X-1513389Y-2453650D02*
X-1484818Y-2453650D01*
X-1484818Y-2453650D02*
X-1465770Y-2463174D01*
X-1465770Y-2463174D02*
X-1456247Y-2472698D01*
X-1456247Y-2472698D02*
X-1446723Y-2491746D01*
X-1446723Y-2491746D02*
X-1446723Y-2548889D01*
X-1446723Y-2548889D02*
X-1456247Y-2567936D01*
X-1456247Y-2567936D02*
X-1465770Y-2577460D01*
X-1465770Y-2577460D02*
X-1484818Y-2586984D01*
X-1484818Y-2586984D02*
X-1513389Y-2586984D01*
X-1332437Y-2586984D02*
X-1351485Y-2577460D01*
X-1351485Y-2577460D02*
X-1361009Y-2558412D01*
X-1361009Y-2558412D02*
X-1361009Y-2386984D01*
X-1180056Y-2577460D02*
X-1199104Y-2586984D01*
X-1199104Y-2586984D02*
X-1237199Y-2586984D01*
X-1237199Y-2586984D02*
X-1256247Y-2577460D01*
X-1256247Y-2577460D02*
X-1265770Y-2558412D01*
X-1265770Y-2558412D02*
X-1265770Y-2482222D01*
X-1265770Y-2482222D02*
X-1256247Y-2463174D01*
X-1256247Y-2463174D02*
X-1237199Y-2453650D01*
X-1237199Y-2453650D02*
X-1199104Y-2453650D01*
X-1199104Y-2453650D02*
X-1180056Y-2463174D01*
X-1180056Y-2463174D02*
X-1170532Y-2482222D01*
X-1170532Y-2482222D02*
X-1170532Y-2501270D01*
X-1170532Y-2501270D02*
X-1265770Y-2520317D01*
X-1094342Y-2577460D02*
X-1075294Y-2586984D01*
X-1075294Y-2586984D02*
X-1037199Y-2586984D01*
X-1037199Y-2586984D02*
X-1018151Y-2577460D01*
X-1018151Y-2577460D02*
X-1008627Y-2558412D01*
X-1008627Y-2558412D02*
X-1008627Y-2548889D01*
X-1008627Y-2548889D02*
X-1018151Y-2529841D01*
X-1018151Y-2529841D02*
X-1037199Y-2520317D01*
X-1037199Y-2520317D02*
X-1065770Y-2520317D01*
X-1065770Y-2520317D02*
X-1084818Y-2510793D01*
X-1084818Y-2510793D02*
X-1094342Y-2491746D01*
X-1094342Y-2491746D02*
X-1094342Y-2482222D01*
X-1094342Y-2482222D02*
X-1084818Y-2463174D01*
X-1084818Y-2463174D02*
X-1065770Y-2453650D01*
X-1065770Y-2453650D02*
X-1037199Y-2453650D01*
X-1037199Y-2453650D02*
X-1018151Y-2463174D01*
X-941961Y-2663174D02*
X-932437Y-2653650D01*
X-932437Y-2653650D02*
X-913389Y-2625079D01*
X-913389Y-2625079D02*
X-903866Y-2606031D01*
X-903866Y-2606031D02*
X-894342Y-2577460D01*
X-894342Y-2577460D02*
X-884818Y-2529841D01*
X-884818Y-2529841D02*
X-884818Y-2491746D01*
X-884818Y-2491746D02*
X-894342Y-2444127D01*
X-894342Y-2444127D02*
X-903866Y-2415555D01*
X-903866Y-2415555D02*
X-913389Y-2396508D01*
X-913389Y-2396508D02*
X-932437Y-2367936D01*
X-932437Y-2367936D02*
X-941961Y-2358412D01*
D14*
X-6027500Y-2699500D02*
X-5907500Y-2819500D01*
X-5907500Y-2699500D02*
X-6027500Y-2819500D01*
X-5967500Y-2819500D02*
X-5907500Y-2759500D01*
X-5967500Y-2699500D01*
X-6027500Y-2759500D01*
X-5967500Y-2819500D01*
D11*
X-5541961Y-2850984D02*
X-5656247Y-2850984D01*
X-5599104Y-2850984D02*
X-5599104Y-2650984D01*
X-5599104Y-2650984D02*
X-5618152Y-2679555D01*
X-5618152Y-2679555D02*
X-5637199Y-2698603D01*
X-5637199Y-2698603D02*
X-5656247Y-2708127D01*
X-5456247Y-2831936D02*
X-5446723Y-2841460D01*
X-5446723Y-2841460D02*
X-5456247Y-2850984D01*
X-5456247Y-2850984D02*
X-5465771Y-2841460D01*
X-5465771Y-2841460D02*
X-5456247Y-2831936D01*
X-5456247Y-2831936D02*
X-5456247Y-2850984D01*
X-5370533Y-2670031D02*
X-5361009Y-2660508D01*
X-5361009Y-2660508D02*
X-5341961Y-2650984D01*
X-5341961Y-2650984D02*
X-5294342Y-2650984D01*
X-5294342Y-2650984D02*
X-5275295Y-2660508D01*
X-5275295Y-2660508D02*
X-5265771Y-2670031D01*
X-5265771Y-2670031D02*
X-5256247Y-2689079D01*
X-5256247Y-2689079D02*
X-5256247Y-2708127D01*
X-5256247Y-2708127D02*
X-5265771Y-2736698D01*
X-5265771Y-2736698D02*
X-5380057Y-2850984D01*
X-5380057Y-2850984D02*
X-5256247Y-2850984D01*
X-5132438Y-2650984D02*
X-5113390Y-2650984D01*
X-5113390Y-2650984D02*
X-5094342Y-2660508D01*
X-5094342Y-2660508D02*
X-5084818Y-2670031D01*
X-5084818Y-2670031D02*
X-5075295Y-2689079D01*
X-5075295Y-2689079D02*
X-5065771Y-2727174D01*
X-5065771Y-2727174D02*
X-5065771Y-2774793D01*
X-5065771Y-2774793D02*
X-5075295Y-2812888D01*
X-5075295Y-2812888D02*
X-5084818Y-2831936D01*
X-5084818Y-2831936D02*
X-5094342Y-2841460D01*
X-5094342Y-2841460D02*
X-5113390Y-2850984D01*
X-5113390Y-2850984D02*
X-5132438Y-2850984D01*
X-5132438Y-2850984D02*
X-5151485Y-2841460D01*
X-5151485Y-2841460D02*
X-5161009Y-2831936D01*
X-5161009Y-2831936D02*
X-5170533Y-2812888D01*
X-5170533Y-2812888D02*
X-5180057Y-2774793D01*
X-5180057Y-2774793D02*
X-5180057Y-2727174D01*
X-5180057Y-2727174D02*
X-5170533Y-2689079D01*
X-5170533Y-2689079D02*
X-5161009Y-2670031D01*
X-5161009Y-2670031D02*
X-5151485Y-2660508D01*
X-5151485Y-2660508D02*
X-5132438Y-2650984D01*
X-4941961Y-2650984D02*
X-4922914Y-2650984D01*
X-4922914Y-2650984D02*
X-4903866Y-2660508D01*
X-4903866Y-2660508D02*
X-4894342Y-2670031D01*
X-4894342Y-2670031D02*
X-4884818Y-2689079D01*
X-4884818Y-2689079D02*
X-4875295Y-2727174D01*
X-4875295Y-2727174D02*
X-4875295Y-2774793D01*
X-4875295Y-2774793D02*
X-4884818Y-2812888D01*
X-4884818Y-2812888D02*
X-4894342Y-2831936D01*
X-4894342Y-2831936D02*
X-4903866Y-2841460D01*
X-4903866Y-2841460D02*
X-4922914Y-2850984D01*
X-4922914Y-2850984D02*
X-4941961Y-2850984D01*
X-4941961Y-2850984D02*
X-4961009Y-2841460D01*
X-4961009Y-2841460D02*
X-4970533Y-2831936D01*
X-4970533Y-2831936D02*
X-4980057Y-2812888D01*
X-4980057Y-2812888D02*
X-4989580Y-2774793D01*
X-4989580Y-2774793D02*
X-4989580Y-2727174D01*
X-4989580Y-2727174D02*
X-4980057Y-2689079D01*
X-4980057Y-2689079D02*
X-4970533Y-2670031D01*
X-4970533Y-2670031D02*
X-4961009Y-2660508D01*
X-4961009Y-2660508D02*
X-4941961Y-2650984D01*
X-4789580Y-2850984D02*
X-4789580Y-2717650D01*
X-4789580Y-2736698D02*
X-4780057Y-2727174D01*
X-4780057Y-2727174D02*
X-4761009Y-2717650D01*
X-4761009Y-2717650D02*
X-4732437Y-2717650D01*
X-4732437Y-2717650D02*
X-4713390Y-2727174D01*
X-4713390Y-2727174D02*
X-4703866Y-2746222D01*
X-4703866Y-2746222D02*
X-4703866Y-2850984D01*
X-4703866Y-2746222D02*
X-4694342Y-2727174D01*
X-4694342Y-2727174D02*
X-4675295Y-2717650D01*
X-4675295Y-2717650D02*
X-4646723Y-2717650D01*
X-4646723Y-2717650D02*
X-4627676Y-2727174D01*
X-4627676Y-2727174D02*
X-4618152Y-2746222D01*
X-4618152Y-2746222D02*
X-4618152Y-2850984D01*
X-4522914Y-2850984D02*
X-4522914Y-2717650D01*
X-4522914Y-2736698D02*
X-4513390Y-2727174D01*
X-4513390Y-2727174D02*
X-4494342Y-2717650D01*
X-4494342Y-2717650D02*
X-4465771Y-2717650D01*
X-4465771Y-2717650D02*
X-4446723Y-2727174D01*
X-4446723Y-2727174D02*
X-4437199Y-2746222D01*
X-4437199Y-2746222D02*
X-4437199Y-2850984D01*
X-4437199Y-2746222D02*
X-4427676Y-2727174D01*
X-4427676Y-2727174D02*
X-4408628Y-2717650D01*
X-4408628Y-2717650D02*
X-4380057Y-2717650D01*
X-4380057Y-2717650D02*
X-4361009Y-2727174D01*
X-4361009Y-2727174D02*
X-4351485Y-2746222D01*
X-4351485Y-2746222D02*
X-4351485Y-2850984D01*
X-3961009Y-2641460D02*
X-4132437Y-2898603D01*
X-3703866Y-2650984D02*
X-3684818Y-2650984D01*
X-3684818Y-2650984D02*
X-3665771Y-2660508D01*
X-3665771Y-2660508D02*
X-3656247Y-2670031D01*
X-3656247Y-2670031D02*
X-3646723Y-2689079D01*
X-3646723Y-2689079D02*
X-3637199Y-2727174D01*
X-3637199Y-2727174D02*
X-3637199Y-2774793D01*
X-3637199Y-2774793D02*
X-3646723Y-2812888D01*
X-3646723Y-2812888D02*
X-3656247Y-2831936D01*
X-3656247Y-2831936D02*
X-3665771Y-2841460D01*
X-3665771Y-2841460D02*
X-3684818Y-2850984D01*
X-3684818Y-2850984D02*
X-3703866Y-2850984D01*
X-3703866Y-2850984D02*
X-3722913Y-2841460D01*
X-3722913Y-2841460D02*
X-3732437Y-2831936D01*
X-3732437Y-2831936D02*
X-3741961Y-2812888D01*
X-3741961Y-2812888D02*
X-3751485Y-2774793D01*
X-3751485Y-2774793D02*
X-3751485Y-2727174D01*
X-3751485Y-2727174D02*
X-3741961Y-2689079D01*
X-3741961Y-2689079D02*
X-3732437Y-2670031D01*
X-3732437Y-2670031D02*
X-3722913Y-2660508D01*
X-3722913Y-2660508D02*
X-3703866Y-2650984D01*
X-3551485Y-2831936D02*
X-3541961Y-2841460D01*
X-3541961Y-2841460D02*
X-3551485Y-2850984D01*
X-3551485Y-2850984D02*
X-3561009Y-2841460D01*
X-3561009Y-2841460D02*
X-3551485Y-2831936D01*
X-3551485Y-2831936D02*
X-3551485Y-2850984D01*
X-3418152Y-2650984D02*
X-3399104Y-2650984D01*
X-3399104Y-2650984D02*
X-3380056Y-2660508D01*
X-3380056Y-2660508D02*
X-3370532Y-2670031D01*
X-3370532Y-2670031D02*
X-3361009Y-2689079D01*
X-3361009Y-2689079D02*
X-3351485Y-2727174D01*
X-3351485Y-2727174D02*
X-3351485Y-2774793D01*
X-3351485Y-2774793D02*
X-3361009Y-2812888D01*
X-3361009Y-2812888D02*
X-3370532Y-2831936D01*
X-3370532Y-2831936D02*
X-3380056Y-2841460D01*
X-3380056Y-2841460D02*
X-3399104Y-2850984D01*
X-3399104Y-2850984D02*
X-3418152Y-2850984D01*
X-3418152Y-2850984D02*
X-3437199Y-2841460D01*
X-3437199Y-2841460D02*
X-3446723Y-2831936D01*
X-3446723Y-2831936D02*
X-3456247Y-2812888D01*
X-3456247Y-2812888D02*
X-3465771Y-2774793D01*
X-3465771Y-2774793D02*
X-3465771Y-2727174D01*
X-3465771Y-2727174D02*
X-3456247Y-2689079D01*
X-3456247Y-2689079D02*
X-3446723Y-2670031D01*
X-3446723Y-2670031D02*
X-3437199Y-2660508D01*
X-3437199Y-2660508D02*
X-3418152Y-2650984D01*
X-3180056Y-2717650D02*
X-3180056Y-2850984D01*
X-3227675Y-2641460D02*
X-3275294Y-2784317D01*
X-3275294Y-2784317D02*
X-3151485Y-2784317D01*
X-3094342Y-2650984D02*
X-2961009Y-2650984D01*
X-2961009Y-2650984D02*
X-3046723Y-2850984D01*
X-2894342Y-2670031D02*
X-2884818Y-2660508D01*
X-2884818Y-2660508D02*
X-2865771Y-2650984D01*
X-2865771Y-2650984D02*
X-2818151Y-2650984D01*
X-2818151Y-2650984D02*
X-2799104Y-2660508D01*
X-2799104Y-2660508D02*
X-2789580Y-2670031D01*
X-2789580Y-2670031D02*
X-2780056Y-2689079D01*
X-2780056Y-2689079D02*
X-2780056Y-2708127D01*
X-2780056Y-2708127D02*
X-2789580Y-2736698D01*
X-2789580Y-2736698D02*
X-2903866Y-2850984D01*
X-2903866Y-2850984D02*
X-2780056Y-2850984D01*
X-2703866Y-2650984D02*
X-2703866Y-2689079D01*
X-2627675Y-2650984D02*
X-2627675Y-2689079D01*
X-2332437Y-2927174D02*
X-2341961Y-2917650D01*
X-2341961Y-2917650D02*
X-2361009Y-2889079D01*
X-2361009Y-2889079D02*
X-2370532Y-2870031D01*
X-2370532Y-2870031D02*
X-2380056Y-2841460D01*
X-2380056Y-2841460D02*
X-2389580Y-2793841D01*
X-2389580Y-2793841D02*
X-2389580Y-2755746D01*
X-2389580Y-2755746D02*
X-2380056Y-2708127D01*
X-2380056Y-2708127D02*
X-2370532Y-2679555D01*
X-2370532Y-2679555D02*
X-2361009Y-2660508D01*
X-2361009Y-2660508D02*
X-2341961Y-2631936D01*
X-2341961Y-2631936D02*
X-2332437Y-2622412D01*
X-2151485Y-2850984D02*
X-2265771Y-2850984D01*
X-2208628Y-2850984D02*
X-2208628Y-2650984D01*
X-2208628Y-2650984D02*
X-2227675Y-2679555D01*
X-2227675Y-2679555D02*
X-2246723Y-2698603D01*
X-2246723Y-2698603D02*
X-2265771Y-2708127D01*
X-2075294Y-2670031D02*
X-2065770Y-2660508D01*
X-2065770Y-2660508D02*
X-2046723Y-2650984D01*
X-2046723Y-2650984D02*
X-1999104Y-2650984D01*
X-1999104Y-2650984D02*
X-1980056Y-2660508D01*
X-1980056Y-2660508D02*
X-1970532Y-2670031D01*
X-1970532Y-2670031D02*
X-1961009Y-2689079D01*
X-1961009Y-2689079D02*
X-1961009Y-2708127D01*
X-1961009Y-2708127D02*
X-1970532Y-2736698D01*
X-1970532Y-2736698D02*
X-2084818Y-2850984D01*
X-2084818Y-2850984D02*
X-1961009Y-2850984D01*
X-1722913Y-2850984D02*
X-1722913Y-2650984D01*
X-1637199Y-2850984D02*
X-1637199Y-2746222D01*
X-1637199Y-2746222D02*
X-1646723Y-2727174D01*
X-1646723Y-2727174D02*
X-1665770Y-2717650D01*
X-1665770Y-2717650D02*
X-1694342Y-2717650D01*
X-1694342Y-2717650D02*
X-1713389Y-2727174D01*
X-1713389Y-2727174D02*
X-1722913Y-2736698D01*
X-1513389Y-2850984D02*
X-1532437Y-2841460D01*
X-1532437Y-2841460D02*
X-1541961Y-2831936D01*
X-1541961Y-2831936D02*
X-1551485Y-2812888D01*
X-1551485Y-2812888D02*
X-1551485Y-2755746D01*
X-1551485Y-2755746D02*
X-1541961Y-2736698D01*
X-1541961Y-2736698D02*
X-1532437Y-2727174D01*
X-1532437Y-2727174D02*
X-1513389Y-2717650D01*
X-1513389Y-2717650D02*
X-1484818Y-2717650D01*
X-1484818Y-2717650D02*
X-1465770Y-2727174D01*
X-1465770Y-2727174D02*
X-1456247Y-2736698D01*
X-1456247Y-2736698D02*
X-1446723Y-2755746D01*
X-1446723Y-2755746D02*
X-1446723Y-2812888D01*
X-1446723Y-2812888D02*
X-1456247Y-2831936D01*
X-1456247Y-2831936D02*
X-1465770Y-2841460D01*
X-1465770Y-2841460D02*
X-1484818Y-2850984D01*
X-1484818Y-2850984D02*
X-1513389Y-2850984D01*
X-1332437Y-2850984D02*
X-1351485Y-2841460D01*
X-1351485Y-2841460D02*
X-1361009Y-2822412D01*
X-1361009Y-2822412D02*
X-1361009Y-2650984D01*
X-1180056Y-2841460D02*
X-1199104Y-2850984D01*
X-1199104Y-2850984D02*
X-1237199Y-2850984D01*
X-1237199Y-2850984D02*
X-1256247Y-2841460D01*
X-1256247Y-2841460D02*
X-1265770Y-2822412D01*
X-1265770Y-2822412D02*
X-1265770Y-2746222D01*
X-1265770Y-2746222D02*
X-1256247Y-2727174D01*
X-1256247Y-2727174D02*
X-1237199Y-2717650D01*
X-1237199Y-2717650D02*
X-1199104Y-2717650D01*
X-1199104Y-2717650D02*
X-1180056Y-2727174D01*
X-1180056Y-2727174D02*
X-1170532Y-2746222D01*
X-1170532Y-2746222D02*
X-1170532Y-2765270D01*
X-1170532Y-2765270D02*
X-1265770Y-2784317D01*
X-1094342Y-2841460D02*
X-1075294Y-2850984D01*
X-1075294Y-2850984D02*
X-1037199Y-2850984D01*
X-1037199Y-2850984D02*
X-1018151Y-2841460D01*
X-1018151Y-2841460D02*
X-1008627Y-2822412D01*
X-1008627Y-2822412D02*
X-1008627Y-2812888D01*
X-1008627Y-2812888D02*
X-1018151Y-2793841D01*
X-1018151Y-2793841D02*
X-1037199Y-2784317D01*
X-1037199Y-2784317D02*
X-1065770Y-2784317D01*
X-1065770Y-2784317D02*
X-1084818Y-2774793D01*
X-1084818Y-2774793D02*
X-1094342Y-2755746D01*
X-1094342Y-2755746D02*
X-1094342Y-2746222D01*
X-1094342Y-2746222D02*
X-1084818Y-2727174D01*
X-1084818Y-2727174D02*
X-1065770Y-2717650D01*
X-1065770Y-2717650D02*
X-1037199Y-2717650D01*
X-1037199Y-2717650D02*
X-1018151Y-2727174D01*
X-941961Y-2927174D02*
X-932437Y-2917650D01*
X-932437Y-2917650D02*
X-913389Y-2889079D01*
X-913389Y-2889079D02*
X-903866Y-2870031D01*
X-903866Y-2870031D02*
X-894342Y-2841460D01*
X-894342Y-2841460D02*
X-884818Y-2793841D01*
X-884818Y-2793841D02*
X-884818Y-2755746D01*
X-884818Y-2755746D02*
X-894342Y-2708127D01*
X-894342Y-2708127D02*
X-903866Y-2679555D01*
X-903866Y-2679555D02*
X-913389Y-2660508D01*
X-913389Y-2660508D02*
X-932437Y-2631936D01*
X-932437Y-2631936D02*
X-941961Y-2622412D01*
M02*
