%TF.GenerationSoftware,KiCad,Pcbnew,7.0.1-0*%
%TF.CreationDate,2023-04-05T16:04:38-07:00*%
%TF.ProjectId,Kit-Trig-Sampler,4b69742d-5472-4696-972d-53616d706c65,rev?*%
%TF.SameCoordinates,PXb71b00PY73f50f0*%
%TF.FileFunction,Drillmap*%
%TF.FilePolarity,Positive*%
%FSLAX45Y45*%
G04 Gerber Fmt 4.5, Leading zero omitted, Abs format (unit mm)*
G04 Created by KiCad (PCBNEW 7.0.1-0) date 2023-04-05 16:04:38*
%MOMM*%
%LPD*%
G01*
G04 APERTURE LIST*
%ADD10C,0.150000*%
%ADD11C,0.200000*%
%ADD12C,0.040000*%
%ADD13C,0.068580*%
%ADD14C,0.069977*%
%ADD15C,0.080000*%
%ADD16C,0.088900*%
%ADD17C,0.091440*%
%ADD18C,0.100000*%
%ADD19C,0.114300*%
%ADD20C,0.120000*%
G04 APERTURE END LIST*
D10*
X7798900Y-5380D02*
X7798900Y10916620D01*
X1100Y-5380D02*
X7798900Y-5380D01*
X1100Y10916620D02*
X7798900Y10916620D01*
X1100Y-5380D02*
X1100Y10916620D01*
D11*
D12*
X1158000Y1102000D02*
X1198000Y1062000D01*
X1198000Y1102000D02*
X1158000Y1062000D01*
X1680000Y1029000D02*
X1720000Y989000D01*
X1720000Y1029000D02*
X1680000Y989000D01*
X1913000Y1674000D02*
X1953000Y1634000D01*
X1953000Y1674000D02*
X1913000Y1634000D01*
X1994000Y3296000D02*
X2034000Y3256000D01*
X2034000Y3296000D02*
X1994000Y3256000D01*
X2021500Y2642500D02*
X2061500Y2602500D01*
X2061500Y2642500D02*
X2021500Y2602500D01*
X2235000Y7772000D02*
X2275000Y7732000D01*
X2275000Y7772000D02*
X2235000Y7732000D01*
X2253000Y1155000D02*
X2293000Y1115000D01*
X2293000Y1155000D02*
X2253000Y1115000D01*
X2299000Y1830000D02*
X2339000Y1790000D01*
X2339000Y1830000D02*
X2299000Y1790000D01*
X2511000Y1906000D02*
X2551000Y1866000D01*
X2551000Y1906000D02*
X2511000Y1866000D01*
X2521000Y1592000D02*
X2561000Y1552000D01*
X2561000Y1592000D02*
X2521000Y1552000D01*
X3106000Y10419550D02*
X3146000Y10379550D01*
X3146000Y10419550D02*
X3106000Y10379550D01*
X3249000Y9220550D02*
X3289000Y9180550D01*
X3289000Y9220550D02*
X3249000Y9180550D01*
X3391000Y7847000D02*
X3431000Y7807000D01*
X3431000Y7847000D02*
X3391000Y7807000D01*
X3435000Y8200000D02*
X3475000Y8160000D01*
X3475000Y8200000D02*
X3435000Y8160000D01*
X3704000Y8215000D02*
X3744000Y8175000D01*
X3744000Y8215000D02*
X3704000Y8175000D01*
X3948000Y2820000D02*
X3988000Y2780000D01*
X3988000Y2820000D02*
X3948000Y2780000D01*
X4046000Y2500000D02*
X4086000Y2460000D01*
X4086000Y2500000D02*
X4046000Y2460000D01*
X4128000Y5172000D02*
X4168000Y5132000D01*
X4168000Y5172000D02*
X4128000Y5132000D01*
X4139000Y1644000D02*
X4179000Y1604000D01*
X4179000Y1644000D02*
X4139000Y1604000D01*
X4371000Y7886000D02*
X4411000Y7846000D01*
X4411000Y7886000D02*
X4371000Y7846000D01*
X4408000Y8356000D02*
X4448000Y8316000D01*
X4448000Y8356000D02*
X4408000Y8316000D01*
X4705000Y1818000D02*
X4745000Y1778000D01*
X4745000Y1818000D02*
X4705000Y1778000D01*
X4708000Y3898000D02*
X4748000Y3858000D01*
X4748000Y3898000D02*
X4708000Y3858000D01*
X5043000Y1582000D02*
X5083000Y1542000D01*
X5083000Y1582000D02*
X5043000Y1542000D01*
X5144000Y7731000D02*
X5184000Y7691000D01*
X5184000Y7731000D02*
X5144000Y7691000D01*
X5240000Y4461000D02*
X5280000Y4421000D01*
X5280000Y4461000D02*
X5240000Y4421000D01*
X5352000Y9637000D02*
X5392000Y9597000D01*
X5392000Y9637000D02*
X5352000Y9597000D01*
X5624000Y9529000D02*
X5664000Y9489000D01*
X5664000Y9529000D02*
X5624000Y9489000D01*
X5912000Y9542000D02*
X5952000Y9502000D01*
X5952000Y9542000D02*
X5912000Y9502000D01*
X5965000Y5027000D02*
X6005000Y4987000D01*
X6005000Y5027000D02*
X5965000Y4987000D01*
X6015000Y8759000D02*
X6055000Y8719000D01*
X6055000Y8759000D02*
X6015000Y8719000D01*
X6065770Y6512230D02*
X6105770Y6472230D01*
X6105770Y6512230D02*
X6065770Y6472230D01*
X6162000Y2741000D02*
X6202000Y2701000D01*
X6202000Y2741000D02*
X6162000Y2701000D01*
X6298000Y5637000D02*
X6338000Y5597000D01*
X6338000Y5637000D02*
X6298000Y5597000D01*
X6351000Y5026000D02*
X6391000Y4986000D01*
X6391000Y5026000D02*
X6351000Y4986000D01*
X6384000Y4181000D02*
X6424000Y4141000D01*
X6424000Y4181000D02*
X6384000Y4141000D01*
X6425000Y4484000D02*
X6465000Y4444000D01*
X6465000Y4484000D02*
X6425000Y4444000D01*
X6483000Y6193000D02*
X6523000Y6153000D01*
X6523000Y6193000D02*
X6483000Y6153000D01*
X6483000Y5297000D02*
X6523000Y5257000D01*
X6523000Y5297000D02*
X6483000Y5257000D01*
X6532560Y4150440D02*
X6572560Y4110440D01*
X6572560Y4150440D02*
X6532560Y4110440D01*
X6595000Y6549000D02*
X6635000Y6509000D01*
X6635000Y6549000D02*
X6595000Y6509000D01*
X6601000Y7482000D02*
X6641000Y7442000D01*
X6641000Y7482000D02*
X6601000Y7442000D01*
X6655000Y4474000D02*
X6695000Y4434000D01*
X6695000Y4474000D02*
X6655000Y4434000D01*
D13*
X4097290Y8344993D02*
G75*
G03*
X4097290Y8344993I-34290J0D01*
G01*
X4097290Y8125004D02*
G75*
G03*
X4097290Y8125004I-34290J0D01*
G01*
X4097290Y7685025D02*
G75*
G03*
X4097290Y7685025I-34290J0D01*
G01*
X4207272Y8454975D02*
G75*
G03*
X4207272Y8454975I-34290J0D01*
G01*
X4207272Y8234986D02*
G75*
G03*
X4207272Y8234986I-34290J0D01*
G01*
X4207272Y8014996D02*
G75*
G03*
X4207272Y8014996I-34290J0D01*
G01*
X4207272Y7795007D02*
G75*
G03*
X4207272Y7795007I-34290J0D01*
G01*
D14*
X4063000Y7940003D02*
X4063000Y7870026D01*
X4028011Y7905014D02*
X4097988Y7905014D01*
D15*
X1068285Y10449992D02*
X1068285Y10506561D01*
X1011715Y10506561D01*
X1011715Y10449992D01*
X1068285Y10449992D01*
X1068285Y9869992D02*
X1068285Y9926561D01*
X1011715Y9926561D01*
X1011715Y9869992D01*
X1068285Y9869992D01*
X1248285Y10449992D02*
X1248285Y10506561D01*
X1191716Y10506561D01*
X1191716Y10449992D01*
X1248285Y10449992D01*
X1248285Y9869992D02*
X1248285Y9926561D01*
X1191716Y9926561D01*
X1191716Y9869992D01*
X1248285Y9869992D01*
X3838284Y10222492D02*
X3838284Y10279061D01*
X3781715Y10279061D01*
X3781715Y10222492D01*
X3838284Y10222492D01*
X3838284Y9642492D02*
X3838284Y9699061D01*
X3781715Y9699061D01*
X3781715Y9642492D01*
X3838284Y9642492D01*
X4018284Y10222492D02*
X4018284Y10279061D01*
X3961715Y10279061D01*
X3961715Y10222492D01*
X4018284Y10222492D01*
X4018284Y9642492D02*
X4018284Y9699061D01*
X3961715Y9699061D01*
X3961715Y9642492D01*
X4018284Y9642492D01*
X6608284Y10449992D02*
X6608284Y10506561D01*
X6551715Y10506561D01*
X6551715Y10449992D01*
X6608284Y10449992D01*
X6608284Y9869992D02*
X6608284Y9926561D01*
X6551715Y9926561D01*
X6551715Y9869992D01*
X6608284Y9869992D01*
X6788284Y10449992D02*
X6788284Y10506561D01*
X6731715Y10506561D01*
X6731715Y10449992D01*
X6788284Y10449992D01*
X6788284Y9869992D02*
X6788284Y9926561D01*
X6731715Y9926561D01*
X6731715Y9869992D01*
X6788284Y9869992D01*
D16*
X250920Y2288826D02*
X295370Y2333276D01*
X250920Y2377726D01*
X206470Y2333276D01*
X250920Y2288826D01*
X250920Y746326D02*
X295370Y790776D01*
X250920Y835226D01*
X206470Y790776D01*
X250920Y746326D01*
X590920Y3868826D02*
X635370Y3913276D01*
X590920Y3957726D01*
X546470Y3913276D01*
X590920Y3868826D01*
X2227720Y2288826D02*
X2272170Y2333276D01*
X2227720Y2377726D01*
X2183270Y2333276D01*
X2227720Y2288826D01*
X2230420Y746326D02*
X2274870Y790776D01*
X2230420Y835226D01*
X2185970Y790776D01*
X2230420Y746326D01*
X2408420Y3868826D02*
X2452870Y3913276D01*
X2408420Y3957726D01*
X2363970Y3913276D01*
X2408420Y3868826D01*
X4230920Y3868826D02*
X4275370Y3913276D01*
X4230920Y3957726D01*
X4186470Y3913276D01*
X4230920Y3868826D01*
X4416420Y746326D02*
X4460870Y790776D01*
X4416420Y835226D01*
X4371970Y790776D01*
X4416420Y746326D01*
X4419120Y2288826D02*
X4463570Y2333276D01*
X4419120Y2377726D01*
X4374670Y2333276D01*
X4419120Y2288826D01*
X6395920Y2288826D02*
X6440370Y2333276D01*
X6395920Y2377726D01*
X6351470Y2333276D01*
X6395920Y2288826D01*
X6395920Y746326D02*
X6440370Y790776D01*
X6395920Y835226D01*
X6351470Y790776D01*
X6395920Y746326D01*
X7216580Y3868826D02*
X7261030Y3913276D01*
X7216580Y3957726D01*
X7172130Y3913276D01*
X7216580Y3868826D01*
D17*
X3700288Y8544980D02*
X3791728Y8453540D01*
X3791728Y8544980D02*
X3700288Y8453540D01*
X3791728Y8499260D02*
G75*
G03*
X3791728Y8499260I-45720J0D01*
G01*
X3700288Y7686460D02*
X3791728Y7595020D01*
X3791728Y7686460D02*
X3700288Y7595020D01*
X3791728Y7640740D02*
G75*
G03*
X3791728Y7640740I-45720J0D01*
G01*
D18*
X755000Y10463276D02*
X855000Y10363276D01*
X855000Y10463276D02*
X755000Y10363276D01*
X805000Y10463276D02*
X805000Y10363276D01*
X755000Y10413276D02*
X855000Y10413276D01*
X755000Y10013276D02*
X855000Y9913276D01*
X855000Y10013276D02*
X755000Y9913276D01*
X805000Y10013276D02*
X805000Y9913276D01*
X755000Y9963276D02*
X855000Y9963276D01*
X1405000Y10463276D02*
X1505000Y10363276D01*
X1505000Y10463276D02*
X1405000Y10363276D01*
X1455000Y10463276D02*
X1455000Y10363276D01*
X1405000Y10413276D02*
X1505000Y10413276D01*
X1405000Y10013276D02*
X1505000Y9913276D01*
X1505000Y10013276D02*
X1405000Y9913276D01*
X1455000Y10013276D02*
X1455000Y9913276D01*
X1405000Y9963276D02*
X1505000Y9963276D01*
X2369198Y3306620D02*
X2469198Y3206620D01*
X2469198Y3306620D02*
X2369198Y3206620D01*
X2419198Y3306620D02*
X2419198Y3206620D01*
X2369198Y3256620D02*
X2469198Y3256620D01*
X2369198Y3052620D02*
X2469198Y2952620D01*
X2469198Y3052620D02*
X2369198Y2952620D01*
X2419198Y3052620D02*
X2419198Y2952620D01*
X2369198Y3002620D02*
X2469198Y3002620D01*
X2623198Y3306620D02*
X2723198Y3206620D01*
X2723198Y3306620D02*
X2623198Y3206620D01*
X2673198Y3306620D02*
X2673198Y3206620D01*
X2623198Y3256620D02*
X2723198Y3256620D01*
X2623198Y3052620D02*
X2723198Y2952620D01*
X2723198Y3052620D02*
X2623198Y2952620D01*
X2673198Y3052620D02*
X2673198Y2952620D01*
X2623198Y3002620D02*
X2723198Y3002620D01*
X2650198Y9187619D02*
X2750198Y9087619D01*
X2750198Y9187619D02*
X2650198Y9087619D01*
X2700198Y9187619D02*
X2700198Y9087619D01*
X2650198Y9137619D02*
X2750198Y9137619D01*
X2650198Y8933619D02*
X2750198Y8833619D01*
X2750198Y8933619D02*
X2650198Y8833619D01*
X2700198Y8933619D02*
X2700198Y8833619D01*
X2650198Y8883619D02*
X2750198Y8883619D01*
X2650198Y8679619D02*
X2750198Y8579619D01*
X2750198Y8679619D02*
X2650198Y8579619D01*
X2700198Y8679619D02*
X2700198Y8579619D01*
X2650198Y8629619D02*
X2750198Y8629619D01*
X2650198Y8425619D02*
X2750198Y8325619D01*
X2750198Y8425619D02*
X2650198Y8325619D01*
X2700198Y8425619D02*
X2700198Y8325619D01*
X2650198Y8375619D02*
X2750198Y8375619D01*
X2650198Y8171619D02*
X2750198Y8071619D01*
X2750198Y8171619D02*
X2650198Y8071619D01*
X2700198Y8171619D02*
X2700198Y8071619D01*
X2650198Y8121619D02*
X2750198Y8121619D01*
X2877198Y3306620D02*
X2977198Y3206620D01*
X2977198Y3306620D02*
X2877198Y3206620D01*
X2927198Y3306620D02*
X2927198Y3206620D01*
X2877198Y3256620D02*
X2977198Y3256620D01*
X2877198Y3052620D02*
X2977198Y2952620D01*
X2977198Y3052620D02*
X2877198Y2952620D01*
X2927198Y3052620D02*
X2927198Y2952620D01*
X2877198Y3002620D02*
X2977198Y3002620D01*
X2904198Y9187619D02*
X3004198Y9087619D01*
X3004198Y9187619D02*
X2904198Y9087619D01*
X2954198Y9187619D02*
X2954198Y9087619D01*
X2904198Y9137619D02*
X3004198Y9137619D01*
X2904198Y8933619D02*
X3004198Y8833619D01*
X3004198Y8933619D02*
X2904198Y8833619D01*
X2954198Y8933619D02*
X2954198Y8833619D01*
X2904198Y8883619D02*
X3004198Y8883619D01*
X2904198Y8679619D02*
X3004198Y8579619D01*
X3004198Y8679619D02*
X2904198Y8579619D01*
X2954198Y8679619D02*
X2954198Y8579619D01*
X2904198Y8629619D02*
X3004198Y8629619D01*
X2904198Y8425619D02*
X3004198Y8325619D01*
X3004198Y8425619D02*
X2904198Y8325619D01*
X2954198Y8425619D02*
X2954198Y8325619D01*
X2904198Y8375619D02*
X3004198Y8375619D01*
X2904198Y8171619D02*
X3004198Y8071619D01*
X3004198Y8171619D02*
X2904198Y8071619D01*
X2954198Y8171619D02*
X2954198Y8071619D01*
X2904198Y8121619D02*
X3004198Y8121619D01*
X3131198Y3306620D02*
X3231198Y3206620D01*
X3231198Y3306620D02*
X3131198Y3206620D01*
X3181198Y3306620D02*
X3181198Y3206620D01*
X3131198Y3256620D02*
X3231198Y3256620D01*
X3131198Y3052620D02*
X3231198Y2952620D01*
X3231198Y3052620D02*
X3131198Y2952620D01*
X3181198Y3052620D02*
X3181198Y2952620D01*
X3131198Y3002620D02*
X3231198Y3002620D01*
X3385198Y3306620D02*
X3485198Y3206620D01*
X3485198Y3306620D02*
X3385198Y3206620D01*
X3435198Y3306620D02*
X3435198Y3206620D01*
X3385198Y3256620D02*
X3485198Y3256620D01*
X3385198Y3052620D02*
X3485198Y2952620D01*
X3485198Y3052620D02*
X3385198Y2952620D01*
X3435198Y3052620D02*
X3435198Y2952620D01*
X3385198Y3002620D02*
X3485198Y3002620D01*
X3550400Y10235776D02*
X3650400Y10135776D01*
X3650400Y10235776D02*
X3550400Y10135776D01*
X3600400Y10235776D02*
X3600400Y10135776D01*
X3550400Y10185776D02*
X3650400Y10185776D01*
X3550400Y9785776D02*
X3650400Y9685776D01*
X3650400Y9785776D02*
X3550400Y9685776D01*
X3600400Y9785776D02*
X3600400Y9685776D01*
X3550400Y9735776D02*
X3650400Y9735776D01*
X3733000Y1427000D02*
X3833000Y1327000D01*
X3833000Y1427000D02*
X3733000Y1327000D01*
X3783000Y1427000D02*
X3783000Y1327000D01*
X3733000Y1377000D02*
X3833000Y1377000D01*
X3733000Y1173000D02*
X3833000Y1073000D01*
X3833000Y1173000D02*
X3733000Y1073000D01*
X3783000Y1173000D02*
X3783000Y1073000D01*
X3733000Y1123000D02*
X3833000Y1123000D01*
X3733000Y919000D02*
X3833000Y819000D01*
X3833000Y919000D02*
X3733000Y819000D01*
X3783000Y919000D02*
X3783000Y819000D01*
X3733000Y869000D02*
X3833000Y869000D01*
X3733000Y665000D02*
X3833000Y565000D01*
X3833000Y665000D02*
X3733000Y565000D01*
X3783000Y665000D02*
X3783000Y565000D01*
X3733000Y615000D02*
X3833000Y615000D01*
X3733000Y411000D02*
X3833000Y311000D01*
X3833000Y411000D02*
X3733000Y311000D01*
X3783000Y411000D02*
X3783000Y311000D01*
X3733000Y361000D02*
X3833000Y361000D01*
X3987000Y1427000D02*
X4087000Y1327000D01*
X4087000Y1427000D02*
X3987000Y1327000D01*
X4037000Y1427000D02*
X4037000Y1327000D01*
X3987000Y1377000D02*
X4087000Y1377000D01*
X3987000Y1173000D02*
X4087000Y1073000D01*
X4087000Y1173000D02*
X3987000Y1073000D01*
X4037000Y1173000D02*
X4037000Y1073000D01*
X3987000Y1123000D02*
X4087000Y1123000D01*
X3987000Y919000D02*
X4087000Y819000D01*
X4087000Y919000D02*
X3987000Y819000D01*
X4037000Y919000D02*
X4037000Y819000D01*
X3987000Y869000D02*
X4087000Y869000D01*
X3987000Y665000D02*
X4087000Y565000D01*
X4087000Y665000D02*
X3987000Y565000D01*
X4037000Y665000D02*
X4037000Y565000D01*
X3987000Y615000D02*
X4087000Y615000D01*
X3987000Y411000D02*
X4087000Y311000D01*
X4087000Y411000D02*
X3987000Y311000D01*
X4037000Y411000D02*
X4037000Y311000D01*
X3987000Y361000D02*
X4087000Y361000D01*
X4149600Y10235776D02*
X4249600Y10135776D01*
X4249600Y10235776D02*
X4149600Y10135776D01*
X4199600Y10235776D02*
X4199600Y10135776D01*
X4149600Y10185776D02*
X4249600Y10185776D01*
X4149600Y9785776D02*
X4249600Y9685776D01*
X4249600Y9785776D02*
X4149600Y9685776D01*
X4199600Y9785776D02*
X4199600Y9685776D01*
X4149600Y9735776D02*
X4249600Y9735776D01*
X4969200Y3306620D02*
X5069200Y3206620D01*
X5069200Y3306620D02*
X4969200Y3206620D01*
X5019200Y3306620D02*
X5019200Y3206620D01*
X4969200Y3256620D02*
X5069200Y3256620D01*
X4969200Y3052620D02*
X5069200Y2952620D01*
X5069200Y3052620D02*
X4969200Y2952620D01*
X5019200Y3052620D02*
X5019200Y2952620D01*
X4969200Y3002620D02*
X5069200Y3002620D01*
X5223200Y3306620D02*
X5323200Y3206620D01*
X5323200Y3306620D02*
X5223200Y3206620D01*
X5273200Y3306620D02*
X5273200Y3206620D01*
X5223200Y3256620D02*
X5323200Y3256620D01*
X5223200Y3052620D02*
X5323200Y2952620D01*
X5323200Y3052620D02*
X5223200Y2952620D01*
X5273200Y3052620D02*
X5273200Y2952620D01*
X5223200Y3002620D02*
X5323200Y3002620D01*
X5450200Y9187619D02*
X5550200Y9087619D01*
X5550200Y9187619D02*
X5450200Y9087619D01*
X5500200Y9187619D02*
X5500200Y9087619D01*
X5450200Y9137619D02*
X5550200Y9137619D01*
X5450200Y8933619D02*
X5550200Y8833619D01*
X5550200Y8933619D02*
X5450200Y8833619D01*
X5500200Y8933619D02*
X5500200Y8833619D01*
X5450200Y8883619D02*
X5550200Y8883619D01*
X5450200Y8679619D02*
X5550200Y8579619D01*
X5550200Y8679619D02*
X5450200Y8579619D01*
X5500200Y8679619D02*
X5500200Y8579619D01*
X5450200Y8629619D02*
X5550200Y8629619D01*
X5450200Y8425619D02*
X5550200Y8325619D01*
X5550200Y8425619D02*
X5450200Y8325619D01*
X5500200Y8425619D02*
X5500200Y8325619D01*
X5450200Y8375619D02*
X5550200Y8375619D01*
X5450200Y8171619D02*
X5550200Y8071619D01*
X5550200Y8171619D02*
X5450200Y8071619D01*
X5500200Y8171619D02*
X5500200Y8071619D01*
X5450200Y8121619D02*
X5550200Y8121619D01*
X5477200Y3306620D02*
X5577200Y3206620D01*
X5577200Y3306620D02*
X5477200Y3206620D01*
X5527200Y3306620D02*
X5527200Y3206620D01*
X5477200Y3256620D02*
X5577200Y3256620D01*
X5477200Y3052620D02*
X5577200Y2952620D01*
X5577200Y3052620D02*
X5477200Y2952620D01*
X5527200Y3052620D02*
X5527200Y2952620D01*
X5477200Y3002620D02*
X5577200Y3002620D01*
X5704200Y9187619D02*
X5804200Y9087619D01*
X5804200Y9187619D02*
X5704200Y9087619D01*
X5754200Y9187619D02*
X5754200Y9087619D01*
X5704200Y9137619D02*
X5804200Y9137619D01*
X5704200Y8933619D02*
X5804200Y8833619D01*
X5804200Y8933619D02*
X5704200Y8833619D01*
X5754200Y8933619D02*
X5754200Y8833619D01*
X5704200Y8883619D02*
X5804200Y8883619D01*
X5704200Y8679619D02*
X5804200Y8579619D01*
X5804200Y8679619D02*
X5704200Y8579619D01*
X5754200Y8679619D02*
X5754200Y8579619D01*
X5704200Y8629619D02*
X5804200Y8629619D01*
X5704200Y8425619D02*
X5804200Y8325619D01*
X5804200Y8425619D02*
X5704200Y8325619D01*
X5754200Y8425619D02*
X5754200Y8325619D01*
X5704200Y8375619D02*
X5804200Y8375619D01*
X5704200Y8171619D02*
X5804200Y8071619D01*
X5804200Y8171619D02*
X5704200Y8071619D01*
X5754200Y8171619D02*
X5754200Y8071619D01*
X5704200Y8121619D02*
X5804200Y8121619D01*
X5731200Y3306620D02*
X5831200Y3206620D01*
X5831200Y3306620D02*
X5731200Y3206620D01*
X5781200Y3306620D02*
X5781200Y3206620D01*
X5731200Y3256620D02*
X5831200Y3256620D01*
X5731200Y3052620D02*
X5831200Y2952620D01*
X5831200Y3052620D02*
X5731200Y2952620D01*
X5781200Y3052620D02*
X5781200Y2952620D01*
X5731200Y3002620D02*
X5831200Y3002620D01*
X5985200Y3306620D02*
X6085200Y3206620D01*
X6085200Y3306620D02*
X5985200Y3206620D01*
X6035200Y3306620D02*
X6035200Y3206620D01*
X5985200Y3256620D02*
X6085200Y3256620D01*
X5985200Y3052620D02*
X6085200Y2952620D01*
X6085200Y3052620D02*
X5985200Y2952620D01*
X6035200Y3052620D02*
X6035200Y2952620D01*
X5985200Y3002620D02*
X6085200Y3002620D01*
X6295000Y10463276D02*
X6395000Y10363276D01*
X6395000Y10463276D02*
X6295000Y10363276D01*
X6345000Y10463276D02*
X6345000Y10363276D01*
X6295000Y10413276D02*
X6395000Y10413276D01*
X6295000Y10013276D02*
X6395000Y9913276D01*
X6395000Y10013276D02*
X6295000Y9913276D01*
X6345000Y10013276D02*
X6345000Y9913276D01*
X6295000Y9963276D02*
X6395000Y9963276D01*
X6945000Y10463276D02*
X7045000Y10363276D01*
X7045000Y10463276D02*
X6945000Y10363276D01*
X6995000Y10463276D02*
X6995000Y10363276D01*
X6945000Y10413276D02*
X7045000Y10413276D01*
X6945000Y10013276D02*
X7045000Y9913276D01*
X7045000Y10013276D02*
X6945000Y9913276D01*
X6995000Y10013276D02*
X6995000Y9913276D01*
X6945000Y9963276D02*
X7045000Y9963276D01*
D19*
X435070Y2390426D02*
X549370Y2276126D01*
X549370Y2390426D02*
X435070Y2276126D01*
X532632Y2292865D02*
X532632Y2373688D01*
X451808Y2373688D01*
X451808Y2292865D01*
X532632Y2292865D01*
X435070Y847926D02*
X549370Y733626D01*
X549370Y847926D02*
X435070Y733626D01*
X532632Y750365D02*
X532632Y831188D01*
X451808Y831188D01*
X451808Y750365D01*
X532632Y750365D01*
X775070Y3970426D02*
X889370Y3856126D01*
X889370Y3970426D02*
X775070Y3856126D01*
X872631Y3872865D02*
X872631Y3953688D01*
X791808Y3953688D01*
X791808Y3872865D01*
X872631Y3872865D01*
X1291050Y2390426D02*
X1405350Y2276126D01*
X1405350Y2390426D02*
X1291050Y2276126D01*
X1388612Y2292865D02*
X1388612Y2373688D01*
X1307789Y2373688D01*
X1307789Y2292865D01*
X1388612Y2292865D01*
X1291050Y847926D02*
X1405350Y733626D01*
X1405350Y847926D02*
X1291050Y733626D01*
X1388612Y750365D02*
X1388612Y831188D01*
X1307789Y831188D01*
X1307789Y750365D01*
X1388612Y750365D01*
X1631050Y3970426D02*
X1745350Y3856126D01*
X1745350Y3970426D02*
X1631050Y3856126D01*
X1728611Y3872865D02*
X1728611Y3953688D01*
X1647788Y3953688D01*
X1647788Y3872865D01*
X1728611Y3872865D01*
X2411870Y2390426D02*
X2526170Y2276126D01*
X2526170Y2390426D02*
X2411870Y2276126D01*
X2509432Y2292865D02*
X2509432Y2373688D01*
X2428609Y2373688D01*
X2428609Y2292865D01*
X2509432Y2292865D01*
X2414570Y847926D02*
X2528870Y733626D01*
X2528870Y847926D02*
X2414570Y733626D01*
X2512132Y750365D02*
X2512132Y831188D01*
X2431309Y831188D01*
X2431309Y750365D01*
X2512132Y750365D01*
X2592570Y3970426D02*
X2706870Y3856126D01*
X2706870Y3970426D02*
X2592570Y3856126D01*
X2690132Y3872865D02*
X2690132Y3953688D01*
X2609309Y3953688D01*
X2609309Y3872865D01*
X2690132Y3872865D01*
X3267850Y2390426D02*
X3382150Y2276126D01*
X3382150Y2390426D02*
X3267850Y2276126D01*
X3365411Y2292865D02*
X3365411Y2373688D01*
X3284588Y2373688D01*
X3284588Y2292865D01*
X3365411Y2292865D01*
X3270550Y847926D02*
X3384850Y733626D01*
X3384850Y847926D02*
X3270550Y733626D01*
X3368111Y750365D02*
X3368111Y831188D01*
X3287288Y831188D01*
X3287288Y750365D01*
X3368111Y750365D01*
X3448550Y3970426D02*
X3562850Y3856126D01*
X3562850Y3970426D02*
X3448550Y3856126D01*
X3546111Y3872865D02*
X3546111Y3953688D01*
X3465288Y3953688D01*
X3465288Y3872865D01*
X3546111Y3872865D01*
X4415070Y3970426D02*
X4529370Y3856126D01*
X4529370Y3970426D02*
X4415070Y3856126D01*
X4512632Y3872865D02*
X4512632Y3953688D01*
X4431809Y3953688D01*
X4431809Y3872865D01*
X4512632Y3872865D01*
X4600570Y847926D02*
X4714870Y733626D01*
X4714870Y847926D02*
X4600570Y733626D01*
X4698132Y750365D02*
X4698132Y831188D01*
X4617309Y831188D01*
X4617309Y750365D01*
X4698132Y750365D01*
X4603270Y2390426D02*
X4717570Y2276126D01*
X4717570Y2390426D02*
X4603270Y2276126D01*
X4700832Y2292865D02*
X4700832Y2373688D01*
X4620009Y2373688D01*
X4620009Y2292865D01*
X4700832Y2292865D01*
X5271050Y3970426D02*
X5385350Y3856126D01*
X5385350Y3970426D02*
X5271050Y3856126D01*
X5368612Y3872865D02*
X5368612Y3953688D01*
X5287789Y3953688D01*
X5287789Y3872865D01*
X5368612Y3872865D01*
X5456550Y847926D02*
X5570850Y733626D01*
X5570850Y847926D02*
X5456550Y733626D01*
X5554112Y750365D02*
X5554112Y831188D01*
X5473289Y831188D01*
X5473289Y750365D01*
X5554112Y750365D01*
X5459250Y2390426D02*
X5573550Y2276126D01*
X5573550Y2390426D02*
X5459250Y2276126D01*
X5556812Y2292865D02*
X5556812Y2373688D01*
X5475989Y2373688D01*
X5475989Y2292865D01*
X5556812Y2292865D01*
X6062150Y3970426D02*
X6176450Y3856126D01*
X6176450Y3970426D02*
X6062150Y3856126D01*
X6159711Y3872865D02*
X6159711Y3953688D01*
X6078888Y3953688D01*
X6078888Y3872865D01*
X6159711Y3872865D01*
X6580070Y2390426D02*
X6694370Y2276126D01*
X6694370Y2390426D02*
X6580070Y2276126D01*
X6677631Y2292865D02*
X6677631Y2373688D01*
X6596808Y2373688D01*
X6596808Y2292865D01*
X6677631Y2292865D01*
X6580070Y847926D02*
X6694370Y733626D01*
X6694370Y847926D02*
X6580070Y733626D01*
X6677631Y750365D02*
X6677631Y831188D01*
X6596808Y831188D01*
X6596808Y750365D01*
X6677631Y750365D01*
X6918130Y3970426D02*
X7032430Y3856126D01*
X7032430Y3970426D02*
X6918130Y3856126D01*
X7015691Y3872865D02*
X7015691Y3953688D01*
X6934868Y3953688D01*
X6934868Y3872865D01*
X7015691Y3872865D01*
X7436050Y2390426D02*
X7550350Y2276126D01*
X7550350Y2390426D02*
X7436050Y2276126D01*
X7533611Y2292865D02*
X7533611Y2373688D01*
X7452788Y2373688D01*
X7452788Y2292865D01*
X7533611Y2292865D01*
X7436050Y847926D02*
X7550350Y733626D01*
X7550350Y847926D02*
X7436050Y733626D01*
X7533611Y750365D02*
X7533611Y831188D01*
X7452788Y831188D01*
X7452788Y750365D01*
X7533611Y750365D01*
D20*
X550000Y6805376D02*
X670000Y6685376D01*
X670000Y6805376D02*
X550000Y6685376D01*
X610000Y6685376D02*
X670000Y6745376D01*
X610000Y6805376D01*
X550000Y6745376D01*
X610000Y6685376D01*
X1050000Y6805376D02*
X1170000Y6685376D01*
X1170000Y6805376D02*
X1050000Y6685376D01*
X1110000Y6685376D02*
X1170000Y6745376D01*
X1110000Y6805376D01*
X1050000Y6745376D01*
X1110000Y6685376D01*
X1550000Y6805376D02*
X1670000Y6685376D01*
X1670000Y6805376D02*
X1550000Y6685376D01*
X1610000Y6685376D02*
X1670000Y6745376D01*
X1610000Y6805376D01*
X1550000Y6745376D01*
X1610000Y6685376D01*
X2070000Y4846600D02*
X2190000Y4726600D01*
X2190000Y4846600D02*
X2070000Y4726600D01*
X2130000Y4726600D02*
X2190000Y4786600D01*
X2130000Y4846600D01*
X2070000Y4786600D01*
X2130000Y4726600D01*
X2570000Y4846600D02*
X2690000Y4726600D01*
X2690000Y4846600D02*
X2570000Y4726600D01*
X2630000Y4726600D02*
X2690000Y4786600D01*
X2630000Y4846600D01*
X2570000Y4786600D01*
X2630000Y4726600D01*
X3070000Y4846600D02*
X3190000Y4726600D01*
X3190000Y4846600D02*
X3070000Y4726600D01*
X3130000Y4726600D02*
X3190000Y4786600D01*
X3130000Y4846600D01*
X3070000Y4786600D01*
X3130000Y4726600D01*
X4610000Y4842168D02*
X4730000Y4722168D01*
X4730000Y4842168D02*
X4610000Y4722168D01*
X4670000Y4722168D02*
X4730000Y4782168D01*
X4670000Y4842168D01*
X4610000Y4782168D01*
X4670000Y4722168D01*
X5110000Y4842168D02*
X5230000Y4722168D01*
X5230000Y4842168D02*
X5110000Y4722168D01*
X5170000Y4722168D02*
X5230000Y4782168D01*
X5170000Y4842168D01*
X5110000Y4782168D01*
X5170000Y4722168D01*
X5610000Y4842168D02*
X5730000Y4722168D01*
X5730000Y4842168D02*
X5610000Y4722168D01*
X5670000Y4722168D02*
X5730000Y4782168D01*
X5670000Y4842168D01*
X5610000Y4782168D01*
X5670000Y4722168D01*
X6130000Y6805376D02*
X6250000Y6685376D01*
X6250000Y6805376D02*
X6130000Y6685376D01*
X6190000Y6685376D02*
X6250000Y6745376D01*
X6190000Y6805376D01*
X6130000Y6745376D01*
X6190000Y6685376D01*
X6630000Y6805376D02*
X6750000Y6685376D01*
X6750000Y6805376D02*
X6630000Y6685376D01*
X6690000Y6685376D02*
X6750000Y6745376D01*
X6690000Y6805376D01*
X6630000Y6745376D01*
X6690000Y6685376D01*
X7130000Y6805376D02*
X7250000Y6685376D01*
X7250000Y6805376D02*
X7130000Y6685376D01*
X7190000Y6685376D02*
X7250000Y6745376D01*
X7190000Y6805376D01*
X7130000Y6745376D01*
X7190000Y6685376D01*
D11*
X241219Y-325404D02*
X241219Y-125404D01*
X241219Y-125404D02*
X288838Y-125404D01*
X288838Y-125404D02*
X317410Y-134928D01*
X317410Y-134928D02*
X336457Y-153975D01*
X336457Y-153975D02*
X345981Y-173023D01*
X345981Y-173023D02*
X355505Y-211118D01*
X355505Y-211118D02*
X355505Y-239689D01*
X355505Y-239689D02*
X345981Y-277785D01*
X345981Y-277785D02*
X336457Y-296832D01*
X336457Y-296832D02*
X317410Y-315880D01*
X317410Y-315880D02*
X288838Y-325404D01*
X288838Y-325404D02*
X241219Y-325404D01*
X441219Y-325404D02*
X441219Y-192070D01*
X441219Y-230166D02*
X450743Y-211118D01*
X450743Y-211118D02*
X460267Y-201594D01*
X460267Y-201594D02*
X479314Y-192070D01*
X479314Y-192070D02*
X498362Y-192070D01*
X565029Y-325404D02*
X565029Y-192070D01*
X565029Y-125404D02*
X555505Y-134928D01*
X555505Y-134928D02*
X565029Y-144451D01*
X565029Y-144451D02*
X574552Y-134928D01*
X574552Y-134928D02*
X565029Y-125404D01*
X565029Y-125404D02*
X565029Y-144451D01*
X688838Y-325404D02*
X669790Y-315880D01*
X669790Y-315880D02*
X660267Y-296832D01*
X660267Y-296832D02*
X660267Y-125404D01*
X793600Y-325404D02*
X774552Y-315880D01*
X774552Y-315880D02*
X765028Y-296832D01*
X765028Y-296832D02*
X765028Y-125404D01*
X1022171Y-325404D02*
X1022171Y-125404D01*
X1022171Y-125404D02*
X1088838Y-268261D01*
X1088838Y-268261D02*
X1155505Y-125404D01*
X1155505Y-125404D02*
X1155505Y-325404D01*
X1336457Y-325404D02*
X1336457Y-220642D01*
X1336457Y-220642D02*
X1326933Y-201594D01*
X1326933Y-201594D02*
X1307886Y-192070D01*
X1307886Y-192070D02*
X1269790Y-192070D01*
X1269790Y-192070D02*
X1250743Y-201594D01*
X1336457Y-315880D02*
X1317410Y-325404D01*
X1317410Y-325404D02*
X1269790Y-325404D01*
X1269790Y-325404D02*
X1250743Y-315880D01*
X1250743Y-315880D02*
X1241219Y-296832D01*
X1241219Y-296832D02*
X1241219Y-277785D01*
X1241219Y-277785D02*
X1250743Y-258737D01*
X1250743Y-258737D02*
X1269790Y-249213D01*
X1269790Y-249213D02*
X1317410Y-249213D01*
X1317410Y-249213D02*
X1336457Y-239689D01*
X1431695Y-192070D02*
X1431695Y-392070D01*
X1431695Y-201594D02*
X1450743Y-192070D01*
X1450743Y-192070D02*
X1488838Y-192070D01*
X1488838Y-192070D02*
X1507886Y-201594D01*
X1507886Y-201594D02*
X1517409Y-211118D01*
X1517409Y-211118D02*
X1526933Y-230166D01*
X1526933Y-230166D02*
X1526933Y-287309D01*
X1526933Y-287309D02*
X1517409Y-306356D01*
X1517409Y-306356D02*
X1507886Y-315880D01*
X1507886Y-315880D02*
X1488838Y-325404D01*
X1488838Y-325404D02*
X1450743Y-325404D01*
X1450743Y-325404D02*
X1431695Y-315880D01*
X1612648Y-306356D02*
X1622171Y-315880D01*
X1622171Y-315880D02*
X1612648Y-325404D01*
X1612648Y-325404D02*
X1603124Y-315880D01*
X1603124Y-315880D02*
X1612648Y-306356D01*
X1612648Y-306356D02*
X1612648Y-325404D01*
X1612648Y-201594D02*
X1622171Y-211118D01*
X1622171Y-211118D02*
X1612648Y-220642D01*
X1612648Y-220642D02*
X1603124Y-211118D01*
X1603124Y-211118D02*
X1612648Y-201594D01*
X1612648Y-201594D02*
X1612648Y-220642D01*
D12*
X-46400Y-632880D02*
X-6400Y-672880D01*
X-6400Y-632880D02*
X-46400Y-672880D01*
D11*
X279314Y-545404D02*
X298362Y-545404D01*
X298362Y-545404D02*
X317410Y-554928D01*
X317410Y-554928D02*
X326933Y-564451D01*
X326933Y-564451D02*
X336457Y-583499D01*
X336457Y-583499D02*
X345981Y-621594D01*
X345981Y-621594D02*
X345981Y-669213D01*
X345981Y-669213D02*
X336457Y-707308D01*
X336457Y-707308D02*
X326933Y-726356D01*
X326933Y-726356D02*
X317410Y-735880D01*
X317410Y-735880D02*
X298362Y-745404D01*
X298362Y-745404D02*
X279314Y-745404D01*
X279314Y-745404D02*
X260267Y-735880D01*
X260267Y-735880D02*
X250743Y-726356D01*
X250743Y-726356D02*
X241219Y-707308D01*
X241219Y-707308D02*
X231695Y-669213D01*
X231695Y-669213D02*
X231695Y-621594D01*
X231695Y-621594D02*
X241219Y-583499D01*
X241219Y-583499D02*
X250743Y-564451D01*
X250743Y-564451D02*
X260267Y-554928D01*
X260267Y-554928D02*
X279314Y-545404D01*
X431695Y-726356D02*
X441219Y-735880D01*
X441219Y-735880D02*
X431695Y-745404D01*
X431695Y-745404D02*
X422171Y-735880D01*
X422171Y-735880D02*
X431695Y-726356D01*
X431695Y-726356D02*
X431695Y-745404D01*
X612648Y-612070D02*
X612648Y-745404D01*
X565029Y-535880D02*
X517409Y-678737D01*
X517409Y-678737D02*
X641219Y-678737D01*
X755505Y-545404D02*
X774552Y-545404D01*
X774552Y-545404D02*
X793600Y-554928D01*
X793600Y-554928D02*
X803124Y-564451D01*
X803124Y-564451D02*
X812648Y-583499D01*
X812648Y-583499D02*
X822171Y-621594D01*
X822171Y-621594D02*
X822171Y-669213D01*
X822171Y-669213D02*
X812648Y-707308D01*
X812648Y-707308D02*
X803124Y-726356D01*
X803124Y-726356D02*
X793600Y-735880D01*
X793600Y-735880D02*
X774552Y-745404D01*
X774552Y-745404D02*
X755505Y-745404D01*
X755505Y-745404D02*
X736457Y-735880D01*
X736457Y-735880D02*
X726933Y-726356D01*
X726933Y-726356D02*
X717409Y-707308D01*
X717409Y-707308D02*
X707886Y-669213D01*
X707886Y-669213D02*
X707886Y-621594D01*
X707886Y-621594D02*
X717409Y-583499D01*
X717409Y-583499D02*
X726933Y-564451D01*
X726933Y-564451D02*
X736457Y-554928D01*
X736457Y-554928D02*
X755505Y-545404D01*
X945981Y-545404D02*
X965029Y-545404D01*
X965029Y-545404D02*
X984076Y-554928D01*
X984076Y-554928D02*
X993600Y-564451D01*
X993600Y-564451D02*
X1003124Y-583499D01*
X1003124Y-583499D02*
X1012648Y-621594D01*
X1012648Y-621594D02*
X1012648Y-669213D01*
X1012648Y-669213D02*
X1003124Y-707308D01*
X1003124Y-707308D02*
X993600Y-726356D01*
X993600Y-726356D02*
X984076Y-735880D01*
X984076Y-735880D02*
X965029Y-745404D01*
X965029Y-745404D02*
X945981Y-745404D01*
X945981Y-745404D02*
X926933Y-735880D01*
X926933Y-735880D02*
X917409Y-726356D01*
X917409Y-726356D02*
X907886Y-707308D01*
X907886Y-707308D02*
X898362Y-669213D01*
X898362Y-669213D02*
X898362Y-621594D01*
X898362Y-621594D02*
X907886Y-583499D01*
X907886Y-583499D02*
X917409Y-564451D01*
X917409Y-564451D02*
X926933Y-554928D01*
X926933Y-554928D02*
X945981Y-545404D01*
X1098362Y-745404D02*
X1098362Y-612070D01*
X1098362Y-631118D02*
X1107886Y-621594D01*
X1107886Y-621594D02*
X1126933Y-612070D01*
X1126933Y-612070D02*
X1155505Y-612070D01*
X1155505Y-612070D02*
X1174552Y-621594D01*
X1174552Y-621594D02*
X1184076Y-640642D01*
X1184076Y-640642D02*
X1184076Y-745404D01*
X1184076Y-640642D02*
X1193600Y-621594D01*
X1193600Y-621594D02*
X1212648Y-612070D01*
X1212648Y-612070D02*
X1241219Y-612070D01*
X1241219Y-612070D02*
X1260267Y-621594D01*
X1260267Y-621594D02*
X1269791Y-640642D01*
X1269791Y-640642D02*
X1269791Y-745404D01*
X1365029Y-745404D02*
X1365029Y-612070D01*
X1365029Y-631118D02*
X1374552Y-621594D01*
X1374552Y-621594D02*
X1393600Y-612070D01*
X1393600Y-612070D02*
X1422171Y-612070D01*
X1422171Y-612070D02*
X1441219Y-621594D01*
X1441219Y-621594D02*
X1450743Y-640642D01*
X1450743Y-640642D02*
X1450743Y-745404D01*
X1450743Y-640642D02*
X1460267Y-621594D01*
X1460267Y-621594D02*
X1479314Y-612070D01*
X1479314Y-612070D02*
X1507886Y-612070D01*
X1507886Y-612070D02*
X1526933Y-621594D01*
X1526933Y-621594D02*
X1536457Y-640642D01*
X1536457Y-640642D02*
X1536457Y-745404D01*
X1926933Y-535880D02*
X1755505Y-793023D01*
X2184076Y-545404D02*
X2203124Y-545404D01*
X2203124Y-545404D02*
X2222172Y-554928D01*
X2222172Y-554928D02*
X2231695Y-564451D01*
X2231695Y-564451D02*
X2241219Y-583499D01*
X2241219Y-583499D02*
X2250743Y-621594D01*
X2250743Y-621594D02*
X2250743Y-669213D01*
X2250743Y-669213D02*
X2241219Y-707308D01*
X2241219Y-707308D02*
X2231695Y-726356D01*
X2231695Y-726356D02*
X2222172Y-735880D01*
X2222172Y-735880D02*
X2203124Y-745404D01*
X2203124Y-745404D02*
X2184076Y-745404D01*
X2184076Y-745404D02*
X2165029Y-735880D01*
X2165029Y-735880D02*
X2155505Y-726356D01*
X2155505Y-726356D02*
X2145981Y-707308D01*
X2145981Y-707308D02*
X2136457Y-669213D01*
X2136457Y-669213D02*
X2136457Y-621594D01*
X2136457Y-621594D02*
X2145981Y-583499D01*
X2145981Y-583499D02*
X2155505Y-564451D01*
X2155505Y-564451D02*
X2165029Y-554928D01*
X2165029Y-554928D02*
X2184076Y-545404D01*
X2336457Y-726356D02*
X2345981Y-735880D01*
X2345981Y-735880D02*
X2336457Y-745404D01*
X2336457Y-745404D02*
X2326934Y-735880D01*
X2326934Y-735880D02*
X2336457Y-726356D01*
X2336457Y-726356D02*
X2336457Y-745404D01*
X2469791Y-545404D02*
X2488838Y-545404D01*
X2488838Y-545404D02*
X2507886Y-554928D01*
X2507886Y-554928D02*
X2517410Y-564451D01*
X2517410Y-564451D02*
X2526934Y-583499D01*
X2526934Y-583499D02*
X2536457Y-621594D01*
X2536457Y-621594D02*
X2536457Y-669213D01*
X2536457Y-669213D02*
X2526934Y-707308D01*
X2526934Y-707308D02*
X2517410Y-726356D01*
X2517410Y-726356D02*
X2507886Y-735880D01*
X2507886Y-735880D02*
X2488838Y-745404D01*
X2488838Y-745404D02*
X2469791Y-745404D01*
X2469791Y-745404D02*
X2450743Y-735880D01*
X2450743Y-735880D02*
X2441219Y-726356D01*
X2441219Y-726356D02*
X2431695Y-707308D01*
X2431695Y-707308D02*
X2422172Y-669213D01*
X2422172Y-669213D02*
X2422172Y-621594D01*
X2422172Y-621594D02*
X2431695Y-583499D01*
X2431695Y-583499D02*
X2441219Y-564451D01*
X2441219Y-564451D02*
X2450743Y-554928D01*
X2450743Y-554928D02*
X2469791Y-545404D01*
X2726934Y-745404D02*
X2612648Y-745404D01*
X2669791Y-745404D02*
X2669791Y-545404D01*
X2669791Y-545404D02*
X2650743Y-573975D01*
X2650743Y-573975D02*
X2631695Y-593023D01*
X2631695Y-593023D02*
X2612648Y-602547D01*
X2907886Y-545404D02*
X2812648Y-545404D01*
X2812648Y-545404D02*
X2803124Y-640642D01*
X2803124Y-640642D02*
X2812648Y-631118D01*
X2812648Y-631118D02*
X2831695Y-621594D01*
X2831695Y-621594D02*
X2879314Y-621594D01*
X2879314Y-621594D02*
X2898362Y-631118D01*
X2898362Y-631118D02*
X2907886Y-640642D01*
X2907886Y-640642D02*
X2917410Y-659690D01*
X2917410Y-659690D02*
X2917410Y-707308D01*
X2917410Y-707308D02*
X2907886Y-726356D01*
X2907886Y-726356D02*
X2898362Y-735880D01*
X2898362Y-735880D02*
X2879314Y-745404D01*
X2879314Y-745404D02*
X2831695Y-745404D01*
X2831695Y-745404D02*
X2812648Y-735880D01*
X2812648Y-735880D02*
X2803124Y-726356D01*
X2984076Y-545404D02*
X3117410Y-545404D01*
X3117410Y-545404D02*
X3031695Y-745404D01*
X3184076Y-545404D02*
X3184076Y-583499D01*
X3260267Y-545404D02*
X3260267Y-583499D01*
X3555505Y-821594D02*
X3545981Y-812070D01*
X3545981Y-812070D02*
X3526934Y-783499D01*
X3526934Y-783499D02*
X3517410Y-764451D01*
X3517410Y-764451D02*
X3507886Y-735880D01*
X3507886Y-735880D02*
X3498362Y-688261D01*
X3498362Y-688261D02*
X3498362Y-650166D01*
X3498362Y-650166D02*
X3507886Y-602547D01*
X3507886Y-602547D02*
X3517410Y-573975D01*
X3517410Y-573975D02*
X3526934Y-554928D01*
X3526934Y-554928D02*
X3545981Y-526356D01*
X3545981Y-526356D02*
X3555505Y-516832D01*
X3717410Y-612070D02*
X3717410Y-745404D01*
X3669791Y-535880D02*
X3622172Y-678737D01*
X3622172Y-678737D02*
X3745981Y-678737D01*
X3803124Y-545404D02*
X3926934Y-545404D01*
X3926934Y-545404D02*
X3860267Y-621594D01*
X3860267Y-621594D02*
X3888838Y-621594D01*
X3888838Y-621594D02*
X3907886Y-631118D01*
X3907886Y-631118D02*
X3917410Y-640642D01*
X3917410Y-640642D02*
X3926934Y-659690D01*
X3926934Y-659690D02*
X3926934Y-707308D01*
X3926934Y-707308D02*
X3917410Y-726356D01*
X3917410Y-726356D02*
X3907886Y-735880D01*
X3907886Y-735880D02*
X3888838Y-745404D01*
X3888838Y-745404D02*
X3831695Y-745404D01*
X3831695Y-745404D02*
X3812648Y-735880D01*
X3812648Y-735880D02*
X3803124Y-726356D01*
X4165029Y-745404D02*
X4165029Y-545404D01*
X4250743Y-745404D02*
X4250743Y-640642D01*
X4250743Y-640642D02*
X4241219Y-621594D01*
X4241219Y-621594D02*
X4222172Y-612070D01*
X4222172Y-612070D02*
X4193600Y-612070D01*
X4193600Y-612070D02*
X4174553Y-621594D01*
X4174553Y-621594D02*
X4165029Y-631118D01*
X4374553Y-745404D02*
X4355505Y-735880D01*
X4355505Y-735880D02*
X4345981Y-726356D01*
X4345981Y-726356D02*
X4336458Y-707308D01*
X4336458Y-707308D02*
X4336458Y-650166D01*
X4336458Y-650166D02*
X4345981Y-631118D01*
X4345981Y-631118D02*
X4355505Y-621594D01*
X4355505Y-621594D02*
X4374553Y-612070D01*
X4374553Y-612070D02*
X4403124Y-612070D01*
X4403124Y-612070D02*
X4422172Y-621594D01*
X4422172Y-621594D02*
X4431696Y-631118D01*
X4431696Y-631118D02*
X4441219Y-650166D01*
X4441219Y-650166D02*
X4441219Y-707308D01*
X4441219Y-707308D02*
X4431696Y-726356D01*
X4431696Y-726356D02*
X4422172Y-735880D01*
X4422172Y-735880D02*
X4403124Y-745404D01*
X4403124Y-745404D02*
X4374553Y-745404D01*
X4555505Y-745404D02*
X4536458Y-735880D01*
X4536458Y-735880D02*
X4526934Y-716832D01*
X4526934Y-716832D02*
X4526934Y-545404D01*
X4707886Y-735880D02*
X4688839Y-745404D01*
X4688839Y-745404D02*
X4650743Y-745404D01*
X4650743Y-745404D02*
X4631696Y-735880D01*
X4631696Y-735880D02*
X4622172Y-716832D01*
X4622172Y-716832D02*
X4622172Y-640642D01*
X4622172Y-640642D02*
X4631696Y-621594D01*
X4631696Y-621594D02*
X4650743Y-612070D01*
X4650743Y-612070D02*
X4688839Y-612070D01*
X4688839Y-612070D02*
X4707886Y-621594D01*
X4707886Y-621594D02*
X4717410Y-640642D01*
X4717410Y-640642D02*
X4717410Y-659690D01*
X4717410Y-659690D02*
X4622172Y-678737D01*
X4793600Y-735880D02*
X4812648Y-745404D01*
X4812648Y-745404D02*
X4850743Y-745404D01*
X4850743Y-745404D02*
X4869791Y-735880D01*
X4869791Y-735880D02*
X4879315Y-716832D01*
X4879315Y-716832D02*
X4879315Y-707308D01*
X4879315Y-707308D02*
X4869791Y-688261D01*
X4869791Y-688261D02*
X4850743Y-678737D01*
X4850743Y-678737D02*
X4822172Y-678737D01*
X4822172Y-678737D02*
X4803124Y-669213D01*
X4803124Y-669213D02*
X4793600Y-650166D01*
X4793600Y-650166D02*
X4793600Y-640642D01*
X4793600Y-640642D02*
X4803124Y-621594D01*
X4803124Y-621594D02*
X4822172Y-612070D01*
X4822172Y-612070D02*
X4850743Y-612070D01*
X4850743Y-612070D02*
X4869791Y-621594D01*
X4945981Y-821594D02*
X4955505Y-812070D01*
X4955505Y-812070D02*
X4974553Y-783499D01*
X4974553Y-783499D02*
X4984077Y-764451D01*
X4984077Y-764451D02*
X4993600Y-735880D01*
X4993600Y-735880D02*
X5003124Y-688261D01*
X5003124Y-688261D02*
X5003124Y-650166D01*
X5003124Y-650166D02*
X4993600Y-602547D01*
X4993600Y-602547D02*
X4984077Y-573975D01*
X4984077Y-573975D02*
X4974553Y-554928D01*
X4974553Y-554928D02*
X4955505Y-526356D01*
X4955505Y-526356D02*
X4945981Y-516832D01*
D13*
X-6400Y-916880D02*
G75*
G03*
X-6400Y-916880I-34290J0D01*
G01*
D11*
X279314Y-809404D02*
X298362Y-809404D01*
X298362Y-809404D02*
X317410Y-818928D01*
X317410Y-818928D02*
X326933Y-828451D01*
X326933Y-828451D02*
X336457Y-847499D01*
X336457Y-847499D02*
X345981Y-885594D01*
X345981Y-885594D02*
X345981Y-933213D01*
X345981Y-933213D02*
X336457Y-971308D01*
X336457Y-971308D02*
X326933Y-990356D01*
X326933Y-990356D02*
X317410Y-999880D01*
X317410Y-999880D02*
X298362Y-1009404D01*
X298362Y-1009404D02*
X279314Y-1009404D01*
X279314Y-1009404D02*
X260267Y-999880D01*
X260267Y-999880D02*
X250743Y-990356D01*
X250743Y-990356D02*
X241219Y-971308D01*
X241219Y-971308D02*
X231695Y-933213D01*
X231695Y-933213D02*
X231695Y-885594D01*
X231695Y-885594D02*
X241219Y-847499D01*
X241219Y-847499D02*
X250743Y-828451D01*
X250743Y-828451D02*
X260267Y-818928D01*
X260267Y-818928D02*
X279314Y-809404D01*
X431695Y-990356D02*
X441219Y-999880D01*
X441219Y-999880D02*
X431695Y-1009404D01*
X431695Y-1009404D02*
X422171Y-999880D01*
X422171Y-999880D02*
X431695Y-990356D01*
X431695Y-990356D02*
X431695Y-1009404D01*
X612648Y-809404D02*
X574552Y-809404D01*
X574552Y-809404D02*
X555505Y-818928D01*
X555505Y-818928D02*
X545981Y-828451D01*
X545981Y-828451D02*
X526933Y-857023D01*
X526933Y-857023D02*
X517409Y-895118D01*
X517409Y-895118D02*
X517409Y-971308D01*
X517409Y-971308D02*
X526933Y-990356D01*
X526933Y-990356D02*
X536457Y-999880D01*
X536457Y-999880D02*
X555505Y-1009404D01*
X555505Y-1009404D02*
X593600Y-1009404D01*
X593600Y-1009404D02*
X612648Y-999880D01*
X612648Y-999880D02*
X622171Y-990356D01*
X622171Y-990356D02*
X631695Y-971308D01*
X631695Y-971308D02*
X631695Y-923689D01*
X631695Y-923689D02*
X622171Y-904642D01*
X622171Y-904642D02*
X612648Y-895118D01*
X612648Y-895118D02*
X593600Y-885594D01*
X593600Y-885594D02*
X555505Y-885594D01*
X555505Y-885594D02*
X536457Y-895118D01*
X536457Y-895118D02*
X526933Y-904642D01*
X526933Y-904642D02*
X517409Y-923689D01*
X745981Y-895118D02*
X726933Y-885594D01*
X726933Y-885594D02*
X717409Y-876070D01*
X717409Y-876070D02*
X707886Y-857023D01*
X707886Y-857023D02*
X707886Y-847499D01*
X707886Y-847499D02*
X717409Y-828451D01*
X717409Y-828451D02*
X726933Y-818928D01*
X726933Y-818928D02*
X745981Y-809404D01*
X745981Y-809404D02*
X784076Y-809404D01*
X784076Y-809404D02*
X803124Y-818928D01*
X803124Y-818928D02*
X812648Y-828451D01*
X812648Y-828451D02*
X822171Y-847499D01*
X822171Y-847499D02*
X822171Y-857023D01*
X822171Y-857023D02*
X812648Y-876070D01*
X812648Y-876070D02*
X803124Y-885594D01*
X803124Y-885594D02*
X784076Y-895118D01*
X784076Y-895118D02*
X745981Y-895118D01*
X745981Y-895118D02*
X726933Y-904642D01*
X726933Y-904642D02*
X717409Y-914166D01*
X717409Y-914166D02*
X707886Y-933213D01*
X707886Y-933213D02*
X707886Y-971308D01*
X707886Y-971308D02*
X717409Y-990356D01*
X717409Y-990356D02*
X726933Y-999880D01*
X726933Y-999880D02*
X745981Y-1009404D01*
X745981Y-1009404D02*
X784076Y-1009404D01*
X784076Y-1009404D02*
X803124Y-999880D01*
X803124Y-999880D02*
X812648Y-990356D01*
X812648Y-990356D02*
X822171Y-971308D01*
X822171Y-971308D02*
X822171Y-933213D01*
X822171Y-933213D02*
X812648Y-914166D01*
X812648Y-914166D02*
X803124Y-904642D01*
X803124Y-904642D02*
X784076Y-895118D01*
X993600Y-809404D02*
X955505Y-809404D01*
X955505Y-809404D02*
X936457Y-818928D01*
X936457Y-818928D02*
X926933Y-828451D01*
X926933Y-828451D02*
X907886Y-857023D01*
X907886Y-857023D02*
X898362Y-895118D01*
X898362Y-895118D02*
X898362Y-971308D01*
X898362Y-971308D02*
X907886Y-990356D01*
X907886Y-990356D02*
X917409Y-999880D01*
X917409Y-999880D02*
X936457Y-1009404D01*
X936457Y-1009404D02*
X974552Y-1009404D01*
X974552Y-1009404D02*
X993600Y-999880D01*
X993600Y-999880D02*
X1003124Y-990356D01*
X1003124Y-990356D02*
X1012648Y-971308D01*
X1012648Y-971308D02*
X1012648Y-923689D01*
X1012648Y-923689D02*
X1003124Y-904642D01*
X1003124Y-904642D02*
X993600Y-895118D01*
X993600Y-895118D02*
X974552Y-885594D01*
X974552Y-885594D02*
X936457Y-885594D01*
X936457Y-885594D02*
X917409Y-895118D01*
X917409Y-895118D02*
X907886Y-904642D01*
X907886Y-904642D02*
X898362Y-923689D01*
X1098362Y-1009404D02*
X1098362Y-876070D01*
X1098362Y-895118D02*
X1107886Y-885594D01*
X1107886Y-885594D02*
X1126933Y-876070D01*
X1126933Y-876070D02*
X1155505Y-876070D01*
X1155505Y-876070D02*
X1174552Y-885594D01*
X1174552Y-885594D02*
X1184076Y-904642D01*
X1184076Y-904642D02*
X1184076Y-1009404D01*
X1184076Y-904642D02*
X1193600Y-885594D01*
X1193600Y-885594D02*
X1212648Y-876070D01*
X1212648Y-876070D02*
X1241219Y-876070D01*
X1241219Y-876070D02*
X1260267Y-885594D01*
X1260267Y-885594D02*
X1269791Y-904642D01*
X1269791Y-904642D02*
X1269791Y-1009404D01*
X1365029Y-1009404D02*
X1365029Y-876070D01*
X1365029Y-895118D02*
X1374552Y-885594D01*
X1374552Y-885594D02*
X1393600Y-876070D01*
X1393600Y-876070D02*
X1422171Y-876070D01*
X1422171Y-876070D02*
X1441219Y-885594D01*
X1441219Y-885594D02*
X1450743Y-904642D01*
X1450743Y-904642D02*
X1450743Y-1009404D01*
X1450743Y-904642D02*
X1460267Y-885594D01*
X1460267Y-885594D02*
X1479314Y-876070D01*
X1479314Y-876070D02*
X1507886Y-876070D01*
X1507886Y-876070D02*
X1526933Y-885594D01*
X1526933Y-885594D02*
X1536457Y-904642D01*
X1536457Y-904642D02*
X1536457Y-1009404D01*
X1926933Y-799880D02*
X1755505Y-1057023D01*
X2184076Y-809404D02*
X2203124Y-809404D01*
X2203124Y-809404D02*
X2222172Y-818928D01*
X2222172Y-818928D02*
X2231695Y-828451D01*
X2231695Y-828451D02*
X2241219Y-847499D01*
X2241219Y-847499D02*
X2250743Y-885594D01*
X2250743Y-885594D02*
X2250743Y-933213D01*
X2250743Y-933213D02*
X2241219Y-971308D01*
X2241219Y-971308D02*
X2231695Y-990356D01*
X2231695Y-990356D02*
X2222172Y-999880D01*
X2222172Y-999880D02*
X2203124Y-1009404D01*
X2203124Y-1009404D02*
X2184076Y-1009404D01*
X2184076Y-1009404D02*
X2165029Y-999880D01*
X2165029Y-999880D02*
X2155505Y-990356D01*
X2155505Y-990356D02*
X2145981Y-971308D01*
X2145981Y-971308D02*
X2136457Y-933213D01*
X2136457Y-933213D02*
X2136457Y-885594D01*
X2136457Y-885594D02*
X2145981Y-847499D01*
X2145981Y-847499D02*
X2155505Y-828451D01*
X2155505Y-828451D02*
X2165029Y-818928D01*
X2165029Y-818928D02*
X2184076Y-809404D01*
X2336457Y-990356D02*
X2345981Y-999880D01*
X2345981Y-999880D02*
X2336457Y-1009404D01*
X2336457Y-1009404D02*
X2326934Y-999880D01*
X2326934Y-999880D02*
X2336457Y-990356D01*
X2336457Y-990356D02*
X2336457Y-1009404D01*
X2469791Y-809404D02*
X2488838Y-809404D01*
X2488838Y-809404D02*
X2507886Y-818928D01*
X2507886Y-818928D02*
X2517410Y-828451D01*
X2517410Y-828451D02*
X2526934Y-847499D01*
X2526934Y-847499D02*
X2536457Y-885594D01*
X2536457Y-885594D02*
X2536457Y-933213D01*
X2536457Y-933213D02*
X2526934Y-971308D01*
X2526934Y-971308D02*
X2517410Y-990356D01*
X2517410Y-990356D02*
X2507886Y-999880D01*
X2507886Y-999880D02*
X2488838Y-1009404D01*
X2488838Y-1009404D02*
X2469791Y-1009404D01*
X2469791Y-1009404D02*
X2450743Y-999880D01*
X2450743Y-999880D02*
X2441219Y-990356D01*
X2441219Y-990356D02*
X2431695Y-971308D01*
X2431695Y-971308D02*
X2422172Y-933213D01*
X2422172Y-933213D02*
X2422172Y-885594D01*
X2422172Y-885594D02*
X2431695Y-847499D01*
X2431695Y-847499D02*
X2441219Y-828451D01*
X2441219Y-828451D02*
X2450743Y-818928D01*
X2450743Y-818928D02*
X2469791Y-809404D01*
X2612648Y-828451D02*
X2622172Y-818928D01*
X2622172Y-818928D02*
X2641219Y-809404D01*
X2641219Y-809404D02*
X2688838Y-809404D01*
X2688838Y-809404D02*
X2707886Y-818928D01*
X2707886Y-818928D02*
X2717410Y-828451D01*
X2717410Y-828451D02*
X2726934Y-847499D01*
X2726934Y-847499D02*
X2726934Y-866547D01*
X2726934Y-866547D02*
X2717410Y-895118D01*
X2717410Y-895118D02*
X2603124Y-1009404D01*
X2603124Y-1009404D02*
X2726934Y-1009404D01*
X2793600Y-809404D02*
X2926933Y-809404D01*
X2926933Y-809404D02*
X2841219Y-1009404D01*
X3041219Y-809404D02*
X3060267Y-809404D01*
X3060267Y-809404D02*
X3079314Y-818928D01*
X3079314Y-818928D02*
X3088838Y-828451D01*
X3088838Y-828451D02*
X3098362Y-847499D01*
X3098362Y-847499D02*
X3107886Y-885594D01*
X3107886Y-885594D02*
X3107886Y-933213D01*
X3107886Y-933213D02*
X3098362Y-971308D01*
X3098362Y-971308D02*
X3088838Y-990356D01*
X3088838Y-990356D02*
X3079314Y-999880D01*
X3079314Y-999880D02*
X3060267Y-1009404D01*
X3060267Y-1009404D02*
X3041219Y-1009404D01*
X3041219Y-1009404D02*
X3022172Y-999880D01*
X3022172Y-999880D02*
X3012648Y-990356D01*
X3012648Y-990356D02*
X3003124Y-971308D01*
X3003124Y-971308D02*
X2993600Y-933213D01*
X2993600Y-933213D02*
X2993600Y-885594D01*
X2993600Y-885594D02*
X3003124Y-847499D01*
X3003124Y-847499D02*
X3012648Y-828451D01*
X3012648Y-828451D02*
X3022172Y-818928D01*
X3022172Y-818928D02*
X3041219Y-809404D01*
X3184076Y-809404D02*
X3184076Y-847499D01*
X3260267Y-809404D02*
X3260267Y-847499D01*
X3555505Y-1085594D02*
X3545981Y-1076070D01*
X3545981Y-1076070D02*
X3526934Y-1047499D01*
X3526934Y-1047499D02*
X3517410Y-1028451D01*
X3517410Y-1028451D02*
X3507886Y-999880D01*
X3507886Y-999880D02*
X3498362Y-952261D01*
X3498362Y-952261D02*
X3498362Y-914166D01*
X3498362Y-914166D02*
X3507886Y-866547D01*
X3507886Y-866547D02*
X3517410Y-837975D01*
X3517410Y-837975D02*
X3526934Y-818928D01*
X3526934Y-818928D02*
X3545981Y-790356D01*
X3545981Y-790356D02*
X3555505Y-780832D01*
X3612648Y-809404D02*
X3745981Y-809404D01*
X3745981Y-809404D02*
X3660267Y-1009404D01*
X3974553Y-1009404D02*
X3974553Y-809404D01*
X4060267Y-1009404D02*
X4060267Y-904642D01*
X4060267Y-904642D02*
X4050743Y-885594D01*
X4050743Y-885594D02*
X4031696Y-876070D01*
X4031696Y-876070D02*
X4003124Y-876070D01*
X4003124Y-876070D02*
X3984076Y-885594D01*
X3984076Y-885594D02*
X3974553Y-895118D01*
X4184076Y-1009404D02*
X4165029Y-999880D01*
X4165029Y-999880D02*
X4155505Y-990356D01*
X4155505Y-990356D02*
X4145981Y-971308D01*
X4145981Y-971308D02*
X4145981Y-914166D01*
X4145981Y-914166D02*
X4155505Y-895118D01*
X4155505Y-895118D02*
X4165029Y-885594D01*
X4165029Y-885594D02*
X4184076Y-876070D01*
X4184076Y-876070D02*
X4212648Y-876070D01*
X4212648Y-876070D02*
X4231696Y-885594D01*
X4231696Y-885594D02*
X4241219Y-895118D01*
X4241219Y-895118D02*
X4250743Y-914166D01*
X4250743Y-914166D02*
X4250743Y-971308D01*
X4250743Y-971308D02*
X4241219Y-990356D01*
X4241219Y-990356D02*
X4231696Y-999880D01*
X4231696Y-999880D02*
X4212648Y-1009404D01*
X4212648Y-1009404D02*
X4184076Y-1009404D01*
X4365029Y-1009404D02*
X4345981Y-999880D01*
X4345981Y-999880D02*
X4336458Y-980832D01*
X4336458Y-980832D02*
X4336458Y-809404D01*
X4517410Y-999880D02*
X4498362Y-1009404D01*
X4498362Y-1009404D02*
X4460267Y-1009404D01*
X4460267Y-1009404D02*
X4441219Y-999880D01*
X4441219Y-999880D02*
X4431696Y-980832D01*
X4431696Y-980832D02*
X4431696Y-904642D01*
X4431696Y-904642D02*
X4441219Y-885594D01*
X4441219Y-885594D02*
X4460267Y-876070D01*
X4460267Y-876070D02*
X4498362Y-876070D01*
X4498362Y-876070D02*
X4517410Y-885594D01*
X4517410Y-885594D02*
X4526934Y-904642D01*
X4526934Y-904642D02*
X4526934Y-923689D01*
X4526934Y-923689D02*
X4431696Y-942737D01*
X4603124Y-999880D02*
X4622172Y-1009404D01*
X4622172Y-1009404D02*
X4660267Y-1009404D01*
X4660267Y-1009404D02*
X4679315Y-999880D01*
X4679315Y-999880D02*
X4688839Y-980832D01*
X4688839Y-980832D02*
X4688839Y-971308D01*
X4688839Y-971308D02*
X4679315Y-952261D01*
X4679315Y-952261D02*
X4660267Y-942737D01*
X4660267Y-942737D02*
X4631696Y-942737D01*
X4631696Y-942737D02*
X4612648Y-933213D01*
X4612648Y-933213D02*
X4603124Y-914166D01*
X4603124Y-914166D02*
X4603124Y-904642D01*
X4603124Y-904642D02*
X4612648Y-885594D01*
X4612648Y-885594D02*
X4631696Y-876070D01*
X4631696Y-876070D02*
X4660267Y-876070D01*
X4660267Y-876070D02*
X4679315Y-885594D01*
X4755505Y-1085594D02*
X4765029Y-1076070D01*
X4765029Y-1076070D02*
X4784077Y-1047499D01*
X4784077Y-1047499D02*
X4793600Y-1028451D01*
X4793600Y-1028451D02*
X4803124Y-999880D01*
X4803124Y-999880D02*
X4812648Y-952261D01*
X4812648Y-952261D02*
X4812648Y-914166D01*
X4812648Y-914166D02*
X4803124Y-866547D01*
X4803124Y-866547D02*
X4793600Y-837975D01*
X4793600Y-837975D02*
X4784077Y-818928D01*
X4784077Y-818928D02*
X4765029Y-790356D01*
X4765029Y-790356D02*
X4755505Y-780832D01*
D14*
X-41389Y-1145892D02*
X-41389Y-1215869D01*
X-76377Y-1180880D02*
X-6400Y-1180880D01*
D11*
X279314Y-1073404D02*
X298362Y-1073404D01*
X298362Y-1073404D02*
X317410Y-1082928D01*
X317410Y-1082928D02*
X326933Y-1092451D01*
X326933Y-1092451D02*
X336457Y-1111499D01*
X336457Y-1111499D02*
X345981Y-1149594D01*
X345981Y-1149594D02*
X345981Y-1197213D01*
X345981Y-1197213D02*
X336457Y-1235309D01*
X336457Y-1235309D02*
X326933Y-1254356D01*
X326933Y-1254356D02*
X317410Y-1263880D01*
X317410Y-1263880D02*
X298362Y-1273404D01*
X298362Y-1273404D02*
X279314Y-1273404D01*
X279314Y-1273404D02*
X260267Y-1263880D01*
X260267Y-1263880D02*
X250743Y-1254356D01*
X250743Y-1254356D02*
X241219Y-1235309D01*
X241219Y-1235309D02*
X231695Y-1197213D01*
X231695Y-1197213D02*
X231695Y-1149594D01*
X231695Y-1149594D02*
X241219Y-1111499D01*
X241219Y-1111499D02*
X250743Y-1092451D01*
X250743Y-1092451D02*
X260267Y-1082928D01*
X260267Y-1082928D02*
X279314Y-1073404D01*
X431695Y-1254356D02*
X441219Y-1263880D01*
X441219Y-1263880D02*
X431695Y-1273404D01*
X431695Y-1273404D02*
X422171Y-1263880D01*
X422171Y-1263880D02*
X431695Y-1254356D01*
X431695Y-1254356D02*
X431695Y-1273404D01*
X507886Y-1073404D02*
X641219Y-1073404D01*
X641219Y-1073404D02*
X555505Y-1273404D01*
X755505Y-1073404D02*
X774552Y-1073404D01*
X774552Y-1073404D02*
X793600Y-1082928D01*
X793600Y-1082928D02*
X803124Y-1092451D01*
X803124Y-1092451D02*
X812648Y-1111499D01*
X812648Y-1111499D02*
X822171Y-1149594D01*
X822171Y-1149594D02*
X822171Y-1197213D01*
X822171Y-1197213D02*
X812648Y-1235309D01*
X812648Y-1235309D02*
X803124Y-1254356D01*
X803124Y-1254356D02*
X793600Y-1263880D01*
X793600Y-1263880D02*
X774552Y-1273404D01*
X774552Y-1273404D02*
X755505Y-1273404D01*
X755505Y-1273404D02*
X736457Y-1263880D01*
X736457Y-1263880D02*
X726933Y-1254356D01*
X726933Y-1254356D02*
X717409Y-1235309D01*
X717409Y-1235309D02*
X707886Y-1197213D01*
X707886Y-1197213D02*
X707886Y-1149594D01*
X707886Y-1149594D02*
X717409Y-1111499D01*
X717409Y-1111499D02*
X726933Y-1092451D01*
X726933Y-1092451D02*
X736457Y-1082928D01*
X736457Y-1082928D02*
X755505Y-1073404D01*
X945981Y-1073404D02*
X965029Y-1073404D01*
X965029Y-1073404D02*
X984076Y-1082928D01*
X984076Y-1082928D02*
X993600Y-1092451D01*
X993600Y-1092451D02*
X1003124Y-1111499D01*
X1003124Y-1111499D02*
X1012648Y-1149594D01*
X1012648Y-1149594D02*
X1012648Y-1197213D01*
X1012648Y-1197213D02*
X1003124Y-1235309D01*
X1003124Y-1235309D02*
X993600Y-1254356D01*
X993600Y-1254356D02*
X984076Y-1263880D01*
X984076Y-1263880D02*
X965029Y-1273404D01*
X965029Y-1273404D02*
X945981Y-1273404D01*
X945981Y-1273404D02*
X926933Y-1263880D01*
X926933Y-1263880D02*
X917409Y-1254356D01*
X917409Y-1254356D02*
X907886Y-1235309D01*
X907886Y-1235309D02*
X898362Y-1197213D01*
X898362Y-1197213D02*
X898362Y-1149594D01*
X898362Y-1149594D02*
X907886Y-1111499D01*
X907886Y-1111499D02*
X917409Y-1092451D01*
X917409Y-1092451D02*
X926933Y-1082928D01*
X926933Y-1082928D02*
X945981Y-1073404D01*
X1098362Y-1273404D02*
X1098362Y-1140070D01*
X1098362Y-1159118D02*
X1107886Y-1149594D01*
X1107886Y-1149594D02*
X1126933Y-1140070D01*
X1126933Y-1140070D02*
X1155505Y-1140070D01*
X1155505Y-1140070D02*
X1174552Y-1149594D01*
X1174552Y-1149594D02*
X1184076Y-1168642D01*
X1184076Y-1168642D02*
X1184076Y-1273404D01*
X1184076Y-1168642D02*
X1193600Y-1149594D01*
X1193600Y-1149594D02*
X1212648Y-1140070D01*
X1212648Y-1140070D02*
X1241219Y-1140070D01*
X1241219Y-1140070D02*
X1260267Y-1149594D01*
X1260267Y-1149594D02*
X1269791Y-1168642D01*
X1269791Y-1168642D02*
X1269791Y-1273404D01*
X1365029Y-1273404D02*
X1365029Y-1140070D01*
X1365029Y-1159118D02*
X1374552Y-1149594D01*
X1374552Y-1149594D02*
X1393600Y-1140070D01*
X1393600Y-1140070D02*
X1422171Y-1140070D01*
X1422171Y-1140070D02*
X1441219Y-1149594D01*
X1441219Y-1149594D02*
X1450743Y-1168642D01*
X1450743Y-1168642D02*
X1450743Y-1273404D01*
X1450743Y-1168642D02*
X1460267Y-1149594D01*
X1460267Y-1149594D02*
X1479314Y-1140070D01*
X1479314Y-1140070D02*
X1507886Y-1140070D01*
X1507886Y-1140070D02*
X1526933Y-1149594D01*
X1526933Y-1149594D02*
X1536457Y-1168642D01*
X1536457Y-1168642D02*
X1536457Y-1273404D01*
X1926933Y-1063880D02*
X1755505Y-1321023D01*
X2184076Y-1073404D02*
X2203124Y-1073404D01*
X2203124Y-1073404D02*
X2222172Y-1082928D01*
X2222172Y-1082928D02*
X2231695Y-1092451D01*
X2231695Y-1092451D02*
X2241219Y-1111499D01*
X2241219Y-1111499D02*
X2250743Y-1149594D01*
X2250743Y-1149594D02*
X2250743Y-1197213D01*
X2250743Y-1197213D02*
X2241219Y-1235309D01*
X2241219Y-1235309D02*
X2231695Y-1254356D01*
X2231695Y-1254356D02*
X2222172Y-1263880D01*
X2222172Y-1263880D02*
X2203124Y-1273404D01*
X2203124Y-1273404D02*
X2184076Y-1273404D01*
X2184076Y-1273404D02*
X2165029Y-1263880D01*
X2165029Y-1263880D02*
X2155505Y-1254356D01*
X2155505Y-1254356D02*
X2145981Y-1235309D01*
X2145981Y-1235309D02*
X2136457Y-1197213D01*
X2136457Y-1197213D02*
X2136457Y-1149594D01*
X2136457Y-1149594D02*
X2145981Y-1111499D01*
X2145981Y-1111499D02*
X2155505Y-1092451D01*
X2155505Y-1092451D02*
X2165029Y-1082928D01*
X2165029Y-1082928D02*
X2184076Y-1073404D01*
X2336457Y-1254356D02*
X2345981Y-1263880D01*
X2345981Y-1263880D02*
X2336457Y-1273404D01*
X2336457Y-1273404D02*
X2326934Y-1263880D01*
X2326934Y-1263880D02*
X2336457Y-1254356D01*
X2336457Y-1254356D02*
X2336457Y-1273404D01*
X2469791Y-1073404D02*
X2488838Y-1073404D01*
X2488838Y-1073404D02*
X2507886Y-1082928D01*
X2507886Y-1082928D02*
X2517410Y-1092451D01*
X2517410Y-1092451D02*
X2526934Y-1111499D01*
X2526934Y-1111499D02*
X2536457Y-1149594D01*
X2536457Y-1149594D02*
X2536457Y-1197213D01*
X2536457Y-1197213D02*
X2526934Y-1235309D01*
X2526934Y-1235309D02*
X2517410Y-1254356D01*
X2517410Y-1254356D02*
X2507886Y-1263880D01*
X2507886Y-1263880D02*
X2488838Y-1273404D01*
X2488838Y-1273404D02*
X2469791Y-1273404D01*
X2469791Y-1273404D02*
X2450743Y-1263880D01*
X2450743Y-1263880D02*
X2441219Y-1254356D01*
X2441219Y-1254356D02*
X2431695Y-1235309D01*
X2431695Y-1235309D02*
X2422172Y-1197213D01*
X2422172Y-1197213D02*
X2422172Y-1149594D01*
X2422172Y-1149594D02*
X2431695Y-1111499D01*
X2431695Y-1111499D02*
X2441219Y-1092451D01*
X2441219Y-1092451D02*
X2450743Y-1082928D01*
X2450743Y-1082928D02*
X2469791Y-1073404D01*
X2612648Y-1092451D02*
X2622172Y-1082928D01*
X2622172Y-1082928D02*
X2641219Y-1073404D01*
X2641219Y-1073404D02*
X2688838Y-1073404D01*
X2688838Y-1073404D02*
X2707886Y-1082928D01*
X2707886Y-1082928D02*
X2717410Y-1092451D01*
X2717410Y-1092451D02*
X2726934Y-1111499D01*
X2726934Y-1111499D02*
X2726934Y-1130547D01*
X2726934Y-1130547D02*
X2717410Y-1159118D01*
X2717410Y-1159118D02*
X2603124Y-1273404D01*
X2603124Y-1273404D02*
X2726934Y-1273404D01*
X2793600Y-1073404D02*
X2926933Y-1073404D01*
X2926933Y-1073404D02*
X2841219Y-1273404D01*
X3098362Y-1073404D02*
X3003124Y-1073404D01*
X3003124Y-1073404D02*
X2993600Y-1168642D01*
X2993600Y-1168642D02*
X3003124Y-1159118D01*
X3003124Y-1159118D02*
X3022172Y-1149594D01*
X3022172Y-1149594D02*
X3069791Y-1149594D01*
X3069791Y-1149594D02*
X3088838Y-1159118D01*
X3088838Y-1159118D02*
X3098362Y-1168642D01*
X3098362Y-1168642D02*
X3107886Y-1187690D01*
X3107886Y-1187690D02*
X3107886Y-1235309D01*
X3107886Y-1235309D02*
X3098362Y-1254356D01*
X3098362Y-1254356D02*
X3088838Y-1263880D01*
X3088838Y-1263880D02*
X3069791Y-1273404D01*
X3069791Y-1273404D02*
X3022172Y-1273404D01*
X3022172Y-1273404D02*
X3003124Y-1263880D01*
X3003124Y-1263880D02*
X2993600Y-1254356D01*
X3184076Y-1073404D02*
X3184076Y-1111499D01*
X3260267Y-1073404D02*
X3260267Y-1111499D01*
X3555505Y-1349594D02*
X3545981Y-1340070D01*
X3545981Y-1340070D02*
X3526934Y-1311499D01*
X3526934Y-1311499D02*
X3517410Y-1292451D01*
X3517410Y-1292451D02*
X3507886Y-1263880D01*
X3507886Y-1263880D02*
X3498362Y-1216261D01*
X3498362Y-1216261D02*
X3498362Y-1178166D01*
X3498362Y-1178166D02*
X3507886Y-1130547D01*
X3507886Y-1130547D02*
X3517410Y-1101975D01*
X3517410Y-1101975D02*
X3526934Y-1082928D01*
X3526934Y-1082928D02*
X3545981Y-1054356D01*
X3545981Y-1054356D02*
X3555505Y-1044832D01*
X3736457Y-1273404D02*
X3622172Y-1273404D01*
X3679314Y-1273404D02*
X3679314Y-1073404D01*
X3679314Y-1073404D02*
X3660267Y-1101975D01*
X3660267Y-1101975D02*
X3641219Y-1121023D01*
X3641219Y-1121023D02*
X3622172Y-1130547D01*
X3974553Y-1273404D02*
X3974553Y-1073404D01*
X4060267Y-1273404D02*
X4060267Y-1168642D01*
X4060267Y-1168642D02*
X4050743Y-1149594D01*
X4050743Y-1149594D02*
X4031696Y-1140070D01*
X4031696Y-1140070D02*
X4003124Y-1140070D01*
X4003124Y-1140070D02*
X3984076Y-1149594D01*
X3984076Y-1149594D02*
X3974553Y-1159118D01*
X4184076Y-1273404D02*
X4165029Y-1263880D01*
X4165029Y-1263880D02*
X4155505Y-1254356D01*
X4155505Y-1254356D02*
X4145981Y-1235309D01*
X4145981Y-1235309D02*
X4145981Y-1178166D01*
X4145981Y-1178166D02*
X4155505Y-1159118D01*
X4155505Y-1159118D02*
X4165029Y-1149594D01*
X4165029Y-1149594D02*
X4184076Y-1140070D01*
X4184076Y-1140070D02*
X4212648Y-1140070D01*
X4212648Y-1140070D02*
X4231696Y-1149594D01*
X4231696Y-1149594D02*
X4241219Y-1159118D01*
X4241219Y-1159118D02*
X4250743Y-1178166D01*
X4250743Y-1178166D02*
X4250743Y-1235309D01*
X4250743Y-1235309D02*
X4241219Y-1254356D01*
X4241219Y-1254356D02*
X4231696Y-1263880D01*
X4231696Y-1263880D02*
X4212648Y-1273404D01*
X4212648Y-1273404D02*
X4184076Y-1273404D01*
X4365029Y-1273404D02*
X4345981Y-1263880D01*
X4345981Y-1263880D02*
X4336458Y-1244832D01*
X4336458Y-1244832D02*
X4336458Y-1073404D01*
X4517410Y-1263880D02*
X4498362Y-1273404D01*
X4498362Y-1273404D02*
X4460267Y-1273404D01*
X4460267Y-1273404D02*
X4441219Y-1263880D01*
X4441219Y-1263880D02*
X4431696Y-1244832D01*
X4431696Y-1244832D02*
X4431696Y-1168642D01*
X4431696Y-1168642D02*
X4441219Y-1149594D01*
X4441219Y-1149594D02*
X4460267Y-1140070D01*
X4460267Y-1140070D02*
X4498362Y-1140070D01*
X4498362Y-1140070D02*
X4517410Y-1149594D01*
X4517410Y-1149594D02*
X4526934Y-1168642D01*
X4526934Y-1168642D02*
X4526934Y-1187690D01*
X4526934Y-1187690D02*
X4431696Y-1206737D01*
X4593600Y-1349594D02*
X4603124Y-1340070D01*
X4603124Y-1340070D02*
X4622172Y-1311499D01*
X4622172Y-1311499D02*
X4631696Y-1292451D01*
X4631696Y-1292451D02*
X4641219Y-1263880D01*
X4641219Y-1263880D02*
X4650743Y-1216261D01*
X4650743Y-1216261D02*
X4650743Y-1178166D01*
X4650743Y-1178166D02*
X4641219Y-1130547D01*
X4641219Y-1130547D02*
X4631696Y-1101975D01*
X4631696Y-1101975D02*
X4622172Y-1082928D01*
X4622172Y-1082928D02*
X4603124Y-1054356D01*
X4603124Y-1054356D02*
X4593600Y-1044832D01*
D15*
X-18116Y-1473164D02*
X-18116Y-1416595D01*
X-74685Y-1416595D01*
X-74685Y-1473164D01*
X-18116Y-1473164D01*
D11*
X279314Y-1337404D02*
X298362Y-1337404D01*
X298362Y-1337404D02*
X317410Y-1346928D01*
X317410Y-1346928D02*
X326933Y-1356451D01*
X326933Y-1356451D02*
X336457Y-1375499D01*
X336457Y-1375499D02*
X345981Y-1413594D01*
X345981Y-1413594D02*
X345981Y-1461213D01*
X345981Y-1461213D02*
X336457Y-1499308D01*
X336457Y-1499308D02*
X326933Y-1518356D01*
X326933Y-1518356D02*
X317410Y-1527880D01*
X317410Y-1527880D02*
X298362Y-1537404D01*
X298362Y-1537404D02*
X279314Y-1537404D01*
X279314Y-1537404D02*
X260267Y-1527880D01*
X260267Y-1527880D02*
X250743Y-1518356D01*
X250743Y-1518356D02*
X241219Y-1499308D01*
X241219Y-1499308D02*
X231695Y-1461213D01*
X231695Y-1461213D02*
X231695Y-1413594D01*
X231695Y-1413594D02*
X241219Y-1375499D01*
X241219Y-1375499D02*
X250743Y-1356451D01*
X250743Y-1356451D02*
X260267Y-1346928D01*
X260267Y-1346928D02*
X279314Y-1337404D01*
X431695Y-1518356D02*
X441219Y-1527880D01*
X441219Y-1527880D02*
X431695Y-1537404D01*
X431695Y-1537404D02*
X422171Y-1527880D01*
X422171Y-1527880D02*
X431695Y-1518356D01*
X431695Y-1518356D02*
X431695Y-1537404D01*
X555505Y-1423118D02*
X536457Y-1413594D01*
X536457Y-1413594D02*
X526933Y-1404070D01*
X526933Y-1404070D02*
X517409Y-1385023D01*
X517409Y-1385023D02*
X517409Y-1375499D01*
X517409Y-1375499D02*
X526933Y-1356451D01*
X526933Y-1356451D02*
X536457Y-1346928D01*
X536457Y-1346928D02*
X555505Y-1337404D01*
X555505Y-1337404D02*
X593600Y-1337404D01*
X593600Y-1337404D02*
X612648Y-1346928D01*
X612648Y-1346928D02*
X622171Y-1356451D01*
X622171Y-1356451D02*
X631695Y-1375499D01*
X631695Y-1375499D02*
X631695Y-1385023D01*
X631695Y-1385023D02*
X622171Y-1404070D01*
X622171Y-1404070D02*
X612648Y-1413594D01*
X612648Y-1413594D02*
X593600Y-1423118D01*
X593600Y-1423118D02*
X555505Y-1423118D01*
X555505Y-1423118D02*
X536457Y-1432642D01*
X536457Y-1432642D02*
X526933Y-1442166D01*
X526933Y-1442166D02*
X517409Y-1461213D01*
X517409Y-1461213D02*
X517409Y-1499308D01*
X517409Y-1499308D02*
X526933Y-1518356D01*
X526933Y-1518356D02*
X536457Y-1527880D01*
X536457Y-1527880D02*
X555505Y-1537404D01*
X555505Y-1537404D02*
X593600Y-1537404D01*
X593600Y-1537404D02*
X612648Y-1527880D01*
X612648Y-1527880D02*
X622171Y-1518356D01*
X622171Y-1518356D02*
X631695Y-1499308D01*
X631695Y-1499308D02*
X631695Y-1461213D01*
X631695Y-1461213D02*
X622171Y-1442166D01*
X622171Y-1442166D02*
X612648Y-1432642D01*
X612648Y-1432642D02*
X593600Y-1423118D01*
X755505Y-1337404D02*
X774552Y-1337404D01*
X774552Y-1337404D02*
X793600Y-1346928D01*
X793600Y-1346928D02*
X803124Y-1356451D01*
X803124Y-1356451D02*
X812648Y-1375499D01*
X812648Y-1375499D02*
X822171Y-1413594D01*
X822171Y-1413594D02*
X822171Y-1461213D01*
X822171Y-1461213D02*
X812648Y-1499308D01*
X812648Y-1499308D02*
X803124Y-1518356D01*
X803124Y-1518356D02*
X793600Y-1527880D01*
X793600Y-1527880D02*
X774552Y-1537404D01*
X774552Y-1537404D02*
X755505Y-1537404D01*
X755505Y-1537404D02*
X736457Y-1527880D01*
X736457Y-1527880D02*
X726933Y-1518356D01*
X726933Y-1518356D02*
X717409Y-1499308D01*
X717409Y-1499308D02*
X707886Y-1461213D01*
X707886Y-1461213D02*
X707886Y-1413594D01*
X707886Y-1413594D02*
X717409Y-1375499D01*
X717409Y-1375499D02*
X726933Y-1356451D01*
X726933Y-1356451D02*
X736457Y-1346928D01*
X736457Y-1346928D02*
X755505Y-1337404D01*
X945981Y-1337404D02*
X965029Y-1337404D01*
X965029Y-1337404D02*
X984076Y-1346928D01*
X984076Y-1346928D02*
X993600Y-1356451D01*
X993600Y-1356451D02*
X1003124Y-1375499D01*
X1003124Y-1375499D02*
X1012648Y-1413594D01*
X1012648Y-1413594D02*
X1012648Y-1461213D01*
X1012648Y-1461213D02*
X1003124Y-1499308D01*
X1003124Y-1499308D02*
X993600Y-1518356D01*
X993600Y-1518356D02*
X984076Y-1527880D01*
X984076Y-1527880D02*
X965029Y-1537404D01*
X965029Y-1537404D02*
X945981Y-1537404D01*
X945981Y-1537404D02*
X926933Y-1527880D01*
X926933Y-1527880D02*
X917409Y-1518356D01*
X917409Y-1518356D02*
X907886Y-1499308D01*
X907886Y-1499308D02*
X898362Y-1461213D01*
X898362Y-1461213D02*
X898362Y-1413594D01*
X898362Y-1413594D02*
X907886Y-1375499D01*
X907886Y-1375499D02*
X917409Y-1356451D01*
X917409Y-1356451D02*
X926933Y-1346928D01*
X926933Y-1346928D02*
X945981Y-1337404D01*
X1098362Y-1537404D02*
X1098362Y-1404070D01*
X1098362Y-1423118D02*
X1107886Y-1413594D01*
X1107886Y-1413594D02*
X1126933Y-1404070D01*
X1126933Y-1404070D02*
X1155505Y-1404070D01*
X1155505Y-1404070D02*
X1174552Y-1413594D01*
X1174552Y-1413594D02*
X1184076Y-1432642D01*
X1184076Y-1432642D02*
X1184076Y-1537404D01*
X1184076Y-1432642D02*
X1193600Y-1413594D01*
X1193600Y-1413594D02*
X1212648Y-1404070D01*
X1212648Y-1404070D02*
X1241219Y-1404070D01*
X1241219Y-1404070D02*
X1260267Y-1413594D01*
X1260267Y-1413594D02*
X1269791Y-1432642D01*
X1269791Y-1432642D02*
X1269791Y-1537404D01*
X1365029Y-1537404D02*
X1365029Y-1404070D01*
X1365029Y-1423118D02*
X1374552Y-1413594D01*
X1374552Y-1413594D02*
X1393600Y-1404070D01*
X1393600Y-1404070D02*
X1422171Y-1404070D01*
X1422171Y-1404070D02*
X1441219Y-1413594D01*
X1441219Y-1413594D02*
X1450743Y-1432642D01*
X1450743Y-1432642D02*
X1450743Y-1537404D01*
X1450743Y-1432642D02*
X1460267Y-1413594D01*
X1460267Y-1413594D02*
X1479314Y-1404070D01*
X1479314Y-1404070D02*
X1507886Y-1404070D01*
X1507886Y-1404070D02*
X1526933Y-1413594D01*
X1526933Y-1413594D02*
X1536457Y-1432642D01*
X1536457Y-1432642D02*
X1536457Y-1537404D01*
X1926933Y-1327880D02*
X1755505Y-1585023D01*
X2184076Y-1337404D02*
X2203124Y-1337404D01*
X2203124Y-1337404D02*
X2222172Y-1346928D01*
X2222172Y-1346928D02*
X2231695Y-1356451D01*
X2231695Y-1356451D02*
X2241219Y-1375499D01*
X2241219Y-1375499D02*
X2250743Y-1413594D01*
X2250743Y-1413594D02*
X2250743Y-1461213D01*
X2250743Y-1461213D02*
X2241219Y-1499308D01*
X2241219Y-1499308D02*
X2231695Y-1518356D01*
X2231695Y-1518356D02*
X2222172Y-1527880D01*
X2222172Y-1527880D02*
X2203124Y-1537404D01*
X2203124Y-1537404D02*
X2184076Y-1537404D01*
X2184076Y-1537404D02*
X2165029Y-1527880D01*
X2165029Y-1527880D02*
X2155505Y-1518356D01*
X2155505Y-1518356D02*
X2145981Y-1499308D01*
X2145981Y-1499308D02*
X2136457Y-1461213D01*
X2136457Y-1461213D02*
X2136457Y-1413594D01*
X2136457Y-1413594D02*
X2145981Y-1375499D01*
X2145981Y-1375499D02*
X2155505Y-1356451D01*
X2155505Y-1356451D02*
X2165029Y-1346928D01*
X2165029Y-1346928D02*
X2184076Y-1337404D01*
X2336457Y-1518356D02*
X2345981Y-1527880D01*
X2345981Y-1527880D02*
X2336457Y-1537404D01*
X2336457Y-1537404D02*
X2326934Y-1527880D01*
X2326934Y-1527880D02*
X2336457Y-1518356D01*
X2336457Y-1518356D02*
X2336457Y-1537404D01*
X2469791Y-1337404D02*
X2488838Y-1337404D01*
X2488838Y-1337404D02*
X2507886Y-1346928D01*
X2507886Y-1346928D02*
X2517410Y-1356451D01*
X2517410Y-1356451D02*
X2526934Y-1375499D01*
X2526934Y-1375499D02*
X2536457Y-1413594D01*
X2536457Y-1413594D02*
X2536457Y-1461213D01*
X2536457Y-1461213D02*
X2526934Y-1499308D01*
X2526934Y-1499308D02*
X2517410Y-1518356D01*
X2517410Y-1518356D02*
X2507886Y-1527880D01*
X2507886Y-1527880D02*
X2488838Y-1537404D01*
X2488838Y-1537404D02*
X2469791Y-1537404D01*
X2469791Y-1537404D02*
X2450743Y-1527880D01*
X2450743Y-1527880D02*
X2441219Y-1518356D01*
X2441219Y-1518356D02*
X2431695Y-1499308D01*
X2431695Y-1499308D02*
X2422172Y-1461213D01*
X2422172Y-1461213D02*
X2422172Y-1413594D01*
X2422172Y-1413594D02*
X2431695Y-1375499D01*
X2431695Y-1375499D02*
X2441219Y-1356451D01*
X2441219Y-1356451D02*
X2450743Y-1346928D01*
X2450743Y-1346928D02*
X2469791Y-1337404D01*
X2603124Y-1337404D02*
X2726934Y-1337404D01*
X2726934Y-1337404D02*
X2660267Y-1413594D01*
X2660267Y-1413594D02*
X2688838Y-1413594D01*
X2688838Y-1413594D02*
X2707886Y-1423118D01*
X2707886Y-1423118D02*
X2717410Y-1432642D01*
X2717410Y-1432642D02*
X2726934Y-1451689D01*
X2726934Y-1451689D02*
X2726934Y-1499308D01*
X2726934Y-1499308D02*
X2717410Y-1518356D01*
X2717410Y-1518356D02*
X2707886Y-1527880D01*
X2707886Y-1527880D02*
X2688838Y-1537404D01*
X2688838Y-1537404D02*
X2631695Y-1537404D01*
X2631695Y-1537404D02*
X2612648Y-1527880D01*
X2612648Y-1527880D02*
X2603124Y-1518356D01*
X2917410Y-1537404D02*
X2803124Y-1537404D01*
X2860267Y-1537404D02*
X2860267Y-1337404D01*
X2860267Y-1337404D02*
X2841219Y-1365975D01*
X2841219Y-1365975D02*
X2822172Y-1385023D01*
X2822172Y-1385023D02*
X2803124Y-1394547D01*
X3098362Y-1337404D02*
X3003124Y-1337404D01*
X3003124Y-1337404D02*
X2993600Y-1432642D01*
X2993600Y-1432642D02*
X3003124Y-1423118D01*
X3003124Y-1423118D02*
X3022172Y-1413594D01*
X3022172Y-1413594D02*
X3069791Y-1413594D01*
X3069791Y-1413594D02*
X3088838Y-1423118D01*
X3088838Y-1423118D02*
X3098362Y-1432642D01*
X3098362Y-1432642D02*
X3107886Y-1451689D01*
X3107886Y-1451689D02*
X3107886Y-1499308D01*
X3107886Y-1499308D02*
X3098362Y-1518356D01*
X3098362Y-1518356D02*
X3088838Y-1527880D01*
X3088838Y-1527880D02*
X3069791Y-1537404D01*
X3069791Y-1537404D02*
X3022172Y-1537404D01*
X3022172Y-1537404D02*
X3003124Y-1527880D01*
X3003124Y-1527880D02*
X2993600Y-1518356D01*
X3184076Y-1337404D02*
X3184076Y-1375499D01*
X3260267Y-1337404D02*
X3260267Y-1375499D01*
X3555505Y-1613594D02*
X3545981Y-1604070D01*
X3545981Y-1604070D02*
X3526934Y-1575499D01*
X3526934Y-1575499D02*
X3517410Y-1556451D01*
X3517410Y-1556451D02*
X3507886Y-1527880D01*
X3507886Y-1527880D02*
X3498362Y-1480261D01*
X3498362Y-1480261D02*
X3498362Y-1442166D01*
X3498362Y-1442166D02*
X3507886Y-1394547D01*
X3507886Y-1394547D02*
X3517410Y-1365975D01*
X3517410Y-1365975D02*
X3526934Y-1346928D01*
X3526934Y-1346928D02*
X3545981Y-1318356D01*
X3545981Y-1318356D02*
X3555505Y-1308832D01*
X3736457Y-1537404D02*
X3622172Y-1537404D01*
X3679314Y-1537404D02*
X3679314Y-1337404D01*
X3679314Y-1337404D02*
X3660267Y-1365975D01*
X3660267Y-1365975D02*
X3641219Y-1385023D01*
X3641219Y-1385023D02*
X3622172Y-1394547D01*
X3812648Y-1356451D02*
X3822172Y-1346928D01*
X3822172Y-1346928D02*
X3841219Y-1337404D01*
X3841219Y-1337404D02*
X3888838Y-1337404D01*
X3888838Y-1337404D02*
X3907886Y-1346928D01*
X3907886Y-1346928D02*
X3917410Y-1356451D01*
X3917410Y-1356451D02*
X3926934Y-1375499D01*
X3926934Y-1375499D02*
X3926934Y-1394547D01*
X3926934Y-1394547D02*
X3917410Y-1423118D01*
X3917410Y-1423118D02*
X3803124Y-1537404D01*
X3803124Y-1537404D02*
X3926934Y-1537404D01*
X4165029Y-1537404D02*
X4165029Y-1337404D01*
X4250743Y-1537404D02*
X4250743Y-1432642D01*
X4250743Y-1432642D02*
X4241219Y-1413594D01*
X4241219Y-1413594D02*
X4222172Y-1404070D01*
X4222172Y-1404070D02*
X4193600Y-1404070D01*
X4193600Y-1404070D02*
X4174553Y-1413594D01*
X4174553Y-1413594D02*
X4165029Y-1423118D01*
X4374553Y-1537404D02*
X4355505Y-1527880D01*
X4355505Y-1527880D02*
X4345981Y-1518356D01*
X4345981Y-1518356D02*
X4336458Y-1499308D01*
X4336458Y-1499308D02*
X4336458Y-1442166D01*
X4336458Y-1442166D02*
X4345981Y-1423118D01*
X4345981Y-1423118D02*
X4355505Y-1413594D01*
X4355505Y-1413594D02*
X4374553Y-1404070D01*
X4374553Y-1404070D02*
X4403124Y-1404070D01*
X4403124Y-1404070D02*
X4422172Y-1413594D01*
X4422172Y-1413594D02*
X4431696Y-1423118D01*
X4431696Y-1423118D02*
X4441219Y-1442166D01*
X4441219Y-1442166D02*
X4441219Y-1499308D01*
X4441219Y-1499308D02*
X4431696Y-1518356D01*
X4431696Y-1518356D02*
X4422172Y-1527880D01*
X4422172Y-1527880D02*
X4403124Y-1537404D01*
X4403124Y-1537404D02*
X4374553Y-1537404D01*
X4555505Y-1537404D02*
X4536458Y-1527880D01*
X4536458Y-1527880D02*
X4526934Y-1508832D01*
X4526934Y-1508832D02*
X4526934Y-1337404D01*
X4707886Y-1527880D02*
X4688839Y-1537404D01*
X4688839Y-1537404D02*
X4650743Y-1537404D01*
X4650743Y-1537404D02*
X4631696Y-1527880D01*
X4631696Y-1527880D02*
X4622172Y-1508832D01*
X4622172Y-1508832D02*
X4622172Y-1432642D01*
X4622172Y-1432642D02*
X4631696Y-1413594D01*
X4631696Y-1413594D02*
X4650743Y-1404070D01*
X4650743Y-1404070D02*
X4688839Y-1404070D01*
X4688839Y-1404070D02*
X4707886Y-1413594D01*
X4707886Y-1413594D02*
X4717410Y-1432642D01*
X4717410Y-1432642D02*
X4717410Y-1451689D01*
X4717410Y-1451689D02*
X4622172Y-1470737D01*
X4793600Y-1527880D02*
X4812648Y-1537404D01*
X4812648Y-1537404D02*
X4850743Y-1537404D01*
X4850743Y-1537404D02*
X4869791Y-1527880D01*
X4869791Y-1527880D02*
X4879315Y-1508832D01*
X4879315Y-1508832D02*
X4879315Y-1499308D01*
X4879315Y-1499308D02*
X4869791Y-1480261D01*
X4869791Y-1480261D02*
X4850743Y-1470737D01*
X4850743Y-1470737D02*
X4822172Y-1470737D01*
X4822172Y-1470737D02*
X4803124Y-1461213D01*
X4803124Y-1461213D02*
X4793600Y-1442166D01*
X4793600Y-1442166D02*
X4793600Y-1432642D01*
X4793600Y-1432642D02*
X4803124Y-1413594D01*
X4803124Y-1413594D02*
X4822172Y-1404070D01*
X4822172Y-1404070D02*
X4850743Y-1404070D01*
X4850743Y-1404070D02*
X4869791Y-1413594D01*
X4945981Y-1613594D02*
X4955505Y-1604070D01*
X4955505Y-1604070D02*
X4974553Y-1575499D01*
X4974553Y-1575499D02*
X4984077Y-1556451D01*
X4984077Y-1556451D02*
X4993600Y-1527880D01*
X4993600Y-1527880D02*
X5003124Y-1480261D01*
X5003124Y-1480261D02*
X5003124Y-1442166D01*
X5003124Y-1442166D02*
X4993600Y-1394547D01*
X4993600Y-1394547D02*
X4984077Y-1365975D01*
X4984077Y-1365975D02*
X4974553Y-1346928D01*
X4974553Y-1346928D02*
X4955505Y-1318356D01*
X4955505Y-1318356D02*
X4945981Y-1308832D01*
D16*
X-50850Y-1753330D02*
X-6400Y-1708880D01*
X-50850Y-1664430D01*
X-95300Y-1708880D01*
X-50850Y-1753330D01*
D11*
X279314Y-1601404D02*
X298362Y-1601404D01*
X298362Y-1601404D02*
X317410Y-1610928D01*
X317410Y-1610928D02*
X326933Y-1620451D01*
X326933Y-1620451D02*
X336457Y-1639499D01*
X336457Y-1639499D02*
X345981Y-1677594D01*
X345981Y-1677594D02*
X345981Y-1725213D01*
X345981Y-1725213D02*
X336457Y-1763308D01*
X336457Y-1763308D02*
X326933Y-1782356D01*
X326933Y-1782356D02*
X317410Y-1791880D01*
X317410Y-1791880D02*
X298362Y-1801404D01*
X298362Y-1801404D02*
X279314Y-1801404D01*
X279314Y-1801404D02*
X260267Y-1791880D01*
X260267Y-1791880D02*
X250743Y-1782356D01*
X250743Y-1782356D02*
X241219Y-1763308D01*
X241219Y-1763308D02*
X231695Y-1725213D01*
X231695Y-1725213D02*
X231695Y-1677594D01*
X231695Y-1677594D02*
X241219Y-1639499D01*
X241219Y-1639499D02*
X250743Y-1620451D01*
X250743Y-1620451D02*
X260267Y-1610928D01*
X260267Y-1610928D02*
X279314Y-1601404D01*
X431695Y-1782356D02*
X441219Y-1791880D01*
X441219Y-1791880D02*
X431695Y-1801404D01*
X431695Y-1801404D02*
X422171Y-1791880D01*
X422171Y-1791880D02*
X431695Y-1782356D01*
X431695Y-1782356D02*
X431695Y-1801404D01*
X555505Y-1687118D02*
X536457Y-1677594D01*
X536457Y-1677594D02*
X526933Y-1668070D01*
X526933Y-1668070D02*
X517409Y-1649023D01*
X517409Y-1649023D02*
X517409Y-1639499D01*
X517409Y-1639499D02*
X526933Y-1620451D01*
X526933Y-1620451D02*
X536457Y-1610928D01*
X536457Y-1610928D02*
X555505Y-1601404D01*
X555505Y-1601404D02*
X593600Y-1601404D01*
X593600Y-1601404D02*
X612648Y-1610928D01*
X612648Y-1610928D02*
X622171Y-1620451D01*
X622171Y-1620451D02*
X631695Y-1639499D01*
X631695Y-1639499D02*
X631695Y-1649023D01*
X631695Y-1649023D02*
X622171Y-1668070D01*
X622171Y-1668070D02*
X612648Y-1677594D01*
X612648Y-1677594D02*
X593600Y-1687118D01*
X593600Y-1687118D02*
X555505Y-1687118D01*
X555505Y-1687118D02*
X536457Y-1696642D01*
X536457Y-1696642D02*
X526933Y-1706166D01*
X526933Y-1706166D02*
X517409Y-1725213D01*
X517409Y-1725213D02*
X517409Y-1763308D01*
X517409Y-1763308D02*
X526933Y-1782356D01*
X526933Y-1782356D02*
X536457Y-1791880D01*
X536457Y-1791880D02*
X555505Y-1801404D01*
X555505Y-1801404D02*
X593600Y-1801404D01*
X593600Y-1801404D02*
X612648Y-1791880D01*
X612648Y-1791880D02*
X622171Y-1782356D01*
X622171Y-1782356D02*
X631695Y-1763308D01*
X631695Y-1763308D02*
X631695Y-1725213D01*
X631695Y-1725213D02*
X622171Y-1706166D01*
X622171Y-1706166D02*
X612648Y-1696642D01*
X612648Y-1696642D02*
X593600Y-1687118D01*
X745981Y-1687118D02*
X726933Y-1677594D01*
X726933Y-1677594D02*
X717409Y-1668070D01*
X717409Y-1668070D02*
X707886Y-1649023D01*
X707886Y-1649023D02*
X707886Y-1639499D01*
X707886Y-1639499D02*
X717409Y-1620451D01*
X717409Y-1620451D02*
X726933Y-1610928D01*
X726933Y-1610928D02*
X745981Y-1601404D01*
X745981Y-1601404D02*
X784076Y-1601404D01*
X784076Y-1601404D02*
X803124Y-1610928D01*
X803124Y-1610928D02*
X812648Y-1620451D01*
X812648Y-1620451D02*
X822171Y-1639499D01*
X822171Y-1639499D02*
X822171Y-1649023D01*
X822171Y-1649023D02*
X812648Y-1668070D01*
X812648Y-1668070D02*
X803124Y-1677594D01*
X803124Y-1677594D02*
X784076Y-1687118D01*
X784076Y-1687118D02*
X745981Y-1687118D01*
X745981Y-1687118D02*
X726933Y-1696642D01*
X726933Y-1696642D02*
X717409Y-1706166D01*
X717409Y-1706166D02*
X707886Y-1725213D01*
X707886Y-1725213D02*
X707886Y-1763308D01*
X707886Y-1763308D02*
X717409Y-1782356D01*
X717409Y-1782356D02*
X726933Y-1791880D01*
X726933Y-1791880D02*
X745981Y-1801404D01*
X745981Y-1801404D02*
X784076Y-1801404D01*
X784076Y-1801404D02*
X803124Y-1791880D01*
X803124Y-1791880D02*
X812648Y-1782356D01*
X812648Y-1782356D02*
X822171Y-1763308D01*
X822171Y-1763308D02*
X822171Y-1725213D01*
X822171Y-1725213D02*
X812648Y-1706166D01*
X812648Y-1706166D02*
X803124Y-1696642D01*
X803124Y-1696642D02*
X784076Y-1687118D01*
X917409Y-1801404D02*
X955505Y-1801404D01*
X955505Y-1801404D02*
X974552Y-1791880D01*
X974552Y-1791880D02*
X984076Y-1782356D01*
X984076Y-1782356D02*
X1003124Y-1753785D01*
X1003124Y-1753785D02*
X1012648Y-1715689D01*
X1012648Y-1715689D02*
X1012648Y-1639499D01*
X1012648Y-1639499D02*
X1003124Y-1620451D01*
X1003124Y-1620451D02*
X993600Y-1610928D01*
X993600Y-1610928D02*
X974552Y-1601404D01*
X974552Y-1601404D02*
X936457Y-1601404D01*
X936457Y-1601404D02*
X917409Y-1610928D01*
X917409Y-1610928D02*
X907886Y-1620451D01*
X907886Y-1620451D02*
X898362Y-1639499D01*
X898362Y-1639499D02*
X898362Y-1687118D01*
X898362Y-1687118D02*
X907886Y-1706166D01*
X907886Y-1706166D02*
X917409Y-1715689D01*
X917409Y-1715689D02*
X936457Y-1725213D01*
X936457Y-1725213D02*
X974552Y-1725213D01*
X974552Y-1725213D02*
X993600Y-1715689D01*
X993600Y-1715689D02*
X1003124Y-1706166D01*
X1003124Y-1706166D02*
X1012648Y-1687118D01*
X1098362Y-1801404D02*
X1098362Y-1668070D01*
X1098362Y-1687118D02*
X1107886Y-1677594D01*
X1107886Y-1677594D02*
X1126933Y-1668070D01*
X1126933Y-1668070D02*
X1155505Y-1668070D01*
X1155505Y-1668070D02*
X1174552Y-1677594D01*
X1174552Y-1677594D02*
X1184076Y-1696642D01*
X1184076Y-1696642D02*
X1184076Y-1801404D01*
X1184076Y-1696642D02*
X1193600Y-1677594D01*
X1193600Y-1677594D02*
X1212648Y-1668070D01*
X1212648Y-1668070D02*
X1241219Y-1668070D01*
X1241219Y-1668070D02*
X1260267Y-1677594D01*
X1260267Y-1677594D02*
X1269791Y-1696642D01*
X1269791Y-1696642D02*
X1269791Y-1801404D01*
X1365029Y-1801404D02*
X1365029Y-1668070D01*
X1365029Y-1687118D02*
X1374552Y-1677594D01*
X1374552Y-1677594D02*
X1393600Y-1668070D01*
X1393600Y-1668070D02*
X1422171Y-1668070D01*
X1422171Y-1668070D02*
X1441219Y-1677594D01*
X1441219Y-1677594D02*
X1450743Y-1696642D01*
X1450743Y-1696642D02*
X1450743Y-1801404D01*
X1450743Y-1696642D02*
X1460267Y-1677594D01*
X1460267Y-1677594D02*
X1479314Y-1668070D01*
X1479314Y-1668070D02*
X1507886Y-1668070D01*
X1507886Y-1668070D02*
X1526933Y-1677594D01*
X1526933Y-1677594D02*
X1536457Y-1696642D01*
X1536457Y-1696642D02*
X1536457Y-1801404D01*
X1926933Y-1591880D02*
X1755505Y-1849023D01*
X2184076Y-1601404D02*
X2203124Y-1601404D01*
X2203124Y-1601404D02*
X2222172Y-1610928D01*
X2222172Y-1610928D02*
X2231695Y-1620451D01*
X2231695Y-1620451D02*
X2241219Y-1639499D01*
X2241219Y-1639499D02*
X2250743Y-1677594D01*
X2250743Y-1677594D02*
X2250743Y-1725213D01*
X2250743Y-1725213D02*
X2241219Y-1763308D01*
X2241219Y-1763308D02*
X2231695Y-1782356D01*
X2231695Y-1782356D02*
X2222172Y-1791880D01*
X2222172Y-1791880D02*
X2203124Y-1801404D01*
X2203124Y-1801404D02*
X2184076Y-1801404D01*
X2184076Y-1801404D02*
X2165029Y-1791880D01*
X2165029Y-1791880D02*
X2155505Y-1782356D01*
X2155505Y-1782356D02*
X2145981Y-1763308D01*
X2145981Y-1763308D02*
X2136457Y-1725213D01*
X2136457Y-1725213D02*
X2136457Y-1677594D01*
X2136457Y-1677594D02*
X2145981Y-1639499D01*
X2145981Y-1639499D02*
X2155505Y-1620451D01*
X2155505Y-1620451D02*
X2165029Y-1610928D01*
X2165029Y-1610928D02*
X2184076Y-1601404D01*
X2336457Y-1782356D02*
X2345981Y-1791880D01*
X2345981Y-1791880D02*
X2336457Y-1801404D01*
X2336457Y-1801404D02*
X2326934Y-1791880D01*
X2326934Y-1791880D02*
X2336457Y-1782356D01*
X2336457Y-1782356D02*
X2336457Y-1801404D01*
X2469791Y-1601404D02*
X2488838Y-1601404D01*
X2488838Y-1601404D02*
X2507886Y-1610928D01*
X2507886Y-1610928D02*
X2517410Y-1620451D01*
X2517410Y-1620451D02*
X2526934Y-1639499D01*
X2526934Y-1639499D02*
X2536457Y-1677594D01*
X2536457Y-1677594D02*
X2536457Y-1725213D01*
X2536457Y-1725213D02*
X2526934Y-1763308D01*
X2526934Y-1763308D02*
X2517410Y-1782356D01*
X2517410Y-1782356D02*
X2507886Y-1791880D01*
X2507886Y-1791880D02*
X2488838Y-1801404D01*
X2488838Y-1801404D02*
X2469791Y-1801404D01*
X2469791Y-1801404D02*
X2450743Y-1791880D01*
X2450743Y-1791880D02*
X2441219Y-1782356D01*
X2441219Y-1782356D02*
X2431695Y-1763308D01*
X2431695Y-1763308D02*
X2422172Y-1725213D01*
X2422172Y-1725213D02*
X2422172Y-1677594D01*
X2422172Y-1677594D02*
X2431695Y-1639499D01*
X2431695Y-1639499D02*
X2441219Y-1620451D01*
X2441219Y-1620451D02*
X2450743Y-1610928D01*
X2450743Y-1610928D02*
X2469791Y-1601404D01*
X2603124Y-1601404D02*
X2726934Y-1601404D01*
X2726934Y-1601404D02*
X2660267Y-1677594D01*
X2660267Y-1677594D02*
X2688838Y-1677594D01*
X2688838Y-1677594D02*
X2707886Y-1687118D01*
X2707886Y-1687118D02*
X2717410Y-1696642D01*
X2717410Y-1696642D02*
X2726934Y-1715689D01*
X2726934Y-1715689D02*
X2726934Y-1763308D01*
X2726934Y-1763308D02*
X2717410Y-1782356D01*
X2717410Y-1782356D02*
X2707886Y-1791880D01*
X2707886Y-1791880D02*
X2688838Y-1801404D01*
X2688838Y-1801404D02*
X2631695Y-1801404D01*
X2631695Y-1801404D02*
X2612648Y-1791880D01*
X2612648Y-1791880D02*
X2603124Y-1782356D01*
X2907886Y-1601404D02*
X2812648Y-1601404D01*
X2812648Y-1601404D02*
X2803124Y-1696642D01*
X2803124Y-1696642D02*
X2812648Y-1687118D01*
X2812648Y-1687118D02*
X2831695Y-1677594D01*
X2831695Y-1677594D02*
X2879314Y-1677594D01*
X2879314Y-1677594D02*
X2898362Y-1687118D01*
X2898362Y-1687118D02*
X2907886Y-1696642D01*
X2907886Y-1696642D02*
X2917410Y-1715689D01*
X2917410Y-1715689D02*
X2917410Y-1763308D01*
X2917410Y-1763308D02*
X2907886Y-1782356D01*
X2907886Y-1782356D02*
X2898362Y-1791880D01*
X2898362Y-1791880D02*
X2879314Y-1801404D01*
X2879314Y-1801404D02*
X2831695Y-1801404D01*
X2831695Y-1801404D02*
X2812648Y-1791880D01*
X2812648Y-1791880D02*
X2803124Y-1782356D01*
X3041219Y-1601404D02*
X3060267Y-1601404D01*
X3060267Y-1601404D02*
X3079314Y-1610928D01*
X3079314Y-1610928D02*
X3088838Y-1620451D01*
X3088838Y-1620451D02*
X3098362Y-1639499D01*
X3098362Y-1639499D02*
X3107886Y-1677594D01*
X3107886Y-1677594D02*
X3107886Y-1725213D01*
X3107886Y-1725213D02*
X3098362Y-1763308D01*
X3098362Y-1763308D02*
X3088838Y-1782356D01*
X3088838Y-1782356D02*
X3079314Y-1791880D01*
X3079314Y-1791880D02*
X3060267Y-1801404D01*
X3060267Y-1801404D02*
X3041219Y-1801404D01*
X3041219Y-1801404D02*
X3022172Y-1791880D01*
X3022172Y-1791880D02*
X3012648Y-1782356D01*
X3012648Y-1782356D02*
X3003124Y-1763308D01*
X3003124Y-1763308D02*
X2993600Y-1725213D01*
X2993600Y-1725213D02*
X2993600Y-1677594D01*
X2993600Y-1677594D02*
X3003124Y-1639499D01*
X3003124Y-1639499D02*
X3012648Y-1620451D01*
X3012648Y-1620451D02*
X3022172Y-1610928D01*
X3022172Y-1610928D02*
X3041219Y-1601404D01*
X3184076Y-1601404D02*
X3184076Y-1639499D01*
X3260267Y-1601404D02*
X3260267Y-1639499D01*
X3555505Y-1877594D02*
X3545981Y-1868070D01*
X3545981Y-1868070D02*
X3526934Y-1839499D01*
X3526934Y-1839499D02*
X3517410Y-1820451D01*
X3517410Y-1820451D02*
X3507886Y-1791880D01*
X3507886Y-1791880D02*
X3498362Y-1744261D01*
X3498362Y-1744261D02*
X3498362Y-1706166D01*
X3498362Y-1706166D02*
X3507886Y-1658547D01*
X3507886Y-1658547D02*
X3517410Y-1629975D01*
X3517410Y-1629975D02*
X3526934Y-1610928D01*
X3526934Y-1610928D02*
X3545981Y-1582356D01*
X3545981Y-1582356D02*
X3555505Y-1572832D01*
X3736457Y-1801404D02*
X3622172Y-1801404D01*
X3679314Y-1801404D02*
X3679314Y-1601404D01*
X3679314Y-1601404D02*
X3660267Y-1629975D01*
X3660267Y-1629975D02*
X3641219Y-1649023D01*
X3641219Y-1649023D02*
X3622172Y-1658547D01*
X3812648Y-1620451D02*
X3822172Y-1610928D01*
X3822172Y-1610928D02*
X3841219Y-1601404D01*
X3841219Y-1601404D02*
X3888838Y-1601404D01*
X3888838Y-1601404D02*
X3907886Y-1610928D01*
X3907886Y-1610928D02*
X3917410Y-1620451D01*
X3917410Y-1620451D02*
X3926934Y-1639499D01*
X3926934Y-1639499D02*
X3926934Y-1658547D01*
X3926934Y-1658547D02*
X3917410Y-1687118D01*
X3917410Y-1687118D02*
X3803124Y-1801404D01*
X3803124Y-1801404D02*
X3926934Y-1801404D01*
X4165029Y-1801404D02*
X4165029Y-1601404D01*
X4250743Y-1801404D02*
X4250743Y-1696642D01*
X4250743Y-1696642D02*
X4241219Y-1677594D01*
X4241219Y-1677594D02*
X4222172Y-1668070D01*
X4222172Y-1668070D02*
X4193600Y-1668070D01*
X4193600Y-1668070D02*
X4174553Y-1677594D01*
X4174553Y-1677594D02*
X4165029Y-1687118D01*
X4374553Y-1801404D02*
X4355505Y-1791880D01*
X4355505Y-1791880D02*
X4345981Y-1782356D01*
X4345981Y-1782356D02*
X4336458Y-1763308D01*
X4336458Y-1763308D02*
X4336458Y-1706166D01*
X4336458Y-1706166D02*
X4345981Y-1687118D01*
X4345981Y-1687118D02*
X4355505Y-1677594D01*
X4355505Y-1677594D02*
X4374553Y-1668070D01*
X4374553Y-1668070D02*
X4403124Y-1668070D01*
X4403124Y-1668070D02*
X4422172Y-1677594D01*
X4422172Y-1677594D02*
X4431696Y-1687118D01*
X4431696Y-1687118D02*
X4441219Y-1706166D01*
X4441219Y-1706166D02*
X4441219Y-1763308D01*
X4441219Y-1763308D02*
X4431696Y-1782356D01*
X4431696Y-1782356D02*
X4422172Y-1791880D01*
X4422172Y-1791880D02*
X4403124Y-1801404D01*
X4403124Y-1801404D02*
X4374553Y-1801404D01*
X4555505Y-1801404D02*
X4536458Y-1791880D01*
X4536458Y-1791880D02*
X4526934Y-1772832D01*
X4526934Y-1772832D02*
X4526934Y-1601404D01*
X4707886Y-1791880D02*
X4688839Y-1801404D01*
X4688839Y-1801404D02*
X4650743Y-1801404D01*
X4650743Y-1801404D02*
X4631696Y-1791880D01*
X4631696Y-1791880D02*
X4622172Y-1772832D01*
X4622172Y-1772832D02*
X4622172Y-1696642D01*
X4622172Y-1696642D02*
X4631696Y-1677594D01*
X4631696Y-1677594D02*
X4650743Y-1668070D01*
X4650743Y-1668070D02*
X4688839Y-1668070D01*
X4688839Y-1668070D02*
X4707886Y-1677594D01*
X4707886Y-1677594D02*
X4717410Y-1696642D01*
X4717410Y-1696642D02*
X4717410Y-1715689D01*
X4717410Y-1715689D02*
X4622172Y-1734737D01*
X4793600Y-1791880D02*
X4812648Y-1801404D01*
X4812648Y-1801404D02*
X4850743Y-1801404D01*
X4850743Y-1801404D02*
X4869791Y-1791880D01*
X4869791Y-1791880D02*
X4879315Y-1772832D01*
X4879315Y-1772832D02*
X4879315Y-1763308D01*
X4879315Y-1763308D02*
X4869791Y-1744261D01*
X4869791Y-1744261D02*
X4850743Y-1734737D01*
X4850743Y-1734737D02*
X4822172Y-1734737D01*
X4822172Y-1734737D02*
X4803124Y-1725213D01*
X4803124Y-1725213D02*
X4793600Y-1706166D01*
X4793600Y-1706166D02*
X4793600Y-1696642D01*
X4793600Y-1696642D02*
X4803124Y-1677594D01*
X4803124Y-1677594D02*
X4822172Y-1668070D01*
X4822172Y-1668070D02*
X4850743Y-1668070D01*
X4850743Y-1668070D02*
X4869791Y-1677594D01*
X4945981Y-1877594D02*
X4955505Y-1868070D01*
X4955505Y-1868070D02*
X4974553Y-1839499D01*
X4974553Y-1839499D02*
X4984077Y-1820451D01*
X4984077Y-1820451D02*
X4993600Y-1791880D01*
X4993600Y-1791880D02*
X5003124Y-1744261D01*
X5003124Y-1744261D02*
X5003124Y-1706166D01*
X5003124Y-1706166D02*
X4993600Y-1658547D01*
X4993600Y-1658547D02*
X4984077Y-1629975D01*
X4984077Y-1629975D02*
X4974553Y-1610928D01*
X4974553Y-1610928D02*
X4955505Y-1582356D01*
X4955505Y-1582356D02*
X4945981Y-1572832D01*
D17*
X-97840Y-1927160D02*
X-6400Y-2018600D01*
X-6400Y-1927160D02*
X-97840Y-2018600D01*
X-6400Y-1972880D02*
G75*
G03*
X-6400Y-1972880I-45720J0D01*
G01*
D11*
X279314Y-1865404D02*
X298362Y-1865404D01*
X298362Y-1865404D02*
X317410Y-1874928D01*
X317410Y-1874928D02*
X326933Y-1884451D01*
X326933Y-1884451D02*
X336457Y-1903499D01*
X336457Y-1903499D02*
X345981Y-1941594D01*
X345981Y-1941594D02*
X345981Y-1989213D01*
X345981Y-1989213D02*
X336457Y-2027308D01*
X336457Y-2027308D02*
X326933Y-2046356D01*
X326933Y-2046356D02*
X317410Y-2055880D01*
X317410Y-2055880D02*
X298362Y-2065404D01*
X298362Y-2065404D02*
X279314Y-2065404D01*
X279314Y-2065404D02*
X260267Y-2055880D01*
X260267Y-2055880D02*
X250743Y-2046356D01*
X250743Y-2046356D02*
X241219Y-2027308D01*
X241219Y-2027308D02*
X231695Y-1989213D01*
X231695Y-1989213D02*
X231695Y-1941594D01*
X231695Y-1941594D02*
X241219Y-1903499D01*
X241219Y-1903499D02*
X250743Y-1884451D01*
X250743Y-1884451D02*
X260267Y-1874928D01*
X260267Y-1874928D02*
X279314Y-1865404D01*
X431695Y-2046356D02*
X441219Y-2055880D01*
X441219Y-2055880D02*
X431695Y-2065404D01*
X431695Y-2065404D02*
X422171Y-2055880D01*
X422171Y-2055880D02*
X431695Y-2046356D01*
X431695Y-2046356D02*
X431695Y-2065404D01*
X536457Y-2065404D02*
X574552Y-2065404D01*
X574552Y-2065404D02*
X593600Y-2055880D01*
X593600Y-2055880D02*
X603124Y-2046356D01*
X603124Y-2046356D02*
X622171Y-2017785D01*
X622171Y-2017785D02*
X631695Y-1979689D01*
X631695Y-1979689D02*
X631695Y-1903499D01*
X631695Y-1903499D02*
X622171Y-1884451D01*
X622171Y-1884451D02*
X612648Y-1874928D01*
X612648Y-1874928D02*
X593600Y-1865404D01*
X593600Y-1865404D02*
X555505Y-1865404D01*
X555505Y-1865404D02*
X536457Y-1874928D01*
X536457Y-1874928D02*
X526933Y-1884451D01*
X526933Y-1884451D02*
X517409Y-1903499D01*
X517409Y-1903499D02*
X517409Y-1951118D01*
X517409Y-1951118D02*
X526933Y-1970166D01*
X526933Y-1970166D02*
X536457Y-1979689D01*
X536457Y-1979689D02*
X555505Y-1989213D01*
X555505Y-1989213D02*
X593600Y-1989213D01*
X593600Y-1989213D02*
X612648Y-1979689D01*
X612648Y-1979689D02*
X622171Y-1970166D01*
X622171Y-1970166D02*
X631695Y-1951118D01*
X822171Y-2065404D02*
X707886Y-2065404D01*
X765028Y-2065404D02*
X765028Y-1865404D01*
X765028Y-1865404D02*
X745981Y-1893975D01*
X745981Y-1893975D02*
X726933Y-1913023D01*
X726933Y-1913023D02*
X707886Y-1922547D01*
X993600Y-1932070D02*
X993600Y-2065404D01*
X945981Y-1855880D02*
X898362Y-1998737D01*
X898362Y-1998737D02*
X1022171Y-1998737D01*
X1098362Y-2065404D02*
X1098362Y-1932070D01*
X1098362Y-1951118D02*
X1107886Y-1941594D01*
X1107886Y-1941594D02*
X1126933Y-1932070D01*
X1126933Y-1932070D02*
X1155505Y-1932070D01*
X1155505Y-1932070D02*
X1174552Y-1941594D01*
X1174552Y-1941594D02*
X1184076Y-1960642D01*
X1184076Y-1960642D02*
X1184076Y-2065404D01*
X1184076Y-1960642D02*
X1193600Y-1941594D01*
X1193600Y-1941594D02*
X1212648Y-1932070D01*
X1212648Y-1932070D02*
X1241219Y-1932070D01*
X1241219Y-1932070D02*
X1260267Y-1941594D01*
X1260267Y-1941594D02*
X1269791Y-1960642D01*
X1269791Y-1960642D02*
X1269791Y-2065404D01*
X1365029Y-2065404D02*
X1365029Y-1932070D01*
X1365029Y-1951118D02*
X1374552Y-1941594D01*
X1374552Y-1941594D02*
X1393600Y-1932070D01*
X1393600Y-1932070D02*
X1422171Y-1932070D01*
X1422171Y-1932070D02*
X1441219Y-1941594D01*
X1441219Y-1941594D02*
X1450743Y-1960642D01*
X1450743Y-1960642D02*
X1450743Y-2065404D01*
X1450743Y-1960642D02*
X1460267Y-1941594D01*
X1460267Y-1941594D02*
X1479314Y-1932070D01*
X1479314Y-1932070D02*
X1507886Y-1932070D01*
X1507886Y-1932070D02*
X1526933Y-1941594D01*
X1526933Y-1941594D02*
X1536457Y-1960642D01*
X1536457Y-1960642D02*
X1536457Y-2065404D01*
X1926933Y-1855880D02*
X1755505Y-2113023D01*
X2184076Y-1865404D02*
X2203124Y-1865404D01*
X2203124Y-1865404D02*
X2222172Y-1874928D01*
X2222172Y-1874928D02*
X2231695Y-1884451D01*
X2231695Y-1884451D02*
X2241219Y-1903499D01*
X2241219Y-1903499D02*
X2250743Y-1941594D01*
X2250743Y-1941594D02*
X2250743Y-1989213D01*
X2250743Y-1989213D02*
X2241219Y-2027308D01*
X2241219Y-2027308D02*
X2231695Y-2046356D01*
X2231695Y-2046356D02*
X2222172Y-2055880D01*
X2222172Y-2055880D02*
X2203124Y-2065404D01*
X2203124Y-2065404D02*
X2184076Y-2065404D01*
X2184076Y-2065404D02*
X2165029Y-2055880D01*
X2165029Y-2055880D02*
X2155505Y-2046356D01*
X2155505Y-2046356D02*
X2145981Y-2027308D01*
X2145981Y-2027308D02*
X2136457Y-1989213D01*
X2136457Y-1989213D02*
X2136457Y-1941594D01*
X2136457Y-1941594D02*
X2145981Y-1903499D01*
X2145981Y-1903499D02*
X2155505Y-1884451D01*
X2155505Y-1884451D02*
X2165029Y-1874928D01*
X2165029Y-1874928D02*
X2184076Y-1865404D01*
X2336457Y-2046356D02*
X2345981Y-2055880D01*
X2345981Y-2055880D02*
X2336457Y-2065404D01*
X2336457Y-2065404D02*
X2326934Y-2055880D01*
X2326934Y-2055880D02*
X2336457Y-2046356D01*
X2336457Y-2046356D02*
X2336457Y-2065404D01*
X2469791Y-1865404D02*
X2488838Y-1865404D01*
X2488838Y-1865404D02*
X2507886Y-1874928D01*
X2507886Y-1874928D02*
X2517410Y-1884451D01*
X2517410Y-1884451D02*
X2526934Y-1903499D01*
X2526934Y-1903499D02*
X2536457Y-1941594D01*
X2536457Y-1941594D02*
X2536457Y-1989213D01*
X2536457Y-1989213D02*
X2526934Y-2027308D01*
X2526934Y-2027308D02*
X2517410Y-2046356D01*
X2517410Y-2046356D02*
X2507886Y-2055880D01*
X2507886Y-2055880D02*
X2488838Y-2065404D01*
X2488838Y-2065404D02*
X2469791Y-2065404D01*
X2469791Y-2065404D02*
X2450743Y-2055880D01*
X2450743Y-2055880D02*
X2441219Y-2046356D01*
X2441219Y-2046356D02*
X2431695Y-2027308D01*
X2431695Y-2027308D02*
X2422172Y-1989213D01*
X2422172Y-1989213D02*
X2422172Y-1941594D01*
X2422172Y-1941594D02*
X2431695Y-1903499D01*
X2431695Y-1903499D02*
X2441219Y-1884451D01*
X2441219Y-1884451D02*
X2450743Y-1874928D01*
X2450743Y-1874928D02*
X2469791Y-1865404D01*
X2603124Y-1865404D02*
X2726934Y-1865404D01*
X2726934Y-1865404D02*
X2660267Y-1941594D01*
X2660267Y-1941594D02*
X2688838Y-1941594D01*
X2688838Y-1941594D02*
X2707886Y-1951118D01*
X2707886Y-1951118D02*
X2717410Y-1960642D01*
X2717410Y-1960642D02*
X2726934Y-1979689D01*
X2726934Y-1979689D02*
X2726934Y-2027308D01*
X2726934Y-2027308D02*
X2717410Y-2046356D01*
X2717410Y-2046356D02*
X2707886Y-2055880D01*
X2707886Y-2055880D02*
X2688838Y-2065404D01*
X2688838Y-2065404D02*
X2631695Y-2065404D01*
X2631695Y-2065404D02*
X2612648Y-2055880D01*
X2612648Y-2055880D02*
X2603124Y-2046356D01*
X2898362Y-1865404D02*
X2860267Y-1865404D01*
X2860267Y-1865404D02*
X2841219Y-1874928D01*
X2841219Y-1874928D02*
X2831695Y-1884451D01*
X2831695Y-1884451D02*
X2812648Y-1913023D01*
X2812648Y-1913023D02*
X2803124Y-1951118D01*
X2803124Y-1951118D02*
X2803124Y-2027308D01*
X2803124Y-2027308D02*
X2812648Y-2046356D01*
X2812648Y-2046356D02*
X2822172Y-2055880D01*
X2822172Y-2055880D02*
X2841219Y-2065404D01*
X2841219Y-2065404D02*
X2879314Y-2065404D01*
X2879314Y-2065404D02*
X2898362Y-2055880D01*
X2898362Y-2055880D02*
X2907886Y-2046356D01*
X2907886Y-2046356D02*
X2917410Y-2027308D01*
X2917410Y-2027308D02*
X2917410Y-1979689D01*
X2917410Y-1979689D02*
X2907886Y-1960642D01*
X2907886Y-1960642D02*
X2898362Y-1951118D01*
X2898362Y-1951118D02*
X2879314Y-1941594D01*
X2879314Y-1941594D02*
X2841219Y-1941594D01*
X2841219Y-1941594D02*
X2822172Y-1951118D01*
X2822172Y-1951118D02*
X2812648Y-1960642D01*
X2812648Y-1960642D02*
X2803124Y-1979689D01*
X3041219Y-1865404D02*
X3060267Y-1865404D01*
X3060267Y-1865404D02*
X3079314Y-1874928D01*
X3079314Y-1874928D02*
X3088838Y-1884451D01*
X3088838Y-1884451D02*
X3098362Y-1903499D01*
X3098362Y-1903499D02*
X3107886Y-1941594D01*
X3107886Y-1941594D02*
X3107886Y-1989213D01*
X3107886Y-1989213D02*
X3098362Y-2027308D01*
X3098362Y-2027308D02*
X3088838Y-2046356D01*
X3088838Y-2046356D02*
X3079314Y-2055880D01*
X3079314Y-2055880D02*
X3060267Y-2065404D01*
X3060267Y-2065404D02*
X3041219Y-2065404D01*
X3041219Y-2065404D02*
X3022172Y-2055880D01*
X3022172Y-2055880D02*
X3012648Y-2046356D01*
X3012648Y-2046356D02*
X3003124Y-2027308D01*
X3003124Y-2027308D02*
X2993600Y-1989213D01*
X2993600Y-1989213D02*
X2993600Y-1941594D01*
X2993600Y-1941594D02*
X3003124Y-1903499D01*
X3003124Y-1903499D02*
X3012648Y-1884451D01*
X3012648Y-1884451D02*
X3022172Y-1874928D01*
X3022172Y-1874928D02*
X3041219Y-1865404D01*
X3184076Y-1865404D02*
X3184076Y-1903499D01*
X3260267Y-1865404D02*
X3260267Y-1903499D01*
X3555505Y-2141594D02*
X3545981Y-2132070D01*
X3545981Y-2132070D02*
X3526934Y-2103499D01*
X3526934Y-2103499D02*
X3517410Y-2084451D01*
X3517410Y-2084451D02*
X3507886Y-2055880D01*
X3507886Y-2055880D02*
X3498362Y-2008261D01*
X3498362Y-2008261D02*
X3498362Y-1970166D01*
X3498362Y-1970166D02*
X3507886Y-1922547D01*
X3507886Y-1922547D02*
X3517410Y-1893975D01*
X3517410Y-1893975D02*
X3526934Y-1874928D01*
X3526934Y-1874928D02*
X3545981Y-1846356D01*
X3545981Y-1846356D02*
X3555505Y-1836832D01*
X3622172Y-1884451D02*
X3631695Y-1874928D01*
X3631695Y-1874928D02*
X3650743Y-1865404D01*
X3650743Y-1865404D02*
X3698362Y-1865404D01*
X3698362Y-1865404D02*
X3717410Y-1874928D01*
X3717410Y-1874928D02*
X3726934Y-1884451D01*
X3726934Y-1884451D02*
X3736457Y-1903499D01*
X3736457Y-1903499D02*
X3736457Y-1922547D01*
X3736457Y-1922547D02*
X3726934Y-1951118D01*
X3726934Y-1951118D02*
X3612648Y-2065404D01*
X3612648Y-2065404D02*
X3736457Y-2065404D01*
X3974553Y-2065404D02*
X3974553Y-1865404D01*
X4060267Y-2065404D02*
X4060267Y-1960642D01*
X4060267Y-1960642D02*
X4050743Y-1941594D01*
X4050743Y-1941594D02*
X4031696Y-1932070D01*
X4031696Y-1932070D02*
X4003124Y-1932070D01*
X4003124Y-1932070D02*
X3984076Y-1941594D01*
X3984076Y-1941594D02*
X3974553Y-1951118D01*
X4184076Y-2065404D02*
X4165029Y-2055880D01*
X4165029Y-2055880D02*
X4155505Y-2046356D01*
X4155505Y-2046356D02*
X4145981Y-2027308D01*
X4145981Y-2027308D02*
X4145981Y-1970166D01*
X4145981Y-1970166D02*
X4155505Y-1951118D01*
X4155505Y-1951118D02*
X4165029Y-1941594D01*
X4165029Y-1941594D02*
X4184076Y-1932070D01*
X4184076Y-1932070D02*
X4212648Y-1932070D01*
X4212648Y-1932070D02*
X4231696Y-1941594D01*
X4231696Y-1941594D02*
X4241219Y-1951118D01*
X4241219Y-1951118D02*
X4250743Y-1970166D01*
X4250743Y-1970166D02*
X4250743Y-2027308D01*
X4250743Y-2027308D02*
X4241219Y-2046356D01*
X4241219Y-2046356D02*
X4231696Y-2055880D01*
X4231696Y-2055880D02*
X4212648Y-2065404D01*
X4212648Y-2065404D02*
X4184076Y-2065404D01*
X4365029Y-2065404D02*
X4345981Y-2055880D01*
X4345981Y-2055880D02*
X4336458Y-2036832D01*
X4336458Y-2036832D02*
X4336458Y-1865404D01*
X4517410Y-2055880D02*
X4498362Y-2065404D01*
X4498362Y-2065404D02*
X4460267Y-2065404D01*
X4460267Y-2065404D02*
X4441219Y-2055880D01*
X4441219Y-2055880D02*
X4431696Y-2036832D01*
X4431696Y-2036832D02*
X4431696Y-1960642D01*
X4431696Y-1960642D02*
X4441219Y-1941594D01*
X4441219Y-1941594D02*
X4460267Y-1932070D01*
X4460267Y-1932070D02*
X4498362Y-1932070D01*
X4498362Y-1932070D02*
X4517410Y-1941594D01*
X4517410Y-1941594D02*
X4526934Y-1960642D01*
X4526934Y-1960642D02*
X4526934Y-1979689D01*
X4526934Y-1979689D02*
X4431696Y-1998737D01*
X4603124Y-2055880D02*
X4622172Y-2065404D01*
X4622172Y-2065404D02*
X4660267Y-2065404D01*
X4660267Y-2065404D02*
X4679315Y-2055880D01*
X4679315Y-2055880D02*
X4688839Y-2036832D01*
X4688839Y-2036832D02*
X4688839Y-2027308D01*
X4688839Y-2027308D02*
X4679315Y-2008261D01*
X4679315Y-2008261D02*
X4660267Y-1998737D01*
X4660267Y-1998737D02*
X4631696Y-1998737D01*
X4631696Y-1998737D02*
X4612648Y-1989213D01*
X4612648Y-1989213D02*
X4603124Y-1970166D01*
X4603124Y-1970166D02*
X4603124Y-1960642D01*
X4603124Y-1960642D02*
X4612648Y-1941594D01*
X4612648Y-1941594D02*
X4631696Y-1932070D01*
X4631696Y-1932070D02*
X4660267Y-1932070D01*
X4660267Y-1932070D02*
X4679315Y-1941594D01*
X4755505Y-2141594D02*
X4765029Y-2132070D01*
X4765029Y-2132070D02*
X4784077Y-2103499D01*
X4784077Y-2103499D02*
X4793600Y-2084451D01*
X4793600Y-2084451D02*
X4803124Y-2055880D01*
X4803124Y-2055880D02*
X4812648Y-2008261D01*
X4812648Y-2008261D02*
X4812648Y-1970166D01*
X4812648Y-1970166D02*
X4803124Y-1922547D01*
X4803124Y-1922547D02*
X4793600Y-1893975D01*
X4793600Y-1893975D02*
X4784077Y-1874928D01*
X4784077Y-1874928D02*
X4765029Y-1846356D01*
X4765029Y-1846356D02*
X4755505Y-1836832D01*
D18*
X-106400Y-2186880D02*
X-6400Y-2286880D01*
X-6400Y-2186880D02*
X-106400Y-2286880D01*
X-56400Y-2186880D02*
X-56400Y-2286880D01*
X-106400Y-2236880D02*
X-6400Y-2236880D01*
D11*
X345981Y-2329404D02*
X231695Y-2329404D01*
X288838Y-2329404D02*
X288838Y-2129404D01*
X288838Y-2129404D02*
X269790Y-2157975D01*
X269790Y-2157975D02*
X250743Y-2177023D01*
X250743Y-2177023D02*
X231695Y-2186547D01*
X431695Y-2310356D02*
X441219Y-2319880D01*
X441219Y-2319880D02*
X431695Y-2329404D01*
X431695Y-2329404D02*
X422171Y-2319880D01*
X422171Y-2319880D02*
X431695Y-2310356D01*
X431695Y-2310356D02*
X431695Y-2329404D01*
X565029Y-2129404D02*
X584076Y-2129404D01*
X584076Y-2129404D02*
X603124Y-2138928D01*
X603124Y-2138928D02*
X612648Y-2148451D01*
X612648Y-2148451D02*
X622171Y-2167499D01*
X622171Y-2167499D02*
X631695Y-2205594D01*
X631695Y-2205594D02*
X631695Y-2253213D01*
X631695Y-2253213D02*
X622171Y-2291309D01*
X622171Y-2291309D02*
X612648Y-2310356D01*
X612648Y-2310356D02*
X603124Y-2319880D01*
X603124Y-2319880D02*
X584076Y-2329404D01*
X584076Y-2329404D02*
X565029Y-2329404D01*
X565029Y-2329404D02*
X545981Y-2319880D01*
X545981Y-2319880D02*
X536457Y-2310356D01*
X536457Y-2310356D02*
X526933Y-2291309D01*
X526933Y-2291309D02*
X517409Y-2253213D01*
X517409Y-2253213D02*
X517409Y-2205594D01*
X517409Y-2205594D02*
X526933Y-2167499D01*
X526933Y-2167499D02*
X536457Y-2148451D01*
X536457Y-2148451D02*
X545981Y-2138928D01*
X545981Y-2138928D02*
X565029Y-2129404D01*
X755505Y-2129404D02*
X774552Y-2129404D01*
X774552Y-2129404D02*
X793600Y-2138928D01*
X793600Y-2138928D02*
X803124Y-2148451D01*
X803124Y-2148451D02*
X812648Y-2167499D01*
X812648Y-2167499D02*
X822171Y-2205594D01*
X822171Y-2205594D02*
X822171Y-2253213D01*
X822171Y-2253213D02*
X812648Y-2291309D01*
X812648Y-2291309D02*
X803124Y-2310356D01*
X803124Y-2310356D02*
X793600Y-2319880D01*
X793600Y-2319880D02*
X774552Y-2329404D01*
X774552Y-2329404D02*
X755505Y-2329404D01*
X755505Y-2329404D02*
X736457Y-2319880D01*
X736457Y-2319880D02*
X726933Y-2310356D01*
X726933Y-2310356D02*
X717409Y-2291309D01*
X717409Y-2291309D02*
X707886Y-2253213D01*
X707886Y-2253213D02*
X707886Y-2205594D01*
X707886Y-2205594D02*
X717409Y-2167499D01*
X717409Y-2167499D02*
X726933Y-2148451D01*
X726933Y-2148451D02*
X736457Y-2138928D01*
X736457Y-2138928D02*
X755505Y-2129404D01*
X945981Y-2129404D02*
X965029Y-2129404D01*
X965029Y-2129404D02*
X984076Y-2138928D01*
X984076Y-2138928D02*
X993600Y-2148451D01*
X993600Y-2148451D02*
X1003124Y-2167499D01*
X1003124Y-2167499D02*
X1012648Y-2205594D01*
X1012648Y-2205594D02*
X1012648Y-2253213D01*
X1012648Y-2253213D02*
X1003124Y-2291309D01*
X1003124Y-2291309D02*
X993600Y-2310356D01*
X993600Y-2310356D02*
X984076Y-2319880D01*
X984076Y-2319880D02*
X965029Y-2329404D01*
X965029Y-2329404D02*
X945981Y-2329404D01*
X945981Y-2329404D02*
X926933Y-2319880D01*
X926933Y-2319880D02*
X917409Y-2310356D01*
X917409Y-2310356D02*
X907886Y-2291309D01*
X907886Y-2291309D02*
X898362Y-2253213D01*
X898362Y-2253213D02*
X898362Y-2205594D01*
X898362Y-2205594D02*
X907886Y-2167499D01*
X907886Y-2167499D02*
X917409Y-2148451D01*
X917409Y-2148451D02*
X926933Y-2138928D01*
X926933Y-2138928D02*
X945981Y-2129404D01*
X1098362Y-2329404D02*
X1098362Y-2196070D01*
X1098362Y-2215118D02*
X1107886Y-2205594D01*
X1107886Y-2205594D02*
X1126933Y-2196070D01*
X1126933Y-2196070D02*
X1155505Y-2196070D01*
X1155505Y-2196070D02*
X1174552Y-2205594D01*
X1174552Y-2205594D02*
X1184076Y-2224642D01*
X1184076Y-2224642D02*
X1184076Y-2329404D01*
X1184076Y-2224642D02*
X1193600Y-2205594D01*
X1193600Y-2205594D02*
X1212648Y-2196070D01*
X1212648Y-2196070D02*
X1241219Y-2196070D01*
X1241219Y-2196070D02*
X1260267Y-2205594D01*
X1260267Y-2205594D02*
X1269791Y-2224642D01*
X1269791Y-2224642D02*
X1269791Y-2329404D01*
X1365029Y-2329404D02*
X1365029Y-2196070D01*
X1365029Y-2215118D02*
X1374552Y-2205594D01*
X1374552Y-2205594D02*
X1393600Y-2196070D01*
X1393600Y-2196070D02*
X1422171Y-2196070D01*
X1422171Y-2196070D02*
X1441219Y-2205594D01*
X1441219Y-2205594D02*
X1450743Y-2224642D01*
X1450743Y-2224642D02*
X1450743Y-2329404D01*
X1450743Y-2224642D02*
X1460267Y-2205594D01*
X1460267Y-2205594D02*
X1479314Y-2196070D01*
X1479314Y-2196070D02*
X1507886Y-2196070D01*
X1507886Y-2196070D02*
X1526933Y-2205594D01*
X1526933Y-2205594D02*
X1536457Y-2224642D01*
X1536457Y-2224642D02*
X1536457Y-2329404D01*
X1926933Y-2119880D02*
X1755505Y-2377023D01*
X2184076Y-2129404D02*
X2203124Y-2129404D01*
X2203124Y-2129404D02*
X2222172Y-2138928D01*
X2222172Y-2138928D02*
X2231695Y-2148451D01*
X2231695Y-2148451D02*
X2241219Y-2167499D01*
X2241219Y-2167499D02*
X2250743Y-2205594D01*
X2250743Y-2205594D02*
X2250743Y-2253213D01*
X2250743Y-2253213D02*
X2241219Y-2291309D01*
X2241219Y-2291309D02*
X2231695Y-2310356D01*
X2231695Y-2310356D02*
X2222172Y-2319880D01*
X2222172Y-2319880D02*
X2203124Y-2329404D01*
X2203124Y-2329404D02*
X2184076Y-2329404D01*
X2184076Y-2329404D02*
X2165029Y-2319880D01*
X2165029Y-2319880D02*
X2155505Y-2310356D01*
X2155505Y-2310356D02*
X2145981Y-2291309D01*
X2145981Y-2291309D02*
X2136457Y-2253213D01*
X2136457Y-2253213D02*
X2136457Y-2205594D01*
X2136457Y-2205594D02*
X2145981Y-2167499D01*
X2145981Y-2167499D02*
X2155505Y-2148451D01*
X2155505Y-2148451D02*
X2165029Y-2138928D01*
X2165029Y-2138928D02*
X2184076Y-2129404D01*
X2336457Y-2310356D02*
X2345981Y-2319880D01*
X2345981Y-2319880D02*
X2336457Y-2329404D01*
X2336457Y-2329404D02*
X2326934Y-2319880D01*
X2326934Y-2319880D02*
X2336457Y-2310356D01*
X2336457Y-2310356D02*
X2336457Y-2329404D01*
X2469791Y-2129404D02*
X2488838Y-2129404D01*
X2488838Y-2129404D02*
X2507886Y-2138928D01*
X2507886Y-2138928D02*
X2517410Y-2148451D01*
X2517410Y-2148451D02*
X2526934Y-2167499D01*
X2526934Y-2167499D02*
X2536457Y-2205594D01*
X2536457Y-2205594D02*
X2536457Y-2253213D01*
X2536457Y-2253213D02*
X2526934Y-2291309D01*
X2526934Y-2291309D02*
X2517410Y-2310356D01*
X2517410Y-2310356D02*
X2507886Y-2319880D01*
X2507886Y-2319880D02*
X2488838Y-2329404D01*
X2488838Y-2329404D02*
X2469791Y-2329404D01*
X2469791Y-2329404D02*
X2450743Y-2319880D01*
X2450743Y-2319880D02*
X2441219Y-2310356D01*
X2441219Y-2310356D02*
X2431695Y-2291309D01*
X2431695Y-2291309D02*
X2422172Y-2253213D01*
X2422172Y-2253213D02*
X2422172Y-2205594D01*
X2422172Y-2205594D02*
X2431695Y-2167499D01*
X2431695Y-2167499D02*
X2441219Y-2148451D01*
X2441219Y-2148451D02*
X2450743Y-2138928D01*
X2450743Y-2138928D02*
X2469791Y-2129404D01*
X2603124Y-2129404D02*
X2726934Y-2129404D01*
X2726934Y-2129404D02*
X2660267Y-2205594D01*
X2660267Y-2205594D02*
X2688838Y-2205594D01*
X2688838Y-2205594D02*
X2707886Y-2215118D01*
X2707886Y-2215118D02*
X2717410Y-2224642D01*
X2717410Y-2224642D02*
X2726934Y-2243690D01*
X2726934Y-2243690D02*
X2726934Y-2291309D01*
X2726934Y-2291309D02*
X2717410Y-2310356D01*
X2717410Y-2310356D02*
X2707886Y-2319880D01*
X2707886Y-2319880D02*
X2688838Y-2329404D01*
X2688838Y-2329404D02*
X2631695Y-2329404D01*
X2631695Y-2329404D02*
X2612648Y-2319880D01*
X2612648Y-2319880D02*
X2603124Y-2310356D01*
X2822172Y-2329404D02*
X2860267Y-2329404D01*
X2860267Y-2329404D02*
X2879314Y-2319880D01*
X2879314Y-2319880D02*
X2888838Y-2310356D01*
X2888838Y-2310356D02*
X2907886Y-2281785D01*
X2907886Y-2281785D02*
X2917410Y-2243690D01*
X2917410Y-2243690D02*
X2917410Y-2167499D01*
X2917410Y-2167499D02*
X2907886Y-2148451D01*
X2907886Y-2148451D02*
X2898362Y-2138928D01*
X2898362Y-2138928D02*
X2879314Y-2129404D01*
X2879314Y-2129404D02*
X2841219Y-2129404D01*
X2841219Y-2129404D02*
X2822172Y-2138928D01*
X2822172Y-2138928D02*
X2812648Y-2148451D01*
X2812648Y-2148451D02*
X2803124Y-2167499D01*
X2803124Y-2167499D02*
X2803124Y-2215118D01*
X2803124Y-2215118D02*
X2812648Y-2234166D01*
X2812648Y-2234166D02*
X2822172Y-2243690D01*
X2822172Y-2243690D02*
X2841219Y-2253213D01*
X2841219Y-2253213D02*
X2879314Y-2253213D01*
X2879314Y-2253213D02*
X2898362Y-2243690D01*
X2898362Y-2243690D02*
X2907886Y-2234166D01*
X2907886Y-2234166D02*
X2917410Y-2215118D01*
X3088838Y-2196070D02*
X3088838Y-2329404D01*
X3041219Y-2119880D02*
X2993600Y-2262737D01*
X2993600Y-2262737D02*
X3117410Y-2262737D01*
X3184076Y-2129404D02*
X3184076Y-2167499D01*
X3260267Y-2129404D02*
X3260267Y-2167499D01*
X3555505Y-2405594D02*
X3545981Y-2396070D01*
X3545981Y-2396070D02*
X3526934Y-2367499D01*
X3526934Y-2367499D02*
X3517410Y-2348451D01*
X3517410Y-2348451D02*
X3507886Y-2319880D01*
X3507886Y-2319880D02*
X3498362Y-2272261D01*
X3498362Y-2272261D02*
X3498362Y-2234166D01*
X3498362Y-2234166D02*
X3507886Y-2186547D01*
X3507886Y-2186547D02*
X3517410Y-2157975D01*
X3517410Y-2157975D02*
X3526934Y-2138928D01*
X3526934Y-2138928D02*
X3545981Y-2110356D01*
X3545981Y-2110356D02*
X3555505Y-2100832D01*
X3717410Y-2129404D02*
X3679314Y-2129404D01*
X3679314Y-2129404D02*
X3660267Y-2138928D01*
X3660267Y-2138928D02*
X3650743Y-2148451D01*
X3650743Y-2148451D02*
X3631695Y-2177023D01*
X3631695Y-2177023D02*
X3622172Y-2215118D01*
X3622172Y-2215118D02*
X3622172Y-2291309D01*
X3622172Y-2291309D02*
X3631695Y-2310356D01*
X3631695Y-2310356D02*
X3641219Y-2319880D01*
X3641219Y-2319880D02*
X3660267Y-2329404D01*
X3660267Y-2329404D02*
X3698362Y-2329404D01*
X3698362Y-2329404D02*
X3717410Y-2319880D01*
X3717410Y-2319880D02*
X3726934Y-2310356D01*
X3726934Y-2310356D02*
X3736457Y-2291309D01*
X3736457Y-2291309D02*
X3736457Y-2243690D01*
X3736457Y-2243690D02*
X3726934Y-2224642D01*
X3726934Y-2224642D02*
X3717410Y-2215118D01*
X3717410Y-2215118D02*
X3698362Y-2205594D01*
X3698362Y-2205594D02*
X3660267Y-2205594D01*
X3660267Y-2205594D02*
X3641219Y-2215118D01*
X3641219Y-2215118D02*
X3631695Y-2224642D01*
X3631695Y-2224642D02*
X3622172Y-2243690D01*
X3812648Y-2148451D02*
X3822172Y-2138928D01*
X3822172Y-2138928D02*
X3841219Y-2129404D01*
X3841219Y-2129404D02*
X3888838Y-2129404D01*
X3888838Y-2129404D02*
X3907886Y-2138928D01*
X3907886Y-2138928D02*
X3917410Y-2148451D01*
X3917410Y-2148451D02*
X3926934Y-2167499D01*
X3926934Y-2167499D02*
X3926934Y-2186547D01*
X3926934Y-2186547D02*
X3917410Y-2215118D01*
X3917410Y-2215118D02*
X3803124Y-2329404D01*
X3803124Y-2329404D02*
X3926934Y-2329404D01*
X4165029Y-2329404D02*
X4165029Y-2129404D01*
X4250743Y-2329404D02*
X4250743Y-2224642D01*
X4250743Y-2224642D02*
X4241219Y-2205594D01*
X4241219Y-2205594D02*
X4222172Y-2196070D01*
X4222172Y-2196070D02*
X4193600Y-2196070D01*
X4193600Y-2196070D02*
X4174553Y-2205594D01*
X4174553Y-2205594D02*
X4165029Y-2215118D01*
X4374553Y-2329404D02*
X4355505Y-2319880D01*
X4355505Y-2319880D02*
X4345981Y-2310356D01*
X4345981Y-2310356D02*
X4336458Y-2291309D01*
X4336458Y-2291309D02*
X4336458Y-2234166D01*
X4336458Y-2234166D02*
X4345981Y-2215118D01*
X4345981Y-2215118D02*
X4355505Y-2205594D01*
X4355505Y-2205594D02*
X4374553Y-2196070D01*
X4374553Y-2196070D02*
X4403124Y-2196070D01*
X4403124Y-2196070D02*
X4422172Y-2205594D01*
X4422172Y-2205594D02*
X4431696Y-2215118D01*
X4431696Y-2215118D02*
X4441219Y-2234166D01*
X4441219Y-2234166D02*
X4441219Y-2291309D01*
X4441219Y-2291309D02*
X4431696Y-2310356D01*
X4431696Y-2310356D02*
X4422172Y-2319880D01*
X4422172Y-2319880D02*
X4403124Y-2329404D01*
X4403124Y-2329404D02*
X4374553Y-2329404D01*
X4555505Y-2329404D02*
X4536458Y-2319880D01*
X4536458Y-2319880D02*
X4526934Y-2300832D01*
X4526934Y-2300832D02*
X4526934Y-2129404D01*
X4707886Y-2319880D02*
X4688839Y-2329404D01*
X4688839Y-2329404D02*
X4650743Y-2329404D01*
X4650743Y-2329404D02*
X4631696Y-2319880D01*
X4631696Y-2319880D02*
X4622172Y-2300832D01*
X4622172Y-2300832D02*
X4622172Y-2224642D01*
X4622172Y-2224642D02*
X4631696Y-2205594D01*
X4631696Y-2205594D02*
X4650743Y-2196070D01*
X4650743Y-2196070D02*
X4688839Y-2196070D01*
X4688839Y-2196070D02*
X4707886Y-2205594D01*
X4707886Y-2205594D02*
X4717410Y-2224642D01*
X4717410Y-2224642D02*
X4717410Y-2243690D01*
X4717410Y-2243690D02*
X4622172Y-2262737D01*
X4793600Y-2319880D02*
X4812648Y-2329404D01*
X4812648Y-2329404D02*
X4850743Y-2329404D01*
X4850743Y-2329404D02*
X4869791Y-2319880D01*
X4869791Y-2319880D02*
X4879315Y-2300832D01*
X4879315Y-2300832D02*
X4879315Y-2291309D01*
X4879315Y-2291309D02*
X4869791Y-2272261D01*
X4869791Y-2272261D02*
X4850743Y-2262737D01*
X4850743Y-2262737D02*
X4822172Y-2262737D01*
X4822172Y-2262737D02*
X4803124Y-2253213D01*
X4803124Y-2253213D02*
X4793600Y-2234166D01*
X4793600Y-2234166D02*
X4793600Y-2224642D01*
X4793600Y-2224642D02*
X4803124Y-2205594D01*
X4803124Y-2205594D02*
X4822172Y-2196070D01*
X4822172Y-2196070D02*
X4850743Y-2196070D01*
X4850743Y-2196070D02*
X4869791Y-2205594D01*
X4945981Y-2405594D02*
X4955505Y-2396070D01*
X4955505Y-2396070D02*
X4974553Y-2367499D01*
X4974553Y-2367499D02*
X4984077Y-2348451D01*
X4984077Y-2348451D02*
X4993600Y-2319880D01*
X4993600Y-2319880D02*
X5003124Y-2272261D01*
X5003124Y-2272261D02*
X5003124Y-2234166D01*
X5003124Y-2234166D02*
X4993600Y-2186547D01*
X4993600Y-2186547D02*
X4984077Y-2157975D01*
X4984077Y-2157975D02*
X4974553Y-2138928D01*
X4974553Y-2138928D02*
X4955505Y-2110356D01*
X4955505Y-2110356D02*
X4945981Y-2100832D01*
D19*
X-120700Y-2443730D02*
X-6400Y-2558030D01*
X-6400Y-2443730D02*
X-120700Y-2558030D01*
X-23138Y-2541292D02*
X-23138Y-2460469D01*
X-103961Y-2460469D01*
X-103961Y-2541292D01*
X-23138Y-2541292D01*
D11*
X345981Y-2593404D02*
X231695Y-2593404D01*
X288838Y-2593404D02*
X288838Y-2393404D01*
X288838Y-2393404D02*
X269790Y-2421975D01*
X269790Y-2421975D02*
X250743Y-2441023D01*
X250743Y-2441023D02*
X231695Y-2450547D01*
X431695Y-2574356D02*
X441219Y-2583880D01*
X441219Y-2583880D02*
X431695Y-2593404D01*
X431695Y-2593404D02*
X422171Y-2583880D01*
X422171Y-2583880D02*
X431695Y-2574356D01*
X431695Y-2574356D02*
X431695Y-2593404D01*
X631695Y-2593404D02*
X517409Y-2593404D01*
X574552Y-2593404D02*
X574552Y-2393404D01*
X574552Y-2393404D02*
X555505Y-2421975D01*
X555505Y-2421975D02*
X536457Y-2441023D01*
X536457Y-2441023D02*
X517409Y-2450547D01*
X803124Y-2460070D02*
X803124Y-2593404D01*
X755505Y-2383880D02*
X707886Y-2526737D01*
X707886Y-2526737D02*
X831695Y-2526737D01*
X888838Y-2393404D02*
X1012648Y-2393404D01*
X1012648Y-2393404D02*
X945981Y-2469594D01*
X945981Y-2469594D02*
X974552Y-2469594D01*
X974552Y-2469594D02*
X993600Y-2479118D01*
X993600Y-2479118D02*
X1003124Y-2488642D01*
X1003124Y-2488642D02*
X1012648Y-2507690D01*
X1012648Y-2507690D02*
X1012648Y-2555309D01*
X1012648Y-2555309D02*
X1003124Y-2574356D01*
X1003124Y-2574356D02*
X993600Y-2583880D01*
X993600Y-2583880D02*
X974552Y-2593404D01*
X974552Y-2593404D02*
X917409Y-2593404D01*
X917409Y-2593404D02*
X898362Y-2583880D01*
X898362Y-2583880D02*
X888838Y-2574356D01*
X1098362Y-2593404D02*
X1098362Y-2460070D01*
X1098362Y-2479118D02*
X1107886Y-2469594D01*
X1107886Y-2469594D02*
X1126933Y-2460070D01*
X1126933Y-2460070D02*
X1155505Y-2460070D01*
X1155505Y-2460070D02*
X1174552Y-2469594D01*
X1174552Y-2469594D02*
X1184076Y-2488642D01*
X1184076Y-2488642D02*
X1184076Y-2593404D01*
X1184076Y-2488642D02*
X1193600Y-2469594D01*
X1193600Y-2469594D02*
X1212648Y-2460070D01*
X1212648Y-2460070D02*
X1241219Y-2460070D01*
X1241219Y-2460070D02*
X1260267Y-2469594D01*
X1260267Y-2469594D02*
X1269791Y-2488642D01*
X1269791Y-2488642D02*
X1269791Y-2593404D01*
X1365029Y-2593404D02*
X1365029Y-2460070D01*
X1365029Y-2479118D02*
X1374552Y-2469594D01*
X1374552Y-2469594D02*
X1393600Y-2460070D01*
X1393600Y-2460070D02*
X1422171Y-2460070D01*
X1422171Y-2460070D02*
X1441219Y-2469594D01*
X1441219Y-2469594D02*
X1450743Y-2488642D01*
X1450743Y-2488642D02*
X1450743Y-2593404D01*
X1450743Y-2488642D02*
X1460267Y-2469594D01*
X1460267Y-2469594D02*
X1479314Y-2460070D01*
X1479314Y-2460070D02*
X1507886Y-2460070D01*
X1507886Y-2460070D02*
X1526933Y-2469594D01*
X1526933Y-2469594D02*
X1536457Y-2488642D01*
X1536457Y-2488642D02*
X1536457Y-2593404D01*
X1926933Y-2383880D02*
X1755505Y-2641023D01*
X2184076Y-2393404D02*
X2203124Y-2393404D01*
X2203124Y-2393404D02*
X2222172Y-2402928D01*
X2222172Y-2402928D02*
X2231695Y-2412451D01*
X2231695Y-2412451D02*
X2241219Y-2431499D01*
X2241219Y-2431499D02*
X2250743Y-2469594D01*
X2250743Y-2469594D02*
X2250743Y-2517213D01*
X2250743Y-2517213D02*
X2241219Y-2555309D01*
X2241219Y-2555309D02*
X2231695Y-2574356D01*
X2231695Y-2574356D02*
X2222172Y-2583880D01*
X2222172Y-2583880D02*
X2203124Y-2593404D01*
X2203124Y-2593404D02*
X2184076Y-2593404D01*
X2184076Y-2593404D02*
X2165029Y-2583880D01*
X2165029Y-2583880D02*
X2155505Y-2574356D01*
X2155505Y-2574356D02*
X2145981Y-2555309D01*
X2145981Y-2555309D02*
X2136457Y-2517213D01*
X2136457Y-2517213D02*
X2136457Y-2469594D01*
X2136457Y-2469594D02*
X2145981Y-2431499D01*
X2145981Y-2431499D02*
X2155505Y-2412451D01*
X2155505Y-2412451D02*
X2165029Y-2402928D01*
X2165029Y-2402928D02*
X2184076Y-2393404D01*
X2336457Y-2574356D02*
X2345981Y-2583880D01*
X2345981Y-2583880D02*
X2336457Y-2593404D01*
X2336457Y-2593404D02*
X2326934Y-2583880D01*
X2326934Y-2583880D02*
X2336457Y-2574356D01*
X2336457Y-2574356D02*
X2336457Y-2593404D01*
X2469791Y-2393404D02*
X2488838Y-2393404D01*
X2488838Y-2393404D02*
X2507886Y-2402928D01*
X2507886Y-2402928D02*
X2517410Y-2412451D01*
X2517410Y-2412451D02*
X2526934Y-2431499D01*
X2526934Y-2431499D02*
X2536457Y-2469594D01*
X2536457Y-2469594D02*
X2536457Y-2517213D01*
X2536457Y-2517213D02*
X2526934Y-2555309D01*
X2526934Y-2555309D02*
X2517410Y-2574356D01*
X2517410Y-2574356D02*
X2507886Y-2583880D01*
X2507886Y-2583880D02*
X2488838Y-2593404D01*
X2488838Y-2593404D02*
X2469791Y-2593404D01*
X2469791Y-2593404D02*
X2450743Y-2583880D01*
X2450743Y-2583880D02*
X2441219Y-2574356D01*
X2441219Y-2574356D02*
X2431695Y-2555309D01*
X2431695Y-2555309D02*
X2422172Y-2517213D01*
X2422172Y-2517213D02*
X2422172Y-2469594D01*
X2422172Y-2469594D02*
X2431695Y-2431499D01*
X2431695Y-2431499D02*
X2441219Y-2412451D01*
X2441219Y-2412451D02*
X2450743Y-2402928D01*
X2450743Y-2402928D02*
X2469791Y-2393404D01*
X2707886Y-2460070D02*
X2707886Y-2593404D01*
X2660267Y-2383880D02*
X2612648Y-2526737D01*
X2612648Y-2526737D02*
X2736457Y-2526737D01*
X2907886Y-2393404D02*
X2812648Y-2393404D01*
X2812648Y-2393404D02*
X2803124Y-2488642D01*
X2803124Y-2488642D02*
X2812648Y-2479118D01*
X2812648Y-2479118D02*
X2831695Y-2469594D01*
X2831695Y-2469594D02*
X2879314Y-2469594D01*
X2879314Y-2469594D02*
X2898362Y-2479118D01*
X2898362Y-2479118D02*
X2907886Y-2488642D01*
X2907886Y-2488642D02*
X2917410Y-2507690D01*
X2917410Y-2507690D02*
X2917410Y-2555309D01*
X2917410Y-2555309D02*
X2907886Y-2574356D01*
X2907886Y-2574356D02*
X2898362Y-2583880D01*
X2898362Y-2583880D02*
X2879314Y-2593404D01*
X2879314Y-2593404D02*
X2831695Y-2593404D01*
X2831695Y-2593404D02*
X2812648Y-2583880D01*
X2812648Y-2583880D02*
X2803124Y-2574356D01*
X3041219Y-2393404D02*
X3060267Y-2393404D01*
X3060267Y-2393404D02*
X3079314Y-2402928D01*
X3079314Y-2402928D02*
X3088838Y-2412451D01*
X3088838Y-2412451D02*
X3098362Y-2431499D01*
X3098362Y-2431499D02*
X3107886Y-2469594D01*
X3107886Y-2469594D02*
X3107886Y-2517213D01*
X3107886Y-2517213D02*
X3098362Y-2555309D01*
X3098362Y-2555309D02*
X3088838Y-2574356D01*
X3088838Y-2574356D02*
X3079314Y-2583880D01*
X3079314Y-2583880D02*
X3060267Y-2593404D01*
X3060267Y-2593404D02*
X3041219Y-2593404D01*
X3041219Y-2593404D02*
X3022172Y-2583880D01*
X3022172Y-2583880D02*
X3012648Y-2574356D01*
X3012648Y-2574356D02*
X3003124Y-2555309D01*
X3003124Y-2555309D02*
X2993600Y-2517213D01*
X2993600Y-2517213D02*
X2993600Y-2469594D01*
X2993600Y-2469594D02*
X3003124Y-2431499D01*
X3003124Y-2431499D02*
X3012648Y-2412451D01*
X3012648Y-2412451D02*
X3022172Y-2402928D01*
X3022172Y-2402928D02*
X3041219Y-2393404D01*
X3184076Y-2393404D02*
X3184076Y-2431499D01*
X3260267Y-2393404D02*
X3260267Y-2431499D01*
X3555505Y-2669594D02*
X3545981Y-2660070D01*
X3545981Y-2660070D02*
X3526934Y-2631499D01*
X3526934Y-2631499D02*
X3517410Y-2612451D01*
X3517410Y-2612451D02*
X3507886Y-2583880D01*
X3507886Y-2583880D02*
X3498362Y-2536261D01*
X3498362Y-2536261D02*
X3498362Y-2498166D01*
X3498362Y-2498166D02*
X3507886Y-2450547D01*
X3507886Y-2450547D02*
X3517410Y-2421975D01*
X3517410Y-2421975D02*
X3526934Y-2402928D01*
X3526934Y-2402928D02*
X3545981Y-2374356D01*
X3545981Y-2374356D02*
X3555505Y-2364832D01*
X3622172Y-2412451D02*
X3631695Y-2402928D01*
X3631695Y-2402928D02*
X3650743Y-2393404D01*
X3650743Y-2393404D02*
X3698362Y-2393404D01*
X3698362Y-2393404D02*
X3717410Y-2402928D01*
X3717410Y-2402928D02*
X3726934Y-2412451D01*
X3726934Y-2412451D02*
X3736457Y-2431499D01*
X3736457Y-2431499D02*
X3736457Y-2450547D01*
X3736457Y-2450547D02*
X3726934Y-2479118D01*
X3726934Y-2479118D02*
X3612648Y-2593404D01*
X3612648Y-2593404D02*
X3736457Y-2593404D01*
X3907886Y-2460070D02*
X3907886Y-2593404D01*
X3860267Y-2383880D02*
X3812648Y-2526737D01*
X3812648Y-2526737D02*
X3936457Y-2526737D01*
X4165029Y-2593404D02*
X4165029Y-2393404D01*
X4250743Y-2593404D02*
X4250743Y-2488642D01*
X4250743Y-2488642D02*
X4241219Y-2469594D01*
X4241219Y-2469594D02*
X4222172Y-2460070D01*
X4222172Y-2460070D02*
X4193600Y-2460070D01*
X4193600Y-2460070D02*
X4174553Y-2469594D01*
X4174553Y-2469594D02*
X4165029Y-2479118D01*
X4374553Y-2593404D02*
X4355505Y-2583880D01*
X4355505Y-2583880D02*
X4345981Y-2574356D01*
X4345981Y-2574356D02*
X4336458Y-2555309D01*
X4336458Y-2555309D02*
X4336458Y-2498166D01*
X4336458Y-2498166D02*
X4345981Y-2479118D01*
X4345981Y-2479118D02*
X4355505Y-2469594D01*
X4355505Y-2469594D02*
X4374553Y-2460070D01*
X4374553Y-2460070D02*
X4403124Y-2460070D01*
X4403124Y-2460070D02*
X4422172Y-2469594D01*
X4422172Y-2469594D02*
X4431696Y-2479118D01*
X4431696Y-2479118D02*
X4441219Y-2498166D01*
X4441219Y-2498166D02*
X4441219Y-2555309D01*
X4441219Y-2555309D02*
X4431696Y-2574356D01*
X4431696Y-2574356D02*
X4422172Y-2583880D01*
X4422172Y-2583880D02*
X4403124Y-2593404D01*
X4403124Y-2593404D02*
X4374553Y-2593404D01*
X4555505Y-2593404D02*
X4536458Y-2583880D01*
X4536458Y-2583880D02*
X4526934Y-2564832D01*
X4526934Y-2564832D02*
X4526934Y-2393404D01*
X4707886Y-2583880D02*
X4688839Y-2593404D01*
X4688839Y-2593404D02*
X4650743Y-2593404D01*
X4650743Y-2593404D02*
X4631696Y-2583880D01*
X4631696Y-2583880D02*
X4622172Y-2564832D01*
X4622172Y-2564832D02*
X4622172Y-2488642D01*
X4622172Y-2488642D02*
X4631696Y-2469594D01*
X4631696Y-2469594D02*
X4650743Y-2460070D01*
X4650743Y-2460070D02*
X4688839Y-2460070D01*
X4688839Y-2460070D02*
X4707886Y-2469594D01*
X4707886Y-2469594D02*
X4717410Y-2488642D01*
X4717410Y-2488642D02*
X4717410Y-2507690D01*
X4717410Y-2507690D02*
X4622172Y-2526737D01*
X4793600Y-2583880D02*
X4812648Y-2593404D01*
X4812648Y-2593404D02*
X4850743Y-2593404D01*
X4850743Y-2593404D02*
X4869791Y-2583880D01*
X4869791Y-2583880D02*
X4879315Y-2564832D01*
X4879315Y-2564832D02*
X4879315Y-2555309D01*
X4879315Y-2555309D02*
X4869791Y-2536261D01*
X4869791Y-2536261D02*
X4850743Y-2526737D01*
X4850743Y-2526737D02*
X4822172Y-2526737D01*
X4822172Y-2526737D02*
X4803124Y-2517213D01*
X4803124Y-2517213D02*
X4793600Y-2498166D01*
X4793600Y-2498166D02*
X4793600Y-2488642D01*
X4793600Y-2488642D02*
X4803124Y-2469594D01*
X4803124Y-2469594D02*
X4822172Y-2460070D01*
X4822172Y-2460070D02*
X4850743Y-2460070D01*
X4850743Y-2460070D02*
X4869791Y-2469594D01*
X4945981Y-2669594D02*
X4955505Y-2660070D01*
X4955505Y-2660070D02*
X4974553Y-2631499D01*
X4974553Y-2631499D02*
X4984077Y-2612451D01*
X4984077Y-2612451D02*
X4993600Y-2583880D01*
X4993600Y-2583880D02*
X5003124Y-2536261D01*
X5003124Y-2536261D02*
X5003124Y-2498166D01*
X5003124Y-2498166D02*
X4993600Y-2450547D01*
X4993600Y-2450547D02*
X4984077Y-2421975D01*
X4984077Y-2421975D02*
X4974553Y-2402928D01*
X4974553Y-2402928D02*
X4955505Y-2374356D01*
X4955505Y-2374356D02*
X4945981Y-2364832D01*
D20*
X-126400Y-2704880D02*
X-6400Y-2824880D01*
X-6400Y-2704880D02*
X-126400Y-2824880D01*
X-66400Y-2824880D02*
X-6400Y-2764880D01*
X-66400Y-2704880D01*
X-126400Y-2764880D01*
X-66400Y-2824880D01*
D11*
X345981Y-2857404D02*
X231695Y-2857404D01*
X288838Y-2857404D02*
X288838Y-2657404D01*
X288838Y-2657404D02*
X269790Y-2685975D01*
X269790Y-2685975D02*
X250743Y-2705023D01*
X250743Y-2705023D02*
X231695Y-2714547D01*
X431695Y-2838356D02*
X441219Y-2847880D01*
X441219Y-2847880D02*
X431695Y-2857404D01*
X431695Y-2857404D02*
X422171Y-2847880D01*
X422171Y-2847880D02*
X431695Y-2838356D01*
X431695Y-2838356D02*
X431695Y-2857404D01*
X517409Y-2676451D02*
X526933Y-2666928D01*
X526933Y-2666928D02*
X545981Y-2657404D01*
X545981Y-2657404D02*
X593600Y-2657404D01*
X593600Y-2657404D02*
X612648Y-2666928D01*
X612648Y-2666928D02*
X622171Y-2676451D01*
X622171Y-2676451D02*
X631695Y-2695499D01*
X631695Y-2695499D02*
X631695Y-2714547D01*
X631695Y-2714547D02*
X622171Y-2743118D01*
X622171Y-2743118D02*
X507886Y-2857404D01*
X507886Y-2857404D02*
X631695Y-2857404D01*
X755505Y-2657404D02*
X774552Y-2657404D01*
X774552Y-2657404D02*
X793600Y-2666928D01*
X793600Y-2666928D02*
X803124Y-2676451D01*
X803124Y-2676451D02*
X812648Y-2695499D01*
X812648Y-2695499D02*
X822171Y-2733594D01*
X822171Y-2733594D02*
X822171Y-2781213D01*
X822171Y-2781213D02*
X812648Y-2819308D01*
X812648Y-2819308D02*
X803124Y-2838356D01*
X803124Y-2838356D02*
X793600Y-2847880D01*
X793600Y-2847880D02*
X774552Y-2857404D01*
X774552Y-2857404D02*
X755505Y-2857404D01*
X755505Y-2857404D02*
X736457Y-2847880D01*
X736457Y-2847880D02*
X726933Y-2838356D01*
X726933Y-2838356D02*
X717409Y-2819308D01*
X717409Y-2819308D02*
X707886Y-2781213D01*
X707886Y-2781213D02*
X707886Y-2733594D01*
X707886Y-2733594D02*
X717409Y-2695499D01*
X717409Y-2695499D02*
X726933Y-2676451D01*
X726933Y-2676451D02*
X736457Y-2666928D01*
X736457Y-2666928D02*
X755505Y-2657404D01*
X945981Y-2657404D02*
X965029Y-2657404D01*
X965029Y-2657404D02*
X984076Y-2666928D01*
X984076Y-2666928D02*
X993600Y-2676451D01*
X993600Y-2676451D02*
X1003124Y-2695499D01*
X1003124Y-2695499D02*
X1012648Y-2733594D01*
X1012648Y-2733594D02*
X1012648Y-2781213D01*
X1012648Y-2781213D02*
X1003124Y-2819308D01*
X1003124Y-2819308D02*
X993600Y-2838356D01*
X993600Y-2838356D02*
X984076Y-2847880D01*
X984076Y-2847880D02*
X965029Y-2857404D01*
X965029Y-2857404D02*
X945981Y-2857404D01*
X945981Y-2857404D02*
X926933Y-2847880D01*
X926933Y-2847880D02*
X917409Y-2838356D01*
X917409Y-2838356D02*
X907886Y-2819308D01*
X907886Y-2819308D02*
X898362Y-2781213D01*
X898362Y-2781213D02*
X898362Y-2733594D01*
X898362Y-2733594D02*
X907886Y-2695499D01*
X907886Y-2695499D02*
X917409Y-2676451D01*
X917409Y-2676451D02*
X926933Y-2666928D01*
X926933Y-2666928D02*
X945981Y-2657404D01*
X1098362Y-2857404D02*
X1098362Y-2724070D01*
X1098362Y-2743118D02*
X1107886Y-2733594D01*
X1107886Y-2733594D02*
X1126933Y-2724070D01*
X1126933Y-2724070D02*
X1155505Y-2724070D01*
X1155505Y-2724070D02*
X1174552Y-2733594D01*
X1174552Y-2733594D02*
X1184076Y-2752642D01*
X1184076Y-2752642D02*
X1184076Y-2857404D01*
X1184076Y-2752642D02*
X1193600Y-2733594D01*
X1193600Y-2733594D02*
X1212648Y-2724070D01*
X1212648Y-2724070D02*
X1241219Y-2724070D01*
X1241219Y-2724070D02*
X1260267Y-2733594D01*
X1260267Y-2733594D02*
X1269791Y-2752642D01*
X1269791Y-2752642D02*
X1269791Y-2857404D01*
X1365029Y-2857404D02*
X1365029Y-2724070D01*
X1365029Y-2743118D02*
X1374552Y-2733594D01*
X1374552Y-2733594D02*
X1393600Y-2724070D01*
X1393600Y-2724070D02*
X1422171Y-2724070D01*
X1422171Y-2724070D02*
X1441219Y-2733594D01*
X1441219Y-2733594D02*
X1450743Y-2752642D01*
X1450743Y-2752642D02*
X1450743Y-2857404D01*
X1450743Y-2752642D02*
X1460267Y-2733594D01*
X1460267Y-2733594D02*
X1479314Y-2724070D01*
X1479314Y-2724070D02*
X1507886Y-2724070D01*
X1507886Y-2724070D02*
X1526933Y-2733594D01*
X1526933Y-2733594D02*
X1536457Y-2752642D01*
X1536457Y-2752642D02*
X1536457Y-2857404D01*
X1926933Y-2647880D02*
X1755505Y-2905023D01*
X2184076Y-2657404D02*
X2203124Y-2657404D01*
X2203124Y-2657404D02*
X2222172Y-2666928D01*
X2222172Y-2666928D02*
X2231695Y-2676451D01*
X2231695Y-2676451D02*
X2241219Y-2695499D01*
X2241219Y-2695499D02*
X2250743Y-2733594D01*
X2250743Y-2733594D02*
X2250743Y-2781213D01*
X2250743Y-2781213D02*
X2241219Y-2819308D01*
X2241219Y-2819308D02*
X2231695Y-2838356D01*
X2231695Y-2838356D02*
X2222172Y-2847880D01*
X2222172Y-2847880D02*
X2203124Y-2857404D01*
X2203124Y-2857404D02*
X2184076Y-2857404D01*
X2184076Y-2857404D02*
X2165029Y-2847880D01*
X2165029Y-2847880D02*
X2155505Y-2838356D01*
X2155505Y-2838356D02*
X2145981Y-2819308D01*
X2145981Y-2819308D02*
X2136457Y-2781213D01*
X2136457Y-2781213D02*
X2136457Y-2733594D01*
X2136457Y-2733594D02*
X2145981Y-2695499D01*
X2145981Y-2695499D02*
X2155505Y-2676451D01*
X2155505Y-2676451D02*
X2165029Y-2666928D01*
X2165029Y-2666928D02*
X2184076Y-2657404D01*
X2336457Y-2838356D02*
X2345981Y-2847880D01*
X2345981Y-2847880D02*
X2336457Y-2857404D01*
X2336457Y-2857404D02*
X2326934Y-2847880D01*
X2326934Y-2847880D02*
X2336457Y-2838356D01*
X2336457Y-2838356D02*
X2336457Y-2857404D01*
X2469791Y-2657404D02*
X2488838Y-2657404D01*
X2488838Y-2657404D02*
X2507886Y-2666928D01*
X2507886Y-2666928D02*
X2517410Y-2676451D01*
X2517410Y-2676451D02*
X2526934Y-2695499D01*
X2526934Y-2695499D02*
X2536457Y-2733594D01*
X2536457Y-2733594D02*
X2536457Y-2781213D01*
X2536457Y-2781213D02*
X2526934Y-2819308D01*
X2526934Y-2819308D02*
X2517410Y-2838356D01*
X2517410Y-2838356D02*
X2507886Y-2847880D01*
X2507886Y-2847880D02*
X2488838Y-2857404D01*
X2488838Y-2857404D02*
X2469791Y-2857404D01*
X2469791Y-2857404D02*
X2450743Y-2847880D01*
X2450743Y-2847880D02*
X2441219Y-2838356D01*
X2441219Y-2838356D02*
X2431695Y-2819308D01*
X2431695Y-2819308D02*
X2422172Y-2781213D01*
X2422172Y-2781213D02*
X2422172Y-2733594D01*
X2422172Y-2733594D02*
X2431695Y-2695499D01*
X2431695Y-2695499D02*
X2441219Y-2676451D01*
X2441219Y-2676451D02*
X2450743Y-2666928D01*
X2450743Y-2666928D02*
X2469791Y-2657404D01*
X2707886Y-2724070D02*
X2707886Y-2857404D01*
X2660267Y-2647880D02*
X2612648Y-2790737D01*
X2612648Y-2790737D02*
X2736457Y-2790737D01*
X2793600Y-2657404D02*
X2926933Y-2657404D01*
X2926933Y-2657404D02*
X2841219Y-2857404D01*
X2993600Y-2676451D02*
X3003124Y-2666928D01*
X3003124Y-2666928D02*
X3022172Y-2657404D01*
X3022172Y-2657404D02*
X3069791Y-2657404D01*
X3069791Y-2657404D02*
X3088838Y-2666928D01*
X3088838Y-2666928D02*
X3098362Y-2676451D01*
X3098362Y-2676451D02*
X3107886Y-2695499D01*
X3107886Y-2695499D02*
X3107886Y-2714547D01*
X3107886Y-2714547D02*
X3098362Y-2743118D01*
X3098362Y-2743118D02*
X2984076Y-2857404D01*
X2984076Y-2857404D02*
X3107886Y-2857404D01*
X3184076Y-2657404D02*
X3184076Y-2695499D01*
X3260267Y-2657404D02*
X3260267Y-2695499D01*
X3555505Y-2933594D02*
X3545981Y-2924070D01*
X3545981Y-2924070D02*
X3526934Y-2895499D01*
X3526934Y-2895499D02*
X3517410Y-2876451D01*
X3517410Y-2876451D02*
X3507886Y-2847880D01*
X3507886Y-2847880D02*
X3498362Y-2800261D01*
X3498362Y-2800261D02*
X3498362Y-2762166D01*
X3498362Y-2762166D02*
X3507886Y-2714547D01*
X3507886Y-2714547D02*
X3517410Y-2685975D01*
X3517410Y-2685975D02*
X3526934Y-2666928D01*
X3526934Y-2666928D02*
X3545981Y-2638356D01*
X3545981Y-2638356D02*
X3555505Y-2628832D01*
X3736457Y-2857404D02*
X3622172Y-2857404D01*
X3679314Y-2857404D02*
X3679314Y-2657404D01*
X3679314Y-2657404D02*
X3660267Y-2685975D01*
X3660267Y-2685975D02*
X3641219Y-2705023D01*
X3641219Y-2705023D02*
X3622172Y-2714547D01*
X3812648Y-2676451D02*
X3822172Y-2666928D01*
X3822172Y-2666928D02*
X3841219Y-2657404D01*
X3841219Y-2657404D02*
X3888838Y-2657404D01*
X3888838Y-2657404D02*
X3907886Y-2666928D01*
X3907886Y-2666928D02*
X3917410Y-2676451D01*
X3917410Y-2676451D02*
X3926934Y-2695499D01*
X3926934Y-2695499D02*
X3926934Y-2714547D01*
X3926934Y-2714547D02*
X3917410Y-2743118D01*
X3917410Y-2743118D02*
X3803124Y-2857404D01*
X3803124Y-2857404D02*
X3926934Y-2857404D01*
X4165029Y-2857404D02*
X4165029Y-2657404D01*
X4250743Y-2857404D02*
X4250743Y-2752642D01*
X4250743Y-2752642D02*
X4241219Y-2733594D01*
X4241219Y-2733594D02*
X4222172Y-2724070D01*
X4222172Y-2724070D02*
X4193600Y-2724070D01*
X4193600Y-2724070D02*
X4174553Y-2733594D01*
X4174553Y-2733594D02*
X4165029Y-2743118D01*
X4374553Y-2857404D02*
X4355505Y-2847880D01*
X4355505Y-2847880D02*
X4345981Y-2838356D01*
X4345981Y-2838356D02*
X4336458Y-2819308D01*
X4336458Y-2819308D02*
X4336458Y-2762166D01*
X4336458Y-2762166D02*
X4345981Y-2743118D01*
X4345981Y-2743118D02*
X4355505Y-2733594D01*
X4355505Y-2733594D02*
X4374553Y-2724070D01*
X4374553Y-2724070D02*
X4403124Y-2724070D01*
X4403124Y-2724070D02*
X4422172Y-2733594D01*
X4422172Y-2733594D02*
X4431696Y-2743118D01*
X4431696Y-2743118D02*
X4441219Y-2762166D01*
X4441219Y-2762166D02*
X4441219Y-2819308D01*
X4441219Y-2819308D02*
X4431696Y-2838356D01*
X4431696Y-2838356D02*
X4422172Y-2847880D01*
X4422172Y-2847880D02*
X4403124Y-2857404D01*
X4403124Y-2857404D02*
X4374553Y-2857404D01*
X4555505Y-2857404D02*
X4536458Y-2847880D01*
X4536458Y-2847880D02*
X4526934Y-2828832D01*
X4526934Y-2828832D02*
X4526934Y-2657404D01*
X4707886Y-2847880D02*
X4688839Y-2857404D01*
X4688839Y-2857404D02*
X4650743Y-2857404D01*
X4650743Y-2857404D02*
X4631696Y-2847880D01*
X4631696Y-2847880D02*
X4622172Y-2828832D01*
X4622172Y-2828832D02*
X4622172Y-2752642D01*
X4622172Y-2752642D02*
X4631696Y-2733594D01*
X4631696Y-2733594D02*
X4650743Y-2724070D01*
X4650743Y-2724070D02*
X4688839Y-2724070D01*
X4688839Y-2724070D02*
X4707886Y-2733594D01*
X4707886Y-2733594D02*
X4717410Y-2752642D01*
X4717410Y-2752642D02*
X4717410Y-2771690D01*
X4717410Y-2771690D02*
X4622172Y-2790737D01*
X4793600Y-2847880D02*
X4812648Y-2857404D01*
X4812648Y-2857404D02*
X4850743Y-2857404D01*
X4850743Y-2857404D02*
X4869791Y-2847880D01*
X4869791Y-2847880D02*
X4879315Y-2828832D01*
X4879315Y-2828832D02*
X4879315Y-2819308D01*
X4879315Y-2819308D02*
X4869791Y-2800261D01*
X4869791Y-2800261D02*
X4850743Y-2790737D01*
X4850743Y-2790737D02*
X4822172Y-2790737D01*
X4822172Y-2790737D02*
X4803124Y-2781213D01*
X4803124Y-2781213D02*
X4793600Y-2762166D01*
X4793600Y-2762166D02*
X4793600Y-2752642D01*
X4793600Y-2752642D02*
X4803124Y-2733594D01*
X4803124Y-2733594D02*
X4822172Y-2724070D01*
X4822172Y-2724070D02*
X4850743Y-2724070D01*
X4850743Y-2724070D02*
X4869791Y-2733594D01*
X4945981Y-2933594D02*
X4955505Y-2924070D01*
X4955505Y-2924070D02*
X4974553Y-2895499D01*
X4974553Y-2895499D02*
X4984077Y-2876451D01*
X4984077Y-2876451D02*
X4993600Y-2847880D01*
X4993600Y-2847880D02*
X5003124Y-2800261D01*
X5003124Y-2800261D02*
X5003124Y-2762166D01*
X5003124Y-2762166D02*
X4993600Y-2714547D01*
X4993600Y-2714547D02*
X4984077Y-2685975D01*
X4984077Y-2685975D02*
X4974553Y-2666928D01*
X4974553Y-2666928D02*
X4955505Y-2638356D01*
X4955505Y-2638356D02*
X4945981Y-2628832D01*
M02*
