G04 #@! TF.GenerationSoftware,KiCad,Pcbnew,7.0.1-0*
G04 #@! TF.CreationDate,2023-04-05T16:04:36-07:00*
G04 #@! TF.ProjectId,Kit-Trig-Sampler,4b69742d-5472-4696-972d-53616d706c65,rev?*
G04 #@! TF.SameCoordinates,PXb71b00PY73f50f0*
G04 #@! TF.FileFunction,Copper,L1,Top*
G04 #@! TF.FilePolarity,Positive*
%FSLAX46Y46*%
G04 Gerber Fmt 4.6, Leading zero omitted, Abs format (unit mm)*
G04 Created by KiCad (PCBNEW 7.0.1-0) date 2023-04-05 16:04:36*
%MOMM*%
%LPD*%
G01*
G04 APERTURE LIST*
G04 Aperture macros list*
%AMOutline4P*
0 Free polygon, 4 corners , with rotation*
0 The origin of the aperture is its center*
0 number of corners: always 4*
0 $1 to $8 corner X, Y*
0 $9 Rotation angle, in degrees counterclockwise*
0 create outline with 4 corners*
4,1,4,$1,$2,$3,$4,$5,$6,$7,$8,$1,$2,$9*%
G04 Aperture macros list end*
G04 #@! TA.AperFunction,SMDPad,CuDef*
%ADD10R,1.000000X1.000000*%
G04 #@! TD*
G04 #@! TA.AperFunction,SMDPad,CuDef*
%ADD11R,1.200000X0.900000*%
G04 #@! TD*
G04 #@! TA.AperFunction,ComponentPad*
%ADD12R,1.700000X1.700000*%
G04 #@! TD*
G04 #@! TA.AperFunction,ComponentPad*
%ADD13O,1.700000X1.700000*%
G04 #@! TD*
G04 #@! TA.AperFunction,SMDPad,CuDef*
%ADD14R,3.000000X1.600000*%
G04 #@! TD*
G04 #@! TA.AperFunction,SMDPad,CuDef*
%ADD15R,1.450000X0.450000*%
G04 #@! TD*
G04 #@! TA.AperFunction,SMDPad,CuDef*
%ADD16R,1.000000X1.500000*%
G04 #@! TD*
G04 #@! TA.AperFunction,SMDPad,CuDef*
%ADD17R,1.000000X1.800000*%
G04 #@! TD*
G04 #@! TA.AperFunction,SMDPad,CuDef*
%ADD18Outline4P,-1.100000X-0.500000X1.100000X-0.500000X0.400000X0.500000X-0.400000X0.500000X180.000000*%
G04 #@! TD*
G04 #@! TA.AperFunction,SMDPad,CuDef*
%ADD19R,2.200000X1.840000*%
G04 #@! TD*
G04 #@! TA.AperFunction,SMDPad,CuDef*
%ADD20Outline4P,-1.100000X-0.425000X1.100000X-0.425000X0.500000X0.425000X-0.500000X0.425000X0.000000*%
G04 #@! TD*
G04 #@! TA.AperFunction,ComponentPad*
%ADD21C,1.930400*%
G04 #@! TD*
G04 #@! TA.AperFunction,ComponentPad*
%ADD22C,1.600000*%
G04 #@! TD*
G04 #@! TA.AperFunction,ComponentPad*
%ADD23C,1.300000*%
G04 #@! TD*
G04 #@! TA.AperFunction,ComponentPad*
%ADD24O,1.397000X1.092200*%
G04 #@! TD*
G04 #@! TA.AperFunction,ComponentPad*
%ADD25O,1.524000X1.524000*%
G04 #@! TD*
G04 #@! TA.AperFunction,ComponentPad*
%ADD26C,2.286000*%
G04 #@! TD*
G04 #@! TA.AperFunction,ViaPad*
%ADD27C,0.800000*%
G04 #@! TD*
G04 #@! TA.AperFunction,Conductor*
%ADD28C,0.250000*%
G04 #@! TD*
G04 APERTURE END LIST*
D10*
G04 #@! TO.P,C7,1*
G04 #@! TO.N,+12V*
X49060000Y10330000D03*
G04 #@! TO.P,C7,2*
G04 #@! TO.N,GND*
X50760000Y10330000D03*
G04 #@! TD*
G04 #@! TO.P,C17,1*
G04 #@! TO.N,/D12*
X31200000Y101210000D03*
G04 #@! TO.P,C17,2*
G04 #@! TO.N,GND*
X31200000Y102910000D03*
G04 #@! TD*
G04 #@! TO.P,R26,1*
G04 #@! TO.N,Net-(PLAY_BUT1-POLE-A)*
X33000000Y102910000D03*
G04 #@! TO.P,R26,2*
G04 #@! TO.N,/D12*
X33000000Y101210000D03*
G04 #@! TD*
G04 #@! TO.P,R2,1*
G04 #@! TO.N,Net-(J1-SIG)*
X50710000Y39230000D03*
G04 #@! TO.P,R2,2*
G04 #@! TO.N,/A0*
X50710000Y37530000D03*
G04 #@! TD*
G04 #@! TO.P,R37,1*
G04 #@! TO.N,Net-(R37-Pad1)*
X59760000Y54710000D03*
G04 #@! TO.P,R37,2*
G04 #@! TO.N,Net-(U1B-+)*
X61460000Y54710000D03*
G04 #@! TD*
D11*
G04 #@! TO.P,D2,1,K*
G04 #@! TO.N,Net-(D2-K)*
X34870000Y10420000D03*
G04 #@! TO.P,D2,2,A*
G04 #@! TO.N,-12VA*
X34870000Y13720000D03*
G04 #@! TD*
D10*
G04 #@! TO.P,R33,1*
G04 #@! TO.N,Net-(J13-SIG)*
X36050000Y23370000D03*
G04 #@! TO.P,R33,2*
G04 #@! TO.N,/A4*
X36050000Y25070000D03*
G04 #@! TD*
D12*
G04 #@! TO.P,JC1,1,+12V*
G04 #@! TO.N,/A0*
X34351978Y30026200D03*
D13*
G04 #@! TO.P,JC1,2,+12V*
G04 #@! TO.N,/A1*
X34351978Y32566200D03*
G04 #@! TO.P,JC1,3,GND*
G04 #@! TO.N,/A2*
X31811978Y30026200D03*
G04 #@! TO.P,JC1,4,GND*
G04 #@! TO.N,/A3*
X31811978Y32566200D03*
G04 #@! TO.P,JC1,5,GND*
G04 #@! TO.N,/A4*
X29271978Y30026200D03*
G04 #@! TO.P,JC1,6,GND*
G04 #@! TO.N,/A5*
X29271978Y32566200D03*
G04 #@! TO.P,JC1,7,GND*
G04 #@! TO.N,/A6*
X26731978Y30026200D03*
G04 #@! TO.P,JC1,8,GND*
G04 #@! TO.N,/A7*
X26731978Y32566200D03*
G04 #@! TO.P,JC1,9,-12V*
G04 #@! TO.N,/A8*
X24191978Y30026200D03*
G04 #@! TO.P,JC1,10,-12V*
G04 #@! TO.N,/A9*
X24191978Y32566200D03*
G04 #@! TD*
D10*
G04 #@! TO.P,R16,1*
G04 #@! TO.N,Net-(R16-Pad1)*
X68600000Y93260000D03*
G04 #@! TO.P,R16,2*
G04 #@! TO.N,Net-(Bank_But1-B)*
X68600000Y94960000D03*
G04 #@! TD*
G04 #@! TO.P,C1,1*
G04 #@! TO.N,/A1*
X68620000Y71040000D03*
G04 #@! TO.P,C1,2*
G04 #@! TO.N,GNDADC*
X70320000Y71040000D03*
G04 #@! TD*
D14*
G04 #@! TO.P,C4,1*
G04 #@! TO.N,+12V*
X46260000Y14130000D03*
G04 #@! TO.P,C4,2*
G04 #@! TO.N,GND*
X50660000Y14130000D03*
G04 #@! TD*
D10*
G04 #@! TO.P,R5,1*
G04 #@! TO.N,GND*
X48870000Y39200000D03*
G04 #@! TO.P,R5,2*
G04 #@! TO.N,/A0*
X48870000Y37500000D03*
G04 #@! TD*
G04 #@! TO.P,R14,1*
G04 #@! TO.N,Net-(U2A--)*
X16310000Y14290000D03*
G04 #@! TO.P,R14,2*
G04 #@! TO.N,Net-(C11-Pad2)*
X16310000Y12590000D03*
G04 #@! TD*
G04 #@! TO.P,R25,1*
G04 #@! TO.N,Net-(Bank_But1-POLE-A)*
X60490000Y104840000D03*
G04 #@! TO.P,R25,2*
G04 #@! TO.N,/D6*
X60490000Y103140000D03*
G04 #@! TD*
G04 #@! TO.P,C15,1*
G04 #@! TO.N,-12VA*
X14590000Y17740000D03*
G04 #@! TO.P,C15,2*
G04 #@! TO.N,GND*
X12890000Y17740000D03*
G04 #@! TD*
G04 #@! TO.P,C19,1*
G04 #@! TO.N,+12V*
X48710000Y76630000D03*
G04 #@! TO.P,C19,2*
G04 #@! TO.N,GND*
X47010000Y76630000D03*
G04 #@! TD*
G04 #@! TO.P,C20,1*
G04 #@! TO.N,+3V3*
X44330000Y81550000D03*
G04 #@! TO.P,C20,2*
G04 #@! TO.N,GND*
X44330000Y79850000D03*
G04 #@! TD*
D11*
G04 #@! TO.P,D1,1,K*
G04 #@! TO.N,+12V*
X43160000Y16100000D03*
G04 #@! TO.P,D1,2,A*
G04 #@! TO.N,Net-(D1-A)*
X43160000Y12800000D03*
G04 #@! TD*
D10*
G04 #@! TO.P,C13,1*
G04 #@! TO.N,-12VA*
X69350000Y54880000D03*
G04 #@! TO.P,C13,2*
G04 #@! TO.N,GND*
X67650000Y54880000D03*
G04 #@! TD*
G04 #@! TO.P,R23,1*
G04 #@! TO.N,Net-(PLAY_BUT1-G)*
X44510000Y99160000D03*
G04 #@! TO.P,R23,2*
G04 #@! TO.N,/D14*
X46210000Y99160000D03*
G04 #@! TD*
G04 #@! TO.P,C9,1*
G04 #@! TO.N,/A7*
X27850000Y51610000D03*
G04 #@! TO.P,C9,2*
G04 #@! TO.N,GNDADC*
X29550000Y51610000D03*
G04 #@! TD*
G04 #@! TO.P,R17,1*
G04 #@! TO.N,Net-(J5-SIG)*
X37570000Y21730000D03*
G04 #@! TO.P,R17,2*
G04 #@! TO.N,/D2*
X39270000Y21730000D03*
G04 #@! TD*
D15*
G04 #@! TO.P,U1,1*
G04 #@! TO.N,Net-(U1A--)*
X69350000Y51155000D03*
G04 #@! TO.P,U1,2,-*
X69350000Y51805000D03*
G04 #@! TO.P,U1,3,+*
G04 #@! TO.N,Net-(U1A-+)*
X69350000Y52455000D03*
G04 #@! TO.P,U1,4,V-*
G04 #@! TO.N,-12VA*
X69350000Y53105000D03*
G04 #@! TO.P,U1,5,+*
G04 #@! TO.N,Net-(U1B-+)*
X63450000Y53105000D03*
G04 #@! TO.P,U1,6,-*
G04 #@! TO.N,Net-(U1B--)*
X63450000Y52455000D03*
G04 #@! TO.P,U1,7*
G04 #@! TO.N,/A2*
X63450000Y51805000D03*
G04 #@! TO.P,U1,8,V+*
G04 #@! TO.N,+12V*
X63450000Y51155000D03*
G04 #@! TD*
D10*
G04 #@! TO.P,R30,1*
G04 #@! TO.N,+3V3*
X21080000Y83140000D03*
G04 #@! TO.P,R30,2*
G04 #@! TO.N,/D4*
X22780000Y83140000D03*
G04 #@! TD*
G04 #@! TO.P,R21,1*
G04 #@! TO.N,Net-(R21-Pad1)*
X10600000Y94580000D03*
G04 #@! TO.P,R21,2*
G04 #@! TO.N,Net-(REV_BUT1-R)*
X10600000Y96280000D03*
G04 #@! TD*
G04 #@! TO.P,R20,1*
G04 #@! TO.N,Net-(J6-SIG)*
X17250000Y24760000D03*
G04 #@! TO.P,R20,2*
G04 #@! TO.N,/D13*
X18950000Y24760000D03*
G04 #@! TD*
D13*
G04 #@! TO.P,J14,1,+12V*
G04 #@! TO.N,Net-(D1-A)*
X37830000Y13770000D03*
G04 #@! TO.P,J14,2,+12V*
X40370000Y13770000D03*
G04 #@! TO.P,J14,3,GND*
G04 #@! TO.N,GND*
X37830000Y11230000D03*
G04 #@! TO.P,J14,4,GND*
X40370000Y11230000D03*
G04 #@! TO.P,J14,5,GND*
X37830000Y8690000D03*
G04 #@! TO.P,J14,6,GND*
X40370000Y8690000D03*
G04 #@! TO.P,J14,7,GND*
X37830000Y6150000D03*
G04 #@! TO.P,J14,8,GND*
X40370000Y6150000D03*
G04 #@! TO.P,J14,9,-12V*
G04 #@! TO.N,Net-(D2-K)*
X37830000Y3610000D03*
G04 #@! TO.P,J14,10,-12V*
X40370000Y3610000D03*
G04 #@! TD*
D10*
G04 #@! TO.P,R4,1*
G04 #@! TO.N,Net-(J3-SIG)*
X16880000Y36160000D03*
G04 #@! TO.P,R4,2*
G04 #@! TO.N,/A8*
X16880000Y34460000D03*
G04 #@! TD*
G04 #@! TO.P,R28,1*
G04 #@! TO.N,+3V3*
X21090000Y84970000D03*
G04 #@! TO.P,R28,2*
G04 #@! TO.N,/D18*
X22790000Y84970000D03*
G04 #@! TD*
G04 #@! TO.P,R40,1*
G04 #@! TO.N,/D5*
X65150000Y93320000D03*
G04 #@! TO.P,R40,2*
G04 #@! TO.N,Net-(R16-Pad1)*
X66850000Y93320000D03*
G04 #@! TD*
G04 #@! TO.P,R1,1*
G04 #@! TO.N,Net-(J4-SIG)*
X71220000Y50390000D03*
G04 #@! TO.P,R1,2*
G04 #@! TO.N,Net-(U1A-+)*
X71220000Y52090000D03*
G04 #@! TD*
G04 #@! TO.P,R41,1*
G04 #@! TO.N,/D7*
X10610000Y91170000D03*
G04 #@! TO.P,R41,2*
G04 #@! TO.N,Net-(R21-Pad1)*
X10610000Y92870000D03*
G04 #@! TD*
G04 #@! TO.P,R12,1*
G04 #@! TO.N,/D15*
X17990000Y16580000D03*
G04 #@! TO.P,R12,2*
G04 #@! TO.N,Net-(U2A-+)*
X16290000Y16580000D03*
G04 #@! TD*
G04 #@! TO.P,C8,1*
G04 #@! TO.N,-12VA*
X30960000Y11900000D03*
G04 #@! TO.P,C8,2*
G04 #@! TO.N,GND*
X29260000Y11900000D03*
G04 #@! TD*
G04 #@! TO.P,R27,1*
G04 #@! TO.N,+3V3*
X19030000Y103000000D03*
G04 #@! TO.P,R27,2*
G04 #@! TO.N,/A6*
X19030000Y101300000D03*
G04 #@! TD*
G04 #@! TO.P,C6,1*
G04 #@! TO.N,/A2*
X63820000Y46070000D03*
G04 #@! TO.P,C6,2*
G04 #@! TO.N,Net-(U1B--)*
X65520000Y46070000D03*
G04 #@! TD*
G04 #@! TO.P,R6,1*
G04 #@! TO.N,GND*
X27630000Y36880000D03*
G04 #@! TO.P,R6,2*
G04 #@! TO.N,/A5*
X29330000Y36880000D03*
G04 #@! TD*
G04 #@! TO.P,R9,1*
G04 #@! TO.N,GND*
X59790000Y51360000D03*
G04 #@! TO.P,R9,2*
G04 #@! TO.N,Net-(R37-Pad1)*
X59790000Y53060000D03*
G04 #@! TD*
G04 #@! TO.P,R32,1*
G04 #@! TO.N,+3V3*
X21210000Y81110000D03*
G04 #@! TO.P,R32,2*
G04 #@! TO.N,/D17*
X22910000Y81110000D03*
G04 #@! TD*
G04 #@! TO.P,C2,1*
G04 #@! TO.N,/A9*
X12770000Y71290000D03*
G04 #@! TO.P,C2,2*
G04 #@! TO.N,GNDADC*
X14470000Y71290000D03*
G04 #@! TD*
G04 #@! TO.P,R13,1*
G04 #@! TO.N,GND*
X12710000Y12100000D03*
G04 #@! TO.P,R13,2*
G04 #@! TO.N,Net-(U2A--)*
X14410000Y12100000D03*
G04 #@! TD*
G04 #@! TO.P,R19,1*
G04 #@! TO.N,/D8*
X34110000Y94320000D03*
G04 #@! TO.P,R19,2*
G04 #@! TO.N,Net-(PLAY_BUT1-R)*
X35810000Y94320000D03*
G04 #@! TD*
D14*
G04 #@! TO.P,C5,1*
G04 #@! TO.N,GND*
X27460000Y15900000D03*
G04 #@! TO.P,C5,2*
G04 #@! TO.N,-12VA*
X31860000Y15900000D03*
G04 #@! TD*
D10*
G04 #@! TO.P,C14,1*
G04 #@! TO.N,+12V*
X9170000Y12130000D03*
G04 #@! TO.P,C14,2*
G04 #@! TO.N,GND*
X10870000Y12130000D03*
G04 #@! TD*
G04 #@! TO.P,R34,1*
G04 #@! TO.N,GND*
X39490000Y24980000D03*
G04 #@! TO.P,R34,2*
G04 #@! TO.N,/A4*
X37790000Y24980000D03*
G04 #@! TD*
D12*
G04 #@! TO.P,JA1,1,+12V*
G04 #@! TO.N,-12VA*
X57542000Y91376192D03*
D13*
G04 #@! TO.P,JA1,2,+12V*
G04 #@! TO.N,VREF+*
X55002000Y91376192D03*
G04 #@! TO.P,JA1,3,GND*
G04 #@! TO.N,/D11*
X57542000Y88836192D03*
G04 #@! TO.P,JA1,4,GND*
G04 #@! TO.N,/D10*
X55002000Y88836192D03*
G04 #@! TO.P,JA1,5,GND*
G04 #@! TO.N,/D14*
X57542000Y86296192D03*
G04 #@! TO.P,JA1,6,GND*
G04 #@! TO.N,/D12*
X55002000Y86296192D03*
G04 #@! TO.P,JA1,7,GND*
G04 #@! TO.N,GND*
X57542000Y83756192D03*
G04 #@! TO.P,JA1,8,GND*
G04 #@! TO.N,GNDADC*
X55002000Y83756192D03*
G04 #@! TO.P,JA1,9,-12V*
G04 #@! TO.N,+12V*
X57542000Y81216192D03*
G04 #@! TO.P,JA1,10,-12V*
G04 #@! TO.N,/Unused(5V)*
X55002000Y81216192D03*
G04 #@! TD*
D10*
G04 #@! TO.P,R31,1*
G04 #@! TO.N,+3V3*
X21300000Y78960000D03*
G04 #@! TO.P,R31,2*
G04 #@! TO.N,/D16*
X23000000Y78960000D03*
G04 #@! TD*
D15*
G04 #@! TO.P,U2,1*
G04 #@! TO.N,Net-(C11-Pad2)*
X14310000Y13985000D03*
G04 #@! TO.P,U2,2,-*
G04 #@! TO.N,Net-(U2A--)*
X14310000Y14635000D03*
G04 #@! TO.P,U2,3,+*
G04 #@! TO.N,Net-(U2A-+)*
X14310000Y15285000D03*
G04 #@! TO.P,U2,4,V-*
G04 #@! TO.N,-12VA*
X14310000Y15935000D03*
G04 #@! TO.P,U2,5,+*
G04 #@! TO.N,GND*
X8410000Y15935000D03*
G04 #@! TO.P,U2,6,-*
G04 #@! TO.N,Net-(U2B--)*
X8410000Y15285000D03*
G04 #@! TO.P,U2,7*
X8410000Y14635000D03*
G04 #@! TO.P,U2,8,V+*
G04 #@! TO.N,+12V*
X8410000Y13985000D03*
G04 #@! TD*
D10*
G04 #@! TO.P,R7,1*
G04 #@! TO.N,GND*
X19010000Y32660000D03*
G04 #@! TO.P,R7,2*
G04 #@! TO.N,/A8*
X19010000Y34360000D03*
G04 #@! TD*
D16*
G04 #@! TO.P,U3,1,GND*
G04 #@! TO.N,GND*
X46410000Y78900000D03*
D17*
G04 #@! TO.P,U3,2,VO*
G04 #@! TO.N,+3V3*
X47910000Y79046500D03*
D18*
X47910000Y80303800D03*
D19*
X47910000Y81713500D03*
D20*
X47910000Y83047000D03*
D16*
G04 #@! TO.P,U3,3,VIN*
G04 #@! TO.N,+12V*
X49410000Y78900000D03*
G04 #@! TD*
D10*
G04 #@! TO.P,C12,1*
G04 #@! TO.N,+12V*
X64940000Y54950000D03*
G04 #@! TO.P,C12,2*
G04 #@! TO.N,GND*
X63240000Y54950000D03*
G04 #@! TD*
G04 #@! TO.P,C16,1*
G04 #@! TO.N,/D6*
X58740000Y103210000D03*
G04 #@! TO.P,C16,2*
G04 #@! TO.N,GND*
X58740000Y101510000D03*
G04 #@! TD*
G04 #@! TO.P,R11,1*
G04 #@! TO.N,Net-(U1B-+)*
X61500000Y56380000D03*
G04 #@! TO.P,R11,2*
G04 #@! TO.N,VREF+*
X59800000Y56380000D03*
G04 #@! TD*
G04 #@! TO.P,R10,1*
G04 #@! TO.N,/A2*
X63870000Y47690000D03*
G04 #@! TO.P,R10,2*
G04 #@! TO.N,Net-(U1B--)*
X65570000Y47690000D03*
G04 #@! TD*
G04 #@! TO.P,R15,1*
G04 #@! TO.N,Net-(C11-Pad2)*
X19640000Y12470000D03*
G04 #@! TO.P,R15,2*
G04 #@! TO.N,Net-(J7-SIG)*
X21340000Y12470000D03*
G04 #@! TD*
G04 #@! TO.P,C11,1*
G04 #@! TO.N,Net-(U2A--)*
X17980000Y14230000D03*
G04 #@! TO.P,C11,2*
G04 #@! TO.N,Net-(C11-Pad2)*
X17980000Y12530000D03*
G04 #@! TD*
G04 #@! TO.P,R18,1*
G04 #@! TO.N,/D11*
X41890000Y94110000D03*
G04 #@! TO.P,R18,2*
G04 #@! TO.N,Net-(PLAY_BUT1-B)*
X40190000Y94110000D03*
G04 #@! TD*
D12*
G04 #@! TO.P,JB1,1,+12V*
G04 #@! TO.N,/AUDIO_OUT2*
X60352002Y30026200D03*
D13*
G04 #@! TO.P,JB1,2,+12V*
G04 #@! TO.N,/D0*
X60352002Y32566200D03*
G04 #@! TO.P,JB1,3,GND*
G04 #@! TO.N,/AUDIO_OUT1*
X57812002Y30026200D03*
G04 #@! TO.P,JB1,4,GND*
G04 #@! TO.N,/D1*
X57812002Y32566200D03*
G04 #@! TO.P,JB1,5,GND*
G04 #@! TO.N,/AUDIO_IN2*
X55272002Y30026200D03*
G04 #@! TO.P,JB1,6,GND*
G04 #@! TO.N,/D15*
X55272002Y32566200D03*
G04 #@! TO.P,JB1,7,GND*
G04 #@! TO.N,/AUDIO_IN1*
X52732002Y30026200D03*
G04 #@! TO.P,JB1,8,GND*
G04 #@! TO.N,/D13*
X52732002Y32566200D03*
G04 #@! TO.P,JB1,9,-12V*
G04 #@! TO.N,/D3*
X50192002Y30026200D03*
G04 #@! TO.P,JB1,10,-12V*
G04 #@! TO.N,/D2*
X50192002Y32566200D03*
G04 #@! TD*
D10*
G04 #@! TO.P,R8,1*
G04 #@! TO.N,Net-(U1A--)*
X67380000Y49400000D03*
G04 #@! TO.P,R8,2*
G04 #@! TO.N,Net-(U1B--)*
X65680000Y49400000D03*
G04 #@! TD*
G04 #@! TO.P,C3,1*
G04 #@! TO.N,GND*
X61570000Y51420000D03*
G04 #@! TO.P,C3,2*
G04 #@! TO.N,Net-(U1B-+)*
X61570000Y53120000D03*
G04 #@! TD*
D12*
G04 #@! TO.P,JD1,1,+12V*
G04 #@! TO.N,/D5*
X29541980Y91376192D03*
D13*
G04 #@! TO.P,JD1,2,+12V*
G04 #@! TO.N,/D6*
X27001980Y91376192D03*
G04 #@! TO.P,JD1,3,GND*
G04 #@! TO.N,/D19*
X29541980Y88836192D03*
G04 #@! TO.P,JD1,4,GND*
G04 #@! TO.N,/D8*
X27001980Y88836192D03*
G04 #@! TO.P,JD1,5,GND*
G04 #@! TO.N,/D18*
X29541980Y86296192D03*
G04 #@! TO.P,JD1,6,GND*
G04 #@! TO.N,/D7*
X27001980Y86296192D03*
G04 #@! TO.P,JD1,7,GND*
G04 #@! TO.N,/D17*
X29541980Y83756192D03*
G04 #@! TO.P,JD1,8,GND*
G04 #@! TO.N,/D4*
X27001980Y83756192D03*
G04 #@! TO.P,JD1,9,-12V*
G04 #@! TO.N,/D16*
X29541980Y81216192D03*
G04 #@! TO.P,JD1,10,-12V*
G04 #@! TO.N,/D9*
X27001980Y81216192D03*
G04 #@! TD*
D10*
G04 #@! TO.P,R3,1*
G04 #@! TO.N,Net-(J2-SIG)*
X32530000Y39270000D03*
G04 #@! TO.P,R3,2*
G04 #@! TO.N,/A5*
X32530000Y37570000D03*
G04 #@! TD*
G04 #@! TO.P,C10,1*
G04 #@! TO.N,/A3*
X55180000Y44410000D03*
G04 #@! TO.P,C10,2*
G04 #@! TO.N,GNDADC*
X56880000Y44410000D03*
G04 #@! TD*
D21*
G04 #@! TO.P,J10,1,SIG*
G04 #@! TO.N,/AUDIO_IN1*
X55164000Y23332764D03*
G04 #@! TO.P,J10,2,SHEILD*
G04 #@! TO.N,GND*
X44191200Y23332764D03*
G04 #@! TO.P,J10,3,SW*
G04 #@! TO.N,unconnected-(J10-SW-Pad3)*
X46604200Y23332764D03*
G04 #@! TD*
D22*
G04 #@! TO.P,Bank_But1,1,UP-A*
G04 #@! TO.N,unconnected-(Bank_But1-UP-A-Pad1)*
X69950000Y104132764D03*
G04 #@! TO.P,Bank_But1,2,POLE-A*
G04 #@! TO.N,Net-(Bank_But1-POLE-A)*
X63450000Y104132764D03*
G04 #@! TO.P,Bank_But1,3,DOWN-A*
G04 #@! TO.N,unconnected-(Bank_But1-DOWN-A-Pad3)*
X69950000Y99632764D03*
G04 #@! TO.P,Bank_But1,4,UP-B*
G04 #@! TO.N,GND*
X63450000Y99632764D03*
D23*
G04 #@! TO.P,Bank_But1,5,CA*
G04 #@! TO.N,+3V3*
X67600000Y104782764D03*
G04 #@! TO.P,Bank_But1,6,G*
G04 #@! TO.N,/D0*
X65800000Y104782764D03*
G04 #@! TO.P,Bank_But1,7,R*
G04 #@! TO.N,/D1*
X65800000Y98982764D03*
G04 #@! TO.P,Bank_But1,8,B*
G04 #@! TO.N,Net-(Bank_But1-B)*
X67600000Y98982764D03*
G04 #@! TD*
D24*
G04 #@! TO.P,SD1,1,DAT2*
G04 #@! TO.N,/D18*
X40630000Y76850249D03*
G04 #@! TO.P,SD1,2,CD/DAT3*
G04 #@! TO.N,/D19*
X41729820Y77950069D03*
G04 #@! TO.P,SD1,3,CMD*
G04 #@! TO.N,/D4*
X40630000Y79050143D03*
G04 #@! TO.P,SD1,4,VDD*
G04 #@! TO.N,+3V3*
X41729820Y80149963D03*
G04 #@! TO.P,SD1,5,CLK*
G04 #@! TO.N,/D9*
X40630000Y81250037D03*
G04 #@! TO.P,SD1,6,VSS*
G04 #@! TO.N,GND*
X41729820Y82349857D03*
G04 #@! TO.P,SD1,7,DAT0*
G04 #@! TO.N,/D16*
X40630000Y83449931D03*
G04 #@! TO.P,SD1,8,DAT1*
G04 #@! TO.N,/D17*
X41729820Y84549751D03*
D25*
G04 #@! TO.P,SD1,9,SHELL1*
G04 #@! TO.N,GND*
X37460080Y76407400D03*
G04 #@! TO.P,SD1,10,SHELL2*
X37460080Y84992600D03*
G04 #@! TD*
D26*
G04 #@! TO.P,POT_LENGTH1,1,Left*
G04 #@! TO.N,GNDADC*
X31300000Y47866000D03*
G04 #@! TO.P,POT_LENGTH1,2,Center*
G04 #@! TO.N,/A7*
X26300000Y47866000D03*
G04 #@! TO.P,POT_LENGTH1,3,Right*
G04 #@! TO.N,VREF+*
X21300000Y47866000D03*
G04 #@! TD*
D21*
G04 #@! TO.P,J2,1,SIG*
G04 #@! TO.N,Net-(J2-SIG)*
X35057000Y39132764D03*
G04 #@! TO.P,J2,2,SHEILD*
G04 #@! TO.N,GND*
X24084200Y39132764D03*
G04 #@! TO.P,J2,3,SW*
X26497200Y39132764D03*
G04 #@! TD*
D26*
G04 #@! TO.P,POT_PITCH1,1,Left*
G04 #@! TO.N,GNDADC*
X71900000Y67453764D03*
G04 #@! TO.P,POT_PITCH1,2,Center*
G04 #@! TO.N,/A1*
X66900000Y67453764D03*
G04 #@! TO.P,POT_PITCH1,3,Right*
G04 #@! TO.N,VREF+*
X61900000Y67453764D03*
G04 #@! TD*
D21*
G04 #@! TO.P,J7,1,SIG*
G04 #@! TO.N,Net-(J7-SIG)*
X33277000Y7907764D03*
G04 #@! TO.P,J7,2,SHEILD*
G04 #@! TO.N,GND*
X22304200Y7907764D03*
G04 #@! TO.P,J7,3,SW*
G04 #@! TO.N,unconnected-(J7-SW-Pad3)*
X24717200Y7907764D03*
G04 #@! TD*
G04 #@! TO.P,J6,1,SIG*
G04 #@! TO.N,Net-(J6-SIG)*
X13482000Y23332764D03*
G04 #@! TO.P,J6,2,SHEILD*
G04 #@! TO.N,GND*
X2509200Y23332764D03*
G04 #@! TO.P,J6,3,SW*
X4922200Y23332764D03*
G04 #@! TD*
G04 #@! TO.P,J4,1,SIG*
G04 #@! TO.N,Net-(J4-SIG)*
X61193000Y39132764D03*
G04 #@! TO.P,J4,2,SHEILD*
G04 #@! TO.N,GND*
X72165800Y39132764D03*
G04 #@! TO.P,J4,3,SW*
X69752800Y39132764D03*
G04 #@! TD*
D22*
G04 #@! TO.P,REV_BUT1,1,UP-A*
G04 #@! TO.N,unconnected-(REV_BUT1-UP-A-Pad1)*
X14550000Y104132764D03*
G04 #@! TO.P,REV_BUT1,2,POLE-A*
G04 #@! TO.N,/A6*
X8050000Y104132764D03*
G04 #@! TO.P,REV_BUT1,3,DOWN-A*
G04 #@! TO.N,unconnected-(REV_BUT1-DOWN-A-Pad3)*
X14550000Y99632764D03*
G04 #@! TO.P,REV_BUT1,4,UP-B*
G04 #@! TO.N,GND*
X8050000Y99632764D03*
D23*
G04 #@! TO.P,REV_BUT1,5,CA*
G04 #@! TO.N,+3V3*
X12200000Y104782764D03*
G04 #@! TO.P,REV_BUT1,6,G*
G04 #@! TO.N,/D10*
X10400000Y104782764D03*
G04 #@! TO.P,REV_BUT1,7,R*
G04 #@! TO.N,Net-(REV_BUT1-R)*
X10400000Y98982764D03*
G04 #@! TO.P,REV_BUT1,8,B*
G04 #@! TO.N,/D3*
X12200000Y98982764D03*
G04 #@! TD*
D21*
G04 #@! TO.P,J5,1,SIG*
G04 #@! TO.N,Net-(J5-SIG)*
X13482000Y7907764D03*
G04 #@! TO.P,J5,2,SHEILD*
G04 #@! TO.N,GND*
X2509200Y7907764D03*
G04 #@! TO.P,J5,3,SW*
X4922200Y7907764D03*
G04 #@! TD*
G04 #@! TO.P,J9,1,SIG*
G04 #@! TO.N,/AUDIO_OUT1*
X55137000Y7907764D03*
G04 #@! TO.P,J9,2,SHEILD*
G04 #@! TO.N,GND*
X44164200Y7907764D03*
G04 #@! TO.P,J9,3,SW*
G04 #@! TO.N,unconnected-(J9-SW-Pad3)*
X46577200Y7907764D03*
G04 #@! TD*
G04 #@! TO.P,J8,1,SIG*
G04 #@! TO.N,/AUDIO_IN2*
X74932000Y23332764D03*
G04 #@! TO.P,J8,2,SHEILD*
G04 #@! TO.N,GND*
X63959200Y23332764D03*
G04 #@! TO.P,J8,3,SW*
G04 #@! TO.N,unconnected-(J8-SW-Pad3)*
X66372200Y23332764D03*
G04 #@! TD*
G04 #@! TO.P,J1,1,SIG*
G04 #@! TO.N,Net-(J1-SIG)*
X53282000Y39132764D03*
G04 #@! TO.P,J1,2,SHEILD*
G04 #@! TO.N,GND*
X42309200Y39132764D03*
G04 #@! TO.P,J1,3,SW*
X44722200Y39132764D03*
G04 #@! TD*
G04 #@! TO.P,J11,1,SIG*
G04 #@! TO.N,/AUDIO_OUT2*
X74932000Y7907764D03*
G04 #@! TO.P,J11,2,SHEILD*
G04 #@! TO.N,GND*
X63959200Y7907764D03*
G04 #@! TO.P,J11,3,SW*
G04 #@! TO.N,unconnected-(J11-SW-Pad3)*
X66372200Y7907764D03*
G04 #@! TD*
G04 #@! TO.P,J13,1,SIG*
G04 #@! TO.N,Net-(J13-SIG)*
X33250000Y23332764D03*
G04 #@! TO.P,J13,2,SHEILD*
G04 #@! TO.N,GND*
X22277200Y23332764D03*
G04 #@! TO.P,J13,3,SW*
X24690200Y23332764D03*
G04 #@! TD*
D26*
G04 #@! TO.P,POT_START1,1,Left*
G04 #@! TO.N,GNDADC*
X56700000Y47821681D03*
G04 #@! TO.P,POT_START1,2,Center*
G04 #@! TO.N,/A3*
X51700000Y47821681D03*
G04 #@! TO.P,POT_START1,3,Right*
G04 #@! TO.N,VREF+*
X46700000Y47821681D03*
G04 #@! TD*
D22*
G04 #@! TO.P,PLAY_BUT1,1,UP-A*
G04 #@! TO.N,unconnected-(PLAY_BUT1-UP-A-Pad1)*
X41996000Y101857764D03*
G04 #@! TO.P,PLAY_BUT1,2,POLE-A*
G04 #@! TO.N,Net-(PLAY_BUT1-POLE-A)*
X36004000Y101857764D03*
G04 #@! TO.P,PLAY_BUT1,3,DOWN-A*
G04 #@! TO.N,unconnected-(PLAY_BUT1-DOWN-A-Pad3)*
X41996000Y97357764D03*
G04 #@! TO.P,PLAY_BUT1,4,UP-B*
G04 #@! TO.N,GND*
X36004000Y97357764D03*
D23*
G04 #@! TO.P,PLAY_BUT1,5,CA*
G04 #@! TO.N,+3V3*
X39900000Y102507764D03*
G04 #@! TO.P,PLAY_BUT1,6,G*
G04 #@! TO.N,Net-(PLAY_BUT1-G)*
X38100000Y102507764D03*
G04 #@! TO.P,PLAY_BUT1,7,R*
G04 #@! TO.N,Net-(PLAY_BUT1-R)*
X38100000Y96707764D03*
G04 #@! TO.P,PLAY_BUT1,8,B*
G04 #@! TO.N,Net-(PLAY_BUT1-B)*
X39900000Y96707764D03*
G04 #@! TD*
D26*
G04 #@! TO.P,POT_SAMP1,1,Left*
G04 #@! TO.N,GNDADC*
X16100000Y67453764D03*
G04 #@! TO.P,POT_SAMP1,2,Center*
G04 #@! TO.N,/A9*
X11100000Y67453764D03*
G04 #@! TO.P,POT_SAMP1,3,Right*
G04 #@! TO.N,VREF+*
X6100000Y67453764D03*
G04 #@! TD*
D21*
G04 #@! TO.P,J3,1,SIG*
G04 #@! TO.N,Net-(J3-SIG)*
X16882000Y39132764D03*
G04 #@! TO.P,J3,2,SHEILD*
G04 #@! TO.N,GND*
X5909200Y39132764D03*
G04 #@! TO.P,J3,3,SW*
X8322200Y39132764D03*
G04 #@! TD*
D27*
G04 #@! TO.N,GND*
X41480000Y51520000D03*
X37240000Y81950000D03*
X60350000Y87390000D03*
X60857701Y64922299D03*
X11780000Y10820000D03*
X39680000Y28000000D03*
X63180000Y56170000D03*
X20140000Y32760000D03*
X43910000Y78660000D03*
X50630000Y15620000D03*
X47280000Y38780000D03*
X25410000Y15720000D03*
X22730000Y11350000D03*
X31260000Y103995500D03*
X25310000Y18860000D03*
X65525602Y41304398D03*
X40660000Y24800000D03*
X47250000Y17980000D03*
X59850000Y50070000D03*
G04 #@! TO.N,+3V3*
X22550000Y77520000D03*
X44280000Y83360000D03*
G04 #@! TO.N,GNDADC*
X66210000Y74620000D03*
X66150000Y65290000D03*
G04 #@! TO.N,+12V*
X17000000Y10090000D03*
X65030000Y52770000D03*
X65030000Y61730000D03*
X63710000Y50060000D03*
X51640000Y77110000D03*
X64040000Y41610000D03*
X41590000Y16240000D03*
G04 #@! TO.N,/D15*
X19330000Y16540000D03*
G04 #@! TO.N,/D13*
X20415000Y26225000D03*
G04 #@! TO.N,/AUDIO_IN2*
X61820000Y27210000D03*
G04 #@! TO.N,/D11*
X56440000Y95090000D03*
G04 #@! TO.N,/D10*
X32690000Y92005500D03*
G04 #@! TO.N,/D14*
X59320000Y95220000D03*
G04 #@! TO.N,/D12*
X53720000Y96170000D03*
G04 #@! TO.N,/D19*
X34110000Y78270000D03*
X34550000Y81800000D03*
G04 #@! TO.N,/A1*
X52600000Y44410000D03*
G04 #@! TO.N,Net-(J4-SIG)*
X66750000Y44540000D03*
X64450000Y44640000D03*
G04 #@! TO.N,Net-(J5-SIG)*
X23190000Y18100000D03*
G04 #@! TD*
D28*
G04 #@! TO.N,GND*
X50660000Y14130000D02*
X50660000Y10430000D01*
X22304200Y10924200D02*
X22730000Y11350000D01*
X59790000Y51360000D02*
X61510000Y51360000D01*
X8050000Y99632764D02*
X4632000Y96214764D01*
X25410000Y15720000D02*
X27280000Y15720000D01*
X40370000Y8690000D02*
X40370000Y11230000D01*
X63180000Y62600000D02*
X60857701Y64922299D01*
X41480000Y51520000D02*
X37460080Y55539920D01*
X13535000Y11275000D02*
X12710000Y12100000D01*
X4632000Y96214764D02*
X4632000Y40409964D01*
X4922200Y38145764D02*
X5909200Y39132764D01*
X43910000Y79430000D02*
X44330000Y79850000D01*
X61572764Y101510000D02*
X63450000Y99632764D01*
X63240000Y54950000D02*
X64065000Y55775000D01*
X24084200Y39132764D02*
X26497200Y39132764D01*
X12890000Y17740000D02*
X10514964Y17740000D01*
X10514964Y17740000D02*
X4922200Y23332764D01*
X37460080Y81729920D02*
X37460080Y76407400D01*
X69752800Y39132764D02*
X69752800Y30112800D01*
X22277200Y29392800D02*
X19010000Y32660000D01*
X49627964Y9197964D02*
X45454400Y9197964D01*
X47010000Y78300000D02*
X46410000Y78900000D01*
X72165800Y39132764D02*
X69752800Y39132764D01*
X27630000Y37999964D02*
X26497200Y39132764D01*
X8410000Y15935000D02*
X9385000Y15935000D01*
X57542000Y83756192D02*
X60350000Y86564192D01*
X10870000Y12130000D02*
X11680000Y12940000D01*
X22277200Y23332764D02*
X22277200Y29392800D01*
X11780000Y11220000D02*
X10870000Y12130000D01*
X47010000Y76630000D02*
X47010000Y78300000D01*
X44164200Y7907764D02*
X41152236Y7907764D01*
X47280000Y38780000D02*
X48450000Y38780000D01*
X60350000Y86564192D02*
X60350000Y87390000D01*
X8322200Y39132764D02*
X5909200Y39132764D01*
X50630000Y15620000D02*
X50630000Y14160000D01*
X4632000Y40409964D02*
X5909200Y39132764D01*
X29260000Y14100000D02*
X27460000Y15900000D01*
X37830000Y11230000D02*
X37830000Y8690000D01*
X29260000Y11900000D02*
X29260000Y14100000D01*
X66755000Y55775000D02*
X67650000Y54880000D01*
X50760000Y10330000D02*
X61536964Y10330000D01*
X30085000Y11075000D02*
X33555000Y11075000D01*
X9385000Y15935000D02*
X10870000Y14450000D01*
X37460080Y55539920D02*
X37460080Y76407400D01*
X22304200Y7907764D02*
X18936964Y11275000D01*
X61536964Y10330000D02*
X63959200Y7907764D01*
X44330000Y79850000D02*
X45460000Y79850000D01*
X34135000Y11655000D02*
X37405000Y11655000D01*
X48450000Y38780000D02*
X48870000Y39200000D01*
X67697236Y39132764D02*
X65525602Y41304398D01*
X69752800Y30112800D02*
X63959200Y24319200D01*
X10870000Y12130000D02*
X12680000Y12130000D01*
X45460000Y79850000D02*
X46410000Y78900000D01*
X37240000Y81950000D02*
X37460080Y81729920D01*
X64065000Y55775000D02*
X66755000Y55775000D01*
X59850000Y50070000D02*
X59850000Y51300000D01*
X22304200Y7907764D02*
X22304200Y10924200D01*
X10870000Y14450000D02*
X10870000Y12130000D01*
X63959200Y7907764D02*
X63959200Y23332764D01*
X37830000Y6150000D02*
X40370000Y6150000D01*
X11680000Y16530000D02*
X12890000Y17740000D01*
X63959200Y24319200D02*
X63959200Y23332764D01*
X27630000Y36880000D02*
X27630000Y37999964D01*
X40660000Y24800000D02*
X39670000Y24800000D01*
X37830000Y8690000D02*
X37830000Y6150000D01*
X58740000Y101510000D02*
X61572764Y101510000D01*
X69752800Y39132764D02*
X67697236Y39132764D01*
X33555000Y11075000D02*
X34135000Y11655000D01*
X29260000Y11900000D02*
X30085000Y11075000D01*
X63180000Y56170000D02*
X63180000Y55010000D01*
X37830000Y8690000D02*
X40370000Y8690000D01*
X20140000Y32760000D02*
X19110000Y32760000D01*
X40370000Y8690000D02*
X40370000Y6150000D01*
X11680000Y12940000D02*
X11680000Y16530000D01*
X31260000Y103995500D02*
X31260000Y102970000D01*
X25310000Y18860000D02*
X24690200Y19479800D01*
X2509200Y7907764D02*
X4922200Y7907764D01*
X22277200Y23332764D02*
X24690200Y23332764D01*
X41152236Y7907764D02*
X40370000Y8690000D01*
X45454400Y9197964D02*
X44164200Y7907764D01*
X43910000Y78660000D02*
X43910000Y79430000D01*
X50760000Y10330000D02*
X49627964Y9197964D01*
X39490000Y24980000D02*
X39490000Y27810000D01*
X11780000Y10820000D02*
X11780000Y11220000D01*
X40370000Y11230000D02*
X37830000Y11230000D01*
X44191200Y21038800D02*
X47250000Y17980000D01*
X63180000Y56170000D02*
X63180000Y62600000D01*
X18936964Y11275000D02*
X13535000Y11275000D01*
X39490000Y27810000D02*
X39680000Y28000000D01*
X2509200Y23332764D02*
X4922200Y23332764D01*
X44191200Y23332764D02*
X44191200Y21038800D01*
X24690200Y19479800D02*
X24690200Y23332764D01*
X4922200Y23332764D02*
X4922200Y38145764D01*
G04 #@! TO.N,+3V3*
X21090000Y83150000D02*
X21090000Y84970000D01*
X47910000Y83047000D02*
X45827000Y83047000D01*
X44280000Y82990000D02*
X44330000Y82940000D01*
X44330000Y82940000D02*
X44330000Y81550000D01*
X19030000Y103000000D02*
X13982764Y103000000D01*
X22550000Y77520000D02*
X22550000Y77710000D01*
X21210000Y81110000D02*
X21210000Y83010000D01*
X45827000Y83047000D02*
X44330000Y81550000D01*
X22550000Y77710000D02*
X21300000Y78960000D01*
X44280000Y83360000D02*
X44280000Y82990000D01*
X13982764Y103000000D02*
X12200000Y104782764D01*
X42019963Y80149963D02*
X43420000Y81550000D01*
X41729820Y80149963D02*
X42019963Y80149963D01*
X43420000Y81550000D02*
X44330000Y81550000D01*
X21300000Y78960000D02*
X21300000Y81020000D01*
G04 #@! TO.N,/A4*
X34228178Y25070000D02*
X36050000Y25070000D01*
X29271978Y30026200D02*
X34228178Y25070000D01*
X37790000Y24980000D02*
X36140000Y24980000D01*
G04 #@! TO.N,GNDADC*
X49010000Y48020000D02*
X49010000Y47350000D01*
X31300000Y49860000D02*
X29550000Y51610000D01*
X71900000Y67453764D02*
X69736236Y65290000D01*
X66210000Y74620000D02*
X66740000Y74620000D01*
X14470000Y69083764D02*
X16100000Y67453764D01*
X29550000Y51610000D02*
X29550000Y54003764D01*
X70320000Y71040000D02*
X70320000Y69033764D01*
X55111681Y49410000D02*
X50400000Y49410000D01*
X49010000Y47350000D02*
X47270000Y45610000D01*
X66740000Y74620000D02*
X70320000Y71040000D01*
X47270000Y45610000D02*
X33556000Y45610000D01*
X56700000Y47821681D02*
X55111681Y49410000D01*
X70320000Y69033764D02*
X71900000Y67453764D01*
X31300000Y47866000D02*
X31300000Y49860000D01*
X14470000Y71290000D02*
X14470000Y69083764D01*
X29550000Y54003764D02*
X16100000Y67453764D01*
X33556000Y45610000D02*
X31300000Y47866000D01*
X69736236Y65290000D02*
X66150000Y65290000D01*
X56700000Y47821681D02*
X56700000Y44590000D01*
X50400000Y49410000D02*
X49010000Y48020000D01*
G04 #@! TO.N,/A5*
X32530000Y37570000D02*
X30410000Y37570000D01*
X30410000Y37570000D02*
X30350000Y37510000D01*
X29271978Y32566200D02*
X29271978Y36431978D01*
X29271978Y36431978D02*
X30350000Y37510000D01*
G04 #@! TO.N,Net-(Bank_But1-B)*
X67600000Y98982764D02*
X67600000Y95960000D01*
X67600000Y95960000D02*
X68600000Y94960000D01*
G04 #@! TO.N,+12V*
X46260000Y14130000D02*
X52510000Y20380000D01*
X49060000Y11330000D02*
X46260000Y14130000D01*
X65030000Y61730000D02*
X64000000Y62760000D01*
X43160000Y16100000D02*
X44290000Y16100000D01*
X41590000Y16240000D02*
X43020000Y16240000D01*
X64940000Y54950000D02*
X64940000Y52860000D01*
X17000000Y10090000D02*
X11210000Y10090000D01*
X63900000Y26260000D02*
X63900000Y41470000D01*
X11210000Y10090000D02*
X9170000Y12130000D01*
X8410000Y12890000D02*
X9170000Y12130000D01*
X49410000Y77330000D02*
X49410000Y78900000D01*
X49420000Y76630000D02*
X48710000Y76630000D01*
X63710000Y50060000D02*
X63710000Y50895000D01*
X49980000Y77190000D02*
X49420000Y76630000D01*
X51560000Y77190000D02*
X51640000Y77110000D01*
X44290000Y16100000D02*
X46260000Y14130000D01*
X8410000Y13985000D02*
X8410000Y12890000D01*
X63900000Y41470000D02*
X64040000Y41610000D01*
X52510000Y20380000D02*
X58020000Y20380000D01*
X64940000Y52860000D02*
X65030000Y52770000D01*
X58020000Y20380000D02*
X63900000Y26260000D01*
X49060000Y10330000D02*
X49060000Y11330000D01*
X48710000Y76630000D02*
X49410000Y77330000D01*
X63710000Y50895000D02*
X63450000Y51155000D01*
X64000000Y62760000D02*
X64000000Y74758192D01*
X49980000Y77190000D02*
X51560000Y77190000D01*
X64000000Y74758192D02*
X57542000Y81216192D01*
G04 #@! TO.N,-12VA*
X20310000Y17860000D02*
X14710000Y17860000D01*
X31860000Y15900000D02*
X30735000Y17025000D01*
X66505000Y52035000D02*
X66505000Y45405000D01*
X47920000Y16970000D02*
X37660000Y16970000D01*
X52375000Y21425000D02*
X47920000Y16970000D01*
X30735000Y17025000D02*
X21145000Y17025000D01*
X69350000Y54880000D02*
X69350000Y60260000D01*
X69350000Y54880000D02*
X66505000Y52035000D01*
X65020000Y64590000D02*
X65020000Y83898192D01*
X69350000Y54880000D02*
X69350000Y53105000D01*
X31860000Y12800000D02*
X30960000Y11900000D01*
X31860000Y15900000D02*
X31860000Y12800000D01*
X57805000Y21425000D02*
X52375000Y21425000D01*
X65020000Y83898192D02*
X57542000Y91376192D01*
X14310000Y15935000D02*
X14310000Y17460000D01*
X62970000Y41870000D02*
X62970000Y26590000D01*
X34870000Y13720000D02*
X32690000Y15900000D01*
X37660000Y16970000D02*
X34870000Y14180000D01*
X69350000Y60260000D02*
X65020000Y64590000D01*
X66505000Y45405000D02*
X62970000Y41870000D01*
X62970000Y26590000D02*
X57805000Y21425000D01*
X34870000Y14180000D02*
X34870000Y13720000D01*
X21145000Y17025000D02*
X20310000Y17860000D01*
G04 #@! TO.N,/A2*
X63870000Y47690000D02*
X63870000Y46120000D01*
X63450000Y51805000D02*
X64200000Y51805000D01*
X53652564Y37842564D02*
X55592564Y37842564D01*
X55592564Y37842564D02*
X63820000Y46070000D01*
X31811978Y30026200D02*
X33078178Y28760000D01*
X64440000Y48260000D02*
X63870000Y47690000D01*
X44570000Y28760000D02*
X53652564Y37842564D01*
X64440000Y51565000D02*
X64440000Y48260000D01*
X64200000Y51805000D02*
X64440000Y51565000D01*
X33078178Y28760000D02*
X44570000Y28760000D01*
G04 #@! TO.N,/A7*
X28505000Y37620000D02*
X28590000Y37705000D01*
X28505000Y34509222D02*
X28505000Y37620000D01*
X28590000Y34424222D02*
X28505000Y34509222D01*
X26731978Y32566200D02*
X28590000Y34424222D01*
X28590000Y45576000D02*
X26300000Y47866000D01*
X26300000Y50060000D02*
X27850000Y51610000D01*
X26300000Y47866000D02*
X26300000Y50060000D01*
X28590000Y37705000D02*
X28590000Y45576000D01*
G04 #@! TO.N,/A6*
X11162764Y101020000D02*
X19250000Y101020000D01*
X8050000Y104132764D02*
X11162764Y101020000D01*
G04 #@! TO.N,Net-(R16-Pad1)*
X66850000Y93320000D02*
X68540000Y93320000D01*
G04 #@! TO.N,Net-(C11-Pad2)*
X15705000Y12590000D02*
X14310000Y13985000D01*
X16310000Y12590000D02*
X15705000Y12590000D01*
X19640000Y12470000D02*
X18040000Y12470000D01*
X17980000Y12530000D02*
X16370000Y12530000D01*
G04 #@! TO.N,/D6*
X56990000Y104720000D02*
X29680000Y104720000D01*
X60490000Y103140000D02*
X58570000Y103140000D01*
X27001980Y102041980D02*
X27001980Y91376192D01*
X58430000Y103280000D02*
X56990000Y104720000D01*
X29680000Y104720000D02*
X27001980Y102041980D01*
G04 #@! TO.N,/D8*
X28176980Y92361192D02*
X28176980Y90011192D01*
X34110000Y94320000D02*
X30135788Y94320000D01*
X30135788Y94320000D02*
X28176980Y92361192D01*
X28176980Y90011192D02*
X27001980Y88836192D01*
G04 #@! TO.N,/A9*
X12770000Y71290000D02*
X12770000Y69123764D01*
X20050000Y45020000D02*
X11100000Y53970000D01*
X24191978Y32566200D02*
X20050000Y36708178D01*
X11100000Y53970000D02*
X11100000Y67453764D01*
X20050000Y36708178D02*
X20050000Y45020000D01*
X12770000Y69123764D02*
X11100000Y67453764D01*
G04 #@! TO.N,Net-(R21-Pad1)*
X10600000Y92880000D02*
X10600000Y94580000D01*
G04 #@! TO.N,Net-(Bank_But1-POLE-A)*
X60490000Y104840000D02*
X62742764Y104840000D01*
X62742764Y104840000D02*
X63450000Y104132764D01*
G04 #@! TO.N,Net-(U1B-+)*
X61460000Y54710000D02*
X61460000Y53130000D01*
X63450000Y53105000D02*
X61435000Y53105000D01*
X61500000Y56380000D02*
X61500000Y54750000D01*
G04 #@! TO.N,Net-(U1B--)*
X65520000Y46070000D02*
X65520000Y47640000D01*
X65680000Y50975000D02*
X64200000Y52455000D01*
X64200000Y52455000D02*
X63450000Y52455000D01*
X65680000Y49400000D02*
X65680000Y50975000D01*
X65570000Y47690000D02*
X65570000Y49290000D01*
G04 #@! TO.N,/D15*
X19330000Y16540000D02*
X19290000Y16580000D01*
X19290000Y16580000D02*
X17990000Y16580000D01*
G04 #@! TO.N,/D13*
X18950000Y24760000D02*
X20415000Y26225000D01*
G04 #@! TO.N,/AUDIO_IN2*
X58088202Y27210000D02*
X61820000Y27210000D01*
X55272002Y30026200D02*
X58088202Y27210000D01*
G04 #@! TO.N,Net-(U2A--)*
X13560000Y14635000D02*
X14310000Y14635000D01*
X13360000Y13150000D02*
X13360000Y14435000D01*
X15965000Y14635000D02*
X14310000Y14635000D01*
X17980000Y14230000D02*
X16370000Y14230000D01*
X14410000Y12100000D02*
X13360000Y13150000D01*
X13360000Y14435000D02*
X13560000Y14635000D01*
G04 #@! TO.N,Net-(D1-A)*
X43160000Y12800000D02*
X41340000Y12800000D01*
X40370000Y13770000D02*
X37830000Y13770000D01*
X41340000Y12800000D02*
X40370000Y13770000D01*
G04 #@! TO.N,Net-(D2-K)*
X35460000Y5980000D02*
X37830000Y3610000D01*
X37830000Y3610000D02*
X40370000Y3610000D01*
X34870000Y10420000D02*
X35460000Y9830000D01*
X35460000Y9830000D02*
X35460000Y5980000D01*
G04 #@! TO.N,Net-(J1-SIG)*
X50710000Y39230000D02*
X53184764Y39230000D01*
G04 #@! TO.N,/AUDIO_IN1*
X54370000Y24126764D02*
X55164000Y23332764D01*
X52732002Y30026200D02*
X54370000Y28388202D01*
X54370000Y28388202D02*
X54370000Y24126764D01*
G04 #@! TO.N,VREF+*
X59800000Y56380000D02*
X59800000Y65353764D01*
X55002000Y91376192D02*
X56367000Y90011192D01*
X46700000Y47821681D02*
X55258319Y56380000D01*
X59800000Y65353764D02*
X61900000Y67453764D01*
X55258319Y56380000D02*
X59800000Y56380000D01*
X56367000Y90011192D02*
X56367000Y72986764D01*
X56367000Y72986764D02*
X61900000Y67453764D01*
G04 #@! TO.N,/D11*
X56440000Y95090000D02*
X56330000Y95200000D01*
X56330000Y95200000D02*
X42980000Y95200000D01*
X42980000Y95200000D02*
X41890000Y94110000D01*
G04 #@! TO.N,/D10*
X55002000Y88836192D02*
X51832692Y92005500D01*
X51832692Y92005500D02*
X32690000Y92005500D01*
G04 #@! TO.N,/D14*
X53830000Y99160000D02*
X46210000Y99160000D01*
X57770000Y95220000D02*
X53830000Y99160000D01*
X59320000Y95220000D02*
X57770000Y95220000D01*
G04 #@! TO.N,/D12*
X53700000Y96190000D02*
X41572773Y96190000D01*
X41572773Y96190000D02*
X40871000Y96891773D01*
X39537236Y98482764D02*
X35727236Y98482764D01*
X40871000Y97149000D02*
X39537236Y98482764D01*
X53720000Y96170000D02*
X53700000Y96190000D01*
X33000000Y101210000D02*
X31200000Y101210000D01*
X40871000Y96891773D02*
X40871000Y97149000D01*
X35727236Y98482764D02*
X33000000Y101210000D01*
G04 #@! TO.N,/D2*
X50192002Y32566200D02*
X39355802Y21730000D01*
G04 #@! TO.N,/D5*
X31215788Y93050000D02*
X42480000Y93050000D01*
X64580000Y93890000D02*
X65150000Y93320000D01*
X43320000Y93890000D02*
X64580000Y93890000D01*
X42480000Y93050000D02*
X43320000Y93890000D01*
X29541980Y91376192D02*
X31215788Y93050000D01*
G04 #@! TO.N,/D19*
X34110000Y78270000D02*
X34550000Y78710000D01*
X34550000Y78710000D02*
X34550000Y81800000D01*
G04 #@! TO.N,/D18*
X24401192Y85121192D02*
X24250000Y84970000D01*
X24250000Y84970000D02*
X22790000Y84970000D01*
X24401192Y85121192D02*
X28366980Y85121192D01*
X29541980Y86296192D02*
X28366980Y85121192D01*
G04 #@! TO.N,/D7*
X10610000Y91170000D02*
X22128172Y91170000D01*
X22128172Y91170000D02*
X27001980Y86296192D01*
G04 #@! TO.N,/D17*
X39701348Y83905600D02*
X40345499Y84549751D01*
X25234087Y81110000D02*
X22910000Y81110000D01*
X29541980Y83756192D02*
X28366980Y82581192D01*
X28366980Y82581192D02*
X26705279Y82581192D01*
X29691388Y83905600D02*
X39701348Y83905600D01*
X26705279Y82581192D02*
X25234087Y81110000D01*
X40345499Y84549751D02*
X41729820Y84549751D01*
G04 #@! TO.N,/D16*
X27385788Y79060000D02*
X29541980Y81216192D01*
X39880069Y82700000D02*
X40630000Y83449931D01*
X29541980Y81216192D02*
X31025788Y82700000D01*
X31025788Y82700000D02*
X39880069Y82700000D01*
X23100000Y79060000D02*
X27385788Y79060000D01*
G04 #@! TO.N,/A0*
X34351978Y30026200D02*
X41396200Y30026200D01*
X41396200Y30026200D02*
X48870000Y37500000D01*
X50710000Y37530000D02*
X48900000Y37530000D01*
G04 #@! TO.N,/A1*
X39980255Y32566200D02*
X34351978Y32566200D01*
X51824055Y44410000D02*
X39980255Y32566200D01*
X68620000Y71040000D02*
X68620000Y69173764D01*
X68620000Y69173764D02*
X66900000Y67453764D01*
X52600000Y44410000D02*
X51824055Y44410000D01*
G04 #@! TO.N,/A3*
X39668742Y40422964D02*
X44301283Y40422964D01*
X51700000Y47821681D02*
X55111681Y44410000D01*
X44301283Y40422964D02*
X51700000Y47821681D01*
X31811978Y32566200D02*
X39668742Y40422964D01*
G04 #@! TO.N,/A8*
X16880000Y34460000D02*
X18960000Y34460000D01*
X18980000Y34480000D02*
X19738178Y34480000D01*
X19738178Y34480000D02*
X24191978Y30026200D01*
G04 #@! TO.N,Net-(J2-SIG)*
X32530000Y39270000D02*
X34919764Y39270000D01*
G04 #@! TO.N,Net-(J3-SIG)*
X16882000Y39132764D02*
X16882000Y36162000D01*
G04 #@! TO.N,Net-(J4-SIG)*
X71220000Y49010000D02*
X71220000Y50390000D01*
X61193000Y39132764D02*
X61193000Y41383000D01*
X66750000Y44540000D02*
X71220000Y49010000D01*
X61193000Y41383000D02*
X64450000Y44640000D01*
G04 #@! TO.N,Net-(J7-SIG)*
X23100000Y12470000D02*
X27662236Y7907764D01*
X21340000Y12470000D02*
X23100000Y12470000D01*
X27662236Y7907764D02*
X33277000Y7907764D01*
G04 #@! TO.N,Net-(J13-SIG)*
X36050000Y23370000D02*
X33287236Y23370000D01*
G04 #@! TO.N,Net-(PLAY_BUT1-B)*
X39900000Y96707764D02*
X39900000Y94090000D01*
G04 #@! TO.N,Net-(PLAY_BUT1-R)*
X38100000Y96707764D02*
X36040000Y94647764D01*
G04 #@! TO.N,Net-(PLAY_BUT1-G)*
X44510000Y99160000D02*
X41447764Y99160000D01*
X41447764Y99160000D02*
X38100000Y102507764D01*
G04 #@! TO.N,Net-(PLAY_BUT1-POLE-A)*
X33000000Y102910000D02*
X34951764Y102910000D01*
X34951764Y102910000D02*
X36004000Y101857764D01*
G04 #@! TO.N,Net-(U1A-+)*
X69350000Y52455000D02*
X70855000Y52455000D01*
G04 #@! TO.N,Net-(U1A--)*
X69135000Y51155000D02*
X67380000Y49400000D01*
X69350000Y51805000D02*
X69350000Y51155000D01*
G04 #@! TO.N,Net-(R37-Pad1)*
X59760000Y54710000D02*
X59760000Y53090000D01*
G04 #@! TO.N,Net-(U2A-+)*
X14310000Y15285000D02*
X14995000Y15285000D01*
X14995000Y15285000D02*
X16290000Y16580000D01*
G04 #@! TO.N,Net-(REV_BUT1-R)*
X10600000Y96280000D02*
X10600000Y98782764D01*
G04 #@! TO.N,/D4*
X26385788Y83140000D02*
X27001980Y83756192D01*
X22780000Y83140000D02*
X26385788Y83140000D01*
G04 #@! TO.N,Net-(U2B--)*
X8410000Y15285000D02*
X8410000Y14635000D01*
G04 #@! TO.N,Net-(J5-SIG)*
X23190000Y18100000D02*
X23280000Y18010000D01*
X37570000Y21440000D02*
X34140000Y18010000D01*
X23280000Y18010000D02*
X34140000Y18010000D01*
G04 #@! TO.N,Net-(J6-SIG)*
X13482000Y23332764D02*
X15822764Y23332764D01*
X15822764Y23332764D02*
X17250000Y24760000D01*
G04 #@! TD*
M02*
