G04 #@! TF.GenerationSoftware,KiCad,Pcbnew,7.0.1-0*
G04 #@! TF.CreationDate,2023-04-05T16:04:36-07:00*
G04 #@! TF.ProjectId,Kit-Trig-Sampler,4b69742d-5472-4696-972d-53616d706c65,rev?*
G04 #@! TF.SameCoordinates,PXb71b00PY73f50f0*
G04 #@! TF.FileFunction,Soldermask,Bot*
G04 #@! TF.FilePolarity,Negative*
%FSLAX46Y46*%
G04 Gerber Fmt 4.6, Leading zero omitted, Abs format (unit mm)*
G04 Created by KiCad (PCBNEW 7.0.1-0) date 2023-04-05 16:04:36*
%MOMM*%
%LPD*%
G01*
G04 APERTURE LIST*
%ADD10R,1.700000X1.700000*%
%ADD11O,1.700000X1.700000*%
%ADD12C,1.930400*%
%ADD13C,1.800000*%
%ADD14C,1.500000*%
%ADD15O,1.397000X1.092200*%
%ADD16O,1.524000X1.524000*%
%ADD17C,2.540000*%
G04 APERTURE END LIST*
D10*
G04 #@! TO.C,JC1*
X34351978Y30026200D03*
D11*
X34351978Y32566200D03*
X31811978Y30026200D03*
X31811978Y32566200D03*
X29271978Y30026200D03*
X29271978Y32566200D03*
X26731978Y30026200D03*
X26731978Y32566200D03*
X24191978Y30026200D03*
X24191978Y32566200D03*
G04 #@! TD*
G04 #@! TO.C,J14*
X37830000Y13770000D03*
X40370000Y13770000D03*
X37830000Y11230000D03*
X40370000Y11230000D03*
X37830000Y8690000D03*
X40370000Y8690000D03*
X37830000Y6150000D03*
X40370000Y6150000D03*
X37830000Y3610000D03*
X40370000Y3610000D03*
G04 #@! TD*
D10*
G04 #@! TO.C,JA1*
X57542000Y91376192D03*
D11*
X55002000Y91376192D03*
X57542000Y88836192D03*
X55002000Y88836192D03*
X57542000Y86296192D03*
X55002000Y86296192D03*
X57542000Y83756192D03*
X55002000Y83756192D03*
X57542000Y81216192D03*
X55002000Y81216192D03*
G04 #@! TD*
D10*
G04 #@! TO.C,JB1*
X60352002Y30026200D03*
D11*
X60352002Y32566200D03*
X57812002Y30026200D03*
X57812002Y32566200D03*
X55272002Y30026200D03*
X55272002Y32566200D03*
X52732002Y30026200D03*
X52732002Y32566200D03*
X50192002Y30026200D03*
X50192002Y32566200D03*
G04 #@! TD*
D10*
G04 #@! TO.C,JD1*
X29541980Y91376192D03*
D11*
X27001980Y91376192D03*
X29541980Y88836192D03*
X27001980Y88836192D03*
X29541980Y86296192D03*
X27001980Y86296192D03*
X29541980Y83756192D03*
X27001980Y83756192D03*
X29541980Y81216192D03*
X27001980Y81216192D03*
G04 #@! TD*
D12*
G04 #@! TO.C,J10*
X55164000Y23332764D03*
X44191200Y23332764D03*
X46604200Y23332764D03*
G04 #@! TD*
D13*
G04 #@! TO.C,Bank_But1*
X69950000Y104132764D03*
X63450000Y104132764D03*
X69950000Y99632764D03*
X63450000Y99632764D03*
D14*
X67600000Y104782764D03*
X65800000Y104782764D03*
X65800000Y98982764D03*
X67600000Y98982764D03*
G04 #@! TD*
D15*
G04 #@! TO.C,SD1*
X40630000Y76850249D03*
X41729820Y77950069D03*
X40630000Y79050143D03*
X41729820Y80149963D03*
X40630000Y81250037D03*
X41729820Y82349857D03*
X40630000Y83449931D03*
X41729820Y84549751D03*
D16*
X37460080Y76407400D03*
X37460080Y84992600D03*
G04 #@! TD*
D17*
G04 #@! TO.C,POT_LENGTH1*
X31300000Y47866000D03*
X26300000Y47866000D03*
X21300000Y47866000D03*
G04 #@! TD*
D12*
G04 #@! TO.C,J2*
X35057000Y39132764D03*
X24084200Y39132764D03*
X26497200Y39132764D03*
G04 #@! TD*
D17*
G04 #@! TO.C,POT_PITCH1*
X71900000Y67453764D03*
X66900000Y67453764D03*
X61900000Y67453764D03*
G04 #@! TD*
D12*
G04 #@! TO.C,J7*
X33277000Y7907764D03*
X22304200Y7907764D03*
X24717200Y7907764D03*
G04 #@! TD*
G04 #@! TO.C,J6*
X13482000Y23332764D03*
X2509200Y23332764D03*
X4922200Y23332764D03*
G04 #@! TD*
G04 #@! TO.C,J4*
X61193000Y39132764D03*
X72165800Y39132764D03*
X69752800Y39132764D03*
G04 #@! TD*
D13*
G04 #@! TO.C,REV_BUT1*
X14550000Y104132764D03*
X8050000Y104132764D03*
X14550000Y99632764D03*
X8050000Y99632764D03*
D14*
X12200000Y104782764D03*
X10400000Y104782764D03*
X10400000Y98982764D03*
X12200000Y98982764D03*
G04 #@! TD*
D12*
G04 #@! TO.C,J5*
X13482000Y7907764D03*
X2509200Y7907764D03*
X4922200Y7907764D03*
G04 #@! TD*
G04 #@! TO.C,J9*
X55137000Y7907764D03*
X44164200Y7907764D03*
X46577200Y7907764D03*
G04 #@! TD*
G04 #@! TO.C,J8*
X74932000Y23332764D03*
X63959200Y23332764D03*
X66372200Y23332764D03*
G04 #@! TD*
G04 #@! TO.C,J1*
X53282000Y39132764D03*
X42309200Y39132764D03*
X44722200Y39132764D03*
G04 #@! TD*
G04 #@! TO.C,J11*
X74932000Y7907764D03*
X63959200Y7907764D03*
X66372200Y7907764D03*
G04 #@! TD*
G04 #@! TO.C,J13*
X33250000Y23332764D03*
X22277200Y23332764D03*
X24690200Y23332764D03*
G04 #@! TD*
D17*
G04 #@! TO.C,POT_START1*
X56700000Y47821681D03*
X51700000Y47821681D03*
X46700000Y47821681D03*
G04 #@! TD*
D13*
G04 #@! TO.C,PLAY_BUT1*
X41996000Y101857764D03*
X36004000Y101857764D03*
X41996000Y97357764D03*
X36004000Y97357764D03*
D14*
X39900000Y102507764D03*
X38100000Y102507764D03*
X38100000Y96707764D03*
X39900000Y96707764D03*
G04 #@! TD*
D17*
G04 #@! TO.C,POT_SAMP1*
X16100000Y67453764D03*
X11100000Y67453764D03*
X6100000Y67453764D03*
G04 #@! TD*
D12*
G04 #@! TO.C,J3*
X16882000Y39132764D03*
X5909200Y39132764D03*
X8322200Y39132764D03*
G04 #@! TD*
M02*
