G04 #@! TF.GenerationSoftware,KiCad,Pcbnew,7.0.1-0*
G04 #@! TF.CreationDate,2023-03-29T13:01:15-07:00*
G04 #@! TF.ProjectId,Kit-Trig-Sampler,4b69742d-5472-4696-972d-53616d706c65,rev?*
G04 #@! TF.SameCoordinates,PXb71b00PY73f50f0*
G04 #@! TF.FileFunction,Paste,Top*
G04 #@! TF.FilePolarity,Positive*
%FSLAX46Y46*%
G04 Gerber Fmt 4.6, Leading zero omitted, Abs format (unit mm)*
G04 Created by KiCad (PCBNEW 7.0.1-0) date 2023-03-29 13:01:15*
%MOMM*%
%LPD*%
G01*
G04 APERTURE LIST*
G04 Aperture macros list*
%AMOutline4P*
0 Free polygon, 4 corners , with rotation*
0 The origin of the aperture is its center*
0 number of corners: always 4*
0 $1 to $8 corner X, Y*
0 $9 Rotation angle, in degrees counterclockwise*
0 create outline with 4 corners*
4,1,4,$1,$2,$3,$4,$5,$6,$7,$8,$1,$2,$9*%
G04 Aperture macros list end*
%ADD10R,1.000000X1.000000*%
%ADD11R,1.200000X0.900000*%
%ADD12R,3.000000X1.600000*%
%ADD13R,1.450000X0.450000*%
%ADD14R,1.500000X1.000000*%
%ADD15R,1.800000X1.000000*%
%ADD16Outline4P,-1.100000X-0.500000X1.100000X-0.500000X0.400000X0.500000X-0.400000X0.500000X270.000000*%
%ADD17R,1.840000X2.200000*%
%ADD18Outline4P,-1.100000X-0.425000X1.100000X-0.425000X0.500000X0.425000X-0.500000X0.425000X90.000000*%
G04 APERTURE END LIST*
D10*
G04 #@! TO.C,C7*
X49060000Y10330000D03*
X50760000Y10330000D03*
G04 #@! TD*
G04 #@! TO.C,C17*
X31200000Y101210000D03*
X31200000Y102910000D03*
G04 #@! TD*
G04 #@! TO.C,R26*
X33000000Y102910000D03*
X33000000Y101210000D03*
G04 #@! TD*
G04 #@! TO.C,R2*
X50710000Y39230000D03*
X50710000Y37530000D03*
G04 #@! TD*
G04 #@! TO.C,R37*
X59760000Y54710000D03*
X61460000Y54710000D03*
G04 #@! TD*
D11*
G04 #@! TO.C,D2*
X34870000Y10420000D03*
X34870000Y13720000D03*
G04 #@! TD*
D10*
G04 #@! TO.C,R33*
X36050000Y23370000D03*
X36050000Y25070000D03*
G04 #@! TD*
G04 #@! TO.C,R16*
X68600000Y93260000D03*
X68600000Y94960000D03*
G04 #@! TD*
G04 #@! TO.C,C1*
X68620000Y71040000D03*
X70320000Y71040000D03*
G04 #@! TD*
D12*
G04 #@! TO.C,C4*
X46260000Y14130000D03*
X50660000Y14130000D03*
G04 #@! TD*
D10*
G04 #@! TO.C,R5*
X48870000Y39200000D03*
X48870000Y37500000D03*
G04 #@! TD*
G04 #@! TO.C,R14*
X16310000Y14290000D03*
X16310000Y12590000D03*
G04 #@! TD*
G04 #@! TO.C,R25*
X60490000Y104840000D03*
X60490000Y103140000D03*
G04 #@! TD*
G04 #@! TO.C,C15*
X14590000Y17740000D03*
X12890000Y17740000D03*
G04 #@! TD*
G04 #@! TO.C,C19*
X50110000Y81720000D03*
X50110000Y83420000D03*
G04 #@! TD*
G04 #@! TO.C,C20*
X45840000Y85680000D03*
X47540000Y85680000D03*
G04 #@! TD*
D11*
G04 #@! TO.C,D1*
X43160000Y16100000D03*
X43160000Y12800000D03*
G04 #@! TD*
D10*
G04 #@! TO.C,C13*
X69350000Y54880000D03*
X67650000Y54880000D03*
G04 #@! TD*
G04 #@! TO.C,R23*
X44510000Y99160000D03*
X46210000Y99160000D03*
G04 #@! TD*
G04 #@! TO.C,C9*
X27850000Y51610000D03*
X29550000Y51610000D03*
G04 #@! TD*
G04 #@! TO.C,R17*
X37570000Y21730000D03*
X39270000Y21730000D03*
G04 #@! TD*
D13*
G04 #@! TO.C,U1*
X69350000Y51155000D03*
X69350000Y51805000D03*
X69350000Y52455000D03*
X69350000Y53105000D03*
X63450000Y53105000D03*
X63450000Y52455000D03*
X63450000Y51805000D03*
X63450000Y51155000D03*
G04 #@! TD*
D10*
G04 #@! TO.C,R30*
X21080000Y83140000D03*
X22780000Y83140000D03*
G04 #@! TD*
G04 #@! TO.C,R21*
X10600000Y94580000D03*
X10600000Y96280000D03*
G04 #@! TD*
G04 #@! TO.C,R4*
X16880000Y36160000D03*
X16880000Y34460000D03*
G04 #@! TD*
G04 #@! TO.C,R28*
X21090000Y84970000D03*
X22790000Y84970000D03*
G04 #@! TD*
G04 #@! TO.C,R40*
X65150000Y93320000D03*
X66850000Y93320000D03*
G04 #@! TD*
G04 #@! TO.C,R1*
X71220000Y50390000D03*
X71220000Y52090000D03*
G04 #@! TD*
G04 #@! TO.C,R41*
X10610000Y91170000D03*
X10610000Y92870000D03*
G04 #@! TD*
G04 #@! TO.C,R12*
X17990000Y16580000D03*
X16290000Y16580000D03*
G04 #@! TD*
G04 #@! TO.C,C8*
X30960000Y11900000D03*
X29260000Y11900000D03*
G04 #@! TD*
G04 #@! TO.C,R27*
X19030000Y103000000D03*
X19030000Y101300000D03*
G04 #@! TD*
G04 #@! TO.C,C6*
X63820000Y46070000D03*
X65520000Y46070000D03*
G04 #@! TD*
G04 #@! TO.C,R6*
X27630000Y36880000D03*
X29330000Y36880000D03*
G04 #@! TD*
G04 #@! TO.C,R9*
X59790000Y51360000D03*
X59790000Y53060000D03*
G04 #@! TD*
G04 #@! TO.C,R32*
X21210000Y81110000D03*
X22910000Y81110000D03*
G04 #@! TD*
G04 #@! TO.C,C2*
X12770000Y71290000D03*
X14470000Y71290000D03*
G04 #@! TD*
G04 #@! TO.C,R13*
X12710000Y12100000D03*
X14410000Y12100000D03*
G04 #@! TD*
G04 #@! TO.C,R19*
X34110000Y94320000D03*
X35810000Y94320000D03*
G04 #@! TD*
D12*
G04 #@! TO.C,C5*
X27460000Y15900000D03*
X31860000Y15900000D03*
G04 #@! TD*
D10*
G04 #@! TO.C,C14*
X9170000Y12130000D03*
X10870000Y12130000D03*
G04 #@! TD*
G04 #@! TO.C,R34*
X39490000Y24980000D03*
X37790000Y24980000D03*
G04 #@! TD*
G04 #@! TO.C,R31*
X21300000Y78960000D03*
X23000000Y78960000D03*
G04 #@! TD*
D13*
G04 #@! TO.C,U2*
X14310000Y13985000D03*
X14310000Y14635000D03*
X14310000Y15285000D03*
X14310000Y15935000D03*
X8410000Y15935000D03*
X8410000Y15285000D03*
X8410000Y14635000D03*
X8410000Y13985000D03*
G04 #@! TD*
D10*
G04 #@! TO.C,R7*
X19010000Y32660000D03*
X19010000Y34360000D03*
G04 #@! TD*
D14*
G04 #@! TO.C,U3*
X48260000Y80480000D03*
D15*
X48113500Y81980000D03*
D16*
X46856200Y81980000D03*
D17*
X45446500Y81980000D03*
D18*
X44113000Y81980000D03*
D14*
X48260000Y83480000D03*
G04 #@! TD*
D10*
G04 #@! TO.C,C12*
X64940000Y54950000D03*
X63240000Y54950000D03*
G04 #@! TD*
G04 #@! TO.C,C16*
X58740000Y103210000D03*
X58740000Y101510000D03*
G04 #@! TD*
G04 #@! TO.C,R11*
X61500000Y56380000D03*
X59800000Y56380000D03*
G04 #@! TD*
G04 #@! TO.C,R10*
X63870000Y47690000D03*
X65570000Y47690000D03*
G04 #@! TD*
G04 #@! TO.C,R15*
X19640000Y12470000D03*
X21340000Y12470000D03*
G04 #@! TD*
G04 #@! TO.C,C11*
X17980000Y14230000D03*
X17980000Y12530000D03*
G04 #@! TD*
G04 #@! TO.C,R18*
X41890000Y94110000D03*
X40190000Y94110000D03*
G04 #@! TD*
G04 #@! TO.C,R8*
X67380000Y49400000D03*
X65680000Y49400000D03*
G04 #@! TD*
G04 #@! TO.C,C3*
X61570000Y51420000D03*
X61570000Y53120000D03*
G04 #@! TD*
G04 #@! TO.C,R3*
X32530000Y39270000D03*
X32530000Y37570000D03*
G04 #@! TD*
G04 #@! TO.C,C10*
X55180000Y44410000D03*
X56880000Y44410000D03*
G04 #@! TD*
M02*
