G04 #@! TF.GenerationSoftware,KiCad,Pcbnew,8.0.5*
G04 #@! TF.CreationDate,2024-10-08T11:29:37-07:00*
G04 #@! TF.ProjectId,Sampler-built,53616d70-6c65-4722-9d62-75696c742e6b,rev?*
G04 #@! TF.SameCoordinates,PX815dad0PY77b6f90*
G04 #@! TF.FileFunction,Soldermask,Bot*
G04 #@! TF.FilePolarity,Negative*
%FSLAX46Y46*%
G04 Gerber Fmt 4.6, Leading zero omitted, Abs format (unit mm)*
G04 Created by KiCad (PCBNEW 8.0.5) date 2024-10-08 11:29:37*
%MOMM*%
%LPD*%
G01*
G04 APERTURE LIST*
G04 Aperture macros list*
%AMRoundRect*
0 Rectangle with rounded corners*
0 $1 Rounding radius*
0 $2 $3 $4 $5 $6 $7 $8 $9 X,Y pos of 4 corners*
0 Add a 4 corners polygon primitive as box body*
4,1,4,$2,$3,$4,$5,$6,$7,$8,$9,$2,$3,0*
0 Add four circle primitives for the rounded corners*
1,1,$1+$1,$2,$3*
1,1,$1+$1,$4,$5*
1,1,$1+$1,$6,$7*
1,1,$1+$1,$8,$9*
0 Add four rect primitives between the rounded corners*
20,1,$1+$1,$2,$3,$4,$5,0*
20,1,$1+$1,$4,$5,$6,$7,0*
20,1,$1+$1,$6,$7,$8,$9,0*
20,1,$1+$1,$8,$9,$2,$3,0*%
G04 Aperture macros list end*
%ADD10C,1.700000*%
%ADD11O,1.700000X1.700000*%
%ADD12R,1.700000X1.700000*%
%ADD13C,1.930400*%
%ADD14RoundRect,0.147500X-0.172500X0.147500X-0.172500X-0.147500X0.172500X-0.147500X0.172500X0.147500X0*%
%ADD15C,1.800000*%
%ADD16C,1.500000*%
%ADD17O,1.397000X1.092200*%
%ADD18O,1.524000X1.524000*%
%ADD19R,1.000000X1.000000*%
%ADD20C,2.540000*%
%ADD21RoundRect,0.147500X0.172500X-0.147500X0.172500X0.147500X-0.172500X0.147500X-0.172500X-0.147500X0*%
%ADD22RoundRect,0.147500X0.017678X-0.226274X0.226274X-0.017678X-0.017678X0.226274X-0.226274X0.017678X0*%
G04 APERTURE END LIST*
D10*
G04 #@! TO.C,J4*
X27646648Y91469922D03*
X27646648Y94009922D03*
D11*
X30186648Y91469922D03*
X30186648Y94009922D03*
X32726648Y91469922D03*
X32726648Y94009922D03*
D10*
X35266648Y91469922D03*
X35266648Y94009922D03*
G04 #@! TD*
D12*
G04 #@! TO.C,J3*
X57226648Y80469922D03*
D11*
X57226648Y77929922D03*
X57226648Y75389922D03*
X57226648Y72849922D03*
G04 #@! TD*
G04 #@! TO.C,J10*
X14936648Y23659922D03*
X17476648Y23659922D03*
X14936648Y21119922D03*
X17476648Y21119922D03*
X14936648Y18579922D03*
X17476648Y18579922D03*
X14936648Y16039922D03*
X17476648Y16039922D03*
X14936648Y13499922D03*
X17476648Y13499922D03*
G04 #@! TD*
D13*
G04 #@! TO.C,J12*
X8608648Y27146922D03*
X8608648Y16174122D03*
X8608648Y18587122D03*
G04 #@! TD*
G04 #@! TO.C,J17*
X36800848Y1687362D03*
X36800848Y12660162D03*
X36800848Y10247162D03*
G04 #@! TD*
G04 #@! TO.C,J16*
X52300848Y1687362D03*
X52300848Y12660162D03*
X52300848Y10247162D03*
G04 #@! TD*
D14*
G04 #@! TO.C,C30*
X30766648Y43444922D03*
X30766648Y42474922D03*
G04 #@! TD*
D15*
G04 #@! TO.C,Bank_But1*
X53008648Y104839922D03*
X46508648Y104839922D03*
X53008648Y100339922D03*
X46508648Y100339922D03*
D16*
X50658648Y105489922D03*
X48858648Y105489922D03*
X48858648Y99689922D03*
X50658648Y99689922D03*
G04 #@! TD*
D17*
G04 #@! TO.C,SD1*
X31946648Y79490171D03*
X33046468Y80589991D03*
X31946648Y81690065D03*
X33046468Y82789885D03*
X31946648Y83889959D03*
X33046468Y84989779D03*
X31946648Y86089853D03*
X33046468Y87189673D03*
D18*
X28776728Y79047322D03*
X28776728Y87632522D03*
G04 #@! TD*
D19*
G04 #@! TO.C,C4*
X30980148Y63566600D03*
X30980148Y65266600D03*
G04 #@! TD*
D20*
G04 #@! TO.C,POT_LENGTH1*
X15508648Y48985922D03*
X10508648Y48985922D03*
X5508648Y48985922D03*
G04 #@! TD*
D13*
G04 #@! TO.C,J2*
X36636648Y42146922D03*
X36636648Y31174122D03*
X36636648Y33587122D03*
G04 #@! TD*
D20*
G04 #@! TO.C,POT_PITCH1*
X52136648Y74985922D03*
X47136648Y74985922D03*
X42136648Y74985922D03*
G04 #@! TD*
D13*
G04 #@! TO.C,J7*
X13815648Y36939922D03*
X2842848Y36939922D03*
X5255848Y36939922D03*
G04 #@! TD*
D14*
G04 #@! TO.C,C32*
X29054076Y43659376D03*
X29054076Y42689376D03*
G04 #@! TD*
D13*
G04 #@! TO.C,J6*
X29343648Y36939922D03*
X18370848Y36939922D03*
X20783848Y36939922D03*
G04 #@! TD*
G04 #@! TO.C,J15*
X24136648Y1732922D03*
X24136648Y12705722D03*
X24136648Y10292722D03*
G04 #@! TD*
D15*
G04 #@! TO.C,REV_BUT1*
X14136648Y104839922D03*
X7636648Y104839922D03*
X14136648Y100339922D03*
X7636648Y100339922D03*
D16*
X11786648Y105489922D03*
X9986648Y105489922D03*
X9986648Y99689922D03*
X11786648Y99689922D03*
G04 #@! TD*
D14*
G04 #@! TO.C,C28*
X29489940Y46215632D03*
X29489940Y45245632D03*
G04 #@! TD*
D21*
G04 #@! TO.C,C33*
X28473940Y46010680D03*
X28473940Y46980680D03*
G04 #@! TD*
D13*
G04 #@! TO.C,J9*
X24136648Y27146922D03*
X24136648Y16174122D03*
X24136648Y18587122D03*
G04 #@! TD*
G04 #@! TO.C,J8*
X46929648Y36939922D03*
X57902448Y36939922D03*
X55489448Y36939922D03*
G04 #@! TD*
G04 #@! TO.C,J11*
X8608648Y1732922D03*
X8608648Y12705722D03*
X8608648Y10292722D03*
G04 #@! TD*
G04 #@! TO.C,J13*
X46929648Y21939922D03*
X57902448Y21939922D03*
X55489448Y21939922D03*
G04 #@! TD*
D20*
G04 #@! TO.C,POT_START1*
X55136648Y48985922D03*
X50136648Y48985922D03*
X45136648Y48985922D03*
G04 #@! TD*
D13*
G04 #@! TO.C,J14*
X41843648Y21939922D03*
X30870848Y21939922D03*
X33283848Y21939922D03*
G04 #@! TD*
D15*
G04 #@! TO.C,PLAY_BUT1*
X33322648Y102739922D03*
X27330648Y102739922D03*
X33322648Y98239922D03*
X27330648Y98239922D03*
D16*
X31226648Y103389922D03*
X29426648Y103389922D03*
X29426648Y97589922D03*
X31226648Y97589922D03*
G04 #@! TD*
D22*
G04 #@! TO.C,C27*
X29617201Y48143653D03*
X30303095Y48829547D03*
G04 #@! TD*
D21*
G04 #@! TO.C,C31*
X28094972Y42746272D03*
X28094972Y43716272D03*
G04 #@! TD*
D20*
G04 #@! TO.C,POT_SAMP1*
X18440000Y75166000D03*
X13440000Y75166000D03*
X8440000Y75166000D03*
G04 #@! TD*
M02*
