G04 #@! TF.GenerationSoftware,KiCad,Pcbnew,8.0.5*
G04 #@! TF.CreationDate,2024-10-08T11:29:37-07:00*
G04 #@! TF.ProjectId,Sampler-built,53616d70-6c65-4722-9d62-75696c742e6b,rev?*
G04 #@! TF.SameCoordinates,PX815dad0PY77b6f90*
G04 #@! TF.FileFunction,Legend,Bot*
G04 #@! TF.FilePolarity,Positive*
%FSLAX46Y46*%
G04 Gerber Fmt 4.6, Leading zero omitted, Abs format (unit mm)*
G04 Created by KiCad (PCBNEW 8.0.5) date 2024-10-08 11:29:37*
%MOMM*%
%LPD*%
G01*
G04 APERTURE LIST*
G04 Aperture macros list*
%AMRoundRect*
0 Rectangle with rounded corners*
0 $1 Rounding radius*
0 $2 $3 $4 $5 $6 $7 $8 $9 X,Y pos of 4 corners*
0 Add a 4 corners polygon primitive as box body*
4,1,4,$2,$3,$4,$5,$6,$7,$8,$9,$2,$3,0*
0 Add four circle primitives for the rounded corners*
1,1,$1+$1,$2,$3*
1,1,$1+$1,$4,$5*
1,1,$1+$1,$6,$7*
1,1,$1+$1,$8,$9*
0 Add four rect primitives between the rounded corners*
20,1,$1+$1,$2,$3,$4,$5,0*
20,1,$1+$1,$4,$5,$6,$7,0*
20,1,$1+$1,$6,$7,$8,$9,0*
20,1,$1+$1,$8,$9,$2,$3,0*%
G04 Aperture macros list end*
%ADD10C,0.152400*%
%ADD11C,0.149860*%
%ADD12C,0.150000*%
%ADD13C,0.203200*%
%ADD14C,0.120000*%
%ADD15C,0.127000*%
%ADD16C,0.254000*%
%ADD17C,0.100000*%
%ADD18C,0.400000*%
%ADD19C,0.508000*%
%ADD20C,1.700000*%
%ADD21O,1.700000X1.700000*%
%ADD22R,1.700000X1.700000*%
%ADD23C,1.930400*%
%ADD24RoundRect,0.147500X-0.172500X0.147500X-0.172500X-0.147500X0.172500X-0.147500X0.172500X0.147500X0*%
%ADD25C,1.800000*%
%ADD26C,1.500000*%
%ADD27O,1.397000X1.092200*%
%ADD28O,1.524000X1.524000*%
%ADD29R,1.000000X1.000000*%
%ADD30C,2.540000*%
%ADD31RoundRect,0.147500X0.172500X-0.147500X0.172500X0.147500X-0.172500X0.147500X-0.172500X-0.147500X0*%
%ADD32RoundRect,0.147500X0.017678X-0.226274X0.226274X-0.017678X-0.017678X0.226274X-0.226274X0.017678X0*%
G04 APERTURE END LIST*
D10*
X7275620Y26385830D02*
X7275620Y25814402D01*
X7275620Y25814402D02*
X7333073Y25700116D01*
X7333073Y25700116D02*
X7447977Y25623925D01*
X7447977Y25623925D02*
X7620335Y25585830D01*
X7620335Y25585830D02*
X7735239Y25585830D01*
X6069120Y25585830D02*
X6758549Y25585830D01*
X6413835Y25585830D02*
X6413835Y26385830D01*
X6413835Y26385830D02*
X6528739Y26271545D01*
X6528739Y26271545D02*
X6643644Y26195354D01*
X6643644Y26195354D02*
X6758549Y26157259D01*
X5609501Y26309640D02*
X5552049Y26347735D01*
X5552049Y26347735D02*
X5437144Y26385830D01*
X5437144Y26385830D02*
X5149882Y26385830D01*
X5149882Y26385830D02*
X5034977Y26347735D01*
X5034977Y26347735D02*
X4977525Y26309640D01*
X4977525Y26309640D02*
X4920072Y26233449D01*
X4920072Y26233449D02*
X4920072Y26157259D01*
X4920072Y26157259D02*
X4977525Y26042973D01*
X4977525Y26042973D02*
X5666953Y25585830D01*
X5666953Y25585830D02*
X4920072Y25585830D01*
X35207760Y4135830D02*
X35207760Y3564402D01*
X35207760Y3564402D02*
X35265213Y3450116D01*
X35265213Y3450116D02*
X35380117Y3373925D01*
X35380117Y3373925D02*
X35552475Y3335830D01*
X35552475Y3335830D02*
X35667379Y3335830D01*
X34001260Y3335830D02*
X34690689Y3335830D01*
X34345975Y3335830D02*
X34345975Y4135830D01*
X34345975Y4135830D02*
X34460879Y4021545D01*
X34460879Y4021545D02*
X34575784Y3945354D01*
X34575784Y3945354D02*
X34690689Y3907259D01*
X33599093Y4135830D02*
X32794760Y4135830D01*
X32794760Y4135830D02*
X33311831Y3335830D01*
X55975620Y3925830D02*
X55975620Y3354402D01*
X55975620Y3354402D02*
X56033073Y3240116D01*
X56033073Y3240116D02*
X56147977Y3163925D01*
X56147977Y3163925D02*
X56320335Y3125830D01*
X56320335Y3125830D02*
X56435239Y3125830D01*
X54769120Y3125830D02*
X55458549Y3125830D01*
X55113835Y3125830D02*
X55113835Y3925830D01*
X55113835Y3925830D02*
X55228739Y3811545D01*
X55228739Y3811545D02*
X55343644Y3735354D01*
X55343644Y3735354D02*
X55458549Y3697259D01*
X53734977Y3925830D02*
X53964787Y3925830D01*
X53964787Y3925830D02*
X54079691Y3887735D01*
X54079691Y3887735D02*
X54137144Y3849640D01*
X54137144Y3849640D02*
X54252049Y3735354D01*
X54252049Y3735354D02*
X54309501Y3582973D01*
X54309501Y3582973D02*
X54309501Y3278211D01*
X54309501Y3278211D02*
X54252049Y3202021D01*
X54252049Y3202021D02*
X54194596Y3163925D01*
X54194596Y3163925D02*
X54079691Y3125830D01*
X54079691Y3125830D02*
X53849882Y3125830D01*
X53849882Y3125830D02*
X53734977Y3163925D01*
X53734977Y3163925D02*
X53677525Y3202021D01*
X53677525Y3202021D02*
X53620072Y3278211D01*
X53620072Y3278211D02*
X53620072Y3468687D01*
X53620072Y3468687D02*
X53677525Y3544878D01*
X53677525Y3544878D02*
X53734977Y3582973D01*
X53734977Y3582973D02*
X53849882Y3621068D01*
X53849882Y3621068D02*
X54079691Y3621068D01*
X54079691Y3621068D02*
X54194596Y3582973D01*
X54194596Y3582973D02*
X54252049Y3544878D01*
X54252049Y3544878D02*
X54309501Y3468687D01*
D11*
X32023892Y45111693D02*
X32055219Y45147374D01*
X32055219Y45147374D02*
X32086545Y45254417D01*
X32086545Y45254417D02*
X32086545Y45325779D01*
X32086545Y45325779D02*
X32055219Y45432822D01*
X32055219Y45432822D02*
X31992565Y45504184D01*
X31992565Y45504184D02*
X31929912Y45539865D01*
X31929912Y45539865D02*
X31804605Y45575546D01*
X31804605Y45575546D02*
X31710625Y45575546D01*
X31710625Y45575546D02*
X31585319Y45539865D01*
X31585319Y45539865D02*
X31522665Y45504184D01*
X31522665Y45504184D02*
X31460012Y45432822D01*
X31460012Y45432822D02*
X31428685Y45325779D01*
X31428685Y45325779D02*
X31428685Y45254417D01*
X31428685Y45254417D02*
X31460012Y45147374D01*
X31460012Y45147374D02*
X31491339Y45111693D01*
X31428685Y44861927D02*
X31428685Y44398074D01*
X31428685Y44398074D02*
X31679299Y44647841D01*
X31679299Y44647841D02*
X31679299Y44540798D01*
X31679299Y44540798D02*
X31710625Y44469436D01*
X31710625Y44469436D02*
X31741952Y44433755D01*
X31741952Y44433755D02*
X31804605Y44398074D01*
X31804605Y44398074D02*
X31961239Y44398074D01*
X31961239Y44398074D02*
X32023892Y44433755D01*
X32023892Y44433755D02*
X32055219Y44469436D01*
X32055219Y44469436D02*
X32086545Y44540798D01*
X32086545Y44540798D02*
X32086545Y44754884D01*
X32086545Y44754884D02*
X32055219Y44826246D01*
X32055219Y44826246D02*
X32023892Y44861927D01*
X31428685Y43934222D02*
X31428685Y43862860D01*
X31428685Y43862860D02*
X31460012Y43791498D01*
X31460012Y43791498D02*
X31491339Y43755817D01*
X31491339Y43755817D02*
X31553992Y43720136D01*
X31553992Y43720136D02*
X31679299Y43684455D01*
X31679299Y43684455D02*
X31835932Y43684455D01*
X31835932Y43684455D02*
X31961239Y43720136D01*
X31961239Y43720136D02*
X32023892Y43755817D01*
X32023892Y43755817D02*
X32055219Y43791498D01*
X32055219Y43791498D02*
X32086545Y43862860D01*
X32086545Y43862860D02*
X32086545Y43934222D01*
X32086545Y43934222D02*
X32055219Y44005584D01*
X32055219Y44005584D02*
X32023892Y44041265D01*
X32023892Y44041265D02*
X31961239Y44076946D01*
X31961239Y44076946D02*
X31835932Y44112627D01*
X31835932Y44112627D02*
X31679299Y44112627D01*
X31679299Y44112627D02*
X31553992Y44076946D01*
X31553992Y44076946D02*
X31491339Y44041265D01*
X31491339Y44041265D02*
X31460012Y44005584D01*
X31460012Y44005584D02*
X31428685Y43934222D01*
D12*
X53123333Y107837536D02*
X52980476Y107798831D01*
X52980476Y107798831D02*
X52932857Y107760127D01*
X52932857Y107760127D02*
X52885238Y107682717D01*
X52885238Y107682717D02*
X52885238Y107566603D01*
X52885238Y107566603D02*
X52932857Y107489193D01*
X52932857Y107489193D02*
X52980476Y107450488D01*
X52980476Y107450488D02*
X53075714Y107411784D01*
X53075714Y107411784D02*
X53456666Y107411784D01*
X53456666Y107411784D02*
X53456666Y108224584D01*
X53456666Y108224584D02*
X53123333Y108224584D01*
X53123333Y108224584D02*
X53028095Y108185879D01*
X53028095Y108185879D02*
X52980476Y108147174D01*
X52980476Y108147174D02*
X52932857Y108069765D01*
X52932857Y108069765D02*
X52932857Y107992355D01*
X52932857Y107992355D02*
X52980476Y107914946D01*
X52980476Y107914946D02*
X53028095Y107876241D01*
X53028095Y107876241D02*
X53123333Y107837536D01*
X53123333Y107837536D02*
X53456666Y107837536D01*
X52028095Y107411784D02*
X52028095Y107837536D01*
X52028095Y107837536D02*
X52075714Y107914946D01*
X52075714Y107914946D02*
X52170952Y107953650D01*
X52170952Y107953650D02*
X52361428Y107953650D01*
X52361428Y107953650D02*
X52456666Y107914946D01*
X52028095Y107450488D02*
X52123333Y107411784D01*
X52123333Y107411784D02*
X52361428Y107411784D01*
X52361428Y107411784D02*
X52456666Y107450488D01*
X52456666Y107450488D02*
X52504285Y107527898D01*
X52504285Y107527898D02*
X52504285Y107605308D01*
X52504285Y107605308D02*
X52456666Y107682717D01*
X52456666Y107682717D02*
X52361428Y107721422D01*
X52361428Y107721422D02*
X52123333Y107721422D01*
X52123333Y107721422D02*
X52028095Y107760127D01*
X51551904Y107953650D02*
X51551904Y107411784D01*
X51551904Y107876241D02*
X51504285Y107914946D01*
X51504285Y107914946D02*
X51409047Y107953650D01*
X51409047Y107953650D02*
X51266190Y107953650D01*
X51266190Y107953650D02*
X51170952Y107914946D01*
X51170952Y107914946D02*
X51123333Y107837536D01*
X51123333Y107837536D02*
X51123333Y107411784D01*
X50647142Y107411784D02*
X50647142Y108224584D01*
X50551904Y107721422D02*
X50266190Y107411784D01*
X50266190Y107953650D02*
X50647142Y107644012D01*
X50075714Y107334374D02*
X49313809Y107334374D01*
X48742380Y107837536D02*
X48599523Y107798831D01*
X48599523Y107798831D02*
X48551904Y107760127D01*
X48551904Y107760127D02*
X48504285Y107682717D01*
X48504285Y107682717D02*
X48504285Y107566603D01*
X48504285Y107566603D02*
X48551904Y107489193D01*
X48551904Y107489193D02*
X48599523Y107450488D01*
X48599523Y107450488D02*
X48694761Y107411784D01*
X48694761Y107411784D02*
X49075713Y107411784D01*
X49075713Y107411784D02*
X49075713Y108224584D01*
X49075713Y108224584D02*
X48742380Y108224584D01*
X48742380Y108224584D02*
X48647142Y108185879D01*
X48647142Y108185879D02*
X48599523Y108147174D01*
X48599523Y108147174D02*
X48551904Y108069765D01*
X48551904Y108069765D02*
X48551904Y107992355D01*
X48551904Y107992355D02*
X48599523Y107914946D01*
X48599523Y107914946D02*
X48647142Y107876241D01*
X48647142Y107876241D02*
X48742380Y107837536D01*
X48742380Y107837536D02*
X49075713Y107837536D01*
X47647142Y107953650D02*
X47647142Y107411784D01*
X48075713Y107953650D02*
X48075713Y107527898D01*
X48075713Y107527898D02*
X48028094Y107450488D01*
X48028094Y107450488D02*
X47932856Y107411784D01*
X47932856Y107411784D02*
X47789999Y107411784D01*
X47789999Y107411784D02*
X47694761Y107450488D01*
X47694761Y107450488D02*
X47647142Y107489193D01*
X47313808Y107953650D02*
X46932856Y107953650D01*
X47170951Y108224584D02*
X47170951Y107527898D01*
X47170951Y107527898D02*
X47123332Y107450488D01*
X47123332Y107450488D02*
X47028094Y107411784D01*
X47028094Y107411784D02*
X46932856Y107411784D01*
X46075713Y107411784D02*
X46647141Y107411784D01*
X46361427Y107411784D02*
X46361427Y108224584D01*
X46361427Y108224584D02*
X46456665Y108108469D01*
X46456665Y108108469D02*
X46551903Y108031060D01*
X46551903Y108031060D02*
X46647141Y107992355D01*
X28817581Y90320332D02*
X28646153Y90281628D01*
X28646153Y90281628D02*
X28360438Y90281628D01*
X28360438Y90281628D02*
X28246153Y90320332D01*
X28246153Y90320332D02*
X28189010Y90359037D01*
X28189010Y90359037D02*
X28131867Y90436447D01*
X28131867Y90436447D02*
X28131867Y90513856D01*
X28131867Y90513856D02*
X28189010Y90591266D01*
X28189010Y90591266D02*
X28246153Y90629971D01*
X28246153Y90629971D02*
X28360438Y90668675D01*
X28360438Y90668675D02*
X28589010Y90707380D01*
X28589010Y90707380D02*
X28703295Y90746085D01*
X28703295Y90746085D02*
X28760438Y90784790D01*
X28760438Y90784790D02*
X28817581Y90862199D01*
X28817581Y90862199D02*
X28817581Y90939609D01*
X28817581Y90939609D02*
X28760438Y91017018D01*
X28760438Y91017018D02*
X28703295Y91055723D01*
X28703295Y91055723D02*
X28589010Y91094428D01*
X28589010Y91094428D02*
X28303295Y91094428D01*
X28303295Y91094428D02*
X28131867Y91055723D01*
X27617581Y90281628D02*
X27617581Y91094428D01*
X27617581Y91094428D02*
X27331867Y91094428D01*
X27331867Y91094428D02*
X27160438Y91055723D01*
X27160438Y91055723D02*
X27046153Y90978313D01*
X27046153Y90978313D02*
X26989010Y90900904D01*
X26989010Y90900904D02*
X26931867Y90746085D01*
X26931867Y90746085D02*
X26931867Y90629971D01*
X26931867Y90629971D02*
X26989010Y90475152D01*
X26989010Y90475152D02*
X27046153Y90397742D01*
X27046153Y90397742D02*
X27160438Y90320332D01*
X27160438Y90320332D02*
X27331867Y90281628D01*
X27331867Y90281628D02*
X27617581Y90281628D01*
X25789010Y90281628D02*
X26474724Y90281628D01*
X26131867Y90281628D02*
X26131867Y91094428D01*
X26131867Y91094428D02*
X26246153Y90978313D01*
X26246153Y90978313D02*
X26360438Y90900904D01*
X26360438Y90900904D02*
X26474724Y90862199D01*
X31410997Y66918334D02*
X31441950Y66949286D01*
X31441950Y66949286D02*
X31472902Y67042144D01*
X31472902Y67042144D02*
X31472902Y67104048D01*
X31472902Y67104048D02*
X31441950Y67196905D01*
X31441950Y67196905D02*
X31380045Y67258810D01*
X31380045Y67258810D02*
X31318140Y67289763D01*
X31318140Y67289763D02*
X31194330Y67320715D01*
X31194330Y67320715D02*
X31101473Y67320715D01*
X31101473Y67320715D02*
X30977664Y67289763D01*
X30977664Y67289763D02*
X30915759Y67258810D01*
X30915759Y67258810D02*
X30853854Y67196905D01*
X30853854Y67196905D02*
X30822902Y67104048D01*
X30822902Y67104048D02*
X30822902Y67042144D01*
X30822902Y67042144D02*
X30853854Y66949286D01*
X30853854Y66949286D02*
X30884807Y66918334D01*
X31039569Y66361191D02*
X31472902Y66361191D01*
X30791950Y66515953D02*
X31256235Y66670715D01*
X31256235Y66670715D02*
X31256235Y66268334D01*
D10*
X16602904Y46316421D02*
X16602904Y47129221D01*
X16602904Y47129221D02*
X16143285Y47129221D01*
X16143285Y47129221D02*
X16028380Y47090516D01*
X16028380Y47090516D02*
X15970927Y47051811D01*
X15970927Y47051811D02*
X15913475Y46974402D01*
X15913475Y46974402D02*
X15913475Y46858287D01*
X15913475Y46858287D02*
X15970927Y46780878D01*
X15970927Y46780878D02*
X16028380Y46742173D01*
X16028380Y46742173D02*
X16143285Y46703468D01*
X16143285Y46703468D02*
X16602904Y46703468D01*
X15166594Y47129221D02*
X14936785Y47129221D01*
X14936785Y47129221D02*
X14821880Y47090516D01*
X14821880Y47090516D02*
X14706975Y47013106D01*
X14706975Y47013106D02*
X14649523Y46858287D01*
X14649523Y46858287D02*
X14649523Y46587354D01*
X14649523Y46587354D02*
X14706975Y46432535D01*
X14706975Y46432535D02*
X14821880Y46355125D01*
X14821880Y46355125D02*
X14936785Y46316421D01*
X14936785Y46316421D02*
X15166594Y46316421D01*
X15166594Y46316421D02*
X15281499Y46355125D01*
X15281499Y46355125D02*
X15396404Y46432535D01*
X15396404Y46432535D02*
X15453856Y46587354D01*
X15453856Y46587354D02*
X15453856Y46858287D01*
X15453856Y46858287D02*
X15396404Y47013106D01*
X15396404Y47013106D02*
X15281499Y47090516D01*
X15281499Y47090516D02*
X15166594Y47129221D01*
X14304809Y47129221D02*
X13615380Y47129221D01*
X13960094Y46316421D02*
X13960094Y47129221D01*
X13500476Y46239011D02*
X12581237Y46239011D01*
X11719452Y46316421D02*
X12293976Y46316421D01*
X12293976Y46316421D02*
X12293976Y47129221D01*
X11317286Y46742173D02*
X10915119Y46742173D01*
X10742762Y46316421D02*
X11317286Y46316421D01*
X11317286Y46316421D02*
X11317286Y47129221D01*
X11317286Y47129221D02*
X10742762Y47129221D01*
X10225691Y46316421D02*
X10225691Y47129221D01*
X10225691Y47129221D02*
X9536262Y46316421D01*
X9536262Y46316421D02*
X9536262Y47129221D01*
X8329762Y47090516D02*
X8444667Y47129221D01*
X8444667Y47129221D02*
X8617024Y47129221D01*
X8617024Y47129221D02*
X8789381Y47090516D01*
X8789381Y47090516D02*
X8904286Y47013106D01*
X8904286Y47013106D02*
X8961739Y46935697D01*
X8961739Y46935697D02*
X9019191Y46780878D01*
X9019191Y46780878D02*
X9019191Y46664764D01*
X9019191Y46664764D02*
X8961739Y46509945D01*
X8961739Y46509945D02*
X8904286Y46432535D01*
X8904286Y46432535D02*
X8789381Y46355125D01*
X8789381Y46355125D02*
X8617024Y46316421D01*
X8617024Y46316421D02*
X8502120Y46316421D01*
X8502120Y46316421D02*
X8329762Y46355125D01*
X8329762Y46355125D02*
X8272310Y46393830D01*
X8272310Y46393830D02*
X8272310Y46664764D01*
X8272310Y46664764D02*
X8502120Y46664764D01*
X7927596Y47129221D02*
X7238167Y47129221D01*
X7582881Y46316421D02*
X7582881Y47129221D01*
X6836001Y46316421D02*
X6836001Y47129221D01*
X6836001Y46742173D02*
X6146572Y46742173D01*
X6146572Y46316421D02*
X6146572Y47129221D01*
X4940072Y46316421D02*
X5629501Y46316421D01*
X5284787Y46316421D02*
X5284787Y47129221D01*
X5284787Y47129221D02*
X5399691Y47013106D01*
X5399691Y47013106D02*
X5514596Y46935697D01*
X5514596Y46935697D02*
X5629501Y46896992D01*
X40086572Y34040197D02*
X40086572Y33459625D01*
X40086572Y33459625D02*
X40144025Y33343511D01*
X40144025Y33343511D02*
X40258929Y33266101D01*
X40258929Y33266101D02*
X40431287Y33227397D01*
X40431287Y33227397D02*
X40546191Y33227397D01*
X39569501Y33962787D02*
X39512049Y34001492D01*
X39512049Y34001492D02*
X39397144Y34040197D01*
X39397144Y34040197D02*
X39109882Y34040197D01*
X39109882Y34040197D02*
X38994977Y34001492D01*
X38994977Y34001492D02*
X38937525Y33962787D01*
X38937525Y33962787D02*
X38880072Y33885378D01*
X38880072Y33885378D02*
X38880072Y33807968D01*
X38880072Y33807968D02*
X38937525Y33691854D01*
X38937525Y33691854D02*
X39626953Y33227397D01*
X39626953Y33227397D02*
X38880072Y33227397D01*
D12*
X53390112Y78246296D02*
X53390112Y79059096D01*
X53390112Y79059096D02*
X53009160Y79059096D01*
X53009160Y79059096D02*
X52913922Y79020391D01*
X52913922Y79020391D02*
X52866303Y78981686D01*
X52866303Y78981686D02*
X52818684Y78904277D01*
X52818684Y78904277D02*
X52818684Y78788162D01*
X52818684Y78788162D02*
X52866303Y78710753D01*
X52866303Y78710753D02*
X52913922Y78672048D01*
X52913922Y78672048D02*
X53009160Y78633343D01*
X53009160Y78633343D02*
X53390112Y78633343D01*
X52199636Y79059096D02*
X52009160Y79059096D01*
X52009160Y79059096D02*
X51913922Y79020391D01*
X51913922Y79020391D02*
X51818684Y78942981D01*
X51818684Y78942981D02*
X51771065Y78788162D01*
X51771065Y78788162D02*
X51771065Y78517229D01*
X51771065Y78517229D02*
X51818684Y78362410D01*
X51818684Y78362410D02*
X51913922Y78285000D01*
X51913922Y78285000D02*
X52009160Y78246296D01*
X52009160Y78246296D02*
X52199636Y78246296D01*
X52199636Y78246296D02*
X52294874Y78285000D01*
X52294874Y78285000D02*
X52390112Y78362410D01*
X52390112Y78362410D02*
X52437731Y78517229D01*
X52437731Y78517229D02*
X52437731Y78788162D01*
X52437731Y78788162D02*
X52390112Y78942981D01*
X52390112Y78942981D02*
X52294874Y79020391D01*
X52294874Y79020391D02*
X52199636Y79059096D01*
X51485350Y79059096D02*
X50913922Y79059096D01*
X51199636Y78246296D02*
X51199636Y79059096D01*
X50818684Y78168886D02*
X50056779Y78168886D01*
X49818683Y78246296D02*
X49818683Y79059096D01*
X49818683Y79059096D02*
X49437731Y79059096D01*
X49437731Y79059096D02*
X49342493Y79020391D01*
X49342493Y79020391D02*
X49294874Y78981686D01*
X49294874Y78981686D02*
X49247255Y78904277D01*
X49247255Y78904277D02*
X49247255Y78788162D01*
X49247255Y78788162D02*
X49294874Y78710753D01*
X49294874Y78710753D02*
X49342493Y78672048D01*
X49342493Y78672048D02*
X49437731Y78633343D01*
X49437731Y78633343D02*
X49818683Y78633343D01*
X48818683Y78246296D02*
X48818683Y79059096D01*
X48485350Y79059096D02*
X47913922Y79059096D01*
X48199636Y78246296D02*
X48199636Y79059096D01*
X47009160Y78323705D02*
X47056779Y78285000D01*
X47056779Y78285000D02*
X47199636Y78246296D01*
X47199636Y78246296D02*
X47294874Y78246296D01*
X47294874Y78246296D02*
X47437731Y78285000D01*
X47437731Y78285000D02*
X47532969Y78362410D01*
X47532969Y78362410D02*
X47580588Y78439820D01*
X47580588Y78439820D02*
X47628207Y78594639D01*
X47628207Y78594639D02*
X47628207Y78710753D01*
X47628207Y78710753D02*
X47580588Y78865572D01*
X47580588Y78865572D02*
X47532969Y78942981D01*
X47532969Y78942981D02*
X47437731Y79020391D01*
X47437731Y79020391D02*
X47294874Y79059096D01*
X47294874Y79059096D02*
X47199636Y79059096D01*
X47199636Y79059096D02*
X47056779Y79020391D01*
X47056779Y79020391D02*
X47009160Y78981686D01*
X46580588Y78246296D02*
X46580588Y79059096D01*
X46580588Y78672048D02*
X46009160Y78672048D01*
X46009160Y78246296D02*
X46009160Y79059096D01*
X45009160Y78246296D02*
X45580588Y78246296D01*
X45294874Y78246296D02*
X45294874Y79059096D01*
X45294874Y79059096D02*
X45390112Y78942981D01*
X45390112Y78942981D02*
X45485350Y78865572D01*
X45485350Y78865572D02*
X45580588Y78826867D01*
D13*
X48297790Y86534282D02*
X48394552Y86495577D01*
X48394552Y86495577D02*
X48684838Y86456873D01*
X48684838Y86456873D02*
X48878362Y86456873D01*
X48878362Y86456873D02*
X49168647Y86495577D01*
X49168647Y86495577D02*
X49362171Y86572987D01*
X49362171Y86572987D02*
X49458933Y86650397D01*
X49458933Y86650397D02*
X49555695Y86805216D01*
X49555695Y86805216D02*
X49555695Y86921330D01*
X49555695Y86921330D02*
X49458933Y87076149D01*
X49458933Y87076149D02*
X49362171Y87153558D01*
X49362171Y87153558D02*
X49168647Y87230968D01*
X49168647Y87230968D02*
X48878362Y87269673D01*
X48878362Y87269673D02*
X48684838Y87269673D01*
X48684838Y87269673D02*
X48394552Y87230968D01*
X48394552Y87230968D02*
X48297790Y87192263D01*
X47717219Y87269673D02*
X46556076Y87269673D01*
X47136647Y86456873D02*
X47136647Y87269673D01*
X44717600Y86456873D02*
X45394933Y86843920D01*
X45878743Y86456873D02*
X45878743Y87269673D01*
X45878743Y87269673D02*
X45104648Y87269673D01*
X45104648Y87269673D02*
X44911124Y87230968D01*
X44911124Y87230968D02*
X44814362Y87192263D01*
X44814362Y87192263D02*
X44717600Y87114854D01*
X44717600Y87114854D02*
X44717600Y86998739D01*
X44717600Y86998739D02*
X44814362Y86921330D01*
X44814362Y86921330D02*
X44911124Y86882625D01*
X44911124Y86882625D02*
X45104648Y86843920D01*
X45104648Y86843920D02*
X45878743Y86843920D01*
D10*
X6306408Y33742355D02*
X6306408Y33161783D01*
X6306408Y33161783D02*
X6363861Y33045669D01*
X6363861Y33045669D02*
X6478765Y32968259D01*
X6478765Y32968259D02*
X6651123Y32929555D01*
X6651123Y32929555D02*
X6766027Y32929555D01*
X5846789Y33742355D02*
X5042456Y33742355D01*
X5042456Y33742355D02*
X5559527Y32929555D01*
D11*
X27223892Y43621693D02*
X27255219Y43657374D01*
X27255219Y43657374D02*
X27286545Y43764417D01*
X27286545Y43764417D02*
X27286545Y43835779D01*
X27286545Y43835779D02*
X27255219Y43942822D01*
X27255219Y43942822D02*
X27192565Y44014184D01*
X27192565Y44014184D02*
X27129912Y44049865D01*
X27129912Y44049865D02*
X27004605Y44085546D01*
X27004605Y44085546D02*
X26910625Y44085546D01*
X26910625Y44085546D02*
X26785319Y44049865D01*
X26785319Y44049865D02*
X26722665Y44014184D01*
X26722665Y44014184D02*
X26660012Y43942822D01*
X26660012Y43942822D02*
X26628685Y43835779D01*
X26628685Y43835779D02*
X26628685Y43764417D01*
X26628685Y43764417D02*
X26660012Y43657374D01*
X26660012Y43657374D02*
X26691339Y43621693D01*
X26628685Y43371927D02*
X26628685Y42908074D01*
X26628685Y42908074D02*
X26879299Y43157841D01*
X26879299Y43157841D02*
X26879299Y43050798D01*
X26879299Y43050798D02*
X26910625Y42979436D01*
X26910625Y42979436D02*
X26941952Y42943755D01*
X26941952Y42943755D02*
X27004605Y42908074D01*
X27004605Y42908074D02*
X27161239Y42908074D01*
X27161239Y42908074D02*
X27223892Y42943755D01*
X27223892Y42943755D02*
X27255219Y42979436D01*
X27255219Y42979436D02*
X27286545Y43050798D01*
X27286545Y43050798D02*
X27286545Y43264884D01*
X27286545Y43264884D02*
X27255219Y43336246D01*
X27255219Y43336246D02*
X27223892Y43371927D01*
X26691339Y42622627D02*
X26660012Y42586946D01*
X26660012Y42586946D02*
X26628685Y42515584D01*
X26628685Y42515584D02*
X26628685Y42337179D01*
X26628685Y42337179D02*
X26660012Y42265817D01*
X26660012Y42265817D02*
X26691339Y42230136D01*
X26691339Y42230136D02*
X26753992Y42194455D01*
X26753992Y42194455D02*
X26816645Y42194455D01*
X26816645Y42194455D02*
X26910625Y42230136D01*
X26910625Y42230136D02*
X27286545Y42658308D01*
X27286545Y42658308D02*
X27286545Y42194455D01*
D10*
X21929408Y33817355D02*
X21929408Y33236783D01*
X21929408Y33236783D02*
X21986861Y33120669D01*
X21986861Y33120669D02*
X22101765Y33043259D01*
X22101765Y33043259D02*
X22274123Y33004555D01*
X22274123Y33004555D02*
X22389027Y33004555D01*
X20837813Y33817355D02*
X21067623Y33817355D01*
X21067623Y33817355D02*
X21182527Y33778650D01*
X21182527Y33778650D02*
X21239980Y33739945D01*
X21239980Y33739945D02*
X21354885Y33623831D01*
X21354885Y33623831D02*
X21412337Y33469012D01*
X21412337Y33469012D02*
X21412337Y33159374D01*
X21412337Y33159374D02*
X21354885Y33081964D01*
X21354885Y33081964D02*
X21297432Y33043259D01*
X21297432Y33043259D02*
X21182527Y33004555D01*
X21182527Y33004555D02*
X20952718Y33004555D01*
X20952718Y33004555D02*
X20837813Y33043259D01*
X20837813Y33043259D02*
X20780361Y33081964D01*
X20780361Y33081964D02*
X20722908Y33159374D01*
X20722908Y33159374D02*
X20722908Y33352898D01*
X20722908Y33352898D02*
X20780361Y33430307D01*
X20780361Y33430307D02*
X20837813Y33469012D01*
X20837813Y33469012D02*
X20952718Y33507717D01*
X20952718Y33507717D02*
X21182527Y33507717D01*
X21182527Y33507717D02*
X21297432Y33469012D01*
X21297432Y33469012D02*
X21354885Y33430307D01*
X21354885Y33430307D02*
X21412337Y33352898D01*
X22705620Y4205830D02*
X22705620Y3634402D01*
X22705620Y3634402D02*
X22763073Y3520116D01*
X22763073Y3520116D02*
X22877977Y3443925D01*
X22877977Y3443925D02*
X23050335Y3405830D01*
X23050335Y3405830D02*
X23165239Y3405830D01*
X21499120Y3405830D02*
X22188549Y3405830D01*
X21843835Y3405830D02*
X21843835Y4205830D01*
X21843835Y4205830D02*
X21958739Y4091545D01*
X21958739Y4091545D02*
X22073644Y4015354D01*
X22073644Y4015354D02*
X22188549Y3977259D01*
X20407525Y4205830D02*
X20982049Y4205830D01*
X20982049Y4205830D02*
X21039501Y3824878D01*
X21039501Y3824878D02*
X20982049Y3862973D01*
X20982049Y3862973D02*
X20867144Y3901068D01*
X20867144Y3901068D02*
X20579882Y3901068D01*
X20579882Y3901068D02*
X20464977Y3862973D01*
X20464977Y3862973D02*
X20407525Y3824878D01*
X20407525Y3824878D02*
X20350072Y3748687D01*
X20350072Y3748687D02*
X20350072Y3558211D01*
X20350072Y3558211D02*
X20407525Y3482021D01*
X20407525Y3482021D02*
X20464977Y3443925D01*
X20464977Y3443925D02*
X20579882Y3405830D01*
X20579882Y3405830D02*
X20867144Y3405830D01*
X20867144Y3405830D02*
X20982049Y3443925D01*
X20982049Y3443925D02*
X21039501Y3482021D01*
D12*
X14113333Y107381784D02*
X14446666Y107768831D01*
X14684761Y107381784D02*
X14684761Y108194584D01*
X14684761Y108194584D02*
X14303809Y108194584D01*
X14303809Y108194584D02*
X14208571Y108155879D01*
X14208571Y108155879D02*
X14160952Y108117174D01*
X14160952Y108117174D02*
X14113333Y108039765D01*
X14113333Y108039765D02*
X14113333Y107923650D01*
X14113333Y107923650D02*
X14160952Y107846241D01*
X14160952Y107846241D02*
X14208571Y107807536D01*
X14208571Y107807536D02*
X14303809Y107768831D01*
X14303809Y107768831D02*
X14684761Y107768831D01*
X13684761Y107807536D02*
X13351428Y107807536D01*
X13208571Y107381784D02*
X13684761Y107381784D01*
X13684761Y107381784D02*
X13684761Y108194584D01*
X13684761Y108194584D02*
X13208571Y108194584D01*
X12922856Y108194584D02*
X12589523Y107381784D01*
X12589523Y107381784D02*
X12256190Y108194584D01*
X12160952Y107304374D02*
X11399047Y107304374D01*
X10827618Y107807536D02*
X10684761Y107768831D01*
X10684761Y107768831D02*
X10637142Y107730127D01*
X10637142Y107730127D02*
X10589523Y107652717D01*
X10589523Y107652717D02*
X10589523Y107536603D01*
X10589523Y107536603D02*
X10637142Y107459193D01*
X10637142Y107459193D02*
X10684761Y107420488D01*
X10684761Y107420488D02*
X10779999Y107381784D01*
X10779999Y107381784D02*
X11160951Y107381784D01*
X11160951Y107381784D02*
X11160951Y108194584D01*
X11160951Y108194584D02*
X10827618Y108194584D01*
X10827618Y108194584D02*
X10732380Y108155879D01*
X10732380Y108155879D02*
X10684761Y108117174D01*
X10684761Y108117174D02*
X10637142Y108039765D01*
X10637142Y108039765D02*
X10637142Y107962355D01*
X10637142Y107962355D02*
X10684761Y107884946D01*
X10684761Y107884946D02*
X10732380Y107846241D01*
X10732380Y107846241D02*
X10827618Y107807536D01*
X10827618Y107807536D02*
X11160951Y107807536D01*
X10160951Y108194584D02*
X10160951Y107536603D01*
X10160951Y107536603D02*
X10113332Y107459193D01*
X10113332Y107459193D02*
X10065713Y107420488D01*
X10065713Y107420488D02*
X9970475Y107381784D01*
X9970475Y107381784D02*
X9779999Y107381784D01*
X9779999Y107381784D02*
X9684761Y107420488D01*
X9684761Y107420488D02*
X9637142Y107459193D01*
X9637142Y107459193D02*
X9589523Y107536603D01*
X9589523Y107536603D02*
X9589523Y108194584D01*
X9256189Y108194584D02*
X8684761Y108194584D01*
X8970475Y107381784D02*
X8970475Y108194584D01*
X7827618Y107381784D02*
X8399046Y107381784D01*
X8113332Y107381784D02*
X8113332Y108194584D01*
X8113332Y108194584D02*
X8208570Y108078469D01*
X8208570Y108078469D02*
X8303808Y108001060D01*
X8303808Y108001060D02*
X8399046Y107962355D01*
D11*
X30933892Y47091693D02*
X30965219Y47127374D01*
X30965219Y47127374D02*
X30996545Y47234417D01*
X30996545Y47234417D02*
X30996545Y47305779D01*
X30996545Y47305779D02*
X30965219Y47412822D01*
X30965219Y47412822D02*
X30902565Y47484184D01*
X30902565Y47484184D02*
X30839912Y47519865D01*
X30839912Y47519865D02*
X30714605Y47555546D01*
X30714605Y47555546D02*
X30620625Y47555546D01*
X30620625Y47555546D02*
X30495319Y47519865D01*
X30495319Y47519865D02*
X30432665Y47484184D01*
X30432665Y47484184D02*
X30370012Y47412822D01*
X30370012Y47412822D02*
X30338685Y47305779D01*
X30338685Y47305779D02*
X30338685Y47234417D01*
X30338685Y47234417D02*
X30370012Y47127374D01*
X30370012Y47127374D02*
X30401339Y47091693D01*
X30401339Y46806246D02*
X30370012Y46770565D01*
X30370012Y46770565D02*
X30338685Y46699203D01*
X30338685Y46699203D02*
X30338685Y46520798D01*
X30338685Y46520798D02*
X30370012Y46449436D01*
X30370012Y46449436D02*
X30401339Y46413755D01*
X30401339Y46413755D02*
X30463992Y46378074D01*
X30463992Y46378074D02*
X30526645Y46378074D01*
X30526645Y46378074D02*
X30620625Y46413755D01*
X30620625Y46413755D02*
X30996545Y46841927D01*
X30996545Y46841927D02*
X30996545Y46378074D01*
X30620625Y45949903D02*
X30589299Y46021265D01*
X30589299Y46021265D02*
X30557972Y46056946D01*
X30557972Y46056946D02*
X30495319Y46092627D01*
X30495319Y46092627D02*
X30463992Y46092627D01*
X30463992Y46092627D02*
X30401339Y46056946D01*
X30401339Y46056946D02*
X30370012Y46021265D01*
X30370012Y46021265D02*
X30338685Y45949903D01*
X30338685Y45949903D02*
X30338685Y45807179D01*
X30338685Y45807179D02*
X30370012Y45735817D01*
X30370012Y45735817D02*
X30401339Y45700136D01*
X30401339Y45700136D02*
X30463992Y45664455D01*
X30463992Y45664455D02*
X30495319Y45664455D01*
X30495319Y45664455D02*
X30557972Y45700136D01*
X30557972Y45700136D02*
X30589299Y45735817D01*
X30589299Y45735817D02*
X30620625Y45807179D01*
X30620625Y45807179D02*
X30620625Y45949903D01*
X30620625Y45949903D02*
X30651952Y46021265D01*
X30651952Y46021265D02*
X30683279Y46056946D01*
X30683279Y46056946D02*
X30745932Y46092627D01*
X30745932Y46092627D02*
X30871239Y46092627D01*
X30871239Y46092627D02*
X30933892Y46056946D01*
X30933892Y46056946D02*
X30965219Y46021265D01*
X30965219Y46021265D02*
X30996545Y45949903D01*
X30996545Y45949903D02*
X30996545Y45807179D01*
X30996545Y45807179D02*
X30965219Y45735817D01*
X30965219Y45735817D02*
X30933892Y45700136D01*
X30933892Y45700136D02*
X30871239Y45664455D01*
X30871239Y45664455D02*
X30745932Y45664455D01*
X30745932Y45664455D02*
X30683279Y45700136D01*
X30683279Y45700136D02*
X30651952Y45735817D01*
X30651952Y45735817D02*
X30620625Y45807179D01*
X27494040Y47258293D02*
X27525367Y47293974D01*
X27525367Y47293974D02*
X27556693Y47401017D01*
X27556693Y47401017D02*
X27556693Y47472379D01*
X27556693Y47472379D02*
X27525367Y47579422D01*
X27525367Y47579422D02*
X27462713Y47650784D01*
X27462713Y47650784D02*
X27400060Y47686465D01*
X27400060Y47686465D02*
X27274753Y47722146D01*
X27274753Y47722146D02*
X27180773Y47722146D01*
X27180773Y47722146D02*
X27055467Y47686465D01*
X27055467Y47686465D02*
X26992813Y47650784D01*
X26992813Y47650784D02*
X26930160Y47579422D01*
X26930160Y47579422D02*
X26898833Y47472379D01*
X26898833Y47472379D02*
X26898833Y47401017D01*
X26898833Y47401017D02*
X26930160Y47293974D01*
X26930160Y47293974D02*
X26961487Y47258293D01*
X26898833Y47008527D02*
X26898833Y46544674D01*
X26898833Y46544674D02*
X27149447Y46794441D01*
X27149447Y46794441D02*
X27149447Y46687398D01*
X27149447Y46687398D02*
X27180773Y46616036D01*
X27180773Y46616036D02*
X27212100Y46580355D01*
X27212100Y46580355D02*
X27274753Y46544674D01*
X27274753Y46544674D02*
X27431387Y46544674D01*
X27431387Y46544674D02*
X27494040Y46580355D01*
X27494040Y46580355D02*
X27525367Y46616036D01*
X27525367Y46616036D02*
X27556693Y46687398D01*
X27556693Y46687398D02*
X27556693Y46901484D01*
X27556693Y46901484D02*
X27525367Y46972846D01*
X27525367Y46972846D02*
X27494040Y47008527D01*
X26898833Y46294908D02*
X26898833Y45831055D01*
X26898833Y45831055D02*
X27149447Y46080822D01*
X27149447Y46080822D02*
X27149447Y45973779D01*
X27149447Y45973779D02*
X27180773Y45902417D01*
X27180773Y45902417D02*
X27212100Y45866736D01*
X27212100Y45866736D02*
X27274753Y45831055D01*
X27274753Y45831055D02*
X27431387Y45831055D01*
X27431387Y45831055D02*
X27494040Y45866736D01*
X27494040Y45866736D02*
X27525367Y45902417D01*
X27525367Y45902417D02*
X27556693Y45973779D01*
X27556693Y45973779D02*
X27556693Y46187865D01*
X27556693Y46187865D02*
X27525367Y46259227D01*
X27525367Y46259227D02*
X27494040Y46294908D01*
D10*
X26747760Y26800197D02*
X26747760Y26219625D01*
X26747760Y26219625D02*
X26805213Y26103511D01*
X26805213Y26103511D02*
X26920117Y26026101D01*
X26920117Y26026101D02*
X27092475Y25987397D01*
X27092475Y25987397D02*
X27207379Y25987397D01*
X26115784Y25987397D02*
X25885975Y25987397D01*
X25885975Y25987397D02*
X25771070Y26026101D01*
X25771070Y26026101D02*
X25713618Y26064806D01*
X25713618Y26064806D02*
X25598713Y26180921D01*
X25598713Y26180921D02*
X25541260Y26335740D01*
X25541260Y26335740D02*
X25541260Y26645378D01*
X25541260Y26645378D02*
X25598713Y26722787D01*
X25598713Y26722787D02*
X25656165Y26761492D01*
X25656165Y26761492D02*
X25771070Y26800197D01*
X25771070Y26800197D02*
X26000879Y26800197D01*
X26000879Y26800197D02*
X26115784Y26761492D01*
X26115784Y26761492D02*
X26173237Y26722787D01*
X26173237Y26722787D02*
X26230689Y26645378D01*
X26230689Y26645378D02*
X26230689Y26451854D01*
X26230689Y26451854D02*
X26173237Y26374444D01*
X26173237Y26374444D02*
X26115784Y26335740D01*
X26115784Y26335740D02*
X26000879Y26297035D01*
X26000879Y26297035D02*
X25771070Y26297035D01*
X25771070Y26297035D02*
X25656165Y26335740D01*
X25656165Y26335740D02*
X25598713Y26374444D01*
X25598713Y26374444D02*
X25541260Y26451854D01*
D12*
X55247255Y34165705D02*
X55247255Y33594277D01*
X55247255Y33594277D02*
X55304398Y33479991D01*
X55304398Y33479991D02*
X55418684Y33403800D01*
X55418684Y33403800D02*
X55590112Y33365705D01*
X55590112Y33365705D02*
X55704398Y33365705D01*
X54504398Y33822848D02*
X54618683Y33860943D01*
X54618683Y33860943D02*
X54675826Y33899039D01*
X54675826Y33899039D02*
X54732969Y33975229D01*
X54732969Y33975229D02*
X54732969Y34013324D01*
X54732969Y34013324D02*
X54675826Y34089515D01*
X54675826Y34089515D02*
X54618683Y34127610D01*
X54618683Y34127610D02*
X54504398Y34165705D01*
X54504398Y34165705D02*
X54275826Y34165705D01*
X54275826Y34165705D02*
X54161541Y34127610D01*
X54161541Y34127610D02*
X54104398Y34089515D01*
X54104398Y34089515D02*
X54047255Y34013324D01*
X54047255Y34013324D02*
X54047255Y33975229D01*
X54047255Y33975229D02*
X54104398Y33899039D01*
X54104398Y33899039D02*
X54161541Y33860943D01*
X54161541Y33860943D02*
X54275826Y33822848D01*
X54275826Y33822848D02*
X54504398Y33822848D01*
X54504398Y33822848D02*
X54618683Y33784753D01*
X54618683Y33784753D02*
X54675826Y33746658D01*
X54675826Y33746658D02*
X54732969Y33670467D01*
X54732969Y33670467D02*
X54732969Y33518086D01*
X54732969Y33518086D02*
X54675826Y33441896D01*
X54675826Y33441896D02*
X54618683Y33403800D01*
X54618683Y33403800D02*
X54504398Y33365705D01*
X54504398Y33365705D02*
X54275826Y33365705D01*
X54275826Y33365705D02*
X54161541Y33403800D01*
X54161541Y33403800D02*
X54104398Y33441896D01*
X54104398Y33441896D02*
X54047255Y33518086D01*
X54047255Y33518086D02*
X54047255Y33670467D01*
X54047255Y33670467D02*
X54104398Y33746658D01*
X54104398Y33746658D02*
X54161541Y33784753D01*
X54161541Y33784753D02*
X54275826Y33822848D01*
D10*
X7065620Y4150197D02*
X7065620Y3569625D01*
X7065620Y3569625D02*
X7123073Y3453511D01*
X7123073Y3453511D02*
X7237977Y3376101D01*
X7237977Y3376101D02*
X7410335Y3337397D01*
X7410335Y3337397D02*
X7525239Y3337397D01*
X5859120Y3337397D02*
X6548549Y3337397D01*
X6203835Y3337397D02*
X6203835Y4150197D01*
X6203835Y4150197D02*
X6318739Y4034082D01*
X6318739Y4034082D02*
X6433644Y3956673D01*
X6433644Y3956673D02*
X6548549Y3917968D01*
X4710072Y3337397D02*
X5399501Y3337397D01*
X5054787Y3337397D02*
X5054787Y4150197D01*
X5054787Y4150197D02*
X5169691Y4034082D01*
X5169691Y4034082D02*
X5284596Y3956673D01*
X5284596Y3956673D02*
X5399501Y3917968D01*
X55655620Y25890197D02*
X55655620Y25309625D01*
X55655620Y25309625D02*
X55713073Y25193511D01*
X55713073Y25193511D02*
X55827977Y25116101D01*
X55827977Y25116101D02*
X56000335Y25077397D01*
X56000335Y25077397D02*
X56115239Y25077397D01*
X54449120Y25077397D02*
X55138549Y25077397D01*
X54793835Y25077397D02*
X54793835Y25890197D01*
X54793835Y25890197D02*
X54908739Y25774082D01*
X54908739Y25774082D02*
X55023644Y25696673D01*
X55023644Y25696673D02*
X55138549Y25657968D01*
X54046953Y25890197D02*
X53300072Y25890197D01*
X53300072Y25890197D02*
X53702239Y25580559D01*
X53702239Y25580559D02*
X53529882Y25580559D01*
X53529882Y25580559D02*
X53414977Y25541854D01*
X53414977Y25541854D02*
X53357525Y25503149D01*
X53357525Y25503149D02*
X53300072Y25425740D01*
X53300072Y25425740D02*
X53300072Y25232216D01*
X53300072Y25232216D02*
X53357525Y25154806D01*
X53357525Y25154806D02*
X53414977Y25116101D01*
X53414977Y25116101D02*
X53529882Y25077397D01*
X53529882Y25077397D02*
X53874596Y25077397D01*
X53874596Y25077397D02*
X53989501Y25116101D01*
X53989501Y25116101D02*
X54046953Y25154806D01*
X57179144Y46316421D02*
X57179144Y47129221D01*
X57179144Y47129221D02*
X56719525Y47129221D01*
X56719525Y47129221D02*
X56604620Y47090516D01*
X56604620Y47090516D02*
X56547167Y47051811D01*
X56547167Y47051811D02*
X56489715Y46974402D01*
X56489715Y46974402D02*
X56489715Y46858287D01*
X56489715Y46858287D02*
X56547167Y46780878D01*
X56547167Y46780878D02*
X56604620Y46742173D01*
X56604620Y46742173D02*
X56719525Y46703468D01*
X56719525Y46703468D02*
X57179144Y46703468D01*
X55742834Y47129221D02*
X55513025Y47129221D01*
X55513025Y47129221D02*
X55398120Y47090516D01*
X55398120Y47090516D02*
X55283215Y47013106D01*
X55283215Y47013106D02*
X55225763Y46858287D01*
X55225763Y46858287D02*
X55225763Y46587354D01*
X55225763Y46587354D02*
X55283215Y46432535D01*
X55283215Y46432535D02*
X55398120Y46355125D01*
X55398120Y46355125D02*
X55513025Y46316421D01*
X55513025Y46316421D02*
X55742834Y46316421D01*
X55742834Y46316421D02*
X55857739Y46355125D01*
X55857739Y46355125D02*
X55972644Y46432535D01*
X55972644Y46432535D02*
X56030096Y46587354D01*
X56030096Y46587354D02*
X56030096Y46858287D01*
X56030096Y46858287D02*
X55972644Y47013106D01*
X55972644Y47013106D02*
X55857739Y47090516D01*
X55857739Y47090516D02*
X55742834Y47129221D01*
X54881049Y47129221D02*
X54191620Y47129221D01*
X54536334Y46316421D02*
X54536334Y47129221D01*
X54076716Y46239011D02*
X53157477Y46239011D01*
X52927668Y46355125D02*
X52755311Y46316421D01*
X52755311Y46316421D02*
X52468049Y46316421D01*
X52468049Y46316421D02*
X52353144Y46355125D01*
X52353144Y46355125D02*
X52295692Y46393830D01*
X52295692Y46393830D02*
X52238239Y46471240D01*
X52238239Y46471240D02*
X52238239Y46548649D01*
X52238239Y46548649D02*
X52295692Y46626059D01*
X52295692Y46626059D02*
X52353144Y46664764D01*
X52353144Y46664764D02*
X52468049Y46703468D01*
X52468049Y46703468D02*
X52697858Y46742173D01*
X52697858Y46742173D02*
X52812763Y46780878D01*
X52812763Y46780878D02*
X52870216Y46819583D01*
X52870216Y46819583D02*
X52927668Y46896992D01*
X52927668Y46896992D02*
X52927668Y46974402D01*
X52927668Y46974402D02*
X52870216Y47051811D01*
X52870216Y47051811D02*
X52812763Y47090516D01*
X52812763Y47090516D02*
X52697858Y47129221D01*
X52697858Y47129221D02*
X52410597Y47129221D01*
X52410597Y47129221D02*
X52238239Y47090516D01*
X51893525Y47129221D02*
X51204096Y47129221D01*
X51548810Y46316421D02*
X51548810Y47129221D01*
X50859382Y46548649D02*
X50284858Y46548649D01*
X50974287Y46316421D02*
X50572120Y47129221D01*
X50572120Y47129221D02*
X50169953Y46316421D01*
X49078358Y46316421D02*
X49480525Y46703468D01*
X49767787Y46316421D02*
X49767787Y47129221D01*
X49767787Y47129221D02*
X49308168Y47129221D01*
X49308168Y47129221D02*
X49193263Y47090516D01*
X49193263Y47090516D02*
X49135810Y47051811D01*
X49135810Y47051811D02*
X49078358Y46974402D01*
X49078358Y46974402D02*
X49078358Y46858287D01*
X49078358Y46858287D02*
X49135810Y46780878D01*
X49135810Y46780878D02*
X49193263Y46742173D01*
X49193263Y46742173D02*
X49308168Y46703468D01*
X49308168Y46703468D02*
X49767787Y46703468D01*
X48733644Y47129221D02*
X48044215Y47129221D01*
X48388929Y46316421D02*
X48388929Y47129221D01*
X47010072Y46316421D02*
X47699501Y46316421D01*
X47354787Y46316421D02*
X47354787Y47129221D01*
X47354787Y47129221D02*
X47469691Y47013106D01*
X47469691Y47013106D02*
X47584596Y46935697D01*
X47584596Y46935697D02*
X47699501Y46896992D01*
X41945620Y25305830D02*
X41945620Y24734402D01*
X41945620Y24734402D02*
X42003073Y24620116D01*
X42003073Y24620116D02*
X42117977Y24543925D01*
X42117977Y24543925D02*
X42290335Y24505830D01*
X42290335Y24505830D02*
X42405239Y24505830D01*
X40739120Y24505830D02*
X41428549Y24505830D01*
X41083835Y24505830D02*
X41083835Y25305830D01*
X41083835Y25305830D02*
X41198739Y25191545D01*
X41198739Y25191545D02*
X41313644Y25115354D01*
X41313644Y25115354D02*
X41428549Y25077259D01*
X39704977Y25039164D02*
X39704977Y24505830D01*
X39992239Y25343925D02*
X40279501Y24772497D01*
X40279501Y24772497D02*
X39532620Y24772497D01*
D12*
X33855714Y105411784D02*
X33855714Y106224584D01*
X33855714Y106224584D02*
X33474762Y106224584D01*
X33474762Y106224584D02*
X33379524Y106185879D01*
X33379524Y106185879D02*
X33331905Y106147174D01*
X33331905Y106147174D02*
X33284286Y106069765D01*
X33284286Y106069765D02*
X33284286Y105953650D01*
X33284286Y105953650D02*
X33331905Y105876241D01*
X33331905Y105876241D02*
X33379524Y105837536D01*
X33379524Y105837536D02*
X33474762Y105798831D01*
X33474762Y105798831D02*
X33855714Y105798831D01*
X32379524Y105411784D02*
X32855714Y105411784D01*
X32855714Y105411784D02*
X32855714Y106224584D01*
X32093809Y105644012D02*
X31617619Y105644012D01*
X32189047Y105411784D02*
X31855714Y106224584D01*
X31855714Y106224584D02*
X31522381Y105411784D01*
X30998571Y105798831D02*
X30998571Y105411784D01*
X31331904Y106224584D02*
X30998571Y105798831D01*
X30998571Y105798831D02*
X30665238Y106224584D01*
X30570000Y105334374D02*
X29808095Y105334374D01*
X29236666Y105837536D02*
X29093809Y105798831D01*
X29093809Y105798831D02*
X29046190Y105760127D01*
X29046190Y105760127D02*
X28998571Y105682717D01*
X28998571Y105682717D02*
X28998571Y105566603D01*
X28998571Y105566603D02*
X29046190Y105489193D01*
X29046190Y105489193D02*
X29093809Y105450488D01*
X29093809Y105450488D02*
X29189047Y105411784D01*
X29189047Y105411784D02*
X29569999Y105411784D01*
X29569999Y105411784D02*
X29569999Y106224584D01*
X29569999Y106224584D02*
X29236666Y106224584D01*
X29236666Y106224584D02*
X29141428Y106185879D01*
X29141428Y106185879D02*
X29093809Y106147174D01*
X29093809Y106147174D02*
X29046190Y106069765D01*
X29046190Y106069765D02*
X29046190Y105992355D01*
X29046190Y105992355D02*
X29093809Y105914946D01*
X29093809Y105914946D02*
X29141428Y105876241D01*
X29141428Y105876241D02*
X29236666Y105837536D01*
X29236666Y105837536D02*
X29569999Y105837536D01*
X28569999Y106224584D02*
X28569999Y105566603D01*
X28569999Y105566603D02*
X28522380Y105489193D01*
X28522380Y105489193D02*
X28474761Y105450488D01*
X28474761Y105450488D02*
X28379523Y105411784D01*
X28379523Y105411784D02*
X28189047Y105411784D01*
X28189047Y105411784D02*
X28093809Y105450488D01*
X28093809Y105450488D02*
X28046190Y105489193D01*
X28046190Y105489193D02*
X27998571Y105566603D01*
X27998571Y105566603D02*
X27998571Y106224584D01*
X27665237Y106224584D02*
X27093809Y106224584D01*
X27379523Y105411784D02*
X27379523Y106224584D01*
X26236666Y105411784D02*
X26808094Y105411784D01*
X26522380Y105411784D02*
X26522380Y106224584D01*
X26522380Y106224584D02*
X26617618Y106108469D01*
X26617618Y106108469D02*
X26712856Y106031060D01*
X26712856Y106031060D02*
X26808094Y105992355D01*
D14*
X29405219Y102020898D02*
X29312362Y101982193D01*
X29312362Y101982193D02*
X29281409Y101943489D01*
X29281409Y101943489D02*
X29250457Y101866079D01*
X29250457Y101866079D02*
X29250457Y101749965D01*
X29250457Y101749965D02*
X29281409Y101672555D01*
X29281409Y101672555D02*
X29312362Y101633850D01*
X29312362Y101633850D02*
X29374267Y101595146D01*
X29374267Y101595146D02*
X29621886Y101595146D01*
X29621886Y101595146D02*
X29621886Y102407946D01*
X29621886Y102407946D02*
X29405219Y102407946D01*
X29405219Y102407946D02*
X29343314Y102369241D01*
X29343314Y102369241D02*
X29312362Y102330536D01*
X29312362Y102330536D02*
X29281409Y102253127D01*
X29281409Y102253127D02*
X29281409Y102175717D01*
X29281409Y102175717D02*
X29312362Y102098308D01*
X29312362Y102098308D02*
X29343314Y102059603D01*
X29343314Y102059603D02*
X29405219Y102020898D01*
X29405219Y102020898D02*
X29621886Y102020898D01*
X29250457Y98545146D02*
X29467124Y98932193D01*
X29621886Y98545146D02*
X29621886Y99357946D01*
X29621886Y99357946D02*
X29374267Y99357946D01*
X29374267Y99357946D02*
X29312362Y99319241D01*
X29312362Y99319241D02*
X29281409Y99280536D01*
X29281409Y99280536D02*
X29250457Y99203127D01*
X29250457Y99203127D02*
X29250457Y99087012D01*
X29250457Y99087012D02*
X29281409Y99009603D01*
X29281409Y99009603D02*
X29312362Y98970898D01*
X29312362Y98970898D02*
X29374267Y98932193D01*
X29374267Y98932193D02*
X29621886Y98932193D01*
X30981409Y99344241D02*
X31043314Y99382946D01*
X31043314Y99382946D02*
X31136171Y99382946D01*
X31136171Y99382946D02*
X31229028Y99344241D01*
X31229028Y99344241D02*
X31290933Y99266831D01*
X31290933Y99266831D02*
X31321886Y99189422D01*
X31321886Y99189422D02*
X31352838Y99034603D01*
X31352838Y99034603D02*
X31352838Y98918489D01*
X31352838Y98918489D02*
X31321886Y98763670D01*
X31321886Y98763670D02*
X31290933Y98686260D01*
X31290933Y98686260D02*
X31229028Y98608850D01*
X31229028Y98608850D02*
X31136171Y98570146D01*
X31136171Y98570146D02*
X31074267Y98570146D01*
X31074267Y98570146D02*
X30981409Y98608850D01*
X30981409Y98608850D02*
X30950457Y98647555D01*
X30950457Y98647555D02*
X30950457Y98918489D01*
X30950457Y98918489D02*
X31074267Y98918489D01*
X31449267Y102054784D02*
X30954029Y102054784D01*
X31201648Y101745146D02*
X31201648Y102364422D01*
D11*
X30065996Y50265222D02*
X30113377Y50268301D01*
X30113377Y50268301D02*
X30211219Y50321840D01*
X30211219Y50321840D02*
X30261680Y50372301D01*
X30261680Y50372301D02*
X30315219Y50470143D01*
X30315219Y50470143D02*
X30321377Y50564906D01*
X30321377Y50564906D02*
X30302305Y50634439D01*
X30302305Y50634439D02*
X30238930Y50748274D01*
X30238930Y50748274D02*
X30172476Y50814728D01*
X30172476Y50814728D02*
X30058640Y50878103D01*
X30058640Y50878103D02*
X29989108Y50897175D01*
X29989108Y50897175D02*
X29894344Y50891017D01*
X29894344Y50891017D02*
X29796502Y50837478D01*
X29796502Y50837478D02*
X29746042Y50787018D01*
X29746042Y50787018D02*
X29692502Y50689176D01*
X29692502Y50689176D02*
X29689424Y50641794D01*
X29487582Y50439952D02*
X29440200Y50436873D01*
X29440200Y50436873D02*
X29367588Y50408564D01*
X29367588Y50408564D02*
X29241437Y50282413D01*
X29241437Y50282413D02*
X29213128Y50209801D01*
X29213128Y50209801D02*
X29210049Y50162419D01*
X29210049Y50162419D02*
X29229121Y50092887D01*
X29229121Y50092887D02*
X29273424Y50048584D01*
X29273424Y50048584D02*
X29365108Y50007360D01*
X29365108Y50007360D02*
X29933687Y50044308D01*
X29933687Y50044308D02*
X29605693Y49716314D01*
X28963904Y50004880D02*
X28610681Y49651657D01*
X28610681Y49651657D02*
X29302930Y49413552D01*
X26063892Y43501693D02*
X26095219Y43537374D01*
X26095219Y43537374D02*
X26126545Y43644417D01*
X26126545Y43644417D02*
X26126545Y43715779D01*
X26126545Y43715779D02*
X26095219Y43822822D01*
X26095219Y43822822D02*
X26032565Y43894184D01*
X26032565Y43894184D02*
X25969912Y43929865D01*
X25969912Y43929865D02*
X25844605Y43965546D01*
X25844605Y43965546D02*
X25750625Y43965546D01*
X25750625Y43965546D02*
X25625319Y43929865D01*
X25625319Y43929865D02*
X25562665Y43894184D01*
X25562665Y43894184D02*
X25500012Y43822822D01*
X25500012Y43822822D02*
X25468685Y43715779D01*
X25468685Y43715779D02*
X25468685Y43644417D01*
X25468685Y43644417D02*
X25500012Y43537374D01*
X25500012Y43537374D02*
X25531339Y43501693D01*
X25468685Y43251927D02*
X25468685Y42788074D01*
X25468685Y42788074D02*
X25719299Y43037841D01*
X25719299Y43037841D02*
X25719299Y42930798D01*
X25719299Y42930798D02*
X25750625Y42859436D01*
X25750625Y42859436D02*
X25781952Y42823755D01*
X25781952Y42823755D02*
X25844605Y42788074D01*
X25844605Y42788074D02*
X26001239Y42788074D01*
X26001239Y42788074D02*
X26063892Y42823755D01*
X26063892Y42823755D02*
X26095219Y42859436D01*
X26095219Y42859436D02*
X26126545Y42930798D01*
X26126545Y42930798D02*
X26126545Y43144884D01*
X26126545Y43144884D02*
X26095219Y43216246D01*
X26095219Y43216246D02*
X26063892Y43251927D01*
X26126545Y42074455D02*
X26126545Y42502627D01*
X26126545Y42288541D02*
X25468685Y42288541D01*
X25468685Y42288541D02*
X25562665Y42359903D01*
X25562665Y42359903D02*
X25625319Y42431265D01*
X25625319Y42431265D02*
X25656645Y42502627D01*
D10*
X16769525Y78919857D02*
X16769525Y79732657D01*
X16769525Y79732657D02*
X16309906Y79732657D01*
X16309906Y79732657D02*
X16195001Y79693952D01*
X16195001Y79693952D02*
X16137548Y79655247D01*
X16137548Y79655247D02*
X16080096Y79577838D01*
X16080096Y79577838D02*
X16080096Y79461723D01*
X16080096Y79461723D02*
X16137548Y79384314D01*
X16137548Y79384314D02*
X16195001Y79345609D01*
X16195001Y79345609D02*
X16309906Y79306904D01*
X16309906Y79306904D02*
X16769525Y79306904D01*
X15333215Y79732657D02*
X15103406Y79732657D01*
X15103406Y79732657D02*
X14988501Y79693952D01*
X14988501Y79693952D02*
X14873596Y79616542D01*
X14873596Y79616542D02*
X14816144Y79461723D01*
X14816144Y79461723D02*
X14816144Y79190790D01*
X14816144Y79190790D02*
X14873596Y79035971D01*
X14873596Y79035971D02*
X14988501Y78958561D01*
X14988501Y78958561D02*
X15103406Y78919857D01*
X15103406Y78919857D02*
X15333215Y78919857D01*
X15333215Y78919857D02*
X15448120Y78958561D01*
X15448120Y78958561D02*
X15563025Y79035971D01*
X15563025Y79035971D02*
X15620477Y79190790D01*
X15620477Y79190790D02*
X15620477Y79461723D01*
X15620477Y79461723D02*
X15563025Y79616542D01*
X15563025Y79616542D02*
X15448120Y79693952D01*
X15448120Y79693952D02*
X15333215Y79732657D01*
X14471430Y79732657D02*
X13782001Y79732657D01*
X14126715Y78919857D02*
X14126715Y79732657D01*
X13667097Y78842447D02*
X12747858Y78842447D01*
X12518049Y78958561D02*
X12345692Y78919857D01*
X12345692Y78919857D02*
X12058430Y78919857D01*
X12058430Y78919857D02*
X11943525Y78958561D01*
X11943525Y78958561D02*
X11886073Y78997266D01*
X11886073Y78997266D02*
X11828620Y79074676D01*
X11828620Y79074676D02*
X11828620Y79152085D01*
X11828620Y79152085D02*
X11886073Y79229495D01*
X11886073Y79229495D02*
X11943525Y79268200D01*
X11943525Y79268200D02*
X12058430Y79306904D01*
X12058430Y79306904D02*
X12288239Y79345609D01*
X12288239Y79345609D02*
X12403144Y79384314D01*
X12403144Y79384314D02*
X12460597Y79423019D01*
X12460597Y79423019D02*
X12518049Y79500428D01*
X12518049Y79500428D02*
X12518049Y79577838D01*
X12518049Y79577838D02*
X12460597Y79655247D01*
X12460597Y79655247D02*
X12403144Y79693952D01*
X12403144Y79693952D02*
X12288239Y79732657D01*
X12288239Y79732657D02*
X12000978Y79732657D01*
X12000978Y79732657D02*
X11828620Y79693952D01*
X11369001Y79152085D02*
X10794477Y79152085D01*
X11483906Y78919857D02*
X11081739Y79732657D01*
X11081739Y79732657D02*
X10679572Y78919857D01*
X10277406Y78919857D02*
X10277406Y79732657D01*
X10277406Y79732657D02*
X9875239Y79152085D01*
X9875239Y79152085D02*
X9473072Y79732657D01*
X9473072Y79732657D02*
X9473072Y78919857D01*
X8898549Y78919857D02*
X8898549Y79732657D01*
X8898549Y79732657D02*
X8438930Y79732657D01*
X8438930Y79732657D02*
X8324025Y79693952D01*
X8324025Y79693952D02*
X8266572Y79655247D01*
X8266572Y79655247D02*
X8209120Y79577838D01*
X8209120Y79577838D02*
X8209120Y79461723D01*
X8209120Y79461723D02*
X8266572Y79384314D01*
X8266572Y79384314D02*
X8324025Y79345609D01*
X8324025Y79345609D02*
X8438930Y79306904D01*
X8438930Y79306904D02*
X8898549Y79306904D01*
X7060072Y78919857D02*
X7749501Y78919857D01*
X7404787Y78919857D02*
X7404787Y79732657D01*
X7404787Y79732657D02*
X7519691Y79616542D01*
X7519691Y79616542D02*
X7634596Y79539133D01*
X7634596Y79539133D02*
X7749501Y79500428D01*
D14*
G04 #@! TO.C,J12*
X8608648Y23439922D02*
X8608648Y20439922D01*
X10108648Y21939922D02*
X7108648Y21939922D01*
D15*
X10183448Y21952622D02*
G75*
G02*
X7033848Y21952622I-1574800J0D01*
G01*
X7033848Y21952622D02*
G75*
G02*
X10183448Y21952622I1574800J0D01*
G01*
X10894648Y21952622D02*
G75*
G02*
X6322648Y21952622I-2286000J0D01*
G01*
X6322648Y21952622D02*
G75*
G02*
X10894648Y21952622I2286000J0D01*
G01*
D16*
X13108648Y17634122D02*
X4108648Y17634122D01*
X4108648Y28142122D01*
X13108648Y28142122D01*
X13108648Y17634122D01*
D14*
G04 #@! TO.C,J17*
X35300848Y6894362D02*
X38300848Y6894362D01*
X36800848Y5394362D02*
X36800848Y8394362D01*
D15*
X39086848Y6881662D02*
G75*
G02*
X34514848Y6881662I-2286000J0D01*
G01*
X34514848Y6881662D02*
G75*
G02*
X39086848Y6881662I2286000J0D01*
G01*
X38375648Y6881662D02*
G75*
G02*
X35226048Y6881662I-1574800J0D01*
G01*
X35226048Y6881662D02*
G75*
G02*
X38375648Y6881662I1574800J0D01*
G01*
D16*
X41300848Y692162D02*
X32300848Y692162D01*
X32300848Y11200162D01*
X41300848Y11200162D01*
X41300848Y692162D01*
D14*
G04 #@! TO.C,J16*
X50800848Y6894362D02*
X53800848Y6894362D01*
X52300848Y5394362D02*
X52300848Y8394362D01*
D15*
X54586848Y6881662D02*
G75*
G02*
X50014848Y6881662I-2286000J0D01*
G01*
X50014848Y6881662D02*
G75*
G02*
X54586848Y6881662I2286000J0D01*
G01*
X53875648Y6881662D02*
G75*
G02*
X50726048Y6881662I-1574800J0D01*
G01*
X50726048Y6881662D02*
G75*
G02*
X53875648Y6881662I1574800J0D01*
G01*
D16*
X56800848Y692162D02*
X47800848Y692162D01*
X47800848Y11200162D01*
X56800848Y11200162D01*
X56800848Y692162D01*
D17*
G04 #@! TO.C,C30*
X30376648Y43114922D02*
X30376648Y42804922D01*
X31156648Y43114922D02*
X31156648Y42804922D01*
D10*
G04 #@! TO.C,Bank_But1*
X46258648Y106089922D02*
X46258648Y105891922D01*
X46258648Y103859922D02*
X46258648Y101319922D01*
X46258648Y99089922D02*
X46258648Y99289922D01*
X48258648Y106089922D02*
X46258648Y106089922D01*
X48258648Y99089922D02*
X46258648Y99089922D01*
X51258648Y106089922D02*
X53258648Y106089922D01*
X51258648Y99089922D02*
X53258648Y99089922D01*
X53258648Y106089922D02*
X53258648Y105891922D01*
X53258648Y103859922D02*
X53258648Y101319922D01*
X53258648Y99089922D02*
X53258648Y99289922D01*
X52048173Y102589922D02*
G75*
G02*
X47469123Y102589922I-2289525J0D01*
G01*
X47469123Y102589922D02*
G75*
G02*
X52048173Y102589922I2289525J0D01*
G01*
D18*
X52836629Y106399922D02*
G75*
G02*
X52268667Y106399922I-283981J0D01*
G01*
X52268667Y106399922D02*
G75*
G02*
X52836629Y106399922I283981J0D01*
G01*
D13*
G04 #@! TO.C,SD1*
X28276648Y88589922D02*
X28276648Y89039922D01*
X28276648Y79989922D02*
X28276648Y86689922D01*
X28276648Y77639922D02*
X28276648Y78089922D01*
X29426648Y88489922D02*
X29426648Y89039922D01*
X29426648Y79889922D02*
X29426648Y86789922D01*
X29426648Y77639922D02*
X29426648Y78189922D01*
X30256648Y77639922D02*
X30256648Y89039922D01*
X33276648Y89039922D02*
X28276648Y89039922D01*
X33276648Y89039922D02*
X33276648Y88039922D01*
X33276648Y79739922D02*
X33276648Y77639922D01*
X33276648Y77639922D02*
X28276648Y77639922D01*
D14*
G04 #@! TO.C,C4*
X30380148Y64566600D02*
X31580148Y64566600D01*
X31580148Y64266600D02*
X30380148Y64266600D01*
D15*
G04 #@! TO.C,POT_LENGTH1*
X3508648Y52155028D02*
X3508648Y57812922D01*
D14*
X10508648Y60439922D02*
X10508648Y63439922D01*
X12008648Y61939922D02*
X9008648Y61939922D01*
D15*
X13246648Y63844922D02*
X7770648Y63844922D01*
X17055542Y51574922D02*
X4088754Y51574922D01*
X17508648Y57812922D02*
X17508648Y52028028D01*
X4088754Y51574922D02*
G75*
G02*
X3508648Y52155028I-6J580100D01*
G01*
D13*
X7460648Y58891922D02*
G75*
G02*
X13556648Y58891922I3048000J3048000D01*
G01*
D15*
X17508648Y52028028D02*
G75*
G02*
X17055542Y51574922I-453107J1D01*
G01*
X18636648Y61939922D02*
G75*
G02*
X2380648Y61939922I-8128000J0D01*
G01*
X2380648Y61939922D02*
G75*
G02*
X18636648Y61939922I8128000J0D01*
G01*
X14508648Y61939922D02*
G75*
G02*
X6508648Y61939922I-4000000J0D01*
G01*
X6508648Y61939922D02*
G75*
G02*
X14508648Y61939922I4000000J0D01*
G01*
X13908648Y61939922D02*
G75*
G02*
X7108648Y61939922I-3400000J0D01*
G01*
X7108648Y61939922D02*
G75*
G02*
X13908648Y61939922I3400000J0D01*
G01*
D14*
G04 #@! TO.C,J2*
X36636648Y38439922D02*
X36636648Y35439922D01*
X38136648Y36939922D02*
X35136648Y36939922D01*
D15*
X38211448Y36952622D02*
G75*
G02*
X35061848Y36952622I-1574800J0D01*
G01*
X35061848Y36952622D02*
G75*
G02*
X38211448Y36952622I1574800J0D01*
G01*
X38922648Y36952622D02*
G75*
G02*
X34350648Y36952622I-2286000J0D01*
G01*
X34350648Y36952622D02*
G75*
G02*
X38922648Y36952622I2286000J0D01*
G01*
D16*
X41136648Y32634122D02*
X32136648Y32634122D01*
X32136648Y43142122D01*
X41136648Y43142122D01*
X41136648Y32634122D01*
D15*
G04 #@! TO.C,POT_PITCH1*
X40136648Y78155028D02*
X40136648Y83812922D01*
D19*
X47136648Y91239922D02*
X47136648Y89439922D01*
D14*
X47136648Y86439922D02*
X47136648Y89439922D01*
X48636648Y87939922D02*
X45636648Y87939922D01*
D15*
X49874648Y89844922D02*
X44398648Y89844922D01*
X53683542Y77574922D02*
X40716754Y77574922D01*
X54136648Y83812922D02*
X54136648Y78028028D01*
X40716754Y77574922D02*
G75*
G02*
X40136648Y78155028I-6J580100D01*
G01*
X54136648Y78028028D02*
G75*
G02*
X53683542Y77574922I-453107J1D01*
G01*
X55264648Y87939922D02*
G75*
G02*
X39008648Y87939922I-8128000J0D01*
G01*
X39008648Y87939922D02*
G75*
G02*
X55264648Y87939922I8128000J0D01*
G01*
X51136648Y87939922D02*
G75*
G02*
X43136648Y87939922I-4000000J0D01*
G01*
X43136648Y87939922D02*
G75*
G02*
X51136648Y87939922I4000000J0D01*
G01*
X50536648Y87939922D02*
G75*
G02*
X43736648Y87939922I-3400000J0D01*
G01*
X43736648Y87939922D02*
G75*
G02*
X50536648Y87939922I3400000J0D01*
G01*
D14*
G04 #@! TO.C,J7*
X8608648Y35439922D02*
X8608648Y38439922D01*
X10108648Y36939922D02*
X7108648Y36939922D01*
D15*
X10907348Y36939922D02*
G75*
G02*
X6335348Y36939922I-2286000J0D01*
G01*
X6335348Y36939922D02*
G75*
G02*
X10907348Y36939922I2286000J0D01*
G01*
X10196148Y36939922D02*
G75*
G02*
X7046548Y36939922I-1574800J0D01*
G01*
X7046548Y36939922D02*
G75*
G02*
X10196148Y36939922I1574800J0D01*
G01*
D16*
X14810848Y32439922D02*
X4302848Y32439922D01*
X4302848Y41439922D01*
X14810848Y41439922D01*
X14810848Y32439922D01*
D17*
G04 #@! TO.C,C32*
X28664076Y43329376D02*
X28664076Y43019376D01*
X29444076Y43329376D02*
X29444076Y43019376D01*
D14*
G04 #@! TO.C,J6*
X24136648Y35439922D02*
X24136648Y38439922D01*
X25636648Y36939922D02*
X22636648Y36939922D01*
D15*
X26435348Y36939922D02*
G75*
G02*
X21863348Y36939922I-2286000J0D01*
G01*
X21863348Y36939922D02*
G75*
G02*
X26435348Y36939922I2286000J0D01*
G01*
X25724148Y36939922D02*
G75*
G02*
X22574548Y36939922I-1574800J0D01*
G01*
X22574548Y36939922D02*
G75*
G02*
X25724148Y36939922I1574800J0D01*
G01*
D16*
X30338848Y32439922D02*
X19830848Y32439922D01*
X19830848Y41439922D01*
X30338848Y41439922D01*
X30338848Y32439922D01*
D14*
G04 #@! TO.C,J15*
X22636648Y6939922D02*
X25636648Y6939922D01*
X24136648Y5439922D02*
X24136648Y8439922D01*
D15*
X26422648Y6927222D02*
G75*
G02*
X21850648Y6927222I-2286000J0D01*
G01*
X21850648Y6927222D02*
G75*
G02*
X26422648Y6927222I2286000J0D01*
G01*
X25711448Y6927222D02*
G75*
G02*
X22561848Y6927222I-1574800J0D01*
G01*
X22561848Y6927222D02*
G75*
G02*
X25711448Y6927222I1574800J0D01*
G01*
D16*
X28636648Y737722D02*
X19636648Y737722D01*
X19636648Y11245722D01*
X28636648Y11245722D01*
X28636648Y737722D01*
D10*
G04 #@! TO.C,REV_BUT1*
X7386648Y106089922D02*
X7386648Y105891922D01*
X7386648Y103859922D02*
X7386648Y101319922D01*
X7386648Y99089922D02*
X7386648Y99289922D01*
X9386648Y106089922D02*
X7386648Y106089922D01*
X9386648Y99089922D02*
X7386648Y99089922D01*
X12386648Y106089922D02*
X14386648Y106089922D01*
X12386648Y99089922D02*
X14386648Y99089922D01*
X14386648Y106089922D02*
X14386648Y105891922D01*
X14386648Y103859922D02*
X14386648Y101319922D01*
X14386648Y99089922D02*
X14386648Y99289922D01*
X13176173Y102589922D02*
G75*
G02*
X8597123Y102589922I-2289525J0D01*
G01*
X8597123Y102589922D02*
G75*
G02*
X13176173Y102589922I2289525J0D01*
G01*
D18*
X13964629Y106399922D02*
G75*
G02*
X13396667Y106399922I-283981J0D01*
G01*
X13396667Y106399922D02*
G75*
G02*
X13964629Y106399922I283981J0D01*
G01*
D17*
G04 #@! TO.C,C28*
X29099940Y45885632D02*
X29099940Y45575632D01*
X29879940Y45885632D02*
X29879940Y45575632D01*
G04 #@! TO.C,C33*
X28083940Y46340680D02*
X28083940Y46650680D01*
X28863940Y46340680D02*
X28863940Y46650680D01*
D14*
G04 #@! TO.C,J9*
X24136648Y23439922D02*
X24136648Y20439922D01*
X25636648Y21939922D02*
X22636648Y21939922D01*
D15*
X25711448Y21952622D02*
G75*
G02*
X22561848Y21952622I-1574800J0D01*
G01*
X22561848Y21952622D02*
G75*
G02*
X25711448Y21952622I1574800J0D01*
G01*
X26422648Y21952622D02*
G75*
G02*
X21850648Y21952622I-2286000J0D01*
G01*
X21850648Y21952622D02*
G75*
G02*
X26422648Y21952622I2286000J0D01*
G01*
D16*
X28636648Y17634122D02*
X19636648Y17634122D01*
X19636648Y28142122D01*
X28636648Y28142122D01*
X28636648Y17634122D01*
D14*
G04 #@! TO.C,J8*
X50636648Y36939922D02*
X53636648Y36939922D01*
X52136648Y38439922D02*
X52136648Y35439922D01*
D15*
X53698748Y36939922D02*
G75*
G02*
X50549148Y36939922I-1574800J0D01*
G01*
X50549148Y36939922D02*
G75*
G02*
X53698748Y36939922I1574800J0D01*
G01*
X54409948Y36939922D02*
G75*
G02*
X49837948Y36939922I-2286000J0D01*
G01*
X49837948Y36939922D02*
G75*
G02*
X54409948Y36939922I2286000J0D01*
G01*
D16*
X56442448Y32439922D02*
X45934448Y32439922D01*
X45934448Y41439922D01*
X56442448Y41439922D01*
X56442448Y32439922D01*
D14*
G04 #@! TO.C,J11*
X7108648Y6939922D02*
X10108648Y6939922D01*
X8608648Y5439922D02*
X8608648Y8439922D01*
D15*
X10894648Y6927222D02*
G75*
G02*
X6322648Y6927222I-2286000J0D01*
G01*
X6322648Y6927222D02*
G75*
G02*
X10894648Y6927222I2286000J0D01*
G01*
X10183448Y6927222D02*
G75*
G02*
X7033848Y6927222I-1574800J0D01*
G01*
X7033848Y6927222D02*
G75*
G02*
X10183448Y6927222I1574800J0D01*
G01*
D16*
X13108648Y737722D02*
X4108648Y737722D01*
X4108648Y11245722D01*
X13108648Y11245722D01*
X13108648Y737722D01*
D14*
G04 #@! TO.C,J13*
X50636648Y21939922D02*
X53636648Y21939922D01*
X52136648Y23439922D02*
X52136648Y20439922D01*
D15*
X53698748Y21939922D02*
G75*
G02*
X50549148Y21939922I-1574800J0D01*
G01*
X50549148Y21939922D02*
G75*
G02*
X53698748Y21939922I1574800J0D01*
G01*
X54409948Y21939922D02*
G75*
G02*
X49837948Y21939922I-2286000J0D01*
G01*
X49837948Y21939922D02*
G75*
G02*
X54409948Y21939922I2286000J0D01*
G01*
D16*
X56442448Y17439922D02*
X45934448Y17439922D01*
X45934448Y26439922D01*
X56442448Y26439922D01*
X56442448Y17439922D01*
D15*
G04 #@! TO.C,POT_START1*
X43136648Y52155028D02*
X43136648Y57812922D01*
D14*
X50136648Y60439922D02*
X50136648Y63439922D01*
X51636648Y61939922D02*
X48636648Y61939922D01*
D15*
X52874648Y63844922D02*
X47398648Y63844922D01*
X56683542Y51574922D02*
X43716754Y51574922D01*
X57136648Y57812922D02*
X57136648Y52028028D01*
X43716754Y51574922D02*
G75*
G02*
X43136648Y52155028I-6J580100D01*
G01*
D13*
X47088648Y58891922D02*
G75*
G02*
X53184648Y58891922I3048000J3048000D01*
G01*
D15*
X57136648Y52028028D02*
G75*
G02*
X56683542Y51574922I-453107J1D01*
G01*
X58264648Y61939922D02*
G75*
G02*
X42008648Y61939922I-8128000J0D01*
G01*
X42008648Y61939922D02*
G75*
G02*
X58264648Y61939922I8128000J0D01*
G01*
X54136648Y61939922D02*
G75*
G02*
X46136648Y61939922I-4000000J0D01*
G01*
X46136648Y61939922D02*
G75*
G02*
X54136648Y61939922I4000000J0D01*
G01*
X53536648Y61939922D02*
G75*
G02*
X46736648Y61939922I-3400000J0D01*
G01*
X46736648Y61939922D02*
G75*
G02*
X53536648Y61939922I3400000J0D01*
G01*
D14*
G04 #@! TO.C,J14*
X36636648Y20439922D02*
X36636648Y23439922D01*
X38136648Y21939922D02*
X35136648Y21939922D01*
D15*
X38935348Y21939922D02*
G75*
G02*
X34363348Y21939922I-2286000J0D01*
G01*
X34363348Y21939922D02*
G75*
G02*
X38935348Y21939922I2286000J0D01*
G01*
X38224148Y21939922D02*
G75*
G02*
X35074548Y21939922I-1574800J0D01*
G01*
X35074548Y21939922D02*
G75*
G02*
X38224148Y21939922I1574800J0D01*
G01*
D16*
X42838848Y17439922D02*
X32330848Y17439922D01*
X32330848Y26439922D01*
X42838848Y26439922D01*
X42838848Y17439922D01*
D10*
G04 #@! TO.C,PLAY_BUT1*
X26826648Y103989922D02*
X26826648Y103791922D01*
X26826648Y96989922D02*
X26826648Y97189922D01*
X28826648Y103989922D02*
X26826648Y103989922D01*
X28826648Y96989922D02*
X26826648Y96989922D01*
X31826648Y103989922D02*
X33826648Y103989922D01*
X31826648Y96989922D02*
X33826648Y96989922D01*
X33826648Y103989922D02*
X33826648Y103791922D01*
X33826648Y96989922D02*
X33826648Y97189922D01*
X27088149Y99092923D02*
G75*
G02*
X27065341Y101832814I3238499J1396999D01*
G01*
X28104149Y103220421D02*
G75*
G02*
X28676454Y103599904I2222499J-2730499D01*
G01*
X28675649Y97378423D02*
G75*
G02*
X28110367Y97752163I1650949J3111429D01*
G01*
X29945649Y103982421D02*
G75*
G02*
X30644721Y103988713I380999J-3492499D01*
G01*
X30707647Y96997423D02*
G75*
G02*
X30008575Y96991131I-380998J3492481D01*
G01*
X31977647Y103601421D02*
G75*
G02*
X32542929Y103227681I-1650950J-3111428D01*
G01*
X32549147Y97759423D02*
G75*
G02*
X31976842Y97379940I-2222472J2730455D01*
G01*
X33565147Y101886921D02*
G75*
G02*
X33587955Y99147030I-3238497J-1396999D01*
G01*
D18*
X33404629Y104299922D02*
G75*
G02*
X32836667Y104299922I-283981J0D01*
G01*
X32836667Y104299922D02*
G75*
G02*
X33404629Y104299922I283981J0D01*
G01*
D17*
G04 #@! TO.C,C27*
X29574775Y48652770D02*
X29793978Y48871973D01*
X30126318Y48101227D02*
X30345521Y48320430D01*
G04 #@! TO.C,C31*
X27704972Y43076272D02*
X27704972Y43386272D01*
X28484972Y43076272D02*
X28484972Y43386272D01*
D15*
G04 #@! TO.C,POT_SAMP1*
X6440000Y78335106D02*
X6440000Y83993000D01*
D14*
X13440000Y86620000D02*
X13440000Y89620000D01*
X14940000Y88120000D02*
X11940000Y88120000D01*
D15*
X16178000Y90025000D02*
X10702000Y90025000D01*
X19986894Y77755000D02*
X7020106Y77755000D01*
X20440000Y83993000D02*
X20440000Y78208106D01*
X7020106Y77755000D02*
G75*
G02*
X6440000Y78335106I-6J580100D01*
G01*
D13*
X10392000Y85072000D02*
G75*
G02*
X16488000Y85072000I3048000J3048000D01*
G01*
D15*
X20440000Y78208106D02*
G75*
G02*
X19986894Y77755000I-453107J1D01*
G01*
X21568000Y88120000D02*
G75*
G02*
X5312000Y88120000I-8128000J0D01*
G01*
X5312000Y88120000D02*
G75*
G02*
X21568000Y88120000I8128000J0D01*
G01*
X17440000Y88120000D02*
G75*
G02*
X9440000Y88120000I-4000000J0D01*
G01*
X9440000Y88120000D02*
G75*
G02*
X17440000Y88120000I4000000J0D01*
G01*
X16840000Y88120000D02*
G75*
G02*
X10040000Y88120000I-3400000J0D01*
G01*
X10040000Y88120000D02*
G75*
G02*
X16840000Y88120000I3400000J0D01*
G01*
G04 #@! TD*
%LPC*%
D20*
G04 #@! TO.C,J4*
X27646648Y91469922D03*
X27646648Y94009922D03*
D21*
X30186648Y91469922D03*
X30186648Y94009922D03*
X32726648Y91469922D03*
X32726648Y94009922D03*
D20*
X35266648Y91469922D03*
X35266648Y94009922D03*
G04 #@! TD*
D22*
G04 #@! TO.C,J3*
X57226648Y80469922D03*
D21*
X57226648Y77929922D03*
X57226648Y75389922D03*
X57226648Y72849922D03*
G04 #@! TD*
G04 #@! TO.C,J10*
X14936648Y23659922D03*
X17476648Y23659922D03*
X14936648Y21119922D03*
X17476648Y21119922D03*
X14936648Y18579922D03*
X17476648Y18579922D03*
X14936648Y16039922D03*
X17476648Y16039922D03*
X14936648Y13499922D03*
X17476648Y13499922D03*
G04 #@! TD*
D23*
G04 #@! TO.C,J12*
X8608648Y27146922D03*
X8608648Y16174122D03*
X8608648Y18587122D03*
G04 #@! TD*
G04 #@! TO.C,J17*
X36800848Y1687362D03*
X36800848Y12660162D03*
X36800848Y10247162D03*
G04 #@! TD*
G04 #@! TO.C,J16*
X52300848Y1687362D03*
X52300848Y12660162D03*
X52300848Y10247162D03*
G04 #@! TD*
D24*
G04 #@! TO.C,C30*
X30766648Y43444922D03*
X30766648Y42474922D03*
G04 #@! TD*
D25*
G04 #@! TO.C,Bank_But1*
X53008648Y104839922D03*
X46508648Y104839922D03*
X53008648Y100339922D03*
X46508648Y100339922D03*
D26*
X50658648Y105489922D03*
X48858648Y105489922D03*
X48858648Y99689922D03*
X50658648Y99689922D03*
G04 #@! TD*
D27*
G04 #@! TO.C,SD1*
X31946648Y79490171D03*
X33046468Y80589991D03*
X31946648Y81690065D03*
X33046468Y82789885D03*
X31946648Y83889959D03*
X33046468Y84989779D03*
X31946648Y86089853D03*
X33046468Y87189673D03*
D28*
X28776728Y79047322D03*
X28776728Y87632522D03*
G04 #@! TD*
D29*
G04 #@! TO.C,C4*
X30980148Y63566600D03*
X30980148Y65266600D03*
G04 #@! TD*
D30*
G04 #@! TO.C,POT_LENGTH1*
X15508648Y48985922D03*
X10508648Y48985922D03*
X5508648Y48985922D03*
G04 #@! TD*
D23*
G04 #@! TO.C,J2*
X36636648Y42146922D03*
X36636648Y31174122D03*
X36636648Y33587122D03*
G04 #@! TD*
D30*
G04 #@! TO.C,POT_PITCH1*
X52136648Y74985922D03*
X47136648Y74985922D03*
X42136648Y74985922D03*
G04 #@! TD*
D23*
G04 #@! TO.C,J7*
X13815648Y36939922D03*
X2842848Y36939922D03*
X5255848Y36939922D03*
G04 #@! TD*
D24*
G04 #@! TO.C,C32*
X29054076Y43659376D03*
X29054076Y42689376D03*
G04 #@! TD*
D23*
G04 #@! TO.C,J6*
X29343648Y36939922D03*
X18370848Y36939922D03*
X20783848Y36939922D03*
G04 #@! TD*
G04 #@! TO.C,J15*
X24136648Y1732922D03*
X24136648Y12705722D03*
X24136648Y10292722D03*
G04 #@! TD*
D25*
G04 #@! TO.C,REV_BUT1*
X14136648Y104839922D03*
X7636648Y104839922D03*
X14136648Y100339922D03*
X7636648Y100339922D03*
D26*
X11786648Y105489922D03*
X9986648Y105489922D03*
X9986648Y99689922D03*
X11786648Y99689922D03*
G04 #@! TD*
D24*
G04 #@! TO.C,C28*
X29489940Y46215632D03*
X29489940Y45245632D03*
G04 #@! TD*
D31*
G04 #@! TO.C,C33*
X28473940Y46010680D03*
X28473940Y46980680D03*
G04 #@! TD*
D23*
G04 #@! TO.C,J9*
X24136648Y27146922D03*
X24136648Y16174122D03*
X24136648Y18587122D03*
G04 #@! TD*
G04 #@! TO.C,J8*
X46929648Y36939922D03*
X57902448Y36939922D03*
X55489448Y36939922D03*
G04 #@! TD*
G04 #@! TO.C,J11*
X8608648Y1732922D03*
X8608648Y12705722D03*
X8608648Y10292722D03*
G04 #@! TD*
G04 #@! TO.C,J13*
X46929648Y21939922D03*
X57902448Y21939922D03*
X55489448Y21939922D03*
G04 #@! TD*
D30*
G04 #@! TO.C,POT_START1*
X55136648Y48985922D03*
X50136648Y48985922D03*
X45136648Y48985922D03*
G04 #@! TD*
D23*
G04 #@! TO.C,J14*
X41843648Y21939922D03*
X30870848Y21939922D03*
X33283848Y21939922D03*
G04 #@! TD*
D25*
G04 #@! TO.C,PLAY_BUT1*
X33322648Y102739922D03*
X27330648Y102739922D03*
X33322648Y98239922D03*
X27330648Y98239922D03*
D26*
X31226648Y103389922D03*
X29426648Y103389922D03*
X29426648Y97589922D03*
X31226648Y97589922D03*
G04 #@! TD*
D32*
G04 #@! TO.C,C27*
X29617201Y48143653D03*
X30303095Y48829547D03*
G04 #@! TD*
D31*
G04 #@! TO.C,C31*
X28094972Y42746272D03*
X28094972Y43716272D03*
G04 #@! TD*
D30*
G04 #@! TO.C,POT_SAMP1*
X18440000Y75166000D03*
X13440000Y75166000D03*
X8440000Y75166000D03*
G04 #@! TD*
%LPD*%
M02*
