G04 #@! TF.GenerationSoftware,KiCad,Pcbnew,8.0.5*
G04 #@! TF.CreationDate,2024-10-08T11:29:37-07:00*
G04 #@! TF.ProjectId,Sampler-built,53616d70-6c65-4722-9d62-75696c742e6b,rev?*
G04 #@! TF.SameCoordinates,PX815dad0PY77b6f90*
G04 #@! TF.FileFunction,Paste,Top*
G04 #@! TF.FilePolarity,Positive*
%FSLAX46Y46*%
G04 Gerber Fmt 4.6, Leading zero omitted, Abs format (unit mm)*
G04 Created by KiCad (PCBNEW 8.0.5) date 2024-10-08 11:29:37*
%MOMM*%
%LPD*%
G01*
G04 APERTURE LIST*
G04 Aperture macros list*
%AMRoundRect*
0 Rectangle with rounded corners*
0 $1 Rounding radius*
0 $2 $3 $4 $5 $6 $7 $8 $9 X,Y pos of 4 corners*
0 Add a 4 corners polygon primitive as box body*
4,1,4,$2,$3,$4,$5,$6,$7,$8,$9,$2,$3,0*
0 Add four circle primitives for the rounded corners*
1,1,$1+$1,$2,$3*
1,1,$1+$1,$4,$5*
1,1,$1+$1,$6,$7*
1,1,$1+$1,$8,$9*
0 Add four rect primitives between the rounded corners*
20,1,$1+$1,$2,$3,$4,$5,0*
20,1,$1+$1,$4,$5,$6,$7,0*
20,1,$1+$1,$6,$7,$8,$9,0*
20,1,$1+$1,$8,$9,$2,$3,0*%
G04 Aperture macros list end*
%ADD10R,0.900000X1.200000*%
%ADD11RoundRect,0.147500X0.147500X0.172500X-0.147500X0.172500X-0.147500X-0.172500X0.147500X-0.172500X0*%
%ADD12R,1.000000X1.000000*%
%ADD13RoundRect,0.147500X0.172500X-0.147500X0.172500X0.147500X-0.172500X0.147500X-0.172500X-0.147500X0*%
%ADD14R,0.700000X1.300000*%
%ADD15R,0.800100X0.800100*%
%ADD16R,1.450000X0.450000*%
%ADD17RoundRect,0.147500X-0.172500X0.147500X-0.172500X-0.147500X0.172500X-0.147500X0.172500X0.147500X0*%
%ADD18RoundRect,0.147500X-0.147500X-0.172500X0.147500X-0.172500X0.147500X0.172500X-0.147500X0.172500X0*%
%ADD19R,1.600000X3.000000*%
%ADD20R,1.700000X0.900000*%
%ADD21R,1.150000X1.400000*%
%ADD22R,1.220000X0.650000*%
%ADD23C,0.300000*%
%ADD24R,0.450000X1.450000*%
%ADD25R,3.000000X1.600000*%
%ADD26R,1.200000X3.700000*%
%ADD27C,0.500000*%
%ADD28R,0.900000X1.700000*%
%ADD29RoundRect,0.100000X-0.100000X0.637500X-0.100000X-0.637500X0.100000X-0.637500X0.100000X0.637500X0*%
G04 APERTURE END LIST*
D10*
G04 #@! TO.C,D16*
X17750000Y26530000D03*
X14450000Y26530000D03*
G04 #@! TD*
D11*
G04 #@! TO.C,C61*
X15041648Y86264922D03*
X14071648Y86264922D03*
G04 #@! TD*
D12*
G04 #@! TO.C,R3*
X47256648Y95699922D03*
X47256648Y97399922D03*
G04 #@! TD*
D13*
G04 #@! TO.C,C1*
X28360148Y69951600D03*
X28360148Y70921600D03*
G04 #@! TD*
D12*
G04 #@! TO.C,R57*
X47896648Y39809922D03*
X46196648Y39809922D03*
G04 #@! TD*
D14*
G04 #@! TO.C,C44*
X47826648Y25799922D03*
X49726648Y25799922D03*
G04 #@! TD*
D12*
G04 #@! TO.C,R59*
X10266648Y24399922D03*
X10266648Y22699922D03*
G04 #@! TD*
D15*
G04 #@! TO.C,Q11*
X15850000Y32430000D03*
X15850000Y30530000D03*
X17848980Y31480000D03*
G04 #@! TD*
D12*
G04 #@! TO.C,R61*
X31891648Y9019922D03*
X31891648Y10719922D03*
G04 #@! TD*
D16*
G04 #@! TO.C,U15*
X45146648Y43524922D03*
X45146648Y42874922D03*
X45146648Y42224922D03*
X45146648Y41574922D03*
X51046648Y41574922D03*
X51046648Y42224922D03*
X51046648Y42874922D03*
X51046648Y43524922D03*
G04 #@! TD*
D12*
G04 #@! TO.C,C45*
X48226648Y24059922D03*
X49926648Y24059922D03*
G04 #@! TD*
D17*
G04 #@! TO.C,R42*
X56326648Y17614672D03*
X56326648Y16644672D03*
G04 #@! TD*
D12*
G04 #@! TO.C,C25*
X17700000Y28530000D03*
X16000000Y28530000D03*
G04 #@! TD*
G04 #@! TO.C,C47*
X43876648Y102439922D03*
X43876648Y100739922D03*
G04 #@! TD*
D11*
G04 #@! TO.C,R161*
X47406648Y4719922D03*
X46436648Y4719922D03*
G04 #@! TD*
D12*
G04 #@! TO.C,C79*
X9236648Y80754922D03*
X10936648Y80754922D03*
G04 #@! TD*
G04 #@! TO.C,C55*
X4770000Y70820000D03*
X6470000Y70820000D03*
G04 #@! TD*
D17*
G04 #@! TO.C,C36*
X22640148Y62391600D03*
X22640148Y61421600D03*
G04 #@! TD*
D12*
G04 #@! TO.C,C65*
X52706648Y64874482D03*
X51006648Y64874482D03*
G04 #@! TD*
G04 #@! TO.C,R71*
X22666648Y97119922D03*
X24366648Y97119922D03*
G04 #@! TD*
D18*
G04 #@! TO.C,R52*
X37236088Y29146436D03*
X38206088Y29146436D03*
G04 #@! TD*
G04 #@! TO.C,C88*
X46805000Y52690000D03*
X47775000Y52690000D03*
G04 #@! TD*
D19*
G04 #@! TO.C,C24*
X20070000Y6500000D03*
X20070000Y2100000D03*
G04 #@! TD*
D12*
G04 #@! TO.C,R74*
X24556648Y105239922D03*
X22856648Y105239922D03*
G04 #@! TD*
D11*
G04 #@! TO.C,R55*
X55611648Y18729672D03*
X54641648Y18729672D03*
G04 #@! TD*
D17*
G04 #@! TO.C,R49*
X45551648Y16914672D03*
X45551648Y15944672D03*
G04 #@! TD*
D18*
G04 #@! TO.C,R41*
X54465000Y59584482D03*
X55435000Y59584482D03*
G04 #@! TD*
D20*
G04 #@! TO.C,C67*
X9456493Y53509922D03*
X9456493Y56409922D03*
G04 #@! TD*
D18*
G04 #@! TO.C,C13*
X36205148Y59586600D03*
X37175148Y59586600D03*
G04 #@! TD*
D11*
G04 #@! TO.C,R12*
X46381648Y61919922D03*
X45411648Y61919922D03*
G04 #@! TD*
D17*
G04 #@! TO.C,R40*
X55486648Y63729482D03*
X55486648Y62759482D03*
G04 #@! TD*
D12*
G04 #@! TO.C,R21*
X34096648Y34609922D03*
X34096648Y32909922D03*
G04 #@! TD*
D15*
G04 #@! TO.C,D15*
X43570000Y51009240D03*
X45470000Y51009240D03*
X44520000Y53008220D03*
G04 #@! TD*
D11*
G04 #@! TO.C,C6*
X22691648Y59169922D03*
X21721648Y59169922D03*
G04 #@! TD*
D18*
G04 #@! TO.C,R30*
X23111648Y31669922D03*
X24081648Y31669922D03*
G04 #@! TD*
G04 #@! TO.C,C8*
X48991648Y22769922D03*
X49961648Y22769922D03*
G04 #@! TD*
G04 #@! TO.C,R66*
X11391493Y53079922D03*
X12361493Y53079922D03*
G04 #@! TD*
D15*
G04 #@! TO.C,U6*
X4649240Y68980000D03*
X4649240Y67080000D03*
X6648220Y68030000D03*
G04 #@! TD*
D11*
G04 #@! TO.C,R162*
X45386648Y5689922D03*
X44416648Y5689922D03*
G04 #@! TD*
D18*
G04 #@! TO.C,C73*
X26291648Y28539922D03*
X27261648Y28539922D03*
G04 #@! TD*
D12*
G04 #@! TO.C,C90*
X51006648Y20024672D03*
X49306648Y20024672D03*
G04 #@! TD*
D15*
G04 #@! TO.C,D24*
X24616648Y34990682D03*
X22716648Y34990682D03*
X23666648Y32991702D03*
G04 #@! TD*
D11*
G04 #@! TO.C,R65*
X14476648Y53059922D03*
X13506648Y53059922D03*
G04 #@! TD*
G04 #@! TO.C,C87*
X52421648Y57744922D03*
X51451648Y57744922D03*
G04 #@! TD*
D12*
G04 #@! TO.C,C22*
X17516648Y67209922D03*
X15816648Y67209922D03*
G04 #@! TD*
D18*
G04 #@! TO.C,R160*
X36041648Y5279922D03*
X37011648Y5279922D03*
G04 #@! TD*
D17*
G04 #@! TO.C,R164*
X49766648Y9384922D03*
X49766648Y8414922D03*
G04 #@! TD*
D13*
G04 #@! TO.C,R44*
X45571648Y17909672D03*
X45571648Y18879672D03*
G04 #@! TD*
D20*
G04 #@! TO.C,C70*
X8450000Y61160000D03*
X8450000Y58260000D03*
G04 #@! TD*
D18*
G04 #@! TO.C,C59*
X47461648Y59664482D03*
X48431648Y59664482D03*
G04 #@! TD*
D17*
G04 #@! TO.C,R7*
X39856648Y11624922D03*
X39856648Y10654922D03*
G04 #@! TD*
D12*
G04 #@! TO.C,C83*
X47156648Y64934482D03*
X48856648Y64934482D03*
G04 #@! TD*
G04 #@! TO.C,R73*
X43876648Y106059922D03*
X43876648Y104359922D03*
G04 #@! TD*
D18*
G04 #@! TO.C,R23*
X16826648Y84094922D03*
X17796648Y84094922D03*
G04 #@! TD*
D17*
G04 #@! TO.C,R14*
X46476648Y11614922D03*
X46476648Y10644922D03*
G04 #@! TD*
D12*
G04 #@! TO.C,C57*
X54926648Y17379672D03*
X54926648Y15679672D03*
G04 #@! TD*
G04 #@! TO.C,C49*
X56152780Y30593974D03*
X54452780Y30593974D03*
G04 #@! TD*
D17*
G04 #@! TO.C,R18*
X45960000Y55015000D03*
X45960000Y54045000D03*
G04 #@! TD*
D12*
G04 #@! TO.C,C66*
X16506648Y80584922D03*
X14806648Y80584922D03*
G04 #@! TD*
D11*
G04 #@! TO.C,C60*
X52031648Y59634482D03*
X51061648Y59634482D03*
G04 #@! TD*
D12*
G04 #@! TO.C,R5*
X48996648Y95719922D03*
X48996648Y97419922D03*
G04 #@! TD*
D15*
G04 #@! TO.C,D1*
X30326648Y33669162D03*
X32226648Y33669162D03*
X31276648Y35668142D03*
G04 #@! TD*
D17*
G04 #@! TO.C,C11*
X31370148Y56671600D03*
X31370148Y55701600D03*
G04 #@! TD*
D18*
G04 #@! TO.C,R47*
X52196648Y35027422D03*
X53166648Y35027422D03*
G04 #@! TD*
D12*
G04 #@! TO.C,C20*
X16350000Y3510000D03*
X16350000Y5210000D03*
G04 #@! TD*
G04 #@! TO.C,C39*
X3556648Y104299922D03*
X3556648Y105999922D03*
G04 #@! TD*
G04 #@! TO.C,C26*
X11073352Y5190078D03*
X12773352Y5190078D03*
G04 #@! TD*
G04 #@! TO.C,R29*
X49596648Y39824922D03*
X51296648Y39824922D03*
G04 #@! TD*
G04 #@! TO.C,C46*
X54846648Y43124922D03*
X54846648Y41424922D03*
G04 #@! TD*
G04 #@! TO.C,R37*
X14600000Y5210000D03*
X14600000Y3510000D03*
G04 #@! TD*
G04 #@! TO.C,R79*
X23030000Y84070000D03*
X24730000Y84070000D03*
G04 #@! TD*
G04 #@! TO.C,C2*
X36490148Y65926600D03*
X36490148Y67626600D03*
G04 #@! TD*
D18*
G04 #@! TO.C,R48*
X50875000Y36380000D03*
X51845000Y36380000D03*
G04 #@! TD*
D21*
G04 #@! TO.C,Y1*
X18006648Y64979922D03*
X19506648Y62879922D03*
X18006648Y62879922D03*
X19506648Y64979922D03*
G04 #@! TD*
D12*
G04 #@! TO.C,R68*
X4896648Y97399922D03*
X6596648Y97399922D03*
G04 #@! TD*
D11*
G04 #@! TO.C,C35*
X51331648Y45024922D03*
X50361648Y45024922D03*
G04 #@! TD*
D15*
G04 #@! TO.C,D22*
X17146648Y44470682D03*
X15246648Y44470682D03*
X16196648Y42471702D03*
G04 #@! TD*
D11*
G04 #@! TO.C,C17*
X23065148Y65626600D03*
X22095148Y65626600D03*
G04 #@! TD*
D12*
G04 #@! TO.C,R80*
X23030000Y86620000D03*
X24730000Y86620000D03*
G04 #@! TD*
D11*
G04 #@! TO.C,C64*
X12362564Y42854922D03*
X11392564Y42854922D03*
G04 #@! TD*
D17*
G04 #@! TO.C,C76*
X34166648Y27364922D03*
X34166648Y26394922D03*
G04 #@! TD*
D12*
G04 #@! TO.C,C42*
X49605768Y38250422D03*
X51305768Y38250422D03*
G04 #@! TD*
D16*
G04 #@! TO.C,U10*
X31586648Y30034922D03*
X31586648Y30684922D03*
X31586648Y31334922D03*
X31586648Y31984922D03*
X25686648Y31984922D03*
X25686648Y31334922D03*
X25686648Y30684922D03*
X25686648Y30034922D03*
G04 #@! TD*
D11*
G04 #@! TO.C,C150*
X48705480Y9699922D03*
X47735480Y9699922D03*
G04 #@! TD*
D18*
G04 #@! TO.C,R2*
X32411648Y28509922D03*
X33381648Y28509922D03*
G04 #@! TD*
D11*
G04 #@! TO.C,R50*
X37486648Y18279922D03*
X36516648Y18279922D03*
G04 #@! TD*
G04 #@! TO.C,R152*
X41695000Y3500000D03*
X40725000Y3500000D03*
G04 #@! TD*
D18*
G04 #@! TO.C,R11*
X45369944Y63218002D03*
X46339944Y63218002D03*
G04 #@! TD*
D22*
G04 #@! TO.C,U13*
X11536648Y56249922D03*
X11536648Y55299922D03*
X11536648Y54349922D03*
X14156648Y54349922D03*
X14156648Y55299922D03*
X14156648Y56249922D03*
G04 #@! TD*
D12*
G04 #@! TO.C,R20*
X16156648Y35899922D03*
X16156648Y37599922D03*
G04 #@! TD*
G04 #@! TO.C,C51*
X54443428Y25387422D03*
X56143428Y25387422D03*
G04 #@! TD*
D18*
G04 #@! TO.C,R51*
X36396648Y17009922D03*
X37366648Y17009922D03*
G04 #@! TD*
D23*
G04 #@! TO.C,U2*
X25000148Y67736600D03*
X25650148Y67736600D03*
X26300148Y67736600D03*
X26950148Y67736600D03*
X27600148Y67736600D03*
X28250148Y67736600D03*
X28900148Y67736600D03*
X29550148Y67736600D03*
X30200148Y67736600D03*
X30850148Y67736600D03*
X31500148Y67736600D03*
X32150148Y67736600D03*
X32800148Y67736600D03*
X33450148Y67736600D03*
X34100148Y67736600D03*
X25000148Y67086600D03*
X25650148Y67086600D03*
X26300148Y67086600D03*
X26950148Y67086600D03*
X27600148Y67086600D03*
X28250148Y67086600D03*
X28900148Y67086600D03*
X29550148Y67086600D03*
X30200148Y67086600D03*
X30850148Y67086600D03*
X31500148Y67086600D03*
X32150148Y67086600D03*
X32800148Y67086600D03*
X33450148Y67086600D03*
X34100148Y67086600D03*
X25000148Y66436600D03*
X25650148Y66436600D03*
X26300148Y66436600D03*
X26950148Y66436600D03*
X27600148Y66436600D03*
X28250148Y66436600D03*
X28900148Y66436600D03*
X29550148Y66436600D03*
X30200148Y66436600D03*
X30850148Y66436600D03*
X31500148Y66436600D03*
X32150148Y66436600D03*
X32800148Y66436600D03*
X33450148Y66436600D03*
X34100148Y66436600D03*
X25000148Y65786600D03*
X25650148Y65786600D03*
X26300148Y65786600D03*
X26950148Y65786600D03*
X27600148Y65786600D03*
X28250148Y65786600D03*
X28900148Y65786600D03*
X29550148Y65786600D03*
X30200148Y65786600D03*
X30850148Y65786600D03*
X31500148Y65786600D03*
X32150148Y65786600D03*
X32800148Y65786600D03*
X33450148Y65786600D03*
X34100148Y65786600D03*
X25000148Y65136600D03*
X25650148Y65136600D03*
X26300148Y65136600D03*
X26950148Y65136600D03*
X32150148Y65136600D03*
X32800148Y65136600D03*
X33450148Y65136600D03*
X34100148Y65136600D03*
X25000148Y64486600D03*
X25650148Y64486600D03*
X26300148Y64486600D03*
X26950148Y64486600D03*
X28250148Y64486600D03*
X28900148Y64486600D03*
X29550148Y64486600D03*
X30200148Y64486600D03*
X30850148Y64486600D03*
X32150148Y64486600D03*
X32800148Y64486600D03*
X33450148Y64486600D03*
X34100148Y64486600D03*
X25000148Y63836600D03*
X25650148Y63836600D03*
X26300148Y63836600D03*
X26950148Y63836600D03*
X28250148Y63836600D03*
X28900148Y63836600D03*
X29550148Y63836600D03*
X30200148Y63836600D03*
X30850148Y63836600D03*
X32150148Y63836600D03*
X32800148Y63836600D03*
X33450148Y63836600D03*
X34100148Y63836600D03*
X25000148Y63186600D03*
X25650148Y63186600D03*
X26300148Y63186600D03*
X26950148Y63186600D03*
X28250148Y63186600D03*
X28900148Y63186600D03*
X29550148Y63186600D03*
X30200148Y63186600D03*
X30850148Y63186600D03*
X32150148Y63186600D03*
X32800148Y63186600D03*
X33450148Y63186600D03*
X34100148Y63186600D03*
X25000148Y62536600D03*
X25650148Y62536600D03*
X26300148Y62536600D03*
X26950148Y62536600D03*
X28250148Y62536600D03*
X28900148Y62536600D03*
X29550148Y62536600D03*
X30200148Y62536600D03*
X30850148Y62536600D03*
X32150148Y62536600D03*
X32800148Y62536600D03*
X33450148Y62536600D03*
X34100148Y62536600D03*
X25000148Y61886600D03*
X25650148Y61886600D03*
X26300148Y61886600D03*
X26950148Y61886600D03*
X28250148Y61886600D03*
X28900148Y61886600D03*
X29550148Y61886600D03*
X30200148Y61886600D03*
X30850148Y61886600D03*
X32150148Y61886600D03*
X32800148Y61886600D03*
X33450148Y61886600D03*
X34100148Y61886600D03*
X25000148Y61236600D03*
X25650148Y61236600D03*
X26300148Y61236600D03*
X26950148Y61236600D03*
X32150148Y61236600D03*
X32800148Y61236600D03*
X33450148Y61236600D03*
X34100148Y61236600D03*
X25000148Y60586600D03*
X25650148Y60586600D03*
X26300148Y60586600D03*
X26950148Y60586600D03*
X27600148Y60586600D03*
X28250148Y60586600D03*
X28900148Y60586600D03*
X29550148Y60586600D03*
X30200148Y60586600D03*
X30850148Y60586600D03*
X31500148Y60586600D03*
X32150148Y60586600D03*
X32800148Y60586600D03*
X33450148Y60586600D03*
X34100148Y60586600D03*
X25000148Y59936600D03*
X25650148Y59936600D03*
X26300148Y59936600D03*
X26950148Y59936600D03*
X27600148Y59936600D03*
X28250148Y59936600D03*
X28900148Y59936600D03*
X29550148Y59936600D03*
X30200148Y59936600D03*
X30850148Y59936600D03*
X31500148Y59936600D03*
X32150148Y59936600D03*
X32800148Y59936600D03*
X33450148Y59936600D03*
X34100148Y59936600D03*
X25000148Y59286600D03*
X25650148Y59286600D03*
X26300148Y59286600D03*
X26950148Y59286600D03*
X27600148Y59286600D03*
X28250148Y59286600D03*
X28900148Y59286600D03*
X29550148Y59286600D03*
X30200148Y59286600D03*
X30850148Y59286600D03*
X31500148Y59286600D03*
X32150148Y59286600D03*
X32800148Y59286600D03*
X33450148Y59286600D03*
X34100148Y59286600D03*
X25000148Y58636600D03*
X25650148Y58636600D03*
X26300148Y58636600D03*
X26950148Y58636600D03*
X27600148Y58636600D03*
X28250148Y58636600D03*
X28900148Y58636600D03*
X29550148Y58636600D03*
X30200148Y58636600D03*
X30850148Y58636600D03*
X31500148Y58636600D03*
X32150148Y58636600D03*
X32800148Y58636600D03*
X33450148Y58636600D03*
X34100148Y58636600D03*
G04 #@! TD*
D24*
G04 #@! TO.C,U11*
X37701648Y27409922D03*
X37051648Y27409922D03*
X36401648Y27409922D03*
X35751648Y27409922D03*
X35751648Y21509922D03*
X36401648Y21509922D03*
X37051648Y21509922D03*
X37701648Y21509922D03*
G04 #@! TD*
D13*
G04 #@! TO.C,R22*
X16916648Y81999922D03*
X16916648Y82969922D03*
G04 #@! TD*
G04 #@! TO.C,C3*
X30380148Y69961600D03*
X30380148Y70931600D03*
G04 #@! TD*
D17*
G04 #@! TO.C,C38*
X26671648Y8054922D03*
X26671648Y7084922D03*
G04 #@! TD*
D16*
G04 #@! TO.C,U12*
X46216648Y7224922D03*
X46216648Y7874922D03*
X46216648Y8524922D03*
X46216648Y9174922D03*
X40316648Y9174922D03*
X40316648Y8524922D03*
X40316648Y7874922D03*
X40316648Y7224922D03*
G04 #@! TD*
D18*
G04 #@! TO.C,C72*
X48651648Y14784672D03*
X49621648Y14784672D03*
G04 #@! TD*
D12*
G04 #@! TO.C,R24*
X21716648Y29509922D03*
X21716648Y31209922D03*
G04 #@! TD*
G04 #@! TO.C,C52*
X40726648Y18109922D03*
X40726648Y19809922D03*
G04 #@! TD*
G04 #@! TO.C,R77*
X23030000Y78970000D03*
X24730000Y78970000D03*
G04 #@! TD*
G04 #@! TO.C,C58*
X15022648Y59203922D03*
X15022648Y60903922D03*
G04 #@! TD*
D18*
G04 #@! TO.C,C9*
X36095148Y62956600D03*
X37065148Y62956600D03*
G04 #@! TD*
G04 #@! TO.C,C29*
X32035148Y52516600D03*
X33005148Y52516600D03*
G04 #@! TD*
D25*
G04 #@! TO.C,C21*
X4650000Y32280000D03*
X9050000Y32280000D03*
G04 #@! TD*
D13*
G04 #@! TO.C,C97*
X44960000Y54115000D03*
X44960000Y55085000D03*
G04 #@! TD*
D12*
G04 #@! TO.C,R13*
X13446648Y97429922D03*
X11746648Y97429922D03*
G04 #@! TD*
G04 #@! TO.C,R26*
X20436648Y39669922D03*
X18736648Y39669922D03*
G04 #@! TD*
D11*
G04 #@! TO.C,C18*
X23040148Y66686600D03*
X22070148Y66686600D03*
G04 #@! TD*
D12*
G04 #@! TO.C,R31*
X12100000Y30580000D03*
X12100000Y32280000D03*
G04 #@! TD*
G04 #@! TO.C,C54*
X22836648Y106859922D03*
X24536648Y106859922D03*
G04 #@! TD*
D17*
G04 #@! TO.C,C10*
X32410148Y56681600D03*
X32410148Y55711600D03*
G04 #@! TD*
G04 #@! TO.C,R33*
X8727564Y43949922D03*
X8727564Y42979922D03*
G04 #@! TD*
D12*
G04 #@! TO.C,R63*
X26741648Y9589922D03*
X26741648Y11289922D03*
G04 #@! TD*
D24*
G04 #@! TO.C,U16*
X28246648Y1729922D03*
X28896648Y1729922D03*
X29546648Y1729922D03*
X30196648Y1729922D03*
X30196648Y7629922D03*
X29546648Y7629922D03*
X28896648Y7629922D03*
X28246648Y7629922D03*
G04 #@! TD*
D11*
G04 #@! TO.C,C19*
X6471648Y7369922D03*
X5501648Y7369922D03*
G04 #@! TD*
G04 #@! TO.C,R81*
X24086648Y30239922D03*
X23116648Y30239922D03*
G04 #@! TD*
D18*
G04 #@! TO.C,C62*
X11321648Y86204922D03*
X12291648Y86204922D03*
G04 #@! TD*
D17*
G04 #@! TO.C,R158*
X38470480Y6704922D03*
X38470480Y5734922D03*
G04 #@! TD*
D18*
G04 #@! TO.C,C14*
X36095148Y63996600D03*
X37065148Y63996600D03*
G04 #@! TD*
D17*
G04 #@! TO.C,C152*
X38360480Y4614922D03*
X38360480Y3644922D03*
G04 #@! TD*
D16*
G04 #@! TO.C,U1*
X53906648Y61184922D03*
X53906648Y61834922D03*
X53906648Y62484922D03*
X53906648Y63134922D03*
X48006648Y63134922D03*
X48006648Y62484922D03*
X48006648Y61834922D03*
X48006648Y61184922D03*
G04 #@! TD*
D12*
G04 #@! TO.C,R9*
X43296648Y41699922D03*
X43296648Y43399922D03*
G04 #@! TD*
G04 #@! TO.C,R64*
X52856648Y97489922D03*
X51156648Y97489922D03*
G04 #@! TD*
D13*
G04 #@! TO.C,R67*
X15706493Y55384922D03*
X15706493Y56354922D03*
G04 #@! TD*
D11*
G04 #@! TO.C,R4*
X37205148Y61726600D03*
X36235148Y61726600D03*
G04 #@! TD*
D15*
G04 #@! TO.C,V2*
X10306648Y69659922D03*
X12206648Y69659922D03*
X11256648Y71658902D03*
G04 #@! TD*
D11*
G04 #@! TO.C,R27*
X17051648Y39409922D03*
X16081648Y39409922D03*
G04 #@! TD*
D13*
G04 #@! TO.C,C7*
X27320148Y69941600D03*
X27320148Y70911600D03*
G04 #@! TD*
D11*
G04 #@! TO.C,C78*
X43971648Y10679922D03*
X43001648Y10679922D03*
G04 #@! TD*
D12*
G04 #@! TO.C,R35*
X3396648Y101929922D03*
X5096648Y101929922D03*
G04 #@! TD*
D11*
G04 #@! TO.C,R34*
X6822564Y40244922D03*
X5852564Y40244922D03*
G04 #@! TD*
D12*
G04 #@! TO.C,R56*
X53046648Y43074922D03*
X53046648Y41374922D03*
G04 #@! TD*
D13*
G04 #@! TO.C,C85*
X4087564Y42959922D03*
X4087564Y43929922D03*
G04 #@! TD*
D12*
G04 #@! TO.C,C48*
X37871648Y19639922D03*
X36171648Y19639922D03*
G04 #@! TD*
G04 #@! TO.C,R36*
X5196648Y104299922D03*
X5196648Y105999922D03*
G04 #@! TD*
D13*
G04 #@! TO.C,R159*
X38656648Y8704922D03*
X38656648Y9674922D03*
G04 #@! TD*
G04 #@! TO.C,C50*
X29440148Y69941600D03*
X29440148Y70911600D03*
G04 #@! TD*
D26*
G04 #@! TO.C,L1*
X13296648Y59509922D03*
X10496648Y59509922D03*
G04 #@! TD*
D17*
G04 #@! TO.C,C12*
X29810148Y56671600D03*
X29810148Y55701600D03*
G04 #@! TD*
G04 #@! TO.C,R6*
X40896648Y11644922D03*
X40896648Y10674922D03*
G04 #@! TD*
D11*
G04 #@! TO.C,R8*
X30371648Y71929922D03*
X29401648Y71929922D03*
G04 #@! TD*
D12*
G04 #@! TO.C,R60*
X31986648Y6369922D03*
X31986648Y4669922D03*
G04 #@! TD*
D16*
G04 #@! TO.C,U3*
X9376648Y84654922D03*
X9376648Y84004922D03*
X9376648Y83354922D03*
X9376648Y82704922D03*
X15276648Y82704922D03*
X15276648Y83354922D03*
X15276648Y84004922D03*
X15276648Y84654922D03*
G04 #@! TD*
D12*
G04 #@! TO.C,R15*
X35806648Y37409922D03*
X35806648Y35709922D03*
G04 #@! TD*
D13*
G04 #@! TO.C,C15*
X19590000Y60125000D03*
X19590000Y61095000D03*
G04 #@! TD*
D18*
G04 #@! TO.C,C77*
X41586648Y5679922D03*
X42556648Y5679922D03*
G04 #@! TD*
D11*
G04 #@! TO.C,R157*
X40550480Y4609922D03*
X39580480Y4609922D03*
G04 #@! TD*
D17*
G04 #@! TO.C,C82*
X28866648Y34804922D03*
X28866648Y33834922D03*
G04 #@! TD*
D11*
G04 #@! TO.C,C149*
X47406648Y5759922D03*
X46436648Y5759922D03*
G04 #@! TD*
D18*
G04 #@! TO.C,C86*
X17391648Y41969922D03*
X18361648Y41969922D03*
G04 #@! TD*
D17*
G04 #@! TO.C,R54*
X39246648Y19989922D03*
X39246648Y19019922D03*
G04 #@! TD*
D12*
G04 #@! TO.C,C56*
X4600000Y65280000D03*
X6300000Y65280000D03*
G04 #@! TD*
G04 #@! TO.C,R25*
X4917564Y45744922D03*
X6617564Y45744922D03*
G04 #@! TD*
D15*
G04 #@! TO.C,D3*
X6685888Y24409922D03*
X6685888Y22509922D03*
X8684868Y23459922D03*
G04 #@! TD*
D18*
G04 #@! TO.C,R28*
X16061648Y40759922D03*
X17031648Y40759922D03*
G04 #@! TD*
D20*
G04 #@! TO.C,C68*
X6115052Y61138378D03*
X6115052Y58238378D03*
G04 #@! TD*
D15*
G04 #@! TO.C,D7*
X5675888Y5999922D03*
X5675888Y4099922D03*
X7674868Y5049922D03*
G04 #@! TD*
D16*
G04 #@! TO.C,U5*
X14456648Y39404922D03*
X14456648Y40054922D03*
X14456648Y40704922D03*
X14456648Y41354922D03*
X8556648Y41354922D03*
X8556648Y40704922D03*
X8556648Y40054922D03*
X8556648Y39404922D03*
G04 #@! TD*
D18*
G04 #@! TO.C,C53*
X36205148Y60656600D03*
X37175148Y60656600D03*
G04 #@! TD*
D15*
G04 #@! TO.C,D26*
X5356804Y44034922D03*
X5356804Y42134922D03*
X7355784Y43084922D03*
G04 #@! TD*
D13*
G04 #@! TO.C,R45*
X7756648Y82234922D03*
X7756648Y83204922D03*
G04 #@! TD*
D12*
G04 #@! TO.C,R17*
X9917564Y45484922D03*
X8217564Y45484922D03*
G04 #@! TD*
D27*
G04 #@! TO.C,U4*
X32200148Y43766600D03*
X31400148Y43766600D03*
X30600148Y43766600D03*
X27400148Y43766600D03*
X26600148Y43766600D03*
X25800148Y43766600D03*
X32200148Y44566600D03*
X31400148Y44566600D03*
X30600148Y44566600D03*
X27400148Y44566600D03*
X26600148Y44566600D03*
X25800148Y44566600D03*
X32200148Y45366600D03*
X31400148Y45366600D03*
X30600148Y45366600D03*
X27400148Y45366600D03*
X26600148Y45366600D03*
X25800148Y45366600D03*
X32200148Y46166600D03*
X31400148Y46166600D03*
X30600148Y46166600D03*
X27400148Y46166600D03*
X26600148Y46166600D03*
X25800148Y46166600D03*
X32200148Y46966600D03*
X31400148Y46966600D03*
X30600148Y46966600D03*
X27400148Y46966600D03*
X26600148Y46966600D03*
X25800148Y46966600D03*
X32200148Y47766600D03*
X31400148Y47766600D03*
X30600148Y47766600D03*
X27400148Y47766600D03*
X26600148Y47766600D03*
X25800148Y47766600D03*
X32200148Y48566600D03*
X31400148Y48566600D03*
X30600148Y48566600D03*
X27400148Y48566600D03*
X26600148Y48566600D03*
X25800148Y48566600D03*
X32200148Y49366600D03*
X31400148Y49366600D03*
X30600148Y49366600D03*
X27400148Y49366600D03*
X26600148Y49366600D03*
X25800148Y49366600D03*
X32200148Y50166600D03*
X31400148Y50166600D03*
X30600148Y50166600D03*
X27400148Y50166600D03*
X26600148Y50166600D03*
X25800148Y50166600D03*
G04 #@! TD*
D13*
G04 #@! TO.C,C40*
X31616648Y1994922D03*
X31616648Y2964922D03*
G04 #@! TD*
D10*
G04 #@! TO.C,D17*
X16316648Y7159922D03*
X13016648Y7159922D03*
G04 #@! TD*
D11*
G04 #@! TO.C,C71*
X53411648Y19729672D03*
X52441648Y19729672D03*
G04 #@! TD*
D12*
G04 #@! TO.C,C16*
X13850000Y30530000D03*
X13850000Y32230000D03*
G04 #@! TD*
G04 #@! TO.C,C84*
X30181648Y9489922D03*
X28481648Y9489922D03*
G04 #@! TD*
D11*
G04 #@! TO.C,R1*
X34181648Y31389922D03*
X33211648Y31389922D03*
G04 #@! TD*
D18*
G04 #@! TO.C,R46*
X8996648Y86174922D03*
X9966648Y86174922D03*
G04 #@! TD*
D28*
G04 #@! TO.C,C43*
X21740000Y89140000D03*
X24640000Y89140000D03*
G04 #@! TD*
D12*
G04 #@! TO.C,R58*
X9296648Y4109922D03*
X9296648Y5809922D03*
G04 #@! TD*
G04 #@! TO.C,C81*
X8606648Y69790682D03*
X8606648Y68090682D03*
G04 #@! TD*
D16*
G04 #@! TO.C,U8*
X47126648Y18279672D03*
X47126648Y17629672D03*
X47126648Y16979672D03*
X47126648Y16329672D03*
X53026648Y16329672D03*
X53026648Y16979672D03*
X53026648Y17629672D03*
X53026648Y18279672D03*
G04 #@! TD*
D12*
G04 #@! TO.C,R75*
X24496648Y100589922D03*
X22796648Y100589922D03*
G04 #@! TD*
G04 #@! TO.C,R32*
X46646648Y45424922D03*
X48346648Y45424922D03*
G04 #@! TD*
D11*
G04 #@! TO.C,C41*
X48131648Y35059922D03*
X47161648Y35059922D03*
G04 #@! TD*
D12*
G04 #@! TO.C,C80*
X12016648Y68090682D03*
X10316648Y68090682D03*
G04 #@! TD*
D15*
G04 #@! TO.C,Q12*
X12930000Y3300760D03*
X11030000Y3300760D03*
X11980000Y1301780D03*
G04 #@! TD*
D11*
G04 #@! TO.C,C153*
X49586648Y7259922D03*
X48616648Y7259922D03*
G04 #@! TD*
D15*
G04 #@! TO.C,V1*
X54602668Y28917422D03*
X54602668Y27017422D03*
X56601648Y27967422D03*
G04 #@! TD*
D13*
G04 #@! TO.C,C75*
X34196648Y24094922D03*
X34196648Y25064922D03*
G04 #@! TD*
G04 #@! TO.C,C34*
X25966648Y33574922D03*
X25966648Y34544922D03*
G04 #@! TD*
D12*
G04 #@! TO.C,C23*
X15866648Y63819922D03*
X15866648Y65519922D03*
G04 #@! TD*
D11*
G04 #@! TO.C,R43*
X52341648Y14854672D03*
X51371648Y14854672D03*
G04 #@! TD*
D14*
G04 #@! TO.C,C69*
X6060000Y63040000D03*
X7960000Y63040000D03*
G04 #@! TD*
D13*
G04 #@! TO.C,C148*
X37136648Y6424922D03*
X37136648Y7394922D03*
G04 #@! TD*
D12*
G04 #@! TO.C,R16*
X21046648Y34649922D03*
X21046648Y32949922D03*
G04 #@! TD*
D29*
G04 #@! TO.C,U9*
X52311648Y33432422D03*
X51661648Y33432422D03*
X51011648Y33432422D03*
X50361648Y33432422D03*
X49711648Y33432422D03*
X49061648Y33432422D03*
X48411648Y33432422D03*
X47761648Y33432422D03*
X47111648Y33432422D03*
X46461648Y33432422D03*
X45811648Y33432422D03*
X45161648Y33432422D03*
X44511648Y33432422D03*
X43861648Y33432422D03*
X43861648Y27707422D03*
X44511648Y27707422D03*
X45161648Y27707422D03*
X45811648Y27707422D03*
X46461648Y27707422D03*
X47111648Y27707422D03*
X47761648Y27707422D03*
X48411648Y27707422D03*
X49061648Y27707422D03*
X49711648Y27707422D03*
X50361648Y27707422D03*
X51011648Y27707422D03*
X51661648Y27707422D03*
X52311648Y27707422D03*
G04 #@! TD*
D11*
G04 #@! TO.C,R19*
X45255000Y56910000D03*
X44285000Y56910000D03*
G04 #@! TD*
G04 #@! TO.C,C74*
X29851648Y28539922D03*
X28881648Y28539922D03*
G04 #@! TD*
D12*
G04 #@! TO.C,R78*
X23030000Y81520000D03*
X24730000Y81520000D03*
G04 #@! TD*
G04 #@! TO.C,R70*
X37796648Y100959922D03*
X36096648Y100959922D03*
G04 #@! TD*
D18*
G04 #@! TO.C,R163*
X47755480Y8569922D03*
X48725480Y8569922D03*
G04 #@! TD*
D12*
G04 #@! TO.C,C5*
X38520148Y64216600D03*
X38520148Y62516600D03*
G04 #@! TD*
D17*
G04 #@! TO.C,R10*
X47476648Y11684922D03*
X47476648Y10714922D03*
G04 #@! TD*
D12*
G04 #@! TO.C,R62*
X30151648Y11099922D03*
X28451648Y11099922D03*
G04 #@! TD*
D18*
G04 #@! TO.C,C63*
X8112564Y37904922D03*
X9082564Y37904922D03*
G04 #@! TD*
D13*
G04 #@! TO.C,R153*
X47400000Y2825000D03*
X47400000Y3795000D03*
G04 #@! TD*
D18*
G04 #@! TO.C,C37*
X43551648Y40109922D03*
X44521648Y40109922D03*
G04 #@! TD*
D16*
G04 #@! TO.C,U14*
X47436648Y56144922D03*
X47436648Y55494922D03*
X47436648Y54844922D03*
X47436648Y54194922D03*
X53336648Y54194922D03*
X53336648Y54844922D03*
X53336648Y55494922D03*
X53336648Y56144922D03*
G04 #@! TD*
D11*
G04 #@! TO.C,C147*
X40505480Y5669922D03*
X39535480Y5669922D03*
G04 #@! TD*
G04 #@! TO.C,R53*
X36236088Y29156436D03*
X35266088Y29156436D03*
G04 #@! TD*
M02*
