M48
; DRILL file {KiCad 8.0.5} date 2024-10-08T11:29:52-0700
; FORMAT={-:-/ absolute / metric / decimal}
; #@! TF.CreationDate,2024-10-08T11:29:52-07:00
; #@! TF.GenerationSoftware,Kicad,Pcbnew,8.0.5
; #@! TF.FileFunction,MixedPlating,1,4
FMAT,2
METRIC
; #@! TA.AperFunction,Plated,PTH,ViaDrill
T1C0.200
; #@! TA.AperFunction,Plated,PTH,ComponentDrill
T2C0.686
; #@! TA.AperFunction,Plated,PTH,ComponentDrill
T3C0.700
; #@! TA.AperFunction,Plated,PTH,ComponentDrill
T4C0.800
; #@! TA.AperFunction,Plated,PTH,ComponentDrill
T5C0.889
; #@! TA.AperFunction,Plated,PTH,ComponentDrill
T6C0.914
; #@! TA.AperFunction,Plated,PTH,ComponentDrill
T7C1.000
; #@! TA.AperFunction,Plated,PTH,ComponentDrill
T8C1.143
; #@! TA.AperFunction,Plated,PTH,ComponentDrill
T9C1.200
%
G90
G05
T1
X2.24Y48.07
X3.06Y88.67
X3.06Y86.56
X3.677Y106.99
X4.125Y72.53
X4.93Y46.09
X5.387Y58.76
X5.432Y60.438
X5.65Y66.59
X6.052Y59.108
X6.122Y60.408
X6.632Y59.078
X6.64Y66.38
X6.66Y67.26
X6.83Y71.79
X6.89Y60.36
X7.29Y62.14
X7.308Y37.78
X7.34Y62.94
X7.372Y42.2
X7.372Y39.5
X7.372Y36.03
X7.48Y97.49
X7.76Y59.1
X7.78Y60.25
X7.96Y52.91
X8.37Y60.31
X8.46Y59.17
X8.61Y88.02
X8.697Y55.65
X9.1Y60.3
X9.13Y59.04
X9.327Y54.6
X9.367Y55.64
X9.442Y35.778
X9.76Y2.82
X9.897Y44.07
X9.987Y55.66
X10.257Y71.0
X10.859Y45.077
X11.167Y22.77
X11.22Y6.49
X11.67Y86.83
X11.717Y56.85
X11.807Y82.93
X11.92Y44.07
X11.99Y4.26
X12.24Y44.74
X13.057Y86.205
X13.1Y10.03
X13.25Y66.93
X13.369Y41.374
X13.477Y43.84
X14.325Y66.015
X14.76Y66.76
X15.12Y45.62
X15.367Y53.08
X15.697Y57.2
X16.57Y41.62
X16.68Y69.39
X17.37Y59.38
X17.377Y48.09
X17.43Y51.48
X18.027Y47.5
X18.1Y30.28
X18.616Y13.066
X18.63Y61.34
X19.157Y42.83
X20.127Y60.46
X20.38Y84.01
X20.76Y58.82
X20.84Y60.92
X21.052Y66.026
X21.09Y69.05
X21.19Y67.38
X21.33Y51.77
X21.33Y45.75
X21.35Y7.03
X21.41Y74.04
X21.427Y78.14
X21.427Y75.23
X21.82Y99.7
X21.85Y57.18
X21.89Y45.39
X21.945Y40.095
X22.087Y61.58
X22.11Y66.19
X22.13Y58.5
X22.22Y53.9
X22.267Y49.32
X22.32Y3.38
X22.33Y44.04
X22.48Y95.78
X22.567Y37.39
X22.81Y59.85
X22.851Y93.542
X23.03Y43.44
X23.033Y56.584
X23.057Y30.95
X23.08Y82.96
X23.25Y53.3
X23.28Y77.32
X23.313Y70.09
X23.355Y62.176
X23.51Y59.82
X23.51Y47.037
X23.52Y50.147
X23.537Y36.21
X23.547Y29.2
X23.57Y66.687
X23.62Y64.997
X23.66Y69.1
X23.74Y55.307
X23.757Y61.713
X23.947Y70.09
X24.01Y52.847
X24.29Y45.077
X24.357Y55.5
X24.52Y61.02
X24.526Y70.148
X24.54Y49.837
X24.707Y46.56
X25.08Y70.378
X25.08Y72.44
X25.09Y47.667
X25.098Y56.674
X25.2Y45.847
X25.214Y46.944
X25.24Y45.307
X25.257Y43.949
X25.325Y64.807
X25.328Y63.504
X25.35Y7.03
X25.566Y50.583
X25.767Y41.25
X25.787Y106.89
X25.917Y8.0
X25.938Y65.424
X25.96Y53.397
X25.98Y66.767
X26.016Y61.625
X26.019Y60.236
X26.02Y56.233
X26.13Y44.217
X26.2Y48.977
X26.2Y49.757
X26.311Y55.385
X26.337Y48.084
X26.388Y54.178
X26.545Y68.75
X26.61Y43.187
X26.625Y60.267
X26.627Y66.762
X26.634Y62.856
X26.702Y70.727
X26.78Y88.52
X27.002Y44.145
X27.006Y44.984
X27.01Y46.567
X27.262Y31.27
X27.27Y66.117
X27.45Y42.997
X27.66Y71.48
X27.82Y77.043
X27.824Y62.679
X27.895Y44.283
X27.93Y67.407
X27.938Y60.987
X28.0Y47.707
X28.004Y59.013
X28.04Y65.417
X28.077Y54.287
X28.13Y30.55
X28.15Y56.836
X28.212Y49.192
X28.22Y68.847
X28.301Y61.407
X28.585Y59.627
X28.588Y67.413
X28.602Y57.711
X28.605Y53.245
X28.61Y71.66
X28.63Y65.117
X28.69Y55.256
X28.816Y45.286
X28.85Y48.387
X29.042Y46.717
X29.09Y53.924
X29.103Y57.049
X29.12Y54.847
X29.147Y56.227
X29.158Y49.099
X29.16Y55.584
X29.18Y47.687
X29.22Y58.967
X29.227Y60.274
X29.23Y66.757
X29.411Y43.105
X29.61Y58.117
X29.763Y43.751
X29.875Y58.959
X29.973Y57.597
X30.01Y65.057
X30.015Y45.721
X30.037Y29.74
X30.053Y61.439
X30.08Y52.997
X30.09Y69.017
X30.132Y45.185
X30.227Y34.33
X30.237Y32.11
X30.33Y77.13
X30.42Y54.699
X30.49Y52.547
X30.53Y59.612
X30.847Y2.965
X30.85Y61.31
X30.933Y52.149
X31.0Y47.367
X31.03Y48.937
X31.038Y49.753
X31.158Y54.468
X31.177Y7.58
X31.33Y64.427
X31.34Y1.14
X31.377Y52.497
X31.377Y55.007
X31.377Y51.677
X31.53Y69.937
X31.58Y62.207
X31.772Y57.385
X31.78Y45.727
X31.794Y47.35
X31.799Y60.955
X31.805Y53.592
X31.806Y44.977
X31.806Y46.583
X31.82Y61.559
X31.91Y49.7
X31.97Y26.39
X31.977Y54.177
X32.187Y68.54
X32.44Y66.077
X32.467Y63.488
X32.475Y64.817
X32.48Y62.207
X32.48Y60.917
X32.494Y67.376
X32.607Y44.703
X32.754Y46.205
X32.78Y53.347
X32.82Y48.137
X32.94Y48.787
X33.057Y24.2
X33.057Y13.3
X33.08Y45.522
X33.115Y57.25
X33.125Y60.267
X33.128Y58.944
X33.137Y56.673
X33.138Y60.883
X33.138Y64.189
X33.167Y49.587
X33.307Y42.69
X33.514Y45.273
X33.592Y25.926
X33.624Y43.482
X33.77Y58.962
X33.775Y60.257
X33.777Y61.56
X33.78Y64.167
X33.985Y45.645
X33.987Y10.7
X34.16Y85.48
X34.17Y56.207
X34.231Y70.1
X34.39Y70.99
X34.577Y66.22
X34.586Y54.85
X34.67Y64.317
X34.75Y43.927
X34.883Y58.099
X34.952Y44.759
X34.997Y20.78
X35.037Y45.304
X35.078Y56.99
X35.11Y79.85
X35.127Y34.66
X35.174Y46.007
X35.212Y62.599
X35.304Y59.034
X35.31Y63.327
X35.327Y81.21
X35.401Y63.938
X35.45Y61.234
X35.79Y78.15
X35.81Y83.59
X36.13Y66.95
X36.164Y81.027
X36.189Y70.962
X36.647Y68.61
X36.65Y38.69
X36.967Y81.8
X37.177Y4.43
X37.22Y78.84
X37.294Y82.33
X37.457Y68.94
X37.536Y90.45
X37.777Y5.44
X37.831Y60.045
X37.877Y9.0
X37.9Y67.99
X37.98Y38.81
X38.217Y66.8
X38.22Y45.67
X38.27Y36.96
X38.46Y92.39
X38.467Y12.95
X38.547Y21.83
X38.58Y38.83
X38.647Y65.14
X38.797Y55.14
X38.8Y36.96
X38.847Y54.03
X38.956Y70.132
X39.097Y21.02
X39.127Y61.13
X39.647Y62.77
X39.747Y66.15
X39.867Y62.06
X40.077Y60.3
X40.145Y68.685
X40.597Y57.49
X40.66Y55.98
X40.697Y59.74
X40.9Y68.45
X41.04Y69.12
X41.29Y56.343
X41.397Y14.36
X41.417Y9.91
X41.437Y4.9
X41.607Y57.49
X41.86Y46.01
X41.967Y11.72
X42.0Y46.6
X42.06Y61.5
X42.447Y12.67
X42.578Y100.237
X42.717Y11.62
X42.95Y45.59
X43.14Y70.8
X43.422Y46.282
X43.537Y39.1
X43.63Y51.81
X43.67Y95.43
X43.917Y9.68
X44.117Y14.19
X44.28Y55.1
X44.51Y36.38
X44.77Y20.07
X45.05Y44.11
X45.057Y9.11
X45.217Y34.74
X45.44Y20.122
X45.587Y10.5
X45.94Y55.76
X46.303Y13.096
X46.457Y4.0
X46.56Y94.84
X46.647Y44.62
X46.74Y51.91
X46.768Y13.277
X47.347Y14.91
X47.46Y47.78
X47.527Y7.68
X47.607Y58.74
X47.607Y52.04
X47.897Y20.42
X48.467Y58.98
X48.495Y35.92
X48.6Y37.72
X49.087Y35.17
X49.427Y40.84
X49.497Y11.09
X49.577Y43.98
X49.607Y6.42
X49.633Y36.707
X49.907Y21.82
X50.097Y35.65
X50.14Y59.62
X50.457Y18.69
X50.82Y66.64
X50.85Y58.423
X50.87Y57.745
X50.967Y35.47
X51.134Y45.88
X51.38Y26.31
X51.547Y23.05
X51.947Y18.77
X52.19Y96.38
X52.27Y35.72
X52.327Y26.12
X53.027Y15.71
X53.23Y34.28
X53.35Y29.88
X54.26Y65.44
X54.59Y44.05
X57.85Y29.78
T2
X31.947Y86.09
X31.947Y83.89
X31.947Y79.49
X33.046Y87.19
X33.046Y84.99
X33.046Y82.79
X33.046Y80.59
T3
X31.947Y81.69
T4
X9.987Y105.49
X9.987Y99.69
X11.787Y105.49
X11.787Y99.69
X29.427Y103.39
X29.427Y97.59
X31.227Y103.39
X31.227Y97.59
X48.859Y105.49
X48.859Y99.69
X50.659Y105.49
X50.659Y99.69
T5
X2.843Y36.94
X8.609Y16.174
X8.609Y12.706
X18.371Y36.94
X24.137Y16.174
X24.137Y12.706
X30.871Y21.94
X36.637Y31.174
X36.801Y12.66
X52.301Y12.66
X57.902Y36.94
X57.902Y21.94
T6
X28.777Y87.633
X28.777Y79.047
T7
X7.637Y104.84
X7.637Y100.34
X14.137Y104.84
X14.137Y100.34
X14.937Y23.66
X14.937Y21.12
X14.937Y18.58
X14.937Y16.04
X14.937Y13.5
X17.477Y23.66
X17.477Y21.12
X17.477Y18.58
X17.477Y16.04
X17.477Y13.5
X27.331Y102.74
X27.331Y98.24
X27.647Y94.01
X27.647Y91.47
X30.187Y94.01
X30.187Y91.47
X32.727Y94.01
X32.727Y91.47
X33.323Y102.74
X33.323Y98.24
X35.267Y94.01
X35.267Y91.47
X46.509Y104.84
X46.509Y100.34
X53.009Y104.84
X53.009Y100.34
X57.227Y80.47
X57.227Y77.93
X57.227Y75.39
X57.227Y72.85
T8
X5.256Y36.94
X8.609Y27.147
X8.609Y18.587
X8.609Y10.293
X8.609Y1.733
X13.816Y36.94
X20.784Y36.94
X24.137Y27.147
X24.137Y18.587
X24.137Y10.293
X24.137Y1.733
X29.344Y36.94
X33.284Y21.94
X36.637Y42.147
X36.637Y33.587
X36.801Y10.247
X36.801Y1.687
X41.844Y21.94
X46.93Y36.94
X46.93Y21.94
X52.301Y10.247
X52.301Y1.687
X55.489Y36.94
X55.489Y21.94
T9
X5.509Y48.986
X8.44Y75.166
X10.509Y48.986
X13.44Y75.166
X15.509Y48.986
X18.44Y75.166
X42.137Y74.986
X45.137Y48.986
X47.137Y74.986
X50.137Y48.986
X52.137Y74.986
X55.137Y48.986
M30
